# https://github.com/mikedh/trimesh
v -0.00031963 0.00749291 -0.01600000
v 0.00076550 0.00746046 -0.01600000
v 0.00003540 -0.00749992 -0.01600000
v -0.00596635 0.00455100 -0.01600000
v -0.00652127 0.00371693 -0.01600000
v -0.00693821 0.00285055 -0.01600000
v 0.00294715 0.00689634 -0.01600000
v 0.00393675 0.00638518 -0.01600000
v 0.00732061 -0.00163329 -0.01600000
v 0.00473612 0.00581726 -0.01600000
v 0.00553437 0.00506278 -0.01600000
v 0.00524751 -0.00536018 -0.01600000
v 0.00454605 -0.00597246 -0.01600000
v 0.00369809 -0.00652885 -0.01600000
v 0.00269310 -0.00699891 -0.01600000
v -0.00661113 -0.00354764 -0.01600000
v -0.00116310 -0.00741132 -0.01600000
v -0.00703448 -0.00260020 -0.01600000
v -0.00733617 -0.00156034 -0.01600000
v -0.00748439 -0.00048613 -0.01600000
v -0.00527624 0.00532902 -0.01600000
v -0.00436758 0.00609768 -0.01600000
v -0.00352340 0.00662292 -0.01600000
v 0.00711053 -0.00238824 -0.01600000
v 0.00663850 -0.00349089 -0.01600000
v 0.00602553 -0.00446525 -0.01600000
v 0.00161682 -0.00732292 -0.01600000
v 0.00040461 -0.00748904 -0.01600000
v -0.00326356 -0.00675462 -0.01600000
v -0.00428353 -0.00615684 -0.01600000
v -0.00522364 -0.00538081 -0.01600000
v -0.00746145 0.00075040 -0.01600000
v -0.00725857 0.00187976 -0.01600000
v -0.00251756 0.00706669 -0.01600000
v -0.00142242 0.00736308 -0.01600000
v 0.00181398 0.00727611 -0.01600000
v -0.00222435 -0.00716491 -0.01600000
v -0.00601147 -0.00448988 -0.01600000
v 0.00680456 0.00315614 -0.01600000
v 0.00723212 0.00198914 -0.01600000
v 0.00745792 0.00079493 -0.01600000
v 0.00627031 0.00411658 -0.01600000
v 0.00748802 -0.00042515 -0.01600000
v 0.00161682 -0.00732292 -0.01330000
v 0.00097498 -0.00743610 -0.01330000
v 0.00191216 -0.00725120 -0.01330000
v 0.00269310 -0.00699891 -0.01330000
v 0.00369809 -0.00652885 -0.01330000
v 0.00378749 -0.00647801 -0.01330000
v 0.00454605 -0.00597246 -0.01330000
v 0.00477182 -0.00579024 -0.01330000
v 0.00524751 -0.00536018 -0.01330000
v 0.00646467 -0.00380240 -0.01330000
v 0.00663850 -0.00349089 -0.01330000
v 0.00693442 -0.00285975 -0.01330000
v 0.00711053 -0.00238824 -0.01330000
v 0.00725323 -0.00191090 -0.01330000
v 0.00732061 -0.00163329 -0.01330000
v 0.00743775 -0.00096638 -0.01330000
v 0.00748802 -0.00042515 -0.01330000
v 0.00750001 -0.00001632 -0.01330000
v 0.00745792 0.00079493 -0.01330000
v 0.00744187 0.00093373 -0.01330000
v 0.00725991 0.00188500 -0.01330000
v 0.00694160 0.00284218 -0.01330000
v 0.00646812 0.00379831 -0.01330000
v 0.00680456 0.00315614 -0.01330000
v 0.00579809 0.00475840 -0.01330000
v 0.00627031 0.00411658 -0.01330000
v 0.00473612 0.00581726 -0.01330000
v 0.00476375 0.00579474 -0.01330000
v 0.00553437 0.00506278 -0.01330000
v 0.00294715 0.00689634 -0.01330000
v 0.00341495 0.00667809 -0.01330000
v 0.00379228 0.00647187 -0.01330000
v 0.00393675 0.00638518 -0.01330000
v 0.00092151 0.00744268 -0.01330000
v 0.00181398 0.00727611 -0.01330000
v 0.00283418 0.00694327 -0.01330000
v -0.00003529 0.00749992 -0.01330000
v 0.00076550 0.00746046 -0.01330000
v -0.00386921 0.00642686 -0.01330000
v -0.00436758 0.00609768 -0.01330000
v -0.00527624 0.00532902 -0.01330000
v -0.00596635 0.00455100 -0.01330000
v -0.00652127 0.00371693 -0.01330000
v -0.00693821 0.00285055 -0.01330000
v -0.00696963 0.00277184 -0.01330000
v -0.00725857 0.00187976 -0.01330000
v -0.00727490 0.00181534 -0.01330000
v -0.00744909 0.00086288 -0.01330000
v -0.00749942 -0.00008711 -0.01330000
v -0.00746145 0.00075040 -0.01330000
v -0.00742858 -0.00103576 -0.01330000
v -0.00748439 -0.00048613 -0.01330000
v -0.00703448 -0.00260020 -0.01330000
v -0.00723342 -0.00198133 -0.01330000
v -0.00733617 -0.00156034 -0.01330000
v -0.00522364 -0.00538081 -0.01330000
v -0.00601147 -0.00448988 -0.01330000
v -0.00643135 -0.00386550 -0.01330000
v -0.00661113 -0.00354764 -0.01330000
v -0.00372249 -0.00651257 -0.01330000
v -0.00380094 -0.00646720 -0.01330000
v -0.00428353 -0.00615684 -0.01330000
v 0.00040461 -0.00748904 -0.01330000
v -0.00221970 -0.00350774 0.00080645
v -0.00177713 -0.00354315 0.00087514
v -0.00181846 -0.00314701 0.00119177
v -0.00585061 -0.00041365 -0.00066425
v -0.00582097 -0.00080438 -0.00072160
v -0.00531440 -0.00083536 0.00030629
v -0.00472818 -0.00245853 0.00000345
v -0.00439381 -0.00250533 0.00037477
v -0.00455444 -0.00170346 0.00086543
v -0.00418061 -0.00173360 0.00120648
v -0.00173396 -0.00391712 0.00052779
v -0.00119712 -0.00493538 -0.00058398
v -0.00078995 -0.00495868 -0.00056541
v -0.00083410 -0.00432055 0.00020148
v -0.00291845 -0.00412068 -0.00021291
v -0.00252065 -0.00417675 -0.00004834
v -0.00265232 -0.00346540 0.00069240
v -0.00693302 -0.00063835 -0.00545782
v -0.00688240 -0.00121758 -0.00554353
v -0.00660270 -0.00135880 -0.00389299
v -0.00705547 -0.00108821 -0.00690056
v -0.00398343 -0.00580703 -0.00562253
v -0.00438685 -0.00560578 -0.00605934
v -0.00397899 -0.00610155 -0.00709007
v -0.00033658 -0.00750439 -0.00973652
v -0.00070841 -0.00750100 -0.00975219
v -0.00058296 -0.00750244 -0.01118378
v -0.00435571 -0.00609170 -0.01206665
v -0.00410499 -0.00627515 -0.01252582
v -0.00372600 -0.00651149 -0.01222584
v 0.00668200 -0.00334530 -0.01056874
v 0.00691660 -0.00277071 -0.01030254
v 0.00675254 -0.00300560 -0.00963068
v 0.00677539 -0.00254734 -0.00856851
v 0.00697901 -0.00175184 -0.00827886
v 0.00674127 -0.00193269 -0.00731563
v 0.00465235 -0.00074247 -0.00144611
v 0.00467757 0.00002357 -0.00137689
v 0.00408197 0.00002432 -0.00067494
v 0.00181436 -0.00089521 0.00100918
v 0.00182039 0.00002302 0.00107101
v 0.00093531 0.00002130 0.00150903
v 0.00000716 -0.00140936 0.00171744
v 0.00000935 -0.00187328 0.00159523
v 0.00092424 -0.00184453 0.00125220
v 0.00091590 -0.00229119 0.00110252
v 0.00089370 -0.00314076 0.00069718
v 0.00090567 -0.00272422 0.00091768
v 0.00001354 -0.00276497 0.00123963
v 0.00001148 -0.00232614 0.00143613
v 0.00061699 -0.00700973 -0.00535887
v 0.00003362 -0.00705322 -0.00531408
v 0.00003466 -0.00728169 -0.00666898
v 0.00714956 0.00045271 -0.00802801
v 0.00716204 0.00000254 -0.00801020
v 0.00725204 0.00080751 -0.00900069
v 0.00055513 0.00703040 -0.00533704
v 0.00112960 0.00693891 -0.00546441
v 0.00100046 0.00717227 -0.00678012
v 0.00059028 0.00685467 -0.00461447
v -0.00003222 0.00689751 -0.00455160
v -0.00003111 0.00666694 -0.00378933
v -0.00176221 0.00689967 -0.00561284
v -0.00120177 0.00699749 -0.00543743
v -0.00107557 0.00723855 -0.00677609
v -0.00065658 0.00688068 -0.00458615
v -0.00069161 0.00664836 -0.00381632
v -0.00251721 0.00692592 -0.00727383
v -0.00294396 0.00677114 -0.00750076
v -0.00325610 0.00644356 -0.00641581
v -0.00578542 0.00403407 -0.00557669
v -0.00556002 0.00443742 -0.00603680
v -0.00601136 0.00399666 -0.00710031
v -0.00739767 -0.00113145 -0.01243653
v -0.00731934 -0.00128496 -0.01130391
v -0.00740052 -0.00068839 -0.01122773
v -0.00686085 -0.00302445 -0.01298476
v 0.00003527 -0.00750020 -0.01236153
v 0.00670249 -0.00336778 -0.01318673
v 0.00671178 0.00334891 -0.01320878
v 0.00689853 0.00294718 -0.01298787
v 0.00503784 0.00555851 -0.01280789
v 0.00529634 0.00531294 -0.01240306
v -0.00003555 0.00750041 -0.01239550
v -0.00127526 0.00743325 -0.01125784
v -0.00065985 0.00749432 -0.01120687
v -0.00003525 0.00749668 -0.01121039
v 0.00049879 0.00747731 -0.01242642
v 0.00293161 0.00690045 -0.01303160
v 0.00375061 0.00647859 -0.01231940
v 0.00448864 0.00600880 -0.01289067
v 0.00479411 0.00576971 -0.01320866
v 0.00576034 0.00480373 -0.01319915
v 0.00599970 0.00450182 -0.01286531
v 0.00624173 0.00416167 -0.01254557
v 0.00648250 0.00377868 -0.01224692
v 0.00706867 0.00251382 -0.01279626
v 0.00721671 0.00205024 -0.01263789
v 0.00733736 0.00155932 -0.01251558
v 0.00742657 0.00104734 -0.01242912
v 0.00744550 0.00060977 -0.01121692
v 0.00746780 -0.00000904 -0.01119433
v 0.00749885 -0.00001311 -0.01235984
v 0.00747910 -0.00054675 -0.01237464
v 0.00742285 -0.00107271 -0.01242308
v 0.00733206 -0.00158371 -0.01250667
v 0.00721005 -0.00207342 -0.01262606
v 0.00706092 -0.00253574 -0.01278125
v 0.00688991 -0.00296760 -0.01296950
v 0.00647644 -0.00378870 -0.01222820
v 0.00623583 -0.00417043 -0.01252303
v 0.00575519 -0.00480988 -0.01316766
v 0.00415547 -0.00623781 -0.01256205
v 0.00108215 -0.00741071 -0.01245666
v 0.00064814 -0.00744231 -0.01124304
v -0.00524760 -0.00533397 -0.01238635
v -0.00571201 -0.00486146 -0.01317225
v -0.00498997 -0.00559122 -0.01277405
v -0.00474320 -0.00580852 -0.01316855
v -0.00619523 -0.00420685 -0.01255721
v -0.00692573 0.00287433 -0.01300209
v -0.00708769 0.00243374 -0.01281658
v -0.00722704 0.00196626 -0.01265965
v -0.00733959 0.00147545 -0.01253388
v -0.00742130 0.00096641 -0.01244170
v -0.00746888 0.00044461 -0.01238516
v -0.00748084 -0.00008354 -0.01236535
v -0.00671844 0.00324402 -0.01203618
v -0.00650597 0.00368283 -0.01229627
v -0.00628041 0.00408063 -0.01257931
v -0.00604581 0.00443464 -0.01288246
v -0.00580755 0.00474697 -0.01320308
v -0.00691373 0.00276661 -0.01180286
v -0.00708775 0.00225302 -0.01160018
v -0.00723479 0.00170573 -0.01143295
v -0.00734622 0.00112943 -0.01130754
v -0.00741427 0.00053099 -0.01122941
v -0.00743316 -0.00007907 -0.01120232
v -0.00730454 -0.00163797 -0.01252602
v -0.00560538 0.00492859 -0.01203224
v -0.00472029 0.00578579 -0.01163201
v -0.00505483 0.00550312 -0.01202108
v -0.00534591 0.00523641 -0.01241467
v -0.00665241 0.00282745 -0.00755939
v -0.00707217 0.00097056 -0.00689960
v -0.00694148 0.00053587 -0.00545776
v -0.00689957 0.00111525 -0.00554305
v -0.00667782 0.00062297 -0.00377738
v -0.00662071 0.00127667 -0.00389240
v -0.00647614 0.00066902 -0.00282081
v -0.00640680 0.00136094 -0.00296074
v -0.00620420 0.00071575 -0.00179501
v -0.00611970 0.00144567 -0.00197095
v -0.00613087 0.00266126 -0.00353855
v -0.00620469 0.00306893 -0.00472510
v -0.00637998 0.00251133 -0.00437191
v -0.00657054 0.00272277 -0.00613821
v -0.00671337 0.00221781 -0.00588623
v -0.00679551 0.00240309 -0.00734246
v -0.00691542 0.00194932 -0.00715665
v -0.00704651 0.00171608 -0.00822758
v -0.00640121 0.00318906 -0.00643222
v -0.00722692 0.00136390 -0.00995314
v -0.00598371 0.00214805 -0.00226753
v -0.00628964 0.00202906 -0.00320183
v -0.00652046 0.00190979 -0.00409137
v -0.00682362 0.00167877 -0.00568644
v -0.00700796 0.00146954 -0.00700798
v -0.00712749 0.00128824 -0.00811386
v -0.00732982 0.00065650 -0.00983371
v -0.00481589 0.00532867 -0.00649176
v -0.00512086 0.00510128 -0.00693350
v -0.00560529 0.00464293 -0.00779280
v -0.00595628 0.00420621 -0.00859716
v -0.00446365 0.00554981 -0.00604814
v -0.00526127 0.00465725 -0.00547816
v -0.00549406 0.00424414 -0.00495014
v -0.00572318 0.00377251 -0.00443544
v -0.00483895 0.00556946 -0.00912215
v -0.00406081 0.00576178 -0.00560875
v -0.00490516 0.00487191 -0.00491147
v -0.00513975 0.00444972 -0.00431178
v -0.00537473 0.00396416 -0.00372116
v -0.00560034 0.00341693 -0.00316600
v -0.00623089 -0.00002807 -0.00173632
v -0.00586192 -0.00002089 -0.00064637
v -0.00585422 0.00037183 -0.00066731
v -0.00669363 -0.00004086 -0.00373997
v -0.00649660 -0.00003475 -0.00277509
v -0.00535879 -0.00001348 0.00040187
v -0.00534988 0.00039857 0.00037391
v -0.00532138 0.00080822 0.00029766
v -0.00631688 0.00358022 -0.00805957
v -0.00621244 0.00361443 -0.00675677
v -0.00600341 0.00357721 -0.00513306
v -0.00593875 0.00324423 -0.00395721
v -0.00580680 0.00280977 -0.00267262
v -0.00557764 0.00226534 -0.00131985
v -0.00582867 0.00076247 -0.00072580
v -0.00559207 0.00078554 -0.00020204
v -0.00548778 0.00157101 -0.00045884
v -0.00521414 0.00161156 0.00001233
v -0.00505606 0.00237935 -0.00042604
v -0.00475141 0.00243439 -0.00001984
v -0.00572950 0.00152969 -0.00095337
v -0.00533140 0.00232291 -0.00086211
v -0.00486471 0.00309663 -0.00098506
v -0.00423757 0.00323076 -0.00026983
v -0.00490792 0.00165110 0.00044978
v -0.00441725 0.00248772 0.00034827
v -0.00388523 0.00329430 0.00003305
v -0.00370514 0.00397637 -0.00069112
v -0.00334376 0.00404627 -0.00044490
v -0.00317655 0.00465706 -0.00123895
v -0.00268748 0.00346497 0.00065750
v -0.00323977 0.00263434 0.00114544
v -0.00280114 0.00267682 0.00129709
v -0.00335073 0.00179444 0.00166008
v -0.00289442 0.00182466 0.00180021
v -0.00292978 0.00138020 0.00198814
v -0.00245123 0.00140096 0.00205979
v -0.00247140 0.00094186 0.00218976
v -0.00197742 0.00095427 0.00219586
v -0.00198692 0.00001152 0.00229402
v -0.00145490 0.00189157 0.00188974
v -0.00146906 0.00143218 0.00204448
v -0.00098024 0.00097096 0.00206873
v -0.00047474 0.00279612 0.00133038
v -0.00048355 0.00190952 0.00172725
v -0.00000850 0.00190845 0.00159541
v -0.00048704 0.00097462 0.00195040
v -0.00000409 0.00097474 0.00180549
v 0.00000043 0.00001886 0.00186809
v -0.00147870 0.00096408 0.00215303
v -0.00196270 0.00141845 0.00207643
v -0.00242320 0.00185138 0.00188162
v -0.00234794 0.00271449 0.00139582
v -0.00225502 0.00351162 0.00076920
v -0.00215372 0.00422617 0.00004245
v -0.00456849 0.00168941 0.00084311
v -0.00419520 0.00172625 0.00118194
v -0.00405336 0.00253905 0.00067010
v -0.00365954 0.00258808 0.00093744
v -0.00350713 0.00335502 0.00029082
v -0.00310610 0.00341233 0.00049869
v -0.00296216 0.00411218 -0.00024039
v -0.00256440 0.00417264 -0.00007822
v -0.00243787 0.00479542 -0.00087781
v -0.00204919 0.00485400 -0.00075138
v -0.00231207 0.00533283 -0.00171284
v -0.00156924 0.00544726 -0.00148646
v -0.00194179 0.00187391 0.00190969
v -0.00141488 0.00277121 0.00144829
v -0.00188443 0.00274630 0.00144507
v -0.00136361 0.00358177 0.00085907
v -0.00181248 0.00355099 0.00083573
v -0.00130658 0.00430655 0.00016253
v -0.00173337 0.00427130 0.00012243
v -0.00124701 0.00494212 -0.00060715
v -0.00165132 0.00490342 -0.00066114
v -0.00096725 0.00190366 0.00182715
v -0.00094356 0.00278816 0.00140891
v -0.00091216 0.00360263 0.00084115
v -0.00087660 0.00433047 0.00016358
v -0.00083902 0.00496854 -0.00058949
v -0.00002569 0.00552945 -0.00142951
v -0.00080090 0.00551707 -0.00139005
v -0.00043012 0.00498111 -0.00060823
v -0.00046190 0.00361228 0.00078394
v -0.00002002 0.00433836 0.00005180
v -0.00044666 0.00434156 0.00012640
v -0.00002306 0.00497826 -0.00066343
v -0.00521100 0.00515802 -0.00847036
v -0.00470927 0.00560920 -0.00777583
v -0.00406312 0.00604763 -0.00708077
v -0.00367965 0.00625253 -0.00674130
v -0.00370322 0.00640737 -0.00800904
v -0.00433085 0.00599610 -0.00855701
v -0.00206137 0.00705789 -0.00707272
v -0.00279411 0.00661741 -0.00611309
v -0.00360785 0.00596217 -0.00518587
v -0.00448566 0.00507923 -0.00434789
v -0.00471424 0.00464895 -0.00367674
v -0.00494677 0.00415056 -0.00301018
v -0.00517432 0.00358553 -0.00237633
v -0.00538798 0.00295538 -0.00180322
v -0.00134047 0.00657638 -0.00394304
v -0.00196643 0.00646193 -0.00415689
v -0.00255826 0.00631593 -0.00444524
v -0.00465505 0.00374863 -0.00163208
v -0.00404429 0.00390321 -0.00097450
v -0.00443632 0.00433027 -0.00233721
v -0.00384553 0.00450015 -0.00173567
v -0.00421618 0.00484027 -0.00307213
v -0.00364765 0.00502054 -0.00252521
v -0.00400230 0.00527742 -0.00380836
v -0.00345698 0.00546342 -0.00331491
v -0.00310645 0.00614791 -0.00479340
v -0.00229534 0.00677076 -0.00584194
v -0.00157887 0.00716333 -0.00690436
v -0.00096352 0.00737196 -0.00792717
v -0.00062254 0.00705688 -0.00532618
v -0.00055835 0.00728007 -0.00669418
v -0.00050094 0.00739609 -0.00787512
v -0.00449955 0.00590474 -0.00973743
v -0.00399116 0.00629686 -0.00927037
v -0.00338361 0.00667096 -0.00883277
v -0.00266836 0.00699437 -0.00844345
v -0.00185494 0.00723651 -0.00813078
v -0.00141674 0.00731852 -0.00801336
v -0.00419056 0.00617921 -0.01032341
v -0.00368614 0.00653218 -0.00993170
v -0.00309940 0.00686465 -0.00957722
v -0.00242564 0.00714602 -0.00927568
v -0.00167522 0.00734794 -0.00904634
v -0.00086722 0.00744960 -0.00890874
v -0.00186658 0.00731192 -0.01136527
v -0.00382719 0.00645176 -0.01226026
v -0.00420822 0.00620639 -0.01256151
v -0.00003510 0.00748002 -0.00975553
v -0.00078576 0.00748664 -0.00976655
v -0.00152044 0.00740715 -0.00985955
v -0.00221273 0.00723895 -0.01003050
v -0.00284573 0.00699825 -0.01026815
v -0.00340931 0.00670886 -0.01055958
v -0.00390513 0.00639718 -0.01089173
v -0.00433927 0.00608558 -0.01125251
v -0.00454775 0.00596231 -0.01287835
v -0.00484789 0.00572177 -0.01320639
v 0.00092633 0.00096399 0.00144887
v 0.00180676 0.00094091 0.00100727
v 0.00262797 0.00090870 0.00048879
v -0.00001270 0.00279404 0.00121615
v -0.00001064 0.00235879 0.00142593
v 0.00089548 0.00232876 0.00109149
v 0.00090801 0.00188462 0.00125042
v 0.00177487 0.00183667 0.00080908
v 0.00166770 0.00347408 -0.00000222
v 0.00084782 0.00356395 0.00040062
v 0.00086505 0.00317076 0.00066364
v 0.00258288 0.00177133 0.00028563
v 0.00332286 0.00169531 -0.00030570
v 0.00405488 0.00083017 -0.00074847
v 0.00464717 0.00078970 -0.00144874
v 0.00515852 0.00075009 -0.00218160
v 0.00398539 0.00161577 -0.00095506
v 0.00456834 0.00153660 -0.00165039
v 0.00507335 0.00145965 -0.00237424
v 0.00550209 0.00138680 -0.00310919
v 0.00522136 0.00263128 -0.00373803
v 0.00505920 0.00318640 -0.00413717
v 0.00480075 0.00276720 -0.00305164
v 0.00464355 0.00334788 -0.00348542
v 0.00431491 0.00291165 -0.00236592
v 0.00416814 0.00351977 -0.00283016
v 0.00376025 0.00306055 -0.00169961
v 0.00489342 0.00369513 -0.00456699
v 0.00401839 0.00407110 -0.00333688
v 0.00362867 0.00369676 -0.00219089
v 0.00313319 0.00320982 -0.00107147
v 0.00537396 0.00202950 -0.00338685
v 0.00494893 0.00213542 -0.00267250
v 0.00445289 0.00224772 -0.00196407
v 0.00388319 0.00236350 -0.00127941
v 0.00323719 0.00247984 -0.00063637
v 0.00251553 0.00259121 -0.00004939
v 0.00616307 0.00124977 -0.00452940
v 0.00604211 0.00183254 -0.00475628
v 0.00589634 0.00238131 -0.00504252
v 0.00573877 0.00289204 -0.00536682
v 0.00557481 0.00336514 -0.00571557
v 0.00523883 0.00420248 -0.00644566
v 0.00456200 0.00457909 -0.00546485
v 0.00372081 0.00500720 -0.00441078
v 0.00386838 0.00456660 -0.00386932
v 0.00335852 0.00478184 -0.00330543
v 0.00349386 0.00427035 -0.00273226
v 0.00290510 0.00446855 -0.00216099
v 0.00302087 0.00387355 -0.00158712
v 0.00234280 0.00404052 -0.00103994
v 0.00243288 0.00335197 -0.00049948
v 0.00172697 0.00268733 0.00046706
v 0.00088105 0.00275825 0.00089492
v 0.00119687 0.00675501 -0.00476880
v 0.00062617 0.00662090 -0.00387242
v -0.00002969 0.00636859 -0.00300970
v -0.00072740 0.00635015 -0.00302238
v -0.00141399 0.00627566 -0.00314747
v -0.00207627 0.00615726 -0.00337295
v -0.00285159 0.00563414 -0.00288954
v -0.00301075 0.00518659 -0.00206323
v 0.00231805 0.00642407 -0.00530133
v 0.00177649 0.00660824 -0.00500196
v 0.00187294 0.00635710 -0.00432937
v 0.00126487 0.00651385 -0.00405746
v 0.00133276 0.00620611 -0.00333746
v 0.00066246 0.00631905 -0.00311827
v 0.00069880 0.00593907 -0.00235940
v -0.00002789 0.00599228 -0.00221962
v -0.00076370 0.00597628 -0.00221001
v -0.00149001 0.00590275 -0.00232499
v -0.00219119 0.00578445 -0.00255476
v 0.00073569 0.00547366 -0.00160536
v 0.00139974 0.00582245 -0.00261587
v 0.00196859 0.00604238 -0.00365007
v 0.00243834 0.00616193 -0.00467306
v 0.00342056 0.00572198 -0.00549017
v 0.00422738 0.00528664 -0.00635952
v 0.00326744 0.00600259 -0.00602359
v 0.00405717 0.00557748 -0.00680236
v -0.00003305 0.00707049 -0.00528956
v 0.00048846 0.00724788 -0.00669418
v -0.00003410 0.00728442 -0.00666491
v 0.00042892 0.00735367 -0.00788488
v -0.00003464 0.00739018 -0.00786014
v 0.00388690 0.00582994 -0.00724058
v 0.00296311 0.00643213 -0.00706438
v 0.00311443 0.00623785 -0.00654923
v 0.00240457 0.00676272 -0.00732082
v 0.00267544 0.00644093 -0.00622018
v 0.00295330 0.00594535 -0.00506721
v 0.00219798 0.00663375 -0.00591870
v 0.00196460 0.00692319 -0.00710070
v 0.00175040 0.00708532 -0.00817903
v 0.00160264 0.00418260 -0.00057093
v 0.00224941 0.00465406 -0.00164627
v 0.00278847 0.00499495 -0.00277319
v 0.00322527 0.00523172 -0.00389213
v 0.00357221 0.00539164 -0.00495167
v 0.00439613 0.00495473 -0.00591329
v 0.00489349 0.00489522 -0.00717909
v 0.00453963 0.00545034 -0.00791052
v 0.00309082 0.00561856 -0.00448055
v 0.00267349 0.00545280 -0.00340387
v 0.00215511 0.00519254 -0.00229689
v 0.00153501 0.00481013 -0.00121164
v 0.00081138 0.00428635 -0.00020029
v 0.00042055 0.00359299 0.00056049
v -0.00001468 0.00321173 0.00096946
v 0.00661985 0.00238350 -0.00749941
v 0.00648973 0.00279903 -0.00770646
v 0.00609861 0.00306821 -0.00675887
v 0.00620032 0.00355684 -0.00816097
v 0.00577924 0.00386452 -0.00734020
v 0.00588180 0.00421120 -0.00864641
v 0.00544095 0.00453946 -0.00793787
v 0.00554361 0.00476397 -0.00915619
v 0.00508908 0.00509695 -0.00854693
v 0.00519858 0.00522129 -0.00968508
v 0.00473546 0.00554582 -0.00916350
v 0.00485958 0.00558935 -0.01022780
v 0.00229086 0.00696173 -0.00938751
v 0.00253516 0.00681291 -0.00851995
v 0.00323372 0.00650938 -0.00892332
v 0.00281507 0.00658980 -0.00756635
v 0.00355189 0.00623037 -0.00809841
v 0.00371801 0.00604668 -0.00767300
v 0.00671384 0.00335043 -0.01197693
v 0.00692711 0.00287774 -0.01174104
v 0.00711368 0.00236141 -0.01154466
v 0.00726557 0.00180499 -0.01139166
v 0.00737751 0.00121796 -0.01128241
v 0.00141591 0.00725547 -0.00996755
v 0.00070486 0.00739751 -0.00982577
v 0.00088398 0.00728861 -0.00794814
v 0.00132599 0.00719812 -0.00804713
v 0.00149485 0.00706242 -0.00691741
v 0.00168049 0.00680402 -0.00566163
v 0.00425181 0.00612349 -0.01130759
v 0.00379110 0.00638174 -0.01098387
v 0.00331443 0.00669580 -0.01207194
v 0.00058414 0.00744643 -0.01126411
v 0.00102504 0.00741898 -0.01248974
v 0.00153676 0.00732882 -0.01258295
v 0.00295001 0.00670819 -0.00969704
v 0.00385078 0.00620171 -0.00934844
v 0.00418835 0.00588133 -0.00863523
v 0.00255733 0.00584047 -0.00403891
v 0.00206221 0.00565587 -0.00297028
v 0.00146674 0.00535674 -0.00190106
v 0.00077361 0.00492284 -0.00087730
v 0.00040001 0.00431966 -0.00005816
v -0.00001656 0.00360939 0.00068938
v 0.00439194 0.00589496 -0.00978364
v 0.00407519 0.00616637 -0.01039457
v 0.00354441 0.00644160 -0.01003538
v 0.00327518 0.00662763 -0.01068422
v 0.00283656 0.00689523 -0.01185133
v 0.00231990 0.00707314 -0.01165841
v 0.00202847 0.00721021 -0.01270472
v 0.00414221 0.00624736 -0.01259289
v 0.00465552 0.00585552 -0.01165350
v 0.00525609 0.00528514 -0.01067980
v 0.00558308 0.00490520 -0.01020183
v 0.00591159 0.00444562 -0.00974469
v 0.00622811 0.00390228 -0.00931529
v 0.00651915 0.00327107 -0.00892049
v 0.00677305 0.00255230 -0.00856790
v 0.00697711 0.00175670 -0.00827782
v 0.00711343 0.00089800 -0.00808055
v 0.00714420 0.00159086 -0.00914154
v 0.00697420 0.00232841 -0.00935805
v 0.00675318 0.00300600 -0.00963389
v 0.00649125 0.00361091 -0.00995728
v 0.00620021 0.00414088 -0.01032116
v 0.00589327 0.00459806 -0.01071805
v 0.00558362 0.00498466 -0.01114049
v 0.00500178 0.00558296 -0.01201994
v 0.00003554 -0.00749800 -0.01118854
v 0.00076804 -0.00739843 -0.00981238
v 0.00124466 -0.00734507 -0.01134022
v 0.00147109 -0.00725077 -0.00995487
v 0.00138235 -0.00719341 -0.00804130
v 0.00094486 -0.00728733 -0.00794166
v 0.00154928 -0.00704954 -0.00691928
v 0.00224574 -0.00661201 -0.00592845
v 0.00201438 -0.00690854 -0.00710218
v 0.00180229 -0.00707779 -0.00817387
v 0.00003170 -0.00663925 -0.00382421
v 0.00201559 -0.00601136 -0.00366537
v 0.00192210 -0.00632764 -0.00434782
v 0.00248328 -0.00613471 -0.00468592
v 0.00182738 -0.00658182 -0.00501934
v 0.00173278 -0.00678168 -0.00567503
v 0.00105966 -0.00716199 -0.00678257
v 0.00049431 -0.00735622 -0.00787800
v 0.00003555 -0.00748735 -0.00974157
v 0.00315377 -0.00621817 -0.00655467
v 0.00285601 -0.00657370 -0.00756724
v 0.00358433 -0.00621427 -0.00809859
v 0.00326831 -0.00649607 -0.00891892
v 0.00387696 -0.00618750 -0.00934330
v 0.00330513 -0.00661394 -0.01067066
v 0.00236069 -0.00705960 -0.01163652
v 0.00286953 -0.00688095 -0.01182792
v 0.00207087 -0.00719792 -0.01267013
v 0.00257832 -0.00680165 -0.00851556
v 0.00244988 -0.00674707 -0.00732201
v 0.00271892 -0.00642014 -0.00622742
v 0.00299430 -0.00592044 -0.00507637
v 0.00260028 -0.00581157 -0.00404923
v 0.00210652 -0.00562522 -0.00297691
v 0.00065057 -0.00682802 -0.00464328
v 0.00068443 -0.00659026 -0.00390366
v 0.00003030 -0.00634019 -0.00303977
v 0.00071816 -0.00628742 -0.00314516
v 0.00002857 -0.00596773 -0.00223494
v 0.00075132 -0.00591049 -0.00237294
v 0.00002643 -0.00551048 -0.00142425
v 0.00078457 -0.00545011 -0.00159988
v 0.00002386 -0.00496277 -0.00063871
v 0.00081784 -0.00490229 -0.00085393
v 0.00043985 -0.00430135 -0.00002027
v 0.00045378 -0.00356949 0.00060235
v 0.00088018 -0.00353796 0.00044057
v 0.00085007 -0.00426544 -0.00016408
v 0.00000494 -0.00093738 0.00180328
v 0.00093456 -0.00092174 0.00144799
v 0.00178980 -0.00179308 0.00081475
v 0.00174995 -0.00264961 0.00048870
v 0.00237612 -0.00401129 -0.00101520
v 0.00228742 -0.00462614 -0.00162949
v 0.00293993 -0.00443903 -0.00214803
v 0.00282676 -0.00496578 -0.00276811
v 0.00339347 -0.00475335 -0.00330151
v 0.00326212 -0.00520379 -0.00389478
v 0.00375419 -0.00498121 -0.00441308
v 0.00390005 -0.00453943 -0.00386694
v 0.00404702 -0.00404216 -0.00333090
v 0.00352559 -0.00424064 -0.00272289
v 0.00365637 -0.00366466 -0.00217760
v 0.00305138 -0.00384212 -0.00156852
v 0.00315901 -0.00317426 -0.00105052
v 0.00246102 -0.00331839 -0.00047196
v 0.00253685 -0.00255097 -0.00002968
v 0.00263501 -0.00086085 0.00049329
v 0.00259669 -0.00172550 0.00029471
v 0.00333557 -0.00164832 -0.00029612
v 0.00325682 -0.00243815 -0.00061988
v 0.00390107 -0.00232146 -0.00126706
v 0.00378374 -0.00302438 -0.00168435
v 0.00433601 -0.00287604 -0.00235570
v 0.00419303 -0.00348813 -0.00282159
v 0.00466562 -0.00331756 -0.00348092
v 0.00450887 -0.00384973 -0.00395214
v 0.00491581 -0.00366948 -0.00456669
v 0.00594828 0.00067592 -0.00366765
v 0.00558983 0.00071228 -0.00292938
v 0.00519108 0.00002230 -0.00211316
v 0.00516299 -0.00070525 -0.00218055
v 0.00508232 -0.00141566 -0.00237266
v 0.00264628 0.00002407 0.00055819
v 0.00338719 -0.00082177 -0.00009325
v 0.00399692 -0.00156869 -0.00094772
v 0.00446894 -0.00220647 -0.00195589
v 0.00481942 -0.00273312 -0.00304574
v 0.00507843 -0.00315802 -0.00413598
v 0.00559107 -0.00334383 -0.00571850
v 0.00345776 -0.00569926 -0.00549693
v 0.00391809 -0.00581236 -0.00724400
v 0.00421250 -0.00586570 -0.00863436
v 0.00441024 -0.00588103 -0.00977709
v 0.00381327 -0.00636802 -0.01096862
v 0.00334008 -0.00668206 -0.01204644
v 0.00426706 -0.00611113 -0.01129009
v 0.00487093 -0.00557700 -0.01021921
v 0.00475188 -0.00553135 -0.00916106
v 0.00456267 -0.00543445 -0.00791258
v 0.00425700 -0.00526755 -0.00636413
v 0.00313001 -0.00559199 -0.00448778
v 0.00271394 -0.00542319 -0.00340779
v 0.00219689 -0.00516383 -0.00229124
v 0.00526183 -0.00527573 -0.01066859
v 0.00558734 -0.00489613 -0.01019450
v 0.00520824 -0.00520892 -0.00968049
v 0.00555224 -0.00475255 -0.00915461
v 0.00510444 -0.00508297 -0.00854740
v 0.00545534 -0.00452586 -0.00794019
v 0.00491532 -0.00487888 -0.00718268
v 0.00525826 -0.00418413 -0.00644939
v 0.00458846 -0.00455706 -0.00546797
v 0.00475180 -0.00413534 -0.00501496
v 0.00579203 -0.00385000 -0.00734351
v 0.00588967 -0.00420078 -0.00864696
v 0.00591492 -0.00443781 -0.00974039
v 0.00550977 -0.00134580 -0.00311000
v 0.00595140 -0.00063845 -0.00366882
v 0.00559360 -0.00067077 -0.00292965
v 0.00598086 0.00001848 -0.00360976
v 0.00562313 0.00002055 -0.00286575
v 0.00538623 -0.00199265 -0.00338571
v 0.00605078 -0.00180269 -0.00475894
v 0.00590791 -0.00235541 -0.00504459
v 0.00639669 -0.00213351 -0.00623773
v 0.00661975 -0.00109747 -0.00584552
v 0.00691721 -0.00098904 -0.00703351
v 0.00668560 -0.00054836 -0.00573249
v 0.00696655 -0.00049488 -0.00695428
v 0.00670881 0.00001147 -0.00569189
v 0.00698360 0.00000674 -0.00692611
v 0.00668404 0.00057178 -0.00573049
v 0.00696572 0.00050868 -0.00695274
v 0.00661649 0.00112110 -0.00584164
v 0.00691555 0.00100308 -0.00703049
v 0.00651482 0.00164995 -0.00601445
v 0.00683739 0.00148323 -0.00715341
v 0.00638908 0.00215255 -0.00623428
v 0.00673690 0.00194451 -0.00731285
v 0.00624883 0.00262539 -0.00648574
v 0.00616836 -0.00121675 -0.00453278
v 0.00624772 -0.00060721 -0.00438407
v 0.00627590 0.00001624 -0.00433071
v 0.00624519 0.00064024 -0.00438235
v 0.00500663 -0.00557682 -0.01199682
v 0.00449689 -0.00600226 -0.01285689
v 0.00584853 -0.00469297 -0.01159098
v 0.00529738 -0.00531077 -0.01237697
v 0.00295996 -0.00688795 -0.01299318
v 0.00376964 -0.00646649 -0.01229138
v 0.00466499 -0.00584583 -0.01163333
v 0.00558524 -0.00497933 -0.01112630
v 0.00589366 -0.00459336 -0.01070761
v 0.00554449 -0.00505326 -0.01276888
v 0.00606197 -0.00442166 -0.01205808
v 0.00613595 -0.00430515 -0.01122031
v 0.00619985 -0.00413765 -0.01031370
v 0.00623090 -0.00389590 -0.00931325
v 0.00620730 -0.00354651 -0.00816290
v 0.00610932 -0.00305196 -0.00676258
v 0.00575260 -0.00286862 -0.00536968
v 0.00523757 -0.00259949 -0.00373568
v 0.00496311 -0.00209594 -0.00266818
v 0.00457860 -0.00149055 -0.00164590
v 0.00406073 -0.00078159 -0.00074435
v 0.00340363 0.00002449 -0.00002530
v 0.00338071 0.00087055 -0.00009846
v 0.00649571 -0.00278831 -0.00770918
v 0.00652163 -0.00326550 -0.00892008
v 0.00649056 -0.00360935 -0.00995218
v 0.00641778 -0.00385636 -0.01087711
v 0.00697397 -0.00232916 -0.00935622
v 0.00714432 -0.00159231 -0.00914066
v 0.00725195 -0.00080912 -0.00900077
v 0.00711068 -0.00213638 -0.01008447
v 0.00652040 -0.00162836 -0.00601819
v 0.00684047 -0.00147017 -0.00715643
v 0.00711403 -0.00089251 -0.00808207
v 0.00714991 -0.00044744 -0.00802876
v 0.00725599 -0.00145455 -0.00992058
v 0.00734513 -0.00073827 -0.00981861
v 0.00737522 -0.00000401 -0.00978418
v 0.00734578 0.00073054 -0.00981974
v 0.00725720 0.00144734 -0.00992323
v 0.00711271 0.00213018 -0.01008861
v 0.00691934 0.00276588 -0.01030842
v 0.00668502 0.00334181 -0.01057677
v 0.00642066 0.00385461 -0.01088762
v 0.00613829 0.00430498 -0.01123381
v 0.00584995 0.00469366 -0.01160819
v 0.00556769 0.00502674 -0.01200090
v 0.00744396 -0.00062759 -0.01121421
v 0.00737462 -0.00123510 -0.01127718
v 0.00726142 -0.00182103 -0.01138406
v 0.00710854 -0.00237607 -0.01153467
v 0.00692138 -0.00289105 -0.01172838
v 0.00670782 -0.00336208 -0.01196144
v -0.00551107 -0.00503219 -0.01200864
v -0.00595506 -0.00455506 -0.01285604
v -0.00177942 -0.00733643 -0.01133857
v -0.00119292 -0.00744925 -0.01123312
v -0.00143741 -0.00742939 -0.00984474
v -0.00212519 -0.00727014 -0.01001471
v -0.00275477 -0.00703912 -0.01025064
v -0.00331578 -0.00675960 -0.01053984
v -0.00380957 -0.00645761 -0.01086975
v -0.00462181 -0.00586479 -0.01160642
v -0.00409704 -0.00624525 -0.01030715
v -0.00440866 -0.00597649 -0.00972748
v -0.00359377 -0.00658781 -0.00991793
v -0.00390043 -0.00635726 -0.00926351
v -0.00300874 -0.00690942 -0.00956576
v -0.00329359 -0.00671905 -0.00882877
v 0.00003516 -0.00739672 -0.00785336
v 0.00055246 -0.00724101 -0.00669737
v 0.00118662 -0.00691673 -0.00548218
v 0.00125241 -0.00672769 -0.00479216
v 0.00131852 -0.00648294 -0.00408263
v 0.00138407 -0.00617390 -0.00335886
v 0.00144814 -0.00579199 -0.00262611
v 0.00151211 -0.00532992 -0.00189536
v 0.00157620 -0.00478532 -0.00119116
v 0.00163875 -0.00415700 -0.00053986
v 0.00169806 -0.00344376 0.00003210
v -0.00642743 -0.00381496 -0.01227824
v -0.00703185 -0.00258869 -0.01280270
v -0.00664767 -0.00338192 -0.01202197
v -0.00719529 -0.00185811 -0.01142730
v -0.00703658 -0.00240125 -0.01159218
v -0.00710314 -0.00141663 -0.00811475
v -0.00731407 -0.00080246 -0.00983350
v -0.00719660 -0.00150756 -0.00995196
v -0.00736081 -0.00007351 -0.00979222
v -0.00718117 -0.00212536 -0.01264892
v -0.00685203 -0.00290994 -0.01179206
v -0.00475253 -0.00564783 -0.00911730
v -0.00424346 -0.00606203 -0.00855575
v -0.00361521 -0.00645902 -0.00801157
v -0.00285678 -0.00680718 -0.00750632
v -0.00553209 -0.00473258 -0.00779623
v -0.00595052 -0.00409150 -0.00710179
v -0.00549760 -0.00451620 -0.00603888
v -0.00233776 -0.00718004 -0.00926564
v -0.00159161 -0.00737222 -0.00903646
v -0.00258034 -0.00702986 -0.00844113
v -0.00177086 -0.00726050 -0.00812813
v -0.00243134 -0.00695416 -0.00728026
v -0.00197754 -0.00707864 -0.00707944
v -0.00221389 -0.00678537 -0.00586115
v -0.00271094 -0.00664205 -0.00612998
v -0.00248243 -0.00632594 -0.00446855
v -0.00359528 -0.00629711 -0.00675317
v -0.00317199 -0.00647829 -0.00643023
v -0.00353033 -0.00599597 -0.00520252
v -0.00302938 -0.00616985 -0.00481322
v -0.00339063 -0.00548680 -0.00332069
v -0.00212646 -0.00578472 -0.00256454
v -0.00262954 -0.00601682 -0.00370539
v -0.00200650 -0.00615512 -0.00339544
v -0.00189273 -0.00646025 -0.00418440
v -0.00168342 -0.00690456 -0.00563445
v -0.00149789 -0.00717718 -0.00691083
v -0.00133551 -0.00733758 -0.00800974
v -0.00078955 -0.00746566 -0.00889811
v -0.00151233 -0.00544130 -0.00148124
v -0.00142731 -0.00589301 -0.00233757
v -0.00134679 -0.00626268 -0.00317416
v -0.00126974 -0.00656392 -0.00397488
v -0.00112643 -0.00699346 -0.00546124
v -0.00099815 -0.00724618 -0.00678194
v -0.00088569 -0.00738661 -0.00792230
v -0.00675635 -0.00251746 -0.00734283
v -0.00701471 -0.00184317 -0.00822820
v -0.00535559 -0.00300198 -0.00178701
v -0.00577486 -0.00286896 -0.00266061
v -0.00555977 -0.00347734 -0.00315584
v -0.00589880 -0.00331607 -0.00394994
v -0.00567512 -0.00384378 -0.00443062
v -0.00595599 -0.00365862 -0.00512999
v -0.00573030 -0.00411405 -0.00557600
v -0.00635451 -0.00328779 -0.00643169
v -0.00615844 -0.00371114 -0.00675724
v -0.00660592 -0.00293974 -0.00755991
v -0.00625693 -0.00368771 -0.00806025
v -0.00688370 -0.00206503 -0.00715705
v -0.00653142 -0.00282312 -0.00613694
v -0.00668183 -0.00231883 -0.00588481
v -0.00616519 -0.00315127 -0.00472030
v -0.00634844 -0.00259344 -0.00436644
v -0.00609919 -0.00273236 -0.00353012
v -0.00626477 -0.00209961 -0.00319759
v -0.00638878 -0.00143103 -0.00296100
v -0.00649555 -0.00199193 -0.00408894
v -0.00679906 -0.00178053 -0.00568603
v -0.00698357 -0.00158635 -0.00700874
v -0.00710815 0.00045880 -0.00683388
v -0.00711718 -0.00005920 -0.00681186
v -0.00695215 -0.00005123 -0.00542944
v -0.00666901 -0.00070486 -0.00377716
v -0.00646735 -0.00073871 -0.00282023
v -0.00619576 -0.00077205 -0.00179356
v -0.00716833 -0.00097488 -0.00803126
v -0.00720956 -0.00052278 -0.00797970
v -0.00722615 -0.00006522 -0.00796204
v -0.00718491 0.00084551 -0.00803027
v -0.00393617 -0.00531297 -0.00381292
v -0.00358862 -0.00504454 -0.00252086
v -0.00295176 -0.00519927 -0.00205837
v -0.00312495 -0.00467079 -0.00122268
v -0.00238648 -0.00479978 -0.00085866
v -0.00512988 -0.00524227 -0.00847081
v -0.00504581 -0.00517587 -0.00694038
v -0.00519784 -0.00472658 -0.00548062
v -0.00543815 -0.00431434 -0.00494866
v -0.00508292 -0.00450918 -0.00430949
v -0.00532587 -0.00402439 -0.00371438
v -0.00489699 -0.00419899 -0.00300127
v -0.00513297 -0.00363383 -0.00236285
v -0.00461288 -0.00378468 -0.00161490
v -0.00483170 -0.00313051 -0.00096426
v -0.00420383 -0.00325234 -0.00024429
v -0.00442022 -0.00512676 -0.00435154
v -0.00415761 -0.00487618 -0.00306837
v -0.00379424 -0.00452480 -0.00172199
v -0.00366187 -0.00399500 -0.00066794
v -0.00074606 -0.00550395 -0.00138484
v -0.00042694 -0.00740664 -0.00786909
v -0.00048506 -0.00728218 -0.00669919
v -0.00055130 -0.00704528 -0.00535123
v -0.00062456 -0.00662693 -0.00385111
v -0.00066349 -0.00632816 -0.00305209
v -0.00070377 -0.00595812 -0.00222478
v -0.00347259 -0.00336526 0.00032098
v -0.00330023 -0.00405962 -0.00041963
v -0.00307120 -0.00341746 0.00053118
v -0.00278564 -0.00564561 -0.00289694
v -0.00225377 -0.00533544 -0.00170768
v -0.00160077 -0.00490005 -0.00063915
v -0.00211006 -0.00422630 0.00007472
v -0.00168994 -0.00426781 0.00015694
v -0.00126354 -0.00429973 0.00019897
v -0.00085586 -0.00396611 0.00055520
v 0.00001919 -0.00396755 0.00042438
v -0.00040489 -0.00432873 0.00016512
v 0.00002086 -0.00432275 0.00009056
v -0.00038203 -0.00496835 -0.00058360
v 0.00001553 -0.00318678 0.00100520
v 0.00001741 -0.00358859 0.00073233
v -0.00512166 -0.00203020 -0.00017226
v -0.00503279 -0.00241019 -0.00040637
v -0.00563942 -0.00194580 -0.00111142
v -0.00555385 -0.00230981 -0.00130746
v -0.00595921 -0.00220596 -0.00226043
v -0.00489389 -0.00167211 0.00046864
v -0.00526472 -0.00124074 0.00018777
v -0.00519972 -0.00163970 0.00002702
v -0.00577472 -0.00119122 -0.00081655
v -0.00571363 -0.00157232 -0.00094713
v -0.00610236 -0.00150250 -0.00196982
v -0.00466637 -0.00086449 0.00118694
v -0.00500868 -0.00085018 0.00077147
v -0.00504100 -0.00043123 0.00085078
v -0.00469804 -0.00043665 0.00127154
v -0.00471026 -0.00000621 0.00129857
v -0.00432796 -0.00000273 0.00165577
v -0.00470140 0.00042415 0.00126493
v -0.00431979 0.00043626 0.00162059
v -0.00467318 0.00085182 0.00117440
v -0.00429340 0.00087245 0.00152618
v -0.00425109 0.00130329 0.00137810
v -0.00424029 -0.00130958 0.00139761
v -0.00428628 -0.00087821 0.00153981
v -0.00431628 -0.00044182 0.00162767
v -0.00389437 -0.00044675 0.00190566
v -0.00390511 0.00000058 0.00193389
v -0.00344986 0.00000367 0.00212756
v -0.00389816 0.00044780 0.00189849
v -0.00344443 0.00045856 0.00209334
v -0.00387496 0.00089209 0.00180342
v -0.00342517 0.00091046 0.00200099
v -0.00383741 0.00133083 0.00165408
v -0.00339346 0.00135666 0.00185504
v -0.00378743 0.00176140 0.00145589
v -0.00534652 -0.00042559 0.00037888
v -0.00505340 -0.00000980 0.00087603
v -0.00504432 0.00041155 0.00084490
v -0.00501546 0.00083037 0.00076068
v -0.00321389 -0.00263410 0.00117629
v -0.00271530 -0.00307758 0.00102564
v -0.00232075 -0.00270417 0.00142531
v -0.00277449 -0.00267136 0.00132754
v -0.00240421 -0.00183570 0.00189791
v -0.00462650 -0.00567969 -0.00778036
v -0.00473990 -0.00539441 -0.00650067
v -0.00484068 -0.00493081 -0.00491444
v -0.00465647 -0.00469684 -0.00367367
v -0.00438568 -0.00436666 -0.00232599
v -0.00400135 -0.00392743 -0.00095337
v -0.00385109 -0.00331005 0.00006093
v -0.00402940 -0.00255038 0.00069909
v -0.00363467 -0.00259345 0.00096789
v -0.00377162 -0.00176238 0.00148090
v -0.00333351 -0.00178946 0.00168355
v -0.00382560 -0.00133064 0.00167381
v -0.00338047 -0.00135041 0.00187322
v -0.00386719 -0.00089129 0.00181718
v -0.00341664 -0.00090353 0.00201372
v -0.00344033 -0.00045133 0.00210013
v -0.00296669 -0.00045539 0.00222046
v -0.00297502 0.00000652 0.00224644
v -0.00248568 0.00000914 0.00229907
v -0.00297105 0.00046833 0.00221444
v -0.00248309 0.00047697 0.00227001
v -0.00295565 0.00092715 0.00212728
v -0.00287614 -0.00181412 0.00182059
v -0.00291592 -0.00136833 0.00200336
v -0.00243679 -0.00138391 0.00207114
v -0.00294655 -0.00091455 0.00213804
v -0.00246191 -0.00092403 0.00219793
v -0.00247854 -0.00045878 0.00227498
v -0.00198094 -0.00046134 0.00227208
v -0.00148384 0.00001368 0.00223983
v -0.00185694 -0.00273148 0.00147324
v -0.00189184 -0.00229937 0.00171723
v -0.00192243 -0.00185349 0.00192142
v -0.00194796 -0.00139665 0.00208351
v -0.00196771 -0.00093166 0.00220116
v -0.00087717 -0.00358780 0.00088363
v -0.00089745 -0.00318663 0.00117793
v -0.00091620 -0.00276547 0.00143419
v -0.00093317 -0.00232729 0.00165191
v -0.00094808 -0.00187503 0.00183058
v -0.00096064 -0.00141165 0.00196972
v -0.00097058 -0.00094012 0.00206882
v -0.00098153 0.00001562 0.00214508
v -0.00097764 -0.00046338 0.00212739
f 44 220 45
f 1026 1028 1025
f 1025 1028 1027
f 816 17 133
f 80 2 1
f 190 193 194
f 194 80 190
f 2 80 194
f 7 36 79
f 4 238 21
f 85 238 4
f 21 435 22
f 1 191 192
f 192 191 427
f 190 80 192
f 192 80 1
f 192 193 190
f 192 427 193
f 35 191 1
f 532 541 542
f 235 236 86
f 179 236 235
f 88 87 6
f 306 298 307
f 92 95 233
f 233 232 92
f 818 815 817
f 17 816 817
f 817 815 17
f 818 817 859
f 61 43 41
f 40 39 203
f 729 775 704
f 676 671 675
f 83 22 434
f 434 22 435
f 246 279 379
f 380 379 278
f 278 379 279
f 288 282 283
f 284 283 177
f 86 236 5
f 179 279 280
f 280 236 179
f 279 236 280
f 237 236 279
f 237 279 246
f 85 4 237
f 246 238 237
f 237 238 85
f 4 5 237
f 237 5 236
f 21 238 84
f 84 435 21
f 84 248 435
f 517 409 408
f 408 409 171
f 428 35 423
f 191 35 428
f 427 191 428
f 414 413 175
f 419 413 414
f 410 521 422
f 427 428 422
f 422 428 421
f 388 286 281
f 542 541 586
f 502 504 510
f 585 586 541
f 510 586 585
f 666 839 681
f 681 839 680
f 468 467 458
f 455 468 454
f 467 468 455
f 693 473 455
f 474 467 455
f 455 473 474
f 461 464 483
f 465 461 483
f 486 532 542
f 10 8 197
f 74 8 7
f 541 532 484
f 484 533 541
f 483 533 484
f 484 465 483
f 888 910 845
f 972 974 973
f 916 291 915
f 110 291 916
f 916 974 972
f 908 126 909
f 915 126 907
f 907 916 915
f 974 916 907
f 906 974 907
f 907 908 906
f 126 908 907
f 909 126 125
f 125 910 909
f 127 910 125
f 180 95 94
f 848 846 918
f 93 32 92
f 92 232 93
f 37 815 818
f 17 815 37
f 30 29 104
f 820 29 819
f 29 37 819
f 819 37 818
f 44 45 27
f 45 28 27
f 133 17 3
f 131 133 3
f 28 184 3
f 3 184 131
f 106 28 45
f 106 184 28
f 45 633 106
f 221 45 220
f 221 633 45
f 371 370 374
f 376 375 589
f 377 375 376
f 374 370 377
f 440 489 439
f 439 334 440
f 1001 298 297
f 297 1000 1001
f 296 1000 297
f 297 298 306
f 293 296 297
f 297 306 293
f 293 306 305
f 270 259 311
f 259 305 311
f 306 307 311
f 311 305 306
f 1002 298 1001
f 1002 983 315
f 981 1002 1001
f 983 1002 981
f 984 983 981
f 985 983 984
f 1027 1028 328
f 991 1025 1027
f 991 1024 1025
f 232 233 244
f 92 32 20
f 20 95 92
f 94 95 20
f 20 19 94
f 94 19 98
f 98 180 94
f 245 180 98
f 223 31 99
f 223 38 31
f 892 894 893
f 656 657 655
f 939 924 940
f 923 924 939
f 132 816 133
f 132 817 816
f 132 133 131
f 225 31 30
f 826 828 853
f 60 43 61
f 60 210 43
f 9 43 59
f 43 210 59
f 65 203 39
f 205 41 40
f 743 741 742
f 765 49 219
f 219 13 50
f 49 13 219
f 14 13 49
f 14 764 15
f 50 13 51
f 48 49 765
f 48 14 49
f 764 14 48
f 617 220 44
f 44 618 617
f 642 618 44
f 619 642 624
f 618 642 619
f 674 671 673
f 675 671 674
f 12 769 763
f 12 51 13
f 729 724 730
f 727 674 673
f 727 728 674
f 634 706 705
f 623 644 622
f 643 623 624
f 644 623 643
f 716 705 673
f 716 717 647
f 36 2 77
f 596 79 36
f 426 194 193
f 193 427 426
f 427 422 426
f 426 422 521
f 530 559 558
f 594 558 559
f 252 294 254
f 264 273 272
f 234 235 86
f 179 235 299
f 235 234 299
f 299 234 250
f 412 413 418
f 418 419 431
f 418 413 419
f 82 23 22
f 431 23 82
f 83 434 425
f 425 22 83
f 425 82 22
f 246 379 249
f 248 84 249
f 249 238 246
f 249 84 238
f 285 379 380
f 285 411 248
f 248 249 285
f 285 249 379
f 282 278 178
f 178 283 282
f 178 177 283
f 178 278 279
f 178 279 179
f 179 177 178
f 284 177 301
f 384 285 380
f 411 285 384
f 435 248 247
f 248 411 247
f 247 434 435
f 417 384 412
f 411 384 417
f 417 247 411
f 412 418 417
f 417 418 432
f 432 425 417
f 417 425 434
f 365 371 373
f 373 371 374
f 302 290 284
f 284 301 302
f 302 301 261
f 392 312 313
f 284 290 289
f 288 283 289
f 289 283 284
f 429 428 423
f 421 428 429
f 429 35 34
f 423 35 429
f 410 422 407
f 407 409 410
f 171 409 407
f 574 573 164
f 519 409 517
f 517 518 519
f 519 518 521
f 519 521 410
f 410 409 519
f 164 573 165
f 163 166 164
f 163 518 517
f 164 165 163
f 163 165 518
f 164 166 490
f 501 499 490
f 490 574 164
f 499 574 490
f 491 166 168
f 501 490 491
f 491 490 166
f 404 176 387
f 175 413 383
f 383 413 412
f 412 384 383
f 388 281 287
f 287 282 288
f 288 389 287
f 287 389 388
f 277 278 282
f 282 287 277
f 277 287 281
f 380 278 277
f 393 169 394
f 395 394 405
f 405 394 169
f 587 543 542
f 542 586 587
f 439 489 446
f 500 499 501
f 501 502 500
f 584 585 540
f 541 533 540
f 540 585 541
f 11 10 188
f 548 547 549
f 474 753 475
f 475 467 474
f 689 688 677
f 677 676 689
f 689 676 675
f 739 777 776
f 776 775 739
f 776 704 775
f 686 701 779
f 778 701 688
f 1043 957 958
f 759 473 693
f 700 780 684
f 700 686 779
f 694 455 454
f 454 451 694
f 693 455 694
f 697 696 779
f 697 778 732
f 779 701 697
f 701 778 697
f 144 780 143
f 779 696 143
f 143 700 779
f 780 700 143
f 734 697 732
f 696 697 734
f 463 464 459
f 464 461 459
f 459 461 458
f 460 468 458
f 458 461 460
f 461 465 460
f 465 484 485
f 532 486 485
f 485 484 532
f 531 543 445
f 542 543 531
f 531 486 542
f 683 681 684
f 666 681 683
f 683 665 666
f 146 147 664
f 664 151 146
f 146 151 665
f 7 79 73
f 73 74 7
f 89 229 228
f 228 33 89
f 6 33 228
f 228 88 6
f 902 908 909
f 847 888 845
f 900 888 887
f 910 888 900
f 887 902 900
f 909 910 900
f 900 902 909
f 843 847 245
f 888 847 843
f 887 888 843
f 843 844 887
f 295 291 256
f 256 254 295
f 295 254 294
f 915 291 295
f 293 291 292
f 292 291 110
f 292 296 293
f 292 110 296
f 296 110 999
f 999 1000 296
f 968 973 974
f 968 890 967
f 968 974 906
f 111 916 972
f 110 916 111
f 972 112 111
f 111 999 110
f 112 999 111
f 914 125 126
f 914 126 915
f 915 295 914
f 914 295 294
f 127 125 124
f 124 918 127
f 912 918 124
f 125 914 124
f 124 914 294
f 182 233 95
f 95 180 182
f 182 244 233
f 182 846 848
f 848 244 182
f 127 918 917
f 917 918 846
f 917 846 845
f 845 910 917
f 917 910 127
f 848 918 919
f 919 918 912
f 912 911 919
f 919 276 848
f 90 229 89
f 89 33 90
f 103 29 820
f 820 104 103
f 103 104 29
f 30 104 135
f 820 819 827
f 615 633 131
f 615 106 633
f 131 184 615
f 184 106 615
f 774 775 729
f 774 730 773
f 729 730 774
f 812 25 185
f 986 1017 1019
f 948 1016 1015
f 950 1016 948
f 1032 1033 1031
f 1031 1033 1022
f 356 320 354
f 354 355 356
f 357 507 356
f 356 355 357
f 355 366 357
f 365 373 357
f 357 366 365
f 445 543 544
f 544 446 445
f 330 1028 1026
f 1026 1036 330
f 489 440 441
f 258 305 259
f 256 291 258
f 258 291 293
f 293 305 258
f 309 310 313
f 313 312 309
f 315 310 309
f 329 340 332
f 329 328 1028
f 1028 330 329
f 329 330 340
f 334 375 368
f 368 367 334
f 341 329 332
f 328 329 341
f 1024 991 1023
f 1022 1033 1023
f 1023 1033 1024
f 1023 991 990
f 986 1019 987
f 986 987 975
f 975 115 986
f 976 969 975
f 969 115 975
f 990 992 980
f 116 1017 986
f 986 115 116
f 116 115 1015
f 1015 1016 116
f 116 1016 1017
f 232 244 243
f 848 276 243
f 243 244 848
f 222 223 99
f 100 223 814
f 38 223 100
f 842 898 850
f 935 933 934
f 934 936 935
f 931 933 891
f 891 890 892
f 891 893 931
f 892 893 891
f 934 933 932
f 932 933 931
f 658 657 656
f 656 836 658
f 123 950 122
f 1043 1044 109
f 954 123 122
f 107 123 954
f 107 954 117
f 117 954 955
f 118 880 941
f 940 924 949
f 925 954 122
f 1012 939 934
f 934 932 1012
f 1012 1011 938
f 1012 932 1011
f 934 939 1013
f 1013 939 940
f 1013 936 934
f 940 936 1013
f 1015 115 114
f 922 1012 938
f 939 1012 922
f 923 939 922
f 870 871 869
f 869 868 870
f 128 867 869
f 867 868 869
f 99 31 224
f 31 225 224
f 224 222 99
f 212 808 809
f 809 213 212
f 810 213 809
f 211 212 9
f 9 59 211
f 211 808 212
f 211 59 210
f 603 547 604
f 549 547 603
f 39 42 66
f 186 39 66
f 802 803 610
f 209 60 61
f 210 60 209
f 568 207 206
f 41 205 206
f 206 205 568
f 798 799 162
f 568 799 798
f 798 207 568
f 40 203 204
f 473 759 749
f 752 749 750
f 800 608 607
f 607 799 800
f 162 799 607
f 741 756 791
f 757 756 741
f 741 743 757
f 757 743 758
f 794 161 746
f 50 766 761
f 761 219 50
f 766 219 761
f 760 766 50
f 50 51 760
f 711 219 766
f 765 219 711
f 711 709 765
f 713 712 721
f 721 723 713
f 15 764 47
f 624 642 640
f 642 47 640
f 46 27 15
f 15 47 46
f 46 47 642
f 44 27 46
f 46 642 44
f 616 617 618
f 616 221 220
f 220 617 616
f 633 221 616
f 704 776 703
f 703 776 777
f 669 676 677
f 680 839 838
f 838 661 662
f 839 661 838
f 773 730 731
f 705 706 715
f 673 705 715
f 715 727 673
f 724 723 722
f 722 730 724
f 722 731 730
f 723 721 722
f 722 721 720
f 720 731 722
f 726 724 729
f 728 727 726
f 729 704 726
f 704 728 726
f 628 629 622
f 635 643 637
f 644 643 635
f 639 709 637
f 637 643 639
f 718 669 668
f 673 671 672
f 672 716 673
f 717 716 672
f 2 194 81
f 81 77 2
f 194 579 81
f 579 77 81
f 78 596 36
f 578 579 194
f 194 426 578
f 590 575 591
f 591 575 576
f 252 254 253
f 256 258 257
f 257 258 259
f 260 302 261
f 266 273 264
f 268 299 250
f 250 263 268
f 268 263 261
f 261 301 268
f 431 82 424
f 424 418 431
f 432 418 424
f 424 425 432
f 82 425 424
f 434 247 433
f 433 417 434
f 247 417 433
f 356 507 508
f 507 493 494
f 494 508 507
f 168 493 492
f 492 491 168
f 506 493 507
f 507 357 506
f 506 357 373
f 506 373 505
f 505 492 506
f 506 492 493
f 347 985 998
f 313 396 391
f 391 392 313
f 290 392 391
f 391 289 290
f 303 392 290
f 303 260 270
f 290 302 303
f 302 260 303
f 312 392 304
f 270 311 304
f 304 303 270
f 392 303 304
f 307 312 304
f 304 311 307
f 173 493 168
f 173 172 393
f 393 494 173
f 173 494 493
f 170 172 408
f 170 408 171
f 170 169 393
f 393 172 170
f 170 171 406
f 406 169 170
f 517 408 167
f 408 172 167
f 168 166 167
f 167 173 168
f 172 173 167
f 167 163 517
f 166 163 167
f 430 429 34
f 34 23 430
f 431 419 430
f 430 23 431
f 416 422 421
f 416 407 422
f 421 415 416
f 171 407 416
f 406 171 416
f 416 415 406
f 504 502 503
f 491 492 503
f 503 502 501
f 501 491 503
f 505 504 503
f 503 492 505
f 382 176 175
f 175 383 382
f 286 387 382
f 382 387 176
f 404 395 386
f 395 405 386
f 386 176 404
f 175 176 386
f 385 169 406
f 385 405 169
f 406 415 385
f 378 377 376
f 374 377 378
f 488 446 489
f 489 441 488
f 782 447 438
f 781 782 438
f 448 452 471
f 448 447 782
f 511 500 502
f 511 502 510
f 510 585 511
f 511 585 584
f 584 512 511
f 511 512 500
f 477 478 463
f 476 548 477
f 549 603 602
f 602 603 610
f 537 478 552
f 612 613 600
f 600 613 599
f 198 188 10
f 197 598 198
f 599 613 189
f 189 72 11
f 11 188 189
f 805 613 612
f 68 42 11
f 68 200 42
f 68 805 200
f 755 548 476
f 476 475 755
f 755 475 753
f 547 548 755
f 458 467 456
f 467 475 456
f 456 475 476
f 456 459 458
f 688 689 702
f 702 778 688
f 684 681 685
f 685 700 684
f 686 700 685
f 685 681 680
f 679 685 680
f 686 685 679
f 688 701 687
f 701 686 687
f 686 679 687
f 677 688 687
f 732 778 737
f 737 777 739
f 737 702 777
f 778 702 737
f 659 658 662
f 657 658 659
f 959 958 957
f 1024 1033 1034
f 1034 1033 1032
f 1032 1041 1034
f 1034 1041 1042
f 153 839 666
f 153 661 839
f 666 154 153
f 1043 958 963
f 963 1044 1043
f 962 1044 963
f 695 450 144
f 451 450 695
f 144 143 695
f 695 143 696
f 732 756 733
f 733 734 732
f 756 757 733
f 734 733 735
f 758 759 735
f 735 759 693
f 735 757 758
f 735 733 757
f 466 485 486
f 468 460 469
f 454 468 469
f 144 450 449
f 449 450 452
f 452 448 449
f 449 448 782
f 453 451 454
f 453 450 451
f 452 450 453
f 454 469 453
f 699 683 684
f 684 780 699
f 149 151 664
f 195 73 79
f 79 596 195
f 594 577 195
f 74 73 195
f 195 577 74
f 197 8 597
f 8 76 597
f 597 598 197
f 575 598 597
f 8 74 75
f 75 76 8
f 250 234 239
f 240 228 229
f 240 239 228
f 229 241 240
f 240 241 267
f 887 898 901
f 901 902 887
f 181 180 245
f 245 847 181
f 846 182 181
f 181 182 180
f 845 846 181
f 181 847 845
f 1000 999 977
f 977 112 976
f 977 999 112
f 966 968 967
f 973 968 966
f 966 971 973
f 970 969 976
f 970 971 969
f 976 112 970
f 970 112 972
f 972 973 970
f 973 971 970
f 912 124 913
f 252 911 913
f 913 911 912
f 913 294 252
f 913 124 294
f 267 241 269
f 30 135 105
f 105 135 134
f 105 225 30
f 134 225 105
f 821 135 104
f 134 135 821
f 853 828 854
f 854 867 853
f 854 868 867
f 858 819 818
f 858 827 819
f 818 859 858
f 772 785 773
f 773 731 772
f 784 774 773
f 773 785 784
f 742 741 792
f 741 791 792
f 792 791 142
f 140 142 783
f 783 784 140
f 775 774 783
f 774 784 783
f 212 213 57
f 9 57 24
f 24 57 213
f 1018 1019 1017
f 1006 1030 1018
f 1003 1016 950
f 1006 1018 1003
f 1017 1016 1003
f 1003 1018 1017
f 1014 936 940
f 940 949 1014
f 1014 949 948
f 1014 948 1015
f 1015 114 1014
f 1014 114 936
f 588 544 543
f 543 587 588
f 376 589 588
f 589 544 588
f 588 378 376
f 587 378 588
f 439 446 545
f 446 544 545
f 545 544 589
f 545 334 439
f 545 375 334
f 545 589 375
f 664 147 148
f 147 436 148
f 335 440 334
f 334 367 335
f 315 309 308
f 308 307 298
f 308 312 307
f 308 309 312
f 308 1002 315
f 298 1002 308
f 990 991 993
f 993 992 990
f 993 991 1027
f 994 997 996
f 998 985 996
f 996 985 984
f 984 994 996
f 1027 328 1029
f 1029 993 1027
f 355 354 353
f 998 996 324
f 324 996 997
f 331 368 359
f 367 368 331
f 332 367 331
f 331 341 332
f 989 1023 990
f 990 980 989
f 989 980 988
f 1022 1023 989
f 978 987 988
f 978 975 987
f 976 975 978
f 978 977 976
f 982 980 992
f 982 994 984
f 982 992 994
f 984 981 982
f 981 980 982
f 231 93 232
f 232 243 231
f 19 18 97
f 97 98 19
f 245 98 97
f 926 855 813
f 813 222 926
f 223 222 813
f 814 223 813
f 813 855 814
f 853 867 130
f 130 867 128
f 898 842 899
f 899 856 897
f 933 935 889
f 967 890 889
f 889 965 967
f 889 935 965
f 890 891 889
f 889 891 933
f 1004 123 107
f 1006 1003 1004
f 950 123 1004
f 1004 1003 950
f 1005 1030 1006
f 1006 1004 1005
f 107 109 1005
f 1005 1004 107
f 951 872 923
f 923 922 951
f 951 922 871
f 108 957 1043
f 108 117 957
f 1043 109 108
f 108 109 107
f 107 117 108
f 941 655 961
f 961 655 657
f 657 959 961
f 879 859 817
f 817 132 879
f 879 132 131
f 633 616 632
f 653 655 941
f 870 868 865
f 865 854 862
f 868 854 865
f 861 858 859
f 121 949 924
f 924 925 121
f 121 925 122
f 122 950 121
f 950 948 121
f 948 949 121
f 952 924 923
f 952 925 924
f 923 872 952
f 880 925 952
f 954 925 953
f 955 954 953
f 953 118 955
f 880 118 953
f 953 925 880
f 113 935 936
f 936 114 113
f 965 935 113
f 113 115 969
f 113 114 115
f 921 869 871
f 921 922 938
f 871 922 921
f 128 869 921
f 852 826 853
f 853 130 852
f 926 222 851
f 222 224 851
f 795 809 808
f 795 808 796
f 796 789 795
f 795 789 788
f 202 42 69
f 202 66 42
f 186 66 202
f 566 204 203
f 610 603 609
f 609 802 610
f 604 608 609
f 609 603 604
f 208 209 207
f 210 209 208
f 41 206 63
f 207 209 62
f 62 206 207
f 62 63 206
f 41 63 62
f 61 41 62
f 62 209 61
f 64 205 40
f 40 204 64
f 64 204 205
f 748 746 160
f 160 746 161
f 604 547 546
f 546 754 604
f 753 754 546
f 546 755 753
f 547 755 546
f 751 753 474
f 474 473 751
f 473 749 751
f 751 754 753
f 752 754 751
f 751 749 752
f 747 759 758
f 747 749 759
f 748 750 747
f 747 750 749
f 605 754 752
f 752 750 605
f 605 607 608
f 605 608 604
f 604 754 605
f 162 607 606
f 606 160 162
f 606 605 750
f 607 605 606
f 606 750 748
f 748 160 606
f 738 791 756
f 738 737 739
f 738 756 732
f 732 737 738
f 794 746 744
f 744 743 742
f 51 12 52
f 52 760 51
f 52 12 763
f 763 760 52
f 766 712 708
f 708 711 766
f 708 712 713
f 720 721 719
f 719 721 712
f 719 760 763
f 719 712 766
f 766 760 719
f 641 643 624
f 624 640 641
f 641 639 643
f 641 47 764
f 641 640 47
f 692 728 704
f 704 703 692
f 837 658 836
f 662 658 837
f 837 838 662
f 836 718 837
f 837 718 668
f 26 762 218
f 218 762 769
f 218 12 26
f 769 12 218
f 770 762 26
f 771 762 770
f 26 217 770
f 770 217 771
f 768 762 771
f 771 772 768
f 768 731 720
f 768 772 731
f 26 25 53
f 53 217 26
f 714 715 706
f 713 723 714
f 725 723 724
f 724 726 725
f 725 714 723
f 715 714 725
f 727 715 725
f 725 726 727
f 646 716 647
f 647 628 646
f 705 716 646
f 646 634 705
f 645 628 622
f 645 635 634
f 634 646 645
f 645 646 628
f 622 644 645
f 644 635 645
f 765 709 710
f 709 639 710
f 639 641 710
f 710 641 764
f 710 48 765
f 764 48 710
f 648 718 836
f 647 717 648
f 717 718 648
f 670 718 717
f 669 718 670
f 670 672 671
f 717 672 670
f 671 676 670
f 676 669 670
f 596 78 580
f 580 569 596
f 580 77 579
f 36 77 580
f 580 78 36
f 518 165 571
f 558 594 595
f 530 558 595
f 595 596 530
f 595 195 596
f 594 195 595
f 590 591 582
f 582 583 590
f 599 598 557
f 557 575 590
f 557 598 575
f 560 582 592
f 592 591 576
f 592 582 591
f 593 577 594
f 560 592 593
f 576 577 593
f 593 592 576
f 251 911 252
f 252 253 251
f 255 254 256
f 256 257 255
f 255 257 272
f 255 253 254
f 255 272 273
f 273 253 255
f 272 257 271
f 270 260 271
f 271 259 270
f 271 257 259
f 262 260 261
f 264 272 262
f 272 271 262
f 262 271 260
f 262 263 264
f 261 263 262
f 179 299 300
f 299 268 300
f 300 268 301
f 300 177 179
f 300 301 177
f 496 508 495
f 395 496 495
f 495 394 395
f 508 494 495
f 393 394 495
f 495 494 393
f 402 286 388
f 402 387 286
f 497 320 356
f 356 508 497
f 497 508 496
f 401 497 496
f 396 397 399
f 399 398 396
f 399 401 398
f 318 320 399
f 399 397 318
f 320 497 399
f 497 401 399
f 346 310 315
f 346 316 310
f 985 347 346
f 315 983 346
f 983 985 346
f 289 391 390
f 390 389 288
f 288 289 390
f 390 398 389
f 396 398 390
f 390 391 396
f 429 430 420
f 414 415 420
f 419 414 420
f 420 430 419
f 421 429 420
f 420 415 421
f 573 574 529
f 530 573 529
f 529 559 530
f 529 525 559
f 561 560 559
f 559 525 561
f 381 382 383
f 381 384 380
f 381 383 384
f 380 277 381
f 381 277 281
f 381 281 286
f 286 382 381
f 174 386 405
f 405 385 174
f 175 386 174
f 174 414 175
f 174 415 414
f 174 385 415
f 374 378 372
f 505 373 372
f 372 373 374
f 372 504 505
f 443 441 442
f 443 488 441
f 447 488 443
f 443 438 447
f 472 488 447
f 472 448 471
f 447 448 472
f 445 446 444
f 446 488 444
f 444 531 445
f 488 472 444
f 781 438 698
f 147 146 698
f 463 478 479
f 483 464 482
f 482 533 483
f 534 482 480
f 534 540 533
f 533 482 534
f 538 583 522
f 612 600 601
f 601 600 553
f 550 552 478
f 550 548 549
f 478 477 550
f 550 477 548
f 553 552 551
f 551 601 553
f 602 601 551
f 549 602 551
f 551 550 549
f 552 550 551
f 70 10 197
f 197 198 70
f 188 198 614
f 614 198 598
f 614 598 599
f 599 189 614
f 614 189 188
f 72 189 806
f 806 189 613
f 613 805 806
f 11 72 806
f 200 805 804
f 804 805 612
f 803 202 804
f 457 456 476
f 457 477 463
f 476 477 457
f 463 459 457
f 459 456 457
f 678 669 677
f 677 687 678
f 678 687 679
f 668 669 678
f 958 659 660
f 660 963 958
f 662 661 660
f 660 659 662
f 962 963 660
f 660 153 962
f 661 153 660
f 960 659 958
f 958 959 960
f 657 659 960
f 960 959 657
f 955 118 956
f 957 117 956
f 956 117 955
f 1024 1034 1035
f 1026 1025 1035
f 1025 1024 1035
f 1035 1036 1026
f 1035 1042 1036
f 1035 1034 1042
f 736 694 451
f 451 695 736
f 693 694 736
f 736 735 693
f 734 735 736
f 696 734 736
f 736 695 696
f 462 469 460
f 462 460 465
f 465 485 462
f 485 466 462
f 144 449 145
f 145 780 144
f 145 782 781
f 145 449 782
f 781 699 145
f 145 699 780
f 683 699 682
f 665 683 682
f 682 146 665
f 682 698 146
f 682 699 781
f 781 698 682
f 1042 1041 1048
f 962 153 155
f 155 153 154
f 74 577 196
f 196 75 74
f 196 577 576
f 196 597 76
f 76 75 196
f 576 575 196
f 575 597 196
f 227 239 234
f 86 87 227
f 227 234 86
f 228 239 227
f 87 88 227
f 88 228 227
f 267 266 265
f 265 240 267
f 265 263 250
f 250 239 265
f 239 240 265
f 264 263 265
f 265 266 264
f 896 901 898
f 896 899 897
f 898 899 896
f 897 894 896
f 892 890 905
f 905 968 906
f 890 968 905
f 908 902 904
f 902 901 904
f 906 908 904
f 904 905 906
f 971 966 964
f 969 971 964
f 967 965 964
f 964 966 967
f 964 113 969
f 965 113 964
f 136 104 820
f 820 821 136
f 136 821 104
f 825 821 820
f 828 826 825
f 820 827 825
f 825 827 828
f 827 858 860
f 828 827 860
f 860 854 828
f 862 854 860
f 860 861 862
f 858 861 860
f 788 789 793
f 793 789 794
f 793 744 742
f 794 744 793
f 141 787 788
f 141 792 142
f 141 142 140
f 140 787 141
f 788 793 141
f 742 792 141
f 141 793 742
f 142 791 740
f 740 783 142
f 775 783 740
f 739 775 740
f 740 738 739
f 791 738 740
f 9 212 58
f 58 57 9
f 212 57 58
f 56 213 810
f 56 24 213
f 215 185 25
f 812 185 215
f 1019 1018 1020
f 1020 1031 1022
f 1030 1031 1020
f 1020 1018 1030
f 995 997 994
f 994 992 995
f 992 993 995
f 993 1029 995
f 345 366 355
f 355 353 345
f 345 353 321
f 352 354 320
f 352 353 354
f 359 368 369
f 369 361 359
f 369 368 375
f 370 361 369
f 369 377 370
f 375 377 369
f 318 397 314
f 314 317 318
f 314 396 313
f 314 397 396
f 316 317 314
f 313 310 314
f 310 316 314
f 348 317 316
f 316 346 348
f 348 346 347
f 1021 987 1019
f 1022 989 1021
f 988 987 1021
f 1021 989 988
f 1021 1020 1022
f 1019 1020 1021
f 979 980 981
f 988 980 979
f 979 978 988
f 1001 1000 979
f 979 981 1001
f 1000 977 979
f 977 978 979
f 93 231 91
f 32 93 91
f 91 33 32
f 242 269 241
f 242 243 276
f 242 231 243
f 887 844 841
f 850 898 841
f 841 898 887
f 895 894 897
f 897 856 895
f 895 893 894
f 129 130 128
f 1009 130 129
f 129 1010 1009
f 930 1010 1011
f 930 932 931
f 1011 932 930
f 840 842 102
f 840 899 842
f 856 899 840
f 1038 109 1044
f 1038 1005 109
f 119 118 941
f 941 961 119
f 119 956 118
f 159 158 943
f 131 633 829
f 633 632 829
f 620 632 616
f 618 619 620
f 620 616 618
f 621 619 624
f 624 623 621
f 625 651 946
f 862 861 863
f 863 861 877
f 873 871 870
f 873 951 871
f 864 865 862
f 862 863 864
f 157 158 159
f 652 653 651
f 629 833 832
f 629 628 627
f 627 833 629
f 1011 1010 937
f 938 1011 937
f 937 921 938
f 128 921 937
f 937 129 128
f 1010 129 937
f 823 825 826
f 821 825 823
f 826 852 823
f 134 821 823
f 927 855 926
f 926 851 1008
f 1008 851 852
f 1008 927 926
f 1009 927 1008
f 1008 130 1009
f 1008 852 130
f 824 851 224
f 852 851 824
f 824 823 852
f 809 795 790
f 787 138 790
f 788 787 790
f 790 795 788
f 810 809 790
f 790 138 810
f 203 65 565
f 565 566 203
f 205 204 567
f 204 566 567
f 568 205 567
f 567 566 800
f 800 799 567
f 567 799 568
f 802 609 801
f 800 566 801
f 801 608 800
f 801 609 608
f 801 565 802
f 566 565 801
f 207 798 797
f 797 208 207
f 797 789 796
f 797 798 162
f 797 161 794
f 794 789 797
f 162 160 797
f 797 160 161
f 210 208 807
f 807 211 210
f 808 211 807
f 796 808 807
f 807 797 796
f 208 797 807
f 743 744 745
f 745 744 746
f 758 743 745
f 745 747 758
f 745 746 748
f 748 747 745
f 707 708 713
f 713 714 707
f 707 714 706
f 691 692 703
f 675 674 691
f 674 728 691
f 728 692 691
f 767 768 720
f 762 768 767
f 720 719 767
f 767 719 763
f 763 769 767
f 769 762 767
f 54 25 812
f 217 53 216
f 771 217 216
f 216 54 812
f 216 53 25
f 25 54 216
f 520 426 521
f 521 518 520
f 518 571 520
f 569 571 572
f 530 596 572
f 596 569 572
f 572 573 530
f 572 165 573
f 572 571 165
f 553 600 555
f 555 600 599
f 599 557 555
f 581 594 559
f 581 593 594
f 559 560 581
f 560 593 581
f 911 251 920
f 276 919 920
f 920 919 911
f 398 401 400
f 389 398 400
f 388 389 400
f 400 402 388
f 403 401 496
f 402 400 403
f 403 400 401
f 403 395 404
f 403 496 395
f 404 387 403
f 387 402 403
f 583 582 562
f 562 582 560
f 560 561 562
f 504 372 509
f 509 587 586
f 509 378 587
f 509 372 378
f 510 504 509
f 509 586 510
f 438 443 437
f 437 436 147
f 442 436 437
f 437 443 442
f 147 698 437
f 437 698 438
f 487 444 472
f 471 466 487
f 487 472 471
f 487 466 486
f 486 531 487
f 531 444 487
f 481 479 480
f 481 482 464
f 480 482 481
f 481 464 463
f 463 479 481
f 536 478 537
f 536 479 478
f 480 479 536
f 584 540 539
f 540 534 539
f 554 538 537
f 537 552 554
f 554 552 553
f 553 555 554
f 516 538 522
f 612 601 611
f 611 804 612
f 803 804 611
f 610 803 611
f 611 602 610
f 611 601 602
f 71 198 10
f 10 70 71
f 71 70 198
f 199 68 11
f 11 806 199
f 805 68 199
f 199 806 805
f 42 200 201
f 200 804 201
f 69 42 201
f 201 202 69
f 201 804 202
f 668 678 667
f 680 838 667
f 667 679 680
f 667 678 679
f 667 837 668
f 838 837 667
f 469 462 470
f 471 452 470
f 470 466 471
f 470 462 466
f 452 453 470
f 470 453 469
f 665 151 152
f 666 665 152
f 152 154 666
f 901 896 903
f 903 904 901
f 903 896 894
f 903 894 892
f 892 905 903
f 905 904 903
f 139 784 785
f 785 137 139
f 139 137 138
f 139 138 787
f 139 787 140
f 140 784 139
f 25 24 55
f 55 215 25
f 812 215 811
f 810 138 811
f 215 55 811
f 811 137 812
f 138 137 811
f 1049 1048 149
f 1036 1042 1049
f 1042 1048 1049
f 664 148 339
f 365 366 364
f 366 345 364
f 318 317 319
f 319 320 318
f 319 352 320
f 317 348 350
f 350 319 317
f 352 319 350
f 359 361 360
f 342 360 343
f 997 995 326
f 326 995 1029
f 325 323 324
f 325 326 342
f 325 343 323
f 342 343 325
f 325 324 997
f 997 326 325
f 341 331 358
f 358 331 359
f 359 360 358
f 358 360 342
f 230 91 231
f 229 90 230
f 230 90 33
f 33 91 230
f 230 241 229
f 230 242 241
f 231 242 230
f 96 97 18
f 849 843 245
f 245 97 849
f 844 843 849
f 849 841 844
f 97 96 849
f 849 96 841
f 857 856 855
f 857 895 856
f 855 927 857
f 101 840 102
f 16 38 101
f 101 102 16
f 38 100 101
f 1032 1031 1007
f 1007 1031 1030
f 1030 1005 1007
f 956 119 120
f 120 959 957
f 957 956 120
f 120 961 959
f 120 119 961
f 831 621 630
f 622 629 630
f 630 623 622
f 630 621 623
f 629 832 630
f 630 832 831
f 632 620 830
f 830 157 159
f 159 829 830
f 830 829 632
f 651 653 947
f 947 946 651
f 947 653 941
f 941 880 947
f 866 873 870
f 870 865 866
f 865 864 866
f 653 652 654
f 656 655 654
f 655 653 654
f 649 157 831
f 831 832 649
f 625 158 649
f 158 157 649
f 134 823 822
f 823 824 822
f 822 225 134
f 822 224 225
f 822 824 224
f 39 67 187
f 187 65 39
f 187 565 65
f 802 565 564
f 186 202 564
f 803 802 564
f 564 202 803
f 564 39 186
f 564 67 39
f 564 187 67
f 565 187 564
f 708 707 638
f 637 709 638
f 709 711 638
f 711 708 638
f 634 635 636
f 706 634 636
f 636 707 706
f 636 638 707
f 636 635 637
f 637 638 636
f 690 691 703
f 690 702 689
f 690 689 675
f 675 691 690
f 690 703 777
f 777 702 690
f 570 520 571
f 579 578 570
f 570 578 426
f 426 520 570
f 570 580 579
f 569 580 570
f 570 571 569
f 583 538 556
f 556 555 557
f 538 554 556
f 556 554 555
f 590 583 556
f 556 557 590
f 276 920 275
f 275 242 276
f 269 242 275
f 267 269 275
f 275 920 251
f 527 539 513
f 527 512 584
f 584 539 527
f 563 524 522
f 522 583 563
f 583 562 563
f 523 562 561
f 523 561 525
f 523 563 562
f 524 563 523
f 499 500 498
f 500 512 498
f 512 527 498
f 480 536 535
f 513 539 535
f 535 534 480
f 535 539 534
f 537 538 514
f 538 516 514
f 514 536 537
f 514 516 513
f 513 535 514
f 514 535 536
f 1047 1048 1041
f 155 1046 1045
f 1045 1044 962
f 962 155 1045
f 1045 1038 1044
f 771 216 786
f 786 772 771
f 786 216 812
f 812 137 786
f 785 772 786
f 786 137 785
f 24 56 214
f 214 55 24
f 214 811 55
f 214 56 810
f 810 811 214
f 1037 330 1036
f 340 330 1037
f 1051 339 1050
f 1050 1037 1051
f 1036 1049 1051
f 1051 1037 1036
f 338 148 436
f 338 339 148
f 338 436 442
f 363 361 370
f 365 364 363
f 363 371 365
f 370 371 363
f 344 345 321
f 344 364 345
f 321 323 344
f 323 343 344
f 352 350 351
f 321 353 351
f 353 352 351
f 342 326 327
f 328 341 327
f 327 1029 328
f 327 326 1029
f 341 358 327
f 327 358 342
f 841 96 183
f 102 842 183
f 183 18 16
f 16 102 183
f 183 96 18
f 183 842 850
f 850 841 183
f 895 857 929
f 893 895 929
f 931 893 929
f 929 930 931
f 840 101 226
f 856 840 226
f 226 100 814
f 226 101 100
f 814 855 226
f 855 856 226
f 1038 1045 1039
f 1039 1045 1046
f 1005 1038 1039
f 1039 1007 1005
f 885 886 943
f 885 884 877
f 877 861 878
f 878 885 877
f 886 885 878
f 878 861 859
f 859 879 878
f 879 886 878
f 943 886 942
f 159 943 942
f 942 829 159
f 942 886 879
f 942 879 131
f 131 829 942
f 631 830 620
f 631 620 619
f 619 621 631
f 631 621 831
f 831 157 631
f 157 830 631
f 882 946 881
f 946 947 881
f 881 947 880
f 872 882 881
f 880 952 881
f 881 952 872
f 945 946 882
f 625 946 945
f 945 158 625
f 874 882 872
f 872 951 874
f 951 873 874
f 875 866 864
f 873 866 875
f 875 874 873
f 835 836 656
f 656 654 835
f 835 648 836
f 650 832 833
f 650 649 832
f 833 652 650
f 625 649 650
f 650 651 625
f 650 652 651
f 274 266 267
f 267 275 274
f 274 275 251
f 273 266 274
f 274 253 273
f 274 251 253
f 515 527 513
f 522 524 515
f 515 498 527
f 515 516 522
f 513 516 515
f 528 529 574
f 525 529 528
f 528 574 499
f 499 498 528
f 156 1046 155
f 156 1047 1046
f 156 155 154
f 154 152 156
f 339 1051 663
f 663 149 664
f 664 339 663
f 663 1049 149
f 663 1051 1049
f 336 338 442
f 440 335 336
f 442 441 336
f 336 441 440
f 340 1037 333
f 333 1037 1050
f 332 340 333
f 333 367 332
f 333 335 367
f 1050 339 337
f 339 338 337
f 337 333 1050
f 335 333 337
f 337 336 335
f 338 336 337
f 364 344 362
f 361 363 362
f 362 363 364
f 362 344 343
f 362 360 361
f 362 343 360
f 349 350 348
f 349 351 350
f 349 347 998
f 349 348 347
f 928 929 857
f 1009 1010 928
f 1010 930 928
f 930 929 928
f 928 927 1009
f 928 857 927
f 1040 1039 1046
f 1040 1047 1041
f 1046 1047 1040
f 1007 1039 1040
f 1040 1041 1032
f 1032 1007 1040
f 158 945 944
f 944 945 884
f 944 943 158
f 944 885 943
f 884 885 944
f 876 875 864
f 877 884 876
f 876 863 877
f 876 864 863
f 884 945 883
f 883 876 884
f 875 876 883
f 883 945 882
f 882 874 883
f 874 875 883
f 648 835 626
f 647 648 626
f 626 628 647
f 626 627 628
f 834 654 652
f 834 835 654
f 834 652 833
f 834 626 835
f 833 627 834
f 627 626 834
f 526 523 525
f 525 528 526
f 524 523 526
f 526 528 498
f 526 515 524
f 498 515 526
f 1047 156 150
f 149 1048 150
f 1048 1047 150
f 151 149 150
f 150 152 151
f 150 156 152
f 351 349 322
f 322 323 321
f 321 351 322
f 324 323 322
f 998 324 322
f 322 349 998
f 5 87 86
f 6 87 5
f 40 41 24
f 30 31 24
f 24 35 1
f 21 22 24
f 24 36 7
f 1 2 24
f 24 43 9
f 32 33 24
f 24 29 30
f 17 37 24
f 24 2 36
f 24 4 21
f 24 33 6
f 24 23 34
f 24 3 17
f 16 18 24
f 26 12 24
f 24 38 16
f 6 5 24
f 34 35 24
f 7 8 24
f 24 10 11
f 15 27 24
f 11 42 24
f 24 20 32
f 24 39 40
f 24 41 43
f 24 14 15
f 24 5 4
f 22 23 24
f 8 10 24
f 24 37 29
f 24 27 28
f 28 3 24
f 24 25 26
f 19 20 24
f 31 38 24
f 13 14 24
f 24 12 13
f 24 42 39
f 24 18 19

