# https://github.com/mikedh/trimesh
v 0.00515651 0.00296138 0.02924596
v 0.00490662 0.00296138 0.02988028
v 0.00490662 0.00296022 0.03026463
v 0.00529136 0.00295964 0.02924596
v 0.00183268 0.00296138 0.02924596
v 0.00452255 0.00296138 0.03064898
v 0.00490662 0.00292543 0.03064898
v 0.00529136 0.00295674 0.02949593
v 0.00413781 0.00296022 0.03141768
v 0.00452255 0.00295268 0.03103333
v 0.00550555 0.00287152 0.02924596
v 0.00144860 0.00287500 0.02924596
v -0.00099204 0.00277702 0.03035256
v -0.00099204 0.00288311 0.03063847
v -0.00099204 0.00295906 0.03103333
v -0.00099204 0.00296138 0.03141768
v 0.00375373 0.00296138 0.03180203
v 0.00413781 0.00289993 0.03180203
v 0.00455428 0.00284543 0.03144699
v 0.00491588 0.00281818 0.03102669
v 0.00519881 0.00279035 0.03064898
v 0.00529136 0.00292138 0.02988028
v 0.00561462 0.00282166 0.02949593
v 0.00375373 0.00291210 0.03218583
v 0.00561859 0.00282398 0.02924596
v 0.00122252 0.00273933 0.02924596
v -0.00099204 0.00249816 0.03023642
v -0.00099204 0.00296138 0.03372323
v 0.00336965 0.00296138 0.03218583
v 0.00411070 0.00276484 0.03215209
v 0.00442339 0.00276426 0.03180203
v 0.00479424 0.00276890 0.03133860
v 0.00513139 0.00273470 0.03089397
v 0.00551480 0.00273354 0.03014075
v 0.00556901 0.00278629 0.02988028
v 0.00531318 0.00282340 0.03026739
v 0.00566751 0.00271093 0.02924596
v 0.00569924 0.00249816 0.02988028
v 0.00575345 0.00249816 0.02949593
v 0.00298491 0.00295616 0.03257018
v 0.00260084 0.00294689 0.03295453
v 0.00299946 0.00283789 0.03297388
v 0.00375373 0.00277644 0.03248390
v 0.00119145 0.00257410 0.02924596
v -0.00099204 0.00227843 0.03023477
v 0.00118616 0.00249816 0.02924596
v -0.00099204 0.00291906 0.03410757
v 0.00029571 0.00296138 0.03372323
v 0.00221742 0.00296138 0.03295453
v 0.00396461 0.00271498 0.03239653
v 0.00433745 0.00269991 0.03200222
v 0.00470368 0.00266223 0.03159520
v 0.00506065 0.00249816 0.03116550
v 0.00518163 0.00249816 0.03097360
v 0.00537928 0.00249178 0.03063294
v 0.00545597 0.00261585 0.03039680
v 0.00556240 0.00249178 0.03026739
v 0.00575741 0.00249816 0.02924596
v 0.00567676 0.00211378 0.03026463
v 0.00573824 0.00172940 0.03026463
v 0.00575212 0.00211378 0.02988028
v 0.00576072 0.00236365 0.02924596
v 0.00576138 0.00172940 0.02988028
v 0.00576138 0.00211378 0.02949593
v 0.00183268 0.00295268 0.03333887
v 0.00221742 0.00289413 0.03333887
v 0.00329892 0.00277412 0.03285885
v 0.00257109 0.00279499 0.03333887
v 0.00288113 0.00276194 0.03321057
v -0.00099204 0.00211378 0.03023366
v 0.00118352 0.00224770 0.02924596
v -0.00099204 0.00278339 0.03436418
v -0.00085718 0.00278397 0.03436473
v -0.00085718 0.00291906 0.03410757
v 0.00067979 0.00295906 0.03372323
v 0.00144860 0.00296138 0.03333887
v 0.00355475 0.00267730 0.03275710
v 0.00375175 0.00252888 0.03265921
v 0.00394478 0.00191898 0.03276152
v 0.00401353 0.00249816 0.03244519
v 0.00420590 0.00249816 0.03224113
v 0.00438108 0.00249816 0.03204978
v 0.00465344 0.00211378 0.03192259
v 0.00459460 0.00251961 0.03179318
v 0.00475260 0.00240598 0.03165880
v 0.00486035 0.00251961 0.03144699
v 0.00501702 0.00214683 0.03141713
v 0.00509569 0.00229698 0.03122136
v 0.00547977 0.00190913 0.03083535
v 0.00544341 0.00211378 0.03076898
v 0.00550290 0.00235960 0.03049413
v 0.00554653 0.00211378 0.03057653
v 0.00568470 0.00134503 0.03064898
v 0.00559479 0.00176013 0.03068382
v 0.00571973 0.00096065 0.03064898
v 0.00575940 0.00134503 0.03026463
v 0.00576138 0.00211378 0.02924596
v 0.00576138 0.00096065 0.03026463
v 0.00106386 0.00293935 0.03372323
v 0.00144860 0.00287384 0.03372323
v 0.00179434 0.00279151 0.03372876
v 0.00221742 0.00275847 0.03359161
v 0.00242301 0.00270281 0.03353852
v 0.00268281 0.00249816 0.03346939
v 0.00313762 0.00261179 0.03311490
v -0.00099204 -0.00211320 0.03023366
v 0.00118286 0.00211378 0.02924596
v -0.00099204 0.00249816 0.03448695
v -0.00085718 0.00249816 0.03448805
v -0.00047311 0.00277180 0.03435478
v -0.00047311 0.00290746 0.03410757
v 0.00362152 0.00242105 0.03281019
v 0.00320306 0.00235554 0.03316633
v 0.00345691 0.00211378 0.03306458
v 0.00326454 0.00211378 0.03321389
v 0.00352434 0.00182100 0.03311767
v 0.00375836 0.00174158 0.03295840
v 0.00398642 0.00166273 0.03279913
v 0.00415566 0.00178390 0.03258787
v 0.00432555 0.00190565 0.03237275
v 0.00428390 0.00211378 0.03232740
v 0.00446107 0.00211378 0.03213550
v 0.00470037 0.00187492 0.03197789
v 0.00480680 0.00211378 0.03173069
v 0.00505867 0.00172940 0.03154930
v 0.00513998 0.00204131 0.03128827
v 0.00518559 0.00172940 0.03135740
v 0.00539713 0.00176013 0.03102337
v 0.00551348 0.00165288 0.03088844
v 0.00554719 0.00134503 0.03093876
v 0.00558091 0.00096065 0.03099185
v 0.00558091 0.00056932 0.03106596
v 0.00561594 0.00019190 0.03103333
v 0.00574089 0.00057627 0.03064898
v 0.00574816 0.00019190 0.03064898
v 0.00576138 -0.00211320 0.02924596
v 0.00576138 -0.00096065 0.03026463
v 0.00067979 0.00282398 0.03406886
v 0.00106386 0.00280427 0.03401854
v 0.00144860 0.00273817 0.03395107
v 0.00164097 0.00269005 0.03391568
v 0.00249110 0.00249816 0.03357502
v 0.00191069 0.00249816 0.03386646
v 0.00221742 0.00249816 0.03371825
v 0.00276015 0.00225292 0.03351252
v 0.00299946 0.00248946 0.03326311
v -0.00099204 -0.00233235 0.03023477
v 0.00118286 -0.00211320 0.02924596
v 0.00118616 -0.00249758 0.02924596
v -0.00099204 0.00236365 0.03452842
v -0.00085718 0.00211378 0.03460474
v -0.00047311 0.00211378 0.03458926
v -0.00047311 0.00249816 0.03446925
v -0.00008903 0.00273701 0.03432823
v 0.00297169 0.00212016 0.03342017
v 0.00308804 0.00172940 0.03347160
v 0.00357128 0.00156475 0.03315417
v 0.00338552 0.00170737 0.03325758
v 0.00379273 0.00134503 0.03302808
v 0.00402741 0.00134503 0.03283618
v 0.00421978 0.00134503 0.03264594
v 0.00436389 0.00164940 0.03241422
v 0.00473805 0.00161925 0.03202047
v 0.00485043 0.00173984 0.03183079
v 0.00508908 0.00148243 0.03159465
v 0.00545597 0.00096065 0.03118430
v 0.00547646 0.00069281 0.03121527
v 0.00548770 0.00043655 0.03123242
v 0.00549034 0.00019190 0.03123573
v 0.00561594 -0.00019190 0.03103333
v 0.00574816 -0.00019190 0.03064898
v 0.00576138 -0.00211320 0.02949593
v 0.00575807 -0.00249758 0.02924596
v 0.00575807 -0.00134503 0.03026463
v 0.00576138 -0.00172940 0.02988028
v 0.00016085 0.00270629 0.03430887
v 0.00041668 0.00265469 0.03428620
v 0.00067979 0.00257526 0.03426131
v 0.00103147 0.00246569 0.03420325
v 0.00144860 0.00249816 0.03404674
v 0.00144860 0.00211378 0.03416951
v 0.00185648 0.00213407 0.03401080
v 0.00200059 0.00227611 0.03390517
v 0.00261935 0.00212016 0.03363308
v 0.00208917 0.00201986 0.03394941
v 0.00283485 0.00199667 0.03355621
v -0.00099204 -0.00249758 0.03023642
v 0.00122252 -0.00273933 0.02924596
v -0.00099204 0.00211378 0.03460419
v -0.00085718 0.00187666 0.03467332
v -0.00047311 0.00184825 0.03466668
v -0.00099204 0.00203088 0.03462852
v -0.00099204 0.00187666 0.03467332
v -0.00008903 0.00211378 0.03454170
v -0.00008903 0.00249816 0.03441837
v 0.00314489 0.00142619 0.03350976
v 0.00289567 0.00172940 0.03359216
v 0.00333329 0.00131662 0.03338865
v 0.00360036 0.00134503 0.03317684
v 0.00384033 0.00096065 0.03306513
v 0.00364862 0.00096065 0.03321389
v 0.00406840 0.00096065 0.03287323
v 0.00426077 0.00096065 0.03268908
v 0.00440091 0.00134503 0.03245404
v 0.00476978 0.00134503 0.03205531
v 0.00498331 0.00135082 0.03177604
v 0.00500049 0.00096065 0.03185954
v 0.00511222 0.00122618 0.03163059
v 0.00513667 0.00096065 0.03166709
v 0.00537664 0.00056932 0.03138339
v 0.00516246 0.00057627 0.03170636
v 0.00517105 0.00019190 0.03171908
v 0.00536342 0.00019190 0.03142819
v 0.00549034 -0.00019190 0.03123573
v 0.00548770 -0.00043655 0.03123242
v 0.00558157 -0.00056932 0.03106596
v 0.00571973 -0.00096065 0.03064898
v 0.00574155 -0.00057627 0.03064898
v 0.00575345 -0.00249758 0.02949593
v 0.00561859 -0.00282398 0.02924596
v 0.00573560 -0.00172940 0.03026463
v 0.00575212 -0.00211320 0.02988028
v 0.00029571 0.00211378 0.03447865
v 0.00067979 0.00211378 0.03440897
v 0.00067979 0.00238279 0.03432381
v 0.00029174 0.00251497 0.03435201
v 0.00088141 0.00231611 0.03430279
v 0.00097330 0.00211378 0.03433487
v 0.00125425 0.00191840 0.03429892
v 0.00183268 0.00172940 0.03413910
v 0.00216586 0.00172940 0.03399089
v 0.00235823 0.00172940 0.03388802
v 0.00260084 0.00172940 0.03375696
v -0.00099204 -0.00270803 0.03031164
v 0.00129458 -0.00278687 0.02924596
v -0.00099204 -0.00277702 0.03035256
v -0.00085718 0.00168418 0.03471701
v -0.00047311 0.00165578 0.03471092
v -0.00099204 0.00180941 0.03468880
v -0.00019810 0.00159722 0.03469765
v -0.00007713 0.00172708 0.03464732
v 0.00300408 0.00131662 0.03361428
v 0.00318125 0.00116994 0.03353409
v 0.00240450 0.00152359 0.03391291
v 0.00258431 0.00137517 0.03384157
v 0.00340006 0.00096065 0.03340579
v 0.00387603 0.00057627 0.03309278
v 0.00343510 0.00057627 0.03343344
v 0.00409881 0.00057627 0.03290033
v 0.00429117 0.00057627 0.03272115
v 0.00444057 0.00096065 0.03249718
v 0.00463294 0.00096065 0.03228979
v 0.00480813 0.00096065 0.03209790
v 0.00502892 0.00057627 0.03189881
v 0.00503818 0.00019190 0.03191153
v 0.00517105 -0.00019190 0.03171908
v 0.00536342 -0.00019190 0.03142819
v 0.00547646 -0.00069280 0.03121583
v 0.00516246 -0.00057627 0.03170636
v 0.00537664 -0.00056932 0.03138339
v 0.00558091 -0.00096065 0.03099185
v 0.00568271 -0.00134503 0.03064898
v 0.00569858 -0.00249758 0.02988028
v 0.00561462 -0.00282166 0.02949593
v 0.00529136 -0.00295732 0.02949593
v 0.00529136 -0.00295964 0.02924596
v 0.00567412 -0.00211320 0.03026463
v 0.00029571 0.00172940 0.03458483
v 0.00067979 0.00172940 0.03451405
v 0.00110088 0.00176593 0.03438796
v 0.00146249 0.00176593 0.03426408
v 0.00159933 0.00145054 0.03428565
v 0.00180624 0.00133111 0.03423035
v 0.00225312 0.00137517 0.03402020
v 0.00144860 -0.00287500 0.02924596
v -0.00099204 -0.00284369 0.03048141
v 0.00158280 -0.00291326 0.02924596
v -0.00085718 0.00134503 0.03477949
v -0.00099204 0.00168418 0.03471701
v -0.00047311 0.00134503 0.03476733
v -0.00008903 0.00096065 0.03478281
v -0.00007713 0.00135430 0.03471977
v 0.00005839 0.00148881 0.03467663
v -0.00047311 0.00096065 0.03482650
v 0.00298491 0.00096065 0.03368838
v 0.00268677 0.00096065 0.03385816
v 0.00320769 0.00096065 0.03355345
v 0.00249507 0.00096065 0.03396158
v 0.00388726 0.00019190 0.03310163
v 0.00324339 0.00057627 0.03357944
v 0.00344634 0.00019190 0.03344229
v 0.00410872 0.00019190 0.03290918
v 0.00430043 0.00019190 0.03273166
v 0.00447032 0.00057627 0.03252870
v 0.00466269 0.00057627 0.03232187
v 0.00483721 0.00057627 0.03212942
v 0.00484647 0.00019190 0.03213992
v 0.00503818 -0.00019190 0.03191153
v 0.00545597 -0.00096065 0.03118375
v 0.00513667 -0.00096065 0.03166709
v 0.00502892 -0.00057627 0.03189881
v 0.00554719 -0.00134503 0.03093876
v 0.00559215 -0.00176013 0.03068382
v 0.00556108 -0.00249062 0.03026739
v 0.00551414 -0.00273296 0.03014131
v 0.00556901 -0.00278629 0.02988028
v 0.00529136 -0.00292196 0.02988028
v 0.00490662 -0.00292543 0.03064898
v 0.00490662 -0.00296022 0.03026463
v 0.00490662 -0.00296138 0.02988028
v 0.00490662 -0.00296138 0.02924596
v 0.00554455 -0.00211320 0.03057487
v 0.00067979 0.00134503 0.03458926
v 0.00106386 0.00134503 0.03448529
v 0.00134349 0.00166215 0.03432934
v 0.00146249 0.00133111 0.03435201
v 0.00166014 0.00119429 0.03430611
v 0.00190738 0.00096065 0.03425634
v 0.00221742 0.00096065 0.03411089
v -0.00099204 -0.00295558 0.03089950
v 0.00183268 -0.00296138 0.02924596
v -0.00085718 0.00096065 0.03483812
v -0.00099204 0.00134503 0.03477949
v -0.00008903 0.00057627 0.03482650
v 0.00054691 0.00083890 0.03469488
v 0.00030166 0.00096413 0.03471701
v 0.00043387 0.00109515 0.03467497
v 0.00017738 0.00123256 0.03469654
v 0.00030166 0.00135430 0.03465673
v -0.00047311 0.00057627 0.03487019
v 0.00298491 0.00057627 0.03373926
v 0.00273305 0.00057627 0.03388305
v 0.00388726 -0.00019190 0.03310163
v 0.00298491 0.00019190 0.03375530
v 0.00325463 0.00019190 0.03358773
v 0.00344634 -0.00019190 0.03344229
v 0.00410872 -0.00019190 0.03290918
v 0.00430043 -0.00019190 0.03273166
v 0.00447958 0.00019190 0.03253921
v 0.00467195 0.00019190 0.03233238
v 0.00484647 -0.00019190 0.03213992
v 0.00483721 -0.00057627 0.03212942
v 0.00521071 -0.00135082 0.03144699
v 0.00500049 -0.00096065 0.03185954
v 0.00511222 -0.00122618 0.03163059
v 0.00480813 -0.00096065 0.03209790
v 0.00551348 -0.00165288 0.03088844
v 0.00508908 -0.00148243 0.03159465
v 0.00547977 -0.00190913 0.03083535
v 0.00550158 -0.00235728 0.03049247
v 0.00545597 -0.00261353 0.03039735
v 0.00513139 -0.00273470 0.03089286
v 0.00519881 -0.00278977 0.03064898
v 0.00531318 -0.00282340 0.03026739
v 0.00491522 -0.00281818 0.03102614
v 0.00455362 -0.00284485 0.03144588
v 0.00413781 -0.00289877 0.03180203
v 0.00452255 -0.00295210 0.03103333
v 0.00413781 -0.00296022 0.03141768
v 0.00452255 -0.00296138 0.03064898
v 0.00544341 -0.00211320 0.03076733
v 0.00067714 0.00096413 0.03465009
v 0.00106386 0.00096065 0.03454778
v 0.00144860 0.00096065 0.03441616
v 0.00171501 0.00096065 0.03432491
v 0.00197415 0.00057627 0.03428122
v 0.00221742 0.00057627 0.03416011
v 0.00254068 0.00057627 0.03398646
v -0.00099204 -0.00295906 0.03103333
v -0.00099204 -0.00296138 0.03128329
v -0.00085718 0.00057627 0.03488125
v -0.00099204 0.00096065 0.03483812
v -0.00008903 0.00019190 0.03484088
v 0.00029571 0.00057627 0.03476291
v 0.00061500 0.00057627 0.03470760
v 0.00080671 0.00057627 0.03467166
v -0.00047311 0.00019190 0.03488402
v 0.00274759 0.00019190 0.03389079
v 0.00387603 -0.00057627 0.03309278
v 0.00409881 -0.00057627 0.03290033
v 0.00298491 -0.00019190 0.03375530
v 0.00325463 -0.00019190 0.03358773
v 0.00324339 -0.00057627 0.03357944
v 0.00343510 -0.00057627 0.03343344
v 0.00429117 -0.00057627 0.03272115
v 0.00447958 -0.00019190 0.03253921
v 0.00467195 -0.00019190 0.03233238
v 0.00466269 -0.00057627 0.03232187
v 0.00498331 -0.00135082 0.03177604
v 0.00476978 -0.00134503 0.03205531
v 0.00463294 -0.00096065 0.03228979
v 0.00539647 -0.00176013 0.03102337
v 0.00505801 -0.00172940 0.03154819
v 0.00473805 -0.00161693 0.03202047
v 0.00484977 -0.00173868 0.03183023
v 0.00524509 -0.00214161 0.03106651
v 0.00505669 -0.00249758 0.03116163
v 0.00518163 -0.00249758 0.03096918
v 0.00513866 -0.00203203 0.03128606
v 0.00537995 -0.00249062 0.03063184
v 0.00470236 -0.00265817 0.03159299
v 0.00479292 -0.00276890 0.03133694
v 0.00442140 -0.00276310 0.03180203
v 0.00411070 -0.00276426 0.03215154
v 0.00375373 -0.00291152 0.03218583
v 0.00375373 -0.00296138 0.03180203
v 0.00106386 0.00057627 0.03459313
v 0.00144860 0.00057627 0.03446206
v 0.00178178 0.00057627 0.03434814
v 0.00199596 0.00019190 0.03428897
v 0.00221742 0.00019190 0.03417560
v 0.00255522 0.00019190 0.03399421
v -0.00099204 -0.00296138 0.03372323
v -0.00085718 0.00019190 0.03489508
v -0.00099204 0.00057627 0.03488125
v -0.00099204 0.00044177 0.03488623
v -0.00008903 -0.00019190 0.03484088
v 0.00029571 0.00019190 0.03477673
v 0.00065334 0.00019190 0.03471424
v 0.00084505 0.00019190 0.03467885
v -0.00047311 -0.00019190 0.03488402
v 0.00274759 -0.00019190 0.03389079
v 0.00364862 -0.00096065 0.03321389
v 0.00384033 -0.00096065 0.03306513
v 0.00406840 -0.00096065 0.03287323
v 0.00298491 -0.00057627 0.03373926
v 0.00320769 -0.00096065 0.03355345
v 0.00340006 -0.00096065 0.03340579
v 0.00426077 -0.00096065 0.03268908
v 0.00444057 -0.00096065 0.03249718
v 0.00447032 -0.00057627 0.03252870
v 0.00440091 -0.00134503 0.03245404
v 0.00501306 -0.00214161 0.03141547
v 0.00480416 -0.00211320 0.03172848
v 0.00469971 -0.00187318 0.03197678
v 0.00436389 -0.00164650 0.03241422
v 0.00453180 -0.00176013 0.03219578
v 0.00485638 -0.00251729 0.03144588
v 0.00475061 -0.00240192 0.03165769
v 0.00465145 -0.00211320 0.03192038
v 0.00459262 -0.00251729 0.03179207
v 0.00433613 -0.00269875 0.03200112
v 0.00396461 -0.00271440 0.03239597
v 0.00375373 -0.00277586 0.03248280
v 0.00299880 -0.00283731 0.03297333
v 0.00260084 -0.00294689 0.03295453
v 0.00298491 -0.00295616 0.03257018
v 0.00336965 -0.00296138 0.03218583
v 0.00106386 0.00019190 0.03460806
v 0.00144860 0.00019190 0.03447699
v 0.00180359 0.00019190 0.03435533
v 0.00199596 -0.00019190 0.03428897
v 0.00221742 -0.00019190 0.03417560
v 0.00255522 -0.00019190 0.03399421
v 0.00029571 -0.00296138 0.03372323
v -0.00085718 -0.00291964 0.03410757
v -0.00099204 -0.00293413 0.03397319
v -0.00085718 -0.00019190 0.03489508
v -0.00099204 0.00019190 0.03489508
v -0.00047311 -0.00057627 0.03487019
v -0.00008903 -0.00057627 0.03482650
v 0.00029571 -0.00057627 0.03476291
v 0.00029571 -0.00019190 0.03477673
v 0.00065334 -0.00019190 0.03471424
v 0.00084505 -0.00019190 0.03467885
v 0.00273305 -0.00057627 0.03388305
v 0.00360036 -0.00134503 0.03317684
v 0.00379273 -0.00134503 0.03302808
v 0.00333329 -0.00131662 0.03338865
v 0.00402741 -0.00134503 0.03283618
v 0.00298491 -0.00096065 0.03368838
v 0.00318125 -0.00116994 0.03353409
v 0.00421978 -0.00134503 0.03264594
v 0.00432423 -0.00190275 0.03237164
v 0.00445908 -0.00211320 0.03213329
v 0.00437910 -0.00249758 0.03204757
v 0.00398642 -0.00166157 0.03279913
v 0.00415566 -0.00178216 0.03258787
v 0.00420391 -0.00249758 0.03223892
v 0.00401221 -0.00249758 0.03244409
v 0.00394478 -0.00191782 0.03276097
v 0.00375042 -0.00252714 0.03265811
v 0.00355409 -0.00267498 0.03275599
v 0.00288047 -0.00276194 0.03321057
v 0.00329760 -0.00277354 0.03285830
v 0.00256977 -0.00279383 0.03333887
v 0.00221742 -0.00289297 0.03333887
v 0.00183268 -0.00295210 0.03333887
v 0.00221742 -0.00296138 0.03295453
v 0.00106386 -0.00019190 0.03460806
v 0.00144860 -0.00019190 0.03447699
v 0.00180359 -0.00019190 0.03435533
v 0.00178178 -0.00057627 0.03434814
v 0.00197415 -0.00057627 0.03428122
v 0.00221742 -0.00057627 0.03416011
v 0.00254068 -0.00057627 0.03398646
v 0.00144860 -0.00296138 0.03333887
v 0.00067979 -0.00295906 0.03372323
v -0.00085718 -0.00278397 0.03436528
v -0.00099204 -0.00283093 0.03427514
v -0.00099204 -0.00291906 0.03410757
v -0.00047311 -0.00290746 0.03410757
v -0.00085718 -0.00057627 0.03488125
v -0.00099204 -0.00019190 0.03489508
v -0.00099204 -0.00032582 0.03489065
v -0.00047311 -0.00096065 0.03482650
v -0.00085718 -0.00096065 0.03483812
v -0.00008903 -0.00096065 0.03478281
v 0.00054691 -0.00083890 0.03469488
v 0.00061500 -0.00057627 0.03470760
v 0.00080671 -0.00057627 0.03467166
v 0.00106386 -0.00057627 0.03459313
v 0.00221742 -0.00096065 0.03411089
v 0.00249507 -0.00096065 0.03396158
v 0.00268677 -0.00096065 0.03385816
v 0.00357128 -0.00156359 0.03315417
v 0.00314489 -0.00142619 0.03350976
v 0.00300408 -0.00131662 0.03361428
v 0.00428192 -0.00211320 0.03232519
v 0.00375770 -0.00174100 0.03295784
v 0.00338486 -0.00170679 0.03325703
v 0.00352302 -0.00181985 0.03311656
v 0.00326190 -0.00211320 0.03321223
v 0.00313630 -0.00260831 0.03311435
v 0.00268083 -0.00249758 0.03346884
v 0.00242103 -0.00270107 0.03353741
v 0.00221742 -0.00275731 0.03359050
v 0.00179632 -0.00279267 0.03372820
v 0.00144860 -0.00287558 0.03372323
v 0.00106386 -0.00293993 0.03372323
v 0.00144860 -0.00057627 0.03446206
v 0.00106386 -0.00096065 0.03454778
v 0.00144860 -0.00096065 0.03441616
v 0.00171501 -0.00096065 0.03432491
v 0.00190738 -0.00096065 0.03425634
v -0.00047311 -0.00277238 0.03435478
v -0.00085718 -0.00249758 0.03448971
v -0.00099204 -0.00278339 0.03436473
v 0.00067979 -0.00282398 0.03406942
v -0.00099204 -0.00057627 0.03488125
v -0.00099204 -0.00071020 0.03486632
v -0.00047311 -0.00134503 0.03476733
v -0.00019810 -0.00159838 0.03469765
v -0.00085718 -0.00134503 0.03477949
v -0.00099204 -0.00096065 0.03483812
v -0.00007713 -0.00135430 0.03471977
v 0.00005839 -0.00148881 0.03467663
v 0.00017738 -0.00123256 0.03469654
v 0.00043387 -0.00109515 0.03467497
v 0.00030166 -0.00096413 0.03471701
v 0.00067979 -0.00134503 0.03458926
v 0.00067714 -0.00096413 0.03465009
v 0.00225312 -0.00137517 0.03402020
v 0.00240450 -0.00152359 0.03391291
v 0.00258431 -0.00137517 0.03384157
v 0.00289501 -0.00172940 0.03359161
v 0.00308672 -0.00172940 0.03347105
v 0.00297103 -0.00211900 0.03341906
v 0.00299880 -0.00248714 0.03326200
v 0.00275883 -0.00225060 0.03351252
v 0.00248846 -0.00249758 0.03357280
v 0.00208785 -0.00201696 0.03394886
v 0.00221742 -0.00249758 0.03371438
v 0.00191267 -0.00249758 0.03386480
v 0.00164362 -0.00269237 0.03391678
v 0.00144860 -0.00274049 0.03395273
v 0.00106386 -0.00280427 0.03401964
v 0.00106386 -0.00134503 0.03448584
v 0.00146249 -0.00133111 0.03435201
v 0.00166014 -0.00119429 0.03430611
v 0.00159933 -0.00144996 0.03428565
v 0.00180624 -0.00133111 0.03423035
v -0.00008903 -0.00273759 0.03432878
v -0.00047311 -0.00249758 0.03447036
v -0.00047311 -0.00211320 0.03459091
v -0.00085718 -0.00211320 0.03460640
v -0.00099204 -0.00211320 0.03460640
v -0.00099204 -0.00249758 0.03448861
v -0.00099204 -0.00259729 0.03444547
v -0.00047311 -0.00165751 0.03471092
v -0.00007713 -0.00172766 0.03464788
v 0.00029571 -0.00172940 0.03458539
v -0.00047311 -0.00184999 0.03466723
v -0.00085718 -0.00168650 0.03471701
v -0.00099204 -0.00134503 0.03477949
v 0.00067979 -0.00172940 0.03451460
v 0.00030166 -0.00135430 0.03465673
v 0.00216453 -0.00172940 0.03399033
v 0.00260084 -0.00172940 0.03375585
v 0.00283287 -0.00199435 0.03355511
v 0.00261869 -0.00211900 0.03363032
v 0.00183268 -0.00172940 0.03413910
v 0.00185582 -0.00213233 0.03401245
v 0.00199993 -0.00227321 0.03390406
v 0.00172030 -0.00249758 0.03394941
v 0.00144860 -0.00249758 0.03405283
v 0.00103213 -0.00246569 0.03420601
v 0.00067979 -0.00257642 0.03426131
v 0.00041933 -0.00265585 0.03428675
v 0.00016350 -0.00270687 0.03430887
v 0.00106386 -0.00172940 0.03441008
v 0.00132234 -0.00172940 0.03432215
v 0.00151471 -0.00172940 0.03425634
v -0.00008903 -0.00249758 0.03442058
v -0.00008903 -0.00211320 0.03454391
v -0.00085718 -0.00187840 0.03467442
v -0.00099204 -0.00187840 0.03467442
v 0.00029571 -0.00211320 0.03448086
v -0.00099204 -0.00168650 0.03471701
v 0.00067979 -0.00211320 0.03441008
v 0.00088207 -0.00231611 0.03430279
v 0.00103213 -0.00207552 0.03432823
v 0.00125690 -0.00192246 0.03430003
v 0.00141026 -0.00207552 0.03419938
v 0.00113856 -0.00217871 0.03426076
v 0.00067979 -0.00238394 0.03432436
v 0.00029307 -0.00251555 0.03435367
f 1 2 3
f 1 3 4
f 1 4 11
f 1 11 25
f 1 25 37
f 1 37 58
f 1 58 62
f 1 62 97
f 1 97 136
f 1 136 173
f 1 173 220
f 1 220 266
f 1 266 311
f 1 311 321
f 1 321 277
f 1 277 275
f 1 275 235
f 1 235 188
f 1 188 149
f 1 149 148
f 1 148 107
f 1 107 71
f 1 71 46
f 1 46 44
f 1 44 26
f 1 26 12
f 1 12 5
f 1 5 16
f 1 16 28
f 1 28 48
f 1 48 76
f 1 76 49
f 1 49 29
f 1 29 17
f 1 17 6
f 1 6 2
f 2 6 3
f 3 7 8
f 3 8 4
f 3 6 17
f 3 17 9
f 3 9 10
f 3 10 7
f 4 8 11
f 5 12 13
f 5 13 14
f 5 14 15
f 5 15 16
f 7 10 18
f 7 18 19
f 7 19 20
f 7 20 21
f 7 21 22
f 7 22 8
f 8 22 23
f 8 23 11
f 9 17 24
f 9 24 10
f 10 24 18
f 11 23 25
f 12 26 13
f 13 27 45
f 13 45 70
f 13 70 106
f 13 106 147
f 13 147 187
f 13 187 234
f 13 234 236
f 13 236 276
f 13 276 320
f 13 320 369
f 13 369 370
f 13 370 413
f 13 413 457
f 13 457 501
f 13 501 500
f 13 500 538
f 13 538 579
f 13 579 578
f 13 578 577
f 13 577 607
f 13 607 609
f 13 609 585
f 13 585 545
f 13 545 541
f 13 541 540
f 13 540 505
f 13 505 504
f 13 504 459
f 13 459 416
f 13 416 415
f 13 415 372
f 13 372 323
f 13 323 279
f 13 279 239
f 13 239 193
f 13 193 192
f 13 192 189
f 13 189 150
f 13 150 108
f 13 108 72
f 13 72 47
f 13 47 28
f 13 28 16
f 13 16 15
f 13 15 14
f 13 26 27
f 17 29 24
f 18 30 31
f 18 31 19
f 18 24 30
f 19 31 32
f 19 32 20
f 20 33 21
f 20 32 33
f 21 34 35
f 21 35 36
f 21 36 22
f 21 33 34
f 22 36 35
f 22 35 23
f 23 37 25
f 23 35 38
f 23 38 39
f 23 39 37
f 24 29 40
f 24 40 41
f 24 41 42
f 24 42 43
f 24 43 30
f 26 44 27
f 27 44 46
f 27 46 45
f 28 47 74
f 28 74 48
f 29 49 40
f 30 43 50
f 30 50 31
f 31 50 51
f 31 51 32
f 32 52 33
f 32 51 52
f 33 52 53
f 33 53 54
f 33 54 55
f 33 55 56
f 33 56 34
f 34 56 57
f 34 57 38
f 34 38 35
f 37 39 58
f 38 59 60
f 38 60 61
f 38 61 39
f 38 57 59
f 39 62 58
f 39 61 63
f 39 63 64
f 39 64 62
f 40 49 65
f 40 65 41
f 41 65 66
f 41 66 42
f 42 67 43
f 42 66 68
f 42 68 69
f 42 69 67
f 43 67 50
f 45 46 70
f 46 71 70
f 47 72 73
f 47 73 74
f 48 75 76
f 48 74 75
f 49 76 65
f 50 67 69
f 50 69 77
f 50 77 78
f 50 78 79
f 50 79 80
f 50 80 81
f 50 81 51
f 51 81 82
f 51 82 83
f 51 83 84
f 51 84 52
f 52 83 85
f 52 85 86
f 52 86 53
f 52 84 83
f 53 87 88
f 53 88 89
f 53 89 54
f 53 86 87
f 54 89 90
f 54 90 55
f 55 90 91
f 55 91 56
f 56 91 57
f 57 91 92
f 57 92 59
f 59 93 60
f 59 92 94
f 59 94 93
f 60 93 95
f 60 95 134
f 60 134 96
f 60 96 61
f 61 96 63
f 62 64 97
f 63 96 98
f 63 98 137
f 63 137 175
f 63 175 172
f 63 172 136
f 63 136 97
f 63 97 64
f 65 76 75
f 65 75 99
f 65 99 66
f 66 99 100
f 66 100 101
f 66 101 102
f 66 102 68
f 68 102 69
f 69 102 103
f 69 103 104
f 69 104 105
f 69 105 77
f 70 71 107
f 70 107 148
f 70 148 106
f 72 108 109
f 72 109 73
f 73 109 110
f 73 110 111
f 73 111 74
f 74 111 75
f 75 111 99
f 77 105 112
f 77 112 79
f 77 79 78
f 79 112 105
f 79 105 113
f 79 113 114
f 79 114 115
f 79 115 116
f 79 116 117
f 79 117 118
f 79 118 119
f 79 119 120
f 79 120 80
f 80 120 121
f 80 121 81
f 81 121 122
f 81 122 82
f 82 122 83
f 83 123 124
f 83 124 85
f 83 122 123
f 85 124 87
f 85 87 86
f 87 125 126
f 87 126 88
f 87 124 125
f 88 126 89
f 89 127 128
f 89 128 129
f 89 129 94
f 89 94 92
f 89 92 90
f 89 126 125
f 89 125 127
f 90 92 91
f 93 94 130
f 93 130 131
f 93 131 95
f 94 129 130
f 95 131 132
f 95 132 133
f 95 133 134
f 96 134 135
f 96 135 98
f 98 135 171
f 98 171 137
f 99 111 138
f 99 138 139
f 99 139 100
f 100 139 101
f 101 139 140
f 101 140 102
f 102 140 141
f 102 141 103
f 103 142 104
f 103 141 143
f 103 143 144
f 103 144 142
f 104 142 145
f 104 145 146
f 104 146 105
f 105 146 113
f 106 148 149
f 106 149 147
f 108 150 109
f 109 151 152
f 109 152 153
f 109 153 110
f 109 150 151
f 110 153 154
f 110 154 138
f 110 138 111
f 113 146 115
f 113 115 114
f 115 146 155
f 115 155 156
f 115 156 116
f 116 157 117
f 116 156 158
f 116 158 157
f 117 157 118
f 118 157 159
f 118 159 160
f 118 160 161
f 118 161 162
f 118 162 119
f 119 162 120
f 120 122 121
f 120 162 163
f 120 163 123
f 120 123 122
f 123 163 164
f 123 164 124
f 124 164 125
f 125 165 127
f 125 164 165
f 127 129 128
f 127 165 129
f 129 165 130
f 130 166 131
f 130 165 166
f 131 166 167
f 131 167 132
f 132 167 168
f 132 168 133
f 133 168 169
f 133 169 214
f 133 214 170
f 133 170 171
f 133 171 135
f 133 135 134
f 136 172 173
f 137 171 174
f 137 174 175
f 138 154 139
f 139 154 176
f 139 176 177
f 139 177 178
f 139 178 140
f 140 178 141
f 141 178 179
f 141 179 180
f 141 180 181
f 141 181 182
f 141 182 183
f 141 183 143
f 142 184 145
f 142 144 185
f 142 185 184
f 143 183 144
f 144 183 185
f 145 184 186
f 145 186 155
f 145 155 146
f 147 149 187
f 149 188 187
f 150 189 151
f 151 190 191
f 151 191 152
f 151 189 192
f 151 192 193
f 151 193 190
f 152 191 194
f 152 194 153
f 153 194 195
f 153 195 176
f 153 176 154
f 155 186 156
f 156 196 158
f 156 186 197
f 156 197 196
f 157 158 196
f 157 196 198
f 157 198 199
f 157 199 159
f 159 200 160
f 159 199 201
f 159 201 200
f 160 200 202
f 160 202 203
f 160 203 161
f 161 203 204
f 161 204 162
f 162 204 163
f 163 205 206
f 163 206 165
f 163 165 164
f 163 204 205
f 165 206 207
f 165 207 208
f 165 208 166
f 166 208 209
f 166 209 167
f 167 210 168
f 167 209 211
f 167 211 210
f 168 210 211
f 168 211 212
f 168 212 213
f 168 213 169
f 169 213 257
f 169 257 214
f 170 214 215
f 170 215 216
f 170 216 217
f 170 217 218
f 170 218 171
f 171 218 174
f 172 175 219
f 172 219 173
f 173 219 220
f 174 218 217
f 174 217 221
f 174 221 222
f 174 222 175
f 175 222 219
f 176 195 177
f 177 223 224
f 177 224 225
f 177 225 178
f 177 195 226
f 177 226 223
f 178 227 179
f 178 225 227
f 179 227 228
f 179 228 181
f 179 181 180
f 181 228 229
f 181 229 230
f 181 230 182
f 182 230 185
f 182 185 183
f 184 185 186
f 185 230 231
f 185 231 232
f 185 232 186
f 186 232 233
f 186 233 197
f 187 188 234
f 188 235 236
f 188 236 234
f 190 237 238
f 190 238 191
f 190 193 239
f 190 239 237
f 191 238 240
f 191 240 241
f 191 241 194
f 194 241 223
f 194 223 226
f 194 226 195
f 196 197 242
f 196 242 243
f 196 243 198
f 197 233 244
f 197 244 245
f 197 245 242
f 198 243 246
f 198 246 201
f 198 201 199
f 200 247 202
f 200 201 247
f 201 246 248
f 201 248 247
f 202 247 249
f 202 249 250
f 202 250 203
f 203 250 251
f 203 251 204
f 204 251 252
f 204 252 205
f 205 252 253
f 205 253 207
f 205 207 206
f 207 254 209
f 207 209 208
f 207 253 254
f 209 254 211
f 211 254 255
f 211 255 212
f 212 256 257
f 212 257 213
f 212 255 298
f 212 298 256
f 214 257 215
f 215 258 216
f 215 257 256
f 215 256 259
f 215 259 260
f 215 260 258
f 216 261 217
f 216 258 261
f 217 262 221
f 217 261 262
f 219 222 263
f 219 263 264
f 219 264 220
f 220 264 265
f 220 265 266
f 221 262 267
f 221 267 263
f 221 263 222
f 223 268 224
f 223 241 268
f 224 269 227
f 224 227 225
f 224 268 269
f 227 269 228
f 228 269 270
f 228 270 229
f 229 270 271
f 229 271 230
f 230 271 272
f 230 272 273
f 230 273 231
f 231 274 244
f 231 244 232
f 231 273 274
f 232 244 233
f 235 275 236
f 236 275 277
f 236 277 276
f 237 278 238
f 237 239 279
f 237 279 323
f 237 323 278
f 238 280 240
f 238 278 280
f 240 281 282
f 240 282 283
f 240 283 268
f 240 268 241
f 240 280 284
f 240 284 281
f 242 285 243
f 242 245 286
f 242 286 285
f 243 285 287
f 243 287 246
f 244 288 286
f 244 286 245
f 244 274 288
f 246 287 248
f 247 289 249
f 247 248 291
f 247 291 289
f 248 287 290
f 248 290 291
f 249 289 292
f 249 292 293
f 249 293 250
f 250 293 339
f 250 339 294
f 250 294 251
f 251 294 295
f 251 295 252
f 252 295 253
f 253 295 296
f 253 296 254
f 254 296 255
f 255 296 297
f 255 297 341
f 255 341 298
f 256 298 259
f 258 299 261
f 258 260 259
f 258 259 300
f 258 300 299
f 259 298 301
f 259 301 300
f 261 299 302
f 261 302 262
f 262 302 303
f 262 303 267
f 263 267 304
f 263 304 305
f 263 305 306
f 263 306 264
f 264 306 307
f 264 307 265
f 265 307 308
f 265 308 309
f 265 309 266
f 266 309 310
f 266 310 311
f 267 303 312
f 267 312 304
f 268 283 269
f 269 313 314
f 269 314 270
f 269 283 313
f 270 315 271
f 270 314 315
f 271 315 272
f 272 315 314
f 272 314 316
f 272 316 317
f 272 317 318
f 272 318 273
f 273 318 274
f 274 318 319
f 274 319 288
f 276 277 321
f 276 321 320
f 278 322 284
f 278 284 280
f 278 323 372
f 278 372 322
f 281 284 330
f 281 330 324
f 281 324 325
f 281 325 326
f 281 326 327
f 281 327 328
f 281 328 283
f 281 283 282
f 283 328 327
f 283 327 329
f 283 329 313
f 284 322 330
f 285 331 287
f 285 286 332
f 285 332 331
f 286 288 332
f 287 331 290
f 288 319 332
f 289 291 336
f 289 336 333
f 289 333 337
f 289 337 292
f 290 331 334
f 290 334 335
f 290 335 291
f 291 335 382
f 291 382 336
f 292 337 338
f 292 338 293
f 293 338 386
f 293 386 339
f 294 339 340
f 294 340 295
f 295 340 297
f 295 297 296
f 297 340 387
f 297 387 341
f 298 341 342
f 298 342 301
f 299 343 302
f 299 300 343
f 300 301 344
f 300 344 345
f 300 345 343
f 301 342 346
f 301 346 344
f 302 347 303
f 302 343 348
f 302 348 347
f 303 347 349
f 303 349 312
f 304 312 350
f 304 350 351
f 304 351 305
f 305 351 352
f 305 352 353
f 305 353 306
f 306 353 354
f 306 354 307
f 307 354 353
f 307 353 308
f 308 355 356
f 308 356 357
f 308 357 358
f 308 358 309
f 308 353 355
f 309 358 359
f 309 359 406
f 309 406 360
f 309 360 310
f 310 360 406
f 310 406 448
f 310 448 489
f 310 489 497
f 310 497 455
f 310 455 413
f 310 413 370
f 310 370 321
f 310 321 311
f 312 349 361
f 312 361 350
f 313 329 327
f 313 327 325
f 313 325 362
f 313 362 363
f 313 363 314
f 314 363 316
f 316 364 365
f 316 365 317
f 316 363 364
f 317 365 318
f 318 366 319
f 318 365 366
f 319 366 367
f 319 367 368
f 319 368 332
f 320 321 369
f 321 370 369
f 322 371 330
f 322 372 415
f 322 415 371
f 324 330 373
f 324 373 374
f 324 374 325
f 325 327 326
f 325 374 375
f 325 375 376
f 325 376 362
f 330 377 373
f 330 371 414
f 330 414 377
f 331 332 378
f 331 378 334
f 332 368 412
f 332 412 378
f 333 379 380
f 333 380 337
f 333 336 384
f 333 384 379
f 334 378 422
f 334 422 381
f 334 381 382
f 334 382 335
f 336 382 383
f 336 383 384
f 337 380 338
f 338 385 431
f 338 431 386
f 338 380 385
f 339 386 387
f 339 387 340
f 341 387 388
f 341 388 342
f 342 388 346
f 343 345 348
f 344 389 348
f 344 348 345
f 344 346 390
f 344 390 389
f 346 388 391
f 346 391 390
f 347 392 349
f 347 348 393
f 347 393 392
f 348 389 394
f 348 394 395
f 348 395 393
f 349 396 397
f 349 397 398
f 349 398 361
f 349 392 393
f 349 393 399
f 349 399 396
f 350 361 400
f 350 400 351
f 351 400 352
f 352 397 401
f 352 401 402
f 352 402 355
f 352 355 353
f 352 400 398
f 352 398 397
f 355 402 356
f 356 403 357
f 356 402 403
f 357 403 404
f 357 404 405
f 357 405 358
f 358 405 359
f 359 405 406
f 361 398 400
f 362 376 363
f 363 407 408
f 363 408 409
f 363 409 364
f 363 376 407
f 364 409 365
f 365 409 366
f 366 410 367
f 366 409 410
f 367 410 411
f 367 411 412
f 367 412 368
f 371 415 416
f 371 416 414
f 373 377 421
f 373 421 417
f 373 417 463
f 373 463 418
f 373 418 374
f 374 418 375
f 375 418 419
f 375 419 420
f 375 420 376
f 376 420 407
f 377 414 458
f 377 458 421
f 378 412 454
f 378 454 422
f 379 423 424
f 379 424 425
f 379 425 380
f 379 384 423
f 380 425 385
f 381 422 426
f 381 426 383
f 381 383 382
f 383 426 427
f 383 427 384
f 384 427 428
f 384 428 423
f 385 429 430
f 385 430 431
f 385 425 429
f 386 431 388
f 386 388 387
f 388 431 430
f 388 430 391
f 389 390 394
f 390 391 432
f 390 432 394
f 391 430 432
f 393 433 399
f 393 395 434
f 393 434 433
f 394 435 395
f 394 432 436
f 394 436 437
f 394 437 435
f 395 435 434
f 396 399 397
f 397 399 433
f 397 433 438
f 397 438 401
f 401 438 439
f 401 439 440
f 401 440 441
f 401 441 442
f 401 442 402
f 402 442 403
f 403 442 404
f 404 442 443
f 404 443 444
f 404 444 405
f 405 444 445
f 405 445 446
f 405 446 447
f 405 447 448
f 405 448 406
f 407 449 450
f 407 450 408
f 407 420 449
f 408 450 409
f 409 450 451
f 409 451 410
f 410 451 492
f 410 492 452
f 410 452 453
f 410 453 411
f 411 453 454
f 411 454 412
f 413 455 456
f 413 456 457
f 414 416 459
f 414 459 504
f 414 504 458
f 417 421 460
f 417 460 461
f 417 461 462
f 417 462 463
f 418 463 464
f 418 464 419
f 419 464 465
f 419 465 420
f 420 465 490
f 420 490 449
f 421 458 503
f 421 503 460
f 422 454 496
f 422 496 466
f 422 466 426
f 423 467 468
f 423 468 424
f 423 428 469
f 423 469 467
f 424 468 470
f 424 470 425
f 425 470 429
f 426 466 471
f 426 471 427
f 427 471 472
f 427 472 428
f 428 472 469
f 429 473 432
f 429 432 430
f 429 470 473
f 432 473 436
f 433 434 439
f 433 439 438
f 434 435 439
f 435 440 439
f 435 437 474
f 435 474 475
f 435 475 476
f 435 476 440
f 436 473 477
f 436 477 478
f 436 478 474
f 436 474 437
f 440 476 442
f 440 442 441
f 442 479 443
f 442 476 479
f 443 480 481
f 443 481 482
f 443 482 483
f 443 483 484
f 443 484 485
f 443 485 444
f 443 479 480
f 444 485 445
f 445 485 484
f 445 484 486
f 445 486 487
f 445 487 446
f 446 487 488
f 446 488 489
f 446 489 447
f 447 489 448
f 449 490 491
f 449 491 450
f 450 491 492
f 450 492 451
f 452 492 493
f 452 493 494
f 452 494 495
f 452 495 453
f 453 495 454
f 454 495 496
f 455 497 498
f 455 498 456
f 456 499 500
f 456 500 501
f 456 501 457
f 456 498 502
f 456 502 499
f 458 504 505
f 458 505 503
f 460 506 508
f 460 508 461
f 460 503 507
f 460 507 506
f 461 508 509
f 461 509 462
f 462 509 510
f 462 510 463
f 463 510 464
f 464 510 465
f 465 510 511
f 465 511 512
f 465 512 490
f 466 496 513
f 466 513 514
f 466 514 515
f 466 515 471
f 467 516 468
f 467 469 516
f 468 477 470
f 468 516 477
f 469 472 517
f 469 517 516
f 470 477 473
f 471 518 472
f 471 515 518
f 472 518 517
f 474 478 481
f 474 481 480
f 474 480 519
f 474 519 475
f 475 519 479
f 475 479 476
f 477 516 520
f 477 520 481
f 477 481 478
f 479 519 480
f 481 520 521
f 481 521 522
f 481 522 523
f 481 523 524
f 481 524 483
f 481 483 482
f 483 524 484
f 484 525 526
f 484 526 527
f 484 527 486
f 484 524 525
f 486 527 487
f 487 527 528
f 487 528 529
f 487 529 530
f 487 530 488
f 488 530 498
f 488 498 497
f 488 497 489
f 490 512 531
f 490 531 491
f 491 531 493
f 491 493 492
f 493 531 532
f 493 532 533
f 493 533 534
f 493 534 494
f 494 535 513
f 494 513 495
f 494 534 535
f 495 513 496
f 498 530 502
f 499 502 536
f 499 536 537
f 499 537 538
f 499 538 500
f 502 530 539
f 502 539 536
f 503 505 540
f 503 540 541
f 503 541 507
f 506 542 543
f 506 543 508
f 506 507 544
f 506 544 542
f 507 541 545
f 507 545 585
f 507 585 544
f 508 543 546
f 508 546 547
f 508 547 548
f 508 548 549
f 508 549 550
f 508 550 509
f 509 550 549
f 509 549 551
f 509 551 552
f 509 552 511
f 509 511 510
f 511 532 512
f 511 552 532
f 512 532 531
f 513 535 553
f 513 553 514
f 514 554 515
f 514 553 554
f 515 554 555
f 515 555 518
f 516 517 521
f 516 521 520
f 517 518 556
f 517 556 557
f 517 557 521
f 518 555 556
f 521 557 522
f 522 557 523
f 523 557 558
f 523 558 559
f 523 559 524
f 524 559 525
f 525 560 561
f 525 561 526
f 525 559 560
f 526 561 562
f 526 562 563
f 526 563 564
f 526 564 565
f 526 565 527
f 527 565 566
f 527 566 528
f 528 566 567
f 528 567 529
f 529 567 530
f 530 567 539
f 532 568 569
f 532 569 533
f 532 552 551
f 532 551 568
f 533 569 534
f 534 569 570
f 534 570 535
f 535 570 571
f 535 571 572
f 535 572 553
f 536 573 574
f 536 574 537
f 536 539 573
f 537 574 575
f 537 575 576
f 537 576 577
f 537 577 578
f 537 578 579
f 537 579 538
f 539 567 573
f 542 580 543
f 542 544 580
f 543 581 582
f 543 582 547
f 543 547 546
f 543 580 583
f 543 583 581
f 544 584 580
f 544 585 609
f 544 609 584
f 547 582 586
f 547 586 551
f 547 551 587
f 547 587 549
f 547 549 548
f 549 587 551
f 551 586 568
f 553 588 554
f 553 572 588
f 554 589 556
f 554 556 555
f 554 588 589
f 556 589 590
f 556 590 557
f 557 590 558
f 558 590 560
f 558 560 559
f 560 590 591
f 560 591 562
f 560 562 561
f 562 588 592
f 562 592 593
f 562 593 594
f 562 594 563
f 562 591 590
f 562 590 588
f 563 594 564
f 564 594 565
f 565 595 596
f 565 596 597
f 565 597 598
f 565 598 566
f 565 594 595
f 566 598 599
f 566 599 567
f 567 599 600
f 567 600 573
f 568 601 571
f 568 571 569
f 568 586 601
f 569 571 570
f 571 601 602
f 571 602 603
f 571 603 592
f 571 592 572
f 572 592 588
f 573 600 574
f 574 600 604
f 574 604 605
f 574 605 575
f 575 605 583
f 575 583 576
f 576 583 606
f 576 606 607
f 576 607 577
f 580 584 606
f 580 606 583
f 581 583 605
f 581 605 608
f 581 608 582
f 582 608 610
f 582 610 586
f 584 609 607
f 584 607 606
f 586 610 611
f 586 611 612
f 586 612 601
f 588 590 589
f 592 603 613
f 592 613 614
f 592 614 593
f 593 614 596
f 593 596 595
f 593 595 594
f 596 614 615
f 596 615 597
f 597 611 598
f 597 615 611
f 598 611 616
f 598 616 599
f 599 616 610
f 599 610 608
f 599 608 617
f 599 617 604
f 599 604 600
f 601 612 613
f 601 613 602
f 602 613 603
f 604 617 605
f 605 617 608
f 610 616 611
f 611 615 612
f 612 615 613
f 613 615 614

