# https://github.com/mikedh/trimesh
v -0.00099204 0.00296091 0.03372323
v -0.00099204 0.00291858 0.03410757
v -0.00099204 0.00296091 0.03141768
v -0.00239575 0.00296091 0.03372323
v -0.00124229 0.00291800 0.03410757
v -0.00099204 0.00278350 0.03436418
v -0.00099204 0.00295917 0.03103333
v -0.00201127 0.00296091 0.02924596
v -0.00354849 0.00296091 0.03333887
v -0.00277951 0.00295859 0.03372323
v -0.00162678 0.00290931 0.03410757
v -0.00124229 0.00278234 0.03436307
v -0.00099204 0.00249767 0.03448695
v -0.00099204 0.00288322 0.03063847
v -0.00131598 0.00281654 0.02924596
v -0.00141885 0.00286408 0.02924596
v -0.00162678 0.00295221 0.02924596
v -0.00176102 0.00295685 0.02924596
v -0.00700671 0.00296091 0.02924596
v -0.00431747 0.00296091 0.03295453
v -0.00393298 0.00295105 0.03333887
v -0.00316400 0.00293598 0.03372323
v -0.00201127 0.00288496 0.03410757
v -0.00162678 0.00277364 0.03435588
v -0.00124229 0.00249767 0.03448529
v -0.00099204 0.00236374 0.03452842
v -0.00099204 0.00277712 0.03035256
v -0.00119414 0.00249767 0.02924596
v -0.00739120 0.00295975 0.02924596
v -0.00700671 0.00296091 0.02988028
v -0.00546948 0.00296091 0.03218583
v -0.00508499 0.00295859 0.03257018
v -0.00354849 0.00287278 0.03372323
v -0.00470123 0.00294699 0.03295453
v -0.00431747 0.00288554 0.03333887
v -0.00277951 0.00282292 0.03406997
v -0.00316400 0.00280089 0.03401411
v -0.00201127 0.00274987 0.03433653
v -0.00162678 0.00249767 0.03447091
v -0.00162678 0.00211328 0.03459036
v -0.00124229 0.00211328 0.03460364
v -0.00099204 0.00211328 0.03460419
v -0.00099204 0.00249767 0.03023642
v -0.00119122 0.00211328 0.02924596
v -0.00739120 0.00295627 0.02949593
v -0.00700671 0.00296033 0.03026463
v -0.00778736 0.00282582 0.02924596
v -0.00623773 0.00296091 0.03141768
v -0.00585397 0.00296091 0.03180203
v -0.00585397 0.00290757 0.03218583
v -0.00389577 0.00279161 0.03372654
v -0.00546948 0.00289365 0.03257018
v -0.00510396 0.00283973 0.03297886
v -0.00498869 0.00276204 0.03320836
v -0.00466548 0.00278929 0.03333722
v -0.00229215 0.00271856 0.03431606
v -0.00354849 0.00273711 0.03394941
v -0.00254824 0.00266696 0.03429062
v -0.00201127 0.00249767 0.03442943
v -0.00201127 0.00211328 0.03454557
v -0.00162678 0.00184890 0.03466723
v -0.00124229 0.00187673 0.03467332
v -0.00099204 0.00203095 0.03462852
v -0.00099204 0.00227851 0.03023477
v -0.00099204 0.00211328 0.03023366
v -0.00119122 -0.00211327 0.02924596
v -0.00739120 0.00292032 0.02988028
v -0.00700671 0.00292264 0.03064898
v -0.00662222 0.00295047 0.03103333
v -0.00792160 0.00271044 0.02924596
v -0.00796027 0.00267044 0.02928357
v -0.00773556 0.00282118 0.02949593
v -0.00623773 0.00290293 0.03180203
v -0.00581749 0.00275799 0.03254087
v -0.00620854 0.00276378 0.03215375
v -0.00374329 0.00269189 0.03391623
v -0.00431747 0.00274987 0.03358497
v -0.00546948 0.00275799 0.03284282
v -0.00566501 0.00269421 0.03276484
v -0.00524477 0.00262754 0.03312320
v -0.00451300 0.00269305 0.03353299
v -0.00241035 0.00252260 0.03436031
v -0.00277951 0.00257884 0.03426242
v -0.00277951 0.00238693 0.03432547
v -0.00277951 0.00211328 0.03441008
v -0.00239575 0.00211328 0.03448418
v -0.00202294 0.00172773 0.03464788
v -0.00190183 0.00159844 0.03469765
v -0.00162678 0.00165642 0.03471092
v -0.00124229 0.00168425 0.03471701
v -0.00099204 0.00180948 0.03468880
v -0.00099204 0.00187673 0.03467332
v -0.00099204 -0.00211327 0.03023366
v -0.00119195 -0.00224777 0.02924596
v -0.00099204 -0.00233242 0.03023477
v -0.00099204 -0.00249766 0.03023642
v -0.00741308 0.00282350 0.03026573
v -0.00766625 0.00278523 0.02988028
v -0.00665359 0.00284379 0.03144533
v -0.00729635 0.00278697 0.03064898
v -0.00701181 0.00281422 0.03102172
v -0.00798216 0.00263333 0.02924596
v -0.00802958 0.00248259 0.02924596
v -0.00805584 0.00214806 0.02953022
v -0.00796538 0.00229938 0.02968119
v -0.00793473 0.00252434 0.02953022
v -0.00761153 0.00273248 0.03013854
v -0.00652445 0.00276726 0.03180203
v -0.00606044 0.00270928 0.03239321
v -0.00643982 0.00270291 0.03200443
v -0.00401032 0.00249767 0.03386259
v -0.00409787 0.00227156 0.03390296
v -0.00395487 0.00213125 0.03401135
v -0.00354849 0.00211328 0.03417007
v -0.00354849 0.00249767 0.03404564
v -0.00312752 0.00246172 0.03419993
v -0.00590577 0.00249767 0.03263543
v -0.00604658 0.00192253 0.03276263
v -0.00571316 0.00249767 0.03280410
v -0.00544978 0.00249883 0.03301259
v -0.00530897 0.00237128 0.03317076
v -0.00507113 0.00211560 0.03342183
v -0.00510396 0.00249883 0.03326256
v -0.00476981 0.00249767 0.03346552
v -0.00457866 0.00249767 0.03356838
v -0.00431747 0.00249767 0.03370774
v -0.00297504 0.00230924 0.03430058
v -0.00306916 0.00211328 0.03433265
v -0.00277951 0.00172947 0.03451405
v -0.00239575 0.00172947 0.03458539
v -0.00201127 0.00096069 0.03478281
v -0.00162678 0.00096069 0.03482650
v -0.00162678 0.00134508 0.03476733
v -0.00215864 0.00148886 0.03467663
v -0.00202294 0.00135435 0.03471977
v -0.00124229 0.00134508 0.03477949
v -0.00099204 0.00168425 0.03471701
v -0.00119414 -0.00249766 0.02924596
v -0.00099204 -0.00270811 0.03031164
v -0.00688706 0.00276610 0.03133583
v -0.00722777 0.00273016 0.03088567
v -0.00814048 0.00212487 0.02924596
v -0.00818352 0.00172947 0.02949593
v -0.00800696 0.00204313 0.02978239
v -0.00792306 0.00214806 0.02989853
v -0.00781508 0.00249767 0.02988028
v -0.00755608 0.00260724 0.03039514
v -0.00610786 0.00249767 0.03244298
v -0.00648360 0.00249767 0.03205033
v -0.00680242 0.00265826 0.03159188
v -0.00669591 0.00251738 0.03179318
v -0.00675354 0.00211328 0.03192148
v -0.00418761 0.00201530 0.03394886
v -0.00393298 0.00172947 0.03413854
v -0.00335442 0.00191905 0.03429892
v -0.00326177 0.00211328 0.03426795
v -0.00642450 0.00190282 0.03237164
v -0.00629755 0.00175672 0.03255358
v -0.00607649 0.00172947 0.03279028
v -0.00582114 0.00170802 0.03299877
v -0.00562561 0.00182165 0.03311933
v -0.00537026 0.00211328 0.03321832
v -0.00556287 0.00211328 0.03306955
v -0.00493397 0.00198921 0.03355511
v -0.00518713 0.00172947 0.03347271
v -0.00485371 0.00224547 0.03350976
v -0.00471655 0.00211560 0.03362976
v -0.00320194 0.00176599 0.03438740
v -0.00316400 0.00134508 0.03448529
v -0.00277951 0.00134508 0.03458926
v -0.00201127 0.00057630 0.03482650
v -0.00227756 0.00123260 0.03469654
v -0.00253365 0.00109520 0.03467497
v -0.00240159 0.00096417 0.03471701
v -0.00264673 0.00083894 0.03469488
v -0.00162678 0.00057630 0.03487019
v -0.00124229 0.00096069 0.03483812
v -0.00240159 0.00135435 0.03465673
v -0.00099204 0.00134508 0.03477949
v -0.00123061 -0.00260781 0.02924596
v -0.00099204 -0.00277711 0.03035256
v -0.00747656 0.00248665 0.03062907
v -0.00727811 0.00249767 0.03096199
v -0.00825137 0.00172077 0.02924596
v -0.00812807 0.00134508 0.02988028
v -0.00804271 0.00173121 0.02989853
v -0.00825940 0.00134508 0.02949593
v -0.00795297 0.00186050 0.03003844
v -0.00777496 0.00211328 0.03026463
v -0.00759767 0.00235156 0.03048750
v -0.00757943 0.00190862 0.03083424
v -0.00679951 0.00187325 0.03197678
v -0.00656093 0.00211328 0.03213329
v -0.00715189 0.00249767 0.03115389
v -0.00695199 0.00251738 0.03144533
v -0.00711177 0.00213937 0.03141547
v -0.00685058 0.00240200 0.03165880
v -0.00690384 0.00211328 0.03172958
v -0.00426494 0.00172947 0.03398978
v -0.00445682 0.00172947 0.03388692
v -0.00390599 0.00133116 0.03423035
v -0.00369952 0.00145002 0.03428565
v -0.00356235 0.00176599 0.03426408
v -0.00344343 0.00166279 0.03432934
v -0.00663170 0.00176020 0.03219578
v -0.00646390 0.00164656 0.03241422
v -0.00612756 0.00134508 0.03283618
v -0.00589264 0.00134508 0.03302808
v -0.00567157 0.00156539 0.03315417
v -0.00631944 0.00134508 0.03264594
v -0.00548626 0.00170802 0.03325813
v -0.00499525 0.00172947 0.03359161
v -0.00470123 0.00172947 0.03375530
v -0.00524477 0.00142625 0.03350976
v -0.00356235 0.00133116 0.03435201
v -0.00316400 0.00096069 0.03454778
v -0.00277660 0.00096417 0.03465009
v -0.00239575 0.00057630 0.03476291
v -0.00201127 0.00019191 0.03484088
v -0.00290719 0.00057630 0.03467166
v -0.00271458 0.00057630 0.03470760
v -0.00162678 0.00019191 0.03488402
v -0.00124229 0.00057630 0.03488125
v -0.00099204 0.00096069 0.03483812
v -0.00131598 -0.00281653 0.02924596
v -0.00099204 -0.00284378 0.03048141
v -0.00734377 0.00213937 0.03106485
v -0.00831922 0.00137639 0.02924596
v -0.00819082 0.00096069 0.02988028
v -0.00800769 0.00134508 0.03016232
v -0.00798362 0.00160424 0.03010868
v -0.00832506 0.00134508 0.02924596
v -0.00834841 0.00112882 0.02928965
v -0.00831703 0.00098446 0.02949538
v -0.00789096 0.00173121 0.03024804
v -0.00768668 0.00175962 0.03068327
v -0.00763633 0.00211328 0.03057100
v -0.00761226 0.00165236 0.03088844
v -0.00749626 0.00175962 0.03102337
v -0.00715773 0.00172947 0.03154764
v -0.00723871 0.00202863 0.03128606
v -0.00694980 0.00173874 0.03183023
v -0.00683817 0.00161757 0.03202047
v -0.00719129 0.00228489 0.03121417
v -0.00450497 0.00152365 0.03391291
v -0.00435322 0.00137523 0.03402020
v -0.00400740 0.00096069 0.03425634
v -0.00376007 0.00119434 0.03430611
v -0.00650038 0.00134508 0.03245404
v -0.00616842 0.00096069 0.03287323
v -0.00594079 0.00096069 0.03306513
v -0.00636030 0.00096069 0.03268908
v -0.00543373 0.00131667 0.03338865
v -0.00510396 0.00131667 0.03361428
v -0.00468518 0.00137523 0.03384157
v -0.00528125 0.00116999 0.03353409
v -0.00354849 0.00096069 0.03441616
v -0.00381479 0.00096069 0.03432491
v -0.00316400 0.00057630 0.03459313
v -0.00388191 0.00057630 0.03434814
v -0.00354849 0.00057630 0.03446206
v -0.00239575 0.00019191 0.03477673
v -0.00201127 -0.00019190 0.03484088
v -0.00294513 0.00019191 0.03467885
v -0.00275325 0.00019191 0.03471424
v -0.00162678 -0.00019190 0.03488402
v -0.00124229 0.00019191 0.03489508
v -0.00099204 0.00044179 0.03488623
v -0.00099204 0.00057630 0.03488125
v -0.00162678 -0.00295220 0.02924596
v -0.00099204 -0.00295568 0.03089950
v -0.00802593 0.00092822 0.03027679
v -0.00833381 0.00057630 0.02961870
v -0.00823678 0.00057630 0.02988028
v -0.00796902 0.00077864 0.03046095
v -0.00794787 0.00103490 0.03041284
v -0.00792160 0.00134508 0.03035477
v -0.00778882 0.00134508 0.03064898
v -0.00833673 0.00127145 0.02924596
v -0.00836592 0.00108650 0.02924596
v -0.00838999 0.00093286 0.02924596
v -0.00836810 0.00087256 0.02936708
v -0.00764290 0.00134508 0.03093876
v -0.00752033 0.00134508 0.03113066
v -0.00718910 0.00148248 0.03159465
v -0.00728468 0.00172947 0.03135574
v -0.00708331 0.00135088 0.03177604
v -0.00686955 0.00134508 0.03205531
v -0.00669299 0.00134508 0.03224666
v -0.00454656 0.00126739 0.03393503
v -0.00431747 0.00096069 0.03411089
v -0.00407452 0.00057630 0.03428122
v -0.00654050 0.00096069 0.03249718
v -0.00619906 0.00057630 0.03290033
v -0.00597581 0.00057630 0.03309278
v -0.00639094 0.00057630 0.03272115
v -0.00550012 0.00096069 0.03340579
v -0.00508499 0.00096069 0.03368838
v -0.00478732 0.00096069 0.03385816
v -0.00530751 0.00096069 0.03355345
v -0.00316400 0.00019191 0.03460806
v -0.00409568 0.00019191 0.03428897
v -0.00390380 0.00019191 0.03435533
v -0.00354849 0.00019191 0.03447699
v -0.00239575 -0.00019190 0.03477673
v -0.00239575 -0.00057629 0.03476291
v -0.00201127 -0.00057629 0.03482650
v -0.00162678 -0.00057629 0.03487019
v -0.00294513 -0.00019190 0.03467885
v -0.00275325 -0.00019190 0.03471424
v -0.00124229 -0.00019190 0.03489508
v -0.00099204 0.00019191 0.03489508
v -0.00099204 -0.00295916 0.03103333
v -0.00201127 -0.00296090 0.02924596
v -0.00843085 0.00057630 0.02924596
v -0.00844544 0.00019191 0.02924596
v -0.00834111 0.00019191 0.02964635
v -0.00825210 0.00019191 0.02988028
v -0.00807335 0.00057630 0.03026463
v -0.00797778 0.00057630 0.03047975
v -0.00789096 0.00057630 0.03067221
v -0.00787564 0.00092822 0.03061303
v -0.00841407 0.00073226 0.02924596
v -0.00767500 0.00096069 0.03099185
v -0.00755535 0.00096069 0.03118375
v -0.00740141 0.00096069 0.03141768
v -0.00721245 0.00122623 0.03163059
v -0.00710009 0.00096069 0.03185954
v -0.00690821 0.00096069 0.03209790
v -0.00673311 0.00096069 0.03228979
v -0.00459544 0.00096069 0.03396158
v -0.00464141 0.00057630 0.03398646
v -0.00431747 0.00057630 0.03416011
v -0.00657042 0.00057630 0.03252870
v -0.00620854 0.00019191 0.03290918
v -0.00598748 0.00019191 0.03310163
v -0.00640042 0.00019191 0.03273166
v -0.00553514 0.00057630 0.03343344
v -0.00508499 0.00057630 0.03373926
v -0.00483256 0.00057630 0.03388305
v -0.00534326 0.00057630 0.03357944
v -0.00316400 -0.00019190 0.03460806
v -0.00409568 -0.00019190 0.03428897
v -0.00431747 0.00019191 0.03417560
v -0.00390380 -0.00019190 0.03435533
v -0.00354849 -0.00019190 0.03447699
v -0.00271458 -0.00057629 0.03470760
v -0.00264673 -0.00083893 0.03469488
v -0.00201127 -0.00096068 0.03478281
v -0.00162678 -0.00096068 0.03482650
v -0.00124229 -0.00096068 0.03483812
v -0.00124229 -0.00057629 0.03488125
v -0.00290719 -0.00057629 0.03467166
v -0.00316400 -0.00057629 0.03459313
v -0.00099204 -0.00032583 0.03489065
v -0.00099204 -0.00019190 0.03489508
v -0.00099204 -0.00296090 0.03128329
v -0.00725622 -0.00296090 0.02924596
v -0.00844544 -0.00004116 0.02924596
v -0.00834111 -0.00019190 0.02964635
v -0.00825210 -0.00019190 0.02988028
v -0.00808867 0.00019191 0.03026463
v -0.00798507 0.00019191 0.03049745
v -0.00789898 0.00019191 0.03068935
v -0.00771367 0.00019191 0.03103333
v -0.00767865 0.00056934 0.03106596
v -0.00757651 0.00069283 0.03121527
v -0.00723652 0.00096069 0.03166709
v -0.00712928 0.00057630 0.03189881
v -0.00693667 0.00057630 0.03212942
v -0.00676230 0.00057630 0.03232187
v -0.00465600 0.00019191 0.03399421
v -0.00657990 0.00019191 0.03253921
v -0.00620854 -0.00019190 0.03290918
v -0.00598748 -0.00019190 0.03310163
v -0.00554682 0.00019191 0.03344229
v -0.00640042 -0.00019190 0.03273166
v -0.00508499 0.00019191 0.03375530
v -0.00484715 0.00019191 0.03389079
v -0.00535421 0.00019191 0.03358773
v -0.00407452 -0.00057629 0.03428122
v -0.00388191 -0.00057629 0.03434814
v -0.00431747 -0.00019190 0.03417560
v -0.00431747 -0.00057629 0.03416011
v -0.00354849 -0.00057629 0.03446206
v -0.00253365 -0.00109519 0.03467497
v -0.00240159 -0.00096416 0.03471701
v -0.00277660 -0.00096416 0.03465009
v -0.00277951 -0.00134507 0.03458926
v -0.00227756 -0.00123259 0.03469654
v -0.00215864 -0.00148885 0.03467663
v -0.00202294 -0.00135434 0.03471977
v -0.00190183 -0.00160075 0.03469765
v -0.00162678 -0.00134507 0.03476733
v -0.00124229 -0.00134507 0.03477949
v -0.00099204 -0.00096068 0.03483812
v -0.00099204 -0.00071022 0.03486632
v -0.00099204 -0.00057629 0.03488125
v -0.00316400 -0.00096068 0.03454778
v -0.00099204 -0.00296090 0.03372323
v -0.00700671 -0.00296090 0.02988028
v -0.00700671 -0.00296032 0.03026463
v -0.00739120 -0.00295974 0.02924596
v -0.00844471 -0.00019190 0.02924596
v -0.00843085 -0.00057629 0.02924596
v -0.00833381 -0.00057629 0.02961870
v -0.00823678 -0.00057629 0.02988028
v -0.00808867 -0.00019190 0.03026463
v -0.00798507 -0.00019190 0.03049745
v -0.00789898 -0.00019190 0.03068935
v -0.00771367 -0.00019190 0.03103333
v -0.00758964 0.00019191 0.03123573
v -0.00758745 0.00043657 0.03123242
v -0.00747656 0.00056934 0.03138339
v -0.00726279 0.00057630 0.03170636
v -0.00713803 0.00019191 0.03191153
v -0.00694615 0.00019191 0.03213992
v -0.00677178 0.00019191 0.03233238
v -0.00465600 -0.00019190 0.03399421
v -0.00657990 -0.00019190 0.03253921
v -0.00619906 -0.00057629 0.03290033
v -0.00597581 -0.00057629 0.03309278
v -0.00554682 -0.00019190 0.03344229
v -0.00639094 -0.00057629 0.03272115
v -0.00508499 -0.00019190 0.03375530
v -0.00484715 -0.00019190 0.03389079
v -0.00535421 -0.00019190 0.03358773
v -0.00400740 -0.00096068 0.03425634
v -0.00381479 -0.00096068 0.03432491
v -0.00431747 -0.00096068 0.03411089
v -0.00354849 -0.00096068 0.03441616
v -0.00464141 -0.00057629 0.03398646
v -0.00240159 -0.00135434 0.03465673
v -0.00277951 -0.00172888 0.03451515
v -0.00239575 -0.00172888 0.03458760
v -0.00316400 -0.00134507 0.03448584
v -0.00162678 -0.00185179 0.03466834
v -0.00162678 -0.00165989 0.03471092
v -0.00202294 -0.00172888 0.03464954
v -0.00124229 -0.00168655 0.03471701
v -0.00099204 -0.00134507 0.03477949
v -0.00356235 -0.00133115 0.03435201
v -0.00099204 -0.00293423 0.03397319
v -0.00239575 -0.00296090 0.03372323
v -0.00623773 -0.00296090 0.03141768
v -0.00662222 -0.00295046 0.03103333
v -0.00700671 -0.00292263 0.03064898
v -0.00739120 -0.00291973 0.02988028
v -0.00739120 -0.00295626 0.02949593
v -0.00768595 -0.00286581 0.02924596
v -0.00838999 -0.00093285 0.02924596
v -0.00836810 -0.00087255 0.02936708
v -0.00831703 -0.00098445 0.02949538
v -0.00819082 -0.00096068 0.02988028
v -0.00796902 -0.00077863 0.03046095
v -0.00807335 -0.00057629 0.03026463
v -0.00797778 -0.00057629 0.03047975
v -0.00789096 -0.00057629 0.03067221
v -0.00767865 -0.00056933 0.03106596
v -0.00758745 -0.00043656 0.03123242
v -0.00758964 -0.00019190 0.03123573
v -0.00746342 0.00019191 0.03142819
v -0.00727081 0.00019191 0.03171908
v -0.00713803 -0.00019190 0.03191153
v -0.00694615 -0.00019190 0.03213992
v -0.00677178 -0.00019190 0.03233238
v -0.00657042 -0.00057629 0.03252870
v -0.00616842 -0.00096068 0.03287323
v -0.00594079 -0.00096068 0.03306513
v -0.00553514 -0.00057629 0.03343344
v -0.00534326 -0.00057629 0.03357944
v -0.00636030 -0.00096068 0.03268908
v -0.00654050 -0.00096068 0.03249718
v -0.00508499 -0.00057629 0.03373926
v -0.00483256 -0.00057629 0.03388305
v -0.00390599 -0.00133115 0.03423035
v -0.00369952 -0.00145001 0.03428565
v -0.00435322 -0.00137522 0.03402020
v -0.00459544 -0.00096068 0.03396158
v -0.00454656 -0.00126738 0.03393503
v -0.00478732 -0.00096068 0.03385816
v -0.00320121 -0.00176540 0.03438740
v -0.00306843 -0.00211327 0.03433265
v -0.00277951 -0.00211327 0.03441063
v -0.00239575 -0.00211327 0.03448861
v -0.00344343 -0.00166162 0.03432934
v -0.00201127 -0.00211327 0.03455165
v -0.00162678 -0.00211327 0.03459368
v -0.00124229 -0.00187846 0.03467442
v -0.00099204 -0.00168655 0.03471701
v -0.00099204 -0.00291915 0.03410757
v -0.00124229 -0.00291799 0.03410757
v -0.00277951 -0.00295858 0.03372323
v -0.00354849 -0.00296090 0.03333887
v -0.00585397 -0.00296090 0.03180203
v -0.00585397 -0.00290872 0.03218583
v -0.00623773 -0.00290350 0.03180203
v -0.00665359 -0.00284378 0.03144533
v -0.00701181 -0.00281421 0.03102172
v -0.00729635 -0.00278696 0.03064898
v -0.00741308 -0.00282291 0.03026518
v -0.00766552 -0.00278407 0.02988028
v -0.00773702 -0.00282059 0.02949593
v -0.00778882 -0.00282581 0.02924596
v -0.00838197 -0.00098445 0.02924596
v -0.00834841 -0.00112881 0.02928965
v -0.00825940 -0.00134507 0.02949593
v -0.00812807 -0.00134507 0.02988028
v -0.00800769 -0.00134507 0.03016232
v -0.00802593 -0.00092821 0.03027679
v -0.00794787 -0.00103489 0.03041284
v -0.00787564 -0.00092821 0.03061303
v -0.00767500 -0.00096068 0.03099185
v -0.00757651 -0.00069282 0.03121583
v -0.00747656 -0.00056933 0.03138339
v -0.00726279 -0.00057629 0.03170636
v -0.00727081 -0.00019190 0.03171908
v -0.00746342 -0.00019190 0.03142819
v -0.00712928 -0.00057629 0.03189881
v -0.00693667 -0.00057629 0.03212942
v -0.00676230 -0.00057629 0.03232187
v -0.00673311 -0.00096068 0.03228979
v -0.00612756 -0.00134507 0.03283618
v -0.00589264 -0.00134507 0.03302808
v -0.00543373 -0.00131666 0.03338865
v -0.00550012 -0.00096068 0.03340579
v -0.00530751 -0.00096068 0.03355345
v -0.00631944 -0.00134507 0.03264594
v -0.00650038 -0.00134507 0.03245404
v -0.00508499 -0.00096068 0.03368838
v -0.00393298 -0.00172888 0.03413799
v -0.00426421 -0.00172888 0.03398978
v -0.00356235 -0.00176540 0.03426408
v -0.00450497 -0.00152364 0.03391291
v -0.00468518 -0.00137522 0.03384157
v -0.00510396 -0.00131666 0.03361428
v -0.00335369 -0.00191788 0.03429892
v -0.00297504 -0.00230865 0.03430058
v -0.00374256 -0.00269188 0.03391623
v -0.00277951 -0.00238634 0.03432547
v -0.00255043 -0.00266695 0.03429062
v -0.00241181 -0.00252201 0.03436307
v -0.00201127 -0.00249766 0.03443552
v -0.00162678 -0.00249766 0.03447423
v -0.00124229 -0.00249766 0.03448750
v -0.00124229 -0.00211327 0.03460585
v -0.00099204 -0.00211327 0.03460640
v -0.00099204 -0.00187846 0.03467442
v -0.00099204 -0.00283103 0.03427514
v -0.00124229 -0.00278233 0.03436362
v -0.00162678 -0.00291046 0.03410757
v -0.00316400 -0.00293597 0.03372323
v -0.00393298 -0.00295104 0.03333887
v -0.00431747 -0.00296090 0.03295453
v -0.00546948 -0.00296090 0.03218583
v -0.00508499 -0.00295858 0.03257018
v -0.00470123 -0.00294698 0.03295453
v -0.00546948 -0.00289190 0.03257018
v -0.00581603 -0.00275740 0.03254142
v -0.00620927 -0.00276493 0.03215430
v -0.00652518 -0.00276841 0.03180203
v -0.00688706 -0.00276609 0.03133583
v -0.00722777 -0.00273015 0.03088567
v -0.00761080 -0.00273189 0.03013743
v -0.00796173 -0.00267565 0.02928799
v -0.00796829 -0.00268608 0.02924596
v -0.00833017 -0.00131550 0.02924596
v -0.00832506 -0.00134507 0.02924596
v -0.00828128 -0.00157640 0.02924596
v -0.00818425 -0.00172888 0.02949593
v -0.00804271 -0.00173004 0.02989742
v -0.00798362 -0.00160249 0.03010868
v -0.00792160 -0.00134507 0.03035477
v -0.00778882 -0.00134507 0.03064898
v -0.00764290 -0.00134507 0.03093876
v -0.00755535 -0.00096068 0.03118375
v -0.00740141 -0.00096068 0.03141768
v -0.00723652 -0.00096068 0.03166709
v -0.00710082 -0.00096068 0.03185954
v -0.00690821 -0.00096068 0.03209790
v -0.00669299 -0.00134507 0.03224666
v -0.00686955 -0.00134507 0.03205531
v -0.00607649 -0.00172888 0.03278972
v -0.00567157 -0.00156422 0.03315417
v -0.00524477 -0.00142624 0.03350976
v -0.00528125 -0.00116998 0.03353409
v -0.00646390 -0.00165003 0.03241422
v -0.00683817 -0.00161930 0.03202047
v -0.00418688 -0.00201413 0.03394830
v -0.00395487 -0.00213066 0.03401080
v -0.00354849 -0.00211327 0.03416896
v -0.00445609 -0.00172888 0.03388692
v -0.00499525 -0.00172888 0.03359105
v -0.00470123 -0.00172888 0.03375530
v -0.00312752 -0.00246113 0.03419882
v -0.00277951 -0.00257883 0.03426187
v -0.00409714 -0.00227039 0.03390296
v -0.00400959 -0.00249766 0.03386203
v -0.00451227 -0.00269304 0.03353243
v -0.00431747 -0.00274986 0.03358442
v -0.00389577 -0.00279160 0.03372654
v -0.00354849 -0.00273710 0.03394886
v -0.00229434 -0.00272029 0.03431717
v -0.00316400 -0.00280030 0.03401356
v -0.00201127 -0.00275160 0.03433874
v -0.00162678 -0.00277479 0.03435699
v -0.00099204 -0.00278349 0.03436473
v -0.00099204 -0.00259738 0.03444547
v -0.00099204 -0.00249766 0.03448861
v -0.00201127 -0.00288726 0.03410757
v -0.00354849 -0.00287219 0.03372323
v -0.00277951 -0.00282291 0.03406997
v -0.00431747 -0.00288553 0.03333887
v -0.00510396 -0.00283914 0.03297886
v -0.00546948 -0.00275624 0.03284171
v -0.00606190 -0.00271043 0.03239431
v -0.00644055 -0.00270406 0.03200554
v -0.00680242 -0.00265825 0.03159188
v -0.00727811 -0.00249766 0.03096199
v -0.00747656 -0.00248490 0.03062796
v -0.00755535 -0.00260492 0.03039348
v -0.00781216 -0.00249766 0.02988028
v -0.00793546 -0.00252781 0.02953022
v -0.00796538 -0.00229937 0.02968119
v -0.00800404 -0.00241939 0.02942514
v -0.00798726 -0.00263390 0.02924596
v -0.00825283 -0.00172134 0.02924596
v -0.00818571 -0.00197876 0.02924596
v -0.00805876 -0.00214805 0.02953022
v -0.00800696 -0.00204312 0.02978129
v -0.00795151 -0.00185875 0.03003734
v -0.00788950 -0.00173004 0.03024804
v -0.00768595 -0.00175961 0.03068327
v -0.00761226 -0.00165235 0.03088844
v -0.00752033 -0.00134507 0.03113066
v -0.00721245 -0.00122621 0.03163059
v -0.00718910 -0.00148247 0.03159465
v -0.00708331 -0.00135087 0.03177604
v -0.00604585 -0.00192136 0.03276263
v -0.00582114 -0.00170743 0.03299766
v -0.00629828 -0.00175845 0.03255358
v -0.00548553 -0.00170743 0.03325758
v -0.00518713 -0.00172888 0.03347215
v -0.00642523 -0.00190571 0.03237275
v -0.00663243 -0.00176250 0.03219633
v -0.00694980 -0.00173989 0.03183079
v -0.00680024 -0.00187556 0.03197789
v -0.00493324 -0.00198804 0.03355455
v -0.00471582 -0.00211501 0.03362866
v -0.00485225 -0.00224430 0.03350976
v -0.00476908 -0.00249766 0.03346496
v -0.00431747 -0.00249766 0.03370663
v -0.00524477 -0.00262637 0.03312320
v -0.00498869 -0.00276145 0.03320836
v -0.00466475 -0.00278870 0.03333722
v -0.00566282 -0.00269130 0.03276318
v -0.00590212 -0.00249766 0.03263654
v -0.00611078 -0.00249766 0.03244409
v -0.00630266 -0.00249766 0.03224500
v -0.00648506 -0.00249766 0.03205310
v -0.00675500 -0.00211327 0.03192259
v -0.00669736 -0.00251737 0.03179318
v -0.00685058 -0.00240199 0.03165880
v -0.00711177 -0.00213936 0.03141547
v -0.00695199 -0.00251737 0.03144533
v -0.00715189 -0.00249766 0.03115389
v -0.00734377 -0.00213936 0.03106485
v -0.00757943 -0.00190803 0.03083424
v -0.00759694 -0.00234866 0.03048584
v -0.00777131 -0.00211327 0.03026463
v -0.00803396 -0.00248780 0.02924596
v -0.00814485 -0.00212428 0.02924596
v -0.00763488 -0.00211327 0.03056934
v -0.00749626 -0.00175961 0.03102337
v -0.00715773 -0.00172888 0.03154764
v -0.00728468 -0.00172888 0.03135574
v -0.00562415 -0.00182048 0.03311767
v -0.00638364 -0.00211327 0.03232851
v -0.00616258 -0.00207500 0.03257515
v -0.00530678 -0.00237011 0.03317020
v -0.00536807 -0.00211327 0.03321721
v -0.00507113 -0.00211501 0.03342072
v -0.00656312 -0.00211327 0.03213661
v -0.00690384 -0.00211327 0.03173069
v -0.00510396 -0.00249824 0.03326145
v -0.00723871 -0.00202862 0.03128606
v -0.00719129 -0.00228488 0.03121417
f 1 2 6
f 1 6 13
f 1 13 26
f 1 26 42
f 1 42 63
f 1 63 92
f 1 92 91
f 1 91 137
f 1 137 179
f 1 179 224
f 1 224 269
f 1 269 268
f 1 268 312
f 1 312 356
f 1 356 355
f 1 355 398
f 1 398 397
f 1 397 396
f 1 396 441
f 1 441 490
f 1 490 548
f 1 548 547
f 1 547 609
f 1 609 608
f 1 608 607
f 1 607 549
f 1 549 491
f 1 491 443
f 1 443 400
f 1 400 357
f 1 357 313
f 1 313 271
f 1 271 226
f 1 226 181
f 1 181 139
f 1 139 96
f 1 96 95
f 1 95 93
f 1 93 65
f 1 65 64
f 1 64 43
f 1 43 27
f 1 27 14
f 1 14 7
f 1 7 3
f 1 3 8
f 1 8 19
f 1 19 30
f 1 30 48
f 1 48 49
f 1 49 31
f 1 31 20
f 1 20 9
f 1 9 4
f 1 4 2
f 2 5 6
f 2 4 5
f 3 7 8
f 4 9 10
f 4 10 5
f 5 11 12
f 5 12 6
f 5 10 11
f 6 12 13
f 7 14 15
f 7 15 16
f 7 16 17
f 7 17 18
f 7 18 8
f 8 18 17
f 8 17 16
f 8 16 15
f 8 15 28
f 8 28 44
f 8 44 66
f 8 66 94
f 8 94 138
f 8 138 180
f 8 180 225
f 8 225 270
f 8 270 314
f 8 314 358
f 8 358 403
f 8 403 450
f 8 450 504
f 8 504 566
f 8 566 626
f 8 626 671
f 8 671 672
f 8 672 628
f 8 628 627
f 8 627 569
f 8 569 568
f 8 568 567
f 8 567 505
f 8 505 451
f 8 451 405
f 8 405 404
f 8 404 359
f 8 359 316
f 8 316 315
f 8 315 323
f 8 323 281
f 8 281 280
f 8 280 279
f 8 279 232
f 8 232 228
f 8 228 184
f 8 184 142
f 8 142 103
f 8 103 102
f 8 102 70
f 8 70 47
f 8 47 29
f 8 29 19
f 9 20 21
f 9 21 10
f 10 21 22
f 10 22 11
f 11 23 24
f 11 24 12
f 11 22 23
f 12 24 25
f 12 25 13
f 13 25 26
f 14 27 15
f 15 27 28
f 19 29 30
f 20 31 32
f 20 32 21
f 21 33 22
f 21 32 34
f 21 34 35
f 21 35 33
f 22 36 23
f 22 33 37
f 22 37 36
f 23 38 24
f 23 36 38
f 24 38 39
f 24 39 25
f 25 39 40
f 25 40 41
f 25 41 26
f 26 41 42
f 27 43 28
f 28 43 44
f 29 45 46
f 29 46 30
f 29 47 45
f 30 46 48
f 31 49 50
f 31 50 32
f 32 50 34
f 33 35 51
f 33 51 37
f 34 50 52
f 34 52 53
f 34 53 35
f 35 53 54
f 35 54 55
f 35 55 51
f 36 37 56
f 36 56 38
f 37 51 57
f 37 57 58
f 37 58 56
f 38 56 59
f 38 59 39
f 39 59 40
f 40 59 60
f 40 60 61
f 40 61 62
f 40 62 41
f 41 62 63
f 41 63 42
f 43 64 44
f 44 64 65
f 44 65 93
f 44 93 66
f 45 67 46
f 45 47 67
f 46 67 68
f 46 68 69
f 46 69 48
f 47 70 71
f 47 71 72
f 47 72 67
f 48 73 50
f 48 50 49
f 48 69 73
f 50 74 52
f 50 73 75
f 50 75 74
f 51 76 57
f 51 55 77
f 51 77 76
f 52 74 78
f 52 78 53
f 53 78 54
f 54 78 79
f 54 79 80
f 54 80 81
f 54 81 77
f 54 77 55
f 56 58 82
f 56 82 59
f 57 76 58
f 58 83 84
f 58 84 85
f 58 85 82
f 58 76 83
f 59 82 60
f 60 82 86
f 60 86 87
f 60 87 61
f 61 87 88
f 61 88 89
f 61 89 90
f 61 90 62
f 62 90 91
f 62 91 92
f 62 92 63
f 66 93 95
f 66 95 96
f 66 96 94
f 67 97 68
f 67 72 98
f 67 98 97
f 68 99 73
f 68 73 69
f 68 97 100
f 68 100 101
f 68 101 99
f 70 102 71
f 71 102 103
f 71 103 104
f 71 104 105
f 71 105 106
f 71 106 107
f 71 107 98
f 71 98 72
f 73 99 108
f 73 108 75
f 74 79 78
f 74 75 109
f 74 109 79
f 75 108 110
f 75 110 109
f 76 77 81
f 76 81 111
f 76 111 112
f 76 112 113
f 76 113 114
f 76 114 115
f 76 115 116
f 76 116 83
f 79 109 117
f 79 117 118
f 79 118 119
f 79 119 120
f 79 120 80
f 80 121 122
f 80 122 123
f 80 123 124
f 80 124 81
f 80 120 121
f 81 125 126
f 81 126 111
f 81 124 125
f 82 85 86
f 83 116 127
f 83 127 84
f 84 127 85
f 85 127 128
f 85 128 129
f 85 129 86
f 86 130 87
f 86 129 130
f 87 130 88
f 88 131 132
f 88 132 133
f 88 133 89
f 88 130 134
f 88 134 135
f 88 135 131
f 89 133 136
f 89 136 90
f 90 136 179
f 90 179 137
f 90 137 91
f 94 96 138
f 96 139 138
f 97 98 100
f 98 107 100
f 99 101 140
f 99 140 108
f 100 141 140
f 100 140 101
f 100 107 141
f 103 142 104
f 104 142 143
f 104 143 144
f 104 144 105
f 105 145 146
f 105 146 106
f 105 144 145
f 106 146 107
f 107 146 147
f 107 147 141
f 108 140 110
f 109 110 148
f 109 148 118
f 109 118 117
f 110 149 148
f 110 140 150
f 110 150 151
f 110 151 152
f 110 152 149
f 111 126 112
f 112 153 113
f 112 126 153
f 113 153 154
f 113 154 114
f 114 155 156
f 114 156 115
f 114 154 155
f 115 156 116
f 116 128 127
f 116 156 128
f 118 148 149
f 118 149 157
f 118 157 158
f 118 158 159
f 118 159 160
f 118 160 161
f 118 161 162
f 118 162 163
f 118 163 120
f 118 120 119
f 120 163 121
f 121 162 122
f 121 163 162
f 122 164 123
f 122 162 165
f 122 165 164
f 123 164 166
f 123 166 124
f 124 166 167
f 124 167 125
f 125 167 153
f 125 153 126
f 128 156 155
f 128 155 168
f 128 168 129
f 129 168 169
f 129 169 170
f 129 170 134
f 129 134 130
f 131 171 176
f 131 176 132
f 131 135 134
f 131 134 172
f 131 172 173
f 131 173 174
f 131 174 175
f 131 175 171
f 132 176 177
f 132 177 136
f 132 136 133
f 134 170 178
f 134 178 173
f 134 173 172
f 136 177 224
f 136 224 179
f 138 139 181
f 138 181 180
f 140 141 150
f 141 147 182
f 141 182 183
f 141 183 150
f 142 184 143
f 143 185 186
f 143 186 144
f 143 184 187
f 143 187 185
f 144 186 188
f 144 188 189
f 144 189 145
f 145 189 147
f 145 147 146
f 147 189 190
f 147 190 191
f 147 191 182
f 149 152 192
f 149 192 193
f 149 193 157
f 150 183 194
f 150 194 195
f 150 195 196
f 150 196 197
f 150 197 152
f 150 152 151
f 152 197 198
f 152 198 192
f 153 199 154
f 153 167 164
f 153 164 200
f 153 200 199
f 154 199 201
f 154 201 202
f 154 202 203
f 154 203 155
f 155 204 168
f 155 203 204
f 157 193 192
f 157 192 205
f 157 205 206
f 157 206 158
f 158 206 159
f 159 207 208
f 159 208 209
f 159 209 160
f 159 206 210
f 159 210 207
f 160 209 161
f 161 209 211
f 161 211 162
f 162 211 165
f 164 212 213
f 164 213 200
f 164 167 166
f 164 165 212
f 165 214 212
f 165 211 214
f 168 204 169
f 169 204 202
f 169 202 215
f 169 215 216
f 169 216 170
f 170 217 175
f 170 175 173
f 170 173 178
f 170 216 217
f 171 175 218
f 171 218 219
f 171 219 176
f 173 175 174
f 175 217 220
f 175 220 221
f 175 221 218
f 176 219 222
f 176 222 267
f 176 267 223
f 176 223 177
f 177 223 269
f 177 269 224
f 180 181 225
f 181 226 225
f 182 191 183
f 183 227 194
f 183 191 227
f 184 228 187
f 185 187 229
f 185 229 230
f 185 230 231
f 185 231 186
f 186 231 188
f 187 228 232
f 187 232 233
f 187 233 234
f 187 234 229
f 188 231 235
f 188 235 236
f 188 236 191
f 188 191 189
f 189 191 237
f 189 237 190
f 190 237 191
f 191 236 238
f 191 238 239
f 191 239 240
f 191 240 241
f 191 241 227
f 192 198 242
f 192 242 243
f 192 243 205
f 194 227 244
f 194 244 195
f 195 244 241
f 195 241 196
f 196 241 198
f 196 198 197
f 198 241 240
f 198 240 242
f 199 200 245
f 199 245 246
f 199 246 201
f 200 213 245
f 201 246 247
f 201 247 202
f 202 247 248
f 202 248 215
f 202 204 203
f 205 243 206
f 206 243 249
f 206 249 210
f 207 250 251
f 207 251 208
f 207 210 252
f 207 252 250
f 208 251 253
f 208 253 209
f 209 253 214
f 209 214 211
f 210 249 252
f 212 214 254
f 212 254 255
f 212 255 245
f 212 245 213
f 214 253 256
f 214 256 254
f 215 257 216
f 215 248 258
f 215 258 257
f 216 259 220
f 216 220 217
f 216 257 260
f 216 260 261
f 216 261 259
f 218 221 262
f 218 262 219
f 219 262 305
f 219 305 263
f 219 263 266
f 219 266 222
f 220 264 221
f 220 259 264
f 221 264 265
f 221 265 262
f 222 266 311
f 222 311 267
f 223 267 268
f 223 268 269
f 225 226 271
f 225 271 270
f 227 241 244
f 229 272 230
f 229 234 273
f 229 273 274
f 229 274 275
f 229 275 272
f 230 272 275
f 230 275 276
f 230 276 277
f 230 277 231
f 231 277 278
f 231 278 236
f 231 236 235
f 232 279 233
f 233 279 280
f 233 280 281
f 233 281 282
f 233 282 234
f 234 282 273
f 236 278 238
f 238 278 283
f 238 283 284
f 238 284 285
f 238 285 286
f 238 286 239
f 239 286 240
f 240 286 285
f 240 285 242
f 242 285 243
f 243 285 287
f 243 287 288
f 243 288 289
f 243 289 249
f 245 290 246
f 245 255 290
f 246 290 291
f 246 291 247
f 247 292 258
f 247 258 248
f 247 291 292
f 249 289 330
f 249 330 293
f 249 293 252
f 250 294 295
f 250 295 251
f 250 252 296
f 250 296 294
f 251 295 338
f 251 338 297
f 251 297 253
f 252 293 296
f 253 297 256
f 254 256 298
f 254 298 299
f 254 299 255
f 255 299 290
f 256 300 298
f 256 297 300
f 257 258 260
f 258 292 260
f 259 301 264
f 259 261 304
f 259 304 301
f 260 292 302
f 260 302 303
f 260 303 304
f 260 304 261
f 262 265 310
f 262 310 305
f 263 305 306
f 263 306 307
f 263 307 308
f 263 308 266
f 264 309 310
f 264 310 265
f 264 301 342
f 264 342 309
f 266 308 352
f 266 352 311
f 267 311 356
f 267 356 312
f 267 312 268
f 270 271 313
f 270 313 314
f 273 282 315
f 273 315 316
f 273 316 317
f 273 317 274
f 274 318 362
f 274 362 319
f 274 319 275
f 274 317 318
f 275 320 321
f 275 321 322
f 275 322 276
f 275 319 320
f 276 322 277
f 277 322 278
f 278 322 283
f 281 323 282
f 282 323 315
f 283 322 324
f 283 324 325
f 283 325 284
f 284 325 326
f 284 326 327
f 284 327 285
f 285 327 328
f 285 328 287
f 287 328 288
f 288 329 330
f 288 330 289
f 288 328 329
f 290 299 331
f 290 331 291
f 291 331 332
f 291 332 333
f 291 333 292
f 292 333 302
f 293 330 334
f 293 334 296
f 294 335 336
f 294 336 295
f 294 296 337
f 294 337 335
f 295 336 376
f 295 376 338
f 296 334 373
f 296 373 337
f 297 338 300
f 298 339 299
f 298 300 339
f 299 339 340
f 299 340 332
f 299 332 331
f 300 341 339
f 300 338 341
f 301 304 346
f 301 346 342
f 302 343 345
f 302 345 303
f 302 333 344
f 302 344 383
f 302 383 343
f 303 345 346
f 303 346 304
f 305 310 347
f 305 347 306
f 306 347 348
f 306 348 307
f 307 348 349
f 307 349 350
f 307 350 308
f 308 350 351
f 308 351 352
f 309 353 347
f 309 347 310
f 309 342 354
f 309 354 353
f 311 352 355
f 311 355 356
f 313 357 314
f 314 357 400
f 314 400 444
f 314 444 494
f 314 494 554
f 314 554 555
f 314 555 495
f 314 495 445
f 314 445 401
f 314 401 358
f 316 359 360
f 316 360 317
f 317 360 361
f 317 361 318
f 318 361 408
f 318 408 362
f 319 362 320
f 320 363 364
f 320 364 321
f 320 362 363
f 321 364 365
f 321 365 366
f 321 366 324
f 321 324 322
f 324 366 367
f 324 367 325
f 325 367 326
f 326 367 368
f 326 368 327
f 327 368 328
f 328 368 369
f 328 369 329
f 329 370 371
f 329 371 330
f 329 369 370
f 330 371 334
f 332 372 333
f 332 340 379
f 332 379 372
f 333 372 344
f 334 371 418
f 334 418 373
f 335 374 375
f 335 375 336
f 335 337 377
f 335 377 374
f 336 375 423
f 336 423 376
f 337 373 420
f 337 420 377
f 338 376 341
f 339 341 378
f 339 378 379
f 339 379 340
f 341 380 378
f 341 376 380
f 342 346 385
f 342 385 354
f 343 381 382
f 343 382 345
f 343 383 384
f 343 384 381
f 344 372 419
f 344 419 383
f 345 382 346
f 346 382 385
f 347 353 348
f 348 386 387
f 348 387 349
f 348 353 388
f 348 388 389
f 348 389 386
f 349 387 386
f 349 386 390
f 349 390 391
f 349 391 392
f 349 392 393
f 349 393 350
f 350 393 394
f 350 394 395
f 350 395 351
f 351 395 441
f 351 441 396
f 351 396 397
f 351 397 352
f 352 397 398
f 352 398 355
f 353 354 399
f 353 399 388
f 354 385 399
f 358 401 402
f 358 402 403
f 359 404 360
f 360 404 405
f 360 405 406
f 360 406 407
f 360 407 361
f 361 407 456
f 361 456 408
f 362 408 409
f 362 409 363
f 363 409 410
f 363 410 364
f 364 410 411
f 364 411 365
f 365 411 461
f 365 461 412
f 365 412 413
f 365 413 366
f 366 413 367
f 367 414 415
f 367 415 368
f 367 413 414
f 368 415 369
f 369 416 370
f 369 415 416
f 370 417 418
f 370 418 371
f 370 416 417
f 372 379 426
f 372 426 419
f 373 418 466
f 373 466 420
f 374 421 375
f 374 377 421
f 375 422 470
f 375 470 423
f 375 421 422
f 376 423 427
f 376 427 380
f 377 424 421
f 377 420 467
f 377 467 424
f 378 380 427
f 378 427 425
f 378 425 426
f 378 426 379
f 381 428 429
f 381 429 382
f 381 384 430
f 381 430 428
f 382 429 431
f 382 431 399
f 382 399 385
f 383 419 384
f 384 419 432
f 384 432 430
f 386 389 433
f 386 433 391
f 386 391 390
f 388 399 389
f 389 434 435
f 389 435 391
f 389 391 433
f 389 399 436
f 389 436 434
f 391 435 393
f 391 393 392
f 393 437 438
f 393 438 394
f 393 435 439
f 393 439 437
f 394 438 395
f 395 438 440
f 395 440 490
f 395 490 441
f 399 431 442
f 399 442 436
f 400 443 444
f 401 445 402
f 402 446 447
f 402 447 448
f 402 448 449
f 402 449 403
f 402 445 446
f 403 449 450
f 405 451 452
f 405 452 406
f 406 452 453
f 406 453 454
f 406 454 407
f 407 454 455
f 407 455 456
f 408 456 457
f 408 457 409
f 409 457 410
f 410 458 411
f 410 457 458
f 411 459 460
f 411 460 461
f 411 458 459
f 412 461 518
f 412 518 462
f 412 462 413
f 413 462 463
f 413 463 415
f 413 415 414
f 415 463 416
f 416 463 517
f 416 517 464
f 416 464 465
f 416 465 417
f 417 465 466
f 417 466 418
f 419 426 475
f 419 475 432
f 420 466 521
f 420 521 467
f 421 468 422
f 421 424 468
f 422 468 469
f 422 469 526
f 422 526 470
f 423 470 471
f 423 471 427
f 424 472 468
f 424 467 473
f 424 473 472
f 425 427 471
f 425 471 474
f 425 474 426
f 426 474 475
f 428 476 477
f 428 477 429
f 428 430 478
f 428 478 476
f 429 477 442
f 429 442 431
f 430 432 479
f 430 479 480
f 430 480 478
f 432 475 481
f 432 481 479
f 434 436 482
f 434 482 483
f 434 483 484
f 434 484 485
f 434 485 435
f 435 485 439
f 436 442 477
f 436 477 486
f 436 486 482
f 437 439 487
f 437 487 488
f 437 488 489
f 437 489 440
f 437 440 438
f 439 485 487
f 440 489 548
f 440 548 490
f 443 491 444
f 444 491 492
f 444 492 493
f 444 493 494
f 445 495 496
f 445 496 497
f 445 497 446
f 446 497 447
f 447 497 498
f 447 498 499
f 447 499 500
f 447 500 501
f 447 501 448
f 448 501 502
f 448 502 503
f 448 503 504
f 448 504 450
f 448 450 449
f 451 505 506
f 451 506 452
f 452 506 453
f 453 507 454
f 453 506 507
f 454 507 508
f 454 508 509
f 454 509 510
f 454 510 455
f 455 511 512
f 455 512 458
f 455 458 457
f 455 457 456
f 455 510 509
f 455 509 511
f 458 512 513
f 458 513 459
f 459 513 514
f 459 514 460
f 460 514 515
f 460 515 516
f 460 516 517
f 460 517 518
f 460 518 461
f 462 518 517
f 462 517 463
f 464 517 516
f 464 516 519
f 464 519 520
f 464 520 465
f 465 520 521
f 465 521 466
f 467 521 522
f 467 522 473
f 468 523 469
f 468 472 523
f 469 524 525
f 469 525 526
f 469 523 524
f 470 526 527
f 470 527 471
f 471 527 474
f 472 528 523
f 472 473 529
f 472 529 528
f 473 522 581
f 473 581 529
f 474 527 530
f 474 530 481
f 474 481 475
f 476 531 477
f 476 478 532
f 476 532 531
f 477 531 533
f 477 533 486
f 478 480 534
f 478 534 532
f 479 481 480
f 480 481 535
f 480 535 534
f 481 530 536
f 481 536 535
f 482 486 533
f 482 533 537
f 482 537 483
f 483 538 484
f 483 537 539
f 483 539 538
f 484 538 540
f 484 540 541
f 484 541 542
f 484 542 485
f 485 542 487
f 487 542 543
f 487 543 488
f 488 544 545
f 488 545 546
f 488 546 489
f 488 543 544
f 489 546 547
f 489 547 548
f 491 549 492
f 492 549 550
f 492 550 551
f 492 551 493
f 493 552 553
f 493 553 494
f 493 551 552
f 494 553 554
f 495 555 496
f 496 555 556
f 496 556 557
f 496 557 558
f 496 558 559
f 496 559 560
f 496 560 497
f 497 560 561
f 497 561 498
f 498 561 562
f 498 562 499
f 499 562 500
f 500 562 563
f 500 563 564
f 500 564 502
f 500 502 501
f 502 564 565
f 502 565 566
f 502 566 503
f 503 566 504
f 505 567 506
f 506 567 507
f 507 567 568
f 507 568 569
f 507 569 570
f 507 570 508
f 508 570 571
f 508 571 572
f 508 572 509
f 509 572 573
f 509 573 511
f 511 573 512
f 512 573 574
f 512 574 575
f 512 575 513
f 513 575 576
f 513 576 514
f 514 576 577
f 514 577 578
f 514 578 516
f 514 516 515
f 516 578 519
f 519 579 580
f 519 580 520
f 519 578 579
f 520 580 521
f 521 580 522
f 522 580 582
f 522 582 581
f 523 583 524
f 523 528 583
f 524 583 584
f 524 584 525
f 525 585 586
f 525 586 526
f 525 584 585
f 526 586 527
f 527 586 530
f 528 529 587
f 528 587 583
f 529 581 588
f 529 588 587
f 530 586 536
f 531 532 589
f 531 589 590
f 531 590 591
f 531 591 537
f 531 537 533
f 532 534 592
f 532 592 589
f 534 535 593
f 534 593 594
f 534 594 592
f 535 536 593
f 536 586 585
f 536 585 593
f 537 591 539
f 538 539 595
f 538 595 596
f 538 596 540
f 539 591 590
f 539 590 597
f 539 597 598
f 539 598 599
f 539 599 600
f 539 600 601
f 539 601 602
f 539 602 541
f 539 541 596
f 539 596 595
f 540 596 541
f 541 603 542
f 541 602 604
f 541 604 603
f 542 603 543
f 543 605 544
f 543 603 605
f 544 606 545
f 544 605 606
f 545 606 550
f 545 550 607
f 545 607 608
f 545 608 609
f 545 609 546
f 546 609 547
f 549 607 550
f 550 606 551
f 551 606 610
f 551 610 552
f 552 604 611
f 552 611 553
f 552 610 612
f 552 612 604
f 553 611 613
f 553 613 557
f 553 557 556
f 553 556 554
f 554 556 555
f 557 613 614
f 557 614 558
f 558 615 559
f 558 614 615
f 559 615 616
f 559 616 560
f 560 616 617
f 560 617 561
f 561 617 562
f 562 617 618
f 562 618 563
f 563 619 620
f 563 620 621
f 563 621 564
f 563 618 619
f 564 622 623
f 564 623 565
f 564 621 622
f 565 623 624
f 565 624 625
f 565 625 626
f 565 626 566
f 569 627 570
f 570 627 628
f 570 628 629
f 570 629 630
f 570 630 571
f 571 630 631
f 571 631 572
f 572 631 632
f 572 632 633
f 572 633 574
f 572 574 573
f 574 633 634
f 574 634 575
f 575 634 635
f 575 635 576
f 576 635 577
f 577 635 636
f 577 636 578
f 578 636 579
f 579 636 637
f 579 637 638
f 579 638 582
f 579 582 580
f 581 582 588
f 582 638 588
f 583 639 640
f 583 640 584
f 583 587 641
f 583 641 639
f 584 640 642
f 584 642 585
f 585 642 643
f 585 643 593
f 587 644 641
f 587 588 645
f 587 645 644
f 588 638 637
f 588 637 646
f 588 646 647
f 588 647 645
f 589 597 590
f 589 592 594
f 589 594 648
f 589 648 649
f 589 649 650
f 589 650 651
f 589 651 652
f 589 652 597
f 593 643 648
f 593 648 594
f 597 652 598
f 598 652 599
f 599 652 651
f 599 651 653
f 599 653 654
f 599 654 600
f 600 654 655
f 600 655 601
f 601 611 604
f 601 604 602
f 601 655 613
f 601 613 611
f 603 604 612
f 603 612 605
f 605 610 606
f 605 612 610
f 613 655 654
f 613 654 614
f 614 654 615
f 615 656 616
f 615 654 656
f 616 657 639
f 616 639 658
f 616 658 617
f 616 656 657
f 617 658 659
f 617 659 660
f 617 660 661
f 617 661 662
f 617 662 618
f 618 662 661
f 618 661 663
f 618 663 664
f 618 664 665
f 618 665 666
f 618 666 619
f 619 666 667
f 619 667 668
f 619 668 620
f 620 668 621
f 621 668 669
f 621 669 670
f 621 670 630
f 621 630 624
f 621 624 622
f 622 624 623
f 624 630 629
f 624 629 625
f 625 629 671
f 625 671 626
f 628 672 629
f 629 672 671
f 630 670 631
f 631 670 673
f 631 673 668
f 631 668 633
f 631 633 632
f 633 668 634
f 634 668 674
f 634 674 637
f 634 637 635
f 635 637 636
f 637 675 646
f 637 674 676
f 637 676 675
f 639 677 642
f 639 642 640
f 639 641 644
f 639 644 678
f 639 678 679
f 639 679 658
f 639 657 656
f 639 656 653
f 639 653 680
f 639 680 681
f 639 681 677
f 642 677 681
f 642 681 643
f 643 681 682
f 643 682 648
f 644 645 647
f 644 647 683
f 644 683 678
f 646 684 647
f 646 675 684
f 647 684 661
f 647 661 660
f 647 660 683
f 648 682 685
f 648 685 650
f 648 650 649
f 650 685 651
f 651 685 653
f 653 685 682
f 653 682 680
f 653 656 654
f 658 679 659
f 659 678 660
f 659 679 678
f 660 678 683
f 661 684 663
f 663 684 664
f 664 686 665
f 664 684 686
f 665 686 687
f 665 687 666
f 666 687 667
f 667 687 686
f 667 686 668
f 668 673 669
f 668 686 675
f 668 675 674
f 669 673 670
f 674 675 676
f 675 686 684
f 680 682 681

