# https://github.com/mikedh/trimesh
v -0.00008960 -0.00320183 -0.00389055
v -0.00019111 -0.00320183 -0.00388432
v -0.00047451 -0.00302052 -0.00380242
v -0.00008960 -0.00300983 -0.00382200
v 0.00029426 -0.00301196 -0.00381844
v 0.00029426 -0.00320183 -0.00388432
v -0.00058343 -0.00320183 -0.00384426
v -0.00108889 -0.00305807 -0.00376147
v -0.00085836 -0.00303893 -0.00378016
v -0.00047451 -0.00295258 -0.00355582
v -0.00085836 -0.00297099 -0.00355582
v -0.00008960 -0.00294189 -0.00355582
v 0.00029426 -0.00294406 -0.00355582
v 0.00067917 -0.00296424 -0.00355582
v 0.00067917 -0.00303214 -0.00378906
v 0.00095305 -0.00305614 -0.00376414
v 0.00067917 -0.00320183 -0.00382823
v -0.00093027 -0.00320183 -0.00380420
v -0.00122741 -0.00301027 -0.00356294
v -0.00111003 -0.00320183 -0.00377037
v -0.00189995 -0.00320183 -0.00340359
v -0.00187245 -0.00304850 -0.00339024
v -0.00162607 -0.00302104 -0.00344009
v -0.00162607 -0.00295310 -0.00317124
v -0.00124222 -0.00293863 -0.00317124
v -0.00008960 -0.00279117 -0.00179315
v -0.00003249 -0.00279117 -0.00178959
v -0.00085096 -0.00279117 -0.00161243
v -0.00047451 -0.00279117 -0.00171570
v 0.00029426 -0.00279117 -0.00176110
v 0.00032175 -0.00279117 -0.00175754
v 0.00066225 -0.00279117 -0.00168187
v 0.00067917 -0.00279117 -0.00167742
v 0.00098794 -0.00279117 -0.00159462
v 0.00144793 -0.00293984 -0.00317124
v 0.00144793 -0.00300778 -0.00348727
v 0.00174508 -0.00303081 -0.00342050
v 0.00113070 -0.00320183 -0.00374099
v 0.00099746 -0.00320183 -0.00377304
v -0.00215797 -0.00320183 -0.00323533
v -0.00234936 -0.00320183 -0.00309557
v -0.00230389 -0.00302925 -0.00305551
v -0.00200464 -0.00300452 -0.00317925
v -0.00241704 -0.00299302 -0.00280891
v -0.00200992 -0.00293863 -0.00278665
v -0.00086259 -0.00279117 -0.00160531
v 0.00101438 -0.00279117 -0.00158483
v 0.00221670 -0.00294687 -0.00278665
v 0.00221670 -0.00301481 -0.00308845
v 0.00179055 -0.00320183 -0.00344810
v 0.00245568 -0.00304022 -0.00301812
v -0.00259363 -0.00320183 -0.00288191
v -0.00268669 -0.00302925 -0.00269585
v -0.00279984 -0.00299302 -0.00242433
v -0.00277869 -0.00293863 -0.00201838
v -0.00239483 -0.00293863 -0.00240296
v -0.00127288 -0.00279117 -0.00125901
v -0.00125173 -0.00279117 -0.00127948
v 0.00139929 -0.00279117 -0.00120114
v 0.00260055 -0.00295073 -0.00240296
v 0.00259104 -0.00300927 -0.00277419
v 0.00247789 -0.00320183 -0.00303592
v 0.00282896 -0.00304537 -0.00263709
v 0.00261536 -0.00320183 -0.00290328
v -0.00273216 -0.00320183 -0.00274214
v -0.00297220 -0.00320183 -0.00249555
v -0.00305362 -0.00302925 -0.00231038
v -0.00317417 -0.00299889 -0.00202283
v -0.00316360 -0.00294603 -0.00163380
v -0.00160598 -0.00279117 -0.00085929
v 0.00168903 -0.00279117 -0.00068658
v 0.00298441 -0.00293863 -0.00163380
v 0.00298441 -0.00295982 -0.00201838
v 0.00296749 -0.00301960 -0.00237803
v 0.00284588 -0.00320183 -0.00265668
v 0.00319590 -0.00305747 -0.00223293
v -0.00309381 -0.00320183 -0.00235578
v -0.00339624 -0.00303909 -0.00189820
v -0.00345651 -0.00301397 -0.00163380
v -0.00654426 -0.00288637 0.00520413
v -0.00623760 -0.00282993 0.00520413
v -0.00161127 -0.00279117 -0.00084326
v -0.00618156 -0.00282876 0.00520413
v 0.00179266 -0.00279117 -0.00046758
v 0.00336932 -0.00293863 -0.00086552
v 0.00336932 -0.00295789 -0.00125010
v 0.00337778 -0.00300838 -0.00162400
v 0.00325088 -0.00302776 -0.00201838
v 0.00320647 -0.00320183 -0.00224450
v 0.00357975 -0.00305485 -0.00148869
v 0.00329953 -0.00320183 -0.00208515
v -0.00332750 -0.00320183 -0.00206823
v -0.00341527 -0.00320183 -0.00193113
v -0.00379490 -0.00320183 -0.00117977
v -0.00377798 -0.00303958 -0.00114238
v -0.00661511 -0.00290370 0.00520413
v -0.00171067 -0.00279117 -0.00048094
v -0.00117348 -0.00279117 0.00141349
v -0.00119992 -0.00279117 0.00139569
v -0.00155734 -0.00279117 0.00103514
v -0.00158060 -0.00279117 0.00101110
v -0.00167577 -0.00279117 0.00067103
v -0.00176037 -0.00279117 0.00032384
v -0.00176671 -0.00279117 0.00028734
v -0.00179209 -0.00279117 -0.00002870
v -0.00179526 -0.00279117 -0.00009635
v 0.00336932 -0.00282876 0.00520413
v -0.00008960 -0.00279117 0.00185772
v -0.00044596 -0.00279117 0.00179451
v -0.00045759 -0.00279117 0.00179184
v -0.00069446 -0.00279117 0.00169125
v 0.00179583 -0.00279117 -0.00045690
v 0.00375529 -0.00286410 0.00520413
v 0.00366858 -0.00300657 -0.00086552
v 0.00361993 -0.00302579 -0.00125010
v 0.00358927 -0.00320183 -0.00151272
v 0.00375634 -0.00320183 -0.00096879
v 0.00366012 -0.00320183 -0.00132310
v -0.00453088 -0.00305184 0.00043156
v -0.00415443 -0.00304521 -0.00035541
v -0.00528801 -0.00320183 0.00199304
v -0.00528273 -0.00306792 0.00200372
v -0.00490627 -0.00305940 0.00121675
v -0.00646707 -0.00304002 0.00462280
v -0.00675575 -0.00320183 0.00520413
v 0.00186245 -0.00279117 -0.00009635
v 0.00181804 -0.00279117 0.00031405
v 0.00170172 -0.00279117 0.00067103
v 0.00144899 -0.00279117 0.00106185
v 0.00107254 -0.00279117 0.00143931
v 0.00067917 -0.00279117 0.00170193
v 0.00032598 -0.00279117 0.00181677
v -0.00007056 -0.00279117 0.00185683
v 0.00398581 -0.00297220 0.00520413
v 0.00369078 -0.00300657 -0.00048094
v 0.00381133 -0.00320183 -0.00057708
v 0.00377221 -0.00320183 -0.00086552
v -0.00569407 -0.00320183 0.00286814
v -0.00565601 -0.00313586 0.00279069
v -0.00648505 -0.00320183 0.00458630
v 0.00404714 -0.00320183 0.00520413
v 0.00404609 -0.00319741 0.00520413
v 0.00385151 -0.00320183 0.00019208
v 0.00383354 -0.00320183 -0.00019250
f 1 2 3
f 1 3 4
f 1 4 5
f 1 5 6
f 1 6 17
f 1 17 39
f 1 39 38
f 1 38 50
f 1 50 62
f 1 62 64
f 1 64 75
f 1 75 89
f 1 89 91
f 1 91 116
f 1 116 118
f 1 118 117
f 1 117 137
f 1 137 136
f 1 136 144
f 1 144 143
f 1 143 141
f 1 141 125
f 1 125 140
f 1 140 138
f 1 138 121
f 1 121 94
f 1 94 93
f 1 93 92
f 1 92 77
f 1 77 66
f 1 66 65
f 1 65 52
f 1 52 41
f 1 41 40
f 1 40 21
f 1 21 20
f 1 20 18
f 1 18 7
f 1 7 2
f 2 7 8
f 2 8 9
f 2 9 3
f 3 10 4
f 3 9 11
f 3 11 10
f 4 12 13
f 4 13 5
f 4 10 12
f 5 13 14
f 5 14 15
f 5 15 6
f 6 15 16
f 6 16 17
f 7 18 8
f 8 19 9
f 8 18 20
f 8 20 21
f 8 21 22
f 8 22 23
f 8 23 19
f 9 19 11
f 10 11 24
f 10 24 25
f 10 25 12
f 11 19 24
f 12 26 27
f 12 27 13
f 12 25 28
f 12 28 29
f 12 29 26
f 13 27 30
f 13 30 31
f 13 31 32
f 13 32 33
f 13 33 34
f 13 34 35
f 13 35 14
f 14 35 36
f 14 36 15
f 15 36 16
f 16 36 37
f 16 37 38
f 16 38 39
f 16 39 17
f 19 23 24
f 21 40 22
f 22 40 41
f 22 41 42
f 22 42 43
f 22 43 23
f 23 43 24
f 24 43 44
f 24 44 45
f 24 45 28
f 24 28 25
f 26 29 28
f 26 28 46
f 26 46 58
f 26 58 57
f 26 57 70
f 26 70 82
f 26 82 97
f 26 97 106
f 26 106 105
f 26 105 104
f 26 104 103
f 26 103 102
f 26 102 101
f 26 101 100
f 26 100 99
f 26 99 98
f 26 98 111
f 26 111 110
f 26 110 109
f 26 109 108
f 26 108 133
f 26 133 132
f 26 132 131
f 26 131 130
f 26 130 129
f 26 129 128
f 26 128 127
f 26 127 126
f 26 126 112
f 26 112 84
f 26 84 71
f 26 71 59
f 26 59 47
f 26 47 34
f 26 34 33
f 26 33 32
f 26 32 31
f 26 31 30
f 26 30 27
f 28 45 46
f 34 47 35
f 35 47 48
f 35 48 36
f 36 48 49
f 36 49 37
f 37 50 38
f 37 49 51
f 37 51 50
f 41 52 42
f 42 52 53
f 42 53 44
f 42 44 43
f 44 53 54
f 44 54 55
f 44 55 56
f 44 56 45
f 45 56 57
f 45 57 58
f 45 58 46
f 47 59 48
f 48 60 61
f 48 61 51
f 48 51 49
f 48 59 60
f 50 51 62
f 51 61 63
f 51 63 64
f 51 64 62
f 52 65 53
f 53 65 66
f 53 66 67
f 53 67 54
f 54 67 68
f 54 68 69
f 54 69 55
f 55 70 57
f 55 57 56
f 55 69 70
f 59 71 72
f 59 72 60
f 60 72 73
f 60 73 61
f 61 73 74
f 61 74 63
f 63 75 64
f 63 74 76
f 63 76 75
f 66 77 67
f 67 77 78
f 67 78 68
f 68 78 79
f 68 79 69
f 69 79 80
f 69 80 81
f 69 81 70
f 70 81 83
f 70 83 82
f 71 84 85
f 71 85 72
f 72 85 86
f 72 86 73
f 73 86 87
f 73 87 88
f 73 88 74
f 74 88 76
f 75 76 89
f 76 88 90
f 76 90 91
f 76 91 89
f 77 92 78
f 78 92 93
f 78 93 94
f 78 94 95
f 78 95 96
f 78 96 79
f 79 96 80
f 80 96 125
f 80 125 141
f 80 141 142
f 80 142 134
f 80 134 113
f 80 113 107
f 80 107 83
f 80 83 81
f 82 83 97
f 83 98 99
f 83 99 100
f 83 100 101
f 83 101 102
f 83 102 103
f 83 103 104
f 83 104 105
f 83 105 106
f 83 106 97
f 83 107 108
f 83 108 109
f 83 109 110
f 83 110 111
f 83 111 98
f 84 112 85
f 85 107 113
f 85 113 114
f 85 114 86
f 85 112 107
f 86 114 115
f 86 115 87
f 87 115 88
f 88 115 90
f 90 116 91
f 90 115 117
f 90 117 118
f 90 118 116
f 94 119 120
f 94 120 95
f 94 121 122
f 94 122 119
f 95 120 96
f 96 123 122
f 96 122 124
f 96 124 125
f 96 120 119
f 96 119 123
f 107 112 126
f 107 126 127
f 107 127 128
f 107 128 129
f 107 129 130
f 107 130 131
f 107 131 132
f 107 132 133
f 107 133 108
f 113 134 114
f 114 134 135
f 114 135 144
f 114 144 136
f 114 136 137
f 114 137 115
f 115 137 117
f 119 122 123
f 121 138 139
f 121 139 122
f 122 139 124
f 124 139 140
f 124 140 125
f 134 142 143
f 134 143 144
f 134 144 135
f 138 140 139
f 141 143 142

