# https://github.com/mikedh/trimesh
v 0.00603344 0.00301638 0.00836156
v 0.00602512 0.00301638 0.00821070
v 0.00585036 0.00341765 0.00797638
v 0.00593774 0.00323354 0.00836156
v 0.00593774 0.00323263 0.01028428
v 0.00593774 0.00323217 0.01066946
v 0.00593635 0.00323125 0.01220378
v 0.00593497 0.00323079 0.01335291
v 0.00584758 0.00341398 0.01949982
v 0.00600293 0.00301638 0.02334525
v 0.00191539 0.00301592 -0.00009645
v 0.00190984 0.00301592 -0.00032435
v 0.00189320 0.00301592 -0.00046558
v 0.00598629 0.00301638 0.00797638
v 0.00394876 0.00577065 0.00000948
v 0.00592387 0.00322528 0.00797638
v 0.00555492 0.00396676 0.00759119
v 0.00573385 0.00365180 0.00797638
v 0.00585036 0.00342546 0.00836156
v 0.00585036 0.00342546 0.00874675
v 0.00585036 0.00342500 0.00989909
v 0.00584897 0.00342316 0.01335291
v 0.00573107 0.00365180 0.01988500
v 0.00572553 0.00365180 0.02334525
v 0.00584204 0.00340388 0.02334525
v 0.00591832 0.00320187 0.02372722
v 0.00599045 0.00301638 0.02372722
v 0.00191400 0.00301592 0.00028874
v 0.00181275 0.00301592 -0.00071595
v 0.00596409 0.00301638 0.00786403
v 0.00385444 0.00557231 -0.00086361
v 0.00357149 0.00615907 -0.00147990
v 0.00357704 0.00616366 -0.00124879
v 0.00476432 0.00505809 0.00682404
v 0.00511108 0.00463019 0.00720922
v 0.00510692 0.00462422 0.00699095
v 0.00543841 0.00415913 0.00759119
v 0.00555492 0.00396722 0.00797638
v 0.00555631 0.00396722 0.00989909
v 0.00555631 0.00396768 0.01066946
v 0.00555631 0.00396814 0.01450847
v 0.00573385 0.00365180 0.01066946
v 0.00573246 0.00365180 0.01796229
v 0.00555631 0.00396722 0.02372722
v 0.00571859 0.00365180 0.02372722
v 0.00583510 0.00339378 0.02372722
v 0.00589613 0.00315320 0.02395191
v 0.00592110 0.00301638 0.02397759
v 0.00181969 0.00301592 0.00067392
v 0.00175588 0.00301592 -0.00080262
v 0.00298478 0.00314080 -0.00163077
v 0.00590584 0.00301638 0.00772601
v 0.00336898 0.00314539 -0.00086361
v 0.00336898 0.00318580 -0.00124879
v 0.00369771 0.00330563 -0.00086361
v 0.00363668 0.00334603 -0.00124879
v 0.00383780 0.00365135 -0.00086361
v 0.00384750 0.00442037 -0.00086361
v 0.00385167 0.00480466 -0.00086361
v 0.00385444 0.00518894 -0.00086361
v 0.00374070 0.00557231 -0.00124879
v 0.00359645 0.00595660 -0.00153447
v 0.00310822 0.00649010 -0.00163077
v 0.00352849 0.00595660 -0.00172706
v 0.00321086 0.00621829 -0.00225669
v 0.00284330 0.00657962 -0.00265472
v 0.00289185 0.00660488 -0.00240114
v 0.00336898 0.00631241 -0.00124879
v 0.00357981 0.00616320 -0.00086361
v 0.00400146 0.00581656 0.00567169
v 0.00419565 0.00563980 0.00644206
v 0.00439815 0.00544743 0.00644206
v 0.00458817 0.00525001 0.00682404
v 0.00458956 0.00525001 0.00836156
v 0.00476432 0.00505809 0.00836156
v 0.00495712 0.00482302 0.00720922
v 0.00525810 0.00442037 0.00759119
v 0.00510969 0.00462698 0.02296006
v 0.00525671 0.00442037 0.02218969
v 0.00543980 0.00416051 0.01873266
v 0.00543980 0.00416051 0.01680995
v 0.00555631 0.00396814 0.02065216
v 0.00555631 0.00396768 0.02334525
v 0.00543841 0.00416005 0.02372722
v 0.00525117 0.00442037 0.02410920
v 0.00553273 0.00392636 0.02402574
v 0.00517211 0.00442037 0.02439487
v 0.00480177 0.00480512 0.02476722
v 0.00530526 0.00301638 0.02472549
v 0.00166018 0.00301592 0.00105590
v 0.00149928 0.00301592 -0.00113324
v 0.00259919 0.00313897 -0.00201595
v 0.00221637 0.00316054 -0.00278632
v 0.00259919 0.00316697 -0.00240114
v 0.00298478 0.00318534 -0.00201595
v 0.00142577 0.00301592 -0.00122632
v 0.00339118 0.00330104 -0.00163077
v 0.00327189 0.00334557 -0.00201595
v 0.00358536 0.00340663 -0.00150237
v 0.00371435 0.00365135 -0.00124879
v 0.00361587 0.00557231 -0.00156978
v 0.00291543 0.00660717 -0.00201595
v 0.00291543 0.00660763 0.00297861
v 0.00291543 0.00660763 0.00411490
v 0.00310545 0.00648872 0.02487957
v 0.00336898 0.00631241 0.00144108
v 0.00353265 0.00557231 -0.00176237
v 0.00338424 0.00595660 -0.00201595
v 0.00322473 0.00595660 -0.00227274
v 0.00287798 0.00634088 -0.00268682
v 0.00247020 0.00663839 -0.00303027
v 0.00203883 0.00693269 -0.00337373
v 0.00211512 0.00696712 -0.00316830
v 0.00237588 0.00689320 -0.00278632
v 0.00259919 0.00678256 -0.00240114
v 0.00357981 0.00616366 0.00067392
v 0.00377122 0.00600848 0.00567169
v 0.00400285 0.00581610 0.00605688
v 0.00419426 0.00563842 0.02449438
v 0.00439815 0.00544697 0.02449438
v 0.00458956 0.00525001 0.00912872
v 0.00458956 0.00524588 0.02372722
v 0.00476155 0.00505488 0.02449438
v 0.00495435 0.00481889 0.02410920
v 0.00510830 0.00462698 0.02410920
v 0.00525533 0.00442037 0.02372722
v 0.00510553 0.00462239 0.02432747
v 0.00474491 0.00503560 0.02472549
v 0.00433990 0.00539463 0.02508179
v 0.00451743 0.00301638 0.02526154
v 0.00128707 0.00301592 0.00145713
v 0.00259642 0.00330654 -0.00277669
v 0.00111647 0.00301592 -0.00152805
v 0.00104018 0.00301592 -0.00160188
v 0.00183078 0.00313897 -0.00278632
v 0.00144658 0.00314861 -0.00316830
v 0.00144658 0.00330884 -0.00350533
v 0.00221637 0.00332078 -0.00310731
v 0.00297230 0.00332537 -0.00238188
v 0.00320254 0.00341214 -0.00224064
v 0.00352156 0.00365135 -0.00172706
v 0.00352849 0.00442037 -0.00174632
v 0.00353265 0.00480466 -0.00175274
v 0.00353265 0.00518894 -0.00175916
v 0.00259919 0.00678439 -0.00201595
v 0.00259919 0.00678485 0.00336379
v 0.00259919 0.00678485 0.00411490
v 0.00291266 0.00660671 0.02410920
v 0.00291266 0.00660625 0.02487957
v 0.00291127 0.00660625 0.02526475
v 0.00310406 0.00647678 0.02526475
v 0.00336760 0.00630874 0.02487957
v 0.00336898 0.00631196 0.00411490
v 0.00338424 0.00518894 -0.00201595
v 0.00337869 0.00442037 -0.00201595
v 0.00321641 0.00365135 -0.00225669
v 0.00307494 0.00595660 -0.00246533
v 0.00288353 0.00595660 -0.00269324
v 0.00269351 0.00634088 -0.00287941
v 0.00204854 0.00672562 -0.00338015
v 0.00183078 0.00672562 -0.00349891
v 0.00125656 0.00692121 -0.00374607
v 0.00095973 0.00734085 -0.00378138
v 0.00130788 0.00731927 -0.00343151
v 0.00250210 0.00634088 -0.00305595
v 0.00183078 0.00711542 -0.00316830
v 0.00218447 0.00699329 -0.00278632
v 0.00237727 0.00690285 -0.00240114
v 0.00357842 0.00616366 0.00490453
v 0.00376844 0.00600664 0.02487957
v 0.00400008 0.00581473 0.02487957
v 0.00419287 0.00561639 0.02487957
v 0.00458817 0.00524679 0.02449438
v 0.00437180 0.00542447 0.02487957
v 0.00398205 0.00579820 0.02512031
v 0.00327467 0.00623115 0.02550228
v 0.00356871 0.00579269 0.02546055
v 0.00374764 0.00301638 0.02564351
v 0.00080578 0.00301592 0.00177812
v 0.00283637 0.00339010 -0.00264509
v 0.00246604 0.00338092 -0.00302385
v 0.00031338 0.00301592 -0.00190361
v 0.00106237 0.00313897 -0.00316830
v 0.00029397 0.00316238 -0.00355348
v 0.00067817 0.00319819 -0.00355348
v 0.00175727 0.00336531 -0.00343151
v 0.00067817 0.00335843 -0.00380064
v 0.00097915 0.00340939 -0.00376854
v 0.00336898 0.00365135 -0.00201595
v 0.00268796 0.00365135 -0.00286336
v 0.00285995 0.00365135 -0.00267077
v 0.00237588 0.00690285 0.00411490
v 0.00259919 0.00678439 0.00759119
v 0.00259919 0.00678164 0.02410920
v 0.00259919 0.00678072 0.02526475
v 0.00287104 0.00658146 0.02551512
v 0.00338840 0.00626283 0.02524870
v 0.00357010 0.00615631 0.02511389
v 0.00357565 0.00616045 0.02487957
v 0.00269351 0.00442037 -0.00286978
v 0.00269351 0.00518894 -0.00287941
v 0.00269351 0.00557231 -0.00288262
v 0.00269351 0.00595660 -0.00288262
v 0.00223995 0.00634088 -0.00324854
v 0.00222608 0.00518894 -0.00324854
v 0.00204716 0.00634088 -0.00337694
v 0.00183078 0.00634088 -0.00349570
v 0.00144935 0.00480466 -0.00366583
v 0.00144935 0.00557231 -0.00366904
v 0.00144935 0.00634088 -0.00367225
v 0.00144935 0.00672562 -0.00367225
v 0.00125656 0.00456224 -0.00374607
v 0.00106237 0.00672562 -0.00380064
v 0.00107763 0.00707318 -0.00378780
v 0.00067817 0.00710945 -0.00388731
v 0.00067817 0.00738538 -0.00381669
v 0.00029397 0.00757316 -0.00355348
v 0.00067817 0.00748868 -0.00355348
v 0.00107763 0.00736840 -0.00355669
v 0.00106237 0.00740926 -0.00316830
v 0.00133423 0.00732753 -0.00316830
v 0.00152564 0.00725821 -0.00316830
v 0.00250210 0.00595660 -0.00305595
v 0.00183078 0.00714664 -0.00278632
v 0.00218447 0.00699329 -0.00240114
v 0.00218031 0.00699283 0.02526475
v 0.00299310 0.00635236 0.02556969
v 0.00259919 0.00634088 0.02571092
v 0.00338840 0.00593502 0.02551191
v 0.00336760 0.00301638 0.02577191
v 0.00054224 0.00301592 0.00188404
v 0.00181969 0.00365135 -0.00346681
v 0.00221637 0.00365135 -0.00323570
v 0.00249516 0.00365135 -0.00304953
v -0.00009024 0.00301592 -0.00187472
v -0.00009024 0.00315871 -0.00355348
v -0.00009024 0.00331894 -0.00383916
v 0.00029397 0.00332261 -0.00383595
v 0.00144658 0.00365135 -0.00365620
v 0.00029397 0.00365135 -0.00392583
v 0.00067817 0.00365135 -0.00385521
v 0.00123159 0.00365135 -0.00374286
v 0.00237311 0.00690055 0.02257488
v 0.00237311 0.00690009 0.02449438
v 0.00237172 0.00689963 0.02526475
v 0.00212760 0.00696758 0.02555685
v 0.00259919 0.00665630 0.02557932
v 0.00249794 0.00403609 -0.00305274
v 0.00250071 0.00480466 -0.00305595
v 0.00221637 0.00403609 -0.00324212
v 0.00202496 0.00455673 -0.00336410
v 0.00183078 0.00480466 -0.00347965
v 0.00140913 0.00442864 -0.00368188
v 0.00125101 0.00430559 -0.00374607
v 0.00067817 0.00557231 -0.00387447
v 0.00029397 0.00403609 -0.00392904
v 0.00029397 0.00557231 -0.00393546
v 0.00029397 0.00672562 -0.00393867
v 0.00029397 0.00710945 -0.00393867
v 0.00029397 0.00743038 -0.00384237
v -0.00066169 0.00768611 -0.00374607
v -0.00009024 0.00763744 -0.00355348
v 0.00029397 0.00758740 -0.00316830
v 0.00067817 0.00750843 -0.00316830
v 0.00106237 0.00740788 0.02526475
v 0.00133423 0.00732753 0.02526475
v 0.00152564 0.00726326 -0.00278632
v 0.00183078 0.00714664 -0.00240114
v 0.00183078 0.00714618 0.02526475
v -0.00487129 0.00654381 0.02816005
v -0.00508489 0.00595614 0.02831734
v -0.00547187 0.00301638 0.02871215
v 0.00029535 0.00301592 0.00190972
v -0.00585330 0.00301638 0.02883734
v -0.00587133 0.00301638 0.02884055
v -0.00067140 0.00301592 -0.00175274
v -0.00124146 0.00314172 -0.00316830
v -0.00047444 0.00317753 -0.00355348
v -0.00085865 0.00320967 -0.00355348
v -0.00047444 0.00333777 -0.00381348
v -0.00009024 0.00365135 -0.00393224
v 0.00067817 0.00442037 -0.00386484
v 0.00105128 0.00403609 -0.00378459
v 0.00130788 0.00731927 0.02550870
v 0.00183078 0.00703186 0.02562747
v 0.00223856 0.00675639 0.02564993
v 0.00183078 0.00672516 0.02580722
v -0.00009024 0.00710945 -0.00395151
v -0.00009024 0.00746481 -0.00384879
v -0.00067001 0.00768611 -0.00374607
v -0.00082258 0.00769345 -0.00355348
v -0.00085865 0.00770401 -0.00316830
v -0.00062285 0.00768886 -0.00355348
v -0.00043006 0.00767509 -0.00355348
v -0.00009024 0.00764662 -0.00316830
v 0.00029397 0.00758740 -0.00201595
v 0.00029397 0.00758602 0.02487957
v 0.00067817 0.00750567 0.02526475
v 0.00152564 0.00726280 0.02526475
v -0.00492677 0.00654381 0.02816005
v -0.00546909 0.00595614 0.02838475
v -0.00333308 0.00730733 0.02700450
v -0.00546909 0.00557231 0.02845857
v 0.00014139 0.00301592 0.00191293
v -0.00586023 0.00556175 0.02850351
v -0.00599200 0.00542631 0.02853561
v -0.00608354 0.00542631 0.02853561
v -0.00625553 0.00301638 0.02883734
v -0.00009024 0.00301592 0.00191293
v -0.00085865 0.00301592 -0.00170780
v -0.00200987 0.00314264 -0.00278632
v -0.00162567 0.00317386 -0.00316830
v -0.00109721 0.00301592 -0.00162435
v -0.00123453 0.00330563 -0.00357274
v -0.00085865 0.00336990 -0.00378780
v -0.00110276 0.00341306 -0.00376533
v -0.00047444 0.00365135 -0.00388410
v -0.00047444 0.00595660 -0.00390657
v -0.00047444 0.00710945 -0.00391620
v 0.00106237 0.00735462 0.02556648
v 0.00029397 0.00758326 0.02526475
v -0.00051050 0.00752679 -0.00381669
v -0.00082258 0.00751164 -0.00379101
v -0.00111663 0.00739548 -0.00376854
v -0.00092661 0.00765167 -0.00368188
v -0.00147032 0.00768978 -0.00337373
v -0.00124146 0.00769529 -0.00341867
v -0.00124146 0.00770447 -0.00316830
v -0.00058679 0.00769162 -0.00316830
v -0.00086003 0.00770539 0.00682404
v -0.00039538 0.00767830 -0.00316830
v -0.00009024 0.00764662 -0.00240114
v -0.00009162 0.00764479 0.02487957
v -0.00338024 0.00730733 0.02700450
v -0.00420968 0.00695748 0.02745067
v -0.00497947 0.00657641 0.02795462
v -0.00517088 0.00648964 0.02795462
v -0.00567298 0.00615769 0.02816968
v -0.00546909 0.00622977 0.02822746
v -0.00143287 0.00768611 0.02584253
v -0.00582139 0.00593915 0.02829166
v -0.00621253 0.00555486 0.02836870
v -0.00661061 0.00517379 0.02830450
v -0.00630408 0.00518894 0.02850030
v -0.00660506 0.00301638 0.02871857
v -0.00046335 0.00301592 0.00189367
v -0.00242598 0.00327303 -0.00281842
v -0.00149390 0.00301592 -0.00126805
v -0.00277828 0.00314264 -0.00201595
v -0.00201264 0.00329553 -0.00319077
v -0.00162567 0.00333409 -0.00346039
v -0.00113189 0.00365135 -0.00377817
v -0.00085865 0.00365135 -0.00383274
v -0.00188504 0.00339516 -0.00339620
v -0.00162567 0.00365135 -0.00355990
v -0.00132330 0.00365135 -0.00370113
v -0.00085865 0.00710945 -0.00385200
v -0.00085865 0.00442037 -0.00383916
v -0.00085865 0.00634088 -0.00385200
v -0.00062147 0.00768932 0.02546697
v -0.00009162 0.00764019 0.02526475
v -0.00114992 0.00710945 -0.00378138
v -0.00134133 0.00710945 -0.00371397
v -0.00162567 0.00710945 -0.00359521
v -0.00190307 0.00740604 -0.00340904
v -0.00160902 0.00751807 -0.00346039
v -0.00239407 0.00738400 -0.00305916
v -0.00239407 0.00752817 -0.00278632
v -0.00200987 0.00764295 -0.00278632
v -0.00149945 0.00769162 -0.00316830
v -0.00150916 0.00769162 -0.00278632
v -0.00152441 0.00769345 0.01988500
v -0.00152580 0.00769345 0.02065216
v -0.00124146 0.00770631 0.02103735
v -0.00086003 0.00770539 0.01105144
v -0.00059650 0.00769208 0.00874675
v -0.00059789 0.00769116 0.02526475
v -0.00040648 0.00767647 0.02487957
v -0.00040648 0.00767417 0.02526475
v -0.00143564 0.00768611 0.02584253
v -0.00239407 0.00756306 0.02603512
v -0.00340244 0.00731376 0.02680228
v -0.00359523 0.00726188 0.02680228
v -0.00425129 0.00697814 0.02718746
v -0.00469930 0.00675179 0.02756944
v -0.00501554 0.00660258 0.02756944
v -0.00520695 0.00649010 0.02756944
v -0.00546909 0.00631058 0.02795462
v -0.00608493 0.00579866 0.02824351
v -0.00567853 0.00616228 0.02795462
v -0.00587133 0.00600848 0.02795462
v -0.00610573 0.00581656 0.02795462
v -0.00086003 0.00769483 0.02549265
v -0.00128030 0.00769391 0.02563389
v -0.00647607 0.00542631 0.02824030
v -0.00684779 0.00503606 0.02819536
v -0.00719870 0.00461412 0.02814721
v -0.00698788 0.00476701 0.02822746
v -0.00662032 0.00480512 0.02842647
v -0.00738040 0.00301638 0.02834302
v -0.00089055 0.00301592 0.00172997
v -0.00081010 0.00301592 0.00176207
v -0.00280879 0.00327303 -0.00243324
v -0.00270199 0.00335751 -0.00270928
v -0.00231917 0.00335751 -0.00307521
v -0.00154661 0.00301592 -0.00116855
v -0.00715016 0.00301638 0.00596700
v -0.00695181 0.00301638 0.00564922
v -0.00682143 0.00301638 0.00547268
v -0.00316248 0.00315963 -0.00163077
v -0.00132884 0.00403609 -0.00370434
v -0.00133994 0.00518894 -0.00371076
v -0.00114160 0.00442037 -0.00378138
v -0.00192249 0.00365135 -0.00341225
v -0.00211390 0.00365135 -0.00331595
v -0.00162567 0.00518894 -0.00358237
v -0.00114853 0.00518894 -0.00378138
v -0.00114992 0.00557231 -0.00378138
v -0.00086003 0.00770401 0.02526475
v -0.00134133 0.00595660 -0.00371397
v -0.00162567 0.00634088 -0.00359200
v -0.00194607 0.00710945 -0.00343472
v -0.00213748 0.00710945 -0.00332237
v -0.00259103 0.00730871 -0.00298212
v -0.00274221 0.00735829 -0.00274780
v -0.00297246 0.00730504 -0.00259694
v -0.00303626 0.00734544 -0.00240114
v -0.00277828 0.00747170 -0.00240114
v -0.00239407 0.00758923 -0.00240114
v -0.00200987 0.00764570 -0.00240114
v -0.00170195 0.00767692 -0.00278632
v -0.00171860 0.00767830 0.02526796
v -0.00152580 0.00769345 0.02218969
v -0.00124424 0.00770585 0.02526796
v -0.00124146 0.00770585 0.02526475
v -0.00148142 0.00768978 0.02564993
v -0.00167421 0.00767738 0.02564993
v -0.00200987 0.00764479 0.02564993
v -0.00239407 0.00757730 0.02564993
v -0.00277966 0.00748318 0.02603512
v -0.00316387 0.00738309 0.02641709
v -0.00341214 0.00731743 0.02641709
v -0.00360494 0.00726188 0.02641709
v -0.00393228 0.00713057 0.02680228
v -0.00444409 0.00688678 0.02718746
v -0.00469930 0.00676511 0.02718746
v -0.00501554 0.00660350 0.02718746
v -0.00520833 0.00648964 0.02641709
v -0.00501554 0.00660488 0.02488277
v -0.00546909 0.00631058 0.02718746
v -0.00629853 0.00564164 0.02795462
v -0.00567853 0.00616228 0.02756944
v -0.00587133 0.00600848 0.02756944
v -0.00610573 0.00581702 0.01834748
v -0.00124424 0.00769483 0.02560179
v -0.00649965 0.00544973 0.02795462
v -0.00669105 0.00524817 0.02795462
v -0.00686582 0.00505534 0.02795462
v -0.00758291 0.00301638 0.02815043
v -0.00739011 0.00301638 0.02833660
v -0.00705723 0.00481568 0.02795462
v -0.00720564 0.00462285 0.02795462
v -0.00753713 0.00415041 0.02756944
v -0.00764671 0.00395850 0.02756944
v -0.00761897 0.00391580 0.02780697
v -0.00777293 0.00301638 0.02795462
v -0.00122343 0.00301592 0.00142503
v -0.00307094 0.00335751 -0.00232410
v -0.00318467 0.00328634 -0.00202879
v -0.00295304 0.00365135 -0.00257768
v -0.00257022 0.00365135 -0.00296286
v -0.00237882 0.00365135 -0.00312336
v -0.00170195 0.00301592 -0.00086361
v -0.00718067 0.00301638 0.00603120
v -0.00371868 0.00365135 -0.00139645
v -0.00378525 0.00338046 -0.00115571
v -0.00340382 0.00337955 -0.00191003
v -0.00347733 0.00331986 -0.00163077
v -0.00162567 0.00557231 -0.00358558
v -0.00193081 0.00442037 -0.00341867
v -0.00211806 0.00403609 -0.00331916
v -0.00193358 0.00480466 -0.00342188
v -0.00194329 0.00634088 -0.00343151
v -0.00212915 0.00518894 -0.00332237
v -0.00213609 0.00634088 -0.00332237
v -0.00239407 0.00710945 -0.00313620
v -0.00239407 0.00634088 -0.00313620
v -0.00259242 0.00710945 -0.00298533
v -0.00278521 0.00710945 -0.00278953
v -0.00297385 0.00710945 -0.00259694
v -0.00312503 0.00672562 -0.00240114
v -0.00331505 0.00672562 -0.00214435
v -0.00330118 0.00710945 -0.00211867
v -0.00337747 0.00731927 -0.00187151
v -0.00317358 0.00737804 -0.00200632
v -0.00277828 0.00751026 -0.00201595
v -0.00239407 0.00758923 -0.00201595
v -0.00200987 0.00764570 -0.00086361
v -0.00200987 0.00764525 0.02526796
v -0.00152580 0.00769299 0.02526796
v -0.00316248 0.00741018 -0.00163077
v -0.00343295 0.00732753 -0.00086361
v -0.00360494 0.00726234 0.02488277
v -0.00393228 0.00714021 0.01220699
v -0.00393228 0.00713837 0.01566402
v -0.00393228 0.00713516 0.02142253
v -0.00393228 0.00713241 0.02488277
v -0.00444686 0.00688769 0.02603512
v -0.00447737 0.00690376 0.00144108
v -0.00427071 0.00698641 0.01450847
v -0.00426793 0.00698549 0.01643118
v -0.00425684 0.00698044 0.02411241
v -0.00446766 0.00689825 0.01028428
v -0.00469930 0.00676832 0.02449759
v -0.00520833 0.00648964 0.02526796
v -0.00501554 0.00660533 0.02065216
v -0.00520556 0.00648872 0.00567169
v -0.00546909 0.00630415 0.00336379
v -0.00610435 0.00581702 0.01450847
v -0.00610296 0.00581656 0.00990230
v -0.00629298 0.00563567 0.00490453
v -0.00567160 0.00615631 0.00411490
v -0.00586162 0.00600664 0.00413416
v -0.00586578 0.00600985 0.01911784
v -0.00649410 0.00544376 0.00528651
v -0.00668828 0.00524404 0.00567169
v -0.00705723 0.00482302 0.02603512
v -0.00705723 0.00482302 0.02756944
v -0.00721257 0.00463065 0.02756944
v -0.00686027 0.00505213 0.00605688
v -0.00721257 0.00463203 0.00759440
v -0.00735960 0.00442037 0.02756944
v -0.00753713 0.00415684 0.02718746
v -0.00765642 0.00396538 0.02718746
v -0.00783396 0.00365180 0.02718746
v -0.00795185 0.00339607 0.02718746
v -0.00809610 0.00301638 0.02718746
v -0.00801288 0.00301638 0.02754697
v -0.00159793 0.00301592 0.00103664
v -0.00312226 0.00365135 -0.00238509
v -0.00331505 0.00365135 -0.00214435
v -0.00296136 0.00442037 -0.00258410
v -0.00257439 0.00403609 -0.00296607
v -0.00259103 0.00595660 -0.00298212
v -0.00238575 0.00442037 -0.00312657
v -0.00185591 0.00301592 -0.00046237
v -0.00797959 0.00301638 0.00775811
v -0.00772993 0.00301638 0.00720922
v -0.00755239 0.00301638 0.00682725
v -0.00628882 0.00365135 0.00411490
v -0.00371868 0.00672562 -0.00139645
v -0.00360217 0.00672562 -0.00163077
v -0.00359939 0.00365135 -0.00163077
v -0.00342740 0.00365135 -0.00195176
v -0.00259242 0.00672562 -0.00298533
v -0.00278521 0.00672562 -0.00278953
v -0.00297246 0.00672562 -0.00259694
v -0.00312503 0.00480466 -0.00239472
v -0.00312364 0.00518894 -0.00239793
v -0.00331644 0.00557231 -0.00214435
v -0.00331644 0.00442037 -0.00214435
v -0.00343018 0.00672562 -0.00195176
v -0.00340937 0.00710945 -0.00192608
v -0.00340105 0.00732845 -0.00163077
v -0.00415836 0.00695473 -0.00036287
v -0.00419997 0.00698044 -0.00009645
v -0.00425129 0.00698778 0.00028874
v -0.00342324 0.00732845 -0.00124879
v -0.00362297 0.00726234 -0.00047842
v -0.00393228 0.00714021 0.00411490
v -0.00428597 0.00698778 0.00105590
v -0.00428319 0.00698778 0.00067392
v -0.00447737 0.00690193 0.00105590
v -0.00470068 0.00677980 0.00182627
v -0.00501554 0.00660533 0.01680995
v -0.00501415 0.00660488 0.01297094
v -0.00501276 0.00660258 0.00411490
v -0.00520417 0.00648872 0.00374577
v -0.00567021 0.00615631 0.00336379
v -0.00520278 0.00648872 0.00297861
v -0.00520278 0.00648459 0.00259342
v -0.00610157 0.00581473 0.00451935
v -0.00609602 0.00581473 0.00413416
v -0.00648855 0.00544284 0.00490453
v -0.00586439 0.00600434 0.00411490
v -0.00685611 0.00505213 0.00567169
v -0.00721257 0.00463111 0.02718746
v -0.00721257 0.00463203 0.01258576
v -0.00721257 0.00463065 0.00644206
v -0.00721257 0.00463111 0.00682404
v -0.00735544 0.00442037 0.00720922
v -0.00735960 0.00442037 0.02641709
v -0.00753297 0.00415271 0.00759440
v -0.00765642 0.00396033 0.00759440
v -0.00795047 0.00342683 0.02680228
v -0.00804062 0.00323492 0.02680228
v -0.00782980 0.00365180 0.00797959
v -0.00794908 0.00342316 0.00836477
v -0.00813494 0.00301638 0.02680228
v -0.00189197 0.00301592 0.00020528
v -0.00174079 0.00301592 0.00067392
v -0.00164925 0.00301592 0.00092108
v -0.00296691 0.00518894 -0.00259052
v -0.00342879 0.00442037 -0.00195496
v -0.00281989 0.00596853 -0.00274780
v -0.00188643 0.00301592 -0.00009645
v -0.00811968 0.00301638 0.00836477
v -0.00804756 0.00301638 0.00797959
v -0.00797682 0.00313529 0.00776453
v -0.00761203 0.00365180 0.00695564
v -0.00772993 0.00326752 0.00720922
v -0.00628882 0.00518894 0.00411490
v -0.00455089 0.00634088 0.00038824
v -0.00408901 0.00672562 -0.00059719
v -0.00297107 0.00610489 -0.00259373
v -0.00393089 0.00713287 -0.00009645
v -0.00417639 0.00672562 -0.00040460
v -0.00491151 0.00655850 0.00120676
v -0.00494757 0.00658651 0.00144108
v -0.00447460 0.00688264 0.00067392
v -0.00393089 0.00714021 0.00028874
v -0.00499057 0.00660212 0.00182627
v -0.00500860 0.00660212 0.00221145
v -0.00501138 0.00660212 0.00259342
v -0.00566605 0.00615402 0.00311984
v -0.00609602 0.00581381 0.00411490
v -0.00607660 0.00579774 0.00383243
v -0.00646358 0.00542172 0.00462206
v -0.00683946 0.00503284 0.00541490
v -0.00720702 0.00462468 0.00622058
v -0.00763423 0.00393921 0.00720922
v -0.00780205 0.00365180 0.00759440
v -0.00804062 0.00323079 0.00836477
v -0.00813633 0.00301638 0.02656475
v -0.00794908 0.00339010 0.00797959
v -0.00813216 0.00301638 0.00874675
v -0.00801149 0.00319819 0.00797959
v -0.00760094 0.00389330 0.00697811
v -0.00736931 0.00403609 0.00644206
v -0.00701284 0.00442037 0.00567169
v -0.00677844 0.00480512 0.00517737
v -0.00640672 0.00518894 0.00437811
v -0.00603499 0.00557231 0.00358207
v -0.00593652 0.00557231 0.00336379
v -0.00539974 0.00595660 0.00221145
v -0.00492122 0.00634088 0.00118750
v -0.00610851 0.00557231 0.00377466
v -0.00648855 0.00518894 0.00457391
v -0.00686027 0.00480512 0.00536996
v -0.00722506 0.00442037 0.00618206
v -0.00715016 0.00442037 0.00598947
f 1 2 3
f 1 3 4
f 1 4 5
f 1 5 6
f 1 6 7
f 1 7 8
f 1 8 9
f 1 9 10
f 1 10 11
f 1 11 12
f 1 12 2
f 2 12 13
f 2 13 14
f 2 14 15
f 2 15 16
f 2 16 3
f 3 17 18
f 3 18 19
f 3 19 4
f 3 16 15
f 3 15 17
f 4 19 20
f 4 20 21
f 4 21 5
f 5 21 6
f 6 21 22
f 6 22 9
f 6 9 7
f 7 9 8
f 9 23 24
f 9 24 25
f 9 25 10
f 9 22 23
f 10 25 26
f 10 26 27
f 10 27 28
f 10 28 11
f 11 28 49
f 11 49 90
f 11 90 131
f 11 131 179
f 11 179 231
f 11 231 273
f 11 273 304
f 11 304 309
f 11 309 346
f 11 346 402
f 11 402 401
f 11 401 467
f 11 467 539
f 11 539 602
f 11 602 601
f 11 601 600
f 11 600 606
f 11 606 546
f 11 546 473
f 11 473 406
f 11 406 348
f 11 348 313
f 11 313 310
f 11 310 276
f 11 276 235
f 11 235 182
f 11 182 134
f 11 134 133
f 11 133 96
f 11 96 91
f 11 91 50
f 11 50 29
f 11 29 13
f 11 13 12
f 13 29 30
f 13 30 14
f 14 30 31
f 14 31 15
f 15 31 32
f 15 32 33
f 15 33 34
f 15 34 35
f 15 35 36
f 15 36 37
f 15 37 17
f 17 37 38
f 17 38 39
f 17 39 18
f 18 39 40
f 18 40 41
f 18 41 82
f 18 82 42
f 18 42 20
f 18 20 19
f 20 42 43
f 20 43 21
f 21 43 22
f 22 43 23
f 23 44 24
f 23 43 44
f 24 44 45
f 24 45 25
f 25 45 46
f 25 46 26
f 26 47 27
f 26 46 47
f 27 47 48
f 27 48 49
f 27 49 28
f 29 50 51
f 29 51 52
f 29 52 30
f 30 52 53
f 30 53 54
f 30 54 55
f 30 55 56
f 30 56 57
f 30 57 58
f 30 58 59
f 30 59 60
f 30 60 31
f 31 60 61
f 31 61 62
f 31 62 32
f 32 63 33
f 32 62 64
f 32 64 65
f 32 65 66
f 32 66 67
f 32 67 63
f 33 63 68
f 33 68 69
f 33 69 70
f 33 70 71
f 33 71 72
f 33 72 73
f 33 73 34
f 34 73 74
f 34 74 121
f 34 121 75
f 34 75 76
f 34 76 35
f 35 77 37
f 35 37 36
f 35 76 78
f 35 78 79
f 35 79 80
f 35 80 77
f 37 77 81
f 37 81 40
f 37 40 39
f 37 39 38
f 40 81 41
f 41 81 80
f 41 80 82
f 42 82 83
f 42 83 43
f 43 83 44
f 44 83 84
f 44 84 85
f 44 85 86
f 44 86 45
f 45 86 46
f 46 86 47
f 47 86 87
f 47 87 88
f 47 88 48
f 48 88 89
f 48 89 90
f 48 90 49
f 50 91 51
f 51 92 93
f 51 93 94
f 51 94 95
f 51 95 54
f 51 54 53
f 51 53 52
f 51 91 96
f 51 96 92
f 54 56 55
f 54 95 97
f 54 97 56
f 56 97 98
f 56 98 99
f 56 99 57
f 57 99 100
f 57 100 61
f 57 61 58
f 58 61 59
f 59 61 60
f 61 100 101
f 61 101 64
f 61 64 62
f 63 67 102
f 63 102 103
f 63 103 104
f 63 104 105
f 63 105 106
f 63 106 68
f 64 101 107
f 64 107 108
f 64 108 65
f 65 109 110
f 65 110 66
f 65 108 109
f 66 110 111
f 66 111 112
f 66 112 113
f 66 113 114
f 66 114 67
f 67 114 115
f 67 115 102
f 68 106 116
f 68 116 69
f 69 116 117
f 69 117 118
f 69 118 70
f 70 118 71
f 71 118 119
f 71 119 120
f 71 120 72
f 72 120 121
f 72 121 74
f 72 74 73
f 75 121 122
f 75 122 123
f 75 123 76
f 76 123 124
f 76 124 78
f 77 80 81
f 78 124 125
f 78 125 126
f 78 126 79
f 79 126 84
f 79 84 80
f 80 84 83
f 80 83 82
f 84 126 125
f 84 125 85
f 85 125 127
f 85 127 86
f 86 127 87
f 87 128 88
f 87 127 128
f 88 128 129
f 88 129 89
f 89 129 130
f 89 130 131
f 89 131 90
f 92 96 93
f 93 132 94
f 93 96 133
f 93 133 134
f 93 134 135
f 93 135 136
f 93 136 137
f 93 137 138
f 93 138 132
f 94 132 95
f 95 98 97
f 95 132 139
f 95 139 98
f 98 139 140
f 98 140 99
f 99 140 141
f 99 141 100
f 100 141 142
f 100 142 143
f 100 143 101
f 101 143 144
f 101 144 107
f 102 145 103
f 102 115 145
f 103 145 146
f 103 146 147
f 103 147 104
f 104 147 148
f 104 148 105
f 105 148 149
f 105 149 150
f 105 150 151
f 105 151 152
f 105 152 153
f 105 153 106
f 106 153 116
f 107 144 154
f 107 154 108
f 108 154 109
f 109 154 155
f 109 155 156
f 109 156 157
f 109 157 110
f 110 157 158
f 110 158 159
f 110 159 111
f 111 159 112
f 112 160 161
f 112 161 162
f 112 162 163
f 112 163 164
f 112 164 113
f 112 159 165
f 112 165 160
f 113 166 167
f 113 167 114
f 113 164 166
f 114 167 168
f 114 168 115
f 115 168 145
f 116 153 152
f 116 152 169
f 116 169 170
f 116 170 117
f 117 170 171
f 117 171 118
f 118 171 119
f 119 171 120
f 120 171 172
f 120 172 173
f 120 173 122
f 120 122 121
f 122 173 123
f 123 173 174
f 123 174 128
f 123 128 127
f 123 127 125
f 123 125 124
f 128 174 129
f 129 174 175
f 129 175 176
f 129 176 177
f 129 177 130
f 130 177 178
f 130 178 179
f 130 179 131
f 132 180 139
f 132 138 181
f 132 181 180
f 134 182 136
f 134 136 135
f 136 182 183
f 136 183 184
f 136 184 185
f 136 185 137
f 137 186 138
f 137 185 187
f 137 187 188
f 137 188 186
f 138 186 181
f 139 180 140
f 140 189 141
f 140 180 190
f 140 190 191
f 140 191 156
f 140 156 189
f 141 189 142
f 142 189 143
f 143 189 155
f 143 155 144
f 144 155 154
f 145 168 146
f 146 168 147
f 147 168 192
f 147 192 193
f 147 193 148
f 148 194 149
f 148 193 194
f 149 194 195
f 149 195 150
f 150 195 196
f 150 196 151
f 151 196 197
f 151 197 198
f 151 198 152
f 152 198 199
f 152 199 169
f 155 189 156
f 156 191 158
f 156 158 157
f 158 191 190
f 158 190 200
f 158 200 201
f 158 201 202
f 158 202 203
f 158 203 159
f 159 203 165
f 160 165 204
f 160 204 205
f 160 205 206
f 160 206 207
f 160 207 161
f 161 207 208
f 161 208 209
f 161 209 210
f 161 210 211
f 161 211 162
f 162 212 213
f 162 213 214
f 162 214 163
f 162 211 210
f 162 210 212
f 163 214 215
f 163 215 216
f 163 216 217
f 163 217 218
f 163 218 219
f 163 219 164
f 164 219 218
f 164 218 220
f 164 220 221
f 164 221 222
f 164 222 166
f 165 203 202
f 165 202 223
f 165 223 204
f 166 222 167
f 167 224 268
f 167 268 225
f 167 225 168
f 167 222 224
f 168 225 226
f 168 226 192
f 169 199 170
f 170 199 198
f 170 198 171
f 171 198 175
f 171 175 172
f 172 174 173
f 172 175 174
f 175 197 176
f 175 198 197
f 176 196 227
f 176 227 228
f 176 228 229
f 176 229 177
f 176 197 196
f 177 229 178
f 178 229 230
f 178 230 231
f 178 231 179
f 180 181 190
f 181 186 232
f 181 232 233
f 181 233 234
f 181 234 190
f 182 235 236
f 182 236 184
f 182 184 183
f 184 236 237
f 184 237 238
f 184 238 185
f 185 238 187
f 186 188 239
f 186 239 232
f 187 238 240
f 187 240 188
f 188 240 241
f 188 241 242
f 188 242 239
f 190 234 200
f 192 226 243
f 192 243 194
f 192 194 193
f 194 244 195
f 194 243 244
f 195 245 246
f 195 246 196
f 195 244 245
f 196 246 247
f 196 247 227
f 200 234 248
f 200 248 201
f 201 248 202
f 202 248 249
f 202 249 223
f 204 223 249
f 204 249 248
f 204 248 205
f 205 248 250
f 205 250 206
f 206 251 252
f 206 252 207
f 206 250 251
f 207 239 253
f 207 253 208
f 207 252 239
f 208 253 209
f 209 253 210
f 210 253 212
f 212 254 213
f 212 253 254
f 213 254 215
f 213 215 214
f 215 255 240
f 215 240 256
f 215 256 257
f 215 257 258
f 215 258 259
f 215 259 216
f 215 254 255
f 216 259 260
f 216 260 261
f 216 261 217
f 217 261 262
f 217 262 263
f 217 263 264
f 217 264 218
f 218 264 220
f 220 264 265
f 220 265 266
f 220 266 221
f 221 267 222
f 221 266 267
f 222 267 224
f 224 267 268
f 225 268 269
f 225 269 226
f 226 269 246
f 226 246 245
f 226 245 244
f 226 244 243
f 227 247 228
f 228 247 270
f 228 270 229
f 229 270 271
f 229 271 272
f 229 272 230
f 230 272 231
f 231 272 274
f 231 274 275
f 231 275 273
f 232 252 251
f 232 251 233
f 232 239 252
f 233 250 234
f 233 251 250
f 234 250 248
f 235 276 277
f 235 277 236
f 236 277 278
f 236 278 237
f 237 278 279
f 237 279 280
f 237 280 281
f 237 281 238
f 238 281 240
f 239 242 254
f 239 254 253
f 240 281 256
f 240 255 282
f 240 282 241
f 241 282 283
f 241 283 242
f 242 283 254
f 246 284 285
f 246 285 247
f 246 269 284
f 247 285 286
f 247 286 287
f 247 287 270
f 254 283 282
f 254 282 255
f 256 281 288
f 256 288 257
f 257 288 258
f 258 288 259
f 259 288 289
f 259 289 260
f 260 289 261
f 261 289 290
f 261 290 291
f 261 291 292
f 261 292 293
f 261 293 294
f 261 294 262
f 262 294 295
f 262 295 263
f 263 295 332
f 263 332 296
f 263 296 264
f 264 296 297
f 264 297 298
f 264 298 265
f 265 298 284
f 265 284 266
f 266 284 299
f 266 299 267
f 267 299 268
f 268 299 269
f 269 299 284
f 270 300 301
f 270 301 271
f 270 287 285
f 270 285 302
f 270 302 334
f 270 334 300
f 271 301 303
f 271 303 274
f 271 274 272
f 273 275 304
f 274 303 275
f 275 303 305
f 275 305 306
f 275 306 307
f 275 307 308
f 275 308 309
f 275 309 304
f 276 310 277
f 277 311 312
f 277 312 279
f 277 279 278
f 277 310 313
f 277 313 311
f 279 314 315
f 279 315 280
f 279 312 314
f 280 315 281
f 281 315 316
f 281 316 317
f 281 317 318
f 281 318 319
f 281 319 288
f 284 320 285
f 284 298 321
f 284 321 320
f 285 287 286
f 285 320 302
f 288 319 322
f 288 322 289
f 289 322 290
f 290 322 323
f 290 323 324
f 290 324 325
f 290 325 326
f 290 326 327
f 290 327 291
f 291 327 328
f 291 328 292
f 292 329 293
f 292 328 330
f 292 330 329
f 293 329 331
f 293 331 294
f 294 331 295
f 295 331 332
f 296 332 297
f 297 333 321
f 297 321 298
f 297 332 333
f 300 334 335
f 300 335 336
f 300 336 337
f 300 337 338
f 300 338 339
f 300 339 301
f 301 307 305
f 301 305 303
f 301 339 307
f 302 320 340
f 302 340 380
f 302 380 334
f 305 307 306
f 307 339 341
f 307 341 342
f 307 342 343
f 307 343 344
f 307 344 308
f 308 344 345
f 308 345 346
f 308 346 309
f 311 347 312
f 311 313 348
f 311 348 349
f 311 349 347
f 312 347 350
f 312 350 351
f 312 351 314
f 314 351 316
f 314 316 315
f 316 352 353
f 316 353 317
f 316 351 354
f 316 354 355
f 316 355 356
f 316 356 352
f 317 353 318
f 318 353 319
f 319 357 324
f 319 324 323
f 319 323 322
f 319 353 358
f 319 358 359
f 319 359 357
f 320 321 360
f 320 360 340
f 321 361 360
f 321 333 361
f 324 357 362
f 324 362 363
f 324 363 364
f 324 364 365
f 324 365 325
f 325 365 366
f 325 366 326
f 326 366 365
f 326 365 367
f 326 367 368
f 326 368 369
f 326 369 370
f 326 370 328
f 326 328 327
f 328 370 371
f 328 371 372
f 328 372 373
f 328 373 374
f 328 374 330
f 329 330 375
f 329 375 376
f 329 376 331
f 330 374 375
f 331 376 377
f 331 377 378
f 331 378 333
f 331 333 332
f 333 378 379
f 333 379 361
f 334 380 381
f 334 381 382
f 334 382 383
f 334 383 335
f 335 384 385
f 335 385 336
f 335 383 384
f 336 385 337
f 337 385 386
f 337 386 387
f 337 387 388
f 337 388 338
f 338 389 341
f 338 341 339
f 338 388 390
f 338 390 391
f 338 391 392
f 338 392 389
f 340 360 393
f 340 393 394
f 340 394 380
f 341 389 342
f 342 389 395
f 342 395 343
f 343 395 396
f 343 396 397
f 343 397 398
f 343 398 344
f 344 399 345
f 344 398 399
f 345 399 400
f 345 400 401
f 345 401 402
f 345 402 346
f 347 403 404
f 347 404 405
f 347 405 350
f 347 349 403
f 348 406 407
f 348 407 408
f 348 408 409
f 348 409 349
f 349 410 403
f 349 409 408
f 349 408 410
f 350 405 354
f 350 354 351
f 352 356 411
f 352 411 412
f 352 412 413
f 352 413 358
f 352 358 353
f 354 414 355
f 354 405 415
f 354 415 414
f 355 416 411
f 355 411 356
f 355 414 416
f 357 359 418
f 357 418 362
f 358 413 359
f 359 413 417
f 359 417 418
f 360 361 379
f 360 379 377
f 360 377 419
f 360 419 393
f 362 418 420
f 362 420 363
f 363 420 364
f 364 421 422
f 364 422 365
f 364 420 421
f 365 423 424
f 365 424 367
f 365 422 423
f 367 424 425
f 367 425 368
f 368 425 426
f 368 426 427
f 368 427 428
f 368 428 429
f 368 429 369
f 369 429 430
f 369 430 431
f 369 431 370
f 370 431 371
f 371 431 373
f 371 373 372
f 373 432 433
f 373 433 374
f 373 431 432
f 374 433 434
f 374 434 435
f 374 435 419
f 374 419 375
f 375 419 377
f 375 377 376
f 377 379 378
f 380 394 434
f 380 434 436
f 380 436 437
f 380 437 438
f 380 438 381
f 381 438 439
f 381 439 440
f 381 440 382
f 382 440 441
f 382 441 442
f 382 442 383
f 383 442 443
f 383 443 444
f 383 444 384
f 384 445 386
f 384 386 385
f 384 444 445
f 386 445 446
f 386 446 447
f 386 447 387
f 387 448 388
f 387 447 449
f 387 449 448
f 388 448 515
f 388 515 450
f 388 450 452
f 388 452 390
f 389 392 451
f 389 451 395
f 390 452 453
f 390 453 391
f 391 453 454
f 391 454 392
f 392 454 451
f 393 455 394
f 393 419 455
f 394 455 434
f 395 451 456
f 395 456 457
f 395 457 396
f 396 457 458
f 396 458 397
f 397 459 460
f 397 460 400
f 397 400 399
f 397 399 398
f 397 458 461
f 397 461 462
f 397 462 463
f 397 463 464
f 397 464 465
f 397 465 466
f 397 466 459
f 400 460 401
f 401 460 467
f 403 468 404
f 403 410 469
f 403 469 468
f 404 468 470
f 404 470 471
f 404 471 405
f 405 471 472
f 405 472 415
f 406 473 407
f 407 473 474
f 407 474 475
f 407 475 476
f 407 476 477
f 407 477 478
f 407 478 410
f 407 410 408
f 410 478 469
f 411 416 412
f 412 420 413
f 412 416 479
f 412 479 421
f 412 421 420
f 413 420 417
f 414 480 416
f 414 415 480
f 415 472 481
f 415 481 480
f 416 480 482
f 416 482 483
f 416 483 479
f 417 420 418
f 419 435 434
f 419 434 455
f 421 479 483
f 421 483 422
f 422 483 484
f 422 484 485
f 422 485 423
f 423 486 424
f 423 485 487
f 423 487 486
f 424 486 488
f 424 488 426
f 424 426 425
f 426 488 489
f 426 489 490
f 426 490 491
f 426 491 492
f 426 492 493
f 426 493 494
f 426 494 427
f 427 494 428
f 428 494 495
f 428 495 496
f 428 496 429
f 429 496 497
f 429 497 498
f 429 498 430
f 430 498 432
f 430 432 431
f 432 499 438
f 432 438 437
f 432 437 500
f 432 500 433
f 432 498 499
f 433 500 434
f 434 500 436
f 436 500 437
f 438 499 439
f 439 499 497
f 439 497 496
f 439 496 440
f 440 496 501
f 440 501 441
f 441 501 442
f 442 501 443
f 443 501 502
f 443 502 503
f 443 503 504
f 443 504 505
f 443 505 506
f 443 506 507
f 443 507 444
f 444 508 445
f 444 507 509
f 444 509 510
f 444 510 511
f 444 511 512
f 444 512 508
f 445 508 446
f 446 508 513
f 446 513 514
f 446 514 447
f 447 514 509
f 447 509 449
f 448 449 516
f 448 516 575
f 448 575 515
f 449 509 516
f 450 515 517
f 450 517 518
f 450 518 452
f 451 454 519
f 451 519 520
f 451 520 521
f 451 521 456
f 452 522 523
f 452 523 524
f 452 524 453
f 452 518 522
f 453 524 520
f 453 520 519
f 453 519 454
f 456 521 525
f 456 525 526
f 456 526 457
f 457 526 458
f 458 527 528
f 458 528 529
f 458 529 461
f 458 526 530
f 458 530 531
f 458 531 527
f 459 466 467
f 459 467 460
f 461 529 462
f 462 529 532
f 462 532 463
f 463 532 533
f 463 533 534
f 463 534 464
f 464 534 535
f 464 535 536
f 464 536 465
f 465 536 537
f 465 537 538
f 465 538 466
f 466 538 539
f 466 539 467
f 468 540 470
f 468 469 477
f 468 477 541
f 468 541 540
f 469 478 477
f 470 540 542
f 470 542 471
f 471 543 472
f 471 542 543
f 472 543 544
f 472 544 545
f 472 545 481
f 473 546 547
f 473 547 548
f 473 548 549
f 473 549 474
f 474 549 475
f 475 550 612
f 475 612 551
f 475 551 552
f 475 552 553
f 475 553 477
f 475 477 476
f 475 549 550
f 477 554 541
f 477 553 554
f 480 481 482
f 481 545 484
f 481 484 483
f 481 483 482
f 484 545 487
f 484 487 485
f 486 487 555
f 486 555 488
f 487 545 544
f 487 544 555
f 488 555 556
f 488 556 489
f 489 556 490
f 490 556 557
f 490 557 558
f 490 558 559
f 490 559 491
f 491 560 492
f 491 559 541
f 491 541 561
f 491 561 560
f 492 560 562
f 492 562 493
f 493 562 563
f 493 563 494
f 494 564 501
f 494 501 495
f 494 563 565
f 494 565 566
f 494 566 567
f 494 567 564
f 495 501 496
f 497 499 498
f 501 564 568
f 501 568 502
f 502 568 569
f 502 569 503
f 503 569 504
f 504 569 570
f 504 570 571
f 504 571 509
f 504 509 505
f 505 509 506
f 506 509 507
f 508 512 511
f 508 511 513
f 509 571 572
f 509 572 573
f 509 573 574
f 509 574 575
f 509 575 516
f 509 514 513
f 509 513 510
f 510 513 511
f 515 575 517
f 517 575 576
f 517 576 577
f 517 577 578
f 517 578 518
f 518 579 522
f 518 578 580
f 518 580 581
f 518 581 579
f 520 524 523
f 520 523 582
f 520 582 521
f 521 582 583
f 521 583 584
f 521 584 525
f 522 579 523
f 523 579 585
f 523 585 582
f 525 584 526
f 526 584 586
f 526 586 530
f 527 531 588
f 527 588 528
f 528 587 529
f 528 588 587
f 529 587 532
f 530 586 589
f 530 589 590
f 530 590 531
f 531 590 591
f 531 591 592
f 531 592 532
f 531 532 588
f 532 587 588
f 532 592 533
f 533 592 591
f 533 591 593
f 533 593 594
f 533 594 534
f 534 594 535
f 535 595 596
f 535 596 536
f 535 594 597
f 535 597 598
f 535 598 595
f 536 596 599
f 536 599 537
f 537 599 600
f 537 600 538
f 538 600 601
f 538 601 602
f 538 602 539
f 540 558 603
f 540 603 542
f 540 541 558
f 541 554 604
f 541 604 561
f 541 559 558
f 542 603 544
f 542 544 543
f 544 603 605
f 544 605 556
f 544 556 555
f 546 606 607
f 546 607 608
f 546 608 547
f 547 608 609
f 547 609 610
f 547 610 611
f 547 611 548
f 548 611 549
f 549 611 610
f 549 610 612
f 549 612 550
f 551 612 613
f 551 613 646
f 551 646 614
f 551 614 563
f 551 563 552
f 552 563 562
f 552 562 604
f 552 604 553
f 553 604 554
f 556 605 615
f 556 615 557
f 557 615 558
f 558 615 603
f 560 561 604
f 560 604 562
f 563 614 565
f 564 616 569
f 564 569 568
f 564 567 616
f 565 614 617
f 565 617 618
f 565 618 619
f 565 619 566
f 566 619 620
f 566 620 567
f 567 620 573
f 567 573 572
f 567 572 616
f 569 616 621
f 569 621 570
f 570 621 571
f 571 621 572
f 572 621 616
f 573 620 622
f 573 622 623
f 573 623 574
f 574 623 624
f 574 624 577
f 574 577 576
f 574 576 575
f 577 624 578
f 578 624 580
f 579 581 625
f 579 625 583
f 579 583 582
f 579 582 585
f 580 624 623
f 580 623 581
f 581 623 622
f 581 622 625
f 583 626 584
f 583 625 626
f 584 626 627
f 584 627 628
f 584 628 629
f 584 629 586
f 586 629 630
f 586 630 589
f 589 630 594
f 589 594 593
f 589 593 591
f 589 591 590
f 594 631 632
f 594 632 597
f 594 630 631
f 595 598 633
f 595 633 596
f 596 634 599
f 596 633 634
f 597 632 635
f 597 635 633
f 597 633 598
f 599 634 600
f 600 634 636
f 600 636 606
f 603 615 605
f 606 636 607
f 607 636 633
f 607 633 635
f 607 635 637
f 607 637 608
f 608 637 609
f 609 637 638
f 609 638 610
f 610 638 639
f 610 639 640
f 610 640 612
f 612 640 641
f 612 641 642
f 612 642 643
f 612 643 644
f 612 644 645
f 612 645 613
f 613 645 646
f 614 646 617
f 617 646 618
f 618 646 643
f 618 643 647
f 618 647 628
f 618 628 627
f 618 627 625
f 618 625 619
f 619 625 622
f 619 622 620
f 625 627 626
f 628 648 629
f 628 647 643
f 628 643 648
f 629 649 630
f 629 648 649
f 630 649 650
f 630 650 638
f 630 638 631
f 631 638 632
f 632 638 637
f 632 637 635
f 633 636 634
f 638 650 651
f 638 651 639
f 639 651 649
f 639 649 641
f 639 641 640
f 641 649 642
f 642 649 648
f 642 648 643
f 643 646 644
f 644 646 645
f 649 651 650

