# https://github.com/mikedh/trimesh
v 0.00595632 -0.00320271 0.00874927
v 0.00595495 -0.00320271 0.01450767
v 0.00594397 -0.00323049 0.00913231
v 0.00594397 -0.00323049 0.00836623
v 0.00595495 -0.00320271 0.00836623
v 0.00383406 -0.00320183 0.00046599
v 0.00595083 -0.00320271 0.02333998
v 0.00594123 -0.00322828 0.02333998
v 0.00584794 -0.00342139 0.02333998
v 0.00584932 -0.00342271 0.00836623
v 0.00584932 -0.00341477 0.00797999
v 0.00592888 -0.00322211 0.00797999
v 0.00593574 -0.00320271 0.00797999
v 0.00375449 -0.00320227 -0.00096723
v 0.00365846 -0.00320227 -0.00132154
v 0.00358712 -0.00320227 -0.00150987
v 0.00329766 -0.00320227 -0.00208124
v 0.00324004 -0.00320227 -0.00218339
v 0.00320574 -0.00320227 -0.00224404
v 0.00284494 -0.00320227 -0.00265581
v 0.00261447 -0.00320227 -0.00290159
v 0.00247729 -0.00320227 -0.00303566
v 0.00178999 -0.00320227 -0.00344743
v 0.00112875 -0.00320227 -0.00373790
v 0.00099568 -0.00320227 -0.00377301
v 0.00067878 -0.00320227 -0.00382728
v 0.00029329 -0.00320227 -0.00388154
v -0.00008946 -0.00320227 -0.00388793
v -0.00455212 -0.00320183 0.00046599
v 0.00381759 -0.00320183 0.00067347
v 0.00594260 -0.00320271 0.02372621
v 0.00594397 -0.00320271 0.02370387
v 0.00591791 -0.00320271 0.00788742
v 0.00593574 -0.00322167 0.02372621
v 0.00584246 -0.00341433 0.02372621
v 0.00572310 -0.00365108 0.02372621
v 0.00572859 -0.00365108 0.02333998
v 0.00572996 -0.00365108 0.00797999
v 0.00555574 -0.00396499 0.00759376
v 0.00394792 -0.00577082 -0.00000005
v 0.00391774 -0.00557154 -0.00047885
v 0.00384366 -0.00557154 -0.00086509
v 0.00380525 -0.00326752 -0.00086509
v 0.00369275 -0.00326752 -0.00124813
v 0.00359261 -0.00326752 -0.00151945
v 0.00350344 -0.00326752 -0.00171416
v 0.00334567 -0.00326752 -0.00201740
v 0.00321123 -0.00326752 -0.00224723
v 0.00285180 -0.00326752 -0.00266538
v 0.00267895 -0.00326752 -0.00285690
v 0.00248689 -0.00326752 -0.00304204
v 0.00221526 -0.00326752 -0.00321441
v 0.00180645 -0.00326752 -0.00345700
v 0.00144702 -0.00326752 -0.00363256
v 0.00120832 -0.00326752 -0.00372832
v 0.00101626 -0.00326752 -0.00377620
v 0.00067878 -0.00326752 -0.00384324
v 0.00029329 -0.00326752 -0.00390708
v -0.00008946 -0.00326752 -0.00391027
v -0.00019098 -0.00320227 -0.00388154
v -0.00332568 -0.00320227 -0.00206528
v -0.00341348 -0.00320227 -0.00192803
v -0.00379211 -0.00320227 -0.00117790
v -0.00491292 -0.00320183 0.00120015
v -0.00058333 -0.00320227 -0.00384324
v -0.00092904 -0.00320227 -0.00380174
v -0.00110875 -0.00320227 -0.00376982
v -0.00189894 -0.00320227 -0.00340274
v -0.00215685 -0.00320227 -0.00323356
v -0.00234754 -0.00320227 -0.00309311
v -0.00259310 -0.00320227 -0.00287925
v -0.00273029 -0.00320227 -0.00274199
v -0.00297036 -0.00320227 -0.00249301
v -0.00309246 -0.00320227 -0.00235576
v 0.00359535 -0.00320183 0.00206199
v 0.00592614 -0.00320271 0.02381239
v -0.00066564 -0.00320183 0.02590317
v 0.00384366 -0.00480486 -0.00086509
v 0.00383954 -0.00403641 -0.00086509
v 0.00383680 -0.00365196 -0.00086509
v 0.00553104 -0.00392531 0.02402307
v 0.00555574 -0.00396499 0.02372621
v 0.00525942 -0.00442085 0.02410925
v 0.00543913 -0.00415677 0.02372621
v 0.00543776 -0.00415721 0.00759376
v 0.00357477 -0.00616188 -0.00124813
v 0.00357066 -0.00615791 -0.00147795
v 0.00510851 -0.00462586 0.00699366
v 0.00511263 -0.00463159 0.00720752
v 0.00476555 -0.00505616 0.00682767
v 0.00359535 -0.00595599 -0.00153541
v 0.00372979 -0.00557154 -0.00124813
v 0.00371059 -0.00365196 -0.00124813
v 0.00352264 -0.00365196 -0.00172693
v 0.00336900 -0.00365196 -0.00201740
v 0.00321535 -0.00365196 -0.00225361
v 0.00285866 -0.00365196 -0.00267177
v 0.00326199 -0.00365196 -0.00218339
v 0.00268718 -0.00365196 -0.00286648
v 0.00249512 -0.00365196 -0.00304842
v 0.00221526 -0.00365196 -0.00323037
v 0.00181605 -0.00365196 -0.00346658
v 0.00144702 -0.00365196 -0.00365491
v 0.00123575 -0.00365196 -0.00374109
v 0.00067878 -0.00365196 -0.00385600
v 0.00029329 -0.00365196 -0.00392304
v -0.00008946 -0.00365196 -0.00392942
v -0.00047358 -0.00326752 -0.00386877
v -0.00325983 -0.00326752 -0.00218339
v -0.00329824 -0.00326752 -0.00213551
v -0.00342171 -0.00326752 -0.00194080
v -0.00380171 -0.00326752 -0.00119386
v -0.00528743 -0.00320183 0.00199496
v -0.00085770 -0.00326752 -0.00382089
v -0.00111836 -0.00326752 -0.00377301
v -0.00190992 -0.00326752 -0.00340912
v -0.00210198 -0.00326752 -0.00330059
v -0.00236675 -0.00326752 -0.00310907
v -0.00255744 -0.00326752 -0.00294947
v -0.00294018 -0.00326752 -0.00256324
v -0.00310755 -0.00326752 -0.00237172
v 0.00589870 -0.00320271 0.02392411
v -0.00074795 -0.00320183 0.02596062
v 0.00441984 -0.00320271 0.02515623
v 0.00488764 -0.00320271 0.02481788
v 0.00513869 -0.00320271 0.02461678
v 0.00584794 -0.00320271 0.02399434
v 0.00510988 -0.00462674 0.02433588
v 0.00511400 -0.00463380 0.02410925
v 0.00526216 -0.00442085 0.02372621
v 0.00526079 -0.00442085 0.00759376
v 0.00336762 -0.00631971 -0.00009581
v 0.00202869 -0.00731080 0.00015955
v 0.00202732 -0.00730948 -0.00009581
v 0.00458995 -0.00524838 0.00682767
v 0.00439652 -0.00544986 0.00644144
v 0.00400417 -0.00581755 0.00566897
v 0.00377095 -0.00600933 0.00874927
v 0.00358026 -0.00616276 0.01258926
v 0.00352813 -0.00595599 -0.00172693
v 0.00291491 -0.00660628 -0.00201740
v 0.00290531 -0.00660584 -0.00218339
v 0.00289159 -0.00660496 -0.00240045
v 0.00284357 -0.00657939 -0.00265261
v 0.00320849 -0.00621566 -0.00225361
v 0.00495761 -0.00482381 0.00720752
v 0.00511400 -0.00463247 0.01373839
v 0.00495898 -0.00482381 0.00797999
v 0.00476692 -0.00505572 0.00759376
v 0.00361456 -0.00557154 -0.00157052
v 0.00353087 -0.00442129 -0.00174289
v 0.00353225 -0.00480486 -0.00175247
v 0.00353362 -0.00518886 -0.00175885
v 0.00337723 -0.00442129 -0.00201740
v 0.00326336 -0.00376747 -0.00218339
v 0.00322221 -0.00595643 -0.00226957
v 0.00307405 -0.00595643 -0.00246109
v 0.00287787 -0.00557198 -0.00269092
v 0.00268992 -0.00403641 -0.00286967
v 0.00269130 -0.00518886 -0.00287925
v 0.00269130 -0.00557198 -0.00288244
v 0.00269130 -0.00595643 -0.00288563
v 0.00249786 -0.00403641 -0.00304842
v 0.00223721 -0.00634087 -0.00324314
v 0.00204515 -0.00634087 -0.00337720
v 0.00183114 -0.00634087 -0.00349212
v 0.00144702 -0.00403641 -0.00366129
v 0.00124536 -0.00403641 -0.00374428
v 0.00067878 -0.00557198 -0.00387835
v 0.00029329 -0.00595643 -0.00393900
v 0.00067878 -0.00672488 -0.00388793
v -0.00008946 -0.00710888 -0.00394857
v -0.00047358 -0.00710888 -0.00391665
v -0.00085770 -0.00365196 -0.00383366
v -0.00312264 -0.00365196 -0.00238768
v -0.00328452 -0.00365196 -0.00218339
v -0.00331333 -0.00365196 -0.00214508
v -0.00342719 -0.00365196 -0.00195037
v -0.00359868 -0.00365196 -0.00163117
v -0.00371528 -0.00365196 -0.00139496
v -0.00504187 -0.00365152 0.00143955
v -0.00715042 -0.00320183 0.00596583
v -0.00113345 -0.00365196 -0.00377940
v -0.00132551 -0.00365196 -0.00370279
v -0.00192364 -0.00365196 -0.00341551
v -0.00211570 -0.00365196 -0.00331655
v -0.00162457 -0.00365196 -0.00356234
v -0.00238047 -0.00365196 -0.00312503
v -0.00257253 -0.00365196 -0.00296543
v -0.00295527 -0.00365196 -0.00257920
v 0.00480670 -0.00480486 0.02477000
v 0.00517711 -0.00442085 0.02440611
v -0.00477985 -0.00320183 0.02824930
v 0.00364885 -0.00320271 0.02553927
v 0.00413724 -0.00518886 0.02520731
v 0.00435811 -0.00518886 0.02509239
v 0.00484923 -0.00442085 0.02478596
v 0.00474909 -0.00503764 0.02472850
v 0.00476829 -0.00505836 0.02449548
v 0.00496035 -0.00482602 0.02410925
v 0.00496035 -0.00482602 0.02180462
v 0.00182977 -0.00741397 -0.00009581
v 0.00358026 -0.00616276 0.01680911
v 0.00357889 -0.00616144 0.02487853
v 0.00336762 -0.00630781 0.02487853
v 0.00310148 -0.00648680 0.02487853
v 0.00290942 -0.00660408 0.02526157
v 0.00260075 -0.00678219 0.02526157
v 0.00237988 -0.00690387 0.02526157
v 0.00202457 -0.00730198 -0.00029052
v 0.00476966 -0.00505836 0.02257070
v 0.00459132 -0.00525058 0.02333998
v 0.00439926 -0.00544986 0.02449548
v 0.00419623 -0.00564120 0.00644144
v 0.00400417 -0.00581755 0.01258926
v 0.00377095 -0.00600933 0.01450767
v 0.00338271 -0.00595599 -0.00201740
v 0.00353362 -0.00557154 -0.00176204
v 0.00237988 -0.00689417 -0.00278668
v 0.00287650 -0.00634087 -0.00268773
v 0.00211512 -0.00696427 -0.00316972
v 0.00203692 -0.00692988 -0.00337082
v 0.00246906 -0.00663934 -0.00302927
v 0.00337997 -0.00480486 -0.00201740
v 0.00338271 -0.00557154 -0.00201740
v 0.00288199 -0.00595643 -0.00269092
v 0.00269130 -0.00634087 -0.00287925
v 0.00250061 -0.00634087 -0.00305162
v 0.00204515 -0.00672488 -0.00337720
v 0.00183114 -0.00672488 -0.00349531
v 0.00145114 -0.00480486 -0.00366768
v 0.00125633 -0.00453460 -0.00374748
v 0.00029329 -0.00710888 -0.00393900
v 0.00067878 -0.00710888 -0.00388793
v 0.00106290 -0.00672488 -0.00380174
v -0.00008946 -0.00746290 -0.00384643
v -0.00049416 -0.00752551 -0.00381770
v -0.00085770 -0.00710888 -0.00385600
v -0.00083301 -0.00751052 -0.00379216
v -0.00111561 -0.00739413 -0.00376982
v -0.00297585 -0.00634087 -0.00259835
v -0.00297860 -0.00710888 -0.00260473
v -0.00331470 -0.00403641 -0.00214508
v -0.00342719 -0.00403641 -0.00195356
v -0.00360279 -0.00557154 -0.00163117
v -0.00380720 -0.00672488 -0.00120344
v -0.00458779 -0.00518886 0.00046599
v -0.00761136 -0.00320183 0.00695216
v -0.00504187 -0.00595643 0.00143955
v -0.00114168 -0.00442041 -0.00377940
v -0.00133648 -0.00480486 -0.00370917
v -0.00133099 -0.00403641 -0.00370598
v -0.00193873 -0.00557198 -0.00342828
v -0.00212118 -0.00403641 -0.00331975
v -0.00162457 -0.00480486 -0.00357830
v -0.00238321 -0.00403641 -0.00312823
v -0.00258762 -0.00532950 -0.00297820
v 0.00434302 -0.00540048 0.02508282
v -0.00498700 -0.00320183 0.02834825
v 0.00357203 -0.00579374 0.02545947
v 0.00346503 -0.00320271 0.02561269
v 0.00437594 -0.00543134 0.02487853
v 0.00459132 -0.00525058 0.02449548
v 0.00476966 -0.00505836 0.02410925
v 0.00144565 -0.00751008 0.00028723
v 0.00144565 -0.00751052 -0.00009581
v 0.00144565 -0.00750699 -0.00047885
v 0.00184623 -0.00738266 -0.00044374
v 0.00218645 -0.00699072 0.02526157
v 0.00183251 -0.00714150 0.02526157
v 0.00152247 -0.00725922 0.02526157
v 0.00133041 -0.00732799 0.02526157
v 0.00106290 -0.00740779 0.02526157
v 0.00067878 -0.00750743 0.02526157
v 0.00377095 -0.00600889 0.02487853
v 0.00357203 -0.00615747 0.02511474
v 0.00310148 -0.00647578 0.02526157
v 0.00286964 -0.00657983 0.02551374
v 0.00213295 -0.00696648 0.02555524
v 0.00419485 -0.00564164 0.02449548
v 0.00419623 -0.00562180 0.02487853
v 0.00400417 -0.00581667 0.02487853
v 0.00218645 -0.00699205 -0.00278668
v 0.00183114 -0.00711196 -0.00316972
v 0.00130846 -0.00731962 -0.00343466
v 0.00096138 -0.00734122 -0.00378259
v 0.00125770 -0.00692812 -0.00374748
v 0.00145251 -0.00672488 -0.00367087
v 0.00145251 -0.00595643 -0.00367087
v 0.00125908 -0.00480486 -0.00374748
v 0.00067878 -0.00738707 -0.00381770
v 0.00029329 -0.00743072 -0.00384324
v 0.00107799 -0.00707758 -0.00378897
v 0.00125908 -0.00672488 -0.00374748
v -0.00063546 -0.00768775 -0.00374748
v -0.00069034 -0.00768775 -0.00374748
v -0.00114991 -0.00710888 -0.00377940
v -0.00114442 -0.00480486 -0.00377940
v -0.00162457 -0.00710888 -0.00359426
v -0.00134197 -0.00710888 -0.00371556
v -0.00094550 -0.00765028 -0.00368044
v -0.00190169 -0.00740823 -0.00341232
v -0.00258899 -0.00672488 -0.00298139
v -0.00278105 -0.00710888 -0.00279626
v -0.00258762 -0.00730463 -0.00297820
v -0.00297585 -0.00730860 -0.00260154
v -0.00328726 -0.00672488 -0.00218339
v -0.00312950 -0.00672488 -0.00240045
v -0.00342994 -0.00557154 -0.00195356
v -0.00331470 -0.00480486 -0.00214508
v -0.00360279 -0.00672488 -0.00163117
v -0.00396496 -0.00672488 -0.00086509
v -0.00458779 -0.00634087 0.00046599
v -0.00344091 -0.00704848 -0.00187696
v -0.00761136 -0.00365108 0.00695216
v -0.00775678 -0.00320183 0.00726817
v -0.00492115 -0.00634087 0.00118419
v -0.00701323 -0.00442085 0.00566897
v -0.00133922 -0.00595643 -0.00371236
v -0.00162457 -0.00672488 -0.00359426
v -0.00162457 -0.00557198 -0.00358468
v -0.00194284 -0.00672488 -0.00343466
v -0.00212530 -0.00442041 -0.00331975
v -0.00239418 -0.00557198 -0.00313142
v 0.00398359 -0.00579903 0.02511793
v 0.00327708 -0.00623065 0.02550416
v -0.00585264 -0.00320183 0.02864830
v 0.00339094 -0.00593526 0.02551374
v -0.00546852 -0.00557198 0.02845678
v -0.00508440 -0.00595599 0.02831952
v 0.00029466 -0.00758414 0.02526157
v 0.00029466 -0.00758635 0.02487853
v -0.00008946 -0.00764234 0.02487853
v -0.00039539 -0.00767541 0.02487853
v -0.00040636 -0.00767364 -0.00355276
v -0.00038578 -0.00767849 0.00379207
v -0.00038578 -0.00767849 0.00374738
v 0.00144565 -0.00747789 -0.00086509
v -0.00008946 -0.00763573 -0.00355276
v 0.00029329 -0.00757444 -0.00355276
v 0.00067878 -0.00749112 -0.00355276
v 0.00152659 -0.00725745 -0.00316972
v 0.00130572 -0.00731830 0.02551055
v 0.00106290 -0.00735489 0.02556481
v 0.00339094 -0.00626195 0.02525199
v 0.00299311 -0.00635057 0.02556481
v 0.00260075 -0.00633999 0.02571484
v 0.00260075 -0.00665742 0.02557758
v 0.00224407 -0.00675794 0.02565099
v 0.00183251 -0.00702952 0.02562227
v 0.00107799 -0.00736900 -0.00355915
v -0.00059842 -0.00769039 -0.00355276
v -0.00083301 -0.00769436 -0.00355276
v -0.00124045 -0.00769480 -0.00341870
v -0.00147367 -0.00768951 -0.00337401
v -0.00194284 -0.00710888 -0.00343466
v -0.00161085 -0.00751889 -0.00346339
v -0.00239418 -0.00738090 -0.00305481
v -0.00213490 -0.00710888 -0.00331975
v -0.00258899 -0.00710888 -0.00298139
v -0.00239418 -0.00710888 -0.00313142
v -0.00274126 -0.00735797 -0.00275157
v -0.00239418 -0.00752374 -0.00278668
v -0.00277830 -0.00747392 -0.00240045
v -0.00303759 -0.00734783 -0.00240045
v -0.00337506 -0.00731874 -0.00187057
v -0.00340799 -0.00710932 -0.00192484
v -0.00330098 -0.00710932 -0.00211636
v -0.00325846 -0.00710888 -0.00218339
v -0.00328452 -0.00678219 -0.00218339
v -0.00331333 -0.00672488 -0.00214508
v -0.00342994 -0.00672488 -0.00195356
v -0.00415428 -0.00695193 -0.00036394
v -0.00417623 -0.00672488 -0.00040544
v -0.00760176 -0.00389312 0.00697770
v -0.00793512 -0.00320183 0.00768633
v -0.00736992 -0.00403553 0.00644144
v -0.00491017 -0.00655734 0.00120653
v -0.00558650 -0.00593967 0.00263017
v -0.00603510 -0.00557198 0.00358459
v -0.00539993 -0.00595643 0.00221202
v -0.00629575 -0.00518886 0.00413361
v -0.00677865 -0.00480486 0.00518059
v -0.00686096 -0.00480486 0.00536892
v -0.00213353 -0.00634087 -0.00331975
v -0.00213079 -0.00557198 -0.00331975
v -0.00623813 -0.00320183 0.02866107
v -0.00604333 -0.00538329 0.02853339
v -0.00546852 -0.00595599 0.02838017
v -0.00589105 -0.00553451 0.02850147
v -0.00487176 -0.00654456 0.02815673
v -0.00061351 -0.00769039 0.02546586
v -0.00008946 -0.00763837 0.02526157
v -0.00039539 -0.00767452 0.02526157
v -0.00058745 -0.00769260 0.02526157
v -0.00058882 -0.00769304 0.02295693
v -0.00057647 -0.00769260 0.00379207
v -0.00057647 -0.00769260 0.00374738
v -0.00331882 -0.00731124 0.02700760
v 0.00067878 -0.00740471 0.02559354
v -0.00058607 -0.00769304 0.00336434
v -0.00086045 -0.00770494 0.00336434
v -0.00124045 -0.00769921 -0.00316972
v -0.00150385 -0.00769216 -0.00316972
v -0.00169728 -0.00766526 -0.00316972
v -0.00200869 -0.00762779 -0.00278668
v -0.00277693 -0.00749068 -0.00201740
v -0.00316105 -0.00741000 -0.00163117
v -0.00317340 -0.00737737 -0.00200783
v -0.00339838 -0.00732799 -0.00163117
v -0.00435320 -0.00693517 0.00046599
v -0.00447118 -0.00688139 0.00067347
v -0.00419406 -0.00697573 -0.00009581
v -0.00494721 -0.00658600 0.00143955
v -0.00722587 -0.00442085 0.00618289
v -0.00720667 -0.00462410 0.00622119
v -0.00763331 -0.00393853 0.00720752
v -0.00780068 -0.00365108 0.00759376
v -0.00800920 -0.00320183 0.00797680
v -0.00566470 -0.00615350 0.00312174
v -0.00607625 -0.00579815 0.00383675
v -0.00646312 -0.00542341 0.00462199
v -0.00610918 -0.00557198 0.00377291
v -0.00593495 -0.00557198 0.00336434
v -0.00648918 -0.00518886 0.00457092
v -0.00684038 -0.00503411 0.00541361
v -0.00661677 -0.00320183 0.02854296
v -0.00662225 -0.00480486 0.02842167
v -0.00604470 -0.00538329 0.02853339
v -0.00546852 -0.00622757 0.02822695
v -0.00492664 -0.00654456 0.02815673
v -0.00582109 -0.00593923 0.02828441
v -0.00066564 -0.00769172 0.02547543
v -0.00066564 -0.00769348 0.02542436
v -0.00066564 -0.00769657 0.02526476
v -0.00339015 -0.00731124 0.02700760
v -0.00161771 -0.00767761 0.02567972
v -0.00124182 -0.00769348 0.02557120
v -0.00086045 -0.00770406 0.02526476
v -0.00124182 -0.00770583 0.00379207
v -0.00152717 -0.00769304 0.00336434
v -0.00154912 -0.00769172 0.00379207
v -0.00171923 -0.00767849 0.00336434
v -0.00200869 -0.00764763 0.00336434
v -0.00239281 -0.00758943 0.00298129
v -0.00277830 -0.00750919 0.00221202
v -0.00341896 -0.00732711 -0.00009581
v -0.00341622 -0.00732755 -0.00124813
v -0.00277968 -0.00750919 0.00528593
v -0.00277968 -0.00750919 0.00644144
v -0.00277968 -0.00750611 0.02603404
v -0.00316380 -0.00740338 0.02641708
v -0.00342445 -0.00732359 0.02641708
v -0.00447529 -0.00690167 0.00105651
v -0.00499111 -0.00660143 0.00182578
v -0.00721215 -0.00463115 0.00644144
v -0.00765526 -0.00396058 0.00759376
v -0.00685684 -0.00505131 0.00566897
v -0.00782812 -0.00365108 0.00797680
v -0.00794747 -0.00338656 0.00797680
v -0.00805173 -0.00320183 0.00836303
v -0.00520375 -0.00648372 0.00259825
v -0.00567018 -0.00615570 0.00336434
v -0.00609683 -0.00581447 0.00413361
v -0.00648918 -0.00544457 0.00490289
v -0.00729858 -0.00320183 0.02824610
v -0.00698854 -0.00476738 0.02822695
v -0.00660991 -0.00517563 0.02830356
v -0.00700637 -0.00442085 0.02828122
v -0.00719981 -0.00461528 0.02815034
v -0.00619149 -0.00553186 0.02836421
v -0.00567293 -0.00615791 0.02816630
v -0.00517083 -0.00648857 0.02795244
v -0.00497877 -0.00657850 0.02795244
v -0.00423248 -0.00696339 0.02745768
v -0.00608449 -0.00579903 0.02823972
v -0.00086045 -0.00769569 0.02549459
v -0.00360828 -0.00726186 0.02680012
v -0.00341622 -0.00732006 0.02680012
v -0.00239556 -0.00757092 0.02603404
v -0.00428735 -0.00698720 0.02718636
v -0.00201006 -0.00764543 0.02564780
v -0.00170140 -0.00767761 0.02526476
v -0.00150934 -0.00769128 0.02526476
v -0.00148327 -0.00768819 0.02557439
v -0.00124182 -0.00770318 0.02526476
v -0.00124182 -0.00770362 0.02449548
v -0.00124182 -0.00770406 0.02065230
v -0.00152443 -0.00769304 0.00912912
v -0.00152580 -0.00769304 0.00720752
v -0.00152717 -0.00769304 0.00490289
v -0.00171923 -0.00767849 0.00379207
v -0.00201006 -0.00764763 0.00379207
v -0.00239556 -0.00758943 0.00379207
v -0.00361651 -0.00726142 0.02641708
v -0.00393204 -0.00713930 0.02680012
v -0.00447529 -0.00690387 0.00143955
v -0.00239556 -0.00758943 0.00566897
v -0.00239556 -0.00758679 0.02564780
v -0.00470028 -0.00677998 0.00182578
v -0.00500895 -0.00660143 0.00221202
v -0.00500209 -0.00660143 0.00206199
v -0.00685959 -0.00505307 0.00605521
v -0.00705302 -0.00482381 0.00644144
v -0.00721352 -0.00463115 0.00836303
v -0.00735483 -0.00442085 0.00720752
v -0.00753180 -0.00415236 0.00759376
v -0.00765664 -0.00396058 0.00874608
v -0.00668810 -0.00524485 0.00566897
v -0.00794747 -0.00341962 0.00836303
v -0.00804213 -0.00322740 0.00836303
v -0.00783086 -0.00365108 0.01181999
v -0.00805310 -0.00320183 0.00839176
v -0.00520375 -0.00648812 0.00298129
v -0.00546852 -0.00630252 0.00336434
v -0.00610095 -0.00581447 0.00451985
v -0.00567841 -0.00616144 0.02257389
v -0.00629301 -0.00563591 0.00490289
v -0.00649604 -0.00544457 0.00528593
v -0.00721901 -0.00442085 0.02816630
v -0.00744263 -0.00320183 0.02811204
v -0.00684861 -0.00503720 0.02819822
v -0.00647546 -0.00542649 0.02823972
v -0.00769230 -0.00320183 0.02786945
v -0.00761960 -0.00391561 0.02780561
v -0.00764703 -0.00395970 0.02757259
v -0.00753728 -0.00415060 0.02757259
v -0.00720667 -0.00462410 0.02795244
v -0.00705850 -0.00481588 0.02795244
v -0.00686644 -0.00505616 0.02795244
v -0.00610369 -0.00581491 0.02795244
v -0.00587047 -0.00600845 0.02795244
v -0.00567841 -0.00616144 0.02795244
v -0.00546852 -0.00630957 0.02795244
v -0.00501443 -0.00660584 0.02757259
v -0.00470028 -0.00677161 0.02757259
v -0.00649879 -0.00544986 0.02795244
v -0.00629575 -0.00564076 0.02795244
v -0.00447804 -0.00690431 0.02718636
v -0.00447804 -0.00690431 0.02641708
v -0.00201006 -0.00764719 0.01489390
v -0.00151071 -0.00769172 0.02334317
v -0.00201006 -0.00764763 0.00566897
v -0.00456309 -0.00685626 0.00206199
v -0.00467559 -0.00679453 0.00379207
v -0.00497739 -0.00662171 0.00379207
v -0.00501032 -0.00660143 0.00259825
v -0.00686096 -0.00505307 0.00644144
v -0.00686644 -0.00505616 0.02680012
v -0.00721352 -0.00463115 0.01796143
v -0.00735894 -0.00442085 0.02603404
v -0.00735620 -0.00442085 0.00912912
v -0.00705850 -0.00482381 0.02564780
v -0.00753317 -0.00415236 0.00874608
v -0.00753728 -0.00415765 0.02718636
v -0.00765801 -0.00396102 0.01489390
v -0.00783498 -0.00365108 0.02449548
v -0.00649879 -0.00544986 0.02065230
v -0.00669085 -0.00524750 0.02103853
v -0.00795021 -0.00342491 0.01719534
v -0.00795158 -0.00342712 0.02180462
v -0.00804213 -0.00322961 0.01143375
v -0.00805447 -0.00320183 0.01066767
v -0.00520650 -0.00648901 0.02757259
v -0.00546852 -0.00631001 0.02757259
v -0.00629301 -0.00563635 0.00528593
v -0.00587047 -0.00600669 0.02180462
v -0.00587047 -0.00600845 0.02757259
v -0.00610095 -0.00581491 0.00605521
v -0.00629575 -0.00564076 0.02757259
v -0.00668947 -0.00524838 0.02795244
v -0.00785007 -0.00320183 0.02764920
v -0.00788299 -0.00320183 0.02757897
v -0.00792964 -0.00320183 0.02747364
v -0.00801606 -0.00320183 0.02718636
v -0.00795158 -0.00339802 0.02718636
v -0.00783360 -0.00365108 0.02718636
v -0.00765801 -0.00396587 0.02718636
v -0.00735894 -0.00442085 0.02757259
v -0.00721215 -0.00463159 0.02757259
v -0.00705850 -0.00482381 0.02757259
v -0.00669085 -0.00524794 0.02603404
v -0.00610369 -0.00581491 0.02757259
v -0.00470028 -0.00678219 0.02718636
v -0.00669085 -0.00524794 0.02449548
v -0.00783498 -0.00365108 0.02680012
v -0.00795158 -0.00342932 0.02641708
v -0.00795158 -0.00342844 0.02449548
v -0.00804213 -0.00323754 0.02526476
v -0.00804213 -0.00323225 0.01527694
v -0.00805859 -0.00320183 0.02603404
v -0.00805310 -0.00320183 0.02683843
v -0.00804213 -0.00323754 0.02680012
v -0.00795158 -0.00342932 0.02680012
v -0.00805859 -0.00320183 0.02641708
v -0.00805447 -0.00320183 0.02680012
f 1 2 3
f 1 3 4
f 1 4 5
f 1 5 6
f 1 6 2
f 2 7 8
f 2 8 3
f 2 6 7
f 3 8 9
f 3 9 10
f 3 10 4
f 4 10 11
f 4 11 12
f 4 12 5
f 5 12 13
f 5 13 6
f 6 14 15
f 6 15 16
f 6 16 17
f 6 17 18
f 6 18 19
f 6 19 20
f 6 20 21
f 6 21 22
f 6 22 23
f 6 23 24
f 6 24 25
f 6 25 26
f 6 26 27
f 6 27 28
f 6 28 29
f 6 29 64
f 6 64 113
f 6 113 182
f 6 182 248
f 6 248 316
f 6 316 376
f 6 376 419
f 6 419 461
f 6 461 513
f 6 513 563
f 6 563 591
f 6 591 595
f 6 595 596
f 6 596 592
f 6 592 575
f 6 575 574
f 6 574 573
f 6 573 572
f 6 572 524
f 6 524 521
f 6 521 466
f 6 466 427
f 6 427 387
f 6 387 327
f 6 327 259
f 6 259 193
f 6 193 123
f 6 123 77
f 6 77 75
f 6 75 30
f 6 30 31
f 6 31 32
f 6 32 7
f 6 13 33
f 6 33 14
f 7 32 8
f 8 32 34
f 8 34 9
f 9 34 35
f 9 35 36
f 9 36 37
f 9 37 10
f 10 38 11
f 10 37 38
f 11 38 39
f 11 39 40
f 11 40 12
f 12 40 13
f 13 40 41
f 13 41 42
f 13 42 33
f 14 43 15
f 14 33 43
f 15 44 45
f 15 45 16
f 15 43 44
f 16 45 46
f 16 46 17
f 17 46 47
f 17 47 18
f 18 47 19
f 19 48 49
f 19 49 20
f 19 47 48
f 20 49 50
f 20 50 21
f 21 50 22
f 22 50 51
f 22 51 52
f 22 52 23
f 23 53 54
f 23 54 24
f 23 52 53
f 24 54 55
f 24 55 25
f 25 56 57
f 25 57 26
f 25 55 56
f 26 57 58
f 26 58 27
f 27 58 28
f 28 58 59
f 28 59 60
f 28 60 29
f 29 61 62
f 29 62 63
f 29 63 64
f 29 60 65
f 29 65 66
f 29 66 67
f 29 67 68
f 29 68 69
f 29 69 70
f 29 70 71
f 29 71 72
f 29 72 73
f 29 73 74
f 29 74 61
f 30 75 31
f 31 76 34
f 31 34 32
f 31 75 77
f 31 77 76
f 33 42 78
f 33 78 79
f 33 79 80
f 33 80 43
f 34 76 81
f 34 81 35
f 35 81 36
f 36 82 37
f 36 81 83
f 36 83 82
f 37 82 38
f 38 82 39
f 39 82 84
f 39 84 85
f 39 85 40
f 40 86 87
f 40 87 41
f 40 85 88
f 40 88 89
f 40 89 90
f 40 90 86
f 41 87 42
f 42 87 91
f 42 91 92
f 42 92 78
f 43 80 44
f 44 80 93
f 44 93 45
f 45 94 46
f 45 93 94
f 46 94 47
f 47 95 48
f 47 94 95
f 48 96 97
f 48 97 49
f 48 95 98
f 48 98 96
f 49 97 99
f 49 99 50
f 50 99 51
f 51 100 101
f 51 101 52
f 51 99 100
f 52 101 53
f 53 102 103
f 53 103 54
f 53 101 102
f 54 103 104
f 54 104 55
f 55 104 56
f 56 105 57
f 56 104 105
f 57 105 106
f 57 106 58
f 58 106 107
f 58 107 59
f 59 107 108
f 59 108 65
f 59 65 60
f 61 109 110
f 61 110 62
f 61 74 109
f 62 110 111
f 62 111 112
f 62 112 63
f 63 112 64
f 64 112 113
f 65 108 66
f 66 114 67
f 66 108 114
f 67 114 115
f 67 115 116
f 67 116 68
f 68 116 117
f 68 117 69
f 69 117 118
f 69 118 70
f 70 118 119
f 70 119 71
f 71 119 72
f 72 119 120
f 72 120 73
f 73 120 74
f 74 120 121
f 74 121 109
f 76 77 122
f 76 122 81
f 77 123 124
f 77 124 125
f 77 125 126
f 77 126 127
f 77 127 122
f 78 92 79
f 79 92 80
f 80 92 93
f 81 122 128
f 81 128 83
f 82 83 84
f 83 129 130
f 83 130 84
f 83 128 129
f 84 130 85
f 85 131 89
f 85 89 88
f 85 130 131
f 86 132 133
f 86 133 134
f 86 134 87
f 86 90 135
f 86 135 136
f 86 136 137
f 86 137 138
f 86 138 139
f 86 139 132
f 87 140 91
f 87 134 141
f 87 141 142
f 87 142 143
f 87 143 144
f 87 144 145
f 87 145 140
f 89 146 90
f 89 131 147
f 89 147 148
f 89 148 146
f 90 146 148
f 90 148 149
f 90 149 135
f 91 140 92
f 92 140 150
f 92 150 93
f 93 150 151
f 93 151 94
f 94 151 95
f 95 151 152
f 95 152 153
f 95 153 154
f 95 154 155
f 95 155 98
f 96 98 155
f 96 155 156
f 96 156 157
f 96 157 158
f 96 158 97
f 97 158 99
f 99 158 159
f 99 159 100
f 100 159 160
f 100 160 161
f 100 161 162
f 100 162 163
f 100 163 164
f 100 164 165
f 100 165 101
f 101 165 102
f 102 165 166
f 102 166 167
f 102 167 103
f 103 167 168
f 103 168 104
f 104 168 105
f 105 169 106
f 105 168 169
f 106 170 107
f 106 169 171
f 106 171 170
f 107 170 172
f 107 172 173
f 107 173 174
f 107 174 114
f 107 114 108
f 109 121 175
f 109 175 110
f 110 175 176
f 110 176 177
f 110 177 111
f 111 178 179
f 111 179 112
f 111 177 178
f 112 179 180
f 112 180 181
f 112 181 182
f 112 182 113
f 114 174 115
f 115 174 183
f 115 183 184
f 115 184 116
f 116 185 186
f 116 186 117
f 116 184 187
f 116 187 185
f 117 186 188
f 117 188 118
f 118 188 189
f 118 189 119
f 119 189 190
f 119 190 120
f 120 190 175
f 120 175 121
f 122 127 191
f 122 191 192
f 122 192 128
f 123 193 124
f 124 194 195
f 124 195 196
f 124 196 197
f 124 197 125
f 124 193 194
f 125 197 126
f 126 197 127
f 127 197 191
f 128 192 198
f 128 198 199
f 128 199 129
f 129 199 200
f 129 200 201
f 129 201 147
f 129 147 131
f 129 131 130
f 132 139 133
f 133 202 134
f 133 139 203
f 133 203 204
f 133 204 205
f 133 205 206
f 133 206 207
f 133 207 208
f 133 208 209
f 133 209 202
f 134 202 210
f 134 210 143
f 134 143 142
f 134 142 141
f 135 149 211
f 135 211 212
f 135 212 136
f 136 212 213
f 136 213 214
f 136 214 137
f 137 214 215
f 137 215 216
f 137 216 138
f 138 216 203
f 138 203 139
f 140 217 218
f 140 218 150
f 140 145 217
f 143 219 144
f 143 210 219
f 144 220 145
f 144 219 221
f 144 221 222
f 144 222 223
f 144 223 220
f 145 220 156
f 145 156 217
f 147 201 148
f 148 201 211
f 148 211 149
f 150 218 153
f 150 153 152
f 150 152 151
f 153 218 224
f 153 224 154
f 154 224 155
f 155 224 156
f 156 220 157
f 156 224 225
f 156 225 217
f 157 220 226
f 157 226 158
f 158 226 159
f 159 226 160
f 160 226 161
f 161 226 162
f 162 226 227
f 162 227 228
f 162 228 163
f 163 228 164
f 164 229 165
f 164 228 229
f 165 229 230
f 165 230 166
f 166 230 231
f 166 231 167
f 167 231 232
f 167 232 168
f 168 232 169
f 169 232 171
f 170 233 172
f 170 171 234
f 170 234 233
f 171 232 235
f 171 235 234
f 172 233 236
f 172 236 237
f 172 237 173
f 173 238 174
f 173 237 239
f 173 239 240
f 173 240 238
f 174 238 183
f 175 190 241
f 175 241 242
f 175 242 176
f 176 243 177
f 176 242 243
f 177 243 244
f 177 244 178
f 178 244 179
f 179 244 245
f 179 245 180
f 180 245 246
f 180 246 247
f 180 247 181
f 181 248 182
f 181 247 313
f 181 313 249
f 181 249 315
f 181 315 248
f 183 250 251
f 183 251 252
f 183 252 184
f 183 238 250
f 184 252 187
f 185 253 254
f 185 254 186
f 185 187 255
f 185 255 253
f 186 254 188
f 187 252 255
f 188 254 256
f 188 256 257
f 188 257 189
f 189 257 190
f 190 257 241
f 191 198 192
f 191 197 258
f 191 258 198
f 193 259 194
f 194 260 195
f 194 259 261
f 194 261 260
f 195 260 196
f 196 260 258
f 196 258 197
f 198 258 262
f 198 262 199
f 199 262 263
f 199 263 264
f 199 264 200
f 200 264 211
f 200 211 201
f 202 265 266
f 202 266 267
f 202 267 268
f 202 268 210
f 202 209 269
f 202 269 270
f 202 270 271
f 202 271 272
f 202 272 273
f 202 273 274
f 202 274 265
f 203 216 275
f 203 275 204
f 204 275 276
f 204 276 205
f 205 276 277
f 205 277 206
f 206 277 207
f 207 277 278
f 207 278 208
f 208 278 209
f 209 278 279
f 209 279 269
f 210 268 219
f 211 264 263
f 211 263 212
f 212 263 213
f 213 280 214
f 213 263 281
f 213 281 282
f 213 282 280
f 214 280 215
f 215 280 282
f 215 282 275
f 215 275 216
f 217 225 218
f 218 225 224
f 219 268 283
f 219 283 284
f 219 284 221
f 220 227 226
f 220 223 227
f 221 284 285
f 221 285 222
f 222 229 228
f 222 228 227
f 222 227 223
f 222 285 286
f 222 286 287
f 222 287 230
f 222 230 229
f 230 287 288
f 230 288 289
f 230 289 231
f 231 289 290
f 231 290 232
f 232 290 235
f 233 234 291
f 233 291 292
f 233 292 236
f 234 235 293
f 234 293 286
f 234 286 291
f 235 290 294
f 235 294 287
f 235 287 293
f 236 292 295
f 236 295 296
f 236 296 237
f 237 296 239
f 238 297 298
f 238 298 250
f 238 240 297
f 239 296 240
f 240 299 300
f 240 300 297
f 240 296 301
f 240 301 302
f 240 302 299
f 241 257 242
f 242 257 303
f 242 303 304
f 242 304 305
f 242 305 306
f 242 306 307
f 242 307 308
f 242 308 243
f 243 309 244
f 243 308 307
f 243 307 310
f 243 310 372
f 243 372 309
f 244 309 245
f 245 309 372
f 245 372 311
f 245 311 246
f 246 312 313
f 246 313 247
f 246 311 314
f 246 314 312
f 248 315 316
f 249 313 317
f 249 317 318
f 249 318 315
f 250 298 300
f 250 300 319
f 250 319 251
f 251 319 320
f 251 320 252
f 252 320 321
f 252 321 255
f 253 255 321
f 253 321 320
f 253 320 322
f 253 322 254
f 254 323 256
f 254 322 323
f 256 323 324
f 256 324 257
f 257 324 303
f 258 325 262
f 258 260 326
f 258 326 325
f 259 327 261
f 260 261 328
f 260 328 326
f 261 327 329
f 261 329 330
f 261 330 328
f 262 325 281
f 262 281 263
f 265 274 331
f 265 331 332
f 265 332 333
f 265 333 334
f 265 334 266
f 266 335 267
f 266 334 336
f 266 336 337
f 266 337 335
f 267 338 268
f 267 335 339
f 267 339 340
f 267 340 341
f 267 341 338
f 268 338 285
f 268 285 342
f 268 342 283
f 269 279 270
f 270 279 343
f 270 343 271
f 271 343 272
f 272 343 273
f 273 343 274
f 274 343 344
f 274 344 331
f 275 282 276
f 276 282 325
f 276 325 345
f 276 345 277
f 277 345 278
f 278 326 346
f 278 346 347
f 278 347 348
f 278 348 279
f 278 345 326
f 279 348 349
f 279 349 350
f 279 350 343
f 281 325 282
f 283 342 284
f 284 342 285
f 285 341 351
f 285 351 286
f 285 338 341
f 286 351 341
f 286 341 340
f 286 340 291
f 286 293 287
f 287 294 288
f 288 294 290
f 288 290 289
f 291 340 295
f 291 295 292
f 295 340 339
f 295 339 335
f 295 335 352
f 295 352 353
f 295 353 296
f 296 353 354
f 296 354 355
f 296 355 301
f 297 300 298
f 299 356 322
f 299 322 320
f 299 320 300
f 299 302 356
f 300 320 319
f 301 357 302
f 301 355 357
f 302 355 358
f 302 358 305
f 302 305 359
f 302 359 356
f 302 357 355
f 303 324 361
f 303 361 360
f 303 360 304
f 304 360 305
f 305 360 361
f 305 361 359
f 305 358 306
f 306 362 363
f 306 363 364
f 306 364 365
f 306 365 366
f 306 366 367
f 306 367 368
f 306 368 369
f 306 369 370
f 306 370 371
f 306 371 307
f 306 358 362
f 307 371 310
f 310 371 372
f 311 372 314
f 312 314 367
f 312 367 373
f 312 373 374
f 312 374 317
f 312 317 313
f 314 372 368
f 314 368 367
f 315 375 376
f 315 376 316
f 315 318 377
f 315 377 375
f 317 374 378
f 317 378 379
f 317 379 380
f 317 380 381
f 317 381 382
f 317 382 318
f 318 382 380
f 318 380 383
f 318 383 384
f 318 384 377
f 322 359 385
f 322 385 386
f 322 386 323
f 322 356 359
f 323 386 324
f 324 386 385
f 324 385 359
f 324 359 361
f 325 326 345
f 326 328 347
f 326 347 346
f 327 387 388
f 327 388 329
f 328 330 347
f 329 389 330
f 329 388 390
f 329 390 389
f 330 389 391
f 330 391 347
f 331 344 392
f 331 392 393
f 331 393 333
f 331 333 332
f 333 393 394
f 333 394 334
f 334 394 395
f 334 395 336
f 335 337 352
f 336 395 396
f 336 396 397
f 336 397 398
f 336 398 337
f 337 398 352
f 343 350 344
f 344 350 399
f 344 399 400
f 344 400 392
f 347 391 348
f 348 391 349
f 349 391 350
f 350 391 399
f 352 398 401
f 352 401 402
f 352 402 353
f 353 403 354
f 353 402 403
f 354 403 355
f 355 403 404
f 355 404 405
f 355 405 363
f 355 363 358
f 358 363 362
f 363 405 364
f 364 405 406
f 364 406 407
f 364 407 408
f 364 408 409
f 364 409 366
f 364 366 365
f 366 409 408
f 366 408 410
f 366 410 411
f 366 411 412
f 366 412 413
f 366 413 373
f 366 373 367
f 368 372 371
f 368 371 370
f 368 370 369
f 373 413 412
f 373 412 414
f 373 414 378
f 373 378 374
f 375 377 384
f 375 384 415
f 375 415 416
f 375 416 417
f 375 417 418
f 375 418 419
f 375 419 376
f 378 414 420
f 378 420 421
f 378 421 422
f 378 422 423
f 378 423 380
f 378 380 379
f 380 424 381
f 380 423 425
f 380 425 383
f 380 382 424
f 381 424 382
f 383 425 384
f 384 425 426
f 384 426 415
f 387 427 428
f 387 428 429
f 387 429 388
f 388 429 390
f 389 390 430
f 389 430 431
f 389 431 391
f 390 429 432
f 390 432 430
f 391 431 436
f 391 436 399
f 392 400 399
f 392 399 433
f 392 433 434
f 392 434 435
f 392 435 395
f 392 395 394
f 392 394 393
f 395 435 396
f 396 435 397
f 397 401 398
f 397 435 401
f 399 436 437
f 399 437 438
f 399 438 433
f 401 435 402
f 402 435 439
f 402 439 440
f 402 440 403
f 403 440 404
f 404 406 405
f 404 440 441
f 404 441 442
f 404 442 443
f 404 443 444
f 404 444 406
f 406 444 445
f 406 445 407
f 407 445 446
f 407 446 408
f 408 447 448
f 408 448 410
f 408 446 449
f 408 449 450
f 408 450 451
f 408 451 452
f 408 452 453
f 408 453 447
f 410 448 454
f 410 454 411
f 411 454 412
f 412 454 455
f 412 455 414
f 414 455 420
f 415 426 416
f 416 456 457
f 416 457 417
f 416 426 458
f 416 458 456
f 417 457 418
f 418 457 459
f 418 459 460
f 418 460 419
f 419 460 461
f 420 462 463
f 420 463 464
f 420 464 421
f 420 455 462
f 421 464 465
f 421 465 422
f 422 465 426
f 422 426 425
f 422 425 423
f 426 465 458
f 427 466 428
f 428 467 468
f 428 468 429
f 428 466 469
f 428 469 470
f 428 470 467
f 429 468 471
f 429 471 432
f 430 432 472
f 430 472 431
f 431 472 473
f 431 473 474
f 431 474 475
f 431 475 436
f 432 476 472
f 432 471 476
f 433 438 477
f 433 477 439
f 433 439 434
f 434 439 435
f 436 478 479
f 436 479 452
f 436 452 451
f 436 451 480
f 436 480 437
f 436 475 481
f 436 481 478
f 437 480 482
f 437 482 483
f 437 483 484
f 437 484 485
f 437 485 438
f 438 485 486
f 438 486 439
f 438 439 477
f 439 486 487
f 439 487 488
f 439 488 440
f 440 488 489
f 440 489 490
f 440 490 491
f 440 491 441
f 441 491 442
f 442 492 443
f 442 491 490
f 442 490 489
f 442 489 483
f 442 483 492
f 443 492 543
f 443 543 493
f 443 493 444
f 444 493 494
f 444 494 445
f 445 494 446
f 446 494 449
f 447 453 495
f 447 495 496
f 447 496 448
f 448 496 497
f 448 497 454
f 449 494 498
f 449 498 450
f 450 498 499
f 450 499 451
f 451 499 480
f 452 479 478
f 452 478 453
f 453 478 495
f 454 497 500
f 454 500 501
f 454 501 502
f 454 502 455
f 455 502 462
f 456 458 503
f 456 503 504
f 456 504 505
f 456 505 552
f 456 552 506
f 456 506 507
f 456 507 457
f 457 507 554
f 457 554 508
f 457 508 459
f 458 465 509
f 458 509 503
f 459 510 511
f 459 511 460
f 459 508 512
f 459 512 510
f 460 511 461
f 461 511 513
f 462 501 514
f 462 514 515
f 462 515 463
f 462 502 501
f 463 516 464
f 463 515 517
f 463 517 516
f 464 516 518
f 464 518 519
f 464 519 465
f 465 519 509
f 466 520 469
f 466 521 520
f 467 470 468
f 468 470 522
f 468 522 523
f 468 523 471
f 469 520 470
f 470 524 525
f 470 525 526
f 470 526 527
f 470 527 528
f 470 528 529
f 470 529 530
f 470 530 522
f 470 520 524
f 471 523 476
f 472 476 531
f 472 531 532
f 472 532 533
f 472 533 534
f 472 534 473
f 473 534 535
f 473 535 536
f 473 536 474
f 474 536 475
f 475 536 481
f 476 523 537
f 476 537 538
f 476 538 531
f 478 496 495
f 478 481 496
f 480 499 482
f 481 536 539
f 481 539 540
f 481 540 497
f 481 497 496
f 482 499 541
f 482 541 483
f 483 542 484
f 483 541 492
f 483 489 542
f 484 486 485
f 484 542 487
f 484 487 486
f 487 542 489
f 487 489 488
f 492 541 543
f 493 543 498
f 493 498 494
f 497 544 500
f 497 540 544
f 498 543 541
f 498 541 499
f 500 544 545
f 500 545 535
f 500 535 546
f 500 546 547
f 500 547 501
f 501 547 514
f 503 509 548
f 503 548 504
f 504 548 549
f 504 549 505
f 505 550 579
f 505 579 551
f 505 551 552
f 505 549 553
f 505 553 581
f 505 581 550
f 506 552 554
f 506 554 507
f 508 554 555
f 508 555 556
f 508 556 557
f 508 557 512
f 509 519 558
f 509 558 559
f 509 559 549
f 509 549 548
f 510 512 560
f 510 560 511
f 511 560 561
f 511 561 562
f 511 562 563
f 511 563 513
f 512 557 561
f 512 561 560
f 514 547 546
f 514 546 535
f 514 535 564
f 514 564 565
f 514 565 517
f 514 517 515
f 516 566 518
f 516 517 567
f 516 567 568
f 516 568 569
f 516 569 570
f 516 570 566
f 517 565 533
f 517 533 532
f 517 532 568
f 517 568 567
f 518 566 519
f 519 566 558
f 520 521 524
f 522 530 571
f 522 571 523
f 523 571 537
f 524 572 525
f 525 572 573
f 525 573 574
f 525 574 575
f 525 575 576
f 525 576 526
f 526 576 577
f 526 577 578
f 526 578 527
f 527 579 528
f 527 578 555
f 527 555 579
f 528 579 580
f 528 580 529
f 529 580 581
f 529 581 530
f 530 581 553
f 530 553 549
f 530 549 585
f 530 585 582
f 530 582 571
f 531 538 570
f 531 570 583
f 531 583 568
f 531 568 532
f 533 565 534
f 534 565 564
f 534 564 535
f 535 584 539
f 535 539 536
f 535 545 584
f 537 571 582
f 537 582 585
f 537 585 558
f 537 558 570
f 537 570 538
f 539 584 540
f 540 584 545
f 540 545 544
f 549 559 585
f 550 581 580
f 550 580 579
f 551 579 555
f 551 555 552
f 552 555 554
f 555 578 556
f 556 578 557
f 557 578 586
f 557 586 594
f 557 594 587
f 557 587 588
f 557 588 561
f 558 566 570
f 558 585 559
f 561 588 589
f 561 589 590
f 561 590 562
f 562 590 563
f 563 590 591
f 568 583 569
f 569 583 570
f 575 592 576
f 576 592 593
f 576 593 577
f 577 586 578
f 577 593 594
f 577 594 586
f 587 594 593
f 587 593 589
f 587 589 588
f 589 593 595
f 589 595 591
f 589 591 590
f 592 596 593
f 593 596 595

