# https://github.com/mikedh/trimesh
v 0.00665614 0.00019163 0.01028106
v 0.00665011 -0.00019177 0.01028106
v 0.00664256 -0.00021186 0.00987754
v 0.00664860 0.00019163 0.00989694
v 0.00663804 0.00040525 0.00969325
v 0.00664105 0.00043446 0.00989694
v 0.00664256 0.00045089 0.01028106
v 0.00664256 0.00043081 0.02219255
v 0.00664256 0.00042898 0.02257666
v 0.00664256 0.00027136 0.02257666
v 0.00664558 -0.00016378 0.01258576
v 0.00663804 -0.00041147 0.01028106
v 0.00662898 -0.00055023 0.00987754
v 0.00663502 -0.00035366 0.00973787
v 0.00664105 -0.00008040 0.01604281
v 0.00663653 -0.00009744 0.00969518
v 0.00663804 0.00019163 0.00968937
v 0.00660937 0.00019163 0.00949731
v 0.00653696 0.00096027 0.00912677
v 0.00651583 0.00134490 0.00912677
v 0.00658373 0.00096027 0.00951283
v 0.00662295 0.00062616 0.00989694
v 0.00658976 0.00096027 0.00989694
v 0.00653545 0.00134490 0.00951283
v 0.00661390 0.00061521 0.02334490
v 0.00664105 0.00042350 0.02334490
v 0.00664105 0.00029022 0.02334490
v 0.00663049 0.00009791 0.02334490
v 0.00663653 -0.00000129 0.01933301
v 0.00662446 -0.00057640 0.01181753
v 0.00662597 -0.00058492 0.01104929
v 0.00662597 -0.00060318 0.01028106
v 0.00658523 -0.00096042 0.00951283
v 0.00659429 -0.00096042 0.00989694
v 0.00660334 -0.00057640 0.00951283
v 0.00661390 -0.00021186 0.00954581
v 0.00653696 -0.00096042 0.00912677
v 0.00653846 -0.00057640 0.00912677
v 0.00653997 -0.00019177 0.00912677
v 0.00653997 0.00057626 0.00912677
v 0.00643135 0.00134490 0.00874265
v 0.00645549 0.00172892 0.00912677
v 0.00641023 0.00172892 0.00874265
v 0.00645699 0.00172892 0.00951283
v 0.00645699 0.00172892 0.01066518
v 0.00645096 0.00172892 0.01374005
v 0.00644794 0.00172892 0.01489240
v 0.00642380 0.00172892 0.02334490
v 0.00655808 0.00096027 0.02334490
v 0.00663955 0.00040951 0.02363395
v 0.00663955 0.00032430 0.02363395
v 0.00661390 -0.00019177 0.02334490
v 0.00661692 -0.00057640 0.01450828
v 0.00657769 -0.00096042 0.02027197
v 0.00658071 -0.00096042 0.01911768
v 0.00658373 -0.00096042 0.01758121
v 0.00658976 -0.00096042 0.01335593
v 0.00653696 -0.00134504 0.00951283
v 0.00651734 -0.00134504 0.00912677
v 0.00653545 -0.00134504 0.01719709
v 0.00653696 -0.00134504 0.01412416
v 0.00642984 -0.00134504 0.00874265
v 0.00643135 -0.00096042 0.00874265
v 0.00643286 0.00019163 0.00874265
v 0.00643286 0.00096027 0.00874265
v 0.00630914 0.00172892 0.00842450
v 0.00629406 0.00211354 0.00844196
v 0.00635742 0.00211354 0.00912677
v 0.00634686 0.00211354 0.00874265
v 0.00626841 0.00235515 0.00849046
v 0.00635440 0.00211354 0.01565869
v 0.00635290 0.00211354 0.01873356
v 0.00634988 0.00211354 0.02027197
v 0.00634384 0.00211354 0.02334490
v 0.00633479 0.00211354 0.02373095
v 0.00640721 0.00172892 0.02373095
v 0.00660334 0.00055313 0.02375035
v 0.00661993 0.00019468 0.02375035
v 0.00656864 -0.00096042 0.02334490
v 0.00659127 -0.00057640 0.02334490
v 0.00657015 -0.00096042 0.02296078
v 0.00660032 -0.00057640 0.02027197
v 0.00652338 -0.00134504 0.02296078
v 0.00652941 -0.00134504 0.02065608
v 0.00653394 -0.00134504 0.01834944
v 0.00645398 -0.00172906 0.00912677
v 0.00634384 -0.00211368 0.00874265
v 0.00640721 -0.00172906 0.00874265
v 0.00645398 -0.00172906 0.00989694
v 0.00629255 -0.00211368 0.00844390
v 0.00630613 -0.00172906 0.00842838
v 0.00630763 -0.00134504 0.00843032
v 0.00630914 0.00057626 0.00842644
v 0.00622013 0.00172892 0.00823244
v 0.00622013 0.00211354 0.00824990
v 0.00607077 0.00249817 0.00797442
v 0.00602551 0.00288218 0.00797442
v 0.00627746 0.00237888 0.00874265
v 0.00609038 0.00288218 0.00835854
v 0.00598629 0.00301546 0.00797442
v 0.00627444 0.00236306 0.02334490
v 0.00627143 0.00235393 0.02373095
v 0.00626238 0.00233141 0.02393465
v 0.00628802 0.00211354 0.02395987
v 0.00575998 0.00249817 0.02502298
v 0.00575998 -0.00249770 0.02502298
v 0.00653243 -0.00096042 0.02373095
v 0.00652187 -0.00134504 0.02334490
v 0.00649019 -0.00134504 0.02373095
v 0.00642984 -0.00172906 0.02334490
v 0.00643889 -0.00172906 0.01911768
v 0.00644342 -0.00172906 0.01681298
v 0.00644493 -0.00172906 0.01604281
v 0.00635440 -0.00211368 0.00912677
v 0.00627746 -0.00238024 0.00874265
v 0.00626841 -0.00235590 0.00849046
v 0.00621862 -0.00211368 0.00825184
v 0.00602853 -0.00288232 0.00797442
v 0.00607228 -0.00249770 0.00797442
v 0.00621862 -0.00172906 0.00823632
v 0.00607831 -0.00211368 0.00797442
v 0.00607681 0.00211354 0.00797442
v 0.00591387 0.00288218 0.00771252
v 0.00590632 0.00301546 0.00772416
v 0.00596516 0.00301546 0.00786384
v 0.00620957 0.00257120 0.00874265
v 0.00602551 0.00301546 0.00820916
v 0.00603306 0.00301546 0.00835854
v 0.00603306 0.00301546 0.00874265
v 0.00600439 0.00301546 0.02334490
v 0.00608888 0.00288218 0.00912677
v 0.00619599 0.00255476 0.02334490
v 0.00606021 0.00288218 0.02334490
v 0.00599081 0.00301546 0.02373095
v 0.00592292 0.00301546 0.02397927
v 0.00562118 0.00282558 0.02502298
v 0.00562118 -0.00282573 0.02502298
v 0.00590934 -0.00316714 0.02396375
v 0.00624578 -0.00229443 0.02383765
v 0.00628501 -0.00203822 0.02395599
v 0.00632272 -0.00172906 0.02398315
v 0.00641023 -0.00172906 0.02373095
v 0.00629557 -0.00214533 0.02371737
v 0.00625332 -0.00231086 0.02358157
v 0.00619599 -0.00250622 0.02334490
v 0.00619750 -0.00250744 0.02296078
v 0.00620957 -0.00257255 0.00874265
v 0.00609340 -0.00288232 0.00835854
v 0.00620957 -0.00254091 0.01527457
v 0.00607831 -0.00288232 0.02334490
v 0.00608133 -0.00288232 0.02180843
v 0.00609189 -0.00288232 0.01604281
v 0.00609340 -0.00288232 0.01489240
v 0.00593499 -0.00320183 0.00797442
v 0.00590029 -0.00316714 0.00773580
v 0.00591689 -0.00288232 0.00771252
v 0.00591839 -0.00249770 0.00771252
v 0.00591839 -0.00211368 0.00771058
v 0.00591839 -0.00134504 0.00771058
v 0.00591538 0.00249817 0.00771252
v 0.00577658 0.00288218 0.00752047
v 0.00571020 0.00301546 0.00743899
v 0.00530738 0.00301546 0.02472616
v 0.00529078 0.00297773 0.02502298
v 0.00540997 -0.00292736 0.02502298
v 0.00584749 -0.00320183 0.02400061
v 0.00590029 -0.00320183 0.02393077
v 0.00592594 -0.00320183 0.02381437
v 0.00594253 -0.00320183 0.02373095
v 0.00605870 -0.00288232 0.02373095
v 0.00595611 -0.00320183 0.00835854
v 0.00594404 -0.00320183 0.02370767
v 0.00595159 -0.00320183 0.02334490
v 0.00595460 -0.00320183 0.01565869
v 0.00595611 -0.00320183 0.00951283
v 0.00591839 -0.00320183 0.00788712
v 0.00586559 -0.00320183 0.00769506
v 0.00558196 -0.00320183 0.00728573
v 0.00404612 -0.00320183 0.00520413
v 0.00577658 0.00249817 0.00752047
v 0.00404612 -0.00319696 0.00520413
v 0.00558498 0.00301546 0.00728379
v 0.00484421 0.00301546 0.02502298
v 0.00529078 -0.00297665 0.02502298
v 0.00513991 -0.00320183 0.02462140
v -0.00675456 -0.00320183 0.00520413
v 0.00403405 -0.00315132 0.00520413
v 0.00336872 0.00301546 0.00520607
v 0.00353467 0.00301546 0.00522353
v 0.00375343 0.00301546 0.00526233
v 0.00392844 0.00301546 0.00534381
v 0.00400387 0.00301546 0.00539425
v 0.00409439 0.00301546 0.00546991
v 0.00432221 0.00301546 0.00573374
v -0.00813199 0.00301546 0.02502298
v 0.00456812 -0.00320183 0.02502298
v 0.00467524 -0.00320183 0.02496284
v 0.00488796 -0.00320183 0.02482316
v -0.00585388 0.00301546 0.00520607
v -0.00661425 -0.00290362 0.00520413
v -0.00678021 -0.00320183 0.00522547
v -0.00682094 0.00301364 0.00546796
v -0.00662783 0.00301546 0.00534381
v -0.00623708 0.00301546 0.00520801
v 0.00398577 -0.00297179 0.00520413
v 0.00375494 -0.00286407 0.00520413
v 0.00336872 -0.00282816 0.00520413
v -0.00813652 0.00300633 0.02502298
v -0.00813350 0.00301546 0.00874265
v -0.00805806 -0.00320183 0.02502298
v -0.00618126 -0.00282816 0.00520413
v -0.00623708 -0.00282938 0.00520413
v -0.00654485 -0.00288598 0.00520413
v -0.00686168 -0.00320183 0.00537679
v -0.00714984 0.00301546 0.00596266
v -0.00695220 0.00301546 0.00564644
v -0.00682094 0.00301546 0.00546991
v -0.00819234 0.00288218 0.02502298
v -0.00811992 0.00301546 0.00835854
v -0.00818932 0.00288218 0.00874265
v -0.00809729 -0.00310811 0.02502298
v -0.00819385 -0.00288232 0.01719709
v -0.00805806 -0.00320183 0.02373095
v -0.00703367 -0.00320183 0.00571822
v -0.00714984 -0.00320183 0.00596266
v -0.00726299 -0.00320183 0.00620322
v -0.00752248 0.00301546 0.00675999
v -0.00831152 0.00257546 0.02027197
v -0.00831152 0.00257424 0.02502298
v -0.00816971 0.00288218 0.00835854
v -0.00804750 0.00301546 0.00797442
v -0.00830851 0.00254138 0.00874265
v -0.00837941 0.00238071 0.00912677
v -0.00830700 0.00257302 0.00912677
v -0.00819083 -0.00288232 0.02502298
v -0.00831001 -0.00257134 0.00912677
v -0.00819385 -0.00288232 0.01028106
v -0.00805656 -0.00320183 0.01450828
v -0.00775784 -0.00320183 0.00726439
v -0.00826476 0.00211354 0.00835272
v -0.00808824 0.00249817 0.00797442
v -0.00789362 0.00288218 0.00755732
v -0.00765223 0.00301546 0.00703935
v -0.00833566 0.00250486 0.02502298
v -0.00835377 0.00231316 0.00854672
v -0.00836735 0.00234967 0.00874265
v -0.00797961 0.00301546 0.00775520
v -0.00807315 0.00288218 0.00797442
v -0.00845636 0.00211354 0.00912677
v -0.00845636 0.00211354 0.00951283
v -0.00837791 0.00238314 0.02065608
v -0.00823307 -0.00275635 0.02502298
v -0.00837640 -0.00237842 0.00951283
v -0.00837640 -0.00237963 0.00912677
v -0.00831001 -0.00257073 0.00951283
v -0.00819234 -0.00288232 0.00874265
v -0.00805354 -0.00320183 0.00838764
v -0.00805505 -0.00320183 0.01104929
v -0.00793586 -0.00320183 0.00768148
v -0.00797810 -0.00313123 0.00775908
v -0.00835377 -0.00231330 0.00854672
v -0.00835377 -0.00211368 0.00854478
v -0.00826476 -0.00211368 0.00835272
v -0.00835377 0.00211354 0.00854478
v -0.00798263 0.00288218 0.00774938
v -0.00772917 0.00301546 0.00720619
v -0.00837791 0.00238193 0.02502298
v -0.00843373 0.00134490 0.00874265
v -0.00843222 0.00172892 0.00874265
v -0.00856197 0.00134490 0.00912677
v -0.00853028 0.00172892 0.00912677
v -0.00855442 0.00172892 0.00951283
v -0.00844881 0.00211354 0.02502298
v -0.00842317 0.00221091 0.02502298
v -0.00830700 -0.00253361 0.02502298
v -0.00830700 -0.00253421 0.02488330
v -0.00845334 -0.00211368 0.00951283
v -0.00845334 -0.00211368 0.00912677
v -0.00836584 -0.00234860 0.00874265
v -0.00831001 -0.00254091 0.00874265
v -0.00816971 -0.00288232 0.00835854
v -0.00805203 -0.00320183 0.00835854
v -0.00800979 -0.00320183 0.00797442
v -0.00801280 -0.00319331 0.00797442
v -0.00852877 -0.00172906 0.00912677
v -0.00856197 -0.00134504 0.00912677
v -0.00843071 -0.00172906 0.00874265
v -0.00843222 -0.00134504 0.00874265
v -0.00843373 -0.00019177 0.00874265
v -0.00856951 0.00057626 0.00912677
v -0.00856800 0.00096027 0.00912677
v -0.00866757 0.00057626 0.00951283
v -0.00865701 0.00096027 0.00951283
v -0.00862382 0.00134490 0.00951283
v -0.00863287 0.00134490 0.00989694
v -0.00863287 0.00134490 0.01028106
v -0.00852877 0.00172892 0.02502298
v -0.00838545 -0.00225913 0.02502298
v -0.00855442 -0.00172906 0.00951283
v -0.00853481 -0.00172906 0.02502298
v -0.00802035 -0.00320183 0.00806754
v -0.00862684 -0.00134504 0.00951283
v -0.00866003 -0.00096042 0.00951283
v -0.00866757 -0.00057640 0.00951283
v -0.00856951 -0.00096042 0.00912677
v -0.00872038 0.00019163 0.00984262
v -0.00872189 0.00057443 0.00991052
v -0.00869020 0.00096027 0.00989694
v -0.00869322 0.00096027 0.01028106
v -0.00869322 0.00096027 0.01066518
v -0.00869171 0.00096027 0.01527457
v -0.00869020 0.00096027 0.01681298
v -0.00867512 0.00096027 0.02488330
v -0.00864796 0.00109964 0.02502298
v -0.00863438 -0.00134504 0.00989694
v -0.00862835 -0.00134504 0.02502298
v -0.00869171 -0.00096042 0.00989694
v -0.00872038 -0.00055023 0.00992798
v -0.00871887 -0.00019177 0.00986590
v -0.00874150 0.00019163 0.01003468
v -0.00873999 0.00044541 0.01004632
v -0.00872792 0.00066815 0.01028106
v -0.00872792 0.00067241 0.01450828
v -0.00872792 0.00067241 0.01565869
v -0.00872792 0.00067120 0.01642692
v -0.00872792 0.00066876 0.01758121
v -0.00872792 0.00066633 0.01873356
v -0.00872641 0.00065903 0.02296078
v -0.00872490 0.00065355 0.02488330
v -0.00867361 0.00096027 0.02502298
v -0.00869322 -0.00096042 0.01028106
v -0.00865249 -0.00120568 0.02502298
v -0.00869322 -0.00096042 0.02502298
v -0.00872641 -0.00060865 0.01028106
v -0.00873697 -0.00040478 0.01007736
v -0.00873848 -0.00019177 0.01005796
v -0.00875206 0.00019163 0.01028106
v -0.00874301 0.00047584 0.01028106
v -0.00874301 0.00048071 0.01489240
v -0.00874301 0.00048071 0.01527457
v -0.00874301 0.00047888 0.01642692
v -0.00874301 0.00046428 0.02449919
v -0.00874301 0.00046124 0.02488330
v -0.00874301 0.00046002 0.02502298
v -0.00873094 0.00058295 0.02502298
v -0.00872340 0.00065233 0.02502298
v -0.00870529 0.00076492 0.02502298
v -0.00872792 -0.00062083 0.01258576
v -0.00872792 -0.00061717 0.01181753
v -0.00872792 -0.00065430 0.02488330
v -0.00872792 -0.00065430 0.02502298
v -0.00873848 -0.00042060 0.01104929
v -0.00875055 -0.00019177 0.01066518
v -0.00874603 -0.00019177 0.01028106
v -0.00875508 0.00019163 0.01066518
v -0.00875659 0.00019163 0.02502298
v -0.00875206 0.00028840 0.02502298
v -0.00873697 -0.00053136 0.02502298
v -0.00874150 -0.00046138 0.02411507
v -0.00874150 -0.00045955 0.02373095
v -0.00874150 -0.00045225 0.02257666
v -0.00874150 -0.00044495 0.02142432
v -0.00874150 -0.00043947 0.02065608
v -0.00875206 -0.00019177 0.01450828
v -0.00875357 -0.00019177 0.01950179
v -0.00875508 -0.00005363 0.02502298
v -0.00874150 -0.00046199 0.02502298
v -0.00874150 -0.00046199 0.02449919
v -0.00874603 -0.00036400 0.02502298
v -0.00875357 -0.00019177 0.02502298
f 1 2 3
f 1 3 4
f 1 4 5
f 1 5 6
f 1 6 7
f 1 7 8
f 1 8 9
f 1 9 10
f 1 10 2
f 2 11 12
f 2 12 13
f 2 13 14
f 2 14 3
f 2 10 15
f 2 15 11
f 3 14 4
f 4 14 16
f 4 16 17
f 4 17 5
f 5 17 18
f 5 18 19
f 5 19 20
f 5 20 21
f 5 21 6
f 6 22 7
f 6 21 22
f 7 22 23
f 7 23 8
f 8 23 9
f 9 23 24
f 9 24 25
f 9 25 26
f 9 26 27
f 9 27 10
f 10 27 28
f 10 28 29
f 10 29 15
f 11 15 12
f 12 15 30
f 12 30 31
f 12 31 32
f 12 32 13
f 13 33 14
f 13 32 34
f 13 34 33
f 14 33 35
f 14 35 16
f 15 29 30
f 16 35 36
f 16 36 17
f 17 36 18
f 18 37 38
f 18 38 39
f 18 39 40
f 18 40 19
f 18 36 37
f 19 40 41
f 19 41 20
f 20 42 24
f 20 24 21
f 20 41 43
f 20 43 42
f 21 24 23
f 21 23 22
f 24 42 44
f 24 44 45
f 24 45 46
f 24 46 47
f 24 47 48
f 24 48 49
f 24 49 25
f 25 49 50
f 25 50 26
f 26 50 51
f 26 51 27
f 27 51 28
f 28 51 52
f 28 52 29
f 29 53 30
f 29 52 53
f 30 53 54
f 30 54 31
f 31 54 55
f 31 55 56
f 31 56 32
f 32 56 57
f 32 57 34
f 33 58 59
f 33 59 37
f 33 37 35
f 33 34 58
f 34 57 60
f 34 60 61
f 34 61 58
f 35 37 36
f 37 59 62
f 37 62 38
f 38 62 63
f 38 63 39
f 39 63 64
f 39 64 65
f 39 65 40
f 40 65 41
f 41 66 67
f 41 67 43
f 41 65 66
f 42 68 44
f 42 43 69
f 42 69 68
f 43 67 70
f 43 70 69
f 44 68 45
f 45 68 71
f 45 71 72
f 45 72 73
f 45 73 46
f 46 73 74
f 46 74 47
f 47 74 48
f 48 74 75
f 48 75 76
f 48 76 49
f 49 76 50
f 50 76 77
f 50 77 78
f 50 78 51
f 51 79 80
f 51 80 52
f 51 78 79
f 52 80 81
f 52 81 82
f 52 82 53
f 53 82 81
f 53 81 54
f 54 81 83
f 54 83 84
f 54 84 55
f 55 84 56
f 56 84 85
f 56 85 57
f 57 85 60
f 58 86 59
f 58 61 89
f 58 89 86
f 59 86 87
f 59 87 88
f 59 88 62
f 60 85 89
f 60 89 61
f 62 88 90
f 62 90 91
f 62 91 63
f 63 91 92
f 63 92 93
f 63 93 64
f 64 93 66
f 64 66 65
f 66 93 94
f 66 94 95
f 66 95 67
f 67 95 96
f 67 96 97
f 67 97 70
f 68 69 98
f 68 98 71
f 69 70 98
f 70 99 98
f 70 97 100
f 70 100 99
f 71 98 72
f 72 98 101
f 72 101 73
f 73 101 74
f 74 101 102
f 74 102 75
f 75 102 103
f 75 103 76
f 76 103 77
f 77 103 104
f 77 104 105
f 77 105 78
f 78 105 106
f 78 106 107
f 78 107 79
f 79 108 83
f 79 83 81
f 79 81 80
f 79 107 109
f 79 109 108
f 83 108 110
f 83 110 84
f 84 110 111
f 84 111 112
f 84 112 85
f 85 112 113
f 85 113 89
f 86 114 115
f 86 115 87
f 86 89 114
f 87 115 116
f 87 116 88
f 88 116 90
f 89 113 114
f 90 117 91
f 90 116 118
f 90 118 119
f 90 119 117
f 91 117 120
f 91 120 93
f 91 93 92
f 93 120 94
f 94 120 121
f 94 121 122
f 94 122 96
f 94 96 95
f 96 122 123
f 96 123 124
f 96 124 125
f 96 125 97
f 97 125 100
f 98 99 126
f 98 126 101
f 99 100 127
f 99 127 128
f 99 128 129
f 99 129 130
f 99 130 131
f 99 131 132
f 99 132 101
f 99 101 126
f 100 125 124
f 100 124 162
f 100 162 182
f 100 182 194
f 100 194 193
f 100 193 192
f 100 192 191
f 100 191 190
f 100 190 189
f 100 189 188
f 100 188 199
f 100 199 204
f 100 204 203
f 100 203 217
f 100 217 216
f 100 216 215
f 100 215 227
f 100 227 243
f 100 243 266
f 100 266 247
f 100 247 231
f 100 231 219
f 100 219 209
f 100 209 195
f 100 195 183
f 100 183 163
f 100 163 135
f 100 135 134
f 100 134 130
f 100 130 129
f 100 129 128
f 100 128 127
f 101 132 102
f 102 132 133
f 102 133 130
f 102 130 134
f 102 134 103
f 103 134 135
f 103 135 136
f 103 136 105
f 103 105 104
f 105 136 164
f 105 164 183
f 105 183 195
f 105 195 208
f 105 208 218
f 105 218 229
f 105 229 244
f 105 244 267
f 105 267 274
f 105 274 273
f 105 273 297
f 105 297 314
f 105 314 330
f 105 330 347
f 105 347 346
f 105 346 345
f 105 345 344
f 105 344 357
f 105 357 356
f 105 356 366
f 105 366 370
f 105 370 369
f 105 369 367
f 105 367 358
f 105 358 351
f 105 351 333
f 105 333 332
f 105 332 316
f 105 316 300
f 105 300 298
f 105 298 275
f 105 275 252
f 105 252 235
f 105 235 221
f 105 221 210
f 105 210 196
f 105 196 184
f 105 184 165
f 105 165 137
f 105 137 106
f 106 137 138
f 106 138 139
f 106 139 140
f 106 140 141
f 106 141 109
f 106 109 107
f 108 109 142
f 108 142 110
f 109 141 140
f 109 140 142
f 110 142 143
f 110 143 144
f 110 144 145
f 110 145 146
f 110 146 115
f 110 115 114
f 110 114 111
f 111 114 112
f 112 114 113
f 115 147 148
f 115 148 116
f 115 146 149
f 115 149 150
f 115 150 151
f 115 151 152
f 115 152 153
f 115 153 147
f 116 148 118
f 117 119 120
f 118 154 155
f 118 155 119
f 118 148 154
f 119 155 156
f 119 156 121
f 119 121 120
f 121 156 157
f 121 157 158
f 121 158 159
f 121 159 122
f 122 159 160
f 122 160 123
f 123 160 161
f 123 161 162
f 123 162 124
f 130 133 131
f 131 133 132
f 135 163 164
f 135 164 136
f 137 165 166
f 137 166 167
f 137 167 138
f 138 167 168
f 138 168 169
f 138 169 170
f 138 170 139
f 139 170 150
f 139 150 144
f 139 144 143
f 139 143 142
f 139 142 140
f 144 150 145
f 145 150 146
f 146 150 149
f 147 153 148
f 148 171 154
f 148 153 175
f 148 175 171
f 150 170 172
f 150 172 173
f 150 173 151
f 151 173 152
f 152 173 153
f 153 173 174
f 153 174 175
f 154 176 155
f 154 171 175
f 154 175 174
f 154 174 173
f 154 173 172
f 154 172 169
f 154 169 168
f 154 168 167
f 154 167 166
f 154 166 185
f 154 185 198
f 154 198 197
f 154 197 196
f 154 196 210
f 154 210 223
f 154 223 238
f 154 238 258
f 154 258 257
f 154 257 282
f 154 282 301
f 154 301 283
f 154 283 259
f 154 259 239
f 154 239 226
f 154 226 225
f 154 225 224
f 154 224 214
f 154 214 201
f 154 201 186
f 154 186 179
f 154 179 178
f 154 178 177
f 154 177 176
f 155 177 178
f 155 178 156
f 155 176 177
f 156 178 179
f 156 179 157
f 157 179 158
f 158 180 161
f 158 161 159
f 158 179 180
f 159 161 160
f 161 180 179
f 161 179 181
f 161 181 162
f 162 181 182
f 163 183 164
f 165 184 166
f 166 184 185
f 169 172 170
f 179 186 200
f 179 200 213
f 179 213 212
f 179 212 211
f 179 211 207
f 179 207 206
f 179 206 205
f 179 205 187
f 179 187 181
f 181 187 188
f 181 188 189
f 181 189 190
f 181 190 191
f 181 191 192
f 181 192 193
f 181 193 194
f 181 194 182
f 184 196 197
f 184 197 198
f 184 198 185
f 186 199 200
f 186 201 202
f 186 202 203
f 186 203 204
f 186 204 199
f 187 205 188
f 188 205 206
f 188 206 207
f 188 207 211
f 188 211 199
f 195 209 208
f 199 211 212
f 199 212 213
f 199 213 200
f 201 214 215
f 201 215 216
f 201 216 202
f 202 217 203
f 202 216 217
f 208 209 218
f 209 219 220
f 209 220 218
f 210 221 222
f 210 222 237
f 210 237 223
f 214 224 215
f 215 224 225
f 215 225 226
f 215 226 227
f 218 228 229
f 218 220 228
f 219 230 220
f 219 231 230
f 220 230 232
f 220 232 233
f 220 233 234
f 220 234 228
f 221 235 222
f 222 235 236
f 222 236 237
f 223 237 238
f 226 239 227
f 227 239 240
f 227 240 241
f 227 241 242
f 227 242 243
f 228 244 229
f 228 234 233
f 228 233 244
f 230 245 246
f 230 246 232
f 230 231 245
f 231 247 248
f 231 248 245
f 232 246 233
f 233 246 249
f 233 249 250
f 233 250 251
f 233 251 244
f 235 252 253
f 235 253 254
f 235 254 255
f 235 255 236
f 236 255 254
f 236 254 256
f 236 256 237
f 237 256 257
f 237 257 258
f 237 258 238
f 239 259 260
f 239 260 261
f 239 261 262
f 239 262 263
f 239 263 240
f 240 263 262
f 240 262 264
f 240 264 241
f 241 264 265
f 241 265 242
f 242 265 243
f 243 265 266
f 244 251 267
f 245 264 268
f 245 268 269
f 245 269 270
f 245 270 271
f 245 271 249
f 245 249 246
f 245 248 247
f 245 247 265
f 245 265 264
f 247 266 265
f 249 271 272
f 249 272 250
f 250 272 273
f 250 273 274
f 250 274 267
f 250 267 251
f 252 275 276
f 252 276 253
f 253 277 254
f 253 276 275
f 253 275 277
f 254 277 278
f 254 278 279
f 254 279 280
f 254 280 256
f 256 280 281
f 256 281 282
f 256 282 257
f 259 283 284
f 259 284 260
f 260 284 261
f 261 281 279
f 261 279 278
f 261 278 285
f 261 285 286
f 261 286 287
f 261 287 288
f 261 288 262
f 261 284 281
f 262 288 289
f 262 289 268
f 262 268 264
f 268 289 305
f 268 305 290
f 268 290 291
f 268 291 269
f 269 291 270
f 270 291 292
f 270 292 293
f 270 293 271
f 271 293 294
f 271 294 272
f 272 294 295
f 272 295 296
f 272 296 297
f 272 297 273
f 275 298 277
f 277 299 278
f 277 298 300
f 277 300 299
f 278 299 285
f 279 281 280
f 281 284 283
f 281 283 301
f 281 301 282
f 285 299 302
f 285 302 286
f 286 302 303
f 286 303 304
f 286 304 305
f 286 305 287
f 287 305 288
f 288 305 289
f 290 305 304
f 290 304 292
f 290 292 291
f 292 306 307
f 292 307 293
f 292 304 306
f 293 308 294
f 293 307 308
f 294 308 295
f 295 308 309
f 295 309 310
f 295 310 296
f 296 310 311
f 296 311 312
f 296 312 313
f 296 313 297
f 297 313 314
f 299 315 302
f 299 300 316
f 299 316 315
f 302 315 317
f 302 317 303
f 303 317 318
f 303 318 304
f 304 318 319
f 304 319 306
f 306 320 321
f 306 321 307
f 306 319 320
f 307 321 308
f 308 321 322
f 308 322 309
f 309 322 323
f 309 323 324
f 309 324 310
f 310 324 325
f 310 325 326
f 310 326 327
f 310 327 311
f 311 327 328
f 311 328 312
f 312 328 329
f 312 329 313
f 313 329 330
f 313 330 314
f 315 331 317
f 315 316 332
f 315 332 333
f 315 333 331
f 317 331 334
f 317 334 335
f 317 335 318
f 318 335 336
f 318 336 320
f 318 320 319
f 320 336 337
f 320 337 321
f 321 337 338
f 321 338 322
f 322 338 339
f 322 339 323
f 323 339 340
f 323 340 324
f 324 340 341
f 324 341 325
f 325 341 342
f 325 342 326
f 326 342 327
f 327 342 328
f 328 342 343
f 328 343 344
f 328 344 329
f 329 344 345
f 329 345 346
f 329 346 347
f 329 347 330
f 331 348 349
f 331 349 334
f 331 333 351
f 331 351 350
f 331 350 348
f 334 349 352
f 334 352 353
f 334 353 335
f 335 354 337
f 335 337 336
f 335 353 354
f 337 354 353
f 337 353 355
f 337 355 338
f 338 355 356
f 338 356 339
f 339 356 357
f 339 357 340
f 340 357 341
f 341 357 342
f 342 357 343
f 343 357 344
f 348 350 358
f 348 358 359
f 348 359 360
f 348 360 349
f 349 360 361
f 349 361 362
f 349 362 363
f 349 363 352
f 350 351 358
f 352 363 353
f 353 363 364
f 353 364 355
f 355 364 365
f 355 365 366
f 355 366 356
f 358 367 368
f 358 368 359
f 359 368 365
f 359 365 360
f 360 365 364
f 360 364 361
f 361 364 362
f 362 364 363
f 365 368 369
f 365 369 370
f 365 370 366
f 367 369 368

