# https://github.com/mikedh/trimesh
v 0.00014296 0.00301546 0.00191231
v 0.00029700 0.00301546 0.00190745
v -0.00008902 0.00301546 0.00191156
v -0.00008902 -0.00279113 0.00185850
v 0.00054279 0.00301546 0.00188204
v -0.00006963 -0.00279113 0.00185701
v 0.00032646 -0.00279113 0.00181666
v -0.00046199 0.00301546 0.00189288
v -0.00044521 -0.00279113 0.00179461
v 0.00080722 0.00301546 0.00177518
v 0.00067929 -0.00279113 0.00170194
v -0.00080885 0.00301546 0.00176136
v -0.00045677 -0.00279113 0.00179237
v 0.00128798 0.00301546 0.00145459
v 0.00107016 -0.00279113 0.00144151
v -0.00088830 0.00301546 0.00172960
v -0.00069435 -0.00279113 0.00169148
v 0.00166132 0.00301546 0.00105329
v 0.00107240 -0.00279113 0.00143964
v 0.00144910 -0.00279113 0.00106189
v -0.00122434 0.00301546 0.00142208
v -0.00119898 -0.00279113 0.00139630
v -0.00117287 -0.00279113 0.00141349
v 0.00182058 0.00301546 0.00067105
v 0.00170197 -0.00279113 0.00067105
v -0.00129819 0.00301546 0.00134810
v -0.00155778 -0.00279113 0.00103498
v 0.00191457 0.00301546 0.00028731
v 0.00181871 -0.00279113 0.00031310
v -0.00159918 0.00301546 0.00103648
v -0.00158090 -0.00279113 0.00101144
v 0.00191718 0.00301546 -0.00009717
v 0.00186235 -0.00279113 -0.00009717
v -0.00165065 0.00301546 0.00092102
v -0.00167675 -0.00279113 0.00067105
v -0.00174165 0.00301546 0.00067105
v -0.00189308 0.00301546 0.00020436
v 0.00191046 0.00301546 -0.00032696
v 0.00186011 -0.00279113 -0.00010987
v 0.00189368 0.00301546 -0.00046708
v -0.00176067 -0.00279113 0.00032356
v -0.00188823 0.00301546 -0.00009717
v -0.00179573 -0.00279113 -0.00009717
v -0.00179237 -0.00279113 -0.00002954
v -0.00176664 -0.00279113 0.00028694
v 0.00179671 -0.00279113 -0.00045662
v 0.00181424 0.00301546 -0.00071855
v -0.00185727 0.00301546 -0.00046559
v -0.00171069 -0.00279113 -0.00048128
v 0.00179298 -0.00279113 -0.00046783
v 0.00175680 0.00301546 -0.00080486
v 0.00168967 -0.00279113 -0.00068716
v 0.00139912 -0.00279113 -0.00120167
v -0.00170286 0.00301546 -0.00086576
v -0.00160589 -0.00279113 -0.00085979
v -0.00161186 -0.00279113 -0.00084372
v 0.00150020 0.00301546 -0.00113554
v 0.00137488 -0.00279113 -0.00122596
v 0.00142672 0.00301546 -0.00122895
v -0.00154696 0.00301546 -0.00117141
v -0.00127208 -0.00279113 -0.00125922
v -0.00149512 0.00301546 -0.00127043
v 0.00101496 -0.00279113 -0.00158466
v 0.00111790 0.00301546 -0.00153161
v -0.00125120 -0.00279113 -0.00128014
v -0.00109753 0.00301546 -0.00162427
v 0.00098811 -0.00279113 -0.00159475
v 0.00031527 0.00301546 -0.00190451
v 0.00104107 0.00301546 -0.00160521
v -0.00086182 -0.00279113 -0.00160559
v -0.00085697 0.00301546 -0.00170984
v -0.00085063 -0.00279113 -0.00161269
v 0.00066214 -0.00279113 -0.00168219
v -0.00008902 0.00301546 -0.00187648
v 0.00032199 -0.00279113 -0.00175766
v 0.00029513 -0.00279113 -0.00176140
v -0.00003159 -0.00279113 -0.00179017
v -0.00008902 -0.00279113 -0.00179353
v -0.00067048 0.00301546 -0.00175579
v -0.00047318 -0.00279113 -0.00171581
f 1 2 5
f 1 5 10
f 1 10 14
f 1 14 18
f 1 18 24
f 1 24 28
f 1 28 32
f 1 32 38
f 1 38 40
f 1 40 47
f 1 47 51
f 1 51 57
f 1 57 59
f 1 59 64
f 1 64 69
f 1 69 68
f 1 68 74
f 1 74 79
f 1 79 71
f 1 71 66
f 1 66 62
f 1 62 60
f 1 60 54
f 1 54 48
f 1 48 42
f 1 42 37
f 1 37 36
f 1 36 34
f 1 34 30
f 1 30 26
f 1 26 21
f 1 21 16
f 1 16 12
f 1 12 8
f 1 8 3
f 1 3 4
f 1 4 2
f 2 4 6
f 2 6 7
f 2 7 5
f 3 8 4
f 4 9 13
f 4 13 17
f 4 17 23
f 4 23 22
f 4 22 27
f 4 27 31
f 4 31 35
f 4 35 41
f 4 41 45
f 4 45 44
f 4 44 43
f 4 43 49
f 4 49 56
f 4 56 55
f 4 55 61
f 4 61 65
f 4 65 70
f 4 70 72
f 4 72 80
f 4 80 78
f 4 78 77
f 4 77 76
f 4 76 75
f 4 75 73
f 4 73 67
f 4 67 63
f 4 63 58
f 4 58 53
f 4 53 52
f 4 52 50
f 4 50 46
f 4 46 39
f 4 39 33
f 4 33 29
f 4 29 25
f 4 25 20
f 4 20 19
f 4 19 15
f 4 15 11
f 4 11 7
f 4 7 6
f 4 8 9
f 5 7 11
f 5 11 10
f 8 12 13
f 8 13 9
f 10 11 15
f 10 15 14
f 12 16 13
f 13 16 17
f 14 15 19
f 14 19 20
f 14 20 18
f 16 21 22
f 16 22 23
f 16 23 17
f 18 20 25
f 18 25 24
f 21 26 22
f 22 26 27
f 24 25 29
f 24 29 28
f 26 30 31
f 26 31 27
f 28 29 33
f 28 33 32
f 30 34 31
f 31 34 36
f 31 36 37
f 31 37 35
f 32 33 38
f 33 39 40
f 33 40 38
f 35 37 41
f 37 42 43
f 37 43 44
f 37 44 45
f 37 45 41
f 39 46 40
f 40 46 47
f 42 48 43
f 43 48 49
f 46 50 47
f 47 50 52
f 47 52 53
f 47 53 51
f 48 54 55
f 48 55 56
f 48 56 49
f 51 53 57
f 53 58 59
f 53 59 57
f 54 60 55
f 55 60 62
f 55 62 61
f 58 63 59
f 59 63 64
f 61 62 65
f 62 66 65
f 63 67 68
f 63 68 69
f 63 69 64
f 65 66 70
f 66 71 72
f 66 72 70
f 67 73 68
f 68 73 75
f 68 75 76
f 68 76 77
f 68 77 78
f 68 78 74
f 71 79 80
f 71 80 72
f 74 78 80
f 74 80 79

