# https://github.com/mikedh/trimesh
v 0.00484335 0.00301546 0.02502381
v 0.00452502 0.00301546 0.02526064
v 0.00515599 0.00296130 0.02924596
v 0.00528957 0.00296130 0.02911080
v 0.00528957 0.00297773 0.02502381
v -0.00813278 0.00301546 0.02502381
v 0.00451791 0.00301546 0.02526519
v 0.00528957 0.00295947 0.02924596
v 0.00374909 0.00301546 0.02564917
v 0.00336966 0.00301546 0.02577813
v -0.00547104 0.00301546 0.02871607
v -0.00585190 0.00301546 0.02884007
v -0.00700584 0.00296130 0.02924596
v 0.00550558 0.00287123 0.02924596
v 0.00562069 0.00282558 0.02911080
v 0.00562069 0.00282558 0.02502381
v -0.00819104 0.00288218 0.02502381
v -0.00819246 0.00288218 0.02526891
v -0.00813562 0.00301546 0.02656718
v -0.00625549 0.00301546 0.02884007
v -0.00738954 0.00295947 0.02924596
v 0.00561785 0.00282437 0.02924596
v 0.00575712 0.00249817 0.02924596
v 0.00575996 0.00249817 0.02911080
v 0.00575996 0.00249817 0.02502381
v -0.00826778 0.00268561 0.02502381
v -0.00819246 0.00288218 0.02680608
v -0.00813562 0.00301546 0.02680608
v -0.00660509 0.00301546 0.02871979
v -0.00738954 0.00301546 0.02834077
v -0.00758281 0.00301546 0.02815312
v -0.00777324 0.00301546 0.02795679
v -0.00801198 0.00301546 0.02754966
v -0.00777466 0.00291809 0.02872682
v -0.00778603 0.00282558 0.02924596
v 0.00575996 0.00236367 0.02924596
v 0.00576138 0.00211354 0.02924596
v 0.00576138 0.00211354 0.02757363
v 0.00576138 0.00096027 0.02502381
v -0.00831041 0.00257424 0.02502381
v -0.00831041 0.00257424 0.02603729
v -0.00830899 0.00257424 0.02680608
v -0.00830189 0.00256389 0.02718965
v -0.00809583 0.00301546 0.02718965
v -0.00826494 0.00249817 0.02795803
v -0.00822799 0.00249817 0.02834243
v -0.00803472 0.00278237 0.02872682
v -0.00799777 0.00273856 0.02902648
v -0.00792103 0.00271056 0.02924596
v 0.00576138 -0.00211368 0.02924596
v 0.00576138 -0.00096042 0.02502381
v -0.00833457 0.00250486 0.02502381
v -0.00837721 0.00238193 0.02680608
v -0.00837436 0.00237158 0.02718965
v -0.00836442 0.00234237 0.02749262
v -0.00816120 0.00249817 0.02872682
v -0.00840279 0.00207581 0.02795803
v -0.00838147 0.00201495 0.02834243
v -0.00836300 0.00196200 0.02858464
v -0.00798214 0.00263327 0.02924596
v 0.00576138 -0.00211368 0.02757363
v 0.00575712 -0.00249770 0.02924596
v 0.00575996 -0.00249770 0.02911080
v 0.00575996 -0.00249770 0.02502381
v -0.00837721 0.00238193 0.02502381
v -0.00844826 0.00211354 0.02718965
v -0.00841558 0.00214823 0.02760174
v -0.00817967 0.00211354 0.02911080
v -0.00804609 0.00252433 0.02913684
v -0.00849658 0.00172892 0.02795803
v -0.00845537 0.00172892 0.02834243
v -0.00839000 0.00171553 0.02871814
v -0.00833031 0.00183420 0.02884049
v -0.00802904 0.00248295 0.02924596
v 0.00562069 -0.00282573 0.02911080
v 0.00561785 -0.00282390 0.02924596
v 0.00562069 -0.00282573 0.02502381
v -0.00844826 0.00211354 0.02502381
v -0.00853637 0.00172892 0.02718965
v -0.00853069 0.00172892 0.02757363
v -0.00813988 0.00212450 0.02924596
v -0.00857616 0.00134490 0.02795803
v -0.00853353 0.00134490 0.02834243
v -0.00836015 0.00157799 0.02895457
v -0.00829194 0.00171553 0.02909386
v -0.00845821 0.00134490 0.02872682
v -0.00825073 0.00172040 0.02924596
v 0.00528957 -0.00295961 0.02924596
v 0.00528957 -0.00296083 0.02911080
v 0.00528957 -0.00297665 0.02502381
v 0.00541037 -0.00292736 0.02502381
v -0.00852784 0.00172892 0.02502381
v -0.00867422 0.00096027 0.02502381
v -0.00860743 0.00134490 0.02718965
v -0.00860458 0.00134490 0.02757363
v -0.00867280 0.00096027 0.02757363
v -0.00864153 0.00096027 0.02795803
v -0.00859464 0.00096027 0.02834243
v -0.00832463 0.00134490 0.02924596
v -0.00851932 0.00096027 0.02872682
v -0.00836584 0.00108686 0.02924596
v 0.00346487 -0.00320183 0.02561735
v 0.00364819 -0.00320183 0.02554667
v 0.00441985 -0.00320183 0.02516434
v 0.00456765 -0.00320183 0.02502381
v 0.00490587 -0.00296083 0.02924596
v -0.00618160 -0.00320183 0.02866028
v -0.00585190 -0.00320183 0.02865160
v -0.00581637 -0.00320183 0.02864044
v -0.00870548 0.00076492 0.02502381
v -0.00867706 0.00096027 0.02718965
v -0.00872111 0.00064685 0.02642169
v -0.00874243 0.00045454 0.02642169
v -0.00874101 0.00043081 0.02664943
v -0.00863443 0.00057626 0.02834243
v -0.00856479 0.00057626 0.02872682
v -0.00841416 0.00073206 0.02924596
v -0.00839000 0.00093289 0.02924596
v -0.00805746 -0.00320183 0.02502381
v -0.00571832 -0.00296144 0.02924596
v -0.00623702 -0.00320183 0.02866069
v -0.00872254 0.00065233 0.02502381
v -0.00872254 0.00064685 0.02603729
v -0.00873106 0.00058295 0.02502381
v -0.00874243 0.00046002 0.02502381
v -0.00875664 0.00019163 0.02642169
v -0.00874527 0.00019163 0.02665728
v -0.00863443 -0.00057640 0.02834243
v -0.00858042 0.00019163 0.02872682
v -0.00842979 0.00057626 0.02924596
v -0.00805746 -0.00320183 0.02645971
v -0.00819104 -0.00288232 0.02565331
v -0.00810578 -0.00308620 0.02502381
v -0.00623702 -0.00296144 0.02924596
v -0.00725595 -0.00296083 0.02924596
v -0.00738954 -0.00295961 0.02924596
v -0.00661788 -0.00320183 0.02854413
v -0.00875096 0.00028840 0.02502381
v -0.00875522 0.00019163 0.02502381
v -0.00875380 -0.00019117 0.02502381
v -0.00875380 -0.00019117 0.02642169
v -0.00874527 -0.00019117 0.02665563
v -0.00867564 -0.00096042 0.02757363
v -0.00864153 -0.00096042 0.02795803
v -0.00859321 -0.00096042 0.02834243
v -0.00856479 -0.00057640 0.02872682
v -0.00858042 -0.00019117 0.02872682
v -0.00844400 0.00019163 0.02924596
v -0.00805604 -0.00320183 0.02680608
v -0.00818820 -0.00288232 0.02680608
v -0.00819104 -0.00288232 0.02603729
v -0.00818962 -0.00288232 0.02502381
v -0.00830615 -0.00253361 0.02502381
v -0.00823225 -0.00275635 0.02502381
v -0.00744212 -0.00320183 0.02811633
v -0.00729717 -0.00320183 0.02824695
v -0.00768513 -0.00286589 0.02924596
v -0.00769223 -0.00320183 0.02787578
v -0.00874243 -0.00047477 0.02642169
v -0.00874101 -0.00046199 0.02502381
v -0.00874101 -0.00044616 0.02664736
v -0.00868985 -0.00096042 0.02718965
v -0.00862590 -0.00134504 0.02718965
v -0.00861027 -0.00134504 0.02757363
v -0.00857758 -0.00134504 0.02795803
v -0.00853353 -0.00134504 0.02834243
v -0.00851932 -0.00096042 0.02872682
v -0.00839000 -0.00093242 0.02924596
v -0.00842979 -0.00057640 0.02924596
v -0.00844400 -0.00019117 0.02924596
v -0.00805319 -0.00320183 0.02684411
v -0.00826494 -0.00249770 0.02795803
v -0.00830047 -0.00247518 0.02759306
v -0.00830047 -0.00253543 0.02718965
v -0.00830615 -0.00253361 0.02680608
v -0.00836300 -0.00234312 0.02718965
v -0.00843121 -0.00211368 0.02718965
v -0.00853495 -0.00172906 0.02502381
v -0.00778745 -0.00282573 0.02924596
v -0.00784855 -0.00320183 0.02765423
v -0.00872680 -0.00066708 0.02642169
v -0.00872680 -0.00065430 0.02502381
v -0.00869411 -0.00096042 0.02680608
v -0.00862874 -0.00134504 0.02680608
v -0.00853921 -0.00172906 0.02718965
v -0.00852784 -0.00172906 0.02757363
v -0.00849232 -0.00172906 0.02795803
v -0.00845537 -0.00172906 0.02834243
v -0.00839000 -0.00171628 0.02871938
v -0.00845821 -0.00134504 0.02872682
v -0.00832463 -0.00134504 0.02924596
v -0.00801625 -0.00320183 0.02718965
v -0.00822799 -0.00249770 0.02834243
v -0.00833884 -0.00226522 0.02795803
v -0.00835873 -0.00233216 0.02747815
v -0.00862874 -0.00134504 0.02502381
v -0.00788266 -0.00320183 0.02758438
v -0.00796651 -0.00268636 0.02924596
v -0.00799919 -0.00273931 0.02903103
v -0.00792956 -0.00320183 0.02747733
v -0.00869411 -0.00096042 0.02502381
v -0.00840705 -0.00214655 0.02759306
v -0.00839852 -0.00207291 0.02795803
v -0.00838005 -0.00201387 0.02834243
v -0.00836300 -0.00196214 0.02858629
v -0.00833173 -0.00183556 0.02884214
v -0.00836015 -0.00157935 0.02895457
v -0.00825215 -0.00172115 0.02924596
v -0.00803614 -0.00278312 0.02872682
v -0.00816404 -0.00249770 0.02872682
v -0.00798640 -0.00263341 0.02924596
v -0.00828910 -0.00209968 0.02871938
v -0.00818536 -0.00211368 0.02911080
v -0.00829336 -0.00171628 0.02909386
v -0.00818394 -0.00197919 0.02924596
v -0.00805035 -0.00252752 0.02913974
v -0.00805177 -0.00242528 0.02924596
v -0.00814415 -0.00212464 0.02924596
f 1 2 3
f 1 3 4
f 1 4 5
f 1 5 16
f 1 16 25
f 1 25 39
f 1 39 51
f 1 51 64
f 1 64 77
f 1 77 91
f 1 91 90
f 1 90 105
f 1 105 119
f 1 119 133
f 1 133 152
f 1 152 154
f 1 154 153
f 1 153 178
f 1 178 196
f 1 196 201
f 1 201 182
f 1 182 160
f 1 160 140
f 1 140 139
f 1 139 138
f 1 138 125
f 1 125 124
f 1 124 122
f 1 122 110
f 1 110 93
f 1 93 92
f 1 92 78
f 1 78 65
f 1 65 52
f 1 52 40
f 1 40 26
f 1 26 17
f 1 17 6
f 1 6 19
f 1 19 28
f 1 28 44
f 1 44 33
f 1 33 32
f 1 32 31
f 1 31 30
f 1 30 29
f 1 29 20
f 1 20 12
f 1 12 11
f 1 11 10
f 1 10 9
f 1 9 7
f 1 7 2
f 2 7 3
f 3 8 4
f 3 7 9
f 3 9 10
f 3 10 11
f 3 11 12
f 3 12 20
f 3 20 13
f 3 13 21
f 3 21 35
f 3 35 49
f 3 49 60
f 3 60 74
f 3 74 81
f 3 81 87
f 3 87 99
f 3 99 101
f 3 101 118
f 3 118 117
f 3 117 130
f 3 130 148
f 3 148 170
f 3 170 169
f 3 169 168
f 3 168 191
f 3 191 208
f 3 208 215
f 3 215 218
f 3 218 217
f 3 217 211
f 3 211 198
f 3 198 179
f 3 179 157
f 3 157 136
f 3 136 135
f 3 135 134
f 3 134 120
f 3 120 106
f 3 106 88
f 3 88 76
f 3 76 62
f 3 62 50
f 3 50 37
f 3 37 36
f 3 36 23
f 3 23 22
f 3 22 14
f 3 14 8
f 4 8 14
f 4 14 15
f 4 15 5
f 5 15 16
f 6 17 18
f 6 18 19
f 13 20 21
f 14 22 15
f 15 23 24
f 15 24 25
f 15 25 16
f 15 22 23
f 17 26 18
f 18 26 27
f 18 27 28
f 18 28 19
f 20 29 21
f 21 29 30
f 21 30 31
f 21 31 32
f 21 32 33
f 21 33 34
f 21 34 35
f 23 36 24
f 24 36 37
f 24 37 38
f 24 38 25
f 25 38 39
f 26 40 41
f 26 41 27
f 27 41 42
f 27 42 43
f 27 43 28
f 28 43 45
f 28 45 46
f 28 46 44
f 33 35 34
f 33 44 47
f 33 47 35
f 35 47 48
f 35 48 49
f 37 50 61
f 37 61 51
f 37 51 39
f 37 39 38
f 40 52 41
f 41 52 53
f 41 53 42
f 42 53 54
f 42 54 43
f 43 54 55
f 43 55 45
f 44 46 47
f 45 55 46
f 46 56 47
f 46 55 57
f 46 57 58
f 46 58 59
f 46 59 56
f 47 56 48
f 48 60 49
f 48 56 60
f 50 62 63
f 50 63 64
f 50 64 61
f 51 61 64
f 52 65 53
f 53 65 78
f 53 78 66
f 53 66 54
f 54 66 67
f 54 67 55
f 55 67 57
f 56 68 69
f 56 69 60
f 56 59 68
f 57 67 70
f 57 70 58
f 58 70 71
f 58 71 59
f 59 71 72
f 59 72 73
f 59 73 68
f 60 69 74
f 62 75 63
f 62 76 75
f 63 75 77
f 63 77 64
f 66 78 79
f 66 79 80
f 66 80 67
f 67 80 70
f 68 81 69
f 68 73 81
f 69 81 74
f 70 80 82
f 70 82 71
f 71 82 83
f 71 83 72
f 72 84 85
f 72 85 73
f 72 83 86
f 72 86 84
f 73 85 87
f 73 87 81
f 75 76 88
f 75 88 89
f 75 89 90
f 75 90 91
f 75 91 77
f 78 92 79
f 79 92 93
f 79 93 94
f 79 94 95
f 79 95 80
f 80 95 82
f 82 95 96
f 82 96 97
f 82 97 83
f 83 97 98
f 83 98 100
f 83 100 86
f 84 99 87
f 84 87 85
f 84 86 99
f 86 100 101
f 86 101 99
f 88 102 103
f 88 103 104
f 88 104 105
f 88 105 89
f 88 106 107
f 88 107 108
f 88 108 109
f 88 109 102
f 89 105 90
f 93 110 111
f 93 111 94
f 94 111 95
f 95 111 96
f 96 111 112
f 96 112 113
f 96 113 114
f 96 114 115
f 96 115 97
f 97 115 98
f 98 116 100
f 98 115 116
f 100 116 117
f 100 117 118
f 100 118 101
f 102 109 108
f 102 108 107
f 102 107 121
f 102 121 137
f 102 137 156
f 102 156 155
f 102 155 158
f 102 158 180
f 102 180 197
f 102 197 200
f 102 200 192
f 102 192 171
f 102 171 149
f 102 149 131
f 102 131 119
f 102 119 105
f 102 105 104
f 102 104 103
f 106 120 121
f 106 121 107
f 110 122 111
f 111 122 123
f 111 123 112
f 112 123 113
f 113 123 124
f 113 124 125
f 113 125 126
f 113 126 114
f 114 126 127
f 114 127 115
f 115 127 128
f 115 128 147
f 115 147 129
f 115 129 116
f 116 129 130
f 116 130 117
f 119 131 151
f 119 151 132
f 119 132 133
f 120 134 121
f 121 134 135
f 121 135 136
f 121 136 137
f 122 124 123
f 125 138 126
f 126 139 140
f 126 140 141
f 126 141 142
f 126 142 127
f 126 138 139
f 127 142 128
f 128 142 143
f 128 143 144
f 128 144 145
f 128 145 146
f 128 146 147
f 129 147 170
f 129 170 148
f 129 148 130
f 131 149 150
f 131 150 151
f 132 152 133
f 132 151 175
f 132 175 153
f 132 153 154
f 132 154 152
f 136 155 156
f 136 156 137
f 136 157 158
f 136 158 155
f 140 159 141
f 140 160 159
f 141 159 161
f 141 161 142
f 142 161 143
f 143 162 163
f 143 163 164
f 143 164 165
f 143 165 144
f 143 161 162
f 144 165 166
f 144 166 145
f 145 166 167
f 145 167 146
f 146 167 168
f 146 168 169
f 146 169 147
f 147 169 170
f 149 171 172
f 149 172 173
f 149 173 150
f 150 173 174
f 150 174 175
f 150 175 151
f 153 175 176
f 153 176 177
f 153 177 178
f 157 179 180
f 157 180 158
f 159 181 161
f 159 160 182
f 159 182 181
f 161 181 162
f 162 183 163
f 162 181 183
f 163 184 185
f 163 185 186
f 163 186 164
f 163 183 184
f 164 186 165
f 165 186 187
f 165 187 188
f 165 188 166
f 166 188 189
f 166 189 190
f 166 190 167
f 167 190 191
f 167 191 168
f 171 192 193
f 171 193 172
f 172 193 194
f 172 194 195
f 172 195 173
f 173 195 174
f 174 195 176
f 174 176 175
f 176 195 177
f 177 195 186
f 177 186 185
f 177 185 178
f 178 185 196
f 179 197 180
f 179 198 199
f 179 199 200
f 179 200 197
f 181 182 201
f 181 201 183
f 183 201 196
f 183 196 184
f 184 196 185
f 186 195 202
f 186 202 203
f 186 203 204
f 186 204 187
f 187 204 188
f 188 204 205
f 188 205 189
f 189 205 206
f 189 206 207
f 189 207 190
f 190 207 191
f 191 207 208
f 192 200 199
f 192 199 209
f 192 209 193
f 193 209 210
f 193 210 205
f 193 205 204
f 193 204 194
f 194 204 203
f 194 203 202
f 194 202 195
f 198 211 199
f 199 211 210
f 199 210 209
f 205 210 212
f 205 212 213
f 205 213 206
f 206 214 207
f 206 213 208
f 206 208 214
f 207 214 208
f 208 213 215
f 210 211 216
f 210 216 212
f 211 217 216
f 212 216 213
f 213 216 218
f 213 218 215
f 216 217 218

