# https://github.com/mikedh/trimesh
v 0.00220000 0.00149333 0.00756181
v 0.00220000 -0.00149527 0.00756181
v 0.00220000 0.00206896 0.00726010
v 0.00141472 0.00178696 0.00742251
v -0.00104969 0.00249826 0.00698804
v 0.00141472 -0.00178793 0.00742251
v 0.00220000 -0.00206993 0.00726070
v -0.00104969 -0.00000097 0.00698804
v 0.00049480 -0.00206993 0.00726070
v 0.00220000 0.00425227 0.00587429
v 0.00049480 0.00206896 0.00726010
v -0.00104969 0.00425227 0.00587429
v -0.00112792 0.00494903 0.00150641
v -0.00113020 -0.00435887 0.00150641
v 0.00220000 -0.00425227 0.00587488
v -0.00104903 -0.00249826 0.00698804
v -0.00104903 -0.00425227 0.00587488
v 0.00220000 0.00462052 0.00554472
v -0.00104969 0.00462052 0.00554472
v -0.00104969 0.00473874 0.00533252
v -0.00104969 0.00486472 0.00510491
v -0.00104969 0.00494903 0.00460879
v -0.00104969 0.00495000 0.00395678
v -0.00104969 0.00495000 0.00248620
v -0.00060114 0.00494903 0.00150641
v -0.00112792 -0.00495000 0.00150641
v 0.00220000 -0.00462149 0.00554472
v -0.00104903 -0.00462149 0.00554472
v 0.00220000 0.00473874 0.00533252
v 0.00220000 0.00486472 0.00510491
v 0.00220000 0.00494903 0.00460879
v 0.00220000 0.00495000 0.00395678
v 0.00220000 0.00494903 0.00248620
v 0.00220000 0.00494806 0.00150641
v 0.00220000 -0.00495000 0.00150641
v -0.00104903 -0.00495000 0.00460879
v -0.00104903 -0.00486375 0.00510432
v -0.00104903 -0.00485406 0.00512447
v 0.00220000 -0.00485406 0.00512447
v 0.00220000 -0.00495000 0.00460879
v 0.00220000 -0.00486375 0.00510432
f 1 2 7
f 1 7 15
f 1 15 27
f 1 27 39
f 1 39 41
f 1 41 40
f 1 40 35
f 1 35 34
f 1 34 33
f 1 33 32
f 1 32 31
f 1 31 30
f 1 30 29
f 1 29 18
f 1 18 10
f 1 10 3
f 1 3 4
f 1 4 5
f 1 5 8
f 1 8 2
f 2 6 7
f 2 8 9
f 2 9 6
f 3 10 5
f 3 5 11
f 3 11 4
f 4 11 5
f 5 10 12
f 5 12 13
f 5 13 14
f 5 14 8
f 6 9 7
f 7 9 17
f 7 17 15
f 8 14 16
f 8 16 9
f 9 16 17
f 10 18 19
f 10 19 12
f 12 19 13
f 13 19 20
f 13 20 21
f 13 21 22
f 13 22 23
f 13 23 24
f 13 24 25
f 13 25 34
f 13 34 35
f 13 35 26
f 13 26 14
f 14 26 16
f 15 17 28
f 15 28 27
f 16 26 17
f 17 26 28
f 18 29 20
f 18 20 19
f 20 29 30
f 20 30 21
f 21 30 31
f 21 31 22
f 22 31 32
f 22 32 23
f 23 32 24
f 24 32 33
f 24 33 25
f 25 33 34
f 26 35 40
f 26 40 36
f 26 36 37
f 26 37 38
f 26 38 28
f 27 28 38
f 27 38 39
f 36 40 41
f 36 41 37
f 37 41 39
f 37 39 38

