# https://github.com/mikedh/trimesh
v 0.00220000 -0.00289948 0.00150641
v -0.00104965 -0.00289948 0.00150641
v 0.00220000 -0.00494968 0.00150641
v 0.00220000 -0.00289948 0.00033530
v -0.00112957 -0.00435934 0.00150641
v -0.00104965 -0.00289948 -0.00027628
v -0.00202976 -0.00295005 -0.00237913
v -0.00202976 -0.00444988 -0.00041930
v -0.00112791 -0.00494968 0.00150641
v 0.00000044 -0.00498252 0.00149923
v 0.00000872 -0.00498252 0.00149803
v 0.00054163 -0.00498252 0.00139809
v 0.00101037 -0.00498252 0.00110786
v 0.00101575 -0.00498252 0.00110128
v 0.00134245 -0.00498252 0.00066802
v 0.00149318 -0.00498252 0.00013782
v 0.00220000 -0.00494968 0.00033530
v 0.00219917 -0.00289948 0.00025811
v -0.00202976 -0.00494968 -0.00038938
v -0.00103309 -0.00289948 -0.00047376
v -0.00202976 -0.00295026 -0.00460704
v -0.00202976 -0.00295005 -0.00370403
v -0.00134240 -0.00498231 0.00066802
v -0.00133743 -0.00498231 0.00067520
v -0.00115524 -0.00498252 0.00091577
v -0.00101031 -0.00498252 0.00110786
v -0.00054158 -0.00498252 0.00139809
v 0.00149235 -0.00498252 0.00012885
v 0.00216729 -0.00494968 -0.00023200
v 0.00218799 -0.00289948 -0.00000280
v 0.00219503 -0.00289948 0.00012466
v 0.00219876 -0.00289948 0.00023237
v -0.00149354 -0.00498231 0.00013782
v -0.00202976 -0.00494968 -0.00460644
v -0.00098174 -0.00289948 -0.00068440
v -0.00089769 -0.00289948 -0.00087829
v -0.00078837 -0.00289948 -0.00107398
v -0.00062812 -0.00289948 -0.00128223
v -0.00051798 -0.00289948 -0.00138575
v -0.00036850 -0.00289948 -0.00149347
v -0.00020867 -0.00289948 -0.00152099
v 0.00040582 -0.00289948 -0.00141208
v 0.00121202 -0.00289948 -0.00126308
v -0.00187945 -0.00295026 -0.00457832
v -0.00202976 -0.00299430 -0.00460704
v -0.00115524 -0.00498252 -0.00094172
v 0.00144225 -0.00498252 -0.00041153
v 0.00215155 -0.00321902 -0.00035886
v 0.00217930 -0.00298737 -0.00011950
v 0.00196812 -0.00494968 -0.00116793
v 0.00207785 -0.00347657 -0.00076100
v 0.00211553 -0.00337665 -0.00058028
v 0.00214410 -0.00326083 -0.00041212
v 0.00218427 -0.00289948 -0.00005008
v -0.00144343 -0.00498231 -0.00040255
v -0.00187945 -0.00494968 -0.00457832
v 0.00027539 -0.00498252 -0.00147432
v 0.00027124 -0.00498252 -0.00147492
v 0.00000044 -0.00498252 -0.00150005
v -0.00027533 -0.00498252 -0.00147432
v -0.00028361 -0.00498252 -0.00147133
v -0.00078920 -0.00498252 -0.00127624
v -0.00119665 -0.00498231 -0.00090462
v -0.00120079 -0.00498231 -0.00089684
v -0.00144261 -0.00498231 -0.00041093
v 0.00126088 -0.00289948 -0.00124991
v -0.00128857 -0.00295026 -0.00442991
v 0.00119670 -0.00498252 -0.00090462
v 0.00159462 -0.00494968 -0.00204760
v 0.00211884 -0.00316070 -0.00049889
v 0.00196853 -0.00363400 -0.00116613
v 0.00199628 -0.00360504 -0.00107398
v 0.00180415 -0.00372678 -0.00161195
v 0.00183106 -0.00371801 -0.00154852
v 0.00205176 -0.00335891 -0.00082503
v 0.00211553 -0.00289948 -0.00036425
v -0.00128857 -0.00494968 -0.00442991
v 0.00078925 -0.00498252 -0.00127624
v 0.00138924 -0.00289948 -0.00119306
v -0.00074199 -0.00295026 -0.00422106
v -0.00115524 -0.00446354 -0.00437904
v 0.00038429 -0.00494968 -0.00351852
v 0.00106006 -0.00494968 -0.00284171
v 0.00118303 -0.00367702 -0.00268552
v 0.00150891 -0.00374309 -0.00219840
v 0.00159421 -0.00374921 -0.00204700
v 0.00194866 -0.00349635 -0.00118767
v 0.00180953 -0.00357364 -0.00156468
v 0.00163313 -0.00359444 -0.00194168
v 0.00210186 -0.00289948 -0.00040255
v -0.00040784 -0.00494968 -0.00405470
v 0.00151802 -0.00289948 -0.00111048
v -0.00038879 -0.00295046 -0.00403376
v -0.00061363 -0.00299512 -0.00416062
v 0.00007953 -0.00326531 -0.00375190
v 0.00030230 -0.00335646 -0.00358494
v 0.00038304 -0.00338929 -0.00351971
v 0.00066172 -0.00349982 -0.00327077
v 0.00105923 -0.00364032 -0.00284230
v 0.00113749 -0.00366397 -0.00274476
v 0.00118842 -0.00350390 -0.00264542
v 0.00142403 -0.00356793 -0.00230432
v 0.00190104 -0.00336829 -0.00121879
v 0.00176398 -0.00343416 -0.00157066
v 0.00159214 -0.00344537 -0.00192313
v 0.00206129 -0.00289948 -0.00048693
v -0.00040742 -0.00307138 -0.00405410
v -0.00037595 -0.00308342 -0.00403735
v 0.00160995 -0.00289948 -0.00104944
v -0.00006457 -0.00295046 -0.00380217
v 0.00002280 -0.00301286 -0.00375250
v 0.00034329 -0.00315785 -0.00351553
v 0.00064557 -0.00329223 -0.00325162
v 0.00092838 -0.00340989 -0.00296139
v 0.00116192 -0.00333933 -0.00258439
v 0.00138966 -0.00341071 -0.00226363
v 0.00199545 -0.00289948 -0.00061499
v 0.00162941 -0.00289948 -0.00103268
v 0.00019091 -0.00295026 -0.00356340
v 0.00034578 -0.00297330 -0.00340601
v 0.00063853 -0.00311441 -0.00315588
v 0.00091099 -0.00323860 -0.00288180
v 0.00110519 -0.00319149 -0.00250420
v 0.00191470 -0.00289948 -0.00073407
v 0.00086047 -0.00308709 -0.00277947
v 0.00059464 -0.00296004 -0.00303260
v 0.00061948 -0.00295026 -0.00297037
v 0.00042776 -0.00295026 -0.00327795
f 1 2 5
f 1 5 9
f 1 9 3
f 1 3 17
f 1 17 4
f 1 4 18
f 1 18 32
f 1 32 31
f 1 31 30
f 1 30 54
f 1 54 76
f 1 76 90
f 1 90 106
f 1 106 117
f 1 117 124
f 1 124 118
f 1 118 109
f 1 109 92
f 1 92 79
f 1 79 66
f 1 66 43
f 1 43 42
f 1 42 41
f 1 41 40
f 1 40 39
f 1 39 38
f 1 38 37
f 1 37 36
f 1 36 35
f 1 35 20
f 1 20 6
f 1 6 2
f 2 6 22
f 2 22 7
f 2 7 8
f 2 8 5
f 3 9 10
f 3 10 11
f 3 11 12
f 3 12 13
f 3 13 14
f 3 14 15
f 3 15 16
f 3 16 17
f 4 17 18
f 5 8 19
f 5 19 9
f 6 20 21
f 6 21 22
f 7 22 21
f 7 21 45
f 7 45 34
f 7 34 19
f 7 19 8
f 9 23 24
f 9 24 25
f 9 25 26
f 9 26 27
f 9 27 10
f 9 19 23
f 10 27 26
f 10 26 25
f 10 25 46
f 10 46 62
f 10 62 61
f 10 61 60
f 10 60 59
f 10 59 58
f 10 58 57
f 10 57 78
f 10 78 68
f 10 68 47
f 10 47 28
f 10 28 16
f 10 16 15
f 10 15 14
f 10 14 13
f 10 13 12
f 10 12 11
f 16 28 29
f 16 29 17
f 17 29 30
f 17 30 31
f 17 31 32
f 17 32 18
f 19 33 23
f 19 34 33
f 20 35 21
f 21 35 36
f 21 36 37
f 21 37 38
f 21 38 39
f 21 39 40
f 21 40 41
f 21 41 42
f 21 42 43
f 21 43 44
f 21 44 56
f 21 56 45
f 23 33 25
f 23 25 24
f 25 33 46
f 28 47 29
f 29 48 49
f 29 49 30
f 29 47 50
f 29 50 51
f 29 51 52
f 29 52 53
f 29 53 48
f 30 49 54
f 33 34 55
f 33 55 46
f 34 45 56
f 34 56 57
f 34 57 58
f 34 58 59
f 34 59 60
f 34 60 61
f 34 61 62
f 34 62 46
f 34 46 63
f 34 63 64
f 34 64 65
f 34 65 55
f 43 66 67
f 43 67 44
f 44 67 77
f 44 77 56
f 46 55 65
f 46 65 64
f 46 64 63
f 47 68 69
f 47 69 50
f 48 53 70
f 48 70 49
f 49 70 54
f 50 71 72
f 50 72 51
f 50 69 73
f 50 73 74
f 50 74 71
f 51 75 70
f 51 70 52
f 51 72 75
f 52 70 53
f 54 70 76
f 56 77 57
f 57 77 78
f 66 79 80
f 66 80 67
f 67 80 81
f 67 81 77
f 68 78 82
f 68 82 83
f 68 83 69
f 69 83 84
f 69 84 85
f 69 85 86
f 69 86 73
f 70 75 76
f 71 74 87
f 71 87 72
f 72 87 75
f 73 88 74
f 73 86 89
f 73 89 88
f 74 88 87
f 75 90 76
f 75 87 90
f 77 81 91
f 77 91 78
f 78 91 82
f 79 92 93
f 79 93 80
f 80 93 94
f 80 94 91
f 80 91 81
f 82 91 95
f 82 95 96
f 82 96 97
f 82 97 98
f 82 98 83
f 83 98 99
f 83 99 100
f 83 100 84
f 84 100 101
f 84 101 102
f 84 102 85
f 85 102 89
f 85 89 86
f 87 103 90
f 87 88 103
f 88 89 104
f 88 104 103
f 89 102 105
f 89 105 104
f 90 103 104
f 90 104 106
f 91 94 107
f 91 107 108
f 91 108 95
f 92 109 93
f 93 110 111
f 93 111 95
f 93 95 108
f 93 108 107
f 93 107 94
f 93 109 110
f 95 111 112
f 95 112 96
f 96 112 97
f 97 112 113
f 97 113 98
f 98 113 114
f 98 114 99
f 99 101 100
f 99 114 101
f 101 115 116
f 101 116 102
f 101 114 115
f 102 116 105
f 104 105 106
f 105 116 117
f 105 117 106
f 109 118 110
f 110 119 111
f 110 118 119
f 111 119 112
f 112 119 120
f 112 120 113
f 113 121 114
f 113 120 121
f 114 121 122
f 114 122 115
f 115 123 117
f 115 117 116
f 115 122 123
f 117 123 125
f 117 125 126
f 117 126 127
f 117 127 128
f 117 128 124
f 118 124 119
f 119 128 120
f 119 124 128
f 120 128 121
f 121 128 126
f 121 126 125
f 121 125 122
f 122 125 123
f 126 128 127

