# https://github.com/mikedh/trimesh
v 0.00219968 0.00494981 0.00150641
v 0.00219968 0.00266678 0.00150641
v 0.00219968 0.00494981 0.00033530
v 0.00149331 0.00495969 0.00013782
v 0.00149248 0.00495969 0.00014082
v 0.00134218 0.00495969 0.00066802
v 0.00101011 0.00495969 0.00110786
v 0.00100804 0.00495969 0.00110966
v 0.00054182 0.00495969 0.00139809
v 0.00053934 0.00495969 0.00139869
v 0.00000066 0.00495969 0.00149923
v -0.00112805 0.00494981 0.00150641
v -0.00104979 0.00266678 0.00150641
v 0.00219968 0.00266678 0.00027965
v 0.00219927 0.00266678 0.00024853
v 0.00219554 0.00266678 0.00012705
v 0.00216739 0.00494981 -0.00023200
v -0.00105269 0.00495991 0.00105161
v 0.00144238 0.00495969 -0.00041093
v -0.00105269 0.00495991 -0.00103627
v -0.00054134 0.00495969 0.00139809
v -0.00112598 0.00436014 0.00150641
v -0.00054382 0.00495969 0.00139690
v -0.00101004 0.00495969 0.00110786
v -0.00134252 0.00495991 0.00066742
v -0.00202985 0.00494981 -0.00038998
v -0.00104979 0.00266678 -0.00015241
v -0.00202985 0.00444993 -0.00041871
v -0.00202985 0.00295005 -0.00237973
v 0.00219388 0.00266678 0.00009833
v 0.00217898 0.00298709 -0.00011950
v 0.00217484 0.00303804 -0.00016498
v 0.00214420 0.00326094 -0.00041093
v 0.00211687 0.00337182 -0.00057190
v 0.00207795 0.00347665 -0.00076160
v 0.00196823 0.00494981 -0.00116793
v 0.00159475 0.00494981 -0.00204760
v 0.00119685 0.00495969 -0.00090462
v -0.00119678 0.00495991 -0.00090402
v 0.00079149 0.00495969 -0.00127385
v 0.00078901 0.00495969 -0.00127564
v 0.00027559 0.00495969 -0.00147432
v 0.00000066 0.00495969 -0.00150005
v -0.00027510 0.00495969 -0.00147432
v -0.00078687 0.00495969 -0.00127684
v -0.00078935 0.00495969 -0.00127564
v -0.00202985 0.00494981 -0.00460704
v -0.00149324 0.00495991 0.00013782
v -0.00103240 0.00266678 -0.00033792
v -0.00202985 0.00295005 -0.00460704
v 0.00214710 0.00266678 -0.00013625
v 0.00212764 0.00266678 -0.00021644
v 0.00200508 0.00359404 -0.00104465
v 0.00194877 0.00349618 -0.00118947
v 0.00197402 0.00362816 -0.00114997
v 0.00196906 0.00363287 -0.00116613
v 0.00181627 0.00372311 -0.00158562
v 0.00159434 0.00375049 -0.00204700
v 0.00151733 0.00374533 -0.00218285
v 0.00143162 0.00373411 -0.00232407
v 0.00106021 0.00494981 -0.00284111
v 0.00038448 0.00494981 -0.00351852
v -0.00144272 0.00495991 -0.00041153
v -0.00040801 0.00494981 -0.00405410
v -0.00105269 0.00494981 -0.00432938
v -0.00128828 0.00494981 -0.00442991
v -0.00187955 0.00494981 -0.00457832
v -0.00100756 0.00266678 -0.00042529
v -0.00187955 0.00295005 -0.00457832
v 0.00145066 0.00266678 -0.00082324
v 0.00126890 0.00266678 -0.00085555
v -0.00004862 0.00266678 -0.00108834
v -0.00015337 0.00266678 -0.00110569
v -0.00030740 0.00266678 -0.00110988
v -0.00032354 0.00266678 -0.00110988
v -0.00048751 0.00266678 -0.00106201
v -0.00050324 0.00266678 -0.00105363
v -0.00064154 0.00266678 -0.00097524
v -0.00071482 0.00266678 -0.00090881
v -0.00077859 0.00266678 -0.00084897
v -0.00089286 0.00266678 -0.00069159
v -0.00090197 0.00266678 -0.00067423
v -0.00097940 0.00266678 -0.00052403
v 0.00206015 0.00266678 -0.00033912
v 0.00139145 0.00341222 -0.00226004
v 0.00159310 0.00344634 -0.00192194
v 0.00176369 0.00343400 -0.00157246
v 0.00190074 0.00336778 -0.00122059
v 0.00180923 0.00357384 -0.00156647
v 0.00163409 0.00359539 -0.00194049
v 0.00142582 0.00356980 -0.00230073
v 0.00118898 0.00350493 -0.00264363
v 0.00113226 0.00366295 -0.00274955
v 0.00105897 0.00364051 -0.00284230
v 0.00064285 0.00349169 -0.00329052
v 0.00038283 0.00338911 -0.00351971
v 0.00030250 0.00335701 -0.00358434
v -0.00001839 0.00322592 -0.00381713
v -0.00037613 0.00308361 -0.00403675
v -0.00040760 0.00307149 -0.00405350
v -0.00066348 0.00295005 -0.00418396
v -0.00074215 0.00295005 -0.00422106
v -0.00105269 0.00408697 -0.00434015
v -0.00128828 0.00295005 -0.00442991
v 0.00155914 0.00266678 -0.00079391
v 0.00196906 0.00266678 -0.00048992
v 0.00116248 0.00333995 -0.00258259
v 0.00092730 0.00340908 -0.00296318
v 0.00064492 0.00329146 -0.00325282
v 0.00034349 0.00315791 -0.00351493
v 0.00002426 0.00301380 -0.00375070
v -0.00012149 0.00295028 -0.00384585
v -0.00033969 0.00295028 -0.00400144
v 0.00172932 0.00266678 -0.00071313
v 0.00163823 0.00266678 -0.00075921
v -0.00105269 0.00295005 -0.00434015
v -0.00004654 0.00295028 -0.00378541
v 0.00020727 0.00295005 -0.00354485
v 0.00044700 0.00295005 -0.00325162
v 0.00059399 0.00295903 -0.00303440
v 0.00085981 0.00308630 -0.00278067
v 0.00091033 0.00323759 -0.00288300
v 0.00063747 0.00311346 -0.00315767
v 0.00034639 0.00297340 -0.00340542
f 1 2 14
f 1 14 3
f 1 3 4
f 1 4 5
f 1 5 6
f 1 6 7
f 1 7 8
f 1 8 9
f 1 9 10
f 1 10 11
f 1 11 12
f 1 12 22
f 1 22 13
f 1 13 2
f 2 13 27
f 2 27 49
f 2 49 68
f 2 68 83
f 2 83 82
f 2 82 81
f 2 81 80
f 2 80 79
f 2 79 78
f 2 78 77
f 2 77 76
f 2 76 75
f 2 75 74
f 2 74 73
f 2 73 72
f 2 72 71
f 2 71 70
f 2 70 105
f 2 105 115
f 2 115 114
f 2 114 106
f 2 106 84
f 2 84 52
f 2 52 51
f 2 51 30
f 2 30 16
f 2 16 15
f 2 15 14
f 3 14 15
f 3 15 16
f 3 16 17
f 3 17 4
f 4 18 5
f 4 17 19
f 4 19 20
f 4 20 18
f 5 18 6
f 6 18 7
f 7 18 8
f 8 18 9
f 9 18 10
f 10 18 11
f 11 18 21
f 11 21 12
f 12 21 23
f 12 23 24
f 12 24 18
f 12 18 25
f 12 25 26
f 12 26 22
f 13 22 28
f 13 28 29
f 13 29 50
f 13 50 27
f 16 30 17
f 17 30 31
f 17 31 32
f 17 32 33
f 17 33 34
f 17 34 35
f 17 35 36
f 17 36 19
f 18 24 23
f 18 23 21
f 18 20 39
f 18 39 63
f 18 63 48
f 18 48 25
f 19 36 37
f 19 37 38
f 19 38 20
f 20 38 40
f 20 40 41
f 20 41 42
f 20 42 43
f 20 43 44
f 20 44 45
f 20 45 46
f 20 46 47
f 20 47 39
f 22 26 28
f 25 48 26
f 26 48 47
f 26 47 50
f 26 50 29
f 26 29 28
f 27 50 49
f 30 51 32
f 30 32 31
f 32 51 33
f 33 51 52
f 33 52 34
f 34 52 35
f 35 53 36
f 35 52 54
f 35 54 53
f 36 55 56
f 36 56 57
f 36 57 37
f 36 53 55
f 37 57 58
f 37 58 59
f 37 59 60
f 37 60 61
f 37 61 38
f 38 61 62
f 38 62 40
f 39 47 63
f 40 62 41
f 41 62 64
f 41 64 65
f 41 65 66
f 41 66 42
f 42 66 67
f 42 67 47
f 42 47 43
f 43 47 44
f 44 47 45
f 45 47 46
f 47 48 63
f 47 67 69
f 47 69 50
f 49 50 68
f 50 69 70
f 50 70 71
f 50 71 72
f 50 72 73
f 50 73 74
f 50 74 75
f 50 75 76
f 50 76 77
f 50 77 78
f 50 78 79
f 50 79 80
f 50 80 81
f 50 81 82
f 50 82 83
f 50 83 68
f 52 84 85
f 52 85 86
f 52 86 87
f 52 87 88
f 52 88 54
f 53 54 55
f 54 56 55
f 54 88 89
f 54 89 57
f 54 57 56
f 57 90 58
f 57 89 90
f 58 90 59
f 59 90 91
f 59 91 60
f 60 91 92
f 60 92 93
f 60 93 61
f 61 93 94
f 61 94 95
f 61 95 62
f 62 95 96
f 62 96 97
f 62 97 98
f 62 98 64
f 64 99 100
f 64 100 101
f 64 101 102
f 64 102 103
f 64 103 65
f 64 98 99
f 65 103 66
f 66 103 116
f 66 116 104
f 66 104 69
f 66 69 67
f 69 104 70
f 70 104 105
f 84 106 107
f 84 107 85
f 85 107 92
f 85 92 91
f 85 91 86
f 86 91 90
f 86 90 87
f 87 90 89
f 87 89 88
f 92 107 108
f 92 108 94
f 92 94 93
f 94 108 95
f 95 108 109
f 95 109 96
f 96 109 110
f 96 110 97
f 97 111 98
f 97 110 111
f 98 111 112
f 98 112 113
f 98 113 99
f 99 113 100
f 100 113 101
f 101 113 114
f 101 114 115
f 101 115 102
f 102 116 103
f 102 115 105
f 102 105 116
f 104 116 105
f 106 114 117
f 106 117 118
f 106 118 119
f 106 119 120
f 106 120 121
f 106 121 122
f 106 122 107
f 107 122 108
f 108 122 123
f 108 123 109
f 109 123 124
f 109 124 110
f 110 118 111
f 110 124 118
f 111 118 117
f 111 117 112
f 112 117 114
f 112 114 113
f 118 124 119
f 119 124 123
f 119 123 121
f 119 121 120
f 121 123 122

