# https://github.com/mikedh/trimesh
v 0.00149219 0.00699980 0.00013759
v 0.00144004 0.00699980 -0.00041081
v 0.00134194 0.00699980 0.00066794
v 0.00219876 0.00494905 0.00150569
v 0.00219876 0.00494905 0.00033458
v 0.00216647 0.00494905 -0.00023186
v 0.00196530 0.00494905 -0.00116990
v 0.00159402 0.00494905 -0.00204733
v 0.00119416 0.00699980 -0.00090580
v 0.00100790 0.00699980 0.00110738
v 0.00220000 0.00282945 0.00150641
v 0.00053975 0.00699980 0.00139817
v -0.00000166 0.00699980 0.00149991
v -0.00112298 0.00494812 0.00150641
v 0.00220000 0.00282945 0.00033530
v 0.00219876 0.00282945 0.00025520
v 0.00219503 0.00262195 0.00012316
v 0.00219379 0.00266662 0.00010007
v 0.00214288 0.00326025 -0.00041153
v 0.00211432 0.00337191 -0.00057244
v 0.00207706 0.00347705 -0.00076149
v 0.00218634 0.00282945 -0.00001106
v 0.00217765 0.00298670 -0.00011929
v 0.00200380 0.00359336 -0.00104507
v 0.00197276 0.00362779 -0.00115114
v 0.00196779 0.00363337 -0.00116629
v 0.00181381 0.00372270 -0.00158625
v 0.00159153 0.00374968 -0.00204733
v 0.00151578 0.00374596 -0.00218154
v 0.00142886 0.00373386 -0.00232225
v 0.00105881 0.00494905 -0.00284034
v 0.00038329 0.00494905 -0.00351789
v 0.00078935 0.00699980 -0.00127597
v 0.00220000 -0.00250585 0.00150641
v -0.00054432 0.00699980 0.00139817
v -0.00113043 0.00494812 0.00150641
v 0.00220000 -0.00250585 0.00033530
v 0.00219876 -0.00231603 0.00023644
v 0.00219627 -0.00250585 0.00017006
v 0.00213791 -0.00250585 -0.00012074
v 0.00198642 -0.00250585 -0.00038050
v 0.00118796 0.00350497 -0.00264191
v 0.00113083 0.00366315 -0.00274870
v 0.00105757 0.00363989 -0.00284106
v 0.00064033 0.00349194 -0.00328916
v 0.00038080 0.00338866 -0.00351934
v 0.00030133 0.00335702 -0.00358284
v -0.00002153 0.00322583 -0.00381662
v -0.00041021 0.00494905 -0.00405330
v -0.00112298 0.00494905 -0.00435708
v -0.00129062 0.00494812 -0.00442924
v 0.00027277 0.00699980 -0.00147513
v -0.00105096 -0.00250585 0.00150641
v -0.00101247 0.00699980 0.00110738
v -0.00981788 0.00494905 -0.00313402
v -0.00981788 0.00294948 -0.00313402
v -0.00112919 0.00436007 0.00150641
v 0.00219876 -0.00250585 0.00024366
v 0.00176290 -0.00250585 -0.00057965
v 0.00034107 0.00315790 -0.00351429
v 0.00064158 0.00329096 -0.00325308
v 0.00092470 0.00340913 -0.00296228
v 0.00002193 0.00301368 -0.00374952
v -0.00012460 0.00295041 -0.00384549
v -0.00034067 0.00295041 -0.00400135
v -0.00037916 0.00308347 -0.00403526
v -0.00040896 0.00307137 -0.00405330
v -0.00066601 0.00295041 -0.00418318
v -0.00074548 0.00295041 -0.00421926
v -0.00129062 0.00295041 -0.00442924
v -0.00188047 0.00494812 -0.00457716
v -0.00203196 0.00494812 -0.00460602
v -0.00464589 0.00494905 -0.00509669
v -0.00871146 0.00494905 -0.00585723
v -0.00000166 0.00699980 -0.00150110
v -0.01018917 0.00294948 -0.00348542
v -0.01042014 0.00294948 -0.00394146
v -0.01048595 0.00294948 -0.00444800
v -0.00104972 -0.00250585 -0.00009187
v -0.00134402 0.00699980 0.00066794
v -0.01018917 0.00494905 -0.00348542
v 0.00166976 -0.00250585 -0.00061573
v -0.00004761 0.00295041 -0.00378560
v -0.00188047 0.00295041 -0.00457716
v 0.00149716 -0.00250585 -0.00067923
v -0.00203196 0.00295041 -0.00460602
v -0.00464589 0.00295041 -0.00509669
v -0.00871146 0.00295041 -0.00585723
v -0.00922183 0.00494905 -0.00586517
v -0.00027734 0.00699980 -0.00147513
v -0.01042014 0.00494905 -0.00394146
v -0.01048595 0.00494905 -0.00444800
v -0.01037667 0.00295041 -0.00494733
v -0.00103358 -0.00250585 -0.00026794
v -0.00104351 -0.00250585 -0.00015970
v -0.00149427 0.00699980 0.00013759
v 0.00124011 -0.00250585 -0.00072541
v -0.00922183 0.00295041 -0.00586517
v -0.00013453 -0.00250585 -0.00096353
v -0.00030838 -0.00250585 -0.00097075
v -0.00970612 0.00494905 -0.00569920
v -0.00079143 0.00699980 -0.00127597
v -0.00144460 0.00699980 -0.00041081
v -0.01037667 0.00494905 -0.00494733
v -0.01010597 0.00295041 -0.00538171
v -0.00089201 -0.00250585 -0.00060707
v -0.00098018 -0.00250585 -0.00043967
v -0.00970612 0.00295041 -0.00569920
v -0.00047602 -0.00250585 -0.00093467
v -0.01010597 0.00494905 -0.00538171
v -0.00119873 0.00699980 -0.00090580
v -0.00077529 -0.00250585 -0.00074995
v -0.00063372 -0.00250585 -0.00086107
f 1 2 9
f 1 9 33
f 1 33 52
f 1 52 75
f 1 75 90
f 1 90 102
f 1 102 111
f 1 111 103
f 1 103 96
f 1 96 80
f 1 80 54
f 1 54 35
f 1 35 13
f 1 13 12
f 1 12 10
f 1 10 3
f 1 3 4
f 1 4 5
f 1 5 6
f 1 6 2
f 2 6 7
f 2 7 8
f 2 8 9
f 3 10 4
f 4 11 15
f 4 15 5
f 4 10 12
f 4 12 13
f 4 13 14
f 4 14 11
f 5 15 16
f 5 16 17
f 5 17 18
f 5 18 6
f 6 19 20
f 6 20 21
f 6 21 7
f 6 18 22
f 6 22 23
f 6 23 19
f 7 21 24
f 7 24 25
f 7 25 26
f 7 26 27
f 7 27 8
f 8 28 29
f 8 29 30
f 8 30 31
f 8 31 9
f 8 27 28
f 9 31 32
f 9 32 33
f 11 34 37
f 11 37 15
f 11 14 36
f 11 36 57
f 11 57 53
f 11 53 34
f 13 35 36
f 13 36 14
f 15 37 38
f 15 38 16
f 16 38 17
f 17 39 18
f 17 38 39
f 18 39 22
f 19 23 39
f 19 39 20
f 20 39 40
f 20 40 21
f 21 40 24
f 22 39 23
f 24 40 25
f 25 40 26
f 26 40 27
f 27 40 28
f 28 40 29
f 29 40 41
f 29 41 30
f 30 42 43
f 30 43 31
f 30 41 42
f 31 43 44
f 31 44 45
f 31 45 32
f 32 45 46
f 32 46 47
f 32 47 48
f 32 48 49
f 32 49 33
f 33 49 50
f 33 50 51
f 33 51 52
f 34 53 79
f 34 79 95
f 34 95 94
f 34 94 107
f 34 107 106
f 34 106 112
f 34 112 113
f 34 113 109
f 34 109 100
f 34 100 99
f 34 99 97
f 34 97 85
f 34 85 82
f 34 82 59
f 34 59 41
f 34 41 40
f 34 40 39
f 34 39 58
f 34 58 37
f 35 54 55
f 35 55 36
f 36 55 56
f 36 56 57
f 37 58 38
f 38 58 39
f 41 59 60
f 41 60 61
f 41 61 62
f 41 62 44
f 41 44 42
f 42 44 43
f 44 62 45
f 45 62 61
f 45 61 46
f 46 60 47
f 46 61 60
f 47 60 63
f 47 63 48
f 48 63 64
f 48 64 65
f 48 65 66
f 48 66 49
f 49 66 67
f 49 67 68
f 49 68 69
f 49 69 51
f 49 51 50
f 51 69 70
f 51 70 84
f 51 84 71
f 51 71 52
f 52 71 72
f 52 72 73
f 52 73 74
f 52 74 75
f 53 57 56
f 53 56 76
f 53 76 77
f 53 77 78
f 53 78 79
f 54 80 81
f 54 81 55
f 55 81 76
f 55 76 56
f 59 82 69
f 59 69 68
f 59 68 65
f 59 65 64
f 59 64 83
f 59 83 63
f 59 63 60
f 63 83 64
f 65 68 67
f 65 67 66
f 69 82 70
f 70 82 85
f 70 85 84
f 71 84 86
f 71 86 72
f 72 86 87
f 72 87 73
f 73 87 88
f 73 88 74
f 74 88 98
f 74 98 89
f 74 89 75
f 75 89 90
f 76 81 91
f 76 91 77
f 77 91 92
f 77 92 78
f 78 92 104
f 78 104 93
f 78 93 94
f 78 94 95
f 78 95 79
f 80 96 91
f 80 91 81
f 84 85 86
f 85 97 88
f 85 88 87
f 85 87 86
f 88 97 99
f 88 99 100
f 88 100 98
f 89 98 108
f 89 108 101
f 89 101 90
f 90 101 102
f 91 96 92
f 92 96 103
f 92 103 104
f 93 104 110
f 93 110 105
f 93 105 106
f 93 106 107
f 93 107 94
f 98 100 109
f 98 109 108
f 101 108 105
f 101 105 110
f 101 110 102
f 102 110 111
f 103 111 104
f 104 111 110
f 105 108 112
f 105 112 106
f 108 109 113
f 108 113 112

