# https://github.com/mikedh/trimesh
v -0.00922186 -0.00494964 -0.00586477
v -0.00970614 -0.00494964 -0.00569953
v -0.00922186 -0.00295029 -0.00586477
v -0.00871026 -0.00494964 -0.00585755
v -0.00000068 -0.00699956 -0.00150094
v -0.00027635 -0.00699956 -0.00147496
v -0.00970614 -0.00295029 -0.00569953
v -0.00079043 -0.00699956 -0.00127582
v -0.01010598 -0.00494964 -0.00538206
v -0.00047627 -0.00250653 -0.00093598
v -0.00030864 -0.00250653 -0.00097133
v -0.00871026 -0.00295029 -0.00585755
v -0.00466218 -0.00494920 -0.00509994
v -0.00466342 -0.00494964 -0.00509994
v 0.00027498 -0.00699956 -0.00147496
v -0.01010598 -0.00295029 -0.00538206
v -0.00077553 -0.00250653 -0.00075054
v -0.00063521 -0.00250653 -0.00086166
v -0.00119772 -0.00699956 -0.00090495
v -0.01037668 -0.00494964 -0.00494770
v -0.00013479 -0.00250653 -0.00096412
v -0.00466342 -0.00295029 -0.00509994
v -0.00466218 -0.00295117 -0.00509994
v 0.00123857 -0.00250653 -0.00072601
v 0.00149686 -0.00250653 -0.00068056
v -0.00187944 -0.00494920 -0.00457755
v 0.00078906 -0.00699956 -0.00127582
v -0.00128837 -0.00494920 -0.00442892
v -0.01037668 -0.00295029 -0.00494770
v -0.00089225 -0.00250653 -0.00060768
v -0.00144359 -0.00699956 -0.00041070
v -0.01048595 -0.00494964 -0.00444840
v -0.00187944 -0.00295117 -0.00457755
v 0.00166946 -0.00250653 -0.00061706
v -0.00128837 -0.00295117 -0.00442892
v -0.00040922 -0.00494920 -0.00405372
v 0.00038301 -0.00494920 -0.00351834
v 0.00119635 -0.00699956 -0.00090495
v -0.00105368 -0.00408718 -0.00434017
v -0.01048595 -0.00295029 -0.00444840
v -0.00103381 -0.00250653 -0.00026856
v -0.00098042 -0.00250653 -0.00044029
v -0.00149326 -0.00699956 0.00013766
v -0.01042014 -0.00494964 -0.00394116
v 0.00176259 -0.00250653 -0.00058098
v -0.00074325 -0.00295117 -0.00421967
v -0.00105368 -0.00295117 -0.00433945
v -0.00061535 -0.00299559 -0.00416051
v -0.00040798 -0.00307212 -0.00405372
v -0.00037693 -0.00308399 -0.00403568
v 0.00007879 -0.00326607 -0.00375068
v 0.00030106 -0.00335711 -0.00358328
v 0.00038177 -0.00339009 -0.00351834
v 0.00065992 -0.00350048 -0.00327014
v 0.00105976 -0.00494920 -0.00284154
v 0.00159371 -0.00494920 -0.00204714
v 0.00144222 -0.00699956 -0.00041070
v -0.01042014 -0.00295029 -0.00394116
v -0.00105120 -0.00250653 0.00150641
v -0.00105120 -0.00250653 -0.00009251
v -0.00104499 -0.00250653 -0.00016105
v -0.00134301 -0.00699956 0.00066799
v -0.01018918 -0.00494964 -0.00348587
v 0.00198734 -0.00250653 -0.00038184
v -0.00006650 -0.00295117 -0.00380190
v -0.00038935 -0.00295117 -0.00403279
v 0.00002167 -0.00301362 -0.00375212
v 0.00034328 -0.00315832 -0.00351473
v 0.00064502 -0.00329290 -0.00325065
v 0.00092690 -0.00341076 -0.00296132
v 0.00105852 -0.00364078 -0.00284227
v 0.00113675 -0.00366453 -0.00274414
v 0.00118270 -0.00367729 -0.00268425
v 0.00159371 -0.00374941 -0.00204714
v 0.00180357 -0.00372698 -0.00161350
v 0.00183089 -0.00371863 -0.00155000
v 0.00188304 -0.00418878 -0.00140497
v 0.00186690 -0.00494920 -0.00140497
v 0.00150803 -0.00374370 -0.00219794
v 0.00149189 -0.00699956 0.00013766
v 0.00196748 -0.00494920 -0.00116831
v 0.00216616 -0.00494920 -0.00023248
v -0.01018918 -0.00295029 -0.00348587
v -0.00981790 -0.00295029 -0.00313449
v -0.00113191 -0.00435986 0.00150641
v 0.00219968 -0.00250653 0.00150641
v -0.00101146 -0.00699956 0.00110740
v -0.00981790 -0.00494964 -0.00313449
v 0.00213760 -0.00250653 -0.00012137
v 0.00138882 -0.00341120 -0.00226360
v 0.00116159 -0.00333996 -0.00258396
v 0.00090951 -0.00323924 -0.00288123
v 0.00063633 -0.00311522 -0.00315541
v 0.00042647 -0.00295117 -0.00327591
v 0.00019054 -0.00295117 -0.00356236
v 0.00034452 -0.00297404 -0.00340506
v 0.00118766 -0.00350444 -0.00264457
v 0.00142359 -0.00356865 -0.00230472
v 0.00163221 -0.00359504 -0.00194107
v 0.00180853 -0.00357437 -0.00156660
v 0.00186814 -0.00354095 -0.00140497
v 0.00194761 -0.00349697 -0.00118779
v 0.00196748 -0.00363462 -0.00116687
v 0.00134164 -0.00699956 0.00066799
v 0.00219968 -0.00494920 0.00033392
v 0.00219968 -0.00494920 0.00150641
v 0.00199604 -0.00360560 -0.00107451
v 0.00207675 -0.00347717 -0.00076209
v 0.00211400 -0.00337734 -0.00058098
v 0.00214256 -0.00326167 -0.00041215
v 0.00215001 -0.00321989 -0.00035947
v 0.00217857 -0.00298811 -0.00011993
v 0.00218602 -0.00285045 -0.00001242
v 0.00219347 -0.00266926 0.00010086
v -0.00112943 -0.00494920 0.00150641
v 0.00219968 -0.00250653 0.00029135
v -0.00054333 -0.00699956 0.00139818
v 0.00219596 -0.00250653 0.00016869
v 0.00211897 -0.00316140 -0.00049945
v 0.00205067 -0.00335975 -0.00082486
v 0.00176259 -0.00343451 -0.00157165
v 0.00159123 -0.00344595 -0.00192303
v 0.00100885 -0.00699956 0.00110740
v 0.00219844 -0.00250653 0.00024228
v -0.00000068 -0.00699956 0.00149991
v 0.00054072 -0.00699956 0.00139818
f 1 2 7
f 1 7 3
f 1 3 12
f 1 12 4
f 1 4 5
f 1 5 6
f 1 6 2
f 2 6 8
f 2 8 9
f 2 9 16
f 2 16 7
f 3 7 10
f 3 10 11
f 3 11 12
f 4 12 23
f 4 23 13
f 4 13 14
f 4 14 15
f 4 15 5
f 5 15 27
f 5 27 38
f 5 38 57
f 5 57 80
f 5 80 104
f 5 104 123
f 5 123 126
f 5 126 125
f 5 125 117
f 5 117 87
f 5 87 62
f 5 62 43
f 5 43 31
f 5 31 19
f 5 19 8
f 5 8 6
f 7 16 17
f 7 17 18
f 7 18 10
f 8 19 9
f 9 20 29
f 9 29 16
f 9 19 20
f 10 18 17
f 10 17 30
f 10 30 42
f 10 42 41
f 10 41 61
f 10 61 60
f 10 60 59
f 10 59 86
f 10 86 116
f 10 116 124
f 10 124 118
f 10 118 89
f 10 89 64
f 10 64 45
f 10 45 34
f 10 34 25
f 10 25 24
f 10 24 21
f 10 21 11
f 11 21 12
f 12 22 23
f 12 21 24
f 12 24 25
f 12 25 22
f 13 23 33
f 13 33 26
f 13 26 14
f 14 26 15
f 15 26 28
f 15 28 27
f 16 29 30
f 16 30 17
f 19 31 20
f 20 31 32
f 20 32 40
f 20 40 29
f 22 33 23
f 22 25 33
f 25 34 35
f 25 35 33
f 26 33 35
f 26 35 28
f 27 28 36
f 27 36 37
f 27 37 38
f 28 35 39
f 28 39 36
f 29 40 41
f 29 41 42
f 29 42 30
f 31 43 32
f 32 43 44
f 32 44 58
f 32 58 40
f 34 45 46
f 34 46 47
f 34 47 35
f 35 47 39
f 36 39 46
f 36 46 48
f 36 48 49
f 36 49 50
f 36 50 51
f 36 51 37
f 37 51 52
f 37 52 53
f 37 53 54
f 37 54 55
f 37 55 38
f 38 55 56
f 38 56 57
f 39 47 46
f 40 58 59
f 40 59 60
f 40 60 61
f 40 61 41
f 43 62 44
f 44 62 63
f 44 63 83
f 44 83 58
f 45 64 65
f 45 65 66
f 45 66 46
f 46 66 48
f 48 66 49
f 49 66 50
f 50 66 51
f 51 67 68
f 51 68 52
f 51 66 67
f 52 68 53
f 53 69 54
f 53 68 69
f 54 69 70
f 54 70 71
f 54 71 55
f 55 71 72
f 55 72 73
f 55 73 56
f 56 74 75
f 56 75 76
f 56 76 77
f 56 77 78
f 56 78 57
f 56 73 79
f 56 79 74
f 57 78 81
f 57 81 82
f 57 82 80
f 58 83 59
f 59 83 84
f 59 84 85
f 59 85 115
f 59 115 106
f 59 106 86
f 62 87 63
f 63 87 88
f 63 88 84
f 63 84 83
f 64 89 90
f 64 90 91
f 64 91 92
f 64 92 93
f 64 93 94
f 64 94 95
f 64 95 65
f 65 95 67
f 65 67 66
f 67 95 68
f 68 95 96
f 68 96 69
f 69 93 92
f 69 92 70
f 69 96 93
f 70 92 91
f 70 91 97
f 70 97 71
f 71 97 72
f 72 97 73
f 73 97 98
f 73 98 79
f 74 99 75
f 74 79 99
f 75 99 100
f 75 100 76
f 76 101 102
f 76 102 103
f 76 103 77
f 76 100 101
f 77 103 81
f 77 81 78
f 79 98 99
f 80 82 105
f 80 105 106
f 80 106 104
f 81 103 107
f 81 107 108
f 81 108 82
f 82 108 109
f 82 109 110
f 82 110 111
f 82 111 112
f 82 112 113
f 82 113 114
f 82 114 105
f 84 88 85
f 85 88 115
f 86 106 105
f 86 105 116
f 87 117 88
f 88 117 115
f 89 118 119
f 89 119 120
f 89 120 102
f 89 102 101
f 89 101 100
f 89 100 121
f 89 121 122
f 89 122 90
f 90 98 97
f 90 97 91
f 90 122 98
f 93 96 94
f 94 96 95
f 98 122 99
f 99 122 121
f 99 121 100
f 102 120 107
f 102 107 103
f 104 106 123
f 105 114 118
f 105 118 124
f 105 124 116
f 106 125 126
f 106 126 123
f 106 115 125
f 107 120 108
f 108 120 119
f 108 119 109
f 109 119 110
f 110 119 111
f 111 119 112
f 112 118 114
f 112 114 113
f 112 119 118
f 115 117 125

