# https://github.com/mikedh/trimesh
v 0.00149360 0.00699980 0.00013832
v 0.00134272 0.00699980 0.00066837
v 0.00149360 0.00496011 0.00013832
v 0.00144272 0.00699980 -0.00041023
v 0.00134097 0.00496011 0.00067072
v 0.00134272 0.00496011 0.00066837
v 0.00101026 0.00699980 0.00110827
v 0.00144272 0.00496011 -0.00041023
v 0.00119681 0.00699980 -0.00090387
v 0.00101026 0.00496011 0.00110827
v 0.00054183 0.00699980 0.00139869
v 0.00100821 0.00496011 0.00110973
v 0.00119681 0.00496011 -0.00090387
v 0.00079154 0.00496011 -0.00127329
v 0.00078949 0.00699980 -0.00127505
v 0.00000000 0.00699980 0.00150000
v 0.00054183 0.00496011 0.00139869
v 0.00078949 0.00496011 -0.00127505
v 0.00027545 0.00699980 -0.00147445
v 0.00000000 0.00496011 0.00149971
v -0.00054182 0.00699980 0.00139869
v -0.00054182 0.00496011 0.00139869
v -0.00000234 0.00496011 0.00149942
v 0.00027545 0.00496011 -0.00147445
v 0.00000000 0.00699980 -0.00150000
v -0.00101026 0.00699980 0.00110827
v -0.00101026 0.00496011 0.00110827
v 0.00000000 0.00496011 -0.00150000
v -0.00027544 0.00699980 -0.00147445
v -0.00134272 0.00699980 0.00066837
v -0.00101201 0.00496011 0.00110621
v -0.00027544 0.00496011 -0.00147445
v -0.00078715 0.00496011 -0.00127623
v -0.00078949 0.00699980 -0.00127505
v -0.00149331 0.00699980 0.00013832
v -0.00134272 0.00496011 0.00066837
v -0.00078949 0.00496011 -0.00127505
v -0.00119681 0.00699980 -0.00090387
v -0.00149331 0.00496011 0.00013567
v -0.00149331 0.00496011 0.00013832
v -0.00144272 0.00699980 -0.00041023
v -0.00119681 0.00496011 -0.00090387
v -0.00144272 0.00496011 -0.00041023
f 1 2 6
f 1 6 3
f 1 3 8
f 1 8 4
f 1 4 9
f 1 9 15
f 1 15 19
f 1 19 25
f 1 25 29
f 1 29 34
f 1 34 38
f 1 38 41
f 1 41 35
f 1 35 30
f 1 30 26
f 1 26 21
f 1 21 16
f 1 16 11
f 1 11 7
f 1 7 2
f 2 5 6
f 2 7 5
f 3 6 5
f 3 5 10
f 3 10 12
f 3 12 17
f 3 17 20
f 3 20 23
f 3 23 22
f 3 22 27
f 3 27 31
f 3 31 36
f 3 36 40
f 3 40 39
f 3 39 43
f 3 43 42
f 3 42 37
f 3 37 33
f 3 33 32
f 3 32 28
f 3 28 24
f 3 24 18
f 3 18 14
f 3 14 13
f 3 13 8
f 4 8 13
f 4 13 9
f 5 7 10
f 7 11 12
f 7 12 10
f 9 13 14
f 9 14 15
f 11 16 17
f 11 17 12
f 14 18 15
f 15 18 24
f 15 24 19
f 16 20 17
f 16 21 22
f 16 22 23
f 16 23 20
f 19 24 28
f 19 28 25
f 21 26 27
f 21 27 22
f 25 28 32
f 25 32 29
f 26 30 31
f 26 31 27
f 29 33 34
f 29 32 33
f 30 35 40
f 30 40 36
f 30 36 31
f 33 37 34
f 34 37 42
f 34 42 38
f 35 39 40
f 35 41 39
f 38 42 43
f 38 43 41
f 39 41 43

