# https://github.com/mikedh/trimesh
v 0.00149360 -0.00498252 0.00013832
v 0.00134272 -0.00498252 0.00066837
v 0.00149360 -0.00699980 0.00013832
v 0.00144272 -0.00498252 -0.00041023
v 0.00101552 -0.00498252 0.00110151
v 0.00134272 -0.00699980 0.00066837
v 0.00119681 -0.00700000 -0.00090387
v 0.00144272 -0.00699980 -0.00041023
v 0.00119681 -0.00498252 -0.00090387
v 0.00101026 -0.00498252 0.00110827
v 0.00101026 -0.00699980 0.00110827
v -0.00027544 -0.00700000 -0.00147445
v 0.00078949 -0.00700000 -0.00127505
v 0.00119038 -0.00498252 -0.00090974
v 0.00054183 -0.00699980 0.00139869
v 0.00000000 -0.00699980 0.00150001
v -0.00054182 -0.00699980 0.00139869
v 0.00054183 -0.00498252 0.00139869
v -0.00078949 -0.00699980 -0.00127505
v -0.00027544 -0.00498252 -0.00147445
v 0.00000000 -0.00700000 -0.00149999
v -0.00101026 -0.00699980 0.00110827
v -0.00134272 -0.00699980 0.00066837
v -0.00149331 -0.00699980 0.00013832
v -0.00144272 -0.00699980 -0.00041023
v -0.00119681 -0.00699980 -0.00090387
v 0.00027545 -0.00700000 -0.00147445
v 0.00078131 -0.00498252 -0.00127828
v 0.00078949 -0.00498252 -0.00127505
v 0.00000848 -0.00498252 0.00149824
v 0.00000000 -0.00498252 0.00149971
v -0.00054182 -0.00498252 0.00139869
v -0.00100295 -0.00498252 0.00111297
v -0.00078949 -0.00498252 -0.00127505
v 0.00000000 -0.00498252 -0.00149999
v -0.00133746 -0.00498252 0.00067542
v -0.00101026 -0.00498252 0.00110827
v -0.00134272 -0.00498252 0.00066837
v -0.00149331 -0.00498252 0.00013832
v -0.00144272 -0.00498252 -0.00041023
v -0.00120090 -0.00498252 -0.00089594
v -0.00119681 -0.00498252 -0.00090387
v 0.00027545 -0.00498252 -0.00147445
f 1 2 6
f 1 6 3
f 1 3 8
f 1 8 4
f 1 4 9
f 1 9 14
f 1 14 29
f 1 29 28
f 1 28 43
f 1 43 35
f 1 35 20
f 1 20 34
f 1 34 42
f 1 42 41
f 1 41 40
f 1 40 39
f 1 39 38
f 1 38 36
f 1 36 37
f 1 37 33
f 1 33 32
f 1 32 31
f 1 31 30
f 1 30 18
f 1 18 10
f 1 10 5
f 1 5 2
f 2 5 6
f 3 6 7
f 3 7 8
f 4 8 7
f 4 7 9
f 5 10 11
f 5 11 6
f 6 11 7
f 7 12 21
f 7 21 27
f 7 27 13
f 7 13 14
f 7 14 9
f 7 11 15
f 7 15 16
f 7 16 17
f 7 17 12
f 10 18 15
f 10 15 11
f 12 19 34
f 12 34 20
f 12 20 35
f 12 35 21
f 12 17 22
f 12 22 23
f 12 23 24
f 12 24 25
f 12 25 26
f 12 26 19
f 13 27 28
f 13 28 29
f 13 29 14
f 15 18 16
f 16 18 30
f 16 30 31
f 16 31 32
f 16 32 17
f 17 32 33
f 17 33 22
f 19 26 42
f 19 42 34
f 21 35 43
f 21 43 27
f 22 36 23
f 22 33 37
f 22 37 36
f 23 36 38
f 23 38 39
f 23 39 24
f 24 39 40
f 24 40 25
f 25 40 41
f 25 41 26
f 26 41 42
f 27 43 28

