# https://github.com/mikedh/trimesh
v 0.00220000 0.00149527 0.00756190
v 0.00220000 0.00207187 0.00726019
v 0.00141504 0.00178890 0.00742320
v -0.00104969 0.00249923 0.00698812
v 0.00220000 -0.00149624 0.00756190
v 0.00220000 0.00425324 0.00587435
v 0.00049480 0.00207187 0.00726019
v -0.00104969 0.00425324 0.00587435
v -0.00112792 0.00495000 0.00150700
v -0.00113020 -0.00435887 0.00150700
v -0.00104969 -0.00000194 0.00698812
v -0.00104936 -0.00249826 0.00698812
v 0.00141504 -0.00178987 0.00742320
v 0.00220000 -0.00206993 0.00726019
v 0.00220000 0.00462148 0.00554479
v -0.00104969 0.00462148 0.00554479
v -0.00104969 0.00486375 0.00510497
v -0.00104969 0.00495000 0.00460943
v -0.00060114 0.00495000 0.00150700
v -0.00112792 -0.00495000 0.00150700
v -0.00104936 -0.00425324 0.00587495
v 0.00049480 -0.00206993 0.00726019
v 0.00220000 -0.00425324 0.00587495
v 0.00220000 0.00486375 0.00510497
v 0.00220000 0.00495000 0.00460943
v 0.00220000 0.00495000 0.00278793
v 0.00220000 0.00494903 0.00150700
v 0.00220000 -0.00495000 0.00150700
v -0.00104936 -0.00495000 0.00460943
v -0.00104936 -0.00486472 0.00510438
v -0.00104936 -0.00485406 0.00512394
v -0.00104936 -0.00462052 0.00554479
v 0.00220000 -0.00462052 0.00554479
v 0.00220000 -0.00495000 0.00460943
v 0.00220000 -0.00486472 0.00510438
v 0.00220000 -0.00485406 0.00512394
f 1 2 3
f 1 3 4
f 1 4 11
f 1 11 5
f 1 5 14
f 1 14 23
f 1 23 33
f 1 33 36
f 1 36 35
f 1 35 34
f 1 34 28
f 1 28 27
f 1 27 26
f 1 26 25
f 1 25 24
f 1 24 15
f 1 15 6
f 1 6 2
f 2 6 8
f 2 8 7
f 2 7 3
f 3 7 4
f 4 7 8
f 4 8 9
f 4 9 10
f 4 10 11
f 5 12 13
f 5 13 14
f 5 11 12
f 6 15 16
f 6 16 8
f 8 16 9
f 9 16 17
f 9 17 18
f 9 18 25
f 9 25 26
f 9 26 19
f 9 19 27
f 9 27 28
f 9 28 20
f 9 20 10
f 10 20 12
f 10 12 11
f 12 20 21
f 12 21 22
f 12 22 13
f 13 22 14
f 14 22 21
f 14 21 23
f 15 24 17
f 15 17 16
f 17 24 25
f 17 25 18
f 19 26 27
f 20 28 34
f 20 34 29
f 20 29 30
f 20 30 31
f 20 31 32
f 20 32 21
f 21 32 33
f 21 33 23
f 29 34 35
f 29 35 30
f 30 35 36
f 30 36 31
f 31 36 33
f 31 33 32

