# https://github.com/mikedh/trimesh
v 0.00014219 0.00698837 -0.00387570
v 0.00014219 0.00723711 -0.00385297
v 0.00039185 0.00698837 -0.00386007
v 0.00039185 0.00549105 -0.00386007
v 0.00039185 0.00449856 -0.00385581
v 0.00014219 0.00350117 -0.00385723
v -0.00010595 0.00698837 -0.00386860
v -0.00010595 0.00723711 -0.00386149
v 0.00014219 0.00741466 -0.00378904
v 0.00039185 0.00723711 -0.00382598
v -0.00010595 0.00742857 -0.00379756
v 0.00042211 0.00698919 -0.00385581
v 0.00064151 0.00698919 -0.00382456
v 0.00039185 0.00350117 -0.00384871
v 0.00064151 0.00476857 -0.00381319
v 0.00014219 0.00325161 -0.00380467
v -0.00035410 0.00326961 -0.00378762
v -0.00060376 0.00328761 -0.00377909
v -0.00060376 0.00350117 -0.00381887
v -0.00035410 0.00623971 -0.00385297
v -0.00035410 0.00698837 -0.00385723
v -0.00035410 0.00723711 -0.00385297
v -0.00035410 0.00743102 -0.00379756
v 0.00014219 0.00750630 -0.00361855
v 0.00039185 0.00738848 -0.00376773
v -0.00010595 0.00753821 -0.00361855
v 0.00042211 0.00723793 -0.00382029
v 0.00084275 0.00716101 -0.00376488
v -0.00034048 0.00756521 -0.00360008
v 0.00087906 0.00698919 -0.00377341
v 0.00064151 0.00350035 -0.00380182
v 0.00042211 0.00347662 -0.00384018
v 0.00037975 0.00323770 -0.00378762
v 0.00113931 0.00350035 -0.00367964
v -0.00000912 0.00312479 -0.00374642
v -0.00009839 0.00323034 -0.00378478
v 0.00028593 0.00312397 -0.00374784
v 0.00014219 0.00312397 -0.00374784
v -0.00060376 0.00316243 -0.00371658
v -0.00080197 0.00332443 -0.00376631
v -0.00083980 0.00350117 -0.00377767
v -0.00084282 0.00374990 -0.00377909
v -0.00060376 0.00599098 -0.00382882
v -0.00060376 0.00623971 -0.00382882
v -0.00060376 0.00698837 -0.00382740
v -0.00060376 0.00723711 -0.00382598
v -0.00060376 0.00741793 -0.00378335
v -0.00100170 0.00761758 -0.00350347
v -0.00060376 0.00754230 -0.00363560
v 0.00064151 0.00748175 -0.00337135
v 0.00039185 0.00746621 -0.00361855
v -0.00041613 0.00761512 -0.00350489
v 0.00042211 0.00745966 -0.00362139
v 0.00042211 0.00738439 -0.00376346
v 0.00053257 0.00736720 -0.00374926
v 0.00062638 0.00724120 -0.00377909
v 0.00113931 0.00698919 -0.00368390
v 0.00100465 0.00698919 -0.00373221
v 0.00069900 0.00732629 -0.00371658
v 0.00091084 0.00724120 -0.00368532
v 0.00134206 0.00716756 -0.00354467
v 0.00141015 0.00700965 -0.00357167
v -0.00085190 0.00762085 -0.00351058
v -0.00060376 0.00761921 -0.00351058
v 0.00139048 0.00673882 -0.00361145
v 0.00139048 0.00499603 -0.00361713
v 0.00139048 0.00424819 -0.00361429
v 0.00114082 0.00499603 -0.00368959
v 0.00080038 0.00335225 -0.00375210
v 0.00064151 0.00330889 -0.00377199
v 0.00045389 0.00314361 -0.00372795
v 0.00139048 0.00374990 -0.00361145
v 0.00139048 0.00350035 -0.00360718
v -0.00060376 0.00307734 -0.00359014
v -0.00085190 0.00307488 -0.00357309
v -0.00017555 0.00313297 -0.00373647
v 0.00113931 0.00309452 -0.00353047
v 0.00089117 0.00307652 -0.00356030
v 0.00064151 0.00307406 -0.00358587
v -0.00110156 0.00309124 -0.00353899
v -0.00087308 0.00324507 -0.00370522
v -0.00110156 0.00325161 -0.00363702
v -0.00153127 0.00332525 -0.00351342
v -0.00096387 0.00350117 -0.00374073
v -0.00098657 0.00698837 -0.00374784
v -0.00098808 0.00723711 -0.00374784
v -0.00085190 0.00698837 -0.00377909
v -0.00085190 0.00723711 -0.00377909
v -0.00098354 0.00736639 -0.00374642
v -0.00085190 0.00738848 -0.00376204
v -0.00107584 0.00748012 -0.00360718
v -0.00135122 0.00743675 -0.00355178
v -0.00170982 0.00761021 -0.00323069
v -0.00154641 0.00762085 -0.00325911
v -0.00932212 0.00901753 0.00815071
v 0.00063999 0.00747439 -0.00237258
v 0.00089117 0.00742693 -0.00312130
v 0.00089117 0.00742857 -0.00337135
v 0.00104247 0.00737211 -0.00350916
v 0.00089117 0.00739502 -0.00354894
v -0.00026785 0.00760285 -0.00337135
v -0.00919048 0.00900035 0.00815071
v 0.00062638 0.00741302 -0.00362850
v 0.00157054 0.00694010 -0.00352194
v 0.00160080 0.00673882 -0.00353473
v 0.00113023 0.00724529 -0.00358161
v 0.00177329 0.00712092 -0.00325485
v 0.00150850 0.00710701 -0.00349069
v 0.00158416 0.00399946 -0.00353473
v 0.00155692 0.00332198 -0.00351910
v 0.00138746 0.00324425 -0.00354894
v 0.00113931 0.00325080 -0.00362281
v 0.00088663 0.00326143 -0.00368959
v 0.00064151 0.00318370 -0.00371090
v 0.00130272 0.00311252 -0.00350916
v 0.00157810 0.00350035 -0.00353189
v -0.00882734 0.00065871 0.00590171
v 0.00163863 0.00308961 -0.00330315
v -0.00850657 0.00065871 0.00590171
v -0.00126649 0.00311252 -0.00350916
v -0.00160390 0.00308061 -0.00331594
v -0.00141779 0.00317797 -0.00349069
v -0.00135122 0.00324589 -0.00354609
v -0.00141779 0.00350117 -0.00357451
v -0.00160844 0.00324507 -0.00344380
v -0.00186113 0.00324098 -0.00332304
v -0.00201243 0.00331789 -0.00327189
v -0.00185053 0.00350035 -0.00339408
v -0.00168107 0.00350035 -0.00347648
v -0.00157061 0.00588134 -0.00352904
v -0.00157515 0.00699001 -0.00353047
v -0.00157515 0.00706774 -0.00353047
v -0.00157364 0.00723793 -0.00353047
v -0.00154187 0.00739666 -0.00351768
v -0.00185053 0.00744984 -0.00332162
v -0.00185053 0.00757503 -0.00318381
v -0.00199882 0.00762003 -0.00301048
v -0.00945376 0.00893735 0.00815071
v -0.00781207 0.00804468 0.00928019
v -0.00627780 0.00804468 0.00963821
v -0.00574369 0.00804468 0.00963821
v -0.00244064 0.00760448 -0.00271355
v 0.00014219 0.00747521 0.00585341
v 0.00039034 0.00743102 0.00510468
v 0.00039034 0.00742693 0.00541724
v 0.00089117 0.00741957 -0.00254733
v 0.00107879 0.00738029 -0.00312130
v 0.00106820 0.00737866 -0.00337135
v 0.00163863 0.00719947 -0.00312130
v 0.00058552 0.00733284 0.00628957
v 0.00058552 0.00736311 0.00610203
v 0.00014219 0.00747193 0.00590029
v 0.00202598 0.00687628 -0.00325485
v 0.00204867 0.00673882 -0.00327047
v 0.00172336 0.00673882 -0.00346795
v 0.00171579 0.00499603 -0.00346795
v 0.00180355 0.00713074 -0.00312130
v 0.00230287 0.00688773 -0.00286983
v 0.00226504 0.00686728 -0.00299912
v 0.00170369 0.00350035 -0.00345943
v 0.00203051 0.00335225 -0.00325485
v 0.00195486 0.00318698 -0.00321080
v 0.00146916 0.00315670 -0.00347506
v 0.00178842 0.00311415 -0.00325911
v -0.00899681 0.00065871 0.00616881
v -0.00716296 0.00499522 0.00327906
v -0.00716296 0.00350035 0.00327906
v -0.00621879 0.00336289 0.00198194
v -0.00496748 0.00337353 0.00024439
v -0.00328796 0.00350035 -0.00208559
v -0.00319566 0.00350035 -0.00221061
v -0.00326678 0.00330071 -0.00205718
v -0.00272812 0.00336616 -0.00274907
v -0.00266306 0.00320007 -0.00268230
v -0.00249662 0.00311497 -0.00276328
v -0.00223486 0.00311988 -0.00300338
v -0.00210019 0.00309370 -0.00305168
v -0.00178396 0.00310188 -0.00327616
v 0.00209558 0.00309370 -0.00304458
v -0.00508852 0.00102281 0.00815071
v -0.00982295 0.00065871 0.00815071
v 0.00238760 0.00309697 -0.00281584
v 0.00306697 0.00308961 -0.00207423
v 0.00357537 0.00307488 -0.00087798
v -0.00143595 0.00315916 -0.00347364
v -0.00168410 0.00424819 -0.00347932
v -0.00195040 0.00315097 -0.00322927
v -0.00203059 0.00350035 -0.00328468
v -0.00228025 0.00325080 -0.00303605
v -0.00203664 0.00424819 -0.00328894
v -0.00185053 0.00399946 -0.00339692
v -0.00168712 0.00499522 -0.00348074
v -0.00161449 0.00706774 -0.00351342
v -0.00169771 0.00723793 -0.00347506
v -0.00201546 0.00739748 -0.00327332
v -0.00230143 0.00742202 -0.00305026
v -0.00948856 0.00891362 0.00815071
v -0.01149490 0.00315834 0.01063840
v -0.00267668 0.00759794 -0.00244646
v -0.00259497 0.00755212 -0.00262831
v -0.01147069 0.00316979 0.01063840
v -0.01139504 0.00319925 0.01063840
v -0.01133906 0.00321398 0.01063840
v -0.01112117 0.00323934 0.01063840
v -0.00911029 0.00316816 0.01063840
v -0.00908911 0.00316652 0.01063840
v 0.00032830 0.00525050 0.00956859
v -0.00072480 0.00686646 0.00897473
v -0.00035712 0.00692537 0.00877725
v -0.00035712 0.00702356 0.00859824
v -0.00021338 0.00703501 0.00845475
v -0.00259800 0.00742284 -0.00280732
v 0.00039034 0.00741957 0.00590029
v 0.00039034 0.00742039 0.00585341
v 0.00056131 0.00737620 0.00590029
v 0.00081097 0.00737620 0.00168216
v 0.00105155 0.00737539 -0.00237258
v 0.00139048 0.00720602 0.00136819
v 0.00163863 0.00720193 -0.00286983
v 0.00182322 0.00713729 -0.00286983
v 0.00009377 0.00702847 0.00814929
v 0.00014370 0.00702356 0.00809815
v 0.00105004 0.00714383 0.00626826
v 0.00110148 0.00716674 0.00610203
v 0.00089117 0.00725429 0.00610203
v 0.00113931 0.00720029 0.00560478
v 0.00231346 0.00673882 -0.00303748
v 0.00248746 0.00649008 -0.00296928
v 0.00236188 0.00649008 -0.00307441
v 0.00218788 0.00649008 -0.00319660
v 0.00206380 0.00649008 -0.00327616
v 0.00216215 0.00350035 -0.00318665
v 0.00234372 0.00690492 -0.00262262
v 0.00246779 0.00683128 -0.00262262
v 0.00277192 0.00662509 -0.00251465
v 0.00255707 0.00667091 -0.00281016
v 0.00236037 0.00350035 -0.00306163
v 0.00232708 0.00329334 -0.00304032
v 0.00226050 0.00312725 -0.00299485
v -0.00947948 0.00065871 0.00694310
v -0.00715842 0.00524313 0.00327906
v -0.00652746 0.00624053 0.00239963
v -0.00328796 0.00699001 -0.00208701
v -0.00328796 0.00588134 -0.00208701
v -0.00319566 0.00501567 -0.00221061
v -0.00307159 0.00449775 -0.00236689
v -0.00307159 0.00350035 -0.00236547
v -0.00297021 0.00350035 -0.00249192
v -0.00273266 0.00350035 -0.00275333
v -0.00232110 0.00350035 -0.00306731
v -0.00277654 0.00163565 0.00902304
v -0.01051140 0.00182875 0.01063840
v 0.00359050 0.00307161 -0.00062793
v 0.00358899 0.00307243 0.00062231
v -0.01012557 0.00065871 0.00815071
v 0.00251924 0.00311988 -0.00275617
v 0.00261608 0.00310106 -0.00259847
v 0.00281732 0.00309861 -0.00237400
v 0.00276133 0.00312643 -0.00249760
v 0.00300191 0.00313461 -0.00224045
v 0.00323190 0.00317307 -0.00194068
v 0.00327124 0.00311661 -0.00177445
v 0.00330604 0.00309288 -0.00162528
v 0.00354359 0.00309861 -0.00112660
v 0.00371457 0.00320579 -0.00062793
v 0.00376148 0.00312479 -0.00001702
v -0.00215920 0.00374990 -0.00319375
v -0.00203816 0.00501649 -0.00329036
v -0.00216374 0.00499522 -0.00320086
v -0.00185053 0.00501649 -0.00339976
v -0.00168712 0.00501649 -0.00348074
v -0.00185053 0.00723793 -0.00339408
v -0.00203664 0.00723793 -0.00328894
v -0.00234228 0.00723793 -0.00307583
v -0.00246636 0.00723793 -0.00298917
v -0.00272509 0.00736720 -0.00274907
v -0.00325467 0.00740075 -0.00205007
v -0.00347861 0.00737129 -0.00176025
v -0.00950823 0.00887353 0.00815071
v -0.00303074 0.00742366 -0.00232285
v -0.01156451 0.00300697 0.01063840
v -0.00278108 0.00741711 -0.00262262
v -0.00908911 0.00302579 0.01063840
v 0.00032830 0.00495840 0.00956859
v 0.00110754 0.00419910 0.00814929
v 0.00352241 0.00589361 0.00153583
v 0.00251167 0.00636735 0.00373653
v 0.00201841 0.00662754 0.00474382
v 0.00151758 0.00687137 0.00573833
v 0.00030863 0.00691146 0.00814929
v 0.00005595 0.00690410 0.00851158
v -0.00020733 0.00688610 0.00874031
v -0.00011957 0.00694419 0.00859540
v -0.00011352 0.00699983 0.00845475
v 0.00113931 0.00721665 0.00483617
v 0.00133752 0.00714629 0.00485606
v 0.00157054 0.00713892 0.00136819
v 0.00163863 0.00718802 -0.00212395
v 0.00163863 0.00719293 -0.00237258
v 0.00014370 0.00700801 0.00814929
v 0.00032073 0.00692537 0.00809815
v 0.00126338 0.00711029 0.00597133
v 0.00127095 0.00711929 0.00590029
v 0.00115595 0.00717247 0.00590029
v 0.00116352 0.00717247 0.00587330
v 0.00130121 0.00713647 0.00560478
v 0.00131483 0.00713892 0.00541724
v 0.00132996 0.00714301 0.00510468
v 0.00259943 0.00649008 -0.00284426
v 0.00285968 0.00624053 -0.00260416
v 0.00274469 0.00624053 -0.00272918
v 0.00248746 0.00624053 -0.00297354
v 0.00248898 0.00499603 -0.00297781
v 0.00248898 0.00476857 -0.00297781
v 0.00236339 0.00524477 -0.00307157
v 0.00217426 0.00476857 -0.00319233
v 0.00236339 0.00399946 -0.00306447
v 0.00153120 0.00712256 0.00261132
v 0.00191249 0.00691146 0.00411870
v 0.00201084 0.00686400 0.00421105
v 0.00216215 0.00681819 0.00336146
v 0.00280672 0.00664063 -0.00156845
v 0.00281883 0.00664800 -0.00212395
v 0.00279765 0.00664063 -0.00237258
v 0.00326065 0.00636572 -0.00175030
v 0.00307151 0.00643526 -0.00212395
v 0.00303369 0.00640172 -0.00230012
v 0.00281732 0.00649008 -0.00256295
v 0.00272502 0.00649008 -0.00268940
v 0.00248746 0.00374990 -0.00297496
v 0.00248444 0.00350035 -0.00297354
v 0.00256312 0.00325080 -0.00280448
v 0.00240122 0.00322707 -0.00294229
v -0.00975335 0.00065871 0.00739489
v -0.00975486 0.00075690 0.00739773
v -0.00945981 0.00862152 0.00797028
v -0.00671357 0.00636817 0.00273350
v -0.00665154 0.00624053 0.00259995
v -0.01002268 0.00100645 0.00786373
v -0.01121498 0.00225340 0.00995077
v -0.01121044 0.00250213 0.00995929
v -0.01147675 0.00275169 0.01042671
v -0.00620669 0.00657518 0.00200041
v -0.00547739 0.00688282 0.00097607
v -0.00600696 0.00649090 0.00168216
v -0.00527312 0.00674046 0.00066493
v -0.00423515 0.00699001 -0.00077142
v -0.00328039 0.00723793 -0.00208275
v -0.00318961 0.00723793 -0.00220493
v -0.00319112 0.00706774 -0.00220919
v -0.00319112 0.00699001 -0.00221061
v -0.00307159 0.00501567 -0.00236689
v -0.00297021 0.00501567 -0.00249192
v -0.00273569 0.00449775 -0.00275617
v -0.00273417 0.00374990 -0.00275475
v -0.00259951 0.00374990 -0.00285846
v -0.00014075 0.00252750 0.00902304
v 0.00001812 0.00237695 0.00872753
v -0.01098348 0.00182875 0.01063840
v 0.00376148 0.00312479 0.00001850
v 0.00357386 0.00307652 0.00087093
v -0.01100769 0.00182875 0.01061141
v -0.01103493 0.00182875 0.01057873
v -0.01115446 0.00182875 0.01038693
v -0.01118472 0.00182875 0.01029032
v -0.01119077 0.00182875 0.01015109
v -0.01121196 0.00185902 0.01017809
v -0.01112117 0.00182875 0.00991667
v -0.01121044 0.00209548 0.00995645
v -0.01007563 0.00065871 0.00802285
v 0.00305638 0.00330071 -0.00230154
v 0.00314565 0.00323770 -0.00213390
v 0.00327578 0.00333916 -0.00202734
v 0.00352090 0.00334898 -0.00152299
v 0.00347702 0.00318288 -0.00143064
v 0.00351636 0.00311988 -0.00126299
v 0.00363741 0.00325080 -0.00112660
v 0.00370852 0.00326634 -0.00087372
v 0.00379477 0.00329252 -0.00037930
v 0.00380384 0.00323525 -0.00011221
v 0.00380384 0.00323116 0.00010658
v -0.00245425 0.00501649 -0.00298207
v -0.00233775 0.00588134 -0.00307868
v -0.00203816 0.00588052 -0.00329036
v -0.00234380 0.00699001 -0.00307868
v -0.00203967 0.00706774 -0.00328894
v -0.00238314 0.00706774 -0.00305026
v -0.00246787 0.00706774 -0.00298775
v -0.00273569 0.00474566 -0.00275617
v -0.00273417 0.00588134 -0.00275617
v -0.00273115 0.00706774 -0.00275333
v -0.00272812 0.00723793 -0.00275191
v -0.00295811 0.00723793 -0.00248339
v -0.00306402 0.00723793 -0.00235837
v -0.00422910 0.00713647 -0.00076432
v -0.00473446 0.00713647 -0.00002839
v -0.00953849 0.00879498 0.00815071
v -0.01158115 0.00281142 0.01063840
v -0.00954908 0.00872052 0.00815071
v -0.00951882 0.00871643 0.00809246
v -0.01147221 0.00293579 0.01045513
v -0.00009385 0.00264287 0.00902304
v 0.00110754 0.00325080 0.00795181
v 0.00110754 0.00376954 0.00814929
v 0.00362681 0.00473994 0.00136819
v 0.00362530 0.00499603 0.00137103
v 0.00362228 0.00549351 0.00137103
v 0.00353603 0.00574224 0.00156851
v 0.00326065 0.00611780 0.00199472
v 0.00303823 0.00616689 0.00255733
v 0.00359958 0.00574224 0.00137103
v 0.00377358 0.00565960 0.00081126
v 0.00354662 0.00593207 0.00136819
v 0.00252983 0.00642135 0.00363140
v 0.00227715 0.00663736 0.00402636
v 0.00177329 0.00687382 0.00500666
v 0.00154179 0.00690410 0.00560478
v 0.00130726 0.00692701 0.00610203
v 0.00028442 0.00692783 0.00814929
v 0.00008469 0.00691637 0.00845475
v 0.00002417 0.00694337 0.00845475
v 0.00199269 0.00684682 0.00435596
v 0.00128154 0.00712829 0.00580510
v 0.00298527 0.00624135 -0.00246066
v 0.00291415 0.00613334 -0.00255017
v 0.00291415 0.00599098 -0.00255017
v 0.00274166 0.00499603 -0.00272776
v 0.00261759 0.00499603 -0.00285136
v 0.00248746 0.00399946 -0.00297638
v 0.00215459 0.00681246 0.00360724
v 0.00252075 0.00662263 0.00326911
v 0.00253134 0.00662918 0.00310999
v 0.00238760 0.00670773 0.00310999
v 0.00259035 0.00666191 0.00136819
v 0.00279462 0.00663327 -0.00112660
v 0.00282034 0.00662672 -0.00137523
v 0.00293231 0.00656863 -0.00156845
v 0.00293988 0.00657272 -0.00187390
v 0.00294441 0.00655881 -0.00212395
v 0.00326065 0.00636572 -0.00173325
v 0.00353603 0.00613825 -0.00087798
v 0.00352998 0.00613662 -0.00112660
v 0.00351636 0.00612598 -0.00129141
v 0.00349669 0.00609243 -0.00145621
v 0.00330150 0.00623971 -0.00184975
v 0.00323341 0.00632071 -0.00191652
v 0.00327880 0.00615544 -0.00203302
v 0.00306697 0.00624135 -0.00233706
v 0.00260548 0.00350035 -0.00285136
v -0.00982144 0.00065871 0.00751991
v -0.01001360 0.00075690 0.00786231
v -0.01014826 0.00100645 0.00808394
v -0.01140866 0.00250213 0.01031590
v -0.01146767 0.00250213 0.01043950
v -0.00466335 0.00699001 -0.00017330
v -0.00548646 0.00674046 0.00096470
v -0.00496748 0.00686891 0.00024439
v -0.00453776 0.00699001 -0.00035089
v -0.00306705 0.00706774 -0.00236121
v 0.00110754 0.00305361 0.00784810
v 0.00354662 0.00309534 0.00111814
v 0.00352392 0.00311334 0.00128152
v 0.00110754 0.00295624 0.00759947
v -0.01101677 0.00186230 0.01063840
v 0.00374635 0.00313543 0.00018330
v -0.01118926 0.00189421 0.01042955
v -0.01125281 0.00211921 0.01063840
v -0.01145405 0.00237368 0.01063840
v -0.01121196 0.00185902 0.01026333
v -0.01123768 0.00200875 0.01009568
v -0.01146615 0.00239577 0.01063840
v -0.01145405 0.00237204 0.01046223
v -0.01000603 0.00065871 0.00787367
v 0.00308211 0.00350035 -0.00232711
v 0.00320618 0.00350035 -0.00216799
v 0.00273107 0.00350035 -0.00271355
v 0.00328486 0.00350035 -0.00204297
v 0.00336808 0.00350035 -0.00187532
v 0.00350425 0.00339807 -0.00156845
v 0.00360412 0.00349953 -0.00137523
v 0.00370247 0.00349953 -0.00112660
v 0.00354965 0.00325898 -0.00135960
v 0.00376450 0.00335962 -0.00079273
v 0.00377661 0.00333098 -0.00062793
v 0.00386739 0.00349953 -0.00012926
v 0.00386891 0.00349953 0.00012079
v 0.00379628 0.00328680 0.00036942
v -0.01157056 0.00275087 0.01063840
v 0.00353149 0.00332280 0.00154862
v 0.00362681 0.00349953 0.00136819
v 0.00371155 0.00424737 0.00111814
v 0.00371003 0.00499603 0.00112098
v 0.00370852 0.00524395 0.00112098
v 0.00378115 0.00549351 0.00084252
v 0.00328183 0.00614153 0.00186686
v 0.00277192 0.00638208 0.00301764
v 0.00382200 0.00549351 0.00062231
v 0.00379174 0.00570215 0.00062231
v 0.00373576 0.00582815 0.00062231
v 0.00357537 0.00596316 0.00111814
v 0.00346794 0.00605725 0.00136819
v 0.00249654 0.00659727 0.00343392
v 0.00230741 0.00666600 0.00385729
v 0.00321072 0.00599179 -0.00217226
v 0.00308513 0.00599179 -0.00234842
v 0.00298678 0.00599179 -0.00247203
v 0.00298376 0.00524477 -0.00246777
v 0.00299132 0.00634035 0.00236269
v 0.00300948 0.00636408 0.00221636
v 0.00254950 0.00663900 0.00261132
v 0.00319710 0.00632481 0.00036942
v 0.00256614 0.00664800 0.00211691
v 0.00277798 0.00662509 -0.00062793
v 0.00313052 0.00643935 -0.00137523
v 0.00315019 0.00643281 -0.00156845
v 0.00315927 0.00642872 -0.00164091
v 0.00325914 0.00636326 -0.00156845
v 0.00353149 0.00613253 -0.00062793
v 0.00376602 0.00587397 0.00012079
v 0.00376753 0.00587806 -0.00012926
v 0.00376602 0.00587561 -0.00037930
v 0.00376299 0.00587152 -0.00052990
v 0.00361168 0.00599179 -0.00112660
v 0.00355570 0.00600243 -0.00137523
v 0.00352998 0.00592634 -0.00154430
v 0.00354208 0.00574224 -0.00156987
v 0.00329091 0.00599179 -0.00205007
v 0.00348761 0.00315670 0.00144775
v 0.00356478 0.00324343 0.00136534
v 0.00371457 0.00320579 0.00062231
v 0.00370549 0.00326634 0.00086525
v 0.00364497 0.00324998 0.00111814
v -0.01152819 0.00254632 0.01063840
v 0.00308362 0.00374990 -0.00232996
v 0.00320769 0.00374990 -0.00217226
v 0.00328637 0.00374990 -0.00204723
v 0.00337564 0.00399946 -0.00187532
v 0.00348004 0.00499603 -0.00168779
v 0.00361017 0.00399946 -0.00137523
v 0.00353603 0.00499603 -0.00156845
v 0.00353906 0.00524477 -0.00156845
v 0.00370549 0.00374990 -0.00112660
v 0.00375089 0.00349953 -0.00094333
v 0.00383259 0.00349953 -0.00037930
v 0.00387345 0.00424819 -0.00012926
v 0.00384621 0.00424819 -0.00037930
v 0.00385226 0.00474730 -0.00037930
v 0.00383259 0.00349953 0.00036942
v 0.00376299 0.00336044 0.00078001
v 0.00377661 0.00333016 0.00062231
v 0.00387647 0.00474730 -0.00012926
v 0.00387193 0.00549269 0.00012079
v 0.00385226 0.00549269 0.00036942
v 0.00370549 0.00349953 0.00111814
v 0.00371003 0.00399864 0.00111814
v 0.00375391 0.00449775 0.00095902
v 0.00375089 0.00473994 0.00097038
v 0.00375089 0.00524395 0.00096754
v 0.00378115 0.00524395 0.00084252
v 0.00331663 0.00617098 0.00161823
v 0.00375391 0.00424737 0.00095191
v 0.00375240 0.00399864 0.00094339
v 0.00382200 0.00574224 0.00012079
v 0.00379477 0.00572506 0.00051859
v 0.00375089 0.00585515 0.00043193
v 0.00348307 0.00608834 0.00111814
v 0.00321072 0.00476857 -0.00217226
v 0.00308513 0.00574224 -0.00234700
v 0.00320920 0.00399946 -0.00217226
v 0.00308664 0.00476857 -0.00233848
v 0.00334235 0.00617916 0.00136819
v 0.00335749 0.00618489 0.00111814
v 0.00316079 0.00630435 0.00136819
v 0.00311539 0.00642872 -0.00087798
v 0.00348912 0.00609734 0.00087093
v 0.00376148 0.00586825 0.00026713
v 0.00382351 0.00574224 -0.00012926
v 0.00381444 0.00574224 -0.00037930
v 0.00378569 0.00575206 -0.00061798
v 0.00374786 0.00584206 -0.00069470
v 0.00377358 0.00567515 -0.00081547
v 0.00361471 0.00574224 -0.00137523
v 0.00361622 0.00524395 -0.00137523
v 0.00361622 0.00499603 -0.00137523
v 0.00361471 0.00449856 -0.00137523
v 0.00354208 0.00557451 -0.00156845
v 0.00338472 0.00499603 -0.00187390
v 0.00329091 0.00574224 -0.00205007
v 0.00328940 0.00424819 -0.00204865
v 0.00328788 0.00399946 -0.00204865
v 0.00370549 0.00499603 -0.00112660
v 0.00375089 0.00474730 -0.00097032
v 0.00375089 0.00449856 -0.00096890
v 0.00375089 0.00399946 -0.00096180
v 0.00375089 0.00374990 -0.00095470
v 0.00382351 0.00549269 -0.00062793
v 0.00381444 0.00449856 -0.00062793
v 0.00385680 0.00549269 -0.00037930
v 0.00374786 0.00349953 0.00092350
v 0.00387345 0.00549269 -0.00012926
v 0.00379931 0.00576024 0.00035663
v 0.00377812 0.00549269 -0.00084672
v 0.00375089 0.00524395 -0.00097032
v 0.00370398 0.00524395 -0.00112660
v 0.00377812 0.00499603 -0.00084672
v 0.00377812 0.00474730 -0.00084530
f 1 2 3
f 1 3 4
f 1 4 5
f 1 5 6
f 1 6 7
f 1 7 8
f 1 8 2
f 2 9 10
f 2 10 3
f 2 8 11
f 2 11 9
f 3 10 12
f 3 12 4
f 4 12 13
f 4 13 5
f 5 14 6
f 5 13 15
f 5 15 14
f 6 14 16
f 6 16 17
f 6 17 18
f 6 18 19
f 6 19 20
f 6 20 7
f 7 20 21
f 7 21 22
f 7 22 8
f 8 22 23
f 8 23 11
f 9 24 25
f 9 25 10
f 9 11 26
f 9 26 24
f 10 25 27
f 10 27 28
f 10 28 13
f 10 13 12
f 11 23 29
f 11 29 26
f 13 28 30
f 13 30 15
f 14 15 31
f 14 31 32
f 14 32 33
f 14 33 16
f 15 30 34
f 15 34 31
f 16 35 36
f 16 36 17
f 16 33 37
f 16 37 38
f 16 38 35
f 17 36 35
f 17 35 18
f 18 39 40
f 18 40 19
f 18 35 39
f 19 40 41
f 19 41 42
f 19 42 43
f 19 43 21
f 19 21 20
f 21 43 44
f 21 44 45
f 21 45 46
f 21 46 22
f 22 46 47
f 22 47 23
f 23 47 48
f 23 48 49
f 23 49 29
f 24 50 51
f 24 51 25
f 24 26 52
f 24 52 50
f 25 51 53
f 25 53 54
f 25 54 55
f 25 55 27
f 26 29 52
f 27 55 56
f 27 56 28
f 28 57 58
f 28 58 30
f 28 56 55
f 28 55 59
f 28 59 60
f 28 60 61
f 28 61 62
f 28 62 57
f 29 49 63
f 29 63 64
f 29 64 52
f 30 58 65
f 30 65 66
f 30 66 67
f 30 67 68
f 30 68 34
f 31 69 32
f 31 34 69
f 32 69 70
f 32 70 33
f 33 70 71
f 33 71 37
f 34 68 72
f 34 72 73
f 34 73 69
f 35 38 74
f 35 74 75
f 35 75 76
f 35 76 39
f 37 71 77
f 37 77 78
f 37 78 79
f 37 79 38
f 38 79 74
f 39 76 75
f 39 75 80
f 39 80 81
f 39 81 40
f 40 81 82
f 40 82 83
f 40 83 84
f 40 84 41
f 41 84 42
f 42 84 85
f 42 85 86
f 42 86 87
f 42 87 43
f 43 87 88
f 43 88 44
f 44 88 45
f 45 88 46
f 46 88 89
f 46 89 90
f 46 90 47
f 47 90 48
f 48 63 49
f 48 90 89
f 48 89 91
f 48 91 92
f 48 92 93
f 48 93 94
f 48 94 95
f 48 95 63
f 50 96 97
f 50 97 98
f 50 98 99
f 50 99 100
f 50 100 51
f 50 52 101
f 50 101 102
f 50 102 96
f 51 100 53
f 52 64 95
f 52 95 101
f 53 100 103
f 53 103 54
f 54 103 55
f 55 103 100
f 55 100 99
f 55 99 59
f 57 62 104
f 57 104 105
f 57 105 65
f 57 65 58
f 59 99 106
f 59 106 61
f 59 61 60
f 61 107 108
f 61 108 62
f 61 106 99
f 61 99 107
f 62 108 104
f 63 95 64
f 65 105 66
f 66 105 109
f 66 109 67
f 67 109 72
f 67 72 68
f 69 73 110
f 69 110 111
f 69 111 112
f 69 112 70
f 70 112 113
f 70 113 114
f 70 114 71
f 71 114 115
f 71 115 77
f 72 109 116
f 72 116 73
f 73 116 110
f 74 117 75
f 74 79 117
f 75 117 80
f 77 115 118
f 77 118 78
f 78 118 119
f 78 119 79
f 79 119 117
f 80 120 81
f 80 117 121
f 80 121 120
f 81 120 82
f 82 120 122
f 82 122 123
f 82 123 83
f 83 124 84
f 83 123 122
f 83 122 125
f 83 125 126
f 83 126 127
f 83 127 128
f 83 128 129
f 83 129 124
f 84 124 85
f 85 124 130
f 85 130 131
f 85 131 86
f 86 89 88
f 86 88 87
f 86 131 132
f 86 132 133
f 86 133 89
f 89 133 134
f 89 134 92
f 89 92 91
f 92 134 93
f 93 135 136
f 93 136 137
f 93 137 95
f 93 95 94
f 93 134 135
f 95 138 139
f 95 139 140
f 95 140 141
f 95 141 102
f 95 102 101
f 95 137 142
f 95 142 138
f 96 143 144
f 96 144 145
f 96 145 146
f 96 146 97
f 96 102 143
f 97 146 147
f 97 147 98
f 98 147 148
f 98 148 99
f 99 148 149
f 99 149 107
f 102 141 150
f 102 150 151
f 102 151 152
f 102 152 143
f 104 108 153
f 104 153 154
f 104 154 155
f 104 155 105
f 105 155 156
f 105 156 109
f 107 149 157
f 107 157 158
f 107 158 159
f 107 159 153
f 107 153 108
f 109 156 160
f 109 160 116
f 110 116 161
f 110 161 162
f 110 162 163
f 110 163 111
f 111 115 112
f 111 163 115
f 112 115 114
f 112 114 113
f 115 163 164
f 115 164 118
f 116 160 161
f 117 119 181
f 117 181 255
f 117 255 370
f 117 370 473
f 117 473 450
f 117 450 334
f 117 334 240
f 117 240 165
f 117 165 166
f 117 166 167
f 117 167 168
f 117 168 169
f 117 169 170
f 117 170 171
f 117 171 172
f 117 172 173
f 117 173 174
f 117 174 175
f 117 175 176
f 117 176 177
f 117 177 178
f 117 178 121
f 118 164 179
f 118 179 119
f 119 180 181
f 119 179 182
f 119 182 183
f 119 183 184
f 119 184 180
f 120 121 178
f 120 178 185
f 120 185 122
f 122 185 125
f 124 129 186
f 124 186 130
f 125 185 187
f 125 187 126
f 126 187 127
f 127 188 128
f 127 187 176
f 127 176 189
f 127 189 173
f 127 173 188
f 128 188 190
f 128 190 191
f 128 191 186
f 128 186 129
f 130 186 192
f 130 192 131
f 131 192 193
f 131 193 132
f 132 193 133
f 133 193 194
f 133 194 134
f 134 194 195
f 134 195 135
f 135 195 136
f 136 195 196
f 136 196 142
f 136 142 137
f 138 197 198
f 138 198 139
f 138 142 199
f 138 199 200
f 138 200 197
f 139 198 140
f 140 198 201
f 140 201 202
f 140 202 203
f 140 203 204
f 140 204 141
f 141 204 205
f 141 205 206
f 141 206 207
f 141 207 208
f 141 208 209
f 141 209 210
f 141 210 211
f 141 211 150
f 142 196 212
f 142 212 200
f 142 200 199
f 143 152 213
f 143 213 214
f 143 214 145
f 143 145 144
f 145 214 146
f 146 214 215
f 146 215 216
f 146 216 147
f 147 216 217
f 147 217 218
f 147 218 219
f 147 219 149
f 147 149 148
f 149 219 220
f 149 220 157
f 150 221 222
f 150 222 223
f 150 223 224
f 150 224 225
f 150 225 151
f 150 211 221
f 151 215 213
f 151 213 152
f 151 225 226
f 151 226 215
f 153 159 227
f 153 227 228
f 153 228 229
f 153 229 154
f 154 229 230
f 154 230 231
f 154 231 155
f 155 231 156
f 156 231 232
f 156 232 160
f 157 220 233
f 157 233 158
f 158 233 234
f 158 234 235
f 158 235 159
f 159 235 236
f 159 236 227
f 160 232 161
f 161 232 237
f 161 237 238
f 161 238 239
f 161 239 162
f 162 239 163
f 163 239 164
f 164 239 179
f 165 240 166
f 166 241 242
f 166 242 243
f 166 243 244
f 166 244 167
f 166 240 241
f 167 244 170
f 167 170 169
f 167 169 168
f 170 244 171
f 171 244 243
f 171 243 245
f 171 245 352
f 171 352 246
f 171 246 247
f 171 247 172
f 172 247 248
f 172 248 173
f 173 248 249
f 173 249 250
f 173 250 188
f 173 189 176
f 173 176 174
f 174 176 175
f 176 187 178
f 176 178 177
f 178 187 185
f 179 239 182
f 180 251 252
f 180 252 181
f 180 184 253
f 180 253 254
f 180 254 251
f 181 252 359
f 181 359 255
f 182 239 256
f 182 256 257
f 182 257 183
f 183 257 258
f 183 258 256
f 183 256 259
f 183 259 260
f 183 260 261
f 183 261 262
f 183 262 263
f 183 263 184
f 184 263 264
f 184 264 265
f 184 265 266
f 184 266 253
f 186 191 192
f 188 250 267
f 188 267 190
f 190 268 191
f 190 267 269
f 190 269 268
f 191 268 270
f 191 270 192
f 192 271 193
f 192 270 271
f 193 271 194
f 194 271 270
f 194 270 272
f 194 272 195
f 195 272 273
f 195 273 274
f 195 274 275
f 195 275 196
f 196 275 276
f 196 276 212
f 197 277 278
f 197 278 279
f 197 279 198
f 197 200 280
f 197 280 277
f 198 281 398
f 198 398 488
f 198 488 533
f 198 533 471
f 198 471 468
f 198 468 467
f 198 467 464
f 198 464 359
f 198 359 252
f 198 252 283
f 198 283 206
f 198 206 205
f 198 205 204
f 198 204 203
f 198 203 202
f 198 202 201
f 198 279 281
f 200 212 282
f 200 282 280
f 206 283 284
f 206 284 207
f 207 284 404
f 207 404 285
f 207 285 286
f 207 286 287
f 207 287 288
f 207 288 289
f 207 289 290
f 207 290 291
f 207 291 292
f 207 292 208
f 208 292 209
f 209 292 293
f 209 293 210
f 210 293 211
f 211 293 294
f 211 294 221
f 212 276 282
f 213 215 214
f 215 226 295
f 215 295 218
f 215 218 216
f 216 218 217
f 218 295 226
f 218 226 296
f 218 296 297
f 218 297 220
f 218 220 298
f 218 298 299
f 218 299 219
f 219 299 220
f 220 299 298
f 220 297 233
f 221 300 222
f 221 294 300
f 222 300 223
f 223 300 301
f 223 301 302
f 223 302 224
f 224 302 303
f 224 303 304
f 224 304 225
f 225 304 305
f 225 305 226
f 226 305 306
f 226 306 307
f 226 307 308
f 226 308 296
f 227 236 228
f 228 236 309
f 228 309 310
f 228 310 311
f 228 311 312
f 228 312 229
f 229 312 313
f 229 313 314
f 229 314 315
f 229 315 230
f 230 316 231
f 230 315 317
f 230 317 316
f 231 316 232
f 232 316 237
f 233 297 318
f 233 318 319
f 233 319 320
f 233 320 321
f 233 321 322
f 233 322 323
f 233 323 234
f 234 323 324
f 234 324 235
f 235 324 325
f 235 325 326
f 235 326 327
f 235 327 328
f 235 328 236
f 236 328 329
f 236 329 309
f 237 316 317
f 237 317 330
f 237 330 331
f 237 331 238
f 238 331 332
f 238 332 333
f 238 333 239
f 239 333 256
f 240 334 335
f 240 335 241
f 241 336 337
f 241 337 338
f 241 338 242
f 241 335 339
f 241 339 340
f 241 340 341
f 241 341 342
f 241 342 336
f 242 338 337
f 242 337 343
f 242 343 344
f 242 344 345
f 242 345 346
f 242 346 243
f 243 346 347
f 243 347 348
f 243 348 349
f 243 349 350
f 243 350 351
f 243 351 245
f 245 351 352
f 246 352 353
f 246 353 248
f 246 248 247
f 248 353 389
f 248 389 354
f 248 354 355
f 248 355 249
f 249 355 356
f 249 356 250
f 250 356 267
f 251 357 252
f 251 254 358
f 251 358 357
f 252 357 284
f 252 284 283
f 253 266 360
f 253 360 254
f 254 360 361
f 254 361 358
f 255 359 362
f 255 362 363
f 255 363 364
f 255 364 365
f 255 365 366
f 255 366 367
f 255 367 368
f 255 368 369
f 255 369 370
f 256 333 332
f 256 332 259
f 256 258 257
f 259 371 260
f 259 332 371
f 260 371 372
f 260 372 261
f 261 373 374
f 261 374 375
f 261 375 376
f 261 376 262
f 261 372 373
f 262 376 263
f 263 376 264
f 264 377 378
f 264 378 265
f 264 376 377
f 265 378 379
f 265 379 266
f 266 379 380
f 266 380 381
f 266 381 360
f 267 356 382
f 267 382 383
f 267 383 269
f 268 384 270
f 268 269 385
f 268 385 384
f 269 383 385
f 270 384 386
f 270 386 272
f 272 386 273
f 273 386 385
f 273 385 387
f 273 387 274
f 274 387 275
f 275 388 354
f 275 354 389
f 275 389 390
f 275 390 391
f 275 391 392
f 275 392 276
f 275 387 388
f 276 392 393
f 276 393 394
f 276 394 349
f 276 349 277
f 276 277 280
f 276 280 282
f 277 349 348
f 277 348 278
f 278 348 395
f 278 395 396
f 278 396 279
f 279 397 281
f 279 396 397
f 281 397 399
f 281 399 400
f 281 400 401
f 281 401 342
f 281 342 398
f 284 357 402
f 284 402 403
f 284 403 404
f 285 404 490
f 285 490 405
f 285 405 406
f 285 406 407
f 285 407 408
f 285 408 286
f 286 409 410
f 286 410 287
f 286 408 411
f 286 411 412
f 286 412 413
f 286 413 409
f 287 414 288
f 287 410 414
f 288 414 415
f 288 415 289
f 289 415 416
f 289 416 417
f 289 417 302
f 289 302 418
f 289 418 290
f 290 301 419
f 290 419 420
f 290 420 291
f 290 418 302
f 290 302 301
f 291 420 421
f 291 421 293
f 291 293 292
f 293 421 294
f 294 421 300
f 296 308 297
f 297 308 318
f 300 419 301
f 300 421 420
f 300 420 419
f 302 417 416
f 302 416 422
f 302 422 320
f 302 320 303
f 303 423 304
f 303 320 423
f 304 423 305
f 305 423 306
f 306 423 320
f 306 320 307
f 307 320 308
f 308 320 319
f 308 319 318
f 309 329 424
f 309 424 310
f 310 424 425
f 310 425 311
f 311 425 426
f 311 426 427
f 311 427 428
f 311 428 314
f 311 314 313
f 311 313 312
f 314 429 315
f 314 428 429
f 315 429 330
f 315 330 317
f 320 430 321
f 320 422 431
f 320 431 432
f 320 432 433
f 320 433 430
f 321 430 433
f 321 433 434
f 321 434 322
f 322 435 436
f 322 436 437
f 322 437 438
f 322 438 323
f 322 434 435
f 323 438 325
f 323 325 439
f 323 439 324
f 324 439 325
f 325 440 441
f 325 441 442
f 325 442 443
f 325 443 444
f 325 444 445
f 325 445 446
f 325 446 327
f 325 327 326
f 325 438 440
f 327 446 447
f 327 447 448
f 327 448 424
f 327 424 328
f 328 424 329
f 330 429 427
f 330 427 449
f 330 449 331
f 331 449 332
f 332 449 371
f 334 450 451
f 334 451 452
f 334 452 339
f 334 339 335
f 336 342 400
f 336 400 337
f 337 400 397
f 337 397 343
f 339 452 340
f 340 369 342
f 340 342 341
f 340 452 369
f 342 369 453
f 342 453 454
f 342 454 398
f 342 401 400
f 343 397 344
f 344 396 395
f 344 395 455
f 344 455 456
f 344 456 345
f 344 397 396
f 345 456 346
f 346 456 457
f 346 457 458
f 346 458 347
f 347 458 348
f 348 458 395
f 349 394 459
f 349 459 350
f 350 459 351
f 351 459 353
f 351 353 352
f 353 391 390
f 353 390 389
f 353 459 391
f 354 388 355
f 355 388 382
f 355 382 356
f 357 358 460
f 357 460 403
f 357 403 402
f 358 361 461
f 358 461 462
f 358 462 463
f 358 463 460
f 359 464 362
f 360 381 465
f 360 465 361
f 361 465 461
f 362 464 363
f 363 466 364
f 363 464 467
f 363 467 466
f 364 466 365
f 365 466 468
f 365 468 469
f 365 469 366
f 366 469 367
f 367 470 368
f 367 469 471
f 367 471 472
f 367 472 470
f 368 470 369
f 369 470 472
f 369 472 454
f 369 454 453
f 369 452 451
f 369 451 473
f 369 473 370
f 371 474 475
f 371 475 373
f 371 373 372
f 371 449 476
f 371 476 474
f 373 475 477
f 373 477 478
f 373 478 374
f 374 478 479
f 374 479 480
f 374 480 481
f 374 481 377
f 374 377 482
f 374 482 375
f 375 482 376
f 376 482 377
f 377 481 483
f 377 483 378
f 378 483 484
f 378 484 379
f 379 485 380
f 379 484 485
f 380 485 486
f 380 486 381
f 381 486 487
f 381 487 465
f 382 388 383
f 383 387 385
f 383 388 387
f 384 385 386
f 391 459 392
f 392 459 393
f 393 459 394
f 395 458 455
f 397 400 399
f 398 454 472
f 398 472 488
f 403 460 489
f 403 489 490
f 403 490 404
f 405 490 491
f 405 491 492
f 405 492 406
f 406 492 407
f 407 411 408
f 407 492 493
f 407 493 494
f 407 494 411
f 409 495 496
f 409 496 410
f 409 413 495
f 410 496 414
f 411 494 412
f 412 494 497
f 412 497 498
f 412 498 413
f 413 498 499
f 413 499 500
f 413 500 501
f 413 501 495
f 414 496 415
f 415 496 502
f 415 502 503
f 415 503 416
f 416 503 422
f 422 503 502
f 422 502 431
f 424 448 504
f 424 504 505
f 424 505 506
f 424 506 425
f 425 506 426
f 426 506 427
f 427 506 507
f 427 507 449
f 427 429 428
f 431 502 508
f 431 508 509
f 431 509 432
f 432 510 433
f 432 509 511
f 432 511 510
f 433 510 512
f 433 512 434
f 434 512 437
f 434 437 513
f 434 513 435
f 435 513 437
f 435 437 436
f 437 514 515
f 437 515 438
f 437 512 510
f 437 510 514
f 438 515 516
f 438 516 440
f 440 517 441
f 440 516 517
f 441 517 518
f 441 518 519
f 441 519 520
f 441 520 521
f 441 521 442
f 442 521 522
f 442 522 443
f 443 522 523
f 443 523 524
f 443 524 444
f 444 524 525
f 444 525 447
f 444 447 445
f 445 447 446
f 447 525 526
f 447 526 527
f 447 527 504
f 447 504 448
f 449 507 476
f 450 473 451
f 455 458 456
f 456 458 457
f 460 463 462
f 460 462 528
f 460 528 529
f 460 529 489
f 461 465 530
f 461 530 531
f 461 531 532
f 461 532 462
f 462 532 529
f 462 529 528
f 465 487 530
f 466 467 468
f 468 471 469
f 471 533 472
f 472 533 488
f 474 476 507
f 474 507 534
f 474 534 535
f 474 535 475
f 475 535 536
f 475 536 477
f 477 536 537
f 477 537 478
f 478 537 538
f 478 538 480
f 478 480 479
f 480 539 481
f 480 538 540
f 480 540 541
f 480 541 539
f 481 539 542
f 481 542 543
f 481 543 483
f 483 544 485
f 483 485 484
f 483 543 544
f 485 545 486
f 485 544 546
f 485 546 547
f 485 547 545
f 486 548 549
f 486 549 550
f 486 550 487
f 486 545 551
f 486 551 552
f 486 552 553
f 486 553 497
f 486 497 548
f 487 550 531
f 487 531 530
f 489 529 532
f 489 532 554
f 489 554 490
f 490 554 555
f 490 555 491
f 491 555 556
f 491 556 557
f 491 557 492
f 492 557 558
f 492 558 493
f 493 558 494
f 494 558 557
f 494 557 556
f 494 556 559
f 494 559 497
f 495 501 560
f 495 560 509
f 495 509 508
f 495 508 502
f 495 502 496
f 497 559 561
f 497 561 562
f 497 562 548
f 497 553 498
f 498 553 552
f 498 552 563
f 498 563 564
f 498 564 565
f 498 565 499
f 499 565 500
f 500 565 566
f 500 566 501
f 501 566 560
f 504 527 588
f 504 588 567
f 504 567 505
f 505 568 506
f 505 567 569
f 505 569 568
f 506 568 570
f 506 570 507
f 507 570 534
f 509 560 566
f 509 566 571
f 509 571 572
f 509 572 573
f 509 573 511
f 510 511 574
f 510 574 514
f 511 517 514
f 511 514 574
f 511 573 572
f 511 572 517
f 514 517 515
f 515 517 516
f 517 572 518
f 518 572 575
f 518 575 519
f 519 576 563
f 519 563 520
f 519 575 566
f 519 566 576
f 520 563 577
f 520 577 521
f 521 577 522
f 522 577 578
f 522 578 579
f 522 579 580
f 522 580 523
f 523 580 581
f 523 581 524
f 524 581 525
f 525 581 582
f 525 582 526
f 526 582 583
f 526 583 584
f 526 584 585
f 526 585 586
f 526 586 538
f 526 538 587
f 526 587 527
f 527 587 588
f 531 550 549
f 531 549 532
f 532 549 554
f 534 570 535
f 535 569 589
f 535 589 590
f 535 590 536
f 535 570 569
f 536 590 538
f 536 538 537
f 538 541 540
f 538 590 587
f 538 586 541
f 539 541 586
f 539 586 585
f 539 585 542
f 542 585 584
f 542 584 583
f 542 583 591
f 542 591 603
f 542 603 592
f 542 592 593
f 542 593 594
f 542 594 595
f 542 595 543
f 543 595 596
f 543 596 597
f 543 597 546
f 543 546 544
f 545 547 598
f 545 598 551
f 546 597 547
f 547 597 596
f 547 596 598
f 548 562 599
f 548 599 549
f 549 599 554
f 551 600 552
f 551 598 600
f 552 600 577
f 552 577 563
f 554 599 562
f 554 562 561
f 554 561 555
f 555 561 556
f 556 561 559
f 563 601 564
f 563 576 601
f 564 601 565
f 565 601 576
f 565 576 566
f 566 575 572
f 566 572 571
f 567 588 589
f 567 589 569
f 568 569 570
f 577 600 578
f 578 600 598
f 578 598 579
f 579 581 580
f 579 598 581
f 581 598 596
f 581 596 602
f 581 602 582
f 582 602 603
f 582 603 604
f 582 604 591
f 582 591 583
f 587 590 589
f 587 589 588
f 591 604 603
f 592 603 602
f 592 602 605
f 592 605 606
f 592 606 593
f 593 606 594
f 594 606 595
f 595 606 596
f 596 606 605
f 596 605 602

