# https://github.com/mikedh/trimesh
v -0.00600680 0.00100451 0.00560645
v -0.00601242 0.00075525 0.00560645
v -0.00602469 0.00075525 0.00535730
v -0.00601967 0.00100451 0.00535730
v -0.00602721 0.00125376 0.00535730
v -0.00601804 0.00125376 0.00560645
v -0.00608960 0.00125376 0.00585589
v -0.00608413 0.00100451 0.00585589
v -0.00608768 0.00075525 0.00585589
v -0.00612212 0.00065798 0.00585589
v -0.00608635 0.00065798 0.00573717
v -0.00605944 0.00065798 0.00560645
v -0.00612286 0.00054459 0.00535730
v -0.00606993 0.00065798 0.00535730
v -0.00617550 0.00059167 0.00510785
v -0.00621482 0.00062888 0.00498187
v -0.00613188 0.00075525 0.00510800
v -0.00612863 0.00100451 0.00510800
v -0.00613055 0.00125376 0.00510800
v -0.00621423 0.00138113 0.00498128
v -0.00617402 0.00141710 0.00510800
v -0.00612523 0.00144619 0.00535730
v -0.00612257 0.00144320 0.00560645
v -0.00615583 0.00143371 0.00585589
v -0.00616707 0.00142571 0.00590193
v -0.00619294 0.00140711 0.00600675
v -0.00611532 0.00125376 0.00590193
v -0.00618126 0.00125376 0.00601992
v -0.00618126 0.00100451 0.00601992
v -0.00618200 0.00075513 0.00601933
v -0.00619368 0.00060640 0.00600601
v -0.00612020 0.00070955 0.00590193
v -0.00615361 0.00056981 0.00585589
v -0.00611680 0.00053972 0.00560645
v -0.00629008 0.00041996 0.00535730
v -0.00627692 0.00041509 0.00560645
v -0.00635601 0.00046891 0.00512295
v -0.00634079 0.00059092 0.00494145
v -0.00644265 0.00065798 0.00487750
v -0.00659020 0.00075525 0.00478498
v -0.00624365 0.00065798 0.00496218
v -0.00621453 0.00065798 0.00498157
v -0.00621379 0.00075525 0.00498083
v -0.00621320 0.00100451 0.00498039
v -0.00621320 0.00125376 0.00498039
v -0.00634064 0.00125376 0.00489556
v -0.00659020 0.00125376 0.00478675
v -0.00634064 0.00141710 0.00494042
v -0.00634064 0.00148128 0.00510800
v -0.00634064 0.00150076 0.00535730
v -0.00634064 0.00149764 0.00560645
v -0.00634064 0.00149202 0.00585589
v -0.00634537 0.00147841 0.00590193
v -0.00636562 0.00142097 0.00609601
v -0.00646512 0.00137889 0.00623014
v -0.00634005 0.00125376 0.00614457
v -0.00634005 0.00100451 0.00614457
v -0.00636562 0.00075725 0.00616100
v -0.00646675 0.00067558 0.00622955
v -0.00634567 0.00044381 0.00585501
v -0.00634079 0.00056444 0.00606167
v -0.00641471 0.00035178 0.00535730
v -0.00644916 0.00037301 0.00521607
v -0.00640170 0.00034441 0.00560645
v -0.00643186 0.00036314 0.00577122
v -0.00659020 0.00041796 0.00505470
v -0.00659020 0.00054272 0.00488638
v -0.00659020 0.00065798 0.00483131
v -0.00683902 0.00075525 0.00476899
v -0.00683902 0.00100451 0.00476410
v -0.00659020 0.00100451 0.00478053
v -0.00634064 0.00075525 0.00489660
v -0.00672548 0.00065798 0.00482258
v -0.00634064 0.00100451 0.00489349
v -0.00683902 0.00125376 0.00477491
v -0.00659020 0.00144569 0.00488831
v -0.00659020 0.00150039 0.00510800
v -0.00708859 0.00149814 0.00585589
v -0.00638677 0.00148603 0.00590193
v -0.00683917 0.00147017 0.00610519
v -0.00659020 0.00145931 0.00610519
v -0.00659020 0.00140099 0.00624479
v -0.00659020 0.00125376 0.00625975
v -0.00646483 0.00125376 0.00623029
v -0.00646483 0.00100451 0.00623029
v -0.00646512 0.00084192 0.00623014
v -0.00656581 0.00075725 0.00625323
v -0.00650829 0.00065798 0.00623458
v -0.00659020 0.00039674 0.00594590
v -0.00663293 0.00060565 0.00624894
v -0.00656595 0.00052835 0.00612991
v -0.00659020 0.00026861 0.00535730
v -0.00659020 0.00025001 0.00560645
v -0.00659020 0.00035066 0.00517950
v -0.00659020 0.00033205 0.00582125
v -0.00683932 0.00041222 0.00503872
v -0.00683932 0.00034129 0.00516336
v -0.00683932 0.00053685 0.00487824
v -0.00708859 0.00075525 0.00484153
v -0.00708873 0.00056494 0.00491407
v -0.00708873 0.00065798 0.00487854
v -0.00708859 0.00100451 0.00483812
v -0.00708859 0.00125376 0.00484449
v -0.00708859 0.00143558 0.00491688
v -0.00683902 0.00144132 0.00488446
v -0.00708859 0.00149352 0.00510800
v -0.00734554 0.00144220 0.00584908
v -0.00713501 0.00147966 0.00590193
v -0.00707972 0.00144095 0.00611245
v -0.00733815 0.00147442 0.00560645
v -0.00683917 0.00141447 0.00625323
v -0.00683917 0.00125376 0.00627633
v -0.00659020 0.00100451 0.00625975
v -0.00683917 0.00075513 0.00627544
v -0.00660972 0.00065798 0.00625057
v -0.00683932 0.00038974 0.00596367
v -0.00683932 0.00032119 0.00583887
v -0.00683932 0.00048502 0.00610519
v -0.00683932 0.00065798 0.00626093
v -0.00683932 0.00060103 0.00625234
v -0.00683932 0.00022516 0.00560645
v -0.00683932 0.00024539 0.00535730
v -0.00701008 0.00036065 0.00519460
v -0.00709139 0.00043819 0.00511007
v -0.00724441 0.00060203 0.00495596
v -0.00725033 0.00065798 0.00495078
v -0.00726053 0.00075525 0.00494190
v -0.00726112 0.00100451 0.00494116
v -0.00726112 0.00125376 0.00494116
v -0.00724515 0.00141160 0.00495522
v -0.00733223 0.00142721 0.00512798
v -0.00733815 0.00146655 0.00535730
v -0.00748998 0.00141885 0.00560645
v -0.00747624 0.00139949 0.00576130
v -0.00732351 0.00143770 0.00590193
v -0.00726777 0.00142621 0.00603413
v -0.00699042 0.00139674 0.00624124
v -0.00683917 0.00100451 0.00627633
v -0.00700358 0.00125376 0.00624687
v -0.00700284 0.00075513 0.00624642
v -0.00698923 0.00061589 0.00624080
v -0.00702900 0.00034866 0.00579475
v -0.00707898 0.00055083 0.00611111
v -0.00710278 0.00033180 0.00558158
v -0.00721351 0.00038100 0.00548195
v -0.00709139 0.00033904 0.00538217
v -0.00717641 0.00039736 0.00531570
v -0.00733194 0.00057019 0.00512843
v -0.00725048 0.00065798 0.00495093
v -0.00746663 0.00062513 0.00522539
v -0.00738531 0.00075525 0.00509630
v -0.00738590 0.00100451 0.00509556
v -0.00738590 0.00125376 0.00509556
v -0.00746707 0.00138588 0.00522436
v -0.00748333 0.00140873 0.00535730
v -0.00751719 0.00125376 0.00560645
v -0.00748289 0.00125376 0.00577654
v -0.00741976 0.00125376 0.00590134
v -0.00729513 0.00125376 0.00606093
v -0.00712836 0.00125376 0.00618558
v -0.00700358 0.00100451 0.00624687
v -0.00712836 0.00100451 0.00618558
v -0.00712762 0.00075513 0.00618395
v -0.00720671 0.00065798 0.00609690
v -0.00726556 0.00058555 0.00603191
v -0.00719548 0.00038999 0.00564805
v -0.00710278 0.00041534 0.00586907
v -0.00721351 0.00038100 0.00548209
v -0.00748895 0.00059666 0.00560645
v -0.00748230 0.00060540 0.00535730
v -0.00731331 0.00047054 0.00538217
v -0.00748954 0.00065798 0.00535730
v -0.00747579 0.00065798 0.00525870
v -0.00746736 0.00065798 0.00522421
v -0.00746899 0.00075525 0.00522095
v -0.00746958 0.00100451 0.00522021
v -0.00746958 0.00125376 0.00522021
v -0.00750359 0.00125376 0.00535730
v -0.00751719 0.00100451 0.00560645
v -0.00748289 0.00100451 0.00577654
v -0.00741976 0.00100451 0.00590134
v -0.00729513 0.00100451 0.00606093
v -0.00729320 0.00075513 0.00605930
v -0.00727753 0.00065798 0.00604361
v -0.00741695 0.00075525 0.00590193
v -0.00747564 0.00061352 0.00576011
v -0.00734451 0.00054883 0.00584834
v -0.00731331 0.00045917 0.00558158
v -0.00751615 0.00075525 0.00560645
v -0.00749427 0.00065798 0.00544479
v -0.00750270 0.00075525 0.00535730
v -0.00750359 0.00100451 0.00535730
v -0.00748230 0.00075525 0.00577566
v -0.00741784 0.00075525 0.00590031
v -0.00745761 0.00065798 0.00580408
v -0.00747786 0.00065798 0.00576515
f 1 2 3
f 1 3 4
f 1 4 5
f 1 5 6
f 1 6 7
f 1 7 8
f 1 8 9
f 1 9 2
f 2 9 10
f 2 10 11
f 2 11 12
f 2 12 13
f 2 13 14
f 2 14 3
f 3 14 15
f 3 15 16
f 3 16 17
f 3 17 4
f 4 17 18
f 4 18 19
f 4 19 5
f 5 19 20
f 5 20 21
f 5 21 22
f 5 22 6
f 6 22 23
f 6 23 24
f 6 24 7
f 7 24 25
f 7 25 26
f 7 26 27
f 7 27 8
f 8 27 28
f 8 28 29
f 8 29 30
f 8 30 9
f 9 31 32
f 9 32 10
f 9 30 31
f 10 33 11
f 10 32 31
f 10 31 33
f 11 34 12
f 11 33 34
f 12 34 13
f 13 35 15
f 13 15 14
f 13 34 36
f 13 36 35
f 15 35 37
f 15 37 16
f 16 38 39
f 16 39 40
f 16 40 41
f 16 41 42
f 16 42 17
f 16 37 38
f 17 42 18
f 18 42 43
f 18 43 44
f 18 44 45
f 18 45 19
f 19 45 20
f 20 45 46
f 20 46 47
f 20 47 48
f 20 48 21
f 21 48 49
f 21 49 22
f 22 49 50
f 22 50 23
f 23 50 51
f 23 51 52
f 23 52 24
f 24 52 25
f 25 52 26
f 26 52 53
f 26 53 54
f 26 54 55
f 26 55 28
f 26 28 27
f 28 55 56
f 28 56 57
f 28 57 29
f 29 57 30
f 30 57 58
f 30 58 59
f 30 59 31
f 31 60 33
f 31 59 61
f 31 61 60
f 33 60 36
f 33 36 34
f 35 62 63
f 35 63 37
f 35 36 64
f 35 64 62
f 36 60 65
f 36 65 64
f 37 63 66
f 37 66 38
f 38 66 67
f 38 67 39
f 39 67 68
f 39 68 40
f 40 69 70
f 40 70 71
f 40 71 72
f 40 72 41
f 40 68 73
f 40 73 69
f 41 43 42
f 41 72 74
f 41 74 43
f 43 74 44
f 44 74 45
f 45 74 46
f 46 74 71
f 46 71 47
f 47 71 70
f 47 70 75
f 47 75 76
f 47 76 48
f 48 76 49
f 49 77 50
f 49 76 77
f 50 77 78
f 50 78 51
f 51 78 52
f 52 79 53
f 52 78 80
f 52 80 79
f 53 79 54
f 54 81 82
f 54 82 55
f 54 79 81
f 55 82 83
f 55 83 84
f 55 84 56
f 56 84 85
f 56 85 57
f 57 85 86
f 57 86 58
f 58 86 59
f 59 86 87
f 59 87 88
f 59 88 61
f 60 61 89
f 60 89 65
f 61 88 90
f 61 90 91
f 61 91 89
f 62 92 63
f 62 64 93
f 62 93 92
f 63 94 66
f 63 92 94
f 64 65 93
f 65 89 95
f 65 95 93
f 66 96 67
f 66 94 97
f 66 97 96
f 67 98 73
f 67 73 68
f 67 96 98
f 69 99 70
f 69 73 98
f 69 98 100
f 69 100 101
f 69 101 99
f 70 102 103
f 70 103 75
f 70 99 102
f 71 74 72
f 75 103 104
f 75 104 105
f 75 105 76
f 76 105 77
f 77 106 78
f 77 105 106
f 78 107 108
f 78 108 109
f 78 109 80
f 78 106 110
f 78 110 107
f 79 80 81
f 80 109 111
f 80 111 81
f 81 111 82
f 82 111 112
f 82 112 83
f 83 112 138
f 83 138 113
f 83 113 85
f 83 85 84
f 85 113 86
f 86 113 87
f 87 113 114
f 87 114 115
f 87 115 88
f 88 115 90
f 89 116 117
f 89 117 95
f 89 91 118
f 89 118 116
f 90 115 114
f 90 114 119
f 90 119 120
f 90 120 118
f 90 118 91
f 92 93 121
f 92 121 122
f 92 122 94
f 93 95 121
f 94 122 97
f 95 117 121
f 96 100 98
f 96 97 123
f 96 123 124
f 96 124 100
f 97 122 123
f 99 101 125
f 99 125 126
f 99 126 127
f 99 127 102
f 100 124 125
f 100 125 101
f 102 127 128
f 102 128 129
f 102 129 103
f 103 129 130
f 103 130 104
f 104 130 106
f 104 106 105
f 106 130 131
f 106 131 132
f 106 132 110
f 107 110 133
f 107 133 134
f 107 134 135
f 107 135 108
f 108 135 136
f 108 136 109
f 109 136 137
f 109 137 111
f 110 132 133
f 111 137 112
f 112 137 139
f 112 139 161
f 112 161 138
f 113 138 114
f 114 138 140
f 114 140 141
f 114 141 119
f 116 142 117
f 116 118 143
f 116 143 142
f 117 142 121
f 118 120 141
f 118 141 143
f 119 141 120
f 121 144 145
f 121 145 146
f 121 146 122
f 121 142 144
f 122 146 123
f 123 146 147
f 123 147 124
f 124 147 148
f 124 148 125
f 125 149 126
f 125 148 150
f 125 150 149
f 126 149 127
f 127 149 150
f 127 150 151
f 127 151 152
f 127 152 128
f 128 152 153
f 128 153 129
f 129 153 130
f 130 153 154
f 130 154 131
f 131 154 155
f 131 155 132
f 132 155 133
f 133 156 134
f 133 155 156
f 134 157 158
f 134 158 136
f 134 136 135
f 134 156 157
f 136 159 160
f 136 160 137
f 136 158 159
f 137 160 139
f 138 161 140
f 139 160 162
f 139 162 161
f 140 161 162
f 140 162 163
f 140 163 141
f 141 163 164
f 141 164 165
f 141 165 143
f 142 166 144
f 142 143 167
f 142 167 166
f 143 165 167
f 144 168 145
f 144 166 168
f 145 168 169
f 145 169 170
f 145 170 171
f 145 171 147
f 145 147 146
f 147 150 148
f 147 171 150
f 150 171 170
f 150 170 172
f 150 172 173
f 150 173 174
f 150 174 151
f 151 174 175
f 151 175 176
f 151 176 152
f 152 176 177
f 152 177 153
f 153 177 154
f 154 178 155
f 154 177 178
f 155 178 156
f 156 179 180
f 156 180 157
f 156 178 192
f 156 192 179
f 157 180 181
f 157 181 158
f 158 181 182
f 158 182 159
f 159 182 162
f 159 162 160
f 162 182 163
f 163 182 183
f 163 183 184
f 163 184 164
f 164 184 165
f 165 184 185
f 165 185 186
f 165 186 187
f 165 187 167
f 166 167 187
f 166 187 186
f 166 186 188
f 166 188 168
f 168 188 169
f 169 189 190
f 169 190 170
f 169 188 186
f 169 186 189
f 170 190 172
f 172 191 173
f 172 190 191
f 173 191 174
f 174 191 175
f 175 191 192
f 175 192 176
f 176 192 178
f 176 178 177
f 179 189 193
f 179 193 180
f 179 192 191
f 179 191 189
f 180 193 181
f 181 193 194
f 181 194 185
f 181 185 182
f 182 185 183
f 183 185 184
f 185 194 195
f 185 195 186
f 186 195 196
f 186 196 189
f 189 196 193
f 189 191 190
f 193 196 194
f 194 196 195

