# https://github.com/mikedh/trimesh
v 0.00551247 0.00274828 0.01054847
v 0.00550704 0.00259837 0.01050414
v 0.00551247 0.00274828 0.01045735
v 0.00551066 0.00291887 0.01045982
v 0.00550704 0.00315149 0.01072332
v 0.00550704 0.00305499 0.01072332
v 0.00549981 0.00288958 0.01070855
v 0.00515449 0.00046345 0.01183892
v 0.00550704 0.00259837 0.01045982
v 0.00513460 0.00025668 0.01183892
v 0.00384733 -0.00697346 -0.00037602
v 0.00382202 0.00549146 -0.00062722
v 0.00549619 0.00308429 0.01051646
v 0.00550704 0.00315149 0.01068392
v 0.00385456 0.00549146 -0.00037602
v 0.00541664 0.00349611 0.01084153
v 0.00525754 0.00387691 0.01122079
v 0.00475855 0.00438178 0.01271564
v 0.00509483 0.00075810 0.01208765
v 0.00515630 0.00050997 0.01183892
v 0.00507494 0.00048413 0.01211474
v 0.00507313 0.00025668 0.01207534
v 0.00385095 -0.00697346 -0.00012483
v 0.00504420 0.00000855 0.01203101
v 0.00501528 -0.00013447 0.01198668
v 0.00378586 -0.00716128 0.00062629
v 0.00378767 -0.00716300 0.00057704
v 0.00380033 -0.00718023 0.00012391
v 0.00380213 -0.00718540 -0.00037602
v 0.00378225 -0.00714749 -0.00062475
v 0.00380575 -0.00697346 -0.00062475
v 0.00378767 0.00575165 -0.00061736
v 0.00377682 0.00474536 -0.00084393
v 0.00377682 0.00549146 -0.00084393
v 0.00377140 0.00567411 -0.00081438
v 0.00381298 0.00574131 -0.00037602
v 0.00532624 0.00376319 0.01083168
v 0.00527020 0.00389414 0.01109273
v 0.00376055 0.00587054 -0.00052871
v 0.00453074 0.00515890 0.01275997
v 0.00469165 0.00474191 0.01258512
v 0.00455425 0.00497625 0.01284124
v 0.00425774 0.00487287 0.01346430
v 0.00027299 0.00688890 0.02020468
v 0.00001807 0.00685960 0.02069476
v 0.00456690 0.00425083 0.01310721
v 0.00452532 0.00399236 0.01324758
v 0.00502251 0.00075810 0.01224527
v 0.00452532 0.00374423 0.01325497
v 0.00501528 0.00055133 0.01222803
v 0.00500443 0.00038246 0.01221325
v 0.00475493 0.00025668 0.01257527
v 0.00477301 0.00005852 0.01248907
v 0.00482182 -0.00024130 0.01231176
v 0.00380394 -0.00718712 -0.00012483
v 0.00479109 -0.00048943 0.01226743
v 0.00476578 -0.00063589 0.01223295
v 0.00377321 -0.00713543 0.00080115
v 0.00370631 -0.00728534 0.00062629
v 0.00370812 -0.00728706 0.00057704
v 0.00371897 -0.00731463 -0.00012483
v 0.00371173 -0.00729568 0.00037264
v 0.00371716 -0.00730946 -0.00037602
v 0.00370089 -0.00727328 -0.00062475
v 0.00349840 -0.00734393 -0.00123057
v 0.00355987 -0.00719229 -0.00137095
v 0.00376055 -0.00711131 -0.00076759
v 0.00360687 -0.00697346 -0.00137095
v 0.00370631 0.00399753 -0.00112468
v 0.00374970 0.00424738 -0.00096460
v 0.00374970 0.00474536 -0.00096953
v 0.00374609 0.00584125 -0.00069371
v 0.00374970 0.00524333 -0.00096953
v 0.00361591 0.00574131 -0.00137587
v 0.00355444 0.00600150 -0.00137341
v 0.00361230 0.00599116 -0.00112468
v 0.00527201 0.00389759 0.01091049
v 0.00454159 0.00517096 0.01258512
v 0.00376417 0.00587571 -0.00037602
v 0.00351648 0.00612556 -0.00128968
v 0.00352732 0.00613590 -0.00112468
v 0.00432825 0.00546044 0.01283631
v 0.00400824 0.00586365 0.01321064
v 0.00351467 0.00637541 0.01396669
v 0.00425774 0.00536912 0.01321064
v 0.00231237 0.00623239 0.01658453
v 0.00254018 0.00599116 0.01625945
v 0.00004338 0.00723868 0.02049528
v -0.00000001 0.00698883 0.02066767
v -0.00018985 0.00673726 0.02097550
v -0.00004883 0.00676139 0.02080558
v -0.00003075 0.00648914 0.02086468
v 0.00003253 0.00669418 0.02071446
v 0.00451266 0.00417329 0.01322542
v 0.00426136 0.00392861 0.01372042
v 0.00426859 0.00374596 0.01373273
v 0.00434995 0.00374596 0.01358497
v 0.00446566 0.00374596 0.01337318
v 0.00052249 0.00616519 0.01995349
v 0.00045921 0.00599116 0.02009386
v 0.00482182 0.00079256 0.01257280
v 0.00435899 0.00349611 0.01358497
v 0.00435718 0.00324453 0.01358497
v 0.00427401 0.00324453 0.01374258
v 0.00427040 0.00299641 0.01373273
v 0.00426316 0.00274484 0.01372288
v 0.00425774 0.00258976 0.01371303
v 0.00428124 0.00125435 0.01350370
v 0.00481640 0.00074776 0.01257527
v 0.00007773 0.00349783 0.02053714
v 0.00053695 0.00299641 0.01972692
v 0.00033446 0.00299641 0.02004707
v 0.00480555 0.00046345 0.01254079
v 0.00052791 0.00279997 0.01970475
v 0.00031819 0.00274484 0.02001505
v 0.00077561 0.00233129 0.01920975
v 0.00151506 0.00186261 0.01795132
v 0.00177541 0.00156451 0.01746617
v 0.00401366 0.00035145 0.01372042
v 0.00275171 -0.00382880 0.01419818
v 0.00304098 -0.00367372 0.01375736
v 0.00326155 -0.00338596 0.01347169
v 0.00329410 -0.00342904 0.01333624
v 0.00369185 -0.00722159 0.00087995
v 0.00323263 -0.00355138 0.01333624
v 0.00308256 -0.00371852 0.01358497
v 0.00299759 -0.00384431 0.01358497
v 0.00358156 -0.00739217 0.00062629
v 0.00352913 -0.00736460 0.00105727
v 0.00355987 -0.00738183 0.00087503
v 0.00359603 -0.00739217 -0.00012483
v 0.00359241 -0.00739217 -0.00037602
v 0.00357614 -0.00738873 -0.00062475
v 0.00354902 -0.00737839 -0.00087348
v 0.00352552 -0.00736116 -0.00106311
v 0.00335014 -0.00739217 -0.00137095
v 0.00329771 -0.00736977 -0.00162214
v 0.00347670 -0.00731636 -0.00137095
v 0.00353094 -0.00714405 -0.00153841
v 0.00354179 -0.00697346 -0.00156058
v 0.00358156 -0.00562082 -0.00145222
v 0.00370631 0.00499348 -0.00112468
v 0.00361591 0.00499348 -0.00137587
v 0.00370450 0.00524333 -0.00112468
v 0.00353998 0.00574131 -0.00156796
v 0.00352913 0.00592568 -0.00154580
v 0.00349659 0.00609282 -0.00145468
v 0.00445119 0.00529503 0.01258512
v 0.00353636 0.00613762 -0.00087595
v 0.00400824 0.00586365 0.01319833
v 0.00325974 0.00636507 -0.00174774
v 0.00320731 0.00679757 0.01407997
v 0.00307352 0.00694231 0.01432870
v 0.00330494 0.00667178 0.01407997
v 0.00327602 0.00664938 0.01424251
v 0.00278606 0.00698883 0.01501333
v 0.00251125 0.00686822 0.01571027
v 0.00401909 0.00565171 0.01349139
v 0.00026214 0.00785556 0.01968998
v 0.00029288 0.00769014 0.01974662
v 0.00052791 0.00739721 0.01946834
v 0.00002530 0.00739032 0.02045587
v -0.00005606 0.00723868 0.02061841
v -0.00021877 0.00687683 0.02095087
v -0.00023143 0.00611695 0.02118976
v -0.00015911 0.00648914 0.02101737
v -0.00001809 0.00623929 0.02088931
v 0.00004338 0.00648914 0.02073908
v -0.00021877 0.00599116 0.02120207
v 0.00427401 0.00349611 0.01374012
v 0.00053876 0.00574131 0.01998550
v 0.00005604 0.00623929 0.02076125
v 0.00026757 0.00587054 0.02044110
v 0.00006869 0.00574131 0.02078095
v 0.00053876 0.00499348 0.01998550
v 0.00046283 0.00499348 0.02011110
v 0.00005965 0.00499348 0.02076125
v -0.00002532 0.00430941 0.02080804
v -0.00004883 0.00424566 0.02083513
v -0.00023143 0.00486080 0.02119222
v -0.00017538 0.00424566 0.02100998
v -0.00001447 0.00349783 0.02066028
v 0.00006508 0.00324453 0.02050513
v 0.00029288 0.00249671 0.01997319
v 0.00053695 0.00204353 0.01947080
v 0.00255283 -0.00372886 0.01451833
v 0.00252390 -0.00386843 0.01447400
v 0.00280052 -0.00389428 0.01403072
v 0.00051888 0.00187811 0.01943878
v 0.00284753 -0.00391668 0.01383124
v 0.00338269 -0.00741113 0.00087503
v 0.00338269 -0.00741630 -0.00087348
v 0.00313319 -0.00741802 0.00162122
v 0.00327421 -0.00735943 0.00177144
v 0.00330314 -0.00737839 0.00162122
v 0.00334291 -0.00739045 0.00137495
v 0.00313319 -0.00740596 -0.00162214
v 0.00289454 -0.00739562 -0.00212699
v 0.00312957 -0.00738011 -0.00184871
v 0.00304279 -0.00736977 -0.00205065
v 0.00326155 -0.00735082 -0.00175020
v 0.00319466 -0.00726811 -0.00195461
v 0.00326336 -0.00711303 -0.00200632
v 0.00338811 0.00524333 -0.00186349
v 0.00326878 -0.00697346 -0.00201125
v 0.00328686 0.00424738 -0.00204573
v 0.00328867 0.00599116 -0.00205065
v 0.00328144 0.00615485 -0.00203095
v 0.00330133 0.00623239 -0.00186349
v 0.00151687 0.00861372 0.01566348
v 0.00176998 0.00836732 0.01540490
v 0.00201225 0.00811402 0.01519311
v 0.00273363 0.00733001 0.01457743
v 0.00297409 0.00706637 0.01432870
v 0.00323443 0.00632199 -0.00191520
v 0.00317296 0.00636507 -0.00199401
v 0.00307172 0.00643400 -0.00212207
v 0.00276798 0.00662526 -0.00251364
v 0.00279510 0.00663905 -0.00237080
v 0.00294335 0.00655806 -0.00212207
v 0.00281679 0.00664766 -0.00212207
v 0.00112093 0.00893077 0.01607721
v 0.00124568 0.00883945 0.01607721
v 0.00283307 0.00720422 0.01457743
v 0.00271555 0.00728176 0.01482863
v 0.00304098 0.00691302 0.01451587
v 0.00275894 0.00711290 0.01495669
v 0.00023683 0.00828461 0.01937475
v 0.00027118 0.00811919 0.01945356
v 0.00023864 0.00798479 0.01963580
v 0.00015005 0.00798479 0.01981804
v 0.00001445 0.00785728 0.02018990
v 0.00004338 0.00769186 0.02024655
v 0.00006688 0.00747992 0.02032535
v -0.00001447 0.00755574 0.02041155
v -0.00018081 0.00723868 0.02073170
v -0.00022420 0.00736964 0.02069722
v -0.00035618 0.00690785 0.02095580
v -0.00035618 0.00673726 0.02102722
v -0.00047370 0.00636852 0.02119222
v -0.00030917 0.00628236 0.02116759
v -0.00035618 0.00599116 0.02124640
v -0.00001086 0.00599116 0.02090162
v 0.00006508 0.00599116 0.02077602
v -0.00020612 0.00574131 0.02121438
v -0.00035618 0.00571891 0.02127595
v 0.00034350 0.00574131 0.02031796
v -0.00011934 0.00571891 0.02108140
v 0.00006869 0.00549146 0.02077602
v 0.00006508 0.00524333 0.02076864
v -0.00020973 0.00524333 0.02120946
v -0.00002713 0.00474363 0.02086714
v -0.00022239 0.00499348 0.02119961
v -0.00035618 0.00524333 0.02127349
v -0.00035618 0.00499348 0.02124886
v -0.00043754 0.00454203 0.02120207
v -0.00026940 0.00469366 0.02117498
v -0.00021877 0.00384590 0.02095334
v -0.00019708 0.00399581 0.02097304
v 0.00004338 0.00305499 0.02047065
v 0.00027480 0.00236575 0.01994610
v 0.00228706 -0.00342732 0.01499116
v 0.00221294 -0.00359101 0.01494437
v 0.00238288 -0.00389083 0.01452325
v 0.00238288 -0.00396492 0.01433116
v 0.00257814 -0.00390117 0.01433116
v 0.00265227 -0.00394080 0.01409967
v 0.00174106 -0.00733186 0.00419473
v 0.00163620 -0.00743525 0.00336234
v 0.00088951 -0.00742147 -0.00336819
v 0.00263419 -0.00740768 -0.00237080
v 0.00313138 -0.00738700 0.00186256
v 0.00164885 -0.00738873 0.00411100
v 0.00138670 -0.00743525 0.00411100
v 0.00157292 -0.00737494 0.00429570
v 0.00280595 -0.00736977 -0.00237080
v 0.00275894 -0.00734910 -0.00249640
v 0.00298493 -0.00732670 -0.00221565
v 0.00304641 -0.00716128 -0.00230677
v 0.00298493 -0.00697346 -0.00246192
v 0.00306449 -0.00697346 -0.00233878
v 0.00320912 0.00424738 -0.00217132
v 0.00321093 0.00480566 -0.00217132
v 0.00321093 0.00599116 -0.00217132
v 0.00298493 0.00623929 -0.00245946
v 0.00306449 0.00623929 -0.00233632
v 0.00303375 0.00640126 -0.00229692
v 0.00151687 0.00861372 0.01575706
v 0.00176998 0.00836732 0.01557975
v 0.00201225 0.00811402 0.01524728
v 0.00225090 0.00785039 0.01507982
v 0.00200683 0.00810713 0.01541229
v 0.00255826 0.00667178 -0.00280916
v 0.00226356 0.00686649 -0.00299879
v 0.00230333 0.00688717 -0.00287073
v 0.00246605 0.00683203 -0.00261953
v 0.00079007 0.00912376 0.01632594
v 0.00091482 0.00905656 0.01632594
v 0.00079911 0.00912893 0.01657714
v 0.00110104 0.00893077 0.01632594
v 0.00234311 0.00690440 -0.00261953
v 0.00150964 0.00860338 0.01592206
v 0.00122579 0.00880326 0.01632594
v 0.00176094 0.00835870 0.01570534
v 0.00276798 0.00713358 0.01490743
v 0.00077922 0.00863612 0.01773706
v 0.00054419 0.00866369 0.01826654
v 0.00151687 0.00786934 0.01695885
v 0.00027480 0.00862234 0.01896348
v 0.00002530 0.00811574 0.01994856
v 0.00005242 0.00798479 0.02001013
v -0.00015188 0.00791069 0.02023916
v -0.00018261 0.00764878 0.02047065
v -0.00035618 0.00765740 0.02047804
v -0.00035618 0.00749370 0.02060364
v -0.00035618 0.00736964 0.02069722
v -0.00035618 0.00702157 0.02089423
v -0.00051166 0.00689406 0.02095826
v -0.00048454 0.00636852 0.02119222
v -0.00056409 0.00599116 0.02123408
v -0.00051166 0.00624101 0.02120700
v -0.00035618 0.00549146 0.02128334
v -0.00020612 0.00549146 0.02121438
v -0.00060387 0.00549318 0.02126610
v -0.00060387 0.00524506 0.02126364
v -0.00050986 0.00454203 0.02120207
v -0.00035618 0.00399581 0.02103461
v -0.00035618 0.00424566 0.02110602
v -0.00035437 0.00447483 0.02116020
v -0.00035618 0.00380627 0.02096811
v -0.00017900 0.00331690 0.02071938
v -0.00001447 0.00289130 0.02043125
v 0.00004700 0.00259837 0.02020714
v 0.00014463 0.00220206 0.01988453
v 0.00204660 -0.00361169 0.01495915
v 0.00212977 -0.00368923 0.01484833
v 0.00213519 -0.00388566 0.01453803
v 0.00213519 -0.00382880 0.01465378
v 0.00039051 -0.00736633 0.00503205
v 0.00058035 -0.00735943 0.00501481
v 0.00088951 -0.00738356 0.00482272
v 0.00106307 -0.00736460 0.00476854
v 0.00131980 -0.00737494 0.00454197
v -0.00118603 -0.00743697 0.00352981
v -0.00135417 -0.00743697 0.00336234
v -0.00359785 -0.00743525 0.00112129
v -0.00085879 -0.00741457 -0.00336819
v -0.00011030 -0.00739217 -0.00359722
v 0.00014282 -0.00739217 -0.00358737
v 0.00064001 -0.00739217 -0.00356274
v 0.00088951 -0.00738700 -0.00355043
v 0.00138670 -0.00739045 -0.00333125
v 0.00163620 -0.00740423 -0.00311946
v 0.00214423 -0.00739734 -0.00287811
v 0.00263419 -0.00736977 -0.00254811
v 0.00139574 -0.00739734 0.00437205
v 0.00113901 -0.00743353 0.00435973
v -0.00060929 -0.00743525 0.00411593
v 0.00257091 -0.00717162 -0.00279685
v 0.00280956 -0.00722331 -0.00254319
v 0.00293793 -0.00723537 -0.00238065
v 0.00206830 -0.00737494 -0.00304311
v 0.00223644 -0.00732497 -0.00296923
v 0.00230876 -0.00715955 -0.00303573
v 0.00286019 -0.00697346 -0.00259244
v 0.00274267 0.00623929 -0.00272789
v 0.00298674 0.00599116 -0.00247177
v 0.00308437 0.00599116 -0.00234617
v 0.00285838 0.00623929 -0.00260476
v 0.00259803 0.00648914 -0.00284364
v 0.00272278 0.00648914 -0.00268849
v 0.00281499 0.00648914 -0.00256289
v 0.00248594 0.00648914 -0.00296923
v 0.00231418 0.00673899 -0.00303573
v 0.00202491 0.00687511 -0.00325491
v 0.00177360 0.00711979 -0.00325491
v 0.00180253 0.00713013 -0.00311946
v 0.00064001 0.00919441 0.01657714
v 0.00079730 0.00912893 0.01651803
v 0.00163800 0.00719905 -0.00311946
v 0.00106850 0.00737826 -0.00336819
v 0.00064001 0.00918751 0.01682587
v 0.00077922 0.00911687 0.01682587
v 0.00076657 0.00910825 0.01695393
v 0.00073402 0.00907379 0.01712139
v 0.00050803 0.00909963 0.01768288
v 0.00102330 0.00887563 0.01672982
v 0.00079369 0.00890665 0.01727900
v 0.00053334 0.00888597 0.01799072
v 0.00026034 0.00885151 0.01869013
v 0.00006869 0.00841901 0.01952251
v 0.00000903 0.00835353 0.01968752
v -0.00010668 0.00815193 0.01998796
v -0.00035618 0.00804165 0.02012341
v -0.00035618 0.00791759 0.02024655
v -0.00035618 0.00778319 0.02037461
v -0.00048454 0.00736619 0.02069476
v -0.00060025 0.00672003 0.02098535
v -0.00995646 0.00786245 0.01495669
v -0.00972142 0.00762811 0.01521527
v -0.00098354 0.00686649 0.02069722
v -0.00073947 0.00662526 0.02094841
v -0.00078286 0.00648914 0.02097304
v -0.00246607 0.00659080 0.01993871
v -0.00063641 0.00624101 0.02113804
v -0.00062556 0.00573097 0.02124147
v -0.00101247 0.00599116 0.02096319
v -0.00071958 0.00580851 0.02117744
v -0.00074670 0.00549318 0.02119961
v -0.00074670 0.00524506 0.02119961
v -0.00061833 0.00500554 0.02122916
v -0.00054963 0.00474363 0.02121684
v -0.00073766 0.00509687 0.02119468
v -0.00059845 0.00447483 0.02114789
v -0.00060387 0.00424566 0.02108879
v -0.00052613 0.00381316 0.02096811
v -0.00035618 0.00349783 0.02082774
v -0.00035618 0.00337204 0.02076371
v -0.00035618 0.00330829 0.02072923
v -0.00018081 0.00285167 0.02045341
v 0.00029288 0.00136980 0.01919990
v 0.00200140 -0.00361169 0.01495915
v -0.00104501 -0.00487644 0.01051153
v -0.00102151 -0.00511768 0.00999190
v -0.00081359 -0.00537097 0.00950675
v -0.00001628 -0.00735426 0.00500496
v 0.00014101 -0.00736288 0.00502466
v 0.00190558 -0.00365649 0.01482370
v -0.00105044 -0.00462659 0.01101146
v 0.00014101 -0.00740596 0.00486212
v 0.00039051 -0.00740940 0.00486212
v 0.00058035 -0.00739390 0.00488182
v 0.00065809 -0.00738873 0.00488182
v 0.00114262 -0.00739217 0.00462078
v 0.00088951 -0.00742663 0.00461093
v -0.00359785 -0.00743353 0.00161876
v -0.00342248 -0.00743525 0.00161876
v -0.00359785 -0.00743525 0.00137003
v -0.00384554 -0.00741974 0.00137003
v -0.00334655 -0.00741802 -0.00112468
v -0.00210086 -0.00741285 -0.00287073
v -0.00110467 -0.00741285 -0.00336819
v -0.00035979 -0.00739217 -0.00358491
v -0.00011030 -0.00733359 -0.00372528
v 0.00014282 -0.00732153 -0.00371297
v 0.00064001 -0.00727673 -0.00368834
v 0.00088951 -0.00724571 -0.00367603
v 0.00108657 -0.00736977 -0.00352334
v 0.00163620 -0.00737150 -0.00327953
v 0.00187304 -0.00738528 -0.00312192
v 0.00233226 -0.00737494 -0.00280423
v -0.00035979 -0.00743008 0.00436466
v -0.00085879 -0.00741457 0.00411593
v -0.00143553 -0.00742663 0.00352981
v -0.00291806 -0.00742663 0.00229846
v 0.00272640 -0.00697346 -0.00271558
v 0.00177722 -0.00735426 -0.00324998
v 0.00194174 -0.00730774 -0.00320811
v 0.00213881 -0.00723365 -0.00311946
v 0.00204299 -0.00714232 -0.00326722
v 0.00218401 -0.00697346 -0.00318102
v 0.00248775 0.00399753 -0.00297662
v 0.00248775 0.00499521 -0.00297662
v 0.00248775 0.00623929 -0.00297170
v 0.00236300 0.00648914 -0.00307513
v 0.00204841 0.00673899 -0.00326968
v 0.00157111 0.00693886 -0.00352088
v 0.00150964 0.00710601 -0.00348886
v 0.00134331 0.00716631 -0.00354304
v 0.00104138 0.00737136 -0.00350856
v 0.00039051 0.00925127 0.01657714
v 0.00039051 0.00925816 0.01682587
v 0.00088951 0.00742650 -0.00336819
v 0.00039051 0.00924610 0.01707460
v 0.00039051 0.00922197 0.01732579
v 0.00064724 0.00915822 0.01705244
v 0.00057131 0.00914616 0.01732579
v 0.00053695 0.00912548 0.01751542
v 0.00040859 0.00917373 0.01758930
v 0.00034169 0.00914788 0.01782326
v 0.00032723 0.00914099 0.01787251
v 0.00029107 0.00912204 0.01799072
v 0.00016090 0.00894111 0.01859901
v 0.00009400 0.00889976 0.01877386
v 0.00005784 0.00863957 0.01924177
v 0.00023141 0.00909102 0.01815572
v -0.00015730 0.00839144 0.01973677
v -0.00008679 0.00828978 0.01981804
v -0.00006148 0.00858615 0.01941169
v -0.00035618 0.00816054 0.01999781
v -0.00052974 0.00788657 0.02021946
v -0.00051709 0.00763500 0.02046080
v -0.00068523 0.00757814 0.02041647
v -0.00147892 0.00761432 0.01994610
v -0.01227969 0.00842073 0.01325497
v -0.01244602 0.00836042 0.01320571
v -0.01144260 0.00810368 0.01395437
v -0.01191990 0.00808128 0.01369333
v -0.01212963 0.00771081 0.01376721
v -0.00948096 0.00739549 0.01546893
v -0.01193075 0.00757814 0.01394698
v -0.01240444 0.00753161 0.01368348
v -0.01248760 0.00723524 0.01373027
v -0.01219110 0.00708705 0.01395191
v -0.01145164 0.00686305 0.01445676
v -0.00073585 0.00564137 0.02119468
v -0.00087145 0.00549318 0.02112326
v -0.01194883 0.00635990 0.01420557
v -0.01271721 0.00623929 0.01372042
v -0.01270998 0.00598771 0.01371549
v -0.00098897 0.00458511 0.02094841
v -0.00087326 0.00450068 0.02100505
v -0.01270456 0.00584297 0.01370810
v -0.01145887 0.00559140 0.01446169
v -0.00074489 0.00430941 0.02103461
v -0.00080275 0.00424221 0.02098535
v -0.00075574 0.00408713 0.02095826
v -0.00060749 0.00400098 0.02100013
v -0.00060749 0.00373562 0.02087946
v -0.00060025 0.00350472 0.02075878
v -0.00051709 0.00333931 0.02071446
v -0.00025674 0.00285167 0.02045341
v 0.00025310 0.00136980 0.01919990
v 0.00169947 -0.00339975 0.01499609
v 0.00183507 -0.00356689 0.01490005
v -0.00151508 -0.00337735 0.01272795
v 0.00172117 -0.00362547 0.01473505
v 0.00025491 0.00111995 0.01895363
v -0.00121858 -0.00459558 0.01095482
v -0.00135598 -0.00463521 0.01077504
v -0.00135598 -0.00488161 0.01027019
v -0.00175554 -0.00486611 0.00998452
v -0.00229251 -0.00487989 0.00951661
v -0.00110467 -0.00515386 0.00983922
v -0.00097993 -0.00534857 0.00946243
v -0.00073585 -0.00610157 0.00772869
v -0.00030375 -0.00736805 0.00479070
v -0.00012114 -0.00738011 0.00486212
v -0.00010306 -0.00738011 0.00487197
v -0.00025493 -0.00710441 0.00549503
v -0.00129270 -0.00363926 0.01250139
v -0.00123666 -0.00385981 0.01220833
v -0.00128728 -0.00413379 0.01175026
v -0.00118603 -0.00440948 0.01132176
v -0.00011030 -0.00738183 0.00486212
v -0.00037607 -0.00739217 0.00463309
v -0.00384554 -0.00740768 0.00161876
v -0.00401007 -0.00737666 0.00137003
v -0.00353277 -0.00738873 -0.00087348
v -0.00351288 -0.00737494 -0.00112468
v -0.00335378 -0.00738873 -0.00136602
v -0.00310428 -0.00738873 -0.00186102
v -0.00284755 -0.00740768 -0.00212207
v -0.00257636 -0.00736805 -0.00259737
v -0.00232686 -0.00736805 -0.00284610
v -0.00210086 -0.00737150 -0.00303326
v -0.00183509 -0.00738700 -0.00312192
v -0.00134513 -0.00738873 -0.00337558
v -0.00110467 -0.00737150 -0.00352334
v -0.00085879 -0.00738528 -0.00354550
v -0.00060929 -0.00739217 -0.00356520
v -0.00035979 -0.00731808 -0.00371050
v -0.00035979 -0.00719229 -0.00379177
v -0.00011030 -0.00720780 -0.00380409
v -0.00002894 -0.00720436 -0.00380162
v 0.00014282 -0.00719746 -0.00379424
v 0.00039051 -0.00717506 -0.00378192
v 0.00064001 -0.00715266 -0.00376715
v 0.00088951 -0.00712165 -0.00375237
v 0.00101787 -0.00710097 -0.00374498
v 0.00113539 -0.00722331 -0.00361692
v 0.00125472 -0.00734393 -0.00348640
v -0.00060929 -0.00740768 0.00436466
v -0.00235036 -0.00741630 0.00286734
v -0.00259805 -0.00742147 0.00261861
v 0.00187304 -0.00722503 -0.00329431
v 0.00154037 -0.00712165 -0.00350610
v 0.00206107 -0.00697346 -0.00327707
v 0.00218762 0.00648914 -0.00319580
v 0.00206468 0.00648914 -0.00327461
v 0.00172479 0.00673899 -0.00346423
v 0.00160004 0.00673899 -0.00353565
v 0.00113901 0.00698711 -0.00368341
v 0.00123483 0.00699573 -0.00364401
v 0.00141020 0.00700951 -0.00357013
v 0.00112997 0.00724558 -0.00357998
v 0.00084250 0.00715942 -0.00376468
v 0.00091120 0.00724041 -0.00368588
v 0.00069786 0.00732656 -0.00371543
v 0.00052972 0.00736619 -0.00374744
v 0.00088951 0.00739376 -0.00354797
v 0.00064001 0.00747992 -0.00336819
v -0.00010668 0.00929951 0.01632594
v 0.00014282 0.00928573 0.01657714
v -0.00010668 0.00932019 0.01682587
v -0.00010668 0.00931158 0.01707460
v 0.00014282 0.00926678 0.01732579
v 0.00014282 0.00924954 0.01757453
v 0.00014282 0.00921164 0.01782326
v 0.00006508 0.00912548 0.01825423
v 0.00014643 0.00905828 0.01833057
v -0.00000724 0.00885495 0.01893886
v -0.00035618 0.00828288 0.01985744
v -0.00022781 0.00861027 0.01944617
v -0.00023685 0.00861027 0.01944617
v -0.00035618 0.00838799 0.01973184
v -0.00052070 0.00812953 0.01996334
v -0.00069608 0.00784177 0.02017513
v -0.00941768 0.00884289 0.01443706
v -0.00926220 0.00863957 0.01473751
v -0.01120395 0.00861200 0.01370810
v -0.00135237 0.00765395 0.01998304
v -0.01200126 0.00864301 0.01324019
v -0.01216759 0.00858615 0.01319094
v -0.01251834 0.00825876 0.01310721
v -0.01270094 0.00761777 0.01346183
v -0.01246952 0.00788829 0.01347415
v -0.01239540 0.00805544 0.01342736
v -0.01222906 0.00813814 0.01347661
v -0.01217121 0.00884634 0.01292989
v -0.01222002 0.00889286 0.01276489
v -0.01246771 0.00840006 0.01303825
v -0.01256354 0.00771598 0.01350616
v -0.01223630 0.00765568 0.01373027
v -0.01254907 0.00746441 0.01361452
v -0.01261054 0.00723524 0.01365392
v -0.01266478 0.00698711 0.01368594
v -0.01268829 0.00682342 0.01370072
v -0.01270817 0.00665628 0.01371303
v -0.01072122 0.00643744 0.01496654
v -0.00981001 0.00648741 0.01551818
v -0.01194883 0.00636680 0.01420557
v -0.01271721 0.00648741 0.01372042
v -0.01294863 0.00586020 0.01345937
v -0.00129632 0.00449551 0.02073416
v -0.01021319 0.00534155 0.01521034
v -0.00081902 0.00430769 0.02099274
v -0.01280038 0.00548974 0.01355049
v -0.01264309 0.00548974 0.01367609
v -0.00126016 0.00431286 0.02071199
v -0.00247511 0.00436972 0.01994363
v -0.00322903 0.00436283 0.01944863
v -0.01244783 0.00461785 0.01345691
v -0.00078467 0.00364774 0.02071692
v -0.00075393 0.00359432 0.02070707
v -0.01071580 0.00435421 0.01446415
v -0.00069788 0.00314287 0.02041893
v -0.00053336 0.00308084 0.02047558
v -0.00042307 0.00291370 0.02040169
v -0.00972504 0.00409919 0.01496654
v -0.01046811 0.00410609 0.01446415
v -0.01120756 0.00411298 0.01396176
v -0.00273546 0.00335998 0.01920237
v -0.00143915 0.00314976 0.01991655
v -0.00034352 0.00275345 0.02031058
v -0.00026216 0.00260182 0.02021207
v -0.00210267 -0.00215739 0.01375489
v 0.00050803 -0.00336011 0.01421295
v 0.00047548 -0.00014136 0.01772475
v -0.00789176 -0.00232281 0.00942549
v -0.00738734 -0.00281389 0.00916690
v -0.00749944 -0.00287937 0.00899944
v -0.00223284 -0.00336356 0.01221571
v -0.00158740 -0.00452149 0.01081691
v -0.00131078 -0.00438881 0.01127250
v -0.00149158 -0.00460936 0.01072086
v -0.00608742 -0.00438708 0.00754645
v -0.00496648 -0.00460419 0.00797742
v -0.00327604 -0.00511768 0.00815227
v -0.00110648 -0.00537787 0.00928265
v -0.00102151 -0.00561393 0.00874825
v -0.00551429 -0.00511940 0.00627324
v -0.00073585 -0.00734910 0.00449272
v -0.00052974 -0.00711303 0.00527585
v -0.00328869 -0.00736805 0.00229846
v -0.00109202 -0.00737494 0.00410854
v -0.00722282 -0.00336873 0.00848720
v -0.00688834 -0.00357723 0.00842071
v -0.00173204 -0.00410794 0.01146213
v -0.00195803 -0.00739562 0.00329585
v -0.00399922 -0.00736460 0.00161876
v -0.00362136 -0.00739734 0.00189212
v -0.00384554 -0.00736805 0.00180346
v -0.00396668 -0.00734910 0.00174682
v -0.00412397 -0.00729223 0.00161876
v -0.00429573 -0.00716645 0.00161876
v -0.00427222 -0.00715266 0.00141682
v -0.00348938 -0.00735943 -0.00127737
v -0.00327061 -0.00737666 -0.00162214
v -0.00301388 -0.00736977 -0.00212207
v -0.00282405 -0.00736633 -0.00234617
v -0.00297592 -0.00734910 -0.00225013
v -0.00272642 -0.00735082 -0.00250132
v -0.00247873 -0.00735082 -0.00275005
v -0.00222742 -0.00735082 -0.00299879
v -0.00174469 -0.00735599 -0.00325244
v -0.00160367 -0.00737494 -0.00328938
v -0.00125654 -0.00735771 -0.00350364
v -0.00060929 -0.00727673 -0.00369080
v -0.00035979 -0.00697346 -0.00384103
v -0.00011030 -0.00697346 -0.00386812
v -0.00060929 -0.00715266 -0.00376961
v 0.00014282 -0.00697346 -0.00384841
v 0.00064001 -0.00697346 -0.00379177
v 0.00088951 -0.00697346 -0.00376222
v 0.00039051 0.00549146 -0.00386073
v 0.00101968 -0.00697346 -0.00374498
v 0.00155303 -0.00697346 -0.00351103
v -0.00336101 -0.00739217 0.00213592
v 0.00206107 -0.00572766 -0.00327707
v 0.00158557 0.00424738 -0.00353565
v 0.00138850 0.00499521 -0.00361692
v 0.00138850 0.00673899 -0.00360953
v 0.00100341 0.00698711 -0.00373267
v 0.00039051 0.00738859 -0.00376715
v 0.00087685 0.00698711 -0.00377453
v 0.00064001 0.00698711 -0.00382379
v 0.00039051 0.00723696 -0.00382625
v 0.00062554 0.00741272 -0.00362677
v 0.00039051 0.00746613 -0.00361938
v 0.00014101 0.00750577 -0.00361938
v -0.00042127 0.00761432 -0.00350117
v -0.00733853 0.00989915 0.01184138
v -0.00010668 0.00931502 0.01657714
v -0.00758622 0.00992845 0.01184138
v -0.00035618 0.00933742 0.01682587
v -0.00758622 0.00993706 0.01209012
v -0.01032709 0.01016451 0.01059280
v -0.00758622 0.00993706 0.01233639
v -0.00035618 0.00932881 0.01707460
v -0.00035618 0.00929951 0.01732579
v -0.00010668 0.00922714 0.01782326
v -0.00010668 0.00917717 0.01807199
v -0.00010668 0.00912893 0.01826408
v -0.00009764 0.00891009 0.01884281
v -0.00017538 0.00886357 0.01896102
v -0.00049178 0.00836215 0.01969983
v -0.00025855 0.00886357 0.01896102
v -0.00033267 0.00865335 0.01932057
v -0.00858421 0.00940462 0.01404057
v -0.00858421 0.00933398 0.01416863
v -0.00996369 0.00935810 0.01346430
v -0.01046449 0.00935982 0.01321557
v -0.00223646 0.00861372 0.01845371
v -0.00273546 0.00861372 0.01820498
v -0.00065811 0.00832769 0.01965550
v -0.00147531 0.00835870 0.01919251
v -0.01118587 0.00910136 0.01320079
v -0.01167583 0.00909446 0.01294713
v -0.01182589 0.00905828 0.01290773
v -0.01200488 0.00888769 0.01298900
v -0.01208623 0.00874295 0.01309243
v -0.01262501 0.00798479 0.01308504
v -0.01271179 0.00765568 0.01333377
v -0.01275518 0.00723524 0.01352833
v -0.01271902 0.00748337 0.01348646
v -0.01276060 0.00748337 0.01333377
v -0.01282207 0.00723524 0.01333377
v -0.01197956 0.00912893 0.01273534
v -0.01201753 0.00918062 0.01258512
v -0.01193617 0.00934431 0.01233639
v -0.01214228 0.00903243 0.01258512
v -0.01222545 0.00891182 0.01258512
v -0.01246771 0.00840006 0.01288064
v -0.01278049 0.00698711 0.01356280
v -0.01278230 0.00673726 0.01360467
v -0.01282569 0.00648741 0.01358251
v -0.01294863 0.00586710 0.01345937
v -0.01295406 0.00576199 0.01332639
v -0.01295044 0.00558623 0.01324266
v -0.01293778 0.00569306 0.01340519
v -0.01286547 0.00523989 0.01333377
v -0.01276241 0.00523989 0.01350863
v -0.00975216 0.00523989 0.01548370
v -0.01248037 0.00531053 0.01373027
v -0.01218567 0.00540186 0.01394945
v -0.00971780 0.00509515 0.01546154
v -0.01047353 0.00508825 0.01496654
v -0.01267021 0.00490733 0.01344213
v -0.01258162 0.00471606 0.01341258
v -0.01272083 0.00457649 0.01323527
v -0.01257258 0.00449206 0.01329191
v -0.01220014 0.00436455 0.01345937
v -0.00071235 0.00288441 0.02018005
v -0.01248941 0.00433009 0.01323773
v -0.00246245 0.00312736 0.01918513
v -0.00356169 0.00326866 0.01854483
v -0.00347672 0.00336860 0.01869751
v -0.01239178 0.00416295 0.01317124
v -0.01222545 0.00409747 0.01323034
v -0.01239901 0.00390276 0.01292743
v -0.00099981 0.00285511 0.01995349
v -0.00042850 0.00265696 0.02015296
v -0.00246607 0.00287579 0.01893886
v -0.00721197 -0.00160944 0.01071840
v -0.00223284 -0.00211776 0.01370810
v -0.00803459 -0.00215567 0.00952399
v -0.00800024 -0.00238829 0.00926049
v -0.00759707 -0.00274152 0.00910534
v -0.00766577 -0.00283285 0.00892310
v -0.00744881 -0.00309648 0.00871131
v -0.00160548 -0.00439570 0.01103608
v -0.00287829 -0.00430610 0.01021847
v -0.00649782 -0.00412345 0.00775578
v -0.00622482 -0.00436124 0.00748981
v -0.00632064 -0.00439225 0.00734451
v -0.00603679 -0.00463004 0.00703914
v -0.00573125 -0.00486094 0.00674608
v -0.00582526 -0.00488851 0.00659832
v -0.00599160 -0.00486611 0.00651212
v -0.00559384 -0.00515386 0.00611317
v -0.00523044 -0.00560532 0.00524876
v -0.00385278 -0.00715438 0.00238219
v -0.00479653 -0.00587584 0.00491137
v -0.00355265 -0.00737150 0.00206204
v -0.00205747 -0.00737322 0.00330816
v -0.00751390 -0.00314300 0.00854631
v -0.00727706 -0.00340664 0.00834929
v -0.00716135 -0.00358067 0.00815227
v -0.00699140 -0.00362720 0.00825325
v -0.00681964 -0.00365649 0.00834190
v -0.00665873 -0.00383569 0.00815227
v -0.00639115 -0.00407692 0.00792324
v -0.00424330 -0.00711475 0.00204973
v -0.00371718 -0.00734393 0.00199309
v -0.00471698 -0.00634970 0.00374406
v -0.00547452 -0.00560532 0.00499757
v -0.00497552 -0.00635659 0.00329585
v -0.00427222 -0.00713888 0.00186995
v -0.00521598 -0.00609812 0.00372928
v -0.00523044 -0.00611191 0.00356675
v -0.00453619 -0.00692177 0.00186995
v -0.00451268 -0.00690109 0.00166309
v -0.00364125 -0.00720091 -0.00110251
v -0.00353638 -0.00722676 -0.00136602
v -0.00344056 -0.00731463 -0.00144483
v -0.00323626 -0.00735771 -0.00177237
v -0.00318745 -0.00730946 -0.00193737
v -0.00314044 -0.00722503 -0.00212453
v -0.00302111 -0.00722331 -0.00229938
v -0.00290360 -0.00722331 -0.00242744
v -0.00240641 -0.00722331 -0.00292737
v -0.00228347 -0.00722331 -0.00304065
v -0.00200866 -0.00713198 -0.00326229
v -0.00190922 -0.00730085 -0.00320811
v -0.00142107 -0.00730946 -0.00346177
v -0.00134513 -0.00722503 -0.00355043
v -0.00110467 -0.00722331 -0.00362185
v -0.00086060 -0.00721125 -0.00368095
v -0.00060749 0.00574131 -0.00382871
v -0.00078286 -0.00712165 -0.00375237
v -0.00080636 -0.00697346 -0.00375730
v -0.00035799 0.00698711 -0.00385580
v -0.00010849 0.00698711 -0.00387058
v 0.00014101 0.00698711 -0.00387550
v 0.00039051 0.00698711 -0.00386073
v 0.00101787 -0.00572766 -0.00374498
v 0.00101787 -0.00348590 -0.00374252
v 0.00014101 0.00741444 -0.00378931
v 0.00014101 0.00723696 -0.00385334
v -0.00010849 0.00753678 -0.00361938
v -0.00034352 0.00756435 -0.00359968
v -0.00060749 0.00761949 -0.00351103
v -0.01017341 0.01010937 0.00994758
v -0.00982809 0.01007836 0.01009287
v -0.01000346 0.01010076 0.01009287
v -0.00733853 0.00991294 0.01209012
v -0.01007759 0.01013694 0.01059280
v -0.00967441 0.01010937 0.01090802
v -0.00068523 0.00935982 0.01682587
v -0.01032709 0.01015073 0.01034407
v -0.01057659 0.01016623 0.01059280
v -0.01057659 0.01016107 0.01084399
v -0.01032709 0.01015417 0.01084399
v -0.00071958 0.00935638 0.01695393
v -0.00085337 0.00935638 0.01695393
v -0.00099077 0.00935638 0.01695147
v -0.00113360 0.00935638 0.01694408
v -0.00783752 0.00986814 0.01300377
v -0.00808341 0.00986125 0.01297915
v -0.00917722 0.00984918 0.01270333
v -0.00049178 0.00910997 0.01820005
v -0.00034714 0.00890148 0.01883296
v -0.01161978 0.00932708 0.01267131
v -0.01115694 0.00984918 0.01194728
v -0.00947915 0.00961312 0.01322049
v -0.01150949 0.00962173 0.01224034
v -0.01158724 0.00955626 0.01232653
v -0.01155289 0.00940979 0.01258512
v -0.01182589 0.00916511 0.01278213
v -0.01271179 0.00766429 0.01315892
v -0.01244783 0.00835009 0.01271318
v -0.01286366 0.00698711 0.01333377
v -0.01273710 0.00748337 0.01311460
v -0.01184216 0.00929951 0.01258512
v -0.01176984 0.00938739 0.01250631
v -0.01181142 0.00943909 0.01233639
v -0.01202296 0.00922197 0.01233639
v -0.01167583 0.00960106 0.01216892
v -0.01170475 0.00961312 0.01200146
v -0.01170475 0.00961312 0.01192265
v -0.01221460 0.00889459 0.01243243
v -0.01289078 0.00673554 0.01333377
v -0.01291247 0.00648741 0.01333377
v -0.01295044 0.00591362 0.01333377
v -0.01295225 0.00592396 0.01320079
v -0.01295406 0.00573959 0.01319586
v -0.01292332 0.00549663 0.01332639
v -0.01295044 0.00558623 0.01320079
v -0.01286908 0.00499176 0.01308504
v -0.01283292 0.00474019 0.01308504
v -0.01275518 0.00474019 0.01327960
v -0.01272083 0.00507275 0.01347661
v -0.01275156 0.00449206 0.01308504
v -0.01271721 0.00431803 0.01300131
v -0.01265574 0.00441107 0.01316631
v -0.01250387 0.00406818 0.01300624
v -0.00348214 0.00311013 0.01845124
v -0.01199222 0.00366842 0.01298900
v -0.01248760 0.00381488 0.01276243
v -0.01240444 0.00364774 0.01266146
v -0.01231946 0.00374596 0.01283139
v -0.00319649 0.00288613 0.01842908
v -0.01195425 0.00361500 0.01296191
v -0.00787188 -0.00176969 0.01007071
v -0.00791707 -0.00208330 0.00968899
v -0.00810329 -0.00204194 0.00960034
v -0.00819912 -0.00210397 0.00945996
v -0.00826963 -0.00216256 0.00929496
v -0.00816657 -0.00232798 0.00915951
v -0.00784295 -0.00274152 0.00885907
v -0.00773628 -0.00287592 0.00875810
v -0.00674732 -0.00387532 0.00800698
v -0.00666235 -0.00408554 0.00768190
v -0.00648155 -0.00436813 0.00725586
v -0.00639115 -0.00432850 0.00742332
v -0.00604403 -0.00489540 0.00635697
v -0.00626279 -0.00463521 0.00680272
v -0.00745243 -0.00334805 0.00821138
v -0.00778148 -0.00291900 0.00860295
v -0.00735661 -0.00344455 0.00815227
v -0.00722463 -0.00361341 0.00799466
v -0.00706010 -0.00365304 0.00812519
v -0.00691546 -0.00383569 0.00792324
v -0.00574933 -0.00536925 0.00529802
v -0.00621036 -0.00485232 0.00622891
v -0.00624109 -0.00487817 0.00606145
v -0.00648878 -0.00463176 0.00635697
v -0.00615612 -0.00504359 0.00537436
v -0.00523406 -0.00611708 0.00336481
v -0.00649782 -0.00464555 0.00610824
v -0.00523406 -0.00611880 0.00329585
v -0.00546729 -0.00584827 0.00361600
v -0.00476218 -0.00665813 0.00212115
v -0.00474591 -0.00664262 0.00193645
v -0.00372260 -0.00710269 -0.00100647
v -0.00796951 -0.00213154 0.00471928
v -0.00350384 -0.00714060 -0.00154334
v -0.00350022 -0.00714922 -0.00154334
v -0.00349480 -0.00715783 -0.00154334
v -0.00324530 -0.00714232 -0.00204326
v -0.00306451 -0.00697346 -0.00235356
v -0.00295422 -0.00697346 -0.00247670
v -0.00245703 -0.00697346 -0.00297908
v -0.00233228 -0.00697346 -0.00308005
v -0.00215148 -0.00697346 -0.00320565
v -0.00154763 -0.00697346 -0.00353073
v -0.00152593 -0.00714232 -0.00351595
v -0.00060749 0.00698711 -0.00382871
v -0.00084433 0.00349955 -0.00377700
v -0.00084614 0.00374768 -0.00377700
v -0.00085698 0.00698711 -0.00377700
v -0.00110467 -0.00697346 -0.00368588
v -0.00093111 -0.00697346 -0.00373020
v -0.00135598 -0.00697346 -0.00361200
v -0.00035799 0.00723696 -0.00385334
v -0.00010849 0.00723696 -0.00386073
v -0.00010849 0.00742823 -0.00379670
v -0.00049539 0.00749370 -0.00370558
v -0.00049539 0.00755229 -0.00361938
v -0.00085698 0.00761949 -0.00351103
v -0.01021499 0.01010937 0.00994758
v -0.01012821 0.01011454 0.01009287
v -0.01048076 0.01011971 0.01017907
v -0.01056935 0.01013350 0.01035885
v -0.01074834 0.01013005 0.01059280
v -0.01083332 0.01013005 0.01085877
v -0.01095445 0.01010765 0.01098683
v -0.01082789 0.01011799 0.01102623
v -0.01057659 0.01012660 0.01107303
v -0.01027285 0.01010937 0.01123556
v -0.01007759 0.01010937 0.01124049
v -0.00783752 0.00989571 0.01283631
v -0.01057659 0.01010076 0.01119862
v -0.00982990 0.00995257 0.01209012
v -0.01007940 0.00993534 0.01209012
v -0.01057839 0.00995774 0.01184138
v -0.00973408 0.00986125 0.01247183
v -0.00123123 0.00910825 0.01795132
v -0.00085518 0.00908930 0.01813848
v -0.00176639 0.00911342 0.01771490
v -0.01107378 0.00989571 0.01185370
v -0.01132508 0.00987675 0.01177489
v -0.01132508 0.00983195 0.01189803
v -0.01132508 0.00974235 0.01209012
v -0.01276422 0.00723524 0.01309243
v -0.00818646 0.00673899 0.00476115
v -0.01169391 0.00958555 0.01175765
v -0.01145526 0.00985780 0.01172810
v -0.01145526 0.00985780 0.01171825
v -0.01145345 0.00985780 0.01169116
v -0.01143537 0.00983885 0.01152370
v -0.01171199 0.00942013 0.01169362
v -0.01272625 0.00449034 0.01266146
v -0.01279857 0.00474019 0.01283631
v -0.01277688 0.00449034 0.01283631
v -0.01269913 0.00411642 0.01270825
v -0.01269913 0.00411642 0.01271564
v -0.01272264 0.00423876 0.01281415
v -0.01267201 0.00415089 0.01288064
v -0.01246229 0.00359777 0.01249646
v -0.01223630 0.00359777 0.01273534
v -0.01227788 0.00366842 0.01278213
v -0.00847031 -0.00187308 0.00948213
v -0.00849562 -0.00164218 0.00975056
v -0.00820996 -0.00186446 0.00971855
v -0.00851189 -0.00191616 0.00934422
v -0.00843415 -0.00208847 0.00916198
v -0.00821900 -0.00237105 0.00899451
v -0.00800024 -0.00264847 0.00879504
v -0.00673467 -0.00412345 0.00751444
v -0.00653037 -0.00439398 0.00710563
v -0.00634234 -0.00466106 0.00659832
v -0.00748678 -0.00338424 0.00804145
v -0.00768023 -0.00308442 0.00840839
v -0.00790442 -0.00281217 0.00860295
v -0.00725355 -0.00364270 0.00785429
v -0.00724451 -0.00364960 0.00785429
v -0.00690823 -0.00407003 0.00735436
v -0.00707095 -0.00377538 0.00784198
v -0.00697874 -0.00387015 0.00775578
v -0.00647251 -0.00461281 0.00650966
v -0.00671840 -0.00436468 0.00676824
v -0.00650144 -0.00464899 0.00585705
v -0.00672563 -0.00437158 0.00660571
v -0.00696247 -0.00410794 0.00675839
v -0.00627725 -0.00490918 0.00537436
v -0.00593012 -0.00530033 0.00436219
v -0.00696247 -0.00410794 0.00669190
v -0.00626279 -0.00491608 0.00511085
v -0.00522321 -0.00611191 0.00286980
v -0.00521779 -0.00610329 0.00273436
v -0.00647071 -0.00436641 0.00370958
v -0.00771820 -0.00262263 0.00470697
v -0.00696970 -0.00361858 0.00397063
v -0.00748678 -0.00290349 0.00441637
v -0.00799482 -0.00217807 0.00486212
v -0.00822443 -0.00189375 0.00517981
v -0.00826240 -0.00174557 0.00510100
v -0.00822443 -0.00166975 0.00495570
v -0.00318745 -0.00697346 -0.00219102
v -0.00844681 -0.00135270 0.00523645
v -0.00845585 -0.00131307 0.00523645
v -0.00824793 -0.00148710 0.00492615
v -0.00297049 0.00349783 -0.00249147
v -0.00273726 0.00399753 -0.00275498
v -0.00319468 0.00349783 -0.00221072
v -0.00247330 0.00698883 -0.00298647
v -0.00238110 0.00705604 -0.00305297
v -0.00204481 0.00574476 -0.00328692
v -0.00185498 0.00495902 -0.00340020
v -0.00173565 0.00499348 -0.00345931
v -0.00157655 0.00698711 -0.00353073
v -0.00085698 0.00723696 -0.00377700
v -0.00060749 0.00723696 -0.00382625
v -0.00098897 0.00698711 -0.00374744
v -0.00060749 0.00741789 -0.00378438
v -0.00035799 0.00742995 -0.00379424
v -0.00100343 0.00761604 -0.00350117
v -0.00060749 0.00754195 -0.00363416
v -0.00171577 0.00760915 -0.00323274
v -0.00200504 0.00761949 -0.00300864
v -0.00244799 0.00760398 -0.00271311
v -0.01030720 0.00990432 0.00962004
v -0.01071218 0.01011282 0.01045489
v -0.01095445 0.01010765 0.01095482
v -0.01082789 0.01009386 0.01115429
v -0.01107558 0.00997669 0.01159019
v -0.01082789 0.00999565 0.01159019
v -0.01082789 0.00993362 0.01184138
v -0.00797493 0.00688028 0.00447055
v -0.00808883 0.00673726 0.00461339
v -0.00818646 0.00648914 0.00475130
v -0.01246952 0.00374423 0.01217631
v -0.01120576 0.00986469 0.01095482
v -0.01123649 0.00989226 0.01109273
v -0.01271360 0.00424049 0.01267870
v -0.01246048 0.00359432 0.01218862
v -0.01246591 0.00358399 0.01233639
v -0.01226884 0.00327727 0.01209012
v -0.00920796 -0.00111664 0.00947474
v -0.00897292 -0.00138027 0.00950183
v -0.00872704 -0.00163184 0.00949690
v -0.00846669 -0.00211948 0.00899698
v -0.00678167 -0.00415274 0.00735436
v -0.00665150 -0.00431988 0.00710563
v -0.00771458 -0.00311371 0.00824093
v -0.00750486 -0.00340492 0.00785429
v -0.00730237 -0.00364960 0.00765481
v -0.00726078 -0.00364960 0.00780750
v -0.00694801 -0.00409588 0.00710563
v -0.00669670 -0.00434228 0.00693571
v -0.00713965 -0.00380640 0.00760309
v -0.00732587 -0.00364960 0.00743071
v -0.00751028 -0.00341870 0.00760309
v -0.00732768 -0.00364960 0.00718936
v -0.00554503 -0.00571904 0.00336481
v -0.00639658 -0.00475927 0.00536205
v -0.00648517 -0.00463521 0.00537436
v -0.00695524 -0.00410449 0.00652444
v -0.00672744 -0.00437674 0.00610824
v -0.00554141 -0.00571387 0.00329585
v -0.00576741 -0.00542956 0.00361600
v -0.00563181 -0.00557775 0.00329585
v -0.00596628 -0.00510389 0.00348794
v -0.00648336 -0.00438364 0.00386473
v -0.00702756 -0.00365132 0.00439667
v -0.00721739 -0.00336528 0.00445578
v -0.00751028 -0.00293795 0.00461339
v -0.00801832 -0.00225216 0.00512317
v -0.00824974 -0.00192994 0.00536205
v -0.00847573 -0.00164218 0.00566742
v -0.00852274 -0.00150778 0.00559354
v -0.00874151 -0.00118556 0.00583242
v -0.00872162 -0.00114248 0.00570682
v -0.00817019 -0.00148710 0.00479809
v -0.00829494 -0.00118556 0.00494585
v -0.00827324 -0.00098913 0.00490399
v -0.00799482 0.00349438 0.00443608
v -0.00716496 0.00349094 0.00328354
v -0.00381662 0.00349955 -0.00135125
v -0.00873970 -0.00098913 0.00567727
v -0.00846669 -0.00118556 0.00522167
v -0.00307174 0.00495902 -0.00236587
v -0.00297049 0.00495902 -0.00249147
v -0.00285659 0.00449551 -0.00262199
v -0.00273726 0.00495902 -0.00275498
v -0.00329050 0.00698883 -0.00208513
v -0.00319468 0.00524333 -0.00221072
v -0.00247330 0.00723696 -0.00298647
v -0.00204481 0.00705604 -0.00328692
v -0.00185498 0.00723696 -0.00339035
v -0.00173746 0.00723696 -0.00345438
v -0.00169949 0.00723696 -0.00347408
v -0.00157655 0.00723696 -0.00353073
v -0.00098897 0.00723696 -0.00374744
v -0.00098897 0.00736619 -0.00374498
v -0.00085698 0.00738859 -0.00376222
v -0.00107936 0.00747992 -0.00360953
v -0.00135417 0.00743684 -0.00355043
v -0.00154220 0.00739549 -0.00351841
v -0.00185498 0.00744718 -0.00331894
v -0.00202312 0.00739721 -0.00326968
v -0.00185498 0.00757297 -0.00318102
v -0.00209725 0.00749026 -0.00311207
v -0.00230878 0.00741961 -0.00304558
v -0.00260348 0.00742133 -0.00280423
v -0.00273003 0.00736619 -0.00274759
v -0.00260167 0.00755057 -0.00262446
v -0.01045003 0.00985435 0.00971855
v -0.00278608 0.00741616 -0.00261707
v -0.01072303 0.00988709 0.01018399
v -0.01076461 0.00997325 0.01035885
v -0.01099242 0.00991466 0.01064944
v -0.01092010 0.01008008 0.01078982
v -0.00348214 0.00737136 -0.00175759
v -0.00328146 0.00723696 -0.00207774
v -0.00422883 0.00713530 -0.00076266
v -0.00798578 0.00673726 0.00445824
v -0.00798939 0.00648397 0.00445331
v -0.00875958 -0.00048943 0.00565018
v -0.00895846 -0.00034469 0.00598264
v -0.01121299 0.00224686 0.00994758
v -0.00799482 0.00523989 0.00443854
v -0.00799482 0.00499004 0.00443608
v -0.01120937 0.00209006 0.00995250
v -0.01220194 0.00335137 0.01171086
v -0.01097072 0.00157657 0.00967422
v -0.01099061 0.00149559 0.00986631
v -0.01095083 0.00137669 0.00996728
v -0.01218386 0.00317389 0.01184138
v -0.00972865 -0.00039810 0.00959295
v -0.00921338 -0.00112525 0.00934422
v -0.00878670 -0.00171283 0.00909795
v -0.00847754 -0.00213327 0.00884675
v -0.00772181 -0.00311888 0.00815227
v -0.00762780 -0.00325845 0.00785429
v -0.00740723 -0.00354276 0.00760309
v -0.00731141 -0.00364960 0.00760309
v -0.00727886 -0.00368233 0.00760309
v -0.00773085 -0.00313439 0.00785429
v -0.00750667 -0.00341698 0.00735436
v -0.00730960 -0.00364960 0.00692339
v -0.00647432 -0.00461798 0.00515764
v -0.00796227 -0.00236588 0.00521429
v -0.00998719 0.00008781 0.00884675
v -0.00773266 -0.00264503 0.00486212
v -0.00849201 -0.00166803 0.00586197
v -0.00871800 -0.00137855 0.00617473
v -0.01071038 0.00111478 0.00943780
v -0.00876862 -0.00125793 0.00609839
v -0.00875235 -0.00118556 0.00587182
v -0.01046630 0.00085632 0.00892310
v -0.00896931 -0.00088919 0.00619936
v -0.01021861 0.00059957 0.00842810
v -0.00847573 -0.00098913 0.00520936
v -0.00839618 -0.00098913 0.00508623
v -0.00847754 -0.00073928 0.00520936
v -0.00716496 0.00499004 0.00328354
v -0.00900547 -0.00047564 0.00609100
v -0.00875597 -0.00073928 0.00565264
v -0.00319287 0.00698883 -0.00220826
v -0.00306993 0.00705604 -0.00235849
v -0.00273546 0.00705604 -0.00275252
v -0.00273726 0.00673899 -0.00275252
v -0.00285659 0.00474536 -0.00262199
v -0.00652314 0.00623756 0.00240189
v -0.00423606 0.00698883 -0.00077005
v -0.00319106 0.00723696 -0.00220087
v -0.00204481 0.00723696 -0.00328446
v -0.00306631 0.00723696 -0.00235356
v -0.00325796 0.00739893 -0.00204573
v -0.00303558 0.00742133 -0.00231662
v -0.00895846 -0.00038259 0.00598264
v -0.01072484 0.00109410 0.00959295
v -0.01064710 0.00097004 0.00959295
v -0.01052054 0.00077533 0.00959295
v -0.01023307 0.00033938 0.00959295
v -0.00951531 -0.00069965 0.00934422
v -0.00900185 -0.00142679 0.00909795
v -0.00890965 -0.00155086 0.00909795
v -0.00848116 -0.00214188 0.00860295
v -0.00817019 -0.00255715 0.00835175
v -0.00804363 -0.00271223 0.00835175
v -0.00772543 -0.00313094 0.00760309
v -0.00926943 -0.00100463 0.00886892
v -0.00895665 -0.00111319 0.00673130
v -0.00972323 -0.00039293 0.00934422
v -0.00921158 -0.00112353 0.00909795
v -0.00878490 -0.00172489 0.00884675
v -0.00816657 -0.00254509 0.00810302
v -0.00826240 -0.00243136 0.00835175
v -0.00899281 -0.00141818 0.00884675
f 1 2 9
f 1 9 3
f 1 3 4
f 1 4 5
f 1 5 6
f 1 6 7
f 1 7 8
f 1 8 2
f 2 8 10
f 2 10 9
f 3 9 11
f 3 11 12
f 3 12 4
f 4 13 14
f 4 14 5
f 4 12 15
f 4 15 13
f 5 14 16
f 5 16 17
f 5 17 18
f 5 18 19
f 5 19 6
f 6 19 20
f 6 20 8
f 6 8 7
f 8 20 19
f 8 19 21
f 8 21 22
f 8 22 10
f 9 10 23
f 9 23 11
f 10 22 24
f 10 24 25
f 10 25 26
f 10 26 27
f 10 27 28
f 10 28 23
f 11 23 29
f 11 29 30
f 11 30 31
f 11 31 12
f 12 32 15
f 12 31 33
f 12 33 34
f 12 34 35
f 12 35 32
f 13 15 14
f 14 15 32
f 14 32 36
f 14 36 16
f 16 37 38
f 16 38 17
f 16 36 39
f 16 39 37
f 17 38 40
f 17 40 41
f 17 41 18
f 18 41 40
f 18 40 42
f 18 42 43
f 18 43 44
f 18 44 45
f 18 45 46
f 18 46 47
f 18 47 19
f 19 48 21
f 19 47 49
f 19 49 48
f 21 50 22
f 21 48 50
f 22 50 51
f 22 51 52
f 22 52 53
f 22 53 54
f 22 54 24
f 23 28 55
f 23 55 29
f 24 54 56
f 24 56 57
f 24 57 25
f 25 57 58
f 25 58 26
f 26 58 59
f 26 59 60
f 26 60 27
f 27 60 28
f 28 61 55
f 28 60 62
f 28 62 61
f 29 63 64
f 29 64 30
f 29 55 61
f 29 61 63
f 30 64 65
f 30 65 66
f 30 66 67
f 30 67 31
f 31 67 68
f 31 68 69
f 31 69 70
f 31 70 71
f 31 71 33
f 32 39 36
f 32 35 72
f 32 72 39
f 33 71 73
f 33 73 34
f 34 73 74
f 34 74 35
f 35 74 75
f 35 75 76
f 35 76 72
f 37 77 38
f 37 39 77
f 38 77 78
f 38 78 40
f 39 79 77
f 39 72 76
f 39 76 80
f 39 80 81
f 39 81 79
f 40 78 82
f 40 82 83
f 40 83 84
f 40 84 85
f 40 85 42
f 42 85 86
f 42 86 87
f 42 87 43
f 43 87 88
f 43 88 44
f 44 88 45
f 45 88 89
f 45 89 90
f 45 90 91
f 45 91 92
f 45 92 93
f 45 93 46
f 46 93 94
f 46 94 47
f 47 95 96
f 47 96 97
f 47 97 98
f 47 98 49
f 47 94 93
f 47 93 99
f 47 99 100
f 47 100 95
f 48 101 50
f 48 49 102
f 48 102 103
f 48 103 104
f 48 104 105
f 48 105 106
f 48 106 107
f 48 107 108
f 48 108 101
f 49 98 102
f 50 101 109
f 50 109 110
f 50 110 111
f 50 111 112
f 50 112 51
f 51 112 113
f 51 113 52
f 52 113 114
f 52 114 115
f 52 115 116
f 52 116 53
f 53 116 117
f 53 117 118
f 53 118 119
f 53 119 120
f 53 120 54
f 54 120 56
f 56 120 121
f 56 121 57
f 57 121 122
f 57 122 123
f 57 123 58
f 58 124 59
f 58 123 125
f 58 125 126
f 58 126 127
f 58 127 124
f 59 128 60
f 59 124 129
f 59 129 130
f 59 130 128
f 60 128 62
f 61 62 128
f 61 128 131
f 61 131 132
f 61 132 63
f 63 132 133
f 63 133 134
f 63 134 64
f 64 134 135
f 64 135 65
f 65 135 136
f 65 136 137
f 65 137 138
f 65 138 66
f 66 138 139
f 66 139 67
f 67 139 68
f 68 139 140
f 68 140 141
f 68 141 69
f 69 142 73
f 69 73 71
f 69 71 70
f 69 141 140
f 69 140 143
f 69 143 74
f 69 74 142
f 73 142 144
f 73 144 74
f 74 144 142
f 74 143 145
f 74 145 146
f 74 146 75
f 75 146 147
f 75 147 76
f 76 147 80
f 77 79 78
f 78 148 82
f 78 79 148
f 79 81 149
f 79 149 150
f 79 150 82
f 79 82 148
f 80 147 151
f 80 151 81
f 81 151 149
f 82 150 83
f 83 150 152
f 83 152 153
f 83 153 154
f 83 154 84
f 84 154 155
f 84 155 156
f 84 156 157
f 84 157 158
f 84 158 85
f 85 158 159
f 85 159 160
f 85 160 161
f 85 161 86
f 86 161 162
f 86 162 88
f 86 88 87
f 88 162 89
f 89 162 163
f 89 163 164
f 89 164 90
f 90 165 166
f 90 166 91
f 90 164 165
f 91 166 92
f 92 167 168
f 92 168 93
f 92 166 165
f 92 165 169
f 92 169 167
f 93 168 99
f 95 100 96
f 96 170 97
f 96 100 171
f 96 171 170
f 97 170 102
f 97 102 98
f 99 168 172
f 99 172 100
f 100 172 173
f 100 173 171
f 101 108 109
f 102 170 104
f 102 104 103
f 104 170 174
f 104 174 175
f 104 175 176
f 104 176 105
f 105 176 106
f 106 176 177
f 106 177 107
f 107 177 108
f 108 177 110
f 108 110 109
f 110 177 178
f 110 178 179
f 110 179 180
f 110 180 181
f 110 181 182
f 110 182 183
f 110 183 112
f 110 112 111
f 112 183 115
f 112 115 114
f 112 114 113
f 115 184 185
f 115 185 116
f 115 183 184
f 116 185 118
f 116 118 117
f 118 185 120
f 118 120 119
f 120 186 187
f 120 187 188
f 120 188 121
f 120 185 189
f 120 189 186
f 121 188 126
f 121 126 123
f 121 123 122
f 123 126 125
f 124 127 129
f 126 188 127
f 127 188 190
f 127 190 129
f 128 191 192
f 128 192 131
f 128 130 193
f 128 193 191
f 129 190 194
f 129 194 195
f 129 195 130
f 130 195 196
f 130 196 193
f 131 192 132
f 132 192 133
f 133 192 136
f 133 136 134
f 134 136 135
f 136 192 197
f 136 197 198
f 136 198 199
f 136 199 137
f 137 199 200
f 137 200 201
f 137 201 138
f 138 201 139
f 139 201 202
f 139 202 203
f 139 203 140
f 140 204 145
f 140 145 143
f 140 203 205
f 140 205 206
f 140 206 207
f 140 207 204
f 145 204 207
f 145 207 208
f 145 208 146
f 146 208 147
f 147 208 209
f 147 209 151
f 149 151 210
f 149 210 211
f 149 211 212
f 149 212 213
f 149 213 214
f 149 214 152
f 149 152 150
f 151 209 215
f 151 215 216
f 151 216 217
f 151 217 218
f 151 218 219
f 151 219 220
f 151 220 221
f 151 221 222
f 151 222 223
f 151 223 210
f 152 214 153
f 153 214 213
f 153 213 224
f 153 224 225
f 153 225 226
f 153 226 155
f 153 155 154
f 155 226 227
f 155 227 156
f 156 227 228
f 156 228 229
f 156 229 157
f 157 229 230
f 157 230 158
f 158 230 159
f 159 230 231
f 159 231 232
f 159 232 160
f 160 232 233
f 160 233 161
f 161 233 234
f 161 234 162
f 162 234 233
f 162 233 232
f 162 232 235
f 162 235 163
f 163 235 236
f 163 236 164
f 164 236 237
f 164 237 238
f 164 238 239
f 164 239 240
f 164 240 241
f 164 241 165
f 165 240 242
f 165 242 169
f 165 241 240
f 167 243 244
f 167 244 173
f 167 173 172
f 167 172 168
f 167 169 245
f 167 245 243
f 169 242 246
f 169 246 245
f 170 171 173
f 170 173 247
f 170 247 174
f 173 244 174
f 173 174 247
f 174 243 248
f 174 248 249
f 174 249 175
f 174 244 243
f 175 249 176
f 176 249 250
f 176 250 177
f 177 250 251
f 177 251 252
f 177 252 178
f 178 252 253
f 178 253 179
f 179 253 180
f 180 253 254
f 180 254 255
f 180 255 256
f 180 256 257
f 180 257 258
f 180 258 259
f 180 259 181
f 181 259 182
f 182 260 183
f 182 259 258
f 182 258 260
f 183 260 184
f 184 261 189
f 184 189 185
f 184 260 261
f 186 262 187
f 186 189 262
f 187 262 263
f 187 263 264
f 187 264 265
f 187 265 266
f 187 266 188
f 188 266 267
f 188 267 268
f 188 268 194
f 188 194 190
f 189 261 262
f 191 193 192
f 192 193 269
f 192 269 270
f 192 270 271
f 192 271 197
f 193 195 272
f 193 272 273
f 193 273 274
f 193 274 269
f 193 196 195
f 194 268 275
f 194 275 272
f 194 272 195
f 197 271 198
f 198 200 199
f 198 271 276
f 198 276 200
f 200 276 277
f 200 277 278
f 200 278 201
f 201 278 202
f 202 278 279
f 202 279 203
f 203 279 280
f 203 280 281
f 203 281 205
f 205 282 206
f 205 281 282
f 206 282 283
f 206 283 207
f 207 283 284
f 207 284 208
f 208 284 285
f 208 285 286
f 208 286 287
f 208 287 215
f 208 215 209
f 210 223 288
f 210 288 289
f 210 289 211
f 211 289 290
f 211 290 212
f 212 290 213
f 213 290 291
f 213 291 292
f 213 292 224
f 215 287 216
f 216 287 217
f 217 287 218
f 218 293 294
f 218 294 295
f 218 295 296
f 218 296 219
f 218 287 293
f 219 296 221
f 219 221 220
f 221 296 222
f 222 297 298
f 222 298 299
f 222 299 300
f 222 300 223
f 222 296 301
f 222 301 297
f 223 302 288
f 223 300 303
f 223 303 302
f 224 292 304
f 224 304 225
f 225 305 226
f 225 304 305
f 226 305 227
f 227 305 306
f 227 306 307
f 227 307 308
f 227 308 228
f 228 309 310
f 228 310 231
f 228 231 229
f 228 308 309
f 229 231 230
f 231 310 311
f 231 311 232
f 232 311 310
f 232 310 312
f 232 312 313
f 232 313 237
f 232 237 235
f 235 237 236
f 237 313 314
f 237 314 315
f 237 315 316
f 237 316 317
f 237 317 238
f 238 318 319
f 238 319 240
f 238 240 239
f 238 317 318
f 240 319 242
f 242 320 246
f 242 319 321
f 242 321 320
f 243 245 248
f 245 246 322
f 245 322 323
f 245 323 248
f 246 320 324
f 246 324 322
f 248 323 249
f 249 323 251
f 249 251 250
f 251 323 322
f 251 322 254
f 251 254 253
f 251 253 252
f 254 322 325
f 254 325 326
f 254 326 255
f 255 326 256
f 256 326 327
f 256 327 328
f 256 328 329
f 256 329 257
f 257 329 258
f 258 329 328
f 258 328 327
f 258 327 330
f 258 330 331
f 258 331 260
f 260 331 332
f 260 332 261
f 261 332 333
f 261 333 263
f 261 263 262
f 263 333 334
f 263 334 335
f 263 335 336
f 263 336 264
f 264 337 265
f 264 336 338
f 264 338 337
f 265 337 339
f 265 339 340
f 265 340 341
f 265 341 342
f 265 342 343
f 265 343 275
f 265 275 266
f 266 275 267
f 267 275 268
f 269 274 344
f 269 344 345
f 269 345 346
f 269 346 270
f 270 347 348
f 270 348 349
f 270 349 350
f 270 350 351
f 270 351 352
f 270 352 353
f 270 353 354
f 270 354 271
f 270 346 347
f 271 354 355
f 271 355 276
f 272 275 273
f 273 275 356
f 273 356 274
f 274 356 357
f 274 357 358
f 274 358 344
f 275 343 356
f 276 355 277
f 277 359 360
f 277 360 361
f 277 361 278
f 277 355 362
f 277 362 363
f 277 363 364
f 277 364 359
f 278 361 279
f 279 361 360
f 279 360 280
f 280 360 365
f 280 365 366
f 280 366 367
f 280 367 368
f 280 368 283
f 280 283 282
f 280 282 281
f 283 368 284
f 284 368 285
f 285 368 367
f 285 367 369
f 285 369 370
f 285 370 371
f 285 371 372
f 285 372 287
f 285 287 286
f 287 372 293
f 288 302 289
f 289 302 304
f 289 304 292
f 289 292 290
f 290 292 291
f 293 372 371
f 293 371 370
f 293 370 373
f 293 373 374
f 293 374 294
f 294 374 375
f 294 375 376
f 294 376 295
f 295 301 296
f 295 376 377
f 295 377 301
f 297 378 379
f 297 379 298
f 297 301 377
f 297 377 380
f 297 380 381
f 297 381 378
f 298 379 299
f 299 379 378
f 299 378 382
f 299 382 383
f 299 383 300
f 300 383 384
f 300 384 303
f 302 303 304
f 303 384 385
f 303 385 386
f 303 386 387
f 303 387 388
f 303 388 304
f 304 388 389
f 304 389 306
f 304 306 305
f 306 389 307
f 307 389 390
f 307 390 309
f 307 309 308
f 309 390 391
f 309 391 310
f 310 391 392
f 310 392 393
f 310 393 312
f 312 393 394
f 312 394 395
f 312 395 396
f 312 396 313
f 313 396 314
f 314 397 315
f 314 396 397
f 315 397 316
f 316 397 317
f 317 397 318
f 318 398 319
f 318 397 399
f 318 399 400
f 318 400 401
f 318 401 402
f 318 402 398
f 319 398 402
f 319 402 403
f 319 403 404
f 319 404 405
f 319 405 321
f 320 406 324
f 320 321 405
f 320 405 407
f 320 407 408
f 320 408 406
f 322 324 325
f 324 406 409
f 324 409 410
f 324 410 325
f 325 411 412
f 325 412 326
f 325 410 413
f 325 413 411
f 326 412 411
f 326 411 413
f 326 413 414
f 326 414 415
f 326 415 416
f 326 416 327
f 327 416 330
f 330 416 417
f 330 417 331
f 331 417 418
f 331 418 419
f 331 419 420
f 331 420 332
f 332 420 333
f 333 420 334
f 334 420 421
f 334 421 335
f 335 422 338
f 335 338 336
f 335 421 523
f 335 523 422
f 337 338 423
f 337 423 424
f 337 424 425
f 337 425 426
f 337 426 427
f 337 427 339
f 338 422 428
f 338 428 429
f 338 429 423
f 339 427 430
f 339 430 431
f 339 431 432
f 339 432 340
f 340 432 433
f 340 433 341
f 341 434 342
f 341 433 435
f 341 435 434
f 342 434 343
f 343 434 356
f 344 358 436
f 344 436 437
f 344 437 345
f 345 437 438
f 345 438 346
f 346 438 439
f 346 439 440
f 346 440 441
f 346 441 347
f 347 442 443
f 347 443 348
f 347 441 442
f 348 443 444
f 348 444 349
f 349 444 350
f 350 444 351
f 351 444 445
f 351 445 446
f 351 446 447
f 351 447 448
f 351 448 352
f 352 449 450
f 352 450 353
f 352 448 449
f 353 450 354
f 354 451 355
f 354 450 362
f 354 362 451
f 355 451 362
f 356 434 357
f 357 434 435
f 357 435 452
f 357 452 358
f 358 453 454
f 358 454 455
f 358 455 436
f 358 452 453
f 359 456 365
f 359 365 360
f 359 364 456
f 362 450 457
f 362 457 458
f 362 458 363
f 363 458 459
f 363 459 364
f 364 459 460
f 364 460 461
f 364 461 456
f 365 456 462
f 365 462 366
f 366 369 367
f 366 462 463
f 366 463 464
f 366 464 373
f 366 373 369
f 369 373 370
f 373 464 465
f 373 465 375
f 373 375 374
f 375 466 467
f 375 467 468
f 375 468 376
f 375 465 466
f 376 380 377
f 376 468 469
f 376 469 470
f 376 470 380
f 378 471 472
f 378 472 382
f 378 381 473
f 378 473 471
f 380 470 381
f 381 470 473
f 382 474 475
f 382 475 476
f 382 476 383
f 382 472 474
f 383 476 384
f 384 476 477
f 384 477 478
f 384 478 386
f 384 386 385
f 386 478 479
f 386 479 480
f 386 480 481
f 386 481 482
f 386 482 390
f 386 390 389
f 386 389 388
f 386 388 387
f 390 483 484
f 390 484 485
f 390 485 391
f 390 482 486
f 390 486 483
f 391 485 392
f 392 487 488
f 392 488 393
f 392 485 489
f 392 489 487
f 393 490 394
f 393 488 487
f 393 487 490
f 394 490 491
f 394 491 395
f 395 491 396
f 396 491 492
f 396 492 397
f 397 492 493
f 397 493 494
f 397 494 495
f 397 495 496
f 397 496 497
f 397 497 399
f 399 497 498
f 399 498 499
f 399 499 400
f 400 499 401
f 401 499 500
f 401 500 402
f 402 500 501
f 402 501 404
f 402 404 403
f 404 501 502
f 404 502 503
f 404 503 504
f 404 504 405
f 405 504 505
f 405 505 407
f 406 408 506
f 406 506 409
f 407 505 408
f 408 505 506
f 409 506 507
f 409 507 410
f 410 507 508
f 410 508 509
f 410 509 510
f 410 510 413
f 413 511 512
f 413 512 414
f 413 510 513
f 413 513 514
f 413 514 511
f 414 512 515
f 414 515 415
f 415 515 516
f 415 516 517
f 415 517 518
f 415 518 416
f 416 518 517
f 416 517 519
f 416 519 520
f 416 520 521
f 416 521 418
f 416 418 417
f 418 521 419
f 419 521 522
f 419 522 420
f 420 522 523
f 420 523 421
f 422 524 525
f 422 525 526
f 422 526 527
f 422 527 428
f 422 523 528
f 422 528 524
f 423 429 529
f 423 529 530
f 423 530 531
f 423 531 424
f 424 531 532
f 424 532 533
f 424 533 534
f 424 534 535
f 424 535 425
f 425 535 536
f 425 536 426
f 426 537 538
f 426 538 539
f 426 539 430
f 426 430 427
f 426 536 540
f 426 540 537
f 428 527 541
f 428 541 542
f 428 542 543
f 428 543 544
f 428 544 529
f 428 529 429
f 430 539 545
f 430 545 546
f 430 546 452
f 430 452 431
f 431 452 435
f 431 435 432
f 432 435 433
f 436 547 439
f 436 439 438
f 436 438 437
f 436 455 547
f 439 548 549
f 439 549 440
f 439 547 548
f 440 549 550
f 440 550 551
f 440 551 552
f 440 552 553
f 440 553 441
f 441 554 555
f 441 555 556
f 441 556 557
f 441 557 558
f 441 558 442
f 441 553 554
f 442 558 559
f 442 559 560
f 442 560 561
f 442 561 443
f 443 561 444
f 444 561 560
f 444 560 562
f 444 562 563
f 444 563 564
f 444 564 565
f 444 565 566
f 444 566 445
f 445 566 446
f 446 566 567
f 446 567 568
f 446 568 447
f 447 568 569
f 447 569 570
f 447 570 448
f 448 570 571
f 448 571 572
f 448 572 457
f 448 457 449
f 449 457 450
f 452 573 453
f 452 546 573
f 453 573 574
f 453 574 575
f 453 575 454
f 454 575 455
f 455 575 547
f 456 461 462
f 457 572 576
f 457 576 458
f 458 576 460
f 458 460 459
f 460 576 577
f 460 577 578
f 460 578 461
f 461 578 462
f 462 578 465
f 462 465 463
f 463 465 464
f 465 578 579
f 465 579 466
f 466 579 580
f 466 580 581
f 466 581 467
f 467 581 582
f 467 582 583
f 467 583 584
f 467 584 585
f 467 585 468
f 468 585 469
f 469 586 470
f 469 585 587
f 469 587 588
f 469 588 586
f 470 586 589
f 470 589 590
f 470 590 591
f 470 591 592
f 470 592 473
f 471 593 594
f 471 594 472
f 471 473 592
f 471 592 593
f 472 594 595
f 472 595 596
f 472 596 597
f 472 597 474
f 474 597 598
f 474 598 475
f 475 598 599
f 475 599 479
f 475 479 476
f 476 479 477
f 477 479 478
f 479 599 480
f 480 599 481
f 481 599 482
f 482 599 600
f 482 600 486
f 483 486 601
f 483 601 484
f 484 602 485
f 484 601 600
f 484 600 602
f 485 602 489
f 486 600 601
f 487 603 490
f 487 489 604
f 487 604 605
f 487 605 606
f 487 606 603
f 489 602 604
f 490 603 607
f 490 607 491
f 491 608 492
f 491 607 609
f 491 609 610
f 491 610 608
f 492 608 611
f 492 611 612
f 492 612 493
f 493 612 494
f 494 612 613
f 494 613 614
f 494 614 495
f 495 614 496
f 496 615 616
f 496 616 617
f 496 617 618
f 496 618 619
f 496 619 498
f 496 498 497
f 496 614 620
f 496 620 621
f 496 621 622
f 496 622 615
f 498 619 618
f 498 618 617
f 498 617 499
f 499 617 623
f 499 623 624
f 499 624 501
f 499 501 500
f 501 624 502
f 502 624 623
f 502 623 616
f 502 616 625
f 502 625 626
f 502 626 503
f 503 626 627
f 503 627 504
f 504 627 505
f 505 627 628
f 505 628 629
f 505 629 630
f 505 630 631
f 505 631 506
f 506 631 630
f 506 630 507
f 507 630 632
f 507 632 508
f 508 632 633
f 508 633 509
f 509 633 768
f 509 768 634
f 509 634 510
f 510 634 513
f 511 635 512
f 511 514 636
f 511 636 635
f 512 637 515
f 512 635 637
f 513 634 638
f 513 638 639
f 513 639 514
f 514 639 636
f 515 637 516
f 516 637 640
f 516 640 641
f 516 641 517
f 517 641 642
f 517 642 643
f 517 643 519
f 519 644 520
f 519 643 644
f 520 644 645
f 520 645 643
f 520 643 646
f 520 646 521
f 521 647 648
f 521 648 649
f 521 649 522
f 521 646 650
f 521 650 651
f 521 651 652
f 521 652 653
f 521 653 654
f 521 654 647
f 522 649 655
f 522 655 656
f 522 656 523
f 523 656 528
f 524 657 658
f 524 658 525
f 524 528 659
f 524 659 657
f 525 658 526
f 526 660 661
f 526 661 662
f 526 662 663
f 526 663 541
f 526 541 527
f 526 658 660
f 528 656 657
f 528 657 659
f 529 664 530
f 529 544 665
f 529 665 664
f 530 664 666
f 530 666 667
f 530 667 531
f 531 667 532
f 532 667 668
f 532 668 533
f 533 668 669
f 533 669 534
f 534 669 535
f 535 670 671
f 535 671 536
f 535 669 670
f 536 671 669
f 536 669 672
f 536 672 673
f 536 673 674
f 536 674 537
f 536 537 540
f 537 546 545
f 537 545 538
f 537 674 673
f 537 673 675
f 537 675 676
f 537 676 546
f 538 545 539
f 541 663 677
f 541 677 678
f 541 678 679
f 541 679 542
f 542 679 543
f 543 679 665
f 543 665 544
f 546 676 680
f 546 680 573
f 547 681 548
f 547 575 682
f 547 682 683
f 547 683 684
f 547 684 681
f 548 681 685
f 548 685 686
f 548 686 687
f 548 687 550
f 548 550 549
f 550 688 689
f 550 689 551
f 550 687 688
f 551 689 552
f 552 689 690
f 552 690 553
f 553 690 691
f 553 691 554
f 554 691 692
f 554 692 693
f 554 693 694
f 554 694 555
f 555 694 695
f 555 695 556
f 556 695 696
f 556 696 697
f 556 697 557
f 557 697 558
f 558 698 559
f 558 697 698
f 559 698 562
f 559 562 560
f 562 699 563
f 562 698 699
f 563 700 701
f 563 701 564
f 563 699 702
f 563 702 700
f 564 701 565
f 565 701 566
f 566 701 567
f 567 701 703
f 567 703 568
f 568 703 569
f 569 703 570
f 570 703 704
f 570 704 705
f 570 705 706
f 570 706 707
f 570 707 708
f 570 708 577
f 570 577 571
f 571 577 576
f 571 576 572
f 573 680 574
f 574 709 682
f 574 682 575
f 574 680 709
f 577 708 578
f 578 710 579
f 578 708 711
f 578 711 582
f 578 582 710
f 579 710 580
f 580 710 582
f 580 582 581
f 582 711 707
f 582 707 712
f 582 712 713
f 582 713 714
f 582 714 583
f 583 714 587
f 583 587 584
f 584 587 585
f 586 588 589
f 587 715 590
f 587 590 589
f 587 589 588
f 587 714 716
f 587 716 717
f 587 717 718
f 587 718 715
f 590 715 719
f 590 719 591
f 591 719 720
f 591 720 592
f 592 720 721
f 592 721 722
f 592 722 593
f 593 723 594
f 593 722 723
f 594 724 595
f 594 723 725
f 594 725 724
f 595 726 730
f 595 730 596
f 595 724 727
f 595 727 728
f 595 728 729
f 595 729 726
f 596 730 598
f 596 598 597
f 598 730 731
f 598 731 732
f 598 732 599
f 599 732 733
f 599 733 600
f 600 733 734
f 600 734 735
f 600 735 602
f 602 735 736
f 602 736 604
f 603 606 737
f 603 737 607
f 604 736 738
f 604 738 605
f 605 738 739
f 605 739 740
f 605 740 741
f 605 741 742
f 605 742 743
f 605 743 744
f 605 744 606
f 606 744 745
f 606 745 737
f 607 737 746
f 607 746 747
f 607 747 609
f 608 610 611
f 609 747 748
f 609 748 749
f 609 749 750
f 609 750 610
f 610 750 751
f 610 751 611
f 611 751 752
f 611 752 613
f 611 613 612
f 613 752 614
f 614 752 620
f 615 753 754
f 615 754 616
f 615 622 753
f 616 755 756
f 616 756 627
f 616 627 626
f 616 626 625
f 616 623 617
f 616 754 757
f 616 757 758
f 616 758 755
f 620 751 759
f 620 759 760
f 620 760 621
f 620 752 751
f 621 760 761
f 621 761 762
f 621 762 763
f 621 763 622
f 622 763 764
f 622 764 753
f 627 756 755
f 627 755 765
f 627 765 628
f 628 765 629
f 629 765 766
f 629 766 767
f 629 767 633
f 629 633 630
f 630 633 632
f 633 767 768
f 634 768 769
f 634 769 770
f 634 770 771
f 634 771 772
f 634 772 773
f 634 773 638
f 635 640 637
f 635 636 774
f 635 774 640
f 636 639 774
f 638 773 639
f 639 773 775
f 639 775 776
f 639 776 774
f 640 774 641
f 641 774 777
f 641 777 778
f 641 778 642
f 642 778 779
f 642 779 643
f 643 779 780
f 643 780 781
f 643 781 782
f 643 782 646
f 643 645 644
f 646 782 783
f 646 783 650
f 647 654 784
f 647 784 648
f 648 784 649
f 649 784 655
f 650 783 651
f 651 783 785
f 651 785 652
f 652 786 787
f 652 787 788
f 652 788 653
f 652 785 789
f 652 789 790
f 652 790 791
f 652 791 786
f 653 788 654
f 654 788 786
f 654 786 784
f 655 784 792
f 655 792 793
f 655 793 656
f 656 793 794
f 656 794 795
f 656 795 796
f 656 796 657
f 657 796 797
f 657 797 658
f 658 797 660
f 660 797 798
f 660 798 799
f 660 799 661
f 661 799 662
f 662 799 798
f 662 798 800
f 662 800 801
f 662 801 677
f 662 677 663
f 664 665 802
f 664 802 803
f 664 803 804
f 664 804 666
f 665 679 802
f 666 804 667
f 667 805 806
f 667 806 668
f 667 804 805
f 668 806 807
f 668 807 808
f 668 808 669
f 669 808 809
f 669 809 672
f 669 671 670
f 672 809 810
f 672 810 811
f 672 811 812
f 672 812 813
f 672 813 814
f 672 814 673
f 673 813 675
f 673 814 813
f 675 813 815
f 675 815 709
f 675 709 816
f 675 816 676
f 676 816 680
f 677 801 817
f 677 817 818
f 677 818 819
f 677 819 820
f 677 820 678
f 678 820 821
f 678 821 679
f 679 821 822
f 679 822 823
f 679 823 803
f 679 803 802
f 680 816 709
f 681 684 824
f 681 824 685
f 682 709 815
f 682 815 683
f 683 815 825
f 683 825 684
f 684 825 813
f 684 813 826
f 684 826 827
f 684 827 824
f 685 824 828
f 685 828 829
f 685 829 686
f 686 829 828
f 686 828 830
f 686 830 831
f 686 831 832
f 686 832 687
f 687 832 833
f 687 833 688
f 688 833 834
f 688 834 835
f 688 835 836
f 688 836 837
f 688 837 689
f 689 837 690
f 690 692 691
f 690 837 692
f 692 837 838
f 692 838 839
f 692 839 840
f 692 840 841
f 692 841 693
f 693 841 842
f 693 842 694
f 694 842 695
f 695 843 844
f 695 844 845
f 695 845 696
f 695 842 843
f 696 845 846
f 696 846 698
f 696 698 697
f 698 846 847
f 698 847 848
f 698 848 849
f 698 849 699
f 699 849 702
f 700 850 701
f 700 702 851
f 700 851 852
f 700 852 850
f 701 853 854
f 701 854 855
f 701 855 706
f 701 706 703
f 701 850 853
f 702 849 851
f 703 706 704
f 704 706 705
f 706 855 856
f 706 856 717
f 706 717 707
f 707 717 716
f 707 716 857
f 707 857 712
f 707 711 708
f 712 857 858
f 712 858 716
f 712 716 713
f 713 716 714
f 715 718 859
f 715 859 721
f 715 721 720
f 715 720 719
f 716 858 857
f 717 856 718
f 718 856 860
f 718 860 859
f 721 861 722
f 721 859 861
f 722 861 862
f 722 862 863
f 722 863 864
f 722 864 865
f 722 865 723
f 723 865 866
f 723 866 725
f 724 725 867
f 724 867 727
f 725 866 868
f 725 868 869
f 725 869 867
f 726 870 730
f 726 729 870
f 727 867 869
f 727 869 728
f 728 868 871
f 728 871 872
f 728 872 873
f 728 873 874
f 728 874 729
f 728 869 868
f 729 874 870
f 730 870 875
f 730 875 731
f 731 875 732
f 732 875 876
f 732 876 877
f 732 877 878
f 732 878 879
f 732 879 733
f 733 879 880
f 733 880 881
f 733 881 734
f 734 882 883
f 734 883 738
f 734 738 735
f 734 881 882
f 735 738 736
f 737 745 884
f 737 884 748
f 737 748 747
f 737 747 746
f 738 883 885
f 738 885 886
f 738 886 740
f 738 740 739
f 740 886 887
f 740 887 888
f 740 888 742
f 740 742 741
f 742 888 743
f 743 745 744
f 743 888 889
f 743 889 884
f 743 884 745
f 748 884 890
f 748 890 749
f 749 890 750
f 750 890 759
f 750 759 751
f 753 891 757
f 753 757 754
f 753 764 892
f 753 892 891
f 755 758 893
f 755 893 765
f 757 891 758
f 758 891 894
f 758 894 893
f 759 895 760
f 759 890 895
f 760 895 896
f 760 896 897
f 760 897 761
f 761 898 762
f 761 897 899
f 761 899 900
f 761 900 901
f 761 901 898
f 762 898 763
f 763 898 902
f 763 902 764
f 764 902 892
f 765 767 766
f 765 893 768
f 765 768 767
f 768 893 903
f 768 903 904
f 768 904 905
f 768 905 769
f 769 905 906
f 769 906 907
f 769 907 770
f 770 908 771
f 770 907 909
f 770 909 910
f 770 910 911
f 770 911 908
f 771 908 772
f 772 908 911
f 772 911 912
f 772 912 773
f 773 913 775
f 773 912 913
f 774 776 775
f 774 775 777
f 775 913 778
f 775 778 777
f 778 913 779
f 779 913 781
f 779 781 780
f 781 911 914
f 781 914 915
f 781 915 916
f 781 916 782
f 781 913 912
f 781 912 911
f 782 916 785
f 782 785 783
f 784 786 792
f 785 916 917
f 785 917 789
f 786 788 787
f 786 791 918
f 786 918 792
f 789 917 790
f 790 917 791
f 791 919 918
f 791 917 920
f 791 920 921
f 791 921 922
f 791 922 919
f 792 918 794
f 792 794 793
f 794 923 795
f 794 918 919
f 794 919 924
f 794 924 923
f 795 924 925
f 795 925 796
f 795 923 924
f 796 925 926
f 796 926 797
f 797 926 925
f 797 925 927
f 797 927 928
f 797 928 798
f 798 928 929
f 798 929 930
f 798 930 800
f 800 930 931
f 800 931 932
f 800 932 801
f 801 932 817
f 803 823 804
f 804 823 822
f 804 822 933
f 804 933 934
f 804 934 935
f 804 935 936
f 804 936 805
f 805 936 806
f 806 936 935
f 806 935 807
f 807 935 810
f 807 810 808
f 808 810 809
f 810 937 827
f 810 827 826
f 810 826 812
f 810 812 811
f 810 935 938
f 810 938 937
f 812 826 813
f 813 825 815
f 817 939 818
f 817 932 940
f 817 940 939
f 818 939 941
f 818 941 942
f 818 942 819
f 819 943 820
f 819 942 944
f 819 944 943
f 820 943 944
f 820 944 933
f 820 933 822
f 820 822 821
f 824 827 945
f 824 945 946
f 824 946 828
f 827 937 946
f 827 946 945
f 828 947 830
f 828 946 947
f 830 947 948
f 830 948 831
f 831 949 950
f 831 950 832
f 831 948 951
f 831 951 949
f 832 950 952
f 832 952 953
f 832 953 954
f 832 954 955
f 832 955 833
f 833 955 834
f 834 956 835
f 834 955 956
f 835 956 957
f 835 957 958
f 835 958 959
f 835 959 960
f 835 960 836
f 836 960 961
f 836 961 838
f 836 838 837
f 838 961 839
f 839 961 840
f 840 961 962
f 840 962 963
f 840 963 841
f 841 963 964
f 841 964 842
f 842 964 843
f 843 964 965
f 843 965 844
f 844 965 966
f 844 966 967
f 844 967 968
f 844 968 845
f 845 968 846
f 846 968 847
f 847 968 851
f 847 851 848
f 848 851 849
f 850 969 853
f 850 852 970
f 850 970 971
f 850 971 972
f 850 972 1074
f 850 1074 969
f 851 973 974
f 851 974 852
f 851 968 975
f 851 975 973
f 852 974 970
f 853 976 854
f 853 969 1075
f 853 1075 976
f 854 976 977
f 854 977 855
f 855 977 860
f 855 860 856
f 859 860 978
f 859 978 861
f 860 977 978
f 861 978 862
f 862 978 979
f 862 979 980
f 862 980 863
f 863 980 981
f 863 981 982
f 863 982 864
f 864 982 871
f 864 871 983
f 864 983 866
f 864 866 865
f 866 983 871
f 866 871 868
f 870 874 875
f 871 982 872
f 872 982 984
f 872 984 985
f 872 985 986
f 872 986 987
f 872 987 873
f 873 987 988
f 873 988 989
f 873 989 990
f 873 990 991
f 873 991 992
f 873 992 875
f 873 875 874
f 875 992 876
f 876 992 877
f 877 992 991
f 877 991 878
f 878 991 993
f 878 993 879
f 879 993 991
f 879 991 880
f 880 991 994
f 880 994 995
f 880 995 996
f 880 996 881
f 881 996 997
f 881 997 998
f 881 998 882
f 882 998 999
f 882 999 1000
f 882 1000 883
f 883 1000 999
f 883 999 1001
f 883 1001 885
f 884 889 896
f 884 896 890
f 885 1002 1003
f 885 1003 1004
f 885 1004 1005
f 885 1005 886
f 885 1001 999
f 885 999 1002
f 886 1005 887
f 887 1005 1004
f 887 1004 899
f 887 899 888
f 888 899 896
f 888 896 889
f 890 896 895
f 891 892 894
f 892 906 1006
f 892 1006 894
f 892 902 1007
f 892 1007 906
f 893 894 1006
f 893 1006 906
f 893 906 903
f 896 899 897
f 898 901 1008
f 898 1008 902
f 899 1004 1009
f 899 1009 900
f 900 1009 1010
f 900 1010 901
f 901 1010 1011
f 901 1011 1012
f 901 1012 1008
f 902 1008 1013
f 902 1013 1007
f 903 906 904
f 904 906 905
f 906 1014 907
f 906 1007 1014
f 907 1014 1015
f 907 1015 909
f 909 1015 1016
f 909 1016 910
f 910 1016 911
f 911 1016 1017
f 911 1017 1018
f 911 1018 1019
f 911 1019 915
f 911 915 914
f 915 1019 1018
f 915 1018 1020
f 915 1020 920
f 915 920 917
f 915 917 916
f 919 922 924
f 920 1020 1021
f 920 1021 921
f 921 1022 1023
f 921 1023 922
f 921 1021 1024
f 921 1024 928
f 921 928 1025
f 921 1025 1022
f 922 1023 924
f 924 1023 1026
f 924 1026 925
f 925 1026 927
f 927 1026 928
f 928 1026 1025
f 928 1024 929
f 929 1024 1027
f 929 1027 1028
f 929 1028 930
f 930 1028 1029
f 930 1029 931
f 931 1030 940
f 931 940 932
f 931 1029 1030
f 933 944 934
f 934 944 1031
f 934 1031 935
f 935 1032 938
f 935 1031 1032
f 937 938 946
f 938 1032 1033
f 938 1033 946
f 939 1034 942
f 939 942 941
f 939 940 1035
f 939 1035 1034
f 940 1030 1036
f 940 1036 1035
f 942 1037 1038
f 942 1038 1039
f 942 1039 1040
f 942 1040 944
f 942 1034 1037
f 944 1040 1041
f 944 1041 1031
f 946 1033 1042
f 946 1042 947
f 947 1042 948
f 948 1042 1043
f 948 1043 951
f 949 1044 950
f 949 951 1044
f 950 1044 952
f 951 1043 1045
f 951 1045 1046
f 951 1046 1044
f 952 1044 1047
f 952 1047 953
f 953 1048 954
f 953 1047 1049
f 953 1049 1050
f 953 1050 1048
f 954 1048 1051
f 954 1051 1052
f 954 1052 955
f 955 1052 1053
f 955 1053 1054
f 955 1054 1055
f 955 1055 1056
f 955 1056 956
f 956 1056 1054
f 956 1054 1057
f 956 1057 957
f 957 1057 1058
f 957 1058 1059
f 957 1059 1060
f 957 1060 958
f 958 961 959
f 958 1060 961
f 959 961 960
f 961 1061 962
f 961 1060 1062
f 961 1062 1063
f 961 1063 1064
f 961 1064 1061
f 962 1065 1066
f 962 1066 963
f 962 1061 1067
f 962 1067 1065
f 963 1066 964
f 964 1068 965
f 964 1066 1068
f 965 1068 1069
f 965 1069 1070
f 965 1070 966
f 966 1070 1071
f 966 1071 967
f 967 1071 1072
f 967 1072 1073
f 967 1073 975
f 967 975 968
f 969 1074 1075
f 970 974 973
f 970 973 1076
f 970 1076 971
f 971 1076 972
f 972 1076 1156
f 972 1156 1074
f 973 975 1076
f 975 1073 1076
f 976 1075 1077
f 976 1077 1078
f 976 1078 977
f 977 1078 978
f 978 1078 979
f 979 1078 1077
f 979 1077 1079
f 979 1079 1080
f 979 1080 980
f 980 1080 981
f 981 1080 1079
f 981 1079 982
f 982 1079 1081
f 982 1081 1082
f 982 1082 1083
f 982 1083 984
f 984 1084 1085
f 984 1085 985
f 984 1083 1084
f 985 1085 986
f 986 1085 1086
f 986 1086 987
f 987 1086 988
f 988 1087 989
f 988 1086 1010
f 988 1010 1009
f 988 1009 1088
f 988 1088 1087
f 989 1087 990
f 990 1087 994
f 990 994 991
f 994 1087 995
f 995 1087 997
f 995 997 996
f 997 1089 1088
f 997 1088 1090
f 997 1090 998
f 997 1087 1089
f 998 1090 999
f 999 1090 1002
f 1002 1090 1088
f 1002 1088 1003
f 1003 1088 1009
f 1003 1009 1004
f 1007 1091 1092
f 1007 1092 1093
f 1007 1093 1094
f 1007 1094 1014
f 1007 1013 1095
f 1007 1095 1091
f 1008 1012 1095
f 1008 1095 1013
f 1010 1086 1011
f 1011 1086 1012
f 1012 1086 1096
f 1012 1096 1095
f 1014 1094 1097
f 1014 1097 1015
f 1015 1097 1016
f 1016 1097 1017
f 1017 1097 1098
f 1017 1098 1099
f 1017 1099 1018
f 1018 1099 1021
f 1018 1021 1020
f 1021 1099 1100
f 1021 1100 1101
f 1021 1101 1102
f 1021 1102 1103
f 1021 1103 1024
f 1022 1025 1026
f 1022 1026 1023
f 1024 1103 1027
f 1027 1103 1028
f 1028 1104 1029
f 1028 1103 1102
f 1028 1102 1104
f 1029 1104 1036
f 1029 1036 1030
f 1031 1039 1105
f 1031 1105 1032
f 1031 1041 1039
f 1032 1105 1106
f 1032 1106 1042
f 1032 1042 1033
f 1034 1035 1107
f 1034 1107 1108
f 1034 1108 1109
f 1034 1109 1110
f 1034 1110 1037
f 1035 1036 1107
f 1036 1104 1107
f 1037 1110 1039
f 1037 1039 1038
f 1039 1111 1043
f 1039 1043 1112
f 1039 1112 1106
f 1039 1106 1105
f 1039 1041 1040
f 1039 1110 1113
f 1039 1113 1111
f 1042 1106 1112
f 1042 1112 1043
f 1043 1111 1045
f 1044 1046 1049
f 1044 1049 1047
f 1045 1111 1046
f 1046 1111 1114
f 1046 1114 1115
f 1046 1115 1116
f 1046 1116 1049
f 1048 1117 1052
f 1048 1052 1051
f 1048 1050 1118
f 1048 1118 1119
f 1048 1119 1117
f 1049 1116 1120
f 1049 1120 1121
f 1049 1121 1118
f 1049 1118 1050
f 1052 1117 1122
f 1052 1122 1123
f 1052 1123 1124
f 1052 1124 1125
f 1052 1125 1126
f 1052 1126 1053
f 1053 1126 1127
f 1053 1127 1128
f 1053 1128 1129
f 1053 1129 1054
f 1054 1129 1130
f 1054 1130 1131
f 1054 1131 1057
f 1054 1056 1055
f 1057 1131 1058
f 1058 1131 1132
f 1058 1132 1133
f 1058 1133 1134
f 1058 1134 1135
f 1058 1135 1059
f 1059 1135 1060
f 1060 1135 1062
f 1061 1064 1136
f 1061 1136 1137
f 1061 1137 1138
f 1061 1138 1139
f 1061 1139 1140
f 1061 1140 1141
f 1061 1141 1067
f 1062 1135 1063
f 1063 1135 1142
f 1063 1142 1143
f 1063 1143 1064
f 1064 1143 1136
f 1065 1067 1144
f 1065 1144 1145
f 1065 1145 1226
f 1065 1226 1146
f 1065 1146 1066
f 1066 1146 1226
f 1066 1226 1147
f 1066 1147 1150
f 1066 1150 1068
f 1067 1141 1148
f 1067 1148 1149
f 1067 1149 1144
f 1068 1150 1069
f 1069 1150 1151
f 1069 1151 1070
f 1070 1151 1071
f 1071 1151 1152
f 1071 1152 1153
f 1071 1153 1154
f 1071 1154 1072
f 1072 1154 1155
f 1072 1155 1073
f 1073 1155 1156
f 1073 1156 1076
f 1074 1156 1157
f 1074 1157 1075
f 1075 1157 1158
f 1075 1158 1077
f 1077 1158 1079
f 1079 1158 1159
f 1079 1159 1160
f 1079 1160 1081
f 1081 1160 1161
f 1081 1161 1162
f 1081 1162 1163
f 1081 1163 1164
f 1081 1164 1083
f 1081 1083 1082
f 1083 1164 1165
f 1083 1165 1166
f 1083 1166 1167
f 1083 1167 1168
f 1083 1168 1169
f 1083 1169 1084
f 1084 1170 1085
f 1084 1169 1171
f 1084 1171 1170
f 1085 1170 1172
f 1085 1172 1173
f 1085 1173 1174
f 1085 1174 1095
f 1085 1095 1175
f 1085 1175 1086
f 1086 1175 1096
f 1087 1088 1089
f 1091 1176 1177
f 1091 1177 1178
f 1091 1178 1179
f 1091 1179 1092
f 1091 1095 1170
f 1091 1170 1176
f 1092 1179 1180
f 1092 1180 1093
f 1093 1181 1182
f 1093 1182 1183
f 1093 1183 1094
f 1093 1180 1184
f 1093 1184 1185
f 1093 1185 1181
f 1094 1183 1186
f 1094 1186 1187
f 1094 1187 1098
f 1094 1098 1097
f 1095 1096 1175
f 1095 1174 1172
f 1095 1172 1170
f 1098 1187 1186
f 1098 1186 1188
f 1098 1188 1189
f 1098 1189 1190
f 1098 1190 1191
f 1098 1191 1100
f 1098 1100 1099
f 1100 1191 1190
f 1100 1190 1192
f 1100 1192 1193
f 1100 1193 1101
f 1101 1193 1194
f 1101 1194 1104
f 1101 1104 1102
f 1104 1194 1195
f 1104 1195 1107
f 1107 1196 1108
f 1107 1195 1196
f 1108 1197 1198
f 1108 1198 1199
f 1108 1199 1109
f 1108 1196 1197
f 1109 1199 1200
f 1109 1200 1111
f 1109 1111 1113
f 1109 1113 1110
f 1111 1200 1199
f 1111 1199 1114
f 1114 1199 1198
f 1114 1198 1115
f 1115 1198 1197
f 1115 1197 1201
f 1115 1201 1116
f 1116 1202 1120
f 1116 1201 1202
f 1117 1119 1123
f 1117 1123 1122
f 1118 1121 1120
f 1118 1120 1203
f 1118 1203 1119
f 1119 1204 1123
f 1119 1203 1204
f 1120 1202 1203
f 1123 1127 1125
f 1123 1125 1124
f 1123 1204 1127
f 1125 1127 1126
f 1127 1205 1128
f 1127 1204 1203
f 1127 1203 1206
f 1127 1206 1205
f 1128 1205 1129
f 1129 1205 1207
f 1129 1207 1130
f 1130 1207 1205
f 1130 1205 1208
f 1130 1208 1132
f 1130 1132 1131
f 1132 1208 1209
f 1132 1209 1210
f 1132 1210 1211
f 1132 1211 1212
f 1132 1212 1133
f 1133 1212 1134
f 1134 1212 1213
f 1134 1213 1214
f 1134 1214 1135
f 1135 1214 1215
f 1135 1215 1188
f 1135 1188 1186
f 1135 1186 1142
f 1136 1143 1137
f 1137 1143 1216
f 1137 1216 1217
f 1137 1217 1138
f 1138 1217 1139
f 1139 1185 1219
f 1139 1219 1140
f 1139 1217 1218
f 1139 1218 1181
f 1139 1181 1185
f 1140 1219 1148
f 1140 1148 1141
f 1142 1186 1220
f 1142 1220 1221
f 1142 1221 1143
f 1143 1221 1216
f 1144 1149 1222
f 1144 1222 1145
f 1145 1222 1223
f 1145 1223 1224
f 1145 1224 1225
f 1145 1225 1226
f 1147 1226 1225
f 1147 1225 1150
f 1148 1219 1185
f 1148 1185 1227
f 1148 1227 1228
f 1148 1228 1177
f 1148 1177 1229
f 1148 1229 1222
f 1148 1222 1149
f 1150 1225 1224
f 1150 1224 1168
f 1150 1168 1163
f 1150 1163 1230
f 1150 1230 1151
f 1151 1230 1152
f 1152 1230 1163
f 1152 1163 1153
f 1153 1163 1154
f 1154 1163 1161
f 1154 1161 1155
f 1155 1161 1157
f 1155 1157 1156
f 1157 1161 1160
f 1157 1160 1159
f 1157 1159 1158
f 1161 1163 1162
f 1163 1168 1166
f 1163 1166 1165
f 1163 1165 1164
f 1166 1168 1167
f 1168 1224 1223
f 1168 1223 1231
f 1168 1231 1229
f 1168 1229 1232
f 1168 1232 1233
f 1168 1233 1171
f 1168 1171 1169
f 1170 1171 1233
f 1170 1233 1232
f 1170 1232 1176
f 1172 1174 1173
f 1176 1232 1229
f 1176 1229 1177
f 1177 1228 1178
f 1178 1228 1179
f 1179 1228 1180
f 1180 1228 1227
f 1180 1227 1184
f 1181 1221 1234
f 1181 1234 1182
f 1181 1218 1216
f 1181 1216 1221
f 1182 1234 1183
f 1183 1234 1186
f 1184 1227 1185
f 1186 1234 1220
f 1188 1215 1213
f 1188 1213 1189
f 1189 1213 1210
f 1189 1210 1190
f 1190 1210 1235
f 1190 1235 1236
f 1190 1236 1237
f 1190 1237 1238
f 1190 1238 1192
f 1192 1238 1239
f 1192 1239 1240
f 1192 1240 1193
f 1193 1240 1241
f 1193 1241 1194
f 1194 1241 1242
f 1194 1242 1195
f 1195 1242 1243
f 1195 1243 1244
f 1195 1244 1196
f 1196 1244 1201
f 1196 1201 1197
f 1201 1244 1243
f 1201 1243 1245
f 1201 1245 1202
f 1202 1245 1203
f 1203 1245 1246
f 1203 1246 1206
f 1205 1206 1247
f 1205 1247 1209
f 1205 1209 1208
f 1206 1246 1237
f 1206 1237 1236
f 1206 1236 1247
f 1209 1247 1236
f 1209 1236 1235
f 1209 1235 1210
f 1210 1213 1211
f 1211 1213 1212
f 1213 1215 1214
f 1216 1218 1217
f 1220 1234 1221
f 1222 1229 1223
f 1223 1229 1231
f 1237 1246 1238
f 1238 1246 1248
f 1238 1248 1239
f 1239 1248 1249
f 1239 1249 1250
f 1239 1250 1240
f 1240 1250 1242
f 1240 1242 1241
f 1242 1251 1245
f 1242 1245 1252
f 1242 1252 1243
f 1242 1250 1251
f 1243 1252 1245
f 1245 1251 1253
f 1245 1253 1246
f 1246 1253 1248
f 1248 1253 1249
f 1249 1253 1250
f 1250 1253 1251

