# https://github.com/mikedh/trimesh
v -0.00135013 0.00568747 0.00959931
v -0.00135013 0.00568540 0.00957126
v -0.00157991 0.00566568 0.00957126
v -0.00073168 0.00562001 0.01022609
v -0.00082999 0.00563766 0.01009021
v -0.00060250 0.00562417 0.01024450
v -0.00039788 0.00562417 0.01024800
v -0.00060250 0.00563870 0.01009635
v -0.00085057 0.00566049 0.00984739
v -0.00110092 0.00567398 0.00959931
v -0.00110207 0.00566983 0.00957126
v -0.00277222 0.00276184 0.00815204
v -0.00307973 0.00276184 0.00815204
v -0.00163249 0.00565738 0.00957126
v -0.00157762 0.00566049 0.00959493
v -0.00060365 0.00374777 0.01314255
v -0.00035215 0.00552038 0.01050660
v -0.00010409 0.00555152 0.01050660
v 0.00014512 0.00553595 0.01050660
v 0.00033032 0.00551831 0.01050660
v -0.00040359 0.00562624 0.01009635
v -0.00045732 0.00562209 0.00995434
v -0.00070425 0.00562313 0.00970363
v -0.00089401 0.00563143 0.00957126
v 0.00243830 0.00409337 0.00902514
v 0.00197418 0.00119057 0.00815204
v -0.00502425 0.00172505 0.00815204
v -0.00180968 0.00549340 0.00957126
v 0.00052008 -0.00032051 0.01710569
v 0.00105737 -0.00014096 0.01710569
v -0.00021840 0.00374777 0.01314255
v -0.00616513 -0.00082385 0.01127012
v -0.00616513 -0.00097641 0.01139548
v -0.00126554 -0.00052704 0.01561283
v 0.00416333 0.00456558 0.01186271
v 0.00033032 0.00550897 0.01034618
v 0.00014512 0.00549859 0.01009635
v 0.00033032 0.00544566 0.01008934
v 0.00015427 0.00541868 0.00983950
v -0.00011209 0.00541141 0.00957126
v 0.00274353 0.00409337 0.00923903
v 0.00478979 0.00388996 0.01045050
v 0.00495212 0.00383599 0.01050660
v 0.00247260 0.00407054 0.00902514
v 0.00033032 0.00525055 0.00957126
v 0.00197075 0.00075572 0.00815204
v 0.00270809 0.00390552 0.00902514
v 0.00287156 0.00377995 0.00902514
v 0.00290243 0.00375504 0.00902514
v 0.00292300 0.00373740 0.00902514
v 0.00311391 0.00352776 0.00902514
v 0.00323852 0.00325066 0.00902514
v 0.00332540 0.00301818 0.00902514
v 0.00333911 0.00296940 0.00902514
v 0.00403301 0.00295280 0.00945818
v 0.00525391 0.00275042 0.01022346
v -0.00502425 0.00107018 0.00815204
v -0.00574444 -0.00078338 0.00914786
v -0.00581417 -0.00078338 0.00930916
v -0.00582904 -0.00078338 0.00934948
v -0.00589534 -0.00078338 0.00953795
v -0.00599136 -0.00078338 0.00985265
v -0.00616513 -0.00078338 0.01052764
v -0.00616513 -0.00078338 0.01121577
v -0.00502425 0.00169495 0.00826424
v 0.00052008 -0.00073149 0.01710569
v 0.00142661 -0.00014096 0.01710569
v -0.00616513 -0.00110510 0.01148051
v -0.00616513 -0.00117360 0.01149892
v -0.00616513 -0.00125455 0.01150944
v -0.00126554 -0.00093905 0.01561283
v 0.00458287 0.00433622 0.01186271
v 0.00489724 0.00421999 0.01160060
v 0.00488124 0.00425735 0.01134288
v 0.00488124 0.00421999 0.01116318
v 0.00033032 0.00538962 0.00992278
v 0.00007539 0.00538650 0.00967295
v 0.00311506 0.00409337 0.00950201
v 0.00506986 0.00390656 0.01067403
v 0.00376894 0.00409337 0.00996661
v 0.00523676 0.00385778 0.01074679
v 0.00514988 0.00376334 0.01058111
v 0.00522990 0.00359937 0.01048732
v 0.00506415 0.00366786 0.01043209
v 0.00375294 0.00361286 0.00947834
v 0.00499899 0.00417743 0.01116318
v 0.00449028 0.00409337 0.01050660
v 0.00196618 0.00055542 0.00815204
v 0.00329567 0.00365229 0.00920046
v 0.00502528 0.00339284 0.01021031
v 0.00426850 0.00338765 0.00971590
v 0.00385354 0.00324754 0.00941347
v 0.00354260 0.00319876 0.00920309
v 0.00357918 0.00299950 0.00918030
v 0.00476578 0.00314480 0.00996661
v 0.00509272 0.00299950 0.01014544
v 0.00400558 0.00311989 0.00947659
v 0.00523333 0.00299950 0.01023836
v 0.00540138 0.00300261 0.01037949
v 0.00550998 0.00291959 0.01046365
v 0.00538080 0.00275042 0.01033654
v 0.00543682 0.00268608 0.01039089
v 0.00550883 0.00260098 0.01046277
v 0.00524819 0.00268608 0.01022696
v -0.00502425 0.00102348 0.00817220
v 0.00158093 0.00055542 0.00815204
v -0.00085057 -0.00491497 0.01050748
v -0.00572729 -0.00088924 0.00920747
v -0.00616513 -0.00170393 0.01089669
v -0.00559240 -0.00078338 0.00911017
v 0.00052008 -0.00087263 0.01696105
v 0.00063097 -0.00079376 0.01710569
v -0.00601537 -0.00165204 0.01150155
v -0.00606110 -0.00170393 0.01141827
v -0.00472017 -0.00186479 0.01221861
v 0.00138202 -0.00024267 0.01710569
v 0.00229084 -0.00342880 0.01499570
v 0.00146662 -0.00014096 0.01705484
v 0.00486866 0.00399582 0.01186271
v 0.00481494 0.00418262 0.01186271
v 0.00480579 0.00419300 0.01186271
v -0.00616513 -0.00129607 0.01150944
v -0.00616513 -0.00143306 0.01149980
v -0.00616513 -0.00153995 0.01146210
v -0.00616513 -0.00159703 0.01142528
v 0.00503099 0.00415045 0.01152259
v 0.00505614 0.00416394 0.01134288
v 0.00504814 0.00415149 0.01116318
v 0.00497727 0.00399166 0.01072663
v 0.00527563 0.00389826 0.01091247
v 0.00530878 0.00369277 0.01065387
v 0.00512130 0.00399166 0.01085724
v 0.00530421 0.00343227 0.01043121
v 0.00037261 -0.00423104 0.01050748
v 0.00029030 -0.00432548 0.01050748
v 0.00024001 -0.00437841 0.01050748
v -0.00000692 -0.00458183 0.01050748
v -0.00013724 -0.00468768 0.01050748
v -0.00022640 -0.00474995 0.01050748
v -0.00031443 -0.00480496 0.01050748
v -0.00043675 -0.00486827 0.01050748
v -0.00045961 -0.00487553 0.01050748
v -0.00060136 -0.00490770 0.01050748
v 0.00523105 0.00249927 0.01023836
v 0.00533736 0.00225019 0.01039352
v 0.00529849 0.00205923 0.01042858
v 0.00523676 0.00189214 0.01048907
v 0.00500127 -0.00011294 0.01173648
v 0.00473263 0.00331189 0.00999203
v 0.00518646 0.00324858 0.01026992
v 0.00506186 0.00324858 0.01018664
v 0.00429823 0.00324754 0.00969662
v 0.00534879 0.00324858 0.01039352
v 0.00550769 0.00315310 0.01068543
v 0.00551341 0.00281373 0.01050660
v 0.00551341 0.00275042 0.01045926
v 0.00548369 0.00310328 0.01050660
v 0.00549855 0.00308668 0.01051975
v 0.00551226 0.00268608 0.01046102
v 0.00550998 0.00260098 0.01050660
v 0.00513731 0.00025652 0.01184255
v 0.00505843 -0.00001435 0.01182852
v 0.00504928 0.00002301 0.01174437
v 0.00504014 0.00005415 0.01166986
v 0.00533165 0.00198658 0.01058111
v 0.00539223 0.00250965 0.01037949
v -0.00104605 -0.00487968 0.01050748
v 0.00238686 -0.00396639 0.01433561
v 0.00213765 -0.00395186 0.01433561
v 0.00213765 -0.00389063 0.01453373
v -0.00548723 -0.00138947 0.00968435
v -0.00145987 -0.00472712 0.01050748
v -0.00616513 -0.00170393 0.01134201
v 0.00170325 -0.00340285 0.01500096
v 0.00200390 -0.00361249 0.01496326
v -0.00398740 -0.00187517 0.01272704
v -0.00222922 -0.00211595 0.01371673
v -0.00193657 -0.00209312 0.01394377
v 0.00064240 -0.00079998 0.01710569
v -0.00502425 -0.00191253 0.01194423
v -0.00500139 -0.00188451 0.01199245
v 0.00136716 -0.00027069 0.01710569
v 0.00221539 -0.00359589 0.01494924
v 0.00252861 -0.00387195 0.01447938
v 0.00255605 -0.00373288 0.01452408
v 0.00249546 -0.00348380 0.01469239
v 0.00230913 -0.00323473 0.01502901
v 0.00152949 -0.00014096 0.01697332
v 0.00124599 -0.00049175 0.01710569
v 0.00110424 -0.00069828 0.01710569
v 0.00207135 -0.00318906 0.01524816
v 0.00492468 0.00067477 0.01239393
v 0.00502185 0.00067477 0.01224140
v 0.00505271 0.00399582 0.01155414
v 0.00525848 0.00387854 0.01122279
v 0.00527220 0.00389515 0.01109393
v 0.00532822 0.00376438 0.01083533
v 0.00547454 0.00324028 0.01060040
v 0.00536022 0.00350700 0.01058111
v 0.00452686 -0.00088924 0.01195037
v 0.00327624 -0.00337795 0.01294795
v 0.00307390 -0.00365297 0.01315746
v 0.00311048 -0.00370279 0.01333891
v 0.00290814 -0.00382214 0.01333453
v 0.00299960 -0.00384704 0.01358787
v 0.00287499 -0.00390205 0.01358787
v 0.00263493 -0.00399649 0.01383682
v 0.00238686 -0.00400583 0.01408578
v 0.00500241 -0.00011398 0.01174437
v 0.00475778 -0.00061733 0.01196527
v 0.00550769 0.00315310 0.01072575
v 0.00541853 0.00349766 0.01084409
v 0.00551341 0.00281373 0.01051887
v 0.00551341 0.00274938 0.01050660
v 0.00551226 0.00268608 0.01050660
v 0.00551341 0.00274938 0.01055218
v 0.00550312 0.00289053 0.01070997
v 0.00515903 0.00050353 0.01184255
v 0.00507558 0.00025652 0.01207835
v 0.00504357 0.00000641 0.01203277
v 0.00501613 -0.00013577 0.01198982
v 0.00501613 -0.00013577 0.01190303
v -0.00104834 -0.00462853 0.01101503
v -0.00121409 -0.00459843 0.01096244
v -0.00135013 -0.00463683 0.01078449
v -0.00145987 -0.00464098 0.01069069
v 0.00213765 -0.00383251 0.01465908
v 0.00265893 -0.00394356 0.01410682
v 0.00258234 -0.00390516 0.01433561
v 0.00238686 -0.00389375 0.01452759
v -0.00327521 -0.00314340 0.01174524
v -0.00341582 -0.00306037 0.01174524
v -0.00502425 -0.00208066 0.01174524
v -0.00502425 -0.00205679 0.01177505
v 0.00183700 -0.00356891 0.01490541
v 0.00050636 -0.00336445 0.01421902
v 0.00204849 -0.00361249 0.01496326
v 0.00089161 -0.00083216 0.01710569
v 0.00172269 -0.00362910 0.01474060
v 0.00190902 -0.00365920 0.01482739
v -0.00320777 -0.00213463 0.01299090
v 0.00213422 -0.00350041 0.01503251
v 0.00213422 -0.00369033 0.01485369
v 0.00280526 -0.00389790 0.01403669
v 0.00275496 -0.00383355 0.01420325
v 0.00424450 -0.00030183 0.01314255
v 0.00380324 -0.00030183 0.01377634
v 0.00227940 -0.00014096 0.01597925
v 0.00490525 0.00048692 0.01239393
v 0.00501613 0.00054504 0.01223088
v 0.00507672 0.00047862 0.01211605
v 0.00509158 0.00067477 0.01209852
v 0.00330482 -0.00342361 0.01308996
v 0.00323623 -0.00355541 0.01333891
v 0.00308648 -0.00372250 0.01358787
v 0.00284070 -0.00391658 0.01387364
v 0.00284870 -0.00391969 0.01383682
v 0.00476692 -0.00063289 0.01209150
v 0.00550769 0.00305762 0.01072575
v 0.00500584 0.00038106 0.01221598
v 0.00489267 0.00039871 0.01239393
v 0.00485723 0.00018595 0.01239393
v 0.00482180 0.00000433 0.01239393
v 0.00482294 -0.00024371 0.01231504
v 0.00479093 -0.00049071 0.01226945
v 0.00476692 -0.00063601 0.01223527
v -0.00130669 -0.00439087 0.01128240
v -0.00145987 -0.00454861 0.01086952
v -0.00145987 -0.00461607 0.01074065
v -0.00298371 -0.00330115 0.01174524
v -0.00267505 -0.00333332 0.01193196
v -0.00239727 -0.00331775 0.01216076
v -0.00150789 -0.00337587 0.01273931
v -0.00299057 -0.00312057 0.01198017
v -0.00128611 -0.00363844 0.01251403
v -0.00122896 -0.00385950 0.01221861
v -0.00128154 -0.00413245 0.01175927
v 0.00304189 -0.00367788 0.01376231
v 0.00329796 -0.00343088 0.01333891
v 0.00326595 -0.00338832 0.01347303
v -0.00145987 -0.00416254 0.01156729
v -0.00145987 -0.00434935 0.01123594
v -0.00145987 -0.00443030 0.01109042
v -0.00145987 -0.00448012 0.01099750
v -0.00279280 -0.00340078 0.01174524
v -0.00278708 -0.00339144 0.01176628
v -0.00223037 -0.00336342 0.01222124
v -0.00209890 -0.00339559 0.01227208
v -0.00179025 -0.00389582 0.01174524
v -0.00229095 -0.00364882 0.01174524
f 1 2 3
f 1 3 4
f 1 4 5
f 1 5 6
f 1 6 7
f 1 7 8
f 1 8 9
f 1 9 10
f 1 10 2
f 2 10 11
f 2 11 12
f 2 12 13
f 2 13 3
f 3 14 15
f 3 15 4
f 3 13 14
f 4 15 14
f 4 14 16
f 4 16 17
f 4 17 18
f 4 18 6
f 4 6 5
f 6 18 7
f 7 18 19
f 7 19 20
f 7 20 21
f 7 21 9
f 7 9 8
f 9 21 10
f 10 21 22
f 10 22 11
f 11 22 23
f 11 23 24
f 11 24 25
f 11 25 12
f 12 26 46
f 12 46 88
f 12 88 106
f 12 106 57
f 12 57 27
f 12 27 13
f 12 25 26
f 13 27 14
f 14 27 28
f 14 28 16
f 16 29 30
f 16 30 67
f 16 67 31
f 16 31 18
f 16 18 17
f 16 28 32
f 16 32 33
f 16 33 34
f 16 34 29
f 18 31 35
f 18 35 19
f 19 35 20
f 20 36 21
f 20 35 36
f 21 36 22
f 22 36 37
f 22 37 23
f 23 37 38
f 23 38 39
f 23 39 40
f 23 40 24
f 24 40 25
f 25 41 42
f 25 42 43
f 25 43 44
f 25 44 26
f 25 40 45
f 25 45 41
f 26 44 47
f 26 47 48
f 26 48 49
f 26 49 50
f 26 50 51
f 26 51 52
f 26 52 53
f 26 53 54
f 26 54 55
f 26 55 56
f 26 56 46
f 27 57 58
f 27 58 59
f 27 59 60
f 27 60 61
f 27 61 62
f 27 62 63
f 27 63 64
f 27 64 65
f 27 65 28
f 28 65 64
f 28 64 32
f 29 66 112
f 29 112 179
f 29 179 238
f 29 238 190
f 29 190 189
f 29 189 182
f 29 182 116
f 29 116 67
f 29 67 30
f 29 34 71
f 29 71 66
f 31 67 35
f 32 64 63
f 32 63 109
f 32 109 173
f 32 173 125
f 32 125 124
f 32 124 123
f 32 123 122
f 32 122 70
f 32 70 69
f 32 69 68
f 32 68 33
f 33 68 34
f 34 68 69
f 34 69 70
f 34 70 122
f 34 122 71
f 35 72 73
f 35 73 74
f 35 74 36
f 35 67 72
f 36 38 37
f 36 74 75
f 36 75 38
f 38 76 39
f 38 75 76
f 39 76 77
f 39 77 40
f 40 77 45
f 41 78 42
f 41 45 78
f 42 79 43
f 42 78 80
f 42 80 79
f 43 79 81
f 43 81 82
f 43 82 83
f 43 83 84
f 43 84 85
f 43 85 47
f 43 47 44
f 45 77 86
f 45 86 87
f 45 87 80
f 45 80 78
f 46 56 88
f 47 85 89
f 47 89 48
f 48 89 49
f 49 89 50
f 50 89 51
f 51 89 85
f 51 85 90
f 51 90 91
f 51 91 52
f 52 91 92
f 52 92 93
f 52 93 53
f 53 93 94
f 53 94 54
f 54 94 55
f 55 95 96
f 55 96 56
f 55 94 97
f 55 97 95
f 56 96 98
f 56 98 99
f 56 99 100
f 56 100 101
f 56 101 102
f 56 102 103
f 56 103 104
f 56 104 88
f 57 105 58
f 57 106 107
f 57 107 105
f 58 108 109
f 58 109 59
f 58 105 110
f 58 110 108
f 59 109 60
f 60 109 61
f 61 109 62
f 62 109 63
f 66 111 112
f 66 71 113
f 66 113 114
f 66 114 115
f 66 115 111
f 67 116 117
f 67 117 118
f 67 118 119
f 67 119 120
f 67 120 121
f 67 121 72
f 71 122 123
f 71 123 124
f 71 124 125
f 71 125 113
f 72 121 73
f 73 126 127
f 73 127 74
f 73 121 126
f 74 128 86
f 74 86 75
f 74 127 128
f 75 86 77
f 75 77 76
f 79 80 87
f 79 87 129
f 79 129 81
f 81 130 131
f 81 131 83
f 81 83 82
f 81 129 132
f 81 132 130
f 83 131 133
f 83 133 90
f 83 90 85
f 83 85 84
f 86 128 132
f 86 132 87
f 87 132 129
f 88 134 135
f 88 135 136
f 88 136 137
f 88 137 138
f 88 138 139
f 88 139 140
f 88 140 141
f 88 141 142
f 88 142 143
f 88 143 107
f 88 107 106
f 88 104 144
f 88 144 145
f 88 145 146
f 88 146 147
f 88 147 148
f 88 148 134
f 90 149 91
f 90 133 150
f 90 150 151
f 90 151 149
f 91 149 95
f 91 95 152
f 91 152 92
f 92 97 93
f 92 152 95
f 92 95 97
f 93 97 94
f 95 149 151
f 95 151 96
f 96 151 98
f 98 151 150
f 98 150 153
f 98 153 99
f 99 153 100
f 100 154 155
f 100 155 156
f 100 156 101
f 100 153 157
f 100 157 158
f 100 158 154
f 101 156 102
f 102 156 159
f 102 159 103
f 103 159 160
f 103 160 161
f 103 161 162
f 103 162 163
f 103 163 164
f 103 164 165
f 103 165 146
f 103 146 145
f 103 145 166
f 103 166 144
f 103 144 104
f 105 107 167
f 105 167 110
f 107 143 168
f 107 168 169
f 107 169 170
f 107 170 167
f 108 171 109
f 108 110 172
f 108 172 171
f 109 171 172
f 109 172 173
f 110 167 172
f 111 174 175
f 111 175 112
f 111 115 176
f 111 176 177
f 111 177 178
f 111 178 174
f 112 175 179
f 113 125 173
f 113 173 114
f 114 173 180
f 114 180 181
f 114 181 115
f 115 181 180
f 115 180 177
f 115 177 176
f 116 182 117
f 117 183 184
f 117 184 185
f 117 185 186
f 117 186 187
f 117 187 188
f 117 188 118
f 117 182 189
f 117 189 190
f 117 190 191
f 117 191 183
f 118 188 119
f 119 192 193
f 119 193 194
f 119 194 126
f 119 126 120
f 119 188 192
f 120 126 121
f 126 194 195
f 126 195 196
f 126 196 127
f 127 196 130
f 127 130 128
f 128 130 132
f 130 196 197
f 130 197 131
f 131 197 198
f 131 198 199
f 131 199 133
f 133 199 158
f 133 158 157
f 133 157 153
f 133 153 150
f 134 148 200
f 134 200 201
f 134 201 135
f 135 201 136
f 136 201 137
f 137 201 138
f 138 201 202
f 138 202 139
f 139 202 203
f 139 203 140
f 140 203 204
f 140 204 205
f 140 205 141
f 141 205 206
f 141 206 207
f 141 207 142
f 142 207 143
f 143 207 208
f 143 208 168
f 144 166 145
f 146 165 164
f 146 164 148
f 146 148 147
f 148 164 163
f 148 163 162
f 148 162 209
f 148 209 210
f 148 210 201
f 148 201 200
f 154 211 213
f 154 213 155
f 154 158 198
f 154 198 212
f 154 212 211
f 155 213 216
f 155 216 214
f 155 214 156
f 156 214 159
f 158 199 198
f 159 214 216
f 159 216 215
f 159 215 160
f 160 215 216
f 160 216 217
f 160 217 218
f 160 218 161
f 161 218 219
f 161 219 220
f 161 220 221
f 161 221 162
f 162 221 222
f 162 222 209
f 167 223 224
f 167 224 225
f 167 225 226
f 167 226 172
f 167 170 227
f 167 227 223
f 168 208 207
f 168 207 228
f 168 228 229
f 168 229 184
f 168 184 230
f 168 230 170
f 168 170 169
f 170 230 227
f 172 226 231
f 172 231 173
f 173 231 232
f 173 232 233
f 173 233 234
f 173 234 180
f 174 235 175
f 174 178 236
f 174 236 235
f 175 237 238
f 175 238 179
f 175 235 239
f 175 239 240
f 175 240 227
f 175 227 237
f 177 180 241
f 177 241 236
f 177 236 178
f 180 234 241
f 183 230 184
f 183 191 238
f 183 238 242
f 183 242 237
f 183 237 243
f 183 243 230
f 184 229 244
f 184 244 245
f 184 245 185
f 185 245 186
f 186 245 246
f 186 246 247
f 186 247 248
f 186 248 187
f 187 248 188
f 188 248 192
f 190 238 191
f 192 249 250
f 192 250 193
f 192 248 249
f 193 250 251
f 193 251 252
f 193 252 195
f 193 195 194
f 195 252 211
f 195 211 212
f 195 212 196
f 196 212 197
f 197 212 198
f 201 210 253
f 201 253 202
f 202 253 203
f 203 254 205
f 203 205 204
f 203 253 254
f 205 254 255
f 205 255 244
f 205 244 256
f 205 256 257
f 205 257 206
f 206 257 207
f 207 257 256
f 207 256 228
f 209 222 210
f 210 222 258
f 210 258 253
f 211 252 259
f 211 259 216
f 211 216 213
f 216 259 217
f 217 259 218
f 218 252 251
f 218 251 219
f 218 259 252
f 219 251 250
f 219 250 260
f 219 260 261
f 219 261 262
f 219 262 263
f 219 263 264
f 219 264 220
f 220 264 265
f 220 265 266
f 220 266 221
f 221 266 222
f 222 266 258
f 223 227 224
f 224 240 267
f 224 267 268
f 224 268 269
f 224 269 225
f 224 227 240
f 225 269 226
f 226 269 270
f 226 270 231
f 227 230 243
f 227 243 237
f 228 256 244
f 228 244 229
f 231 270 271
f 231 271 272
f 231 272 273
f 231 273 236
f 231 236 274
f 231 274 232
f 232 234 233
f 232 274 236
f 232 236 234
f 234 236 241
f 235 236 239
f 236 273 239
f 237 242 238
f 239 273 275
f 239 275 276
f 239 276 277
f 239 277 240
f 240 277 267
f 244 255 278
f 244 278 245
f 245 278 265
f 245 265 264
f 245 264 246
f 246 264 263
f 246 263 262
f 246 262 247
f 247 262 261
f 247 261 248
f 248 261 249
f 249 261 260
f 249 260 250
f 253 258 266
f 253 266 254
f 254 266 279
f 254 279 255
f 255 279 278
f 265 278 266
f 266 278 280
f 266 280 279
f 267 277 281
f 267 281 282
f 267 282 283
f 267 283 284
f 267 284 268
f 268 284 285
f 268 285 269
f 269 285 270
f 270 285 286
f 270 286 271
f 271 286 287
f 271 287 272
f 272 287 273
f 273 287 288
f 273 288 275
f 275 288 286
f 275 286 289
f 275 289 276
f 276 289 277
f 277 289 281
f 278 279 280
f 281 289 290
f 281 290 286
f 281 286 285
f 281 285 282
f 282 285 283
f 283 285 284
f 286 290 289
f 286 288 287

