# https://github.com/mikedh/trimesh
v -0.00334840 0.00473694 0.00809361
v -0.00334840 0.00473694 0.00815036
v -0.00334840 0.00546589 0.00800150
v -0.00293326 0.00065871 0.00542346
v -0.00334840 0.00717555 0.00815036
v -0.00293326 0.00065871 0.00567838
v -0.00248799 -0.00287444 0.00580534
v 0.00028182 -0.00368548 0.01050435
v -0.00334840 0.00717555 0.00793428
v -0.00293326 0.00349464 0.00541998
v -0.00205255 0.00305792 0.00541998
v -0.00184956 0.00299663 0.00541998
v -0.00160074 0.00298787 0.00541998
v 0.00039314 0.00297365 0.00541998
v 0.00064196 0.00297693 0.00541998
v 0.00089144 0.00298569 0.00541998
v -0.00248799 -0.00287444 0.00550511
v -0.00150252 0.00703655 0.00845457
v -0.00046007 0.00704749 0.00845457
v -0.00295683 0.00717555 0.00815036
v -0.00035465 0.00749625 0.00590242
v -0.00060347 0.00747983 0.00590242
v 0.00028640 -0.00366031 0.01050635
v 0.00040492 -0.00224070 0.01050635
v 0.00043439 -0.00193752 0.01050635
v 0.00138516 -0.00368548 0.00815086
v 0.00039117 -0.00368548 0.01050635
v -0.00069907 0.00746670 0.00590242
v -0.00279902 0.00717555 0.00711726
v -0.00293326 0.00409335 0.00541998
v 0.00089144 0.00298897 0.00541998
v 0.00146701 0.00349136 0.00590242
v 0.00114158 -0.00287444 0.00563705
v 0.00108395 -0.00287444 0.00562261
v 0.00089144 -0.00287444 0.00558278
v 0.00081876 -0.00287444 0.00557233
v 0.00064196 -0.00287444 0.00555938
v 0.00057910 -0.00287444 0.00555689
v 0.00039314 -0.00287444 0.00555291
v 0.00164119 -0.00368548 0.00815086
v -0.00020994 0.00703436 0.00845457
v 0.00014366 0.00745466 0.00610606
v 0.00088489 -0.00193752 0.01050635
v -0.00010582 0.00749516 0.00590242
v -0.00110243 0.00681436 0.00571871
v 0.00060988 -0.00368548 0.01050635
v -0.00125173 0.00681436 0.00572767
v -0.00128840 0.00681436 0.00573464
v -0.00137548 0.00681436 0.00575356
v -0.00160008 0.00681436 0.00581131
v -0.00181355 0.00681436 0.00590292
v -0.00276694 0.00717555 0.00708938
v -0.00224310 0.00668082 0.00621410
v -0.00234852 0.00406489 0.00541998
v 0.00082924 0.00326698 0.00541998
v 0.00089144 0.00326589 0.00542097
v 0.00146636 0.00403753 0.00590242
v 0.00334106 0.00296927 0.00902365
v 0.00137862 -0.00287444 0.00585264
v 0.00132427 -0.00287444 0.00580285
v 0.00165298 -0.00368548 0.00835002
v 0.00148928 -0.00287444 0.00603785
v 0.00153577 -0.00287444 0.00616282
v 0.00333582 0.00278976 0.00902365
v -0.00010975 0.00700043 0.00845457
v -0.00010582 0.00704202 0.00834952
v 0.00308110 0.00356469 0.00902365
v 0.00039314 0.00738789 0.00628032
v 0.00039314 0.00741635 0.00610606
v 0.00014366 0.00747108 0.00590242
v 0.00332731 0.00301743 0.00902365
v 0.00324087 0.00325056 0.00902365
v 0.00311450 0.00352748 0.00902365
v 0.00089406 -0.00199005 0.01050635
v -0.00097867 0.00681436 0.00572169
v -0.00216190 0.00402987 0.00541998
v 0.00136290 -0.00368548 0.00929898
v -0.00092105 0.00681436 0.00572319
v 0.00058630 0.00736819 0.00590242
v 0.00164185 -0.00368548 0.00859945
v 0.00152464 -0.00368548 0.00901469
v 0.00153315 -0.00367454 0.00900324
v 0.00153118 -0.00368548 0.00900075
v 0.00153773 -0.00368548 0.00898581
v 0.00157964 -0.00368548 0.00886234
v 0.00014235 0.00694351 0.00833956
v 0.00002710 0.00694351 0.00845457
v 0.00009258 0.00702779 0.00815036
v 0.00054243 0.00736928 0.00624945
v 0.00058630 0.00733316 0.00629426
v 0.00030932 0.00691068 0.00815036
v 0.00028379 0.00688441 0.00824944
v 0.00008604 0.00691834 0.00845457
v 0.00039314 0.00741854 0.00590242
v 0.00055815 0.00737476 0.00610606
v 0.00056404 0.00737585 0.00590242
v 0.00058630 0.00736819 0.00590790
v 0.00058630 0.00736381 0.00610606
v 0.00014300 0.00700699 0.00815036
v 0.00028379 0.00692819 0.00815036
f 1 2 5
f 1 5 9
f 1 9 3
f 1 3 4
f 1 4 6
f 1 6 2
f 2 6 7
f 2 7 8
f 2 8 5
f 3 9 4
f 4 9 10
f 4 10 11
f 4 11 12
f 4 12 13
f 4 13 14
f 4 14 15
f 4 15 16
f 4 16 17
f 4 17 7
f 4 7 6
f 5 18 19
f 5 19 20
f 5 20 21
f 5 21 22
f 5 22 9
f 5 8 23
f 5 23 24
f 5 24 25
f 5 25 18
f 7 17 8
f 8 17 26
f 8 26 40
f 8 40 61
f 8 61 80
f 8 80 85
f 8 85 84
f 8 84 83
f 8 83 81
f 8 81 77
f 8 77 46
f 8 46 27
f 8 27 23
f 9 22 28
f 9 28 29
f 9 29 30
f 9 30 10
f 10 30 54
f 10 54 76
f 10 76 55
f 10 55 31
f 10 31 16
f 10 16 15
f 10 15 14
f 10 14 13
f 10 13 12
f 10 12 11
f 16 31 32
f 16 32 33
f 16 33 34
f 16 34 35
f 16 35 36
f 16 36 37
f 16 37 38
f 16 38 39
f 16 39 17
f 17 39 40
f 17 40 26
f 18 25 19
f 19 41 42
f 19 42 20
f 19 25 43
f 19 43 41
f 20 42 44
f 20 44 21
f 21 44 45
f 21 45 22
f 22 45 28
f 23 27 46
f 23 46 74
f 23 74 43
f 23 43 25
f 23 25 24
f 28 45 47
f 28 47 48
f 28 48 49
f 28 49 50
f 28 50 51
f 28 51 52
f 28 52 29
f 29 52 51
f 29 51 53
f 29 53 30
f 30 53 51
f 30 51 50
f 30 50 49
f 30 49 48
f 30 48 47
f 30 47 45
f 30 45 54
f 31 55 56
f 31 56 57
f 31 57 32
f 32 57 58
f 32 58 59
f 32 59 60
f 32 60 33
f 33 60 40
f 33 40 34
f 34 40 35
f 35 40 36
f 36 40 37
f 37 40 38
f 38 40 39
f 40 60 59
f 40 59 62
f 40 62 63
f 40 63 64
f 40 64 61
f 41 65 66
f 41 66 42
f 41 43 67
f 41 67 65
f 42 68 69
f 42 69 70
f 42 70 44
f 42 66 68
f 43 58 71
f 43 71 72
f 43 72 73
f 43 73 67
f 43 74 58
f 44 70 45
f 45 75 76
f 45 76 54
f 45 70 75
f 46 77 64
f 46 64 74
f 55 76 56
f 56 76 75
f 56 75 78
f 56 78 79
f 56 79 57
f 57 79 58
f 58 74 64
f 58 64 62
f 58 62 59
f 58 79 71
f 61 64 80
f 62 64 63
f 64 77 81
f 64 81 82
f 64 82 83
f 64 83 84
f 64 84 85
f 64 85 80
f 65 86 66
f 65 67 87
f 65 87 86
f 66 86 88
f 66 88 89
f 66 89 68
f 67 73 90
f 67 90 91
f 67 91 92
f 67 92 93
f 67 93 87
f 68 89 69
f 69 94 70
f 69 89 95
f 69 95 96
f 69 96 94
f 70 94 78
f 70 78 75
f 71 79 72
f 72 79 73
f 73 79 97
f 73 97 98
f 73 98 90
f 78 94 96
f 78 96 79
f 79 96 97
f 81 83 82
f 86 99 88
f 86 87 93
f 86 93 92
f 86 92 91
f 86 91 100
f 86 100 99
f 88 99 89
f 89 90 98
f 89 98 95
f 89 99 90
f 90 99 100
f 90 100 91
f 95 98 97
f 95 97 96

