# https://github.com/mikedh/trimesh
v -0.00035476 0.00549137 0.02128355
v -0.00060372 0.00524264 0.02126419
v -0.00046932 0.00524264 0.02127064
v -0.00035476 0.00524264 0.02127433
v -0.00020863 0.00524264 0.02121347
v -0.00020322 0.00549137 0.02121808
v -0.00020322 0.00574126 0.02121624
v -0.00035476 0.00574126 0.02127525
v -0.00060372 0.00549253 0.02126695
v -0.00074444 0.00524264 0.02120425
v -0.00073452 0.00509619 0.02119687
v -0.00061545 0.00500553 0.02123376
v -0.00054779 0.00474401 0.02122085
v -0.00050901 0.00454294 0.02120609
v -0.00043324 0.00454294 0.02120609
v -0.00035476 0.00499391 0.02124851
v -0.00022757 0.00486141 0.02119503
v -0.00022035 0.00499391 0.02120148
v -0.00003544 0.00449412 0.02085569
v 0.00006289 0.00499391 0.02076255
v 0.00006649 0.00524264 0.02077362
v 0.00007010 0.00549137 0.02078007
v 0.00007371 0.00574126 0.02078284
v -0.00010579 0.00574126 0.02106870
v -0.00000837 0.00598999 0.02090271
v -0.00001559 0.00623988 0.02089073
v -0.00021675 0.00598999 0.02120425
v -0.00022847 0.00611552 0.02119318
v -0.00035476 0.00598999 0.02124574
v -0.00050991 0.00623988 0.02121070
v -0.00056132 0.00598999 0.02123560
v -0.00062086 0.00573080 0.02124206
v -0.00074354 0.00549253 0.02120425
v -0.00106737 0.00524264 0.02100046
v -0.00086892 0.00549253 0.02112679
v -0.00164377 0.00549253 0.02064544
v -0.00259813 0.00549253 0.02004791
v -0.00351009 0.00549253 0.01947434
v -0.00363457 0.00549253 0.01939596
v -0.00273344 0.00532632 0.01995385
v -0.00271179 0.00515895 0.01994094
v -0.00098619 0.00458594 0.02095067
v -0.00087072 0.00449877 0.02100968
v -0.00059741 0.00447436 0.02115169
v -0.00060372 0.00424539 0.02109083
v -0.00052434 0.00381302 0.02097003
v -0.00035476 0.00399666 0.02103827
v -0.00035476 0.00424655 0.02111019
v -0.00039174 0.00450923 0.02118488
v -0.00039174 0.00458013 0.02119964
v -0.00039174 0.00465336 0.02121163
v -0.00026726 0.00469404 0.02117935
v -0.00019329 0.00399666 0.02097741
v -0.00017074 0.00424655 0.02101060
v -0.00001108 0.00349688 0.02066388
v 0.00000786 0.00374677 0.02068048
v -0.00004536 0.00424655 0.02083909
v 0.00028208 0.00349688 0.02021665
v 0.00302428 0.00279602 0.01572867
v 0.00221154 0.00349688 0.01712293
v 0.00054097 0.00499391 0.01998612
v 0.00351770 0.00304823 0.01496977
v 0.00305134 0.00349688 0.01577201
v 0.00277983 0.00374793 0.01623676
v 0.00054367 0.00524264 0.01999073
v 0.00034703 0.00574126 0.02032085
v 0.00006830 0.00598999 0.02077915
v 0.00427812 0.00324931 0.01374518
v 0.00427721 0.00349572 0.01374426
v 0.00006108 0.00623988 0.02076532
v -0.00002642 0.00643050 0.02087321
v -0.00005709 0.00643050 0.02091286
v -0.00030424 0.00628289 0.02117013
v -0.00047112 0.00637006 0.02119595
v -0.00037370 0.00621664 0.02120702
v -0.00015541 0.00643050 0.02103089
v -0.00019600 0.00643050 0.02106132
v -0.00048104 0.00637006 0.02119595
v -0.00063439 0.00623988 0.02113878
v -0.00068581 0.00598999 0.02116275
v -0.00071648 0.00580751 0.02118027
v -0.00073361 0.00564130 0.02119687
v -0.00273344 0.00565409 0.01995385
v -0.00382490 0.00574126 0.01926410
v -0.00383122 0.00549253 0.01927055
v -0.00349115 0.00529378 0.01946236
v -0.00358316 0.00522288 0.01939135
v -0.00129288 0.00449412 0.02073765
v -0.00125950 0.00431397 0.02071645
v -0.00079946 0.00424539 0.02098939
v -0.00075346 0.00408732 0.02096173
v -0.00060552 0.00400247 0.02100323
v -0.00060552 0.00373747 0.02088058
v -0.00060011 0.00350618 0.02075979
v -0.00051352 0.00334578 0.02071829
v -0.00035386 0.00331091 0.02073397
v -0.00035386 0.00349688 0.02083079
v -0.00035476 0.00368401 0.02091562
v -0.00039174 0.00380953 0.02097095
v -0.00035476 0.00380837 0.02097003
v -0.00021675 0.00384556 0.02095343
v -0.00035205 0.00447436 0.02116275
v 0.00007912 0.00349688 0.02053940
v 0.00004755 0.00305986 0.02047669
v 0.00006649 0.00324815 0.02051081
v 0.00027577 0.00332718 0.02020282
v 0.00455414 0.00100725 0.01304068
v 0.00426098 0.00259494 0.01371844
v 0.00426639 0.00275301 0.01372766
v 0.00427361 0.00300058 0.01373873
v 0.00046971 0.00574126 0.02011245
v 0.00026855 0.00587027 0.02044626
v 0.00032448 0.00596907 0.02034114
v 0.00502591 0.00075736 0.01224858
v 0.00436020 0.00324931 0.01359027
v 0.00436291 0.00349572 0.01359027
v 0.00435299 0.00374561 0.01359027
v 0.00427090 0.00374561 0.01373689
v 0.00426459 0.00393274 0.01372582
v 0.00052473 0.00616666 0.01995754
v 0.00005026 0.00643050 0.02074780
v -0.00012835 0.00728594 0.02066388
v -0.00036017 0.00643050 0.02114247
v -0.00041068 0.00643050 0.02115722
v -0.00022216 0.00737079 0.02069985
v -0.00030785 0.00728594 0.02074872
v -0.00035476 0.00728594 0.02074964
v -0.00019419 0.00728594 0.02072290
v -0.00048285 0.00736730 0.02069800
v -0.00060372 0.00683962 0.02093499
v -0.00060372 0.00672921 0.02098386
v -0.00060372 0.00647234 0.02108806
v -0.00078142 0.00649210 0.02097741
v -0.00246463 0.00659322 0.01994278
v -0.00086531 0.00622710 0.02100323
v -0.00101144 0.00598999 0.02096542
v -0.00104843 0.00574126 0.02098939
v -0.00394938 0.00574126 0.01918019
v -0.00395570 0.00549253 0.01918756
v -0.00372838 0.00643398 0.01920508
v -0.00380235 0.00524264 0.01925303
v -0.00371666 0.00463244 0.01919678
v -0.00247455 0.00436860 0.01994832
v -0.00322775 0.00436162 0.01945314
v -0.00143991 0.00392111 0.02042137
v -0.00091853 0.00370028 0.02065466
v -0.00075256 0.00359567 0.02071091
v -0.00067949 0.00342947 0.02066204
v -0.00125409 0.00335043 0.02021573
v -0.00069843 0.00314935 0.02042505
v -0.00053156 0.00308543 0.02048130
v -0.00025463 0.00285646 0.02046010
v -0.00017615 0.00332021 0.02072567
v -0.00017796 0.00285646 0.02046010
v 0.00033620 0.00300058 0.02005159
v -0.00001198 0.00289597 0.02043428
v 0.00027577 0.00236946 0.01995293
v 0.00029291 0.00250080 0.01998059
v 0.00031907 0.00275069 0.02002209
v 0.00195627 0.00225090 0.01736360
v 0.00406975 0.00100609 0.01380789
v 0.00494833 0.00075736 0.01237399
v 0.00475980 0.00109675 0.01272163
v 0.00406704 0.00399550 0.01406240
v 0.00502230 0.00067716 0.01224304
v 0.00509176 0.00067716 0.01210104
v 0.00509807 0.00075736 0.01209366
v 0.00452888 0.00374561 0.01325830
v 0.00446574 0.00374561 0.01338371
v 0.00452708 0.00399550 0.01325000
v 0.00451625 0.00417449 0.01322972
v 0.00031365 0.00643050 0.02027659
v 0.00079264 0.00643050 0.01939689
v 0.00201580 0.00662227 0.01695879
v -0.00012835 0.00745447 0.02056706
v -0.00012835 0.00770437 0.02040108
v -0.00017886 0.00765206 0.02047485
v -0.00035476 0.00766020 0.02048315
v -0.00035476 0.00749632 0.02060763
v -0.00035476 0.00737195 0.02070077
v -0.00051622 0.00763812 0.02046655
v -0.00068130 0.00758116 0.02042044
v -0.00099791 0.00762766 0.02020835
v -0.00148050 0.00761603 0.01994924
v -0.00196039 0.00760208 0.01969012
v -0.00275057 0.00763579 0.01921615
v -0.00244027 0.00758116 0.01943100
v -0.00060372 0.00698375 0.02085661
v -0.00098258 0.00686984 0.02069800
v -0.00067498 0.00679429 0.02091378
v -0.00073722 0.00662809 0.02095067
v -0.00199106 0.00663855 0.02020651
v -0.00277042 0.00667690 0.01972701
v -0.00324038 0.00664320 0.01946051
v -0.00370854 0.00657346 0.01919217
v -0.00391511 0.00598999 0.01914791
v -0.00384836 0.00649791 0.01907875
v -0.00395750 0.00643398 0.01898470
v -0.00397825 0.00642004 0.01896533
v -0.00399358 0.00623988 0.01899023
v -0.00401253 0.00598999 0.01902435
v -0.00403057 0.00574126 0.01905570
v -0.00403959 0.00549253 0.01906400
v -0.00392683 0.00524264 0.01916728
v -0.00403598 0.00524264 0.01904279
v -0.00401433 0.00474401 0.01900129
v -0.00383302 0.00471031 0.01913500
v -0.00384475 0.00449412 0.01907691
v -0.00369140 0.00449412 0.01918019
v -0.00389165 0.00444763 0.01903357
v -0.00397284 0.00436278 0.01895242
v -0.00270728 0.00414195 0.01968828
v -0.00173037 0.00386649 0.02019913
v -0.00201992 0.00381999 0.01997690
v -0.00149494 0.00360032 0.02020928
v -0.00104121 0.00355151 0.02048868
v -0.00244839 0.00340157 0.01943100
v -0.00199557 0.00335740 0.01971225
v -0.00160228 0.00349572 0.02007280
v -0.00347491 0.00336670 0.01870253
v -0.00201000 0.00309821 0.01947434
v -0.00061996 0.00298663 0.02033376
v -0.00042151 0.00292038 0.02040846
v -0.00039264 0.00286227 0.02037434
v -0.00034123 0.00275882 0.02031163
v -0.00026004 0.00260656 0.02021758
v 0.00025592 0.00137105 0.01920508
v 0.00029471 0.00137105 0.01920508
v 0.00014497 0.00220790 0.01989022
v 0.00005026 0.00260308 0.02021389
v 0.00051571 0.00263795 0.01969473
v 0.00052744 0.00280415 0.01971225
v 0.00127072 0.00234505 0.01845724
v 0.00426368 0.00084686 0.01347316
v 0.00055089 0.00157329 0.01924012
v 0.00051751 0.00188246 0.01944760
v 0.00014497 0.00233226 0.01998243
v 0.00046069 0.00140592 0.01917834
v 0.00077550 0.00233459 0.01921246
v 0.00490503 0.00048887 0.01239612
v 0.00489240 0.00040286 0.01239612
v 0.00486985 0.00025758 0.01239612
v 0.00485723 0.00018784 0.01239612
v 0.00513325 0.00067716 0.01186497
v 0.00482295 0.00000652 0.01239612
v 0.00476702 -0.00024105 0.01239612
v 0.00470568 -0.00049094 0.01239612
v 0.00475980 0.00438254 0.01272163
v 0.00456947 0.00425237 0.01311076
v 0.00429886 0.00449412 0.01353955
v 0.00077009 0.00638633 0.01945682
v 0.00251643 0.00563549 0.01646453
v 0.00256063 0.00572731 0.01634189
v 0.00227108 0.00614341 0.01671443
v 0.00231528 0.00623175 0.01658809
v 0.00204828 0.00671758 0.01681955
v 0.00198513 0.00678732 0.01689516
v 0.00252275 0.00614806 0.01622570
v 0.00426008 0.00537049 0.01321865
v 0.00302067 0.00613876 0.01522796
v -0.00012835 0.00786592 0.02026829
v 0.00191928 0.00698258 0.01687580
v 0.00084135 0.00841104 0.01787999
v -0.00014999 0.00791242 0.02024247
v -0.00035476 0.00778456 0.02037710
v -0.00035476 0.00791939 0.02025169
v -0.00052795 0.00788917 0.02022403
v -0.00069483 0.00784384 0.02017793
v -0.00165820 0.00782408 0.01966153
v -0.00135241 0.00765671 0.01998520
v -0.00179531 0.00765904 0.01973715
v -0.00227340 0.00764858 0.01947803
v -0.00332156 0.00772412 0.01881134
v -0.00322414 0.00761719 0.01895242
v -0.00293820 0.00784384 0.01893213
v -0.00325391 0.00788103 0.01872005
v -0.00348393 0.00687914 0.01920693
v -0.00261166 0.00675245 0.01978602
v -0.00350468 0.00728594 0.01896994
v -0.00359849 0.00699305 0.01907691
v -0.00365893 0.00674083 0.01916359
v -0.00381137 0.00674083 0.01903910
v -0.00397825 0.00643398 0.01896072
v -0.00400351 0.00623988 0.01882609
v -0.00398727 0.00643398 0.01882148
v -0.00402065 0.00598999 0.01882609
v -0.00406575 0.00524264 0.01882609
v -0.00407928 0.00499274 0.01882609
v -0.00408198 0.00474401 0.01882609
v -0.00393315 0.00457781 0.01903357
v -0.00402606 0.00499274 0.01902066
v -0.00405131 0.00449296 0.01882425
v -0.00398998 0.00449296 0.01897179
v -0.00390699 0.00449412 0.01903357
v -0.00399900 0.00426631 0.01881134
v -0.00398096 0.00408383 0.01871912
v -0.00374372 0.00334113 0.01847753
v -0.00371666 0.00362357 0.01869792
v -0.00355249 0.00400364 0.01903357
v -0.00299683 0.00409197 0.01946605
v -0.00252326 0.00356545 0.01948357
v -0.00273614 0.00336438 0.01920877
v -0.00314928 0.00353175 0.01903172
v -0.00365893 0.00349455 0.01865550
v -0.00356061 0.00327256 0.01854945
v -0.00348032 0.00311332 0.01845724
v -0.00334502 0.00319468 0.01863152
v -0.00246192 0.00313308 0.01919310
v -0.00326293 0.00357126 0.01897824
v -0.00099701 0.00286227 0.01996123
v -0.00071016 0.00289016 0.02018346
v -0.00054419 0.00282972 0.02024155
v -0.00039264 0.00277742 0.02029503
v 0.00025773 0.00112348 0.01895795
v -0.00042692 0.00266352 0.02015948
v -0.00246463 0.00287970 0.01894320
v -0.00192882 -0.00208211 0.01395358
v 0.00045618 0.00034591 0.01823870
v 0.00064200 0.00038659 0.01828388
v 0.00051030 0.00113278 0.01894873
v 0.00038491 0.00149658 0.01927240
v 0.00064200 0.00048074 0.01836687
v 0.00064200 0.00060510 0.01847476
v 0.00177766 0.00156748 0.01747426
v 0.00179570 0.00175344 0.01750284
v 0.00451355 0.00035405 0.01297429
v 0.00479228 0.00025758 0.01252060
v 0.00181645 0.00200217 0.01753327
v 0.00480942 0.00050631 0.01254919
v 0.00077640 0.00110489 0.01871544
v 0.00077099 0.00062718 0.01845355
v 0.00074393 0.00143381 0.01892384
v 0.00077550 0.00160235 0.01896349
v 0.00153592 0.00130131 0.01773614
v 0.00156117 0.00150471 0.01777210
v 0.00129778 0.00175344 0.01824792
v 0.00477424 0.00005883 0.01249294
v 0.00460014 -0.00080011 0.01239612
v 0.00435208 -0.00128827 0.01239612
v 0.00428533 -0.00139287 0.01239612
v 0.00405170 -0.00160092 0.01239612
v 0.00402284 -0.00162185 0.01239612
v 0.00399217 -0.00163231 0.01239612
v 0.00389565 -0.00165788 0.01239612
v 0.00371975 -0.00169275 0.01239612
v 0.00478596 0.00067716 0.01186497
v 0.00412477 0.00110140 0.01186313
v 0.00480220 0.00353756 0.01186313
v 0.00485272 0.00372120 0.01186313
v 0.00485542 0.00374561 0.01186313
v 0.00486715 0.00399550 0.01186313
v 0.00453249 -0.00024105 0.01275298
v 0.00451445 -0.00038749 0.01272716
v 0.00454512 -0.00073967 0.01251876
v 0.00451806 -0.00089309 0.01248095
v 0.00469305 0.00474285 0.01259161
v 0.00460736 0.00476145 0.01284150
v 0.00452798 0.00476145 0.01300380
v 0.00426098 0.00487768 0.01346855
v 0.00327054 0.00515895 0.01522612
v 0.00202663 0.00689309 0.01672918
v 0.00427721 0.00539955 0.01314396
v 0.00304232 0.00691750 0.01452715
v 0.00327775 0.00648280 0.01440174
v 0.00329309 0.00644444 0.01440174
v 0.00330572 0.00641190 0.01440174
v 0.00251463 0.00686984 0.01571392
v -0.00012835 0.00793566 0.02020928
v 0.00206361 0.00698258 0.01657703
v 0.00081519 0.00846683 0.01787999
v 0.00203114 0.00715577 0.01649496
v 0.00203745 0.00741496 0.01625797
v 0.00228100 0.00739520 0.01574712
v -0.00012835 0.00815533 0.01999350
v -0.00035476 0.00804375 0.02012721
v -0.00035476 0.00816231 0.02000272
v -0.00051803 0.00813093 0.01996860
v -0.00147599 0.00836106 0.01919955
v -0.00292377 0.00833665 0.01842497
v -0.00197392 0.00786244 0.01944945
v -0.00336125 0.00776713 0.01875232
v -0.00351370 0.00766485 0.01873757
v -0.00340906 0.00748934 0.01891369
v -0.00309696 0.00840871 0.01825161
v -0.00324219 0.00812512 0.01846646
v -0.00342079 0.00783106 0.01866287
v -0.00371305 0.00710695 0.01894320
v -0.00376447 0.00694074 0.01899207
v -0.00396472 0.00658741 0.01889802
v -0.00398096 0.00648629 0.01884453
v -0.00397284 0.00662925 0.01873203
v -0.00397284 0.00662925 0.01869792
v -0.00403598 0.00474401 0.01863429
v -0.00403598 0.00471031 0.01863152
v -0.00398637 0.00417798 0.01842866
v -0.00398366 0.00399434 0.01843050
v -0.00397013 0.00386416 0.01844618
v -0.00398817 0.00399782 0.01855314
v -0.00397013 0.00386416 0.01845540
v -0.00394307 0.00391763 0.01862322
v -0.00375094 0.00321328 0.01828204
v -0.00372658 0.00310751 0.01821472
v -0.00346679 0.00262749 0.01794731
v -0.00347762 0.00286924 0.01820642
v -0.00334502 0.00294247 0.01837978
v -0.00218319 0.00290643 0.01917004
v -0.00173307 0.00287157 0.01945314
v 0.00047782 -0.00014109 0.01773061
v -0.00208126 -0.00196240 0.01395358
v -0.00108631 -0.00029916 0.01314396
v -0.00126762 -0.00244591 0.01395358
v -0.00126762 -0.00240174 0.01400799
v 0.00052022 -0.00158581 0.01617867
v 0.00052022 -0.00146377 0.01631422
v 0.00064019 -0.00079778 0.01710541
v 0.00064019 -0.00065831 0.01725018
v 0.00065011 -0.00041306 0.01750100
v 0.00064019 -0.00003648 0.01787538
v 0.00064019 0.00008788 0.01799802
v 0.00078722 0.00036451 0.01821841
v 0.00089186 -0.00066993 0.01726032
v 0.00089186 -0.00053394 0.01738389
v 0.00401562 0.00034940 0.01372582
v 0.00395068 0.00050631 0.01387244
v 0.00079985 0.00075852 0.01849320
v 0.00100101 0.00067135 0.01818060
v 0.00103168 0.00083756 0.01822394
v 0.00080526 0.00125598 0.01875324
v 0.00102717 -0.00037820 0.01746503
v 0.00100101 -0.00009808 0.01769096
v 0.00104611 0.00006929 0.01774536
v 0.00102446 0.00036451 0.01796390
v 0.00103168 0.00133386 0.01847476
v 0.00177045 0.00086662 0.01721329
v 0.00428172 -0.00138823 0.01250308
v 0.00402825 -0.00162649 0.01254181
v 0.00402825 -0.00162649 0.01241640
v 0.00371975 -0.00172413 0.01258423
v 0.00275457 0.00161513 0.01186313
v 0.00287003 0.00154191 0.01186313
v 0.00299632 0.00147333 0.01186313
v 0.00310727 0.00141522 0.01186313
v 0.00320559 0.00137221 0.01186313
v 0.00337247 0.00131991 0.01186313
v 0.00481483 0.00418263 0.01186313
v 0.00352942 -0.00016550 0.01423575
v 0.00426278 -0.00112439 0.01272347
v 0.00431059 -0.00121621 0.01259530
v 0.00431510 -0.00121621 0.01258792
v 0.00468674 0.00476145 0.01259161
v 0.00426278 0.00543093 0.01314396
v 0.00307840 0.00675129 0.01460092
v 0.00421317 0.00552507 0.01314396
v 0.00306487 0.00693609 0.01440174
v 0.00283575 0.00720807 0.01458616
v 0.00271669 0.00728362 0.01483606
v 0.00278885 0.00716041 0.01483606
v 0.00276269 0.00711392 0.01496239
v 0.00303511 0.00667574 0.01476229
v 0.00250561 0.00701048 0.01561341
v 0.00078271 0.00863885 0.01774259
v 0.00075024 0.00858654 0.01787999
v 0.00252094 0.00713020 0.01547601
v -0.00012835 0.00835641 0.01977127
v -0.00015541 0.00839360 0.01974084
v 0.00066906 0.00873067 0.01787999
v 0.00055811 0.00892245 0.01787999
v -0.00035476 0.00828784 0.01985887
v -0.00049006 0.00836571 0.01970395
v -0.00065604 0.00833084 0.01966061
v -0.00275779 0.00837966 0.01847107
v -0.00098258 0.00836338 0.01945221
v -0.00273524 0.00861560 0.01820919
v -0.00290121 0.00858189 0.01816401
v -0.00349566 0.00789963 0.01849689
v -0.00355609 0.00774505 0.01857804
v -0.00372478 0.00737660 0.01870898
v -0.00322865 0.00836920 0.01821196
v -0.00393315 0.00672456 0.01881871
v -0.00373380 0.00741031 0.01857619
v -0.00373289 0.00741263 0.01843695
v -0.00225535 -0.00156838 0.01395358
v -0.00225626 -0.00161952 0.01395358
v -0.00225626 -0.00167182 0.01395358
v -0.00373650 0.00308659 0.01807548
v -0.00221115 -0.00181943 0.01395358
v 0.00052022 -0.00086984 0.01696248
v -0.00105203 0.00000885 0.01314396
v 0.00275638 0.00394668 0.01186313
v 0.00269053 0.00374561 0.01188065
v 0.00258860 0.00199404 0.01186313
v 0.00264091 0.00175926 0.01186313
v 0.00052022 -0.00188801 0.01561525
v 0.00052022 -0.00185779 0.01570193
v 0.00052022 -0.00182641 0.01576833
v 0.00052022 -0.00166834 0.01605603
v 0.00052022 -0.00160092 0.01615746
v 0.00089186 -0.00082916 0.01710725
v 0.00065011 -0.00079778 0.01710725
v 0.00065011 -0.00053743 0.01737467
v 0.00104070 -0.00063971 0.01722989
v 0.00105693 0.00050979 0.01800909
v 0.00227920 -0.00013876 0.01597949
v 0.00205008 0.00025758 0.01651156
v 0.00121479 -0.00048978 0.01714506
v 0.00124546 -0.00048978 0.01710725
v 0.00125809 -0.00035146 0.01719762
v 0.00106415 -0.00023988 0.01751575
v 0.00110474 -0.00069666 0.01710725
v 0.00117781 -0.00058973 0.01710725
v 0.00138077 -0.00023988 0.01710725
v 0.00390377 -0.00121621 0.01314488
v 0.00414732 -0.00121621 0.01282122
v 0.00424294 -0.00121621 0.01269396
v 0.00415905 -0.00147772 0.01258423
v 0.00409410 -0.00154049 0.01258423
v 0.00395428 -0.00165323 0.01258423
v 0.00390648 -0.00166950 0.01258423
v 0.00480581 0.00419193 0.01186313
v 0.00454422 0.00476145 0.01219048
v 0.00463532 0.00476145 0.01232696
v 0.00464434 0.00476145 0.01234171
v 0.00419783 0.00554948 0.01314396
v 0.00278885 0.00698956 0.01501864
v 0.00304864 0.00695934 0.01440174
v 0.00273563 0.00733360 0.01458616
v 0.00201039 0.00810768 0.01541976
v 0.00247314 0.00754281 0.01508503
v 0.00198423 0.00805770 0.01558390
v 0.00200317 0.00800307 0.01561341
v 0.00081699 0.00869231 0.01757846
v 0.00154584 0.00841104 0.01617867
v 0.00045437 0.00904797 0.01787999
v -0.00012835 0.00844591 0.01964955
v -0.00035476 0.00838895 0.01973438
v -0.00012835 0.00851332 0.01954996
v -0.00022486 0.00861211 0.01945129
v -0.00023479 0.00861211 0.01945129
v 0.00156478 0.00844126 0.01608369
v 0.00148540 0.00856678 0.01608369
v 0.00079715 0.00890966 0.01728430
v 0.00051030 0.00910260 0.01768634
v -0.00033221 0.00851797 0.01955088
v -0.00060462 0.00855516 0.01936092
v -0.00058568 0.00841917 0.01957578
v -0.00140203 0.00858887 0.01891369
v -0.00123605 0.00861328 0.01895519
v -0.00156259 0.00863652 0.01875232
v -0.00134610 0.00879808 0.01856144
v -0.00259813 0.00872253 0.01807825
v -0.00282995 0.00865861 0.01808009
v -0.00301036 0.00863652 0.01799802
v -0.00324399 0.00839477 0.01807825
v -0.00351190 0.00793101 0.01832722
v -0.00368238 0.00753467 0.01857619
v -0.00302750 0.00865861 0.01787999
v -0.00349927 0.00791707 0.01816677
v -0.00299322 0.00864582 0.01742538
v -0.00248086 0.00911771 0.01669229
v -0.00199196 0.00914909 0.01592693
v -0.00178178 0.00918164 0.01561341
v -0.00104572 0.00003558 0.01314396
v 0.00347981 0.00476145 0.01186313
v -0.00102317 0.00011694 0.01314396
v -0.00100603 0.00017273 0.01314396
v 0.00402284 0.00476145 0.01186313
v 0.00232881 0.00757419 0.01440174
v 0.00253718 0.00744982 0.01440174
v 0.00282132 0.00723015 0.01440174
v 0.00297287 0.00705348 0.01440174
v 0.00201580 0.00811233 0.01519937
v 0.00201580 0.00811233 0.01525286
v 0.00177225 0.00836803 0.01558390
v 0.00177135 0.00836455 0.01561341
v 0.00170911 0.00841104 0.01575357
v -0.00012835 0.00865861 0.01933049
v 0.00032899 0.00914328 0.01787999
v -0.00012835 0.00883179 0.01901513
v -0.00017255 0.00886549 0.01896256
v -0.00025644 0.00886549 0.01896256
v -0.00033221 0.00865512 0.01932680
v 0.00151156 0.00860747 0.01592878
v 0.00122832 0.00880622 0.01633267
v 0.00102717 0.00887828 0.01673563
v 0.00073761 0.00907587 0.01712477
v 0.00076738 0.00911074 0.01695879
v 0.00053916 0.00912701 0.01752036
v 0.00041288 0.00917582 0.01759413
v 0.00034432 0.00915025 0.01782835
v -0.00076338 0.00886898 0.01871820
v -0.00142728 0.00884806 0.01842681
v -0.00209930 0.00898637 0.01782835
v -0.00259813 0.00882714 0.01787999
v -0.00259813 0.00888990 0.01776011
v -0.00274336 0.00886898 0.01772046
v -0.00252055 0.00913979 0.01727139
v -0.00277493 0.00890152 0.01757846
v -0.00324489 0.00839709 0.01789013
v -0.00303381 0.00866790 0.01782835
v -0.00302028 0.00867372 0.01757846
v -0.00276140 0.00890850 0.01714229
v -0.00250522 0.00913747 0.01683061
v -0.00199827 0.00937574 0.01616853
v -0.00227340 0.00916536 0.01638246
v -0.00204518 0.00923278 0.01608461
v -0.00194054 0.00931530 0.01600255
v -0.00166181 0.00930833 0.01561341
v -0.00153733 0.00937690 0.01561341
v -0.00138308 0.00938620 0.01561341
v 0.00158282 0.00792753 0.01440174
v 0.00191207 0.00777294 0.01440174
v 0.00158282 0.00811698 0.01470143
v 0.00158823 0.00839593 0.01515419
v 0.00175421 0.00835176 0.01524456
v 0.00245780 0.00758233 0.01458616
v 0.00261115 0.00745564 0.01458616
v 0.00177406 0.00836920 0.01541054
v 0.00152058 0.00861560 0.01576279
v 0.00014497 0.00921186 0.01782835
v 0.00014497 0.00919907 0.01787999
v -0.00012835 0.00890269 0.01887127
v -0.00012835 0.00889223 0.01889709
v -0.00012925 0.00912817 0.01826544
v -0.00034574 0.00890385 0.01883531
v -0.00193152 0.00910144 0.01768266
v -0.00227430 0.00912236 0.01747979
v -0.00062357 0.00888409 0.01875232
v 0.00124726 0.00884109 0.01608369
v 0.00110384 0.00893291 0.01633267
v 0.00078181 0.00911887 0.01683061
v 0.00064921 0.00916072 0.01705746
v 0.00057344 0.00914909 0.01732948
v 0.00039393 0.00922464 0.01732948
v -0.00244027 0.00910144 0.01743737
v -0.00235368 0.00915723 0.01734424
v -0.00234826 0.00922232 0.01708051
v -0.00253589 0.00915374 0.01708051
v -0.00278756 0.00893174 0.01732948
v -0.00201992 0.00938504 0.01633267
v -0.00184944 0.00942223 0.01633267
v -0.00185485 0.00939898 0.01608461
v -0.00177457 0.00938271 0.01589373
v -0.00170060 0.00934901 0.01572683
v -0.00160047 0.00942455 0.01608369
v -0.00135061 0.00938620 0.01561341
v -0.00111788 0.00937109 0.01561341
v -0.00108180 0.00936760 0.01561341
v -0.00088425 0.00933738 0.01561341
v -0.00086531 0.00933390 0.01561341
v -0.00060372 0.00928043 0.01561341
v 0.00039664 0.00904216 0.01561341
v 0.00064200 0.00897824 0.01561341
v 0.00094057 0.00889106 0.01561341
v 0.00158282 0.00840058 0.01515788
v 0.00158282 0.00851564 0.01541607
v 0.00152058 0.00861560 0.01567058
v 0.00009265 0.00920604 0.01787999
v 0.00014497 0.00925021 0.01757846
v -0.00010489 0.00922929 0.01782835
v -0.00058568 0.00913515 0.01808839
v -0.00035476 0.00911771 0.01822948
v -0.00012925 0.00917699 0.01807733
v -0.00035476 0.00915839 0.01807733
v -0.00065784 0.00910260 0.01817784
v -0.00085268 0.00909098 0.01814280
v -0.00123064 0.00911074 0.01795468
v -0.00176374 0.00911655 0.01772046
v -0.00209930 0.00913631 0.01751944
v 0.00112278 0.00893174 0.01608369
v 0.00080166 0.00913166 0.01658164
v 0.00064200 0.00919093 0.01683061
v 0.00039393 0.00924789 0.01708051
v -0.00209930 0.00919675 0.01732948
v -0.00209930 0.00925835 0.01708051
v -0.00209930 0.00931181 0.01683061
v -0.00201180 0.00937690 0.01653184
v -0.00160047 0.00942804 0.01633267
v -0.00185936 0.00938620 0.01660100
v -0.00160047 0.00940363 0.01658164
v -0.00135061 0.00941061 0.01633267
v -0.00110165 0.00939201 0.01633267
v -0.00135061 0.00940480 0.01608369
v -0.00135061 0.00939782 0.01583472
v -0.00110345 0.00937806 0.01583472
v -0.00093026 0.00936412 0.01583472
v -0.00096454 0.00936063 0.01569363
v -0.00060372 0.00932111 0.01583472
v -0.00010489 0.00927229 0.01608369
v -0.00035476 0.00927578 0.01583472
v 0.00077460 0.00911306 0.01619619
v 0.00064200 0.00904449 0.01583472
v 0.00089186 0.00898056 0.01583472
v 0.00105964 0.00887479 0.01567150
v 0.00111557 0.00882830 0.01561341
v 0.00138798 0.00869115 0.01561341
v 0.00144661 0.00865396 0.01561341
v 0.00122562 0.00883760 0.01583472
v -0.00010489 0.00921883 0.01787999
v 0.00014497 0.00926881 0.01732948
v -0.00010489 0.00931297 0.01708051
v -0.00035476 0.00933041 0.01708051
v -0.00035476 0.00930251 0.01732948
v -0.00035476 0.00921883 0.01782835
v -0.00072099 0.00936063 0.01695879
v -0.00085178 0.00936063 0.01695971
v -0.00098979 0.00935947 0.01695694
v -0.00115577 0.00935830 0.01694588
v -0.00110345 0.00915723 0.01783020
v -0.00060372 0.00920023 0.01782835
v -0.00085178 0.00917931 0.01782835
v 0.00110023 0.00890385 0.01583472
v 0.00087111 0.00905495 0.01610121
v 0.00079354 0.00912585 0.01633267
v 0.00091892 0.00905843 0.01633267
v 0.00064200 0.00919558 0.01658164
v 0.00039393 0.00926183 0.01683061
v -0.00184944 0.00921883 0.01732948
v -0.00160047 0.00923975 0.01732948
v -0.00110345 0.00927811 0.01733133
v -0.00178269 0.00936412 0.01672549
v -0.00194866 0.00935714 0.01669783
v -0.00135061 0.00940363 0.01658164
v -0.00110165 0.00939317 0.01658164
v -0.00054689 0.00935482 0.01658164
v -0.00160047 0.00937109 0.01675592
v -0.00135061 0.00937690 0.01679649
v -0.00035476 0.00933971 0.01658164
v -0.00010489 0.00931762 0.01658164
v -0.00010489 0.00930135 0.01633267
v -0.00035476 0.00931297 0.01608369
v 0.00014497 0.00926416 0.01633267
v 0.00039393 0.00921999 0.01633267
v 0.00064200 0.00916885 0.01633267
v -0.00010489 0.00932111 0.01683061
v -0.00035476 0.00934087 0.01683061
v -0.00135061 0.00935249 0.01692098
v -0.00085178 0.00923975 0.01757846
v -0.00056042 0.00935482 0.01683061
v -0.00110345 0.00921999 0.01758122
v 0.00039393 0.00925254 0.01658164
v 0.00014497 0.00928624 0.01658164
f 1 2 3
f 1 3 4
f 1 4 5
f 1 5 6
f 1 6 7
f 1 7 8
f 1 8 9
f 1 9 2
f 2 9 10
f 2 10 11
f 2 11 12
f 2 12 13
f 2 13 14
f 2 14 3
f 3 14 4
f 4 14 15
f 4 15 16
f 4 16 17
f 4 17 18
f 4 18 5
f 5 18 19
f 5 19 20
f 5 20 21
f 5 21 6
f 6 21 22
f 6 22 23
f 6 23 24
f 6 24 7
f 7 24 25
f 7 25 26
f 7 26 27
f 7 27 8
f 8 27 28
f 8 28 29
f 8 29 30
f 8 30 31
f 8 31 9
f 9 31 32
f 9 32 33
f 9 33 10
f 10 34 11
f 10 33 35
f 10 35 36
f 10 36 37
f 10 37 38
f 10 38 39
f 10 39 34
f 11 34 40
f 11 40 41
f 11 41 42
f 11 42 43
f 11 43 44
f 11 44 14
f 11 14 12
f 12 14 13
f 14 44 45
f 14 45 46
f 14 46 47
f 14 47 15
f 15 47 48
f 15 48 49
f 15 49 50
f 15 50 51
f 15 51 16
f 16 51 17
f 17 51 50
f 17 50 52
f 17 52 53
f 17 53 54
f 17 54 55
f 17 55 56
f 17 56 57
f 17 57 18
f 18 57 19
f 19 57 58
f 19 58 59
f 19 59 60
f 19 60 20
f 20 61 21
f 20 60 62
f 20 62 63
f 20 63 64
f 20 64 61
f 21 61 22
f 22 61 65
f 22 65 23
f 23 66 67
f 23 67 25
f 23 25 24
f 23 65 68
f 23 68 69
f 23 69 66
f 25 67 26
f 26 67 70
f 26 70 121
f 26 121 71
f 26 71 27
f 27 71 72
f 27 72 28
f 28 73 74
f 28 74 75
f 28 75 29
f 28 72 76
f 28 76 77
f 28 77 73
f 29 75 74
f 29 74 78
f 29 78 30
f 30 78 79
f 30 79 31
f 31 79 80
f 31 80 81
f 31 81 82
f 31 82 32
f 32 82 33
f 33 82 35
f 34 39 40
f 35 82 83
f 35 83 36
f 36 83 37
f 37 83 84
f 37 84 38
f 38 84 39
f 39 84 85
f 39 85 40
f 40 85 86
f 40 86 41
f 41 86 87
f 41 87 88
f 41 88 42
f 42 88 43
f 43 88 89
f 43 89 90
f 43 90 44
f 44 90 45
f 45 90 91
f 45 91 92
f 45 92 46
f 46 93 94
f 46 94 95
f 46 95 96
f 46 96 97
f 46 97 98
f 46 98 99
f 46 99 47
f 46 92 91
f 46 91 93
f 47 99 100
f 47 100 101
f 47 101 48
f 48 52 102
f 48 102 49
f 48 101 52
f 49 52 50
f 49 102 52
f 52 101 53
f 53 101 55
f 53 55 54
f 55 103 56
f 55 101 104
f 55 104 105
f 55 105 103
f 56 103 57
f 57 103 58
f 58 103 106
f 58 106 107
f 58 107 59
f 59 107 108
f 59 108 62
f 59 62 60
f 61 64 68
f 61 68 65
f 62 108 109
f 62 109 63
f 63 109 64
f 64 109 110
f 64 110 68
f 66 111 67
f 66 69 111
f 67 111 112
f 67 112 113
f 67 113 70
f 68 110 114
f 68 114 115
f 68 115 116
f 68 116 69
f 69 116 117
f 69 117 118
f 69 118 111
f 70 113 119
f 70 119 120
f 70 120 121
f 71 121 122
f 71 122 72
f 72 122 76
f 73 77 123
f 73 123 74
f 74 123 124
f 74 124 125
f 74 125 126
f 74 126 127
f 74 127 78
f 76 122 128
f 76 128 77
f 77 128 123
f 78 127 129
f 78 129 130
f 78 130 131
f 78 131 132
f 78 132 133
f 78 133 134
f 78 134 79
f 79 134 135
f 79 135 80
f 80 136 81
f 80 135 136
f 81 137 82
f 81 136 137
f 82 137 83
f 83 137 84
f 84 138 139
f 84 139 85
f 84 137 140
f 84 140 138
f 85 139 141
f 85 141 86
f 86 141 87
f 87 141 142
f 87 142 88
f 88 142 143
f 88 143 89
f 89 143 91
f 89 91 90
f 91 143 144
f 91 144 145
f 91 145 146
f 91 146 147
f 91 147 93
f 93 147 94
f 94 147 148
f 94 148 95
f 95 148 149
f 95 149 150
f 95 150 151
f 95 151 152
f 95 152 96
f 96 153 97
f 96 152 154
f 96 154 153
f 97 153 98
f 98 100 99
f 98 153 100
f 100 153 101
f 101 153 104
f 103 105 155
f 103 155 106
f 104 153 156
f 104 156 157
f 104 157 158
f 104 158 105
f 105 158 159
f 105 159 155
f 106 155 160
f 106 160 107
f 107 161 162
f 107 162 163
f 107 163 108
f 107 160 161
f 108 163 162
f 108 162 114
f 108 114 109
f 109 114 110
f 111 113 112
f 111 118 113
f 113 118 164
f 113 164 119
f 114 165 166
f 114 166 167
f 114 167 168
f 114 168 116
f 114 116 115
f 114 162 165
f 116 168 169
f 116 169 117
f 117 170 118
f 117 169 170
f 118 170 119
f 118 119 164
f 119 170 120
f 120 170 171
f 120 171 172
f 120 172 121
f 121 172 122
f 122 172 173
f 122 173 174
f 122 174 175
f 122 175 125
f 122 125 128
f 123 128 125
f 123 125 124
f 125 175 176
f 125 176 177
f 125 177 178
f 125 178 179
f 125 179 180
f 125 180 127
f 125 127 126
f 127 180 129
f 129 180 179
f 129 179 178
f 129 178 181
f 129 181 182
f 129 182 183
f 129 183 184
f 129 184 185
f 129 185 186
f 129 186 187
f 129 187 188
f 129 188 130
f 130 188 189
f 130 189 190
f 130 190 131
f 131 190 191
f 131 191 132
f 132 191 133
f 133 191 192
f 133 192 134
f 134 192 193
f 134 193 194
f 134 194 135
f 135 194 195
f 135 195 136
f 136 195 137
f 137 195 140
f 138 140 195
f 138 195 196
f 138 196 197
f 138 197 198
f 138 198 199
f 138 199 200
f 138 200 201
f 138 201 202
f 138 202 203
f 138 203 139
f 139 204 141
f 139 203 205
f 139 205 206
f 139 206 204
f 141 204 207
f 141 207 142
f 142 207 208
f 142 208 209
f 142 209 144
f 142 144 143
f 144 209 210
f 144 210 211
f 144 211 212
f 144 212 145
f 145 213 146
f 145 212 213
f 146 213 147
f 147 213 214
f 147 214 215
f 147 215 216
f 147 216 148
f 148 217 218
f 148 218 149
f 148 216 215
f 148 215 219
f 148 219 217
f 149 218 150
f 150 218 220
f 150 220 221
f 150 221 222
f 150 222 151
f 151 222 223
f 151 223 152
f 152 223 224
f 152 224 225
f 152 225 226
f 152 226 227
f 152 227 228
f 152 228 154
f 153 154 156
f 154 228 229
f 154 229 230
f 154 230 156
f 155 159 231
f 155 231 232
f 155 232 233
f 155 233 234
f 155 234 161
f 155 161 160
f 156 230 157
f 157 235 236
f 157 236 158
f 157 230 237
f 157 237 238
f 157 238 235
f 158 236 239
f 158 239 231
f 158 231 159
f 161 234 240
f 161 240 165
f 161 165 162
f 165 240 241
f 165 241 242
f 165 242 243
f 165 243 166
f 166 244 167
f 166 243 245
f 166 245 246
f 166 246 247
f 166 247 244
f 167 244 248
f 167 248 168
f 168 248 170
f 168 170 169
f 170 248 171
f 171 248 249
f 171 249 250
f 171 250 172
f 172 250 251
f 172 251 173
f 173 251 252
f 173 252 253
f 173 253 254
f 173 254 255
f 173 255 174
f 174 256 257
f 174 257 176
f 174 176 175
f 174 255 258
f 174 258 259
f 174 259 260
f 174 260 256
f 176 261 177
f 176 257 262
f 176 262 263
f 176 263 261
f 177 261 264
f 177 264 265
f 177 265 178
f 178 265 181
f 181 265 266
f 181 266 267
f 181 267 268
f 181 268 269
f 181 269 270
f 181 270 271
f 181 271 183
f 181 183 182
f 183 271 184
f 184 271 272
f 184 272 185
f 185 272 186
f 186 273 274
f 186 274 187
f 186 272 275
f 186 275 276
f 186 276 273
f 187 274 188
f 188 274 189
f 189 277 278
f 189 278 193
f 189 193 192
f 189 192 190
f 189 274 279
f 189 279 280
f 189 280 277
f 190 192 191
f 193 278 277
f 193 277 194
f 194 277 281
f 194 281 195
f 195 281 282
f 195 282 197
f 195 197 196
f 197 282 198
f 198 282 283
f 198 283 199
f 199 283 200
f 200 284 201
f 200 283 285
f 200 285 284
f 201 284 202
f 202 284 286
f 202 286 287
f 202 287 288
f 202 288 203
f 203 288 289
f 203 289 205
f 204 206 290
f 204 290 207
f 205 291 206
f 205 289 291
f 206 289 292
f 206 292 293
f 206 293 290
f 206 291 289
f 207 290 294
f 207 294 210
f 207 210 208
f 208 210 209
f 210 293 211
f 210 294 293
f 211 295 296
f 211 296 297
f 211 297 298
f 211 298 299
f 211 299 300
f 211 300 212
f 211 293 292
f 211 292 295
f 212 300 213
f 213 300 214
f 214 300 215
f 215 301 219
f 215 300 299
f 215 299 301
f 217 220 302
f 217 302 218
f 217 219 303
f 217 303 220
f 218 302 220
f 219 301 303
f 220 304 297
f 220 297 305
f 220 305 306
f 220 306 307
f 220 307 308
f 220 308 221
f 220 303 309
f 220 309 298
f 220 298 304
f 221 308 310
f 221 310 222
f 222 310 311
f 222 311 312
f 222 312 223
f 223 312 224
f 224 312 313
f 224 313 225
f 225 313 226
f 226 314 227
f 226 313 315
f 226 315 316
f 226 316 317
f 226 317 314
f 227 314 318
f 227 318 319
f 227 319 228
f 228 320 238
f 228 238 321
f 228 321 229
f 228 319 322
f 228 322 323
f 228 323 320
f 229 237 230
f 229 321 238
f 229 238 237
f 231 239 324
f 231 324 325
f 231 325 326
f 231 326 327
f 231 327 328
f 231 328 233
f 231 233 232
f 233 328 234
f 234 328 327
f 234 327 329
f 234 329 240
f 235 330 236
f 235 238 331
f 235 331 330
f 236 330 332
f 236 332 333
f 236 333 334
f 236 334 335
f 236 335 324
f 236 324 336
f 236 336 239
f 238 320 331
f 239 336 324
f 240 327 241
f 240 329 327
f 241 327 242
f 242 327 337
f 242 337 243
f 243 337 245
f 244 247 338
f 244 338 339
f 244 339 340
f 244 340 341
f 244 341 342
f 244 342 343
f 244 343 344
f 244 344 345
f 244 345 346
f 244 346 347
f 244 347 348
f 244 348 349
f 244 349 350
f 244 350 351
f 244 351 248
f 245 337 246
f 246 337 352
f 246 352 353
f 246 353 247
f 247 354 355
f 247 355 338
f 247 353 354
f 248 351 356
f 248 356 357
f 248 357 358
f 248 358 359
f 248 359 252
f 248 252 360
f 248 360 251
f 248 251 250
f 248 250 249
f 251 360 252
f 252 359 253
f 253 359 254
f 254 359 255
f 255 359 258
f 256 361 257
f 256 260 361
f 257 361 262
f 258 359 259
f 259 359 358
f 259 358 357
f 259 357 362
f 259 362 363
f 259 363 364
f 259 364 365
f 259 365 366
f 259 366 367
f 259 367 361
f 259 361 260
f 261 368 264
f 261 263 368
f 262 361 369
f 262 369 263
f 263 370 368
f 263 369 371
f 263 371 372
f 263 372 373
f 263 373 370
f 264 368 374
f 264 374 375
f 264 375 266
f 264 266 265
f 266 375 267
f 267 375 376
f 267 376 377
f 267 377 378
f 267 378 379
f 267 379 276
f 267 276 380
f 267 380 268
f 268 380 275
f 268 275 269
f 269 275 271
f 269 271 270
f 271 275 272
f 273 381 382
f 273 382 274
f 273 276 381
f 274 382 383
f 274 383 279
f 275 380 276
f 276 379 384
f 276 384 385
f 276 385 386
f 276 386 381
f 277 280 281
f 279 387 280
f 279 383 387
f 280 387 281
f 281 387 388
f 281 388 282
f 282 389 283
f 282 388 389
f 283 390 285
f 283 389 391
f 283 391 390
f 284 285 391
f 284 391 392
f 284 392 286
f 285 390 391
f 286 392 287
f 287 392 288
f 288 392 393
f 288 393 394
f 288 394 289
f 289 394 395
f 289 395 396
f 289 396 397
f 289 397 398
f 289 398 292
f 290 293 294
f 292 296 295
f 292 398 296
f 296 398 399
f 296 399 400
f 296 400 297
f 297 401 402
f 297 402 403
f 297 403 404
f 297 404 306
f 297 306 305
f 297 304 298
f 297 400 401
f 298 309 301
f 298 301 299
f 301 309 303
f 306 404 405
f 306 405 316
f 306 316 406
f 306 406 307
f 307 406 407
f 307 407 308
f 308 407 310
f 310 313 312
f 310 312 311
f 310 407 315
f 310 315 313
f 314 317 408
f 314 408 318
f 315 407 316
f 316 407 406
f 316 405 404
f 316 404 317
f 317 409 410
f 317 410 345
f 317 345 411
f 317 411 412
f 317 412 413
f 317 413 414
f 317 414 408
f 317 404 403
f 317 403 409
f 318 408 415
f 318 415 416
f 318 416 417
f 318 417 418
f 318 418 419
f 318 419 319
f 319 420 322
f 319 419 421
f 319 421 422
f 319 422 420
f 320 323 331
f 322 420 331
f 322 331 323
f 324 335 352
f 324 352 423
f 324 423 424
f 324 424 325
f 325 424 326
f 326 424 337
f 326 337 327
f 330 425 426
f 330 426 427
f 330 427 428
f 330 428 332
f 330 331 425
f 331 426 425
f 331 420 429
f 331 429 430
f 331 430 431
f 331 431 432
f 331 432 426
f 332 428 333
f 333 428 433
f 333 433 434
f 333 434 353
f 333 353 334
f 334 353 335
f 335 353 352
f 337 424 423
f 337 423 352
f 338 355 435
f 338 435 339
f 339 435 340
f 340 435 436
f 340 436 437
f 340 437 341
f 341 437 342
f 342 437 343
f 343 437 344
f 344 437 438
f 344 438 345
f 345 438 411
f 345 410 439
f 345 439 440
f 345 440 441
f 345 441 442
f 345 442 443
f 345 443 346
f 346 443 444
f 346 444 347
f 347 444 443
f 347 443 442
f 347 442 441
f 347 441 440
f 347 440 439
f 347 439 492
f 347 492 491
f 347 491 489
f 347 489 563
f 347 563 566
f 347 566 519
f 347 519 445
f 347 445 351
f 347 351 350
f 347 350 349
f 347 349 348
f 351 445 356
f 353 446 354
f 353 434 446
f 354 446 355
f 355 447 448
f 355 448 449
f 355 449 435
f 355 446 447
f 356 445 450
f 356 450 357
f 357 450 362
f 361 367 369
f 362 451 363
f 362 450 451
f 363 452 364
f 363 451 453
f 363 453 454
f 363 454 455
f 363 455 456
f 363 456 457
f 363 457 458
f 363 458 452
f 364 452 459
f 364 459 365
f 365 459 366
f 366 459 367
f 367 459 460
f 367 460 369
f 368 370 374
f 369 460 372
f 369 372 371
f 370 373 458
f 370 458 461
f 370 461 462
f 370 462 374
f 372 460 463
f 372 463 373
f 373 463 458
f 374 464 465
f 374 465 376
f 374 376 375
f 374 462 466
f 374 466 467
f 374 467 464
f 376 465 468
f 376 468 377
f 377 468 469
f 377 469 470
f 377 470 378
f 378 384 471
f 378 471 379
f 378 470 472
f 378 472 473
f 378 473 474
f 378 474 384
f 379 471 384
f 381 386 382
f 382 386 475
f 382 475 476
f 382 476 477
f 382 477 387
f 382 387 383
f 384 478 385
f 384 474 478
f 385 478 386
f 386 478 475
f 387 477 388
f 388 477 389
f 389 479 391
f 389 477 479
f 391 479 480
f 391 480 392
f 392 480 481
f 392 481 482
f 392 482 395
f 392 395 393
f 393 395 394
f 395 482 483
f 395 483 484
f 395 484 396
f 396 484 397
f 397 399 398
f 397 484 485
f 397 485 399
f 399 485 402
f 399 402 401
f 399 401 400
f 402 485 486
f 402 486 409
f 402 409 403
f 408 414 487
f 408 487 415
f 409 486 410
f 410 486 484
f 410 484 483
f 410 483 482
f 410 482 488
f 410 488 489
f 410 489 490
f 410 490 491
f 410 491 492
f 410 492 439
f 411 438 493
f 411 493 494
f 411 494 495
f 411 495 496
f 411 496 497
f 411 497 413
f 411 413 412
f 413 497 498
f 413 498 499
f 413 499 415
f 413 415 414
f 414 415 487
f 415 499 416
f 416 499 498
f 416 498 500
f 416 500 417
f 417 500 498
f 417 498 418
f 418 498 419
f 419 498 421
f 420 422 501
f 420 501 429
f 421 498 501
f 421 501 422
f 426 432 502
f 426 502 503
f 426 503 447
f 426 447 504
f 426 504 427
f 427 434 428
f 427 504 434
f 428 434 433
f 429 505 506
f 429 506 507
f 429 507 508
f 429 508 430
f 429 501 509
f 429 509 510
f 429 510 505
f 430 508 507
f 430 507 431
f 431 507 432
f 432 507 511
f 432 511 512
f 432 512 513
f 432 513 514
f 432 514 503
f 432 503 502
f 434 504 447
f 434 447 446
f 435 449 448
f 435 448 514
f 435 514 513
f 435 513 512
f 435 512 515
f 435 515 436
f 436 515 516
f 436 516 509
f 436 509 517
f 436 517 437
f 437 517 518
f 437 518 438
f 438 518 493
f 445 519 520
f 445 520 521
f 445 521 522
f 445 522 450
f 447 514 448
f 447 503 514
f 450 522 523
f 450 523 453
f 450 453 451
f 452 458 524
f 452 524 459
f 453 523 454
f 454 525 455
f 454 523 525
f 455 526 527
f 455 527 456
f 455 525 526
f 456 527 528
f 456 528 457
f 457 528 529
f 457 529 530
f 457 530 461
f 457 461 458
f 458 463 524
f 459 524 463
f 459 463 460
f 461 531 467
f 461 467 466
f 461 466 462
f 461 530 532
f 461 532 531
f 464 467 533
f 464 533 534
f 464 534 465
f 465 535 468
f 465 534 536
f 465 536 537
f 465 537 538
f 465 538 535
f 467 531 532
f 467 532 539
f 467 539 540
f 467 540 541
f 467 541 542
f 467 542 533
f 468 535 469
f 469 535 543
f 469 543 544
f 469 544 545
f 469 545 546
f 469 546 473
f 469 473 472
f 469 472 470
f 473 546 547
f 473 547 548
f 473 548 549
f 473 549 550
f 473 550 551
f 473 551 474
f 474 551 552
f 474 552 478
f 475 478 553
f 475 553 554
f 475 554 555
f 475 555 477
f 475 477 476
f 477 555 480
f 477 480 479
f 478 552 556
f 478 556 553
f 480 555 481
f 481 555 554
f 481 554 557
f 481 557 558
f 481 558 482
f 482 558 559
f 482 559 560
f 482 560 561
f 482 561 488
f 484 486 485
f 488 561 562
f 488 562 489
f 489 491 490
f 489 562 564
f 489 564 565
f 489 565 561
f 489 561 563
f 493 518 517
f 493 517 494
f 494 517 495
f 495 517 496
f 496 517 498
f 496 498 497
f 498 509 501
f 498 517 509
f 505 510 506
f 506 510 512
f 506 512 507
f 507 512 511
f 509 512 510
f 509 516 515
f 509 515 512
f 519 566 520
f 520 566 567
f 520 567 568
f 520 568 523
f 520 523 521
f 521 523 522
f 523 568 569
f 523 569 570
f 523 570 525
f 525 570 526
f 526 570 569
f 526 569 571
f 526 571 572
f 526 572 527
f 527 572 573
f 527 573 574
f 527 574 575
f 527 575 528
f 528 575 529
f 529 575 539
f 529 539 532
f 529 532 530
f 533 576 536
f 533 536 534
f 533 542 577
f 533 577 576
f 535 538 543
f 536 576 537
f 537 576 578
f 537 578 579
f 537 579 580
f 537 580 538
f 538 580 581
f 538 581 547
f 538 547 546
f 538 546 544
f 538 544 543
f 539 575 540
f 540 575 582
f 540 582 583
f 540 583 584
f 540 584 541
f 541 584 542
f 542 584 585
f 542 585 586
f 542 586 587
f 542 587 588
f 542 588 589
f 542 589 577
f 544 546 545
f 547 581 548
f 548 581 549
f 549 581 590
f 549 590 591
f 549 591 550
f 550 591 592
f 550 592 593
f 550 593 551
f 551 593 594
f 551 594 595
f 551 595 552
f 552 595 596
f 552 596 597
f 552 597 556
f 553 598 554
f 553 556 599
f 553 599 598
f 554 598 557
f 556 597 599
f 557 598 558
f 558 598 600
f 558 600 601
f 558 601 559
f 559 601 602
f 559 602 603
f 559 603 604
f 559 604 560
f 560 604 561
f 561 604 605
f 561 605 606
f 561 606 607
f 561 607 563
f 561 565 564
f 561 564 562
f 563 607 608
f 563 608 609
f 563 609 610
f 563 610 566
f 566 610 611
f 566 611 567
f 567 611 612
f 567 612 613
f 567 613 614
f 567 614 568
f 568 614 615
f 568 615 569
f 569 615 614
f 569 614 616
f 569 616 571
f 571 614 617
f 571 617 572
f 571 616 614
f 572 617 573
f 573 617 618
f 573 618 582
f 573 582 574
f 574 582 575
f 576 577 578
f 577 589 619
f 577 619 620
f 577 620 621
f 577 621 622
f 577 622 578
f 578 622 579
f 579 622 580
f 580 622 621
f 580 621 623
f 580 623 624
f 580 624 625
f 580 625 626
f 580 626 627
f 580 627 590
f 580 590 581
f 582 618 628
f 582 628 629
f 582 629 583
f 583 629 586
f 583 586 585
f 583 585 584
f 586 629 630
f 586 630 631
f 586 631 632
f 586 632 587
f 587 632 588
f 588 619 589
f 588 632 631
f 588 631 633
f 588 633 619
f 590 627 626
f 590 626 592
f 590 592 591
f 592 626 634
f 592 634 593
f 593 634 594
f 594 634 595
f 595 634 596
f 596 635 636
f 596 636 637
f 596 637 638
f 596 638 597
f 596 634 635
f 597 638 599
f 598 599 600
f 599 638 600
f 600 638 601
f 601 638 602
f 602 637 603
f 602 638 637
f 603 639 640
f 603 640 641
f 603 641 642
f 603 642 643
f 603 643 607
f 603 607 606
f 603 606 604
f 603 637 639
f 604 606 605
f 607 643 608
f 608 643 642
f 608 642 641
f 608 641 644
f 608 644 609
f 609 644 645
f 609 645 610
f 610 645 646
f 610 646 647
f 610 647 648
f 610 648 649
f 610 649 650
f 610 650 651
f 610 651 652
f 610 652 653
f 610 653 612
f 610 612 611
f 612 654 613
f 612 653 654
f 613 654 614
f 614 654 655
f 614 655 656
f 614 656 617
f 617 656 618
f 618 656 628
f 619 657 620
f 619 633 658
f 619 658 659
f 619 659 657
f 620 657 623
f 620 623 621
f 623 660 661
f 623 661 624
f 623 657 662
f 623 662 663
f 623 663 660
f 624 661 664
f 624 664 665
f 624 665 666
f 624 666 667
f 624 667 625
f 625 667 626
f 626 667 668
f 626 668 635
f 626 635 634
f 628 656 669
f 628 669 629
f 629 669 670
f 629 670 630
f 630 670 671
f 630 671 631
f 631 671 633
f 633 672 658
f 633 671 672
f 635 673 674
f 635 674 636
f 635 668 673
f 636 674 675
f 636 675 676
f 636 676 637
f 637 676 639
f 639 676 640
f 640 677 644
f 640 644 641
f 640 676 678
f 640 678 679
f 640 679 677
f 644 677 680
f 644 680 681
f 644 681 682
f 644 682 683
f 644 683 645
f 645 683 646
f 646 683 684
f 646 684 685
f 646 685 686
f 646 686 647
f 647 686 648
f 648 686 687
f 648 687 688
f 648 688 649
f 649 688 689
f 649 689 650
f 650 689 690
f 650 690 651
f 651 690 691
f 651 691 692
f 651 692 652
f 652 692 653
f 653 692 693
f 653 693 694
f 653 694 654
f 654 694 655
f 655 694 695
f 655 695 696
f 655 696 656
f 656 696 697
f 656 697 669
f 657 659 698
f 657 698 662
f 658 672 699
f 658 699 700
f 658 700 701
f 658 701 702
f 658 702 659
f 659 703 698
f 659 702 704
f 659 704 705
f 659 705 706
f 659 706 707
f 659 707 703
f 660 666 661
f 660 663 708
f 660 708 666
f 661 666 664
f 662 698 703
f 662 703 709
f 662 709 663
f 663 709 710
f 663 710 708
f 664 666 665
f 666 708 673
f 666 673 667
f 667 673 668
f 669 711 712
f 669 712 713
f 669 713 714
f 669 714 670
f 669 697 711
f 670 714 713
f 670 713 715
f 670 715 671
f 671 715 716
f 671 716 672
f 672 716 699
f 673 708 717
f 673 717 674
f 674 717 718
f 674 718 719
f 674 719 720
f 674 720 721
f 674 721 675
f 675 721 676
f 676 721 678
f 677 679 722
f 677 722 704
f 677 704 723
f 677 723 724
f 677 724 680
f 678 721 720
f 678 720 725
f 678 725 726
f 678 726 679
f 679 726 706
f 679 706 705
f 679 705 722
f 680 724 681
f 681 724 727
f 681 727 683
f 681 683 682
f 683 727 684
f 684 727 685
f 685 727 728
f 685 728 686
f 686 728 729
f 686 729 730
f 686 730 687
f 687 730 731
f 687 731 688
f 688 731 732
f 688 732 689
f 689 732 733
f 689 733 690
f 690 713 712
f 690 712 692
f 690 692 691
f 690 733 713
f 692 711 693
f 692 712 711
f 693 711 695
f 693 695 694
f 695 711 697
f 695 697 696
f 699 716 700
f 700 734 735
f 700 735 701
f 700 716 734
f 701 735 704
f 701 704 702
f 703 707 736
f 703 736 719
f 703 719 737
f 703 737 709
f 704 735 738
f 704 738 723
f 704 722 705
f 706 726 707
f 707 726 736
f 708 710 739
f 708 739 717
f 709 737 739
f 709 739 710
f 713 733 715
f 715 733 740
f 715 740 716
f 716 740 741
f 716 741 728
f 716 728 734
f 717 739 718
f 718 739 719
f 719 739 737
f 719 736 725
f 719 725 720
f 723 738 735
f 723 735 724
f 724 735 727
f 725 736 726
f 727 735 734
f 727 734 728
f 728 741 729
f 729 741 740
f 729 740 731
f 729 731 730
f 731 740 732
f 732 740 733

