# https://github.com/mikedh/trimesh
v -0.00030342 0.00100451 0.00735298
v -0.00030996 0.00075518 0.00735298
v -0.00036732 0.00075518 0.00710339
v -0.00036375 0.00100451 0.00710339
v -0.00036658 0.00125372 0.00710339
v -0.00031204 0.00125372 0.00735298
v -0.00033775 0.00125372 0.00760182
v -0.00033225 0.00100451 0.00760182
v -0.00033656 0.00075518 0.00760182
v -0.00037282 0.00065809 0.00760167
v -0.00040967 0.00056012 0.00760167
v -0.00035127 0.00065809 0.00735283
v -0.00042483 0.00057435 0.00710339
v -0.00039808 0.00065809 0.00710339
v -0.00045901 0.00060772 0.00695301
v -0.00037386 0.00075518 0.00708941
v -0.00037059 0.00100451 0.00708941
v -0.00037059 0.00102542 0.00708941
v -0.00037327 0.00125385 0.00708941
v -0.00037475 0.00126770 0.00708941
v -0.00042736 0.00143266 0.00708941
v -0.00042468 0.00143518 0.00710339
v -0.00041131 0.00144425 0.00760182
v -0.00040001 0.00144891 0.00735298
v -0.00044222 0.00142057 0.00778091
v -0.00042364 0.00125372 0.00780813
v -0.00042364 0.00100451 0.00780813
v -0.00042468 0.00075518 0.00780739
v -0.00043553 0.00065809 0.00779088
v -0.00040016 0.00065809 0.00770803
v -0.00044326 0.00059236 0.00777972
v -0.00060673 0.00042676 0.00761967
v -0.00055501 0.00042488 0.00735283
v -0.00039749 0.00054954 0.00735283
v -0.00061193 0.00044553 0.00710339
v -0.00045545 0.00065796 0.00694810
v -0.00062025 0.00056969 0.00686347
v -0.00071417 0.00061893 0.00672023
v -0.00050077 0.00065796 0.00690556
v -0.00044846 0.00075518 0.00693918
v -0.00044787 0.00100451 0.00693843
v -0.00044787 0.00125385 0.00693843
v -0.00045842 0.00140597 0.00695182
v -0.00059053 0.00148530 0.00708941
v -0.00060405 0.00149311 0.00710339
v -0.00060405 0.00149890 0.00760182
v -0.00059633 0.00145105 0.00785885
v -0.00060405 0.00150356 0.00735298
v -0.00067405 0.00142070 0.00801295
v -0.00052232 0.00125372 0.00793278
v -0.00052232 0.00100451 0.00793278
v -0.00052336 0.00075518 0.00793188
v -0.00061386 0.00065809 0.00797963
v -0.00067539 0.00059223 0.00801176
v -0.00059707 0.00053695 0.00785811
v -0.00074018 0.00038470 0.00771502
v -0.00069173 0.00035914 0.00754857
v -0.00067984 0.00035272 0.00735283
v -0.00070035 0.00036519 0.00718668
v -0.00079026 0.00039717 0.00702024
v -0.00058132 0.00075518 0.00681453
v -0.00086546 0.00046064 0.00687328
v -0.00085327 0.00059324 0.00669821
v -0.00075400 0.00065796 0.00670461
v -0.00071165 0.00065796 0.00671874
v -0.00058072 0.00100451 0.00681379
v -0.00058072 0.00125385 0.00681379
v -0.00060480 0.00148958 0.00708941
v -0.00071298 0.00139337 0.00671963
v -0.00061951 0.00142838 0.00686272
v -0.00085327 0.00147925 0.00685380
v -0.00110234 0.00149348 0.00685380
v -0.00085327 0.00149865 0.00785112
v -0.00085327 0.00144412 0.00804448
v -0.00110234 0.00150280 0.00785112
v -0.00133803 0.00149449 0.00708941
v -0.00085327 0.00125372 0.00811870
v -0.00064670 0.00125372 0.00803139
v -0.00064670 0.00100451 0.00803139
v -0.00064774 0.00075518 0.00803065
v -0.00066424 0.00065809 0.00801949
v -0.00085327 0.00075518 0.00812049
v -0.00085327 0.00065809 0.00808360
v -0.00085327 0.00055962 0.00804612
v -0.00083514 0.00042639 0.00784888
v -0.00083514 0.00031431 0.00761967
v -0.00090647 0.00035889 0.00776410
v -0.00085327 0.00026218 0.00735283
v -0.00086546 0.00033610 0.00710339
v -0.00095655 0.00037551 0.00696922
v -0.00070600 0.00075518 0.00671532
v -0.00110234 0.00057662 0.00668393
v -0.00110234 0.00065796 0.00666222
v -0.00095313 0.00065796 0.00667352
v -0.00085327 0.00065796 0.00668527
v -0.00110234 0.00045195 0.00684532
v -0.00085327 0.00075518 0.00666594
v -0.00070526 0.00100451 0.00671487
v -0.00070526 0.00125385 0.00671487
v -0.00085327 0.00125385 0.00666460
v -0.00085327 0.00142133 0.00669688
v -0.00110234 0.00143896 0.00668215
v -0.00137072 0.00145067 0.00683342
v -0.00110234 0.00144828 0.00805593
v -0.00110234 0.00125372 0.00814548
v -0.00135185 0.00149411 0.00785112
v -0.00160107 0.00149386 0.00735298
v -0.00154519 0.00146326 0.00708941
v -0.00110234 0.00100439 0.00815470
v -0.00085327 0.00100451 0.00812436
v -0.00110234 0.00075518 0.00814860
v -0.00110234 0.00065809 0.00810680
v -0.00110234 0.00054841 0.00805936
v -0.00110234 0.00042374 0.00790139
v -0.00110234 0.00026117 0.00760167
v -0.00110234 0.00035209 0.00777660
v -0.00110234 0.00021710 0.00735283
v -0.00110234 0.00030310 0.00710339
v -0.00110234 0.00037602 0.00696997
v -0.00085327 0.00100451 0.00666460
v -0.00129865 0.00059689 0.00670104
v -0.00110234 0.00075518 0.00663678
v -0.00123073 0.00037992 0.00697651
v -0.00110234 0.00100451 0.00663515
v -0.00110234 0.00125385 0.00663515
v -0.00130028 0.00141667 0.00670000
v -0.00155262 0.00142397 0.00690288
v -0.00162202 0.00145080 0.00708390
v -0.00135185 0.00143619 0.00803199
v -0.00135185 0.00125372 0.00809163
v -0.00159319 0.00143027 0.00783654
v -0.00150477 0.00140760 0.00799837
v -0.00160107 0.00148064 0.00760182
v -0.00177360 0.00143921 0.00735298
v -0.00135185 0.00100451 0.00809535
v -0.00135185 0.00075518 0.00809193
v -0.00123490 0.00065809 0.00808687
v -0.00135185 0.00057221 0.00803214
v -0.00135245 0.00044376 0.00784383
v -0.00126967 0.00036456 0.00775592
v -0.00135245 0.00033522 0.00759082
v -0.00135185 0.00030235 0.00735283
v -0.00132897 0.00035348 0.00712629
v -0.00136121 0.00065796 0.00671532
v -0.00131306 0.00065796 0.00669524
v -0.00134784 0.00050245 0.00685633
v -0.00155307 0.00057435 0.00690244
v -0.00133580 0.00075518 0.00668617
v -0.00139688 0.00040813 0.00705847
v -0.00133684 0.00100451 0.00668542
v -0.00133684 0.00125385 0.00668542
v -0.00146137 0.00125385 0.00673852
v -0.00159245 0.00125385 0.00686317
v -0.00171728 0.00125385 0.00699257
v -0.00174002 0.00135157 0.00708941
v -0.00175517 0.00141705 0.00715441
v -0.00151889 0.00125372 0.00800953
v -0.00175948 0.00142259 0.00760182
v -0.00173630 0.00139476 0.00774358
v -0.00164372 0.00125372 0.00787685
v -0.00182116 0.00125372 0.00735298
v -0.00151889 0.00100451 0.00800953
v -0.00151829 0.00075518 0.00800893
v -0.00150417 0.00060608 0.00799763
v -0.00135185 0.00065809 0.00806025
v -0.00159289 0.00056768 0.00783594
v -0.00143596 0.00039692 0.00766653
v -0.00148664 0.00037513 0.00750023
v -0.00148575 0.00037576 0.00735283
v -0.00147832 0.00038005 0.00722476
v -0.00146048 0.00075518 0.00673808
v -0.00162930 0.00065796 0.00694453
v -0.00157149 0.00065796 0.00688399
v -0.00159899 0.00050232 0.00710711
v -0.00175428 0.00059651 0.00715575
v -0.00146137 0.00100451 0.00673659
v -0.00159423 0.00100451 0.00686138
v -0.00171891 0.00100451 0.00699257
v -0.00175829 0.00125385 0.00708941
v -0.00177003 0.00125372 0.00711752
v -0.00179307 0.00125372 0.00760182
v -0.00174165 0.00125372 0.00775205
v -0.00164372 0.00100451 0.00787685
v -0.00182160 0.00100451 0.00735298
v -0.00164297 0.00075518 0.00787610
v -0.00170851 0.00065809 0.00778195
v -0.00173585 0.00061767 0.00774253
v -0.00158249 0.00045938 0.00759082
v -0.00175829 0.00059198 0.00760167
v -0.00161043 0.00045132 0.00735283
v -0.00159289 0.00075518 0.00686272
v -0.00171758 0.00075518 0.00699362
v -0.00177226 0.00057611 0.00735283
v -0.00177984 0.00065809 0.00723205
v -0.00176929 0.00075518 0.00711856
v -0.00175725 0.00075518 0.00708941
v -0.00175859 0.00100451 0.00708941
v -0.00175859 0.00119794 0.00708941
v -0.00177003 0.00100451 0.00711752
v -0.00179307 0.00100451 0.00760182
v -0.00174165 0.00100451 0.00775205
v -0.00174106 0.00075518 0.00775131
v -0.00181997 0.00075518 0.00735298
v -0.00179173 0.00075518 0.00760182
v -0.00173749 0.00065809 0.00774536
v -0.00177197 0.00065809 0.00760167
f 1 2 3
f 1 3 4
f 1 4 5
f 1 5 6
f 1 6 7
f 1 7 8
f 1 8 9
f 1 9 2
f 2 9 10
f 2 10 11
f 2 11 12
f 2 12 13
f 2 13 14
f 2 14 3
f 3 14 15
f 3 15 16
f 3 16 4
f 4 16 17
f 4 17 18
f 4 18 5
f 5 18 19
f 5 19 20
f 5 20 21
f 5 21 22
f 5 22 6
f 6 23 7
f 6 22 24
f 6 24 23
f 7 23 25
f 7 25 26
f 7 26 8
f 8 26 27
f 8 27 28
f 8 28 9
f 9 28 29
f 9 29 30
f 9 30 10
f 10 30 31
f 10 31 11
f 11 32 33
f 11 33 34
f 11 34 12
f 11 31 32
f 12 34 13
f 13 34 33
f 13 33 35
f 13 35 15
f 13 15 14
f 15 36 16
f 15 35 37
f 15 37 38
f 15 38 39
f 15 39 36
f 16 36 40
f 16 40 17
f 17 40 41
f 17 41 42
f 17 42 18
f 18 42 19
f 19 42 20
f 20 42 43
f 20 43 21
f 21 43 44
f 21 44 45
f 21 45 22
f 22 45 24
f 23 24 46
f 23 46 47
f 23 47 25
f 24 48 46
f 24 45 48
f 25 47 49
f 25 49 50
f 25 50 26
f 26 50 51
f 26 51 27
f 27 51 28
f 28 51 52
f 28 52 29
f 29 52 31
f 29 31 30
f 31 52 53
f 31 53 54
f 31 54 55
f 31 55 56
f 31 56 32
f 32 56 57
f 32 57 33
f 33 58 59
f 33 59 35
f 33 57 58
f 35 60 37
f 35 59 60
f 36 39 40
f 37 60 38
f 38 61 39
f 38 60 62
f 38 62 63
f 38 63 64
f 38 64 65
f 38 65 61
f 39 61 40
f 40 61 66
f 40 66 41
f 41 66 67
f 41 67 42
f 42 67 43
f 43 68 44
f 43 67 69
f 43 69 70
f 43 70 68
f 44 68 45
f 45 68 71
f 45 71 72
f 45 72 48
f 46 48 73
f 46 73 47
f 47 73 74
f 47 74 49
f 48 75 73
f 48 72 76
f 48 76 75
f 49 74 77
f 49 77 78
f 49 78 50
f 50 78 79
f 50 79 51
f 51 79 80
f 51 80 52
f 52 80 53
f 53 80 81
f 53 81 54
f 54 81 82
f 54 82 83
f 54 83 84
f 54 84 85
f 54 85 56
f 54 56 55
f 56 86 57
f 56 85 87
f 56 87 86
f 57 86 88
f 57 88 58
f 58 88 59
f 59 88 89
f 59 89 60
f 60 89 90
f 60 90 62
f 61 65 91
f 61 91 66
f 62 90 63
f 63 92 93
f 63 93 94
f 63 94 95
f 63 95 64
f 63 90 96
f 63 96 92
f 64 95 97
f 64 97 65
f 65 97 91
f 66 91 98
f 66 98 99
f 66 99 67
f 67 99 69
f 68 70 71
f 69 99 100
f 69 100 101
f 69 101 70
f 70 101 71
f 71 101 102
f 71 102 72
f 72 102 103
f 72 103 76
f 73 75 104
f 73 104 74
f 74 104 105
f 74 105 77
f 75 106 104
f 75 76 107
f 75 107 106
f 76 103 108
f 76 108 107
f 77 105 109
f 77 109 110
f 77 110 78
f 78 110 79
f 79 110 80
f 80 110 82
f 80 82 81
f 82 110 109
f 82 109 111
f 82 111 83
f 83 111 84
f 84 111 112
f 84 112 113
f 84 113 114
f 84 114 85
f 85 114 87
f 86 87 115
f 86 115 88
f 87 114 116
f 87 116 115
f 88 117 89
f 88 115 117
f 89 118 90
f 89 117 118
f 90 118 119
f 90 119 96
f 91 97 120
f 91 120 98
f 92 96 121
f 92 121 93
f 93 122 94
f 93 121 122
f 94 122 97
f 94 97 95
f 96 119 123
f 96 123 121
f 97 122 124
f 97 124 120
f 98 120 100
f 98 100 99
f 100 120 124
f 100 124 125
f 100 125 101
f 101 125 102
f 102 125 126
f 102 126 103
f 103 127 128
f 103 128 108
f 103 126 127
f 104 106 129
f 104 129 105
f 105 129 130
f 105 130 109
f 106 131 132
f 106 132 129
f 106 107 133
f 106 133 131
f 107 134 133
f 107 108 128
f 107 128 134
f 109 130 135
f 109 135 136
f 109 136 111
f 111 136 137
f 111 137 112
f 112 137 138
f 112 138 113
f 113 138 114
f 114 139 140
f 114 140 116
f 114 138 139
f 115 141 117
f 115 116 140
f 115 140 141
f 117 141 142
f 117 142 143
f 117 143 118
f 118 123 119
f 118 143 123
f 121 144 145
f 121 145 122
f 121 123 146
f 121 146 147
f 121 147 144
f 122 145 148
f 122 148 124
f 123 143 149
f 123 149 146
f 124 148 150
f 124 150 151
f 124 151 125
f 125 151 126
f 126 151 152
f 126 152 127
f 127 152 153
f 127 153 154
f 127 154 155
f 127 155 156
f 127 156 128
f 128 156 134
f 129 132 130
f 130 132 157
f 130 157 135
f 131 133 158
f 131 158 159
f 131 159 132
f 132 160 157
f 132 159 160
f 133 134 158
f 134 161 158
f 134 156 161
f 135 157 162
f 135 162 163
f 135 163 136
f 136 163 164
f 136 164 165
f 136 165 137
f 137 165 138
f 138 165 164
f 138 164 139
f 139 164 166
f 139 166 167
f 139 167 140
f 140 167 141
f 141 168 142
f 141 167 168
f 142 169 170
f 142 170 143
f 142 168 169
f 143 170 149
f 144 147 171
f 144 171 145
f 145 171 148
f 146 149 147
f 147 172 173
f 147 173 171
f 147 149 174
f 147 174 175
f 147 175 172
f 148 171 176
f 148 176 150
f 149 170 174
f 150 176 151
f 151 176 152
f 152 176 177
f 152 177 153
f 153 177 154
f 154 178 179
f 154 179 155
f 154 177 178
f 155 179 156
f 156 180 161
f 156 179 180
f 157 160 183
f 157 183 162
f 158 181 159
f 158 161 181
f 159 181 182
f 159 182 160
f 160 182 201
f 160 201 183
f 161 184 181
f 161 180 184
f 162 183 163
f 163 183 185
f 163 185 164
f 164 185 186
f 164 186 187
f 164 187 166
f 166 187 167
f 167 187 188
f 167 188 168
f 168 188 189
f 168 189 190
f 168 190 169
f 169 190 170
f 170 190 175
f 170 175 174
f 171 173 191
f 171 191 177
f 171 177 176
f 172 192 191
f 172 191 173
f 172 175 192
f 175 190 193
f 175 193 194
f 175 194 195
f 175 195 196
f 175 196 192
f 177 191 192
f 177 192 178
f 178 192 196
f 178 196 195
f 178 195 197
f 178 197 198
f 178 198 179
f 179 198 180
f 180 199 184
f 180 198 197
f 180 197 199
f 181 184 200
f 181 200 201
f 181 201 182
f 183 201 202
f 183 202 185
f 184 203 204
f 184 204 200
f 184 199 195
f 184 195 203
f 185 202 205
f 185 205 186
f 186 205 187
f 187 205 204
f 187 204 206
f 187 206 189
f 187 189 188
f 189 206 203
f 189 203 193
f 189 193 190
f 193 203 194
f 194 203 195
f 195 199 197
f 200 204 202
f 200 202 201
f 202 204 205
f 203 206 204

