# https://github.com/mikedh/trimesh
v -0.00030342 0.00100459 0.00735275
v -0.00031204 0.00125382 0.00735275
v -0.00033775 0.00125382 0.00760207
v -0.00033225 0.00100459 0.00760207
v -0.00033656 0.00075511 0.00760207
v -0.00030996 0.00075511 0.00735275
v -0.00036732 0.00075511 0.00710328
v -0.00036375 0.00100459 0.00710328
v -0.00036658 0.00125382 0.00710328
v -0.00040001 0.00144903 0.00735275
v -0.00041131 0.00144437 0.00760207
v -0.00042468 0.00143530 0.00710328
v -0.00044222 0.00142069 0.00778102
v -0.00042364 0.00125382 0.00780809
v -0.00042364 0.00100459 0.00780809
v -0.00042468 0.00075511 0.00780735
v -0.00040016 0.00065801 0.00770798
v -0.00037282 0.00065801 0.00760177
v -0.00043553 0.00065801 0.00779099
v -0.00035959 0.00065801 0.00747681
v -0.00035112 0.00065801 0.00735260
v -0.00042483 0.00057426 0.00710328
v -0.00039793 0.00065801 0.00710328
v -0.00045901 0.00060763 0.00695289
v -0.00037386 0.00075511 0.00708945
v -0.00044846 0.00075523 0.00693935
v -0.00037074 0.00100459 0.00708945
v -0.00037074 0.00102537 0.00708945
v -0.00044787 0.00125382 0.00693861
v -0.00037475 0.00126768 0.00708945
v -0.00042736 0.00143253 0.00708945
v -0.00060405 0.00150356 0.00735275
v -0.00060405 0.00149890 0.00760207
v -0.00060405 0.00149323 0.00710328
v -0.00059633 0.00145117 0.00785897
v -0.00059068 0.00148530 0.00708945
v -0.00067405 0.00142082 0.00801308
v -0.00052232 0.00125382 0.00793290
v -0.00052232 0.00100459 0.00793290
v -0.00052336 0.00075511 0.00793201
v -0.00044326 0.00059227 0.00777968
v -0.00040967 0.00056003 0.00760177
v -0.00039749 0.00054945 0.00735260
v -0.00061193 0.00044542 0.00710328
v -0.00055486 0.00042477 0.00735260
v -0.00045545 0.00065801 0.00694813
v -0.00062010 0.00056960 0.00686334
v -0.00071402 0.00061884 0.00672024
v -0.00050062 0.00065801 0.00690559
v -0.00058147 0.00075523 0.00681470
v -0.00058072 0.00100459 0.00681380
v -0.00044787 0.00100459 0.00693861
v -0.00058072 0.00125382 0.00681380
v -0.00045842 0.00140583 0.00695185
v -0.00110234 0.00150293 0.00785123
v -0.00085327 0.00149877 0.00785123
v -0.00110234 0.00149348 0.00685382
v -0.00133788 0.00149449 0.00708945
v -0.00135185 0.00149449 0.00710328
v -0.00060495 0.00148958 0.00708945
v -0.00085327 0.00147925 0.00685382
v -0.00085327 0.00144424 0.00804447
v -0.00085327 0.00125382 0.00811885
v -0.00064670 0.00125382 0.00803153
v -0.00064670 0.00100459 0.00803153
v -0.00064774 0.00075511 0.00803063
v -0.00061386 0.00065801 0.00797976
v -0.00074018 0.00038460 0.00771497
v -0.00060658 0.00042666 0.00761977
v -0.00067524 0.00059214 0.00801189
v -0.00059692 0.00053685 0.00785822
v -0.00070035 0.00036507 0.00718644
v -0.00079011 0.00039706 0.00702013
v -0.00067970 0.00035261 0.00735260
v -0.00069173 0.00035903 0.00754866
v -0.00071179 0.00065801 0.00671875
v -0.00086531 0.00046054 0.00687316
v -0.00085327 0.00059315 0.00669822
v -0.00075400 0.00065801 0.00670462
v -0.00070615 0.00075523 0.00671533
v -0.00070526 0.00100459 0.00671488
v -0.00071313 0.00139336 0.00671979
v -0.00070526 0.00125382 0.00671488
v -0.00061951 0.00142837 0.00686274
v -0.00135185 0.00149424 0.00785123
v -0.00110234 0.00144840 0.00805607
v -0.00160107 0.00149399 0.00735275
v -0.00110234 0.00143883 0.00668230
v -0.00137072 0.00145054 0.00683344
v -0.00154519 0.00146326 0.00708945
v -0.00085327 0.00142119 0.00669688
v -0.00110234 0.00125382 0.00814547
v -0.00110234 0.00100459 0.00815485
v -0.00085327 0.00100459 0.00812450
v -0.00085327 0.00075511 0.00812048
v -0.00066409 0.00065801 0.00801948
v -0.00083514 0.00031420 0.00761977
v -0.00083514 0.00042628 0.00784885
v -0.00090647 0.00035878 0.00776421
v -0.00085327 0.00055952 0.00804625
v -0.00086531 0.00033598 0.00710328
v -0.00085327 0.00026206 0.00735260
v -0.00095640 0.00037540 0.00696911
v -0.00085327 0.00075523 0.00666594
v -0.00110249 0.00057653 0.00668379
v -0.00110249 0.00065801 0.00666222
v -0.00095313 0.00065801 0.00667353
v -0.00085327 0.00065801 0.00668528
v -0.00110249 0.00045185 0.00684519
v -0.00085327 0.00100459 0.00666460
v -0.00085327 0.00125382 0.00666460
v -0.00160107 0.00148076 0.00760207
v -0.00159319 0.00143039 0.00783651
v -0.00150477 0.00140772 0.00799850
v -0.00135185 0.00143631 0.00803212
v -0.00177360 0.00143933 0.00735275
v -0.00162128 0.00145167 0.00708945
v -0.00163242 0.00144815 0.00708945
v -0.00110234 0.00125382 0.00663515
v -0.00130028 0.00141666 0.00670015
v -0.00155262 0.00142384 0.00690276
v -0.00162187 0.00145066 0.00708395
v -0.00135185 0.00125382 0.00809177
v -0.00110234 0.00075511 0.00814875
v -0.00135185 0.00100459 0.00809534
v -0.00135185 0.00075511 0.00809192
v -0.00110249 0.00026105 0.00760177
v -0.00110249 0.00042364 0.00790151
v -0.00110249 0.00035198 0.00777671
v -0.00110249 0.00054832 0.00805949
v -0.00110249 0.00021710 0.00735260
v -0.00110249 0.00030299 0.00710328
v -0.00110249 0.00037591 0.00696985
v -0.00110234 0.00075523 0.00663678
v -0.00110234 0.00100459 0.00663515
v -0.00129880 0.00059680 0.00670105
v -0.00123073 0.00037981 0.00697654
v -0.00175948 0.00142271 0.00760207
v -0.00173630 0.00139487 0.00774353
v -0.00164372 0.00125382 0.00787682
v -0.00151889 0.00125382 0.00800966
v -0.00182116 0.00125382 0.00735275
v -0.00175517 0.00141716 0.00715431
v -0.00133684 0.00125382 0.00668558
v -0.00146123 0.00125382 0.00673853
v -0.00159230 0.00125382 0.00686319
v -0.00171728 0.00125382 0.00699261
v -0.00135185 0.00065801 0.00806038
v -0.00135185 0.00057212 0.00803227
v -0.00151889 0.00100459 0.00800966
v -0.00151829 0.00075511 0.00800906
v -0.00150908 0.00065801 0.00800163
v -0.00150417 0.00060600 0.00799761
v -0.00135259 0.00033510 0.00759076
v -0.00126967 0.00036445 0.00775603
v -0.00135259 0.00044366 0.00784394
v -0.00135185 0.00030223 0.00735260
v -0.00132911 0.00035336 0.00712619
v -0.00131306 0.00065801 0.00669524
v -0.00133565 0.00075523 0.00668617
v -0.00133684 0.00100459 0.00668558
v -0.00136121 0.00065801 0.00671533
v -0.00134784 0.00050235 0.00685620
v -0.00155307 0.00057426 0.00690231
v -0.00139703 0.00040802 0.00705836
v -0.00179307 0.00125382 0.00760207
v -0.00174165 0.00125382 0.00775216
v -0.00164372 0.00100459 0.00787682
v -0.00182160 0.00100459 0.00735275
v -0.00177003 0.00125382 0.00711756
v -0.00175829 0.00125382 0.00708945
v -0.00146123 0.00100459 0.00673660
v -0.00159408 0.00100459 0.00686155
v -0.00171876 0.00100459 0.00699261
v -0.00164297 0.00075511 0.00787622
v -0.00170866 0.00065801 0.00778206
v -0.00173585 0.00061758 0.00774264
v -0.00159289 0.00056758 0.00783606
v -0.00148679 0.00037502 0.00750032
v -0.00143596 0.00039681 0.00766648
v -0.00148575 0.00037565 0.00735260
v -0.00147846 0.00037994 0.00722467
v -0.00146033 0.00075523 0.00673824
v -0.00162930 0.00065801 0.00694456
v -0.00157149 0.00065801 0.00688387
v -0.00159899 0.00050222 0.00710700
v -0.00175443 0.00059642 0.00715565
v -0.00179307 0.00100459 0.00760207
v -0.00174165 0.00100459 0.00775216
v -0.00181997 0.00075511 0.00735275
v -0.00179173 0.00075511 0.00760207
v -0.00177003 0.00100459 0.00711756
v -0.00176929 0.00075511 0.00711875
v -0.00175859 0.00119791 0.00708945
v -0.00159289 0.00075523 0.00686274
v -0.00171743 0.00075523 0.00699365
v -0.00175725 0.00075511 0.00708945
v -0.00175859 0.00100459 0.00708945
v -0.00174106 0.00075511 0.00775127
v -0.00173749 0.00065801 0.00774532
v -0.00177197 0.00065801 0.00760177
v -0.00175829 0.00059189 0.00760177
v -0.00158249 0.00045928 0.00759076
v -0.00161043 0.00045122 0.00735260
v -0.00177226 0.00057602 0.00735260
v -0.00179411 0.00065801 0.00735260
v -0.00177984 0.00065801 0.00723196
v -0.00176023 0.00065801 0.00714122
f 1 2 3
f 1 3 4
f 1 4 5
f 1 5 6
f 1 6 7
f 1 7 8
f 1 8 9
f 1 9 2
f 2 10 11
f 2 11 3
f 2 9 12
f 2 12 10
f 3 11 13
f 3 13 14
f 3 14 4
f 4 14 15
f 4 15 16
f 4 16 5
f 5 17 18
f 5 18 6
f 5 16 19
f 5 19 17
f 6 18 20
f 6 20 21
f 6 21 22
f 6 22 23
f 6 23 7
f 7 23 24
f 7 24 25
f 7 25 8
f 8 25 26
f 8 26 27
f 8 27 28
f 8 28 9
f 9 28 29
f 9 29 30
f 9 30 31
f 9 31 12
f 10 32 33
f 10 33 11
f 10 12 34
f 10 34 32
f 11 33 35
f 11 35 13
f 12 31 36
f 12 36 34
f 13 35 37
f 13 37 38
f 13 38 14
f 14 38 39
f 14 39 15
f 15 39 16
f 16 39 40
f 16 40 19
f 17 41 18
f 17 19 41
f 18 42 20
f 18 41 42
f 19 40 41
f 20 42 21
f 21 42 43
f 21 43 22
f 22 44 24
f 22 24 23
f 22 43 45
f 22 45 44
f 24 46 25
f 24 44 47
f 24 47 48
f 24 48 49
f 24 49 46
f 25 46 26
f 26 49 50
f 26 50 51
f 26 51 52
f 26 52 27
f 26 46 49
f 27 52 29
f 27 29 28
f 29 52 51
f 29 51 53
f 29 53 54
f 29 54 30
f 30 54 31
f 31 54 36
f 32 55 56
f 32 56 33
f 32 34 57
f 32 57 58
f 32 58 59
f 32 59 55
f 33 56 35
f 34 36 60
f 34 60 61
f 34 61 57
f 35 56 62
f 35 62 37
f 36 54 60
f 37 62 63
f 37 63 64
f 37 64 38
f 38 64 65
f 38 65 39
f 39 65 66
f 39 66 40
f 40 66 67
f 40 67 41
f 41 68 69
f 41 69 42
f 41 67 70
f 41 70 71
f 41 71 68
f 42 45 43
f 42 69 45
f 44 45 72
f 44 72 73
f 44 73 47
f 45 74 72
f 45 69 75
f 45 75 74
f 47 73 48
f 48 76 50
f 48 50 49
f 48 73 77
f 48 77 78
f 48 78 79
f 48 79 76
f 50 76 80
f 50 80 51
f 51 80 81
f 51 81 83
f 51 83 53
f 53 82 54
f 53 83 82
f 54 82 84
f 54 84 60
f 55 85 86
f 55 86 56
f 55 59 87
f 55 87 85
f 56 86 62
f 57 61 88
f 57 88 89
f 57 89 58
f 58 89 90
f 58 90 59
f 59 90 87
f 60 84 61
f 61 84 91
f 61 91 88
f 62 86 92
f 62 92 63
f 63 92 93
f 63 93 94
f 63 94 64
f 64 94 65
f 65 94 66
f 66 94 95
f 66 95 96
f 66 96 67
f 67 96 70
f 68 97 75
f 68 75 69
f 68 71 70
f 68 70 98
f 68 98 99
f 68 99 97
f 70 96 95
f 70 95 100
f 70 100 98
f 72 101 73
f 72 74 102
f 72 102 101
f 73 101 103
f 73 103 77
f 74 75 102
f 75 97 102
f 76 79 104
f 76 104 80
f 77 103 78
f 78 105 106
f 78 106 107
f 78 107 108
f 78 108 79
f 78 103 109
f 78 109 105
f 79 108 104
f 80 104 110
f 80 110 81
f 81 110 111
f 81 111 83
f 82 83 111
f 82 111 91
f 82 91 84
f 85 87 112
f 85 112 113
f 85 113 114
f 85 114 115
f 85 115 86
f 86 115 92
f 87 116 112
f 87 90 117
f 87 117 118
f 87 118 116
f 88 119 120
f 88 120 89
f 88 91 119
f 89 121 122
f 89 122 117
f 89 117 90
f 89 120 121
f 91 111 119
f 92 115 123
f 92 123 93
f 93 124 95
f 93 95 94
f 93 123 125
f 93 125 126
f 93 126 124
f 95 124 100
f 97 99 127
f 97 127 102
f 98 100 128
f 98 128 99
f 99 129 127
f 99 128 129
f 100 124 130
f 100 130 128
f 101 102 131
f 101 131 132
f 101 132 103
f 102 127 131
f 103 132 133
f 103 133 109
f 104 134 135
f 104 135 110
f 104 108 107
f 104 107 134
f 105 109 136
f 105 136 106
f 106 134 107
f 106 136 134
f 109 133 137
f 109 137 136
f 110 135 119
f 110 119 111
f 112 116 138
f 112 138 113
f 113 138 139
f 113 139 114
f 114 139 140
f 114 140 141
f 114 141 123
f 114 123 115
f 116 142 138
f 116 118 143
f 116 143 142
f 117 122 118
f 118 122 121
f 118 121 143
f 119 144 120
f 119 135 161
f 119 161 144
f 120 144 145
f 120 145 121
f 121 145 146
f 121 146 147
f 121 147 143
f 123 141 125
f 124 126 148
f 124 148 149
f 124 149 130
f 125 141 150
f 125 150 151
f 125 151 126
f 126 151 152
f 126 152 153
f 126 153 148
f 127 154 131
f 127 129 155
f 127 155 154
f 128 156 155
f 128 155 129
f 128 130 149
f 128 149 156
f 131 154 157
f 131 157 158
f 131 158 132
f 132 158 137
f 132 137 133
f 134 136 159
f 134 159 160
f 134 160 135
f 135 160 161
f 136 162 159
f 136 137 163
f 136 163 164
f 136 164 162
f 137 158 165
f 137 165 163
f 138 142 166
f 138 166 139
f 139 166 167
f 139 167 140
f 140 168 150
f 140 150 141
f 140 167 189
f 140 189 168
f 142 169 166
f 142 143 170
f 142 170 169
f 143 147 171
f 143 171 170
f 144 172 145
f 144 161 172
f 145 172 173
f 145 173 146
f 146 173 147
f 147 174 171
f 147 173 174
f 148 153 149
f 149 153 156
f 150 168 151
f 151 168 175
f 151 175 153
f 151 153 152
f 153 175 176
f 153 176 177
f 153 177 178
f 153 178 156
f 154 179 157
f 154 155 180
f 154 180 179
f 155 156 180
f 156 178 180
f 157 181 182
f 157 182 158
f 157 179 181
f 158 182 165
f 159 162 160
f 160 162 183
f 160 183 172
f 160 172 161
f 162 164 183
f 163 165 164
f 164 184 185
f 164 185 183
f 164 165 186
f 164 186 187
f 164 187 184
f 165 182 186
f 166 169 188
f 166 188 189
f 166 189 167
f 168 189 175
f 169 190 191
f 169 191 188
f 169 170 192
f 169 192 193
f 169 193 190
f 170 171 194
f 170 194 198
f 170 198 192
f 171 174 194
f 172 183 195
f 172 195 173
f 173 195 174
f 174 196 197
f 174 197 198
f 174 198 194
f 174 195 196
f 175 189 199
f 175 199 176
f 176 199 200
f 176 200 177
f 177 200 191
f 177 191 201
f 177 201 202
f 177 202 203
f 177 203 180
f 177 180 178
f 179 180 203
f 179 203 202
f 179 202 204
f 179 204 181
f 181 204 182
f 182 187 186
f 182 204 187
f 183 185 195
f 184 195 185
f 184 187 196
f 184 196 195
f 187 204 205
f 187 205 206
f 187 206 190
f 187 190 207
f 187 207 208
f 187 208 196
f 188 191 199
f 188 199 189
f 190 202 201
f 190 201 191
f 190 193 208
f 190 208 207
f 190 206 202
f 191 200 199
f 192 198 193
f 193 198 197
f 193 197 208
f 196 208 197
f 202 206 205
f 202 205 204

