# https://github.com/mikedh/trimesh
v 0.00314963 0.00336285 0.04012788
v 0.00314963 0.00331538 0.04012788
v 0.00313667 0.00395326 0.04012788
v 0.00304786 0.00395326 0.04749464
v 0.00314654 0.00282089 0.04012788
v 0.00304786 0.00390430 0.04749464
v 0.00304539 0.00336285 0.04749464
v -0.00313740 0.00395326 0.04012788
v 0.00293930 0.00395326 0.04803645
v 0.00313297 0.00165144 0.04012788
v 0.00304847 0.00173798 0.04641101
v 0.00299728 0.00282089 0.04749464
v 0.00304107 0.00227944 0.04695282
v -0.00314973 0.00340933 0.04012788
v -0.00304735 0.00395326 0.04749464
v 0.00276906 0.00395326 0.04835451
v 0.00293313 0.00390430 0.04803645
v 0.00312187 0.00104274 0.04012788
v 0.00304909 0.00119701 0.04587006
v 0.00304909 0.00065556 0.04532825
v 0.00299111 0.00065556 0.04587006
v 0.00286775 0.00229081 0.04751092
v 0.00290661 0.00169545 0.04699740
v 0.00297939 0.00119701 0.04641101
v 0.00282704 0.00282089 0.04788385
v -0.00315035 0.00336285 0.04012788
v -0.00304735 0.00390430 0.04749464
v -0.00304303 0.00395326 0.04754350
v 0.00276289 0.00390430 0.04834850
v 0.00284369 0.00341229 0.04805445
v 0.00243661 0.00395326 0.04849167
v 0.00304909 -0.00042785 0.04316271
v 0.00309473 0.00043996 0.04012788
v 0.00304909 0.00011360 0.04424634
v 0.00304107 0.00011360 0.04478643
v 0.00281100 0.00069660 0.04637758
v 0.00282087 0.00023574 0.04587006
v 0.00290599 0.00006762 0.04537283
v 0.00298309 -0.00042785 0.04424634
v 0.00281162 0.00184825 0.04734118
v 0.00275673 0.00247921 0.04780326
v 0.00280854 0.00119701 0.04681909
v 0.00271170 0.00362591 0.04830907
v -0.00314788 0.00282089 0.04012788
v -0.00304550 0.00336285 0.04749464
v -0.00290425 0.00395326 0.04807931
v 0.00194379 0.00395326 0.04863913
v 0.00243661 0.00390430 0.04848053
v 0.00304107 -0.00042785 0.04370452
v 0.00287824 -0.00088921 0.04316271
v 0.00298186 -0.00061081 0.04012788
v 0.00304909 -0.00042785 0.04012788
v 0.00274439 0.00035392 0.04617526
v 0.00272897 0.00090478 0.04669992
v 0.00281039 -0.00026468 0.04522194
v 0.00285973 -0.00043824 0.04476157
v 0.00281224 -0.00079476 0.04424634
v 0.00287022 -0.00087091 0.04370452
v 0.00267839 0.00148678 0.04720744
v 0.00238726 0.00229081 0.04785299
v 0.00253530 0.00211823 0.04770296
v 0.00243661 0.00282089 0.04809732
v 0.00243661 0.00349537 0.04835365
v 0.00243661 0.00322489 0.04826106
v -0.00313123 0.00173798 0.04012788
v -0.00304611 0.00065556 0.04532825
v -0.00304673 0.00173798 0.04641101
v -0.00304179 0.00227944 0.04695282
v -0.00299677 0.00282089 0.04749464
v -0.00287588 0.00336285 0.04798673
v -0.00287649 0.00395326 0.04814104
v 0.00189198 0.00395326 0.04865285
v 0.00189506 0.00390430 0.04864170
v 0.00243661 -0.00107019 0.04370452
v 0.00243661 -0.00108848 0.04316271
v 0.00287824 -0.00088921 0.04012788
v 0.00243661 0.00055913 0.04651989
v 0.00243661 0.00028667 0.04624898
v 0.00247238 -0.00001101 0.04586063
v 0.00267654 -0.00014402 0.04558286
v 0.00247362 0.00119603 0.04706856
v 0.00243661 0.00082961 0.04677108
v 0.00274439 -0.00072454 0.04456439
v 0.00243661 -0.00096338 0.04424634
v 0.00231757 0.00137602 0.04729489
v 0.00242612 0.00174539 0.04749892
v 0.00217385 0.00200450 0.04776811
v 0.00189506 0.00227944 0.04800301
v 0.00216090 0.00309583 0.04830564
v 0.00194625 0.00280754 0.04824391
v 0.00194625 0.00331093 0.04843938
v -0.00312074 0.00119701 0.04012788
v -0.00303439 0.00011360 0.04478643
v -0.00298505 0.00065556 0.04587006
v -0.00298628 0.00119701 0.04641101
v -0.00304611 0.00011360 0.04424634
v -0.00303933 -0.00042785 0.04370452
v -0.00290672 0.00168457 0.04700683
v -0.00286847 0.00229130 0.04751264
v -0.00282715 0.00282089 0.04788299
v -0.00281481 0.00395326 0.04826535
v 0.00132452 0.00395326 0.04877458
v 0.00132020 0.00394287 0.04877287
v 0.00135351 0.00336285 0.04859798
v 0.00189506 -0.00106326 0.04424634
v 0.00135351 -0.00109392 0.04424634
v 0.00189506 -0.00109689 0.04370452
v 0.00211032 -0.00109392 0.04012788
v 0.00243661 -0.00108848 0.04012788
v 0.00189506 0.00043996 0.04662877
v 0.00189506 0.00071094 0.04688253
v 0.00189506 0.00018827 0.04635786
v 0.00189506 -0.00008271 0.04604152
v 0.00162058 0.00038557 0.04668106
v 0.00231572 -0.00021275 0.04567374
v 0.00247238 -0.00036011 0.04537283
v 0.00243661 -0.00063999 0.04495189
v 0.00189506 0.00100466 0.04715343
v 0.00243661 -0.00078685 0.04468099
v 0.00193824 -0.00085707 0.04483530
v 0.00135351 -0.00099107 0.04478643
v 0.00189506 0.00167023 0.04763695
v 0.00189506 0.00127514 0.04736604
v 0.00189506 0.00194121 0.04780926
v 0.00146823 0.00261816 0.04827992
v 0.00131404 0.00232790 0.04816676
v 0.00135351 0.00183391 0.04788213
v 0.00180007 0.00297913 0.04835193
v -0.00304611 -0.00042785 0.04012788
v -0.00304611 -0.00042785 0.04316271
v -0.00290116 0.00006514 0.04537454
v -0.00297025 -0.00042785 0.04424634
v -0.00281605 0.00023525 0.04587006
v -0.00281358 0.00069017 0.04637672
v -0.00281666 0.00119701 0.04683880
v -0.00287032 -0.00087239 0.04370452
v -0.00287649 -0.00088921 0.04316271
v -0.00281358 0.00182946 0.04734375
v -0.00269824 0.00364371 0.04830221
v -0.00275622 0.00247970 0.04780326
v -0.00267603 0.00395326 0.04838880
v 0.00131033 0.00395326 0.04877715
v 0.00081196 0.00380392 0.04880802
v 0.00081196 0.00336285 0.04867942
v 0.00081196 0.00282089 0.04847024
v 0.00131404 0.00280754 0.04838623
v 0.00081196 -0.00104200 0.04478643
v 0.00027041 -0.00106722 0.04478643
v 0.00081196 -0.00109738 0.04424634
v 0.00135351 -0.00109738 0.04370452
v 0.00156877 -0.00109738 0.04012788
v 0.00189506 -0.00109689 0.04012788
v 0.00152806 -0.00013809 0.04611439
v 0.00189506 -0.00028099 0.04577061
v 0.00081196 0.00003399 0.04647274
v 0.00139360 0.00010520 0.04642130
v 0.00157371 0.00094186 0.04721087
v 0.00121226 0.00089241 0.04725288
v 0.00081196 0.00057941 0.04703170
v 0.00125914 0.00034848 0.04671792
v 0.00193824 -0.00057818 0.04531796
v 0.00214795 -0.00069339 0.04504791
v 0.00178712 -0.00074235 0.04513021
v 0.00135351 -0.00079525 0.04520737
v 0.00081196 -0.00084273 0.04528195
v 0.00135351 0.00156293 0.04770210
v 0.00110741 0.00254052 0.04831078
v 0.00081196 0.00223345 0.04819933
v 0.00091188 0.00150013 0.04774239
v 0.00076385 0.00170386 0.04789671
v -0.00287649 -0.00088921 0.04012788
v -0.00280494 -0.00025528 0.04522537
v -0.00280124 -0.00078784 0.04424634
v -0.00284627 -0.00043230 0.04474871
v -0.00273895 0.00035639 0.04617268
v -0.00274018 0.00089390 0.04671192
v -0.00270564 0.00146799 0.04722287
v -0.00243672 -0.00107216 0.04370452
v -0.00243672 -0.00095596 0.04424634
v -0.00243672 -0.00108898 0.04316271
v -0.00270194 -0.00096882 0.04012788
v -0.00233741 0.00345680 0.04836651
v -0.00248544 0.00385634 0.04844281
v -0.00243672 0.00282089 0.04809560
v -0.00248544 0.00331093 0.04826706
v -0.00253540 0.00211873 0.04770467
v -0.00238737 0.00229130 0.04785213
v -0.00247742 0.00395326 0.04846938
v 0.00094396 0.00395326 0.04882773
v 0.00081196 0.00395326 0.04884402
v 0.00027041 0.00395326 0.04888603
v 0.00027041 0.00372283 0.04882516
v 0.00027041 0.00336285 0.04872143
v 0.00027041 0.00282089 0.04851653
v 0.00081196 0.00250393 0.04832793
v 0.00025684 -0.00083580 0.04537797
v -0.00027052 -0.00106722 0.04478643
v -0.00027052 -0.00109788 0.04424634
v -0.00005587 -0.00109788 0.04012788
v 0.00116724 -0.00017320 0.04616154
v 0.00134981 -0.00031907 0.04590864
v 0.00135351 -0.00061823 0.04547827
v 0.00081196 0.00030497 0.04676165
v 0.00027041 0.00000185 0.04651132
v 0.00081196 -0.00020583 0.04620183
v 0.00137695 0.00115202 0.04740719
v 0.00076385 0.00124992 0.04758722
v 0.00081196 0.00085038 0.04728888
v 0.00027041 0.00054677 0.04706513
v 0.00081196 -0.00066768 0.04555286
v 0.00042770 -0.00069339 0.04559144
v 0.00027041 0.00218746 0.04822077
v 0.00055044 0.00146552 0.04776640
v 0.00027041 0.00173798 0.04796015
v -0.00272846 -0.00071367 0.04454382
v -0.00268467 -0.00014748 0.04558629
v -0.00243672 0.00028865 0.04624727
v -0.00243672 0.00055073 0.04651817
v -0.00247742 -0.00001150 0.04586148
v -0.00243672 0.00082121 0.04677965
v -0.00248976 0.00119603 0.04708399
v -0.00234481 0.00137602 0.04729489
v -0.00243980 0.00173600 0.04749978
v -0.00189517 -0.00109837 0.04370452
v -0.00135362 -0.00109541 0.04424634
v -0.00189517 -0.00106376 0.04424634
v -0.00135362 -0.00099750 0.04478643
v -0.00193588 -0.00086003 0.04483273
v -0.00243672 -0.00077745 0.04466127
v -0.00243672 -0.00108898 0.04012788
v -0.00222207 -0.00109293 0.04012788
v -0.00216039 0.00309583 0.04830564
v -0.00194636 0.00331093 0.04843938
v -0.00189517 0.00390430 0.04864084
v -0.00189517 0.00227944 0.04800301
v -0.00194636 0.00280754 0.04824391
v -0.00217396 0.00200401 0.04776811
v -0.00189208 0.00395326 0.04865199
v -0.00027052 0.00395326 0.04888603
v -0.00027052 0.00372283 0.04882516
v -0.00027052 0.00336285 0.04872143
v -0.00027052 0.00282089 0.04851653
v 0.00027041 0.00245844 0.04834936
v 0.00006687 -0.00070180 0.04560344
v -0.00025633 -0.00083580 0.04537797
v -0.00081207 -0.00104349 0.04478643
v -0.00081207 -0.00109788 0.04424634
v -0.00189517 -0.00109837 0.04012788
v 0.00081196 -0.00044566 0.04587006
v 0.00027041 0.00027233 0.04679422
v -0.00027052 0.00000185 0.04651132
v 0.00027041 -0.00023649 0.04624041
v 0.00027041 0.00118317 0.04758637
v 0.00027041 0.00081725 0.04731546
v -0.00027052 0.00054677 0.04706513
v 0.00025684 -0.00054257 0.04581862
v -0.00027052 0.00218746 0.04822077
v 0.00027041 0.00145365 0.04777497
v -0.00027052 0.00173798 0.04796015
v -0.00243672 -0.00063109 0.04493217
v -0.00232384 -0.00021325 0.04567459
v -0.00214312 -0.00069092 0.04504362
v -0.00189517 -0.00008221 0.04604237
v -0.00189517 0.00018827 0.04635786
v -0.00189517 0.00043996 0.04662877
v -0.00189517 0.00071094 0.04688253
v -0.00189517 0.00100466 0.04715343
v -0.00189517 0.00127514 0.04736604
v -0.00189517 0.00167023 0.04763695
v -0.00081207 -0.00084371 0.04528367
v -0.00135362 -0.00080020 0.04521165
v -0.00178229 -0.00074729 0.04513450
v -0.00179956 0.00297913 0.04835193
v -0.00135362 0.00336285 0.04859798
v -0.00132031 0.00394287 0.04877287
v -0.00132463 0.00395326 0.04877458
v -0.00184644 0.00395326 0.04866227
v -0.00131414 0.00232790 0.04816676
v -0.00146834 0.00261816 0.04827992
v -0.00189517 0.00194121 0.04780926
v -0.00135362 0.00183391 0.04788213
v -0.00038648 0.00395326 0.04887746
v -0.00081207 0.00380392 0.04880802
v -0.00081207 0.00336285 0.04867942
v -0.00081207 0.00282089 0.04847024
v -0.00081207 0.00250393 0.04832793
v -0.00027052 0.00245844 0.04834936
v -0.00006698 -0.00070180 0.04560344
v -0.00042780 -0.00069339 0.04559144
v -0.00027052 0.00027233 0.04679422
v -0.00081207 0.00003399 0.04647274
v -0.00081207 -0.00020583 0.04620183
v -0.00027052 -0.00023649 0.04624041
v -0.00081207 0.00030497 0.04676165
v -0.00027052 0.00118317 0.04758637
v -0.00027052 0.00081725 0.04731546
v -0.00081207 0.00085038 0.04728888
v -0.00081207 0.00057941 0.04703170
v -0.00081207 0.00223345 0.04819933
v -0.00076334 0.00170386 0.04789671
v -0.00027052 0.00145365 0.04777497
v -0.00055055 0.00146552 0.04776640
v -0.00189517 -0.00028149 0.04577147
v -0.00193588 -0.00057719 0.04532053
v -0.00152817 -0.00013809 0.04611439
v -0.00162007 0.00038557 0.04668106
v -0.00157381 0.00094186 0.04721087
v -0.00135362 0.00156293 0.04770210
v -0.00081207 -0.00066768 0.04555457
v -0.00135362 -0.00061823 0.04548256
v -0.00131414 0.00280754 0.04838623
v -0.00128084 0.00395326 0.04878144
v -0.00131044 0.00395326 0.04877715
v -0.00132031 0.00395326 0.04877544
v -0.00110690 0.00254052 0.04831078
v -0.00091199 0.00150013 0.04774239
v -0.00081207 0.00395326 0.04884402
v -0.00025633 -0.00054257 0.04581862
v -0.00081207 -0.00044566 0.04587006
v -0.00125925 0.00034848 0.04671792
v -0.00139371 0.00010520 0.04642130
v -0.00116734 -0.00017320 0.04616154
v -0.00076334 0.00124992 0.04758722
v -0.00121237 0.00089241 0.04725288
v -0.00134992 -0.00031907 0.04590864
v -0.00137706 0.00115202 0.04740719
f 1 2 5
f 1 5 10
f 1 10 18
f 1 18 33
f 1 33 52
f 1 52 51
f 1 51 76
f 1 76 109
f 1 109 108
f 1 108 152
f 1 152 151
f 1 151 199
f 1 199 248
f 1 248 231
f 1 231 230
f 1 230 181
f 1 181 171
f 1 171 129
f 1 129 92
f 1 92 65
f 1 65 44
f 1 44 26
f 1 26 14
f 1 14 8
f 1 8 3
f 1 3 4
f 1 4 6
f 1 6 2
f 2 6 7
f 2 7 5
f 3 8 15
f 3 15 28
f 3 28 46
f 3 46 71
f 3 71 101
f 3 101 141
f 3 141 188
f 3 188 238
f 3 238 277
f 3 277 276
f 3 276 314
f 3 314 313
f 3 313 312
f 3 312 317
f 3 317 282
f 3 282 239
f 3 239 191
f 3 191 190
f 3 190 189
f 3 189 142
f 3 142 102
f 3 102 72
f 3 72 47
f 3 47 31
f 3 31 16
f 3 16 9
f 3 9 4
f 4 9 6
f 5 7 11
f 5 11 10
f 6 9 7
f 7 9 12
f 7 12 13
f 7 13 11
f 8 14 15
f 9 16 17
f 9 17 12
f 10 11 19
f 10 19 20
f 10 20 18
f 11 13 21
f 11 21 19
f 12 22 23
f 12 23 24
f 12 24 13
f 12 17 25
f 12 25 22
f 13 24 21
f 14 26 15
f 15 27 28
f 15 26 27
f 16 29 30
f 16 30 17
f 16 31 29
f 17 30 25
f 18 32 33
f 18 20 34
f 18 34 32
f 19 21 20
f 20 35 34
f 20 21 35
f 21 24 36
f 21 36 37
f 21 37 38
f 21 38 39
f 21 39 35
f 22 40 23
f 22 25 41
f 22 41 40
f 23 40 42
f 23 42 24
f 24 42 36
f 25 30 29
f 25 29 43
f 25 43 41
f 26 44 45
f 26 45 27
f 27 45 28
f 28 45 46
f 29 31 43
f 31 47 48
f 31 48 43
f 32 49 50
f 32 50 51
f 32 51 52
f 32 52 33
f 32 34 49
f 34 35 49
f 35 39 49
f 36 53 37
f 36 42 54
f 36 54 53
f 37 53 55
f 37 55 38
f 38 55 56
f 38 56 39
f 39 56 57
f 39 57 58
f 39 58 49
f 40 41 59
f 40 59 54
f 40 54 42
f 41 60 61
f 41 61 59
f 41 43 62
f 41 62 60
f 43 48 63
f 43 63 64
f 43 64 62
f 44 65 66
f 44 66 67
f 44 67 45
f 45 68 69
f 45 69 46
f 45 67 68
f 46 70 71
f 46 69 70
f 47 72 73
f 47 73 48
f 48 73 63
f 49 58 50
f 50 58 74
f 50 74 75
f 50 75 109
f 50 109 76
f 50 76 51
f 53 54 77
f 53 77 78
f 53 78 79
f 53 79 80
f 53 80 55
f 54 59 81
f 54 81 82
f 54 82 77
f 55 83 57
f 55 57 56
f 55 80 83
f 57 83 84
f 57 84 74
f 57 74 58
f 59 85 81
f 59 61 86
f 59 86 85
f 60 87 61
f 60 62 88
f 60 88 87
f 61 87 86
f 62 64 89
f 62 89 90
f 62 90 88
f 63 89 64
f 63 73 91
f 63 91 89
f 65 92 66
f 66 93 94
f 66 94 95
f 66 95 67
f 66 92 96
f 66 96 97
f 66 97 93
f 67 95 68
f 68 95 69
f 69 95 98
f 69 98 99
f 69 99 100
f 69 100 70
f 70 100 101
f 70 101 71
f 72 102 73
f 73 102 103
f 73 103 104
f 73 104 91
f 74 84 105
f 74 105 106
f 74 106 107
f 74 107 75
f 75 107 108
f 75 108 109
f 77 110 78
f 77 82 111
f 77 111 110
f 78 112 113
f 78 113 79
f 78 110 114
f 78 114 112
f 79 115 80
f 79 113 115
f 80 115 116
f 80 116 117
f 80 117 83
f 81 85 82
f 82 85 118
f 82 118 111
f 83 119 84
f 83 117 119
f 84 119 120
f 84 120 121
f 84 121 105
f 85 86 87
f 85 87 122
f 85 122 123
f 85 123 118
f 87 88 124
f 87 124 122
f 88 90 125
f 88 125 126
f 88 126 127
f 88 127 124
f 89 91 128
f 89 128 90
f 90 128 125
f 91 104 128
f 92 129 130
f 92 130 96
f 93 131 94
f 93 97 132
f 93 132 131
f 94 131 133
f 94 133 134
f 94 134 95
f 95 134 135
f 95 135 98
f 96 130 97
f 97 136 132
f 97 130 137
f 97 137 136
f 98 135 138
f 98 138 99
f 99 138 100
f 100 139 101
f 100 138 140
f 100 140 139
f 101 139 141
f 102 142 103
f 103 142 143
f 103 143 144
f 103 144 104
f 104 145 146
f 104 146 125
f 104 125 128
f 104 144 145
f 105 121 147
f 105 147 106
f 106 147 148
f 106 148 149
f 106 149 107
f 107 149 150
f 107 150 151
f 107 151 152
f 107 152 108
f 110 111 114
f 111 118 114
f 112 153 113
f 112 114 153
f 113 153 154
f 113 154 115
f 114 155 156
f 114 156 153
f 114 118 157
f 114 157 158
f 114 158 159
f 114 159 160
f 114 160 155
f 115 154 161
f 115 161 162
f 115 162 116
f 116 162 117
f 117 162 119
f 118 123 157
f 119 162 120
f 120 162 163
f 120 163 164
f 120 164 121
f 121 164 165
f 121 165 147
f 122 124 127
f 122 127 166
f 122 166 123
f 123 166 157
f 125 146 167
f 125 167 126
f 126 167 168
f 126 168 127
f 127 169 166
f 127 168 170
f 127 170 169
f 129 171 137
f 129 137 130
f 131 172 133
f 131 132 172
f 132 136 173
f 132 173 174
f 132 174 172
f 133 175 134
f 133 172 175
f 134 175 176
f 134 176 135
f 135 176 177
f 135 177 138
f 136 178 179
f 136 179 173
f 136 137 178
f 137 180 178
f 137 171 181
f 137 181 180
f 138 177 140
f 139 182 183
f 139 183 141
f 139 140 184
f 139 184 185
f 139 185 182
f 140 177 186
f 140 186 187
f 140 187 184
f 141 183 188
f 142 189 143
f 143 189 190
f 143 190 191
f 143 191 192
f 143 192 193
f 143 193 144
f 144 193 194
f 144 194 145
f 145 194 195
f 145 195 167
f 145 167 146
f 147 165 196
f 147 196 148
f 148 196 245
f 148 245 197
f 148 197 247
f 148 247 198
f 148 198 149
f 149 198 150
f 150 198 151
f 151 198 199
f 153 200 201
f 153 201 202
f 153 202 154
f 153 156 200
f 154 202 161
f 155 160 203
f 155 203 204
f 155 204 205
f 155 205 200
f 155 200 156
f 157 166 206
f 157 206 158
f 158 206 169
f 158 169 207
f 158 207 208
f 158 208 159
f 159 208 209
f 159 209 203
f 159 203 160
f 161 163 162
f 161 202 163
f 163 202 164
f 164 202 210
f 164 210 165
f 165 210 211
f 165 211 196
f 166 169 206
f 167 195 168
f 168 212 170
f 168 195 212
f 169 213 207
f 169 170 213
f 170 212 214
f 170 214 213
f 172 174 173
f 172 173 215
f 172 215 216
f 172 216 175
f 173 179 215
f 175 217 218
f 175 218 176
f 175 216 219
f 175 219 217
f 176 220 221
f 176 221 177
f 176 218 220
f 177 221 222
f 177 222 223
f 177 223 186
f 178 224 225
f 178 225 226
f 178 226 179
f 178 180 224
f 179 226 227
f 179 227 228
f 179 228 229
f 179 229 215
f 180 181 230
f 180 230 231
f 180 231 224
f 182 185 232
f 182 232 233
f 182 233 234
f 182 234 183
f 183 234 188
f 184 235 236
f 184 236 232
f 184 232 185
f 184 187 235
f 186 223 237
f 186 237 187
f 187 237 235
f 188 234 238
f 191 239 240
f 191 240 192
f 192 240 241
f 192 241 193
f 193 241 242
f 193 242 194
f 194 242 287
f 194 287 243
f 194 243 195
f 195 243 212
f 196 211 244
f 196 244 288
f 196 288 245
f 197 245 246
f 197 246 225
f 197 225 247
f 198 247 224
f 198 224 199
f 199 224 248
f 200 205 249
f 200 249 201
f 201 249 210
f 201 210 202
f 203 250 204
f 203 209 250
f 204 251 293
f 204 293 252
f 204 252 205
f 204 250 290
f 204 290 251
f 205 252 211
f 205 211 249
f 207 213 253
f 207 253 208
f 208 253 254
f 208 254 209
f 209 254 296
f 209 296 255
f 209 255 290
f 209 290 250
f 210 249 211
f 211 256 244
f 211 252 256
f 212 257 259
f 212 259 214
f 212 243 287
f 212 287 257
f 213 258 253
f 213 214 258
f 214 259 301
f 214 301 258
f 215 229 260
f 215 260 216
f 216 261 219
f 216 260 262
f 216 262 261
f 217 219 263
f 217 263 264
f 217 264 265
f 217 265 218
f 218 265 220
f 219 261 263
f 220 266 267
f 220 267 221
f 220 265 266
f 221 267 222
f 222 267 268
f 222 268 269
f 222 269 237
f 222 237 223
f 224 247 225
f 224 231 248
f 225 246 226
f 226 246 227
f 227 246 270
f 227 270 271
f 227 271 228
f 228 271 272
f 228 272 262
f 228 262 229
f 229 262 260
f 232 236 273
f 232 273 233
f 233 274 234
f 233 273 274
f 234 274 275
f 234 275 276
f 234 276 277
f 234 277 238
f 235 278 279
f 235 279 236
f 235 237 280
f 235 280 281
f 235 281 278
f 236 279 273
f 237 269 280
f 239 282 283
f 239 283 240
f 240 283 241
f 241 283 284
f 241 284 242
f 242 284 285
f 242 285 286
f 242 286 287
f 244 256 252
f 244 252 293
f 244 293 288
f 245 288 289
f 245 289 270
f 245 270 246
f 251 291 292
f 251 292 293
f 251 290 294
f 251 294 291
f 253 295 296
f 253 296 254
f 253 258 301
f 253 301 295
f 255 296 297
f 255 297 298
f 255 298 294
f 255 294 290
f 257 299 300
f 257 300 259
f 257 287 286
f 257 286 299
f 259 300 302
f 259 302 301
f 261 303 263
f 261 262 304
f 261 304 303
f 262 272 304
f 263 305 264
f 263 303 305
f 264 305 306
f 264 306 265
f 265 306 266
f 266 307 267
f 266 306 307
f 267 307 268
f 268 308 269
f 268 307 308
f 269 308 281
f 269 281 280
f 270 289 309
f 270 309 271
f 271 309 310
f 271 310 272
f 272 310 303
f 272 303 304
f 273 279 274
f 274 279 311
f 274 311 285
f 274 285 284
f 274 284 275
f 275 283 312
f 275 312 313
f 275 313 314
f 275 314 276
f 275 284 283
f 278 299 315
f 278 315 279
f 278 281 299
f 279 315 311
f 281 308 316
f 281 316 300
f 281 300 299
f 282 317 283
f 283 317 312
f 285 311 315
f 285 315 286
f 286 315 299
f 288 293 318
f 288 318 289
f 289 318 293
f 289 293 292
f 289 292 319
f 289 319 309
f 291 294 320
f 291 320 306
f 291 306 321
f 291 321 322
f 291 322 292
f 292 322 319
f 294 298 320
f 295 301 302
f 295 302 323
f 295 323 297
f 295 297 296
f 297 324 298
f 297 323 324
f 298 324 306
f 298 306 320
f 300 316 302
f 302 316 323
f 303 310 305
f 305 322 321
f 305 321 306
f 305 310 325
f 305 325 322
f 306 324 307
f 307 324 326
f 307 326 308
f 308 326 316
f 309 319 325
f 309 325 310
f 316 326 324
f 316 324 323
f 319 322 325

