# https://github.com/mikedh/trimesh
v 0.00151554 0.00080000 -0.00087500
v 0.00087500 0.00080000 -0.00151554
v 0.00000000 0.00080000 -0.00175000
v -0.00087500 0.00080000 -0.00151554
v -0.00151554 0.00080000 -0.00087500
v 0.00091177 0.01324402 -0.00528023
v -0.00000000 0.01330000 -0.00530796
v 0.00000000 0.01330000 0.02661769
v -0.00721167 0.00374055 0.00373163
v -0.00701740 0.00315381 0.00389505
v -0.00724444 0.00385886 0.02661769
v -0.00675842 0.00254827 0.00395000
v -0.00746959 0.00512532 0.00274830
v -0.00742863 0.00477187 0.00311033
v -0.00733725 0.00424870 0.00348861
v -0.00724536 0.00386238 0.00368272
v -0.00743584 0.00677895 0.00077759
v -0.00750000 0.00580000 0.00194425
v -0.00692910 0.00867013 -0.00147623
v -0.00724444 0.00774114 -0.00036911
v -0.00547990 0.01092038 -0.00405443
v -0.00583211 0.01051545 -0.00367995
v -0.00530330 0.01110330 0.02661769
v -0.00613730 0.01011087 -0.00319324
v -0.00649519 0.00955000 -0.00252482
v -0.00375079 0.01229551 -0.00483145
v -0.00445697 0.01183203 -0.00463052
v -0.00499078 0.01139824 -0.00440128
v -0.00530726 0.01109872 -0.00419528
v -0.00364973 0.01235291 -0.00485717
v -0.00194114 0.01304444 0.02661769
v -0.00279281 0.01276079 -0.00504568
v -0.00011964 0.01329904 -0.00530749
v -0.00098374 0.01323480 -0.00527567
v -0.00189689 0.01305495 -0.00518754
v 0.00354771 0.01240877 -0.00488239
v 0.00194114 0.01304444 0.02661769
v 0.00375098 0.01229541 -0.00483140
v 0.00431673 0.01193324 -0.00467340
v 0.00270281 0.01279606 -0.00506245
v 0.00194136 0.01304316 -0.00518181
v 0.00181508 0.01307585 -0.00519774
v 0.00530330 0.01110330 0.02661769
v 0.00499895 0.01139093 -0.00439670
v 0.00445697 0.01183203 -0.00463052
v 0.00584230 0.01050282 -0.00366682
v 0.00545223 0.01094979 -0.00407858
v 0.00530647 0.01109951 -0.00419587
v 0.00724444 0.00774114 -0.00036911
v 0.00692910 0.00867013 -0.00147623
v 0.00649519 0.00955000 -0.00252482
v 0.00613730 0.01011087 -0.00319325
v 0.00741564 0.00468290 0.00318600
v 0.00746959 0.00512532 0.00274830
v 0.00750000 0.00580000 0.00194425
v 0.00743584 0.00677895 0.00077759
v 0.00675842 0.00254827 0.00395000
v 0.00700473 0.00312041 0.00390099
v 0.00724444 0.00385886 0.02661769
v 0.00649519 0.00205000 0.00395000
v 0.00720180 0.00370632 0.00374440
v 0.00724562 0.00386333 0.00368231
v 0.00733726 0.00424876 0.00348857
v -0.00649519 0.00205000 0.00395000
v -0.00530330 0.00049670 0.00395000
v -0.00375000 -0.00069519 0.00395000
v -0.00194114 -0.00144444 0.00395000
v 0.00000000 -0.00170000 0.00395000
v 0.00000000 -0.00170000 0.02661769
v 0.00194114 -0.00144444 0.00395000
v 0.00194114 -0.00144444 0.02661769
v 0.00375000 -0.00069519 0.00395000
v 0.00530330 0.00049670 0.00395000
v -0.00445697 0.00645000 -0.00463052
v -0.00247751 0.00645000 -0.00510195
v -0.00000000 0.00645000 -0.00530796
v 0.00247751 0.00645000 -0.00510195
v 0.00445697 0.00645000 -0.00463052
v 0.00194114 0.01304444 0.03361769
v 0.00530330 0.01110330 0.03361769
v 0.00649519 0.00955000 0.03361769
v 0.00750000 0.00580000 0.03361769
v 0.00724444 0.00385886 0.03361769
v 0.00649519 0.00205000 0.03361769
v 0.00000000 -0.00170000 0.03361769
v -0.00649519 0.00205000 0.03361769
v -0.00724444 0.00385886 0.03361769
v -0.00750000 0.00580000 0.03361769
v -0.00724444 0.00774114 0.03361769
v -0.00530330 0.01110330 0.03361769
v 0.00000000 0.01330000 0.03361769
v -0.00356053 -0.00080096 0.03696802
v -0.00356053 -0.00080096 0.03803121
v -0.00374955 -0.00069553 0.03813942
v -0.00485761 0.00008537 0.03878686
v -0.00530181 0.00049481 0.03904127
v -0.00545113 0.01095098 0.04245057
v -0.00530197 0.01110413 0.04243116
v -0.00194114 0.01304444 0.04134889
v -0.00141938 0.01316446 0.04134889
v -0.00281153 0.01275337 0.04076404
v -0.00275187 0.01277690 0.04045822
v -0.00297956 0.01268271 0.04106458
v -0.00325757 0.01255561 0.04110747
v -0.00275187 0.01277690 0.04134889
v -0.00511890 0.01128098 0.04239349
v -0.00498620 0.01140238 0.04235770
v -0.00443689 0.01184577 0.04214836
v -0.00404526 0.01211519 0.04194418
v -0.00385938 0.01223075 0.04183134
v -0.00374565 0.01229779 0.04175672
v -0.00333497 0.01251756 0.04144288
v -0.00649519 0.00955000 0.04204330
v -0.00643501 0.00965235 0.04211279
v -0.00617542 0.01005538 0.04232389
v -0.00585593 0.01048556 0.04243701
v -0.00749902 0.00577395 0.03975150
v -0.00747465 0.00640536 0.03997720
v -0.00740416 0.00699514 0.04030855
v -0.00724552 0.00773712 0.04081237
v -0.00692910 0.00867013 0.04144588
v -0.00724462 0.00385989 0.03970543
v -0.00730281 0.00409151 0.03967194
v -0.00739192 0.00453406 0.03962341
v -0.00747539 0.00520587 0.03964398
v -0.00680534 0.00265038 0.03972009
v -0.00709419 0.00336831 0.03974359
v -0.00596842 0.00125849 0.03939653
v -0.00643154 0.00194353 0.03960364
v -0.00649383 0.00204955 0.03962719
v -0.00547702 0.00067594 0.03913867
v -0.00194114 -0.00144444 0.03696802
v -0.00419277 -0.00041898 0.03839718
v 0.00000000 -0.00170000 0.03696802
v 0.00356408 -0.00079904 0.03696802
v 0.00194114 -0.00144444 0.03696802
v 0.00356408 -0.00079904 0.03803121
v 0.00374943 -0.00069572 0.03813722
v 0.00439320 -0.00028113 0.03851125
v 0.00513199 0.00032740 0.03894155
v 0.00649339 0.00204826 0.03962618
v 0.00624467 0.00164667 0.03952484
v 0.00576423 0.00100098 0.03929113
v 0.00530306 0.00049364 0.03903900
v 0.00667954 0.00239120 0.03968783
v 0.00700741 0.00312900 0.03974615
v 0.00742644 0.00475774 0.03961769
v 0.00748942 0.00542066 0.03967397
v 0.00730373 0.00409544 0.03967194
v 0.00724662 0.00386733 0.03970499
v 0.00740352 0.00699911 0.04030855
v 0.00745163 0.00664621 0.04009463
v 0.00749411 0.00606914 0.03984076
v 0.00749906 0.00580356 0.03975838
v 0.00692910 0.00867013 0.04144336
v 0.00724444 0.00774114 0.04081246
v 0.00530198 0.01110377 0.04243169
v 0.00549627 0.01090281 0.04245439
v 0.00586488 0.01047425 0.04243483
v 0.00616668 0.01006796 0.04232745
v 0.00643294 0.00965581 0.04211279
v 0.00649576 0.00954901 0.04204026
v 0.00374526 0.01229790 0.04175894
v 0.00394890 0.01217625 0.04188891
v 0.00455511 0.01175803 0.04220213
v 0.00507019 0.01132563 0.04238207
v 0.00325557 0.01255657 0.04110858
v 0.00345201 0.01245759 0.04154491
v 0.00306743 0.01264404 0.04117909
v 0.00284753 0.01273878 0.04085436
v 0.00275231 0.01277681 0.04053744
v 0.00274813 0.01277838 0.04134889
v 0.00194114 0.01304444 0.04134889
v 0.00141938 0.01316446 0.04134889
v 0.00000000 0.01330000 0.04134889
v -0.00275106 0.00975285 0.04709837
v -0.00275118 0.01018741 0.04677397
v -0.00274978 0.00499266 0.04827974
v -0.00275005 0.00597158 0.04832439
v -0.00274846 0.00008651 0.04535537
v -0.00274882 0.00142223 0.04678294
v -0.00275174 0.01228764 0.04391566
v -0.00275184 0.01265397 0.04265290
v -0.00275135 0.01083105 0.04618299
v -0.00275143 0.01112357 0.04585878
v -0.00275031 0.00694709 0.04823146
v -0.00275056 0.00789997 0.04800279
v -0.00275104 0.00966344 0.04715883
v -0.00274826 -0.00068846 0.04391734
v -0.00274823 -0.00080074 0.04361328
v -0.00275158 0.01167830 0.04510712
v -0.00275171 0.01216572 0.04420469
v -0.00274902 0.00216295 0.04730411
v -0.00274927 0.00310156 0.04778393
v -0.00274952 0.00402966 0.04809840
v -0.00275185 0.01269083 0.04244145
v -0.00275186 0.01270809 0.04232640
v -0.00197460 -0.00080053 0.04431265
v -0.00103158 -0.00080028 0.04475801
v 0.00000000 -0.00080000 0.04491118
v 0.00275177 -0.00079926 0.04361328
v 0.00197716 -0.00079947 0.04431330
v 0.00103287 -0.00079972 0.04475869
v 0.00275067 0.00329085 0.04785948
v 0.00275095 0.00228081 0.04737363
v 0.00275096 0.00222814 0.04734254
v 0.00275137 0.00070560 0.04611617
v 0.00275145 0.00039139 0.04575643
v 0.00275158 -0.00007803 0.04510755
v 0.00274969 0.00694857 0.04823146
v 0.00274995 0.00597305 0.04832439
v 0.00275167 -0.00041695 0.04451555
v 0.00274944 0.00790144 0.04800279
v 0.00274919 0.00881289 0.04764288
v 0.00275022 0.00499414 0.04827974
v 0.00275048 0.00403114 0.04809840
v 0.00275065 0.00336644 0.04788812
v 0.00274820 0.01250449 0.04328463
v 0.00274841 0.01170434 0.04506841
v 0.00274865 0.01083519 0.04618021
v 0.00274875 0.01044074 0.04656020
v 0.00193861 0.00412018 0.04839657
v 0.00158567 0.00378366 0.04839657
v 0.00231809 0.00285230 0.04784407
v -0.00256224 0.00592205 0.04839657
v -0.00130088 0.00586197 0.04873494
v -0.00126565 0.00610704 0.04873494
v 0.00072269 0.00333876 0.04839657
v 0.00036692 0.00455039 0.04873494
v 0.00012380 0.00450354 0.04873494
v 0.00177016 0.00765648 0.04839657
v 0.00089873 0.00674256 0.04873494
v 0.00106087 0.00655544 0.04873494
v 0.00000000 0.00580000 0.04884888
v -0.00106087 0.00655544 0.04873494
v -0.00118467 0.00634102 0.04873494
v -0.00089873 0.00674256 0.04873494
v -0.00070411 0.00689561 0.04873494
v -0.00128910 0.00561465 0.04873494
v -0.00123073 0.00537404 0.04873494
v 0.00059678 0.00464242 0.04873494
v 0.00080507 0.00477628 0.04873494
v 0.00098426 0.00494714 0.04873494
v 0.00126565 0.00610704 0.04873494
v 0.00118467 0.00634102 0.04873494
v -0.00231809 0.00285230 0.04784407
v 0.00260638 0.00985560 0.04709421
v 0.00139782 0.01305258 0.04265125
v 0.00249186 0.01269814 0.04291616
v 0.00261936 0.01234285 0.04391404
v 0.00241402 0.01182992 0.04509889
v 0.00213532 0.01113378 0.04616979
v 0.00061741 -0.00066578 0.04509889
v 0.00000000 -0.00069519 0.04509889
v -0.00182990 -0.00043209 0.04509889
v -0.00222148 0.00451743 0.04839657
v -0.00249284 0.00640476 0.04839657
v -0.00177015 0.00765648 0.04839657
v -0.00208951 0.00728793 0.04839657
v -0.00233334 0.00686560 0.04839657
v -0.00274512 0.01265698 0.04265125
v -0.00261936 0.01234285 0.04391404
v -0.00241402 0.01182992 0.04509889
v -0.00213532 0.01113378 0.04616979
v -0.00139782 0.01305258 0.04265125
v 0.00233334 0.00686560 0.04839657
v 0.00208951 0.00728793 0.04839657
v 0.00249284 0.00640476 0.04839657
v 0.00130089 0.00586197 0.04873494
v 0.00128910 0.00561465 0.04873494
v 0.00256224 0.00592205 0.04839657
v 0.00253904 0.00543494 0.04839657
v 0.00242407 0.00496102 0.04839657
v 0.00112788 0.00514882 0.04873494
v 0.00222148 0.00451743 0.04839657
v 0.00123073 0.00537404 0.04873494
v 0.00117542 0.00352000 0.04839657
v 0.00171835 0.00246687 0.04784407
v -0.00112788 0.00514882 0.04873494
v -0.00098426 0.00494714 0.04873494
v -0.00193861 0.00412018 0.04839657
v -0.00158567 0.00378366 0.04839657
v -0.00242407 0.00496102 0.04839657
v -0.00253904 0.00543494 0.04839657
v 0.00048404 0.00700907 0.04873494
v 0.00070411 0.00689561 0.04873494
v 0.00095337 0.00818140 0.04839657
v 0.00138682 0.00795794 0.04839657
v 0.00139373 0.00928138 0.04784407
v 0.00202740 0.00895470 0.04784407
v 0.00179175 0.01027557 0.04709421
v 0.00258779 0.00851400 0.04784407
v -0.00260638 0.00985560 0.04709421
v -0.00202740 0.00895470 0.04784407
v -0.00258779 0.00851400 0.04784407
v -0.00138682 0.00795794 0.04839657
v 0.00263266 0.00069335 0.04616979
v 0.00220907 0.00151501 0.04709421
v 0.00135821 0.00117438 0.04709421
v 0.00105650 0.00220190 0.04784407
v 0.00035646 0.00206698 0.04784407
v 0.00024383 0.00324647 0.04839657
v 0.00000000 0.00323485 0.04839657
v 0.00000000 0.00449764 0.04873494
v -0.00012380 0.00450354 0.04873494
v -0.00179175 0.01027557 0.04709421
v -0.00139373 0.00928138 0.04784407
v -0.00095337 0.00818140 0.04839657
v -0.00048404 0.00700907 0.04873494
v 0.00161865 0.00028740 0.04616979
v 0.00045826 0.00100093 0.04709421
v 0.00000000 0.00205000 0.04784407
v -0.00024383 0.00324647 0.04839657
v -0.00036692 0.00455039 0.04873494
v 0.00182991 -0.00043209 0.04509889
v 0.00054613 0.00008069 0.04616979
v 0.00000000 0.00097910 0.04709421
v -0.00035646 0.00206698 0.04784407
v -0.00072269 0.00333876 0.04839657
v -0.00059678 0.00464242 0.04873494
v -0.00135820 0.00117438 0.04709421
v -0.00161865 0.00028740 0.04616979
v -0.00054613 0.00008069 0.04616979
v -0.00061741 -0.00066578 0.04509889
v -0.00263266 0.00069335 0.04616979
v -0.00220907 0.00151501 0.04709421
v -0.00171835 0.00246687 0.04784407
v 0.00000000 0.00005467 0.04616979
v -0.00045826 0.00100093 0.04709421
v -0.00105650 0.00220190 0.04784407
v -0.00117542 0.00352000 0.04839657
v -0.00080507 0.00477628 0.04873494
v 0.00000000 0.00710236 0.04873494
v 0.00024647 0.00707882 0.04873494
v 0.00000000 0.00836515 0.04839657
v 0.00048546 0.00831879 0.04839657
v 0.00000000 0.00955000 0.04784407
v 0.00070969 0.00948223 0.04784407
v 0.00000000 0.01062090 0.04709421
v 0.00091236 0.01053378 0.04709421
v 0.00000000 0.01154533 0.04616979
v 0.00108731 0.01144150 0.04616979
v 0.00000000 0.01229519 0.04509889
v 0.00122922 0.01217781 0.04509889
v 0.00000000 0.01284769 0.04391404
v 0.00133378 0.01272033 0.04391404
v 0.00000000 0.01318606 0.04265125
v -0.00024647 0.00707882 0.04873494
v -0.00048546 0.00831879 0.04839657
v -0.00070969 0.00948223 0.04784407
v -0.00091236 0.01053378 0.04709421
v -0.00108731 0.01144150 0.04616979
v -0.00122922 0.01217781 0.04509889
v -0.00133378 0.01272033 0.04391404
v 0.00517638 0.00645000 -0.00428790
v 0.00587994 0.00645000 -0.00361686
v 0.00631162 0.00645000 -0.00274569
v -0.00631162 0.00645000 -0.00274569
v -0.00587994 0.00645000 -0.00361686
v -0.00517637 0.00645000 -0.00428790
f 136 201 134
f 166 43 48
f 67 134 132
f 93 67 132
f 359 65 64
f 71 85 68
f 136 134 71
f 71 134 85
f 200 134 203
f 142 143 60
f 201 143 142
f 144 201 140
f 144 143 201
f 78 77 36
f 3 77 78
f 102 32 105
f 175 34 100
f 175 265 347
f 100 265 175
f 218 164 249
f 69 67 68
f 134 67 69
f 133 66 94
f 358 12 10
f 358 18 17
f 10 9 358
f 358 9 18
f 358 359 64
f 64 12 358
f 358 25 359
f 15 14 13
f 18 9 13
f 137 201 136
f 199 134 200
f 200 203 253
f 60 356 357
f 356 51 357
f 201 142 212
f 142 141 212
f 100 34 35
f 34 175 33
f 77 3 76
f 34 33 76
f 76 33 7
f 50 357 51
f 2 355 356
f 2 3 78
f 78 355 2
f 68 3 2
f 99 265 100
f 100 35 99
f 106 23 90
f 29 23 106
f 165 164 218
f 173 249 172
f 173 42 174
f 172 249 168
f 36 167 168
f 219 157 166
f 67 93 92
f 92 66 67
f 93 94 92
f 92 94 66
f 28 360 29
f 29 106 28
f 28 27 74
f 74 360 28
f 359 360 4
f 74 3 4
f 4 360 74
f 67 66 4
f 68 67 4
f 4 3 68
f 25 358 19
f 16 9 11
f 15 13 16
f 16 13 9
f 201 137 138
f 324 199 200
f 84 142 60
f 84 141 142
f 84 60 145
f 145 141 84
f 55 357 56
f 60 357 57
f 57 357 58
f 145 60 57
f 57 146 145
f 57 58 146
f 201 212 202
f 202 134 201
f 202 203 134
f 315 253 203
f 203 202 315
f 315 202 212
f 7 33 8
f 74 27 26
f 26 30 74
f 78 36 38
f 44 355 78
f 78 45 44
f 48 355 44
f 166 48 44
f 44 165 166
f 45 165 44
f 40 36 77
f 172 171 40
f 40 173 172
f 75 3 74
f 75 76 3
f 74 30 75
f 75 30 32
f 32 35 75
f 75 35 34
f 34 76 75
f 6 42 77
f 77 76 6
f 6 76 7
f 174 42 6
f 7 175 6
f 6 175 174
f 73 356 60
f 60 143 73
f 143 144 73
f 73 144 140
f 135 138 137
f 72 138 135
f 149 217 150
f 47 46 356
f 47 355 48
f 356 355 47
f 47 48 43
f 52 51 356
f 356 46 52
f 56 357 49
f 357 50 49
f 68 2 70
f 70 2 72
f 70 71 68
f 70 135 71
f 72 135 70
f 31 35 32
f 31 99 35
f 32 102 31
f 31 102 105
f 105 99 31
f 97 22 116
f 90 23 97
f 97 23 29
f 347 265 345
f 248 173 174
f 249 173 248
f 248 175 347
f 174 175 248
f 248 346 249
f 347 345 248
f 248 345 346
f 163 249 164
f 163 168 249
f 164 38 163
f 36 168 163
f 163 38 36
f 166 165 250
f 250 219 166
f 250 165 218
f 250 251 219
f 346 251 250
f 218 249 250
f 249 346 250
f 107 28 106
f 106 192 107
f 107 108 27
f 27 28 107
f 65 359 5
f 359 4 5
f 5 66 65
f 5 4 66
f 359 22 21
f 29 360 21
f 21 360 359
f 21 97 29
f 22 97 21
f 359 25 24
f 24 22 359
f 24 114 115
f 25 114 24
f 24 115 116
f 116 22 24
f 17 119 20
f 20 358 17
f 20 19 358
f 140 201 139
f 201 138 139
f 139 138 72
f 139 73 140
f 72 73 139
f 254 324 200
f 254 323 324
f 200 253 254
f 54 53 63
f 58 357 61
f 357 55 61
f 59 83 61
f 146 58 61
f 61 150 146
f 61 83 150
f 53 54 147
f 63 53 147
f 147 149 63
f 145 146 207
f 323 254 328
f 91 33 175
f 91 8 33
f 105 112 197
f 197 99 105
f 265 99 197
f 103 112 105
f 30 26 111
f 111 112 30
f 111 197 112
f 39 45 78
f 78 38 39
f 39 38 164
f 164 165 39
f 39 165 45
f 77 42 41
f 41 40 77
f 169 167 36
f 36 40 169
f 172 168 169
f 169 168 167
f 72 2 1
f 1 73 72
f 1 2 356
f 356 73 1
f 80 47 43
f 80 43 166
f 166 157 80
f 98 106 90
f 90 97 98
f 182 183 108
f 108 107 182
f 182 107 192
f 264 351 352
f 120 20 119
f 118 119 17
f 17 18 118
f 353 264 352
f 352 341 353
f 187 258 295
f 115 114 187
f 344 251 346
f 346 345 344
f 339 341 352
f 352 351 339
f 350 337 339
f 339 351 350
f 294 296 308
f 258 296 294
f 295 258 294
f 55 54 62
f 62 61 55
f 62 54 63
f 59 61 62
f 63 149 62
f 149 150 62
f 62 83 59
f 150 83 62
f 206 207 146
f 209 141 145
f 209 212 141
f 209 315 212
f 340 339 338
f 338 339 337
f 105 32 101
f 101 103 105
f 32 103 101
f 104 103 32
f 112 103 104
f 32 30 104
f 30 112 104
f 27 108 109
f 109 26 27
f 108 183 109
f 40 41 37
f 37 41 42
f 170 40 171
f 170 169 40
f 170 171 172
f 172 169 170
f 185 97 116
f 262 261 183
f 183 182 262
f 265 261 262
f 262 182 192
f 89 120 121
f 124 14 15
f 186 113 121
f 114 113 186
f 186 187 114
f 342 344 341
f 342 339 340
f 341 339 342
f 343 353 341
f 341 344 343
f 345 353 343
f 343 344 345
f 307 294 308
f 351 264 306
f 294 307 306
f 350 351 306
f 306 307 350
f 149 147 151
f 49 156 151
f 56 49 151
f 215 156 155
f 146 150 205
f 205 206 146
f 145 207 208
f 208 209 145
f 315 209 208
f 208 310 315
f 219 251 252
f 252 220 219
f 251 344 252
f 344 342 252
f 252 342 340
f 330 329 318
f 253 315 316
f 315 310 316
f 316 254 253
f 316 328 254
f 207 206 298
f 110 111 26
f 26 109 110
f 197 111 110
f 110 109 183
f 173 40 79
f 40 37 79
f 42 173 79
f 79 37 42
f 191 192 106
f 106 98 191
f 191 98 97
f 97 185 191
f 116 115 176
f 265 262 354
f 354 345 265
f 354 353 345
f 192 353 354
f 354 262 192
f 125 124 119
f 18 13 125
f 125 13 14
f 14 124 125
f 10 12 126
f 123 124 15
f 15 16 123
f 119 124 123
f 179 186 121
f 258 187 259
f 187 186 259
f 159 52 46
f 159 160 52
f 162 155 50
f 162 50 51
f 51 81 162
f 51 52 161
f 52 160 161
f 161 81 51
f 161 162 81
f 156 215 216
f 216 151 156
f 216 217 149
f 149 151 216
f 217 216 222
f 204 150 217
f 204 205 150
f 291 252 340
f 340 338 291
f 336 338 337
f 337 335 336
f 349 337 350
f 349 335 337
f 349 307 308
f 350 307 349
f 207 298 297
f 297 208 207
f 310 208 297
f 311 300 301
f 196 110 183
f 197 110 196
f 183 261 196
f 196 261 265
f 265 197 196
f 263 185 264
f 263 191 185
f 264 353 263
f 263 353 192
f 192 191 263
f 116 176 177
f 177 306 264
f 115 187 188
f 188 176 115
f 188 187 295
f 295 294 188
f 18 125 117
f 119 118 117
f 117 125 119
f 64 65 128
f 86 126 12
f 87 16 11
f 87 123 16
f 11 9 87
f 260 259 186
f 220 159 158
f 157 219 158
f 219 220 158
f 158 80 157
f 47 80 158
f 46 47 158
f 158 159 46
f 160 159 221
f 221 159 220
f 221 291 247
f 220 252 221
f 252 291 221
f 211 215 155
f 148 151 147
f 148 154 151
f 148 147 54
f 82 154 148
f 148 55 82
f 148 54 55
f 56 151 152
f 217 222 223
f 247 291 290
f 335 349 348
f 348 349 308
f 278 300 298
f 206 205 278
f 278 298 206
f 317 318 329
f 317 312 318
f 301 312 317
f 317 311 301
f 329 323 317
f 323 328 317
f 328 316 317
f 316 311 317
f 310 297 299
f 299 297 298
f 299 316 310
f 299 311 316
f 298 300 299
f 300 311 299
f 184 185 116
f 116 177 184
f 264 185 184
f 184 177 264
f 306 177 293
f 293 177 176
f 176 188 293
f 294 306 293
f 293 188 294
f 88 117 118
f 95 66 133
f 65 66 95
f 131 128 65
f 129 86 64
f 64 128 129
f 10 126 127
f 127 9 10
f 155 162 210
f 210 211 155
f 162 161 210
f 151 154 153
f 153 152 151
f 153 154 82
f 82 55 153
f 153 55 56
f 56 152 153
f 289 291 338
f 289 290 291
f 335 348 333
f 308 296 238
f 238 296 258
f 205 204 224
f 224 278 205
f 224 204 217
f 217 223 224
f 224 223 277
f 277 278 224
f 96 131 65
f 65 95 96
f 126 86 130
f 86 129 130
f 180 130 129
f 126 130 180
f 321 323 329
f 321 329 330
f 330 326 321
f 123 87 122
f 122 87 9
f 9 127 122
f 179 225 257
f 186 179 257
f 257 260 186
f 213 161 160
f 213 210 161
f 290 289 287
f 338 336 287
f 287 289 338
f 275 274 222
f 275 222 216
f 275 216 215
f 215 273 275
f 215 211 272
f 272 273 215
f 228 278 277
f 300 278 228
f 301 300 228
f 277 223 242
f 242 223 222
f 334 336 335
f 335 333 334
f 334 287 336
f 309 348 308
f 308 238 309
f 258 259 237
f 237 238 258
f 327 326 330
f 193 326 327
f 327 246 193
f 195 120 119
f 119 123 195
f 123 122 195
f 189 129 128
f 189 180 129
f 126 180 181
f 181 127 126
f 193 127 181
f 181 326 193
f 199 324 255
f 324 323 255
f 214 213 160
f 214 221 247
f 160 221 214
f 247 290 214
f 290 287 288
f 319 314 331
f 330 318 319
f 318 313 319
f 319 327 330
f 331 327 319
f 305 319 313
f 314 319 305
f 302 228 230
f 301 228 302
f 229 228 277
f 230 228 229
f 222 274 243
f 243 242 222
f 273 272 270
f 259 260 235
f 235 237 259
f 193 246 194
f 246 195 194
f 194 195 122
f 194 127 193
f 194 122 127
f 120 195 178
f 121 120 178
f 178 179 121
f 282 327 331
f 246 327 282
f 331 332 282
f 128 131 190
f 190 189 128
f 131 96 190
f 190 96 95
f 190 95 133
f 133 94 190
f 190 94 93
f 190 93 132
f 132 134 190
f 323 321 322
f 322 321 326
f 322 255 323
f 180 255 322
f 180 189 198
f 198 255 180
f 199 255 198
f 189 190 198
f 134 199 198
f 198 190 134
f 292 214 290
f 213 214 292
f 210 213 267
f 286 288 287
f 331 314 320
f 320 332 331
f 303 312 301
f 301 302 303
f 318 312 303
f 303 313 318
f 303 305 313
f 303 302 230
f 277 242 241
f 241 229 277
f 271 272 211
f 271 270 272
f 273 270 276
f 274 275 276
f 276 275 273
f 260 257 236
f 236 235 260
f 284 225 179
f 179 178 284
f 281 332 280
f 281 282 332
f 281 195 246
f 246 282 281
f 325 181 180
f 180 322 325
f 326 181 325
f 325 322 326
f 231 267 213
f 213 292 231
f 290 288 231
f 231 292 290
f 287 334 285
f 285 286 287
f 304 303 230
f 305 303 304
f 210 267 266
f 226 257 225
f 256 281 280
f 256 178 195
f 195 281 256
f 267 231 232
f 288 286 232
f 232 231 288
f 270 271 269
f 244 269 268
f 268 269 271
f 268 271 211
f 211 210 268
f 210 266 268
f 227 236 257
f 257 226 227
f 225 284 239
f 239 226 225
f 267 232 233
f 240 239 284
f 245 266 267
f 267 233 245
f 244 268 245
f 245 268 266
f 279 256 280
f 279 240 256
f 283 240 284
f 256 240 283
f 283 284 178
f 178 256 283
f 348 309 234
f 230 229 234
f 234 241 242
f 234 333 348
f 234 243 274
f 280 332 234
f 234 285 334
f 234 334 333
f 234 309 238
f 238 237 234
f 234 232 286
f 314 305 234
f 234 320 314
f 242 243 234
f 274 276 234
f 237 235 234
f 234 304 230
f 332 320 234
f 229 241 234
f 234 276 270
f 235 236 234
f 286 285 234
f 305 304 234
f 236 227 234
f 270 269 234
f 244 245 234
f 234 269 244
f 234 227 226
f 226 239 234
f 234 233 232
f 239 240 234
f 234 245 233
f 240 279 234
f 234 279 280
f 135 137 136
f 136 71 135
f 25 19 113
f 113 19 121
f 113 114 25
f 156 49 50
f 50 155 156
f 121 19 89
f 19 20 89
f 20 120 89
f 86 12 64
f 88 118 18
f 18 117 88

