# https://github.com/mikedh/trimesh
v -0.00307513 0.00986153 0.04304792
v -0.00307452 0.01094405 0.04304792
v -0.00304802 0.00703960 0.04304792
v -0.00304682 0.00395326 0.04537764
v -0.00304682 0.00395326 0.04749443
v -0.00304742 0.00444615 0.04749443
v -0.00304802 0.00661304 0.04749443
v -0.00304802 0.00769556 0.04749443
v -0.00307272 0.01186996 0.04304792
v -0.00304020 0.00661304 0.04304792
v -0.00304622 0.00395326 0.04532900
v -0.00304321 0.00395326 0.04754366
v -0.00303056 0.00498787 0.04803593
v -0.00304140 0.00552960 0.04803593
v -0.00304140 0.00607132 0.04803593
v -0.00304200 0.00823729 0.04749443
v -0.00304501 0.00931981 0.04695292
v -0.00304863 0.00877809 0.04695292
v -0.00306248 0.01202842 0.04304792
v -0.00304863 0.00986153 0.04641142
v -0.00304923 0.01094405 0.04532900
v -0.00304140 0.01148578 0.04478750
v -0.00303116 0.00649788 0.04304792
v -0.00291191 0.00395326 0.04478631
v -0.00290408 0.00395326 0.04807923
v -0.00300165 0.00444615 0.04803593
v -0.00286072 0.00498787 0.04845348
v -0.00287156 0.00552960 0.04847542
v -0.00287156 0.00607132 0.04847542
v -0.00303237 0.00661304 0.04803593
v -0.00298840 0.00877809 0.04749443
v -0.00300225 0.00715476 0.04803593
v -0.00296250 0.00986153 0.04695292
v -0.00298900 0.01040325 0.04641142
v -0.00304020 0.01202750 0.04370449
v -0.00289324 0.01259778 0.04304792
v -0.00299201 0.01094405 0.04587051
v -0.00298298 0.01202750 0.04424599
v -0.00286795 0.00593865 0.04304792
v -0.00290348 0.00395326 0.04476555
v -0.00287638 0.00395326 0.04814091
v -0.00283181 0.00444615 0.04841137
v -0.00243673 0.00498787 0.04868301
v -0.00243673 0.00552960 0.04872216
v -0.00243673 0.00607132 0.04872275
v -0.00286253 0.00661304 0.04845526
v -0.00293420 0.00769556 0.04803593
v -0.00284386 0.00819214 0.04805254
v -0.00281796 0.00877809 0.04787876
v -0.00286614 0.00930323 0.04751222
v -0.00283181 0.00715476 0.04841196
v -0.00279206 0.00986153 0.04731531
v -0.00279869 0.01035074 0.04691615
v -0.00281856 0.01090904 0.04637821
v -0.00287216 0.01249091 0.04370449
v -0.00278785 0.01278204 0.04304792
v -0.00282097 0.01136324 0.04587051
v -0.00290589 0.01153184 0.04537289
v -0.00285831 0.01203948 0.04476140
v -0.00281194 0.01239510 0.04424599
v -0.00279809 0.00584560 0.04304792
v -0.00243673 0.00395326 0.04438122
v -0.00281435 0.00395326 0.04826547
v -0.00277701 0.00400485 0.04835977
v -0.00243673 0.00444615 0.04860591
v -0.00199527 0.00498787 0.04880697
v -0.00207477 0.00552960 0.04882417
v -0.00207537 0.00607132 0.04882477
v -0.00243673 0.00661304 0.04868598
v -0.00276376 0.00769556 0.04834850
v -0.00274930 0.00911160 0.04779928
v -0.00271558 0.00798117 0.04831173
v -0.00243673 0.00715476 0.04860769
v -0.00271136 0.01013608 0.04722635
v -0.00274147 0.01070544 0.04671153
v -0.00274509 0.01124624 0.04617596
v -0.00262945 0.01281152 0.04335100
v -0.00264933 0.01288523 0.04304792
v -0.00281073 0.01186627 0.04522165
v -0.00274147 0.01232139 0.04456330
v -0.00270654 0.00576729 0.04304792
v -0.00189529 0.00395326 0.04436995
v -0.00243673 0.00570556 0.04304792
v -0.00192721 0.00568253 0.04304792
v -0.00189529 0.00568161 0.04304792
v -0.00267583 0.00395326 0.04838883
v -0.00247768 0.00395326 0.04847009
v -0.00189168 0.00395326 0.04865217
v -0.00185675 0.00447932 0.04877257
v -0.00165017 0.00468200 0.04885442
v -0.00172425 0.00498787 0.04887399
v -0.00180375 0.00552960 0.04889653
v -0.00180495 0.00607132 0.04889594
v -0.00199647 0.00661304 0.04880816
v -0.00185735 0.00712252 0.04877376
v -0.00243673 0.00877809 0.04809109
v -0.00243673 0.00923136 0.04787046
v -0.00243673 0.00950223 0.04771981
v -0.00243673 0.00769556 0.04848195
v -0.00243673 0.00810646 0.04835740
v -0.00243673 0.00837732 0.04825716
v -0.00189529 0.00769556 0.04864387
v -0.00243673 0.00986153 0.04750155
v -0.00243673 0.01020333 0.04727676
v -0.00243673 0.01047419 0.04705316
v -0.00243673 0.01078375 0.04678270
v -0.00243673 0.01105461 0.04652648
v -0.00243673 0.01131534 0.04625603
v -0.00247106 0.01161199 0.04586042
v -0.00267402 0.01174282 0.04558226
v -0.00244396 0.01276546 0.04371516
v -0.00244396 0.01292300 0.04316773
v -0.00244275 0.01295156 0.04304792
v -0.00243673 0.01237298 0.04466947
v -0.00243673 0.01257106 0.04424599
v -0.00243673 0.01223663 0.04494052
v -0.00101840 0.00395326 0.04436936
v 0.00060651 0.00395326 0.04436876
v 0.00027044 0.00568161 0.04304792
v -0.00184651 0.00395326 0.04866225
v -0.00147913 0.00432086 0.04882358
v -0.00132073 0.00447932 0.04888229
v -0.00135386 0.00498787 0.04895525
v -0.00135386 0.00552960 0.04899558
v -0.00135386 0.00607132 0.04899499
v -0.00172606 0.00661304 0.04887399
v -0.00165138 0.00692075 0.04885501
v -0.00148154 0.00728190 0.04882417
v -0.00215366 0.00849893 0.04830343
v -0.00194227 0.00879006 0.04824293
v -0.00194950 0.00937417 0.04795527
v -0.00216571 0.00959067 0.04776548
v -0.00194227 0.00828611 0.04844103
v -0.00132194 0.00765871 0.04877257
v -0.00135386 0.00823729 0.04859938
v -0.00194950 0.00986061 0.04766228
v -0.00189529 0.01032310 0.04736573
v -0.00189529 0.01059396 0.04715577
v -0.00189529 0.01088878 0.04688531
v -0.00189529 0.01115964 0.04662968
v -0.00189529 0.01140931 0.04635863
v -0.00189529 0.01168017 0.04603539
v -0.00231326 0.01181007 0.04567300
v -0.00247106 0.01195656 0.04537289
v -0.00209765 0.01281889 0.04390318
v -0.00226870 0.01287048 0.04354198
v -0.00189529 0.01308515 0.04316298
v -0.00189529 0.01311094 0.04304792
v -0.00212716 0.01228730 0.04503482
v -0.00192601 0.01244669 0.04482724
v -0.00190854 0.01273413 0.04423532
v -0.00173690 0.01287325 0.04404789
v 0.00189535 0.00395326 0.04436876
v 0.00189535 0.00568253 0.04304792
v -0.00132495 0.00395326 0.04877494
v -0.00111777 0.00414949 0.04885442
v -0.00081182 0.00444615 0.04895525
v -0.00081182 0.00498787 0.04903591
v -0.00081182 0.00552960 0.04906853
v -0.00081182 0.00607132 0.04906853
v -0.00081182 0.00661304 0.04903591
v -0.00135386 0.00661304 0.04895525
v -0.00132194 0.00712252 0.04888289
v -0.00112078 0.00745234 0.04885501
v -0.00179291 0.00861870 0.04835325
v -0.00146407 0.00897893 0.04827792
v -0.00180495 0.00968004 0.04782360
v -0.00131170 0.00927006 0.04816582
v -0.00081182 0.00779691 0.04880697
v -0.00081182 0.00823729 0.04868123
v -0.00081182 0.00877809 0.04847365
v -0.00131170 0.00879006 0.04838765
v -0.00137614 0.01044655 0.04741021
v -0.00157188 0.01065661 0.04720915
v -0.00135386 0.01003750 0.04770320
v -0.00159476 0.01120662 0.04667416
v -0.00138337 0.01149499 0.04642209
v -0.00117198 0.01177967 0.04617062
v -0.00153273 0.01173176 0.04610656
v -0.00189529 0.01187641 0.04576493
v -0.00192601 0.01217030 0.04531655
v -0.00190854 0.01292760 0.04371516
v -0.00135386 0.01306119 0.04370449
v -0.00135386 0.01320952 0.04316298
v -0.00135085 0.01323532 0.04304792
v -0.00176641 0.01233982 0.04512735
v -0.00135386 0.01261068 0.04478750
v -0.00135386 0.01291286 0.04413982
v -0.00135386 0.01278941 0.04441088
v 0.00222178 0.00395326 0.04437470
v 0.00243678 0.00570741 0.04304792
v 0.00243678 0.00395326 0.04437944
v -0.00131050 0.00395326 0.04877732
v -0.00081182 0.00407579 0.04887399
v -0.00128099 0.00395326 0.04878147
v -0.00081182 0.00395326 0.04884434
v -0.00027039 0.00444615 0.04899558
v -0.00027039 0.00498787 0.04906853
v -0.00027039 0.00552960 0.04910649
v -0.00027039 0.00607132 0.04910708
v -0.00027039 0.00661304 0.04906853
v -0.00027039 0.00715476 0.04899558
v -0.00081182 0.00715476 0.04895525
v -0.00081182 0.00752605 0.04887399
v -0.00110272 0.00905724 0.04831054
v -0.00135386 0.00976664 0.04788113
v -0.00081182 0.00936587 0.04819785
v -0.00027039 0.00760620 0.04889653
v -0.00027039 0.00787706 0.04882477
v -0.00027039 0.00823729 0.04872275
v -0.00027039 0.00877809 0.04851932
v -0.00081182 0.00909501 0.04832834
v -0.00121052 0.01071097 0.04725600
v -0.00140264 0.01095879 0.04696716
v -0.00081182 0.00983481 0.04792680
v -0.00081182 0.01010567 0.04774769
v -0.00081182 0.01040325 0.04754069
v -0.00123401 0.01125822 0.04672517
v -0.00081182 0.01156501 0.04647251
v -0.00081182 0.01180454 0.04620146
v -0.00081182 0.01204132 0.04587051
v -0.00081182 0.01226519 0.04554964
v -0.00135386 0.01221913 0.04548143
v -0.00135265 0.01192431 0.04590431
v -0.00081182 0.01313397 0.04370449
v -0.00081182 0.01328046 0.04316298
v -0.00081182 0.01330810 0.04304792
v -0.00118282 0.01325927 0.04304792
v -0.00135386 0.01239049 0.04521038
v -0.00076786 0.01272123 0.04473530
v -0.00091842 0.01282442 0.04448323
v -0.00076786 0.01292853 0.04427980
v 0.00245606 0.00571293 0.04304792
v 0.00258494 0.00395326 0.04443875
v 0.00279814 0.00584744 0.04304792
v -0.00027039 0.00399472 0.04889653
v -0.00038662 0.00395326 0.04887755
v 0.00027044 0.00444615 0.04899558
v 0.00027044 0.00498787 0.04906853
v 0.00027044 0.00552960 0.04910649
v 0.00027044 0.00607132 0.04910708
v 0.00027044 0.00661304 0.04906853
v 0.00027044 0.00715476 0.04899558
v -0.00027039 0.00941286 0.04822098
v 0.00027044 0.00760620 0.04889653
v 0.00027044 0.00787706 0.04882477
v 0.00027044 0.00823729 0.04872275
v 0.00027044 0.00877809 0.04851932
v -0.00027039 0.00914200 0.04835028
v -0.00081182 0.01074874 0.04728803
v -0.00081182 0.01101960 0.04703181
v -0.00031977 0.00991497 0.04792028
v -0.00053297 0.01013147 0.04776489
v -0.00031977 0.01035811 0.04761957
v -0.00081182 0.01129415 0.04676135
v -0.00027039 0.01159265 0.04650335
v -0.00027039 0.01183034 0.04623290
v -0.00023666 0.01213253 0.04581891
v -0.00039445 0.01228454 0.04557929
v -0.00023666 0.01242826 0.04537111
v -0.00081182 0.01243195 0.04527859
v -0.00027039 0.01318465 0.04370449
v -0.00031977 0.01333205 0.04314459
v -0.00027039 0.01298933 0.04424599
v -0.00024570 0.01336522 0.04304792
v -0.00039927 0.01335048 0.04304792
v -0.00069619 0.01332192 0.04304792
v -0.00027039 0.01272860 0.04481952
v -0.00055767 0.01284192 0.04452001
v 0.00290414 0.00395326 0.04476496
v 0.00289812 0.00605105 0.04304792
v -0.00027039 0.00395326 0.04888586
v 0.00027044 0.00399472 0.04889653
v 0.00081188 0.00407579 0.04887399
v 0.00081188 0.00444615 0.04895525
v 0.00081188 0.00498787 0.04903591
v 0.00081188 0.00552960 0.04906853
v 0.00081188 0.00607132 0.04906853
v 0.00081188 0.00661304 0.04903591
v 0.00081188 0.00715476 0.04895525
v 0.00081188 0.00752605 0.04887399
v 0.00027044 0.00941286 0.04822098
v 0.00081188 0.00779691 0.04880697
v 0.00081188 0.00823729 0.04868123
v 0.00081188 0.00877809 0.04847365
v 0.00081188 0.00909501 0.04832834
v 0.00027044 0.00914200 0.04835028
v -0.00027039 0.01077822 0.04731294
v -0.00027039 0.01104908 0.04705968
v 0.00031983 0.00991497 0.04792028
v -0.00017222 0.01014805 0.04777675
v -0.00027039 0.01132179 0.04678863
v 0.00027044 0.01159265 0.04650335
v 0.00027044 0.01183034 0.04623290
v -0.00003370 0.01230112 0.04560420
v 0.00023672 0.01242826 0.04537111
v 0.00027044 0.01318465 0.04370449
v -0.00027039 0.01285482 0.04454847
v 0.00027044 0.01298933 0.04424599
v 0.00024575 0.01336522 0.04304792
v 0.00027044 0.01272860 0.04481952
v 0.00304688 0.00395326 0.04532900
v 0.00304025 0.00661304 0.04304792
v 0.00027044 0.00395326 0.04888586
v 0.00081188 0.00395326 0.04884434
v 0.00094438 0.00395326 0.04882832
v 0.00111783 0.00414949 0.04885442
v 0.00132019 0.00447932 0.04888229
v 0.00135392 0.00498787 0.04895525
v 0.00135392 0.00552960 0.04899558
v 0.00135392 0.00607132 0.04899499
v 0.00135392 0.00661304 0.04895525
v 0.00132200 0.00712252 0.04888289
v 0.00112084 0.00745234 0.04885501
v 0.00081188 0.00936587 0.04819785
v 0.00081188 0.00983481 0.04792680
v 0.00132200 0.00765871 0.04877257
v 0.00135392 0.00823729 0.04859938
v 0.00131176 0.00879006 0.04838765
v 0.00110277 0.00905724 0.04831054
v 0.00027044 0.01077822 0.04731294
v 0.00027044 0.01104908 0.04705968
v 0.00053303 0.01013147 0.04776489
v 0.00017228 0.01014805 0.04777675
v 0.00027044 0.01132179 0.04678863
v 0.00081188 0.01129415 0.04676135
v 0.00081188 0.01156501 0.04647251
v 0.00081188 0.01180454 0.04620146
v 0.00023672 0.01213253 0.04581891
v 0.00003376 0.01230112 0.04560420
v 0.00039451 0.01228454 0.04557929
v 0.00081188 0.01226519 0.04554964
v 0.00081188 0.01243195 0.04527859
v 0.00081188 0.01313397 0.04370449
v 0.00031983 0.01333205 0.04314459
v 0.00027044 0.01285482 0.04454847
v 0.00055712 0.01284192 0.04452001
v 0.00076731 0.01292853 0.04427980
v 0.00039933 0.01335048 0.04304792
v 0.00081188 0.01328046 0.04316298
v 0.00076731 0.01272123 0.04473530
v 0.00304808 0.00395326 0.04587051
v 0.00304748 0.00715476 0.04304792
v 0.00307579 0.00947274 0.04304792
v 0.00131055 0.00395326 0.04877732
v 0.00132501 0.00395326 0.04877494
v 0.00147858 0.00432086 0.04882358
v 0.00165023 0.00468200 0.04885442
v 0.00172431 0.00498787 0.04887399
v 0.00180381 0.00552960 0.04889653
v 0.00180501 0.00607132 0.04889594
v 0.00172611 0.00661304 0.04887399
v 0.00165143 0.00692075 0.04885501
v 0.00148160 0.00728190 0.04882417
v 0.00135392 0.00976664 0.04788113
v 0.00131176 0.00927006 0.04816582
v 0.00135392 0.01003750 0.04770320
v 0.00081188 0.01010567 0.04774769
v 0.00189535 0.00769556 0.04864387
v 0.00194233 0.00828611 0.04844103
v 0.00179297 0.00861870 0.04835325
v 0.00146413 0.00897893 0.04827792
v 0.00031983 0.01035811 0.04761957
v 0.00081188 0.01074874 0.04728803
v 0.00081188 0.01101960 0.04703181
v 0.00081188 0.01040325 0.04754069
v 0.00123407 0.01125822 0.04672517
v 0.00117203 0.01177967 0.04617062
v 0.00081188 0.01204132 0.04587051
v 0.00135392 0.01221913 0.04548143
v 0.00135392 0.01239049 0.04521038
v 0.00135392 0.01321321 0.04316298
v 0.00135392 0.01291378 0.04413982
v 0.00135392 0.01306304 0.04370449
v 0.00091848 0.01282442 0.04448323
v 0.00081188 0.01330810 0.04304792
v 0.00135392 0.01261068 0.04478750
v 0.00304808 0.00395326 0.04749443
v 0.00307759 0.01094405 0.04304792
v 0.00189174 0.00395326 0.04865336
v 0.00185681 0.00447932 0.04877316
v 0.00199533 0.00498787 0.04880697
v 0.00207482 0.00552960 0.04882417
v 0.00207543 0.00607132 0.04882477
v 0.00199653 0.00661304 0.04880816
v 0.00185741 0.00712252 0.04877376
v 0.00180501 0.00968004 0.04782360
v 0.00194955 0.00937417 0.04795527
v 0.00189535 0.01032402 0.04736573
v 0.00137620 0.01044655 0.04741021
v 0.00121058 0.01071097 0.04725600
v 0.00243678 0.00715476 0.04860650
v 0.00243678 0.00769556 0.04848136
v 0.00271563 0.00798117 0.04831173
v 0.00243678 0.00810646 0.04835740
v 0.00215372 0.00849893 0.04830343
v 0.00194233 0.00879006 0.04824293
v 0.00140270 0.01095879 0.04696716
v 0.00159482 0.01120662 0.04667416
v 0.00138343 0.01149499 0.04642209
v 0.00189535 0.01140931 0.04635863
v 0.00153279 0.01173176 0.04610656
v 0.00135271 0.01192431 0.04590431
v 0.00189535 0.01187641 0.04576493
v 0.00192607 0.01217030 0.04531655
v 0.00176647 0.01233982 0.04512735
v 0.00135090 0.01323808 0.04304792
v 0.00189535 0.01309989 0.04316298
v 0.00173756 0.01287325 0.04404789
v 0.00135392 0.01278941 0.04441088
v 0.00190920 0.01293313 0.04372109
v 0.00192607 0.01244669 0.04482724
v 0.00293967 0.00395326 0.04803593
v 0.00304808 0.00444615 0.04749443
v 0.00304206 0.00552960 0.04803593
v 0.00303122 0.00498787 0.04803593
v 0.00300291 0.00444615 0.04803593
v 0.00307037 0.01148578 0.04304792
v 0.00304627 0.00986153 0.04641142
v 0.00304447 0.00823729 0.04749443
v 0.00304688 0.00769556 0.04749443
v 0.00304748 0.00715476 0.04749443
v 0.00194413 0.00395326 0.04863912
v 0.00243678 0.00444615 0.04860709
v 0.00243678 0.00498787 0.04868361
v 0.00243678 0.00552960 0.04872275
v 0.00243678 0.00607132 0.04872216
v 0.00243678 0.00661304 0.04868539
v 0.00194955 0.00986061 0.04766228
v 0.00216577 0.00959067 0.04776548
v 0.00243678 0.00923597 0.04787461
v 0.00243678 0.01020333 0.04727617
v 0.00189535 0.01059488 0.04715695
v 0.00157193 0.01065661 0.04720915
v 0.00283127 0.00715476 0.04841078
v 0.00276321 0.00769556 0.04834791
v 0.00282765 0.00877809 0.04788529
v 0.00275779 0.00911805 0.04780462
v 0.00243678 0.00877809 0.04809821
v 0.00243678 0.00837732 0.04826013
v 0.00189535 0.01115964 0.04662968
v 0.00243678 0.01131073 0.04625128
v 0.00189535 0.01168017 0.04603539
v 0.00230850 0.01181007 0.04567300
v 0.00246810 0.01195564 0.04537111
v 0.00212722 0.01228730 0.04503482
v 0.00189535 0.01312384 0.04304792
v 0.00229405 0.01287693 0.04355206
v 0.00245967 0.01293221 0.04317722
v 0.00190920 0.01273413 0.04423532
v 0.00243678 0.01256554 0.04424599
v 0.00209891 0.01281981 0.04391326
v 0.00276923 0.00395326 0.04835443
v 0.00283247 0.00444615 0.04841196
v 0.00287222 0.00552960 0.04847602
v 0.00304146 0.00607132 0.04803593
v 0.00286138 0.00498787 0.04845407
v 0.00304627 0.01094405 0.04532900
v 0.00304627 0.01040325 0.04587051
v 0.00306073 0.01202934 0.04304792
v 0.00299087 0.01040325 0.04641142
v 0.00303724 0.00931981 0.04695292
v 0.00299749 0.00877809 0.04749443
v 0.00300111 0.00715476 0.04803593
v 0.00303182 0.00661304 0.04803593
v 0.00243678 0.00395326 0.04849203
v 0.00287162 0.00607132 0.04847542
v 0.00286198 0.00661304 0.04845526
v 0.00243678 0.00950683 0.04771447
v 0.00271021 0.01013423 0.04722575
v 0.00243678 0.01047419 0.04705731
v 0.00243678 0.01078743 0.04678626
v 0.00189535 0.01088878 0.04688590
v 0.00293305 0.00769556 0.04803593
v 0.00284632 0.00819214 0.04805491
v 0.00286560 0.00930691 0.04750807
v 0.00278489 0.00986153 0.04730938
v 0.00243678 0.01105829 0.04652174
v 0.00273731 0.01123979 0.04616943
v 0.00266986 0.01174098 0.04557989
v 0.00246810 0.01160647 0.04586042
v 0.00243678 0.01223571 0.04493399
v 0.00243678 0.01236930 0.04466354
v 0.00245425 0.01295893 0.04304792
v 0.00245967 0.01276730 0.04372109
v 0.00265541 0.01281981 0.04336760
v 0.00273551 0.01286219 0.04304792
v 0.00267588 0.01288338 0.04304792
v 0.00273310 0.01231771 0.04455500
v 0.00303845 0.01148578 0.04478750
v 0.00298364 0.01094405 0.04587051
v 0.00303182 0.01202750 0.04370449
v 0.00288908 0.01260147 0.04304792
v 0.00281621 0.01091181 0.04637465
v 0.00279995 0.01034982 0.04691852
v 0.00295413 0.00986153 0.04695292
v 0.00274635 0.01071004 0.04671509
v 0.00281440 0.01135679 0.04587051
v 0.00281079 0.01186535 0.04521928
v 0.00280055 0.01238865 0.04424599
v 0.00277465 0.01280507 0.04304792
v 0.00286560 0.01249460 0.04370449
v 0.00296979 0.01202750 0.04424599
v 0.00290474 0.01153000 0.04537111
v 0.00284693 0.01267793 0.04304792
v 0.00285235 0.01203855 0.04475666
f 1 2 9
f 1 9 19
f 1 19 36
f 1 36 56
f 1 56 78
f 1 78 113
f 1 113 148
f 1 148 185
f 1 185 228
f 1 228 227
f 1 227 267
f 1 267 266
f 1 266 265
f 1 265 300
f 1 300 339
f 1 339 376
f 1 376 407
f 1 407 447
f 1 447 484
f 1 484 488
f 1 488 487
f 1 487 501
f 1 501 505
f 1 505 493
f 1 493 460
f 1 460 418
f 1 418 379
f 1 379 344
f 1 344 343
f 1 343 303
f 1 303 271
f 1 271 235
f 1 235 233
f 1 233 191
f 1 191 154
f 1 154 119
f 1 119 85
f 1 85 84
f 1 84 83
f 1 83 81
f 1 81 61
f 1 61 39
f 1 39 23
f 1 23 10
f 1 10 3
f 1 3 4
f 1 4 5
f 1 5 6
f 1 6 7
f 1 7 8
f 1 8 2
f 2 8 9
f 3 10 11
f 3 11 4
f 4 11 24
f 4 24 40
f 4 40 62
f 4 62 82
f 4 82 117
f 4 117 118
f 4 118 153
f 4 153 190
f 4 190 192
f 4 192 234
f 4 234 270
f 4 270 302
f 4 302 342
f 4 342 378
f 4 378 413
f 4 413 453
f 4 453 466
f 4 466 423
f 4 423 380
f 4 380 346
f 4 346 345
f 4 345 306
f 4 306 305
f 4 305 304
f 4 304 272
f 4 272 237
f 4 237 196
f 4 196 195
f 4 195 193
f 4 193 155
f 4 155 120
f 4 120 88
f 4 88 87
f 4 87 86
f 4 86 63
f 4 63 41
f 4 41 25
f 4 25 12
f 4 12 5
f 5 12 13
f 5 13 14
f 5 14 6
f 6 14 7
f 7 14 15
f 7 15 8
f 8 15 16
f 8 16 17
f 8 17 18
f 8 18 9
f 9 18 20
f 9 20 21
f 9 21 22
f 9 22 19
f 10 23 11
f 11 23 24
f 12 25 26
f 12 26 13
f 13 27 28
f 13 28 14
f 13 26 27
f 14 28 29
f 14 29 15
f 15 29 30
f 15 30 16
f 16 31 17
f 16 30 32
f 16 32 31
f 17 31 33
f 17 33 34
f 17 34 20
f 17 20 18
f 19 22 35
f 19 35 36
f 20 34 37
f 20 37 21
f 21 37 22
f 22 37 38
f 22 38 35
f 23 39 24
f 24 39 40
f 25 41 26
f 26 41 42
f 26 42 27
f 27 43 44
f 27 44 28
f 27 42 43
f 28 44 45
f 28 45 29
f 29 45 46
f 29 46 30
f 30 46 32
f 31 32 47
f 31 47 48
f 31 48 49
f 31 49 50
f 31 50 33
f 32 46 51
f 32 51 47
f 33 52 53
f 33 53 54
f 33 54 34
f 33 50 52
f 34 54 37
f 35 38 55
f 35 55 36
f 36 55 56
f 37 57 58
f 37 58 38
f 37 54 57
f 38 58 59
f 38 59 60
f 38 60 55
f 39 61 40
f 40 61 62
f 41 63 64
f 41 64 42
f 42 65 43
f 42 64 65
f 43 66 67
f 43 67 44
f 43 65 66
f 44 67 68
f 44 68 45
f 45 68 69
f 45 69 46
f 46 69 51
f 47 51 48
f 48 51 70
f 48 70 49
f 49 71 50
f 49 70 72
f 49 72 71
f 50 71 52
f 51 73 70
f 51 69 73
f 52 74 53
f 52 71 74
f 53 75 54
f 53 74 75
f 54 75 76
f 54 76 57
f 55 60 56
f 56 60 77
f 56 77 78
f 57 76 79
f 57 79 58
f 58 79 59
f 59 79 60
f 60 80 77
f 60 79 80
f 61 81 62
f 62 81 83
f 62 83 84
f 62 84 85
f 62 85 82
f 63 86 64
f 64 86 65
f 65 86 87
f 65 87 88
f 65 88 89
f 65 89 66
f 66 89 90
f 66 90 91
f 66 91 92
f 66 92 67
f 67 92 68
f 68 93 94
f 68 94 69
f 68 92 93
f 69 94 95
f 69 95 73
f 70 73 72
f 71 96 97
f 71 97 98
f 71 98 74
f 71 72 96
f 72 73 99
f 72 99 100
f 72 100 101
f 72 101 96
f 73 95 102
f 73 102 99
f 74 98 103
f 74 103 104
f 74 104 105
f 74 105 106
f 74 106 75
f 75 106 107
f 75 107 76
f 76 107 108
f 76 108 109
f 76 109 110
f 76 110 79
f 77 80 111
f 77 111 112
f 77 112 78
f 78 112 113
f 79 110 80
f 80 114 115
f 80 115 111
f 80 110 116
f 80 116 114
f 82 85 117
f 85 118 117
f 85 119 153
f 85 153 118
f 88 120 121
f 88 121 89
f 89 121 90
f 90 121 122
f 90 122 123
f 90 123 91
f 91 123 124
f 91 124 92
f 92 124 93
f 93 125 126
f 93 126 94
f 93 124 125
f 94 126 127
f 94 127 95
f 95 127 128
f 95 128 102
f 96 101 129
f 96 129 130
f 96 130 97
f 97 130 131
f 97 131 132
f 97 132 98
f 98 132 103
f 99 102 100
f 100 133 129
f 100 129 101
f 100 102 133
f 102 128 134
f 102 134 135
f 102 135 133
f 103 132 136
f 103 136 104
f 104 137 138
f 104 138 105
f 104 136 137
f 105 138 106
f 106 138 139
f 106 139 140
f 106 140 107
f 107 140 108
f 108 140 141
f 108 141 142
f 108 142 109
f 109 142 143
f 109 143 110
f 110 143 144
f 110 144 116
f 111 145 146
f 111 146 112
f 111 115 145
f 112 146 147
f 112 147 113
f 113 147 148
f 114 116 149
f 114 149 150
f 114 150 151
f 114 151 152
f 114 152 115
f 115 152 145
f 116 144 149
f 119 154 153
f 120 155 121
f 121 155 156
f 121 156 122
f 122 156 157
f 122 157 123
f 123 157 158
f 123 158 124
f 124 158 159
f 124 159 160
f 124 160 125
f 125 160 161
f 125 161 162
f 125 162 126
f 126 162 127
f 127 163 128
f 127 162 163
f 128 164 134
f 128 163 164
f 129 133 165
f 129 165 130
f 130 166 131
f 130 165 166
f 131 167 132
f 131 166 168
f 131 168 167
f 132 167 136
f 133 135 165
f 134 164 169
f 134 169 170
f 134 170 135
f 135 170 171
f 135 171 172
f 135 172 165
f 136 167 137
f 137 173 174
f 137 174 138
f 137 167 175
f 137 175 173
f 138 174 139
f 139 174 140
f 140 176 141
f 140 174 176
f 141 176 177
f 141 177 178
f 141 178 179
f 141 179 142
f 142 179 180
f 142 180 143
f 143 180 181
f 143 181 144
f 144 181 149
f 145 152 182
f 145 182 146
f 146 182 147
f 147 182 183
f 147 183 184
f 147 184 148
f 148 184 185
f 149 186 150
f 149 181 186
f 150 186 187
f 150 187 152
f 150 152 151
f 152 188 183
f 152 183 182
f 152 187 189
f 152 189 188
f 153 154 190
f 154 191 192
f 154 192 190
f 155 193 156
f 156 194 157
f 156 193 195
f 156 195 196
f 156 196 194
f 157 194 197
f 157 197 158
f 158 197 198
f 158 198 199
f 158 199 159
f 159 199 200
f 159 200 160
f 160 200 161
f 161 201 202
f 161 202 203
f 161 203 162
f 161 200 201
f 162 203 163
f 163 203 164
f 164 203 204
f 164 204 169
f 165 172 166
f 166 172 205
f 166 205 168
f 167 168 206
f 167 206 175
f 168 205 207
f 168 207 206
f 169 204 208
f 169 208 209
f 169 209 210
f 169 210 170
f 170 210 211
f 170 211 171
f 171 211 212
f 171 212 205
f 171 205 172
f 173 213 174
f 173 175 213
f 174 213 214
f 174 214 176
f 175 206 215
f 175 215 216
f 175 216 217
f 175 217 213
f 176 214 218
f 176 218 177
f 177 218 178
f 178 218 219
f 178 219 220
f 178 220 221
f 178 221 222
f 178 222 223
f 178 223 224
f 178 224 179
f 179 224 180
f 180 224 223
f 180 223 181
f 181 223 186
f 183 188 225
f 183 225 184
f 184 226 227
f 184 227 228
f 184 228 185
f 184 225 226
f 186 229 187
f 186 223 229
f 187 229 230
f 187 230 231
f 187 231 189
f 188 232 225
f 188 189 231
f 188 231 232
f 191 233 192
f 192 233 235
f 192 235 234
f 194 236 197
f 194 196 237
f 194 237 236
f 197 238 239
f 197 239 198
f 197 236 273
f 197 273 238
f 198 239 240
f 198 240 199
f 199 240 241
f 199 241 200
f 200 241 242
f 200 242 201
f 201 242 243
f 201 243 202
f 202 243 245
f 202 245 208
f 202 208 204
f 202 204 203
f 205 212 207
f 206 207 215
f 207 244 215
f 207 212 244
f 208 245 246
f 208 246 209
f 209 246 247
f 209 247 210
f 210 247 248
f 210 248 211
f 211 248 287
f 211 287 249
f 211 249 212
f 212 249 244
f 213 217 250
f 213 250 251
f 213 251 218
f 213 218 214
f 215 244 252
f 215 252 253
f 215 253 216
f 216 253 217
f 217 254 250
f 217 253 254
f 218 255 219
f 218 251 255
f 219 256 220
f 219 255 256
f 220 256 257
f 220 257 258
f 220 258 221
f 221 258 222
f 222 258 259
f 222 259 260
f 222 260 261
f 222 261 229
f 222 229 223
f 225 262 263
f 225 263 226
f 225 232 264
f 225 264 262
f 226 263 265
f 226 265 266
f 226 266 267
f 226 267 227
f 229 261 230
f 230 261 268
f 230 268 269
f 230 269 231
f 231 269 232
f 232 269 264
f 234 235 270
f 235 271 270
f 236 237 272
f 236 272 304
f 236 304 273
f 238 273 274
f 238 274 275
f 238 275 276
f 238 276 239
f 239 276 240
f 240 276 277
f 240 277 241
f 241 278 279
f 241 279 242
f 241 277 278
f 242 279 243
f 243 280 281
f 243 281 245
f 243 279 280
f 244 249 287
f 244 287 282
f 244 282 290
f 244 290 252
f 245 281 283
f 245 283 246
f 246 283 247
f 247 284 248
f 247 283 284
f 248 285 286
f 248 286 287
f 248 284 285
f 250 254 288
f 250 288 289
f 250 289 251
f 251 289 255
f 252 290 324
f 252 324 291
f 252 291 253
f 253 291 254
f 254 291 288
f 255 289 292
f 255 292 256
f 256 292 325
f 256 325 293
f 256 293 294
f 256 294 257
f 257 294 330
f 257 330 295
f 257 295 258
f 258 295 259
f 259 295 260
f 260 295 330
f 260 330 296
f 260 296 301
f 260 301 268
f 260 268 261
f 262 264 299
f 262 299 297
f 262 297 300
f 262 300 265
f 262 265 263
f 264 269 298
f 264 298 336
f 264 336 299
f 268 301 336
f 268 336 298
f 268 298 269
f 270 271 303
f 270 303 302
f 273 304 305
f 273 305 274
f 274 305 306
f 274 306 307
f 274 307 275
f 275 308 309
f 275 309 276
f 275 307 308
f 276 309 310
f 276 310 277
f 277 310 278
f 278 311 279
f 278 310 311
f 279 311 312
f 279 312 280
f 280 312 313
f 280 313 314
f 280 314 281
f 281 314 283
f 282 287 286
f 282 286 315
f 282 315 316
f 282 316 290
f 283 314 317
f 283 317 284
f 284 318 285
f 284 317 318
f 285 319 320
f 285 320 286
f 285 318 319
f 286 320 315
f 288 291 324
f 288 324 321
f 288 321 322
f 288 322 289
f 289 322 325
f 289 325 292
f 290 323 324
f 290 316 323
f 293 325 326
f 293 326 327
f 293 327 328
f 293 328 294
f 294 328 329
f 294 329 330
f 296 330 331
f 296 331 332
f 296 332 333
f 296 333 301
f 297 299 334
f 297 334 335
f 297 335 300
f 299 336 337
f 299 337 338
f 299 338 334
f 300 335 340
f 300 340 339
f 301 341 337
f 301 337 336
f 301 333 341
f 302 303 343
f 302 343 344
f 302 344 342
f 306 345 307
f 307 345 346
f 307 346 347
f 307 347 308
f 308 348 309
f 308 347 348
f 309 349 310
f 309 348 349
f 310 349 350
f 310 350 351
f 310 351 311
f 311 351 352
f 311 352 312
f 312 352 353
f 312 353 313
f 313 353 354
f 313 354 314
f 314 354 317
f 315 355 316
f 315 320 356
f 315 356 355
f 316 355 357
f 316 357 358
f 316 358 323
f 317 354 359
f 317 359 318
f 318 360 361
f 318 361 319
f 318 359 360
f 319 362 320
f 319 361 362
f 320 362 356
f 321 324 363
f 321 363 364
f 321 364 322
f 322 364 365
f 322 365 326
f 322 326 325
f 323 358 366
f 323 366 363
f 323 363 324
f 326 365 367
f 326 367 327
f 327 368 328
f 327 367 368
f 328 368 369
f 328 369 329
f 329 369 332
f 329 332 331
f 329 331 330
f 332 369 368
f 332 368 370
f 332 370 371
f 332 371 333
f 333 371 341
f 334 372 340
f 334 340 335
f 334 338 373
f 334 373 374
f 334 374 372
f 337 341 375
f 337 375 338
f 338 375 373
f 339 340 376
f 340 372 376
f 341 371 377
f 341 377 375
f 342 344 378
f 344 379 378
f 346 380 347
f 347 380 381
f 347 381 348
f 348 381 382
f 348 382 349
f 349 382 350
f 350 382 383
f 350 383 384
f 350 384 351
f 351 384 385
f 351 385 352
f 352 385 353
f 353 386 354
f 353 385 386
f 354 386 359
f 355 387 357
f 355 356 387
f 356 362 388
f 356 388 387
f 357 387 389
f 357 389 390
f 357 390 391
f 357 391 366
f 357 366 358
f 359 386 392
f 359 392 393
f 359 393 394
f 359 394 395
f 359 395 360
f 360 396 361
f 360 395 396
f 361 396 397
f 361 397 362
f 362 397 388
f 363 366 364
f 364 366 391
f 364 391 365
f 365 391 367
f 367 391 398
f 367 398 399
f 367 399 400
f 367 400 368
f 368 400 401
f 368 401 402
f 368 402 403
f 368 403 370
f 370 403 404
f 370 404 405
f 370 405 406
f 370 406 371
f 371 406 377
f 372 407 376
f 372 374 408
f 372 408 407
f 373 409 374
f 373 375 410
f 373 410 409
f 374 409 411
f 374 411 408
f 375 377 410
f 377 406 412
f 377 412 409
f 377 409 410
f 378 379 414
f 378 414 415
f 378 415 416
f 378 416 417
f 378 417 413
f 379 418 419
f 379 419 420
f 379 420 421
f 379 421 422
f 379 422 414
f 380 423 381
f 381 424 382
f 381 423 424
f 382 425 383
f 382 424 425
f 383 425 426
f 383 426 384
f 384 427 428
f 384 428 385
f 384 426 427
f 385 428 386
f 386 428 392
f 387 429 389
f 387 388 430
f 387 430 429
f 388 397 431
f 388 431 430
f 389 432 433
f 389 433 434
f 389 434 390
f 389 429 432
f 390 434 391
f 391 434 398
f 392 428 435
f 392 435 436
f 392 436 394
f 392 394 393
f 394 437 438
f 394 438 439
f 394 439 440
f 394 440 395
f 394 436 437
f 395 440 396
f 396 440 439
f 396 439 397
f 397 439 431
f 398 434 399
f 399 401 400
f 399 434 441
f 399 441 401
f 401 441 442
f 401 442 443
f 401 443 402
f 402 443 404
f 402 404 403
f 404 443 444
f 404 444 405
f 405 444 445
f 405 445 446
f 405 446 406
f 406 446 412
f 407 408 447
f 408 411 448
f 408 448 449
f 408 449 447
f 409 412 450
f 409 450 451
f 409 451 452
f 409 452 411
f 411 452 448
f 412 446 450
f 413 417 454
f 413 454 453
f 414 422 415
f 415 455 416
f 415 422 456
f 415 456 455
f 416 455 457
f 416 457 417
f 417 457 454
f 418 458 459
f 418 459 419
f 418 460 458
f 419 459 461
f 419 461 462
f 419 462 420
f 420 462 463
f 420 463 464
f 420 464 465
f 420 465 456
f 420 456 421
f 421 456 422
f 423 466 424
f 424 454 425
f 424 466 453
f 424 453 454
f 425 457 426
f 425 454 457
f 426 457 455
f 426 455 427
f 427 467 468
f 427 468 428
f 427 455 467
f 428 468 435
f 429 430 432
f 430 431 469
f 430 469 470
f 430 470 432
f 431 439 438
f 431 438 470
f 431 470 469
f 432 471 433
f 432 470 471
f 433 471 472
f 433 472 473
f 433 473 434
f 434 473 441
f 435 464 474
f 435 474 475
f 435 475 436
f 435 468 464
f 436 475 437
f 437 463 476
f 437 476 438
f 437 475 474
f 437 474 463
f 438 476 477
f 438 477 470
f 441 478 442
f 441 473 472
f 441 472 478
f 442 478 479
f 442 479 480
f 442 480 481
f 442 481 443
f 443 481 444
f 444 481 480
f 444 480 445
f 445 482 446
f 445 480 482
f 446 483 450
f 446 482 483
f 447 449 484
f 448 452 485
f 448 485 486
f 448 486 449
f 449 486 487
f 449 487 488
f 449 488 484
f 450 483 451
f 451 483 489
f 451 489 485
f 451 485 452
f 455 456 467
f 456 465 467
f 458 460 490
f 458 490 491
f 458 491 461
f 458 461 459
f 460 492 490
f 460 493 492
f 461 491 494
f 461 494 495
f 461 495 496
f 461 496 462
f 462 496 463
f 463 496 476
f 463 474 464
f 464 468 465
f 465 468 467
f 470 477 495
f 470 495 497
f 470 497 471
f 471 497 472
f 472 497 478
f 476 496 477
f 477 496 495
f 478 497 479
f 479 498 499
f 479 499 480
f 479 497 494
f 479 494 498
f 480 499 489
f 480 489 482
f 482 489 483
f 485 489 486
f 486 489 500
f 486 500 487
f 487 500 502
f 487 502 501
f 489 499 500
f 490 492 503
f 490 503 504
f 490 504 491
f 491 504 498
f 491 498 494
f 492 493 502
f 492 502 503
f 493 505 502
f 494 497 495
f 498 504 499
f 499 504 506
f 499 506 500
f 500 506 503
f 500 503 502
f 501 502 505
f 503 506 504

