# https://github.com/mikedh/trimesh
v 0.00243652 0.00396747 0.04849583
v 0.00195882 0.00396797 0.04863835
v 0.00243652 0.00390350 0.04848038
v 0.00243652 0.00396797 0.04810863
v 0.00189097 0.00396797 0.04865638
v 0.00189535 0.00390449 0.04864178
v 0.00243652 0.00349486 0.04835331
v 0.00243652 0.00396797 0.04011991
v 0.00133119 0.00396797 0.04877657
v 0.00132025 0.00394268 0.04877314
v 0.00135363 0.00336245 0.04859800
v 0.00194624 0.00331087 0.04843916
v 0.00216074 0.00309564 0.04830523
v 0.00243652 0.00322408 0.04826059
v 0.00243652 -0.00108845 0.04011991
v -0.00313993 0.00396797 0.04011991
v 0.00129617 0.00396797 0.04878344
v 0.00081191 0.00336245 0.04867956
v 0.00081191 0.00380431 0.04880748
v 0.00081191 0.00282090 0.04847007
v 0.00131423 0.00280751 0.04838594
v 0.00146799 0.00261807 0.04827948
v 0.00180014 0.00297910 0.04835245
v 0.00194624 0.00280751 0.04824428
v 0.00243652 0.00282040 0.04809661
v 0.00210109 -0.00109391 0.04011991
v 0.00243652 -0.00108845 0.04316258
v -0.00315361 0.00336245 0.04011991
v -0.00304690 0.00396797 0.04749477
v 0.00095691 0.00396797 0.04882980
v 0.00027073 0.00336245 0.04872162
v 0.00027073 0.00282090 0.04851643
v 0.00081191 0.00396797 0.04884783
v 0.00027073 0.00396797 0.04888990
v 0.00027073 0.00372298 0.04882465
v 0.00081191 0.00250401 0.04832756
v 0.00110739 0.00254070 0.04831124
v 0.00131423 0.00232795 0.04816701
v 0.00189535 0.00227935 0.04800303
v 0.00238728 0.00229076 0.04785278
v 0.00243652 0.00231605 0.04784591
v 0.00189535 -0.00109688 0.04011991
v 0.00189535 -0.00109688 0.04370432
v 0.00243652 -0.00107011 0.04370346
v -0.00315087 0.00285710 0.04011991
v -0.00304526 0.00336245 0.04749477
v -0.00304690 0.00390449 0.04749477
v -0.00304198 0.00396797 0.04755830
v -0.00027099 0.00336245 0.04872162
v -0.00027099 0.00282090 0.04851643
v 0.00027073 0.00245838 0.04834988
v -0.00027099 0.00396797 0.04888990
v -0.00027099 0.00372298 0.04882465
v 0.00081191 0.00223323 0.04819963
v 0.00135363 0.00183401 0.04788197
v 0.00189535 0.00194113 0.04780900
v 0.00217387 0.00200412 0.04776779
v 0.00243652 0.00223373 0.04780299
v 0.00243652 0.00208693 0.04772057
v 0.00155992 -0.00109738 0.04011991
v 0.00135363 -0.00109391 0.04424606
v 0.00081191 -0.00109738 0.04424606
v 0.00135363 -0.00109738 0.04370432
v 0.00243652 -0.00096348 0.04424520
v 0.00189535 -0.00106316 0.04424606
v -0.00315032 0.00282090 0.04011991
v -0.00304636 0.00065521 0.04532867
v -0.00304636 0.00173781 0.04641129
v -0.00304143 0.00227935 0.04695303
v -0.00299711 0.00282090 0.04749477
v -0.00290737 0.00396797 0.04807772
v -0.00081216 0.00336245 0.04867956
v -0.00081216 0.00380431 0.04880748
v -0.00081216 0.00282090 0.04847007
v -0.00081216 0.00250401 0.04832756
v -0.00027099 0.00245838 0.04834988
v 0.00027073 0.00218761 0.04822110
v -0.00081216 0.00396797 0.04884783
v 0.00027073 0.00173781 0.04796010
v 0.00076375 0.00170359 0.04789657
v 0.00091204 0.00150026 0.04774289
v 0.00135363 0.00156324 0.04770168
v 0.00189535 0.00167036 0.04763729
v 0.00231724 0.00137628 0.04729559
v 0.00243652 0.00177996 0.04751795
v -0.00006524 -0.00109788 0.04011991
v -0.00027099 -0.00109788 0.04424606
v 0.00081191 -0.00104184 0.04478694
v 0.00027073 -0.00106713 0.04478694
v 0.00243652 -0.00078743 0.04468048
v 0.00193858 -0.00085735 0.04483501
v 0.00135363 -0.00099125 0.04478694
v -0.00313391 0.00173781 0.04011991
v -0.00303432 0.00011366 0.04478694
v -0.00298507 0.00065521 0.04586955
v -0.00298616 0.00119675 0.04641129
v -0.00312296 0.00119675 0.04011991
v -0.00303924 -0.00042789 0.04370432
v -0.00286852 0.00229125 0.04751280
v -0.00282748 0.00282090 0.04788283
v -0.00287563 0.00336245 0.04798672
v -0.00290682 0.00168425 0.04700626
v -0.00287508 0.00396797 0.04814898
v -0.00132051 0.00394268 0.04877314
v -0.00135389 0.00336245 0.04859800
v -0.00129588 0.00396797 0.04878344
v -0.00131394 0.00280751 0.04838594
v -0.00110710 0.00254070 0.04831124
v -0.00081216 0.00223323 0.04819963
v -0.00027099 0.00218761 0.04822110
v -0.00027099 0.00173781 0.04796010
v 0.00027073 0.00145364 0.04777466
v 0.00055090 0.00146554 0.04776693
v 0.00076375 0.00124982 0.04758664
v 0.00121245 0.00089275 0.04725266
v 0.00137716 0.00115212 0.04740720
v 0.00189535 0.00127511 0.04736599
v 0.00243652 0.00123891 0.04712217
v 0.00243652 0.00141298 0.04726640
v 0.00189535 0.00100434 0.04715393
v 0.00243652 0.00082928 0.04677102
v -0.00189506 -0.00109837 0.04011991
v -0.00189506 -0.00109837 0.04370432
v -0.00081216 -0.00109788 0.04424606
v 0.00081191 -0.00084248 0.04528231
v 0.00025650 -0.00083553 0.04537761
v -0.00027099 -0.00106713 0.04478694
v 0.00243652 -0.00064014 0.04495177
v 0.00214815 -0.00069320 0.04504793
v 0.00178701 -0.00074230 0.04513035
v 0.00135363 -0.00079487 0.04520762
v -0.00290135 0.00006556 0.04537418
v -0.00297030 -0.00042789 0.04424606
v -0.00281599 0.00023516 0.04586955
v -0.00281380 0.00069042 0.04637695
v -0.00281653 0.00119675 0.04683885
v -0.00304581 -0.00042789 0.04011991
v -0.00304581 -0.00042789 0.04316258
v -0.00287673 -0.00088959 0.04316258
v -0.00287016 -0.00087223 0.04370432
v -0.00281380 0.00182906 0.04734367
v -0.00275634 0.00247971 0.04780299
v -0.00269834 0.00364363 0.04830266
v -0.00280395 0.00396797 0.04829236
v -0.00189506 0.00390449 0.04864092
v -0.00133090 0.00396797 0.04877657
v -0.00194595 0.00331087 0.04843916
v -0.00179985 0.00297910 0.04835245
v -0.00146825 0.00261807 0.04827948
v -0.00131394 0.00232795 0.04816701
v -0.00135389 0.00183401 0.04788197
v -0.00076346 0.00170359 0.04789657
v -0.00055061 0.00146554 0.04776693
v -0.00027099 0.00145364 0.04777466
v 0.00027073 0.00118336 0.04758664
v 0.00081191 0.00085011 0.04728872
v 0.00157360 0.00094185 0.04721059
v 0.00081191 0.00057933 0.04703202
v 0.00162011 0.00038543 0.04668173
v 0.00189535 0.00071075 0.04688263
v 0.00243652 0.00055850 0.04651947
v -0.00243678 -0.00108895 0.04011991
v -0.00135389 -0.00109540 0.04424606
v -0.00243678 -0.00107209 0.04370432
v -0.00243678 -0.00108895 0.04316258
v 0.00081191 -0.00066742 0.04555275
v 0.00042778 -0.00069320 0.04559139
v 0.00006663 -0.00070164 0.04560341
v -0.00025731 -0.00083553 0.04537761
v -0.00081216 -0.00104333 0.04478694
v 0.00243652 -0.00039714 0.04533640
v 0.00243652 -0.00032622 0.04544200
v 0.00231559 -0.00021266 0.04567381
v 0.00193858 -0.00057815 0.04531751
v 0.00135363 -0.00061832 0.04547806
v -0.00280450 -0.00025531 0.04522479
v -0.00280121 -0.00078793 0.04424606
v -0.00284608 -0.00043235 0.04474916
v -0.00273883 0.00035666 0.04617262
v -0.00268466 -0.00014769 0.04558624
v -0.00273993 0.00089375 0.04671178
v -0.00270600 0.00146802 0.04722261
v -0.00294129 -0.00071354 0.04011991
v -0.00287673 -0.00088959 0.04011991
v -0.00253528 0.00211867 0.04770511
v -0.00238753 0.00229125 0.04785278
v -0.00243678 0.00282090 0.04809575
v -0.00248548 0.00331087 0.04826660
v -0.00233719 0.00345717 0.04836619
v -0.00248548 0.00385589 0.04844260
v -0.00270491 0.00396797 0.04838078
v -0.00247618 0.00396797 0.04847351
v -0.00183159 0.00396797 0.04866840
v -0.00189068 0.00396797 0.04865552
v -0.00216045 0.00309614 0.04830523
v -0.00194595 0.00280751 0.04824428
v -0.00189506 0.00227935 0.04800303
v -0.00189506 0.00194113 0.04780986
v -0.00189506 0.00167036 0.04763729
v -0.00135389 0.00156324 0.04770168
v -0.00091175 0.00150026 0.04774289
v -0.00076346 0.00124982 0.04758664
v -0.00081216 0.00085011 0.04728872
v -0.00027099 0.00118336 0.04758664
v 0.00027073 0.00081737 0.04731534
v 0.00027073 0.00054660 0.04706464
v 0.00081191 0.00030509 0.04676158
v 0.00125951 0.00034823 0.04671779
v 0.00081191 0.00003382 0.04647311
v 0.00139357 0.00010523 0.04642160
v 0.00152818 -0.00013777 0.04611424
v 0.00189535 0.00018855 0.04635806
v 0.00243652 0.00028624 0.04624903
v 0.00189535 0.00043998 0.04662850
v -0.00189506 -0.00106366 0.04424606
v -0.00243678 -0.00095555 0.04424606
v 0.00134980 -0.00031928 0.04590819
v 0.00081191 -0.00044524 0.04586955
v 0.00081191 -0.00020571 0.04620181
v 0.00027073 -0.00023646 0.04624044
v 0.00025650 -0.00054244 0.04581804
v -0.00006743 -0.00070164 0.04560341
v -0.00081216 -0.00084396 0.04528317
v -0.00042803 -0.00069320 0.04559139
v -0.00135389 -0.00099720 0.04478694
v 0.00243652 -0.00018984 0.04564376
v 0.00189535 -0.00028109 0.04577082
v 0.00243652 -0.00001577 0.04587213
v 0.00189535 -0.00008272 0.04604212
v -0.00272844 -0.00071354 0.04454311
v -0.00243678 0.00028872 0.04624731
v -0.00243678 0.00055057 0.04651775
v -0.00247727 -0.00001131 0.04586097
v -0.00243678 -0.00063121 0.04493289
v -0.00214294 -0.00069122 0.04504364
v -0.00232351 -0.00021315 0.04567467
v -0.00243678 0.00082134 0.04677961
v -0.00248986 0.00119626 0.04708439
v -0.00234485 0.00137628 0.04729559
v -0.00244006 0.00173632 0.04749992
v -0.00217413 0.00200412 0.04776779
v -0.00189506 0.00127511 0.04736599
v -0.00137741 0.00115212 0.04740720
v -0.00121271 0.00089275 0.04725266
v -0.00081216 0.00057933 0.04703202
v -0.00027099 0.00054660 0.04706464
v -0.00027099 0.00081737 0.04731534
v 0.00027073 0.00027236 0.04679420
v 0.00027073 0.00000158 0.04651088
v 0.00116703 -0.00017348 0.04616146
v -0.00193555 -0.00086033 0.04483244
v -0.00243678 -0.00077751 0.04466159
v -0.00027099 -0.00023646 0.04624044
v -0.00025731 -0.00054244 0.04581804
v -0.00081216 -0.00066742 0.04555447
v -0.00135389 -0.00079983 0.04521191
v -0.00081216 -0.00020571 0.04620181
v -0.00081216 -0.00044524 0.04586955
v -0.00189506 -0.00008223 0.04604212
v -0.00189506 0.00018855 0.04635806
v -0.00162037 0.00038543 0.04668173
v -0.00189506 0.00043998 0.04662850
v -0.00178179 -0.00074726 0.04513464
v -0.00193555 -0.00057716 0.04532009
v -0.00189506 -0.00028159 0.04577168
v -0.00189506 0.00071075 0.04688263
v -0.00189506 0.00100434 0.04715393
v -0.00157331 0.00094185 0.04721059
v -0.00125922 0.00034823 0.04671779
v -0.00081216 0.00030509 0.04676158
v -0.00027099 0.00027236 0.04679420
v -0.00027099 0.00000158 0.04651088
v -0.00135389 -0.00061832 0.04548235
v -0.00135006 -0.00031928 0.04590819
v -0.00116729 -0.00017348 0.04616146
v -0.00081216 0.00003382 0.04647311
v -0.00152844 -0.00013777 0.04611424
v -0.00139383 0.00010523 0.04642160
f 1 2 3
f 1 3 7
f 1 7 14
f 1 14 25
f 1 25 41
f 1 41 58
f 1 58 59
f 1 59 85
f 1 85 119
f 1 119 118
f 1 118 121
f 1 121 161
f 1 161 213
f 1 213 228
f 1 228 226
f 1 226 172
f 1 172 171
f 1 171 128
f 1 128 90
f 1 90 64
f 1 64 44
f 1 44 27
f 1 27 15
f 1 15 8
f 1 8 4
f 1 4 2
f 2 5 6
f 2 6 3
f 2 4 8
f 2 8 16
f 2 16 29
f 2 29 48
f 2 48 71
f 2 71 103
f 2 103 144
f 2 144 191
f 2 191 192
f 2 192 194
f 2 194 193
f 2 193 146
f 2 146 106
f 2 106 78
f 2 78 52
f 2 52 34
f 2 34 33
f 2 33 30
f 2 30 17
f 2 17 9
f 2 9 5
f 3 6 7
f 5 9 6
f 6 9 10
f 6 10 11
f 6 11 12
f 6 12 7
f 7 12 13
f 7 13 14
f 8 15 26
f 8 26 42
f 8 42 60
f 8 60 86
f 8 86 122
f 8 122 162
f 8 162 184
f 8 184 183
f 8 183 137
f 8 137 97
f 8 97 93
f 8 93 66
f 8 66 45
f 8 45 28
f 8 28 16
f 9 17 10
f 10 18 11
f 10 17 19
f 10 19 18
f 11 18 20
f 11 20 21
f 11 21 22
f 11 22 23
f 11 23 12
f 12 23 13
f 13 23 24
f 13 24 25
f 13 25 14
f 15 27 26
f 16 28 29
f 17 30 19
f 18 19 31
f 18 31 32
f 18 32 20
f 19 30 33
f 19 33 34
f 19 34 35
f 19 35 31
f 20 36 37
f 20 37 21
f 20 32 36
f 21 37 22
f 22 38 39
f 22 39 24
f 22 24 23
f 22 37 38
f 24 39 25
f 25 39 40
f 25 40 41
f 26 27 43
f 26 43 42
f 27 44 43
f 28 45 46
f 28 46 47
f 28 47 29
f 29 47 48
f 31 49 50
f 31 50 32
f 31 35 53
f 31 53 49
f 32 50 76
f 32 76 51
f 32 51 36
f 34 52 53
f 34 53 35
f 36 51 54
f 36 54 37
f 37 54 38
f 38 54 55
f 38 55 39
f 39 55 56
f 39 56 57
f 39 57 40
f 40 58 41
f 40 57 59
f 40 59 58
f 42 43 60
f 43 44 61
f 43 61 62
f 43 62 63
f 43 63 60
f 44 64 65
f 44 65 61
f 45 66 67
f 45 67 68
f 45 68 46
f 46 68 69
f 46 69 70
f 46 70 71
f 46 71 48
f 46 48 47
f 49 72 50
f 49 53 73
f 49 73 72
f 50 72 74
f 50 74 75
f 50 75 76
f 51 76 110
f 51 110 77
f 51 77 54
f 52 78 73
f 52 73 53
f 54 77 79
f 54 79 80
f 54 80 55
f 55 80 81
f 55 81 82
f 55 82 83
f 55 83 56
f 56 83 57
f 57 83 84
f 57 84 85
f 57 85 59
f 60 63 87
f 60 87 86
f 61 65 88
f 61 88 89
f 61 89 62
f 62 87 63
f 62 89 87
f 64 90 91
f 64 91 92
f 64 92 65
f 65 92 88
f 66 93 67
f 67 94 95
f 67 95 96
f 67 96 68
f 67 93 97
f 67 97 98
f 67 98 94
f 68 96 69
f 69 96 70
f 70 99 100
f 70 100 101
f 70 101 71
f 70 96 102
f 70 102 99
f 71 101 103
f 72 73 104
f 72 104 105
f 72 105 74
f 73 78 106
f 73 106 104
f 74 107 108
f 74 108 75
f 74 105 107
f 75 108 109
f 75 109 76
f 76 109 110
f 77 110 111
f 77 111 79
f 79 111 154
f 79 154 112
f 79 112 113
f 79 113 80
f 80 113 81
f 81 113 114
f 81 114 115
f 81 115 116
f 81 116 82
f 82 116 117
f 82 117 83
f 83 117 84
f 84 118 119
f 84 119 85
f 84 117 120
f 84 120 121
f 84 121 118
f 86 87 123
f 86 123 122
f 87 124 123
f 87 89 127
f 87 127 124
f 88 92 125
f 88 125 126
f 88 126 89
f 89 126 169
f 89 169 127
f 90 128 129
f 90 129 91
f 91 129 130
f 91 130 131
f 91 131 92
f 92 131 125
f 94 132 95
f 94 98 133
f 94 133 132
f 95 134 135
f 95 135 96
f 95 132 134
f 96 135 136
f 96 136 102
f 97 137 138
f 97 138 98
f 98 138 139
f 98 139 140
f 98 140 133
f 99 102 141
f 99 141 100
f 100 141 142
f 100 142 143
f 100 143 144
f 100 144 101
f 101 144 103
f 102 136 141
f 104 145 105
f 104 106 146
f 104 146 145
f 105 145 147
f 105 147 148
f 105 148 149
f 105 149 107
f 107 149 108
f 108 149 150
f 108 150 109
f 109 150 151
f 109 151 152
f 109 152 111
f 109 111 110
f 111 152 153
f 111 153 154
f 112 154 204
f 112 204 155
f 112 155 113
f 113 155 156
f 113 156 114
f 114 156 115
f 115 157 116
f 115 156 158
f 115 158 159
f 115 159 157
f 116 157 117
f 117 157 120
f 120 157 159
f 120 159 160
f 120 160 121
f 121 160 161
f 122 123 165
f 122 165 162
f 123 124 163
f 123 163 164
f 123 164 165
f 124 127 163
f 125 166 167
f 125 167 126
f 125 131 166
f 126 167 168
f 126 168 222
f 126 222 169
f 127 169 170
f 127 170 163
f 128 171 129
f 129 171 172
f 129 172 173
f 129 173 174
f 129 174 130
f 130 174 175
f 130 175 131
f 131 175 166
f 132 176 134
f 132 133 176
f 133 140 177
f 133 177 178
f 133 178 176
f 134 179 135
f 134 176 180
f 134 180 179
f 135 179 181
f 135 181 136
f 136 181 182
f 136 182 141
f 137 183 138
f 138 183 139
f 139 165 164
f 139 164 140
f 139 183 184
f 139 184 162
f 139 162 165
f 140 164 177
f 141 182 142
f 142 182 185
f 142 185 186
f 142 186 187
f 142 187 143
f 143 187 188
f 143 188 189
f 143 189 190
f 143 190 191
f 143 191 144
f 145 192 190
f 145 190 189
f 145 189 147
f 145 146 193
f 145 193 194
f 145 194 192
f 147 189 195
f 147 195 148
f 148 195 196
f 148 196 149
f 149 196 197
f 149 197 150
f 150 197 151
f 151 198 199
f 151 199 200
f 151 200 201
f 151 201 152
f 151 197 198
f 152 201 153
f 153 201 202
f 153 202 203
f 153 203 204
f 153 204 154
f 155 204 247
f 155 247 205
f 155 205 156
f 156 205 206
f 156 206 158
f 158 207 208
f 158 208 159
f 158 206 248
f 158 248 207
f 159 208 209
f 159 209 210
f 159 210 211
f 159 211 212
f 159 212 213
f 159 213 214
f 159 214 160
f 160 214 161
f 161 214 213
f 163 215 164
f 163 170 215
f 164 215 216
f 164 216 177
f 166 175 217
f 166 217 218
f 166 218 167
f 167 218 219
f 167 219 220
f 167 220 221
f 167 221 168
f 168 221 220
f 168 220 253
f 168 253 222
f 169 223 170
f 169 222 224
f 169 224 223
f 170 223 225
f 170 225 215
f 172 226 173
f 173 227 174
f 173 226 228
f 173 228 229
f 173 229 227
f 174 227 175
f 175 227 211
f 175 211 217
f 176 178 177
f 176 177 230
f 176 230 180
f 177 216 230
f 179 231 232
f 179 232 181
f 179 180 233
f 179 233 231
f 180 230 234
f 180 234 235
f 180 235 236
f 180 236 233
f 181 232 237
f 181 237 238
f 181 238 182
f 182 238 239
f 182 239 240
f 182 240 185
f 185 241 186
f 185 240 241
f 186 197 187
f 186 241 197
f 187 196 195
f 187 195 188
f 187 197 196
f 188 195 189
f 190 192 191
f 197 241 198
f 198 241 199
f 199 241 239
f 199 239 242
f 199 242 200
f 200 242 243
f 200 243 201
f 201 243 244
f 201 244 202
f 202 244 203
f 203 244 245
f 203 245 246
f 203 246 247
f 203 247 204
f 205 247 246
f 205 246 206
f 206 246 271
f 206 271 248
f 207 248 249
f 207 249 209
f 207 209 208
f 209 249 219
f 209 219 250
f 209 250 210
f 210 250 211
f 211 229 212
f 211 250 217
f 211 227 229
f 212 229 213
f 213 229 228
f 215 225 216
f 216 225 251
f 216 251 252
f 216 252 230
f 217 250 218
f 218 250 219
f 219 249 220
f 220 249 272
f 220 272 253
f 222 253 254
f 222 254 224
f 223 224 255
f 223 255 256
f 223 256 225
f 224 254 253
f 224 253 257
f 224 257 258
f 224 258 255
f 225 256 251
f 230 252 234
f 231 233 259
f 231 259 260
f 231 260 261
f 231 261 262
f 231 262 232
f 232 262 237
f 233 236 259
f 234 252 235
f 235 252 251
f 235 251 263
f 235 263 264
f 235 264 236
f 236 264 265
f 236 265 259
f 237 262 266
f 237 266 267
f 237 267 238
f 238 267 239
f 239 267 242
f 239 241 240
f 242 267 268
f 242 268 243
f 243 268 244
f 244 268 261
f 244 261 245
f 245 261 269
f 245 269 270
f 245 270 271
f 245 271 246
f 248 271 272
f 248 272 249
f 251 256 263
f 253 272 257
f 255 273 256
f 255 258 274
f 255 274 273
f 256 273 263
f 257 275 258
f 257 272 276
f 257 276 275
f 258 275 274
f 259 277 260
f 259 265 277
f 260 277 261
f 261 266 262
f 261 277 278
f 261 278 276
f 261 276 269
f 261 268 267
f 261 267 266
f 263 273 265
f 263 265 264
f 265 273 277
f 269 276 270
f 270 276 272
f 270 272 271
f 273 274 277
f 274 275 277
f 275 276 278
f 275 278 277

