# https://github.com/mikedh/trimesh
v 0.00151554 0.00080000 -0.00087500
v 0.00087500 0.00080000 -0.00151554
v -0.00000000 0.00080000 -0.00175000
v -0.00087500 0.00080000 -0.00151554
v -0.00151554 0.00080000 -0.00087500
v 0.00091177 0.01324402 -0.00528023
v -0.00000000 0.01330000 -0.00530796
v 0.00000000 0.01330000 0.02361769
v -0.00721167 0.00374055 0.00373163
v -0.00701740 0.00315381 0.00389505
v -0.00724444 0.00385886 0.02361769
v -0.00675842 0.00254827 0.00395000
v -0.00649519 0.00205000 0.02361769
v -0.00746959 0.00512532 0.00274830
v -0.00742863 0.00477187 0.00311033
v -0.00750000 0.00580000 0.02361769
v -0.00733725 0.00424870 0.00348861
v -0.00724536 0.00386238 0.00368272
v -0.00724444 0.00774114 0.02361769
v -0.00743584 0.00677895 0.00077759
v -0.00750000 0.00580000 0.00194425
v -0.00649519 0.00955000 0.02361769
v -0.00692910 0.00867013 -0.00147623
v -0.00724444 0.00774114 -0.00036911
v -0.00547990 0.01092038 -0.00405443
v -0.00583211 0.01051545 -0.00367995
v -0.00530330 0.01110330 0.02361769
v -0.00613730 0.01011087 -0.00319324
v -0.00649519 0.00955000 -0.00252482
v -0.00375079 0.01229551 -0.00483145
v -0.00445697 0.01183203 -0.00463051
v -0.00499078 0.01139824 -0.00440128
v -0.00530726 0.01109872 -0.00419528
v -0.00364973 0.01235291 -0.00485717
v -0.00194114 0.01304444 0.02361769
v -0.00279281 0.01276079 -0.00504568
v -0.00011964 0.01329904 -0.00530749
v -0.00098374 0.01323480 -0.00527567
v -0.00189689 0.01305495 -0.00518754
v 0.00354771 0.01240877 -0.00488239
v 0.00194114 0.01304444 0.02361769
v 0.00375098 0.01229541 -0.00483140
v 0.00431673 0.01193324 -0.00467340
v 0.00270281 0.01279606 -0.00506245
v 0.00194136 0.01304316 -0.00518181
v 0.00181508 0.01307585 -0.00519774
v 0.00530330 0.01110330 0.02361769
v 0.00499895 0.01139093 -0.00439670
v 0.00445697 0.01183203 -0.00463052
v 0.00584230 0.01050282 -0.00366682
v 0.00545223 0.01094979 -0.00407858
v 0.00530647 0.01109951 -0.00419587
v 0.00724444 0.00774114 -0.00036911
v 0.00692910 0.00867013 -0.00147623
v 0.00649519 0.00955000 -0.00252482
v 0.00613730 0.01011087 -0.00319325
v 0.00741564 0.00468290 0.00318600
v 0.00746959 0.00512532 0.00274830
v 0.00750000 0.00580000 0.00194425
v 0.00743584 0.00677895 0.00077759
v 0.00675842 0.00254827 0.00395000
v 0.00700473 0.00312041 0.00390099
v 0.00724444 0.00385886 0.02361769
v 0.00649519 0.00205000 0.00395000
v 0.00720180 0.00370632 0.00374440
v 0.00724562 0.00386333 0.00368231
v 0.00733726 0.00424876 0.00348857
v -0.00649519 0.00205000 0.00395000
v -0.00530330 0.00049670 0.00395000
v -0.00375000 -0.00069519 0.00395000
v -0.00194114 -0.00144444 0.00395000
v 0.00000000 -0.00170000 0.00395000
v 0.00000000 -0.00170000 0.02361769
v 0.00194114 -0.00144444 0.00395000
v 0.00194114 -0.00144444 0.02361769
v 0.00375000 -0.00069519 0.00395000
v 0.00530330 0.00049670 0.00395000
v -0.00445697 0.00645000 -0.00463051
v -0.00247751 0.00645000 -0.00510195
v -0.00000000 0.00645000 -0.00530796
v 0.00247751 0.00645000 -0.00510195
v 0.00445697 0.00645000 -0.00463052
v 0.00530330 0.01110330 0.03361769
v 0.00649519 0.00955000 0.03361769
v 0.00724444 0.00774114 0.03361769
v 0.00750000 0.00580000 0.03361769
v 0.00724444 0.00385886 0.03361769
v 0.00649519 0.00205000 0.03361769
v 0.00194114 -0.00144444 0.03361769
v 0.00000000 -0.00170000 0.03361769
v -0.00649519 0.00205000 0.03361769
v -0.00724444 0.00385886 0.03361769
v -0.00750000 0.00580000 0.03361769
v -0.00724444 0.00774114 0.03361769
v -0.00530330 0.01110330 0.03361769
v -0.00194114 0.01304444 0.03361769
v 0.00000000 0.01330000 0.03361769
v -0.00356053 -0.00080096 0.03696802
v -0.00356053 -0.00080096 0.03803121
v -0.00374955 -0.00069553 0.03813942
v -0.00485761 0.00008537 0.03878686
v -0.00530181 0.00049481 0.03904127
v -0.00545113 0.01095098 0.04245057
v -0.00530196 0.01110413 0.04243116
v -0.00194114 0.01304444 0.04134889
v -0.00141938 0.01316446 0.04134889
v -0.00281153 0.01275337 0.04076404
v -0.00275187 0.01277690 0.04045822
v -0.00297956 0.01268271 0.04106458
v -0.00325757 0.01255561 0.04110747
v -0.00275187 0.01277690 0.04134889
v -0.00511890 0.01128098 0.04239349
v -0.00498620 0.01140238 0.04235770
v -0.00443689 0.01184577 0.04214836
v -0.00404526 0.01211519 0.04194418
v -0.00385938 0.01223075 0.04183134
v -0.00374565 0.01229779 0.04175672
v -0.00333497 0.01251756 0.04144288
v -0.00649519 0.00955000 0.04204330
v -0.00643501 0.00965235 0.04211279
v -0.00617542 0.01005538 0.04232389
v -0.00585592 0.01048556 0.04243701
v -0.00749902 0.00577395 0.03975150
v -0.00747465 0.00640536 0.03997720
v -0.00740416 0.00699514 0.04030855
v -0.00724552 0.00773712 0.04081237
v -0.00692910 0.00867013 0.04144588
v -0.00724462 0.00385989 0.03970543
v -0.00730281 0.00409151 0.03967194
v -0.00739192 0.00453406 0.03962341
v -0.00747539 0.00520587 0.03964398
v -0.00680534 0.00265038 0.03972009
v -0.00709419 0.00336831 0.03974359
v -0.00596842 0.00125849 0.03939653
v -0.00643154 0.00194353 0.03960364
v -0.00649383 0.00204955 0.03962719
v -0.00547702 0.00067594 0.03913867
v -0.00194114 -0.00144444 0.03696802
v -0.00419277 -0.00041898 0.03839718
v 0.00000000 -0.00170000 0.03696802
v 0.00356408 -0.00079904 0.03696802
v 0.00194114 -0.00144444 0.03696802
v 0.00356408 -0.00079904 0.03803121
v 0.00374943 -0.00069572 0.03813722
v 0.00439320 -0.00028113 0.03851125
v 0.00513199 0.00032740 0.03894155
v 0.00649339 0.00204826 0.03962618
v 0.00624467 0.00164667 0.03952484
v 0.00576423 0.00100098 0.03929113
v 0.00530306 0.00049364 0.03903900
v 0.00667954 0.00239120 0.03968783
v 0.00700741 0.00312900 0.03974615
v 0.00742644 0.00475774 0.03961769
v 0.00748942 0.00542066 0.03967397
v 0.00730373 0.00409543 0.03967194
v 0.00724662 0.00386733 0.03970499
v 0.00740352 0.00699911 0.04030855
v 0.00745163 0.00664621 0.04009463
v 0.00749411 0.00606914 0.03984076
v 0.00749906 0.00580356 0.03975838
v 0.00692910 0.00867013 0.04144336
v 0.00724444 0.00774114 0.04081246
v 0.00530199 0.01110377 0.04243169
v 0.00549627 0.01090281 0.04245439
v 0.00586488 0.01047425 0.04243483
v 0.00616668 0.01006796 0.04232745
v 0.00643294 0.00965581 0.04211279
v 0.00649576 0.00954901 0.04204026
v 0.00374526 0.01229790 0.04175894
v 0.00394890 0.01217625 0.04188891
v 0.00455511 0.01175803 0.04220213
v 0.00507019 0.01132563 0.04238207
v 0.00325557 0.01255657 0.04110858
v 0.00345201 0.01245759 0.04154491
v 0.00306743 0.01264404 0.04117909
v 0.00284754 0.01273878 0.04085436
v 0.00275231 0.01277681 0.04053744
v 0.00274813 0.01277838 0.04134889
v 0.00194114 0.01304444 0.04134889
v 0.00141938 0.01316446 0.04134889
v 0.00000000 0.01330000 0.04134889
v -0.00275106 0.00975285 0.04709837
v -0.00275118 0.01018741 0.04677397
v -0.00274978 0.00499266 0.04827974
v -0.00275005 0.00597158 0.04832439
v -0.00274846 0.00008651 0.04535537
v -0.00274882 0.00142223 0.04678294
v -0.00275174 0.01228764 0.04391566
v -0.00275184 0.01265397 0.04265290
v -0.00275135 0.01083105 0.04618299
v -0.00275143 0.01112357 0.04585878
v -0.00275031 0.00694709 0.04823146
v -0.00275056 0.00789997 0.04800279
v -0.00275104 0.00966344 0.04715883
v -0.00274826 -0.00068846 0.04391734
v -0.00274823 -0.00080074 0.04361328
v -0.00275158 0.01167830 0.04510712
v -0.00275171 0.01216572 0.04420469
v -0.00274902 0.00216295 0.04730411
v -0.00274927 0.00310156 0.04778393
v -0.00274952 0.00402966 0.04809840
v -0.00275185 0.01269083 0.04244145
v -0.00275186 0.01270809 0.04232640
v -0.00197460 -0.00080053 0.04431265
v -0.00103158 -0.00080028 0.04475801
v 0.00000000 -0.00080000 0.04491118
v 0.00275177 -0.00079926 0.04361328
v 0.00197716 -0.00079947 0.04431330
v 0.00103287 -0.00079972 0.04475869
v 0.00275067 0.00329085 0.04785948
v 0.00275095 0.00228081 0.04737363
v 0.00275096 0.00222814 0.04734254
v 0.00275137 0.00070560 0.04611617
v 0.00275145 0.00039139 0.04575643
v 0.00275158 -0.00007803 0.04510755
v 0.00274969 0.00694857 0.04823146
v 0.00274995 0.00597305 0.04832439
v 0.00275167 -0.00041695 0.04451555
v 0.00274944 0.00790144 0.04800279
v 0.00274919 0.00881289 0.04764288
v 0.00275022 0.00499414 0.04827974
v 0.00275048 0.00403114 0.04809840
v 0.00275065 0.00336644 0.04788812
v 0.00274820 0.01250449 0.04328463
v 0.00274841 0.01170434 0.04506841
v 0.00274865 0.01083519 0.04618021
v 0.00274875 0.01044074 0.04656020
v 0.00193861 0.00412018 0.04839657
v 0.00158567 0.00378366 0.04839657
v 0.00231809 0.00285230 0.04784407
v -0.00256224 0.00592205 0.04839657
v -0.00130088 0.00586197 0.04873494
v -0.00126565 0.00610704 0.04873494
v 0.00072269 0.00333876 0.04839657
v 0.00036692 0.00455039 0.04873494
v 0.00012380 0.00450354 0.04873494
v 0.00177016 0.00765648 0.04839657
v 0.00089873 0.00674256 0.04873494
v 0.00106087 0.00655544 0.04873494
v 0.00000000 0.00580000 0.04884888
v -0.00106087 0.00655544 0.04873494
v -0.00118467 0.00634102 0.04873494
v -0.00089873 0.00674256 0.04873494
v -0.00070411 0.00689561 0.04873494
v -0.00128910 0.00561465 0.04873494
v -0.00123073 0.00537404 0.04873494
v 0.00059678 0.00464242 0.04873494
v 0.00080507 0.00477628 0.04873494
v 0.00098426 0.00494714 0.04873494
v 0.00126565 0.00610704 0.04873494
v 0.00118467 0.00634102 0.04873494
v -0.00231809 0.00285230 0.04784407
v 0.00260638 0.00985560 0.04709421
v 0.00139782 0.01305258 0.04265125
v 0.00249186 0.01269814 0.04291616
v 0.00261936 0.01234285 0.04391404
v 0.00241402 0.01182992 0.04509889
v 0.00213532 0.01113378 0.04616979
v 0.00061741 -0.00066578 0.04509889
v 0.00000000 -0.00069519 0.04509889
v -0.00182990 -0.00043209 0.04509889
v -0.00222148 0.00451743 0.04839657
v -0.00249284 0.00640476 0.04839657
v -0.00177015 0.00765648 0.04839657
v -0.00208951 0.00728793 0.04839657
v -0.00233334 0.00686560 0.04839657
v -0.00274512 0.01265698 0.04265125
v -0.00261936 0.01234285 0.04391404
v -0.00241402 0.01182992 0.04509889
v -0.00213532 0.01113378 0.04616979
v -0.00139782 0.01305258 0.04265125
v 0.00233334 0.00686560 0.04839657
v 0.00208951 0.00728793 0.04839657
v 0.00249284 0.00640476 0.04839657
v 0.00130089 0.00586197 0.04873494
v 0.00128910 0.00561465 0.04873494
v 0.00256224 0.00592205 0.04839657
v 0.00253904 0.00543494 0.04839657
v 0.00242407 0.00496102 0.04839657
v 0.00112788 0.00514882 0.04873494
v 0.00222148 0.00451743 0.04839657
v 0.00123073 0.00537404 0.04873494
v 0.00117542 0.00352000 0.04839657
v 0.00171835 0.00246687 0.04784407
v -0.00112788 0.00514882 0.04873494
v -0.00098426 0.00494714 0.04873494
v -0.00193861 0.00412018 0.04839657
v -0.00158567 0.00378366 0.04839657
v -0.00242407 0.00496102 0.04839657
v -0.00253904 0.00543494 0.04839657
v 0.00048404 0.00700907 0.04873494
v 0.00070411 0.00689561 0.04873494
v 0.00095337 0.00818140 0.04839657
v 0.00138682 0.00795794 0.04839657
v 0.00139373 0.00928138 0.04784407
v 0.00202740 0.00895470 0.04784407
v 0.00179175 0.01027557 0.04709421
v 0.00258779 0.00851400 0.04784407
v -0.00260638 0.00985560 0.04709421
v -0.00202740 0.00895470 0.04784407
v -0.00258779 0.00851400 0.04784407
v -0.00138682 0.00795794 0.04839657
v 0.00263266 0.00069335 0.04616979
v 0.00220907 0.00151501 0.04709421
v 0.00135821 0.00117438 0.04709421
v 0.00105650 0.00220190 0.04784407
v 0.00035646 0.00206698 0.04784407
v 0.00024383 0.00324647 0.04839657
v 0.00000000 0.00323485 0.04839657
v 0.00000000 0.00449764 0.04873494
v -0.00012380 0.00450354 0.04873494
v -0.00179175 0.01027557 0.04709421
v -0.00139373 0.00928138 0.04784407
v -0.00095337 0.00818140 0.04839657
v -0.00048404 0.00700907 0.04873494
v 0.00161865 0.00028740 0.04616979
v 0.00045826 0.00100093 0.04709421
v 0.00000000 0.00205000 0.04784407
v -0.00024383 0.00324647 0.04839657
v -0.00036692 0.00455039 0.04873494
v 0.00182991 -0.00043209 0.04509889
v 0.00054613 0.00008069 0.04616979
v 0.00000000 0.00097910 0.04709421
v -0.00035646 0.00206698 0.04784407
v -0.00072269 0.00333876 0.04839657
v -0.00059678 0.00464242 0.04873494
v -0.00135820 0.00117438 0.04709421
v -0.00161865 0.00028740 0.04616979
v -0.00054613 0.00008069 0.04616979
v -0.00061741 -0.00066578 0.04509889
v -0.00263266 0.00069335 0.04616979
v -0.00220907 0.00151501 0.04709421
v -0.00171835 0.00246687 0.04784407
v 0.00000000 0.00005467 0.04616979
v -0.00045826 0.00100093 0.04709421
v -0.00105650 0.00220190 0.04784407
v -0.00117542 0.00352000 0.04839657
v -0.00080506 0.00477628 0.04873494
v 0.00000000 0.00710236 0.04873494
v 0.00024647 0.00707882 0.04873494
v 0.00000000 0.00836515 0.04839657
v 0.00048546 0.00831879 0.04839657
v 0.00000000 0.00955000 0.04784407
v 0.00070969 0.00948223 0.04784407
v 0.00000000 0.01062090 0.04709421
v 0.00091236 0.01053378 0.04709421
v 0.00000000 0.01154533 0.04616979
v 0.00108731 0.01144150 0.04616979
v 0.00000000 0.01229519 0.04509889
v 0.00122922 0.01217781 0.04509889
v 0.00000000 0.01284769 0.04391404
v 0.00133378 0.01272033 0.04391404
v 0.00000000 0.01318606 0.04265125
v -0.00024647 0.00707882 0.04873494
v -0.00048546 0.00831879 0.04839657
v -0.00070969 0.00948223 0.04784407
v -0.00091236 0.01053378 0.04709421
v -0.00108731 0.01144150 0.04616979
v -0.00122922 0.01217781 0.04509889
v -0.00133378 0.01272033 0.04391404
v 0.00517638 0.00645000 -0.00428790
v 0.00587994 0.00645000 -0.00361686
v 0.00631162 0.00645000 -0.00274569
v -0.00631162 0.00645000 -0.00274569
v -0.00587994 0.00645000 -0.00361686
v -0.00517637 0.00645000 -0.00428790
f 60 157 158
f 99 71 138
f 138 71 72
f 90 75 140
f 142 207 140
f 5 70 69
f 148 149 64
f 207 149 148
f 146 207 145
f 24 125 126
f 20 125 24
f 24 23 364
f 364 20 24
f 21 20 364
f 78 79 3
f 3 79 80
f 3 2 72
f 365 5 69
f 7 80 37
f 80 79 38
f 79 39 38
f 38 37 80
f 181 37 38
f 171 256 172
f 180 254 179
f 181 254 180
f 179 46 180
f 179 254 255
f 353 181 271
f 353 254 181
f 99 138 196
f 204 195 196
f 196 140 204
f 196 138 140
f 73 138 72
f 140 138 73
f 98 71 99
f 98 70 71
f 100 139 70
f 100 98 99
f 70 98 100
f 99 196 100
f 100 196 139
f 134 196 195
f 74 90 72
f 75 90 74
f 72 2 74
f 2 76 74
f 140 209 206
f 140 207 208
f 208 209 140
f 140 75 89
f 89 142 140
f 207 142 143
f 60 59 363
f 1 76 2
f 150 149 207
f 207 146 150
f 58 57 67
f 154 59 86
f 154 58 59
f 78 3 4
f 5 365 4
f 71 70 4
f 70 5 4
f 72 71 4
f 4 3 72
f 82 361 2
f 2 3 82
f 31 30 78
f 30 31 115
f 36 39 79
f 7 37 8
f 6 80 7
f 6 180 46
f 7 181 6
f 181 180 6
f 85 162 157
f 161 162 85
f 161 217 221
f 221 162 161
f 41 46 179
f 256 171 224
f 224 255 256
f 256 255 352
f 352 255 254
f 83 163 164
f 83 51 47
f 83 164 51
f 83 47 172
f 172 163 83
f 227 220 166
f 127 94 126
f 133 10 132
f 124 125 20
f 16 93 124
f 124 21 16
f 20 21 124
f 131 130 125
f 130 131 15
f 135 134 195
f 137 134 69
f 196 134 137
f 204 140 205
f 140 206 205
f 145 207 144
f 207 143 144
f 144 76 145
f 141 89 75
f 75 74 141
f 141 74 76
f 76 144 141
f 141 144 143
f 361 82 48
f 48 82 49
f 48 171 172
f 48 49 171
f 161 85 54
f 54 168 161
f 362 361 51
f 362 363 64
f 2 361 362
f 362 1 2
f 64 363 61
f 151 64 61
f 61 152 151
f 65 363 59
f 88 148 64
f 88 147 148
f 88 64 151
f 151 147 88
f 157 154 160
f 160 154 86
f 157 155 153
f 153 154 157
f 67 57 153
f 153 155 67
f 57 58 153
f 58 154 153
f 152 65 156
f 215 147 151
f 151 152 213
f 152 212 213
f 132 10 12
f 12 10 364
f 81 3 80
f 81 82 3
f 80 6 81
f 81 6 46
f 40 82 81
f 42 82 40
f 40 169 42
f 364 23 29
f 29 365 364
f 365 25 366
f 78 4 366
f 366 4 365
f 32 31 78
f 78 366 32
f 106 38 39
f 39 105 106
f 181 38 106
f 271 181 106
f 106 105 271
f 34 36 79
f 34 79 78
f 78 30 34
f 35 36 108
f 39 36 35
f 97 37 181
f 97 8 37
f 223 156 155
f 175 173 40
f 169 255 170
f 255 224 170
f 170 224 171
f 170 42 169
f 254 353 351
f 351 352 254
f 351 353 271
f 165 227 166
f 256 352 257
f 164 163 225
f 225 163 172
f 172 256 225
f 256 257 225
f 84 167 168
f 168 167 216
f 216 217 161
f 161 168 216
f 273 272 216
f 94 127 19
f 19 24 126
f 126 94 19
f 23 24 19
f 19 127 23
f 194 300 299
f 126 125 201
f 184 127 126
f 126 201 184
f 16 21 123
f 21 131 123
f 123 93 16
f 123 124 93
f 125 124 123
f 123 131 125
f 130 15 17
f 14 131 21
f 14 15 131
f 14 17 15
f 102 137 69
f 196 137 102
f 330 205 206
f 186 195 204
f 132 136 186
f 186 135 195
f 186 136 135
f 51 361 52
f 361 48 52
f 47 51 52
f 172 47 52
f 52 48 172
f 60 363 53
f 363 54 53
f 53 157 60
f 53 54 85
f 53 85 157
f 56 165 166
f 166 167 56
f 76 1 77
f 1 362 77
f 77 362 64
f 64 149 77
f 145 76 77
f 149 150 77
f 77 146 145
f 77 150 146
f 59 58 66
f 66 65 59
f 66 58 67
f 63 65 66
f 67 155 66
f 155 156 66
f 62 61 363
f 363 65 62
f 152 61 62
f 62 65 152
f 159 158 157
f 157 160 159
f 159 160 86
f 86 59 159
f 60 158 159
f 159 59 60
f 87 65 63
f 87 156 65
f 63 66 87
f 87 66 156
f 218 208 207
f 207 148 218
f 148 147 218
f 147 215 218
f 214 215 151
f 151 213 214
f 13 12 68
f 69 134 68
f 68 12 364
f 68 135 13
f 134 135 68
f 364 365 68
f 68 365 69
f 40 81 44
f 44 177 176
f 44 41 179
f 44 175 40
f 176 175 44
f 49 82 43
f 82 42 43
f 42 170 43
f 171 49 43
f 43 170 171
f 365 29 28
f 28 29 120
f 118 34 117
f 117 34 30
f 36 34 110
f 110 34 118
f 110 109 36
f 118 109 110
f 96 105 39
f 39 35 96
f 222 155 157
f 222 223 155
f 157 162 222
f 162 221 222
f 222 228 223
f 173 175 174
f 174 169 40
f 40 173 174
f 174 255 169
f 178 44 179
f 176 177 178
f 177 44 178
f 178 175 176
f 179 255 178
f 255 174 178
f 178 174 175
f 360 351 271
f 183 299 312
f 312 300 313
f 312 299 300
f 352 351 350
f 350 257 352
f 164 225 226
f 226 165 164
f 227 165 226
f 314 355 313
f 313 300 314
f 314 300 302
f 292 294 293
f 293 295 342
f 237 294 292
f 220 227 253
f 219 216 167
f 166 220 219
f 219 167 166
f 273 216 219
f 219 237 273
f 22 29 23
f 23 127 22
f 127 119 22
f 120 29 22
f 22 119 120
f 301 194 193
f 301 300 194
f 182 299 183
f 194 299 182
f 183 122 182
f 31 32 113
f 33 366 25
f 33 32 366
f 33 25 103
f 223 228 229
f 229 230 223
f 239 272 273
f 217 216 274
f 274 216 272
f 278 221 217
f 264 301 193
f 302 300 264
f 300 301 264
f 193 120 192
f 120 119 192
f 192 119 127
f 199 333 252
f 332 333 199
f 130 17 129
f 125 130 129
f 129 92 128
f 129 201 125
f 129 128 201
f 18 129 17
f 17 14 18
f 11 92 18
f 92 129 18
f 13 135 91
f 135 136 91
f 91 12 13
f 132 12 91
f 91 136 132
f 101 102 69
f 69 70 101
f 70 139 101
f 139 196 101
f 196 102 101
f 260 330 206
f 50 362 51
f 50 56 362
f 165 56 50
f 51 164 50
f 164 165 50
f 363 362 55
f 362 56 55
f 55 54 363
f 168 54 55
f 55 56 167
f 55 84 168
f 167 84 55
f 45 81 46
f 45 44 81
f 46 41 45
f 41 44 45
f 26 28 122
f 103 25 26
f 26 122 103
f 26 25 365
f 365 28 26
f 121 28 120
f 122 28 121
f 121 120 193
f 193 194 121
f 194 182 121
f 121 182 122
f 30 115 116
f 116 117 30
f 116 115 189
f 118 117 203
f 117 116 203
f 271 105 203
f 108 36 111
f 105 96 111
f 111 203 105
f 111 35 108
f 111 96 35
f 111 109 118
f 118 203 111
f 223 230 210
f 156 223 210
f 281 222 221
f 228 222 281
f 281 280 228
f 188 113 198
f 349 350 351
f 220 253 296
f 296 293 294
f 295 293 296
f 294 237 296
f 297 253 227
f 295 296 297
f 297 296 253
f 342 343 341
f 341 343 355
f 356 312 313
f 313 355 356
f 355 343 356
f 114 115 31
f 31 113 114
f 114 113 188
f 189 115 114
f 114 188 189
f 27 33 103
f 238 237 292
f 273 237 238
f 238 239 273
f 217 274 277
f 277 278 217
f 276 278 277
f 247 283 248
f 248 283 229
f 248 229 228
f 265 264 193
f 193 192 265
f 265 192 266
f 185 184 290
f 127 184 185
f 185 192 127
f 201 128 200
f 252 201 200
f 200 199 252
f 200 128 133
f 133 199 200
f 340 293 342
f 342 341 340
f 340 341 339
f 262 184 201
f 235 236 234
f 234 283 235
f 235 283 247
f 234 236 308
f 311 325 319
f 320 325 311
f 9 14 21
f 9 18 14
f 9 21 364
f 364 10 9
f 10 133 9
f 11 18 9
f 9 92 11
f 133 128 9
f 128 92 9
f 215 214 321
f 209 208 321
f 208 218 321
f 321 218 215
f 205 330 261
f 204 205 261
f 261 186 204
f 332 199 187
f 187 331 332
f 187 133 132
f 187 199 133
f 132 186 187
f 186 331 187
f 202 116 189
f 202 203 116
f 189 267 202
f 202 267 271
f 271 203 202
f 36 109 107
f 107 111 36
f 109 111 107
f 156 210 211
f 211 212 152
f 152 156 211
f 211 210 230
f 221 278 279
f 279 281 221
f 188 198 268
f 268 198 360
f 189 188 268
f 268 267 189
f 271 267 268
f 268 360 271
f 112 198 113
f 112 113 32
f 32 33 112
f 33 27 112
f 351 360 359
f 359 349 351
f 360 198 359
f 345 356 343
f 237 219 298
f 298 296 237
f 298 219 220
f 220 296 298
f 295 297 344
f 342 295 344
f 344 343 342
f 344 345 343
f 257 350 258
f 227 226 258
f 258 297 227
f 258 225 257
f 258 226 225
f 272 239 251
f 251 274 272
f 251 250 274
f 276 277 275
f 274 250 275
f 275 277 274
f 228 280 249
f 249 248 228
f 264 265 243
f 266 192 263
f 192 185 263
f 292 293 291
f 293 340 291
f 290 184 289
f 184 262 289
f 333 325 337
f 337 325 320
f 309 308 236
f 309 311 319
f 212 211 284
f 284 211 230
f 230 229 284
f 229 283 284
f 284 283 234
f 234 306 284
f 330 260 329
f 329 261 330
f 336 333 332
f 336 325 333
f 304 213 212
f 212 284 304
f 304 284 306
f 282 278 276
f 282 279 278
f 280 281 282
f 281 279 282
f 104 112 95
f 95 112 27
f 103 104 95
f 95 27 103
f 190 122 183
f 312 356 357
f 356 345 357
f 349 359 347
f 350 349 347
f 348 347 345
f 348 258 350
f 350 347 348
f 302 264 244
f 264 243 244
f 244 314 302
f 266 263 242
f 290 245 231
f 231 185 290
f 231 263 185
f 246 289 262
f 246 245 290
f 290 289 246
f 287 286 262
f 287 262 201
f 287 201 252
f 286 287 338
f 310 309 236
f 311 309 310
f 261 329 328
f 328 331 186
f 186 261 328
f 332 331 328
f 269 359 198
f 358 347 359
f 358 357 345
f 345 347 358
f 346 348 345
f 346 344 297
f 345 344 346
f 297 258 346
f 258 348 346
f 355 314 354
f 354 341 355
f 339 341 354
f 232 231 245
f 263 231 232
f 241 265 266
f 266 242 241
f 241 243 265
f 262 286 285
f 285 246 262
f 326 337 320
f 326 338 337
f 337 338 288
f 288 338 287
f 288 287 252
f 252 333 288
f 333 337 288
f 334 329 260
f 260 322 334
f 259 322 260
f 259 206 209
f 259 260 206
f 209 321 259
f 321 322 259
f 316 321 214
f 316 322 321
f 332 328 327
f 327 336 332
f 335 336 327
f 327 329 335
f 327 328 329
f 324 336 335
f 319 325 324
f 325 336 324
f 324 309 319
f 324 318 309
f 197 269 198
f 197 112 104
f 198 112 197
f 197 104 103
f 359 269 270
f 270 358 359
f 183 312 270
f 270 190 183
f 312 357 270
f 357 358 270
f 314 244 315
f 315 354 314
f 233 242 263
f 263 232 233
f 213 304 303
f 303 214 213
f 303 316 214
f 323 334 322
f 322 317 323
f 335 329 323
f 329 334 323
f 323 324 335
f 318 324 323
f 322 316 305
f 305 317 322
f 305 303 304
f 316 303 305
f 305 304 306
f 306 317 305
f 307 317 306
f 318 323 307
f 307 323 317
f 234 308 307
f 307 306 234
f 308 309 307
f 309 318 307
f 190 270 191
f 191 197 103
f 269 197 191
f 191 270 269
f 103 122 191
f 122 190 191
f 240 282 276
f 240 251 239
f 292 291 240
f 240 238 292
f 245 246 240
f 247 248 240
f 240 249 280
f 240 235 247
f 239 238 240
f 320 311 240
f 276 275 240
f 240 340 339
f 236 235 240
f 240 285 286
f 250 251 240
f 240 275 250
f 248 249 240
f 240 310 236
f 240 291 340
f 339 354 240
f 280 282 240
f 240 244 243
f 240 232 245
f 243 241 240
f 286 338 240
f 311 310 240
f 240 326 320
f 240 315 244
f 240 241 242
f 246 285 240
f 338 326 240
f 354 315 240
f 240 233 232
f 242 233 240
f 141 143 142
f 142 89 141

