# https://github.com/mikedh/trimesh
v -0.00568609 0.00396797 0.00288397
v -0.00315181 0.00396797 0.00288397
v -0.00624266 0.00396797 0.00291219
v -0.00352059 0.00410292 -0.00232806
v -0.00315181 0.00410292 -0.00232806
v -0.00315181 0.00396797 0.04008319
v -0.00674116 0.00396797 0.00313328
v -0.00409939 0.00413184 -0.00236570
v -0.00394425 0.00415112 -0.00265264
v -0.00352059 0.00413885 -0.00269968
v -0.00315181 0.00414324 -0.00280317
v -0.00715031 0.00396797 0.00333085
v -0.00743880 0.00396797 0.00350019
v -0.00315181 0.00933645 0.04259984
v -0.00676929 0.00396797 0.03997971
v -0.00437744 0.00415112 -0.00221047
v -0.00430532 0.00418180 -0.00256797
v -0.00409939 0.00431675 -0.00284551
v -0.00352059 0.00426768 -0.00297251
v -0.00315181 0.00422474 -0.00302896
v -0.00756581 0.00396797 0.00390473
v -0.00758713 0.00416427 0.00334966
v -0.00489818 0.00469533 -0.00263382
v -0.00315181 0.00985876 0.04275507
v -0.00652026 0.00956167 0.04236463
v -0.00734128 0.00396797 0.03979625
v -0.00535949 0.00530264 -0.00304307
v -0.00499842 0.00516330 -0.00326887
v -0.00479748 0.00529563 -0.00363107
v -0.00438470 0.00468306 -0.00317478
v -0.00406219 0.00461821 -0.00324535
v -0.00352059 0.00453847 -0.00332061
v -0.00315181 0.00427206 -0.00309011
v -0.00757398 0.00396797 0.00417286
v -0.00759666 0.00412220 0.00363190
v -0.00766470 0.00444645 0.00363190
v -0.00771686 0.00498803 0.00309094
v -0.00775950 0.00552961 0.00254528
v -0.00767286 0.00554714 0.00203725
v -0.00763249 0.00573906 0.00166093
v -0.00653432 0.00629379 -0.00270909
v -0.00611565 0.00617460 -0.00340999
v -0.00592695 0.00582757 -0.00307600
v -0.00315181 0.01039771 0.04278329
v -0.00514494 0.01040296 0.04267980
v -0.00568609 0.01040296 0.04263747
v -0.00568609 0.00986138 0.04252457
v -0.00652026 0.00970978 0.04236463
v -0.00711266 0.00877822 0.04145206
v -0.00758214 0.00742339 0.04072294
v -0.00759575 0.00411957 0.03966454
v -0.00739934 0.00396797 0.03976332
v -0.00581718 0.00590381 -0.00340999
v -0.00601767 0.00627188 -0.00375808
v -0.00543978 0.00578375 -0.00370634
v -0.00514494 0.00568034 -0.00382394
v -0.00548695 0.00627714 -0.00428493
v -0.00514494 0.00589680 -0.00409207
v -0.00484511 0.00581267 -0.00420967
v -0.00443641 0.00520887 -0.00373456
v -0.00448404 0.00573555 -0.00428963
v -0.00406219 0.00539991 -0.00407325
v -0.00352059 0.00480225 -0.00359344
v -0.00315181 0.00449377 -0.00336295
v -0.00406219 0.00567070 -0.00435549
v -0.00760346 0.00408715 0.00471382
v -0.00760346 0.00408715 0.00417286
v -0.00757035 0.00396797 0.03882723
v -0.00760210 0.00409241 0.03936819
v -0.00767059 0.00444645 0.00417286
v -0.00774589 0.00498803 0.00363190
v -0.00776449 0.00607119 0.00200432
v -0.00768103 0.00607733 0.00147277
v -0.00778581 0.00552961 0.00309094
v -0.00763612 0.00626136 0.00109645
v -0.00655882 0.00661277 -0.00278435
v -0.00646401 0.00661277 -0.00305248
v -0.00629346 0.00661277 -0.00340999
v -0.00762614 0.00679681 0.00055549
v -0.00759121 0.00738922 0.00007568
v -0.00315181 0.01094455 0.04278329
v -0.00514494 0.01094455 0.04268451
v -0.00566976 0.01092001 0.04250576
v -0.00611293 0.01040296 0.04246812
v -0.00599816 0.01072283 0.04240697
v -0.00648125 0.01007521 0.04207769
v -0.00659102 0.00980442 0.04207769
v -0.00693939 0.00927949 0.04155555
v -0.00705143 0.00907180 0.04139091
v -0.00758214 0.00742778 0.04072294
v -0.00771233 0.00661277 0.03990915
v -0.00778536 0.00552961 0.03936819
v -0.00766334 0.00498803 0.03974451
v -0.00762523 0.00444645 0.03970217
v -0.00774362 0.00498803 0.03936819
v -0.00766742 0.00444645 0.03936819
v -0.00756990 0.00396797 0.03936819
v -0.00605759 0.00661277 -0.00380512
v -0.00580493 0.00661277 -0.00407795
v -0.00564390 0.00609398 -0.00390861
v -0.00553413 0.00661277 -0.00432726
v -0.00514494 0.00661277 -0.00459069
v -0.00485463 0.00661277 -0.00475533
v -0.00448903 0.00627188 -0.00481648
v -0.00514494 0.00616759 -0.00439783
v -0.00466730 0.00604227 -0.00452013
v -0.00406219 0.00593536 -0.00462832
v -0.00352059 0.00533682 -0.00414381
v -0.00315181 0.00556291 -0.00446368
v -0.00778581 0.00552961 0.00633670
v -0.00778037 0.00607119 0.00254528
v -0.00773591 0.00661277 0.00146336
v -0.00766833 0.00661453 0.00091770
v -0.00708726 0.00844609 -0.00157542
v -0.00708409 0.00877822 -0.00163187
v -0.00647309 0.00715436 -0.00307130
v -0.00631342 0.00715436 -0.00340999
v -0.00759121 0.00746721 0.00007568
v -0.00315181 0.01148613 0.04276447
v -0.00315181 0.01202771 0.04260924
v -0.00460334 0.01148613 0.04258572
v -0.00511591 0.01147035 0.04248223
v -0.00547834 0.01127931 0.04242579
v -0.00551009 0.01131086 0.04207769
v -0.00578089 0.01101816 0.04207769
v -0.00601812 0.01074737 0.04207769
v -0.00627169 0.01040296 0.04207769
v -0.00648125 0.01010588 0.04153673
v -0.00665135 0.00983509 0.04153673
v -0.00692215 0.00935398 0.04099577
v -0.00705687 0.00908319 0.04099577
v -0.00718343 0.00877822 0.04099577
v -0.00752952 0.00773187 0.04045011
v -0.00759076 0.00746108 0.04045011
v -0.00766561 0.00715436 0.03990915
v -0.00773455 0.00661277 0.03936819
v -0.00777764 0.00607119 0.03936819
v -0.00778037 0.00607119 0.01066909
v -0.00606802 0.00715436 -0.00381923
v -0.00581718 0.00715436 -0.00408736
v -0.00554638 0.00715436 -0.00434138
v -0.00509096 0.00719642 -0.00464243
v -0.00487232 0.00704394 -0.00476474
v -0.00458383 0.00661277 -0.00485411
v -0.00406219 0.00661277 -0.00500934
v -0.00315181 0.00661277 -0.00523043
v -0.00406219 0.00620615 -0.00487763
v -0.00315181 0.00610274 -0.00499053
v -0.00315181 0.00582932 -0.00473651
v -0.00774000 0.00661277 0.00200432
v -0.00766379 0.00715436 0.00092240
v -0.00705143 0.00907180 -0.00160835
v -0.00681737 0.00931980 -0.00232806
v -0.00661325 0.00931980 -0.00283139
v -0.00648170 0.00931980 -0.00309952
v -0.00632385 0.00931980 -0.00340999
v -0.00759620 0.00748824 0.00038144
v -0.00753225 0.00775903 0.00038144
v -0.00738483 0.00823752 -0.00015952
v -0.00715712 0.00877822 -0.00124615
v -0.00315181 0.01229061 0.04235052
v -0.00460334 0.01184893 0.04241638
v -0.00491632 0.01178934 0.04238345
v -0.00521207 0.01158165 0.04207769
v -0.00521570 0.01158165 0.04153673
v -0.00551054 0.01131086 -0.00286903
v -0.00578134 0.01101991 -0.00340999
v -0.00601948 0.01074912 -0.00286903
v -0.00627849 0.01040296 -0.00232806
v -0.00648715 0.01011465 0.00363190
v -0.00665180 0.00984386 0.00471382
v -0.00692260 0.00935398 0.00579574
v -0.00705687 0.00908319 -0.00124615
v -0.00718615 0.00877822 0.00309094
v -0.00738120 0.00823752 0.04045011
v -0.00739027 0.00823752 0.00363190
v -0.00752816 0.00776429 0.03990915
v -0.00759938 0.00749350 0.03990915
v -0.00759938 0.00749350 0.03828627
v -0.00766424 0.00715436 0.00146336
v -0.00774000 0.00661277 0.00254528
v -0.00606983 0.00769594 -0.00381923
v -0.00583078 0.00986138 -0.00409207
v -0.00582806 0.00931980 -0.00409207
v -0.00555137 0.00823752 -0.00434608
v -0.00515220 0.00877822 -0.00461891
v -0.00514675 0.00769594 -0.00461421
v -0.00488140 0.00877822 -0.00476944
v -0.00465641 0.00719642 -0.00484471
v -0.00406219 0.00715436 -0.00502816
v -0.00315181 0.00672845 -0.00523514
v -0.00718615 0.00877822 -0.00070048
v -0.00692260 0.00935398 -0.00124615
v -0.00664455 0.00984386 -0.00232806
v -0.00659102 0.00975885 -0.00276554
v -0.00632521 0.00986138 -0.00340999
v -0.00739027 0.00823752 0.00038144
v -0.00753225 0.00775903 0.01446051
v -0.00315181 0.01256578 0.04207769
v -0.00395968 0.01239490 0.04192246
v -0.00404132 0.01244835 0.04153673
v -0.00431212 0.01228448 0.04153673
v -0.00494127 0.01181037 0.04207769
v -0.00494490 0.01181388 0.04153673
v -0.00494581 0.01181563 -0.00395094
v -0.00521570 0.01158165 -0.00340999
v -0.00551054 0.01131086 -0.00340999
v -0.00550646 0.01130998 -0.00395094
v -0.00601767 0.01074912 -0.00340999
v -0.00627531 0.01040296 -0.00286903
v -0.00648715 0.01011465 -0.00232806
v -0.00665180 0.00984386 -0.00178711
v -0.00607074 0.00823752 -0.00381923
v -0.00583396 0.01040296 -0.00407325
v -0.00556316 0.01040296 -0.00434608
v -0.00607074 0.00877822 -0.00381923
v -0.00606983 0.00986138 -0.00381923
v -0.00555454 0.00877822 -0.00434608
v -0.00515401 0.00931980 -0.00461891
v -0.00488321 0.00931980 -0.00476944
v -0.00460334 0.00823752 -0.00486823
v -0.00406219 0.01148613 -0.00504227
v -0.00352059 0.01094455 -0.00517869
v -0.00315181 0.00986138 -0.00526336
v -0.00315181 0.00715436 -0.00524455
v -0.00599635 0.01072371 -0.00374867
v -0.00620002 0.01040296 -0.00340999
v -0.00604262 0.01040296 -0.00380042
v -0.00315181 0.01277523 0.04168256
v -0.00315181 0.01286462 0.04149910
v -0.00315181 0.01289529 0.04138620
v -0.00327927 0.01285410 0.04129683
v -0.00356368 0.01272440 0.04099577
v -0.00403452 0.01245361 0.04099577
v -0.00460334 0.01207152 0.04153673
v -0.00403860 0.01245361 -0.00449191
v -0.00431076 0.01228360 -0.00395094
v -0.00460334 0.01207152 -0.00395094
v -0.00430940 0.01227484 -0.00449191
v -0.00492222 0.01179635 -0.00436960
v -0.00521661 0.01158077 -0.00395094
v -0.00547335 0.01127843 -0.00428963
v -0.00553322 0.01094455 -0.00433197
v -0.00515446 0.01094455 -0.00460480
v -0.00515446 0.01040296 -0.00461891
v -0.00515446 0.00986138 -0.00461891
v -0.00488366 0.00986138 -0.00476944
v -0.00460334 0.01094455 -0.00486823
v -0.00352059 0.01202771 -0.00517869
v -0.00464688 0.01146159 -0.00484941
v -0.00315181 0.01202771 -0.00526336
v -0.00315181 0.01291281 0.04116982
v -0.00315181 0.01292070 0.04099577
v -0.00329288 0.01286111 0.04099577
v -0.00355280 0.01272440 -0.00449191
v -0.00327202 0.01285060 -0.00479766
v -0.00395514 0.01240191 -0.00487293
v -0.00464688 0.01197776 -0.00452483
v -0.00485599 0.01162547 -0.00472710
v -0.00488049 0.01126441 -0.00476944
v -0.00488366 0.01094455 -0.00476944
v -0.00449493 0.01191554 -0.00483059
v -0.00410619 0.01206890 -0.00494349
v -0.00315181 0.01257016 -0.00514106
v -0.00315181 0.01291194 -0.00449191
v -0.00328199 0.01285585 -0.00449191
v -0.00315181 0.01287426 -0.00487293
f 1 2 6
f 1 6 15
f 1 15 26
f 1 26 52
f 1 52 97
f 1 97 68
f 1 68 34
f 1 34 21
f 1 21 13
f 1 13 12
f 1 12 7
f 1 7 3
f 1 3 4
f 1 4 5
f 1 5 2
f 2 5 11
f 2 11 20
f 2 20 33
f 2 33 64
f 2 64 109
f 2 109 149
f 2 149 148
f 2 148 146
f 2 146 191
f 2 191 225
f 2 225 224
f 2 224 251
f 2 251 264
f 2 264 267
f 2 267 265
f 2 265 253
f 2 253 252
f 2 252 231
f 2 231 230
f 2 230 229
f 2 229 199
f 2 199 161
f 2 161 120
f 2 120 119
f 2 119 81
f 2 81 44
f 2 44 24
f 2 24 14
f 2 14 6
f 3 7 4
f 4 8 9
f 4 9 10
f 4 10 11
f 4 11 5
f 4 7 12
f 4 12 13
f 4 13 8
f 6 14 15
f 8 16 17
f 8 17 9
f 8 13 16
f 9 11 10
f 9 17 18
f 9 18 19
f 9 19 20
f 9 20 11
f 13 21 22
f 13 22 23
f 13 23 17
f 13 17 16
f 14 24 25
f 14 25 15
f 15 25 26
f 17 23 27
f 17 27 28
f 17 28 29
f 17 29 30
f 17 30 18
f 18 30 31
f 18 31 19
f 19 31 32
f 19 32 33
f 19 33 20
f 21 34 35
f 21 35 22
f 22 35 36
f 22 36 37
f 22 37 38
f 22 38 39
f 22 39 40
f 22 40 41
f 22 41 42
f 22 42 43
f 22 43 27
f 22 27 23
f 24 44 45
f 24 45 46
f 24 46 47
f 24 47 25
f 25 47 46
f 25 46 48
f 25 48 49
f 25 49 50
f 25 50 51
f 25 51 52
f 25 52 26
f 27 43 53
f 27 53 54
f 27 54 55
f 27 55 28
f 28 55 29
f 29 55 56
f 29 56 57
f 29 57 58
f 29 58 59
f 29 59 30
f 30 59 60
f 30 60 31
f 31 60 61
f 31 61 62
f 31 62 32
f 32 63 64
f 32 64 33
f 32 62 65
f 32 65 63
f 34 66 67
f 34 67 35
f 34 68 69
f 34 69 66
f 35 67 36
f 36 67 70
f 36 70 71
f 36 71 37
f 37 71 38
f 38 72 73
f 38 73 39
f 38 71 74
f 38 74 72
f 39 73 40
f 40 73 75
f 40 75 41
f 41 76 77
f 41 77 78
f 41 78 54
f 41 54 42
f 41 75 79
f 41 79 80
f 41 80 76
f 42 54 53
f 42 53 43
f 44 81 82
f 44 82 45
f 45 82 46
f 46 82 83
f 46 83 84
f 46 84 48
f 48 84 85
f 48 85 86
f 48 86 87
f 48 87 88
f 48 88 49
f 49 89 90
f 49 90 50
f 49 88 89
f 50 90 91
f 50 91 92
f 50 92 93
f 50 93 94
f 50 94 51
f 51 94 95
f 51 95 96
f 51 96 69
f 51 69 97
f 51 97 52
f 54 78 98
f 54 98 99
f 54 99 57
f 54 57 100
f 54 100 55
f 55 100 57
f 55 57 56
f 57 101 102
f 57 102 103
f 57 103 104
f 57 104 105
f 57 105 59
f 57 59 58
f 57 99 101
f 59 105 106
f 59 106 61
f 59 61 60
f 61 65 62
f 61 106 104
f 61 104 107
f 61 107 65
f 63 65 107
f 63 107 108
f 63 108 109
f 63 109 64
f 66 70 67
f 66 69 70
f 68 97 69
f 69 96 70
f 70 96 95
f 70 95 71
f 71 110 74
f 71 95 92
f 71 92 110
f 72 74 111
f 72 111 112
f 72 112 113
f 72 113 73
f 73 113 79
f 73 79 75
f 74 110 138
f 74 138 111
f 76 114 77
f 76 80 114
f 77 114 115
f 77 115 116
f 77 116 117
f 77 117 78
f 78 117 98
f 79 113 80
f 80 113 112
f 80 112 118
f 80 118 115
f 80 115 114
f 81 119 82
f 82 119 120
f 82 120 121
f 82 121 122
f 82 122 83
f 83 122 123
f 83 123 85
f 83 85 84
f 85 123 124
f 85 124 125
f 85 125 126
f 85 126 127
f 85 127 86
f 86 127 128
f 86 128 129
f 86 129 88
f 86 88 87
f 88 129 130
f 88 130 89
f 89 130 131
f 89 131 132
f 89 132 90
f 90 132 133
f 90 133 134
f 90 134 135
f 90 135 91
f 91 135 136
f 91 136 137
f 91 137 92
f 92 95 93
f 92 137 138
f 92 138 110
f 93 95 94
f 98 117 139
f 98 139 99
f 99 139 140
f 99 140 141
f 99 141 101
f 101 141 102
f 102 142 143
f 102 143 103
f 102 141 142
f 103 143 144
f 103 144 104
f 104 144 145
f 104 145 146
f 104 146 147
f 104 147 107
f 104 106 105
f 107 147 148
f 107 148 149
f 107 149 109
f 107 109 108
f 111 150 112
f 111 138 181
f 111 181 150
f 112 150 151
f 112 151 118
f 115 152 153
f 115 153 116
f 115 118 152
f 116 153 154
f 116 154 117
f 117 154 155
f 117 155 156
f 117 156 139
f 118 151 157
f 118 157 158
f 118 158 159
f 118 159 160
f 118 160 152
f 120 161 162
f 120 162 121
f 121 162 163
f 121 163 122
f 122 163 123
f 123 163 164
f 123 164 124
f 124 164 165
f 124 165 166
f 124 166 167
f 124 167 125
f 125 167 168
f 125 168 126
f 126 168 169
f 126 169 127
f 127 169 170
f 127 170 128
f 128 170 129
f 129 170 171
f 129 171 130
f 130 171 172
f 130 172 131
f 131 172 193
f 131 193 173
f 131 173 192
f 131 192 174
f 131 174 132
f 132 175 133
f 132 174 176
f 132 176 175
f 133 175 177
f 133 177 178
f 133 178 134
f 134 178 135
f 135 178 179
f 135 179 180
f 135 180 150
f 135 150 181
f 135 181 136
f 136 181 137
f 137 181 138
f 139 182 183
f 139 183 184
f 139 184 140
f 139 156 182
f 140 184 185
f 140 185 141
f 141 185 186
f 141 186 187
f 141 187 142
f 142 187 186
f 142 186 143
f 143 188 189
f 143 189 144
f 143 186 188
f 144 189 190
f 144 190 145
f 145 190 191
f 145 191 146
f 146 148 147
f 150 180 151
f 151 180 157
f 152 160 159
f 152 159 192
f 152 192 173
f 152 173 193
f 152 193 194
f 152 194 195
f 152 195 153
f 153 195 196
f 153 196 154
f 154 196 155
f 155 196 156
f 156 196 182
f 157 180 179
f 157 179 158
f 158 197 159
f 158 179 178
f 158 178 198
f 158 198 176
f 158 176 197
f 159 197 192
f 161 199 162
f 162 199 163
f 163 199 200
f 163 200 201
f 163 201 202
f 163 202 203
f 163 203 164
f 164 203 204
f 164 204 165
f 165 204 205
f 165 205 206
f 165 206 207
f 165 207 166
f 166 207 167
f 167 207 208
f 167 208 209
f 167 209 168
f 168 209 169
f 169 209 210
f 169 210 211
f 169 211 170
f 170 211 212
f 170 212 171
f 171 212 193
f 171 193 172
f 174 192 197
f 174 197 176
f 175 176 177
f 176 198 177
f 177 198 178
f 182 196 213
f 182 213 183
f 183 214 215
f 183 215 184
f 183 213 216
f 183 216 217
f 183 217 214
f 184 215 218
f 184 218 185
f 185 218 186
f 186 219 220
f 186 220 188
f 186 218 215
f 186 215 219
f 188 220 221
f 188 221 189
f 189 221 190
f 190 222 223
f 190 223 224
f 190 224 225
f 190 225 191
f 190 221 222
f 193 212 194
f 194 212 211
f 194 211 210
f 194 210 226
f 194 226 227
f 194 227 195
f 195 227 196
f 196 226 228
f 196 228 217
f 196 217 216
f 196 216 213
f 196 227 226
f 199 229 200
f 200 229 230
f 200 230 231
f 200 231 201
f 201 231 232
f 201 232 233
f 201 233 234
f 201 234 202
f 202 235 203
f 202 234 236
f 202 236 237
f 202 237 238
f 202 238 235
f 203 235 204
f 204 235 205
f 205 238 239
f 205 239 240
f 205 240 241
f 205 241 206
f 205 235 238
f 206 241 207
f 207 241 208
f 208 241 240
f 208 240 242
f 208 242 226
f 208 226 209
f 209 226 210
f 214 243 215
f 214 217 228
f 214 228 243
f 215 243 244
f 215 244 245
f 215 245 246
f 215 246 219
f 219 246 247
f 219 247 220
f 220 247 221
f 221 247 261
f 221 261 248
f 221 248 222
f 222 249 223
f 222 248 250
f 222 250 249
f 223 249 251
f 223 251 224
f 226 242 243
f 226 243 228
f 231 252 232
f 232 252 253
f 232 253 254
f 232 254 233
f 233 254 255
f 233 255 236
f 233 236 234
f 236 255 256
f 236 256 257
f 236 257 239
f 236 239 237
f 237 239 238
f 239 257 258
f 239 258 240
f 240 258 259
f 240 259 242
f 242 259 243
f 243 259 260
f 243 260 244
f 244 260 245
f 245 260 261
f 245 261 247
f 245 247 246
f 248 261 260
f 248 260 250
f 249 250 262
f 249 262 263
f 249 263 264
f 249 264 251
f 250 260 259
f 250 259 262
f 253 265 254
f 254 265 266
f 254 266 255
f 255 266 256
f 256 267 257
f 256 266 265
f 256 265 267
f 257 262 258
f 257 267 264
f 257 264 263
f 257 263 262
f 258 262 259

