# https://github.com/mikedh/trimesh
v -0.00108011 0.00396890 -0.00221566
v -0.00117808 0.00396890 -0.00219588
v -0.00049687 0.00396984 -0.00255188
v 0.00024442 0.00396984 -0.00255188
v 0.00134820 0.00396984 -0.00206732
v 0.00166431 0.00396984 -0.00177559
v 0.00188637 0.00396984 -0.00153825
v 0.00214827 0.00396984 -0.00123664
v 0.00352048 0.00396984 0.00288711
v -0.00108011 0.00396890 0.04491569
v -0.00160326 0.00396890 -0.00202776
v -0.00315181 0.00414391 -0.00279911
v -0.00243664 0.00415990 -0.00316006
v -0.00189520 0.00414202 -0.00318973
v -0.00135377 0.00414014 -0.00319962
v -0.00027024 0.00414014 -0.00321940
v 0.00243630 0.00415990 -0.00316501
v 0.00352048 0.00414014 -0.00269528
v 0.00027055 0.00414014 -0.00321940
v 0.00135342 0.00414014 -0.00319962
v 0.00189486 0.00414202 -0.00319468
v 0.00352048 0.00410345 -0.00232444
v 0.00352048 0.00396984 0.03997115
v 0.00286801 0.00611884 0.04366967
v 0.00303782 0.00661281 0.04366967
v 0.00304697 0.00715476 0.04366967
v -0.00108011 0.01258183 0.04491569
v -0.00294347 0.00396890 0.04491569
v 0.00302672 0.00396984 0.04207753
v 0.00288956 0.00396984 0.04254231
v 0.00286736 0.00396984 0.04259176
v -0.00212576 0.00396890 -0.00147397
v -0.00315181 0.00410251 -0.00232444
v -0.00315181 0.00422482 -0.00302656
v -0.00271226 0.00417590 -0.00313534
v -0.00243664 0.00440924 -0.00343201
v -0.00189520 0.00463976 -0.00375835
v -0.00189520 0.00436878 -0.00346168
v -0.00027024 0.00457295 -0.00382758
v -0.00027024 0.00430198 -0.00348640
v 0.00271191 0.00417590 -0.00314028
v 0.00189486 0.00436972 -0.00346168
v 0.00189486 0.00463976 -0.00375835
v 0.00243630 0.00440924 -0.00343696
v 0.00351983 0.00426810 -0.00296722
v 0.00352048 0.00426905 -0.00296722
v 0.00027055 0.00430198 -0.00348640
v 0.00027055 0.00457295 -0.00382758
v 0.00352048 0.00950605 0.04241870
v 0.00352048 0.01040272 0.04267581
v 0.00352048 0.00986077 0.04257198
v 0.00304697 0.00826690 0.04366967
v 0.00352048 0.01094374 0.04269065
v -0.00135377 0.01254325 0.04491569
v 0.00304631 0.00934892 0.04366967
v 0.00303978 0.01151486 0.04366967
v 0.00303260 0.01202670 0.04366967
v 0.00302280 0.01205964 0.04366967
v 0.00286540 0.01249997 0.04366967
v 0.00248528 0.01277377 0.04366967
v 0.00241409 0.01279730 0.04366967
v 0.00222730 0.01285657 0.04366967
v 0.00201438 0.01291773 0.04366967
v 0.00190792 0.01294690 0.04366967
v 0.00138281 0.01306451 0.04366967
v 0.00135342 0.01307015 0.04366967
v 0.00084203 0.01313696 0.04366967
v 0.00081198 0.01314072 0.04366967
v 0.00027316 0.01319153 0.04366967
v -0.00108011 0.01266181 0.04476241
v -0.00303686 0.00607180 0.04491569
v -0.00315181 0.00396890 0.04007499
v -0.00227010 0.00396890 -0.00102897
v -0.00315181 0.00396890 0.00288711
v -0.00315181 0.00449392 -0.00336279
v -0.00273381 0.00471126 -0.00368418
v -0.00243664 0.00467927 -0.00371385
v -0.00243664 0.00521841 -0.00426269
v -0.00243664 0.00548562 -0.00453464
v -0.00243664 0.00575566 -0.00480659
v -0.00189520 0.00599558 -0.00511316
v -0.00135377 0.00542917 -0.00459398
v -0.00107946 0.00501047 -0.00419842
v -0.00107946 0.00460588 -0.00379296
v -0.00081168 0.00594854 -0.00515766
v -0.00027024 0.00592690 -0.00517744
v 0.00243630 0.00494743 -0.00399075
v 0.00277266 0.00578576 -0.00477693
v 0.00352048 0.00587233 -0.00468793
v 0.00352048 0.00453908 -0.00331829
v 0.00081198 0.00594854 -0.00515766
v 0.00135342 0.00597112 -0.00513293
v 0.00189486 0.00599558 -0.00510821
v 0.00243630 0.00548562 -0.00453464
v 0.00027055 0.00592690 -0.00517744
v 0.00352048 0.01148569 0.04262143
v -0.00135377 0.01261006 0.04478219
v -0.00150986 0.01250750 0.04491569
v 0.00352048 0.01190251 0.04245331
v 0.00352048 0.01217348 0.04225059
v 0.00265509 0.01281894 0.04336311
v 0.00352048 0.01245011 0.04197863
v 0.00352048 0.01268157 0.04150396
v 0.00229392 0.01287633 0.04354605
v 0.00189486 0.01309932 0.04315544
v 0.00135342 0.01321223 0.04315544
v 0.00081198 0.01327997 0.04315544
v 0.00031953 0.01333078 0.04314060
v 0.00017258 0.01339664 0.04294776
v -0.00027285 0.01319153 0.04366967
v -0.00108011 0.01274461 0.04459430
v -0.00304796 0.00661281 0.04491569
v -0.00315181 0.00933575 0.04259670
v -0.00315181 0.00565874 -0.00455937
v -0.00294347 0.00553831 -0.00448520
v -0.00275341 0.00524946 -0.00423303
v -0.00277235 0.00578576 -0.00477693
v -0.00243664 0.00603228 -0.00507854
v -0.00243664 0.00630325 -0.00533071
v -0.00189520 0.00626656 -0.00536038
v -0.00135377 0.00624210 -0.00538016
v -0.00081168 0.00621952 -0.00539994
v -0.00027024 0.00619693 -0.00541477
v 0.00243630 0.00603228 -0.00507854
v 0.00274065 0.00633148 -0.00531094
v 0.00352048 0.00614330 -0.00493515
v 0.00135342 0.00624210 -0.00538016
v 0.00189486 0.00626656 -0.00536038
v 0.00243630 0.00630231 -0.00533071
v 0.00027055 0.00619693 -0.00541477
v -0.00135377 0.01278977 0.04440640
v -0.00173650 0.01287257 0.04404545
v -0.00192655 0.01244634 0.04482669
v -0.00187888 0.01241435 0.04491569
v 0.00274522 0.01286598 0.04300216
v 0.00245981 0.01293090 0.04317027
v 0.00352048 0.01274555 0.04098973
v 0.00327948 0.01285375 0.04129629
v 0.00189486 0.01321317 0.04261648
v 0.00133905 0.01333266 0.04259670
v 0.00081198 0.01336654 0.04279449
v 0.00053310 0.01337971 0.04288349
v 0.00031953 0.01343146 0.04267087
v 0.00027055 0.01350861 0.04207753
v -0.00017162 0.01339664 0.04294776
v -0.00031988 0.01333078 0.04314060
v -0.00078620 0.01314354 0.04366967
v -0.00108011 0.01292055 0.04420368
v -0.00108011 0.01281141 0.04445090
v -0.00304862 0.00931882 0.04491569
v -0.00315181 0.01040272 0.04278459
v -0.00315181 0.00985889 0.04274998
v -0.00315181 0.00582999 -0.00473243
v -0.00274100 0.00633148 -0.00531094
v -0.00189520 0.00661281 -0.00543455
v -0.00027024 0.00661281 -0.00555817
v 0.00135342 0.00661281 -0.00547411
v 0.00189486 0.00661281 -0.00542961
v 0.00243630 0.00661281 -0.00537522
v 0.00278049 0.00661281 -0.00532083
v 0.00352048 0.00661281 -0.00513293
v 0.00027055 0.00661281 -0.00555817
v -0.00135377 0.01291303 0.04413445
v -0.00135377 0.01306075 0.04369934
v -0.00190827 0.01292808 0.04370922
v -0.00209767 0.01281800 0.04389712
v -0.00243664 0.01257148 0.04424323
v -0.00243664 0.01237201 0.04466846
v -0.00190827 0.01273332 0.04423335
v -0.00201211 0.01237766 0.04491569
v 0.00278572 0.01289797 0.04261648
v 0.00243630 0.01304663 0.04261648
v 0.00329385 0.01286128 0.04098973
v 0.00352048 0.01273990 -0.00449014
v 0.00243630 0.01316989 0.04152868
v 0.00243630 0.01311344 0.04207753
v 0.00297774 0.01299300 0.04098973
v 0.00184130 0.01329973 0.04202314
v 0.00162512 0.01338065 0.04180558
v 0.00151017 0.01336465 0.04216653
v 0.00114965 0.01339006 0.04240881
v 0.00081198 0.01340699 0.04252254
v -0.00027024 0.01350861 0.04207753
v 0.00081198 0.01345780 0.04207753
v 0.00027055 0.01355189 0.04152868
v -0.00031988 0.01343146 0.04267087
v -0.00053279 0.01337971 0.04288349
v -0.00081168 0.01327997 0.04315544
v -0.00081168 0.01314072 0.04366967
v -0.00108011 0.01302499 0.04391690
v -0.00304862 0.01094374 0.04491569
v -0.00315181 0.01094374 0.04278459
v -0.00315181 0.00610284 -0.00498954
v -0.00278018 0.00661281 -0.00532083
v -0.00243664 0.00661281 -0.00537522
v -0.00315181 0.00661281 -0.00522688
v -0.00189520 0.00715476 -0.00544938
v -0.00108011 0.00715476 -0.00551861
v -0.00027024 0.00715476 -0.00558289
v 0.00027055 0.00715476 -0.00558289
v 0.00135342 0.00715476 -0.00549389
v 0.00189486 0.00715476 -0.00544444
v 0.00243630 0.00715476 -0.00539005
v 0.00280792 0.00715476 -0.00532577
v 0.00352048 0.00715382 -0.00515766
v -0.00108011 0.01309744 0.04369934
v -0.00135377 0.01320941 0.04316038
v -0.00189520 0.01308427 0.04316038
v -0.00244448 0.01292244 0.04316532
v -0.00226879 0.01286974 0.04353617
v -0.00244448 0.01276436 0.04370922
v -0.00274100 0.01232120 0.04455968
v -0.00243664 0.01224781 0.04491569
v 0.00328209 0.01285469 -0.00449014
v 0.00297774 0.01298830 -0.00449014
v 0.00352048 0.01273896 -0.00452476
v 0.00243630 0.01319341 0.04098973
v 0.00197650 0.01333172 0.04098973
v 0.00193601 0.01331949 0.04152868
v 0.00243630 0.01319435 -0.00449014
v 0.00133905 0.01340135 0.04202314
v 0.00166561 0.01339100 0.04152868
v 0.00135342 0.01343804 0.04152868
v -0.00027024 0.01355189 0.04152868
v -0.00081168 0.01345780 0.04207753
v -0.00114934 0.01339006 0.04240881
v -0.00108011 0.01339382 0.04243353
v -0.00081168 0.01340699 0.04252254
v 0.00081198 0.01350108 0.04152868
v 0.00027055 0.01357165 0.04098973
v -0.00081168 0.01336654 0.04279449
v -0.00108011 0.01324516 0.04316038
v -0.00301139 0.01149604 0.04491569
v -0.00304078 0.01148569 0.04478219
v -0.00315181 0.01200977 0.04261648
v -0.00315181 0.01147628 0.04276482
v -0.00280631 0.00715476 -0.00532577
v -0.00243664 0.00715476 -0.00539005
v -0.00315181 0.00672948 -0.00523182
v -0.00315181 0.00715476 -0.00524666
v -0.00189520 0.00769672 -0.00545433
v -0.00081168 0.01040272 -0.00556311
v -0.00081168 0.00823773 -0.00554827
v -0.00027024 0.00931976 -0.00559278
v 0.00027055 0.00931976 -0.00559278
v 0.00081198 0.01040272 -0.00556311
v 0.00081198 0.00769578 -0.00554333
v 0.00189486 0.00823773 -0.00545433
v 0.00189486 0.00769578 -0.00544938
v 0.00243630 0.00769578 -0.00539499
v 0.00281184 0.00769578 -0.00533071
v 0.00352048 0.01148475 -0.00518238
v -0.00108011 0.01334960 0.04269559
v -0.00133940 0.01333172 0.04260165
v -0.00189520 0.01320847 0.04261648
v -0.00243664 0.01305228 0.04261648
v -0.00262931 0.01281141 0.04334827
v -0.00274883 0.01286692 0.04298732
v -0.00281153 0.01239459 0.04424323
v -0.00284223 0.01198154 0.04491569
v 0.00327229 0.01284999 -0.00479671
v 0.00352048 0.01256207 -0.00494010
v 0.00197650 0.01333172 0.03936297
v 0.00170545 0.01340135 0.04098973
v 0.00164733 0.01338629 -0.00531094
v 0.00167476 0.01339288 -0.00502910
v 0.00195887 0.01333172 -0.00449014
v 0.00135342 0.01345780 0.04098973
v -0.00027024 0.01357165 0.04098973
v -0.00081168 0.01350108 0.04152868
v -0.00133940 0.01340229 0.04202314
v -0.00151052 0.01336465 0.04216653
v 0.00081198 0.01351990 0.04098973
v 0.00081198 0.01353684 -0.00449014
v 0.00027055 0.01358106 0.00688230
v -0.00298265 0.01202670 0.04424323
v -0.00315181 0.01256584 0.04207753
v -0.00315181 0.01253667 0.04210719
v -0.00315181 0.01229015 0.04234948
v -0.00315181 0.01202765 0.04260659
v -0.00281023 0.00769672 -0.00533071
v -0.00243664 0.00769672 -0.00539499
v -0.00315181 0.00986171 -0.00526149
v -0.00189520 0.01040272 -0.00546916
v -0.00135377 0.01148569 -0.00552355
v -0.00081168 0.01256866 -0.00557300
v -0.00108011 0.01256866 -0.00555322
v -0.00027024 0.01256866 -0.00559772
v 0.00027055 0.01256866 -0.00559278
v 0.00081198 0.01256866 -0.00557300
v 0.00135342 0.01256866 -0.00552850
v 0.00135342 0.01094374 -0.00551861
v 0.00189486 0.00986077 -0.00546422
v 0.00243630 0.01040272 -0.00539994
v 0.00189486 0.01094374 -0.00546916
v 0.00189486 0.01256866 -0.00547411
v 0.00283144 0.00986077 -0.00533071
v 0.00310248 0.00986077 -0.00527138
v 0.00352048 0.01202576 -0.00517744
v 0.00310640 0.01040272 -0.00527138
v 0.00283536 0.01040272 -0.00533071
v 0.00283797 0.01094374 -0.00533071
v 0.00283993 0.01148569 -0.00533071
v 0.00284058 0.01202670 -0.00533071
v 0.00311097 0.01202670 -0.00527138
v -0.00184165 0.01330256 0.04202314
v -0.00243664 0.01313037 0.04207258
v -0.00279978 0.01290738 0.04261648
v -0.00315181 0.01289421 0.04138529
v -0.00315181 0.01286410 0.04149901
v -0.00285791 0.01203894 0.04475747
v 0.00275959 0.01286598 -0.00532083
v 0.00295553 0.01291491 -0.00499943
v 0.00170545 0.01340135 0.03991182
v 0.00135342 0.01346062 -0.00449014
v 0.00135342 0.01341734 -0.00535050
v 0.00081198 0.01353684 -0.00502910
v 0.00135342 0.01345780 -0.00502910
v 0.00168782 0.01339570 -0.00449014
v -0.00027024 0.01358012 0.00796515
v -0.00081168 0.01354060 -0.00340729
v -0.00081168 0.01351990 0.04098973
v -0.00108011 0.01348979 0.04098973
v -0.00108011 0.01348038 0.04125673
v -0.00108011 0.01347003 0.04153363
v -0.00135377 0.01343804 0.04153363
v -0.00162547 0.01338159 0.04180558
v -0.00027024 0.01358106 0.00200698
v 0.00027055 0.01358106 -0.00502910
v -0.00315181 0.01277471 0.04167702
v -0.00283243 0.00986171 -0.00533071
v -0.00243664 0.00931882 -0.00539994
v -0.00310740 0.01148569 -0.00527633
v -0.00315181 0.01202670 -0.00526643
v -0.00189520 0.01202670 -0.00547411
v -0.00135377 0.01256866 -0.00552850
v -0.00081168 0.01310967 -0.00553344
v -0.00027024 0.01310967 -0.00556805
v 0.00027055 0.01310967 -0.00556805
v 0.00081198 0.01310967 -0.00553344
v 0.00243630 0.01256866 -0.00539994
v 0.00281315 0.01256866 -0.00533071
v -0.00193635 0.01332137 0.04153363
v -0.00243664 0.01317459 0.04153363
v -0.00315181 0.01291303 0.04116773
v 0.00135342 0.01310967 -0.00546422
v 0.00081198 0.01345874 -0.00539994
v -0.00081168 0.01354060 -0.00449014
v -0.00108011 0.01350297 -0.00286339
v -0.00135377 0.01345874 0.04098973
v -0.00166596 0.01339194 0.04153363
v -0.00027024 0.01358106 -0.00502910
v 0.00027055 0.01348038 -0.00541972
v -0.00283505 0.01040272 -0.00533071
v -0.00283701 0.01202670 -0.00533071
v -0.00243664 0.01256866 -0.00539994
v -0.00310805 0.01202670 -0.00527633
v -0.00275798 0.01286410 -0.00532083
v -0.00281023 0.01256866 -0.00533071
v -0.00315181 0.01257054 -0.00513788
v -0.00189520 0.01256866 -0.00547411
v -0.00135377 0.01311061 -0.00546422
v -0.00108011 0.01326304 -0.00544444
v -0.00081168 0.01345968 -0.00539994
v -0.00027024 0.01348038 -0.00541972
v -0.00197619 0.01333172 0.04098973
v -0.00243664 0.01319341 0.04098973
v -0.00297808 0.01299300 0.04098973
v -0.00315181 0.01292055 0.04098973
v -0.00081168 0.01353966 -0.00502910
v -0.00108011 0.01350297 -0.00476704
v -0.00135377 0.01346439 -0.00395119
v -0.00170580 0.01340229 0.04098973
v -0.00315181 0.01287445 -0.00487087
v -0.00295391 0.01291397 -0.00499943
v -0.00164506 0.01338629 -0.00531094
v -0.00135377 0.01341828 -0.00535050
v -0.00243664 0.01292996 -0.00535050
v -0.00197619 0.01333172 0.03936297
v -0.00243664 0.01319341 0.04044583
v -0.00243664 0.01319059 -0.00340729
v -0.00297808 0.01298547 -0.00449014
v -0.00315181 0.01291114 -0.00449014
v -0.00108011 0.01350108 -0.00503404
v -0.00135377 0.01346439 -0.00449014
v -0.00170580 0.01340229 0.04044583
v -0.00243664 0.01318965 -0.00449014
v -0.00167118 0.01339288 -0.00503404
v -0.00135377 0.01345968 -0.00503404
v -0.00195856 0.01333078 0.00038023
v -0.00195856 0.01332984 -0.00449014
v -0.00168817 0.01339664 -0.00449014
f 1 2 3
f 1 3 4
f 1 4 5
f 1 5 6
f 1 6 7
f 1 7 8
f 1 8 9
f 1 9 23
f 1 23 10
f 1 10 28
f 1 28 72
f 1 72 74
f 1 74 73
f 1 73 32
f 1 32 11
f 1 11 2
f 2 11 3
f 3 12 13
f 3 13 14
f 3 14 15
f 3 15 16
f 3 16 19
f 3 19 4
f 3 11 12
f 4 17 18
f 4 18 5
f 4 19 20
f 4 20 21
f 4 21 17
f 5 22 6
f 5 18 22
f 6 22 7
f 7 22 8
f 8 22 9
f 9 22 18
f 9 18 46
f 9 46 90
f 9 90 89
f 9 89 126
f 9 126 161
f 9 161 205
f 9 205 252
f 9 252 299
f 9 299 262
f 9 262 216
f 9 216 174
f 9 174 137
f 9 137 103
f 9 103 102
f 9 102 100
f 9 100 99
f 9 99 96
f 9 96 53
f 9 53 50
f 9 50 51
f 9 51 49
f 9 49 23
f 10 24 25
f 10 25 26
f 10 26 52
f 10 52 27
f 10 27 54
f 10 54 98
f 10 98 134
f 10 134 170
f 10 170 213
f 10 213 260
f 10 260 233
f 10 233 191
f 10 191 150
f 10 150 112
f 10 112 71
f 10 71 28
f 10 23 29
f 10 29 30
f 10 30 31
f 10 31 24
f 11 32 33
f 11 33 12
f 12 33 74
f 12 74 72
f 12 72 113
f 12 113 152
f 12 152 151
f 12 151 192
f 12 192 236
f 12 236 235
f 12 235 280
f 12 280 279
f 12 279 278
f 12 278 277
f 12 277 330
f 12 330 310
f 12 310 309
f 12 309 345
f 12 345 369
f 12 369 383
f 12 383 374
f 12 374 360
f 12 360 334
f 12 334 283
f 12 283 240
f 12 240 239
f 12 239 196
f 12 196 193
f 12 193 153
f 12 153 114
f 12 114 75
f 12 75 34
f 12 34 35
f 12 35 13
f 13 35 36
f 13 36 37
f 13 37 38
f 13 38 14
f 14 38 39
f 14 39 40
f 14 40 15
f 15 40 16
f 16 40 47
f 16 47 19
f 17 41 18
f 17 21 42
f 17 42 43
f 17 43 44
f 17 44 41
f 18 41 45
f 18 45 46
f 19 21 20
f 19 47 21
f 21 47 48
f 21 48 42
f 23 49 25
f 23 25 29
f 24 31 25
f 25 50 26
f 25 31 30
f 25 30 29
f 25 49 51
f 25 51 50
f 26 50 53
f 26 53 52
f 27 52 55
f 27 55 56
f 27 56 57
f 27 57 58
f 27 58 59
f 27 59 60
f 27 60 61
f 27 61 62
f 27 62 63
f 27 63 64
f 27 64 65
f 27 65 66
f 27 66 67
f 27 67 68
f 27 68 69
f 27 69 70
f 27 70 54
f 28 71 72
f 32 73 33
f 33 73 74
f 34 75 35
f 35 75 76
f 35 76 77
f 35 77 36
f 36 77 37
f 37 77 78
f 37 78 79
f 37 79 80
f 37 80 81
f 37 81 82
f 37 82 83
f 37 83 84
f 37 84 38
f 38 84 39
f 39 84 83
f 39 83 85
f 39 85 86
f 39 86 95
f 39 95 48
f 39 48 47
f 39 47 40
f 41 44 87
f 41 87 88
f 41 88 89
f 41 89 90
f 41 90 45
f 42 48 43
f 43 87 44
f 43 48 91
f 43 91 92
f 43 92 93
f 43 93 94
f 43 94 87
f 45 90 46
f 48 95 91
f 52 53 55
f 53 96 57
f 53 57 56
f 53 56 55
f 54 70 97
f 54 97 98
f 57 96 99
f 57 99 100
f 57 100 58
f 58 100 59
f 59 101 60
f 59 100 102
f 59 102 103
f 59 103 101
f 60 101 61
f 61 101 104
f 61 104 62
f 62 104 63
f 63 104 105
f 63 105 64
f 64 105 65
f 65 105 106
f 65 106 66
f 66 106 67
f 67 106 68
f 68 106 107
f 68 107 108
f 68 108 69
f 69 108 109
f 69 109 145
f 69 145 110
f 69 110 111
f 69 111 70
f 70 111 97
f 71 112 72
f 72 112 113
f 75 114 115
f 75 115 116
f 75 116 76
f 76 116 77
f 77 116 117
f 77 117 78
f 78 117 79
f 79 117 80
f 80 117 118
f 80 118 81
f 81 85 82
f 81 118 119
f 81 119 120
f 81 120 85
f 82 85 83
f 85 120 121
f 85 121 122
f 85 122 86
f 86 122 123
f 86 123 130
f 86 130 95
f 87 94 88
f 88 94 124
f 88 124 125
f 88 125 89
f 89 125 126
f 91 95 127
f 91 127 128
f 91 128 92
f 92 128 93
f 93 124 94
f 93 128 129
f 93 129 124
f 95 130 127
f 97 111 131
f 97 131 132
f 97 132 98
f 98 133 134
f 98 132 133
f 101 135 136
f 101 136 104
f 101 103 135
f 103 137 138
f 103 138 135
f 104 136 105
f 105 136 139
f 105 139 106
f 106 139 140
f 106 140 141
f 106 141 107
f 107 141 142
f 107 142 108
f 108 142 109
f 109 142 143
f 109 143 144
f 109 144 183
f 109 183 145
f 110 145 146
f 110 146 147
f 110 147 148
f 110 148 149
f 110 149 111
f 111 149 131
f 112 150 151
f 112 151 152
f 112 152 113
f 114 153 117
f 114 117 115
f 115 117 116
f 117 153 154
f 117 154 118
f 118 154 119
f 119 154 155
f 119 155 156
f 119 156 120
f 120 156 121
f 121 156 122
f 122 156 123
f 123 156 162
f 123 162 130
f 124 129 125
f 125 129 157
f 125 157 158
f 125 158 159
f 125 159 160
f 125 160 161
f 125 161 126
f 127 130 162
f 127 162 128
f 128 162 129
f 129 162 157
f 131 149 163
f 131 163 132
f 132 163 164
f 132 164 165
f 132 165 166
f 132 166 167
f 132 167 168
f 132 168 169
f 132 169 133
f 133 169 168
f 133 168 170
f 133 170 134
f 135 171 172
f 135 172 136
f 135 138 171
f 136 172 139
f 137 173 138
f 137 174 173
f 138 175 176
f 138 176 172
f 138 172 171
f 138 173 177
f 138 177 175
f 139 172 176
f 139 176 178
f 139 178 179
f 139 179 180
f 139 180 140
f 140 180 181
f 140 181 141
f 141 181 182
f 141 182 142
f 142 182 143
f 143 182 144
f 144 182 181
f 144 181 184
f 144 184 229
f 144 229 185
f 144 185 224
f 144 224 183
f 145 186 187
f 145 187 146
f 145 183 186
f 146 187 188
f 146 188 147
f 147 188 189
f 147 189 190
f 147 190 148
f 148 190 163
f 148 163 149
f 150 191 192
f 150 192 151
f 153 193 154
f 154 194 195
f 154 195 155
f 154 193 196
f 154 196 194
f 155 197 198
f 155 198 199
f 155 199 156
f 155 195 238
f 155 238 197
f 156 199 200
f 156 200 162
f 157 162 200
f 157 200 201
f 157 201 158
f 158 201 202
f 158 202 203
f 158 203 159
f 159 203 160
f 160 203 204
f 160 204 205
f 160 205 161
f 163 190 164
f 164 190 206
f 164 206 207
f 164 207 208
f 164 208 165
f 165 208 209
f 165 209 210
f 165 210 166
f 166 210 211
f 166 211 167
f 167 212 168
f 167 211 212
f 168 212 213
f 168 213 170
f 173 174 214
f 173 214 215
f 173 215 177
f 174 216 214
f 175 177 217
f 175 217 218
f 175 218 219
f 175 219 178
f 175 178 176
f 177 215 220
f 177 220 217
f 178 219 179
f 179 221 180
f 179 219 222
f 179 222 223
f 179 223 221
f 180 221 181
f 181 221 184
f 183 224 270
f 183 270 225
f 183 225 226
f 183 226 227
f 183 227 228
f 183 228 186
f 184 221 229
f 185 229 230
f 185 230 269
f 185 269 224
f 186 228 187
f 187 228 231
f 187 231 188
f 188 231 232
f 188 232 189
f 189 206 190
f 189 232 207
f 189 207 206
f 191 233 234
f 191 234 235
f 191 235 236
f 191 236 192
f 194 237 238
f 194 238 195
f 194 196 239
f 194 239 240
f 194 240 237
f 197 241 198
f 197 238 282
f 197 282 241
f 198 242 243
f 198 243 199
f 198 241 242
f 199 244 245
f 199 245 200
f 199 243 242
f 199 242 244
f 200 245 246
f 200 246 247
f 200 247 201
f 201 248 249
f 201 249 202
f 201 247 246
f 201 246 248
f 202 249 250
f 202 250 203
f 203 250 251
f 203 251 204
f 204 251 205
f 205 251 252
f 207 232 231
f 207 231 253
f 207 253 254
f 207 254 255
f 207 255 208
f 208 255 256
f 208 256 209
f 209 257 210
f 209 256 258
f 209 258 257
f 210 257 211
f 211 257 212
f 212 257 259
f 212 259 260
f 212 260 213
f 214 216 261
f 214 261 215
f 215 261 220
f 216 262 261
f 217 220 218
f 218 220 263
f 218 263 314
f 218 314 264
f 218 264 222
f 218 222 219
f 220 261 265
f 220 265 266
f 220 266 267
f 220 267 263
f 221 223 229
f 222 264 268
f 222 268 223
f 223 268 229
f 224 269 270
f 225 270 271
f 225 271 226
f 226 271 272
f 226 272 254
f 226 254 253
f 226 253 231
f 226 231 227
f 227 231 228
f 229 268 273
f 229 273 230
f 230 273 274
f 230 274 275
f 230 275 269
f 233 260 276
f 233 276 234
f 234 276 277
f 234 277 278
f 234 278 279
f 234 279 280
f 234 280 235
f 237 281 238
f 237 240 281
f 238 281 282
f 240 283 281
f 241 284 285
f 241 285 242
f 241 282 284
f 242 286 244
f 242 285 287
f 242 287 286
f 244 286 288
f 244 288 245
f 245 288 289
f 245 289 290
f 245 290 246
f 246 290 291
f 246 291 292
f 246 292 293
f 246 293 248
f 248 293 250
f 248 250 249
f 250 294 251
f 250 293 295
f 250 295 296
f 250 296 294
f 251 294 297
f 251 297 298
f 251 298 252
f 252 298 300
f 252 300 301
f 252 301 302
f 252 302 303
f 252 303 304
f 252 304 305
f 252 305 299
f 254 272 255
f 255 272 306
f 255 306 307
f 255 307 256
f 256 308 258
f 256 307 308
f 257 258 259
f 258 308 309
f 258 309 310
f 258 310 259
f 259 276 311
f 259 311 260
f 259 310 276
f 260 311 276
f 261 262 312
f 261 312 313
f 261 313 265
f 262 299 312
f 263 267 314
f 264 314 315
f 264 315 268
f 265 312 316
f 265 316 317
f 265 317 318
f 265 318 266
f 265 313 312
f 266 318 319
f 266 319 267
f 267 319 314
f 268 315 274
f 268 274 273
f 269 275 320
f 269 320 321
f 269 321 322
f 269 322 270
f 270 322 323
f 270 323 324
f 270 324 325
f 270 325 271
f 271 325 326
f 271 326 327
f 271 327 272
f 272 327 306
f 274 315 317
f 274 317 329
f 274 329 275
f 275 328 320
f 275 329 352
f 275 352 328
f 276 310 330
f 276 330 277
f 281 331 332
f 281 332 282
f 281 283 333
f 281 333 331
f 282 332 284
f 283 334 333
f 284 332 335
f 284 335 336
f 284 336 285
f 285 336 287
f 286 287 337
f 286 337 338
f 286 338 288
f 287 336 337
f 288 338 339
f 288 339 289
f 289 339 290
f 290 339 340
f 290 340 291
f 291 340 296
f 291 296 295
f 291 295 293
f 291 293 292
f 294 341 304
f 294 304 303
f 294 303 302
f 294 302 301
f 294 301 297
f 294 296 341
f 296 340 312
f 296 312 341
f 297 301 300
f 297 300 298
f 299 305 342
f 299 342 312
f 304 341 342
f 304 342 305
f 306 327 343
f 306 343 307
f 307 343 344
f 307 344 345
f 307 345 309
f 307 309 308
f 312 342 341
f 312 340 346
f 312 346 316
f 314 319 315
f 315 319 318
f 315 318 317
f 316 346 340
f 316 340 347
f 316 347 317
f 317 347 329
f 320 328 321
f 321 348 371
f 321 371 349
f 321 349 350
f 321 350 323
f 321 323 322
f 321 328 352
f 321 352 348
f 323 350 324
f 324 350 325
f 325 350 326
f 326 351 327
f 326 350 351
f 327 351 343
f 329 347 353
f 329 353 365
f 329 365 352
f 331 333 354
f 331 354 332
f 332 354 355
f 332 355 356
f 332 356 361
f 332 361 335
f 333 334 357
f 333 357 354
f 334 358 359
f 334 359 357
f 334 360 358
f 335 361 336
f 336 361 337
f 337 361 362
f 337 362 363
f 337 363 364
f 337 364 338
f 338 364 365
f 338 365 353
f 338 353 339
f 339 353 347
f 339 347 340
f 343 351 373
f 343 373 366
f 343 366 344
f 344 366 367
f 344 367 368
f 344 368 345
f 345 368 369
f 348 352 370
f 348 370 371
f 349 371 385
f 349 385 372
f 349 372 350
f 350 372 373
f 350 373 351
f 352 365 364
f 352 364 370
f 354 357 355
f 355 357 359
f 355 359 356
f 356 359 358
f 356 358 361
f 358 360 374
f 358 374 375
f 358 375 376
f 358 376 377
f 358 377 378
f 358 378 362
f 358 362 361
f 362 378 377
f 362 377 363
f 363 377 364
f 364 377 370
f 366 373 386
f 366 386 379
f 366 379 380
f 366 380 367
f 367 380 368
f 368 380 381
f 368 381 382
f 368 382 369
f 369 382 383
f 370 384 371
f 370 377 376
f 370 376 384
f 371 384 385
f 372 385 386
f 372 386 373
f 374 383 382
f 374 382 387
f 374 387 376
f 374 376 375
f 376 387 388
f 376 388 389
f 376 389 384
f 379 386 390
f 379 390 381
f 379 381 380
f 381 391 387
f 381 387 382
f 381 390 391
f 384 389 385
f 385 392 386
f 385 389 392
f 386 392 391
f 386 391 390
f 387 391 388
f 388 391 392
f 388 392 389

