# https://github.com/mikedh/trimesh
v 0.00243554 0.00396797 0.04011905
v -0.00314001 0.00396797 0.04011905
v 0.00243554 -0.00108853 0.04011905
v 0.00243554 0.00396797 0.00288346
v -0.00670581 0.00396797 0.03998013
v -0.00676950 0.00390410 0.03998378
v -0.00676950 0.00336240 0.04000937
v -0.00315274 0.00339607 0.04011905
v 0.00189465 -0.00109724 0.04011905
v 0.00027000 -0.00187234 0.03705173
v 0.00027000 -0.00196350 0.03666055
v 0.00163204 -0.00178293 0.03693474
v 0.00243554 -0.00156288 0.03666055
v 0.00243554 -0.00096950 0.00366583
v 0.00049537 0.00396797 0.00277012
v -0.00676950 0.00396797 0.03997647
v -0.00734078 0.00396797 0.03979368
v -0.00287642 -0.00088938 0.04011905
v -0.00294109 -0.00071346 0.04011905
v -0.00304594 -0.00042780 0.04011905
v -0.00312237 0.00119616 0.04011905
v -0.00313315 0.00173786 0.04011905
v -0.00315078 0.00285669 0.04011905
v -0.00315274 0.00336240 0.04011905
v -0.00721437 0.00336240 0.03981927
v -0.00676950 0.00282127 0.03993260
v -0.00622763 0.00227957 0.03995819
v -0.00006512 -0.00109782 0.04011905
v -0.00027090 -0.00187234 0.03705173
v 0.00081187 -0.00189325 0.03666055
v -0.00027090 -0.00196350 0.03666055
v 0.00027000 -0.00196350 0.00471142
v 0.00135375 -0.00182183 0.03666055
v 0.00163596 -0.00178409 0.03666055
v 0.00190641 -0.00172835 0.03611947
v 0.00190641 -0.00172371 0.03666055
v 0.00243554 -0.00156753 0.03611947
v 0.00243554 -0.00138580 0.00379013
v 0.00081187 -0.00151063 0.00371335
v 0.00027000 -0.00151063 0.00368045
v -0.00027090 0.00396797 0.00277378
v -0.00027090 -0.00151063 0.00368045
v -0.00739957 0.00396797 0.03976077
v -0.00734372 0.00392500 0.03979002
v -0.00243743 -0.00108911 0.04011905
v -0.00659998 0.00185572 0.03973152
v -0.00608750 0.00135756 0.03968400
v -0.00547507 0.00032873 0.03915389
v -0.00492144 -0.00019614 0.03864572
v -0.00460297 -0.00045741 0.03828743
v -0.00395527 -0.00080287 0.03818507
v -0.00711736 0.00282127 0.03974249
v -0.00677636 0.00231556 0.03978271
v -0.00189555 -0.00109782 0.04011905
v -0.00223165 -0.00109259 0.04011905
v 0.00081187 -0.00189325 0.00471142
v -0.00163294 -0.00178293 0.03693474
v -0.00081278 -0.00189325 0.03666055
v -0.00027090 -0.00196350 0.00471142
v 0.00027000 -0.00195885 0.00417034
v 0.00081187 -0.00189034 0.00417034
v 0.00135375 -0.00182183 0.00471142
v 0.00163596 -0.00178409 0.00471142
v 0.00190641 -0.00172835 0.03395516
v 0.00243554 -0.00156753 0.03557839
v 0.00162420 -0.00178177 0.00389980
v 0.00135375 -0.00179919 0.00387787
v 0.00081187 -0.00183461 0.00383766
v 0.00027000 -0.00186828 0.00380475
v 0.00135375 -0.00151063 0.00375357
v 0.00243554 -0.00154604 0.00417034
v -0.00568575 0.00396797 0.00288346
v -0.00027090 -0.00186828 0.00380475
v -0.00081278 -0.00151063 0.00371335
v -0.00243743 -0.00096950 0.00366583
v -0.00757007 0.00396797 0.03936959
v -0.00403072 -0.00085454 0.03774636
v -0.00351922 -0.00104498 0.03774636
v -0.00243743 -0.00156114 0.03666055
v -0.00705465 0.00251994 0.03966937
v -0.00665192 0.00176979 0.03936959
v -0.00645300 0.00149923 0.03936959
v -0.00599539 0.00088031 0.03919410
v -0.00550643 0.00029564 0.03882851
v -0.00494300 -0.00021355 0.03828743
v -0.00430117 -0.00067746 0.03774636
v -0.00753185 0.00382107 0.03936959
v 0.00135375 -0.00181951 0.00417034
v -0.00190731 -0.00172313 0.03666055
v -0.00190731 -0.00172777 0.03611947
v -0.00163686 -0.00178409 0.03666055
v -0.00135465 -0.00182183 0.03666055
v -0.00081278 -0.00189325 0.00471142
v -0.00081278 -0.00189034 0.00417034
v -0.00027090 -0.00195885 0.00417034
v 0.00163008 -0.00178293 0.00417034
v 0.00190641 -0.00172777 0.00471142
v 0.00243554 -0.00156114 0.00471142
v 0.00190053 -0.00171442 0.00417034
v -0.00624232 0.00396797 0.00291271
v -0.00081278 -0.00183461 0.00383766
v -0.00243743 -0.00138522 0.00379013
v -0.00135465 -0.00151063 0.00375357
v -0.00351922 -0.00089460 0.00377916
v -0.00351922 -0.00042780 0.00365486
v -0.00753381 0.00382282 0.03882851
v -0.00757399 0.00396797 0.00417034
v -0.00351922 -0.00112220 0.03611947
v -0.00346729 -0.00114775 0.03662033
v -0.00325269 -0.00124181 0.03693840
v -0.00401210 -0.00084758 0.00471142
v -0.00351922 -0.00111059 0.00471142
v -0.00243743 -0.00156288 0.03611947
v -0.00739075 0.00336240 0.03936959
v -0.00719183 0.00282127 0.03936959
v -0.00706151 0.00250716 0.03936959
v -0.00692236 0.00223602 0.03936959
v -0.00665290 0.00176109 0.03882851
v -0.00648338 0.00148994 0.03882851
v -0.00626682 0.00119616 0.03882851
v -0.00601107 0.00086115 0.03882851
v -0.00577688 0.00059058 0.03882851
v -0.00550545 0.00028983 0.03828743
v -0.00521442 0.00001927 0.03828743
v -0.00460297 -0.00045973 0.03774636
v -0.00550349 0.00029680 0.00471142
v -0.00517719 0.00002624 0.00471142
v -0.00490674 -0.00018220 0.00471142
v -0.00428353 -0.00066120 0.00471142
v -0.00190731 -0.00172777 0.00471142
v -0.00163686 -0.00178409 0.00471142
v -0.00135465 -0.00182183 0.00471142
v -0.00135465 -0.00181951 0.00417034
v -0.00162510 -0.00178177 0.00389980
v -0.00135465 -0.00179919 0.00387787
v -0.00409245 -0.00045973 0.00375357
v -0.00510174 0.00013423 0.00380841
v -0.00547115 0.00032873 0.00384862
v -0.00674109 0.00396797 0.00313206
v -0.00287152 -0.00130683 0.00383400
v -0.00393371 -0.00079184 0.00381938
v -0.00739173 0.00336240 0.03882851
v -0.00753577 0.00381527 0.00417034
v -0.00739859 0.00336240 0.00417034
v -0.00756615 0.00396797 0.00390346
v -0.00325269 -0.00124181 0.03677022
v -0.00400818 -0.00084293 0.00417034
v -0.00351922 -0.00110014 0.00417034
v -0.00322722 -0.00122671 0.00417034
v -0.00295677 -0.00134225 0.00417034
v -0.00323015 -0.00123252 0.00471142
v -0.00243743 -0.00156114 0.00471142
v -0.00719379 0.00282127 0.00417034
v -0.00706053 0.00250891 0.00417034
v -0.00692334 0.00223776 0.00471142
v -0.00665290 0.00176167 0.03774636
v -0.00665290 0.00178721 0.00471142
v -0.00646084 0.00151607 0.00471142
v -0.00598265 0.00089308 0.00471142
v -0.00577394 0.00062252 0.00471142
v -0.00550153 0.00029854 0.00417034
v -0.00517523 0.00002798 0.00417034
v -0.00490478 -0.00018104 0.00417034
v -0.00427961 -0.00065191 0.00417034
v -0.00190241 -0.00171442 0.00417034
v -0.00163098 -0.00178293 0.00417034
v -0.00243743 -0.00154604 0.00417034
v -0.00489302 -0.00017175 0.00388518
v -0.00597188 0.00090643 0.00388518
v -0.00659508 0.00186618 0.00381938
v -0.00714970 0.00396797 0.00332948
v -0.00705269 0.00252342 0.00388152
v -0.00743876 0.00396797 0.00350131
v -0.00691942 0.00223834 0.00417034
v -0.00664800 0.00179070 0.00417034
v -0.00645202 0.00152013 0.00417034
v -0.00598069 0.00089482 0.00417034
v -0.00577198 0.00062426 0.00417034
f 1 2 8
f 1 8 24
f 1 24 23
f 1 23 22
f 1 22 21
f 1 21 20
f 1 20 19
f 1 19 18
f 1 18 45
f 1 45 55
f 1 55 54
f 1 54 28
f 1 28 9
f 1 9 3
f 1 3 13
f 1 13 37
f 1 37 65
f 1 65 98
f 1 98 71
f 1 71 38
f 1 38 14
f 1 14 4
f 1 4 15
f 1 15 41
f 1 41 72
f 1 72 100
f 1 100 139
f 1 139 171
f 1 171 173
f 1 173 145
f 1 145 107
f 1 107 76
f 1 76 43
f 1 43 17
f 1 17 16
f 1 16 5
f 1 5 2
f 2 5 6
f 2 6 7
f 2 7 8
f 3 9 10
f 3 10 11
f 3 11 12
f 3 12 13
f 4 14 15
f 5 16 6
f 6 16 17
f 6 17 7
f 7 18 19
f 7 19 20
f 7 20 21
f 7 21 22
f 7 22 23
f 7 23 24
f 7 24 8
f 7 17 25
f 7 25 26
f 7 26 27
f 7 27 18
f 9 28 10
f 10 29 31
f 10 31 11
f 10 28 54
f 10 54 29
f 11 30 12
f 11 31 59
f 11 59 32
f 11 32 56
f 11 56 30
f 12 30 33
f 12 33 34
f 12 34 35
f 12 35 36
f 12 36 13
f 13 36 35
f 13 35 37
f 14 38 39
f 14 39 40
f 14 40 15
f 15 40 42
f 15 42 41
f 17 43 44
f 17 44 25
f 18 27 46
f 18 46 47
f 18 47 48
f 18 48 49
f 18 49 50
f 18 50 51
f 18 51 45
f 25 44 43
f 25 43 52
f 25 52 26
f 26 52 53
f 26 53 46
f 26 46 27
f 29 54 55
f 29 55 45
f 29 45 31
f 30 56 62
f 30 62 33
f 31 45 57
f 31 57 58
f 31 58 93
f 31 93 59
f 32 59 95
f 32 95 60
f 32 60 61
f 32 61 56
f 33 62 63
f 33 63 34
f 34 63 64
f 34 64 35
f 35 64 65
f 35 65 37
f 38 66 67
f 38 67 68
f 38 68 69
f 38 69 70
f 38 70 39
f 38 71 66
f 39 70 69
f 39 69 40
f 40 69 73
f 40 73 42
f 41 42 72
f 42 73 74
f 42 74 75
f 42 75 72
f 43 76 52
f 45 51 77
f 45 77 78
f 45 78 79
f 45 79 57
f 46 53 52
f 46 52 80
f 46 80 81
f 46 81 82
f 46 82 83
f 46 83 48
f 46 48 47
f 48 83 84
f 48 84 49
f 49 84 85
f 49 85 50
f 50 85 86
f 50 86 77
f 50 77 51
f 52 76 87
f 52 87 80
f 56 61 88
f 56 88 62
f 57 79 89
f 57 89 90
f 57 90 91
f 57 91 92
f 57 92 58
f 58 92 132
f 58 132 93
f 59 93 94
f 59 94 95
f 60 95 73
f 60 73 69
f 60 69 68
f 60 68 67
f 60 67 66
f 60 66 61
f 61 66 88
f 62 88 96
f 62 96 63
f 63 96 97
f 63 97 64
f 64 97 65
f 65 97 98
f 66 71 99
f 66 99 97
f 66 97 96
f 66 96 88
f 71 98 97
f 71 97 99
f 72 75 100
f 73 101 102
f 73 102 103
f 73 103 74
f 73 95 101
f 74 103 102
f 74 102 75
f 75 102 104
f 75 104 105
f 75 105 100
f 76 106 87
f 76 107 106
f 77 108 109
f 77 109 110
f 77 110 78
f 77 86 111
f 77 111 112
f 77 112 108
f 78 110 79
f 79 110 113
f 79 113 90
f 79 90 89
f 80 87 114
f 80 114 115
f 80 115 116
f 80 116 117
f 80 117 81
f 81 117 118
f 81 118 119
f 81 119 82
f 82 119 120
f 82 120 83
f 83 120 121
f 83 121 122
f 83 122 84
f 84 122 123
f 84 123 124
f 84 124 85
f 85 125 86
f 85 124 126
f 85 126 127
f 85 127 128
f 85 128 129
f 85 129 125
f 86 125 129
f 86 129 111
f 87 106 114
f 90 113 130
f 90 130 131
f 90 131 91
f 91 131 132
f 91 132 92
f 93 132 133
f 93 133 94
f 94 133 134
f 94 134 95
f 95 134 135
f 95 135 101
f 100 105 104
f 100 104 136
f 100 136 137
f 100 137 138
f 100 138 139
f 101 135 102
f 102 135 134
f 102 134 140
f 102 140 104
f 104 140 141
f 104 141 136
f 106 142 114
f 106 107 143
f 106 143 144
f 106 144 142
f 107 145 143
f 108 112 109
f 109 146 110
f 109 112 146
f 110 146 113
f 111 129 147
f 111 147 112
f 112 147 148
f 112 148 149
f 112 149 150
f 112 150 151
f 112 151 146
f 113 146 152
f 113 152 130
f 114 142 115
f 115 142 144
f 115 144 153
f 115 153 116
f 116 153 154
f 116 154 155
f 116 155 117
f 117 155 118
f 118 156 119
f 118 155 156
f 119 156 157
f 119 157 158
f 119 158 120
f 120 158 121
f 121 158 159
f 121 159 160
f 121 160 126
f 121 126 122
f 122 126 123
f 123 126 124
f 126 160 178
f 126 178 161
f 126 161 162
f 126 162 127
f 127 162 163
f 127 163 128
f 128 163 129
f 129 163 164
f 129 164 147
f 130 152 165
f 130 165 134
f 130 134 166
f 130 166 131
f 131 166 132
f 132 166 133
f 133 166 134
f 134 165 167
f 134 167 140
f 136 141 137
f 137 141 138
f 138 141 168
f 138 168 161
f 138 161 169
f 138 169 170
f 138 170 139
f 139 170 171
f 140 167 150
f 140 150 149
f 140 149 148
f 140 148 141
f 141 148 147
f 141 147 168
f 143 145 144
f 144 145 172
f 144 172 153
f 145 173 172
f 146 151 152
f 147 164 168
f 150 167 152
f 150 152 151
f 152 167 165
f 153 172 154
f 154 172 174
f 154 174 155
f 155 174 157
f 155 157 156
f 157 174 175
f 157 175 158
f 158 175 176
f 158 176 177
f 158 177 159
f 159 177 178
f 159 178 160
f 161 178 169
f 161 168 162
f 162 168 163
f 163 168 164
f 169 178 177
f 169 177 176
f 169 176 175
f 169 175 170
f 170 175 172
f 170 172 173
f 170 173 171
f 172 175 174

