# https://github.com/mikedh/trimesh
v 0.00243239 0.00396797 -0.00016270
v 0.00241143 0.00396797 0.00033992
v 0.00198572 0.00119693 -0.00016270
v 0.00232572 0.00396797 -0.00070450
v 0.00240858 0.00396797 0.00037813
v 0.00195667 0.00119693 0.00037813
v 0.00180524 0.00072435 -0.00016270
v 0.00174381 0.00075929 -0.00070450
v 0.00186334 0.00119693 -0.00070450
v 0.00179048 0.00073046 0.00037813
v 0.00214858 0.00396797 -0.00124042
v 0.00232810 0.00396797 0.00076170
v 0.00221524 0.00396797 0.00126186
v 0.00171096 0.00080407 0.00082783
v 0.00135381 0.00051232 -0.00016270
v 0.00135381 0.00054726 -0.00070450
v 0.00135381 0.00051876 0.00037813
v 0.00167762 0.00083393 -0.00104545
v 0.00140715 0.00068534 0.00097284
v 0.00188667 0.00396797 -0.00154366
v 0.00162238 0.00119693 0.00118789
v 0.00173858 0.00396797 0.00184628
v 0.00126238 0.00078813 0.00136963
v 0.00081191 0.00050214 -0.00070450
v 0.00081191 0.00050485 0.00091993
v 0.00081191 0.00050214 0.00037813
v 0.00081191 0.00054149 -0.00124581
v 0.00134191 0.00073079 -0.00123406
v 0.00115334 0.00083393 -0.00157893
v 0.00145953 0.00119693 -0.00135162
v 0.00166429 0.00396797 -0.00178076
v 0.00086476 0.00069755 0.00151464
v 0.00135191 0.00119693 0.00145928
v 0.00114857 0.00396797 0.00231118
v 0.00107857 0.00119693 0.00173018
v 0.00071905 0.00082443 0.00179240
v -0.00081191 0.00050214 -0.00070450
v 0.00027048 0.00050485 -0.00124581
v 0.00027048 0.00050214 0.00091993
v 0.00027048 0.00053946 0.00146124
v 0.00027048 0.00071655 -0.00174794
v 0.00081191 0.00075353 -0.00166270
v 0.00081191 0.00119693 -0.00180819
v 0.00134905 0.00396797 -0.00207419
v 0.00027048 0.00075149 0.00185608
v 0.00027048 0.00396797 0.00244736
v 0.00027048 0.00119693 0.00198002
v -0.00135381 0.00051232 -0.00016270
v -0.00135381 0.00054726 -0.00070450
v -0.00081191 0.00054149 -0.00124581
v -0.00027048 0.00050485 -0.00124581
v -0.00081191 0.00050214 0.00037813
v -0.00027048 0.00050214 0.00091993
v -0.00027048 0.00053946 0.00146124
v -0.00027048 0.00071655 -0.00174794
v 0.00027048 0.00119693 -0.00197965
v 0.00024429 0.00396797 -0.00255721
v -0.00027048 0.00075149 0.00185608
v -0.00027048 0.00396797 0.00244736
v -0.00027048 0.00119693 0.00198002
v -0.00180524 0.00072435 -0.00016270
v -0.00081191 0.00050485 0.00091993
v -0.00135381 0.00051876 0.00037813
v -0.00174381 0.00075929 -0.00070450
v -0.00167762 0.00083393 -0.00104545
v -0.00134191 0.00073079 -0.00123406
v -0.00115334 0.00083393 -0.00157893
v -0.00081191 0.00075353 -0.00166270
v -0.00086476 0.00069755 0.00151464
v -0.00027048 0.00119693 -0.00197965
v -0.00024429 0.00396797 -0.00255721
v -0.00071905 0.00082443 0.00179240
v -0.00083191 0.00396797 0.00233714
v -0.00179048 0.00073046 0.00037813
v -0.00198572 0.00119693 -0.00016270
v -0.00140715 0.00068534 0.00097284
v -0.00186334 0.00119693 -0.00070450
v -0.00212620 0.00396797 -0.00148193
v -0.00160286 0.00396797 -0.00203402
v -0.00049762 0.00396797 -0.00255427
v -0.00081191 0.00119693 -0.00180819
v -0.00126238 0.00078813 0.00136963
v -0.00107857 0.00119693 0.00173018
v -0.00135524 0.00396797 0.00200304
v -0.00171096 0.00080407 0.00082783
v -0.00195667 0.00119693 0.00037813
v -0.00240858 0.00396797 0.00037813
v -0.00243239 0.00396797 -0.00016270
v -0.00236001 0.00396797 -0.00058889
v -0.00227048 0.00396797 -0.00102978
v -0.00135191 0.00119693 0.00145928
v -0.00162239 0.00119693 0.00118789
v -0.00189524 0.00396797 0.00148427
v -0.00175429 0.00119693 0.00091699
v -0.00226001 0.00396797 0.00093707
v -0.00191715 0.00396797 0.00146124
f 1 2 3
f 1 3 4
f 1 4 11
f 1 11 20
f 1 20 31
f 1 31 44
f 1 44 57
f 1 57 71
f 1 71 80
f 1 80 79
f 1 79 78
f 1 78 90
f 1 90 89
f 1 89 88
f 1 88 87
f 1 87 95
f 1 95 96
f 1 96 93
f 1 93 84
f 1 84 73
f 1 73 59
f 1 59 46
f 1 46 34
f 1 34 22
f 1 22 13
f 1 13 12
f 1 12 5
f 1 5 2
f 2 5 6
f 2 6 3
f 3 7 8
f 3 8 9
f 3 9 4
f 3 6 10
f 3 10 7
f 4 9 11
f 5 12 6
f 6 12 13
f 6 13 14
f 6 14 10
f 7 15 16
f 7 16 8
f 7 10 17
f 7 17 15
f 8 16 18
f 8 18 9
f 9 18 11
f 10 14 19
f 10 19 17
f 11 18 20
f 13 21 14
f 13 22 21
f 14 21 23
f 14 23 19
f 15 24 16
f 15 17 25
f 15 25 26
f 15 26 24
f 16 24 27
f 16 27 28
f 16 28 18
f 17 19 25
f 18 28 29
f 18 29 30
f 18 30 31
f 18 31 20
f 19 23 32
f 19 32 25
f 21 22 33
f 21 33 23
f 22 34 35
f 22 35 33
f 23 33 35
f 23 35 36
f 23 36 32
f 24 37 51
f 24 51 38
f 24 38 27
f 24 26 39
f 24 39 53
f 24 53 52
f 24 52 37
f 25 39 26
f 25 32 40
f 25 40 39
f 27 38 41
f 27 41 42
f 27 42 29
f 27 29 28
f 29 42 43
f 29 43 44
f 29 44 31
f 29 31 30
f 32 36 45
f 32 45 40
f 34 46 47
f 34 47 36
f 34 36 35
f 36 47 45
f 37 48 49
f 37 49 50
f 37 50 51
f 37 52 48
f 38 51 55
f 38 55 41
f 39 40 54
f 39 54 53
f 40 45 58
f 40 58 54
f 41 55 70
f 41 70 56
f 41 56 42
f 42 56 43
f 43 56 57
f 43 57 44
f 45 47 60
f 45 60 58
f 46 59 60
f 46 60 47
f 48 61 49
f 48 52 62
f 48 62 63
f 48 63 61
f 49 64 65
f 49 65 66
f 49 66 50
f 49 61 64
f 50 66 67
f 50 67 68
f 50 68 55
f 50 55 51
f 52 53 62
f 53 54 62
f 54 58 69
f 54 69 62
f 55 68 70
f 56 70 71
f 56 71 57
f 58 60 72
f 58 72 69
f 59 73 60
f 60 73 72
f 61 63 74
f 61 74 75
f 61 75 64
f 62 76 63
f 62 69 76
f 63 76 74
f 64 75 77
f 64 77 65
f 65 77 78
f 65 78 79
f 65 79 67
f 65 67 66
f 67 79 80
f 67 80 81
f 67 81 68
f 68 81 70
f 69 72 82
f 69 82 76
f 70 81 80
f 70 80 71
f 72 83 82
f 72 73 83
f 73 84 83
f 74 76 85
f 74 85 86
f 74 86 75
f 75 86 87
f 75 87 88
f 75 88 89
f 75 89 90
f 75 90 77
f 76 82 85
f 77 90 78
f 82 91 92
f 82 92 85
f 82 83 91
f 83 84 93
f 83 93 91
f 85 94 86
f 85 92 94
f 86 94 95
f 86 95 87
f 91 93 92
f 92 95 94
f 92 93 96
f 92 96 95

