# https://github.com/mikedh/trimesh
v 0.00243652 -0.00156794 0.03557901
v 0.00297858 -0.00135227 0.03665951
v 0.00243652 -0.00156794 0.03611926
v 0.00243652 -0.00156144 0.00471336
v 0.00243709 -0.00156307 0.03665951
v 0.00315900 -0.00128020 0.03647198
v 0.00315900 -0.00128020 0.03665951
v 0.00315900 -0.00127966 0.03684257
v 0.00243652 -0.00156307 0.03665951
v 0.00243652 -0.00154573 0.00417311
v 0.00243709 -0.00154627 0.00417311
v 0.00295672 -0.00134252 0.00417311
v 0.00315900 -0.00126232 0.00471336
v 0.00243709 -0.00106995 0.04370061
v 0.00315900 -0.00126015 0.03696312
v 0.00287029 -0.00087054 0.04370061
v 0.00243652 -0.00106995 0.04370061
v 0.00243652 -0.00138587 0.00378913
v 0.00287164 -0.00130676 0.00383378
v 0.00315900 -0.00125582 0.00417311
v 0.00281237 -0.00079467 0.04424532
v 0.00243709 -0.00096320 0.04424532
v 0.00315900 -0.00107212 0.03774447
v 0.00304110 -0.00042782 0.04370061
v 0.00298317 -0.00042782 0.04424532
v 0.00243652 -0.00096374 0.04424086
v 0.00243652 -0.00096916 0.00366411
v 0.00243709 -0.00096916 0.00366411
v 0.00315900 -0.00098271 0.00376681
v 0.00285997 -0.00043811 0.04475878
v 0.00281081 -0.00026471 0.04521867
v 0.00274461 -0.00072423 0.04456233
v 0.00243709 -0.00078709 0.04467842
v 0.00243652 -0.00078709 0.04467842
v 0.00315900 -0.00093014 0.03830258
v 0.00304117 0.00011407 0.04478557
v 0.00315900 -0.00072477 0.03876693
v 0.00299166 0.00065542 0.04586607
v 0.00290615 0.00006747 0.04537047
v 0.00243652 0.00396797 0.00288723
v 0.00315900 0.00396797 0.00288276
v 0.00315900 -0.00042782 0.00365518
v 0.00282100 0.00023600 0.04586607
v 0.00274496 0.00035413 0.04617415
v 0.00267707 -0.00014387 0.04558032
v 0.00243652 -0.00064024 0.04495077
v 0.00304923 0.00065542 0.04532582
v 0.00315900 -0.00031023 0.03925360
v 0.00304895 0.00173810 0.04641079
v 0.00304145 0.00227945 0.04695104
v 0.00297971 0.00119676 0.04641079
v 0.00281109 0.00069660 0.04637507
v 0.00243652 0.00396797 0.04810744
v 0.00315900 0.00396797 0.04007960
v 0.00243652 -0.00001544 0.04587054
v 0.00247281 -0.00001111 0.04585714
v 0.00272912 0.00090523 0.04669654
v 0.00243652 0.00055842 0.04651794
v 0.00243709 0.00028639 0.04624559
v 0.00243652 -0.00005771 0.04581696
v 0.00243652 -0.00018993 0.04564283
v 0.00243652 -0.00032594 0.04544191
v 0.00243652 -0.00039747 0.04533475
v 0.00247281 -0.00036008 0.04537047
v 0.00315900 0.00073561 0.03985636
v 0.00304570 0.00336268 0.04749129
v 0.00299753 0.00282134 0.04749129
v 0.00290658 0.00169584 0.04699568
v 0.00280904 0.00119676 0.04681709
v 0.00243652 0.00396743 0.04849588
v 0.00243709 0.00396797 0.04849142
v 0.00304831 0.00396797 0.04749129
v 0.00315900 0.00336051 0.04009746
v 0.00243652 0.00028639 0.04624559
v 0.00281166 0.00184811 0.04733948
v 0.00267876 0.00148667 0.04720553
v 0.00247380 0.00119622 0.04706712
v 0.00243652 0.00082936 0.04676798
v 0.00315900 0.00120814 0.03999477
v 0.00304831 0.00390402 0.04749129
v 0.00294159 0.00396797 0.04803600
v 0.00293345 0.00390402 0.04803600
v 0.00282715 0.00282134 0.04788419
v 0.00286782 0.00229083 0.04750914
v 0.00243652 0.00390348 0.04847802
v 0.00243709 0.00390402 0.04847802
v 0.00271186 0.00362604 0.04830836
v 0.00276321 0.00390402 0.04834854
v 0.00277142 0.00396797 0.04835301
v 0.00315900 0.00282134 0.04009300
v 0.00275706 0.00247886 0.04779936
v 0.00243652 0.00141243 0.04726358
v 0.00243652 0.00123849 0.04712070
v 0.00253540 0.00211797 0.04770113
v 0.00243652 0.00177983 0.04751807
v 0.00315900 0.00175219 0.04006174
v 0.00284427 0.00341253 0.04805386
v 0.00243652 0.00349490 0.04835301
v 0.00243709 0.00349544 0.04835301
v 0.00243652 0.00322396 0.04825924
v 0.00243709 0.00322450 0.04825924
v 0.00243652 0.00281537 0.04809404
v 0.00243652 0.00231576 0.04784401
v 0.00243652 0.00208708 0.04771899
v 0.00243652 0.00223393 0.04779936
f 1 2 3
f 1 3 9
f 1 9 17
f 1 17 26
f 1 26 34
f 1 34 46
f 1 46 63
f 1 63 62
f 1 62 61
f 1 61 60
f 1 60 55
f 1 55 74
f 1 74 58
f 1 58 78
f 1 78 93
f 1 93 92
f 1 92 95
f 1 95 104
f 1 104 105
f 1 105 103
f 1 103 102
f 1 102 100
f 1 100 98
f 1 98 85
f 1 85 70
f 1 70 53
f 1 53 40
f 1 40 27
f 1 27 18
f 1 18 10
f 1 10 4
f 1 4 2
f 2 5 3
f 2 4 6
f 2 6 7
f 2 7 8
f 2 8 5
f 3 5 9
f 4 10 11
f 4 11 12
f 4 12 13
f 4 13 6
f 5 8 14
f 5 14 17
f 5 17 9
f 6 13 20
f 6 20 29
f 6 29 42
f 6 42 41
f 6 41 54
f 6 54 73
f 6 73 90
f 6 90 96
f 6 96 79
f 6 79 65
f 6 65 48
f 6 48 37
f 6 37 35
f 6 35 23
f 6 23 15
f 6 15 8
f 6 8 7
f 8 15 16
f 8 16 14
f 10 18 11
f 11 18 19
f 11 19 12
f 12 19 20
f 12 20 13
f 14 16 21
f 14 21 22
f 14 22 17
f 15 23 24
f 15 24 16
f 16 24 25
f 16 25 21
f 17 22 26
f 18 27 28
f 18 28 29
f 18 29 19
f 19 29 20
f 21 25 30
f 21 30 31
f 21 31 32
f 21 32 22
f 22 32 33
f 22 33 34
f 22 34 26
f 23 35 24
f 24 36 25
f 24 35 37
f 24 37 36
f 25 36 38
f 25 38 39
f 25 39 30
f 27 40 41
f 27 41 28
f 28 41 42
f 28 42 29
f 30 39 31
f 31 39 43
f 31 43 44
f 31 44 45
f 31 45 32
f 32 45 46
f 32 46 33
f 33 46 34
f 36 47 38
f 36 37 47
f 37 48 47
f 38 43 39
f 38 47 49
f 38 49 50
f 38 50 51
f 38 51 52
f 38 52 43
f 40 53 71
f 40 71 89
f 40 89 81
f 40 81 72
f 40 72 54
f 40 54 41
f 43 52 44
f 44 55 56
f 44 56 45
f 44 52 57
f 44 57 58
f 44 58 59
f 44 59 55
f 45 56 60
f 45 60 61
f 45 61 62
f 45 62 63
f 45 63 64
f 45 64 46
f 46 64 63
f 47 48 49
f 48 65 49
f 49 66 50
f 49 65 66
f 50 66 67
f 50 67 51
f 51 67 68
f 51 68 69
f 51 69 52
f 52 69 57
f 53 70 71
f 54 72 73
f 55 59 74
f 55 60 56
f 57 69 75
f 57 75 76
f 57 76 77
f 57 77 78
f 57 78 58
f 58 74 59
f 65 79 66
f 66 80 81
f 66 81 67
f 66 79 80
f 67 81 82
f 67 82 83
f 67 83 84
f 67 84 68
f 68 84 75
f 68 75 69
f 70 85 86
f 70 86 87
f 70 87 88
f 70 88 89
f 70 89 71
f 72 81 80
f 72 80 73
f 73 80 90
f 75 84 91
f 75 91 76
f 76 92 93
f 76 93 77
f 76 91 94
f 76 94 95
f 76 95 92
f 77 93 78
f 79 96 80
f 80 96 90
f 81 89 82
f 82 89 97
f 82 97 83
f 83 91 84
f 83 97 88
f 83 88 87
f 83 87 91
f 85 98 99
f 85 99 86
f 86 99 87
f 87 99 98
f 87 98 100
f 87 100 101
f 87 101 102
f 87 102 91
f 88 97 89
f 91 102 103
f 91 103 94
f 94 104 95
f 94 103 105
f 94 105 104
f 100 102 101

