# https://github.com/mikedh/trimesh
v 0.00315907 -0.00128063 0.03665933
v 0.00325508 -0.00124081 0.03665933
v 0.00325326 -0.00124081 0.03693601
v 0.00315907 -0.00127926 0.03683753
v 0.00315907 -0.00126141 0.00471536
v 0.00352588 -0.00112410 0.03665933
v 0.00323153 -0.00123120 0.00471536
v 0.00352090 -0.00111037 0.00471536
v 0.00315907 -0.00126003 0.03696414
v 0.00404304 -0.00085499 0.03774258
v 0.00352090 -0.00104309 0.03774258
v 0.00315907 -0.00125592 0.00417609
v 0.00404304 -0.00085499 0.03719861
v 0.00401315 -0.00084675 0.00471536
v 0.00352090 -0.00109939 0.00417609
v 0.00400952 -0.00084263 0.00417609
v 0.00315907 -0.00107193 0.03774258
v 0.00431429 -0.00068610 0.03774258
v 0.00460412 -0.00045543 0.03828654
v 0.00395926 -0.00080281 0.03817869
v 0.00315907 -0.00092913 0.03830061
v 0.00315907 -0.00098131 0.00376811
v 0.00352090 -0.00089343 0.00378218
v 0.00393435 -0.00079183 0.00381969
v 0.00428395 -0.00066001 0.00471536
v 0.00428033 -0.00065178 0.00417609
v 0.00489394 -0.00017121 0.00388535
v 0.00460412 -0.00046916 0.03774258
v 0.00494194 -0.00021240 0.03828654
v 0.00492021 -0.00019318 0.03863356
v 0.00460412 -0.00029890 0.03871328
v 0.00315907 -0.00072455 0.03876017
v 0.00315907 -0.00042660 0.00365557
v 0.00352135 0.00661163 -0.00513231
v 0.00352135 0.00614205 -0.00493536
v 0.00352135 0.00587156 -0.00468682
v 0.00352135 0.00480333 -0.00359420
v 0.00352135 0.00453970 -0.00331752
v 0.00352135 0.00426921 -0.00297051
v 0.00409964 0.00431727 -0.00284859
v 0.00430524 0.00418271 -0.00257191
v 0.00479794 0.00529625 -0.00363171
v 0.00544008 0.00578231 -0.00369736
v 0.00490572 -0.00017945 0.00417609
v 0.00517878 0.00002651 0.00471536
v 0.00547178 0.00032858 0.00385252
v 0.00550121 0.00029974 0.00417609
v 0.00517652 0.00002925 0.00417609
v 0.00564386 0.00609262 -0.00391307
v 0.00601701 0.00627111 -0.00375832
v 0.00550303 0.00029700 0.00471536
v 0.00521275 0.00001964 0.03828654
v 0.00550801 0.00029562 0.03882582
v 0.00547585 0.00032858 0.03915408
v 0.00315907 -0.00030989 0.03925255
v 0.00315907 0.00396852 0.00288651
v 0.00352135 0.00715261 -0.00516045
v 0.00406206 0.00661163 -0.00501039
v 0.00448909 0.00627111 -0.00481812
v 0.00406206 0.00620521 -0.00486970
v 0.00406206 0.00593472 -0.00462117
v 0.00406206 0.00567109 -0.00435387
v 0.00406206 0.00540060 -0.00407251
v 0.00406206 0.00461797 -0.00324249
v 0.00438494 0.00468387 -0.00317684
v 0.00484549 0.00581252 -0.00420850
v 0.00514573 0.00589490 -0.00409127
v 0.00548763 0.00627661 -0.00428822
v 0.00514573 0.00568070 -0.00382397
v 0.00597173 0.00090663 0.00388535
v 0.00577202 0.00062516 0.00417609
v 0.00580598 0.00661163 -0.00407720
v 0.00605777 0.00661163 -0.00380522
v 0.00629506 0.00661163 -0.00341131
v 0.00653417 0.00629308 -0.00270322
v 0.00611573 0.00617363 -0.00341131
v 0.00577383 0.00062241 0.00471536
v 0.00601520 0.00085445 0.03882582
v 0.00577881 0.00058396 0.03882582
v 0.00551027 0.00029013 0.03828654
v 0.00599663 0.00087780 0.03919628
v 0.00568598 0.00102059 0.03956205
v 0.00514527 0.00025993 0.03918690
v 0.00660074 0.00184991 0.03972618
v 0.00609852 0.00135836 0.03968397
v 0.00315907 0.00073637 0.03985748
v 0.00352135 0.01274090 -0.00448987
v 0.00352135 0.01273952 -0.00452269
v 0.00352135 0.01256240 -0.00493536
v 0.00352135 0.01202691 -0.00517920
v 0.00352135 0.01148456 -0.00518389
v 0.00315907 0.00396852 0.04007788
v 0.00352135 0.01274639 0.04099231
v 0.00406206 0.00715398 -0.00502914
v 0.00458419 0.00661163 -0.00485564
v 0.00514573 0.00616676 -0.00439139
v 0.00466752 0.00604181 -0.00452269
v 0.00448411 0.00573425 -0.00428822
v 0.00485500 0.00661163 -0.00475247
v 0.00553563 0.00661163 -0.00432574
v 0.00514573 0.00661163 -0.00458834
v 0.00664783 0.00179087 0.00417609
v 0.00645175 0.00152038 0.00417609
v 0.00598078 0.00089564 0.00417609
v 0.00659575 0.00186639 0.00381969
v 0.00581957 0.00715398 -0.00409127
v 0.00606909 0.00715398 -0.00381929
v 0.00631861 0.00715398 -0.00341131
v 0.00647756 0.00715398 -0.00307837
v 0.00646533 0.00661163 -0.00305023
v 0.00655862 0.00661163 -0.00278293
v 0.00759112 0.00738877 0.00007758
v 0.00762554 0.00679562 0.00055589
v 0.00763550 0.00626013 0.00109986
v 0.00763233 0.00573837 0.00166259
v 0.00758704 0.00416486 0.00335076
v 0.00705313 0.00252408 0.00388535
v 0.00646080 0.00151763 0.00471536
v 0.00627514 0.00119771 0.03882582
v 0.00646443 0.00149017 0.03936510
v 0.00625838 0.00169613 0.03977307
v 0.00665327 0.00176204 0.03936510
v 0.00705177 0.00252682 0.03966053
v 0.00711517 0.00282203 0.03974025
v 0.00651922 0.00956230 0.04236160
v 0.00568598 0.00986025 0.04253042
v 0.00352135 0.00986025 0.04257731
v 0.00315907 0.00120870 0.03998878
v 0.00355396 0.01272442 -0.00448987
v 0.00404349 0.01245393 -0.00448987
v 0.00395835 0.01240176 -0.00486970
v 0.00406206 0.01148456 -0.00504321
v 0.00410825 0.01207085 -0.00494473
v 0.00449498 0.01191844 -0.00483219
v 0.00464714 0.01145847 -0.00485095
v 0.00406206 0.01094358 -0.00504321
v 0.00406206 0.00823731 -0.00503383
v 0.00315907 0.00336026 0.04009664
v 0.00352135 0.01094358 0.04268986
v 0.00352135 0.01148456 0.04262421
v 0.00352135 0.01190334 0.04245539
v 0.00352135 0.01217383 0.04225375
v 0.00352135 0.01245119 0.04198176
v 0.00352135 0.01268186 0.04150345
v 0.00403760 0.01244707 0.04153627
v 0.00356528 0.01272305 0.04099231
v 0.00460366 0.00823731 -0.00486970
v 0.00465665 0.00720066 -0.00484626
v 0.00487266 0.00705238 -0.00476185
v 0.00554922 0.00715398 -0.00433981
v 0.00509138 0.00720066 -0.00463993
v 0.00691864 0.00223848 0.00417609
v 0.00665055 0.00178812 0.00471536
v 0.00556235 0.00931927 -0.00434918
v 0.00582953 0.00877692 -0.00409127
v 0.00607090 0.00823731 -0.00382397
v 0.00633038 0.00877692 -0.00341131
v 0.00632767 0.00823731 -0.00341131
v 0.00632359 0.00769496 -0.00341131
v 0.00648798 0.00931927 -0.00311588
v 0.00648435 0.00823731 -0.00309712
v 0.00661387 0.00931927 -0.00284390
v 0.00708393 0.00877692 -0.00162935
v 0.00708710 0.00844602 -0.00157777
v 0.00759112 0.00746566 0.00007758
v 0.00773513 0.00661163 0.00146563
v 0.00766765 0.00661437 0.00092166
v 0.00768033 0.00607614 0.00147970
v 0.00767263 0.00554752 0.00203773
v 0.00775913 0.00552967 0.00255356
v 0.00771792 0.00498869 0.00309284
v 0.00766358 0.00444771 0.00363212
v 0.00759565 0.00412642 0.00363212
v 0.00739866 0.00336301 0.00417609
v 0.00719397 0.00282203 0.00417609
v 0.00706038 0.00250897 0.00417609
v 0.00648707 0.00148468 0.03882582
v 0.00665372 0.00175517 0.03882582
v 0.00692362 0.00224672 0.03936510
v 0.00759474 0.00412367 0.03966053
v 0.00705540 0.00251721 0.03936510
v 0.00718763 0.00282203 0.03936510
v 0.00739141 0.00336301 0.03936510
v 0.00721480 0.00336301 0.03981997
v 0.00651922 0.00970510 0.04236160
v 0.00568598 0.01040260 0.04264296
v 0.00758206 0.00742447 0.04072501
v 0.00514573 0.01040260 0.04269455
v 0.00460366 0.01040260 0.04268986
v 0.00352135 0.01040260 0.04268048
v 0.00315907 0.00175380 0.04005912
v 0.00431565 0.01228642 0.00309284
v 0.00431565 0.01228642 -0.00394590
v 0.00431429 0.01227955 -0.00448987
v 0.00403217 0.01245119 0.04099231
v 0.00464714 0.01198160 -0.00452269
v 0.00460366 0.01094358 -0.00486970
v 0.00485636 0.01162187 -0.00472902
v 0.00488036 0.01126076 -0.00476654
v 0.00315907 0.00282203 0.04008726
v 0.00460366 0.01094358 0.04272268
v 0.00460366 0.01148456 0.04259607
v 0.00406206 0.01189236 0.04243194
v 0.00460366 0.01184842 0.04241788
v 0.00395745 0.01239489 0.04192549
v 0.00430841 0.01228230 0.04153627
v 0.00491704 0.01178938 0.04238036
v 0.00488353 0.00986025 -0.00476654
v 0.00488307 0.00931927 -0.00476654
v 0.00488126 0.00877692 -0.00476654
v 0.00487628 0.00769496 -0.00476654
v 0.00514980 0.00823731 -0.00461648
v 0.00692181 0.00223986 0.00471536
v 0.00556371 0.01040260 -0.00434918
v 0.00583361 0.00986025 -0.00409127
v 0.00583225 0.00931927 -0.00409127
v 0.00515207 0.00877692 -0.00461648
v 0.00515388 0.00931927 -0.00461648
v 0.00607090 0.00877692 -0.00382397
v 0.00633129 0.00931927 -0.00341131
v 0.00632676 0.00986025 -0.00341131
v 0.00659077 0.00975727 -0.00276887
v 0.00681765 0.00931927 -0.00232338
v 0.00705132 0.00907075 -0.00161059
v 0.00752953 0.00775537 0.00038708
v 0.00759610 0.00748488 0.00038708
v 0.00766312 0.00715398 0.00092166
v 0.00715638 0.00877692 -0.00124482
v 0.00738100 0.00823731 -0.00015689
v 0.00773784 0.00661163 0.00200491
v 0.00777679 0.00607065 0.00255356
v 0.00776230 0.00607065 0.00200491
v 0.00778539 0.00552967 0.00309284
v 0.00774599 0.00498869 0.00363212
v 0.00766765 0.00444771 0.00417140
v 0.00760018 0.00409758 0.00417140
v 0.00756984 0.00396852 0.00417609
v 0.00753542 0.00382572 0.00417609
v 0.00753270 0.00382847 0.03882582
v 0.00739232 0.00336301 0.03882582
v 0.00762554 0.00444771 0.03969804
v 0.00756123 0.00396852 0.03951047
v 0.00760108 0.00409758 0.03936979
v 0.00766765 0.00444771 0.03936979
v 0.00774237 0.00498869 0.03936979
v 0.00752999 0.00382572 0.03936510
v 0.00599799 0.01072252 0.04240850
v 0.00611256 0.01040260 0.04246946
v 0.00711246 0.00877692 0.04144718
v 0.00693947 0.00927808 0.04155503
v 0.00659077 0.00980121 0.04207555
v 0.00648073 0.01007307 0.04207555
v 0.00514573 0.01094358 0.04268986
v 0.00566968 0.01092024 0.04250697
v 0.00766358 0.00498869 0.03974494
v 0.00778268 0.00552967 0.03936979
v 0.00771475 0.00661163 0.03990906
v 0.00766675 0.00715398 0.03990906
v 0.00759021 0.00746154 0.04045303
v 0.00753180 0.00773203 0.04045303
v 0.00718582 0.00877692 0.04099231
v 0.00705132 0.00907075 0.04138622
v 0.00460366 0.01207497 -0.00394590
v 0.00460366 0.01206811 0.04153627
v 0.00494557 0.01181409 -0.00394590
v 0.00492202 0.01179487 -0.00436794
v 0.00547314 0.01127723 -0.00428822
v 0.00488353 0.01094358 -0.00476654
v 0.00553337 0.01094358 -0.00433512
v 0.00515388 0.01094358 -0.00460710
v 0.00515388 0.01040260 -0.00461648
v 0.00511674 0.01146946 0.04248822
v 0.00494240 0.01181135 0.04207555
v 0.00547902 0.01127861 0.04242256
v 0.00521320 0.01158067 0.04207555
v 0.00583451 0.01040260 -0.00407251
v 0.00606999 0.00986025 -0.00382397
v 0.00619996 0.01040260 -0.00341131
v 0.00604282 0.01040260 -0.00379584
v 0.00599573 0.01072252 -0.00374426
v 0.00664376 0.00983965 -0.00232338
v 0.00692181 0.00935360 -0.00124482
v 0.00705676 0.00908311 -0.00124482
v 0.00718491 0.00877692 -0.00070086
v 0.00738417 0.00823731 0.00038708
v 0.00753180 0.00776636 0.03720330
v 0.00759882 0.00749587 0.03720330
v 0.00766403 0.00715398 0.00146563
v 0.00773694 0.00661163 0.03936979
v 0.00777951 0.00607065 0.03936979
v 0.00778539 0.00552967 0.00742582
v 0.00756848 0.00396852 0.03910718
v 0.00627106 0.01040260 0.04207555
v 0.00601792 0.01074724 0.04207555
v 0.00578108 0.01101773 0.04207555
v 0.00551072 0.01131019 0.04207555
v 0.00692271 0.00935360 0.04099231
v 0.00665191 0.00983554 0.04153627
v 0.00648118 0.01010603 0.04153627
v 0.00759882 0.00749587 0.03990906
v 0.00739005 0.00823731 0.04045303
v 0.00753180 0.00776636 0.03990906
v 0.00718627 0.00877692 0.04045303
v 0.00705676 0.00908311 0.04099231
v 0.00494602 0.01181409 0.04153627
v 0.00521637 0.01158067 -0.00394590
v 0.00550620 0.01131019 -0.00394590
v 0.00521637 0.01158067 0.04153627
v 0.00601701 0.01074724 -0.00341131
v 0.00627423 0.01040260 -0.00286734
v 0.00648481 0.01011014 -0.00232338
v 0.00665100 0.00983691 -0.00177941
v 0.00692271 0.00935360 0.03936979
v 0.00627559 0.01040260 -0.00232338
v 0.00601882 0.01074724 -0.00286734
v 0.00578062 0.01101910 -0.00232338
v 0.00578062 0.01101910 -0.00341131
v 0.00551027 0.01131019 -0.00341131
f 1 2 3
f 1 3 4
f 1 4 9
f 1 9 17
f 1 17 21
f 1 21 32
f 1 32 55
f 1 55 86
f 1 86 128
f 1 128 191
f 1 191 200
f 1 200 138
f 1 138 92
f 1 92 56
f 1 56 33
f 1 33 22
f 1 22 12
f 1 12 5
f 1 5 2
f 2 6 3
f 2 5 7
f 2 7 8
f 2 8 6
f 3 9 4
f 3 6 10
f 3 10 11
f 3 11 9
f 5 12 7
f 6 13 10
f 6 8 13
f 7 12 8
f 8 14 13
f 8 12 15
f 8 15 16
f 8 16 14
f 9 11 17
f 10 18 19
f 10 19 20
f 10 20 11
f 10 13 18
f 11 20 21
f 11 21 17
f 12 22 23
f 12 23 24
f 12 24 15
f 13 14 18
f 14 16 25
f 14 25 18
f 15 24 16
f 16 26 25
f 16 24 27
f 16 27 26
f 18 28 29
f 18 29 19
f 18 25 28
f 19 29 30
f 19 30 20
f 20 30 31
f 20 31 32
f 20 32 21
f 22 33 34
f 22 34 35
f 22 35 36
f 22 36 37
f 22 37 38
f 22 38 39
f 22 39 40
f 22 40 23
f 23 40 24
f 24 40 41
f 24 41 42
f 24 42 43
f 24 43 27
f 25 26 44
f 25 44 45
f 25 45 29
f 25 29 28
f 26 27 44
f 27 46 47
f 27 47 48
f 27 48 44
f 27 43 49
f 27 49 50
f 27 50 46
f 29 45 51
f 29 51 52
f 29 52 53
f 29 53 30
f 30 53 54
f 30 54 31
f 31 54 32
f 32 54 55
f 33 56 34
f 34 57 58
f 34 58 59
f 34 59 60
f 34 60 35
f 34 56 57
f 35 60 61
f 35 61 36
f 36 61 62
f 36 62 37
f 37 62 63
f 37 63 38
f 38 64 40
f 38 40 39
f 38 63 64
f 40 64 65
f 40 65 41
f 41 65 42
f 42 66 67
f 42 67 68
f 42 68 69
f 42 69 43
f 42 65 66
f 43 69 68
f 43 68 49
f 44 48 45
f 45 48 47
f 45 47 51
f 46 70 47
f 46 50 70
f 47 70 71
f 47 71 77
f 47 77 51
f 49 68 50
f 50 68 72
f 50 72 73
f 50 73 74
f 50 74 75
f 50 75 76
f 50 76 70
f 51 77 78
f 51 78 79
f 51 79 80
f 51 80 52
f 52 80 53
f 53 80 79
f 53 79 81
f 53 81 54
f 54 82 83
f 54 83 55
f 54 81 84
f 54 84 85
f 54 85 82
f 55 83 82
f 55 82 85
f 55 85 86
f 56 87 88
f 56 88 89
f 56 89 90
f 56 90 91
f 56 91 57
f 56 92 93
f 56 93 87
f 57 91 94
f 57 94 58
f 58 94 95
f 58 95 59
f 59 96 97
f 59 97 98
f 59 98 61
f 59 61 60
f 59 95 99
f 59 99 68
f 59 68 96
f 61 98 62
f 62 98 63
f 63 98 64
f 64 98 65
f 65 98 66
f 66 98 97
f 66 97 96
f 66 96 68
f 66 68 67
f 68 100 72
f 68 99 101
f 68 101 100
f 70 102 103
f 70 103 104
f 70 104 71
f 70 76 75
f 70 75 105
f 70 105 102
f 71 104 77
f 72 100 150
f 72 150 106
f 72 106 73
f 73 107 108
f 73 108 74
f 73 106 107
f 74 108 109
f 74 109 110
f 74 110 75
f 75 110 111
f 75 111 112
f 75 112 113
f 75 113 114
f 75 114 115
f 75 115 116
f 75 116 117
f 75 117 105
f 77 104 118
f 77 118 78
f 78 119 120
f 78 120 81
f 78 81 79
f 78 118 119
f 81 120 84
f 84 121 85
f 84 120 122
f 84 122 123
f 84 123 124
f 84 124 125
f 84 125 121
f 85 121 125
f 85 125 86
f 86 125 126
f 86 126 127
f 86 127 128
f 87 129 88
f 87 93 129
f 88 129 130
f 88 130 131
f 88 131 89
f 89 131 90
f 90 132 91
f 90 131 133
f 90 133 134
f 90 134 135
f 90 135 132
f 91 132 136
f 91 136 137
f 91 137 94
f 92 138 139
f 92 139 140
f 92 140 141
f 92 141 142
f 92 142 143
f 92 143 144
f 92 144 93
f 93 144 145
f 93 145 146
f 93 146 129
f 94 137 147
f 94 147 148
f 94 148 95
f 95 148 149
f 95 149 99
f 99 149 101
f 100 101 150
f 101 149 151
f 101 151 150
f 102 152 153
f 102 153 118
f 102 118 103
f 102 105 117
f 102 117 152
f 103 118 104
f 106 150 154
f 106 154 155
f 106 155 107
f 107 156 157
f 107 157 158
f 107 158 159
f 107 159 108
f 107 155 156
f 108 159 160
f 108 160 161
f 108 161 109
f 109 161 162
f 109 162 163
f 109 163 110
f 110 163 164
f 110 164 111
f 111 164 112
f 112 165 166
f 112 166 167
f 112 167 113
f 112 164 163
f 112 163 165
f 113 167 168
f 113 168 114
f 114 168 115
f 115 168 169
f 115 169 116
f 116 169 170
f 116 170 171
f 116 171 172
f 116 172 173
f 116 173 174
f 116 174 117
f 117 174 175
f 117 175 176
f 117 176 152
f 118 153 177
f 118 177 119
f 119 177 120
f 120 177 122
f 122 177 178
f 122 178 179
f 122 179 123
f 123 180 124
f 123 179 181
f 123 181 182
f 123 182 183
f 123 183 180
f 124 180 184
f 124 184 125
f 125 185 186
f 125 186 126
f 125 184 187
f 125 187 185
f 126 186 188
f 126 188 127
f 127 188 189
f 127 189 190
f 127 190 128
f 128 190 191
f 129 146 130
f 130 192 193
f 130 193 194
f 130 194 131
f 130 146 195
f 130 195 192
f 131 134 133
f 131 194 196
f 131 196 134
f 132 135 197
f 132 197 147
f 132 147 136
f 134 196 198
f 134 198 135
f 135 198 199
f 135 199 197
f 136 147 137
f 138 200 190
f 138 190 139
f 139 190 201
f 139 201 140
f 140 201 202
f 140 202 141
f 141 203 142
f 141 202 203
f 142 203 204
f 142 204 143
f 143 205 144
f 143 204 205
f 144 205 145
f 145 206 195
f 145 195 146
f 145 205 207
f 145 207 206
f 147 197 268
f 147 268 208
f 147 208 209
f 147 209 210
f 147 210 211
f 147 211 148
f 148 211 149
f 149 211 151
f 150 151 212
f 150 212 154
f 151 211 212
f 152 176 213
f 152 213 153
f 153 213 178
f 153 178 177
f 154 214 215
f 154 215 216
f 154 216 155
f 154 212 217
f 154 217 218
f 154 218 214
f 155 216 156
f 156 219 220
f 156 220 157
f 156 216 215
f 156 215 219
f 157 220 160
f 157 160 158
f 158 160 159
f 160 220 221
f 160 221 162
f 160 162 161
f 162 221 222
f 162 222 223
f 162 223 163
f 163 223 224
f 163 224 165
f 165 225 226
f 165 226 227
f 165 227 166
f 165 224 228
f 165 228 229
f 165 229 225
f 166 227 230
f 166 230 231
f 166 231 232
f 166 232 167
f 167 232 168
f 168 232 170
f 168 170 169
f 170 232 233
f 170 233 234
f 170 234 171
f 171 234 172
f 172 234 235
f 172 235 236
f 172 236 173
f 173 236 237
f 173 237 238
f 173 238 174
f 174 238 239
f 174 239 240
f 174 240 182
f 174 182 175
f 175 182 176
f 176 182 181
f 176 181 179
f 176 179 213
f 178 213 179
f 180 241 187
f 180 187 184
f 180 183 242
f 180 242 243
f 180 243 244
f 180 244 245
f 180 245 241
f 182 240 183
f 183 246 242
f 183 240 239
f 183 239 246
f 185 247 248
f 185 248 186
f 185 187 249
f 185 249 250
f 185 250 251
f 185 251 252
f 185 252 247
f 186 253 188
f 186 248 254
f 186 254 253
f 187 241 255
f 187 255 256
f 187 256 257
f 187 257 258
f 187 258 259
f 187 259 260
f 187 260 261
f 187 261 262
f 187 262 249
f 188 253 201
f 188 201 189
f 189 201 190
f 190 200 191
f 192 263 193
f 192 195 206
f 192 206 264
f 192 264 263
f 193 263 194
f 194 263 265
f 194 265 266
f 194 266 196
f 196 266 267
f 196 267 198
f 197 199 268
f 198 267 269
f 198 269 199
f 199 269 270
f 199 270 271
f 199 271 268
f 201 253 202
f 202 272 207
f 202 207 204
f 202 204 203
f 202 253 272
f 204 207 205
f 206 207 273
f 206 273 264
f 207 272 274
f 207 274 275
f 207 275 273
f 208 268 271
f 208 271 218
f 208 218 209
f 209 218 217
f 209 217 210
f 210 217 212
f 210 212 211
f 214 269 276
f 214 276 215
f 214 218 271
f 214 271 270
f 214 270 269
f 215 276 277
f 215 277 219
f 219 277 220
f 220 277 221
f 221 278 222
f 221 277 279
f 221 279 280
f 221 280 278
f 222 281 224
f 222 224 223
f 222 278 281
f 224 282 283
f 224 283 284
f 224 284 229
f 224 229 228
f 224 281 282
f 225 229 285
f 225 285 286
f 225 286 287
f 225 287 226
f 226 287 288
f 226 288 227
f 227 288 230
f 229 284 285
f 230 288 258
f 230 258 289
f 230 289 290
f 230 290 231
f 231 233 232
f 231 290 233
f 233 290 291
f 233 291 234
f 234 291 256
f 234 256 245
f 234 245 244
f 234 244 235
f 235 244 243
f 235 243 236
f 236 243 237
f 237 243 238
f 238 243 292
f 238 292 239
f 239 292 246
f 241 245 255
f 242 246 243
f 243 246 292
f 245 256 255
f 247 274 254
f 247 254 248
f 247 252 293
f 247 293 294
f 247 294 295
f 247 295 296
f 247 296 274
f 249 262 250
f 250 252 251
f 250 262 297
f 250 297 298
f 250 298 252
f 252 298 299
f 252 299 293
f 253 254 272
f 254 274 272
f 256 291 290
f 256 290 257
f 257 290 289
f 257 289 258
f 258 287 300
f 258 300 259
f 258 288 287
f 259 300 260
f 260 301 261
f 260 300 302
f 260 302 301
f 261 301 303
f 261 303 304
f 261 304 262
f 262 304 297
f 263 264 305
f 263 305 265
f 264 273 305
f 265 306 266
f 265 305 306
f 266 306 307
f 266 307 267
f 267 307 280
f 267 280 269
f 269 280 279
f 269 279 276
f 273 275 305
f 274 296 275
f 275 296 308
f 275 308 305
f 276 279 277
f 278 280 281
f 280 307 309
f 280 309 310
f 280 310 281
f 281 310 311
f 281 311 312
f 281 312 282
f 282 312 313
f 282 313 283
f 283 313 297
f 283 297 304
f 283 304 303
f 283 303 284
f 284 303 301
f 284 301 285
f 285 301 286
f 286 301 302
f 286 302 300
f 286 300 287
f 293 299 311
f 293 311 314
f 293 314 294
f 294 314 315
f 294 315 295
f 295 315 316
f 295 316 296
f 296 316 317
f 296 317 318
f 296 318 306
f 296 306 308
f 297 313 298
f 298 313 312
f 298 312 311
f 298 311 299
f 305 308 306
f 306 318 307
f 307 318 317
f 307 317 309
f 309 317 315
f 309 315 310
f 310 315 314
f 310 314 311
f 315 317 316

