# https://github.com/mikedh/trimesh
v -0.00855000 0.00020014 0.00664627
v -0.00852798 -0.00026692 0.00664627
v -0.00855000 0.00020014 0.01730000
v -0.00852798 0.00066721 0.00664627
v -0.00851623 -0.00039191 0.00664627
v -0.00851623 0.00079219 0.00664627
v -0.00840464 -0.00126301 0.01730000
v -0.00840464 0.00166275 0.01730000
v -0.00847365 -0.00081803 0.00664627
v -0.00847365 0.00121831 0.00664627
v -0.00846631 -0.00088914 0.00664627
v -0.00845897 -0.00094463 0.00664627
v -0.00843988 -0.00106638 0.00664627
v -0.00842079 -0.00117843 0.00664627
v -0.00840464 -0.00126301 0.00664627
v -0.00811979 -0.00223216 0.00664627
v -0.00811539 -0.00224670 0.00664627
v -0.00801408 -0.00255161 0.01730000
v -0.00802435 0.00295028 0.00664627
v -0.00811979 0.00263244 0.00664627
v -0.00840464 0.00166275 0.00664627
v -0.00842079 0.00157817 0.00664627
v -0.00843988 0.00146612 0.00664627
v -0.00845897 0.00134437 0.00664627
v -0.00846631 0.00128942 0.00664627
v -0.00801408 0.00295190 0.01730000
v -0.00802289 -0.00255161 0.00664627
v 0.00591408 -0.00255161 0.01730000
v -0.00802289 0.00295190 0.00664627
v 0.00591408 0.00295190 0.01730000
v 0.00554994 -0.00255161 0.00664627
v 0.00591408 -0.00255161 0.00665044
v 0.00630464 -0.00126301 0.01730000
v 0.00554994 0.00295190 0.00664627
v 0.00630464 0.00166275 0.01730000
v 0.00591408 0.00295190 0.00665044
v 0.00645000 0.00020014 0.00665044
v 0.00630464 -0.00126301 0.00665044
v 0.00645000 0.00020014 0.01730000
v 0.00630464 0.00166275 0.00665044
f 1 2 3
f 1 3 4
f 1 4 6
f 1 6 10
f 1 10 25
f 1 25 24
f 1 24 23
f 1 23 22
f 1 22 21
f 1 21 20
f 1 20 19
f 1 19 29
f 1 29 34
f 1 34 31
f 1 31 27
f 1 27 17
f 1 17 16
f 1 16 15
f 1 15 14
f 1 14 13
f 1 13 12
f 1 12 11
f 1 11 9
f 1 9 5
f 1 5 2
f 2 5 3
f 3 6 4
f 3 5 7
f 3 7 18
f 3 18 28
f 3 28 33
f 3 33 39
f 3 39 35
f 3 35 30
f 3 30 26
f 3 26 8
f 3 8 6
f 5 9 7
f 6 8 10
f 7 9 11
f 7 11 12
f 7 12 13
f 7 13 14
f 7 14 15
f 7 15 16
f 7 16 17
f 7 17 18
f 8 19 20
f 8 20 21
f 8 21 22
f 8 22 23
f 8 23 24
f 8 24 25
f 8 25 10
f 8 26 19
f 17 27 18
f 18 27 31
f 18 31 32
f 18 32 28
f 19 26 29
f 26 30 36
f 26 36 34
f 26 34 29
f 28 32 38
f 28 38 33
f 30 35 40
f 30 40 36
f 31 34 37
f 31 37 38
f 31 38 32
f 33 38 37
f 33 37 39
f 34 36 40
f 34 40 37
f 35 39 37
f 35 37 40

