# https://github.com/mikedh/trimesh
v -0.00134488 -0.00255161 0.01730000
v -0.00134488 -0.00727004 0.01730000
v -0.00134488 -0.00255161 0.00376896
v -0.00801457 -0.00255161 0.01730000
v -0.00251373 -0.00715584 0.01730000
v -0.00181059 -0.00726122 0.00356993
v -0.00134488 -0.00729418 0.00376896
v -0.00490375 -0.00623342 0.00150536
v -0.00490441 -0.00255161 0.00150536
v -0.00797860 -0.00267046 0.01730000
v -0.00802700 -0.00255161 0.00314975
v -0.00392066 -0.00672829 0.01730000
v -0.00323060 -0.00697572 0.00271377
v -0.00322406 -0.00697758 0.00271377
v -0.00312791 -0.00700172 0.00271219
v -0.00251242 -0.00715584 0.00313079
v -0.00224752 -0.00720366 0.00331087
v -0.00322733 -0.00697665 0.00264427
v -0.00392066 -0.00672875 0.00217354
v -0.00482919 -0.00627148 0.00271219
v -0.00492795 -0.00621856 0.00271219
v -0.00521640 -0.00603566 0.00133160
v -0.00554410 -0.00255161 0.00121945
v -0.00728593 -0.00396751 0.01730000
v -0.00801457 -0.00258272 0.00293334
v -0.00797598 -0.00267742 0.00271219
v -0.00790403 -0.00284408 0.00246893
v -0.00773921 -0.00319086 0.00212615
v -0.00772220 -0.00322103 0.00271219
v -0.00790927 -0.00255161 0.00249263
v -0.00521640 -0.00603519 0.01730000
v -0.00392066 -0.00672875 0.00271219
v -0.00322406 -0.00697758 0.00271219
v -0.00521640 -0.00603566 0.00271219
v -0.00554475 -0.00580401 0.00121945
v -0.00591562 -0.00550690 0.00116258
v -0.00627013 -0.00255161 0.00117522
v -0.00751943 -0.00359288 0.00271377
v -0.00728593 -0.00396751 0.00271377
v -0.00699028 -0.00437650 0.00271377
v -0.00691310 -0.00447074 0.00271377
v -0.00635255 -0.00510255 0.01730000
v -0.00790534 -0.00255161 0.00247367
v -0.00797598 -0.00266581 0.00271219
v -0.00797860 -0.00267046 0.00272167
v -0.00790403 -0.00255161 0.00246893
v -0.00753317 -0.00255161 0.00184498
v -0.00753317 -0.00357060 0.00184498
v -0.00626948 -0.00518472 0.00117522
v -0.00635320 -0.00510209 0.00118786
v -0.00667109 -0.00476552 0.00126684
v -0.00696346 -0.00255161 0.00139321
v -0.00728527 -0.00396705 0.00160646
v -0.00696346 -0.00441271 0.00139321
v -0.00699028 -0.00437650 0.00271219
v -0.00635320 -0.00510255 0.00271377
f 1 2 7
f 1 7 3
f 1 3 9
f 1 9 23
f 1 23 37
f 1 37 52
f 1 52 47
f 1 47 46
f 1 46 43
f 1 43 30
f 1 30 11
f 1 11 4
f 1 4 10
f 1 10 24
f 1 24 42
f 1 42 31
f 1 31 12
f 1 12 5
f 1 5 2
f 2 5 6
f 2 6 7
f 3 7 8
f 3 8 9
f 4 11 10
f 5 12 13
f 5 13 14
f 5 14 15
f 5 15 16
f 5 16 17
f 5 17 6
f 6 17 7
f 7 17 16
f 7 16 18
f 7 18 19
f 7 19 8
f 8 19 20
f 8 20 21
f 8 21 22
f 8 22 9
f 9 22 23
f 10 11 25
f 10 25 26
f 10 26 27
f 10 27 28
f 10 28 29
f 10 29 24
f 11 30 25
f 12 31 20
f 12 20 32
f 12 32 13
f 13 32 19
f 13 19 18
f 13 18 33
f 13 33 14
f 14 33 15
f 15 33 18
f 15 18 16
f 19 32 20
f 20 31 21
f 21 31 34
f 21 34 22
f 22 35 23
f 22 34 35
f 23 35 36
f 23 36 37
f 24 38 39
f 24 39 55
f 24 55 40
f 24 40 41
f 24 41 42
f 24 29 38
f 25 30 43
f 25 43 44
f 25 44 45
f 25 45 26
f 26 44 46
f 26 46 27
f 26 45 44
f 27 46 28
f 28 46 47
f 28 47 48
f 28 48 29
f 29 48 38
f 31 42 36
f 31 36 35
f 31 35 34
f 36 49 37
f 36 42 49
f 37 49 50
f 37 50 51
f 37 51 52
f 38 48 39
f 39 48 53
f 39 53 54
f 39 54 55
f 40 55 54
f 40 54 41
f 41 54 51
f 41 51 42
f 42 56 49
f 42 51 56
f 43 46 44
f 47 53 48
f 47 52 53
f 49 56 50
f 50 56 51
f 51 54 52
f 52 54 53

