# https://github.com/mikedh/trimesh
v -0.00133990 -0.00031756 -0.00520774
v -0.00133990 0.00071731 -0.00520774
v -0.00029648 -0.00031487 -0.00517525
v -0.00133990 -0.00134274 -0.00506501
v -0.00237642 -0.00131957 -0.00495478
v -0.00237642 -0.00030948 -0.00509518
v -0.00133990 0.00174248 -0.00506501
v -0.00029648 0.00071515 -0.00517525
v -0.00237642 0.00070977 -0.00509518
v -0.00237642 0.00171932 -0.00495478
v 0.00073314 -0.00030302 -0.00499771
v 0.00073314 -0.00129964 -0.00485963
v -0.00029648 -0.00133573 -0.00503252
v -0.00029648 -0.00232751 -0.00475172
v -0.00133990 -0.00233828 -0.00478189
v -0.00237642 -0.00230003 -0.00467630
v -0.00338810 -0.00126678 -0.00470415
v -0.00338810 -0.00029171 -0.00483991
v -0.00133990 0.00273857 -0.00478189
v -0.00029648 0.00272725 -0.00475172
v -0.00029648 0.00173602 -0.00503252
v -0.00237642 0.00270032 -0.00467630
v 0.00073314 0.00169938 -0.00485963
v 0.00073314 0.00070276 -0.00499771
v -0.00338810 0.00069199 -0.00483991
v -0.00338810 0.00166652 -0.00470415
v 0.00172688 -0.00028093 -0.00468094
v 0.00073314 -0.00226717 -0.00458463
v 0.00172688 -0.00123392 -0.00454866
v -0.00011429 -0.00255000 -0.00464497
v -0.00075884 -0.00255000 -0.00470183
v -0.00140615 -0.00255000 -0.00469951
v -0.00180916 -0.00255000 -0.00466702
v -0.00245509 -0.00255000 -0.00456491
v -0.00308169 -0.00255000 -0.00440594
v -0.00338810 -0.00221384 -0.00443495
v -0.00435423 -0.00208024 -0.00406480
v -0.00435423 -0.00118543 -0.00431892
v -0.00435423 -0.00026477 -0.00444655
v -0.00129435 0.00294974 -0.00470415
v -0.00064704 0.00294974 -0.00469603
v -0.00193752 0.00294974 -0.00465193
v -0.00024265 0.00294974 -0.00466122
v 0.00040190 0.00294974 -0.00455563
v 0.00073314 0.00266746 -0.00458463
v -0.00338810 0.00261358 -0.00443495
v -0.00297404 0.00294974 -0.00443727
v -0.00258069 0.00294974 -0.00453822
v 0.00172688 0.00163366 -0.00454866
v 0.00172688 0.00068068 -0.00468094
v -0.00435423 0.00066451 -0.00444655
v -0.00435423 0.00158572 -0.00431892
v -0.00435423 0.00247998 -0.00406480
v 0.00266679 -0.00024969 -0.00422841
v 0.00172688 -0.00215943 -0.00428527
v 0.00092085 -0.00255000 -0.00442451
v 0.00052750 -0.00255000 -0.00452778
v 0.00266679 -0.00114072 -0.00410425
v 0.00266679 -0.00200590 -0.00385942
v 0.00046263 -0.00255161 -0.00142620
v -0.00015708 -0.00255161 -0.00149118
v -0.00369174 -0.00255000 -0.00418896
v -0.00075056 -0.00255161 -0.00129856
v -0.00406301 -0.00255000 -0.00402419
v -0.00435561 -0.00255000 -0.00387567
v -0.00463717 -0.00255000 -0.00371438
v -0.00525687 -0.00190246 -0.00357166
v -0.00525687 -0.00107769 -0.00380605
v -0.00525687 -0.00022868 -0.00392440
v -0.00015708 0.00295190 -0.00149118
v 0.00046263 0.00295190 -0.00142620
v 0.00102850 0.00294974 -0.00439202
v 0.00172688 0.00255971 -0.00428527
v -0.00358684 0.00294974 -0.00423073
v -0.00075056 0.00295190 -0.00129856
v 0.00266679 0.00240618 -0.00385942
v 0.00266679 0.00154046 -0.00410425
v 0.00266679 0.00064943 -0.00422841
v -0.00525687 0.00062842 -0.00392440
v -0.00525687 0.00147797 -0.00380605
v -0.00417894 0.00294974 -0.00396733
v -0.00525687 0.00230275 -0.00357166
v -0.00474758 0.00294974 -0.00364708
v 0.00353631 -0.00020928 -0.00365056
v 0.00353631 -0.00102113 -0.00353801
v 0.00153227 -0.00255000 -0.00421333
v 0.00212161 -0.00255000 -0.00394529
v 0.00353631 -0.00180980 -0.00331407
v 0.00302564 -0.00255000 -0.00339413
v 0.00268887 -0.00255000 -0.00362155
v 0.00100228 -0.00255161 -0.00111407
v -0.00696416 -0.00255161 0.00139226
v -0.00517682 -0.00255000 -0.00335584
v -0.00568059 -0.00255000 -0.00294972
v -0.00607808 -0.00168428 -0.00296480
v -0.00607808 -0.00094517 -0.00317482
v -0.00607808 -0.00018396 -0.00328158
v 0.00100366 0.00295190 -0.00111407
v 0.00257846 0.00294974 -0.00369001
v 0.00200568 0.00294974 -0.00400331
v 0.00163579 0.00294974 -0.00417039
v -0.00697520 0.00295190 0.00139806
v 0.00311535 0.00294974 -0.00332799
v 0.00353631 0.00221009 -0.00331407
v 0.00353631 0.00142141 -0.00353801
v 0.00353631 0.00060956 -0.00365056
v -0.00607808 0.00058371 -0.00328158
v -0.00607808 0.00134491 -0.00317482
v -0.00607808 0.00208457 -0.00296480
v -0.00559502 0.00294974 -0.00302398
v -0.00508573 0.00294974 -0.00342198
v 0.00431473 -0.00016134 -0.00295784
v 0.00431473 -0.00087837 -0.00285805
v 0.00431473 -0.00157492 -0.00266080
v 0.00353217 -0.00255000 -0.00299265
v 0.00400005 -0.00255000 -0.00254476
v 0.00136941 -0.00255161 -0.00060932
v 0.00442791 -0.00255000 -0.00205162
v 0.00466944 -0.00255000 -0.00172556
v -0.00753418 -0.00255161 0.00184363
v -0.00597595 -0.00255000 -0.00267124
v -0.00607808 -0.00238784 -0.00265615
v -0.00680268 -0.00142947 -0.00225816
v -0.00680268 -0.00079002 -0.00243917
v -0.00680268 -0.00013225 -0.00253084
v 0.00136941 0.00295190 -0.00060932
v 0.00473293 0.00294974 -0.00163390
v 0.00434648 0.00294974 -0.00215257
v 0.00391034 0.00294974 -0.00263759
v 0.00361636 0.00294974 -0.00291839
v 0.00353631 0.00294974 -0.00298917
v -0.00753832 0.00295190 0.00184943
v 0.00431473 0.00197467 -0.00266080
v 0.00431473 0.00127865 -0.00285805
v 0.00431473 0.00056162 -0.00295784
v -0.00680268 0.00053199 -0.00253084
v -0.00680268 0.00119030 -0.00243917
v -0.00680268 0.00182975 -0.00225816
v -0.00607808 0.00278759 -0.00265615
v -0.00606704 0.00294974 -0.00257957
v 0.00499102 -0.00010639 -0.00216417
v 0.00499102 -0.00071460 -0.00207947
v 0.00499102 -0.00130503 -0.00191238
v 0.00431473 -0.00223700 -0.00236955
v 0.00499102 -0.00186691 -0.00166523
v 0.00555000 -0.00255161 0.00558572
v 0.00499102 -0.00238946 -0.00134265
v 0.00501587 -0.00255000 -0.00117905
v -0.00790407 -0.00255161 0.00246789
v -0.00714635 -0.00255000 -0.00112335
v -0.00680682 -0.00255000 -0.00167335
v -0.00641623 -0.00255000 -0.00218970
v -0.00680268 -0.00203768 -0.00199012
v -0.00741548 -0.00164442 -0.00124170
v -0.00741548 -0.00114341 -0.00146217
v -0.00741548 -0.00061601 -0.00161185
v -0.00741548 -0.00007353 -0.00168727
v 0.00555000 0.00295190 0.00558572
v 0.00506969 0.00294974 -0.00108158
v 0.00499102 0.00278921 -0.00134265
v 0.00499102 0.00226719 -0.00166523
v 0.00431473 0.00263729 -0.00236955
v -0.00754108 0.00295190 0.00185408
v -0.00649766 0.00294974 -0.00208991
v -0.00674195 0.00294974 -0.00176502
v -0.00709114 0.00294974 -0.00122082
v 0.00499102 0.00170531 -0.00191238
v 0.00499102 0.00111488 -0.00207947
v 0.00499102 0.00050667 -0.00216417
v -0.00741548 0.00047381 -0.00168727
v -0.00741548 0.00101629 -0.00161185
v -0.00680268 0.00243796 -0.00199012
v -0.00741548 0.00154316 -0.00146217
v -0.00741548 0.00204470 -0.00124170
v 0.00555000 -0.00004551 -0.00128464
v 0.00555000 -0.00053305 -0.00121618
v 0.00555000 -0.00100658 -0.00108274
v 0.00555000 -0.00145695 -0.00088432
v 0.00530847 -0.00255000 -0.00060236
v 0.00555000 -0.00255000 0.00000450
v 0.00555000 -0.00255161 0.00664627
v 0.00555000 -0.00187553 -0.00062556
v -0.00758939 -0.00255000 -0.00016143
v -0.00733405 -0.00255000 -0.00076248
v -0.00790545 -0.00255161 0.00247137
v -0.00741548 -0.00211095 -0.00095394
v -0.00790407 -0.00157331 -0.00020436
v -0.00790407 -0.00121560 -0.00042483
v -0.00790407 -0.00083096 -0.00059424
v -0.00790407 -0.00042638 -0.00070911
v -0.00790407 -0.00000996 -0.00076713
v 0.00555000 0.00295190 0.00664627
v 0.00555000 0.00294974 0.00000450
v 0.00550445 0.00294974 -0.00012198
v 0.00525464 0.00294974 -0.00071955
v 0.00555000 0.00227527 -0.00062556
v 0.00555000 0.00185669 -0.00088432
v 0.00555000 0.00140632 -0.00108274
v -0.00790545 0.00295190 0.00247254
v -0.00741548 0.00251069 -0.00095394
v -0.00738926 0.00294974 -0.00064529
v 0.00555000 0.00093333 -0.00121618
v 0.00555000 0.00044580 -0.00128464
v -0.00790407 0.00040970 -0.00076713
v -0.00790407 0.00082613 -0.00070911
v -0.00790407 0.00123070 -0.00059424
v -0.00790407 0.00161535 -0.00042483
v -0.00790407 0.00197305 -0.00020436
v 0.00555000 -0.00225478 -0.00031227
v -0.00802415 -0.00255161 0.00664627
v -0.00741548 -0.00253276 -0.00060468
v -0.00778675 -0.00255000 0.00045471
v -0.00790407 -0.00218098 0.00037349
v -0.00790407 -0.00189708 0.00006368
v -0.00790959 -0.00255161 0.00249110
v -0.00792615 -0.00255000 0.00108477
v -0.00826016 -0.00122099 0.00077380
v -0.00826016 -0.00100173 0.00059279
v -0.00826016 -0.00075931 0.00044311
v -0.00826016 -0.00049857 0.00032823
v -0.00826016 -0.00022437 0.00025049
v -0.00826016 0.00005792 0.00021220
v -0.00802277 0.00295190 0.00664627
v 0.00555000 0.00265453 -0.00031227
v -0.00790683 0.00295190 0.00247602
v -0.00763355 0.00294974 -0.00004075
v -0.00741548 0.00293250 -0.00060468
v -0.00790407 0.00229736 0.00006368
v -0.00826016 0.00034236 0.00021220
v -0.00826016 0.00062411 0.00025049
v -0.00826016 0.00089832 0.00032823
v -0.00826016 0.00115905 0.00044311
v -0.00826016 0.00140148 0.00059279
v -0.00826016 0.00162127 0.00077380
v -0.00812076 -0.00223216 0.00664627
v -0.00826016 -0.00184751 0.00202232
v -0.00802691 -0.00255161 0.00334859
v -0.00790407 -0.00241963 0.00071927
v -0.00826016 -0.00141331 0.00098382
v -0.00802691 -0.00255161 0.00314785
v -0.00798274 -0.00255000 0.00148741
v -0.00826016 -0.00170260 0.00147349
v -0.00826016 -0.00157492 0.00121821
v -0.00847685 -0.00061440 0.00161969
v -0.00847685 -0.00051743 0.00151410
v -0.00847685 -0.00040645 0.00142243
v -0.00847685 -0.00028416 0.00134585
v -0.00847685 -0.00015272 0.00128899
v -0.00847685 -0.00001427 0.00124954
v -0.00847685 0.00012849 0.00122981
v -0.00802553 0.00295190 0.00338224
v -0.00802415 0.00295028 0.00664627
v -0.00791097 0.00295190 0.00249922
v -0.00775639 0.00294974 0.00034680
v -0.00790545 0.00294974 0.00097454
v -0.00790407 0.00258126 0.00037349
v -0.00847685 0.00027179 0.00122981
v -0.00847685 0.00041401 0.00124954
v -0.00847685 0.00055246 0.00128899
v -0.00847685 0.00068391 0.00134585
v -0.00847685 0.00080673 0.00142243
v -0.00847685 0.00091717 0.00151410
v -0.00847685 0.00101468 0.00161969
v -0.00826016 0.00181359 0.00098382
v -0.00840508 -0.00126301 0.00664627
v -0.00826016 -0.00179418 0.00174268
v -0.00802553 -0.00255000 0.00213372
v -0.00802691 -0.00255000 0.00226832
v -0.00840508 -0.00126301 0.00226832
v -0.00847685 -0.00069628 0.00173804
v -0.00842854 -0.00114341 0.00226832
v -0.00851963 -0.00045925 0.00226832
v -0.00855000 0.00020014 0.00226832
v -0.00802553 0.00295190 0.00314553
v -0.00802691 0.00294974 0.00315945
v -0.00826016 0.00224780 0.00202232
v -0.00812076 0.00263244 0.00664627
v -0.00790407 0.00281937 0.00071927
v -0.00826016 0.00197521 0.00121821
v -0.00826016 0.00210288 0.00147349
v -0.00799654 0.00294974 0.00161621
v -0.00851963 0.00085899 0.00226832
v -0.00847685 0.00109602 0.00173804
v -0.00842164 -0.00117843 0.00664627
v -0.00845477 -0.00098557 0.00226832
v -0.00848099 -0.00081372 0.00226832
v -0.00850307 -0.00063541 0.00226832
v -0.00844096 -0.00106638 0.00664627
v -0.00852930 -0.00026692 0.00664627
v -0.00855000 0.00020014 0.00664627
v -0.00852930 0.00066721 0.00664627
v -0.00802691 0.00294974 0.00226832
v -0.00826016 0.00219446 0.00174268
v -0.00840508 0.00166275 0.00226832
v -0.00840508 0.00166275 0.00664627
v -0.00842854 0.00154370 0.00226832
v -0.00850307 0.00103569 0.00226832
v -0.00849065 0.00113589 0.00226832
v -0.00848099 0.00121346 0.00226832
v -0.00845477 0.00138531 0.00226832
v -0.00845891 -0.00094463 0.00664627
v -0.00846581 -0.00088914 0.00664627
v -0.00847409 -0.00081803 0.00664627
v -0.00851688 -0.00039191 0.00664627
v -0.00851688 0.00079219 0.00664627
v -0.00842164 0.00157817 0.00664627
v -0.00844096 0.00146612 0.00664627
v -0.00847409 0.00121831 0.00664627
v -0.00846581 0.00128942 0.00664627
v -0.00845891 0.00134437 0.00664627
f 1 2 8
f 1 8 3
f 1 3 4
f 1 4 5
f 1 5 6
f 1 6 9
f 1 9 2
f 2 7 8
f 2 9 10
f 2 10 7
f 3 8 24
f 3 24 11
f 3 11 12
f 3 12 13
f 3 13 4
f 4 13 14
f 4 14 15
f 4 15 16
f 4 16 5
f 5 16 17
f 5 17 18
f 5 18 6
f 6 18 25
f 6 25 9
f 7 19 20
f 7 20 21
f 7 21 8
f 7 10 22
f 7 22 19
f 8 21 23
f 8 23 24
f 9 25 10
f 10 25 26
f 10 26 22
f 11 24 50
f 11 50 27
f 11 27 12
f 12 28 14
f 12 14 13
f 12 27 29
f 12 29 28
f 14 28 30
f 14 30 31
f 14 31 15
f 15 32 33
f 15 33 16
f 15 31 32
f 16 34 35
f 16 35 36
f 16 36 17
f 16 33 34
f 17 36 37
f 17 37 38
f 17 38 18
f 18 38 39
f 18 39 51
f 18 51 25
f 19 40 41
f 19 41 20
f 19 22 42
f 19 42 40
f 20 43 44
f 20 44 45
f 20 45 23
f 20 23 21
f 20 41 43
f 22 26 46
f 22 46 47
f 22 47 48
f 22 48 42
f 23 45 49
f 23 49 50
f 23 50 24
f 25 51 52
f 25 52 26
f 26 52 53
f 26 53 46
f 27 50 78
f 27 78 54
f 27 54 29
f 28 29 55
f 28 55 56
f 28 56 57
f 28 57 30
f 29 54 58
f 29 58 59
f 29 59 55
f 30 60 61
f 30 61 31
f 30 57 60
f 31 61 32
f 32 61 33
f 33 61 34
f 34 61 35
f 35 62 36
f 35 61 63
f 35 63 62
f 36 62 37
f 37 62 64
f 37 64 65
f 37 65 66
f 37 66 67
f 37 67 68
f 37 68 38
f 38 68 69
f 38 69 39
f 39 69 79
f 39 79 51
f 40 42 70
f 40 70 41
f 41 70 43
f 42 48 70
f 43 70 71
f 43 71 44
f 44 71 72
f 44 72 45
f 45 72 73
f 45 73 49
f 46 53 74
f 46 74 47
f 47 74 75
f 47 75 70
f 47 70 48
f 49 73 76
f 49 76 77
f 49 77 78
f 49 78 50
f 51 79 52
f 52 79 80
f 52 80 53
f 53 81 74
f 53 80 82
f 53 82 83
f 53 83 81
f 54 78 106
f 54 106 84
f 54 84 85
f 54 85 58
f 55 86 56
f 55 59 87
f 55 87 86
f 56 60 57
f 56 86 60
f 58 85 59
f 59 85 88
f 59 88 89
f 59 89 90
f 59 90 87
f 60 86 87
f 60 87 90
f 60 90 91
f 60 91 117
f 60 117 146
f 60 146 181
f 60 181 210
f 60 210 237
f 60 237 240
f 60 240 215
f 60 215 185
f 60 185 149
f 60 149 120
f 60 120 92
f 60 92 63
f 60 63 61
f 62 63 92
f 62 92 64
f 64 92 65
f 65 92 66
f 66 93 67
f 66 92 93
f 67 93 94
f 67 94 95
f 67 95 68
f 68 95 96
f 68 96 97
f 68 97 69
f 69 97 107
f 69 107 79
f 70 75 102
f 70 102 132
f 70 132 163
f 70 163 199
f 70 199 225
f 70 225 253
f 70 253 274
f 70 274 251
f 70 251 223
f 70 223 192
f 70 192 158
f 70 158 126
f 70 126 98
f 70 98 71
f 71 98 99
f 71 99 100
f 71 100 101
f 71 101 72
f 72 101 73
f 73 100 76
f 73 101 100
f 74 81 102
f 74 102 75
f 76 100 99
f 76 99 103
f 76 103 104
f 76 104 105
f 76 105 77
f 77 105 78
f 78 105 106
f 79 107 80
f 80 107 108
f 80 108 109
f 80 109 82
f 81 83 102
f 82 110 111
f 82 111 83
f 82 109 110
f 83 111 102
f 84 106 135
f 84 135 112
f 84 112 85
f 85 112 113
f 85 113 114
f 85 114 88
f 88 115 89
f 88 114 116
f 88 116 115
f 89 115 91
f 89 91 90
f 91 115 116
f 91 116 118
f 91 118 119
f 91 119 117
f 92 120 93
f 93 120 94
f 94 121 122
f 94 122 95
f 94 120 121
f 95 122 123
f 95 123 96
f 96 123 124
f 96 124 97
f 97 124 125
f 97 125 136
f 97 136 107
f 98 126 127
f 98 127 128
f 98 128 129
f 98 129 130
f 98 130 131
f 98 131 103
f 98 103 99
f 102 111 110
f 102 110 132
f 103 131 104
f 104 131 130
f 104 130 129
f 104 129 133
f 104 133 105
f 105 133 134
f 105 134 135
f 105 135 106
f 107 136 137
f 107 137 108
f 108 137 138
f 108 138 109
f 109 138 139
f 109 139 110
f 110 139 140
f 110 140 132
f 112 135 169
f 112 169 141
f 112 141 113
f 113 141 142
f 113 142 143
f 113 143 114
f 114 144 116
f 114 143 145
f 114 145 144
f 116 144 118
f 117 119 146
f 118 144 145
f 118 145 119
f 119 145 147
f 119 147 148
f 119 148 146
f 120 149 150
f 120 150 151
f 120 151 152
f 120 152 121
f 121 152 122
f 122 152 153
f 122 153 123
f 123 153 154
f 123 154 155
f 123 155 156
f 123 156 124
f 124 156 125
f 125 156 157
f 125 157 170
f 125 170 136
f 126 158 127
f 127 158 159
f 127 159 160
f 127 160 161
f 127 161 162
f 127 162 128
f 128 162 129
f 129 162 133
f 132 140 164
f 132 164 165
f 132 165 166
f 132 166 163
f 133 162 167
f 133 167 134
f 134 167 168
f 134 168 169
f 134 169 135
f 136 170 171
f 136 171 137
f 137 171 138
f 138 172 139
f 138 171 173
f 138 173 174
f 138 174 172
f 139 172 164
f 139 164 140
f 141 169 203
f 141 203 175
f 141 175 142
f 142 175 176
f 142 176 177
f 142 177 143
f 143 177 145
f 145 177 178
f 145 178 147
f 146 148 179
f 146 179 180
f 146 180 209
f 146 209 182
f 146 182 178
f 146 178 177
f 146 177 176
f 146 176 175
f 146 175 203
f 146 203 202
f 146 202 198
f 146 198 197
f 146 197 196
f 146 196 224
f 146 224 193
f 146 193 158
f 146 158 192
f 146 192 181
f 147 178 182
f 147 182 148
f 148 182 179
f 149 183 184
f 149 184 150
f 149 185 183
f 150 184 186
f 150 186 154
f 150 154 151
f 151 154 153
f 151 153 152
f 154 186 187
f 154 187 188
f 154 188 189
f 154 189 155
f 155 189 190
f 155 190 156
f 156 190 191
f 156 191 157
f 157 191 204
f 157 204 170
f 158 193 194
f 158 194 195
f 158 195 159
f 159 195 196
f 159 196 160
f 160 196 197
f 160 197 161
f 161 167 162
f 161 197 198
f 161 198 167
f 163 166 199
f 164 172 165
f 165 172 166
f 166 172 174
f 166 174 200
f 166 200 201
f 166 201 199
f 167 198 168
f 168 198 202
f 168 202 203
f 168 203 169
f 170 204 171
f 171 204 205
f 171 205 206
f 171 206 173
f 173 206 174
f 174 206 207
f 174 207 208
f 174 208 200
f 179 182 209
f 179 209 180
f 181 192 223
f 181 223 252
f 181 252 277
f 181 277 295
f 181 295 306
f 181 306 307
f 181 307 310
f 181 310 309
f 181 309 308
f 181 308 305
f 181 305 291
f 181 291 290
f 181 290 289
f 181 289 304
f 181 304 303
f 181 303 302
f 181 302 301
f 181 301 288
f 181 288 284
f 181 284 265
f 181 265 235
f 181 235 210
f 183 211 184
f 183 185 212
f 183 212 213
f 183 213 214
f 183 214 211
f 184 211 186
f 185 215 216
f 185 216 212
f 186 211 214
f 186 214 187
f 187 214 217
f 187 217 218
f 187 218 219
f 187 219 188
f 188 219 220
f 188 220 189
f 189 220 190
f 190 220 221
f 190 221 191
f 191 221 222
f 191 222 229
f 191 229 204
f 193 224 194
f 194 224 195
f 195 224 196
f 199 201 226
f 199 226 225
f 200 227 201
f 200 208 228
f 200 228 227
f 201 227 226
f 204 229 230
f 204 230 205
f 205 230 231
f 205 231 206
f 206 231 207
f 207 231 232
f 207 232 208
f 208 232 233
f 208 233 234
f 208 234 228
f 210 235 236
f 210 236 237
f 212 216 238
f 212 238 213
f 213 238 239
f 213 239 217
f 213 217 214
f 215 240 216
f 216 240 241
f 216 241 242
f 216 242 243
f 216 243 238
f 217 239 244
f 217 244 245
f 217 245 246
f 217 246 218
f 218 246 247
f 218 247 219
f 219 247 220
f 220 247 248
f 220 248 249
f 220 249 221
f 221 249 250
f 221 250 222
f 222 250 257
f 222 257 229
f 223 251 252
f 225 226 254
f 225 254 255
f 225 255 253
f 226 227 228
f 226 228 256
f 226 256 254
f 228 234 256
f 229 257 230
f 230 257 258
f 230 258 231
f 231 258 259
f 231 259 260
f 231 260 232
f 232 260 233
f 233 260 261
f 233 261 234
f 234 261 262
f 234 262 263
f 234 263 264
f 234 264 256
f 235 265 236
f 236 266 267
f 236 267 268
f 236 268 240
f 236 240 237
f 236 265 269
f 236 269 266
f 238 243 239
f 239 243 270
f 239 270 244
f 240 268 267
f 240 267 241
f 241 267 266
f 241 266 242
f 242 266 269
f 242 269 271
f 242 271 270
f 242 270 243
f 244 270 272
f 244 272 245
f 245 272 273
f 245 273 246
f 246 273 247
f 247 273 248
f 248 273 249
f 249 273 250
f 250 273 257
f 251 274 292
f 251 292 275
f 251 275 252
f 252 275 276
f 252 276 277
f 253 255 274
f 254 256 278
f 254 278 255
f 255 279 280
f 255 280 281
f 255 281 274
f 255 278 279
f 256 264 279
f 256 279 278
f 257 273 258
f 258 273 259
f 259 273 260
f 260 273 261
f 261 273 262
f 262 273 282
f 262 282 263
f 263 282 283
f 263 283 279
f 263 279 264
f 265 284 271
f 265 271 269
f 270 271 285
f 270 285 286
f 270 286 287
f 270 287 272
f 271 288 285
f 271 284 288
f 272 289 273
f 272 287 289
f 273 289 290
f 273 290 291
f 273 291 282
f 274 281 292
f 275 292 276
f 276 292 281
f 276 281 293
f 276 293 294
f 276 294 295
f 276 295 277
f 279 283 280
f 280 283 296
f 280 296 294
f 280 294 293
f 280 293 281
f 282 291 297
f 282 297 283
f 283 297 298
f 283 298 299
f 283 299 300
f 283 300 296
f 285 288 286
f 286 288 301
f 286 301 302
f 286 302 287
f 287 302 303
f 287 303 304
f 287 304 289
f 291 305 297
f 294 296 295
f 295 296 306
f 296 300 307
f 296 307 306
f 297 305 308
f 297 308 309
f 297 309 298
f 298 309 299
f 299 309 310
f 299 310 307
f 299 307 300

