# https://github.com/mikedh/trimesh
v -0.00190000 0.00550003 -0.00000000
v -0.00175456 0.00550003 0.00072682
v -0.00181742 0.00656844 0.00052447
v -0.00185946 0.00729940 0.00038573
v -0.00190000 0.00729940 -0.00000000
v -0.00189702 0.00656844 -0.00007700
v -0.00175456 0.00550003 -0.00072682
v -0.00146703 0.00295234 -0.00031134
v -0.00146703 0.00295234 0.00031133
v -0.00121335 0.00295234 0.00088081
v -0.00134280 0.00550003 0.00134317
v -0.00168612 0.00729940 0.00087412
v -0.00175456 0.00729940 0.00072682
v -0.00184755 0.00736840 0.00038350
v -0.00189442 0.00729940 -0.00012944
v -0.00189702 0.00656888 -0.00007700
v -0.00188289 0.00736840 -0.00012833
v -0.00177576 0.00656888 -0.00067289
v -0.00175493 0.00656888 -0.00072682
v -0.00163442 0.00656888 -0.00094591
v -0.00134280 0.00550003 -0.00134317
v -0.00121335 0.00295234 -0.00088081
v -0.00074951 0.00295234 0.00129853
v -0.00072645 0.00550003 0.00175530
v -0.00088119 0.00656844 0.00167645
v -0.00098608 0.00729940 0.00162251
v -0.00134280 0.00656844 0.00134317
v -0.00136958 0.00656844 0.00131527
v -0.00138743 0.00729940 0.00129630
v -0.00137850 0.00736840 0.00128774
v -0.00167496 0.00736840 0.00086780
v -0.00163442 0.00744096 0.00084659
v -0.00180217 0.00744096 0.00037420
v -0.00186243 0.00738710 -0.00000000
v -0.00177837 0.00736840 -0.00063160
v -0.00178915 0.00729940 -0.00063606
v -0.00183677 0.00744096 -0.00012535
v -0.00175493 0.00729940 -0.00072682
v -0.00155184 0.00729940 -0.00109544
v -0.00134317 0.00656888 -0.00134317
v -0.00125724 0.00656844 -0.00142091
v -0.00072645 0.00550003 -0.00175531
v -0.00074951 0.00295234 -0.00129853
v -0.00015660 0.00295234 0.00149121
v -0.00000000 0.00550003 0.00190000
v -0.00059924 0.00656844 0.00179920
v -0.00072645 0.00656844 0.00175530
v -0.00072645 0.00729940 0.00175493
v -0.00134242 0.00729940 0.00134280
v -0.00098013 0.00736840 0.00161210
v -0.00136958 0.00656888 0.00131527
v -0.00095595 0.00744096 0.00157267
v -0.00134503 0.00744096 0.00125576
v -0.00129221 0.00748726 0.00120703
v -0.00156969 0.00748726 0.00081386
v -0.00173150 0.00748726 0.00035932
v -0.00182821 0.00744096 -0.00000000
v -0.00173448 0.00744096 -0.00061672
v -0.00150423 0.00744096 -0.00106159
v -0.00154180 0.00736840 -0.00108837
v -0.00175642 0.00748726 -0.00000000
v -0.00176460 0.00748726 -0.00012052
v -0.00166641 0.00748726 -0.00059254
v -0.00134317 0.00729940 -0.00134317
v -0.00100691 0.00656844 -0.00158792
v -0.00119810 0.00729940 -0.00147336
v -0.00074430 0.00656844 -0.00174749
v -0.00072645 0.00656844 -0.00175531
v -0.00044822 0.00656844 -0.00183044
v -0.00015325 0.00656844 -0.00188921
v -0.00000000 0.00550003 -0.00190000
v -0.00015660 0.00295234 -0.00149121
v 0.00046310 0.00295234 0.00142574
v -0.00030390 0.00656844 0.00185797
v 0.00072719 0.00550003 0.00175493
v 0.00051220 0.00729940 0.00182895
v -0.00000000 0.00729940 0.00189963
v -0.00051182 0.00729940 0.00182895
v -0.00050848 0.00736840 0.00181705
v -0.00049583 0.00744096 0.00177242
v -0.00047649 0.00748726 0.00170286
v -0.00091838 0.00748726 0.00151092
v -0.00088267 0.00749973 0.00145178
v -0.00124162 0.00749973 0.00115979
v -0.00150832 0.00749973 0.00078187
v -0.00166380 0.00749973 0.00034518
v -0.00144509 0.00748726 -0.00101956
v -0.00111627 0.00748726 -0.00137218
v -0.00116202 0.00744096 -0.00142798
v -0.00119066 0.00736840 -0.00146368
v -0.00169579 0.00749973 -0.00011605
v -0.00160168 0.00749973 -0.00056948
v -0.00075621 0.00729940 -0.00174229
v -0.00075137 0.00736840 -0.00173113
v -0.00072608 0.00729940 -0.00175456
v -0.00025740 0.00729940 -0.00188140
v -0.00000000 0.00656844 -0.00190000
v 0.00025852 0.00729940 -0.00188140
v 0.00072719 0.00550003 -0.00175456
v 0.00046310 0.00295234 -0.00142574
v 0.00100319 0.00295234 0.00111404
v 0.00134317 0.00550003 0.00134280
v 0.00088156 0.00656844 0.00167645
v 0.00072719 0.00656844 0.00175493
v 0.00072682 0.00729940 0.00175456
v 0.00050922 0.00736840 0.00181705
v -0.00000000 0.00736840 0.00188698
v -0.00000000 0.00744096 0.00184086
v -0.00000000 0.00748726 0.00176870
v -0.00045789 0.00749973 0.00163590
v -0.00138855 0.00749973 -0.00098013
v -0.00107275 0.00749973 -0.00131825
v -0.00067623 0.00749973 -0.00155891
v -0.00070376 0.00748726 -0.00162251
v -0.00073277 0.00744096 -0.00168872
v -0.00025628 0.00736840 -0.00186950
v -0.00000000 0.00729940 -0.00189926
v 0.00025703 0.00736840 -0.00186950
v 0.00072719 0.00729940 -0.00175456
v 0.00074467 0.00656888 -0.00174749
v 0.00119884 0.00729940 -0.00147336
v 0.00125724 0.00656844 -0.00142054
v 0.00134317 0.00550003 -0.00134242
v 0.00100319 0.00295234 -0.00111404
v 0.00136958 0.00295234 0.00060965
v 0.00175531 0.00550003 0.00072608
v 0.00171439 0.00656844 0.00081386
v 0.00168649 0.00729940 0.00087375
v 0.00136995 0.00656844 0.00131527
v 0.00134317 0.00656844 0.00134280
v 0.00113152 0.00656844 0.00150906
v 0.00098645 0.00729940 0.00162251
v 0.00098013 0.00736840 0.00161210
v 0.00095595 0.00744096 0.00157267
v 0.00049657 0.00744096 0.00177242
v 0.00047686 0.00748726 0.00170286
v 0.00045826 0.00749973 0.00163590
v -0.00000000 0.00749973 0.00169914
v -0.00023062 0.00749973 -0.00168352
v -0.00023992 0.00748726 -0.00175233
v -0.00024959 0.00744096 -0.00182375
v 0.00075174 0.00736840 -0.00173038
v 0.00025070 0.00744096 -0.00182375
v 0.00073352 0.00744096 -0.00168798
v 0.00075695 0.00729940 -0.00174229
v 0.00119103 0.00736840 -0.00146368
v 0.00134317 0.00729940 -0.00134317
v 0.00134317 0.00656888 -0.00134317
v 0.00146740 0.00656888 -0.00119550
v 0.00163442 0.00656888 -0.00094591
v 0.00175531 0.00550003 -0.00072608
v 0.00136958 0.00295234 -0.00060965
v 0.00149939 0.00295234 -0.00000000
v 0.00190000 0.00550003 -0.00000000
v 0.00181742 0.00656844 0.00052447
v 0.00175531 0.00656844 0.00072608
v 0.00175493 0.00729940 0.00072682
v 0.00167533 0.00736840 0.00086780
v 0.00137888 0.00736840 0.00128774
v 0.00138780 0.00729940 0.00129556
v 0.00134280 0.00729940 0.00134280
v 0.00134503 0.00744096 0.00125576
v 0.00091875 0.00748726 0.00151092
v 0.00088230 0.00749973 0.00145178
v -0.00000000 0.00749973 -0.00169914
v 0.00024029 0.00748726 -0.00175233
v -0.00000000 0.00746456 -0.00178767
v 0.00070487 0.00748726 -0.00162177
v 0.00116165 0.00744096 -0.00142798
v 0.00111627 0.00748726 -0.00137218
v 0.00154180 0.00736840 -0.00108837
v 0.00150423 0.00744096 -0.00106159
v 0.00155184 0.00729940 -0.00109544
v 0.00175531 0.00656888 -0.00072682
v 0.00175531 0.00729940 -0.00072682
v 0.00179027 0.00729940 -0.00063606
v 0.00189554 0.00729940 -0.00012944
v 0.00190000 0.00729940 -0.00000000
v 0.00185946 0.00729940 0.00038573
v 0.00184755 0.00736840 0.00038350
v 0.00163442 0.00744096 0.00084659
v 0.00157044 0.00748726 0.00081386
v 0.00129221 0.00748726 0.00120666
v 0.00124162 0.00749973 0.00115942
v 0.00023099 0.00749973 -0.00168352
v 0.00067735 0.00749973 -0.00155891
v 0.00144509 0.00748726 -0.00101956
v 0.00107200 0.00749973 -0.00131825
v 0.00138855 0.00749973 -0.00098013
v 0.00177800 0.00736840 -0.00063160
v 0.00173485 0.00744096 -0.00061672
v 0.00166678 0.00748726 -0.00059254
v 0.00188289 0.00736840 -0.00012833
v 0.00187433 0.00736840 -0.00000000
v 0.00180217 0.00744096 0.00037420
v 0.00173150 0.00748726 0.00035932
v 0.00166380 0.00749973 0.00034518
v 0.00150869 0.00749973 0.00078187
v 0.00160168 0.00749973 -0.00056874
v 0.00183677 0.00744096 -0.00012535
v 0.00176498 0.00748726 -0.00012052
v 0.00182821 0.00744096 -0.00000000
v 0.00175679 0.00748726 -0.00000000
v 0.00168798 0.00749973 -0.00000000
v 0.00169579 0.00749973 -0.00011605
f 1 2 3
f 1 3 4
f 1 4 5
f 1 5 16
f 1 16 6
f 1 6 7
f 1 7 8
f 1 8 9
f 1 9 2
f 2 9 10
f 2 10 11
f 2 11 12
f 2 12 13
f 2 13 3
f 3 13 4
f 4 13 14
f 4 14 5
f 5 15 16
f 5 14 17
f 5 17 15
f 6 16 15
f 6 15 7
f 7 15 18
f 7 18 19
f 7 19 20
f 7 20 21
f 7 21 22
f 7 22 8
f 8 22 43
f 8 43 72
f 8 72 100
f 8 100 124
f 8 124 152
f 8 152 153
f 8 153 125
f 8 125 101
f 8 101 73
f 8 73 44
f 8 44 23
f 8 23 10
f 8 10 9
f 10 23 11
f 11 24 25
f 11 25 26
f 11 26 27
f 11 27 51
f 11 51 28
f 11 28 12
f 11 23 24
f 12 29 30
f 12 30 31
f 12 31 13
f 12 28 29
f 13 31 14
f 14 31 32
f 14 32 33
f 14 33 34
f 14 34 17
f 15 17 35
f 15 35 36
f 15 36 18
f 17 34 37
f 17 37 35
f 18 36 38
f 18 38 19
f 19 38 20
f 20 38 39
f 20 39 21
f 21 39 40
f 21 40 41
f 21 41 42
f 21 42 43
f 21 43 22
f 23 44 24
f 24 45 46
f 24 46 47
f 24 47 25
f 24 44 45
f 25 47 48
f 25 48 26
f 26 49 27
f 26 48 50
f 26 50 49
f 27 49 29
f 27 29 51
f 28 51 29
f 29 49 30
f 30 50 52
f 30 52 53
f 30 53 32
f 30 32 31
f 30 49 50
f 32 53 54
f 32 54 55
f 32 55 56
f 32 56 33
f 33 56 57
f 33 57 34
f 34 57 37
f 35 37 58
f 35 58 59
f 35 59 60
f 35 60 38
f 35 38 36
f 37 57 61
f 37 61 62
f 37 62 63
f 37 63 58
f 38 60 39
f 39 60 64
f 39 64 40
f 40 64 41
f 41 65 42
f 41 64 66
f 41 66 65
f 42 65 67
f 42 67 93
f 42 93 68
f 42 68 69
f 42 69 70
f 42 70 71
f 42 71 72
f 42 72 43
f 44 73 45
f 45 74 46
f 45 73 75
f 45 75 76
f 45 76 77
f 45 77 74
f 46 74 78
f 46 78 48
f 46 48 47
f 48 78 79
f 48 79 50
f 50 79 52
f 52 80 81
f 52 81 82
f 52 82 54
f 52 54 53
f 52 79 80
f 54 82 83
f 54 83 84
f 54 84 55
f 55 84 85
f 55 85 86
f 55 86 56
f 56 86 61
f 56 61 57
f 58 63 59
f 59 63 87
f 59 87 88
f 59 88 89
f 59 89 60
f 60 89 90
f 60 90 64
f 61 86 91
f 61 91 62
f 62 91 92
f 62 92 63
f 63 92 87
f 64 90 66
f 65 66 93
f 65 93 67
f 66 90 94
f 66 94 93
f 68 93 95
f 68 95 96
f 68 96 69
f 69 96 70
f 70 97 71
f 70 96 97
f 71 97 98
f 71 98 99
f 71 99 100
f 71 100 72
f 73 101 75
f 74 77 78
f 75 102 103
f 75 103 104
f 75 104 76
f 75 101 102
f 76 105 106
f 76 106 77
f 76 104 105
f 77 106 107
f 77 107 79
f 77 79 78
f 79 107 108
f 79 108 80
f 80 108 109
f 80 109 81
f 81 109 110
f 81 110 83
f 81 83 82
f 83 110 138
f 83 138 137
f 83 137 164
f 83 164 184
f 83 184 198
f 83 198 197
f 83 197 204
f 83 204 205
f 83 205 199
f 83 199 189
f 83 189 188
f 83 188 186
f 83 186 185
f 83 185 165
f 83 165 139
f 83 139 113
f 83 113 112
f 83 112 111
f 83 111 92
f 83 92 91
f 83 91 86
f 83 86 85
f 83 85 84
f 87 92 111
f 87 111 88
f 88 111 112
f 88 112 113
f 88 113 114
f 88 114 115
f 88 115 89
f 89 115 94
f 89 94 90
f 93 94 95
f 94 116 95
f 94 115 116
f 95 116 96
f 96 116 117
f 96 117 97
f 97 117 98
f 98 117 118
f 98 118 119
f 98 119 99
f 99 120 121
f 99 121 122
f 99 122 123
f 99 123 124
f 99 124 100
f 99 119 120
f 101 125 102
f 102 126 127
f 102 127 128
f 102 128 129
f 102 129 130
f 102 130 131
f 102 131 103
f 102 125 126
f 103 131 132
f 103 132 105
f 103 105 104
f 105 132 133
f 105 133 106
f 106 133 134
f 106 134 135
f 106 135 108
f 106 108 107
f 108 135 109
f 109 136 137
f 109 137 138
f 109 138 110
f 109 135 136
f 113 139 140
f 113 140 114
f 114 140 115
f 115 140 141
f 115 141 116
f 116 118 117
f 116 141 143
f 116 143 118
f 118 142 119
f 118 143 144
f 118 144 142
f 119 142 145
f 119 145 120
f 120 145 121
f 121 145 146
f 121 146 147
f 121 147 148
f 121 148 122
f 122 148 123
f 123 148 149
f 123 149 150
f 123 150 151
f 123 151 152
f 123 152 124
f 125 153 126
f 126 154 155
f 126 155 156
f 126 156 128
f 126 128 127
f 126 153 154
f 128 157 158
f 128 158 159
f 128 159 160
f 128 160 129
f 128 156 157
f 129 160 161
f 129 161 130
f 130 161 131
f 131 161 132
f 132 161 133
f 133 161 159
f 133 159 134
f 134 159 162
f 134 162 163
f 134 163 135
f 135 163 136
f 136 163 164
f 136 164 137
f 139 165 140
f 140 165 166
f 140 166 167
f 140 167 141
f 141 167 143
f 142 146 145
f 142 144 146
f 143 167 166
f 143 166 168
f 143 168 144
f 144 169 146
f 144 168 170
f 144 170 169
f 146 171 147
f 146 169 172
f 146 172 171
f 147 171 173
f 147 173 148
f 148 173 149
f 149 173 150
f 150 174 151
f 150 173 175
f 150 175 174
f 151 174 176
f 151 176 177
f 151 177 154
f 151 154 153
f 151 153 152
f 154 177 178
f 154 178 179
f 154 179 155
f 155 179 157
f 155 157 156
f 157 179 180
f 157 180 158
f 158 180 181
f 158 181 159
f 159 161 160
f 159 181 162
f 162 181 182
f 162 182 183
f 162 183 163
f 163 183 184
f 163 184 164
f 165 185 166
f 166 185 186
f 166 186 168
f 168 186 170
f 169 170 172
f 170 187 172
f 170 186 188
f 170 188 189
f 170 189 187
f 171 190 175
f 171 175 173
f 171 172 191
f 171 191 190
f 172 187 192
f 172 192 191
f 174 175 176
f 175 190 176
f 176 190 193
f 176 193 177
f 177 193 178
f 178 193 194
f 178 194 180
f 178 180 179
f 180 194 195
f 180 195 181
f 181 195 182
f 182 195 196
f 182 196 197
f 182 197 198
f 182 198 184
f 182 184 183
f 187 189 192
f 189 199 192
f 190 191 193
f 191 200 193
f 191 192 201
f 191 201 200
f 192 199 201
f 193 200 194
f 194 200 202
f 194 202 195
f 195 202 203
f 195 203 196
f 196 203 197
f 197 203 204
f 199 205 201
f 200 201 203
f 200 203 202
f 201 205 204
f 201 204 203

