# https://github.com/mikedh/trimesh
v 0.00591505 -0.00255161 0.00665088
v 0.00587880 -0.00267014 0.00665088
v 0.00554978 -0.00336269 0.00558716
v 0.00554978 -0.00255161 0.00558716
v 0.00591434 -0.00255161 0.01730000
v 0.00587880 -0.00267014 0.01730000
v 0.00518593 -0.00396693 0.00523745
v 0.00554978 -0.00336269 0.00665088
v 0.00473893 -0.00255161 0.00488508
v -0.00134488 -0.00255161 0.01730000
v 0.00518593 -0.00396693 0.01730000
v 0.00473893 -0.00456791 0.00488508
v 0.00425285 -0.00510290 0.00457643
v 0.00380728 -0.00255161 0.00435256
v -0.00134488 -0.00727072 0.01730000
v -0.00134488 -0.00255161 0.00376705
v 0.00425285 -0.00510290 0.01730000
v 0.00380728 -0.00551378 0.00435256
v 0.00311654 -0.00603575 0.00409690
v 0.00279035 -0.00255161 0.00401079
v -0.00104996 -0.00729954 0.01730000
v -0.00134488 -0.00729396 0.00377500
v 0.00172723 -0.00255161 0.00387435
v 0.00182032 -0.00672876 0.00387832
v -0.00134417 -0.00729396 0.00376837
v -0.00134488 -0.00729396 0.00376837
v 0.00311654 -0.00603575 0.01730000
v 0.00279035 -0.00624165 0.00401212
v 0.00231635 -0.00650148 0.00392469
v 0.00041325 -0.00715545 0.01730000
v -0.00104996 -0.00730000 0.00385978
v -0.00035496 -0.00726746 0.00398430
v 0.00119851 -0.00695465 0.00388362
v 0.00182032 -0.00672876 0.01730000
v 0.00065700 -0.00710293 0.00394588
v 0.00041467 -0.00715545 0.00397900
v 0.00002950 -0.00722191 0.00400019
f 1 2 3
f 1 3 4
f 1 4 9
f 1 9 14
f 1 14 20
f 1 20 23
f 1 23 16
f 1 16 10
f 1 10 5
f 1 5 6
f 1 6 2
f 2 6 8
f 2 8 3
f 3 7 4
f 3 8 11
f 3 11 7
f 4 7 9
f 5 10 15
f 5 15 21
f 5 21 30
f 5 30 34
f 5 34 27
f 5 27 17
f 5 17 11
f 5 11 6
f 6 11 8
f 7 12 9
f 7 11 12
f 9 12 13
f 9 13 14
f 10 16 26
f 10 26 22
f 10 22 15
f 11 17 12
f 12 17 13
f 13 18 14
f 13 17 18
f 14 18 19
f 14 19 20
f 15 22 21
f 16 23 24
f 16 24 25
f 16 25 26
f 17 27 18
f 18 27 19
f 19 28 20
f 19 27 28
f 20 28 29
f 20 29 23
f 21 22 31
f 21 31 32
f 21 32 30
f 22 26 31
f 23 29 24
f 24 33 25
f 24 29 34
f 24 34 33
f 25 33 35
f 25 35 36
f 25 36 37
f 25 37 32
f 25 32 31
f 25 31 26
f 27 34 29
f 27 29 28
f 30 32 37
f 30 37 36
f 30 36 35
f 30 35 33
f 30 33 34

