# https://github.com/mikedh/trimesh
v 0.00182013 -0.00672910 0.01730000
v -0.00802764 -0.00255000 0.00315947
v -0.00801468 -0.00258266 0.00293216
v -0.00797910 -0.00267013 0.00272148
v -0.00392013 -0.00672910 0.01730000
v -0.00521678 -0.00603602 0.01730000
v -0.00490408 -0.00623398 0.00150490
v -0.00635330 -0.00510330 0.01730000
v -0.00635401 -0.00510259 0.00118627
v -0.00627019 -0.00518513 0.00117423
v -0.00591602 -0.00550717 0.00116258
v -0.00554450 -0.00580412 0.00121870
v -0.00521678 -0.00603602 0.00133122
v -0.00728602 -0.00396678 0.01730000
v -0.00696382 -0.00441266 0.00139211
v -0.00667141 -0.00476486 0.00126591
v -0.00773983 -0.00319060 0.00212582
v -0.00753374 -0.00356976 0.00184354
v -0.00728602 -0.00396678 0.00160496
v -0.00840589 -0.00126318 0.01730000
v -0.00797910 -0.00267013 0.01730000
v -0.00790463 -0.00284369 0.00246888
v -0.00848116 -0.00081387 0.00226880
v -0.00845567 -0.00098579 0.00226880
v -0.00855000 0.00020000 0.00226880
v -0.00852095 -0.00045945 0.00226880
v -0.00855000 0.00020000 0.01730000
v -0.00850328 -0.00063584 0.00226880
v -0.00849135 -0.00073614 0.00226880
v -0.00802764 -0.00255000 0.00226880
v -0.00840589 -0.00126318 0.00226880
v -0.00842863 -0.00114379 0.00226880
v -0.00842863 0.00154379 0.00226880
v -0.00845567 0.00138579 0.00226880
v -0.00840589 0.00166318 0.01730000
v -0.00848116 0.00121387 0.00226880
v -0.00849135 0.00113614 0.00226880
v -0.00850328 0.00103584 0.00226880
v -0.00852095 0.00085945 0.00226880
v -0.00802764 0.00295000 0.00315947
v -0.00797910 0.00307013 0.01730000
v -0.00840589 0.00166318 0.00226880
v -0.00802764 0.00295000 0.00226880
v -0.00728602 0.00436678 0.01730000
v -0.00728602 0.00436678 0.00160496
v -0.00753943 0.00395995 0.00185008
v -0.00801453 0.00298304 0.00293084
v -0.00797910 0.00307013 0.00272148
v -0.00790612 0.00324032 0.00247295
v -0.00774221 0.00358591 0.00212977
v -0.00697530 0.00479792 0.00139823
v -0.00635330 0.00550330 0.01730000
v -0.00667955 0.00515562 0.00126869
v -0.00521678 0.00643602 0.01730000
v -0.00521678 0.00643602 0.00133122
v -0.00556556 0.00618830 0.00121358
v -0.00593541 0.00589058 0.00116159
v -0.00628912 0.00556671 0.00117663
v -0.00635330 0.00550330 0.00118616
v -0.00392013 0.00712910 0.01730000
v -0.00392013 0.00712910 0.00217306
v -0.00490408 0.00663398 0.00150490
v -0.00105000 0.00770000 0.01730000
v -0.00105000 0.00770000 0.00385973
v -0.00251318 0.00755589 0.01730000
v -0.00134425 0.00769423 0.00376736
v -0.00181056 0.00766134 0.00356677
v -0.00224713 0.00760384 0.00330914
v -0.00251318 0.00755589 0.00312848
v -0.00322713 0.00737705 0.00264365
v 0.00041318 0.00755589 0.01730000
v -0.00035524 0.00766775 0.00398420
v 0.00182013 0.00712910 0.01730000
v 0.00311678 0.00643602 0.01730000
v 0.00380788 0.00591410 0.00435184
v 0.00425330 0.00550330 0.01730000
v 0.00425330 0.00550330 0.00457616
v 0.00587910 0.00307013 0.00664967
v 0.00555000 0.00376230 0.00664967
v 0.00518602 0.00436678 0.01730000
v 0.00473943 0.00496786 0.00488380
v 0.00518602 0.00436678 0.00523637
v 0.00555000 0.00376230 0.00558647
v 0.00587910 0.00307013 0.01730000
v 0.00630589 0.00166318 0.01730000
v 0.00630589 0.00166318 0.00664967
v 0.00645000 0.00020000 0.01730000
v 0.00645000 0.00020000 0.00664967
v 0.00630589 -0.00126318 0.01730000
v 0.00630589 -0.00126318 0.00664967
v 0.00587910 -0.00267013 0.01730000
v 0.00518602 -0.00396678 0.01730000
v 0.00555000 -0.00336230 0.00664967
v 0.00587910 -0.00267013 0.00664967
v 0.00555000 -0.00336230 0.00558647
v 0.00518602 -0.00396678 0.00523637
v 0.00473943 -0.00456786 0.00488380
v 0.00425330 -0.00510330 0.01730000
v 0.00311678 -0.00603602 0.01730000
v 0.00380788 -0.00551410 0.00435184
v 0.00425330 -0.00510330 0.00457616
v 0.00231667 -0.00650190 0.00392357
v 0.00279079 -0.00624192 0.00401082
v 0.00311678 -0.00603602 0.00409631
v 0.00041318 -0.00715589 0.01730000
v -0.00105000 -0.00730000 0.01730000
v -0.00035524 -0.00726775 0.00398419
v 0.00002890 -0.00722199 0.00399990
v 0.00041415 -0.00715570 0.00397850
v 0.00065653 -0.00710327 0.00394575
v -0.00224713 -0.00720384 0.00330914
v -0.00180994 -0.00726140 0.00356709
v -0.00251318 -0.00715589 0.01730000
v -0.00134425 -0.00729423 0.00376736
v -0.00105000 -0.00730000 0.00385973
v -0.00392013 -0.00672910 0.00217307
v -0.00322714 -0.00697705 0.00264365
v -0.00251230 -0.00715606 0.00312907
v -0.00023148 0.00750000 -0.00168417
v -0.00067728 0.00750000 -0.00155926
v -0.00107285 0.00750000 -0.00131871
v -0.00138885 0.00750000 -0.00098036
v -0.00160184 0.00750000 -0.00056930
v 0.00023148 0.00750000 -0.00168417
v -0.00000000 0.00750000 -0.00170000
v 0.00138885 0.00750000 -0.00098036
v 0.00107285 0.00750000 -0.00131871
v 0.00067728 0.00750000 -0.00155926
v 0.00160184 0.00750000 -0.00056930
v 0.00169604 0.00750000 -0.00011601
v 0.00025703 0.00736922 -0.00187006
v 0.00075204 0.00736922 -0.00173136
v 0.00119127 0.00736922 -0.00146426
v 0.00154214 0.00736922 -0.00108856
v 0.00024091 0.00748764 -0.00175274
v 0.00070486 0.00748764 -0.00162275
v 0.00111654 0.00748764 -0.00137241
v 0.00144540 0.00748764 -0.00102028
v 0.00166707 0.00748764 -0.00059248
v 0.00176510 0.00748764 -0.00012074
v -0.00166707 0.00748764 -0.00059248
v -0.00144540 0.00748764 -0.00102028
v -0.00111654 0.00748764 -0.00137241
v -0.00070486 0.00748764 -0.00162275
v -0.00024091 0.00748764 -0.00175274
v 0.00183713 0.00744142 -0.00012566
v 0.00173510 0.00744142 -0.00061665
v 0.00150439 0.00744142 -0.00106191
v 0.00116210 0.00744142 -0.00142841
v 0.00073362 0.00744142 -0.00168897
v 0.00025074 0.00744142 -0.00182427
v -0.00025074 0.00744142 -0.00182427
v -0.00073362 0.00744142 -0.00168897
v -0.00116210 0.00744142 -0.00142841
v -0.00150439 0.00744142 -0.00106191
v 0.00100370 -0.00690000 -0.00111472
v 0.00137032 -0.00690000 -0.00061010
v 0.00150000 -0.00690000 -0.00000000
v -0.00075000 -0.00690000 -0.00129904
v -0.00015679 -0.00690000 -0.00149178
v 0.00046353 -0.00690000 -0.00142658
v -0.00121353 -0.00690000 -0.00088168
v -0.00674312 0.00295000 -0.00176554
v -0.00709208 0.00295000 -0.00122128
v -0.00064685 0.00295000 -0.00469718
v -0.00129334 0.00295000 -0.00470459
v -0.00193877 0.00295000 -0.00465200
v -0.00258170 0.00295000 -0.00453864
v -0.00297536 0.00295000 -0.00443794
v -0.00358785 0.00295000 -0.00423094
v 0.00163620 0.00295000 -0.00417105
v 0.00102861 0.00295000 -0.00439203
v 0.00040216 0.00295000 -0.00455605
v -0.00024206 0.00295000 -0.00466190
v -0.00763430 0.00295000 -0.00004084
v -0.00738962 0.00295000 -0.00064611
v -0.00417949 0.00295000 -0.00396768
v -0.00474866 0.00295000 -0.00364789
v -0.00508680 0.00295000 -0.00342257
v -0.00559625 0.00295000 -0.00302450
v -0.00606739 0.00295000 -0.00258024
v -0.00649863 0.00295000 -0.00209008
v 0.00257937 0.00295000 -0.00369065
v 0.00200650 0.00295000 -0.00400377
v 0.00391046 0.00295000 -0.00263846
v 0.00361641 0.00295000 -0.00291888
v 0.00353705 0.00295000 -0.00298918
v 0.00311622 0.00295000 -0.00332852
v 0.00555000 0.00295000 0.00000441
v 0.00550525 0.00295000 -0.00012205
v 0.00525517 0.00295000 -0.00071989
v -0.00775758 0.00295000 0.00034634
v -0.00790672 0.00295000 0.00097543
v -0.00799710 0.00295000 0.00161666
v 0.00507051 0.00295000 -0.00108184
v 0.00473411 0.00295000 -0.00163395
v 0.00434739 0.00295000 -0.00215337
v 0.00555000 0.00265483 -0.00031263
v 0.00555000 -0.00255000 0.00000441
v 0.00555000 -0.00225483 -0.00031263
v 0.00555000 -0.00187571 -0.00062626
v 0.00555000 0.00093334 -0.00121719
v 0.00555000 0.00140668 -0.00108289
v 0.00555000 0.00185700 -0.00088465
v 0.00555000 0.00227571 -0.00062626
v 0.00555000 -0.00145700 -0.00088465
v 0.00555000 -0.00100668 -0.00108289
v 0.00555000 -0.00053334 -0.00121719
v 0.00555000 -0.00004601 -0.00128499
v 0.00555000 0.00044601 -0.00128499
v 0.00501590 -0.00255000 -0.00117972
v 0.00530948 -0.00255000 -0.00060252
v 0.00302577 -0.00255000 -0.00339472
v 0.00353248 -0.00255000 -0.00299317
v 0.00400056 -0.00255000 -0.00254568
v 0.00442842 -0.00255000 -0.00205258
v 0.00467067 -0.00255000 -0.00172636
v -0.00181035 -0.00255000 -0.00466728
v -0.00140532 -0.00255000 -0.00469978
v 0.00212223 -0.00255000 -0.00394605
v 0.00268919 -0.00255000 -0.00362236
v -0.00011375 -0.00255000 -0.00464573
v 0.00052840 -0.00255000 -0.00452797
v 0.00092135 -0.00255000 -0.00442456
v 0.00153241 -0.00255000 -0.00421337
v -0.00435621 -0.00255000 -0.00387582
v -0.00406337 -0.00255000 -0.00402461
v -0.00075880 -0.00255000 -0.00470275
v -0.00641691 -0.00255000 -0.00219032
v -0.00597666 -0.00255000 -0.00267240
v -0.00714737 -0.00255000 -0.00112377
v -0.00680718 -0.00255000 -0.00167357
v -0.00568069 -0.00255000 -0.00295079
v -0.00517770 -0.00255000 -0.00335699
v -0.00463837 -0.00255000 -0.00371542
v -0.00369193 -0.00255000 -0.00418934
v -0.00308284 -0.00255000 -0.00440615
v -0.00245528 -0.00255000 -0.00456586
v -0.00798382 -0.00255000 0.00148802
v -0.00792661 -0.00255000 0.00108573
v -0.00802635 -0.00255000 0.00213466
v -0.00778759 -0.00255000 0.00045433
v -0.00759036 -0.00255000 -0.00016247
v -0.00733451 -0.00255000 -0.00076310
v 0.00499145 0.00226722 -0.00166533
v 0.00499145 0.00170541 -0.00191265
v 0.00431587 0.00197498 -0.00266139
v -0.00847735 -0.00069634 0.00173871
v -0.00826082 0.00224786 0.00202316
v -0.00826082 0.00219448 0.00174333
v -0.00680324 0.00243805 -0.00199045
v -0.00607946 0.00278795 -0.00265634
v -0.00029545 0.00272764 -0.00475199
v 0.00499145 0.00278958 -0.00134296
v 0.00499145 -0.00238958 -0.00134296
v 0.00431587 -0.00223738 -0.00236979
v -0.00741558 -0.00211096 -0.00095437
v -0.00741558 -0.00164480 -0.00124205
v -0.00826082 -0.00179448 0.00174333
v -0.00826082 -0.00184786 0.00202316
v -0.00826082 -0.00157531 0.00121889
v -0.00826082 -0.00170305 0.00147352
v -0.00790459 -0.00189750 0.00006313
v -0.00790459 -0.00218141 0.00037318
v -0.00790459 -0.00241990 0.00071940
v -0.00741558 -0.00253304 -0.00060519
v -0.00680324 -0.00203805 -0.00199045
v -0.00607946 -0.00238795 -0.00265634
v -0.00607946 -0.00168463 -0.00296596
v -0.00525823 -0.00190292 -0.00357229
v -0.00435549 -0.00208048 -0.00406548
v -0.00237662 -0.00230047 -0.00467653
v -0.00338871 -0.00221385 -0.00443595
v -0.00133883 -0.00233864 -0.00478256
v -0.00029545 -0.00232764 -0.00475199
v 0.00073332 -0.00226766 -0.00458541
v 0.00172754 -0.00215989 -0.00428605
v 0.00266795 -0.00200639 -0.00385971
v 0.00353633 -0.00181016 -0.00331463
v 0.00431587 0.00263738 -0.00236979
v 0.00353633 0.00221016 -0.00331463
v 0.00266795 0.00240639 -0.00385971
v 0.00172754 0.00255989 -0.00428605
v 0.00073332 0.00266767 -0.00458541
v -0.00133883 0.00273864 -0.00478256
v -0.00237662 0.00270047 -0.00467653
v -0.00338871 0.00261385 -0.00443595
v -0.00435549 0.00248048 -0.00406548
v -0.00525823 0.00230292 -0.00357229
v -0.00607946 0.00208463 -0.00296595
v -0.00741558 0.00293304 -0.00060520
v -0.00790459 0.00281990 0.00071940
v -0.00826082 0.00197531 0.00121889
v -0.00826082 0.00210305 0.00147352
v -0.00847735 0.00109634 0.00173871
v -0.00847735 0.00101475 0.00162026
v -0.00847735 0.00091761 0.00151419
v -0.00847735 0.00080679 0.00142250
v -0.00847735 0.00068439 0.00134697
v -0.00847735 0.00055275 0.00128902
v -0.00847735 0.00041438 0.00124976
v -0.00847735 0.00027192 0.00122994
v -0.00847735 0.00012808 0.00122994
v -0.00847735 -0.00001438 0.00124976
v -0.00847735 -0.00015275 0.00128902
v -0.00847735 -0.00028439 0.00134697
v -0.00847735 -0.00040679 0.00142250
v -0.00847735 -0.00061475 0.00162026
v -0.00847735 -0.00051761 0.00151419
v 0.00499145 -0.00186722 -0.00166533
v 0.00499145 -0.00130541 -0.00191265
v 0.00499145 -0.00071489 -0.00208019
v 0.00499145 -0.00010692 -0.00216477
v 0.00499145 0.00050692 -0.00216477
v 0.00499145 0.00111489 -0.00208019
v 0.00431587 -0.00157498 -0.00266139
v 0.00431587 -0.00087871 -0.00285894
v 0.00353633 -0.00102164 -0.00353835
v 0.00266795 -0.00114090 -0.00410527
v 0.00172754 -0.00123418 -0.00454870
v 0.00073332 -0.00129968 -0.00486005
v -0.00029545 -0.00133613 -0.00503331
v -0.00133883 -0.00134282 -0.00506510
v -0.00237662 -0.00131962 -0.00495482
v -0.00338871 -0.00126698 -0.00470460
v -0.00435549 -0.00118592 -0.00431928
v -0.00525823 -0.00107802 -0.00380634
v -0.00607946 -0.00094535 -0.00317570
v 0.00431587 -0.00016187 -0.00295867
v 0.00353633 -0.00020982 -0.00365129
v 0.00266795 -0.00024983 -0.00422923
v 0.00172754 -0.00028112 -0.00468128
v 0.00073332 -0.00030309 -0.00499870
v -0.00029545 -0.00031532 -0.00517532
v -0.00133883 -0.00031756 -0.00520774
v -0.00237662 -0.00030978 -0.00509531
v -0.00338871 -0.00029212 -0.00484022
v -0.00435549 -0.00026493 -0.00444741
v -0.00525823 -0.00022873 -0.00392449
v -0.00607946 -0.00018423 -0.00328159
v 0.00431587 0.00056187 -0.00295867
v 0.00353633 0.00060982 -0.00365129
v 0.00266795 0.00064983 -0.00422923
v 0.00172754 0.00068112 -0.00468128
v 0.00073332 0.00070309 -0.00499870
v -0.00029545 0.00071532 -0.00517532
v -0.00133883 0.00071756 -0.00520774
v -0.00237662 0.00070978 -0.00509531
v -0.00338871 0.00069212 -0.00484022
v -0.00435549 0.00066493 -0.00444741
v -0.00525823 0.00062873 -0.00392449
v -0.00607946 0.00058423 -0.00328159
v 0.00431587 0.00127871 -0.00285894
v 0.00353633 0.00142164 -0.00353835
v 0.00266795 0.00154090 -0.00410527
v 0.00172754 0.00163418 -0.00454870
v 0.00073332 0.00169968 -0.00486005
v -0.00029545 0.00173613 -0.00503331
v -0.00133883 0.00174282 -0.00506510
v -0.00237662 0.00171962 -0.00495482
v -0.00338871 0.00166698 -0.00470460
v -0.00435549 0.00158592 -0.00431928
v -0.00525823 0.00147802 -0.00380634
v -0.00607946 0.00134535 -0.00317570
v -0.00680324 -0.00142982 -0.00225820
v -0.00680324 -0.00079050 -0.00243960
v -0.00680324 -0.00013228 -0.00253117
v -0.00680324 0.00053228 -0.00253117
v -0.00680324 0.00119050 -0.00243960
v -0.00680324 0.00182982 -0.00225821
v -0.00741558 -0.00114344 -0.00146275
v -0.00741558 -0.00061646 -0.00161228
v -0.00741558 -0.00007389 -0.00168775
v -0.00741558 0.00047389 -0.00168775
v -0.00741558 0.00101646 -0.00161228
v -0.00741558 0.00154344 -0.00146275
v -0.00741558 0.00204480 -0.00124205
v -0.00741558 0.00251096 -0.00095437
v -0.00790459 -0.00157357 -0.00020485
v -0.00790459 -0.00121581 -0.00042563
v -0.00790459 -0.00083104 -0.00059502
v -0.00790459 -0.00042660 -0.00070977
v -0.00790459 -0.00001020 -0.00076769
v -0.00790459 0.00041020 -0.00076769
v -0.00790459 0.00082660 -0.00070977
v -0.00790459 0.00123104 -0.00059502
v -0.00790459 0.00161581 -0.00042563
v -0.00790459 0.00197357 -0.00020485
v -0.00790459 0.00229750 0.00006313
v -0.00790459 0.00258141 0.00037318
v -0.00826082 -0.00141371 0.00098428
v -0.00826082 -0.00122132 0.00077418
v -0.00826082 -0.00100182 0.00059259
v -0.00826082 -0.00075939 0.00044298
v -0.00826082 -0.00049866 0.00032820
v -0.00826082 -0.00022460 0.00025044
v -0.00826082 0.00005756 0.00021119
v -0.00826082 0.00034244 0.00021119
v -0.00826082 0.00062460 0.00025044
v -0.00826082 0.00089866 0.00032820
v -0.00826082 0.00115939 0.00044298
v -0.00826082 0.00140182 0.00059259
v -0.00826082 0.00162132 0.00077418
v -0.00826082 0.00181371 0.00098428
f 6 8 11
f 206 207 88
f 5 117 113
f 14 21 17
f 17 18 14
f 6 11 12
f 15 8 14
f 207 206 311
f 317 311 316
f 1 105 158
f 107 105 106
f 107 106 115
f 115 156 107
f 88 90 200
f 157 107 156
f 161 156 115
f 112 111 159
f 106 113 112
f 113 111 112
f 113 117 118
f 118 111 113
f 265 264 242
f 26 20 27
f 7 5 6
f 242 15 19
f 14 18 19
f 19 15 14
f 10 11 8
f 8 9 10
f 8 15 16
f 16 9 8
f 310 311 206
f 312 317 313
f 311 317 312
f 100 104 158
f 158 157 100
f 100 157 101
f 99 104 100
f 100 98 99
f 101 98 100
f 201 206 88
f 88 200 201
f 92 98 97
f 97 98 101
f 199 200 90
f 199 97 101
f 101 157 199
f 156 161 221
f 160 238 218
f 160 161 115
f 160 222 161
f 159 237 160
f 237 238 160
f 336 337 349
f 57 52 54
f 93 91 92
f 94 199 90
f 95 199 94
f 94 93 95
f 91 93 94
f 62 54 60
f 60 61 62
f 21 20 260
f 140 73 74
f 71 73 140
f 117 5 116
f 5 7 116
f 6 12 13
f 13 7 6
f 335 322 323
f 333 322 334
f 334 345 333
f 346 345 334
f 334 322 335
f 321 322 333
f 159 235 226
f 226 227 159
f 236 237 159
f 159 227 236
f 236 273 237
f 158 105 110
f 110 109 158
f 105 109 110
f 105 107 108
f 108 109 105
f 158 109 108
f 108 157 158
f 107 157 108
f 99 1 102
f 102 1 158
f 255 310 206
f 206 201 255
f 255 201 211
f 92 97 96
f 96 93 92
f 95 93 96
f 96 199 95
f 97 199 96
f 212 157 211
f 212 199 157
f 200 199 212
f 211 201 212
f 212 201 200
f 156 214 215
f 215 216 156
f 215 279 316
f 214 279 215
f 217 157 156
f 156 216 217
f 211 157 217
f 217 255 211
f 217 216 310
f 310 255 217
f 310 216 256
f 316 311 256
f 311 310 256
f 256 215 316
f 216 215 256
f 213 214 156
f 156 221 213
f 213 279 214
f 220 161 225
f 220 221 161
f 221 220 278
f 278 213 221
f 279 213 278
f 161 222 223
f 222 160 228
f 114 112 159
f 159 160 114
f 114 160 115
f 115 106 114
f 106 112 114
f 9 16 231
f 52 59 53
f 57 182 58
f 58 52 57
f 58 59 52
f 324 337 336
f 324 336 335
f 335 323 324
f 272 238 237
f 237 273 272
f 273 324 272
f 218 238 272
f 272 324 323
f 271 236 227
f 273 236 271
f 227 226 271
f 235 270 271
f 271 226 235
f 152 169 153
f 335 336 347
f 347 334 335
f 346 334 347
f 287 360 361
f 360 349 361
f 336 349 348
f 348 349 360
f 348 347 336
f 360 347 348
f 286 360 287
f 287 169 286
f 210 202 88
f 88 209 210
f 208 312 313
f 313 209 208
f 207 311 208
f 311 312 208
f 88 207 208
f 208 209 88
f 25 26 27
f 66 63 64
f 63 72 64
f 74 76 75
f 75 76 77
f 130 63 71
f 71 140 130
f 130 72 63
f 7 13 162
f 162 116 7
f 162 12 159
f 162 13 12
f 117 116 162
f 162 118 117
f 159 111 162
f 111 118 162
f 356 345 357
f 320 321 333
f 313 317 329
f 103 104 99
f 99 102 103
f 158 104 103
f 103 102 158
f 279 278 318
f 318 329 317
f 318 317 316
f 316 279 318
f 225 161 224
f 161 223 224
f 276 223 222
f 322 321 276
f 276 224 223
f 219 160 218
f 219 228 160
f 228 219 274
f 274 219 218
f 218 272 274
f 274 272 323
f 242 264 243
f 243 15 242
f 243 16 15
f 232 10 9
f 9 231 232
f 45 46 44
f 57 54 56
f 141 62 61
f 177 178 153
f 288 178 177
f 154 143 153
f 153 178 154
f 57 56 154
f 267 232 258
f 258 232 231
f 337 324 325
f 325 324 273
f 269 366 328
f 290 364 370
f 290 370 252
f 363 364 290
f 185 133 134
f 351 363 350
f 273 271 326
f 326 325 273
f 326 338 337
f 337 325 326
f 169 152 168
f 168 286 169
f 167 168 152
f 286 168 167
f 88 204 205
f 81 76 80
f 77 76 81
f 189 77 81
f 80 84 79
f 79 83 80
f 84 83 79
f 78 83 84
f 78 86 189
f 189 83 78
f 27 35 39
f 39 25 27
f 298 25 39
f 31 260 20
f 20 32 31
f 22 17 21
f 21 260 2
f 260 30 2
f 17 22 241
f 241 22 30
f 241 30 260
f 146 75 77
f 146 140 74
f 74 75 146
f 146 77 189
f 129 64 72
f 72 130 129
f 129 130 140
f 134 133 149
f 134 149 148
f 332 320 333
f 278 320 319
f 331 318 319
f 319 318 278
f 319 332 331
f 320 332 319
f 202 246 203
f 203 246 204
f 88 202 203
f 203 204 88
f 254 205 204
f 330 318 331
f 329 318 330
f 321 320 277
f 277 276 321
f 277 220 225
f 225 224 277
f 224 276 277
f 277 278 220
f 277 320 278
f 228 274 275
f 222 228 275
f 275 323 322
f 275 274 323
f 322 276 275
f 275 276 222
f 249 35 41
f 11 10 229
f 10 232 229
f 229 232 267
f 46 45 193
f 193 194 46
f 143 154 155
f 155 154 56
f 70 141 61
f 69 141 70
f 65 69 70
f 60 65 70
f 70 61 60
f 68 69 65
f 66 120 121
f 153 143 144
f 144 152 153
f 143 121 144
f 144 121 120
f 153 169 170
f 170 177 153
f 170 169 287
f 170 287 288
f 288 177 170
f 290 252 180
f 267 258 371
f 257 258 231
f 164 53 59
f 164 176 53
f 373 372 383
f 365 269 267
f 365 366 269
f 267 371 365
f 372 366 365
f 365 371 372
f 369 364 368
f 369 370 364
f 182 252 251
f 251 252 370
f 251 370 376
f 188 133 187
f 197 185 134
f 134 148 197
f 197 148 196
f 196 280 197
f 197 280 185
f 283 282 356
f 356 357 283
f 188 282 183
f 183 133 188
f 354 343 355
f 355 282 354
f 356 282 355
f 349 350 362
f 362 361 349
f 288 287 362
f 287 361 362
f 362 363 288
f 362 350 363
f 327 271 270
f 327 326 271
f 270 269 327
f 269 328 327
f 328 340 327
f 338 326 327
f 359 347 360
f 88 205 198
f 198 86 88
f 189 86 198
f 198 190 189
f 198 205 191
f 191 190 198
f 80 83 82
f 82 81 80
f 82 83 189
f 189 81 82
f 20 26 28
f 24 32 20
f 20 23 24
f 4 22 21
f 30 22 4
f 17 241 239
f 18 17 239
f 126 129 138
f 64 129 126
f 139 129 140
f 138 129 139
f 139 148 138
f 137 126 138
f 137 149 150
f 138 148 137
f 137 148 149
f 356 355 344
f 344 355 343
f 344 345 356
f 191 205 195
f 205 254 195
f 195 254 196
f 196 148 195
f 202 210 314
f 354 341 342
f 342 343 354
f 46 194 50
f 50 49 41
f 50 41 44
f 44 46 50
f 194 249 43
f 43 50 194
f 49 50 43
f 233 12 11
f 159 12 233
f 233 269 270
f 55 155 56
f 54 62 55
f 55 56 54
f 122 121 143
f 66 121 122
f 123 141 69
f 69 68 123
f 152 144 145
f 125 135 145
f 179 154 178
f 179 180 154
f 57 154 181
f 154 180 181
f 181 182 57
f 181 252 182
f 181 180 252
f 264 265 261
f 26 25 307
f 307 309 26
f 307 25 306
f 306 394 307
f 394 393 307
f 307 393 392
f 392 309 307
f 397 398 383
f 383 396 397
f 396 304 397
f 383 398 384
f 291 175 176
f 383 372 382
f 382 396 383
f 16 243 266
f 377 251 376
f 164 251 377
f 53 176 51
f 176 175 51
f 51 45 44
f 44 52 51
f 52 53 51
f 192 193 45
f 45 51 192
f 192 51 175
f 292 193 192
f 352 363 351
f 364 363 352
f 368 364 352
f 367 328 366
f 367 340 328
f 367 366 372
f 372 373 367
f 182 251 163
f 163 251 164
f 163 58 182
f 59 58 163
f 163 164 59
f 133 185 186
f 186 187 133
f 245 280 196
f 246 280 245
f 196 254 245
f 204 246 245
f 245 254 204
f 247 280 246
f 185 280 247
f 166 167 152
f 184 283 171
f 282 283 184
f 184 183 282
f 339 327 340
f 338 327 339
f 358 345 346
f 358 357 345
f 346 347 358
f 347 359 358
f 306 25 305
f 25 304 305
f 305 394 306
f 305 395 394
f 305 304 396
f 396 395 305
f 25 302 303
f 303 304 25
f 303 397 304
f 303 302 398
f 398 397 303
f 299 25 298
f 299 300 25
f 301 302 25
f 25 300 301
f 398 302 301
f 29 23 20
f 20 28 29
f 248 24 23
f 23 29 248
f 32 24 248
f 248 29 28
f 248 28 26
f 248 31 32
f 3 2 30
f 21 2 3
f 30 4 3
f 3 4 21
f 148 139 147
f 147 190 191
f 191 195 147
f 147 195 148
f 147 146 189
f 140 146 147
f 147 139 140
f 189 190 147
f 126 137 127
f 128 64 127
f 64 126 127
f 41 49 48
f 49 43 48
f 40 249 41
f 40 43 249
f 35 249 42
f 42 33 35
f 175 291 389
f 300 299 401
f 401 299 298
f 11 229 230
f 230 233 11
f 234 235 159
f 159 233 234
f 234 270 235
f 234 233 270
f 143 155 142
f 142 122 143
f 62 141 142
f 141 123 142
f 142 123 122
f 142 55 62
f 155 55 142
f 66 122 67
f 122 123 67
f 67 123 68
f 67 68 65
f 65 63 67
f 67 63 66
f 136 137 150
f 128 127 136
f 136 127 137
f 124 135 125
f 124 64 128
f 124 125 64
f 128 136 124
f 124 136 135
f 119 144 120
f 119 145 144
f 125 145 119
f 64 125 119
f 66 64 119
f 119 120 66
f 290 180 289
f 180 179 289
f 289 363 290
f 289 179 178
f 289 178 288
f 288 363 289
f 260 31 259
f 259 241 260
f 259 239 241
f 240 261 265
f 18 239 240
f 240 19 18
f 240 265 242
f 242 19 240
f 258 257 380
f 380 371 258
f 244 231 16
f 16 266 244
f 244 257 231
f 244 266 257
f 176 164 378
f 164 377 378
f 378 291 176
f 378 389 291
f 353 314 341
f 353 341 354
f 354 247 353
f 353 247 246
f 281 247 354
f 188 187 281
f 187 186 281
f 281 282 188
f 354 282 281
f 281 186 185
f 185 247 281
f 171 283 172
f 131 173 174
f 131 172 173
f 174 173 253
f 261 248 391
f 391 392 264
f 264 261 391
f 41 48 47
f 47 48 43
f 47 40 41
f 43 40 47
f 38 39 35
f 35 33 34
f 34 36 35
f 298 39 297
f 39 296 297
f 194 193 294
f 292 192 390
f 390 192 175
f 175 389 390
f 389 378 388
f 404 390 403
f 403 390 389
f 298 297 403
f 403 296 404
f 403 297 296
f 269 233 268
f 233 230 268
f 268 230 229
f 267 269 268
f 268 229 267
f 262 248 261
f 239 259 262
f 31 248 262
f 262 259 31
f 262 240 239
f 261 240 262
f 399 384 398
f 399 385 384
f 386 385 399
f 398 301 399
f 399 301 300
f 375 386 376
f 375 385 386
f 374 384 375
f 384 385 375
f 376 370 375
f 370 369 375
f 368 374 375
f 375 369 368
f 371 380 381
f 372 371 381
f 381 382 372
f 381 395 396
f 396 382 381
f 394 395 381
f 381 380 394
f 379 380 257
f 379 393 394
f 394 380 379
f 315 353 246
f 314 353 315
f 315 246 202
f 202 314 315
f 132 131 150
f 172 131 132
f 171 172 132
f 132 184 171
f 183 184 132
f 133 183 132
f 132 149 133
f 150 149 132
f 151 166 152
f 150 131 151
f 151 136 150
f 135 136 151
f 165 131 174
f 174 253 165
f 166 151 165
f 165 151 131
f 357 358 284
f 358 253 284
f 284 253 173
f 173 172 284
f 284 283 357
f 284 172 283
f 285 358 359
f 285 253 358
f 285 165 253
f 166 165 285
f 167 166 285
f 286 167 285
f 360 286 285
f 285 359 360
f 308 391 248
f 26 309 308
f 308 248 26
f 308 309 392
f 392 391 308
f 35 36 37
f 37 38 35
f 36 34 295
f 295 37 36
f 295 34 33
f 38 37 295
f 295 296 39
f 39 38 295
f 33 42 295
f 42 294 295
f 404 296 295
f 250 42 249
f 250 294 42
f 250 249 194
f 194 294 250
f 386 401 387
f 401 388 387
f 376 386 387
f 387 377 376
f 387 378 377
f 387 388 378
f 402 401 298
f 298 403 402
f 402 388 401
f 389 388 402
f 402 403 389
f 400 401 386
f 386 399 400
f 300 401 400
f 400 399 300
f 257 266 263
f 263 379 257
f 263 266 243
f 263 243 264
f 264 392 263
f 392 393 263
f 393 379 263
f 404 295 293
f 293 295 294
f 292 390 293
f 293 390 404
f 293 193 292
f 293 294 193
f 85 87 86
f 86 87 88
f 88 87 89
f 89 90 88
f 94 89 91
f 90 89 94
f 35 1 99
f 71 63 35
f 35 8 6
f 35 65 60
f 92 91 35
f 35 76 74
f 6 5 35
f 74 73 35
f 35 113 106
f 14 8 35
f 35 21 14
f 27 20 35
f 106 105 35
f 99 98 35
f 35 87 85
f 35 5 113
f 35 20 21
f 85 84 35
f 105 1 35
f 35 98 92
f 35 52 44
f 60 54 35
f 35 89 87
f 35 63 65
f 35 73 71
f 44 41 35
f 35 54 52
f 91 89 35
f 35 84 80
f 80 76 35
f 337 338 350
f 350 349 337
f 85 86 78
f 78 84 85
f 331 332 344
f 344 343 331
f 333 345 344
f 344 332 333
f 329 341 314
f 313 329 314
f 314 209 313
f 314 210 209
f 342 341 329
f 329 330 342
f 331 343 342
f 342 330 331
f 374 373 384
f 384 373 383
f 367 352 340
f 368 352 367
f 367 373 374
f 367 374 368
f 340 352 339
f 339 352 351
f 339 350 338
f 351 350 339
f 151 145 135
f 152 145 151

