# https://github.com/mikedh/trimesh
v -0.00134486 0.00767005 0.01729858
v -0.00134486 0.00295280 0.01729858
v -0.00134486 0.00769372 0.00376961
v -0.00181056 0.00766076 0.00356901
v -0.00251369 0.00755540 0.01729858
v -0.00801446 0.00295280 0.01729858
v -0.00134486 0.00295280 0.00376961
v -0.00251369 0.00755540 0.00312989
v -0.00224749 0.00760321 0.00331154
v -0.00490368 0.00295280 0.00150610
v -0.00490434 0.00663358 0.00150610
v -0.00392061 0.00712837 0.00217425
v -0.00322794 0.00737670 0.00264496
v -0.00305069 0.00742126 0.00276501
v -0.00392126 0.00712837 0.01729858
v -0.00797849 0.00307069 0.01729858
v -0.00802689 0.00295280 0.00314726
v -0.00556561 0.00295280 0.00121388
v -0.00521699 0.00643538 0.00133235
v -0.00521699 0.00643538 0.00276501
v -0.00521633 0.00643538 0.01729858
v -0.00392126 0.00712837 0.00276659
v -0.00798372 0.00305909 0.00276659
v -0.00801446 0.00298390 0.00293244
v -0.00728582 0.00436709 0.01729858
v -0.00772274 0.00361887 0.00276501
v -0.00774171 0.00358638 0.00213002
v -0.00790589 0.00324104 0.00247437
v -0.00797456 0.00297136 0.00276501
v -0.00791177 0.00295280 0.00249964
v -0.00628640 0.00295280 0.00117755
v -0.00593450 0.00589000 0.00116175
v -0.00556495 0.00618799 0.00121388
v -0.00553160 0.00621212 0.00276501
v -0.00586387 0.00594430 0.00276659
v -0.00635311 0.00550289 0.01729858
v -0.00797849 0.00307069 0.00272236
v -0.00700196 0.00476163 0.00276659
v -0.00728582 0.00436709 0.00276659
v -0.00753895 0.00396049 0.00185044
v -0.00753895 0.00295280 0.00185044
v -0.00790589 0.00295280 0.00247437
v -0.00697579 0.00295280 0.00140027
v -0.00667884 0.00515616 0.00126916
v -0.00635246 0.00550289 0.00118702
v -0.00628836 0.00556601 0.00117755
v -0.00629490 0.00555998 0.00276659
v -0.00692150 0.00485910 0.00276659
v -0.00635311 0.00550289 0.00276659
v -0.00664875 0.00518819 0.00276501
v -0.00697448 0.00479829 0.00139869
v -0.00728517 0.00436755 0.00160561
v -0.00629490 0.00555998 0.00276501
f 1 2 7
f 1 7 3
f 1 3 4
f 1 4 5
f 1 5 15
f 1 15 21
f 1 21 36
f 1 36 25
f 1 25 16
f 1 16 6
f 1 6 2
f 2 6 17
f 2 17 30
f 2 30 42
f 2 42 41
f 2 41 43
f 2 43 31
f 2 31 18
f 2 18 10
f 2 10 7
f 3 8 9
f 3 9 4
f 3 7 10
f 3 10 11
f 3 11 12
f 3 12 13
f 3 13 14
f 3 14 8
f 4 9 5
f 5 9 8
f 5 8 14
f 5 14 13
f 5 13 15
f 6 16 17
f 10 18 19
f 10 19 11
f 11 19 20
f 11 20 21
f 11 21 15
f 11 15 22
f 11 22 12
f 12 22 13
f 13 22 15
f 16 23 24
f 16 24 17
f 16 25 26
f 16 26 27
f 16 27 28
f 16 28 23
f 17 24 29
f 17 29 30
f 18 31 32
f 18 32 33
f 18 33 19
f 19 33 34
f 19 34 20
f 20 34 21
f 21 35 36
f 21 34 35
f 23 28 37
f 23 37 24
f 24 37 30
f 24 30 29
f 25 36 38
f 25 38 39
f 25 39 40
f 25 40 26
f 26 40 27
f 27 40 41
f 27 41 42
f 27 42 28
f 28 42 37
f 30 37 42
f 31 43 44
f 31 44 45
f 31 45 46
f 31 46 32
f 32 46 47
f 32 47 36
f 32 36 35
f 32 35 33
f 33 35 34
f 36 48 38
f 36 47 53
f 36 53 49
f 36 49 44
f 36 44 50
f 36 50 48
f 38 48 51
f 38 51 52
f 38 52 39
f 39 52 40
f 40 52 41
f 41 52 43
f 43 51 44
f 43 52 51
f 44 49 45
f 44 51 48
f 44 48 50
f 45 49 46
f 46 49 53
f 46 53 47

