# https://github.com/mikedh/trimesh
v -0.00015672 -0.00690000 0.00149178
v 0.00046339 -0.00690000 0.00142636
v 0.00046368 -0.00255161 0.00142636
v -0.00015643 -0.00255161 0.00149149
v -0.00074952 -0.00255161 0.00129903
v -0.00074981 -0.00690000 0.00129903
v 0.00100362 -0.00690000 0.00111446
v 0.00100362 -0.00255161 0.00111446
v -0.00121308 -0.00255161 0.00088169
v -0.00121337 -0.00690000 0.00088140
v 0.00137017 -0.00690000 0.00061009
v 0.00137017 -0.00255161 0.00060980
v -0.00146693 -0.00255161 0.00031191
v -0.00146722 -0.00690000 0.00031162
v 0.00150000 -0.00690000 -0.00000000
v 0.00149971 -0.00255161 -0.00000000
v -0.00146722 -0.00255161 -0.00031162
v -0.00146722 -0.00690000 -0.00031162
v 0.00137017 -0.00690000 -0.00061009
v 0.00137017 -0.00255161 -0.00061009
v -0.00121337 -0.00255161 -0.00088140
v -0.00121337 -0.00690000 -0.00088140
v 0.00100362 -0.00690000 -0.00111446
v 0.00100333 -0.00255161 -0.00111475
v -0.00075010 -0.00255161 -0.00129874
v -0.00074981 -0.00690000 -0.00129903
v 0.00046339 -0.00690000 -0.00142636
v 0.00046310 -0.00255161 -0.00142636
v -0.00015701 -0.00255161 -0.00149149
v -0.00015672 -0.00690000 -0.00149149
f 1 2 3
f 1 3 4
f 1 4 5
f 1 5 6
f 1 6 10
f 1 10 14
f 1 14 18
f 1 18 22
f 1 22 26
f 1 26 30
f 1 30 27
f 1 27 23
f 1 23 19
f 1 19 15
f 1 15 11
f 1 11 7
f 1 7 2
f 2 7 3
f 3 7 8
f 3 8 12
f 3 12 16
f 3 16 20
f 3 20 24
f 3 24 28
f 3 28 29
f 3 29 25
f 3 25 21
f 3 21 17
f 3 17 13
f 3 13 9
f 3 9 5
f 3 5 4
f 5 9 6
f 6 9 10
f 7 11 8
f 8 11 12
f 9 13 14
f 9 14 10
f 11 15 12
f 12 15 16
f 13 17 14
f 14 17 18
f 15 19 20
f 15 20 16
f 17 21 22
f 17 22 18
f 19 23 20
f 20 23 24
f 21 25 26
f 21 26 22
f 23 27 24
f 24 27 28
f 25 29 26
f 26 29 30
f 27 30 29
f 27 29 28

