# https://github.com/mikedh/trimesh
v 0.00584204 0.00315002 0.00797162
v 0.00565051 0.00356896 0.00768591
v 0.00582316 0.00315002 0.01070000
v 0.00149750 0.00314690 0.00000148
v 0.00142466 0.00314690 -0.00036910
v 0.00366775 0.00315047 -0.00077078
v 0.00366775 0.00602775 -0.00077078
v 0.00537400 0.00406989 0.00735636
v 0.00532545 0.00414967 0.01070000
v -0.00792266 0.00315002 0.01070000
v 0.00115355 0.00314690 0.00092084
v 0.00138285 0.00314690 0.00057431
v 0.00148940 0.00314690 0.00004674
v 0.00125201 0.00314690 -0.00077078
v 0.00324422 0.00315047 -0.00183441
v 0.00353017 0.00315047 -0.00116682
v 0.00339124 0.00315091 -0.00157699
v 0.00355714 0.00574341 -0.00116682
v 0.00358277 0.00609549 -0.00110175
v 0.00364617 0.00604468 0.00637618
v 0.00369742 0.00600279 0.00510180
v 0.00372575 0.00597961 -0.00036910
v 0.00532680 0.00414923 0.00730544
v 0.00449188 0.00525405 0.01070000
v 0.00520136 0.00434354 0.00718239
v 0.00484796 0.00483289 0.00681747
v -0.00742629 0.00414967 0.01070000
v -0.00793750 0.00315002 0.00958970
v -0.00147935 0.00314690 0.00004674
v -0.00138358 0.00314690 0.00057431
v -0.00126758 0.00314690 0.00074828
v 0.00021612 0.00314690 0.00092084
v 0.00105913 0.00314690 -0.00105932
v 0.00285306 0.00315047 -0.00243129
v 0.00326040 0.00463278 -0.00183441
v 0.00336561 0.00315091 -0.00164913
v 0.00355714 0.00611465 -0.00116682
v 0.00354096 0.00612847 -0.00077078
v 0.00351398 0.00614986 0.00637618
v 0.00336561 0.00625950 -0.00164913
v 0.00183605 0.00744054 -0.00011450
v 0.00346947 0.00618418 0.01070000
v 0.00383905 0.00588112 0.00637618
v 0.00378240 0.00593104 0.00510180
v 0.00374193 0.00596580 0.00004674
v 0.00373519 0.00597115 -0.00030262
v 0.00449188 0.00525450 0.00637618
v 0.00418974 0.00556335 0.00592499
v 0.00408858 0.00565293 0.00637618
v -0.00659137 0.00525405 0.01070000
v -0.00701895 0.00474064 0.00637618
v -0.00704862 0.00470008 0.00637618
v -0.00711067 0.00461050 0.00637476
v -0.00742629 0.00414967 0.00705226
v -0.00776350 0.00354400 0.00777502
v -0.00793750 0.00315002 0.00814701
v -0.00135526 0.00314690 -0.00061662
v 0.00089997 0.00314690 -0.00116682
v 0.00216381 0.00315047 -0.00306070
v 0.00258599 0.00675866 -0.00271417
v 0.00285306 0.00660267 -0.00243129
v 0.00313227 0.00642440 -0.00205930
v 0.00326040 0.00633482 -0.00183441
v 0.00346947 0.00618418 0.00637618
v 0.00176456 0.00748644 -0.00010885
v 0.00229195 0.00691241 0.01070000
v 0.00391863 0.00581382 0.00542570
v -0.00556897 0.00618418 0.01070000
v -0.00602892 0.00580224 0.00510180
v -0.00626496 0.00557806 0.00637618
v -0.00615301 0.00568948 0.00432530
v -0.00651584 0.00532937 0.00510180
v -0.00659137 0.00525405 0.00587124
v -0.00659002 0.00525405 0.00526446
v -0.00703244 0.00472192 0.00621211
v -0.00448587 0.00686071 0.00074828
v -0.00384922 0.00715531 -0.00061662
v -0.00448587 0.00419424 0.00074828
v -0.00726174 0.00315002 0.00669866
v -0.00384922 0.00651977 -0.00061662
v -0.00323956 0.00315047 -0.00183441
v -0.00289965 0.00315047 -0.00237613
v -0.00105717 0.00314690 -0.00105932
v -0.00004286 0.00314690 -0.00116682
v -0.00000239 0.00314735 -0.00149920
v 0.00043058 0.00315047 -0.00372405
v 0.00133834 0.00315047 -0.00350199
v 0.00176861 0.00714907 -0.00330539
v 0.00216381 0.00697570 -0.00306070
v 0.00229600 0.00691108 -0.00296311
v 0.00168094 0.00748644 -0.00054448
v 0.00161484 0.00749937 -0.00052326
v 0.00169308 0.00749937 -0.00010460
v 0.00168633 0.00749937 0.00004674
v 0.00175377 0.00748689 0.00004674
v 0.00175512 0.00748644 0.00004674
v 0.00100113 0.00741335 0.01070000
v 0.00173624 0.00748689 0.00033245
v -0.00439280 0.00691241 0.01070000
v -0.00468819 0.00674840 0.00637618
v -0.00498898 0.00657949 0.00196608
v -0.00500381 0.00656969 0.00196608
v -0.00505237 0.00653715 0.00196466
v -0.00556897 0.00618418 0.00637618
v -0.00556897 0.00618373 0.00510180
v -0.00556762 0.00618329 0.00307355
v -0.00609096 0.00574831 0.00432530
v -0.00610850 0.00573271 0.00432530
v -0.00616784 0.00567433 0.00510180
v -0.00609771 0.00574162 0.00421498
v -0.00549478 0.00623365 0.00291656
v -0.00499572 0.00657504 0.00184727
v -0.00454387 0.00682863 0.00510180
v -0.00439280 0.00691241 0.00637618
v -0.00439145 0.00691241 0.00054885
v -0.00390183 0.00713480 -0.00050063
v -0.00341086 0.00730594 0.00637618
v -0.00310198 0.00741335 0.01070000
v -0.00320584 0.00738126 0.00637618
v -0.00339737 0.00732199 -0.00157699
v -0.00340007 0.00732065 -0.00157699
v -0.00362667 0.00315091 -0.00109185
v -0.00384787 0.00315047 -0.00061520
v -0.00340007 0.00315091 -0.00157699
v -0.00339602 0.00315091 -0.00158407
v -0.00310063 0.00741335 -0.00210598
v -0.00289965 0.00746772 -0.00237613
v -0.00257998 0.00754171 -0.00271841
v -0.00222255 0.00315047 -0.00301968
v -0.00101131 0.00314690 -0.00109185
v -0.00050280 0.00315047 -0.00371557
v 0.00003538 0.00762059 -0.00374951
v 0.00043058 0.00755196 -0.00372405
v 0.00100113 0.00741335 -0.00361231
v 0.00133834 0.00730862 -0.00350199
v -0.00035848 0.00766694 0.01070000
v -0.00035848 0.00766783 -0.00373254
v -0.00050280 0.00767987 -0.00371557
v 0.00166745 0.00749937 0.00031972
v -0.00420396 0.00699843 0.00637618
v -0.00416485 0.00701581 0.00291656
v -0.00310198 0.00741335 0.00637618
v -0.00325574 0.00736611 -0.00183441
v -0.00174102 0.00766694 0.01070000
v -0.00311142 0.00741023 -0.00183441
v -0.00222255 0.00760722 -0.00301968
v -0.00174102 0.00766783 -0.00331953
v -0.00140516 0.00315047 -0.00347512
v -0.00096140 0.00769903 -0.00362363
v -0.00068894 0.00768923 0.00187980
v -0.00069973 0.00768967 0.00196608
v -0.00102075 0.00769858 0.00196608
v -0.00068759 0.00769101 -0.00187685
v -0.00187860 0.00765268 0.00068463
v -0.00199729 0.00763797 0.00000148
v -0.00125544 0.00769145 0.00347383
v -0.00128377 0.00769457 0.00196608
v -0.00130400 0.00769413 0.00196608
v -0.00163311 0.00767541 0.00587124
v -0.00158725 0.00767987 -0.00183441
v -0.00174102 0.00766783 -0.00183441
v -0.00187725 0.00765313 -0.00068309
v -0.00196897 0.00764154 -0.00034505
v -0.00140516 0.00769145 -0.00347512
v -0.00077931 0.00769368 -0.00183441
v -0.00128242 0.00769546 -0.00153173
v -0.00121768 0.00769636 -0.00157699
v -0.00102480 0.00769858 -0.00183441
v -0.00099917 0.00769814 0.00173270
v -0.00156567 0.00768031 0.00291656
v -0.00157781 0.00767942 0.00347383
v -0.00152925 0.00768343 -0.00128421
f 1 2 3
f 1 3 4
f 1 4 5
f 1 5 6
f 1 6 7
f 1 7 2
f 2 8 9
f 2 9 3
f 2 7 8
f 3 9 24
f 3 24 42
f 3 42 66
f 3 66 97
f 3 97 136
f 3 136 144
f 3 144 118
f 3 118 99
f 3 99 68
f 3 68 50
f 3 50 27
f 3 27 10
f 3 10 32
f 3 32 11
f 3 11 12
f 3 12 13
f 3 13 4
f 4 13 12
f 4 12 11
f 4 11 32
f 4 32 31
f 4 31 30
f 4 30 29
f 4 29 57
f 4 57 83
f 4 83 130
f 4 130 84
f 4 84 58
f 4 58 33
f 4 33 14
f 4 14 5
f 5 14 15
f 5 15 16
f 5 16 6
f 6 16 17
f 6 17 18
f 6 18 19
f 6 19 7
f 7 19 20
f 7 20 21
f 7 21 22
f 7 22 8
f 8 23 9
f 8 22 23
f 9 23 25
f 9 25 26
f 9 26 24
f 10 27 28
f 10 28 29
f 10 29 30
f 10 30 31
f 10 31 32
f 14 33 34
f 14 34 15
f 15 34 35
f 15 35 36
f 15 36 16
f 16 36 17
f 17 36 18
f 18 36 40
f 18 40 37
f 18 37 19
f 19 38 39
f 19 39 20
f 19 37 40
f 19 40 41
f 19 41 38
f 20 39 42
f 20 42 43
f 20 43 44
f 20 44 21
f 21 44 22
f 22 44 45
f 22 45 46
f 22 46 23
f 23 46 25
f 24 26 47
f 24 47 48
f 24 48 49
f 24 49 43
f 24 43 42
f 25 46 26
f 26 46 47
f 27 50 51
f 27 51 52
f 27 52 53
f 27 53 54
f 27 54 55
f 27 55 28
f 28 55 56
f 28 56 29
f 29 56 57
f 33 58 59
f 33 59 34
f 34 59 60
f 34 60 61
f 34 61 62
f 34 62 35
f 35 62 63
f 35 63 40
f 35 40 36
f 38 41 64
f 38 64 39
f 39 64 42
f 40 63 41
f 41 65 42
f 41 42 64
f 41 63 62
f 41 62 61
f 41 61 60
f 41 60 65
f 42 65 66
f 43 49 48
f 43 48 67
f 43 67 44
f 44 67 45
f 45 67 48
f 45 48 46
f 46 48 47
f 50 68 69
f 50 69 70
f 50 70 71
f 50 71 72
f 50 72 73
f 50 73 51
f 51 73 74
f 51 74 75
f 51 75 52
f 52 75 53
f 53 56 54
f 53 75 74
f 53 74 72
f 53 72 76
f 53 76 77
f 53 77 56
f 54 56 55
f 56 78 79
f 56 79 57
f 56 77 80
f 56 80 78
f 57 81 82
f 57 82 83
f 57 79 81
f 58 84 85
f 58 85 86
f 58 86 87
f 58 87 59
f 59 87 88
f 59 88 89
f 59 89 90
f 59 90 60
f 60 90 65
f 65 90 89
f 65 89 91
f 65 91 92
f 65 92 93
f 65 93 94
f 65 94 95
f 65 95 96
f 65 96 66
f 66 96 98
f 66 98 97
f 68 99 100
f 68 100 101
f 68 101 102
f 68 102 103
f 68 103 104
f 68 104 69
f 69 105 106
f 69 106 107
f 69 107 108
f 69 108 109
f 69 109 70
f 69 104 105
f 70 109 71
f 71 108 110
f 71 110 106
f 71 106 111
f 71 111 103
f 71 103 72
f 71 109 108
f 72 74 73
f 72 103 76
f 76 103 112
f 76 112 101
f 76 101 100
f 76 100 113
f 76 113 114
f 76 114 115
f 76 115 77
f 77 115 116
f 77 116 117
f 77 117 118
f 77 118 119
f 77 119 120
f 77 120 121
f 77 121 124
f 77 124 80
f 78 80 122
f 78 122 79
f 79 122 123
f 79 123 81
f 80 124 122
f 81 124 125
f 81 125 126
f 81 126 82
f 81 123 124
f 82 126 127
f 82 127 128
f 82 128 129
f 82 129 83
f 83 129 130
f 84 130 85
f 85 130 131
f 85 131 86
f 86 132 133
f 86 133 134
f 86 134 87
f 86 131 132
f 87 135 88
f 87 134 135
f 88 135 91
f 88 91 89
f 91 135 134
f 91 134 133
f 91 133 92
f 92 133 132
f 92 132 93
f 93 136 94
f 93 132 137
f 93 137 138
f 93 138 136
f 94 139 98
f 94 98 95
f 94 136 139
f 95 98 96
f 97 98 136
f 98 139 136
f 99 118 140
f 99 140 114
f 99 114 113
f 99 113 100
f 101 112 102
f 102 112 103
f 103 111 105
f 103 105 104
f 105 111 106
f 106 110 107
f 107 110 108
f 114 140 115
f 115 140 141
f 115 141 116
f 116 141 140
f 116 140 117
f 117 140 118
f 118 142 143
f 118 143 119
f 118 144 128
f 118 128 127
f 118 127 142
f 119 143 120
f 120 143 121
f 121 143 124
f 122 124 123
f 124 143 126
f 124 126 125
f 126 143 145
f 126 145 142
f 126 142 127
f 128 146 129
f 128 144 146
f 129 146 147
f 129 147 148
f 129 148 130
f 130 148 131
f 131 148 149
f 131 149 138
f 131 138 137
f 131 137 132
f 136 150 151
f 136 151 152
f 136 152 144
f 136 138 153
f 136 153 150
f 138 149 153
f 142 145 143
f 144 154 155
f 144 155 146
f 144 152 156
f 144 156 157
f 144 157 158
f 144 158 159
f 144 159 160
f 144 160 161
f 144 161 162
f 144 162 154
f 146 162 147
f 146 155 163
f 146 163 162
f 147 164 148
f 147 162 161
f 147 161 160
f 147 160 164
f 148 164 149
f 149 165 153
f 149 164 166
f 149 166 167
f 149 167 168
f 149 168 152
f 149 152 169
f 149 169 165
f 150 153 151
f 151 153 165
f 151 165 169
f 151 169 152
f 152 157 156
f 152 168 167
f 152 167 166
f 152 166 157
f 154 162 155
f 155 162 163
f 157 166 158
f 158 170 171
f 158 171 159
f 158 166 164
f 158 164 170
f 159 171 170
f 159 170 160
f 160 172 164
f 160 170 172
f 164 172 170

