# https://github.com/mikedh/trimesh
v -0.00108822 0.00769519 0.00278936
v -0.00112857 0.00769519 0.00278936
v -0.00113408 0.00769296 0.00335309
v -0.00093047 0.00768804 0.00335309
v -0.00079749 0.00768760 0.00278936
v 0.00202636 0.00703865 0.00074910
v -0.00043522 0.00703865 0.00074736
v -0.00145415 0.00703865 0.00074707
v -0.00134685 0.00769117 0.00278936
v -0.00137345 0.00768938 0.00335309
v -0.00123863 0.00769162 0.00335309
v -0.00117810 0.00769251 0.00335309
v -0.00411567 0.00703865 0.00074707
v 0.00308290 0.00450717 0.00371873
v 0.00341215 0.00450717 0.00371873
v -0.00086627 0.00768626 0.00335309
v -0.00036002 0.00766661 0.00335309
v -0.00036002 0.00766661 0.00278936
v 0.00027923 0.00757683 0.00278936
v 0.00040671 0.00755316 0.00278936
v 0.00071762 0.00748617 0.00278936
v 0.00100009 0.00741248 0.00278936
v 0.00124680 0.00733744 0.00278936
v 0.00165126 0.00718782 0.00278936
v 0.00179250 0.00713333 0.00278936
v 0.00183285 0.00711770 0.00278936
v 0.00202636 0.00703865 0.00112580
v 0.00226390 0.00692655 0.00131022
v 0.00223822 0.00693860 0.00074910
v -0.00007295 0.00763311 0.00278936
v -0.00003168 0.00762820 0.00278936
v 0.00003068 0.00649868 0.00074736
v 0.00229417 0.00691181 0.00074910
v 0.00320580 0.00636692 0.00074910
v 0.00327366 0.00632405 0.00074910
v 0.00328559 0.00631601 0.00074910
v 0.00344242 0.00620301 0.00074910
v 0.00347177 0.00618157 0.00074910
v 0.00355981 0.00611413 0.00074910
v 0.00366803 0.00602838 0.00074910
v -0.00145415 0.00315076 0.00074707
v -0.00156329 0.00768090 0.00278936
v -0.00139821 0.00768849 0.00335309
v -0.00439173 0.00691315 0.00074707
v -0.00422206 0.00699041 0.00164648
v -0.00411567 0.00703865 0.00164648
v -0.00404506 0.00706947 0.00278936
v -0.00366628 0.00721641 0.00278936
v -0.00329117 0.00735397 0.00278936
v -0.00317286 0.00739059 0.00278936
v -0.00310041 0.00741248 0.00278936
v -0.00223463 0.00758755 0.00278936
v -0.00174030 0.00766661 0.00278936
v 0.00246567 0.00386938 0.00371873
v -0.00150643 0.00768313 0.00335309
v -0.00157613 0.00767956 0.00335309
v -0.00160365 0.00767777 0.00335309
v -0.00165409 0.00767375 0.00335309
v -0.00174030 0.00766661 0.00335309
v -0.00228691 0.00757728 0.00335309
v -0.00229700 0.00757549 0.00335309
v -0.00310041 0.00741248 0.00335309
v -0.00327741 0.00735799 0.00335309
v -0.00362593 0.00723070 0.00335309
v -0.00406982 0.00705830 0.00335309
v -0.00410925 0.00704088 0.00335309
v -0.00439173 0.00691225 0.00335309
v -0.00447978 0.00686357 0.00335309
v -0.00489340 0.00663311 0.00335309
v -0.00504565 0.00653977 0.00335309
v -0.00509242 0.00650895 0.00335309
v -0.00518138 0.00644910 0.00335309
v -0.00551705 0.00621998 0.00335309
v -0.00556841 0.00618425 0.00335309
v -0.00569498 0.00608019 0.00335309
v -0.00570140 0.00607483 0.00335309
v 0.00335346 0.00626866 0.00335309
v 0.00333786 0.00627983 0.00335309
v 0.00324890 0.00633521 0.00335309
v 0.00269312 0.00667063 0.00335309
v 0.00229417 0.00691136 0.00335309
v 0.00208414 0.00701006 0.00335309
v 0.00205296 0.00702391 0.00335309
v 0.00197317 0.00705830 0.00335309
v 0.00190530 0.00708688 0.00335309
v 0.00186587 0.00710296 0.00335309
v 0.00182826 0.00711770 0.00335309
v 0.00169711 0.00716817 0.00335309
v 0.00122938 0.00734280 0.00335309
v 0.00099918 0.00741292 0.00335309
v 0.00094965 0.00742632 0.00335309
v 0.00083042 0.00745714 0.00335309
v 0.00073688 0.00748081 0.00335309
v 0.00068460 0.00749242 0.00335309
v 0.00055437 0.00752056 0.00335309
v 0.00044981 0.00754289 0.00335309
v 0.00031224 0.00756879 0.00335309
v 0.00023337 0.00758309 0.00335309
v 0.00005086 0.00761346 0.00335309
v -0.00005461 0.00763088 0.00335309
v -0.00012523 0.00763936 0.00335309
v -0.00024721 0.00765365 0.00335309
v 0.00342132 0.00315121 0.00371873
v 0.00196400 0.00706321 0.00278936
v 0.00202545 0.00703865 0.00161884
v 0.00207497 0.00701542 0.00278936
v 0.00229417 0.00691181 0.00278936
v 0.00003068 0.00313245 0.00074736
v 0.00332227 0.00629144 0.00278936
v 0.00333144 0.00628563 0.00278936
v 0.00331677 0.00629501 0.00131022
v 0.00346901 0.00618470 0.00154380
v 0.00333603 0.00628162 0.00164648
v 0.00358732 0.00609314 0.00108856
v 0.00366803 0.00528832 0.00074910
v -0.00448528 0.00315076 0.00074707
v -0.00448528 0.00686178 0.00074707
v -0.00439173 0.00691315 0.00278936
v -0.00415511 0.00702034 0.00278936
v 0.00246567 0.00315121 0.00371873
v -0.00493192 0.00661212 0.00278936
v -0.00499704 0.00657594 0.00184573
v -0.00505757 0.00653441 0.00278936
v -0.00513186 0.00648394 0.00278936
v -0.00556841 0.00618425 0.00307093
v -0.00543726 0.00627447 0.00278936
v -0.00570140 0.00315121 0.00335309
v -0.00490533 0.00662775 0.00164648
v 0.00202270 0.00703820 0.00278936
v 0.00364510 0.00315031 0.00074910
v -0.00000050 0.00313245 0.00149987
v 0.00057363 0.00313245 0.00138585
v 0.00105971 0.00313245 0.00106093
v 0.00126790 0.00313245 0.00074910
v -0.00126981 0.00313245 0.00074736
v 0.00336446 0.00626152 0.00217734
v -0.00490533 0.00315076 0.00164648
v -0.00543726 0.00315076 0.00278936
v -0.00105979 0.00313245 0.00106093
v -0.00057462 0.00313245 0.00138585
f 1 2 3
f 1 3 4
f 1 4 5
f 1 5 6
f 1 6 7
f 1 7 8
f 1 8 13
f 1 13 2
f 2 9 10
f 2 10 11
f 2 11 12
f 2 12 3
f 2 13 9
f 3 12 14
f 3 14 15
f 3 15 4
f 4 16 5
f 4 15 16
f 5 16 17
f 5 17 18
f 5 18 6
f 6 19 20
f 6 20 21
f 6 21 22
f 6 22 23
f 6 23 24
f 6 24 25
f 6 25 26
f 6 26 27
f 6 27 28
f 6 28 29
f 6 29 7
f 6 18 30
f 6 30 31
f 6 31 19
f 7 32 8
f 7 29 33
f 7 33 34
f 7 34 35
f 7 35 36
f 7 36 37
f 7 37 38
f 7 38 39
f 7 39 40
f 7 40 32
f 8 32 108
f 8 108 41
f 8 41 116
f 8 116 117
f 8 117 44
f 8 44 13
f 9 42 43
f 9 43 10
f 9 13 42
f 10 43 14
f 10 14 11
f 11 14 12
f 13 44 45
f 13 45 46
f 13 46 47
f 13 47 48
f 13 48 49
f 13 49 50
f 13 50 51
f 13 51 52
f 13 52 53
f 13 53 42
f 14 54 120
f 14 120 103
f 14 103 15
f 14 43 55
f 14 55 56
f 14 56 57
f 14 57 58
f 14 58 59
f 14 59 60
f 14 60 61
f 14 61 62
f 14 62 63
f 14 63 64
f 14 64 65
f 14 65 66
f 14 66 67
f 14 67 68
f 14 68 69
f 14 69 70
f 14 70 71
f 14 71 72
f 14 72 73
f 14 73 74
f 14 74 75
f 14 75 76
f 14 76 54
f 15 77 78
f 15 78 79
f 15 79 80
f 15 80 81
f 15 81 82
f 15 82 83
f 15 83 84
f 15 84 85
f 15 85 86
f 15 86 87
f 15 87 88
f 15 88 89
f 15 89 90
f 15 90 91
f 15 91 92
f 15 92 93
f 15 93 94
f 15 94 95
f 15 95 96
f 15 96 97
f 15 97 98
f 15 98 99
f 15 99 100
f 15 100 101
f 15 101 102
f 15 102 17
f 15 17 16
f 15 103 40
f 15 40 77
f 17 102 18
f 18 102 30
f 19 97 20
f 19 31 99
f 19 99 98
f 19 98 97
f 20 97 96
f 20 96 95
f 20 95 21
f 21 95 94
f 21 94 93
f 21 93 92
f 21 92 91
f 21 91 22
f 22 91 90
f 22 90 23
f 23 90 89
f 23 89 24
f 24 89 88
f 24 88 87
f 24 87 25
f 25 87 26
f 26 86 85
f 26 85 104
f 26 104 105
f 26 105 27
f 26 87 86
f 27 105 106
f 27 106 28
f 28 33 29
f 28 106 107
f 28 107 33
f 30 102 101
f 30 101 31
f 31 101 100
f 31 100 99
f 32 40 115
f 32 115 108
f 33 107 34
f 34 107 81
f 34 81 80
f 34 80 79
f 34 79 109
f 34 109 35
f 35 109 110
f 35 110 36
f 36 110 111
f 36 111 37
f 37 112 38
f 37 111 113
f 37 113 112
f 38 112 39
f 39 112 114
f 39 114 40
f 40 114 77
f 40 103 115
f 41 108 135
f 41 135 116
f 42 53 58
f 42 58 57
f 42 57 56
f 42 56 55
f 42 55 43
f 44 117 118
f 44 118 45
f 45 118 46
f 46 66 47
f 46 118 119
f 46 119 66
f 47 66 65
f 47 65 64
f 47 64 48
f 48 64 49
f 49 64 63
f 49 63 50
f 50 63 62
f 50 62 51
f 51 62 61
f 51 61 52
f 52 61 60
f 52 60 59
f 52 59 53
f 53 59 58
f 54 76 127
f 54 127 120
f 66 119 118
f 66 118 67
f 67 118 68
f 68 118 69
f 69 121 70
f 69 118 121
f 70 121 122
f 70 122 123
f 70 123 71
f 71 123 72
f 72 123 124
f 72 124 73
f 73 125 74
f 73 124 126
f 73 126 125
f 74 125 75
f 75 125 76
f 76 125 126
f 76 126 128
f 76 128 137
f 76 137 127
f 77 114 112
f 77 112 110
f 77 110 78
f 78 110 109
f 78 109 79
f 81 106 82
f 81 107 106
f 82 106 83
f 83 106 129
f 83 129 84
f 84 129 104
f 84 104 85
f 103 130 115
f 103 120 131
f 103 131 132
f 103 132 133
f 103 133 134
f 103 134 130
f 104 129 105
f 105 129 106
f 108 115 130
f 108 130 134
f 108 134 133
f 108 133 132
f 108 132 131
f 108 131 140
f 108 140 139
f 108 139 135
f 110 113 111
f 110 112 136
f 110 136 113
f 112 113 136
f 116 137 128
f 116 128 117
f 116 135 137
f 117 128 118
f 118 128 121
f 120 127 131
f 121 128 122
f 122 128 126
f 122 126 124
f 122 124 123
f 127 137 138
f 127 138 135
f 127 135 139
f 127 139 140
f 127 140 131
f 135 138 137

