# https://github.com/mikedh/trimesh
v 0.00008706 0.00703890 -0.00374616
v 0.00043114 0.00703890 -0.00372459
v 0.00043114 0.00315042 -0.00372459
v -0.00050200 0.00315042 -0.00371579
v -0.00003301 0.00703890 -0.00374484
v 0.00095170 0.00703890 -0.00362295
v 0.00057297 0.00313321 -0.00138586
v -0.00000078 0.00313321 -0.00149938
v 0.00133850 0.00315042 -0.00350194
v -0.00050200 0.00703890 -0.00371579
v -0.00037790 0.00703890 -0.00373031
v -0.00057291 0.00313321 -0.00138586
v -0.00140613 0.00315042 -0.00347554
v -0.00089444 0.00703890 -0.00363747
v 0.00103067 0.00703890 -0.00360315
v 0.00216366 0.00315042 -0.00306192
v 0.00106049 0.00313321 -0.00106068
v 0.00132480 0.00313245 -0.00066334
v -0.00132394 0.00313245 -0.00066334
v 0.00133850 0.00703890 -0.00350194
v 0.00175753 0.00703890 -0.00331097
v 0.00178009 0.00703890 -0.00329909
v -0.00057452 0.00313321 -0.00138498
v -0.00222163 0.00315042 -0.00301967
v -0.00169462 0.00703890 -0.00334221
v -0.00140613 0.00703890 -0.00347554
v -0.00102498 0.00703890 -0.00360271
v 0.00216366 0.00697543 -0.00306192
v 0.00229582 0.00691080 -0.00296379
v 0.00258672 0.00675823 -0.00271430
v 0.00285425 0.00315042 -0.00243136
v 0.00138524 0.00313245 -0.00057401
v -0.00138357 0.00313245 -0.00057401
v -0.00290013 0.00315042 -0.00237636
v -0.00106044 0.00313321 -0.00106068
v 0.00202103 0.00703890 -0.00314992
v -0.00253993 0.00703890 -0.00275390
v -0.00222163 0.00703890 -0.00301967
v -0.00180743 0.00703890 -0.00327841
v 0.00223941 0.00693872 0.00074871
v 0.00229582 0.00691195 0.00012651
v 0.00229582 0.00691195 -0.00066378
v 0.00202667 0.00703890 0.00012651
v 0.00202667 0.00703890 0.00074871
v 0.00229501 0.00691195 0.00074871
v 0.00285425 0.00660260 -0.00243136
v 0.00313226 0.00642403 -0.00205998
v 0.00326361 0.00459507 -0.00183072
v 0.00324830 0.00315042 -0.00183072
v 0.00144648 0.00313245 -0.00026863
v 0.00336676 0.00315042 -0.00164943
v 0.00340705 0.00315042 -0.00153283
v 0.00367861 0.00315042 -0.00066334
v -0.00144481 0.00313245 -0.00026731
v -0.00448599 0.00315004 0.00074651
v -0.00419670 0.00315004 0.00012651
v -0.00339813 0.00315042 -0.00158475
v -0.00324341 0.00315042 -0.00183072
v -0.00308386 0.00703890 -0.00212994
v -0.00290013 0.00703890 -0.00237636
v -0.00261729 0.00703890 -0.00267997
v 0.00043356 0.00703890 0.00074871
v 0.00320720 0.00636705 0.00074871
v 0.00313226 0.00642364 -0.00183072
v 0.00327489 0.00632422 0.00074871
v 0.00314515 0.00641523 -0.00183072
v 0.00326361 0.00633264 -0.00183072
v 0.00149886 0.00313245 -0.00000022
v 0.00336676 0.00626037 -0.00164943
v 0.00341349 0.00377906 -0.00153283
v 0.00367055 0.00315080 -0.00076542
v 0.00374630 0.00315004 0.00016655
v 0.00374227 0.00315004 0.00012651
v -0.00149800 0.00313245 -0.00000022
v -0.00448599 0.00686186 0.00074651
v -0.00147463 0.00313245 0.00012651
v -0.00138518 0.00313245 0.00057358
v -0.00138357 0.00313245 0.00057666
v -0.00126995 0.00313245 0.00074651
v 0.00003065 0.00313245 0.00074871
v -0.00419670 0.00700181 0.00012651
v -0.00339813 0.00703890 -0.00158475
v 0.00003065 0.00649974 0.00074871
v -0.00411692 0.00703890 0.00074651
v -0.00439251 0.00691310 0.00074651
v 0.00316127 0.00640414 -0.00153239
v 0.00328698 0.00631619 0.00074871
v 0.00323138 0.00635520 -0.00026863
v 0.00147468 0.00313245 0.00012651
v 0.00364638 0.00315004 0.00074871
v 0.00342397 0.00621830 0.00012651
v 0.00347635 0.00617930 0.00012651
v 0.00341349 0.00622519 -0.00153283
v 0.00358352 0.00609556 -0.00110160
v 0.00367055 0.00602673 -0.00076542
v 0.00373663 0.00597166 -0.00030471
v 0.00373743 0.00575523 -0.00026863
v 0.00374549 0.00338788 0.00012651
v 0.00374549 0.00596555 0.00016655
v 0.00369553 0.00600684 0.00063430
v -0.00439251 0.00691310 0.00054718
v 0.00126839 0.00313245 0.00074871
v -0.00411692 0.00703890 0.00012651
v -0.00342230 0.00703890 -0.00153283
v 0.00344331 0.00620339 0.00074871
v 0.00138604 0.00313245 0.00057182
v 0.00138524 0.00313245 0.00057358
v 0.00366813 0.00528796 0.00074871
v 0.00347312 0.00618159 0.00074871
v 0.00356096 0.00611429 0.00074871
v 0.00352711 0.00613953 -0.00066378
v 0.00373743 0.00597166 -0.00026863
v 0.00366813 0.00602864 0.00074871
f 1 2 3
f 1 3 4
f 1 4 5
f 1 5 11
f 1 11 10
f 1 10 14
f 1 14 27
f 1 27 26
f 1 26 25
f 1 25 39
f 1 39 38
f 1 38 37
f 1 37 61
f 1 61 60
f 1 60 59
f 1 59 82
f 1 82 104
f 1 104 103
f 1 103 84
f 1 84 62
f 1 62 44
f 1 44 43
f 1 43 36
f 1 36 22
f 1 22 21
f 1 21 20
f 1 20 15
f 1 15 6
f 1 6 2
f 2 6 3
f 3 7 8
f 3 8 4
f 3 6 9
f 3 9 7
f 4 10 11
f 4 11 5
f 4 8 12
f 4 12 13
f 4 13 14
f 4 14 10
f 6 15 9
f 7 9 16
f 7 16 17
f 7 17 18
f 7 18 8
f 8 18 19
f 8 19 12
f 9 15 20
f 9 20 21
f 9 21 22
f 9 22 16
f 12 23 13
f 12 19 23
f 13 24 25
f 13 25 26
f 13 26 27
f 13 27 14
f 13 23 24
f 16 28 29
f 16 29 30
f 16 30 31
f 16 31 17
f 16 22 28
f 17 31 18
f 18 32 50
f 18 50 68
f 18 68 89
f 18 89 106
f 18 106 107
f 18 107 102
f 18 102 80
f 18 80 79
f 18 79 78
f 18 78 77
f 18 77 76
f 18 76 74
f 18 74 54
f 18 54 33
f 18 33 19
f 18 31 32
f 19 33 34
f 19 34 35
f 19 35 23
f 22 36 28
f 23 35 24
f 24 37 38
f 24 38 39
f 24 39 25
f 24 35 34
f 24 34 37
f 28 40 41
f 28 41 42
f 28 42 29
f 28 36 43
f 28 43 44
f 28 44 40
f 29 42 30
f 30 42 41
f 30 41 45
f 30 45 46
f 30 46 31
f 31 46 47
f 31 47 48
f 31 48 49
f 31 49 32
f 32 49 51
f 32 51 52
f 32 52 53
f 32 53 50
f 33 54 55
f 33 55 56
f 33 56 57
f 33 57 58
f 33 58 34
f 34 58 59
f 34 59 60
f 34 60 61
f 34 61 37
f 40 45 41
f 40 44 62
f 40 62 83
f 40 83 80
f 40 80 102
f 40 102 90
f 40 90 108
f 40 108 113
f 40 113 110
f 40 110 109
f 40 109 105
f 40 105 87
f 40 87 65
f 40 65 63
f 40 63 45
f 45 63 46
f 46 64 47
f 46 63 65
f 46 65 64
f 47 64 66
f 47 66 67
f 47 67 48
f 48 67 69
f 48 69 51
f 48 51 49
f 50 53 68
f 51 69 93
f 51 93 70
f 51 70 52
f 52 70 71
f 52 71 53
f 53 71 72
f 53 72 73
f 53 73 68
f 54 74 55
f 55 75 81
f 55 81 56
f 55 74 76
f 55 76 77
f 55 77 78
f 55 78 79
f 55 79 80
f 55 80 83
f 55 83 75
f 56 81 82
f 56 82 57
f 57 82 59
f 57 59 58
f 62 84 85
f 62 85 75
f 62 75 83
f 64 86 66
f 64 65 86
f 65 87 88
f 65 88 86
f 66 86 67
f 67 86 88
f 67 88 69
f 68 73 72
f 68 72 90
f 68 90 89
f 69 87 91
f 69 91 92
f 69 92 93
f 69 88 87
f 70 93 94
f 70 94 71
f 71 94 95
f 71 95 96
f 71 96 97
f 71 97 98
f 71 98 72
f 72 99 100
f 72 100 90
f 72 98 99
f 75 85 101
f 75 101 81
f 81 101 103
f 81 103 104
f 81 104 82
f 84 103 101
f 84 101 85
f 87 105 91
f 89 90 106
f 90 102 107
f 90 107 106
f 90 100 108
f 91 105 109
f 91 109 92
f 92 109 110
f 92 110 111
f 92 111 93
f 93 111 94
f 94 111 110
f 94 110 95
f 95 100 99
f 95 99 112
f 95 112 96
f 95 110 100
f 96 112 97
f 97 112 98
f 98 112 99
f 100 110 113
f 100 113 108

