# https://github.com/mikedh/trimesh
v 0.00565418 -0.00314853 0.00770141
v 0.00564499 -0.00314853 0.00874384
v 0.00532590 -0.00374906 0.01070000
v 0.00551631 -0.00342442 0.00751612
v 0.00367006 -0.00562747 -0.00076395
v 0.00367006 -0.00315056 -0.00076395
v 0.00336673 -0.00315056 -0.00164797
v 0.00138523 -0.00314853 -0.00057300
v 0.00562398 -0.00314853 0.01070000
v 0.00449207 -0.00485343 0.01070000
v 0.00484661 -0.00443412 0.00681739
v 0.00520116 -0.00394288 0.00718231
v 0.00532722 -0.00374744 0.00730679
v 0.00373703 -0.00557262 -0.00030426
v 0.00358733 -0.00569289 0.00108754
v 0.00358339 -0.00569614 -0.00109917
v 0.00374622 -0.00556571 0.00016675
v 0.00370551 -0.00559740 0.00492064
v 0.00346915 -0.00578471 0.01070000
v 0.00346784 -0.00578471 -0.00142166
v 0.00336673 -0.00586070 -0.00164797
v 0.00313299 -0.00602322 -0.00205674
v 0.00285330 -0.00315056 -0.00243015
v 0.00105957 -0.00314853 -0.00105956
v -0.00772521 -0.00314853 0.01070000
v 0.00391430 -0.00542025 0.00550197
v 0.00419137 -0.00516305 0.00592913
v 0.00449338 -0.00485262 0.00637892
v 0.00352824 -0.00573921 -0.00016706
v 0.00392086 -0.00541456 0.00542559
v 0.00334703 -0.00587451 0.00328698
v 0.00336541 -0.00586191 0.00217806
v 0.00229259 -0.00651324 0.01070000
v 0.00285330 -0.00620322 -0.00243015
v 0.00332996 -0.00588670 0.00273252
v 0.00258673 -0.00635762 -0.00271303
v 0.00216391 -0.00315056 -0.00306098
v 0.00057372 -0.00314853 -0.00138488
v -0.00776067 -0.00314853 0.00780183
v -0.00742451 -0.00374906 0.01070000
v 0.00229259 -0.00651365 0.00328698
v 0.00100179 -0.00701301 0.01070000
v 0.00176734 -0.00675012 -0.00330568
v 0.00216391 -0.00657581 -0.00306098
v 0.00229259 -0.00651365 -0.00296621
v 0.00133927 -0.00315056 -0.00350087
v -0.00000143 -0.00314853 -0.00149945
v 0.00043059 -0.00315056 -0.00372435
v -0.00776067 -0.00314853 0.00776930
v -0.00659199 -0.00485343 0.01070000
v -0.00742451 -0.00374906 0.00705219
v -0.00703451 -0.00432035 0.00621343
v -0.00035860 -0.00726737 0.01070000
v 0.00004715 -0.00720804 0.00328698
v 0.00070765 -0.00708452 0.00328698
v 0.00100179 -0.00701342 0.00550197
v 0.00117775 -0.00695897 0.00328698
v 0.00133927 -0.00690859 -0.00350087
v 0.00100179 -0.00701342 -0.00361261
v -0.00057527 -0.00314853 -0.00138488
v -0.00050436 -0.00315056 -0.00371586
v 0.00043059 -0.00715157 -0.00372435
v 0.00003665 -0.00722023 -0.00374981
v -0.00726168 -0.00314853 0.00669999
v -0.00339716 -0.00315056 -0.00158432
v -0.00390272 -0.00673590 -0.00050228
v -0.00499786 -0.00617640 0.00184567
v -0.00556907 -0.00578471 0.01070000
v -0.00659199 -0.00485343 0.00550197
v -0.00609957 -0.00534183 0.00421343
v -0.00599583 -0.00543000 0.00550197
v -0.00670229 -0.00471976 0.00550197
v -0.00556907 -0.00578471 0.00307198
v -0.00043345 -0.00727387 0.00328698
v -0.00035860 -0.00726737 -0.00373142
v -0.00015638 -0.00724339 0.00328698
v -0.00174132 -0.00726737 0.01070000
v -0.00067112 -0.00728402 0.00328698
v -0.00105981 -0.00314853 -0.00105956
v -0.00140516 -0.00315056 -0.00347541
v -0.00222192 -0.00315056 -0.00301855
v -0.00050436 -0.00727996 -0.00371586
v -0.00096132 -0.00729947 -0.00362392
v -0.00289949 -0.00315056 -0.00237498
v -0.00310171 -0.00701342 -0.00210483
v -0.00339716 -0.00692240 -0.00158432
v -0.00439120 -0.00651365 0.00054864
v -0.00328030 -0.00695856 0.00328698
v -0.00347332 -0.00688461 0.00550197
v -0.00439251 -0.00651324 0.01070000
v -0.00439251 -0.00651324 0.00550197
v -0.00566886 -0.00570183 0.00328698
v -0.00659068 -0.00485343 0.00526435
v -0.00192384 -0.00724502 0.00550197
v -0.00174132 -0.00726737 -0.00331982
v -0.00140516 -0.00729134 -0.00347541
v -0.00310171 -0.00701301 0.01070000
v -0.00220485 -0.00719829 0.00328698
v -0.00222192 -0.00720764 -0.00301855
v -0.00258040 -0.00714141 -0.00271869
v -0.00289949 -0.00706786 -0.00237498
v -0.00310171 -0.00701342 0.00550197
f 1 2 3
f 1 3 4
f 1 4 5
f 1 5 6
f 1 6 7
f 1 7 8
f 1 8 24
f 1 24 38
f 1 38 47
f 1 47 60
f 1 60 79
f 1 79 64
f 1 64 49
f 1 49 39
f 1 39 25
f 1 25 9
f 1 9 2
f 2 9 3
f 3 9 25
f 3 25 40
f 3 40 50
f 3 50 68
f 3 68 90
f 3 90 97
f 3 97 77
f 3 77 53
f 3 53 42
f 3 42 33
f 3 33 19
f 3 19 10
f 3 10 11
f 3 11 12
f 3 12 13
f 3 13 4
f 4 13 14
f 4 14 5
f 5 15 16
f 5 16 6
f 5 14 17
f 5 17 18
f 5 18 19
f 5 19 15
f 6 16 7
f 7 20 21
f 7 21 22
f 7 22 23
f 7 23 8
f 7 16 20
f 8 23 24
f 10 19 26
f 10 26 27
f 10 27 28
f 10 28 11
f 11 28 14
f 11 14 12
f 12 14 13
f 14 28 27
f 14 27 17
f 15 19 16
f 16 19 29
f 16 29 20
f 17 27 30
f 17 30 26
f 17 26 18
f 18 26 19
f 19 31 32
f 19 32 21
f 19 21 20
f 19 20 29
f 19 33 34
f 19 34 22
f 19 22 35
f 19 35 31
f 21 32 35
f 21 35 22
f 22 34 23
f 23 34 36
f 23 36 37
f 23 37 24
f 24 37 38
f 25 39 40
f 26 30 27
f 31 35 32
f 33 41 36
f 33 36 34
f 33 42 43
f 33 43 44
f 33 44 41
f 36 45 37
f 36 41 45
f 37 45 44
f 37 44 43
f 37 43 46
f 37 46 38
f 38 46 48
f 38 48 47
f 39 49 51
f 39 51 40
f 40 51 52
f 40 52 50
f 41 44 45
f 42 53 54
f 42 54 55
f 42 55 56
f 42 56 57
f 42 57 43
f 43 58 46
f 43 57 58
f 46 58 59
f 46 59 48
f 47 48 61
f 47 61 60
f 48 59 62
f 48 62 63
f 48 63 61
f 49 64 65
f 49 65 66
f 49 66 67
f 49 67 52
f 49 52 51
f 50 52 69
f 50 69 70
f 50 70 71
f 50 71 68
f 52 72 69
f 52 67 73
f 52 73 72
f 53 74 75
f 53 75 76
f 53 76 54
f 53 77 78
f 53 78 74
f 54 76 63
f 54 63 62
f 54 62 55
f 55 62 56
f 56 62 59
f 56 59 57
f 57 59 58
f 60 61 80
f 60 80 81
f 60 81 79
f 61 63 75
f 61 75 82
f 61 82 83
f 61 83 80
f 63 76 75
f 64 79 84
f 64 84 65
f 65 84 85
f 65 85 86
f 65 86 66
f 66 87 67
f 66 86 88
f 66 88 89
f 66 89 90
f 66 90 91
f 66 91 87
f 67 87 91
f 67 91 90
f 67 90 68
f 67 68 73
f 68 71 92
f 68 92 73
f 69 72 93
f 69 93 70
f 70 93 73
f 70 73 92
f 70 92 71
f 72 73 93
f 74 78 83
f 74 83 82
f 74 82 75
f 77 94 95
f 77 95 96
f 77 96 83
f 77 83 78
f 77 97 98
f 77 98 94
f 79 81 84
f 80 95 81
f 80 83 96
f 80 96 95
f 81 95 99
f 81 99 100
f 81 100 84
f 84 100 101
f 84 101 85
f 85 88 86
f 85 101 102
f 85 102 88
f 88 102 97
f 88 97 89
f 89 97 90
f 94 98 99
f 94 99 95
f 97 102 101
f 97 101 100
f 97 100 98
f 98 100 99

