# https://github.com/mikedh/trimesh
v 0.00202681 0.00703894 0.00100094
v 0.00202681 0.00703894 -0.00000784
v 0.00202681 0.00703906 -0.00000784
v 0.00188302 0.00736898 -0.00011922
v 0.00202559 0.00703894 0.00215054
v -0.00005933 0.00651879 -0.00075035
v -0.00005933 0.00651879 -0.00153318
v 0.00202071 0.00703906 -0.00314941
v 0.00183672 0.00744122 -0.00011666
v 0.00202376 0.00703906 0.00278935
v 0.00202376 0.00703894 0.00278935
v -0.00048399 0.00650167 -0.00066394
v -0.00079411 0.00650167 0.00012657
v -0.00342190 0.00651879 -0.00153318
v 0.00008750 0.00703906 -0.00374598
v 0.00043113 0.00703906 -0.00372421
v 0.00095145 0.00703906 -0.00362244
v 0.00103126 0.00703906 -0.00360324
v 0.00133894 0.00703906 -0.00350146
v 0.00175690 0.00703906 -0.00331072
v 0.00178005 0.00703906 -0.00329855
v 0.00176909 0.00714954 -0.00330495
v 0.00168196 0.00748743 -0.00054680
v 0.00176482 0.00748743 -0.00011154
v 0.00183062 0.00744134 -0.00000784
v 0.00180808 0.00744134 0.00034485
v 0.00173740 0.00748755 0.00033140
v 0.00196588 0.00706428 0.00278935
v -0.00411707 0.00703894 0.00278935
v -0.00382706 0.00650167 -0.00066394
v -0.00419628 0.00650167 0.00012657
v -0.00339813 0.00703906 -0.00158503
v -0.00308436 0.00703906 -0.00212975
v -0.00290036 0.00703906 -0.00237554
v -0.00261766 0.00703906 -0.00267959
v -0.00254028 0.00703906 -0.00275320
v -0.00222224 0.00703906 -0.00301883
v -0.00180855 0.00703906 -0.00327807
v -0.00169583 0.00703906 -0.00334144
v -0.00140704 0.00703906 -0.00347522
v -0.00102746 0.00703906 -0.00360196
v -0.00089586 0.00703906 -0.00363716
v -0.00050410 0.00703906 -0.00371525
v -0.00037981 0.00703906 -0.00372934
v -0.00003496 0.00703906 -0.00374470
v -0.00382767 0.00651879 -0.00066394
v 0.00007166 0.00721757 -0.00374726
v 0.00003571 0.00762067 -0.00374982
v 0.00043113 0.00755206 -0.00372421
v 0.00100141 0.00741355 -0.00361284
v 0.00133894 0.00730905 -0.00350146
v 0.00161616 0.00749987 -0.00052568
v 0.00007166 0.00761445 -0.00374726
v 0.00169536 0.00749987 -0.00010770
v 0.00174228 0.00749048 -0.00000784
v 0.00175812 0.00748755 -0.00000784
v 0.00177518 0.00747700 -0.00000784
v 0.00166917 0.00749987 0.00031860
v 0.00153756 0.00749987 0.00072378
v 0.00160032 0.00748755 0.00075322
v 0.00183489 0.00711870 0.00278935
v 0.00168988 0.00749987 -0.00000784
v -0.00404640 0.00707096 0.00278935
v -0.00393490 0.00712151 -0.00000784
v -0.00411707 0.00703894 -0.00000784
v -0.00419628 0.00700294 0.00012657
v -0.00390261 0.00713605 -0.00050327
v -0.00339813 0.00732265 -0.00158503
v -0.00310203 0.00741355 -0.00210542
v -0.00290036 0.00746773 -0.00237554
v -0.00258110 0.00754162 -0.00271863
v -0.00222224 0.00760753 -0.00301883
v -0.00174214 0.00766793 -0.00331968
v -0.00140704 0.00769127 -0.00347522
v -0.00096227 0.00769913 -0.00362372
v -0.00050410 0.00767978 -0.00371525
v -0.00035970 0.00766793 -0.00373189
v -0.00035909 0.00766793 0.00196684
v -0.00035909 0.00766793 0.00278935
v -0.00003070 0.00762946 0.00278935
v 0.00024043 0.00758454 0.00278935
v 0.00028064 0.00757786 0.00278935
v 0.00040859 0.00755405 0.00278935
v 0.00071810 0.00748755 0.00278935
v 0.00099958 0.00741425 0.00278935
v 0.00124755 0.00733848 0.00278935
v 0.00165272 0.00718918 0.00278935
v -0.00366682 0.00721768 0.00278935
v -0.00349501 0.00728500 -0.00000784
v -0.00335975 0.00733450 -0.00000784
v -0.00310203 0.00741355 -0.00000784
v -0.00310142 0.00741355 0.00278935
v -0.00223626 0.00758912 0.00278935
v -0.00200412 0.00763873 -0.00000784
v -0.00199986 0.00763943 -0.00000016
v -0.00197000 0.00764330 -0.00034837
v -0.00187922 0.00765386 -0.00068442
v -0.00174214 0.00766793 -0.00098270
v -0.00153194 0.00768435 -0.00128611
v -0.00153194 0.00768435 0.00128514
v -0.00128458 0.00769620 0.00153222
v -0.00128518 0.00769620 -0.00153318
v -0.00100126 0.00769983 -0.00173225
v -0.00100066 0.00769983 0.00173128
v -0.00068871 0.00769115 0.00187722
v -0.00068932 0.00769115 -0.00187691
v -0.00079716 0.00768869 0.00278935
v -0.00329212 0.00735514 0.00278935
v -0.00174153 0.00766793 0.00278935
v -0.00196940 0.00764319 0.00034805
v -0.00187861 0.00765386 0.00068409
v -0.00156484 0.00768177 0.00278935
v -0.00134733 0.00769233 0.00278935
v -0.00112738 0.00769549 0.00278935
v -0.00108656 0.00769585 0.00278935
f 1 2 3
f 1 3 4
f 1 4 5
f 1 5 6
f 1 6 7
f 1 7 2
f 2 7 8
f 2 8 3
f 3 8 4
f 4 8 9
f 4 9 10
f 4 10 5
f 5 10 11
f 5 11 6
f 6 12 7
f 6 11 13
f 6 13 12
f 7 12 30
f 7 30 14
f 7 14 15
f 7 15 16
f 7 16 17
f 7 17 18
f 7 18 19
f 7 19 20
f 7 20 21
f 7 21 8
f 8 21 22
f 8 22 23
f 8 23 24
f 8 24 9
f 9 24 25
f 9 25 10
f 10 25 26
f 10 26 27
f 10 27 28
f 10 28 61
f 10 61 87
f 10 87 86
f 10 86 85
f 10 85 84
f 10 84 83
f 10 83 82
f 10 82 81
f 10 81 80
f 10 80 79
f 10 79 107
f 10 107 115
f 10 115 114
f 10 114 113
f 10 113 112
f 10 112 109
f 10 109 93
f 10 93 92
f 10 92 108
f 10 108 88
f 10 88 63
f 10 63 29
f 10 29 11
f 11 29 31
f 11 31 13
f 12 13 31
f 12 31 30
f 14 32 33
f 14 33 34
f 14 34 35
f 14 35 36
f 14 36 37
f 14 37 38
f 14 38 39
f 14 39 40
f 14 40 41
f 14 41 42
f 14 42 43
f 14 43 44
f 14 44 45
f 14 45 15
f 14 30 31
f 14 31 46
f 14 46 32
f 15 45 47
f 15 47 16
f 16 47 48
f 16 48 49
f 16 49 50
f 16 50 17
f 17 50 18
f 18 50 51
f 18 51 19
f 19 51 20
f 20 22 21
f 20 51 22
f 22 51 23
f 23 52 24
f 23 51 50
f 23 50 49
f 23 49 53
f 23 53 48
f 23 48 52
f 24 52 54
f 24 54 55
f 24 55 56
f 24 56 27
f 24 27 57
f 24 57 25
f 25 57 27
f 25 27 26
f 27 58 59
f 27 59 60
f 27 60 61
f 27 61 28
f 27 56 55
f 27 55 62
f 27 62 58
f 29 63 64
f 29 64 65
f 29 65 66
f 29 66 31
f 31 66 67
f 31 67 46
f 32 46 67
f 32 67 68
f 32 68 69
f 32 69 33
f 33 69 70
f 33 70 34
f 34 70 35
f 35 70 71
f 35 71 36
f 36 71 72
f 36 72 37
f 37 72 38
f 38 72 73
f 38 73 39
f 39 73 74
f 39 74 40
f 40 74 41
f 41 74 75
f 41 75 42
f 42 75 76
f 42 76 43
f 43 76 77
f 43 77 44
f 44 77 48
f 44 48 45
f 45 48 47
f 48 53 49
f 48 77 54
f 48 54 52
f 54 77 76
f 54 76 78
f 54 78 79
f 54 79 62
f 54 62 55
f 58 62 79
f 58 79 80
f 58 80 59
f 59 80 81
f 59 81 82
f 59 82 60
f 60 82 83
f 60 83 84
f 60 84 85
f 60 85 86
f 60 86 87
f 60 87 61
f 63 88 67
f 63 67 64
f 64 67 65
f 65 67 66
f 67 89 68
f 67 88 89
f 68 89 90
f 68 90 69
f 69 90 91
f 69 91 70
f 70 91 92
f 70 92 71
f 71 92 93
f 71 93 72
f 72 93 94
f 72 94 95
f 72 95 96
f 72 96 73
f 73 96 97
f 73 97 98
f 73 98 100
f 73 100 99
f 73 99 74
f 74 99 100
f 74 100 101
f 74 101 102
f 74 102 75
f 75 102 103
f 75 103 104
f 75 104 105
f 75 105 106
f 75 106 76
f 76 106 105
f 76 105 79
f 76 79 78
f 79 105 107
f 88 108 89
f 89 108 90
f 90 108 91
f 91 108 92
f 93 109 110
f 93 110 95
f 93 95 94
f 95 110 96
f 96 110 111
f 96 111 97
f 97 111 109
f 97 109 98
f 98 109 112
f 98 112 100
f 100 112 101
f 101 112 113
f 101 113 104
f 101 104 102
f 102 104 103
f 104 113 114
f 104 114 115
f 104 115 107
f 104 107 105
f 109 111 110

