# https://github.com/mikedh/trimesh
v 0.00003653 -0.00721969 -0.00374981
v 0.00043003 -0.00314996 -0.00372435
v 0.00043003 -0.00715116 -0.00372435
v -0.00018958 -0.00724730 0.00451753
v -0.00035991 -0.00726776 0.00451753
v -0.00035991 -0.00726674 -0.00373142
v -0.00050527 -0.00314996 -0.00371303
v 0.00100119 -0.00701308 -0.00361261
v -0.00000018 0.00314642 -0.00149945
v 0.00057246 0.00314642 -0.00138488
v 0.00133890 -0.00314996 -0.00350087
v 0.00075746 -0.00707240 0.00451753
v -0.00035991 -0.00726776 0.01070000
v -0.00042304 -0.00727287 0.00451753
v -0.00050527 -0.00727901 -0.00371303
v -0.00096190 -0.00729947 -0.00362392
v -0.00140239 -0.00314996 -0.00347399
v -0.00057428 0.00314642 -0.00138488
v 0.00100119 -0.00701308 0.00451753
v 0.00133890 -0.00690773 -0.00350087
v -0.00726085 0.00314948 0.00669999
v 0.00474532 0.00314948 0.00669999
v 0.00105846 0.00314642 -0.00105956
v 0.00216114 -0.00314996 -0.00306098
v 0.00176617 -0.00674920 -0.00330568
v 0.00100119 -0.00701206 0.01070000
v -0.00174009 -0.00726776 0.01070000
v -0.00140239 -0.00729128 -0.00347399
v -0.00173863 -0.00726674 -0.00331982
v -0.00222169 -0.00314996 -0.00301713
v -0.00105881 0.00314642 -0.00105956
v 0.00114802 -0.00696705 0.00451753
v 0.00133890 -0.00689648 0.00451753
v -0.00289857 -0.00314996 -0.00237498
v -0.00339632 -0.00314996 -0.00158432
v -0.00804344 0.00290810 0.00837609
v -0.00773363 0.00314948 0.00771273
v 0.00536934 0.00314948 0.00735063
v 0.00566006 0.00314948 0.00770000
v 0.00138442 0.00314642 -0.00057300
v 0.00285270 -0.00314996 -0.00242873
v 0.00258547 -0.00635644 -0.00271162
v 0.00229182 -0.00651293 -0.00296621
v 0.00216114 -0.00657532 -0.00306098
v 0.00229182 -0.00651293 0.01070000
v -0.00310119 -0.00701206 0.01070000
v -0.00257995 -0.00714093 -0.00271869
v -0.00222169 -0.00720741 -0.00301713
v -0.00174009 -0.00726776 0.00451753
v -0.00289857 -0.00706729 -0.00237498
v -0.00309826 -0.00701308 -0.00210341
v -0.00339632 -0.00692205 -0.00158432
v -0.00659131 -0.00485190 0.00526293
v -0.00776006 -0.00314791 0.00776789
v -0.00804344 0.00016086 0.00837609
v -0.00817412 0.00254092 0.00865756
v -0.00804344 0.00290810 0.01070000
v -0.00793626 0.00314948 0.00814837
v 0.00584066 0.00314948 0.00797157
v 0.00336513 -0.00314996 -0.00164655
v 0.00313168 -0.00602198 -0.00205391
v 0.00285270 -0.00620200 -0.00242873
v 0.00346791 -0.00578367 0.01070000
v -0.00439182 -0.00651293 0.01070000
v -0.00354315 -0.00685966 0.00451753
v -0.00325096 -0.00696705 0.00451753
v -0.00309826 -0.00701308 0.00451753
v -0.00389994 -0.00673488 -0.00050086
v -0.00439182 -0.00651293 0.00055006
v -0.00610090 -0.00534080 0.00421201
v -0.00659131 -0.00485190 0.01070000
v -0.00703326 -0.00431902 0.00621202
v -0.00742382 -0.00374830 0.00705219
v -0.00776006 -0.00314791 0.00780183
v -0.00776300 -0.00314177 0.00777638
v -0.00804197 -0.00250866 0.00837609
v -0.00817412 -0.00214045 0.00865756
v -0.00832388 -0.00162496 0.00902390
v -0.00834444 0.00194053 0.00908472
v -0.00842226 0.00157744 0.01070000
v -0.00792304 0.00314948 0.01070000
v -0.00793626 0.00314948 0.00959109
v 0.00588618 0.00304925 0.00803946
v 0.00582304 0.00314948 0.01070000
v 0.00594344 0.00290810 0.01070000
v 0.00366907 -0.00314996 -0.00076395
v 0.00358244 -0.00569469 -0.00110058
v 0.00346791 -0.00578367 -0.00142024
v 0.00336513 -0.00585936 -0.00164655
v 0.00594344 0.00290708 0.00813847
v 0.00336513 -0.00586141 0.00217948
v 0.00332989 -0.00588595 0.00273394
v 0.00345910 -0.00579083 0.00451753
v 0.00352811 -0.00573867 -0.00016423
v 0.00353399 -0.00573355 0.00438175
v 0.00370578 -0.00559650 0.00491923
v 0.00392014 -0.00541342 0.00542418
v 0.00449131 -0.00485190 0.01070000
v -0.00556791 -0.00578367 0.01070000
v -0.00499528 -0.00617541 0.00184709
v -0.00556791 -0.00578367 0.00307340
v -0.00607594 -0.00536228 0.00451753
v -0.00742382 -0.00374830 0.01070000
v -0.00772482 -0.00314791 0.01070000
v -0.00804197 -0.00250866 0.01070000
v -0.00842079 -0.00117902 0.01070000
v -0.00842079 -0.00117799 0.00934498
v -0.00842226 0.00016086 0.00934498
v -0.00842226 0.00157641 0.00934639
v -0.00846337 0.00133094 0.00952320
v -0.00853091 0.00071419 0.00997298
v -0.00855000 0.00019972 0.01070000
v 0.00608293 0.00251535 0.00841287
v 0.00632226 0.00157744 0.01070000
v 0.00623857 0.00196610 0.00880325
v 0.00632226 0.00157744 0.00908189
v 0.00366907 -0.00562616 -0.00076395
v 0.00632226 0.00016086 0.00908189
v 0.00632079 -0.00117799 0.00908331
v 0.00623710 -0.00156666 0.00880325
v 0.00374542 -0.00556479 0.00016958
v 0.00419031 -0.00516181 0.00592772
v 0.00449278 -0.00485088 0.00637750
v 0.00484516 -0.00443255 0.00681739
v 0.00532529 -0.00374830 0.01070000
v -0.00852210 -0.00042623 0.00989095
v -0.00844722 -0.00103071 0.00945247
v -0.00845603 0.00016086 0.00948783
v -0.00854853 0.00015983 0.01031952
v -0.00855000 0.00019972 0.01034781
v 0.00645000 0.00019972 0.01070000
v 0.00642210 0.00082875 0.00962503
v 0.00634575 0.00143834 0.00918373
v 0.00635309 0.00016086 0.00921485
v 0.00532676 -0.00374625 0.00730537
v 0.00373514 -0.00557195 -0.00030426
v 0.00619305 -0.00174156 0.00867878
v 0.00612404 -0.00198294 0.00850763
v 0.00601245 -0.00232149 0.00826718
v 0.00594197 -0.00250764 0.00813847
v 0.00578487 -0.00288300 0.00787963
v 0.00551617 -0.00342407 0.00751471
v 0.00635309 0.00015983 0.00921485
v 0.00635897 -0.00095707 0.00924172
v 0.00632079 -0.00117902 0.01070000
v 0.00520049 -0.00394161 0.00718090
v 0.00594197 -0.00250866 0.01070000
v 0.00642944 -0.00033930 0.00969151
v 0.00644853 0.00015983 0.01005644
v 0.00645000 0.00019972 0.01008472
v 0.00644853 0.00016086 0.01005644
f 1 2 3
f 1 3 4
f 1 4 5
f 1 5 6
f 1 6 7
f 1 7 2
f 2 8 3
f 2 7 9
f 2 9 10
f 2 10 11
f 2 11 8
f 3 8 12
f 3 12 13
f 3 13 4
f 4 13 5
f 5 13 14
f 5 14 15
f 5 15 6
f 6 15 7
f 7 15 16
f 7 16 17
f 7 17 18
f 7 18 9
f 8 19 12
f 8 11 20
f 8 20 19
f 9 18 21
f 9 21 22
f 9 22 10
f 10 23 24
f 10 24 11
f 10 22 23
f 11 24 25
f 11 25 20
f 12 19 26
f 12 26 13
f 13 27 16
f 13 16 14
f 13 26 45
f 13 45 63
f 13 63 98
f 13 98 125
f 13 125 147
f 13 147 145
f 13 145 131
f 13 131 114
f 13 114 85
f 13 85 84
f 13 84 81
f 13 81 57
f 13 57 80
f 13 80 112
f 13 112 106
f 13 106 105
f 13 105 104
f 13 104 103
f 13 103 71
f 13 71 99
f 13 99 64
f 13 64 46
f 13 46 27
f 14 16 15
f 16 27 28
f 16 28 17
f 17 28 29
f 17 29 30
f 17 30 18
f 18 30 31
f 18 31 21
f 19 20 32
f 19 32 26
f 20 25 33
f 20 33 32
f 21 31 34
f 21 34 35
f 21 35 36
f 21 36 37
f 21 37 58
f 21 58 82
f 21 82 81
f 21 81 84
f 21 84 59
f 21 59 39
f 21 39 38
f 21 38 22
f 22 38 23
f 23 38 39
f 23 39 40
f 23 40 41
f 23 41 24
f 24 41 42
f 24 42 43
f 24 43 44
f 24 44 25
f 25 44 45
f 25 45 33
f 26 32 33
f 26 33 45
f 27 46 47
f 27 47 48
f 27 48 49
f 27 49 28
f 28 49 29
f 29 49 48
f 29 48 30
f 30 48 47
f 30 47 34
f 30 34 31
f 34 47 50
f 34 50 51
f 34 51 35
f 35 51 52
f 35 52 53
f 35 53 54
f 35 54 36
f 36 54 55
f 36 55 77
f 36 77 56
f 36 56 57
f 36 57 82
f 36 82 58
f 36 58 37
f 39 59 40
f 40 59 60
f 40 60 41
f 41 60 61
f 41 61 62
f 41 62 42
f 42 45 43
f 42 62 45
f 43 45 44
f 45 62 63
f 46 64 65
f 46 65 66
f 46 66 67
f 46 67 50
f 46 50 47
f 50 67 51
f 51 66 52
f 51 67 66
f 52 66 65
f 52 65 68
f 52 68 69
f 52 69 70
f 52 70 53
f 53 70 71
f 53 71 72
f 53 72 54
f 54 72 73
f 54 73 103
f 54 103 74
f 54 74 75
f 54 75 76
f 54 76 77
f 54 77 55
f 56 77 78
f 56 78 79
f 56 79 57
f 57 79 80
f 57 81 82
f 59 83 60
f 59 84 85
f 59 85 83
f 60 86 87
f 60 87 88
f 60 88 89
f 60 89 61
f 60 83 90
f 60 90 86
f 61 89 91
f 61 91 92
f 61 92 63
f 61 63 62
f 63 92 91
f 63 91 93
f 63 93 94
f 63 94 95
f 63 95 96
f 63 96 97
f 63 97 98
f 64 99 100
f 64 100 69
f 64 69 68
f 64 68 65
f 69 100 101
f 69 101 70
f 70 101 102
f 70 102 71
f 71 103 72
f 71 102 99
f 72 103 73
f 74 104 105
f 74 105 75
f 74 103 104
f 75 105 76
f 76 105 77
f 77 105 78
f 78 105 106
f 78 106 107
f 78 107 108
f 78 108 79
f 79 108 109
f 79 109 80
f 80 109 110
f 80 110 111
f 80 111 112
f 83 85 90
f 85 113 90
f 85 114 115
f 85 115 113
f 86 90 113
f 86 113 115
f 86 115 116
f 86 116 87
f 87 117 94
f 87 94 88
f 87 116 118
f 87 118 119
f 87 119 120
f 87 120 117
f 88 91 89
f 88 94 91
f 91 94 93
f 94 117 96
f 94 96 95
f 96 121 97
f 96 117 121
f 97 121 122
f 97 122 98
f 98 122 123
f 98 123 124
f 98 124 125
f 99 102 101
f 99 101 100
f 106 112 126
f 106 126 127
f 106 127 107
f 107 127 108
f 108 127 128
f 108 128 109
f 109 128 110
f 110 128 126
f 110 126 111
f 111 126 129
f 111 129 130
f 111 130 112
f 112 130 129
f 112 129 126
f 114 131 132
f 114 132 133
f 114 133 116
f 114 116 115
f 116 133 134
f 116 134 143
f 116 143 118
f 117 135 136
f 117 136 121
f 117 120 137
f 117 137 138
f 117 138 139
f 117 139 140
f 117 140 141
f 117 141 142
f 117 142 135
f 118 143 144
f 118 144 119
f 119 144 145
f 119 145 120
f 120 145 137
f 121 136 122
f 122 136 123
f 123 136 124
f 124 136 146
f 124 146 125
f 125 146 135
f 125 135 142
f 125 142 141
f 125 141 147
f 126 128 127
f 131 145 148
f 131 148 149
f 131 149 150
f 131 150 132
f 132 148 144
f 132 144 134
f 132 134 133
f 132 150 151
f 132 151 148
f 134 144 143
f 135 146 136
f 137 145 147
f 137 147 138
f 138 147 139
f 139 147 140
f 140 147 141
f 144 148 145
f 148 151 149
f 149 151 150

