# https://github.com/mikedh/trimesh
v -0.00138358 0.00768335 0.00637768
v -0.00035848 0.00766781 0.00637768
v -0.00152521 0.00768113 0.00637768
v -0.00174102 0.00766781 0.01070000
v -0.00035848 0.00766781 0.01070000
v -0.00017909 0.00764696 0.00637768
v -0.00164525 0.00767536 0.00637768
v -0.00174102 0.00766781 0.00637768
v -0.00262854 0.00750938 0.00637768
v -0.00310198 0.00741352 0.01070000
v 0.00067741 0.00749029 0.00637768
v -0.00000913 0.00761855 0.00637768
v 0.00100113 0.00741352 0.01070000
v -0.00310198 0.00741352 0.00637768
v -0.00320584 0.00738156 0.00637768
v -0.00341086 0.00730656 0.00637768
v -0.00420396 0.00699945 0.00637768
v -0.00439280 0.00691335 0.01070000
v 0.00084737 0.00745390 0.00637768
v 0.00229195 0.00691335 0.01070000
v 0.00204242 0.00702564 0.00637768
v 0.00113601 0.00737224 0.00637768
v 0.00100113 0.00741396 0.00637768
v -0.00439280 0.00691335 0.00637768
v -0.00468819 0.00674915 0.00637768
v -0.00556897 0.00618508 0.01070000
v 0.00285576 0.00657385 0.00637768
v 0.00229330 0.00691291 0.00637768
v 0.00217460 0.00696927 0.00637768
v 0.00211391 0.00699590 0.00637768
v 0.00346947 0.00618508 0.01070000
v -0.00516702 0.00645225 0.00637768
v -0.00528976 0.00637591 0.00637768
v -0.00556897 0.00618508 0.00637768
v -0.00592371 0.00588995 0.00637768
v -0.00615840 0.00567648 0.00637768
v -0.00659137 0.00525310 0.01070000
v 0.00290836 0.00654101 0.00637768
v 0.00449188 0.00525310 0.01070000
v 0.00383905 0.00588196 0.00637768
v 0.00364617 0.00604528 0.00637768
v 0.00351398 0.00615046 0.00637768
v 0.00346947 0.00618508 0.00637768
v -0.00626496 0.00557885 0.00637768
v -0.00659137 0.00525310 0.00637768
v -0.00701895 0.00473962 0.00637768
v -0.00742629 0.00414848 0.01070000
v 0.00532545 0.00414848 0.01070000
v 0.00484796 0.00483237 0.00681859
v 0.00449188 0.00525354 0.00637768
v 0.00412230 0.00562278 0.00637768
v 0.00408858 0.00565385 0.00637768
v -0.00704862 0.00469923 0.00637768
v -0.00742629 0.00414848 0.00705343
v -0.00776350 0.00354313 0.00777614
v -0.00793750 0.00314993 0.00959181
v -0.00792266 0.00314993 0.01070000
v 0.00532680 0.00414803 0.00730689
v 0.00520136 0.00434286 0.00718333
v 0.00582316 0.00314993 0.01070000
v 0.00565051 0.00356799 0.00768813
v 0.00537400 0.00406904 0.00735766
v 0.00539154 0.00314993 0.00737713
v 0.00449188 0.00315037 0.00637768
v -0.00711067 0.00460870 0.00637768
v -0.00793750 0.00314993 0.00814892
v -0.00726174 0.00315037 0.00670011
v 0.00584204 0.00314993 0.00797290
v 0.00565995 0.00314993 0.00770040
v 0.00536861 0.00314993 0.00735174
v 0.00536321 0.00314993 0.00734581
v 0.00532680 0.00314993 0.00730689
v 0.00474545 0.00314993 0.00670011
v -0.00711067 0.00315037 0.00637768
v -0.00726174 0.00314993 0.00670011
f 1 2 6
f 1 6 12
f 1 12 11
f 1 11 19
f 1 19 23
f 1 23 22
f 1 22 21
f 1 21 30
f 1 30 29
f 1 29 28
f 1 28 27
f 1 27 38
f 1 38 43
f 1 43 42
f 1 42 41
f 1 41 40
f 1 40 52
f 1 52 51
f 1 51 50
f 1 50 64
f 1 64 74
f 1 74 65
f 1 65 53
f 1 53 46
f 1 46 45
f 1 45 44
f 1 44 36
f 1 36 35
f 1 35 34
f 1 34 33
f 1 33 32
f 1 32 25
f 1 25 24
f 1 24 17
f 1 17 16
f 1 16 15
f 1 15 14
f 1 14 9
f 1 9 8
f 1 8 7
f 1 7 3
f 1 3 4
f 1 4 5
f 1 5 2
f 2 5 6
f 3 7 4
f 4 7 8
f 4 8 9
f 4 9 10
f 4 10 18
f 4 18 26
f 4 26 37
f 4 37 47
f 4 47 57
f 4 57 60
f 4 60 48
f 4 48 39
f 4 39 31
f 4 31 20
f 4 20 13
f 4 13 5
f 5 11 12
f 5 12 6
f 5 13 11
f 9 14 10
f 10 14 15
f 10 15 16
f 10 16 17
f 10 17 18
f 11 13 19
f 13 20 21
f 13 21 22
f 13 22 23
f 13 23 19
f 17 24 18
f 18 24 25
f 18 25 26
f 20 27 28
f 20 28 29
f 20 29 30
f 20 30 21
f 20 31 27
f 25 32 26
f 26 32 33
f 26 33 34
f 26 34 35
f 26 35 36
f 26 36 37
f 27 31 38
f 31 39 40
f 31 40 41
f 31 41 42
f 31 42 43
f 31 43 38
f 36 44 37
f 37 44 45
f 37 45 46
f 37 46 47
f 39 48 49
f 39 49 50
f 39 50 51
f 39 51 52
f 39 52 40
f 46 53 47
f 47 53 54
f 47 54 55
f 47 55 56
f 47 56 57
f 48 58 59
f 48 59 49
f 48 60 61
f 48 61 62
f 48 62 58
f 49 59 50
f 50 59 58
f 50 58 62
f 50 62 63
f 50 63 64
f 53 65 54
f 54 66 55
f 54 65 67
f 54 67 66
f 55 66 56
f 56 66 75
f 56 75 73
f 56 73 72
f 56 72 71
f 56 71 70
f 56 70 63
f 56 63 69
f 56 69 68
f 56 68 60
f 56 60 57
f 60 68 61
f 61 69 63
f 61 63 62
f 61 68 69
f 63 70 64
f 64 70 71
f 64 71 72
f 64 72 73
f 64 73 75
f 64 75 74
f 65 74 75
f 65 75 67
f 66 67 75

