# https://github.com/mikedh/trimesh
v 0.00219968 0.00149460 0.00756159
v 0.00141496 0.00178938 0.00742322
v 0.00219968 -0.00149524 0.00756159
v 0.00219968 0.00207011 0.00726001
v 0.00049506 -0.00207074 0.00726089
v 0.00141496 -0.00178884 0.00742322
v 0.00049506 0.00207011 0.00726001
v -0.00104944 0.00249824 0.00698770
v 0.00219968 -0.00207074 0.00726089
v 0.00219968 0.00425167 0.00587452
v -0.00104944 -0.00249887 0.00698770
v -0.00104944 -0.00425230 0.00587452
v -0.00104944 0.00425167 0.00587452
v -0.00149295 -0.00495999 0.00013829
v 0.00219968 -0.00425230 0.00587452
v 0.00219968 0.00462013 0.00554455
v -0.00149295 -0.00699883 0.00013829
v -0.00104944 -0.00461959 0.00554366
v -0.00104944 0.00462013 0.00554455
v -0.00142174 -0.00343699 -0.00125252
v -0.00112788 0.00495000 0.00150782
v 0.00219968 -0.00461959 0.00554366
v 0.00219968 0.00486344 0.00510371
v -0.00142174 -0.00494829 -0.00125252
v -0.00144234 -0.00699883 -0.00040987
v -0.00027520 -0.00700000 -0.00147427
v -0.00134222 -0.00699883 0.00066872
v -0.00104944 -0.00473774 0.00533256
v -0.00054160 -0.00699883 0.00139872
v 0.00000023 -0.00699883 0.00150072
v -0.00104944 0.00486344 0.00510371
v 0.00000023 -0.00495999 -0.00150000
v -0.00027520 -0.00495999 -0.00147427
v -0.00103245 0.00194495 -0.00016240
v -0.00099088 0.00194495 -0.00029900
v -0.00097787 0.00194495 -0.00033004
v -0.00088823 0.00194495 -0.00048083
v -0.00076642 0.00194495 -0.00060945
v -0.00062220 0.00194495 -0.00070702
v -0.00042448 0.00194495 -0.00077975
v -0.00024918 0.00194495 -0.00079927
v -0.00077112 -0.00294921 -0.00125252
v -0.00104944 0.00494883 0.00460965
v -0.00104908 0.00495000 0.00262632
v -0.00060087 0.00495000 0.00150782
v 0.00219968 -0.00473774 0.00533256
v 0.00219968 0.00494883 0.00460965
v -0.00078919 -0.00699883 -0.00127470
v -0.00119619 -0.00699883 -0.00090304
v 0.00000023 -0.00700000 -0.00150000
v 0.00119664 -0.00700000 -0.00090304
v -0.00100968 -0.00699883 0.00110867
v -0.00104944 -0.00486290 0.00510371
v 0.00054169 -0.00699883 0.00139872
v 0.00219968 -0.00486290 0.00510371
v 0.00182594 -0.00324867 -0.00125252
v 0.00188702 -0.00337383 -0.00125252
v 0.00027566 -0.00495999 -0.00147427
v 0.00137412 -0.00291997 -0.00125252
v 0.00151509 -0.00297144 -0.00125252
v 0.00163798 -0.00304513 -0.00125252
v 0.00174208 -0.00313754 -0.00125252
v 0.00219932 0.00494883 0.00150782
v -0.00011038 0.00194495 -0.00078685
v 0.00219968 0.00494883 0.00395682
v 0.00027566 -0.00700000 -0.00147427
v 0.00078928 -0.00700000 -0.00127470
v 0.00193148 -0.00494829 -0.00125252
v 0.00144243 -0.00699883 -0.00040987
v 0.00149340 -0.00699883 0.00013829
v 0.00134231 -0.00699883 0.00066872
v 0.00101013 -0.00699883 0.00110867
v 0.00219968 -0.00494946 0.00460877
v 0.00153786 0.00194495 -0.00049591
v 0.00192389 -0.00350835 -0.00125252
v 0.00179702 0.00194495 -0.00040189
v 0.00193654 -0.00365105 -0.00125252
v 0.00193690 -0.00467106 -0.00125252
v 0.00219968 0.00494766 0.00262632
v 0.00219932 0.00194495 0.00028287
v 0.00214836 0.00194495 0.00001234
v 0.00211944 0.00194495 -0.00005507
v 0.00200920 0.00194495 -0.00022538
v 0.00185955 0.00194495 -0.00036198
v 0.00193618 -0.00471317 -0.00125252
v 0.00196763 -0.00494829 -0.00116648
v 0.00216679 -0.00494829 -0.00023070
v 0.00219968 -0.00494946 0.00278953
v 0.00219932 -0.00494829 0.00033521
v 0.00196763 -0.00363234 -0.00116471
v 0.00219968 0.00104192 0.00262632
v 0.00219932 -0.00194909 0.00028287
v 0.00219896 -0.00232107 0.00023586
v 0.00219824 -0.00241465 0.00020837
v 0.00219390 -0.00266614 0.00010193
v 0.00218703 -0.00284862 -0.00000984
v 0.00217836 -0.00298548 -0.00011716
v 0.00215089 -0.00321825 -0.00035754
v 0.00214330 -0.00325919 -0.00041076
v 0.00211474 -0.00337500 -0.00057840
v 0.00207715 -0.00347559 -0.00075935
v 0.00199618 -0.00360310 -0.00107157
v 0.00219896 -0.00232224 0.00023586
f 1 2 6
f 1 6 3
f 1 3 9
f 1 9 15
f 1 15 22
f 1 22 46
f 1 46 55
f 1 55 73
f 1 73 88
f 1 88 91
f 1 91 79
f 1 79 65
f 1 65 47
f 1 47 23
f 1 23 16
f 1 16 10
f 1 10 4
f 1 4 2
f 2 5 6
f 2 4 7
f 2 7 8
f 2 8 5
f 3 6 9
f 4 10 13
f 4 13 7
f 5 11 12
f 5 12 15
f 5 15 9
f 5 9 6
f 5 8 11
f 7 13 8
f 8 13 14
f 8 14 17
f 8 17 11
f 10 16 19
f 10 19 13
f 11 17 12
f 12 17 18
f 12 18 22
f 12 22 15
f 13 19 14
f 14 20 24
f 14 24 17
f 14 19 21
f 14 21 20
f 16 23 31
f 16 31 19
f 17 24 25
f 17 25 26
f 17 26 27
f 17 27 18
f 18 28 29
f 18 29 30
f 18 30 22
f 18 27 28
f 19 31 21
f 20 32 33
f 20 33 26
f 20 26 24
f 20 21 34
f 20 34 35
f 20 35 36
f 20 36 37
f 20 37 38
f 20 38 39
f 20 39 40
f 20 40 41
f 20 41 42
f 20 42 32
f 21 31 43
f 21 43 44
f 21 44 45
f 21 45 41
f 21 41 40
f 21 40 39
f 21 39 38
f 21 38 37
f 21 37 36
f 21 36 35
f 21 35 34
f 22 30 46
f 23 47 43
f 23 43 31
f 24 26 48
f 24 48 49
f 24 49 25
f 25 49 26
f 26 50 66
f 26 66 67
f 26 67 51
f 26 51 29
f 26 29 52
f 26 52 27
f 26 49 48
f 26 33 32
f 26 32 50
f 27 52 53
f 27 53 28
f 28 53 29
f 29 51 30
f 29 53 52
f 30 51 54
f 30 54 55
f 30 55 46
f 32 56 57
f 32 57 58
f 32 58 66
f 32 66 50
f 32 42 41
f 32 41 59
f 32 59 60
f 32 60 61
f 32 61 62
f 32 62 56
f 41 45 63
f 41 63 64
f 41 64 61
f 41 61 60
f 41 60 59
f 43 47 44
f 44 47 45
f 45 47 65
f 45 65 63
f 51 67 68
f 51 68 69
f 51 69 70
f 51 70 71
f 51 71 72
f 51 72 54
f 54 72 55
f 55 72 71
f 55 71 70
f 55 70 73
f 56 62 74
f 56 74 57
f 57 75 58
f 57 74 76
f 57 76 75
f 58 75 77
f 58 77 78
f 58 78 66
f 61 64 62
f 62 64 74
f 63 65 79
f 63 79 80
f 63 80 81
f 63 81 82
f 63 82 83
f 63 83 84
f 63 84 76
f 63 76 74
f 63 74 64
f 66 78 85
f 66 85 68
f 66 68 67
f 68 86 69
f 68 85 86
f 69 86 87
f 69 87 70
f 70 88 73
f 70 87 89
f 70 89 88
f 75 76 84
f 75 84 83
f 75 83 82
f 75 82 77
f 77 82 81
f 77 81 90
f 77 90 86
f 77 86 78
f 78 86 85
f 79 91 92
f 79 92 80
f 80 92 103
f 80 103 93
f 80 93 94
f 80 94 95
f 80 95 96
f 80 96 97
f 80 97 98
f 80 98 99
f 80 99 100
f 80 100 81
f 81 100 101
f 81 101 102
f 81 102 90
f 86 90 102
f 86 102 101
f 86 101 87
f 87 101 100
f 87 100 99
f 87 99 98
f 87 98 97
f 87 97 96
f 87 96 89
f 88 89 91
f 89 96 95
f 89 95 94
f 89 94 103
f 89 103 92
f 89 92 91
f 93 103 94

