# https://github.com/mikedh/trimesh
v 0.00149360 -0.00496984 0.00013832
v 0.00134418 -0.00496984 0.00066338
v 0.00149360 -0.00699980 0.00013832
v 0.00144272 -0.00496984 -0.00041023
v 0.00134272 -0.00496984 0.00066837
v 0.00134272 -0.00699980 0.00066837
v 0.00144272 -0.00699980 -0.00041023
v 0.00119681 -0.00496984 -0.00090387
v 0.00101347 -0.00496984 0.00110416
v 0.00101026 -0.00699980 0.00110827
v 0.00119681 -0.00699980 -0.00090387
v 0.00119301 -0.00496984 -0.00090740
v 0.00101026 -0.00496984 0.00110827
v 0.00054183 -0.00699980 0.00139869
v 0.00078949 -0.00699980 -0.00127505
v 0.00078949 -0.00496984 -0.00127505
v 0.00054183 -0.00496984 0.00139869
v 0.00000000 -0.00699980 0.00150000
v 0.00027545 -0.00699980 -0.00147445
v 0.00078452 -0.00496984 -0.00127711
v 0.00000497 -0.00496984 0.00149883
v 0.00000000 -0.00496984 0.00149971
v -0.00054182 -0.00496984 0.00139869
v -0.00054182 -0.00699980 0.00139869
v 0.00000000 -0.00699980 -0.00150000
v 0.00027545 -0.00496984 -0.00147445
v -0.00100587 -0.00496984 0.00111120
v -0.00101026 -0.00699980 0.00110827
v -0.00027544 -0.00699980 -0.00147445
v 0.00000000 -0.00496984 -0.00150000
v -0.00101026 -0.00496984 0.00110827
v -0.00133950 -0.00496984 0.00067277
v -0.00134272 -0.00699980 0.00066837
v -0.00027544 -0.00496984 -0.00147445
v -0.00078949 -0.00699980 -0.00127505
v -0.00134272 -0.00496984 0.00066837
v -0.00149214 -0.00496984 0.00014331
v -0.00149331 -0.00699980 0.00013832
v -0.00078949 -0.00496984 -0.00127505
v -0.00119681 -0.00699980 -0.00090387
v -0.00079358 -0.00496984 -0.00127153
v -0.00149331 -0.00496984 0.00013832
v -0.00144272 -0.00699980 -0.00041023
v -0.00119681 -0.00496984 -0.00090387
v -0.00144272 -0.00496984 -0.00041023
f 1 2 3
f 1 3 7
f 1 7 4
f 1 4 8
f 1 8 12
f 1 12 16
f 1 16 20
f 1 20 26
f 1 26 30
f 1 30 34
f 1 34 39
f 1 39 41
f 1 41 44
f 1 44 45
f 1 45 42
f 1 42 37
f 1 37 36
f 1 36 32
f 1 32 31
f 1 31 27
f 1 27 23
f 1 23 22
f 1 22 21
f 1 21 17
f 1 17 13
f 1 13 9
f 1 9 5
f 1 5 2
f 2 5 6
f 2 6 3
f 3 6 10
f 3 10 14
f 3 14 18
f 3 18 24
f 3 24 28
f 3 28 33
f 3 33 38
f 3 38 43
f 3 43 40
f 3 40 35
f 3 35 29
f 3 29 25
f 3 25 19
f 3 19 15
f 3 15 11
f 3 11 7
f 4 7 11
f 4 11 8
f 5 9 6
f 6 9 10
f 8 11 12
f 9 13 10
f 10 13 17
f 10 17 14
f 11 15 12
f 12 15 16
f 14 17 18
f 15 19 20
f 15 20 16
f 17 21 18
f 18 21 22
f 18 22 23
f 18 23 24
f 19 25 30
f 19 30 26
f 19 26 20
f 23 27 24
f 24 27 28
f 25 29 34
f 25 34 30
f 27 31 28
f 28 32 33
f 28 31 32
f 29 35 39
f 29 39 34
f 32 36 33
f 33 36 37
f 33 37 38
f 35 40 41
f 35 41 39
f 37 42 38
f 38 42 45
f 38 45 43
f 40 43 45
f 40 45 44
f 40 44 41

