# https://github.com/mikedh/trimesh
v 0.00219968 0.00149527 0.00756240
v 0.00141520 0.00178793 0.00742251
v 0.00049514 0.00206993 0.00726070
v -0.00104970 0.00249826 0.00698804
v 0.00219968 0.00000097 0.00756240
v 0.00219968 0.00206993 0.00726070
v -0.00104970 0.00425130 0.00587488
v -0.00112792 0.00495000 0.00150759
v -0.00112988 -0.00435790 0.00150759
v -0.00104970 -0.00249729 0.00698804
v 0.00219968 -0.00149334 0.00756181
v 0.00219968 0.00425130 0.00587488
v -0.00104970 0.00462051 0.00554472
v -0.00104970 0.00485406 0.00512447
v -0.00104970 0.00486375 0.00510491
v -0.00104970 0.00495000 0.00460879
v -0.00060091 0.00495000 0.00150759
v -0.00112825 -0.00494903 0.00150759
v -0.00104970 -0.00425227 0.00587428
v 0.00049514 -0.00206896 0.00726010
v 0.00141520 -0.00178696 0.00742251
v 0.00219968 -0.00206896 0.00726010
v 0.00219968 0.00462051 0.00554472
v 0.00219968 0.00485406 0.00512447
v 0.00219968 0.00486375 0.00510491
v 0.00219968 0.00495000 0.00460879
v 0.00219936 0.00495000 0.00278850
v 0.00219936 0.00494903 0.00150759
v 0.00219936 -0.00494903 0.00150759
v -0.00104970 -0.00495000 0.00248620
v -0.00104970 -0.00495000 0.00460879
v -0.00104970 -0.00486472 0.00510491
v -0.00104970 -0.00473874 0.00533252
v -0.00104970 -0.00461955 0.00554472
v 0.00219968 -0.00425227 0.00587428
v 0.00219968 0.00495000 0.00278909
v 0.00219968 -0.00087604 0.00248620
v 0.00219968 -0.00495000 0.00248620
v 0.00219968 -0.00495000 0.00460879
v 0.00219968 -0.00486472 0.00510491
v 0.00219968 -0.00473874 0.00533252
v 0.00219968 -0.00461955 0.00554472
f 1 2 3
f 1 3 4
f 1 4 10
f 1 10 5
f 1 5 11
f 1 11 22
f 1 22 35
f 1 35 42
f 1 42 41
f 1 41 40
f 1 40 39
f 1 39 38
f 1 38 37
f 1 37 36
f 1 36 26
f 1 26 25
f 1 25 24
f 1 24 23
f 1 23 12
f 1 12 6
f 1 6 2
f 2 6 3
f 3 6 12
f 3 12 7
f 3 7 4
f 4 7 8
f 4 8 9
f 4 9 10
f 5 10 11
f 7 12 23
f 7 23 13
f 7 13 8
f 8 13 14
f 8 14 15
f 8 15 16
f 8 16 26
f 8 26 36
f 8 36 27
f 8 27 17
f 8 17 28
f 8 28 29
f 8 29 18
f 8 18 9
f 9 18 10
f 10 18 19
f 10 19 20
f 10 20 11
f 11 20 21
f 11 21 22
f 13 23 24
f 13 24 14
f 14 24 25
f 14 25 15
f 15 25 26
f 15 26 16
f 17 27 28
f 18 29 38
f 18 38 30
f 18 30 31
f 18 31 32
f 18 32 33
f 18 33 34
f 18 34 19
f 19 34 42
f 19 42 35
f 19 35 22
f 19 22 20
f 20 22 21
f 27 36 28
f 28 36 37
f 28 37 38
f 28 38 29
f 30 38 39
f 30 39 31
f 31 39 40
f 31 40 32
f 32 40 41
f 32 41 33
f 33 41 42
f 33 42 34

