# https://github.com/mikedh/trimesh
v 0.00149360 0.00700000 0.00013832
v 0.00134272 0.00700000 0.00066837
v 0.00149360 0.00496082 0.00013832
v 0.00144272 0.00700000 -0.00041023
v 0.00134097 0.00496082 0.00067072
v 0.00134272 0.00496082 0.00066837
v 0.00101026 0.00700000 0.00110827
v 0.00144272 0.00496082 -0.00041023
v 0.00119827 0.00496082 -0.00090123
v 0.00119681 0.00700000 -0.00090387
v 0.00101026 0.00496082 0.00110827
v 0.00054183 0.00700000 0.00139869
v 0.00100792 0.00496082 0.00111003
v 0.00119681 0.00496082 -0.00090387
v 0.00079154 0.00496082 -0.00127329
v 0.00078949 0.00700000 -0.00127505
v 0.00000000 0.00700000 0.00150000
v 0.00054183 0.00496082 0.00139869
v 0.00078949 0.00496082 -0.00127505
v 0.00027545 0.00700000 -0.00147445
v 0.00000000 0.00496082 0.00149971
v -0.00054182 0.00700000 0.00139869
v -0.00054182 0.00496082 0.00139869
v -0.00000263 0.00496082 0.00149942
v 0.00027545 0.00496082 -0.00147445
v 0.00000000 0.00496082 -0.00150000
v 0.00000000 0.00700000 -0.00149970
v -0.00101026 0.00700000 0.00110827
v -0.00101026 0.00496082 0.00110827
v -0.00027544 0.00496082 -0.00147445
v -0.00027544 0.00700000 -0.00147445
v -0.00134272 0.00700000 0.00066837
v -0.00134272 0.00496082 0.00066837
v -0.00078686 0.00496082 -0.00127623
v -0.00078949 0.00700000 -0.00127505
v -0.00149331 0.00700000 0.00013832
v -0.00149331 0.00496082 0.00013832
v -0.00078949 0.00496082 -0.00127505
v -0.00119681 0.00700000 -0.00090387
v -0.00149331 0.00496082 0.00013538
v -0.00144272 0.00700000 -0.00041023
v -0.00119681 0.00496082 -0.00090387
v -0.00144272 0.00496082 -0.00041023
f 1 2 6
f 1 6 3
f 1 3 8
f 1 8 4
f 1 4 10
f 1 10 16
f 1 16 20
f 1 20 27
f 1 27 31
f 1 31 35
f 1 35 39
f 1 39 41
f 1 41 36
f 1 36 32
f 1 32 28
f 1 28 22
f 1 22 17
f 1 17 12
f 1 12 7
f 1 7 2
f 2 5 6
f 2 7 5
f 3 6 5
f 3 5 11
f 3 11 13
f 3 13 18
f 3 18 21
f 3 21 24
f 3 24 23
f 3 23 29
f 3 29 33
f 3 33 37
f 3 37 40
f 3 40 43
f 3 43 42
f 3 42 38
f 3 38 34
f 3 34 30
f 3 30 26
f 3 26 25
f 3 25 19
f 3 19 15
f 3 15 14
f 3 14 9
f 3 9 8
f 4 8 9
f 4 9 10
f 5 7 11
f 7 12 13
f 7 13 11
f 9 14 10
f 10 14 15
f 10 15 16
f 12 17 18
f 12 18 13
f 15 19 16
f 16 19 25
f 16 25 20
f 17 21 18
f 17 22 23
f 17 23 24
f 17 24 21
f 20 25 26
f 20 26 27
f 22 28 29
f 22 29 23
f 26 30 31
f 26 31 27
f 28 32 33
f 28 33 29
f 30 34 31
f 31 34 35
f 32 36 37
f 32 37 33
f 34 38 35
f 35 38 42
f 35 42 39
f 36 40 37
f 36 41 40
f 39 42 43
f 39 43 41
f 40 41 43

