# https://github.com/mikedh/trimesh
v -0.00922183 0.00295048 -0.00586517
v -0.00922183 0.00494951 -0.00586517
v -0.00871022 0.00295048 -0.00585723
v -0.00025002 0.00194503 -0.00080046
v -0.00042511 0.00194503 -0.00078097
v -0.00970612 0.00295048 -0.00569921
v -0.00871022 0.00494951 -0.00585723
v -0.00970612 0.00494951 -0.00569921
v -0.00027609 0.00700000 -0.00147513
v -0.00000042 0.00700000 -0.00150038
v -0.00203072 0.00295048 -0.00460675
v 0.00153689 0.00194503 -0.00049740
v -0.00011094 0.00194503 -0.00078819
v -0.00062255 0.00194503 -0.00070810
v -0.00076784 0.00194503 -0.00061140
v -0.01010597 0.00295048 -0.00538099
v -0.00203072 0.00494951 -0.00460675
v 0.00027401 0.00700000 -0.00147513
v -0.01010597 0.00494951 -0.00538099
v -0.00079019 0.00700000 -0.00127597
v -0.00188046 0.00295048 -0.00457788
v 0.00179642 0.00194503 -0.00040359
v -0.00128814 0.00295048 -0.00442924
v -0.00088953 0.00194503 -0.00048224
v -0.01037667 0.00295048 -0.00494805
v -0.00188046 0.00494951 -0.00457788
v 0.00078935 0.00700000 -0.00127597
v -0.00128814 0.00494951 -0.00442924
v -0.01037667 0.00494951 -0.00494805
v -0.00119749 0.00700000 -0.00090436
v 0.00185975 0.00194503 -0.00036318
v -0.00074300 0.00295048 -0.00422071
v -0.00066477 0.00295048 -0.00418318
v -0.00033942 0.00295048 -0.00400135
v -0.00097894 0.00194503 -0.00033143
v -0.00099136 0.00194503 -0.00030113
v -0.00103358 0.00194503 -0.00016331
v -0.01048595 0.00295048 -0.00444800
v 0.00119665 0.00700000 -0.00090436
v 0.00038329 0.00494951 -0.00351789
v -0.00040772 0.00494951 -0.00405402
v -0.01048595 0.00494951 -0.00444800
v -0.00144336 0.00700000 -0.00041081
v 0.00200877 0.00194503 -0.00022681
v -0.00012211 0.00295048 -0.00384621
v -0.00004761 0.00295048 -0.00378560
v -0.00040772 0.00307221 -0.00405330
v -0.00037668 0.00308408 -0.00403670
v -0.00001905 0.00322609 -0.00381663
v -0.00104972 0.00194503 -0.00000023
v -0.00104972 0.00194503 0.00150641
v -0.01042014 0.00295048 -0.00394146
v 0.00144252 0.00700000 -0.00041081
v 0.00159402 0.00494951 -0.00204878
v 0.00105881 0.00494951 -0.00284106
v 0.00064158 0.00349180 -0.00328988
v 0.00038080 0.00338938 -0.00351862
v 0.00030133 0.00335722 -0.00358356
v -0.01042014 0.00494951 -0.00394146
v -0.00149427 0.00700000 0.00013759
v 0.00211929 0.00194503 -0.00005724
v 0.00020571 0.00295048 -0.00354459
v 0.00034479 0.00297374 -0.00340533
v 0.00044538 0.00295048 -0.00325091
v 0.00063661 0.00311377 -0.00315639
v 0.00090980 0.00323797 -0.00288291
v 0.00116188 0.00334039 -0.00258129
v 0.00002317 0.00301431 -0.00374952
v -0.00112795 0.00436019 0.00150641
v -0.00981663 0.00295048 -0.00313402
v -0.01018792 0.00295048 -0.00348542
v 0.00220000 0.00194503 0.00150641
v 0.00149219 0.00700000 0.00013759
v 0.00216647 0.00494902 -0.00023186
v 0.00196779 0.00494902 -0.00116846
v 0.00188335 0.00426964 -0.00140080
v 0.00181505 0.00372338 -0.00158553
v 0.00159277 0.00375059 -0.00204733
v 0.00151578 0.00374564 -0.00218227
v 0.00143010 0.00373426 -0.00232369
v 0.00113208 0.00366301 -0.00275014
v 0.00105757 0.00364025 -0.00284106
v 0.00092594 0.00340967 -0.00296228
v 0.00064406 0.00329190 -0.00325308
v 0.00034231 0.00315830 -0.00351429
v -0.01018792 0.00494951 -0.00348542
v -0.00134278 0.00700000 0.00066794
v 0.00214785 0.00194503 0.00001059
v 0.00139036 0.00341263 -0.00226020
v 0.00142513 0.00356998 -0.00230133
v 0.00163375 0.00359621 -0.00194054
v 0.00180884 0.00357394 -0.00156677
v 0.00118796 0.00350467 -0.00264335
v -0.00112919 0.00494951 0.00150641
v -0.00981663 0.00494951 -0.00313402
v 0.00220000 0.00194503 0.00033530
v 0.00220000 0.00494902 0.00150641
v 0.00220000 0.00494902 0.00033530
v 0.00134194 0.00700000 0.00066794
v 0.00219379 0.00266795 0.00009934
v 0.00217765 0.00298759 -0.00012001
v 0.00217392 0.00303856 -0.00016475
v 0.00214288 0.00326172 -0.00041153
v 0.00211680 0.00337206 -0.00057172
v 0.00207706 0.00347696 -0.00076221
v 0.00200504 0.00359472 -0.00104435
v 0.00197276 0.00362788 -0.00114970
v 0.00196779 0.00363282 -0.00116557
v 0.00188335 0.00368280 -0.00140080
v 0.00187093 0.00353980 -0.00140080
v -0.00101122 0.00700000 0.00110738
v 0.00194792 0.00349576 -0.00118938
v 0.00219876 0.00194503 0.00028118
v -0.00105344 0.00494951 0.00150641
v -0.00000042 0.00700000 0.00149919
v -0.00054183 0.00700000 0.00139817
v 0.00219876 0.00231713 0.00023500
v 0.00100914 0.00700000 0.00110738
v 0.00054099 0.00700000 0.00139817
v 0.00219503 0.00262342 0.00012171
f 1 2 7
f 1 7 3
f 1 3 4
f 1 4 5
f 1 5 6
f 1 6 8
f 1 8 2
f 2 8 9
f 2 9 10
f 2 10 7
f 3 7 17
f 3 17 11
f 3 11 12
f 3 12 13
f 3 13 4
f 4 13 12
f 4 12 22
f 4 22 31
f 4 31 44
f 4 44 61
f 4 61 88
f 4 88 113
f 4 113 96
f 4 96 72
f 4 72 51
f 4 51 50
f 4 50 37
f 4 37 36
f 4 36 35
f 4 35 24
f 4 24 15
f 4 15 14
f 4 14 5
f 5 14 6
f 6 14 15
f 6 15 16
f 6 16 19
f 6 19 8
f 7 10 18
f 7 18 17
f 8 19 20
f 8 20 9
f 9 20 30
f 9 30 43
f 9 43 60
f 9 60 87
f 9 87 111
f 9 111 116
f 9 116 115
f 9 115 119
f 9 119 118
f 9 118 99
f 9 99 73
f 9 73 53
f 9 53 39
f 9 39 27
f 9 27 18
f 9 18 10
f 11 17 26
f 11 26 21
f 11 21 12
f 12 21 23
f 12 23 22
f 15 24 16
f 16 25 29
f 16 29 19
f 16 24 25
f 17 18 26
f 18 27 28
f 18 28 26
f 19 29 30
f 19 30 20
f 21 26 28
f 21 28 23
f 22 23 32
f 22 32 33
f 22 33 34
f 22 34 31
f 23 28 32
f 24 35 25
f 25 35 36
f 25 36 37
f 25 37 38
f 25 38 42
f 25 42 29
f 27 39 40
f 27 40 41
f 27 41 28
f 28 41 32
f 29 42 43
f 29 43 30
f 31 34 45
f 31 45 46
f 31 46 44
f 32 41 33
f 33 41 47
f 33 47 34
f 34 47 48
f 34 48 49
f 34 49 45
f 37 50 38
f 38 50 51
f 38 51 52
f 38 52 59
f 38 59 42
f 39 53 54
f 39 54 55
f 39 55 40
f 40 55 56
f 40 56 57
f 40 57 58
f 40 58 49
f 40 49 41
f 41 48 47
f 41 49 48
f 42 59 60
f 42 60 43
f 44 46 62
f 44 62 63
f 44 63 64
f 44 64 65
f 44 65 66
f 44 66 67
f 44 67 61
f 45 49 68
f 45 68 46
f 46 68 62
f 49 58 68
f 51 69 70
f 51 70 71
f 51 71 52
f 51 72 97
f 51 97 114
f 51 114 94
f 51 94 69
f 52 71 86
f 52 86 59
f 53 73 74
f 53 74 75
f 53 75 54
f 54 75 76
f 54 76 77
f 54 77 78
f 54 78 79
f 54 79 80
f 54 80 55
f 55 80 81
f 55 81 82
f 55 82 56
f 56 82 83
f 56 83 84
f 56 84 57
f 57 85 58
f 57 84 85
f 58 85 68
f 59 86 87
f 59 87 60
f 61 67 89
f 61 89 90
f 61 90 91
f 61 91 92
f 61 92 88
f 62 68 85
f 62 85 63
f 63 85 84
f 63 84 65
f 63 65 64
f 65 84 66
f 66 84 83
f 66 83 93
f 66 93 67
f 67 93 89
f 69 94 70
f 70 95 86
f 70 86 71
f 70 94 95
f 72 96 98
f 72 98 97
f 73 97 98
f 73 98 74
f 73 99 97
f 74 98 100
f 74 100 101
f 74 101 102
f 74 102 103
f 74 103 104
f 74 104 105
f 74 105 75
f 75 105 106
f 75 106 107
f 75 107 108
f 75 108 109
f 75 109 76
f 76 109 77
f 77 92 91
f 77 91 78
f 77 109 110
f 77 110 92
f 78 91 79
f 79 91 90
f 79 90 80
f 80 90 93
f 80 93 81
f 81 93 83
f 81 83 82
f 86 95 111
f 86 111 87
f 88 92 110
f 88 110 112
f 88 112 106
f 88 106 105
f 88 105 104
f 88 104 103
f 88 103 113
f 89 93 90
f 94 114 115
f 94 115 116
f 94 116 95
f 95 116 111
f 96 113 117
f 96 117 98
f 97 99 118
f 97 118 119
f 97 119 115
f 97 115 114
f 98 117 120
f 98 120 100
f 100 120 113
f 100 113 101
f 101 113 102
f 102 113 103
f 106 112 107
f 107 112 108
f 108 112 109
f 109 112 110
f 113 120 117

