# https://github.com/mikedh/trimesh
v -0.00922171 -0.00494964 -0.00586517
v -0.00970574 -0.00494964 -0.00569980
v -0.00922171 -0.00295041 -0.00586517
v -0.00871092 -0.00494964 -0.00585762
v -0.00000074 -0.00496116 -0.00150075
v -0.00027559 -0.00496116 -0.00147497
v -0.01010586 -0.00494964 -0.00538163
v -0.00970574 -0.00295041 -0.00569980
v -0.00027924 -0.00496116 -0.00147372
v -0.00079003 -0.00496116 -0.00127565
v -0.00079246 -0.00496116 -0.00127376
v -0.00871092 -0.00295041 -0.00585762
v -0.00017344 -0.00278119 -0.00125364
v -0.00203052 -0.00299415 -0.00460696
v -0.00187972 -0.00494986 -0.00457867
v -0.00203052 -0.00494986 -0.00460633
v 0.00027533 -0.00496116 -0.00147497
v -0.01010586 -0.00295019 -0.00538163
v -0.01037585 -0.00494964 -0.00494714
v -0.00074017 -0.00496116 -0.00125364
v -0.00142365 -0.00496074 0.00038749
v -0.00149541 -0.00496074 0.00013787
v -0.00144433 -0.00496074 -0.00041107
v -0.00203052 -0.00295019 -0.00460696
v 0.00042735 -0.00295019 -0.00327771
v 0.00019020 -0.00294998 -0.00356318
v -0.00006520 -0.00295019 -0.00380212
v -0.00038991 -0.00295019 -0.00403351
v -0.00074260 -0.00295019 -0.00422089
v -0.00128866 -0.00295019 -0.00442965
v -0.00187972 -0.00295019 -0.00457867
v -0.00034127 -0.00278332 -0.00125364
v -0.00142365 -0.00443025 0.00055727
v 0.00121786 -0.00289685 -0.00125364
v -0.00128866 -0.00494986 -0.00442965
v 0.00078612 -0.00496116 -0.00127691
v -0.01037585 -0.00295019 -0.00494714
v -0.01048652 -0.00494964 -0.00444851
v 0.00081287 -0.00496116 -0.00125364
v 0.00193175 -0.00494986 -0.00125364
v -0.00142365 -0.00494943 0.00055852
v -0.00934941 -0.00494964 -0.00292810
v -0.00981763 -0.00494964 -0.00313434
v -0.01018856 -0.00494964 -0.00348584
v -0.01042085 -0.00494964 -0.00394108
v 0.00061950 -0.00294998 -0.00297023
v 0.00059396 -0.00295979 -0.00303311
v 0.00063775 -0.00311429 -0.00315572
v 0.00034465 -0.00297302 -0.00340598
v 0.00126042 -0.00290047 -0.00125364
v 0.00034222 -0.00315782 -0.00351539
v 0.00002237 -0.00301293 -0.00375307
v -0.00040816 -0.00307118 -0.00405426
v -0.00061490 -0.00299500 -0.00416115
v 0.00007831 -0.00326537 -0.00375181
v -0.00037654 -0.00308313 -0.00403728
v -0.00040937 -0.00494986 -0.00405489
v -0.01048652 -0.00295019 -0.00444851
v -0.01042085 -0.00295019 -0.00394108
v -0.01018856 -0.00295019 -0.00348584
v -0.00981763 -0.00295019 -0.00313434
v -0.00934941 -0.00295019 -0.00292810
v -0.00809311 -0.00295019 -0.00261622
v 0.00193661 -0.00365331 -0.00125364
v 0.00192445 -0.00350991 -0.00125364
v 0.00188675 -0.00337484 -0.00125364
v 0.00182594 -0.00325043 -0.00125364
v 0.00174202 -0.00313989 -0.00125364
v 0.00163743 -0.00304643 -0.00125364
v 0.00151460 -0.00297260 -0.00125364
v 0.00137474 -0.00292181 -0.00125364
v 0.00078855 -0.00496116 -0.00127565
v 0.00038357 -0.00494986 -0.00351853
v 0.00105975 -0.00494986 -0.00284196
v 0.00159365 -0.00494986 -0.00204906
v 0.00193783 -0.00467330 -0.00125364
v 0.00086030 -0.00308719 -0.00277971
v 0.00064504 -0.00329247 -0.00325193
v 0.00091017 -0.00323848 -0.00288220
v 0.00030087 -0.00335648 -0.00358518
v 0.00038235 -0.00338913 -0.00351979
v 0.00183080 -0.00371818 -0.00154917
v 0.00180891 -0.00357371 -0.00156615
v 0.00176391 -0.00343416 -0.00157181
v 0.00159122 -0.00344525 -0.00192393
v 0.00169581 -0.00330442 -0.00156678
v 0.00152555 -0.00330804 -0.00189312
v 0.00132731 -0.00326750 -0.00220877
v 0.00110475 -0.00319153 -0.00250493
v 0.00066085 -0.00349967 -0.00327142
v 0.00105854 -0.00364050 -0.00284259
v 0.00113759 -0.00366398 -0.00274512
v 0.00118259 -0.00367678 -0.00268602
v 0.00150852 -0.00374293 -0.00219934
v 0.00159365 -0.00374933 -0.00204843
v 0.00180405 -0.00372650 -0.00161331
v 0.00092719 -0.00340983 -0.00296143
v 0.00116191 -0.00333920 -0.00258541
v 0.00163257 -0.00359441 -0.00194216
v 0.00142339 -0.00356795 -0.00230560
v 0.00138934 -0.00341090 -0.00226473
v 0.00118745 -0.00350415 -0.00264640
f 1 2 8
f 1 8 3
f 1 3 12
f 1 12 4
f 1 4 5
f 1 5 6
f 1 6 2
f 2 7 18
f 2 18 8
f 2 6 9
f 2 9 10
f 2 10 11
f 2 11 7
f 3 8 13
f 3 13 12
f 4 12 24
f 4 24 14
f 4 14 15
f 4 15 16
f 4 16 17
f 4 17 5
f 5 17 36
f 5 36 72
f 5 72 39
f 5 39 20
f 5 20 11
f 5 11 10
f 5 10 9
f 5 9 6
f 7 11 19
f 7 19 37
f 7 37 18
f 8 18 13
f 11 20 21
f 11 21 22
f 11 22 23
f 11 23 19
f 12 13 24
f 13 25 26
f 13 26 27
f 13 27 28
f 13 28 29
f 13 29 30
f 13 30 31
f 13 31 24
f 13 18 32
f 13 32 33
f 13 33 34
f 13 34 25
f 14 24 31
f 14 31 15
f 15 31 30
f 15 30 35
f 15 35 17
f 15 17 16
f 17 35 36
f 18 37 32
f 19 38 58
f 19 58 37
f 19 23 38
f 20 39 21
f 21 39 40
f 21 40 41
f 21 41 42
f 21 42 43
f 21 43 44
f 21 44 45
f 21 45 22
f 22 45 38
f 22 38 23
f 25 46 47
f 25 47 48
f 25 48 49
f 25 49 26
f 25 34 50
f 25 50 46
f 26 49 51
f 26 51 52
f 26 52 27
f 27 52 28
f 28 53 54
f 28 54 29
f 28 52 55
f 28 55 56
f 28 56 53
f 29 54 57
f 29 57 35
f 29 35 30
f 32 37 58
f 32 58 59
f 32 59 60
f 32 60 61
f 32 61 62
f 32 62 63
f 32 63 33
f 33 63 62
f 33 62 41
f 33 41 64
f 33 64 65
f 33 65 66
f 33 66 67
f 33 67 68
f 33 68 69
f 33 69 70
f 33 70 71
f 33 71 50
f 33 50 34
f 35 57 36
f 36 57 72
f 38 45 59
f 38 59 58
f 39 72 73
f 39 73 74
f 39 74 75
f 39 75 40
f 40 75 76
f 40 76 41
f 41 62 42
f 41 76 64
f 42 62 61
f 42 61 43
f 43 61 60
f 43 60 44
f 44 60 59
f 44 59 45
f 46 77 47
f 46 50 71
f 46 71 70
f 46 70 69
f 46 69 68
f 46 68 77
f 47 77 48
f 48 78 49
f 48 77 79
f 48 79 78
f 49 78 51
f 51 80 52
f 51 78 81
f 51 81 80
f 52 80 55
f 53 56 57
f 53 57 54
f 55 80 73
f 55 73 57
f 55 57 56
f 57 73 72
f 64 76 82
f 64 82 65
f 65 82 83
f 65 83 66
f 66 83 84
f 66 84 67
f 67 84 85
f 67 85 86
f 67 86 87
f 67 87 88
f 67 88 68
f 68 88 89
f 68 89 77
f 73 80 81
f 73 81 90
f 73 90 74
f 74 90 91
f 74 91 92
f 74 92 93
f 74 93 75
f 75 93 94
f 75 94 95
f 75 95 96
f 75 96 76
f 76 96 82
f 77 89 79
f 78 79 97
f 78 97 90
f 78 90 81
f 79 89 98
f 79 98 97
f 82 96 83
f 83 96 99
f 83 99 84
f 84 99 85
f 85 100 101
f 85 101 87
f 85 87 86
f 85 99 100
f 87 101 88
f 88 101 98
f 88 98 89
f 90 97 91
f 91 97 102
f 91 102 92
f 92 102 93
f 93 102 100
f 93 100 94
f 94 100 99
f 94 99 95
f 95 99 96
f 97 98 102
f 98 101 102
f 100 102 101

