# https://github.com/mikedh/trimesh
v -0.00105000 -0.00292885 -0.00029410
v -0.00103314 -0.00292885 -0.00049770
v -0.00105000 -0.00292885 0.00150641
v -0.00105000 0.00202583 -0.00000142
v -0.00104968 0.00242858 -0.00006938
v -0.00098129 -0.00292885 -0.00070772
v -0.00103219 0.00242858 -0.00024359
v 0.00219968 -0.00292885 0.00150641
v -0.00105000 0.00132731 0.00150641
v -0.00104968 0.00242858 0.00150641
v -0.00089858 -0.00292885 -0.00091285
v -0.00099688 0.00242858 -0.00035656
v -0.00097811 0.00242858 -0.00041595
v 0.00219968 -0.00292885 0.00029984
v 0.00219968 0.00242858 0.00150641
v -0.00078948 -0.00292885 -0.00110818
v -0.00089031 0.00242858 -0.00057209
v 0.00219873 -0.00292885 0.00023402
v 0.00219968 -0.00215796 0.00027719
v 0.00219968 0.00242858 0.00027443
v -0.00059862 -0.00292885 -0.00137392
v -0.00077262 0.00242858 -0.00070956
v 0.00219491 -0.00292885 0.00012809
v 0.00219841 -0.00241545 0.00020830
v 0.00219968 0.00215851 0.00026770
v 0.00219873 0.00231635 0.00023616
v 0.00219746 0.00242858 0.00019514
v -0.00040840 -0.00292885 -0.00156435
v -0.00063075 0.00242858 -0.00082039
v 0.00218760 -0.00292885 0.00000226
v 0.00218760 -0.00284914 -0.00001121
v 0.00219396 -0.00266769 0.00010115
v 0.00216883 0.00242858 0.00004267
v 0.00218251 -0.00292885 -0.00007214
v -0.00037881 -0.00292885 -0.00158517
v -0.00056649 0.00242858 -0.00085039
v 0.00214052 0.00242858 -0.00009173
v 0.00211571 -0.00292885 -0.00037860
v -0.00022167 -0.00292885 -0.00162130
v -0.00047138 0.00242858 -0.00089448
v 0.00208739 0.00242858 -0.00018481
v 0.00209662 -0.00292885 -0.00043371
v 0.00203809 -0.00292885 -0.00055464
v 0.00199928 -0.00292885 -0.00062935
v 0.00107330 -0.00292885 -0.00139015
v -0.00037977 0.00242858 -0.00091315
v -0.00030183 0.00242858 -0.00092816
v -0.00020481 0.00242858 -0.00092448
v -0.00012847 0.00242858 -0.00091989
v 0.00064641 0.00242858 -0.00078549
v 0.00151037 0.00242858 -0.00063149
v 0.00199419 0.00242858 -0.00033911
v 0.00190004 -0.00292885 -0.00078273
v 0.00112738 -0.00292885 -0.00137974
v 0.00177407 0.00242858 -0.00053015
v 0.00125621 -0.00292885 -0.00134545
v 0.00180429 0.00242858 -0.00050505
v 0.00163124 -0.00292885 -0.00107572
v 0.00157271 -0.00292885 -0.00112991
v 0.00135036 -0.00292885 -0.00129003
f 1 2 6
f 1 6 11
f 1 11 16
f 1 16 21
f 1 21 28
f 1 28 35
f 1 35 39
f 1 39 45
f 1 45 54
f 1 54 56
f 1 56 60
f 1 60 59
f 1 59 58
f 1 58 53
f 1 53 44
f 1 44 43
f 1 43 42
f 1 42 38
f 1 38 34
f 1 34 30
f 1 30 23
f 1 23 18
f 1 18 14
f 1 14 8
f 1 8 3
f 1 3 9
f 1 9 4
f 1 4 5
f 1 5 2
f 2 5 7
f 2 7 6
f 3 8 15
f 3 15 10
f 3 10 9
f 4 9 10
f 4 10 5
f 5 10 15
f 5 15 20
f 5 20 27
f 5 27 33
f 5 33 37
f 5 37 41
f 5 41 52
f 5 52 57
f 5 57 55
f 5 55 51
f 5 51 50
f 5 50 49
f 5 49 48
f 5 48 47
f 5 47 46
f 5 46 40
f 5 40 36
f 5 36 29
f 5 29 22
f 5 22 17
f 5 17 13
f 5 13 12
f 5 12 7
f 6 7 12
f 6 12 13
f 6 13 11
f 8 14 19
f 8 19 25
f 8 25 20
f 8 20 15
f 11 13 16
f 13 17 16
f 14 18 19
f 16 17 21
f 17 22 21
f 18 23 24
f 18 24 19
f 19 24 25
f 20 25 26
f 20 26 27
f 21 22 28
f 22 29 28
f 23 30 31
f 23 31 32
f 23 32 24
f 24 32 27
f 24 27 26
f 24 26 25
f 27 32 31
f 27 31 34
f 27 34 33
f 28 29 35
f 29 36 35
f 30 34 31
f 33 34 37
f 34 38 37
f 35 36 40
f 35 40 39
f 37 38 42
f 37 42 43
f 37 43 44
f 37 44 41
f 39 40 46
f 39 46 47
f 39 47 48
f 39 48 49
f 39 49 50
f 39 50 51
f 39 51 45
f 41 44 52
f 44 53 52
f 45 51 54
f 51 55 56
f 51 56 54
f 52 53 58
f 52 58 59
f 52 59 57
f 55 57 59
f 55 59 60
f 55 60 56

