# https://github.com/mikedh/trimesh
v 0.00220000 0.00149430 0.00756218
v 0.00220000 0.00206993 0.00726046
v 0.00141504 0.00178890 0.00742288
v 0.00049480 0.00206993 0.00726046
v -0.00104969 0.00249826 0.00698778
v 0.00220000 -0.00149430 0.00756218
v 0.00220000 0.00425227 0.00587455
v -0.00104969 0.00425227 0.00587455
v -0.00112792 0.00495000 0.00150700
v -0.00113020 -0.00435887 0.00150700
v -0.00104969 -0.00249826 0.00698778
v 0.00049480 -0.00206993 0.00726046
v 0.00141504 -0.00178890 0.00742288
v 0.00220000 -0.00206993 0.00726046
v 0.00220000 0.00462052 0.00554497
v -0.00104969 0.00462052 0.00554497
v -0.00104969 0.00473874 0.00533276
v -0.00104969 0.00486472 0.00510514
v -0.00104969 0.00495000 0.00460898
v -0.00060114 0.00495000 0.00150700
v -0.00112792 -0.00495000 0.00150700
v -0.00104969 -0.00425227 0.00587455
v 0.00220000 -0.00425227 0.00587455
v 0.00220000 0.00473874 0.00533276
v 0.00220000 0.00486472 0.00510514
v 0.00220000 0.00495000 0.00460898
v 0.00220000 0.00495000 0.00278798
v 0.00220000 0.00494903 0.00150700
v 0.00219935 -0.00495000 0.00150700
v -0.00104969 -0.00495000 0.00460958
v -0.00104969 -0.00486375 0.00510573
v -0.00104969 -0.00473874 0.00533276
v -0.00104969 -0.00461955 0.00554497
v 0.00220000 -0.00461955 0.00554497
v 0.00220000 0.00030235 0.00150700
v 0.00220000 -0.00495000 0.00287512
v 0.00220000 -0.00495000 0.00460958
v 0.00220000 -0.00486375 0.00510573
v 0.00220000 -0.00473874 0.00533276
f 1 2 3
f 1 3 4
f 1 4 5
f 1 5 11
f 1 11 6
f 1 6 14
f 1 14 23
f 1 23 34
f 1 34 39
f 1 39 38
f 1 38 37
f 1 37 36
f 1 36 35
f 1 35 28
f 1 28 27
f 1 27 26
f 1 26 25
f 1 25 24
f 1 24 15
f 1 15 7
f 1 7 2
f 2 4 3
f 2 7 8
f 2 8 4
f 4 8 5
f 5 8 9
f 5 9 10
f 5 10 11
f 6 11 12
f 6 12 13
f 6 13 14
f 7 15 16
f 7 16 8
f 8 16 9
f 9 16 17
f 9 17 18
f 9 18 19
f 9 19 26
f 9 26 27
f 9 27 20
f 9 20 28
f 9 28 35
f 9 35 29
f 9 29 21
f 9 21 10
f 10 21 11
f 11 21 22
f 11 22 12
f 12 22 23
f 12 23 14
f 12 14 13
f 15 24 17
f 15 17 16
f 17 24 25
f 17 25 18
f 18 25 26
f 18 26 19
f 20 27 28
f 21 29 36
f 21 36 37
f 21 37 30
f 21 30 31
f 21 31 32
f 21 32 33
f 21 33 22
f 22 33 34
f 22 34 23
f 29 35 36
f 30 37 38
f 30 38 31
f 31 38 39
f 31 39 32
f 32 39 34
f 32 34 33

