# https://github.com/mikedh/trimesh
v -0.00922279 -0.00494981 -0.00586477
v -0.00970673 -0.00494981 -0.00569999
v -0.00922279 -0.00295020 -0.00586477
v -0.00871148 -0.00494981 -0.00585793
v -0.00970673 -0.00295020 -0.00569999
v -0.01010689 -0.00494981 -0.00538210
v -0.00871148 -0.00295020 -0.00585793
v -0.01010689 -0.00295000 -0.00538210
v -0.00466377 -0.00494981 -0.00509998
v -0.01037708 -0.00494981 -0.00494806
v -0.00466377 -0.00295020 -0.00509998
v -0.01037708 -0.00295000 -0.00494806
v -0.00466377 -0.00295000 -0.00327582
v -0.00466377 -0.00494981 -0.00175991
v -0.01048595 -0.00494981 -0.00444852
v -0.01048595 -0.00295000 -0.00444852
v -0.00466377 -0.00295000 -0.00311306
v -0.00466377 -0.00438031 -0.00175991
v -0.00544698 -0.00417592 -0.00195482
v -0.00935047 -0.00494981 -0.00292859
v -0.01042097 -0.00494981 -0.00394174
v -0.01042097 -0.00295000 -0.00394174
v -0.00686006 -0.00295000 -0.00263763
v -0.00708578 -0.00295000 -0.00259342
v -0.00724425 -0.00314577 -0.00240333
v -0.00809415 -0.00295000 -0.00261512
v -0.00766207 -0.00299875 -0.00250742
v -0.00935047 -0.00295000 -0.00292859
v -0.00981846 -0.00494981 -0.00313476
v -0.01018954 -0.00494981 -0.00348641
v -0.01018954 -0.00295000 -0.00348641
v -0.00752869 -0.00295000 -0.00255243
v -0.00981846 -0.00295000 -0.00313476
f 1 2 5
f 1 5 3
f 1 3 7
f 1 7 4
f 1 4 9
f 1 9 14
f 1 14 20
f 1 20 29
f 1 29 30
f 1 30 21
f 1 21 15
f 1 15 10
f 1 10 6
f 1 6 2
f 2 6 8
f 2 8 5
f 3 5 8
f 3 8 7
f 4 7 11
f 4 11 9
f 6 10 12
f 6 12 8
f 7 8 11
f 8 12 16
f 8 16 22
f 8 22 31
f 8 31 33
f 8 33 28
f 8 28 26
f 8 26 32
f 8 32 24
f 8 24 23
f 8 23 17
f 8 17 13
f 8 13 11
f 9 11 13
f 9 13 17
f 9 17 18
f 9 18 14
f 10 15 16
f 10 16 12
f 14 18 19
f 14 19 20
f 15 21 22
f 15 22 16
f 17 23 18
f 18 23 24
f 18 24 25
f 18 25 19
f 19 26 20
f 19 25 27
f 19 27 26
f 20 26 28
f 20 28 33
f 20 33 29
f 21 30 31
f 21 31 22
f 24 32 25
f 25 32 27
f 26 27 32
f 29 33 31
f 29 31 30

