# https://github.com/mikedh/trimesh
v 0.00149360 -0.00498779 0.00013832
v 0.00134272 -0.00498779 0.00066837
v 0.00149360 -0.00699980 0.00013832
v 0.00144272 -0.00498779 -0.00041023
v 0.00101640 -0.00498779 0.00110034
v 0.00134272 -0.00699980 0.00066837
v 0.00119681 -0.00700000 -0.00090387
v 0.00144272 -0.00699980 -0.00041023
v 0.00119681 -0.00498779 -0.00090387
v 0.00101026 -0.00498779 0.00110827
v 0.00101026 -0.00699980 0.00110827
v -0.00027544 -0.00700000 -0.00147445
v 0.00078949 -0.00700000 -0.00127505
v 0.00118950 -0.00498779 -0.00091063
v 0.00054183 -0.00699980 0.00139869
v 0.00000000 -0.00699980 0.00150000
v -0.00054182 -0.00699980 0.00139869
v 0.00054183 -0.00498779 0.00139869
v -0.00078949 -0.00699980 -0.00127505
v -0.00027544 -0.00498779 -0.00147445
v 0.00000000 -0.00700000 -0.00150000
v -0.00101026 -0.00699980 0.00110827
v -0.00134272 -0.00699980 0.00066837
v -0.00149331 -0.00699980 0.00013832
v -0.00144272 -0.00699980 -0.00041023
v -0.00119681 -0.00699980 -0.00090387
v 0.00027545 -0.00700000 -0.00147445
v 0.00078014 -0.00498779 -0.00127887
v 0.00078949 -0.00498779 -0.00127505
v 0.00000994 -0.00498779 0.00149795
v 0.00000000 -0.00498779 0.00149971
v -0.00054182 -0.00498779 0.00139869
v -0.00100178 -0.00498779 0.00111385
v -0.00078949 -0.00498779 -0.00127505
v -0.00079709 -0.00498779 -0.00126830
v -0.00000497 -0.00498779 -0.00149941
v 0.00000000 -0.00498779 -0.00149970
v 0.00027545 -0.00498779 -0.00147445
v -0.00133658 -0.00498779 0.00067659
v -0.00101026 -0.00498779 0.00110827
v -0.00134272 -0.00498779 0.00066837
v -0.00149068 -0.00498779 0.00014801
v -0.00149331 -0.00498779 0.00013832
v -0.00144272 -0.00498779 -0.00041023
v -0.00120149 -0.00498779 -0.00089477
v -0.00119681 -0.00498779 -0.00090387
f 1 2 6
f 1 6 3
f 1 3 8
f 1 8 4
f 1 4 9
f 1 9 14
f 1 14 29
f 1 29 28
f 1 28 38
f 1 38 37
f 1 37 36
f 1 36 20
f 1 20 34
f 1 34 35
f 1 35 46
f 1 46 45
f 1 45 44
f 1 44 43
f 1 43 42
f 1 42 41
f 1 41 39
f 1 39 40
f 1 40 33
f 1 33 32
f 1 32 31
f 1 31 30
f 1 30 18
f 1 18 10
f 1 10 5
f 1 5 2
f 2 5 6
f 3 6 7
f 3 7 8
f 4 8 7
f 4 7 9
f 5 10 11
f 5 11 6
f 6 11 7
f 7 12 21
f 7 21 27
f 7 27 13
f 7 13 14
f 7 14 9
f 7 11 15
f 7 15 16
f 7 16 17
f 7 17 12
f 10 18 15
f 10 15 11
f 12 19 34
f 12 34 20
f 12 20 21
f 12 17 22
f 12 22 23
f 12 23 24
f 12 24 25
f 12 25 26
f 12 26 19
f 13 27 28
f 13 28 29
f 13 29 14
f 15 18 16
f 16 18 30
f 16 30 31
f 16 31 32
f 16 32 17
f 17 32 33
f 17 33 22
f 19 26 35
f 19 35 34
f 20 36 21
f 21 36 37
f 21 37 38
f 21 38 27
f 22 39 23
f 22 33 40
f 22 40 39
f 23 39 41
f 23 41 42
f 23 42 24
f 24 42 43
f 24 43 44
f 24 44 25
f 25 44 45
f 25 45 26
f 26 45 46
f 26 46 35
f 27 38 28

