# https://github.com/mikedh/trimesh
v -0.00922108 0.00295044 -0.00586476
v -0.00970534 0.00295044 -0.00569953
v -0.00922108 0.00494961 -0.00586476
v -0.00871074 0.00295044 -0.00585755
v -0.00030201 0.00250715 -0.00097278
v -0.00030698 0.00250715 -0.00097278
v -0.00047585 0.00250715 -0.00093670
v -0.00970534 0.00494961 -0.00569953
v -0.00048950 0.00250715 -0.00093093
v -0.00063354 0.00250715 -0.00086238
v -0.00077509 0.00250715 -0.00075127
v -0.01010641 0.00295044 -0.00538134
v -0.00027593 0.00699980 -0.00147496
v -0.00000028 0.00699980 -0.00150022
v -0.00871074 0.00494961 -0.00585755
v -0.00464545 0.00295044 -0.00509633
v 0.00149720 0.00250715 -0.00068056
v 0.00127494 0.00250715 -0.00072024
v -0.00013438 0.00250715 -0.00096484
v -0.01010641 0.00494961 -0.00538134
v -0.00078999 0.00699980 -0.00127582
v -0.00085332 0.00250715 -0.00065602
v -0.01037585 0.00295044 -0.00494770
v -0.00089057 0.00250715 -0.00060840
v 0.00027414 0.00699980 -0.00147496
v -0.00464545 0.00494961 -0.00509633
v -0.00188020 0.00295044 -0.00457827
v 0.00176168 0.00250715 -0.00058098
v -0.00128915 0.00295044 -0.00442964
v -0.01037585 0.00494961 -0.00494770
v -0.00119727 0.00699980 -0.00090423
v -0.00097873 0.00250715 -0.00044029
v -0.00103212 0.00250715 -0.00026856
v -0.01048512 0.00295044 -0.00444768
v 0.00078820 0.00699980 -0.00127582
v -0.00128915 0.00494961 -0.00442964
v -0.00188020 0.00494961 -0.00457827
v 0.00185109 0.00250715 -0.00050739
v -0.00074281 0.00295044 -0.00422039
v -0.00066334 0.00295044 -0.00418287
v -0.00034050 0.00295088 -0.00399960
v -0.00012196 0.00295088 -0.00384520
v -0.00004622 0.00295088 -0.00378531
v -0.01048512 0.00494961 -0.00444768
v -0.00144312 0.00699980 -0.00041070
v -0.00104827 0.00250715 -0.00010694
v -0.00104951 0.00250715 -0.00009251
v -0.00104951 0.00250715 0.00150569
v -0.01042055 0.00295044 -0.00394116
v 0.00119671 0.00699980 -0.00090423
v 0.00038341 0.00494917 -0.00351762
v -0.00040879 0.00494917 -0.00405300
v -0.00105323 0.00494961 -0.00432934
v 0.00198643 0.00250715 -0.00038256
v -0.00037651 0.00308412 -0.00403640
v -0.00001890 0.00322661 -0.00381561
v 0.00002456 0.00301420 -0.00374923
v 0.00020709 0.00295044 -0.00354432
v -0.01042055 0.00494961 -0.00394116
v -0.00149403 0.00699980 0.00013766
v -0.00104951 0.00294252 0.00150641
v -0.00112649 0.00436032 0.00150641
v -0.00981709 0.00295044 -0.00313377
v -0.01018836 0.00295044 -0.00348587
v 0.00220000 0.00250715 0.00150569
v 0.00144257 0.00699980 -0.00041070
v 0.00159405 0.00494917 -0.00204714
v 0.00105889 0.00494917 -0.00284082
v 0.00064168 0.00349223 -0.00329034
v 0.00038216 0.00338976 -0.00351834
v 0.00030145 0.00335722 -0.00358328
v 0.00200630 0.00250715 -0.00034937
v 0.00044673 0.00295044 -0.00325065
v 0.00063671 0.00311447 -0.00315685
v 0.00090864 0.00323848 -0.00288267
v 0.00116195 0.00334051 -0.00258107
v 0.00034367 0.00315844 -0.00351401
v 0.00034615 0.00297418 -0.00340362
v -0.01018836 0.00494961 -0.00348587
v -0.00134255 0.00699980 0.00066799
v 0.00220000 0.00294252 0.00150641
v -0.00112773 0.00494961 0.00150641
v -0.00981709 0.00494961 -0.00313377
v 0.00220000 0.00250715 0.00033464
v 0.00149224 0.00699980 0.00013766
v 0.00216647 0.00494917 -0.00023321
v 0.00196656 0.00494917 -0.00116975
v 0.00181508 0.00372398 -0.00158536
v 0.00159281 0.00375037 -0.00204642
v 0.00151707 0.00374509 -0.00218279
v 0.00143015 0.00373410 -0.00232348
v 0.00113215 0.00366330 -0.00274847
v 0.00105764 0.00364087 -0.00284155
v 0.00064416 0.00329213 -0.00325282
v 0.00092602 0.00340955 -0.00296204
v 0.00211557 0.00250715 -0.00015961
v 0.00139042 0.00341263 -0.00225927
v 0.00118802 0.00350542 -0.00264312
v -0.00101101 0.00699980 0.00110740
v 0.00220000 0.00494917 0.00150641
v -0.00105323 0.00494961 0.00150641
v -0.00000028 0.00699980 0.00149919
v -0.00054290 0.00699980 0.00139818
v 0.00219876 0.00250715 0.00027475
v 0.00220000 0.00494917 0.00033464
v 0.00134199 0.00699980 0.00066799
v 0.00219255 0.00266811 0.00009942
v 0.00217765 0.00298738 -0.00011993
v 0.00217392 0.00303927 -0.00016538
v 0.00214288 0.00326135 -0.00041215
v 0.00211557 0.00337261 -0.00057305
v 0.00207707 0.00347728 -0.00076281
v 0.00200381 0.00359469 -0.00104565
v 0.00197277 0.00362855 -0.00115100
v 0.00196780 0.00363339 -0.00116687
v 0.00180887 0.00357446 -0.00156660
v 0.00163255 0.00359601 -0.00194107
v 0.00194794 0.00349662 -0.00119068
v 0.00142518 0.00357051 -0.00230040
v 0.00213667 0.00250715 -0.00012209
v 0.00159281 0.00344693 -0.00192087
v 0.00100922 0.00699980 0.00110740
v 0.00054110 0.00699980 0.00139818
v 0.00219503 0.00250715 0.00016508
v 0.00219379 0.00262325 0.00012179
v 0.00217765 0.00250715 0.00007489
v 0.00176292 0.00343418 -0.00157237
f 1 2 8
f 1 8 3
f 1 3 15
f 1 15 4
f 1 4 5
f 1 5 6
f 1 6 7
f 1 7 2
f 2 7 9
f 2 9 10
f 2 10 11
f 2 11 12
f 2 12 20
f 2 20 8
f 3 8 13
f 3 13 14
f 3 14 15
f 4 15 26
f 4 26 16
f 4 16 17
f 4 17 18
f 4 18 19
f 4 19 5
f 5 19 18
f 5 18 17
f 5 17 28
f 5 28 38
f 5 38 54
f 5 54 72
f 5 72 96
f 5 96 120
f 5 120 126
f 5 126 124
f 5 124 104
f 5 104 84
f 5 84 65
f 5 65 48
f 5 48 47
f 5 47 46
f 5 46 33
f 5 33 32
f 5 32 24
f 5 24 22
f 5 22 11
f 5 11 10
f 5 10 9
f 5 9 7
f 5 7 6
f 8 20 21
f 8 21 13
f 11 22 12
f 12 23 30
f 12 30 20
f 12 22 24
f 12 24 23
f 13 21 31
f 13 31 45
f 13 45 60
f 13 60 80
f 13 80 99
f 13 99 103
f 13 103 102
f 13 102 123
f 13 123 122
f 13 122 106
f 13 106 85
f 13 85 66
f 13 66 50
f 13 50 35
f 13 35 25
f 13 25 14
f 14 25 15
f 15 25 26
f 16 26 37
f 16 37 27
f 16 27 17
f 17 27 29
f 17 29 28
f 20 30 31
f 20 31 21
f 23 24 32
f 23 32 33
f 23 33 34
f 23 34 44
f 23 44 30
f 25 35 36
f 25 36 37
f 25 37 26
f 27 37 36
f 27 36 29
f 28 29 39
f 28 39 40
f 28 40 41
f 28 41 42
f 28 42 43
f 28 43 38
f 29 36 39
f 30 44 45
f 30 45 31
f 33 46 34
f 34 46 47
f 34 47 48
f 34 48 49
f 34 49 59
f 34 59 44
f 35 50 51
f 35 51 52
f 35 52 53
f 35 53 36
f 36 53 39
f 38 43 54
f 39 53 52
f 39 52 40
f 40 52 55
f 40 55 41
f 41 55 56
f 41 56 42
f 42 56 57
f 42 57 43
f 43 57 58
f 43 58 54
f 44 59 60
f 44 60 45
f 48 61 62
f 48 62 63
f 48 63 64
f 48 64 49
f 48 65 81
f 48 81 61
f 49 64 79
f 49 79 59
f 50 66 67
f 50 67 68
f 50 68 51
f 51 68 69
f 51 69 70
f 51 70 71
f 51 71 56
f 51 56 52
f 52 56 55
f 54 58 73
f 54 73 74
f 54 74 75
f 54 75 76
f 54 76 72
f 56 71 57
f 57 71 77
f 57 77 58
f 58 77 78
f 58 78 73
f 59 79 80
f 59 80 60
f 61 81 100
f 61 100 101
f 61 101 82
f 61 82 62
f 62 82 63
f 63 83 79
f 63 79 64
f 63 82 83
f 65 84 105
f 65 105 100
f 65 100 81
f 66 85 86
f 66 86 87
f 66 87 67
f 67 87 88
f 67 88 89
f 67 89 90
f 67 90 91
f 67 91 68
f 68 91 92
f 68 92 93
f 68 93 69
f 69 94 70
f 69 93 95
f 69 95 94
f 70 77 71
f 70 94 77
f 72 76 97
f 72 97 96
f 73 78 74
f 74 78 94
f 74 94 95
f 74 95 75
f 75 95 76
f 76 95 98
f 76 98 97
f 77 94 78
f 79 83 99
f 79 99 80
f 82 101 102
f 82 102 103
f 82 103 83
f 83 103 99
f 84 104 105
f 85 106 100
f 85 100 105
f 85 105 86
f 86 105 107
f 86 107 108
f 86 108 109
f 86 109 110
f 86 110 111
f 86 111 112
f 86 112 87
f 87 112 113
f 87 113 114
f 87 114 115
f 87 115 88
f 88 116 117
f 88 117 89
f 88 115 118
f 88 118 116
f 89 117 90
f 90 117 119
f 90 119 91
f 91 119 98
f 91 98 92
f 92 98 93
f 93 98 95
f 96 97 120
f 97 98 119
f 97 119 121
f 97 121 120
f 100 106 122
f 100 122 123
f 100 123 102
f 100 102 101
f 104 124 125
f 104 125 105
f 105 125 107
f 107 125 108
f 108 125 124
f 108 124 109
f 109 126 110
f 109 124 126
f 110 120 111
f 110 126 120
f 111 120 112
f 112 118 113
f 112 120 118
f 113 118 114
f 114 118 115
f 116 127 117
f 116 118 120
f 116 120 127
f 117 127 121
f 117 121 119
f 120 121 127

