# https://github.com/mikedh/trimesh
v 0.00220000 0.00250687 0.00150641
v 0.00220000 -0.00265789 0.00150641
v 0.00220000 0.00250687 0.00033530
v -0.00105111 0.00250687 0.00150641
v 0.00220000 -0.00494899 0.00150569
v -0.00105359 -0.00494899 0.00150641
v 0.00220000 -0.00494899 0.00033530
v 0.00219876 -0.00231636 0.00023572
v 0.00219876 0.00250687 0.00024294
v -0.00104987 0.00250687 -0.00009115
v -0.01048652 -0.00295009 -0.00444800
v -0.01041946 -0.00295009 -0.00394074
v -0.01018848 -0.00295009 -0.00348542
v -0.00981718 -0.00295009 -0.00313402
v -0.00113058 -0.00435993 0.00150641
v -0.00000176 -0.00699907 0.00149919
v 0.00054092 -0.00699907 0.00139817
v 0.00100909 -0.00699907 0.00110738
v 0.00134190 -0.00699907 0.00066794
v 0.00149216 -0.00699907 0.00013759
v -0.00112810 -0.00494899 0.00150641
v 0.00218634 -0.00284959 -0.00001178
v 0.00219379 -0.00265789 0.00010584
v 0.00216647 -0.00494899 -0.00023258
v 0.00219627 0.00250687 0.00016645
v -0.00104862 0.00250687 -0.00010558
v -0.01048652 -0.00494899 -0.00444800
v -0.00103372 0.00250687 -0.00026794
v -0.01037724 -0.00295009 -0.00494733
v -0.01041946 -0.00494899 -0.00394074
v -0.01018848 -0.00494899 -0.00348542
v -0.00981718 -0.00494899 -0.00313402
v -0.00054196 -0.00699907 0.00139817
v 0.00119660 -0.00700000 -0.00090436
v 0.00144124 -0.00699907 -0.00041081
v 0.00217765 -0.00298731 -0.00012001
v 0.00196654 -0.00494899 -0.00116846
v 0.00207706 -0.00347680 -0.00076221
v 0.00211431 -0.00337630 -0.00058038
v 0.00214288 -0.00326091 -0.00041297
v 0.00215033 -0.00321903 -0.00035958
v 0.00217889 0.00250687 0.00007553
v -0.01037724 -0.00494899 -0.00494733
v -0.00144353 -0.00699907 -0.00041081
v -0.00149444 -0.00699907 0.00013759
v -0.00098032 0.00250687 -0.00043606
v -0.01010652 -0.00295009 -0.00538099
v -0.00097908 0.00250687 -0.00043967
v -0.00089215 0.00250687 -0.00060708
v -0.00134294 -0.00699907 0.00066794
v -0.00101013 -0.00699907 0.00110738
v -0.00027745 -0.00700000 -0.00147513
v 0.00078928 -0.00700000 -0.00127597
v 0.00038321 -0.00494899 -0.00351789
v 0.00105876 -0.00494899 -0.00284106
v 0.00159399 -0.00494899 -0.00204733
v 0.00196654 -0.00363407 -0.00116629
v 0.00199510 -0.00360522 -0.00107465
v 0.00182994 -0.00371782 -0.00155017
v 0.00213791 0.00250687 -0.00012218
v -0.01010652 -0.00494899 -0.00538099
v -0.00119764 -0.00699907 -0.00090436
v -0.00970541 -0.00295009 -0.00569921
v -0.00085366 0.00250687 -0.00065470
v -0.00077542 0.00250687 -0.00075067
v -0.00079156 -0.00699907 -0.00127597
v -0.00970541 -0.00494899 -0.00569921
v -0.00922110 -0.00494899 -0.00586517
v -0.00000176 -0.00700000 -0.00150110
v 0.00027392 -0.00700000 -0.00147513
v -0.00129078 -0.00494899 -0.00442924
v -0.00040784 -0.00494899 -0.00405330
v 0.00038072 -0.00338933 -0.00351789
v 0.00066013 -0.00349914 -0.00326895
v 0.00007896 -0.00326556 -0.00375024
v 0.00030124 -0.00335676 -0.00358428
v 0.00105876 -0.00364058 -0.00284106
v 0.00113699 -0.00366478 -0.00274365
v 0.00118294 -0.00367688 -0.00268520
v 0.00150830 -0.00374295 -0.00219670
v 0.00159150 -0.00374853 -0.00204661
v 0.00180262 -0.00372620 -0.00161367
v 0.00211680 0.00250687 -0.00015898
v -0.00922110 -0.00295009 -0.00586517
v -0.00068104 0.00250687 -0.00082499
v -0.00063385 0.00250687 -0.00086107
v -0.00048980 0.00250687 -0.00092962
v -0.00047614 0.00250687 -0.00093611
v -0.00871071 -0.00494899 -0.00585723
v -0.00202967 -0.00494899 -0.00460602
v -0.00187941 -0.00494899 -0.00457788
v -0.00129078 -0.00295009 -0.00442924
v -0.00074313 -0.00295009 -0.00422071
v -0.00061398 -0.00299476 -0.00415937
v -0.00037804 -0.00308316 -0.00403670
v 0.00034222 -0.00315761 -0.00351429
v 0.00064523 -0.00329255 -0.00325019
v 0.00092588 -0.00340980 -0.00296012
v 0.00002183 -0.00301337 -0.00375168
v -0.00038921 -0.00295009 -0.00403310
v 0.00118791 -0.00350379 -0.00264551
v 0.00198641 0.00250687 -0.00038194
v 0.00142386 -0.00356800 -0.00230349
v 0.00200752 0.00250687 -0.00034875
v -0.00871071 -0.00295009 -0.00585723
v -0.00030725 0.00250687 -0.00097147
v -0.00202967 -0.00295009 -0.00460602
v -0.00187941 -0.00295009 -0.00457788
v 0.00149713 0.00250687 -0.00067923
v 0.00176288 0.00250687 -0.00058038
v 0.00185229 0.00250687 -0.00050533
v -0.00006634 -0.00295009 -0.00380147
v -0.00013464 0.00250687 -0.00096353
v 0.00127608 0.00250687 -0.00071892
f 1 2 5
f 1 5 7
f 1 7 3
f 1 3 9
f 1 9 25
f 1 25 42
f 1 42 60
f 1 60 83
f 1 83 104
f 1 104 102
f 1 102 111
f 1 111 110
f 1 110 109
f 1 109 114
f 1 114 113
f 1 113 106
f 1 106 88
f 1 88 87
f 1 87 86
f 1 86 85
f 1 85 65
f 1 65 64
f 1 64 49
f 1 49 48
f 1 48 46
f 1 46 28
f 1 28 26
f 1 26 10
f 1 10 4
f 1 4 15
f 1 15 21
f 1 21 6
f 1 6 2
f 2 6 5
f 3 7 8
f 3 8 9
f 4 10 11
f 4 11 12
f 4 12 13
f 4 13 14
f 4 14 15
f 5 6 16
f 5 16 17
f 5 17 18
f 5 18 19
f 5 19 20
f 5 20 7
f 6 21 16
f 7 22 23
f 7 23 8
f 7 20 24
f 7 24 22
f 8 23 25
f 8 25 9
f 10 26 11
f 11 27 30
f 11 30 12
f 11 26 28
f 11 28 29
f 11 29 43
f 11 43 27
f 12 30 31
f 12 31 13
f 13 31 32
f 13 32 14
f 14 32 15
f 15 32 21
f 16 21 33
f 16 33 34
f 16 34 17
f 17 34 18
f 18 34 19
f 19 34 20
f 20 34 35
f 20 35 24
f 21 32 33
f 22 36 25
f 22 25 23
f 22 24 36
f 24 37 38
f 24 38 39
f 24 39 40
f 24 40 41
f 24 41 36
f 24 35 37
f 25 36 41
f 25 41 40
f 25 40 39
f 25 39 42
f 27 43 44
f 27 44 45
f 27 45 30
f 28 46 29
f 29 47 61
f 29 61 43
f 29 46 48
f 29 48 49
f 29 49 47
f 30 45 50
f 30 50 31
f 31 50 51
f 31 51 32
f 32 51 33
f 33 51 52
f 33 52 34
f 34 52 69
f 34 69 70
f 34 70 53
f 34 53 54
f 34 54 55
f 34 55 56
f 34 56 35
f 35 56 37
f 37 57 58
f 37 58 38
f 37 56 59
f 37 59 57
f 38 58 60
f 38 60 39
f 39 60 42
f 43 61 62
f 43 62 44
f 44 62 52
f 44 52 45
f 45 52 50
f 47 63 67
f 47 67 61
f 47 49 64
f 47 64 65
f 47 65 63
f 50 52 51
f 52 62 66
f 52 66 67
f 52 67 68
f 52 68 69
f 53 70 71
f 53 71 72
f 53 72 54
f 54 73 74
f 54 74 55
f 54 72 75
f 54 75 76
f 54 76 73
f 55 77 78
f 55 78 79
f 55 79 56
f 55 74 77
f 56 80 81
f 56 81 82
f 56 82 59
f 56 79 80
f 57 60 58
f 57 59 60
f 59 82 60
f 60 82 81
f 60 81 80
f 60 80 83
f 61 67 66
f 61 66 62
f 63 84 68
f 63 68 67
f 63 65 85
f 63 85 86
f 63 86 87
f 63 87 88
f 63 88 84
f 68 84 105
f 68 105 89
f 68 89 69
f 69 89 70
f 70 89 90
f 70 90 91
f 70 91 71
f 71 91 108
f 71 108 92
f 71 92 93
f 71 93 72
f 72 93 94
f 72 94 95
f 72 95 75
f 73 76 96
f 73 96 97
f 73 97 74
f 74 97 98
f 74 98 77
f 75 99 76
f 75 95 100
f 75 100 99
f 76 99 96
f 77 101 78
f 77 98 102
f 77 102 101
f 78 101 79
f 79 101 102
f 79 102 103
f 79 103 80
f 80 103 104
f 80 104 83
f 84 88 106
f 84 106 105
f 89 105 107
f 89 107 90
f 90 107 108
f 90 108 91
f 92 108 109
f 92 109 110
f 92 110 93
f 93 100 94
f 93 110 100
f 94 100 95
f 96 111 102
f 96 102 97
f 96 99 111
f 97 102 98
f 99 100 112
f 99 112 110
f 99 110 111
f 100 110 112
f 102 104 103
f 105 106 113
f 105 113 114
f 105 114 109
f 105 109 107
f 107 109 108

