# https://github.com/mikedh/trimesh
v -0.00105000 -0.00194957 0.00000067
v -0.00104936 -0.00238287 -0.00005472
v -0.00104936 -0.00238287 0.00150641
v -0.00105000 -0.00129814 0.00150641
v -0.00105000 0.00202578 -0.00000138
v -0.00104936 0.00267029 -0.00015295
v -0.00103791 -0.00238287 -0.00017809
v -0.00103250 0.00267029 -0.00033915
v 0.00220000 -0.00238287 0.00150641
v -0.00105000 -0.00000666 0.00150641
v -0.00105000 0.00267029 0.00127789
v -0.00103250 -0.00238287 -0.00022989
v -0.00100673 0.00267029 -0.00042968
v 0.00220000 -0.00238287 0.00033562
v 0.00220000 -0.00000666 0.00150641
v -0.00105000 0.00267029 0.00150615
v -0.00097874 -0.00238287 -0.00040224
v -0.00097938 0.00267029 -0.00052483
v 0.00219936 -0.00238287 0.00023919
v 0.00219936 -0.00231659 0.00023663
v 0.00220000 -0.00000617 0.00033537
v 0.00220000 0.00267029 0.00150615
v -0.00089062 -0.00238287 -0.00055818
v -0.00089316 0.00267029 -0.00069282
v 0.00219873 -0.00238287 0.00021790
v 0.00219523 0.00262231 0.00012378
v 0.00219936 0.00267029 0.00024919
v 0.00220000 0.00267029 0.00033537
v -0.00077164 -0.00238287 -0.00069051
v -0.00077864 0.00267029 -0.00085106
v 0.00214242 -0.00238287 -0.00007345
v 0.00219396 0.00267029 0.00009890
v 0.00219523 0.00267029 0.00012814
v -0.00062943 -0.00238287 -0.00079618
v -0.00071087 0.00267029 -0.00091467
v -0.00064152 0.00267029 -0.00097776
v 0.00199672 -0.00238287 -0.00032145
v 0.00206130 0.00267029 -0.00033838
v 0.00212715 0.00267029 -0.00021835
v 0.00214751 0.00267029 -0.00013551
v -0.00046910 -0.00238287 -0.00086979
v -0.00049868 0.00267029 -0.00105829
v -0.00048818 0.00267029 -0.00106419
v 0.00178039 -0.00238287 -0.00050227
v 0.00172822 0.00267029 -0.00071616
v 0.00196872 0.00267029 -0.00049149
v -0.00029890 -0.00238287 -0.00090338
v -0.00032403 0.00267029 -0.00111318
v 0.00154593 -0.00238287 -0.00059280
v 0.00156056 0.00267029 -0.00079592
v 0.00163341 0.00267029 -0.00076386
v -0.00012520 -0.00238287 -0.00089466
v -0.00030367 0.00267029 -0.00111369
v -0.00015351 0.00267029 -0.00110984
v 0.00151761 -0.00238287 -0.00060280
v 0.00145017 0.00267029 -0.00082567
v 0.00027151 -0.00238287 -0.00082619
v -0.00001226 0.00267029 -0.00108522
v 0.00129906 0.00267029 -0.00085260
f 1 2 3
f 1 3 4
f 1 4 10
f 1 10 16
f 1 16 11
f 1 11 5
f 1 5 6
f 1 6 2
f 2 7 12
f 2 12 17
f 2 17 23
f 2 23 29
f 2 29 34
f 2 34 41
f 2 41 47
f 2 47 52
f 2 52 57
f 2 57 55
f 2 55 49
f 2 49 44
f 2 44 37
f 2 37 31
f 2 31 25
f 2 25 19
f 2 19 14
f 2 14 9
f 2 9 3
f 2 6 8
f 2 8 7
f 3 9 15
f 3 15 10
f 3 10 4
f 5 11 6
f 6 11 16
f 6 16 22
f 6 22 28
f 6 28 27
f 6 27 33
f 6 33 32
f 6 32 40
f 6 40 39
f 6 39 38
f 6 38 46
f 6 46 45
f 6 45 51
f 6 51 50
f 6 50 56
f 6 56 59
f 6 59 58
f 6 58 54
f 6 54 53
f 6 53 48
f 6 48 43
f 6 43 42
f 6 42 36
f 6 36 35
f 6 35 30
f 6 30 24
f 6 24 18
f 6 18 13
f 6 13 8
f 7 8 12
f 8 13 12
f 9 14 21
f 9 21 28
f 9 28 22
f 9 22 15
f 10 15 22
f 10 22 16
f 12 13 18
f 12 18 17
f 14 19 20
f 14 20 21
f 17 18 24
f 17 24 23
f 19 25 20
f 20 25 26
f 20 26 27
f 20 27 28
f 20 28 21
f 23 24 30
f 23 30 29
f 25 31 32
f 25 32 26
f 26 32 33
f 26 33 27
f 29 30 35
f 29 35 36
f 29 36 34
f 31 37 38
f 31 38 39
f 31 39 40
f 31 40 32
f 34 36 42
f 34 42 43
f 34 43 41
f 37 44 45
f 37 45 46
f 37 46 38
f 41 43 48
f 41 48 47
f 44 49 50
f 44 50 51
f 44 51 45
f 47 48 53
f 47 53 54
f 47 54 52
f 49 55 50
f 50 55 56
f 52 54 57
f 54 58 57
f 55 57 56
f 56 57 59
f 57 58 59

