# https://github.com/mikedh/trimesh
v 0.00220000 0.00149527 0.00756240
v 0.00220000 0.00206993 0.00726007
v 0.00141504 0.00178890 0.00742309
v -0.00104969 0.00249923 0.00698798
v 0.00049480 -0.00207090 0.00726126
v 0.00220000 -0.00149624 0.00756240
v 0.00049480 0.00206993 0.00726007
v 0.00220000 0.00425324 0.00587471
v -0.00104969 0.00425324 0.00587471
v -0.00112792 0.00495000 0.00150700
v -0.00113020 -0.00435887 0.00150700
v -0.00104969 -0.00249923 0.00698798
v -0.00104969 -0.00425227 0.00587530
v 0.00220000 -0.00207090 0.00726126
v 0.00141504 -0.00178987 0.00742368
v 0.00220000 0.00461955 0.00554453
v -0.00104969 0.00461955 0.00554453
v -0.00104969 0.00486375 0.00510526
v -0.00104969 0.00495000 0.00460969
v -0.00060114 0.00495000 0.00150700
v -0.00112792 -0.00495000 0.00150700
v 0.00220000 -0.00425227 0.00587530
v -0.00104969 -0.00462052 0.00554453
v 0.00220000 0.00486375 0.00510526
v 0.00220000 0.00495000 0.00460969
v 0.00220000 0.00495000 0.00287517
v 0.00220000 0.00494903 0.00150700
v 0.00219935 -0.00495000 0.00150700
v -0.00104969 -0.00495000 0.00460969
v -0.00104969 -0.00486472 0.00510526
v 0.00220000 -0.00462052 0.00554453
v 0.00220000 -0.00030332 0.00150700
v 0.00220000 -0.00495000 0.00287517
v 0.00220000 -0.00495000 0.00460969
v 0.00220000 -0.00486472 0.00510526
f 1 2 3
f 1 3 4
f 1 4 5
f 1 5 6
f 1 6 14
f 1 14 22
f 1 22 31
f 1 31 35
f 1 35 34
f 1 34 33
f 1 33 32
f 1 32 27
f 1 27 26
f 1 26 25
f 1 25 24
f 1 24 16
f 1 16 8
f 1 8 2
f 2 7 3
f 2 8 4
f 2 4 7
f 3 7 4
f 4 8 9
f 4 9 10
f 4 10 11
f 4 11 12
f 4 12 5
f 5 12 13
f 5 13 22
f 5 22 14
f 5 14 15
f 5 15 6
f 6 15 14
f 8 16 17
f 8 17 9
f 9 17 10
f 10 17 18
f 10 18 19
f 10 19 25
f 10 25 26
f 10 26 20
f 10 20 27
f 10 27 32
f 10 32 28
f 10 28 21
f 10 21 11
f 11 21 12
f 12 21 13
f 13 21 23
f 13 23 31
f 13 31 22
f 16 24 18
f 16 18 17
f 18 24 25
f 18 25 19
f 20 26 27
f 21 28 33
f 21 33 34
f 21 34 29
f 21 29 30
f 21 30 23
f 23 30 35
f 23 35 31
f 28 32 33
f 29 34 35
f 29 35 30

