# https://github.com/mikedh/trimesh
v 0.00149360 0.00700000 0.00013832
v 0.00134272 0.00700000 0.00066837
v 0.00149360 0.00495534 0.00013832
v 0.00144272 0.00700000 -0.00041023
v 0.00134184 0.00495534 0.00066954
v 0.00134272 0.00495534 0.00066837
v 0.00101026 0.00700000 0.00110827
v 0.00144272 0.00495534 -0.00041023
v 0.00119681 0.00700000 -0.00090387
v 0.00101026 0.00495534 0.00110827
v 0.00054183 0.00700000 0.00139869
v 0.00100909 0.00495534 0.00110915
v 0.00119681 0.00495534 -0.00090387
v 0.00079066 0.00495534 -0.00127417
v 0.00078949 0.00700000 -0.00127505
v 0.00000000 0.00700000 0.00150000
v 0.00054183 0.00495534 0.00139869
v 0.00078949 0.00495534 -0.00127505
v 0.00027545 0.00700000 -0.00147445
v 0.00000000 0.00495534 0.00150000
v -0.00054182 0.00700000 0.00139869
v 0.00027545 0.00495534 -0.00147445
v 0.00000000 0.00700000 -0.00150000
v -0.00054182 0.00495534 0.00139869
v -0.00101026 0.00700000 0.00110827
v 0.00000000 0.00495534 -0.00150000
v -0.00027544 0.00700000 -0.00147445
v -0.00101026 0.00495534 0.00110827
v -0.00134272 0.00700000 0.00066837
v -0.00027544 0.00495534 -0.00147445
v -0.00078803 0.00495534 -0.00127564
v -0.00078949 0.00700000 -0.00127505
v -0.00134272 0.00495534 0.00066837
v -0.00149360 0.00700000 0.00013832
v -0.00078949 0.00495534 -0.00127505
v -0.00119593 0.00495534 -0.00090475
v -0.00119681 0.00700000 -0.00090387
v -0.00149360 0.00495534 0.00013832
v -0.00144272 0.00700000 -0.00041023
v -0.00119681 0.00495534 -0.00090387
v -0.00144272 0.00495534 -0.00041023
f 1 2 6
f 1 6 3
f 1 3 8
f 1 8 4
f 1 4 9
f 1 9 15
f 1 15 19
f 1 19 23
f 1 23 27
f 1 27 32
f 1 32 37
f 1 37 39
f 1 39 34
f 1 34 29
f 1 29 25
f 1 25 21
f 1 21 16
f 1 16 11
f 1 11 7
f 1 7 2
f 2 5 6
f 2 7 5
f 3 6 5
f 3 5 10
f 3 10 12
f 3 12 17
f 3 17 20
f 3 20 24
f 3 24 28
f 3 28 33
f 3 33 38
f 3 38 41
f 3 41 40
f 3 40 36
f 3 36 35
f 3 35 31
f 3 31 30
f 3 30 26
f 3 26 22
f 3 22 18
f 3 18 14
f 3 14 13
f 3 13 8
f 4 8 13
f 4 13 9
f 5 7 10
f 7 11 12
f 7 12 10
f 9 13 14
f 9 14 15
f 11 16 20
f 11 20 17
f 11 17 12
f 14 18 15
f 15 18 22
f 15 22 19
f 16 21 24
f 16 24 20
f 19 22 26
f 19 26 23
f 21 25 28
f 21 28 24
f 23 26 30
f 23 30 27
f 25 29 33
f 25 33 28
f 27 31 32
f 27 30 31
f 29 34 38
f 29 38 33
f 31 35 32
f 32 36 37
f 32 35 36
f 34 39 41
f 34 41 38
f 36 40 37
f 37 40 41
f 37 41 39

