# https://github.com/mikedh/trimesh
v -0.00024099 0.00395420 -0.00252166
v 0.00024133 0.00395420 -0.00252166
v -0.00046200 0.00395420 -0.00251689
v -0.00135337 0.00413893 -0.00320258
v -0.00081183 0.00413893 -0.00321210
v -0.00027029 0.00413893 -0.00321687
v 0.00314684 0.00414365 -0.00280260
v 0.00134822 0.00395420 -0.00203596
v 0.00027064 0.00413893 -0.00321687
v 0.00081218 0.00413893 -0.00321210
v 0.00135372 0.00413893 -0.00320258
v 0.00189526 0.00414176 -0.00319306
v 0.00243680 0.00415873 -0.00316449
v -0.00157072 0.00395420 -0.00199787
v -0.00309033 0.00414365 -0.00282165
v -0.00243645 0.00415873 -0.00316449
v -0.00189491 0.00414176 -0.00319306
v -0.00027029 0.00430105 -0.00348828
v 0.00314684 0.00412951 -0.00266451
v 0.00271276 0.00417475 -0.00314068
v 0.00314684 0.00420397 -0.00298830
v 0.00162418 0.00395420 -0.00177883
v 0.00314684 0.00410218 -0.00232643
v 0.00027064 0.00430105 -0.00348828
v 0.00027064 0.00457155 -0.00382636
v 0.00189526 0.00436891 -0.00346448
v 0.00189526 0.00463941 -0.00375970
v 0.00243680 0.00440849 -0.00343590
v -0.00309033 0.00410218 -0.00232643
v -0.00209211 0.00395420 -0.00144551
v -0.00309033 0.00421811 -0.00304068
v -0.00271241 0.00417475 -0.00314068
v -0.00243645 0.00440849 -0.00343590
v -0.00189491 0.00463941 -0.00375970
v -0.00189491 0.00436891 -0.00346448
v -0.00027029 0.00457155 -0.00382636
v 0.00243680 0.00467900 -0.00371685
v 0.00273413 0.00471104 -0.00368828
v 0.00314684 0.00472706 -0.00360733
v 0.00314684 0.00449332 -0.00336448
v 0.00314684 0.00422470 -0.00303116
v 0.00188549 0.00395420 -0.00149789
v 0.00229943 0.00395420 -0.00070268
v 0.00211139 0.00395420 -0.00123600
v 0.00314684 0.00395420 0.00292574
v 0.00135372 0.00461679 -0.00378351
v 0.00027064 0.00538400 -0.00464062
v 0.00189526 0.00490991 -0.00403112
v 0.00243680 0.00548485 -0.00453586
v 0.00243680 0.00521717 -0.00426444
v -0.00224902 0.00395420 -0.00099791
v -0.00309033 0.00395420 0.00292574
v -0.00309033 0.00448578 -0.00336924
v -0.00309033 0.00456589 -0.00345495
v -0.00273378 0.00471104 -0.00368828
v -0.00243645 0.00467900 -0.00371685
v -0.00135337 0.00461679 -0.00378351
v -0.00243645 0.00521717 -0.00426444
v -0.00243645 0.00548485 -0.00453586
v -0.00189491 0.00490991 -0.00403112
v -0.00027029 0.00538400 -0.00464062
v 0.00277259 0.00578551 -0.00477871
v 0.00292400 0.00500039 -0.00394065
v 0.00314684 0.00529352 -0.00418826
v 0.00314684 0.00395420 0.04009090
v 0.00189526 0.00518136 -0.00430254
v 0.00027064 0.00592595 -0.00517869
v 0.00081218 0.00594857 -0.00515964
v 0.00243680 0.00575535 -0.00480728
v -0.00309033 0.00395420 0.04029089
v -0.00309033 0.00476005 -0.00365494
v -0.00292426 0.00500039 -0.00394065
v -0.00277285 0.00578551 -0.00477871
v -0.00189491 0.00518136 -0.00430254
v -0.00243645 0.00575535 -0.00480728
v -0.00081183 0.00594857 -0.00515964
v -0.00027029 0.00592595 -0.00517869
v 0.00243680 0.00603151 -0.00507870
v 0.00274084 0.00633123 -0.00531202
v 0.00314684 0.00582887 -0.00473585
v 0.00314684 0.00934917 0.04260984
v 0.00303451 0.00395420 0.04202891
v 0.00135372 0.00597119 -0.00513584
v 0.00189526 0.00599475 -0.00511203
v 0.00027064 0.00619645 -0.00542154
v 0.00135372 0.00624169 -0.00538345
v -0.00304698 0.00395420 0.04153369
v -0.00304026 0.00661304 0.04304792
v -0.00304759 0.00704000 0.04304792
v -0.00309033 0.00932372 0.04289078
v -0.00309033 0.00525299 -0.00415968
v -0.00309033 0.00555554 -0.00446920
v -0.00309033 0.00576101 -0.00467871
v -0.00309033 0.00582227 -0.00474061
v -0.00274110 0.00633123 -0.00531202
v -0.00243645 0.00603151 -0.00507870
v -0.00189491 0.00599475 -0.00511203
v -0.00135337 0.00597119 -0.00513584
v -0.00135337 0.00624169 -0.00538345
v -0.00027029 0.00619645 -0.00542154
v 0.00243680 0.00630201 -0.00533583
v 0.00189526 0.00661304 -0.00543582
v 0.00243680 0.00661304 -0.00537392
v 0.00278114 0.00661304 -0.00532154
v 0.00305160 0.00661304 -0.00525488
v 0.00314684 0.00661304 -0.00523107
v 0.00314684 0.00651785 -0.00518821
v 0.00314684 0.00610220 -0.00499298
v 0.00314684 0.00600512 -0.00490251
v 0.00314684 0.00985341 0.04276222
v 0.00304000 0.00661304 0.04304792
v 0.00302840 0.00395420 0.04207653
v 0.00189526 0.00626619 -0.00535964
v 0.00027064 0.00661304 -0.00555963
v -0.00302744 0.00395420 0.04207653
v -0.00303111 0.00649805 0.04304792
v -0.00307506 0.00986095 0.04304792
v -0.00309033 0.00986095 0.04298602
v -0.00309033 0.00609560 -0.00500251
v -0.00278018 0.00661304 -0.00532154
v -0.00243645 0.00661304 -0.00537392
v -0.00189491 0.00661304 -0.00543582
v -0.00243645 0.00630201 -0.00533583
v -0.00309033 0.00661304 -0.00524536
v -0.00189491 0.00626619 -0.00535964
v -0.00027029 0.00661304 -0.00555963
v 0.00189526 0.00715405 -0.00545011
v 0.00243680 0.00715405 -0.00539297
v 0.00027064 0.00715405 -0.00558344
v 0.00135372 0.00715405 -0.00549772
v 0.00280800 0.00715405 -0.00533107
v 0.00314684 0.00715405 -0.00525012
v 0.00314684 0.01038782 0.04279555
v 0.00304733 0.00715405 0.04304792
v 0.00289836 0.00605130 0.04304792
v 0.00286905 0.00395420 0.04260032
v 0.00288737 0.00395420 0.04256222
v -0.00286809 0.00395420 0.04260032
v -0.00286809 0.00593914 0.04304792
v -0.00307506 0.01094485 0.04304792
v -0.00309033 0.01040290 0.04299078
v -0.00280643 0.00715405 -0.00533107
v -0.00243645 0.00715405 -0.00539297
v -0.00189491 0.00715405 -0.00545011
v -0.00135337 0.00715405 -0.00549772
v -0.00027029 0.00715405 -0.00558344
v -0.00309033 0.00715405 -0.00525964
v -0.00307751 0.00715405 -0.00526440
v 0.00189526 0.00769599 -0.00545487
v 0.00243680 0.00823794 -0.00539773
v 0.00189526 0.00931995 -0.00546439
v 0.00189526 0.01256880 -0.00547868
v 0.00027064 0.00931995 -0.00559296
v 0.00081218 0.01040290 -0.00556439
v 0.00081218 0.00769599 -0.00554534
v 0.00283181 0.00986095 -0.00533107
v 0.00311143 0.01202780 -0.00527869
v 0.00314684 0.00980440 -0.00526440
v 0.00243680 0.00986095 -0.00540249
v 0.00314684 0.01092034 0.04280507
v 0.00307602 0.00947264 0.04304792
v 0.00279823 0.00584772 0.04304792
v 0.00243680 0.00395420 0.04286221
v -0.00251521 0.00395420 0.04282412
v -0.00279788 0.00584583 0.04304792
v -0.00243645 0.00395420 0.04285745
v -0.00307323 0.01187040 0.04304792
v -0.00309033 0.01094485 0.04299078
v -0.00309033 0.00930581 -0.00527393
v -0.00309033 0.01037086 -0.00527869
v -0.00283268 0.00986095 -0.00533107
v -0.00243645 0.00986095 -0.00540249
v -0.00243645 0.00823794 -0.00539773
v -0.00189491 0.01148585 -0.00547392
v -0.00189491 0.00931995 -0.00546439
v -0.00189491 0.00769599 -0.00545487
v -0.00135337 0.01256880 -0.00553106
v -0.00081183 0.00986095 -0.00555963
v -0.00081183 0.00769599 -0.00554534
v -0.00081183 0.01148585 -0.00556915
v -0.00027029 0.00931995 -0.00559296
v 0.00135372 0.01256880 -0.00553106
v 0.00081218 0.01311075 -0.00553106
v 0.00135372 0.01311075 -0.00546439
v 0.00243680 0.01293262 -0.00535487
v 0.00275977 0.01286664 -0.00532154
v 0.00243680 0.01256880 -0.00540249
v -0.00027029 0.01256880 -0.00559772
v 0.00027064 0.01256880 -0.00559296
v 0.00081218 0.01256880 -0.00557391
v 0.00283608 0.01040290 -0.00533107
v 0.00283975 0.01148585 -0.00533107
v 0.00284036 0.01202780 -0.00533107
v 0.00281349 0.01256880 -0.00533107
v 0.00314684 0.01202780 -0.00526916
v 0.00314684 0.01143873 -0.00526916
v 0.00314684 0.01094485 0.04280507
v 0.00307724 0.01093637 0.04304792
v 0.00245572 0.00571294 0.04304792
v 0.00189526 0.00395420 0.04288126
v -0.00270630 0.00576760 0.04304792
v -0.00189491 0.00395420 0.04288126
v -0.00306285 0.01202874 0.04304792
v -0.00309033 0.01177992 0.04298126
v -0.00309033 0.01202780 -0.00527869
v -0.00283696 0.01148585 -0.00533107
v -0.00283574 0.01040290 -0.00533107
v -0.00243645 0.01256880 -0.00540249
v -0.00189491 0.01256880 -0.00547392
v -0.00081183 0.01311075 -0.00553582
v -0.00081183 0.01256880 -0.00557391
v 0.00027064 0.01311075 -0.00556915
v 0.00081218 0.01345948 -0.00539773
v 0.00135372 0.01341801 -0.00535011
v 0.00164799 0.01338785 -0.00531202
v 0.00295575 0.01291565 -0.00500251
v 0.00314684 0.01287607 -0.00487870
v 0.00314684 0.01279218 -0.00497870
v 0.00314684 0.01257069 -0.00514536
v 0.00314684 0.01249152 -0.00517869
v -0.00027029 0.01311075 -0.00556915
v 0.00314684 0.01148585 0.04276698
v 0.00306076 0.01202969 0.04304792
v 0.00307053 0.01148585 0.04304792
v 0.00307724 0.01094485 0.04304792
v 0.00243680 0.00570728 0.04304792
v 0.00189526 0.00568278 0.04304792
v 0.00081218 0.00568183 0.04304792
v -0.00189491 0.00568089 0.04304792
v -0.00243645 0.00570540 0.04304792
v -0.00192727 0.00568183 0.04304792
v -0.00309033 0.01203063 0.04288126
v -0.00289313 0.01259802 0.04304792
v -0.00309033 0.01239067 0.04244794
v -0.00275759 0.01286475 -0.00532154
v -0.00281009 0.01256880 -0.00533107
v -0.00283696 0.01202780 -0.00533107
v -0.00309033 0.01238784 -0.00521202
v -0.00243645 0.01293073 -0.00535487
v -0.00135337 0.01311075 -0.00546439
v -0.00135337 0.01341896 -0.00535011
v -0.00081183 0.01346043 -0.00540249
v 0.00027064 0.01348116 -0.00542154
v 0.00027064 0.01358107 -0.00503584
v 0.00081218 0.01353771 -0.00503584
v 0.00135372 0.01345854 -0.00503584
v 0.00167486 0.01339351 -0.00503584
v 0.00243680 0.01319464 -0.00449300
v 0.00314684 0.01291000 -0.00466919
v -0.00027029 0.01348116 -0.00542154
v 0.00314684 0.01203157 0.04260984
v 0.00288920 0.01260179 0.04304792
v 0.00314684 0.01204005 0.04260508
v 0.00314684 0.01256504 0.04208129
v -0.00278812 0.01278181 0.04304792
v -0.00309033 0.01280915 0.04176226
v -0.00309033 0.01257729 0.04217176
v -0.00309033 0.01256975 -0.00517393
v -0.00309033 0.01258294 -0.00516441
v -0.00309033 0.01288643 -0.00491204
v -0.00295418 0.01291377 -0.00500251
v -0.00164459 0.01338691 -0.00531202
v -0.00081183 0.01354054 -0.00503584
v -0.00027029 0.01358107 -0.00503584
v 0.00081218 0.01353865 -0.00449300
v 0.00027064 0.01358107 0.00850647
v 0.00135372 0.01346137 -0.00449300
v 0.00168890 0.01339634 -0.00449300
v 0.00195936 0.01333224 -0.00449300
v 0.00297834 0.01298917 -0.00449300
v 0.00197646 0.01333224 0.03936712
v 0.00243680 0.01319464 -0.00395017
v 0.00297834 0.01299388 0.04099562
v 0.00314684 0.01291565 -0.00449300
v 0.00284707 0.01267814 0.04304792
v 0.00314684 0.01278464 0.04164321
v -0.00264891 0.01288549 0.04304792
v -0.00274904 0.01286758 0.04298602
v -0.00309033 0.01289492 0.04150036
v -0.00309033 0.01293827 -0.00449300
v -0.00297860 0.01298634 -0.00449300
v -0.00243645 0.01319087 -0.00449300
v -0.00167146 0.01339256 -0.00503584
v -0.00135337 0.01346043 -0.00503584
v -0.00135337 0.01346420 -0.00449300
v -0.00081183 0.01354148 -0.00449300
v -0.00027029 0.01358107 0.00254480
v 0.00027064 0.01357259 0.04099562
v 0.00081218 0.01352075 0.04099562
v 0.00135372 0.01345854 0.04099562
v -0.00027029 0.01358013 0.00958738
v -0.00027029 0.01357259 0.04099562
v 0.00170538 0.01340199 0.04099562
v 0.00170538 0.01340199 0.03936712
v 0.00314684 0.01292319 0.04099562
v 0.00197646 0.01333224 0.04099562
v 0.00243680 0.01319369 0.04099562
v 0.00243680 0.01317013 0.04153369
v 0.00314684 0.01289492 0.04139084
v 0.00277503 0.01280443 0.04304792
v -0.00244256 0.01295147 0.04304792
v -0.00243645 0.01305326 0.04261936
v -0.00279972 0.01290717 0.04261936
v -0.00309033 0.01291471 0.04142894
v -0.00309033 0.01294581 0.04099562
v -0.00297860 0.01299294 0.04099562
v -0.00195841 0.01333130 0.00038299
v -0.00195841 0.01333036 -0.00449300
v -0.00243645 0.01319369 0.03990995
v -0.00197611 0.01333224 0.03936712
v -0.00168794 0.01339634 -0.00449300
v -0.00170565 0.01340199 0.03936712
v -0.00135337 0.01346420 -0.00286926
v -0.00081183 0.01354148 -0.00341210
v 0.00027064 0.01355279 0.04153369
v 0.00081218 0.01350190 0.04153369
v 0.00135372 0.01343875 0.04153369
v 0.00166570 0.01339162 0.04153369
v -0.00081183 0.01352075 0.04099562
v -0.00081183 0.01350190 0.04153369
v -0.00027029 0.01355279 0.04153369
v 0.00193677 0.01331999 0.04153369
v 0.00184153 0.01330114 0.04202415
v 0.00243680 0.01311452 0.04207653
v 0.00278602 0.01289869 0.04261936
v 0.00274573 0.01286758 0.04300506
v 0.00273535 0.01286193 0.04304792
v -0.00189491 0.01311170 0.04304792
v -0.00189491 0.01320877 0.04261936
v -0.00243645 0.01313055 0.04207653
v -0.00309033 0.01294204 0.04110514
v -0.00243645 0.01317579 0.04153369
v -0.00243645 0.01319369 0.04099562
v -0.00197611 0.01333224 0.04099562
v -0.00170565 0.01340199 0.04099562
v -0.00135337 0.01345854 0.04099562
v 0.00027064 0.01350944 0.04207653
v 0.00081218 0.01345854 0.04207653
v 0.00133907 0.01340199 0.04202415
v 0.00162540 0.01338220 0.04180987
v -0.00135337 0.01343875 0.04153369
v -0.00133933 0.01340199 0.04202415
v -0.00081183 0.01345854 0.04207653
v -0.00027029 0.01350944 0.04207653
v 0.00189526 0.01321443 0.04261936
v 0.00243680 0.01304760 0.04261936
v 0.00245450 0.01295901 0.04304792
v 0.00267613 0.01288266 0.04304792
v -0.00135093 0.01323516 0.04304792
v -0.00133933 0.01333224 0.04260032
v -0.00151028 0.01336523 0.04217176
v -0.00184179 0.01330303 0.04202415
v -0.00193643 0.01332188 0.04153369
v -0.00166596 0.01339162 0.04153369
v 0.00031948 0.01343309 0.04267174
v 0.00081218 0.01340764 0.04252413
v 0.00114919 0.01339068 0.04240985
v 0.00151062 0.01336523 0.04217176
v -0.00162567 0.01338220 0.04180987
v -0.00114945 0.01339068 0.04240985
v -0.00081183 0.01340764 0.04252413
v -0.00031974 0.01343309 0.04267174
v 0.00133907 0.01333413 0.04260032
v 0.00135067 0.01323799 0.04304792
v 0.00146789 0.01321349 0.04304792
v 0.00189526 0.01312395 0.04304792
v -0.00118303 0.01325967 0.04304792
v -0.00081183 0.01336712 0.04279555
v 0.00017173 0.01339728 0.04294792
v 0.00053317 0.01338031 0.04288602
v 0.00081218 0.01336712 0.04279555
v -0.00053282 0.01338031 0.04288602
v -0.00017200 0.01339728 0.04294792
v 0.00081218 0.01330774 0.04304792
v -0.00081183 0.01330774 0.04304792
v 0.00024561 0.01336429 0.04304792
v 0.00039946 0.01335015 0.04304792
v -0.00069644 0.01332188 0.04304792
v -0.00039911 0.01335015 0.04304792
v -0.00024587 0.01336429 0.04304792
f 1 2 8
f 1 8 22
f 1 22 42
f 1 42 44
f 1 44 43
f 1 43 45
f 1 45 65
f 1 65 82
f 1 82 112
f 1 112 137
f 1 137 136
f 1 136 163
f 1 163 200
f 1 200 202
f 1 202 166
f 1 166 164
f 1 164 138
f 1 138 115
f 1 115 87
f 1 87 70
f 1 70 52
f 1 52 51
f 1 51 30
f 1 30 14
f 1 14 3
f 1 3 4
f 1 4 5
f 1 5 6
f 1 6 9
f 1 9 2
f 2 7 8
f 2 9 10
f 2 10 11
f 2 11 12
f 2 12 13
f 2 13 7
f 3 14 15
f 3 15 16
f 3 16 17
f 3 17 4
f 4 17 18
f 4 18 5
f 5 18 6
f 6 18 24
f 6 24 9
f 7 19 8
f 7 13 20
f 7 20 21
f 7 21 41
f 7 41 40
f 7 40 39
f 7 39 64
f 7 64 80
f 7 80 109
f 7 109 108
f 7 108 107
f 7 107 106
f 7 106 132
f 7 132 158
f 7 158 196
f 7 196 195
f 7 195 220
f 7 220 219
f 7 219 218
f 7 218 217
f 7 217 249
f 7 249 274
f 7 274 295
f 7 295 299
f 7 299 276
f 7 276 254
f 7 254 253
f 7 253 251
f 7 251 222
f 7 222 197
f 7 197 160
f 7 160 133
f 7 133 110
f 7 110 81
f 7 81 65
f 7 65 45
f 7 45 23
f 7 23 19
f 8 19 23
f 8 23 22
f 9 24 10
f 10 24 11
f 11 24 12
f 12 24 25
f 12 25 26
f 12 26 13
f 13 26 27
f 13 27 28
f 13 28 20
f 14 29 15
f 14 30 29
f 15 29 52
f 15 52 70
f 15 70 90
f 15 90 118
f 15 118 141
f 15 141 168
f 15 168 204
f 15 204 232
f 15 232 234
f 15 234 257
f 15 257 256
f 15 256 279
f 15 279 304
f 15 304 331
f 15 331 305
f 15 305 280
f 15 280 260
f 15 260 259
f 15 259 258
f 15 258 238
f 15 238 205
f 15 205 170
f 15 170 169
f 15 169 147
f 15 147 124
f 15 124 119
f 15 119 94
f 15 94 93
f 15 93 92
f 15 92 91
f 15 91 71
f 15 71 54
f 15 54 53
f 15 53 31
f 15 31 32
f 15 32 16
f 16 32 33
f 16 33 34
f 16 34 35
f 16 35 17
f 17 35 36
f 17 36 18
f 18 36 25
f 18 25 24
f 20 28 37
f 20 37 38
f 20 38 39
f 20 39 40
f 20 40 41
f 20 41 21
f 22 23 42
f 23 43 44
f 23 44 42
f 23 45 43
f 25 46 26
f 25 36 61
f 25 61 47
f 25 47 46
f 26 46 27
f 27 37 28
f 27 46 48
f 27 48 69
f 27 69 49
f 27 49 50
f 27 50 37
f 29 30 51
f 29 51 52
f 31 53 32
f 32 53 54
f 32 54 55
f 32 55 56
f 32 56 33
f 33 56 34
f 34 57 35
f 34 56 58
f 34 58 59
f 34 59 75
f 34 75 60
f 34 60 57
f 35 57 36
f 36 57 61
f 37 50 62
f 37 62 38
f 38 62 63
f 38 63 39
f 39 63 64
f 46 47 68
f 46 68 66
f 46 66 48
f 47 61 77
f 47 77 67
f 47 67 68
f 48 66 69
f 49 69 62
f 49 62 50
f 54 71 55
f 55 71 72
f 55 72 73
f 55 73 56
f 56 73 58
f 57 60 74
f 57 74 76
f 57 76 61
f 58 73 59
f 59 73 75
f 60 75 74
f 61 76 77
f 62 69 78
f 62 78 79
f 62 79 80
f 62 80 63
f 63 80 64
f 65 81 82
f 66 68 83
f 66 83 84
f 66 84 69
f 67 77 100
f 67 100 85
f 67 85 86
f 67 86 68
f 68 86 83
f 69 84 78
f 70 87 88
f 70 88 89
f 70 89 90
f 71 91 72
f 72 91 92
f 72 92 73
f 73 92 93
f 73 93 94
f 73 94 95
f 73 95 96
f 73 96 75
f 74 75 97
f 74 97 98
f 74 98 76
f 75 96 97
f 76 98 99
f 76 99 100
f 76 100 77
f 78 84 101
f 78 101 79
f 79 101 102
f 79 102 103
f 79 103 104
f 79 104 105
f 79 105 106
f 79 106 107
f 79 107 108
f 79 108 109
f 79 109 80
f 81 110 111
f 81 111 82
f 82 111 112
f 83 86 84
f 84 86 113
f 84 113 101
f 85 100 126
f 85 126 114
f 85 114 86
f 86 114 113
f 87 115 88
f 88 116 139
f 88 139 165
f 88 165 201
f 88 201 230
f 88 230 231
f 88 231 229
f 88 229 228
f 88 228 227
f 88 227 226
f 88 226 199
f 88 199 162
f 88 162 135
f 88 135 111
f 88 111 134
f 88 134 161
f 88 161 198
f 88 198 225
f 88 225 224
f 88 224 223
f 88 223 252
f 88 252 275
f 88 275 300
f 88 300 327
f 88 327 348
f 88 348 347
f 88 347 366
f 88 366 365
f 88 365 364
f 88 364 374
f 88 374 377
f 88 377 376
f 88 376 380
f 88 380 379
f 88 379 378
f 88 378 375
f 88 375 367
f 88 367 349
f 88 349 328
f 88 328 301
f 88 301 277
f 88 277 255
f 88 255 233
f 88 233 203
f 88 203 167
f 88 167 140
f 88 140 117
f 88 117 89
f 88 115 116
f 89 117 118
f 89 118 90
f 94 119 95
f 95 120 121
f 95 121 122
f 95 122 123
f 95 123 96
f 95 119 124
f 95 124 120
f 96 123 97
f 97 123 125
f 97 125 99
f 97 99 98
f 99 125 126
f 99 126 100
f 101 113 114
f 101 114 102
f 102 127 128
f 102 128 103
f 102 114 129
f 102 129 130
f 102 130 127
f 103 128 104
f 104 128 131
f 104 131 132
f 104 132 105
f 105 132 106
f 110 133 111
f 111 133 134
f 111 135 136
f 111 136 137
f 111 137 112
f 114 126 146
f 114 146 129
f 115 138 116
f 116 138 139
f 117 140 168
f 117 168 141
f 117 141 118
f 120 142 143
f 120 143 121
f 120 124 142
f 121 143 122
f 122 143 144
f 122 144 145
f 122 145 146
f 122 146 126
f 122 126 123
f 123 126 125
f 124 147 148
f 124 148 142
f 127 149 128
f 127 130 149
f 128 150 131
f 128 149 151
f 128 151 152
f 128 152 150
f 129 146 181
f 129 181 153
f 129 153 190
f 129 190 154
f 129 154 155
f 129 155 130
f 130 155 154
f 130 154 149
f 131 156 157
f 131 157 158
f 131 158 132
f 131 150 159
f 131 159 156
f 133 160 161
f 133 161 134
f 135 162 163
f 135 163 136
f 138 164 139
f 139 164 166
f 139 166 165
f 140 167 168
f 142 148 169
f 142 169 170
f 142 170 171
f 142 171 172
f 142 172 173
f 142 173 143
f 143 173 174
f 143 174 175
f 143 175 176
f 143 176 144
f 144 176 145
f 145 177 178
f 145 178 179
f 145 179 146
f 145 176 177
f 146 179 178
f 146 178 180
f 146 180 211
f 146 211 181
f 147 169 148
f 149 154 182
f 149 182 151
f 150 152 159
f 151 182 152
f 152 182 183
f 152 183 184
f 152 184 185
f 152 185 186
f 152 186 187
f 152 187 159
f 153 181 188
f 153 188 189
f 153 189 190
f 154 190 182
f 156 191 157
f 156 159 191
f 157 191 192
f 157 192 193
f 157 193 194
f 157 194 195
f 157 195 196
f 157 196 158
f 159 187 193
f 159 193 192
f 159 192 191
f 160 197 225
f 160 225 198
f 160 198 161
f 162 199 163
f 163 199 200
f 165 166 201
f 166 202 201
f 167 203 204
f 167 204 168
f 170 205 237
f 170 237 206
f 170 206 207
f 170 207 171
f 171 207 172
f 172 207 206
f 172 206 237
f 172 237 208
f 172 208 209
f 172 209 174
f 172 174 173
f 174 209 177
f 174 177 175
f 175 177 176
f 177 209 210
f 177 210 211
f 177 211 180
f 177 180 178
f 181 211 188
f 182 190 183
f 183 190 212
f 183 212 213
f 183 213 214
f 183 214 184
f 184 214 185
f 185 214 215
f 185 215 186
f 186 194 187
f 186 215 216
f 186 216 217
f 186 217 218
f 186 218 219
f 186 219 220
f 186 220 195
f 186 195 194
f 187 194 193
f 188 211 221
f 188 221 212
f 188 212 189
f 189 212 190
f 197 222 223
f 197 223 224
f 197 224 225
f 199 226 200
f 200 226 227
f 200 227 228
f 200 228 229
f 200 229 202
f 201 202 230
f 202 229 231
f 202 231 230
f 203 232 204
f 203 233 234
f 203 234 232
f 205 235 236
f 205 236 237
f 205 238 235
f 208 237 236
f 208 236 235
f 208 235 209
f 209 235 239
f 209 239 210
f 210 221 211
f 210 239 240
f 210 240 241
f 210 241 242
f 210 242 221
f 212 221 250
f 212 250 243
f 212 243 213
f 213 243 244
f 213 244 245
f 213 245 214
f 214 245 215
f 215 245 246
f 215 246 247
f 215 247 248
f 215 248 249
f 215 249 217
f 215 217 216
f 221 242 250
f 222 251 223
f 223 251 253
f 223 253 254
f 223 254 252
f 233 255 256
f 233 256 257
f 233 257 234
f 235 238 258
f 235 258 259
f 235 259 260
f 235 260 261
f 235 261 262
f 235 262 239
f 239 262 241
f 239 241 240
f 241 262 263
f 241 263 242
f 242 263 264
f 242 264 250
f 243 250 264
f 243 264 244
f 244 265 245
f 244 264 287
f 244 287 266
f 244 266 265
f 245 265 267
f 245 267 246
f 246 267 268
f 246 268 247
f 247 268 269
f 247 269 248
f 248 270 249
f 248 269 271
f 248 271 296
f 248 296 272
f 248 272 273
f 248 273 270
f 249 270 274
f 252 254 276
f 252 276 275
f 255 277 278
f 255 278 256
f 256 278 279
f 260 280 281
f 260 281 262
f 260 262 261
f 262 281 282
f 262 282 283
f 262 283 284
f 262 284 263
f 263 284 285
f 263 285 286
f 263 286 264
f 264 286 314
f 264 314 287
f 265 266 288
f 265 288 289
f 265 289 290
f 265 290 267
f 266 287 291
f 266 291 292
f 266 292 288
f 267 290 293
f 267 293 294
f 267 294 268
f 268 294 269
f 269 294 271
f 270 273 295
f 270 295 274
f 271 294 293
f 271 293 296
f 272 296 297
f 272 297 273
f 273 297 298
f 273 298 299
f 273 299 295
f 275 276 300
f 276 299 300
f 277 301 302
f 277 302 278
f 278 302 303
f 278 303 304
f 278 304 279
f 280 305 281
f 281 305 306
f 281 306 282
f 282 307 308
f 282 308 283
f 282 306 309
f 282 309 310
f 282 310 307
f 283 308 311
f 283 311 284
f 284 311 285
f 285 311 312
f 285 312 335
f 285 335 313
f 285 313 314
f 285 314 286
f 287 314 291
f 288 292 321
f 288 321 315
f 288 315 316
f 288 316 289
f 289 316 290
f 290 316 317
f 290 317 318
f 290 318 293
f 291 314 292
f 292 314 319
f 292 319 320
f 292 320 321
f 293 318 296
f 296 318 322
f 296 322 298
f 296 298 297
f 298 322 323
f 298 323 324
f 298 324 299
f 299 324 325
f 299 325 326
f 299 326 300
f 300 326 327
f 301 328 302
f 302 329 330
f 302 330 303
f 302 328 329
f 303 330 304
f 304 330 331
f 305 331 306
f 306 331 332
f 306 332 333
f 306 333 309
f 307 310 312
f 307 312 308
f 308 312 311
f 309 333 334
f 309 334 310
f 310 334 335
f 310 335 312
f 313 335 336
f 313 336 314
f 314 336 319
f 315 321 344
f 315 344 337
f 315 337 338
f 315 338 316
f 316 338 339
f 316 339 317
f 317 339 340
f 317 340 318
f 318 340 322
f 319 336 320
f 320 336 341
f 320 341 342
f 320 342 343
f 320 343 344
f 320 344 321
f 322 340 323
f 323 340 345
f 323 345 324
f 324 345 346
f 324 346 325
f 325 346 326
f 326 347 348
f 326 348 327
f 326 346 347
f 328 349 329
f 329 350 351
f 329 351 352
f 329 352 330
f 329 349 350
f 330 352 353
f 330 353 332
f 330 332 331
f 332 353 334
f 332 334 333
f 334 353 354
f 334 354 335
f 335 354 336
f 336 354 341
f 337 344 362
f 337 362 355
f 337 355 356
f 337 356 357
f 337 357 338
f 338 357 339
f 339 357 358
f 339 358 340
f 340 358 345
f 341 354 359
f 341 359 342
f 342 359 351
f 342 351 360
f 342 360 343
f 343 360 344
f 344 360 361
f 344 361 362
f 345 358 363
f 345 363 364
f 345 364 365
f 345 365 366
f 345 366 347
f 345 347 346
f 349 367 350
f 350 360 351
f 350 367 368
f 350 368 360
f 351 359 352
f 352 359 353
f 353 359 354
f 355 362 373
f 355 373 369
f 355 369 370
f 355 370 371
f 355 371 356
f 356 371 357
f 357 371 363
f 357 363 358
f 360 368 361
f 361 368 362
f 362 368 372
f 362 372 373
f 363 371 364
f 364 371 374
f 367 375 368
f 368 375 372
f 369 373 380
f 369 380 376
f 369 376 370
f 370 376 377
f 370 377 374
f 370 374 371
f 372 375 378
f 372 378 379
f 372 379 380
f 372 380 373

