# https://github.com/mikedh/trimesh
v 0.00756690 0.00395268 0.00417280
v 0.00753578 0.00382353 0.00417280
v 0.00744095 0.00395268 0.00360696
v 0.00756393 0.00395268 0.03908015
v 0.00739798 0.00336251 0.00471310
v 0.00739798 0.00336251 0.00417280
v 0.00753282 0.00382758 0.03882825
v 0.00732982 0.00395268 0.00346093
v 0.00705274 0.00252330 0.00388440
v 0.00756245 0.00395268 0.03936855
v 0.00752986 0.00382584 0.03936855
v 0.00719351 0.00282099 0.00471310
v 0.00739206 0.00336251 0.03882825
v 0.00718758 0.00282099 0.03936855
v 0.00719351 0.00282099 0.00417280
v 0.00739057 0.00336251 0.03936855
v 0.00674158 0.00395268 0.00314698
v 0.00659489 0.00186595 0.00381869
v 0.00706015 0.00250882 0.00417280
v 0.00691791 0.00223835 0.00417280
v 0.00664675 0.00179065 0.00417280
v 0.00755801 0.00395268 0.03949632
v 0.00705126 0.00252561 0.03966060
v 0.00705571 0.00251693 0.03936855
v 0.00623928 0.00395268 0.00294984
v 0.00547027 0.00032884 0.00384790
v 0.00597109 0.00090685 0.00388440
v 0.00692087 0.00223835 0.00471310
v 0.00692383 0.00224588 0.03936855
v 0.00665120 0.00178718 0.00471310
v 0.00645117 0.00152018 0.00417280
v 0.00646006 0.00151613 0.00471310
v 0.00737724 0.00395268 0.03977377
v 0.00721425 0.00336251 0.03982123
v 0.00711497 0.00282099 0.03974091
v 0.00660082 0.00184915 0.03972996
v 0.00665268 0.00176112 0.03936855
v 0.00607925 0.00395268 0.00293889
v 0.00510132 0.00013424 0.00380774
v 0.00409227 -0.00045998 0.00375298
v 0.00351885 -0.00042755 0.00365442
v 0.00243571 -0.00096907 0.00366536
v 0.00550138 0.00029872 0.00417280
v 0.00489240 -0.00017214 0.00388440
v 0.00393373 -0.00079185 0.00381869
v 0.00597998 0.00089526 0.00417280
v 0.00577106 0.00062421 0.00417280
v 0.00665416 0.00175417 0.03882825
v 0.00648673 0.00148370 0.03882825
v 0.00621557 0.00119643 0.00471310
v 0.00627484 0.00119643 0.03882825
v 0.00601554 0.00085414 0.03882825
v 0.00735798 0.00395268 0.03978837
v 0.00676825 0.00282099 0.03993074
v 0.00734168 0.00395268 0.03979567
v 0.00676825 0.00336251 0.04001471
v 0.00677566 0.00231885 0.03978107
v 0.00646450 0.00149007 0.03936855
v 0.00622743 0.00227947 0.03995630
v 0.00287726 -0.00088915 0.04012788
v 0.00609852 0.00135686 0.03968615
v 0.00547471 0.00032826 0.03915316
v 0.00599628 0.00087731 0.03919697
v 0.00568512 0.00395268 0.00292429
v 0.00026944 -0.00151117 0.00367997
v 0.00351885 -0.00089436 0.00377854
v 0.00243571 -0.00138549 0.00378949
v 0.00081175 -0.00151117 0.00371282
v 0.00517541 0.00002825 0.00417280
v 0.00577402 0.00062248 0.00471310
v 0.00550287 0.00029698 0.00471310
v 0.00517689 0.00002594 0.00471310
v 0.00490425 -0.00018083 0.00417280
v 0.00427897 -0.00065227 0.00417280
v 0.00400781 -0.00084281 0.00417280
v 0.00351885 -0.00110054 0.00417280
v 0.00287134 -0.00130673 0.00383330
v 0.00577847 0.00058367 0.03882825
v 0.00578143 0.00058657 0.03828796
v 0.00681715 0.00395268 0.03997455
v 0.00676825 0.00390403 0.03998915
v 0.00313656 0.00395268 0.04012788
v 0.00314990 0.00336251 0.04012788
v 0.00314990 0.00331502 0.04012788
v 0.00314694 0.00282099 0.04012788
v 0.00313212 0.00165165 0.04012788
v 0.00312175 0.00104237 0.04012788
v 0.00309359 0.00044004 0.04012788
v 0.00304914 -0.00042755 0.04012788
v 0.00298098 -0.00061115 0.04012788
v 0.00261204 -0.00100961 0.04012788
v 0.00404189 -0.00085556 0.03774402
v 0.00395744 -0.00080285 0.03818209
v 0.00460198 -0.00045651 0.03828796
v 0.00491907 -0.00019473 0.03863477
v 0.00550731 0.00029467 0.03882825
v 0.00055838 0.00395268 0.00283302
v -0.00026990 -0.00151117 0.00367997
v 0.00026944 -0.00186852 0.00380409
v 0.00135258 -0.00151117 0.00375298
v 0.00162373 -0.00178164 0.00389901
v 0.00135258 -0.00179959 0.00387710
v 0.00081175 -0.00183435 0.00383695
v 0.00490722 -0.00018256 0.00471310
v 0.00551027 0.00028946 0.03828796
v 0.00521097 0.00001841 0.03828796
v 0.00494130 -0.00021268 0.03828796
v 0.00428341 -0.00066096 0.00471310
v 0.00401226 -0.00084745 0.00471310
v 0.00351885 -0.00111039 0.00471310
v 0.00322695 -0.00122680 0.00417280
v 0.00295580 -0.00134205 0.00417280
v 0.00243571 -0.00154592 0.00417280
v 0.00676825 0.00395268 0.03998550
v -0.00313702 0.00395268 0.04012788
v 0.00243571 -0.00108838 0.04012788
v 0.00404189 -0.00085556 0.03720372
v 0.00431305 -0.00068586 0.03774402
v 0.00351885 -0.00104436 0.03774402
v 0.00325214 -0.00124128 0.03693723
v 0.00352477 -0.00112545 0.03666343
v -0.00026990 0.00395268 0.00283667
v -0.00243617 -0.00096907 0.00366536
v -0.00568558 0.00395268 0.00292429
v -0.00026990 -0.00186852 0.00380409
v -0.00081221 -0.00151117 0.00371282
v 0.00026944 -0.00195887 0.00417280
v 0.00190081 -0.00171446 0.00417280
v 0.00190674 -0.00172720 0.00471310
v 0.00162966 -0.00178280 0.00417280
v 0.00135258 -0.00181929 0.00417280
v 0.00081175 -0.00188995 0.00417280
v 0.00460198 -0.00046925 0.03774402
v 0.00431305 -0.00068586 0.03720372
v 0.00322991 -0.00123259 0.00471310
v 0.00325362 -0.00124244 0.03666343
v 0.00243571 -0.00156098 0.00471310
v -0.00676871 0.00390403 0.03998550
v -0.00676871 0.00336251 0.04001106
v -0.00315036 0.00336251 0.04012788
v -0.00676871 0.00395268 0.03997820
v 0.00189489 -0.00109707 0.04012788
v 0.00026944 -0.00187257 0.03705405
v 0.00026944 -0.00196292 0.03666343
v 0.00163262 -0.00178338 0.03693357
v 0.00243571 -0.00156272 0.03666343
v 0.00297802 -0.00135190 0.03666343
v -0.00243617 -0.00138549 0.00378949
v -0.00351931 -0.00089436 0.00377854
v -0.00351931 -0.00042755 0.00365442
v -0.00623826 0.00395268 0.00294984
v -0.00135304 -0.00151117 0.00375298
v -0.00026990 -0.00195887 0.00417280
v -0.00081221 -0.00183435 0.00383695
v 0.00026944 -0.00196292 0.00471310
v 0.00163559 -0.00178396 0.00471310
v 0.00243571 -0.00156735 0.03503525
v 0.00190674 -0.00172836 0.03395466
v 0.00135258 -0.00182218 0.00471310
v 0.00081175 -0.00189342 0.00471310
v 0.00243571 -0.00156735 0.03611949
v -0.00734214 0.00395268 0.03979202
v -0.00287624 -0.00088915 0.04012788
v -0.00304516 -0.00042755 0.04012788
v -0.00312073 0.00119643 0.04012788
v -0.00313110 0.00173795 0.04012788
v -0.00314740 0.00282099 0.04012788
v -0.00721471 0.00336251 0.03981758
v -0.00676871 0.00282099 0.03993439
v 0.00048429 -0.00109765 0.04012788
v -0.00135304 -0.00109823 0.04012788
v -0.00026990 -0.00187257 0.03705405
v 0.00081175 -0.00189342 0.03666343
v -0.00026990 -0.00196292 0.03666343
v 0.00135258 -0.00182218 0.03666343
v 0.00163559 -0.00178396 0.03666343
v 0.00190674 -0.00172836 0.03611949
v 0.00190674 -0.00172372 0.03666343
v -0.00135304 -0.00179959 0.00387710
v -0.00162419 -0.00178164 0.00389901
v -0.00287032 -0.00130673 0.00383330
v -0.00393271 -0.00079185 0.00381869
v -0.00409273 -0.00045998 0.00375298
v -0.00510178 0.00013424 0.00380774
v -0.00547073 0.00032884 0.00384790
v -0.00674204 0.00395268 0.00314698
v -0.00026990 -0.00196292 0.00471310
v -0.00081221 -0.00188995 0.00417280
v -0.00738066 0.00395268 0.03977012
v -0.00243617 -0.00108896 0.04012788
v -0.00622789 0.00227947 0.03995630
v -0.00659980 0.00185552 0.03973361
v -0.00608712 0.00135744 0.03968250
v -0.00547517 0.00032884 0.03915681
v -0.00492101 -0.00019589 0.03864572
v -0.00460244 -0.00045767 0.03828796
v -0.00395493 -0.00080285 0.03818574
v -0.00711692 0.00282099 0.03974456
v -0.00677612 0.00231538 0.03978472
v -0.00189535 -0.00109823 0.04012788
v -0.00163160 -0.00178338 0.03693357
v -0.00081221 -0.00189342 0.03666343
v -0.00135304 -0.00181929 0.00417280
v -0.00163012 -0.00178280 0.00417280
v -0.00190720 -0.00172720 0.00471310
v -0.00190127 -0.00171446 0.00417280
v -0.00243617 -0.00154592 0.00417280
v -0.00295626 -0.00134205 0.00417280
v -0.00322741 -0.00122680 0.00417280
v -0.00351931 -0.00110054 0.00417280
v -0.00400827 -0.00084281 0.00417280
v -0.00489286 -0.00017214 0.00388440
v -0.00550036 0.00029872 0.00417280
v -0.00597155 0.00090685 0.00388440
v -0.00659535 0.00186595 0.00381869
v -0.00712877 0.00395268 0.00333316
v -0.00081221 -0.00189342 0.00471310
v -0.00756588 0.00395268 0.03936855
v -0.00403050 -0.00085440 0.03774402
v -0.00351931 -0.00104494 0.03774402
v -0.00243617 -0.00156098 0.03666343
v -0.00705468 0.00251982 0.03966790
v -0.00665166 0.00176980 0.03936855
v -0.00645311 0.00149933 0.03936855
v -0.00599526 0.00088020 0.03919332
v -0.00550629 0.00029583 0.03882825
v -0.00494324 -0.00021384 0.03828796
v -0.00430165 -0.00067717 0.03774402
v -0.00753180 0.00382121 0.03936855
v -0.00190720 -0.00172315 0.03666343
v -0.00190720 -0.00172778 0.03611949
v -0.00163605 -0.00178396 0.03666343
v -0.00135304 -0.00182218 0.03666343
v -0.00135304 -0.00182218 0.00471310
v -0.00163605 -0.00178396 0.00471310
v -0.00243617 -0.00156098 0.00471310
v -0.00190720 -0.00172778 0.03557919
v -0.00243617 -0.00156330 0.03611949
v -0.00323037 -0.00123259 0.00471310
v -0.00351931 -0.00111039 0.00471310
v -0.00401272 -0.00084745 0.00471310
v -0.00428239 -0.00066096 0.00471310
v -0.00427943 -0.00065227 0.00417280
v -0.00490471 -0.00018083 0.00417280
v -0.00517587 0.00002825 0.00417280
v -0.00550333 0.00029698 0.00471310
v -0.00577152 0.00062421 0.00417280
v -0.00598044 0.00089526 0.00417280
v -0.00645163 0.00152018 0.00417280
v -0.00664869 0.00179065 0.00417280
v -0.00705320 0.00252330 0.00388440
v -0.00742660 0.00395268 0.00351204
v -0.00753328 0.00382237 0.03882825
v -0.00757032 0.00395268 0.00417280
v -0.00351931 -0.00112255 0.03611949
v -0.00346745 -0.00114803 0.03661962
v -0.00325260 -0.00124186 0.03693723
v -0.00739103 0.00336251 0.03936855
v -0.00719100 0.00282099 0.03936855
v -0.00706061 0.00250708 0.03936855
v -0.00692281 0.00223603 0.03936855
v -0.00665314 0.00176112 0.03882825
v -0.00648274 0.00149007 0.03882825
v -0.00626641 0.00119643 0.03882825
v -0.00601007 0.00086109 0.03882825
v -0.00577744 0.00059062 0.03882825
v -0.00550481 0.00029004 0.03828796
v -0.00521439 0.00001899 0.03828796
v -0.00517735 0.00002594 0.00471310
v -0.00490619 -0.00018256 0.00471310
v -0.00325260 -0.00124186 0.03676930
v -0.00577300 0.00062248 0.00471310
v -0.00598192 0.00089295 0.00471310
v -0.00646052 0.00151613 0.00471310
v -0.00665314 0.00178718 0.00471310
v -0.00691837 0.00223777 0.00417280
v -0.00706061 0.00250882 0.00417280
v -0.00719397 0.00282099 0.00417280
v -0.00739844 0.00336251 0.00417280
v -0.00756291 0.00395268 0.00392821
v -0.00753476 0.00381542 0.00471310
v -0.00753476 0.00381542 0.00417280
v -0.00719397 0.00282099 0.00471310
v -0.00706061 0.00250824 0.00471310
v -0.00692281 0.00223777 0.00471310
v -0.00665314 0.00176170 0.03774402
v -0.00648274 0.00149065 0.03828796
f 1 2 3
f 1 3 8
f 1 8 17
f 1 17 25
f 1 25 38
f 1 38 64
f 1 64 97
f 1 97 122
f 1 122 124
f 1 124 151
f 1 151 186
f 1 186 216
f 1 216 252
f 1 252 280
f 1 280 254
f 1 254 218
f 1 218 189
f 1 189 162
f 1 162 141
f 1 141 115
f 1 115 82
f 1 82 114
f 1 114 80
f 1 80 55
f 1 55 53
f 1 53 33
f 1 33 22
f 1 22 10
f 1 10 4
f 1 4 2
f 2 5 6
f 2 6 3
f 2 4 7
f 2 7 5
f 3 6 9
f 3 9 8
f 4 10 11
f 4 11 7
f 5 12 15
f 5 15 6
f 5 7 13
f 5 13 14
f 5 14 12
f 6 15 9
f 7 11 16
f 7 16 13
f 8 9 18
f 8 18 17
f 9 15 19
f 9 19 20
f 9 20 21
f 9 21 18
f 10 22 11
f 11 22 16
f 12 19 15
f 12 14 19
f 13 16 14
f 14 16 23
f 14 23 24
f 14 24 19
f 16 22 23
f 17 18 26
f 17 26 25
f 18 21 27
f 18 27 26
f 19 28 20
f 19 24 29
f 19 29 28
f 20 28 30
f 20 30 21
f 21 31 27
f 21 30 32
f 21 32 31
f 22 33 34
f 22 34 35
f 22 35 23
f 23 35 36
f 23 36 37
f 23 37 29
f 23 29 24
f 25 26 39
f 25 39 40
f 25 40 41
f 25 41 42
f 25 42 38
f 26 27 43
f 26 43 44
f 26 44 45
f 26 45 39
f 27 46 47
f 27 47 43
f 27 31 46
f 28 29 48
f 28 48 30
f 29 37 48
f 30 48 49
f 30 49 32
f 31 32 46
f 32 50 46
f 32 49 51
f 32 51 52
f 32 52 50
f 33 53 34
f 34 54 35
f 34 53 55
f 34 55 56
f 34 56 54
f 35 57 36
f 35 54 57
f 36 58 37
f 36 57 54
f 36 54 59
f 36 59 60
f 36 60 61
f 36 61 62
f 36 62 63
f 36 63 58
f 37 58 49
f 37 49 48
f 38 42 65
f 38 65 64
f 39 45 40
f 40 45 66
f 40 66 41
f 41 66 42
f 42 66 67
f 42 67 68
f 42 68 65
f 43 69 44
f 43 47 70
f 43 70 71
f 43 71 72
f 43 72 69
f 44 69 73
f 44 73 74
f 44 74 75
f 44 75 45
f 45 75 76
f 45 76 77
f 45 77 66
f 46 50 70
f 46 70 47
f 49 58 51
f 50 52 70
f 51 58 52
f 52 58 63
f 52 63 78
f 52 78 79
f 52 79 71
f 52 71 70
f 54 56 59
f 55 80 56
f 56 81 82
f 56 82 83
f 56 83 84
f 56 84 85
f 56 85 86
f 56 86 87
f 56 87 88
f 56 88 89
f 56 89 90
f 56 90 60
f 56 60 59
f 56 80 81
f 60 90 89
f 60 89 88
f 60 88 87
f 60 87 86
f 60 86 85
f 60 85 84
f 60 84 83
f 60 83 82
f 60 82 115
f 60 115 140
f 60 140 167
f 60 167 166
f 60 166 165
f 60 165 164
f 60 164 163
f 60 163 190
f 60 190 200
f 60 200 171
f 60 171 170
f 60 170 142
f 60 142 116
f 60 116 91
f 60 91 92
f 60 92 93
f 60 93 94
f 60 94 95
f 60 95 62
f 60 62 61
f 62 95 96
f 62 96 63
f 63 96 78
f 64 65 97
f 65 98 97
f 65 68 99
f 65 99 125
f 65 125 98
f 66 77 67
f 67 99 100
f 67 100 68
f 67 77 101
f 67 101 102
f 67 102 103
f 67 103 99
f 68 100 99
f 69 72 104
f 69 104 73
f 71 79 105
f 71 105 106
f 71 106 107
f 71 107 72
f 72 107 104
f 73 104 108
f 73 108 74
f 74 108 75
f 75 108 109
f 75 109 110
f 75 110 76
f 76 111 77
f 76 110 111
f 77 111 112
f 77 112 113
f 77 113 101
f 78 96 105
f 78 105 79
f 80 114 81
f 81 114 82
f 91 116 92
f 92 117 134
f 92 134 118
f 92 118 94
f 92 94 93
f 92 116 119
f 92 119 120
f 92 120 121
f 92 121 117
f 94 107 95
f 94 118 107
f 95 107 96
f 96 107 106
f 96 106 105
f 97 98 122
f 98 123 124
f 98 124 122
f 98 125 126
f 98 126 123
f 99 103 127
f 99 127 153
f 99 153 125
f 101 113 128
f 101 128 129
f 101 129 130
f 101 130 131
f 101 131 132
f 101 132 127
f 101 127 102
f 102 127 103
f 104 107 108
f 107 118 133
f 107 133 108
f 108 133 134
f 108 134 109
f 109 134 117
f 109 117 110
f 110 135 112
f 110 112 111
f 110 117 121
f 110 121 136
f 110 136 135
f 112 135 137
f 112 137 113
f 113 137 128
f 115 138 139
f 115 139 140
f 115 141 138
f 116 142 143
f 116 143 144
f 116 144 145
f 116 145 146
f 116 146 119
f 118 134 133
f 119 146 120
f 120 146 147
f 120 147 136
f 120 136 121
f 123 126 148
f 123 148 149
f 123 149 150
f 123 150 151
f 123 151 124
f 125 148 152
f 125 152 126
f 125 153 154
f 125 154 148
f 126 152 148
f 127 132 155
f 127 155 187
f 127 187 153
f 128 137 129
f 129 156 130
f 129 137 157
f 129 157 158
f 129 158 156
f 130 156 159
f 130 159 160
f 130 160 131
f 131 160 132
f 132 160 155
f 135 136 137
f 136 147 161
f 136 161 157
f 136 157 137
f 138 141 162
f 138 162 139
f 139 163 164
f 139 164 165
f 139 165 166
f 139 166 167
f 139 167 140
f 139 162 168
f 139 168 169
f 139 169 163
f 142 170 143
f 143 170 171
f 143 171 200
f 143 200 172
f 143 172 174
f 143 174 144
f 144 173 145
f 144 174 187
f 144 187 155
f 144 155 160
f 144 160 173
f 145 173 175
f 145 175 176
f 145 176 177
f 145 177 178
f 145 178 146
f 146 178 177
f 146 177 161
f 146 161 147
f 148 154 179
f 148 179 180
f 148 180 181
f 148 181 149
f 149 181 182
f 149 182 183
f 149 183 150
f 150 183 151
f 151 183 184
f 151 184 185
f 151 185 186
f 153 187 188
f 153 188 180
f 153 180 179
f 153 179 154
f 156 158 177
f 156 177 176
f 156 176 175
f 156 175 159
f 157 161 177
f 157 177 158
f 159 175 173
f 159 173 160
f 162 189 168
f 163 169 191
f 163 191 192
f 163 192 193
f 163 193 194
f 163 194 195
f 163 195 196
f 163 196 197
f 163 197 190
f 168 189 198
f 168 198 169
f 169 198 199
f 169 199 192
f 169 192 191
f 172 200 190
f 172 190 174
f 174 190 201
f 174 201 202
f 174 202 217
f 174 217 187
f 180 188 203
f 180 203 204
f 180 204 205
f 180 205 206
f 180 206 207
f 180 207 181
f 181 207 208
f 181 208 209
f 181 209 210
f 181 210 182
f 182 184 183
f 182 210 211
f 182 211 212
f 182 212 185
f 182 185 184
f 185 212 213
f 185 213 214
f 185 214 215
f 185 215 186
f 186 215 216
f 187 217 188
f 188 217 203
f 189 218 198
f 190 197 219
f 190 219 220
f 190 220 221
f 190 221 201
f 192 199 198
f 192 198 222
f 192 222 223
f 192 223 224
f 192 224 225
f 192 225 194
f 192 194 193
f 194 225 226
f 194 226 195
f 195 226 227
f 195 227 196
f 196 227 228
f 196 228 219
f 196 219 197
f 198 218 229
f 198 229 222
f 201 221 230
f 201 230 231
f 201 231 232
f 201 232 233
f 201 233 202
f 202 233 234
f 202 234 217
f 203 217 204
f 204 217 234
f 204 234 235
f 204 235 205
f 205 236 206
f 205 235 237
f 205 237 238
f 205 238 236
f 206 236 207
f 207 236 208
f 208 236 239
f 208 239 240
f 208 240 209
f 209 240 210
f 210 240 211
f 211 240 241
f 211 241 242
f 211 242 243
f 211 243 212
f 212 243 244
f 212 244 245
f 212 245 213
f 213 245 246
f 213 246 247
f 213 247 214
f 214 247 248
f 214 248 249
f 214 249 250
f 214 250 215
f 215 250 251
f 215 251 252
f 215 252 216
f 218 253 229
f 218 254 253
f 219 255 256
f 219 256 257
f 219 257 220
f 219 228 241
f 219 241 240
f 219 240 255
f 220 257 221
f 221 257 238
f 221 238 231
f 221 231 230
f 222 229 258
f 222 258 259
f 222 259 260
f 222 260 261
f 222 261 223
f 223 261 262
f 223 262 263
f 223 263 224
f 224 263 264
f 224 264 225
f 225 264 265
f 225 265 266
f 225 266 226
f 226 266 267
f 226 267 268
f 226 268 227
f 227 268 246
f 227 246 269
f 227 269 270
f 227 270 242
f 227 242 228
f 228 242 241
f 229 253 258
f 231 238 237
f 231 237 235
f 231 235 232
f 232 235 234
f 232 234 233
f 236 238 271
f 236 271 239
f 238 257 271
f 239 271 240
f 240 271 256
f 240 256 255
f 242 270 244
f 242 244 243
f 244 270 269
f 244 269 245
f 245 269 246
f 246 272 247
f 246 268 267
f 246 267 266
f 246 266 265
f 246 265 272
f 247 272 273
f 247 273 248
f 248 273 274
f 248 274 249
f 249 274 250
f 250 274 275
f 250 275 276
f 250 276 251
f 251 276 277
f 251 277 278
f 251 278 279
f 251 279 280
f 251 280 252
f 253 254 281
f 253 281 279
f 253 279 258
f 254 280 282
f 254 282 281
f 256 271 257
f 258 279 259
f 259 279 283
f 259 283 260
f 260 283 278
f 260 278 284
f 260 284 261
f 261 284 285
f 261 285 262
f 262 285 286
f 262 286 263
f 263 286 275
f 263 275 287
f 263 287 264
f 264 287 274
f 264 274 265
f 265 274 273
f 265 273 272
f 274 287 275
f 275 285 276
f 275 286 285
f 276 285 277
f 277 285 284
f 277 284 278
f 278 283 279
f 279 281 282
f 279 282 280

