# https://github.com/mikedh/trimesh
v -0.00568626 0.00395326 0.00292607
v -0.00309079 0.00395326 0.00292607
v -0.00623965 0.00395326 0.00294969
v -0.00352053 0.00410291 -0.00232879
v -0.00309079 0.00410291 -0.00232879
v -0.00309079 0.00395326 0.04029131
v -0.00674293 0.00395326 0.00314817
v -0.00409965 0.00413196 -0.00236659
v -0.00394430 0.00415133 -0.00265013
v -0.00352053 0.00413901 -0.00270211
v -0.00309079 0.00414429 -0.00282025
v -0.00712901 0.00395326 0.00333719
v -0.00742777 0.00395326 0.00351204
v -0.00309079 0.00932321 0.04289039
v -0.00676959 0.00395326 0.03997942
v -0.00437772 0.00415133 -0.00221065
v -0.00430510 0.00418214 -0.00256980
v -0.00409965 0.00431683 -0.00284861
v -0.00352053 0.00426753 -0.00297147
v -0.00309079 0.00421824 -0.00303763
v -0.00756289 0.00395326 0.00392789
v -0.00758725 0.00416454 0.00335137
v -0.00489801 0.00469537 -0.00263595
v -0.00309079 0.00986109 0.04298490
v -0.00652047 0.00956178 0.04236585
v -0.00734228 0.00395326 0.03979040
v -0.00535947 0.00530191 -0.00304235
v -0.00499867 0.00516282 -0.00326918
v -0.00438462 0.00468304 -0.00317467
v -0.00406196 0.00461790 -0.00324083
v -0.00352053 0.00453867 -0.00332117
v -0.00309079 0.00422792 -0.00305180
v -0.00757025 0.00395326 0.00417362
v -0.00759645 0.00412228 0.00363018
v -0.00766493 0.00444624 0.00363018
v -0.00771687 0.00498852 0.00308674
v -0.00775961 0.00552991 0.00254802
v -0.00767274 0.00554664 0.00203766
v -0.00763230 0.00573855 0.00165961
v -0.00653426 0.00629403 -0.00271156
v -0.00611601 0.00617431 -0.00341095
v -0.00592710 0.00582746 -0.00307543
v -0.00309079 0.01040249 0.04298963
v -0.00568626 0.01040249 0.04263521
v -0.00652047 0.00970968 0.04236585
v -0.00758220 0.00742348 0.04072607
v -0.00759553 0.00411964 0.03966281
v -0.00738043 0.00395326 0.03977150
v -0.00581726 0.00590317 -0.00341095
v -0.00601765 0.00627202 -0.00375592
v -0.00543945 0.00578345 -0.00370394
v -0.00479782 0.00529575 -0.00362833
v -0.00484516 0.00581338 -0.00420958
v -0.00443656 0.00520860 -0.00373702
v -0.00448436 0.00573503 -0.00428991
v -0.00406196 0.00487319 -0.00351491
v -0.00406196 0.00540051 -0.00407253
v -0.00406196 0.00567076 -0.00435607
v -0.00352053 0.00480277 -0.00359525
v -0.00309079 0.00448585 -0.00337315
v -0.00760334 0.00408707 0.00417362
v -0.00757025 0.00395326 0.00443825
v -0.00767090 0.00444624 0.00417362
v -0.00774582 0.00498852 0.00363018
v -0.00776421 0.00607131 0.00200458
v -0.00768102 0.00607747 0.00147531
v -0.00778581 0.00552991 0.00308674
v -0.00763597 0.00626146 0.00109726
v -0.00655908 0.00661271 -0.00278245
v -0.00646394 0.00661271 -0.00305180
v -0.00629342 0.00661271 -0.00341095
v -0.00762586 0.00679669 0.00055382
v -0.00759139 0.00738915 0.00007654
v -0.00309079 0.01094477 0.04298963
v -0.00309079 0.01177931 0.04298018
v -0.00514529 0.01094477 0.04268246
v -0.00566972 0.01092012 0.04250762
v -0.00611325 0.01040249 0.04246508
v -0.00599835 0.01072292 0.04240838
v -0.00648141 0.01007501 0.04207759
v -0.00659126 0.00980475 0.04207759
v -0.00693919 0.00927920 0.04155777
v -0.00711293 0.00877830 0.04144908
v -0.00758220 0.00742788 0.04072607
v -0.00771227 0.00661271 0.03990854
v -0.00778535 0.00552991 0.03936982
v -0.00766309 0.00498852 0.03974314
v -0.00762540 0.00444624 0.03970062
v -0.00774399 0.00498852 0.03936982
v -0.00766769 0.00444624 0.03936982
v -0.00760242 0.00409235 0.03936982
v -0.00756611 0.00395326 0.03936982
v -0.00605764 0.00661271 -0.00380790
v -0.00580531 0.00661271 -0.00407726
v -0.00548725 0.00627731 -0.00428518
v -0.00564398 0.00609420 -0.00391186
v -0.00514529 0.00568045 -0.00382208
v -0.00514529 0.00589701 -0.00409144
v -0.00514529 0.00616726 -0.00439860
v -0.00466728 0.00604226 -0.00452146
v -0.00448895 0.00627202 -0.00481918
v -0.00406196 0.00593486 -0.00462543
v -0.00309079 0.00528694 -0.00419540
v -0.00313445 0.00582746 -0.00473884
v -0.00760334 0.00408707 0.00471234
v -0.00756657 0.00395326 0.03882638
v -0.00778581 0.00552991 0.00688139
v -0.00773571 0.00661271 0.00146586
v -0.00766815 0.00661447 0.00091769
v -0.00778029 0.00607131 0.00254802
v -0.00708719 0.00844730 -0.00157742
v -0.00708397 0.00877830 -0.00163413
v -0.00647313 0.00715410 -0.00307071
v -0.00631319 0.00715410 -0.00341095
v -0.00759139 0.00746750 0.00007654
v -0.00309079 0.01203108 0.04288566
v -0.00511633 0.01147032 0.04248399
v -0.00547852 0.01127929 0.04242255
v -0.00551023 0.01131098 0.04207759
v -0.00578095 0.01101871 0.04207759
v -0.00601811 0.01074757 0.04207759
v -0.00627136 0.01040249 0.04207759
v -0.00648141 0.01010582 0.04153414
v -0.00665101 0.00983556 0.04153414
v -0.00692172 0.00935403 0.04099543
v -0.00705134 0.00907144 0.04139238
v -0.00718371 0.00877830 0.04099543
v -0.00752934 0.00773247 0.04045198
v -0.00759093 0.00746134 0.04045198
v -0.00766539 0.00715410 0.03990854
v -0.00773433 0.00661271 0.03936982
v -0.00777754 0.00607131 0.03936982
v -0.00778029 0.00607131 0.01229691
v -0.00606775 0.00715410 -0.00381735
v -0.00581726 0.00715410 -0.00408671
v -0.00554608 0.00715410 -0.00434189
v -0.00553413 0.00661271 -0.00432772
v -0.00514529 0.00661271 -0.00459235
v -0.00485481 0.00661271 -0.00475302
v -0.00458363 0.00661271 -0.00485698
v -0.00406196 0.00661271 -0.00500820
v -0.00309079 0.00661271 -0.00524448
v -0.00406196 0.00620600 -0.00487588
v -0.00309079 0.00609596 -0.00499875
v -0.00309079 0.00582218 -0.00474357
v -0.00309079 0.00588292 -0.00480027
v -0.00774031 0.00661271 0.00200458
v -0.00766355 0.00715410 0.00092242
v -0.00705134 0.00907144 -0.00161050
v -0.00681739 0.00931969 -0.00232879
v -0.00661332 0.00931969 -0.00282970
v -0.00632422 0.00931969 -0.00341095
v -0.00648141 0.00931969 -0.00310379
v -0.00759645 0.00748863 0.00037897
v -0.00753210 0.00775888 0.00037897
v -0.00738456 0.00823778 -0.00015974
v -0.00715705 0.00877830 -0.00124190
v -0.00309079 0.01239113 0.04244618
v -0.00491640 0.01178899 0.04238003
v -0.00521194 0.01158124 0.04207759
v -0.00521561 0.01158124 0.04153414
v -0.00521653 0.01158124 -0.00394967
v -0.00551023 0.01131098 -0.00178535
v -0.00578095 0.01101959 -0.00178535
v -0.00601949 0.01074933 -0.00286751
v -0.00627871 0.01040249 -0.00232879
v -0.00648692 0.01011462 0.00525578
v -0.00665193 0.00984436 0.00471234
v -0.00705685 0.00908289 0.04099543
v -0.00692264 0.00935403 0.00688139
v -0.00738134 0.00823778 0.04045198
v -0.00718601 0.00877830 0.00417362
v -0.00739054 0.00823778 0.00363018
v -0.00752796 0.00776417 0.03990854
v -0.00759920 0.00749391 0.03990854
v -0.00759920 0.00749391 0.03720078
v -0.00766447 0.00715410 0.00146586
v -0.00606959 0.00769550 -0.00381735
v -0.00583058 0.00986109 -0.00409144
v -0.00582783 0.00931969 -0.00409144
v -0.00555435 0.00877830 -0.00434662
v -0.00514943 0.00823778 -0.00461598
v -0.00514667 0.00769550 -0.00461125
v -0.00509106 0.00719636 -0.00463960
v -0.00487228 0.00704406 -0.00476247
v -0.00465671 0.00719636 -0.00484281
v -0.00406196 0.00715410 -0.00502710
v -0.00352053 0.00715410 -0.00515942
v -0.00309079 0.00715410 -0.00525866
v -0.00718601 0.00877830 -0.00070319
v -0.00705685 0.00908289 -0.00124190
v -0.00692264 0.00935403 -0.00124190
v -0.00664457 0.00984348 -0.00232879
v -0.00659080 0.00975897 -0.00276354
v -0.00632514 0.00986109 -0.00341095
v -0.00607097 0.00823778 -0.00381735
v -0.00739054 0.00823778 0.00037897
v -0.00753210 0.00775888 0.01663028
v -0.00309079 0.01257688 0.04217210
v -0.00494122 0.01181012 0.04207759
v -0.00309079 0.01280928 0.04176097
v -0.00395947 0.01239465 0.04192164
v -0.00404128 0.01244835 0.04153414
v -0.00431200 0.01228461 0.04153414
v -0.00494490 0.01181452 0.04153414
v -0.00494581 0.01181540 -0.00394967
v -0.00492237 0.01179604 -0.00436552
v -0.00550655 0.01131010 -0.00394967
v -0.00551023 0.01131010 -0.00341095
v -0.00578095 0.01101959 -0.00341095
v -0.00601765 0.01074933 -0.00341095
v -0.00627550 0.01040249 -0.00286751
v -0.00648738 0.01011462 -0.00232879
v -0.00648738 0.01011462 -0.00015974
v -0.00665193 0.00984436 -0.00178535
v -0.00583380 0.01040249 -0.00407253
v -0.00556309 0.01040249 -0.00434662
v -0.00606959 0.00986109 -0.00382208
v -0.00515218 0.00877830 -0.00461598
v -0.00487595 0.00769550 -0.00476720
v -0.00460340 0.00769550 -0.00486643
v -0.00406196 0.01148616 -0.00504128
v -0.00352053 0.01148616 -0.00518305
v -0.00309079 0.00983468 -0.00527756
v -0.00309768 0.00931969 -0.00527283
v -0.00309079 0.00769550 -0.00526338
v -0.00599605 0.01072380 -0.00374647
v -0.00620012 0.01040249 -0.00341095
v -0.00604247 0.01040249 -0.00380317
v -0.00460340 0.01207158 0.04153414
v -0.00309079 0.01289556 0.04150106
v -0.00309079 0.01291492 0.04143018
v -0.00327969 0.01285418 0.04129787
v -0.00356374 0.01272477 0.04099543
v -0.00403439 0.01245363 0.04099543
v -0.00403852 0.01245363 -0.00449311
v -0.00431062 0.01228373 -0.00394967
v -0.00460340 0.01207158 -0.00394967
v -0.00430924 0.01227493 -0.00449311
v -0.00547346 0.01127841 -0.00428991
v -0.00464660 0.01197826 -0.00452619
v -0.00553367 0.01094477 -0.00433244
v -0.00515448 0.01094477 -0.00460653
v -0.00515448 0.01040249 -0.00461598
v -0.00515448 0.00986109 -0.00461598
v -0.00515402 0.00931969 -0.00461598
v -0.00488147 0.00877830 -0.00476720
v -0.00460340 0.01094477 -0.00487116
v -0.00352053 0.01202756 -0.00517832
v -0.00464660 0.01146151 -0.00484753
v -0.00310871 0.01202756 -0.00527756
v -0.00310779 0.01148616 -0.00527756
v -0.00309079 0.01202756 -0.00527756
v -0.00309079 0.01294133 0.04110884
v -0.00309079 0.01294661 0.04099543
v -0.00329302 0.01286122 0.04099543
v -0.00355316 0.01272389 -0.00449311
v -0.00327234 0.01285066 -0.00479555
v -0.00395487 0.01240170 -0.00487588
v -0.00485619 0.01162525 -0.00472939
v -0.00449493 0.01191488 -0.00483335
v -0.00488055 0.01126432 -0.00476720
v -0.00488331 0.01094477 -0.00476720
v -0.00488377 0.01040249 -0.00476720
v -0.00488377 0.00986109 -0.00476720
v -0.00488331 0.00931969 -0.00476720
v -0.00309079 0.01256896 -0.00517359
v -0.00309079 0.01238761 -0.00521140
v -0.00410609 0.01206805 -0.00494204
v -0.00309079 0.01293869 -0.00449311
v -0.00328245 0.01285594 -0.00449311
v -0.00309079 0.01288675 -0.00491369
v -0.00309079 0.01258216 -0.00516415
f 1 2 6
f 1 6 15
f 1 15 26
f 1 26 48
f 1 48 92
f 1 92 106
f 1 106 62
f 1 62 33
f 1 33 21
f 1 21 13
f 1 13 12
f 1 12 7
f 1 7 3
f 1 3 4
f 1 4 5
f 1 5 2
f 2 5 11
f 2 11 20
f 2 20 32
f 2 32 60
f 2 60 103
f 2 103 145
f 2 145 146
f 2 146 144
f 2 144 142
f 2 142 189
f 2 189 226
f 2 226 224
f 2 224 253
f 2 253 268
f 2 268 267
f 2 267 273
f 2 273 272
f 2 272 270
f 2 270 255
f 2 255 254
f 2 254 232
f 2 232 231
f 2 231 201
f 2 201 199
f 2 199 158
f 2 158 116
f 2 116 75
f 2 75 74
f 2 74 43
f 2 43 24
f 2 24 14
f 2 14 6
f 3 7 4
f 4 8 9
f 4 9 10
f 4 10 11
f 4 11 5
f 4 7 12
f 4 12 13
f 4 13 8
f 6 14 15
f 8 16 17
f 8 17 9
f 8 13 16
f 9 17 18
f 9 18 19
f 9 19 20
f 9 20 11
f 9 11 10
f 13 21 22
f 13 22 23
f 13 23 17
f 13 17 16
f 14 24 25
f 14 25 15
f 15 25 26
f 17 23 27
f 17 27 28
f 17 28 29
f 17 29 18
f 18 29 30
f 18 30 31
f 18 31 19
f 19 32 20
f 19 31 32
f 21 33 34
f 21 34 22
f 22 34 35
f 22 35 36
f 22 36 37
f 22 37 38
f 22 38 39
f 22 39 40
f 22 40 41
f 22 41 42
f 22 42 27
f 22 27 23
f 24 43 44
f 24 44 25
f 25 44 45
f 25 45 84
f 25 84 46
f 25 46 47
f 25 47 48
f 25 48 26
f 27 42 49
f 27 49 50
f 27 50 51
f 27 51 28
f 28 51 52
f 28 52 29
f 29 52 53
f 29 53 54
f 29 54 30
f 30 54 55
f 30 55 56
f 30 56 31
f 31 56 57
f 31 57 58
f 31 58 59
f 31 59 60
f 31 60 32
f 33 61 34
f 33 62 105
f 33 105 61
f 34 61 35
f 35 61 63
f 35 63 64
f 35 64 36
f 36 64 37
f 37 65 66
f 37 66 38
f 37 64 67
f 37 67 65
f 38 66 39
f 39 66 68
f 39 68 40
f 40 69 70
f 40 70 71
f 40 71 50
f 40 50 41
f 40 68 72
f 40 72 73
f 40 73 69
f 41 50 49
f 41 49 42
f 43 74 44
f 44 74 75
f 44 75 76
f 44 76 77
f 44 77 78
f 44 78 45
f 45 78 79
f 45 79 80
f 45 80 81
f 45 81 82
f 45 82 83
f 45 83 84
f 46 84 85
f 46 85 86
f 46 86 87
f 46 87 88
f 46 88 47
f 47 88 89
f 47 89 90
f 47 90 91
f 47 91 92
f 47 92 48
f 50 71 93
f 50 93 94
f 50 94 95
f 50 95 96
f 50 96 51
f 51 96 95
f 51 95 97
f 51 97 52
f 52 97 95
f 52 95 98
f 52 98 53
f 53 98 95
f 53 95 99
f 53 99 100
f 53 100 55
f 53 55 54
f 55 58 57
f 55 57 56
f 55 100 101
f 55 101 102
f 55 102 58
f 58 103 59
f 58 102 104
f 58 104 103
f 59 103 60
f 61 105 63
f 62 106 91
f 62 91 105
f 63 105 91
f 63 91 90
f 63 90 89
f 63 89 64
f 64 107 67
f 64 89 86
f 64 86 107
f 65 108 109
f 65 109 66
f 65 67 110
f 65 110 108
f 66 109 72
f 66 72 68
f 67 107 133
f 67 133 110
f 69 111 70
f 69 73 111
f 70 111 112
f 70 112 113
f 70 113 114
f 70 114 71
f 71 114 93
f 72 109 73
f 73 109 108
f 73 108 115
f 73 115 112
f 73 112 111
f 75 116 76
f 76 116 117
f 76 117 77
f 77 117 118
f 77 118 79
f 77 79 78
f 79 118 119
f 79 119 120
f 79 120 121
f 79 121 122
f 79 122 80
f 80 122 123
f 80 123 124
f 80 124 82
f 80 82 81
f 82 124 125
f 82 125 126
f 82 126 83
f 83 126 84
f 84 126 127
f 84 127 128
f 84 128 129
f 84 129 130
f 84 130 85
f 85 130 131
f 85 131 132
f 85 132 86
f 86 89 87
f 86 132 133
f 86 133 107
f 87 89 88
f 91 106 92
f 93 114 134
f 93 134 135
f 93 135 94
f 94 135 136
f 94 136 137
f 94 137 95
f 95 137 138
f 95 138 139
f 95 139 101
f 95 101 99
f 99 101 100
f 101 139 140
f 101 140 141
f 101 141 142
f 101 142 143
f 101 143 102
f 102 143 144
f 102 144 104
f 103 104 145
f 104 144 146
f 104 146 145
f 108 110 147
f 108 147 148
f 108 148 115
f 110 133 147
f 112 149 150
f 112 150 113
f 112 115 149
f 113 150 151
f 113 151 114
f 114 152 134
f 114 151 153
f 114 153 152
f 115 148 154
f 115 154 155
f 115 155 156
f 115 156 157
f 115 157 149
f 116 158 159
f 116 159 117
f 117 159 118
f 118 159 160
f 118 160 119
f 119 160 161
f 119 161 162
f 119 162 163
f 119 163 210
f 119 210 164
f 119 164 120
f 120 164 165
f 120 165 121
f 121 165 166
f 121 166 122
f 122 166 167
f 122 167 123
f 123 167 124
f 124 167 168
f 124 168 125
f 125 169 126
f 125 168 170
f 125 170 169
f 126 169 127
f 127 171 128
f 127 169 172
f 127 172 173
f 127 173 171
f 128 171 174
f 128 174 175
f 128 175 129
f 129 175 130
f 130 175 176
f 130 176 177
f 130 177 147
f 130 147 131
f 131 147 132
f 132 147 133
f 134 152 178
f 134 178 179
f 134 179 180
f 134 180 135
f 135 180 181
f 135 181 136
f 136 181 182
f 136 182 183
f 136 183 184
f 136 184 138
f 136 138 137
f 138 184 185
f 138 185 139
f 139 185 140
f 140 185 186
f 140 186 187
f 140 187 141
f 141 187 188
f 141 188 142
f 142 188 189
f 142 144 143
f 147 177 148
f 148 177 154
f 149 157 156
f 149 156 190
f 149 190 191
f 149 191 192
f 149 192 193
f 149 193 194
f 149 194 150
f 150 194 195
f 150 195 151
f 151 195 153
f 152 195 196
f 152 196 178
f 152 153 195
f 154 177 176
f 154 176 155
f 155 197 156
f 155 176 175
f 155 175 198
f 155 198 173
f 155 173 197
f 156 197 190
f 158 199 159
f 159 200 160
f 159 199 201
f 159 201 202
f 159 202 203
f 159 203 204
f 159 204 200
f 160 200 205
f 160 205 161
f 161 205 206
f 161 206 162
f 162 206 207
f 162 207 208
f 162 208 209
f 162 209 163
f 163 209 210
f 164 210 165
f 165 210 211
f 165 211 166
f 166 211 212
f 166 212 213
f 166 213 214
f 166 214 167
f 167 214 168
f 168 214 213
f 168 213 215
f 168 215 192
f 168 192 170
f 169 170 192
f 169 192 191
f 169 191 190
f 169 190 172
f 171 173 174
f 172 190 197
f 172 197 173
f 173 198 174
f 174 198 175
f 178 196 179
f 179 216 217
f 179 217 180
f 179 196 218
f 179 218 216
f 180 217 181
f 181 217 182
f 182 219 220
f 182 220 184
f 182 184 183
f 182 217 219
f 184 220 185
f 185 220 186
f 186 220 221
f 186 221 187
f 187 222 223
f 187 223 188
f 187 221 222
f 188 223 224
f 188 224 225
f 188 225 226
f 188 226 189
f 192 215 193
f 193 215 213
f 193 213 212
f 193 212 227
f 193 227 228
f 193 228 194
f 194 228 195
f 195 228 227
f 195 227 229
f 195 229 218
f 195 218 196
f 200 204 230
f 200 230 205
f 201 231 202
f 202 231 232
f 202 232 203
f 203 232 233
f 203 233 234
f 203 234 235
f 203 235 204
f 204 235 236
f 204 236 237
f 204 237 238
f 204 238 230
f 205 230 206
f 206 238 239
f 206 239 207
f 206 230 238
f 207 240 208
f 207 239 241
f 207 241 240
f 208 240 227
f 208 227 211
f 208 211 210
f 208 210 209
f 211 227 212
f 216 242 217
f 216 218 229
f 216 229 242
f 217 242 243
f 217 243 244
f 217 244 245
f 217 245 246
f 217 246 219
f 219 246 266
f 219 266 247
f 219 247 220
f 220 247 221
f 221 247 248
f 221 248 222
f 222 249 223
f 222 248 250
f 222 250 249
f 223 249 251
f 223 251 252
f 223 252 224
f 224 252 251
f 224 251 253
f 224 226 225
f 227 240 242
f 227 242 229
f 232 254 233
f 233 254 255
f 233 255 256
f 233 256 234
f 234 256 257
f 234 257 236
f 234 236 235
f 236 257 258
f 236 258 259
f 236 259 239
f 236 239 237
f 237 239 238
f 239 259 241
f 240 241 260
f 240 260 242
f 241 259 261
f 241 261 260
f 242 260 262
f 242 262 243
f 243 262 244
f 244 262 263
f 244 263 264
f 244 264 265
f 244 265 245
f 245 265 266
f 245 266 246
f 247 266 248
f 248 266 265
f 248 265 264
f 248 264 263
f 248 263 262
f 248 262 250
f 249 267 268
f 249 268 251
f 249 250 261
f 249 261 269
f 249 269 267
f 250 262 260
f 250 260 261
f 251 268 253
f 255 270 256
f 256 270 271
f 256 271 257
f 257 271 258
f 258 272 259
f 258 271 270
f 258 270 272
f 259 269 261
f 259 272 273
f 259 273 267
f 259 267 269

