# https://github.com/mikedh/trimesh
v 0.00240909 0.00395292 -0.00016298
v 0.00238975 0.00395292 0.00030721
v 0.00198548 0.00119669 -0.00016298
v 0.00229918 0.00395292 -0.00070428
v 0.00238503 0.00395292 0.00037832
v 0.00195671 0.00119669 0.00037832
v 0.00180481 0.00072408 -0.00016298
v 0.00174396 0.00075921 -0.00070428
v 0.00186330 0.00119669 -0.00070428
v 0.00179066 0.00073050 0.00037832
v 0.00211143 0.00395292 -0.00123977
v 0.00231003 0.00395292 0.00073532
v 0.00218974 0.00395292 0.00123840
v 0.00171094 0.00080414 0.00082771
v 0.00135384 0.00051227 -0.00016298
v 0.00135384 0.00054740 -0.00070428
v 0.00135384 0.00051869 0.00037832
v 0.00167792 0.00083387 -0.00104579
v 0.00140715 0.00068557 0.00097283
v 0.00188548 0.00395292 -0.00150147
v 0.00162273 0.00119669 0.00118761
v 0.00175434 0.00119669 0.00091720
v 0.00171896 0.00395292 0.00182663
v 0.00126233 0.00078827 0.00136998
v 0.00081231 0.00050247 -0.00070428
v 0.00081231 0.00050484 0.00091962
v 0.00081231 0.00050247 0.00037832
v 0.00081231 0.00054166 -0.00124606
v 0.00134205 0.00073084 -0.00123397
v 0.00115336 0.00083387 -0.00157887
v 0.00145951 0.00119669 -0.00135151
v 0.00162461 0.00395292 -0.00177962
v 0.00086467 0.00069773 0.00151462
v 0.00135196 0.00119669 0.00145947
v 0.00112317 0.00395292 0.00228231
v 0.00107883 0.00119669 0.00173036
v 0.00071890 0.00082441 0.00179228
v -0.00081231 0.00050247 -0.00070428
v 0.00027077 0.00050484 -0.00124606
v 0.00027077 0.00050247 0.00091962
v 0.00027077 0.00053930 0.00146141
v 0.00027077 0.00071665 -0.00174769
v 0.00081231 0.00075347 -0.00166256
v 0.00081231 0.00119669 -0.00180816
v 0.00134818 0.00395292 -0.00203648
v 0.00027077 0.00075144 0.00185614
v 0.00058399 0.00395292 0.00237083
v 0.00027077 0.00119669 0.00197997
v -0.00135384 0.00051227 -0.00016298
v -0.00135384 0.00054740 -0.00070428
v -0.00081231 0.00054166 -0.00124606
v -0.00027077 0.00050484 -0.00124606
v -0.00081231 0.00050247 0.00037832
v -0.00027077 0.00050247 0.00091962
v -0.00027077 0.00053930 0.00146141
v -0.00027077 0.00071665 -0.00174769
v 0.00027077 0.00119669 -0.00197940
v 0.00024152 0.00395292 -0.00252119
v -0.00027077 0.00075144 0.00185614
v 0.00027077 0.00395292 0.00242017
v -0.00027077 0.00119669 0.00197997
v -0.00180481 0.00072408 -0.00016298
v -0.00081231 0.00050484 0.00091962
v -0.00135384 0.00051869 0.00037832
v -0.00174396 0.00075921 -0.00070428
v -0.00167792 0.00083387 -0.00104579
v -0.00134205 0.00073084 -0.00123397
v -0.00115336 0.00083387 -0.00157887
v -0.00081231 0.00075347 -0.00166256
v -0.00086467 0.00069773 0.00151462
v -0.00027077 0.00119669 -0.00197940
v -0.00024152 0.00395292 -0.00252119
v -0.00071891 0.00082441 0.00179228
v -0.00027077 0.00395292 0.00242017
v -0.00083448 0.00395292 0.00230601
v -0.00179066 0.00073050 0.00037832
v -0.00198548 0.00119669 -0.00016298
v -0.00140715 0.00068557 0.00097283
v -0.00186331 0.00119669 -0.00070428
v -0.00209209 0.00395292 -0.00144826
v -0.00157084 0.00395292 -0.00200117
v -0.00046229 0.00395292 -0.00251925
v -0.00081231 0.00119669 -0.00180816
v -0.00126233 0.00078827 0.00136998
v -0.00107883 0.00119669 0.00173036
v -0.00135668 0.00395292 0.00197513
v -0.00171094 0.00080414 0.00082771
v -0.00195671 0.00119669 0.00037832
v -0.00240909 0.00395292 -0.00016298
v -0.00234163 0.00395292 -0.00056109
v -0.00224870 0.00395292 -0.00100177
v -0.00238503 0.00395292 0.00037832
v -0.00135196 0.00119669 0.00145947
v -0.00162273 0.00119669 0.00118761
v -0.00187651 0.00395292 0.00146334
v -0.00175434 0.00119669 0.00091720
v -0.00223078 0.00395292 0.00093994
f 1 2 3
f 1 3 4
f 1 4 11
f 1 11 20
f 1 20 32
f 1 32 45
f 1 45 58
f 1 58 72
f 1 72 82
f 1 82 81
f 1 81 80
f 1 80 91
f 1 91 90
f 1 90 89
f 1 89 92
f 1 92 97
f 1 97 95
f 1 95 86
f 1 86 75
f 1 75 74
f 1 74 60
f 1 60 47
f 1 47 35
f 1 35 23
f 1 23 13
f 1 13 12
f 1 12 5
f 1 5 2
f 2 5 6
f 2 6 3
f 3 7 8
f 3 8 9
f 3 9 4
f 3 6 10
f 3 10 7
f 4 9 11
f 5 12 6
f 6 12 13
f 6 13 14
f 6 14 10
f 7 15 16
f 7 16 8
f 7 10 17
f 7 17 15
f 8 16 18
f 8 18 9
f 9 18 11
f 10 14 19
f 10 19 17
f 11 18 20
f 13 21 22
f 13 22 14
f 13 23 21
f 14 22 21
f 14 21 24
f 14 24 19
f 15 25 16
f 15 17 26
f 15 26 27
f 15 27 25
f 16 25 28
f 16 28 29
f 16 29 18
f 17 19 26
f 18 29 30
f 18 30 31
f 18 31 32
f 18 32 20
f 19 24 33
f 19 33 26
f 21 23 34
f 21 34 24
f 23 35 36
f 23 36 34
f 24 34 36
f 24 36 37
f 24 37 33
f 25 38 52
f 25 52 39
f 25 39 28
f 25 27 40
f 25 40 54
f 25 54 53
f 25 53 38
f 26 40 27
f 26 33 41
f 26 41 40
f 28 39 42
f 28 42 43
f 28 43 30
f 28 30 29
f 30 43 44
f 30 44 45
f 30 45 32
f 30 32 31
f 33 37 46
f 33 46 41
f 35 47 48
f 35 48 37
f 35 37 36
f 37 48 46
f 38 49 50
f 38 50 51
f 38 51 52
f 38 53 49
f 39 52 56
f 39 56 42
f 40 41 55
f 40 55 54
f 41 46 59
f 41 59 55
f 42 56 71
f 42 71 57
f 42 57 43
f 43 57 44
f 44 57 58
f 44 58 45
f 46 48 61
f 46 61 59
f 47 60 48
f 48 60 74
f 48 74 61
f 49 62 50
f 49 53 63
f 49 63 64
f 49 64 62
f 50 65 66
f 50 66 67
f 50 67 51
f 50 62 65
f 51 67 68
f 51 68 69
f 51 69 56
f 51 56 52
f 53 54 63
f 54 55 63
f 55 59 70
f 55 70 63
f 56 69 71
f 57 71 72
f 57 72 58
f 59 61 73
f 59 73 70
f 61 74 75
f 61 75 73
f 62 64 76
f 62 76 77
f 62 77 65
f 63 78 64
f 63 70 78
f 64 78 76
f 65 77 79
f 65 79 66
f 66 79 80
f 66 80 81
f 66 81 68
f 66 68 67
f 68 81 82
f 68 82 83
f 68 83 69
f 69 83 71
f 70 73 84
f 70 84 78
f 71 83 82
f 71 82 72
f 73 85 84
f 73 75 85
f 75 86 85
f 76 78 87
f 76 87 88
f 76 88 77
f 77 89 90
f 77 90 91
f 77 91 79
f 77 88 92
f 77 92 89
f 78 84 87
f 79 91 80
f 84 93 94
f 84 94 87
f 84 85 93
f 85 86 95
f 85 95 93
f 87 96 88
f 87 94 96
f 88 96 97
f 88 97 92
f 93 95 94
f 94 97 96
f 94 95 97

