# https://github.com/mikedh/trimesh
v 0.00765369 -0.02123463 0.04105102
v 0.00765369 -0.02149644 0.04105102
v 0.00764679 -0.02056802 0.04105102
v 0.00505901 -0.02647687 0.07013955
v 0.00761689 -0.02203214 0.04105102
v 0.00498770 -0.02752210 0.07013955
v 0.00764219 -0.02034447 0.04105102
v 0.00503830 -0.02542762 0.07013955
v 0.00483358 -0.02542762 0.07118827
v 0.00343733 -0.02879288 0.07812930
v 0.00343503 -0.02961456 0.07817255
v 0.00746047 -0.02334119 0.04105102
v 0.00506591 -0.02752210 0.06909083
v 0.00481748 -0.02856733 0.07013955
v 0.00493249 -0.02856733 0.06909083
v 0.00339822 -0.03018048 0.07810768
v 0.00763299 -0.02007259 0.04105102
v 0.00494399 -0.02438038 0.07013955
v 0.00478988 -0.02438038 0.07118827
v 0.00759158 -0.01913813 0.04105102
v 0.00757548 -0.01887834 0.04105102
v 0.00751568 -0.01804860 0.04105102
v 0.00444944 -0.02272493 0.07175048
v 0.00337522 -0.02809808 0.07797794
v -0.00096535 -0.03590606 0.09229246
v -0.00075833 -0.03590606 0.09177350
v -0.00074223 -0.03653441 0.09180594
v 0.00327401 -0.02961456 0.07869691
v 0.00467026 -0.02333112 0.07118827
v 0.00024458 -0.03539654 0.08850841
v 0.00741217 -0.02360502 0.04105102
v 0.00445634 -0.03020465 0.06971790
v 0.00467716 -0.02961658 0.06909083
v 0.00725345 -0.02438038 0.04105102
v 0.00237461 -0.03233537 0.08124844
v 0.00242982 -0.03241996 0.08062678
v 0.00480828 -0.02333112 0.07013955
v -0.01581118 -0.01804860 0.04105102
v 0.00349714 -0.01804860 0.07118287
v 0.00376626 -0.01913813 0.07118827
v 0.00401929 -0.02018537 0.07118827
v 0.00444484 -0.02170387 0.07072878
v 0.00438043 -0.02202409 0.07143154
v 0.00344423 -0.01836277 0.07188562
v 0.00234011 -0.02280347 0.07801037
v 0.00239531 -0.02333112 0.07815633
v 0.00283006 -0.02438038 0.07748061
v 0.00450465 -0.02233624 0.07112341
v 0.00246662 -0.02448107 0.07854014
v 0.00227110 -0.02419912 0.07889693
v -0.00394418 -0.02274507 0.09375202
v -0.00389358 -0.02333112 0.09383852
v -0.00158182 -0.03485882 0.09310873
v -0.00155882 -0.03596044 0.09328713
v -0.00185095 -0.03748700 0.09373581
v -0.00067092 -0.03660490 0.09110860
v 0.00030669 -0.03546904 0.08796243
v -0.00177734 -0.03753130 0.09320063
v 0.00130269 -0.03435534 0.08437299
v 0.00427232 -0.03078465 0.06909083
v 0.00447704 -0.03025902 0.06909083
v 0.00717754 -0.02463010 0.04105102
v -0.01581808 -0.01804860 0.04184567
v -0.01563176 -0.01913813 0.04105102
v -0.01479447 -0.02752210 0.06490675
v 0.00349483 -0.01804860 0.07119368
v 0.00428612 -0.02130713 0.07112341
v 0.00323721 -0.01804860 0.07223700
v -0.00401319 -0.02204825 0.09356282
v -0.00424321 -0.02235034 0.09416286
v -0.00194296 -0.03485882 0.09363310
v -0.00420871 -0.02333112 0.09436288
v -0.00479067 -0.02228388 0.09500076
v -0.00189236 -0.03564828 0.09369256
v -0.00185095 -0.03634711 0.09373581
v -0.00184635 -0.03695330 0.09373581
v -0.00392578 -0.03853625 0.09374662
v -0.00238231 -0.03787367 0.09320063
v -0.00238231 -0.03695330 0.09407096
v -0.00343123 -0.03695330 0.09450343
v -0.00238231 -0.03766825 0.09389798
v -0.00174744 -0.03754540 0.09215191
v -0.00063182 -0.03659684 0.09005447
v 0.00260234 -0.03358804 0.06909083
v 0.00036189 -0.03551335 0.08691371
v 0.00312679 -0.03292143 0.06909083
v 0.00348333 -0.03239781 0.06909083
v 0.00384907 -0.03171307 0.06909083
v 0.00662088 -0.02611034 0.04105102
v 0.00685090 -0.02558067 0.04105102
v 0.00690841 -0.02542762 0.04105102
v -0.01584109 -0.01804860 0.04813260
v -0.01554205 -0.01966578 0.04105102
v -0.01461275 -0.02856733 0.06490675
v -0.01455525 -0.02866399 0.06604197
v -0.01472776 -0.02752210 0.06595547
v -0.01485658 -0.02647687 0.06490675
v -0.01580658 -0.01804860 0.05023004
v -0.01583419 -0.01804860 0.04922457
v -0.01551215 -0.01984099 0.04105102
v 0.00314980 -0.01804860 0.07239377
v -0.00491949 -0.02067274 0.09395204
v -0.00387747 -0.02064455 0.09187622
v -0.00404309 -0.02082177 0.09256816
v -0.00389358 -0.02152060 0.09286548
v -0.00488498 -0.02147227 0.09490886
v -0.00540254 -0.02228388 0.09552512
v -0.00592700 -0.02228388 0.09589272
v -0.00229720 -0.03596044 0.09400069
v -0.00447324 -0.03858660 0.09381689
v -0.00447784 -0.03859264 0.09326550
v -0.00392578 -0.03853625 0.09365472
v -0.00351863 -0.03804284 0.09403312
v -0.00351863 -0.03836104 0.09326550
v -0.00238231 -0.03783339 0.09215191
v -0.00592930 -0.02333112 0.09588190
v -0.00343123 -0.03590606 0.09453586
v -0.00656877 -0.02228388 0.09610895
v -0.00656877 -0.02333112 0.09604408
v -0.00761998 -0.02228388 0.09626571
v -0.00487808 -0.03545897 0.09478453
v -0.00447324 -0.03695330 0.09457911
v -0.00447324 -0.03800256 0.09421152
v -0.00028448 -0.03575703 0.06805292
v 0.00035729 -0.03545293 0.06805292
v 0.00088175 -0.03510855 0.06805292
v 0.00157872 -0.03458493 0.06805292
v 0.00208708 -0.03411166 0.06909083
v 0.00210318 -0.03409554 0.06805292
v 0.00257473 -0.03357193 0.06805292
v 0.00496930 -0.02875462 0.04105102
v 0.00549605 -0.02806787 0.04105102
v -0.01446094 -0.02918157 0.06490675
v -0.01446784 -0.02919768 0.06574465
v -0.01541784 -0.02036461 0.04105102
v -0.01525452 -0.02123463 0.04105102
v -0.01505440 -0.02228388 0.04105102
v -0.01480597 -0.02333112 0.04105102
v -0.01442873 -0.02907483 0.06644740
v -0.01449544 -0.02837600 0.06667985
v -0.01474387 -0.02647687 0.06595547
v -0.01084494 -0.02333112 0.09320063
v -0.01522002 -0.01804860 0.05865226
v -0.01533043 -0.01804860 0.05761975
v -0.01555126 -0.01804860 0.05543041
v -0.01563636 -0.01804860 0.05446277
v -0.01570077 -0.01804860 0.05341946
v -0.01573988 -0.01804860 0.05232749
v -0.01577208 -0.01804860 0.05132201
v 0.00268975 -0.01804860 0.07320463
v -0.00554516 -0.02064455 0.09427639
v -0.00590860 -0.02069691 0.09483318
v -0.00521162 -0.02077344 0.09464938
v 0.00221359 -0.01804860 0.07372899
v -0.00470556 -0.02117018 0.09427639
v -0.00597070 -0.02162533 0.09587109
v -0.00560956 -0.03862285 0.09328713
v -0.00531973 -0.03859666 0.09382770
v -0.00551295 -0.03858660 0.09209785
v -0.00482748 -0.03855840 0.09240599
v -0.00291367 -0.03642968 0.06648524
v -0.00274345 -0.03645989 0.06718259
v -0.00238921 -0.03635920 0.06690149
v -0.00133339 -0.03614975 0.06805292
v -0.00656877 -0.02146019 0.09597921
v -0.00761998 -0.02139776 0.09607651
v -0.00866660 -0.02154074 0.09600083
v -0.00866660 -0.02228388 0.09609273
v -0.00761998 -0.02333112 0.09611976
v -0.00503450 -0.03545897 0.09478453
v -0.00552215 -0.03695330 0.09434125
v -0.00560956 -0.03809318 0.09398988
v -0.00133339 -0.03607120 0.06699879
v -0.00081584 -0.03433319 0.05392219
v -0.00016027 -0.03313088 0.04604056
v 0.00030669 -0.03542272 0.06736638
v 0.00236771 -0.03121161 0.04108345
v 0.00240682 -0.03117938 0.04105102
v 0.00267825 -0.03096994 0.04105102
v 0.00353854 -0.03028117 0.04105102
v 0.00393648 -0.02989853 0.04105102
v 0.00406300 -0.02977165 0.04105102
v 0.00457135 -0.02924803 0.04105102
v -0.01427001 -0.02970519 0.06490675
v -0.01435052 -0.02566123 0.04499184
v -0.01431832 -0.02556054 0.04394312
v -0.01422401 -0.02542762 0.04184567
v -0.01388127 -0.03066382 0.06595547
v -0.01431372 -0.02957429 0.06604197
v -0.01454604 -0.02421926 0.04105102
v -0.00778100 -0.03695330 0.09110860
v -0.00785691 -0.03590606 0.09215191
v -0.01058501 -0.02438038 0.09320063
v -0.01027218 -0.02497247 0.09378446
v -0.01035498 -0.02438038 0.09394663
v -0.01046770 -0.02331098 0.09428719
v -0.01050220 -0.02228388 0.09424936
v -0.01075983 -0.02228388 0.09320063
v -0.01507740 -0.01804860 0.05966314
v -0.00625594 -0.02069691 0.09483318
v -0.00659177 -0.02089629 0.09522780
v 0.00169144 -0.01804860 0.07399928
v 0.00076444 -0.01804860 0.07428038
v -0.00361295 -0.01804860 0.07451824
v -0.00621453 -0.03858257 0.09299522
v -0.00627434 -0.03857653 0.09215191
v -0.00601901 -0.03850402 0.09369256
v -0.00618233 -0.03853826 0.09154106
v -0.00511501 -0.03643975 0.06533921
v -0.00465266 -0.03643975 0.06533921
v -0.00436973 -0.03647600 0.06584736
v -0.00395798 -0.03643170 0.06543111
v -0.00361295 -0.03645989 0.06612846
v -0.00381997 -0.03540057 0.05689538
v -0.00342892 -0.03568050 0.05966314
v -0.00312069 -0.03535223 0.05729000
v -0.00285156 -0.03539453 0.05798735
v -0.00269284 -0.03543279 0.05861442
v -0.00193376 -0.03431909 0.05087333
v -0.00177274 -0.03436138 0.05157608
v -0.00197747 -0.03535223 0.05939826
v -0.00761998 -0.02093254 0.09529808
v -0.00866660 -0.02120240 0.09529808
v -0.00928307 -0.02168574 0.09588190
v -0.00926006 -0.02228388 0.09586569
v -0.00919106 -0.02280750 0.09582244
v -0.00864820 -0.02322640 0.09593055
v -0.00617313 -0.03780318 0.09382770
v -0.00138630 -0.03419624 0.05124633
v -0.00078133 -0.03329602 0.04542971
v -0.00028448 -0.03293351 0.04394312
v 0.00049070 -0.03235753 0.04184567
v 0.00061492 -0.03242600 0.04289439
v 0.00113938 -0.03216017 0.04289439
v 0.00122679 -0.03220447 0.04371607
v 0.00129809 -0.03224274 0.04441342
v 0.00188236 -0.03150765 0.04105102
v 0.00236541 -0.03120959 0.04105102
v -0.01384677 -0.03066382 0.06490675
v -0.01397558 -0.02647687 0.04394312
v -0.01389737 -0.02647687 0.04289439
v -0.01450694 -0.02434614 0.04105102
v -0.01416420 -0.02542762 0.04105102
v -0.01348333 -0.03134654 0.06490675
v -0.01349943 -0.03136869 0.06595547
v -0.00737386 -0.03791797 0.09110860
v -0.00726115 -0.03782735 0.09215191
v -0.00757168 -0.03695330 0.09215191
v -0.00714613 -0.03763200 0.09275736
v -0.01028368 -0.02294848 0.09483318
v -0.01028598 -0.02228388 0.09483318
v -0.01025607 -0.02174616 0.09480075
v -0.01473927 -0.01804860 0.06176058
v -0.01490948 -0.01804860 0.06071186
v -0.00659177 -0.02064857 0.09430882
v -0.00695291 -0.02072107 0.09469263
v -0.00521852 -0.01804860 0.07410740
v -0.00679879 -0.03835298 0.09215191
v -0.00654807 -0.03844159 0.09115725
v -0.00656877 -0.03620815 0.06490675
v -0.00684480 -0.03695330 0.09342768
v -0.00548765 -0.03636725 0.06495540
v -0.00552215 -0.03624239 0.06385803
v -0.00552215 -0.03611551 0.06280931
v -0.00517942 -0.03540057 0.05690078
v -0.00447324 -0.03563016 0.05861442
v -0.00447324 -0.03575905 0.05966314
v -0.00447324 -0.03613565 0.06280931
v -0.00447324 -0.03626051 0.06385803
v -0.00436973 -0.03638739 0.06495540
v -0.00447324 -0.03550127 0.05757110
v -0.00447324 -0.03534418 0.05630074
v -0.00447324 -0.03523744 0.05547366
v -0.00447324 -0.03509445 0.05442493
v -0.00342892 -0.03374714 0.04499184
v -0.00342892 -0.03389012 0.04604056
v -0.00342892 -0.03460305 0.05127876
v -0.00288377 -0.03433722 0.04967865
v -0.00342892 -0.03516695 0.05547366
v -0.00268364 -0.03437347 0.05023004
v -0.00215919 -0.03427881 0.05023004
v -0.00179805 -0.03330005 0.04332145
v -0.00163703 -0.03334234 0.04394312
v -0.00111257 -0.03320539 0.04394312
v -0.00092625 -0.03325373 0.04473236
v -0.00762459 -0.02077747 0.09430882
v -0.00866660 -0.02102921 0.09424936
v -0.00966721 -0.02160519 0.09521159
v -0.01385827 -0.01804860 0.06490135
v -0.00971551 -0.02142796 0.09424936
v -0.00978452 -0.02228388 0.09535754
v -0.00967871 -0.02322640 0.09528186
v -0.00951079 -0.02438038 0.09508185
v -0.00028448 -0.03280261 0.04289439
v 0.00038489 -0.03230517 0.04105102
v 0.00078284 -0.03211384 0.04105102
v 0.00090935 -0.03205141 0.04105102
v 0.00101516 -0.03209773 0.04184567
v -0.01346723 -0.03028520 0.05861442
v -0.01380996 -0.02647687 0.04184567
v -0.01359374 -0.02850087 0.05023004
v -0.01337752 -0.02908087 0.05081387
v -0.01373636 -0.02647687 0.04105102
v -0.01312909 -0.03187016 0.06490675
v -0.01338902 -0.03015027 0.05699809
v -0.01320270 -0.03089743 0.05966314
v -0.01313599 -0.03189433 0.06595547
v -0.00741066 -0.03785957 0.09005447
v -0.01261153 -0.03256899 0.06595547
v -0.01215378 -0.03309463 0.06595547
v -0.01162932 -0.03359206 0.06595547
v -0.01161322 -0.03359005 0.06490675
v -0.01101056 -0.03411367 0.06490675
v -0.01427001 -0.01804860 0.06380397
v -0.01452764 -0.01804860 0.06278768
v -0.01473237 -0.01804860 0.06179842
v -0.00600061 -0.01804860 0.07375602
v -0.00727725 -0.02067878 0.09399528
v -0.00755328 -0.01804860 0.07229105
v -0.00759698 -0.01804860 0.07224781
v -0.01119918 -0.01804860 0.06852322
v -0.01167303 -0.01804860 0.06800967
v -0.00742216 -0.03780318 0.08901115
v -0.00971321 -0.03499174 0.06490675
v -0.00909905 -0.03534015 0.06490675
v -0.00857689 -0.03557175 0.06490675
v -0.00761768 -0.03592822 0.06490675
v -0.00761768 -0.03582551 0.06385803
v -0.00656877 -0.03609940 0.06385803
v -0.00656877 -0.03597454 0.06280931
v -0.00619843 -0.03541064 0.05787382
v -0.00552215 -0.03572078 0.05966314
v -0.00552676 -0.03532001 0.05653860
v -0.00552215 -0.03517904 0.05547366
v -0.00552215 -0.03503605 0.05442493
v -0.00447324 -0.03480243 0.05232749
v -0.00342892 -0.03360012 0.04394312
v -0.00280096 -0.03330206 0.04227273
v -0.00238001 -0.03348936 0.04394312
v -0.00247202 -0.03421034 0.04926781
v -0.00238001 -0.03363033 0.04499184
v -0.00238001 -0.03376929 0.04604056
v -0.00140240 -0.03314699 0.04294304
v -0.00210168 -0.03324768 0.04262410
v -0.00133339 -0.03285900 0.04105102
v -0.00133339 -0.03297379 0.04184567
v -0.00028448 -0.03255892 0.04105102
v -0.00028448 -0.03266566 0.04184567
v -0.01222279 -0.01804860 0.06738801
v -0.01262533 -0.01804860 0.06686365
v -0.01312909 -0.01804860 0.06615008
v -0.01314749 -0.01804860 0.06612305
v -0.01349253 -0.01804860 0.06559869
v -0.01352243 -0.02728244 0.04289439
v -0.01331771 -0.02790676 0.04394312
v -0.01334991 -0.02902448 0.05023004
v -0.01342812 -0.02709112 0.04105102
v -0.01347183 -0.02717570 0.04184567
v -0.01260463 -0.03255489 0.06490675
v -0.01314519 -0.03080882 0.05861442
v -0.01249882 -0.03140494 0.05652238
v -0.01248042 -0.03241191 0.06280931
v -0.01254253 -0.03248843 0.06385803
v -0.01314519 -0.02973137 0.05232749
v -0.01048380 -0.03451041 0.06490675
v -0.01213768 -0.03308053 0.06490675
v -0.01155802 -0.03353567 0.06385803
v -0.01093925 -0.03405929 0.06385803
v -0.01041709 -0.03446006 0.06385803
v -0.00971321 -0.03489507 0.06385803
v -0.00898863 -0.03529182 0.06385803
v -0.00846418 -0.03551939 0.06385803
v -0.00832386 -0.03545897 0.06280931
v -0.00761768 -0.03570266 0.06280931
v -0.00711853 -0.03539050 0.05907391
v -0.00656877 -0.03584162 0.06176058
v -0.00689771 -0.03534418 0.05837656
v -0.00655727 -0.03529987 0.05754407
v -0.00656877 -0.03516091 0.05652238
v -0.00656877 -0.03501994 0.05547366
v -0.00587869 -0.03536432 0.05718188
v -0.00656877 -0.03557175 0.05966314
v -0.00591090 -0.03431506 0.04983002
v -0.00552215 -0.03473396 0.05232749
v -0.00521162 -0.03436340 0.04951107
v -0.00447324 -0.03465340 0.05127876
v -0.00447324 -0.03438152 0.04938674
v -0.00447324 -0.03359005 0.04394312
v -0.00342892 -0.03343699 0.04289439
v -0.00342892 -0.03313692 0.04105102
v -0.00239151 -0.03304629 0.04105102
v -0.00242371 -0.03334838 0.04294304
v -0.01292437 -0.02856733 0.04394312
v -0.01326020 -0.02780606 0.04289439
v -0.01298417 -0.02961658 0.05023004
v -0.01336371 -0.02721799 0.04105102
v -0.01320270 -0.02769932 0.04184567
v -0.01208017 -0.03301206 0.06385803
v -0.01288756 -0.03066382 0.05547366
v -0.01276795 -0.03066382 0.05442493
v -0.01243671 -0.03132036 0.05547366
v -0.01236771 -0.03227496 0.06098215
v -0.01148441 -0.03346921 0.06280931
v -0.01085414 -0.03399284 0.06280931
v -0.01032968 -0.03439965 0.06280931
v -0.00971321 -0.03477021 0.06280931
v -0.00885062 -0.03522938 0.06280931
v -0.00840667 -0.03445604 0.05547366
v -0.00820885 -0.03541064 0.06206331
v -0.00809154 -0.03536432 0.06136596
v -0.00752797 -0.03520320 0.05868469
v -0.00761768 -0.03502598 0.05757110
v -0.00761768 -0.03488702 0.05652238
v -0.00761768 -0.03474604 0.05547366
v -0.00712083 -0.03434326 0.05174907
v -0.00656877 -0.03486889 0.05442493
v -0.00552215 -0.03411770 0.04813260
v -0.00552215 -0.03458090 0.05127876
v -0.00619613 -0.03436743 0.05053277
v -0.00610872 -0.03330407 0.04331604
v -0.00552215 -0.03396263 0.04708928
v -0.00552215 -0.03364644 0.04499184
v -0.00504140 -0.03329199 0.04233219
v -0.00447324 -0.03342491 0.04289439
v -0.00447324 -0.03312081 0.04105102
v -0.01280245 -0.02856733 0.04289439
v -0.01259773 -0.02945748 0.04604056
v -0.01286226 -0.02961658 0.04918673
v -0.01255863 -0.03044027 0.05127876
v -0.01261843 -0.03053090 0.05232749
v -0.01315669 -0.02761272 0.04105102
v -0.01275875 -0.02827531 0.04105102
v -0.01201117 -0.03293754 0.06280931
v -0.01228260 -0.03217426 0.05966314
v -0.01232170 -0.03222260 0.06027940
v -0.01233780 -0.03119147 0.05389517
v -0.01134179 -0.03333227 0.06089566
v -0.01128659 -0.03328393 0.06019831
v -0.01062641 -0.03358199 0.05861442
v -0.01043549 -0.03343297 0.05652238
v -0.01033888 -0.03335845 0.05547366
v -0.01026527 -0.03435333 0.06213899
v -0.01019397 -0.03430499 0.06143624
v -0.00979142 -0.03458694 0.06177680
v -0.00946709 -0.03449229 0.05966314
v -0.00934517 -0.03442180 0.05861442
v -0.00925316 -0.03436944 0.05783598
v -0.00916575 -0.03432110 0.05713864
v -0.00907834 -0.03428083 0.05652238
v -0.00893343 -0.03420832 0.05547366
v -0.00824335 -0.03437951 0.05442493
v -0.00814904 -0.03433722 0.05387354
v -0.00761768 -0.03459500 0.05442493
v -0.00718064 -0.03331616 0.04531618
v -0.00700812 -0.03326178 0.04461884
v -0.00629044 -0.03335241 0.04394312
v -0.00552215 -0.03348734 0.04394312
v -0.00681490 -0.03320741 0.04394312
v -0.00650206 -0.03312886 0.04293764
v -0.00656877 -0.03292143 0.04184567
v -0.00656877 -0.03278247 0.04105102
v -0.00550375 -0.03300802 0.04105102
v -0.00574068 -0.03324164 0.04261870
v -0.00544395 -0.03333831 0.04293764
v -0.00544395 -0.03316713 0.04192676
v -0.01262533 -0.02864990 0.04186189
v -0.01240451 -0.02917956 0.04289439
v -0.01249192 -0.03034965 0.05023004
v -0.01261843 -0.02850087 0.04105102
v -0.01221129 -0.03209169 0.05861442
v -0.01161552 -0.03256698 0.05757110
v -0.01232630 -0.03013013 0.04766770
v -0.01222739 -0.03105452 0.05232749
v -0.01198816 -0.03184599 0.05547366
v -0.01206637 -0.03192856 0.05652238
v -0.01146371 -0.03240989 0.05547366
v -0.01114857 -0.03316713 0.05861442
v -0.01138090 -0.03232732 0.05442493
v -0.01105656 -0.03309060 0.05757110
v -0.01086104 -0.03293553 0.05547366
v -0.01027218 -0.03331012 0.05480874
v -0.01011116 -0.03425465 0.06071186
v -0.00971321 -0.03375519 0.05547366
v -0.00876781 -0.03412777 0.05442493
v -0.00957520 -0.03352158 0.05337621
v -0.00944178 -0.03343699 0.05232749
v -0.00922096 -0.03330407 0.05065170
v -0.00872411 -0.03348533 0.05027329
v -0.00828016 -0.03335040 0.04813260
v -0.00817435 -0.03330005 0.04752175
v -0.00803173 -0.03324366 0.04681899
v -0.00761768 -0.03293351 0.04394312
v -0.00761768 -0.03275628 0.04289439
v -0.00764529 -0.03242600 0.04105102
v -0.00744056 -0.03249448 0.04105102
v -0.01235620 -0.02912115 0.04221867
v -0.01250802 -0.02866399 0.04105102
v -0.01228490 -0.03007777 0.04708928
v -0.01214918 -0.03096389 0.05127876
v -0.01162472 -0.03153987 0.05127876
v -0.01154191 -0.03144925 0.05023004
v -0.01131419 -0.03121563 0.04744606
v -0.01125898 -0.03221051 0.05301402
v -0.01056661 -0.03249649 0.05127876
v -0.00979142 -0.03355581 0.05444656
v -0.01046080 -0.03240989 0.05023004
v -0.01027448 -0.03226690 0.04848938
v -0.01019627 -0.03220649 0.04778663
v -0.01018937 -0.03325171 0.05410599
v -0.00911055 -0.03324567 0.04994894
v -0.00996624 -0.03310671 0.05232749
v -0.00945329 -0.03239982 0.04604056
v -0.00922556 -0.03226086 0.04433233
v -0.00912205 -0.03220044 0.04362958
v -0.00898403 -0.03318324 0.04918673
v -0.00866660 -0.03264753 0.04499184
v -0.00847108 -0.03239579 0.04289439
v -0.00828246 -0.03230315 0.04184567
v -0.00816974 -0.03225079 0.04124022
v -0.00791212 -0.03232128 0.04105102
v -0.01196056 -0.02970318 0.04289439
v -0.01204567 -0.02979380 0.04394312
v -0.01220899 -0.02998110 0.04604056
v -0.01230330 -0.02905268 0.04152132
v -0.01226650 -0.02900435 0.04105102
v -0.01206637 -0.03087528 0.05023004
v -0.01168453 -0.03056917 0.04604056
v -0.01125208 -0.03115723 0.04674872
v -0.01143610 -0.03029326 0.04289439
v -0.01109337 -0.03206350 0.05127876
v -0.01044930 -0.03135661 0.04394312
v -0.01033888 -0.03126800 0.04289439
v -0.01026758 -0.03121161 0.04224570
v -0.01010886 -0.03214808 0.04708928
v -0.00963041 -0.03193259 0.04396474
v -0.00971321 -0.03169092 0.04289439
v -0.00978222 -0.03146536 0.04187270
v -0.00960510 -0.03143314 0.04105102
v -0.00872871 -0.03244815 0.04396474
v -0.00937278 -0.03157210 0.04105102
v -0.00899554 -0.03213600 0.04289439
v -0.00880692 -0.03204134 0.04184567
v -0.00837447 -0.03211384 0.04105102
v -0.01194446 -0.02952796 0.04186189
v -0.01169603 -0.02965686 0.04105102
v -0.01134409 -0.03020062 0.04184567
v -0.01129349 -0.03014826 0.04127806
v -0.01086564 -0.03081688 0.04289439
v -0.01017787 -0.03114515 0.04154295
v -0.01080583 -0.03052889 0.04105102
v -0.00976382 -0.03132841 0.04105102
v -0.00862289 -0.03198898 0.04105102
v -0.01149131 -0.02988443 0.04105102
v -0.01102896 -0.03033354 0.04105102
v -0.01011116 -0.03109883 0.04105102
f 1 2 5
f 1 5 12
f 1 12 31
f 1 31 34
f 1 34 62
f 1 62 91
f 1 91 90
f 1 90 89
f 1 89 132
f 1 132 131
f 1 131 183
f 1 183 182
f 1 182 181
f 1 181 180
f 1 180 179
f 1 179 178
f 1 178 238
f 1 238 237
f 1 237 297
f 1 297 296
f 1 296 295
f 1 295 347
f 1 347 345
f 1 345 391
f 1 391 390
f 1 390 425
f 1 425 462
f 1 462 461
f 1 461 495
f 1 495 494
f 1 494 520
f 1 520 543
f 1 543 552
f 1 552 540
f 1 540 538
f 1 538 551
f 1 551 555
f 1 555 550
f 1 550 554
f 1 554 553
f 1 553 545
f 1 545 525
f 1 525 497
f 1 497 469
f 1 469 432
f 1 432 431
f 1 431 396
f 1 396 357
f 1 357 303
f 1 303 243
f 1 243 242
f 1 242 190
f 1 190 138
f 1 138 137
f 1 137 136
f 1 136 135
f 1 135 100
f 1 100 93
f 1 93 64
f 1 64 38
f 1 38 22
f 1 22 21
f 1 21 20
f 1 20 17
f 1 17 7
f 1 7 3
f 1 3 4
f 1 4 2
f 2 4 6
f 2 6 5
f 3 7 8
f 3 8 4
f 4 8 9
f 4 9 10
f 4 10 11
f 4 11 6
f 5 6 13
f 5 13 12
f 6 14 15
f 6 15 13
f 6 11 16
f 6 16 14
f 7 17 8
f 8 18 19
f 8 19 9
f 8 17 20
f 8 20 21
f 8 21 22
f 8 22 18
f 9 19 10
f 10 23 24
f 10 24 25
f 10 25 26
f 10 26 27
f 10 27 28
f 10 28 11
f 10 19 29
f 10 29 23
f 11 28 27
f 11 27 30
f 11 30 16
f 12 13 15
f 12 15 31
f 14 32 33
f 14 33 15
f 14 16 32
f 15 33 34
f 15 34 31
f 16 30 35
f 16 35 36
f 16 36 32
f 18 37 29
f 18 29 19
f 18 22 37
f 22 38 63
f 22 63 92
f 22 92 99
f 22 99 98
f 22 98 149
f 22 149 148
f 22 148 147
f 22 147 146
f 22 146 145
f 22 145 144
f 22 144 143
f 22 143 199
f 22 199 254
f 22 254 253
f 22 253 316
f 22 316 315
f 22 315 314
f 22 314 289
f 22 289 353
f 22 353 352
f 22 352 351
f 22 351 350
f 22 350 349
f 22 349 322
f 22 322 321
f 22 321 320
f 22 320 319
f 22 319 317
f 22 317 257
f 22 257 204
f 22 204 203
f 22 203 202
f 22 202 154
f 22 154 150
f 22 150 101
f 22 101 68
f 22 68 66
f 22 66 39
f 22 39 40
f 22 40 41
f 22 41 42
f 22 42 37
f 23 43 44
f 23 44 45
f 23 45 46
f 23 46 47
f 23 47 24
f 23 29 48
f 23 48 43
f 24 47 46
f 24 46 49
f 24 49 50
f 24 50 51
f 24 51 25
f 25 27 26
f 25 51 52
f 25 52 53
f 25 53 54
f 25 54 55
f 25 55 27
f 27 56 57
f 27 57 30
f 27 55 58
f 27 58 56
f 29 37 48
f 30 57 59
f 30 59 35
f 32 60 61
f 32 61 33
f 32 36 59
f 32 59 60
f 33 61 62
f 33 62 34
f 35 59 36
f 37 42 48
f 38 64 65
f 38 65 63
f 39 66 44
f 39 44 40
f 40 44 41
f 41 67 42
f 41 44 43
f 41 43 67
f 42 67 43
f 42 43 48
f 44 68 45
f 44 66 68
f 45 69 46
f 45 68 69
f 46 50 49
f 46 69 51
f 46 51 50
f 51 69 70
f 51 70 52
f 52 70 53
f 53 71 54
f 53 70 72
f 53 72 73
f 53 73 71
f 54 71 74
f 54 74 75
f 54 75 76
f 54 76 55
f 55 77 78
f 55 78 58
f 55 76 79
f 55 79 80
f 55 80 81
f 55 81 77
f 56 58 82
f 56 82 83
f 56 83 84
f 56 84 85
f 56 85 57
f 57 85 59
f 58 78 82
f 59 85 86
f 59 86 87
f 59 87 88
f 59 88 60
f 60 88 89
f 60 89 90
f 60 90 61
f 61 90 91
f 61 91 62
f 63 65 92
f 64 93 65
f 65 94 95
f 65 95 96
f 65 96 97
f 65 97 98
f 65 98 99
f 65 99 92
f 65 93 100
f 65 100 94
f 68 101 102
f 68 102 103
f 68 103 104
f 68 104 105
f 68 105 69
f 69 105 106
f 69 106 70
f 70 106 73
f 70 73 72
f 71 73 74
f 73 106 107
f 73 107 75
f 73 75 74
f 75 107 108
f 75 108 109
f 75 109 79
f 75 79 76
f 77 110 111
f 77 111 112
f 77 112 78
f 77 81 113
f 77 113 110
f 78 112 114
f 78 114 115
f 78 115 82
f 79 109 108
f 79 108 116
f 79 116 117
f 79 117 80
f 80 117 116
f 80 116 118
f 80 118 119
f 80 119 120
f 80 120 121
f 80 121 122
f 80 122 123
f 80 123 113
f 80 113 81
f 82 115 124
f 82 124 125
f 82 125 126
f 82 126 127
f 82 127 83
f 83 127 128
f 83 128 84
f 84 128 129
f 84 129 130
f 84 130 86
f 84 86 85
f 86 130 131
f 86 131 132
f 86 132 87
f 87 132 89
f 87 89 88
f 94 133 134
f 94 134 95
f 94 100 135
f 94 135 136
f 94 136 137
f 94 137 138
f 94 138 133
f 95 139 140
f 95 140 96
f 95 134 139
f 96 141 97
f 96 140 142
f 96 142 141
f 97 141 143
f 97 143 144
f 97 144 145
f 97 145 146
f 97 146 147
f 97 147 148
f 97 148 149
f 97 149 98
f 101 150 102
f 102 151 152
f 102 152 153
f 102 153 104
f 102 104 103
f 102 150 154
f 102 154 151
f 104 153 155
f 104 155 105
f 105 155 106
f 106 156 107
f 106 155 153
f 106 153 156
f 107 156 108
f 108 156 118
f 108 118 116
f 110 157 111
f 110 113 123
f 110 123 158
f 110 158 157
f 111 157 159
f 111 159 160
f 111 160 161
f 111 161 162
f 111 162 112
f 112 162 163
f 112 163 164
f 112 164 124
f 112 124 114
f 114 124 115
f 118 120 119
f 118 156 165
f 118 165 120
f 120 165 166
f 120 166 167
f 120 167 168
f 120 168 169
f 120 169 170
f 120 170 121
f 121 170 122
f 122 170 171
f 122 171 172
f 122 172 123
f 123 172 158
f 124 164 173
f 124 173 174
f 124 174 175
f 124 175 176
f 124 176 125
f 125 176 126
f 126 176 177
f 126 177 178
f 126 178 127
f 127 178 179
f 127 179 180
f 127 180 129
f 127 129 128
f 129 180 181
f 129 181 182
f 129 182 183
f 129 183 130
f 130 183 131
f 133 184 134
f 133 138 185
f 133 185 186
f 133 186 187
f 133 187 184
f 134 188 189
f 134 189 139
f 134 184 188
f 138 190 185
f 139 189 191
f 139 191 192
f 139 192 193
f 139 193 142
f 139 142 140
f 141 142 143
f 142 193 194
f 142 194 195
f 142 195 196
f 142 196 197
f 142 197 198
f 142 198 143
f 143 198 199
f 151 154 152
f 152 200 201
f 152 201 165
f 152 165 153
f 152 154 202
f 152 202 203
f 152 203 204
f 152 204 200
f 153 165 156
f 157 205 206
f 157 206 159
f 157 158 205
f 158 172 207
f 158 207 205
f 159 206 208
f 159 208 209
f 159 209 210
f 159 210 211
f 159 211 212
f 159 212 213
f 159 213 160
f 160 213 161
f 161 163 162
f 161 213 212
f 161 212 214
f 161 214 215
f 161 215 216
f 161 216 217
f 161 217 163
f 163 173 164
f 163 217 218
f 163 218 219
f 163 219 220
f 163 220 221
f 163 221 173
f 165 201 166
f 166 201 222
f 166 222 167
f 167 222 223
f 167 223 224
f 167 224 168
f 168 224 225
f 168 225 226
f 168 226 227
f 168 227 170
f 168 170 169
f 170 227 171
f 171 227 226
f 171 226 228
f 171 228 172
f 172 228 207
f 173 221 220
f 173 220 174
f 174 220 229
f 174 229 230
f 174 230 231
f 174 231 175
f 175 231 232
f 175 232 176
f 176 232 233
f 176 233 234
f 176 234 235
f 176 235 236
f 176 236 237
f 176 237 238
f 176 238 177
f 177 238 178
f 184 239 188
f 184 187 240
f 184 240 241
f 184 241 239
f 185 190 186
f 186 190 242
f 186 242 187
f 187 242 243
f 187 243 241
f 187 241 240
f 188 239 244
f 188 244 245
f 188 245 246
f 188 246 191
f 188 191 189
f 191 246 247
f 191 247 248
f 191 248 192
f 192 248 194
f 192 194 193
f 194 248 249
f 194 249 250
f 194 250 195
f 195 250 196
f 196 250 197
f 197 250 251
f 197 251 252
f 197 252 198
f 198 252 253
f 198 253 254
f 198 254 199
f 200 255 256
f 200 256 222
f 200 222 201
f 200 204 257
f 200 257 255
f 205 207 258
f 205 258 206
f 206 258 259
f 206 259 260
f 206 260 208
f 207 228 261
f 207 261 249
f 207 249 247
f 207 247 258
f 208 260 262
f 208 262 209
f 209 262 263
f 209 263 264
f 209 264 265
f 209 265 266
f 209 266 267
f 209 267 210
f 210 267 268
f 210 268 269
f 210 269 270
f 210 270 212
f 210 212 211
f 212 270 269
f 212 269 268
f 212 268 267
f 212 267 214
f 214 267 266
f 214 266 271
f 214 271 272
f 214 272 273
f 214 273 274
f 214 274 275
f 214 275 276
f 214 276 277
f 214 277 278
f 214 278 279
f 214 279 216
f 214 216 215
f 216 279 278
f 216 278 280
f 216 280 217
f 217 280 281
f 217 281 219
f 217 219 218
f 219 281 282
f 219 282 283
f 219 283 284
f 219 284 285
f 219 285 220
f 220 285 230
f 220 230 229
f 222 256 286
f 222 286 287
f 222 287 223
f 223 252 288
f 223 288 224
f 223 287 289
f 223 289 290
f 223 290 252
f 224 288 252
f 224 252 251
f 224 251 291
f 224 291 250
f 224 250 225
f 225 250 226
f 226 250 292
f 226 292 293
f 226 293 228
f 228 293 250
f 228 250 261
f 230 285 294
f 230 294 231
f 231 294 295
f 231 295 232
f 232 295 296
f 232 296 297
f 232 297 298
f 232 298 233
f 233 298 234
f 234 298 237
f 234 237 235
f 235 237 236
f 237 298 297
f 239 299 244
f 239 241 300
f 239 300 301
f 239 301 302
f 239 302 299
f 241 243 300
f 243 303 300
f 244 304 245
f 244 299 305
f 244 305 306
f 244 306 304
f 245 304 307
f 245 307 246
f 246 308 258
f 246 258 247
f 246 307 309
f 246 309 310
f 246 310 311
f 246 311 312
f 246 312 313
f 246 313 308
f 247 249 248
f 249 261 250
f 250 293 292
f 250 291 251
f 252 290 289
f 252 289 314
f 252 314 315
f 252 315 316
f 252 316 253
f 255 257 317
f 255 317 256
f 256 318 286
f 256 317 319
f 256 319 320
f 256 320 321
f 256 321 322
f 256 322 318
f 258 308 323
f 258 323 259
f 259 323 324
f 259 324 325
f 259 325 326
f 259 326 327
f 259 327 260
f 260 327 328
f 260 328 329
f 260 329 262
f 262 329 263
f 263 329 330
f 263 330 264
f 264 330 331
f 264 331 332
f 264 332 265
f 265 332 333
f 265 333 334
f 265 334 335
f 265 335 336
f 265 336 274
f 265 274 273
f 265 273 272
f 265 272 271
f 265 271 266
f 274 336 275
f 275 337 338
f 275 338 339
f 275 339 278
f 275 278 276
f 275 336 337
f 276 278 277
f 278 340 280
f 278 339 341
f 278 341 342
f 278 342 340
f 280 340 281
f 281 340 342
f 281 342 282
f 282 343 283
f 282 342 341
f 282 341 339
f 282 339 344
f 282 344 345
f 282 345 346
f 282 346 343
f 283 343 284
f 284 343 346
f 284 346 347
f 284 347 285
f 285 347 348
f 285 348 294
f 286 318 349
f 286 349 350
f 286 350 351
f 286 351 352
f 286 352 353
f 286 353 287
f 287 353 289
f 294 348 295
f 295 348 347
f 299 302 305
f 300 354 302
f 300 302 301
f 300 303 354
f 302 354 355
f 302 355 356
f 302 356 305
f 303 357 358
f 303 358 354
f 304 359 307
f 304 306 360
f 304 360 361
f 304 361 362
f 304 362 363
f 304 363 359
f 305 360 306
f 305 356 364
f 305 364 360
f 307 359 309
f 308 313 365
f 308 365 323
f 309 359 310
f 310 359 366
f 310 366 312
f 310 312 311
f 312 366 367
f 312 367 313
f 313 367 368
f 313 368 369
f 313 369 365
f 318 322 349
f 323 365 324
f 324 365 369
f 324 369 370
f 324 370 325
f 325 370 371
f 325 371 326
f 326 371 372
f 326 372 327
f 327 372 328
f 328 372 373
f 328 373 374
f 328 374 329
f 329 374 375
f 329 375 330
f 330 375 376
f 330 376 331
f 331 377 378
f 331 378 379
f 331 379 380
f 331 380 381
f 331 381 332
f 331 376 382
f 331 382 377
f 332 381 333
f 333 381 334
f 334 381 335
f 335 381 380
f 335 380 383
f 335 383 384
f 335 384 385
f 335 385 336
f 336 385 386
f 336 386 337
f 337 386 387
f 337 387 388
f 337 388 389
f 337 389 338
f 338 389 390
f 338 390 391
f 338 391 392
f 338 392 339
f 339 392 344
f 344 391 345
f 344 392 391
f 345 347 346
f 354 358 355
f 355 393 356
f 355 358 394
f 355 394 393
f 356 395 364
f 356 393 395
f 357 396 358
f 358 397 394
f 358 396 397
f 359 363 398
f 359 398 366
f 360 364 399
f 360 399 361
f 361 399 400
f 361 400 401
f 361 401 402
f 361 402 362
f 362 402 398
f 362 398 363
f 364 395 399
f 366 398 367
f 367 398 403
f 367 403 368
f 368 403 404
f 368 404 405
f 368 405 369
f 369 405 370
f 370 405 406
f 370 406 371
f 371 406 407
f 371 407 373
f 371 373 372
f 373 407 408
f 373 408 409
f 373 409 374
f 374 409 410
f 374 410 375
f 375 410 411
f 375 411 412
f 375 412 413
f 375 413 414
f 375 414 380
f 375 380 377
f 375 377 376
f 376 377 382
f 377 380 379
f 377 379 378
f 380 414 415
f 380 415 416
f 380 416 383
f 383 417 385
f 383 385 418
f 383 418 384
f 383 416 419
f 383 419 420
f 383 420 421
f 383 421 417
f 384 418 385
f 385 388 387
f 385 387 386
f 385 417 421
f 385 421 422
f 385 422 423
f 385 423 388
f 388 423 424
f 388 424 389
f 389 424 390
f 390 424 425
f 393 394 397
f 393 397 426
f 393 426 395
f 395 426 427
f 395 427 428
f 395 428 429
f 395 429 430
f 395 430 399
f 396 431 397
f 397 431 432
f 397 432 426
f 398 402 433
f 398 433 403
f 399 430 400
f 400 430 401
f 401 434 435
f 401 435 402
f 401 430 429
f 401 429 436
f 401 436 434
f 402 435 433
f 403 433 437
f 403 437 404
f 404 437 438
f 404 438 439
f 404 439 405
f 405 439 440
f 405 440 441
f 405 441 442
f 405 442 406
f 406 442 443
f 406 443 444
f 406 444 445
f 406 445 446
f 406 446 407
f 407 446 447
f 407 447 448
f 407 448 449
f 407 449 408
f 408 449 450
f 408 450 451
f 408 451 410
f 408 410 409
f 410 451 413
f 410 413 412
f 410 412 411
f 413 451 414
f 414 451 452
f 414 452 453
f 414 453 415
f 415 452 454
f 415 454 455
f 415 455 456
f 415 456 420
f 415 420 416
f 415 453 452
f 416 420 419
f 420 457 422
f 420 422 421
f 420 456 455
f 420 455 458
f 420 458 459
f 420 459 460
f 420 460 461
f 420 461 462
f 420 462 463
f 420 463 464
f 420 464 457
f 422 457 423
f 423 457 464
f 423 464 465
f 423 465 462
f 423 462 425
f 423 425 424
f 426 432 466
f 426 466 467
f 426 467 427
f 427 429 428
f 427 467 429
f 429 467 468
f 429 468 436
f 432 469 466
f 433 435 434
f 433 434 470
f 433 470 471
f 433 471 437
f 434 436 470
f 436 468 472
f 436 472 473
f 436 473 474
f 436 474 475
f 436 475 470
f 437 471 476
f 437 476 438
f 438 477 439
f 438 476 478
f 438 478 477
f 439 477 479
f 439 479 440
f 440 479 441
f 441 479 480
f 441 480 481
f 441 481 443
f 441 443 442
f 443 482 446
f 443 446 445
f 443 445 444
f 443 481 482
f 446 482 447
f 447 483 448
f 447 482 483
f 448 483 449
f 449 483 450
f 450 484 451
f 450 483 485
f 450 485 486
f 450 486 487
f 450 487 484
f 451 484 452
f 452 488 489
f 452 489 490
f 452 490 491
f 452 491 492
f 452 492 454
f 452 484 488
f 454 492 455
f 455 492 493
f 455 493 494
f 455 494 495
f 455 495 458
f 458 495 461
f 458 461 460
f 458 460 459
f 462 465 463
f 463 465 464
f 466 496 467
f 466 469 496
f 467 496 472
f 467 472 468
f 469 497 496
f 470 475 471
f 471 475 476
f 472 498 499
f 472 499 473
f 472 496 498
f 473 499 500
f 473 500 474
f 474 478 476
f 474 476 475
f 474 500 478
f 477 478 479
f 478 480 479
f 478 500 501
f 478 501 502
f 478 502 503
f 478 503 480
f 480 503 504
f 480 504 481
f 481 505 483
f 481 483 482
f 481 504 506
f 481 506 507
f 481 507 508
f 481 508 509
f 481 509 505
f 483 505 485
f 484 487 510
f 484 510 488
f 485 509 511
f 485 511 486
f 485 505 509
f 486 511 487
f 487 511 512
f 487 512 513
f 487 513 514
f 487 514 510
f 488 510 515
f 488 515 489
f 489 516 517
f 489 517 490
f 489 515 516
f 490 517 518
f 490 518 519
f 490 519 491
f 491 519 492
f 492 519 493
f 493 519 520
f 493 520 494
f 496 521 522
f 496 522 523
f 496 523 498
f 496 497 524
f 496 524 521
f 497 525 524
f 498 523 526
f 498 526 499
f 499 526 500
f 500 526 527
f 500 527 501
f 501 527 502
f 502 528 503
f 502 527 529
f 502 529 528
f 503 528 530
f 503 530 504
f 504 530 506
f 506 530 531
f 506 531 507
f 507 531 532
f 507 532 533
f 507 533 508
f 508 534 511
f 508 511 509
f 508 533 534
f 510 514 515
f 511 534 512
f 512 534 513
f 513 534 535
f 513 535 536
f 513 536 537
f 513 537 538
f 513 538 514
f 514 539 515
f 514 538 540
f 514 540 541
f 514 541 517
f 514 517 539
f 515 539 516
f 516 539 517
f 517 541 518
f 518 541 519
f 519 541 542
f 519 542 543
f 519 543 520
f 521 524 544
f 521 544 545
f 521 545 529
f 521 529 522
f 522 529 523
f 523 529 527
f 523 527 526
f 524 525 545
f 524 545 544
f 528 531 530
f 528 529 546
f 528 546 547
f 528 547 548
f 528 548 531
f 529 545 546
f 531 548 532
f 532 548 533
f 533 549 537
f 533 537 536
f 533 536 535
f 533 535 534
f 533 548 550
f 533 550 549
f 537 549 538
f 538 549 551
f 540 552 542
f 540 542 541
f 542 552 543
f 545 553 547
f 545 547 546
f 547 553 554
f 547 554 550
f 547 550 548
f 549 550 555
f 549 555 551

