# https://github.com/mikedh/trimesh
v -0.00342597 -0.03313352 0.04104152
v -0.00238707 -0.03304175 0.04104152
v 0.00578382 -0.02483292 0.04104561
v -0.00237088 -0.02483292 0.04104561
v -0.00447161 -0.03311653 0.04104152
v -0.00028228 -0.02703894 0.00123501
v 0.00076606 -0.02703214 0.00125958
v 0.00145956 -0.02700834 0.00134554
v 0.00180901 -0.02693016 0.00098121
v -0.00132793 -0.03285480 0.04104152
v 0.00286005 -0.02680440 0.00096484
v 0.00578382 -0.00516572 0.04104561
v -0.00028633 -0.03255567 0.04104152
v 0.00038288 -0.03230074 0.04104152
v 0.00090773 -0.03204921 0.04104152
v 0.00188187 -0.03150535 0.04104152
v 0.00232306 -0.03123343 0.04104152
v 0.00236624 -0.03120623 0.04104152
v 0.00240672 -0.03117564 0.04104152
v 0.00281688 -0.03085612 0.04104152
v 0.00353736 -0.03027828 0.04104152
v 0.00393538 -0.02989418 0.04104152
v 0.00406221 -0.02976841 0.04104152
v 0.00457087 -0.02924155 0.04104152
v 0.00496889 -0.02875208 0.04104152
v 0.00509571 -0.02858553 0.04104152
v 0.00549373 -0.02806206 0.04104152
v 0.00573120 -0.02764737 0.04104152
v 0.00578382 -0.02755220 0.04104152
v -0.00237088 0.00159169 0.04104561
v -0.00799982 -0.03228035 0.04104152
v -0.00791482 -0.03231774 0.04104152
v -0.00764768 -0.03242311 0.04104152
v -0.00656830 -0.03278002 0.04104152
v -0.00550242 -0.03300096 0.04104152
v -0.00237897 -0.02687238 0.00096484
v -0.00138460 -0.02695736 0.00100168
v -0.00111880 -0.02702534 0.00131688
v -0.00028228 -0.02693356 0.00070693
v 0.00076606 -0.02693356 0.00073150
v 0.00390840 -0.02652907 0.00096484
v 0.00286005 -0.02636251 -0.00000126
v 0.00390840 -0.02624015 0.00003149
v 0.00495674 -0.02605660 0.00023207
v 0.00535206 0.00159169 0.04104561
v 0.00578382 0.00159169 0.03895786
v 0.00549238 -0.02594782 0.00042038
v 0.00578382 -0.02580846 0.00084612
v 0.00352927 -0.03026808 0.04078771
v 0.00453579 -0.02919396 0.03869177
v 0.00455468 -0.02921776 0.03973974
v 0.00456817 -0.02923815 0.04078771
v 0.00550183 -0.02806886 0.03764380
v 0.00551262 -0.02808246 0.03869177
v 0.00550723 -0.02807906 0.03973974
v 0.00549643 -0.02806546 0.04078771
v 0.00578382 -0.02765077 0.03893739
v 0.00578382 -0.02761338 0.03991986
v -0.00237088 0.00159169 0.03118814
v -0.00799982 0.00158829 0.04103743
v -0.00799982 -0.02483632 0.04104152
v -0.00799982 -0.03220217 0.04055847
v -0.00732791 -0.03232454 0.03973974
v -0.00717410 -0.03226335 0.03904792
v -0.00697981 -0.03220217 0.03834791
v -0.00656830 -0.03255567 0.03973974
v -0.00342732 -0.02666163 0.00096484
v -0.00604615 -0.03223276 0.03711572
v -0.00552131 -0.03295677 0.04078771
v -0.00447431 -0.02614837 0.00008061
v -0.00342732 -0.02630473 0.00000283
v -0.00237897 -0.02639311 -0.00000945
v -0.00138460 -0.02694716 0.00095664
v -0.00141293 -0.02694716 0.00096484
v -0.00138460 -0.02641350 -0.00000945
v -0.00028228 -0.02641690 -0.00000945
v 0.00076606 -0.02641690 -0.00000945
v 0.00181306 -0.02641350 -0.00000945
v 0.00390840 -0.02541756 -0.00047613
v 0.00495674 -0.02541756 -0.00027144
v 0.00578382 -0.02542776 -0.00000536
v 0.00578382 -0.02558752 0.00015429
v 0.00578382 0.00159169 -0.00057437
v 0.00578382 -0.02733466 0.02716000
v 0.00578382 -0.02766777 0.03764380
v 0.00578382 -0.02767457 0.03793445
v -0.00138190 0.00159169 -0.00057437
v -0.00799982 0.00158829 -0.00076677
v -0.00799982 -0.03217498 0.04040291
v -0.00785276 -0.03211719 0.03973974
v -0.00799982 -0.03121303 0.03493791
v -0.00748037 -0.03133200 0.03449989
v -0.00710394 -0.03118924 0.03291156
v -0.00517051 -0.02602261 0.00024436
v -0.00551861 -0.02547875 -0.00007904
v -0.00447431 -0.02542096 -0.00042291
v -0.00342732 -0.02542096 -0.00050478
v -0.00237897 -0.02542096 -0.00051706
v -0.00138460 -0.02636591 -0.00003401
v 0.00181306 -0.02541756 -0.00050888
v 0.00286005 -0.02541756 -0.00050478
v 0.00578382 -0.02437404 -0.00055390
v 0.00578382 -0.02332712 -0.00057437
v -0.00799982 -0.02017275 -0.00077496
v -0.00799982 -0.03112805 0.03447124
v -0.00715386 -0.02494169 0.00032213
v -0.00656830 -0.02513204 0.00010108
v -0.00799982 -0.03024089 0.02991093
v -0.00656830 -0.02437404 -0.00040244
v -0.00552131 -0.02437404 -0.00056619
v -0.00447431 -0.02437404 -0.00057437
v -0.00138460 -0.02437404 -0.00057437
v 0.00495674 -0.02437404 -0.00057028
v -0.00799982 -0.02293962 -0.00053753
v -0.00799982 -0.02440123 0.00096484
v -0.00799982 -0.02431965 0.00060050
v -0.00799982 -0.02425847 0.00042857
v -0.00799982 -0.02413610 0.00009699
v -0.00799982 -0.03007093 0.02905126
v -0.00755053 -0.02435025 -0.00000126
v -0.00799982 -0.02394915 -0.00004629
v -0.00799982 -0.02333392 -0.00037379
v -0.00668703 -0.02425847 -0.00041472
v -0.00762069 -0.02332032 -0.00052116
f 1 2 3
f 1 3 4
f 1 4 5
f 1 5 6
f 1 6 7
f 1 7 8
f 1 8 9
f 1 9 2
f 2 10 3
f 2 9 11
f 2 11 10
f 3 12 45
f 3 45 30
f 3 30 4
f 3 10 13
f 3 13 14
f 3 14 15
f 3 15 16
f 3 16 17
f 3 17 18
f 3 18 19
f 3 19 20
f 3 20 21
f 3 21 22
f 3 22 23
f 3 23 24
f 3 24 25
f 3 25 26
f 3 26 27
f 3 27 28
f 3 28 29
f 3 29 58
f 3 58 57
f 3 57 86
f 3 86 85
f 3 85 84
f 3 84 48
f 3 48 82
f 3 82 81
f 3 81 102
f 3 102 103
f 3 103 83
f 3 83 46
f 3 46 12
f 4 30 61
f 4 61 31
f 4 31 32
f 4 32 33
f 4 33 34
f 4 34 35
f 4 35 5
f 5 35 36
f 5 36 37
f 5 37 38
f 5 38 6
f 6 38 37
f 6 37 39
f 6 39 40
f 6 40 7
f 7 40 9
f 7 9 8
f 9 40 11
f 10 11 41
f 10 41 13
f 11 40 42
f 11 42 43
f 11 43 44
f 11 44 41
f 12 46 45
f 13 41 47
f 13 47 14
f 14 47 15
f 15 47 16
f 16 47 48
f 16 48 17
f 17 48 18
f 18 48 19
f 19 48 20
f 20 49 21
f 20 48 49
f 21 50 22
f 21 49 48
f 21 48 50
f 22 50 23
f 23 50 51
f 23 51 52
f 23 52 24
f 24 52 53
f 24 53 54
f 24 54 25
f 25 54 55
f 25 55 26
f 26 55 56
f 26 56 27
f 27 56 57
f 27 57 58
f 27 58 28
f 28 58 29
f 30 59 88
f 30 88 60
f 30 60 61
f 30 45 46
f 30 46 83
f 30 83 87
f 30 87 59
f 31 61 60
f 31 60 88
f 31 88 104
f 31 104 114
f 31 114 122
f 31 122 121
f 31 121 118
f 31 118 117
f 31 117 116
f 31 116 115
f 31 115 119
f 31 119 108
f 31 108 105
f 31 105 91
f 31 91 89
f 31 89 62
f 31 62 32
f 32 62 33
f 33 62 63
f 33 63 34
f 34 63 64
f 34 64 65
f 34 65 66
f 34 66 67
f 34 67 68
f 34 68 69
f 34 69 35
f 35 69 36
f 36 67 70
f 36 70 71
f 36 71 72
f 36 72 39
f 36 39 73
f 36 73 74
f 36 74 37
f 36 69 68
f 36 68 67
f 37 74 73
f 37 73 39
f 39 72 75
f 39 75 76
f 39 76 77
f 39 77 78
f 39 78 40
f 40 78 42
f 41 44 47
f 42 78 79
f 42 79 43
f 43 79 80
f 43 80 81
f 43 81 44
f 44 82 47
f 44 81 82
f 47 82 48
f 48 84 50
f 50 84 51
f 51 84 53
f 51 53 52
f 53 84 85
f 53 85 54
f 54 85 86
f 54 86 55
f 55 86 57
f 55 57 56
f 59 87 88
f 62 89 90
f 62 90 63
f 63 90 91
f 63 91 64
f 64 91 92
f 64 92 93
f 64 93 94
f 64 94 65
f 65 94 67
f 65 67 66
f 67 94 70
f 70 94 95
f 70 95 96
f 70 96 71
f 71 96 97
f 71 97 72
f 72 97 98
f 72 98 75
f 75 98 99
f 75 99 76
f 76 99 98
f 76 98 77
f 77 98 78
f 78 98 100
f 78 100 101
f 78 101 79
f 79 101 102
f 79 102 80
f 80 102 81
f 83 103 104
f 83 104 88
f 83 88 87
f 89 91 90
f 91 105 94
f 91 94 93
f 91 93 92
f 94 106 107
f 94 107 95
f 94 105 108
f 94 108 106
f 95 107 109
f 95 109 96
f 96 110 97
f 96 109 110
f 97 110 98
f 98 110 111
f 98 111 112
f 98 112 113
f 98 113 100
f 100 113 101
f 101 113 102
f 102 113 103
f 103 113 104
f 104 112 111
f 104 111 110
f 104 110 114
f 104 113 112
f 106 115 116
f 106 116 117
f 106 117 118
f 106 118 107
f 106 108 119
f 106 119 115
f 107 118 120
f 107 120 109
f 109 120 121
f 109 121 122
f 109 122 123
f 109 123 124
f 109 124 110
f 110 124 114
f 114 124 122
f 118 121 120
f 122 124 123

