# https://github.com/mikedh/trimesh
v -0.00799982 -0.03228460 0.04104561
v -0.00837849 -0.03211548 0.04104561
v -0.00799982 -0.03220502 0.04056001
v -0.00799982 0.00159169 0.04104561
v -0.00862709 -0.03198948 0.04104561
v -0.00825551 -0.03124669 0.03574852
v -0.00799982 -0.03217849 0.04040144
v -0.01590835 0.00159169 0.04104561
v -0.00799982 0.00159169 -0.00077120
v -0.00937734 -0.03157166 0.04104561
v -0.00919331 -0.03119032 0.03816665
v -0.00867044 -0.03079903 0.03449981
v -0.00867044 -0.03060339 0.03344931
v -0.00813342 -0.03118037 0.03505480
v -0.00799982 -0.03125996 0.03518363
v -0.01623835 0.00159169 0.02716118
v -0.01651084 -0.00196970 0.04104561
v -0.00799982 -0.02018119 -0.00077120
v -0.00894913 0.00159169 -0.00847155
v -0.00961002 -0.03143239 0.04104561
v -0.00955693 -0.03142244 0.04078794
v -0.00941272 -0.03132959 0.03974240
v -0.01011431 -0.03110079 0.04104561
v -0.00933133 -0.03023200 0.03344931
v -0.00923490 -0.03016899 0.03279523
v -0.00845811 -0.03030826 0.03135327
v -0.00799982 -0.03113395 0.03449981
v -0.00799982 -0.03121685 0.03494083
v -0.00826347 -0.03020547 0.03030773
v -0.00815819 -0.03014910 0.02975275
v -0.01625693 0.00159169 0.02611068
v -0.01672937 -0.00341216 0.04104561
v -0.01669487 -0.00318004 0.04104561
v -0.01659135 -0.00249363 0.04104561
v -0.00799982 -0.02294674 -0.00054326
v -0.00894913 -0.01075048 -0.00847155
v -0.00908449 0.00159169 -0.00913555
v -0.00976750 -0.03132959 0.04104561
v -0.01080705 -0.03053044 0.04104561
v -0.01061860 -0.03045417 0.03974240
v -0.01050801 -0.03035800 0.03869190
v -0.01039123 -0.03026184 0.03764636
v -0.01030187 -0.03018889 0.03686839
v -0.01021782 -0.03012257 0.03616971
v -0.01013820 -0.03006619 0.03554536
v -0.01000195 -0.02996672 0.03449981
v -0.00985597 -0.02986392 0.03344931
v -0.00963833 -0.02981086 0.03242855
v -0.00946846 -0.02928030 0.02925723
v -0.00922074 -0.02911119 0.02760220
v -0.00799982 -0.02440246 0.00096312
v -0.00911723 -0.03009604 0.03209655
v -0.00799982 -0.03024526 0.02991627
v -0.00898363 -0.03001977 0.03135327
v -0.00799982 -0.03007283 0.02904911
v -0.00799982 -0.03018889 0.02962887
v -0.01624366 0.00159169 0.02506514
v -0.01635159 0.00077927 0.02611068
v -0.01653385 -0.00077262 0.02646746
v -0.01653385 -0.00077262 0.02682919
v -0.01685854 -0.00446333 0.04104561
v -0.01682757 -0.00420800 0.04104561
v -0.00799982 -0.02333802 -0.00038470
v -0.00914023 -0.01254775 -0.00906122
v -0.00909865 -0.01179833 -0.00911078
v -0.00896417 -0.01179833 -0.00847155
v -0.00908449 -0.01075048 -0.00913555
v -0.00957463 0.00159169 -0.00935853
v -0.01103442 -0.03033479 0.04104561
v -0.01122906 -0.03008277 0.04057487
v -0.01114235 -0.03000319 0.03974240
v -0.01103176 -0.02990371 0.03869190
v -0.01053809 -0.02934331 0.03344931
v -0.01041334 -0.02923388 0.03240377
v -0.01022490 -0.02907803 0.03089244
v -0.00961798 -0.02938973 0.03030773
v -0.00845280 -0.02407749 0.00096312
v -0.00833602 -0.02398464 0.00016038
v -0.00799982 -0.02431956 0.00059644
v -0.01620208 0.00159169 0.02401464
v -0.01633213 0.00077927 0.02506514
v -0.01652854 -0.00081904 0.02577373
v -0.01657720 -0.00122691 0.02612060
v -0.01669929 -0.00236430 0.02716118
v -0.01658251 -0.00122028 0.02717605
v -0.01693551 -0.00525586 0.04104561
v -0.00799982 -0.02395480 -0.00005270
v -0.00911900 -0.01462688 -0.00806028
v -0.00907034 -0.01389405 -0.00823371
v -0.00931364 -0.01324743 -0.00891752
v -0.00968522 -0.01287935 -0.00916528
v -0.00971795 -0.01179833 -0.00937836
v -0.00971795 -0.01075048 -0.00942295
v -0.00971795 0.00159169 -0.00942295
v -0.01149536 -0.02988382 0.04104561
v -0.01155994 -0.02937978 0.03869190
v -0.01147059 -0.02928030 0.03764636
v -0.01137592 -0.02918082 0.03659586
v -0.01131576 -0.02911782 0.03593682
v -0.01124941 -0.02905150 0.03523814
v -0.01117597 -0.02898186 0.03449981
v -0.01106184 -0.02887243 0.03344931
v -0.01130072 -0.02071175 -0.00380377
v -0.01036822 -0.02815618 0.02716118
v -0.01028418 -0.02807991 0.02646746
v -0.00897656 -0.02367957 0.00096312
v -0.00799982 -0.02414050 0.00009101
v -0.01096276 -0.02064543 -0.00450245
v -0.01615342 0.00159169 0.02296910
v -0.01628701 0.00077927 0.02401464
v -0.01644272 -0.00026859 0.02506514
v -0.01651261 -0.00099479 0.02506514
v -0.01656127 -0.00151872 0.02506514
v -0.01667806 -0.00236430 0.02611068
v -0.01677007 -0.00341216 0.02716118
v -0.01677449 -0.00341216 0.02820673
v -0.01695940 -0.00551119 0.04104561
v -0.00912431 -0.01978327 -0.00492364
v -0.00918978 -0.01861604 -0.00585522
v -0.00914996 -0.01662312 -0.00696023
v -0.00944457 -0.01532656 -0.00782738
v -0.00968522 -0.01385757 -0.00873418
v -0.01001168 -0.01348618 -0.00905131
v -0.00976307 -0.01496512 -0.00816434
v -0.01076723 -0.01284619 -0.00931394
v -0.01076723 -0.01179833 -0.00952206
v -0.01076723 -0.01075048 -0.00957656
v -0.01076723 0.00159169 -0.00957656
v -0.01169884 -0.02965501 0.04104561
v -0.01164576 -0.02947926 0.03974240
v -0.01208458 -0.02877959 0.03869190
v -0.01166434 -0.02845462 0.03449981
v -0.01157144 -0.02835182 0.03344931
v -0.01130603 -0.02806001 0.03075865
v -0.01161037 -0.02025083 -0.00420514
v -0.01154844 -0.01994575 -0.00505248
v -0.01209697 -0.02773836 0.03344931
v -0.01026471 -0.02070843 -0.00480472
v -0.01023375 -0.02070843 -0.00480472
v -0.01608706 0.00159169 0.02192355
v -0.01623127 0.00077927 0.02296910
v -0.01638787 -0.00026859 0.02401464
v -0.01662143 -0.00236430 0.02506514
v -0.01648519 -0.00135624 0.02403446
v -0.01654004 -0.00173426 0.02439619
v -0.01673556 -0.00341216 0.02611068
v -0.01680988 -0.00446333 0.02716118
v -0.01682492 -0.00446333 0.02820673
v -0.01702133 -0.00655905 0.04104561
v -0.01700717 -0.00630703 0.04104561
v -0.00981881 -0.02015134 -0.00503266
v -0.00971795 -0.01928255 -0.00560746
v -0.00971795 -0.01875531 -0.00593946
v -0.01014262 -0.01550231 -0.00797108
v -0.01076723 -0.01406648 -0.00881346
v -0.01076723 -0.01354587 -0.00908104
v -0.01181474 -0.01353260 -0.00907113
v -0.01181474 -0.01284619 -0.00928916
v -0.01181474 -0.01179833 -0.00950223
v -0.01181474 -0.01075048 -0.00957656
v -0.01181474 0.00159169 -0.00957656
v -0.01227214 -0.02900507 0.04104561
v -0.01216952 -0.02887907 0.03974240
v -0.01231903 -0.02801690 0.03620440
v -0.01218810 -0.02784447 0.03449981
v -0.01220667 -0.01937208 -0.00427947
v -0.01240751 -0.01875531 -0.00532997
v -0.01235619 -0.01862930 -0.00587008
v -0.01249421 -0.02721443 0.03344931
v -0.01067522 -0.02025083 -0.00510698
v -0.01181474 -0.01876526 -0.00594937
v -0.01076723 -0.01941188 -0.00570656
v -0.01600036 0.00159169 0.02087801
v -0.01615696 0.00077927 0.02192355
v -0.01632328 -0.00026859 0.02296910
v -0.01651792 -0.00208244 0.02369751
v -0.01655773 -0.00240409 0.02403446
v -0.01641175 -0.00131645 0.02296910
v -0.01653562 -0.00278212 0.02342993
v -0.01666832 -0.00341216 0.02506514
v -0.01676564 -0.00446333 0.02611068
v -0.01682757 -0.00551119 0.02716118
v -0.01685235 -0.00551119 0.02820673
v -0.01686562 -0.00551119 0.02925723
v -0.01703814 -0.00760690 0.04104561
v -0.01700717 -0.00655905 0.03974240
v -0.01076723 -0.01604613 -0.00767873
v -0.01076723 -0.01494190 -0.00832290
v -0.01076723 -0.01889126 -0.00601379
v -0.01181474 -0.01494190 -0.00832290
v -0.01181474 -0.01405653 -0.00881346
v -0.01249067 -0.01347291 -0.00904140
v -0.01286225 -0.01075048 -0.00938331
v -0.01284810 -0.01277324 -0.00911573
v -0.01286225 -0.01179833 -0.00930403
v -0.01286225 0.00159169 -0.00938331
v -0.01251102 -0.02866353 0.04104561
v -0.01249421 -0.02825566 0.03869190
v -0.01237123 -0.02808654 0.03690308
v -0.01294099 -0.02646833 0.03344931
v -0.01331169 -0.02581176 0.03344931
v -0.01335947 -0.02589798 0.03422232
v -0.01271716 -0.01808547 -0.00532997
v -0.01358861 -0.02528784 0.03344931
v -0.01339043 -0.01548904 -0.00691563
v -0.01342759 -0.01452077 -0.00801568
v -0.01258091 -0.01679555 -0.00706924
v -0.01256145 -0.02732386 0.03449981
v -0.01181474 -0.01746538 -0.00683634
v -0.01181474 -0.01694145 -0.00715348
v -0.01355411 0.00159169 -0.00847155
v -0.01624366 -0.00026859 0.02192355
v -0.01648519 -0.00240409 0.02303351
v -0.01632417 -0.00131645 0.02192355
v -0.01654446 -0.00341216 0.02334569
v -0.01659578 -0.00341216 0.02401464
v -0.01669044 -0.00446333 0.02506514
v -0.01677095 -0.00551119 0.02611068
v -0.01682050 -0.00655905 0.02716118
v -0.01685235 -0.00655905 0.02820673
v -0.01687181 -0.00655905 0.02925723
v -0.01690631 -0.00655905 0.03135327
v -0.01692224 -0.00655905 0.03240377
v -0.01697267 -0.00655905 0.03659586
v -0.01702575 -0.00865476 0.04104561
v -0.01702221 -0.00760690 0.03974240
v -0.01181474 -0.01604613 -0.00767873
v -0.01239689 -0.01550231 -0.00797108
v -0.01318872 -0.01307168 -0.00883328
v -0.01339662 -0.01237200 -0.00900672
v -0.01279236 -0.01489880 -0.00813956
v -0.01343024 -0.01179833 -0.00905627
v -0.01345856 -0.01075048 -0.00909096
v -0.01332319 0.00159169 -0.00916033
v -0.01261984 -0.02850104 0.04104561
v -0.01261984 -0.02845462 0.04078794
v -0.01276051 -0.02827224 0.04104561
v -0.01315864 -0.02761235 0.04104561
v -0.01312855 -0.02637548 0.03454441
v -0.01339751 -0.02596762 0.03492101
v -0.01359834 -0.02550006 0.03454441
v -0.01310467 -0.01703430 -0.00532997
v -0.01398850 -0.02437593 0.03344931
v -0.01409379 -0.02437593 0.03449981
v -0.01450695 -0.02299979 0.03344931
v -0.01344440 -0.01489880 -0.00733186
v -0.01486438 -0.02018119 0.02716118
v -0.01505282 -0.01913002 0.02611068
v -0.01513510 -0.01913002 0.02716118
v -0.01528993 -0.01808216 0.02611068
v -0.01546953 -0.01749854 0.02686883
v -0.01555269 -0.01683866 0.02611068
v -0.01573229 -0.01598644 0.02611068
v -0.01593047 -0.01494854 0.02611068
v -0.01608618 -0.01390068 0.02611068
v -0.01346475 -0.01389405 -0.00813956
v -0.01354968 -0.01389405 -0.00742601
v -0.01353287 0.00159169 -0.00861526
v -0.01355411 -0.01075048 -0.00847155
v -0.01654977 -0.00446333 0.02329614
v -0.01660993 -0.00446333 0.02401464
v -0.01669044 -0.00551119 0.02506514
v -0.01675680 -0.00655905 0.02611068
v -0.01679130 -0.00760690 0.02716118
v -0.01683023 -0.00760690 0.02820673
v -0.01685412 -0.00760690 0.02925723
v -0.01689924 -0.00760690 0.03135327
v -0.01691870 -0.00760690 0.03240377
v -0.01693639 -0.00760690 0.03344931
v -0.01695320 -0.00760690 0.03449981
v -0.01696825 -0.00760690 0.03554536
v -0.01698240 -0.00760690 0.03659586
v -0.01698240 -0.00945060 0.04104561
v -0.01702221 -0.00865476 0.04078794
v -0.01688154 -0.00970593 0.03449981
v -0.01352491 -0.01179833 -0.00847155
v -0.01345856 0.00159169 -0.00909096
v -0.01336743 -0.02721443 0.04104561
v -0.01343201 -0.02708842 0.04104561
v -0.01373813 -0.02646833 0.04104561
v -0.01372486 -0.02542379 0.03554536
v -0.01440963 -0.02167671 0.02716118
v -0.01472105 -0.02123236 0.02925723
v -0.01414775 -0.02542379 0.04078794
v -0.01417076 -0.02437593 0.03554536
v -0.01436009 -0.02364973 0.03449981
v -0.01443263 -0.02174634 0.02770625
v -0.01454942 -0.02312580 0.03449981
v -0.01473078 -0.02227690 0.03344931
v -0.01636575 -0.01180165 0.02611068
v -0.01651527 -0.01113513 0.02693324
v -0.01655331 -0.01043214 0.02638322
v -0.01480156 -0.02123236 0.03030773
v -0.01494135 -0.02018119 0.02820673
v -0.01501390 -0.02018119 0.02925723
v -0.01508025 -0.02018119 0.03030773
v -0.01520676 -0.02018119 0.03240377
v -0.01519792 -0.01913002 0.02820673
v -0.01538194 -0.01799594 0.02719587
v -0.01539609 -0.01820485 0.02820673
v -0.01548988 -0.01759139 0.02756751
v -0.01580395 -0.01598644 0.02716118
v -0.01599947 -0.01494854 0.02716118
v -0.01615607 -0.01390068 0.02716118
v -0.01629851 -0.01285282 0.02716118
v -0.01658605 -0.00974904 0.02606609
v -0.01666744 -0.00865476 0.02611068
v -0.01672229 -0.00760690 0.02611068
v -0.01663294 -0.00760690 0.02506514
v -0.01652854 -0.00699344 0.02352408
v -0.01653916 -0.00629708 0.02342002
v -0.01654712 -0.00551119 0.02334074
v -0.01660728 -0.00551119 0.02401464
v -0.01667098 -0.00655905 0.02506514
v -0.01673910 -0.00865476 0.02716118
v -0.01678245 -0.00865476 0.02820673
v -0.01681165 -0.00865476 0.02925723
v -0.01686562 -0.00865476 0.03135327
v -0.01689039 -0.00865476 0.03240377
v -0.01691339 -0.00865476 0.03344931
v -0.01693197 -0.00865476 0.03449981
v -0.01696825 -0.00970593 0.04104561
v -0.01686031 -0.00970593 0.03344931
v -0.01680546 -0.01075379 0.03449981
v -0.01682050 -0.01075379 0.03554536
v -0.01416633 -0.02542379 0.04104561
v -0.01480510 -0.02227690 0.03449981
v -0.01458038 -0.02321865 0.03554536
v -0.01487765 -0.02123236 0.03135327
v -0.01645688 -0.01171212 0.02723056
v -0.01653385 -0.01129762 0.02763193
v -0.01657012 -0.01077037 0.02723056
v -0.01666832 -0.00970593 0.02716118
v -0.01495020 -0.02123236 0.03240377
v -0.01501655 -0.02123236 0.03344931
v -0.01531912 -0.01913002 0.03030773
v -0.01507848 -0.02123236 0.03449981
v -0.01526693 -0.02018119 0.03344931
v -0.01549518 -0.01866577 0.03166049
v -0.01564293 -0.01703430 0.02820673
v -0.01585880 -0.01598644 0.02820673
v -0.01590658 -0.01598644 0.02925723
v -0.01604371 -0.01494854 0.02820673
v -0.01619677 -0.01390068 0.02820673
v -0.01657454 -0.00661210 0.02393040
v -0.01671256 -0.00970593 0.02820673
v -0.01674353 -0.00970593 0.02925723
v -0.01680457 -0.00970593 0.03135327
v -0.01683288 -0.00970593 0.03240377
v -0.01689039 -0.01075379 0.04104561
v -0.01678157 -0.01075379 0.03344931
v -0.01668956 -0.01180165 0.03449981
v -0.01451049 -0.02434277 0.04104561
v -0.01486084 -0.02227690 0.03554536
v -0.01454853 -0.02421676 0.04104561
v -0.01654446 -0.01137720 0.02820673
v -0.01661436 -0.01075379 0.02820673
v -0.01540494 -0.01927924 0.03240377
v -0.01539167 -0.01906038 0.03132850
v -0.01531736 -0.02018119 0.03449981
v -0.01490507 -0.02227690 0.03659586
v -0.01512183 -0.02123236 0.03554536
v -0.01543237 -0.01939530 0.03344931
v -0.01551111 -0.01875531 0.03240377
v -0.01579422 -0.01703430 0.03135327
v -0.01587738 -0.01703430 0.03344931
v -0.01594816 -0.01598644 0.03030773
v -0.01602867 -0.01598644 0.03240377
v -0.01612157 -0.01494854 0.03030773
v -0.01615872 -0.01494854 0.03135327
v -0.01619500 -0.01494854 0.03240377
v -0.01626843 -0.01390068 0.03030773
v -0.01637725 -0.01285282 0.02925723
v -0.01668336 -0.01075379 0.03030773
v -0.01675060 -0.01075379 0.03240377
v -0.01677272 -0.01180165 0.04104561
v -0.01666390 -0.01180165 0.03344931
v -0.01625781 -0.01494854 0.03449981
v -0.01479714 -0.02332808 0.04078794
v -0.01480864 -0.02332808 0.04104561
v -0.01662851 -0.01180165 0.03240377
v -0.01545272 -0.01949809 0.03449981
v -0.01515634 -0.02123236 0.03659586
v -0.01535009 -0.02018119 0.03554536
v -0.01494843 -0.02227690 0.03764636
v -0.01498558 -0.02227690 0.03869190
v -0.01606583 -0.01598644 0.03344931
v -0.01591366 -0.01703430 0.03449981
v -0.01622950 -0.01494854 0.03344931
v -0.01637460 -0.01390068 0.03344931
v -0.01648961 -0.01306836 0.03344931
v -0.01597824 -0.01703430 0.04078794
v -0.01597824 -0.01703430 0.04104561
v -0.01626843 -0.01494854 0.03554536
v -0.01611449 -0.01598644 0.03554536
v -0.01612157 -0.01598644 0.03659586
v -0.01609856 -0.01598644 0.03449981
v -0.01505548 -0.02227690 0.04104561
v -0.01504840 -0.02227690 0.04078794
v -0.01501832 -0.02227690 0.03974240
v -0.01556419 -0.01904380 0.03554536
v -0.01518642 -0.02123236 0.03764636
v -0.01521207 -0.02123236 0.03869190
v -0.01525365 -0.02123236 0.04078794
v -0.01539786 -0.02025083 0.03869190
v -0.01574291 -0.01808216 0.03554536
v -0.01593754 -0.01703430 0.03554536
v -0.01596674 -0.01703430 0.03869190
v -0.01580130 -0.01808216 0.03974240
v -0.01580749 -0.01808216 0.04104561
v -0.01595259 -0.01703430 0.03659586
v -0.01596055 -0.01703430 0.03764636
v -0.01525808 -0.02123236 0.04104561
v -0.01550580 -0.01977664 0.03974240
v -0.01576237 -0.01808216 0.03659586
v -0.01551376 -0.01982638 0.04078794
v -0.01563232 -0.01913002 0.04078794
v -0.01563320 -0.01913002 0.04104561
v -0.01541910 -0.02036025 0.04104561
v -0.01541644 -0.02035362 0.04078794
v -0.01549253 -0.01996233 0.04104561
f 1 2 3
f 1 3 7
f 1 7 15
f 1 15 28
f 1 28 27
f 1 27 53
f 1 53 56
f 1 56 55
f 1 55 51
f 1 51 79
f 1 79 107
f 1 107 87
f 1 87 63
f 1 63 35
f 1 35 18
f 1 18 9
f 1 9 4
f 1 4 8
f 1 8 17
f 1 17 34
f 1 34 33
f 1 33 32
f 1 32 62
f 1 62 61
f 1 61 86
f 1 86 117
f 1 117 150
f 1 150 149
f 1 149 185
f 1 185 225
f 1 225 273
f 1 273 322
f 1 322 350
f 1 350 376
f 1 376 393
f 1 393 410
f 1 410 418
f 1 418 421
f 1 421 419
f 1 419 413
f 1 413 398
f 1 398 380
f 1 380 355
f 1 355 353
f 1 353 326
f 1 326 280
f 1 280 279
f 1 279 278
f 1 278 238
f 1 238 237
f 1 237 235
f 1 235 197
f 1 197 162
f 1 162 129
f 1 129 95
f 1 95 69
f 1 69 39
f 1 39 23
f 1 23 38
f 1 38 20
f 1 20 10
f 1 10 5
f 1 5 2
f 2 5 6
f 2 6 7
f 2 7 3
f 4 9 19
f 4 19 37
f 4 37 68
f 4 68 94
f 4 94 128
f 4 128 161
f 4 161 196
f 4 196 234
f 4 234 277
f 4 277 258
f 4 258 211
f 4 211 173
f 4 173 140
f 4 140 109
f 4 109 80
f 4 80 57
f 4 57 31
f 4 31 16
f 4 16 8
f 5 10 11
f 5 11 6
f 6 11 12
f 6 12 13
f 6 13 14
f 6 14 7
f 7 14 15
f 8 16 17
f 9 18 36
f 9 36 19
f 10 20 21
f 10 21 22
f 10 22 11
f 11 22 23
f 11 23 24
f 11 24 25
f 11 25 12
f 12 25 13
f 13 25 26
f 13 26 14
f 14 27 28
f 14 28 15
f 14 26 29
f 14 29 30
f 14 30 27
f 16 31 32
f 16 32 33
f 16 33 34
f 16 34 17
f 18 35 36
f 19 36 67
f 19 67 37
f 20 38 21
f 21 38 23
f 21 23 22
f 23 39 40
f 23 40 41
f 23 41 42
f 23 42 43
f 23 43 44
f 23 44 45
f 23 45 46
f 23 46 24
f 24 47 25
f 24 46 47
f 25 47 48
f 25 48 49
f 25 49 50
f 25 50 51
f 25 51 52
f 25 52 26
f 26 52 29
f 27 30 53
f 29 52 54
f 29 54 51
f 29 51 30
f 30 55 56
f 30 56 53
f 30 51 55
f 31 57 58
f 31 58 59
f 31 59 60
f 31 60 61
f 31 61 62
f 31 62 32
f 35 63 64
f 35 64 65
f 35 65 66
f 35 66 36
f 36 66 67
f 37 67 68
f 39 69 70
f 39 70 41
f 39 41 40
f 41 70 71
f 41 71 72
f 41 72 73
f 41 73 42
f 42 73 43
f 43 73 44
f 44 73 45
f 45 73 46
f 46 73 74
f 46 74 75
f 46 75 47
f 47 75 48
f 48 75 76
f 48 76 49
f 49 76 75
f 49 75 77
f 49 77 50
f 50 77 51
f 51 77 78
f 51 78 79
f 51 54 52
f 57 80 81
f 57 81 82
f 57 82 59
f 57 59 58
f 59 82 83
f 59 83 84
f 59 84 85
f 59 85 60
f 60 85 61
f 61 85 84
f 61 84 86
f 63 87 88
f 63 88 89
f 63 89 64
f 64 89 88
f 64 88 90
f 64 90 91
f 64 91 92
f 64 92 65
f 65 92 93
f 65 93 67
f 65 67 66
f 67 93 68
f 68 93 94
f 69 95 70
f 70 95 96
f 70 96 97
f 70 97 98
f 70 98 99
f 70 99 100
f 70 100 101
f 70 101 71
f 71 101 72
f 72 101 73
f 73 102 74
f 73 101 102
f 74 102 103
f 74 103 104
f 74 104 75
f 75 104 105
f 75 105 106
f 75 106 77
f 77 106 78
f 78 107 79
f 78 106 103
f 78 103 108
f 78 108 107
f 80 109 110
f 80 110 111
f 80 111 81
f 81 111 82
f 82 111 112
f 82 112 113
f 82 113 114
f 82 114 83
f 83 114 84
f 84 115 116
f 84 116 117
f 84 117 86
f 84 114 115
f 87 107 118
f 87 118 119
f 87 119 120
f 87 120 88
f 88 120 121
f 88 121 90
f 90 122 123
f 90 123 91
f 90 121 124
f 90 124 122
f 91 125 126
f 91 126 92
f 91 123 125
f 92 126 127
f 92 127 93
f 93 127 128
f 93 128 94
f 95 129 130
f 95 130 96
f 96 130 131
f 96 131 132
f 96 132 97
f 97 132 98
f 98 132 133
f 98 133 99
f 99 133 100
f 100 133 101
f 101 133 134
f 101 134 102
f 102 134 103
f 103 135 136
f 103 136 108
f 103 106 105
f 103 105 104
f 103 134 133
f 103 133 137
f 103 137 135
f 107 108 138
f 107 138 139
f 107 139 118
f 108 136 138
f 109 140 141
f 109 141 142
f 109 142 110
f 110 142 111
f 111 142 112
f 112 142 113
f 113 143 114
f 113 142 144
f 113 144 145
f 113 145 143
f 114 146 115
f 114 143 146
f 115 146 147
f 115 147 148
f 115 148 149
f 115 149 150
f 115 150 117
f 115 117 116
f 118 139 151
f 118 151 119
f 119 151 152
f 119 152 153
f 119 153 154
f 119 154 124
f 119 124 121
f 119 121 120
f 122 124 123
f 123 124 154
f 123 154 155
f 123 155 156
f 123 156 125
f 125 156 157
f 125 157 158
f 125 158 159
f 125 159 126
f 126 159 160
f 126 160 127
f 127 160 161
f 127 161 128
f 129 162 130
f 130 163 131
f 130 162 163
f 131 163 164
f 131 164 165
f 131 165 132
f 132 165 133
f 133 165 137
f 135 166 167
f 135 167 168
f 135 168 136
f 135 137 169
f 135 169 166
f 136 170 138
f 136 168 171
f 136 171 170
f 137 165 169
f 138 170 172
f 138 172 139
f 139 172 153
f 139 153 152
f 139 152 151
f 140 173 174
f 140 174 175
f 140 175 141
f 141 175 144
f 141 144 142
f 143 145 176
f 143 176 177
f 143 177 146
f 144 175 178
f 144 178 145
f 145 178 176
f 146 177 179
f 146 179 180
f 146 180 181
f 146 181 147
f 147 181 182
f 147 182 183
f 147 183 148
f 148 183 184
f 148 184 149
f 149 184 186
f 149 186 185
f 153 172 154
f 154 187 188
f 154 188 155
f 154 172 189
f 154 189 187
f 155 190 191
f 155 191 156
f 155 188 190
f 156 191 157
f 157 191 192
f 157 192 158
f 158 192 159
f 159 193 160
f 159 192 194
f 159 194 195
f 159 195 193
f 160 193 196
f 160 196 161
f 162 197 198
f 162 198 199
f 162 199 164
f 162 164 163
f 164 199 169
f 164 169 165
f 166 169 200
f 166 200 201
f 166 201 202
f 166 202 167
f 167 203 168
f 167 202 204
f 167 204 203
f 168 203 205
f 168 205 206
f 168 206 207
f 168 207 171
f 169 199 208
f 169 208 200
f 170 171 172
f 171 207 209
f 171 209 172
f 172 209 210
f 172 210 189
f 173 211 174
f 174 211 212
f 174 212 178
f 174 178 175
f 176 178 213
f 176 213 179
f 176 179 177
f 178 212 214
f 178 214 213
f 179 215 216
f 179 216 180
f 179 213 211
f 179 211 215
f 180 216 181
f 181 216 217
f 181 217 218
f 181 218 182
f 182 218 219
f 182 219 220
f 182 220 183
f 183 220 221
f 183 221 222
f 183 222 223
f 183 223 184
f 184 223 224
f 184 224 186
f 185 186 224
f 185 224 223
f 185 223 226
f 185 226 225
f 187 227 190
f 187 190 188
f 187 189 227
f 189 210 227
f 190 227 228
f 190 228 191
f 191 228 192
f 192 229 230
f 192 230 194
f 192 228 231
f 192 231 206
f 192 206 229
f 193 195 232
f 193 232 233
f 193 233 234
f 193 234 196
f 194 230 195
f 195 230 232
f 197 235 236
f 197 236 198
f 198 236 237
f 198 237 238
f 198 238 208
f 198 208 199
f 200 208 239
f 200 239 202
f 200 202 201
f 202 239 238
f 202 238 240
f 202 240 241
f 202 241 204
f 203 242 205
f 203 204 243
f 203 243 244
f 203 244 245
f 203 245 242
f 204 241 244
f 204 244 243
f 205 246 206
f 205 242 247
f 205 247 248
f 205 248 249
f 205 249 250
f 205 250 251
f 205 251 252
f 205 252 253
f 205 253 254
f 205 254 255
f 205 255 246
f 206 256 230
f 206 230 229
f 206 231 207
f 206 246 257
f 206 257 256
f 207 231 228
f 207 228 209
f 208 238 239
f 209 228 210
f 210 228 227
f 211 258 259
f 211 259 260
f 211 260 215
f 211 213 214
f 211 214 212
f 215 260 261
f 215 261 216
f 216 261 217
f 217 261 218
f 218 261 262
f 218 262 263
f 218 263 219
f 219 263 264
f 219 264 265
f 219 265 220
f 220 265 266
f 220 266 267
f 220 267 268
f 220 268 221
f 221 268 269
f 221 269 222
f 222 269 270
f 222 270 223
f 223 270 271
f 223 271 272
f 223 272 226
f 225 226 272
f 225 272 271
f 225 271 274
f 225 274 275
f 225 275 273
f 230 256 232
f 232 256 276
f 232 276 233
f 233 276 259
f 233 259 258
f 233 258 277
f 233 277 234
f 235 237 236
f 238 278 240
f 240 278 279
f 240 279 241
f 241 279 280
f 241 280 281
f 241 281 244
f 242 245 282
f 242 282 283
f 242 283 247
f 244 281 280
f 244 280 284
f 244 284 285
f 244 285 286
f 244 286 245
f 245 283 287
f 245 287 282
f 245 286 288
f 245 288 289
f 245 289 283
f 246 255 290
f 246 290 291
f 246 291 292
f 246 292 257
f 247 283 293
f 247 293 294
f 247 294 249
f 247 249 248
f 249 251 250
f 249 294 295
f 249 295 296
f 249 296 297
f 249 297 298
f 249 298 299
f 249 299 251
f 251 299 298
f 251 298 300
f 251 300 301
f 251 301 302
f 251 302 253
f 251 253 252
f 253 302 254
f 254 302 303
f 254 303 304
f 254 304 255
f 255 304 305
f 255 305 291
f 255 291 290
f 256 257 276
f 257 306 307
f 257 307 308
f 257 308 309
f 257 309 310
f 257 310 276
f 257 292 306
f 259 276 311
f 259 311 312
f 259 312 260
f 260 312 313
f 260 313 261
f 261 313 262
f 262 313 263
f 263 313 314
f 263 314 308
f 263 308 264
f 264 308 315
f 264 315 316
f 264 316 265
f 265 316 317
f 265 317 318
f 265 318 319
f 265 319 266
f 266 319 320
f 266 320 267
f 267 320 268
f 268 320 321
f 268 321 269
f 269 321 270
f 270 321 271
f 271 321 274
f 273 275 322
f 274 321 275
f 275 321 320
f 275 320 323
f 275 323 324
f 275 324 325
f 275 325 322
f 276 310 311
f 280 326 284
f 282 287 283
f 283 289 293
f 284 326 285
f 285 288 286
f 285 326 288
f 288 327 289
f 288 326 328
f 288 328 327
f 289 327 329
f 289 329 293
f 291 305 330
f 291 330 331
f 291 331 332
f 291 332 292
f 292 332 333
f 292 333 306
f 293 329 294
f 294 329 334
f 294 334 295
f 295 334 335
f 295 335 296
f 296 335 297
f 297 336 298
f 297 335 337
f 297 337 338
f 297 338 336
f 298 336 300
f 300 336 339
f 300 339 301
f 301 339 340
f 301 340 302
f 302 340 339
f 302 339 341
f 302 341 303
f 303 341 342
f 303 342 343
f 303 343 304
f 304 343 344
f 304 344 331
f 304 331 305
f 305 331 330
f 306 333 307
f 307 333 315
f 307 315 308
f 308 314 310
f 308 310 309
f 310 314 345
f 310 345 311
f 311 345 314
f 311 314 313
f 311 313 312
f 315 333 346
f 315 346 316
f 316 346 347
f 316 347 348
f 316 348 317
f 317 348 349
f 317 349 323
f 317 323 318
f 318 323 319
f 319 323 320
f 322 325 350
f 323 349 351
f 323 351 324
f 324 351 352
f 324 352 325
f 325 352 350
f 326 353 328
f 327 337 335
f 327 335 334
f 327 334 329
f 327 328 354
f 327 354 337
f 328 353 355
f 328 355 354
f 331 344 356
f 331 356 357
f 331 357 332
f 332 357 333
f 333 357 346
f 336 338 358
f 336 358 359
f 336 359 339
f 337 360 338
f 337 354 361
f 337 361 362
f 337 362 360
f 338 360 363
f 338 363 358
f 339 358 363
f 339 363 364
f 339 364 342
f 339 342 341
f 339 359 358
f 342 364 365
f 342 365 366
f 342 366 367
f 342 367 343
f 343 367 368
f 343 368 369
f 343 369 344
f 344 369 370
f 344 370 371
f 344 371 372
f 344 372 373
f 344 373 356
f 346 357 374
f 346 374 375
f 346 375 351
f 346 351 347
f 347 351 348
f 348 351 349
f 350 352 376
f 351 375 377
f 351 377 352
f 352 377 378
f 352 378 376
f 354 355 379
f 354 379 380
f 354 380 361
f 355 380 379
f 356 373 381
f 356 381 377
f 356 377 375
f 356 375 374
f 356 374 357
f 360 382 363
f 360 362 383
f 360 383 384
f 360 384 382
f 361 385 362
f 361 380 385
f 362 385 386
f 362 386 383
f 363 366 365
f 363 365 364
f 363 382 366
f 366 387 368
f 366 368 367
f 366 382 388
f 366 388 387
f 368 387 370
f 368 370 369
f 370 387 371
f 371 387 389
f 371 389 390
f 371 390 391
f 371 391 372
f 372 391 373
f 373 391 381
f 376 392 393
f 376 378 394
f 376 394 395
f 376 395 396
f 376 396 392
f 377 381 391
f 377 391 378
f 378 391 390
f 378 390 389
f 378 389 397
f 378 397 395
f 378 395 394
f 380 398 399
f 380 399 400
f 380 400 386
f 380 386 385
f 382 384 401
f 382 401 388
f 383 402 384
f 383 386 400
f 383 400 399
f 383 399 402
f 384 402 403
f 384 403 404
f 384 404 405
f 384 405 401
f 387 388 397
f 387 397 389
f 388 401 406
f 388 406 407
f 388 407 397
f 392 408 409
f 392 409 410
f 392 410 393
f 392 396 408
f 395 407 411
f 395 411 412
f 395 412 396
f 395 397 407
f 396 412 408
f 398 413 404
f 398 404 403
f 398 403 402
f 398 402 399
f 401 405 414
f 401 414 406
f 404 414 405
f 404 413 414
f 406 414 415
f 406 415 407
f 407 415 414
f 407 414 416
f 407 416 411
f 408 412 409
f 409 417 410
f 409 412 411
f 409 411 417
f 410 417 418
f 411 416 417
f 413 419 420
f 413 420 414
f 414 420 416
f 416 420 419
f 416 419 421
f 416 421 417
f 417 421 418

