# https://github.com/mikedh/trimesh
v -0.00657110 0.02107727 -0.00057657
v -0.00628688 0.02107727 -0.00057657
v -0.00762003 0.02107727 -0.00056875
v -0.00657110 0.02175166 -0.00057657
v -0.00628688 0.02175166 -0.00057657
v 0.00390395 0.02280241 -0.00056875
v 0.00599978 0.02280241 -0.00056094
v 0.00704872 0.02280241 -0.00044374
v 0.00804449 0.02280241 -0.00004527
v 0.00851478 0.02280241 0.00061885
v 0.00861906 0.02280241 0.00095482
v -0.00628688 0.02107727 0.05985054
v -0.00762003 0.02175166 -0.00056094
v -0.00865466 0.02107727 -0.00050625
v -0.00657110 0.02279806 -0.00055313
v -0.00447322 0.02384662 -0.00055313
v -0.00342633 0.02384662 -0.00056094
v -0.00133664 0.02280241 -0.00056875
v 0.00390600 0.02384662 -0.00056094
v 0.00495494 0.02384662 -0.00052969
v 0.00608566 0.02393800 -0.00013121
v 0.00705076 0.02362473 0.00006411
v 0.00767440 0.02339413 0.00026726
v 0.00660093 0.03071889 0.02225353
v 0.00671952 0.03082331 0.02298016
v 0.00724297 0.03034036 0.02298016
v 0.00732476 0.03021635 0.02282390
v 0.00754354 0.03021635 0.02361303
v 0.00765804 0.02969642 0.02216759
v 0.00776028 0.02981172 0.02298797
v 0.00828373 0.02915691 0.02298797
v 0.00861906 0.02857606 0.02247230
v 0.00861906 0.02280241 0.04804483
v 0.00834302 0.02280241 0.05017783
v 0.00792590 0.02280241 0.05336560
v 0.00771121 0.02280241 0.05492042
v 0.00746993 0.02280241 0.05656900
v 0.00730635 0.02280241 0.05756128
v 0.00703032 0.02280241 0.05860824
v 0.00668681 0.02280241 0.05937393
v 0.00629218 0.02280241 0.05990523
v 0.00577078 0.02280241 0.06042871
v -0.00028361 0.02280241 0.06430405
v -0.00054738 0.02327230 0.06670269
v -0.00071709 0.02434916 0.07181251
v -0.00127734 0.02529765 0.07650823
v -0.00159018 0.02538902 0.07710203
v -0.00237740 0.02548692 0.07770364
v -0.00347336 0.02549562 0.07746925
v -0.00658950 0.02107727 0.05968646
v -0.00970564 0.02107727 -0.00030311
v -0.00866897 0.02175166 -0.00035780
v -0.00552216 0.02384662 -0.00045937
v -0.00133459 0.02489520 -0.00052969
v 0.00076123 0.02489520 -0.00052969
v 0.00180813 0.02489520 -0.00050625
v 0.00285706 0.02489520 -0.00029529
v 0.00495494 0.02465590 -0.00002183
v 0.00579122 0.02450796 0.00015006
v 0.00648234 0.02434480 0.00097044
v 0.00539250 0.03166086 0.02262075
v 0.00607339 0.03099517 0.02191757
v 0.00646802 0.03061446 0.02155816
v 0.00594662 0.03139110 0.02297235
v 0.00622266 0.03148900 0.02402712
v 0.00641690 0.03162605 0.02508190
v 0.00651709 0.03169784 0.02564445
v 0.00687287 0.03096471 0.02402712
v 0.00739632 0.03047959 0.02402712
v 0.00750469 0.03058401 0.02485532
v 0.00758852 0.03067102 0.02555069
v 0.00771938 0.03021635 0.02437091
v 0.00786865 0.02995312 0.02403494
v 0.00839414 0.02928744 0.02403494
v 0.00861906 0.02876098 0.02319111
v 0.00861906 0.02285027 0.04813077
v 0.00816718 0.02384662 0.05336560
v 0.00787887 0.02384662 0.05546735
v 0.00767031 0.02295034 0.05546735
v 0.00761306 0.02317223 0.05623304
v 0.00755990 0.02338978 0.05692841
v 0.00764373 0.02408810 0.05728782
v 0.00749856 0.02378136 0.05760816
v 0.00005376 0.02704019 0.07634415
v 0.00754763 0.02456235 0.05798319
v 0.00759875 0.02526067 0.05812383
v 0.00021121 0.02672475 0.07582848
v 0.00033389 0.02594159 0.07511748
v 0.00026641 0.02539120 0.07492997
v -0.00089089 0.02543471 0.07690670
v -0.00235286 0.02601338 0.07859435
v -0.00342633 0.02580453 0.07852403
v -0.00447322 0.02598510 0.07852403
v -0.00447322 0.02567618 0.07747706
v -0.00721927 0.02107727 0.05924892
v -0.00653838 0.02385315 -0.00006871
v -0.01034359 0.02107727 0.00026726
v -0.00922104 0.02229770 0.00037664
v -0.00866897 0.02249132 0.00015006
v -0.00734604 0.02350943 0.00012662
v -0.00628688 0.02385315 -0.00017028
v -0.00552216 0.02456670 0.00004849
v -0.00237740 0.02489520 -0.00043593
v -0.00133459 0.02563702 -0.00002183
v 0.00076123 0.02564137 -0.00002183
v 0.00180813 0.02562397 -0.00000620
v 0.00285706 0.02551737 0.00020475
v 0.00341118 0.02542818 0.00041571
v 0.00386511 0.03183707 0.02094873
v 0.00390804 0.03213510 0.02193319
v 0.00447647 0.03172830 0.02134721
v 0.00466254 0.03181966 0.02193319
v 0.00518599 0.03155644 0.02193319
v 0.00500810 0.03195454 0.02297235
v 0.00495698 0.03226781 0.02402712
v 0.00555813 0.03175875 0.02331613
v 0.00569921 0.03185447 0.02402712
v 0.00610202 0.03207419 0.02604292
v 0.00554381 0.03279427 0.02751961
v 0.00618176 0.03250493 0.02822280
v 0.00661115 0.03177833 0.02633982
v 0.00699760 0.03134541 0.02604292
v 0.00589141 0.03198500 0.02508190
v 0.00723683 0.03137805 0.02717583
v 0.00764986 0.03073846 0.02612887
v 0.00788296 0.03021635 0.02516785
v 0.00861906 0.02910035 0.02457405
v 0.00806085 0.03021635 0.02612887
v 0.00857612 0.02953326 0.02612887
v 0.00861906 0.02435568 0.05069350
v 0.00861906 0.02518888 0.05209987
v 0.00839209 0.02489520 0.05336560
v 0.00811197 0.02489520 0.05546735
v 0.00796679 0.02489520 0.05651431
v 0.00770916 0.02378136 0.05655338
v 0.00771530 0.02490390 0.05760816
v 0.00817127 0.02594159 0.05651431
v 0.00237860 0.04061285 0.07389863
v 0.00006399 0.02803655 0.07653167
v -0.00049626 0.02699016 0.07746925
v -0.00061486 0.02613520 0.07728955
v 0.00787887 0.02594159 0.05756128
v 0.00796884 0.02699016 0.05756128
v -0.00151657 0.02616783 0.07828964
v -0.00268615 0.02632229 0.07913346
v -0.00342633 0.02624180 0.07919596
v -0.00447322 0.02633099 0.07914908
v -0.00543628 0.02630706 0.07846934
v -0.00552216 0.02599815 0.07747706
v -0.00918015 0.02107727 0.05747533
v -0.00888776 0.02107727 0.05777223
v -0.00817006 0.02107727 0.05845979
v -0.00502939 0.02643977 0.07907095
v -0.00616625 0.02444270 0.00024382
v -0.01025976 0.02124696 0.00039227
v -0.01125553 0.02107727 0.00829920
v -0.01023318 0.02854778 0.02883223
v -0.01019841 0.02846729 0.02821499
v -0.01013503 0.02832589 0.02717583
v -0.00987740 0.02908729 0.02821499
v -0.00972404 0.02908729 0.02717583
v -0.00939280 0.02991179 0.02821499
v -0.00818437 0.03069713 0.02546475
v -0.00710681 0.03171307 0.02557413
v -0.00696164 0.03160429 0.02487095
v -0.00311349 0.02548692 0.00025163
v -0.00237740 0.02557829 0.00006411
v -0.00133050 0.03289216 0.02204258
v -0.00028157 0.03292044 0.02196445
v 0.00076532 0.03272030 0.02151128
v 0.00181017 0.03282690 0.02222228
v 0.00240927 0.03277686 0.02239417
v 0.00279981 0.03253104 0.02199570
v 0.00310856 0.03267027 0.02273014
v 0.00344185 0.03277686 0.02343332
v 0.00383852 0.03250058 0.02304267
v 0.00416363 0.03264416 0.02402712
v 0.00436606 0.03272683 0.02466781
v 0.00455622 0.03281385 0.02536318
v 0.00492427 0.03253974 0.02503502
v 0.00526164 0.03263328 0.02612887
v 0.00541500 0.03271595 0.02681643
v 0.00565832 0.03286606 0.02822280
v 0.00471979 0.03817417 0.05022471
v 0.00524324 0.03783262 0.05022471
v 0.00633512 0.03261153 0.02927758
v 0.00671339 0.03186970 0.02717583
v 0.00683198 0.03198282 0.02822280
v 0.00746993 0.03159777 0.02927758
v 0.00754354 0.03167173 0.02998858
v 0.00774597 0.03085376 0.02717583
v 0.00861906 0.02959635 0.02665235
v 0.00823056 0.03021635 0.02710552
v 0.00861906 0.02557394 0.05267023
v 0.00833280 0.02594159 0.05546735
v 0.00833893 0.02699016 0.05651431
v 0.00853522 0.02705107 0.05542047
v 0.00708961 0.03222865 0.06070217
v 0.00238269 0.04124155 0.07390644
v 0.00211688 0.04061285 0.07442211
v -0.00081933 0.02699016 0.07799273
v 0.00843708 0.02803655 0.05651431
v -0.00134277 0.02699016 0.07840683
v -0.00217497 0.02699016 0.07893031
v -0.00270046 0.02699016 0.07912565
v -0.00342633 0.02699016 0.07924284
v -0.00445687 0.02693142 0.07915690
v -0.00610695 0.02641366 0.07807868
v -0.00938462 0.02107727 0.05723312
v -0.00502939 0.02654419 0.07907095
v -0.00611513 0.02699016 0.07808649
v -0.00623372 0.03182837 0.02402712
v -0.00604765 0.03275511 0.02665235
v -0.00585136 0.03264851 0.02594917
v -0.00552216 0.03223300 0.02402712
v -0.00493942 0.03272901 0.02464437
v -0.00473495 0.03263546 0.02402712
v -0.00400703 0.03277686 0.02344114
v -0.00930488 0.02977256 0.02717583
v -0.00923740 0.02967031 0.02641014
v -0.00903089 0.03043390 0.02821499
v -0.00891843 0.03029685 0.02717583
v -0.00839294 0.03093643 0.02717583
v -0.00826616 0.03079067 0.02612887
v -0.01133323 0.02107727 0.00908833
v -0.01042129 0.02794300 0.02821499
v -0.01043356 0.02813444 0.02921507
v -0.01026180 0.02861087 0.02952760
v -0.01003279 0.02901115 0.02921507
v -0.00946436 0.03003144 0.02926977
v -0.00916992 0.03062751 0.02992607
v -0.00912085 0.03055573 0.02926977
v -0.00803307 0.03159559 0.02821499
v -0.00788994 0.03146071 0.02717583
v -0.00772227 0.03131278 0.02612887
v -0.00719678 0.03179138 0.02612887
v -0.00666720 0.03245490 0.02717583
v -0.00291107 0.03275728 0.02244886
v -0.00332410 0.03283995 0.02304267
v -0.00237740 0.03303357 0.02298016
v -0.00133050 0.03319238 0.02298016
v -0.00028157 0.03324459 0.02298016
v 0.00076532 0.03289216 0.02204258
v 0.00076532 0.03319020 0.02298016
v 0.00181017 0.03305750 0.02298016
v 0.00181017 0.03335336 0.02402712
v 0.00210870 0.03376017 0.02576165
v 0.00285911 0.03311188 0.02402712
v 0.00279981 0.03285518 0.02304267
v 0.00320671 0.03375147 0.02687112
v 0.00364019 0.03285736 0.02402712
v 0.00390804 0.03329027 0.02612887
v 0.00384261 0.03357743 0.02720709
v 0.00473615 0.03291174 0.02612887
v 0.00502241 0.03300311 0.02716802
v 0.00455622 0.03807627 0.04938088
v 0.00390804 0.03859403 0.05022471
v 0.00484452 0.03823725 0.05127167
v 0.00537001 0.03791964 0.05127167
v 0.00589141 0.03730833 0.05022471
v 0.00694648 0.03208942 0.02927758
v 0.00641690 0.03682973 0.05022471
v 0.00791159 0.03126710 0.03033236
v 0.00790545 0.03107348 0.02927758
v 0.00783184 0.03096036 0.02822280
v 0.00649460 0.03691023 0.05101384
v 0.00686265 0.03630545 0.05021689
v 0.00833893 0.03006843 0.02708989
v 0.00834916 0.03021635 0.02785558
v 0.00861906 0.02973993 0.02733210
v 0.00835529 0.03028379 0.02822280
v 0.00861906 0.02737086 0.05510794
v 0.00860270 0.02803655 0.05578769
v 0.00861906 0.02844989 0.05592051
v 0.00861906 0.02860652 0.05599083
v 0.00861906 0.02803655 0.05568612
v 0.00709370 0.03327722 0.06070217
v 0.00861906 0.02928744 0.05606896
v 0.00861906 0.02996618 0.05608459
v 0.00144417 0.04231188 0.07504717
v 0.00156685 0.04166142 0.07517218
v 0.00670930 0.03432579 0.06167101
v 0.00341527 0.04014730 0.07075773
v 0.00248084 0.04133727 0.07328139
v 0.00159343 0.04061285 0.07521124
v 0.00155663 0.03956645 0.07521905
v -0.00084386 0.02803655 0.07796929
v 0.00107203 0.04061285 0.07573473
v -0.00136731 0.02803655 0.07835214
v 0.00054654 0.04061285 0.07609413
v 0.00048520 0.04166142 0.07603163
v -0.00284972 0.02758623 0.07906314
v -0.00028361 0.04166142 0.07626602
v -0.00133050 0.04166142 0.07633634
v -0.00409495 0.02769935 0.07909439
v -0.00133050 0.04061285 0.07653948
v -0.00645864 0.02699016 0.07747706
v -0.00687576 0.02699016 0.07643010
v -0.00711704 0.02643759 0.07507842
v -0.01134754 0.02107727 0.05400628
v -0.01110218 0.02107727 0.05457664
v -0.01065643 0.02107727 0.05543609
v -0.01028225 0.02107727 0.05606115
v -0.00995714 0.02107727 0.05651431
v -0.00556510 0.02798869 0.07829745
v -0.00607832 0.02760581 0.07803961
v -0.00479424 0.02724468 0.07898501
v -0.00276794 0.04195293 0.07582848
v -0.00525635 0.02908512 0.07818806
v -0.00628688 0.02726861 0.07773490
v -0.00550989 0.03290739 0.02623044
v -0.00515207 0.03282907 0.02533974
v -0.00685327 0.03258107 0.02821499
v -0.00628688 0.03290957 0.02798059
v -0.00601698 0.03378627 0.03091053
v -0.00552216 0.03314017 0.02717583
v -0.00550989 0.03254844 0.02502721
v -0.00447527 0.03334466 0.02612887
v -0.00454275 0.03300529 0.02502721
v -0.00421150 0.03286171 0.02402712
v -0.00382710 0.03376669 0.02680080
v -0.00345700 0.03368620 0.02608199
v -0.00342633 0.03341427 0.02508190
v -0.00342633 0.03311623 0.02402712
v -0.00850539 0.03107131 0.02821499
v -0.01182191 0.02107727 0.01497165
v -0.01128825 0.02436656 0.02247230
v -0.01070550 0.02699016 0.02717583
v -0.01085886 0.02699016 0.02926977
v -0.01053375 0.02803873 0.03031673
v -0.01028634 0.02866743 0.03031673
v -0.01079547 0.02699016 0.02821499
v -0.00973018 0.03222647 0.04602903
v -0.01003688 0.02919171 0.03031673
v -0.00962385 0.03013151 0.03136370
v -0.00946641 0.03021853 0.03029329
v -0.00922104 0.03069713 0.03062145
v -0.00851357 0.03216339 0.03346544
v -0.00813939 0.03274641 0.03401236
v -0.00885095 0.03110176 0.03029329
v -0.00825798 0.03182619 0.03031673
v -0.00811076 0.03167173 0.02888692
v -0.00744419 0.03305967 0.03241848
v -0.00731946 0.03294220 0.03136370
v -0.00718656 0.03282472 0.03031673
v -0.00750758 0.03206114 0.02821499
v -0.00736445 0.03193279 0.02717583
v -0.00237740 0.03335118 0.02402712
v -0.00133050 0.03349912 0.02402712
v -0.00028157 0.03354915 0.02402712
v 0.00076532 0.03349041 0.02402712
v 0.00140941 0.03382326 0.02551944
v 0.00177950 0.03390810 0.02612106
v 0.00250742 0.03384936 0.02645702
v 0.00285706 0.03366010 0.02612106
v 0.00241132 0.03906610 0.04959184
v 0.00345207 0.03382978 0.02757431
v 0.00413501 0.03367098 0.02822280
v 0.00431699 0.03375147 0.02898068
v 0.00448056 0.03382543 0.02968386
v 0.00439469 0.03483267 0.03407487
v 0.00279981 0.03882680 0.04921681
v 0.00306358 0.03893557 0.05022471
v 0.00076532 0.04266430 0.07432835
v 0.00149733 0.04232711 0.07432835
v 0.00653754 0.03695591 0.05170921
v 0.00608975 0.03731269 0.05132636
v 0.00850251 0.03046871 0.03031673
v 0.00746175 0.03570067 0.05127167
v 0.00686061 0.03650559 0.05132636
v 0.00697102 0.03635766 0.05131074
v 0.00838801 0.03021635 0.02810560
v 0.00861906 0.02977909 0.02753524
v 0.00861906 0.02815838 0.05576425
v 0.00861906 0.03021200 0.05607677
v 0.00861906 0.03067320 0.05605333
v 0.00861906 0.03074499 0.05603771
v -0.00077230 0.04324515 0.07590662
v 0.00037478 0.04233146 0.07596131
v 0.00100864 0.04166142 0.07569566
v 0.00861906 0.03167609 0.05545172
v 0.00861906 0.03203068 0.05520170
v 0.00661933 0.03503716 0.06153818
v 0.00346843 0.04019951 0.07013268
v 0.00860066 0.03263981 0.05474072
v 0.00848002 0.03322283 0.05439694
v 0.00821625 0.03432579 0.05336560
v 0.00254831 0.04133293 0.07223442
v -0.00036745 0.04269258 0.07602381
v -0.00134277 0.04279918 0.07603944
v -0.00206865 0.04250985 0.07599256
v -0.00628688 0.02795606 0.07755520
v -0.00630529 0.02798869 0.07750832
v -0.00677761 0.02803873 0.07643010
v -0.00705978 0.02702279 0.07540657
v -0.01173604 0.02107727 0.05227957
v -0.01151521 0.02107727 0.05336560
v -0.00628688 0.02817795 0.07745363
v -0.00294583 0.04125461 0.07593005
v -0.00341202 0.04160268 0.07536751
v -0.00398249 0.04125243 0.07489872
v -0.00240193 0.04279918 0.07567222
v -0.00316461 0.04270999 0.07512530
v -0.00444051 0.03362094 0.02716021
v -0.00710886 0.03276164 0.02974637
v -0.00628688 0.03373624 0.03148871
v -0.00614171 0.03386459 0.03161372
v -0.00577979 0.03470214 0.03451241
v -0.00548536 0.03463253 0.03342638
v -0.00511117 0.03490663 0.03373890
v -0.00515002 0.03387329 0.02949635
v -0.00497009 0.03378845 0.02879316
v -0.00480242 0.03372319 0.02822280
v -0.00406837 0.03384501 0.02749618
v -0.00420128 0.03493926 0.03241848
v -0.00400090 0.03486748 0.03182467
v -0.00342633 0.03542004 0.03346544
v -0.00345700 0.03395378 0.02716021
v -0.00312985 0.03386459 0.02641014
v -0.00273318 0.03377322 0.02570696
v -0.00818642 0.03174787 0.02958229
v -0.01189961 0.02107727 0.01601862
v -0.01168696 0.02279806 0.02087841
v -0.01131278 0.02443835 0.02316768
v -0.01107969 0.02594159 0.02717583
v -0.01113285 0.02594159 0.02821499
v -0.01055215 0.03013151 0.04707600
v -0.01029452 0.03081678 0.04602903
v -0.01010640 0.03133889 0.04602903
v -0.00977516 0.03222647 0.04707600
v -0.00936417 0.03305967 0.04707600
v -0.00933964 0.03299876 0.04602903
v -0.00926398 0.03075804 0.03136370
v -0.00936622 0.03094513 0.03346544
v -0.00910041 0.03155644 0.03450459
v -0.00903702 0.03146942 0.03346544
v -0.00851357 0.03232872 0.03441865
v -0.00722541 0.03496972 0.04183335
v -0.00715384 0.03490228 0.04102078
v -0.00720700 0.03389505 0.03555156
v -0.00713748 0.03383413 0.03483275
v -0.00706387 0.03377322 0.03412175
v -0.00755869 0.03317932 0.03346544
v -0.00808214 0.03268550 0.03346544
v -0.00835000 0.03193714 0.03136370
v -0.00849313 0.03425617 0.04602903
v -0.00808418 0.03478046 0.04602903
v -0.00796764 0.03257019 0.03241848
v -0.00784291 0.03245925 0.03136370
v -0.00203184 0.03382978 0.02550381
v -0.00133050 0.03386894 0.02536318
v -0.00028157 0.03389287 0.02526942
v 0.00076532 0.03386459 0.02537881
v 0.00076532 0.03406038 0.02612887
v 0.00076532 0.03431273 0.02717583
v 0.00181017 0.03415175 0.02717583
v 0.00148506 0.03593997 0.03483275
v 0.00133784 0.03905305 0.04861519
v 0.00173656 0.03910961 0.04921681
v -0.00081933 0.04323210 0.07489872
v -0.00077230 0.04324515 0.07560190
v 0.00653754 0.03695591 0.05209205
v 0.00689537 0.03652735 0.05239677
v 0.00750265 0.03577464 0.05231082
v 0.00856794 0.03056225 0.03137151
v 0.00779504 0.03525036 0.05231082
v 0.00775210 0.03517639 0.05127167
v 0.00861906 0.03059271 0.03209814
v 0.00861906 0.03043825 0.03115274
v -0.00100335 0.04324515 0.07590662
v -0.00151657 0.04328213 0.07463307
v -0.00237740 0.04330171 0.07514092
v 0.00861906 0.03258325 0.05469384
v 0.00779299 0.03521337 0.05336560
v 0.00746175 0.03573766 0.05336560
v 0.00861906 0.03271378 0.05448289
v 0.00861906 0.03289869 0.05410785
v 0.00852705 0.03342515 0.05336560
v 0.00851682 0.03344473 0.05231082
v 0.00821012 0.03432579 0.05231082
v -0.00170264 0.04320816 0.07585192
v -0.00693915 0.02803873 0.07538313
v -0.00628688 0.02891761 0.07705515
v -0.00651180 0.02908512 0.07643010
v -0.00413994 0.04162661 0.07435961
v -0.00439962 0.04061285 0.07432835
v -0.00445482 0.04166142 0.07328139
v -0.01182600 0.02107727 0.05126386
v -0.01075049 0.02908729 0.04812296
v -0.01094064 0.02803873 0.04812296
v -0.00619078 0.02908512 0.07717235
v -0.00387821 0.04195075 0.07472682
v -0.00297650 0.04327778 0.07493778
v -0.00493328 0.03482397 0.03304353
v -0.00696777 0.03370143 0.03346544
v -0.00680215 0.03358396 0.03241848
v -0.00628688 0.03393856 0.03237160
v -0.00628688 0.03396249 0.03248098
v -0.00525430 0.03498277 0.03451241
v -0.00644228 0.03407126 0.03346544
v -0.00604561 0.03485007 0.03608286
v -0.00492511 0.03691023 0.04360694
v -0.00447527 0.03531344 0.03451241
v -0.00453661 0.03505674 0.03342638
v -0.00493942 0.03587471 0.03830180
v -0.00424626 0.03707339 0.04288813
v -0.00406837 0.03699507 0.04211463
v -0.00342633 0.03565064 0.03451241
v -0.00290084 0.03589646 0.03503589
v -0.00302353 0.03488270 0.03069176
v -0.00262481 0.03480656 0.02998858
v -0.00237740 0.03419526 0.02717583
v -0.00237944 0.03392768 0.02608199
v -0.01196913 0.02107727 0.01707340
v -0.01200594 0.02175166 0.02087841
v -0.01175240 0.02279806 0.02192538
v -0.01204274 0.02107727 0.01822194
v -0.01133732 0.02452319 0.02402712
v -0.01126371 0.02533246 0.02717583
v -0.01128416 0.02539555 0.02821499
v -0.01080160 0.02908729 0.04707600
v -0.01043560 0.03022506 0.04820891
v -0.01029247 0.03079285 0.04790419
v -0.01031701 0.03087334 0.04707600
v -0.01224926 0.02107727 0.02192538
v -0.01012685 0.03139545 0.04707600
v -0.00415016 0.04247939 0.07328139
v -0.00906360 0.03358396 0.04707600
v -0.00418492 0.04243153 0.07223442
v -0.00901862 0.03352305 0.04602903
v -0.00756074 0.03531344 0.04602903
v -0.00708841 0.03588994 0.04661502
v -0.00671832 0.03557885 0.04288813
v -0.00628688 0.03593345 0.04288813
v -0.00665698 0.03412129 0.03448115
v -0.00619283 0.03600959 0.04288813
v -0.00610899 0.03594433 0.04213807
v -0.00846450 0.03441933 0.04710725
v -0.00813326 0.03483267 0.04677909
v -0.00133050 0.03406908 0.02612887
v -0.00028157 0.03411694 0.02612887
v -0.00028157 0.03437147 0.02717583
v 0.00055267 0.03488705 0.02962917
v 0.00076532 0.03587253 0.03409831
v 0.00124992 0.03484572 0.02981669
v 0.00076532 0.03907480 0.04852925
v 0.00076532 0.03919228 0.04917774
v 0.00023983 0.03589646 0.03398893
v 0.00815286 0.03432579 0.05127167
v 0.00856794 0.03260936 0.04498206
v 0.00861906 0.03197847 0.04107548
v 0.00861906 0.03193931 0.04079420
v 0.00861906 0.03183272 0.04006758
v 0.00861906 0.03169131 0.03914562
v -0.00237740 0.04330171 0.07450806
v 0.00861906 0.03307708 0.05336560
v 0.00861906 0.03311623 0.05271711
v 0.00861906 0.03311188 0.05231082
v 0.00861906 0.03308143 0.05162326
v 0.00850046 0.03341427 0.05127167
v 0.00861906 0.03260065 0.04602122
v 0.00861906 0.03258760 0.04588839
v 0.00859452 0.03266592 0.04602122
v -0.00405201 0.04238367 0.07403145
v -0.00453048 0.04166142 0.07223442
v -0.01096723 0.02803873 0.04707600
v -0.01222063 0.02107727 0.02717583
v -0.00297650 0.04327778 0.07461744
v -0.00552216 0.03643380 0.04288813
v -0.00453457 0.03714735 0.04395072
v -0.00476971 0.03684279 0.04288813
v -0.00504574 0.03697114 0.04431013
v -0.00411949 0.04232711 0.07118746
v -0.00402748 0.04224009 0.07042958
v -0.00388230 0.03692545 0.04141144
v -0.00384959 0.03795662 0.04678691
v -0.00365534 0.03789136 0.04602903
v -0.00313189 0.03807627 0.04602903
v -0.00296014 0.03801318 0.04541179
v -0.00248168 0.03585078 0.03442646
v -0.00237740 0.03565716 0.03346544
v -0.00237740 0.03848090 0.04707600
v -0.00092361 0.03906610 0.04854487
v -0.00171287 0.03588994 0.03402018
v -0.00192756 0.03486095 0.02974637
v -0.00133050 0.03431926 0.02717583
v -0.01219610 0.02107727 0.02087841
v -0.01220837 0.02107727 0.02110500
v -0.01205910 0.02175166 0.02192538
v -0.01226971 0.02107727 0.02308173
v -0.01226153 0.02107727 0.02415995
v -0.00342633 0.04291448 0.07328139
v -0.00628688 0.03608790 0.04382571
v -0.00101357 0.03590952 0.03394205
v -0.00045946 0.03590952 0.03394205
v -0.00028361 0.03908568 0.04847455
v -0.00017933 0.03600306 0.03440302
v 0.00861906 0.03244620 0.04469298
v 0.00861906 0.03305315 0.05127167
v -0.01223290 0.02107727 0.02635545
v -0.00342633 0.04275350 0.07223442
v -0.00220155 0.03596173 0.03472336
f 1 2 12
f 1 12 50
f 1 50 95
f 1 95 152
f 1 152 151
f 1 151 150
f 1 150 209
f 1 209 304
f 1 304 303
f 1 303 302
f 1 302 301
f 1 301 300
f 1 300 397
f 1 397 396
f 1 396 488
f 1 488 567
f 1 567 600
f 1 600 591
f 1 591 590
f 1 590 525
f 1 525 588
f 1 588 587
f 1 587 517
f 1 517 514
f 1 514 422
f 1 422 326
f 1 326 225
f 1 225 156
f 1 156 97
f 1 97 51
f 1 51 14
f 1 14 3
f 1 3 4
f 1 4 5
f 1 5 2
f 2 5 6
f 2 6 7
f 2 7 8
f 2 8 9
f 2 9 10
f 2 10 11
f 2 11 33
f 2 33 12
f 3 13 4
f 3 14 13
f 4 13 15
f 4 15 16
f 4 16 17
f 4 17 18
f 4 18 6
f 4 6 5
f 6 18 17
f 6 17 19
f 6 19 7
f 7 19 20
f 7 20 8
f 8 21 9
f 8 20 21
f 9 21 22
f 9 22 23
f 9 23 10
f 10 23 24
f 10 24 25
f 10 25 11
f 11 25 26
f 11 26 27
f 11 27 28
f 11 28 29
f 11 29 30
f 11 30 31
f 11 31 32
f 11 32 75
f 11 75 127
f 11 127 192
f 11 192 270
f 11 270 373
f 11 373 469
f 11 469 468
f 11 468 554
f 11 554 553
f 11 553 552
f 11 552 551
f 11 551 598
f 11 598 562
f 11 562 561
f 11 561 599
f 11 599 559
f 11 559 558
f 11 558 557
f 11 557 556
f 11 556 477
f 11 477 476
f 11 476 473
f 11 473 382
f 11 382 381
f 11 381 377
f 11 377 376
f 11 376 375
f 11 375 279
f 11 279 278
f 11 278 275
f 11 275 274
f 11 274 374
f 11 374 276
f 11 276 272
f 11 272 194
f 11 194 131
f 11 131 130
f 11 130 76
f 11 76 33
f 12 33 34
f 12 34 35
f 12 35 36
f 12 36 37
f 12 37 38
f 12 38 39
f 12 39 40
f 12 40 41
f 12 41 42
f 12 42 43
f 12 43 44
f 12 44 45
f 12 45 46
f 12 46 47
f 12 47 48
f 12 48 49
f 12 49 50
f 13 14 15
f 14 51 15
f 15 51 52
f 15 52 53
f 15 53 16
f 16 53 54
f 16 54 17
f 17 54 55
f 17 55 19
f 19 55 56
f 19 56 20
f 20 56 57
f 20 57 58
f 20 58 21
f 21 58 59
f 21 59 22
f 22 59 23
f 23 59 60
f 23 60 61
f 23 61 62
f 23 62 63
f 23 63 24
f 24 63 64
f 24 64 65
f 24 65 66
f 24 66 25
f 25 66 67
f 25 67 68
f 25 68 26
f 26 68 69
f 26 69 27
f 27 69 28
f 28 69 70
f 28 70 30
f 28 30 29
f 30 70 71
f 30 71 72
f 30 72 73
f 30 73 31
f 31 73 74
f 31 74 32
f 32 74 75
f 33 76 34
f 34 76 77
f 34 77 35
f 35 77 78
f 35 78 79
f 35 79 36
f 36 79 37
f 37 79 80
f 37 80 81
f 37 81 38
f 38 81 82
f 38 82 83
f 38 83 39
f 39 84 40
f 39 83 85
f 39 85 86
f 39 86 84
f 40 84 87
f 40 87 88
f 40 88 89
f 40 89 90
f 40 90 41
f 41 90 42
f 42 45 44
f 42 44 43
f 42 90 45
f 45 90 46
f 46 90 47
f 47 90 48
f 48 90 91
f 48 91 92
f 48 92 49
f 49 92 93
f 49 93 94
f 49 94 50
f 50 94 95
f 51 96 52
f 51 97 98
f 51 98 99
f 51 99 100
f 51 100 96
f 52 96 101
f 52 101 53
f 53 101 102
f 53 102 103
f 53 103 54
f 54 103 104
f 54 104 105
f 54 105 55
f 55 105 56
f 56 105 106
f 56 106 57
f 57 106 58
f 58 106 107
f 58 107 59
f 59 107 108
f 59 108 109
f 59 109 110
f 59 110 111
f 59 111 112
f 59 112 113
f 59 113 61
f 59 61 60
f 61 113 112
f 61 112 114
f 61 114 115
f 61 115 116
f 61 116 62
f 62 116 64
f 62 64 63
f 64 116 65
f 65 116 117
f 65 117 66
f 66 117 67
f 67 118 119
f 67 119 120
f 67 120 121
f 67 121 122
f 67 122 70
f 67 70 69
f 67 69 68
f 67 117 123
f 67 123 118
f 70 122 71
f 71 122 124
f 71 124 125
f 71 125 126
f 71 126 73
f 71 73 72
f 73 126 74
f 74 127 75
f 74 126 128
f 74 128 129
f 74 129 127
f 76 130 77
f 77 130 131
f 77 131 132
f 77 132 133
f 77 133 78
f 78 133 134
f 78 134 135
f 78 135 80
f 78 80 79
f 80 135 81
f 81 135 134
f 81 134 82
f 82 136 83
f 82 134 137
f 82 137 136
f 83 136 85
f 84 138 139
f 84 139 140
f 84 140 141
f 84 141 87
f 84 86 138
f 85 136 142
f 85 142 86
f 86 142 143
f 86 143 138
f 87 141 88
f 88 141 89
f 89 141 90
f 90 141 144
f 90 144 91
f 91 144 145
f 91 145 146
f 91 146 92
f 92 146 147
f 92 147 93
f 93 148 149
f 93 149 150
f 93 150 151
f 93 151 152
f 93 152 94
f 93 147 153
f 93 153 148
f 94 152 95
f 96 100 154
f 96 154 102
f 96 102 101
f 97 155 98
f 97 156 157
f 97 157 158
f 97 158 159
f 97 159 160
f 97 160 161
f 97 161 162
f 97 162 155
f 98 154 100
f 98 100 99
f 98 155 163
f 98 163 164
f 98 164 165
f 98 165 154
f 102 154 166
f 102 166 167
f 102 167 103
f 103 167 104
f 104 167 168
f 104 168 169
f 104 169 105
f 105 169 106
f 106 169 170
f 106 170 171
f 106 171 107
f 107 171 172
f 107 172 108
f 108 172 173
f 108 173 174
f 108 174 109
f 109 174 175
f 109 175 110
f 110 176 111
f 110 175 176
f 111 176 112
f 112 176 177
f 112 177 114
f 114 177 178
f 114 178 115
f 115 178 179
f 115 179 180
f 115 180 181
f 115 181 116
f 116 181 117
f 117 181 182
f 117 182 123
f 118 123 182
f 118 182 119
f 119 183 120
f 119 182 184
f 119 184 185
f 119 185 183
f 120 183 185
f 120 185 186
f 120 186 121
f 121 186 187
f 121 187 124
f 121 124 122
f 124 187 188
f 124 188 189
f 124 189 125
f 125 128 126
f 125 189 190
f 125 190 191
f 125 191 128
f 127 129 192
f 128 191 193
f 128 193 129
f 129 193 192
f 131 194 195
f 131 195 132
f 132 195 133
f 133 195 134
f 134 195 137
f 136 137 196
f 136 196 142
f 137 195 197
f 137 197 196
f 138 198 199
f 138 199 200
f 138 200 139
f 138 143 198
f 139 200 140
f 140 201 141
f 140 200 201
f 141 201 144
f 142 196 202
f 142 202 143
f 143 202 198
f 144 201 203
f 144 203 145
f 145 204 205
f 145 205 206
f 145 206 146
f 145 203 204
f 146 206 147
f 147 206 207
f 147 207 153
f 148 153 208
f 148 208 149
f 149 208 209
f 149 209 150
f 153 207 210
f 153 210 211
f 153 211 208
f 154 165 212
f 154 212 213
f 154 213 214
f 154 214 215
f 154 215 216
f 154 216 217
f 154 217 218
f 154 218 166
f 155 162 219
f 155 219 220
f 155 220 221
f 155 221 222
f 155 222 223
f 155 223 224
f 155 224 163
f 156 225 226
f 156 226 157
f 157 160 158
f 157 226 227
f 157 227 228
f 157 228 229
f 157 229 160
f 158 160 159
f 160 229 230
f 160 230 162
f 160 162 161
f 162 221 219
f 162 230 231
f 162 231 232
f 162 232 221
f 163 224 233
f 163 233 234
f 163 234 235
f 163 235 164
f 164 235 236
f 164 236 237
f 164 237 213
f 164 213 165
f 165 213 212
f 166 238 167
f 166 218 239
f 166 239 238
f 167 238 240
f 167 240 168
f 168 240 241
f 168 241 169
f 169 241 242
f 169 242 243
f 169 243 170
f 170 243 171
f 171 243 244
f 171 244 245
f 171 245 172
f 172 245 246
f 172 246 247
f 172 247 248
f 172 248 249
f 172 249 174
f 172 174 173
f 174 249 175
f 175 249 248
f 175 248 250
f 175 250 251
f 175 251 177
f 175 177 176
f 177 251 252
f 177 252 178
f 178 252 179
f 179 252 253
f 179 253 254
f 179 254 180
f 180 254 181
f 181 254 182
f 182 254 255
f 182 255 184
f 184 256 257
f 184 257 258
f 184 258 259
f 184 259 185
f 184 255 256
f 185 259 260
f 185 260 186
f 186 260 187
f 187 260 188
f 188 261 189
f 188 260 262
f 188 262 261
f 189 261 262
f 189 262 190
f 190 263 264
f 190 264 265
f 190 265 191
f 190 262 266
f 190 266 267
f 190 267 263
f 191 265 193
f 192 193 268
f 192 268 269
f 192 269 270
f 193 265 271
f 193 271 269
f 193 269 268
f 194 272 197
f 194 197 195
f 196 197 273
f 196 273 274
f 196 274 275
f 196 275 202
f 197 272 276
f 197 276 273
f 198 277 199
f 198 202 278
f 198 278 279
f 198 279 277
f 199 280 281
f 199 281 200
f 199 277 282
f 199 282 283
f 199 283 284
f 199 284 280
f 200 281 285
f 200 285 286
f 200 286 201
f 201 287 203
f 201 286 285
f 201 285 288
f 201 288 287
f 202 275 278
f 203 287 288
f 203 288 289
f 203 289 204
f 204 289 290
f 204 290 291
f 204 291 205
f 205 292 206
f 205 291 293
f 205 293 292
f 206 294 295
f 206 295 207
f 206 292 293
f 206 293 296
f 206 296 294
f 207 295 210
f 208 211 297
f 208 297 298
f 208 298 299
f 208 299 300
f 208 300 301
f 208 301 302
f 208 302 303
f 208 303 304
f 208 304 209
f 210 305 306
f 210 306 211
f 210 295 307
f 210 307 308
f 210 308 309
f 210 309 305
f 211 306 310
f 211 310 297
f 213 311 312
f 213 312 214
f 213 237 313
f 213 313 314
f 213 314 315
f 213 315 316
f 213 316 311
f 214 312 317
f 214 317 215
f 215 317 216
f 216 317 312
f 216 312 318
f 216 318 319
f 216 319 320
f 216 320 217
f 217 320 218
f 218 320 318
f 218 318 321
f 218 321 322
f 218 322 323
f 218 323 324
f 218 324 239
f 219 221 220
f 221 325 223
f 221 223 222
f 221 232 325
f 223 325 233
f 223 233 224
f 225 326 327
f 225 327 328
f 225 328 226
f 226 328 227
f 227 329 330
f 227 330 331
f 227 331 228
f 227 328 332
f 227 332 329
f 228 331 333
f 228 333 334
f 228 334 229
f 229 334 335
f 229 335 336
f 229 336 230
f 230 336 337
f 230 337 231
f 231 337 338
f 231 338 339
f 231 339 340
f 231 340 232
f 232 340 341
f 232 341 325
f 233 325 342
f 233 342 343
f 233 343 344
f 233 344 345
f 233 345 346
f 233 346 347
f 233 347 234
f 234 347 236
f 234 236 235
f 236 347 313
f 236 313 237
f 238 239 324
f 238 324 348
f 238 348 240
f 240 348 241
f 241 348 349
f 241 349 242
f 242 244 243
f 242 349 350
f 242 350 244
f 244 350 351
f 244 351 245
f 245 351 246
f 246 351 352
f 246 352 247
f 247 352 353
f 247 353 354
f 247 354 248
f 248 354 355
f 248 355 250
f 250 252 251
f 250 355 354
f 250 354 356
f 250 356 357
f 250 357 252
f 252 357 253
f 253 357 257
f 253 257 358
f 253 358 254
f 254 358 359
f 254 359 255
f 255 359 360
f 255 360 361
f 255 361 256
f 256 361 257
f 257 361 358
f 257 357 362
f 257 362 356
f 257 356 363
f 257 363 364
f 257 364 365
f 257 365 258
f 258 365 259
f 259 366 367
f 259 367 260
f 259 365 366
f 260 367 266
f 260 266 262
f 263 368 271
f 263 271 264
f 263 267 369
f 263 369 368
f 264 271 265
f 266 367 366
f 266 366 370
f 266 370 267
f 267 370 371
f 267 371 369
f 269 271 372
f 269 372 270
f 270 372 373
f 271 368 372
f 273 276 374
f 273 374 274
f 277 279 375
f 277 375 376
f 277 376 377
f 277 377 282
f 280 284 365
f 280 365 364
f 280 364 378
f 280 378 379
f 280 379 380
f 280 380 281
f 281 380 288
f 281 288 285
f 282 377 381
f 282 381 382
f 282 382 383
f 282 383 283
f 283 384 284
f 283 383 385
f 283 385 386
f 283 386 387
f 283 387 384
f 284 384 388
f 284 388 365
f 288 380 290
f 288 290 289
f 290 380 291
f 291 380 379
f 291 379 293
f 293 379 389
f 293 389 294
f 293 294 296
f 294 389 378
f 294 378 390
f 294 390 391
f 294 391 295
f 295 391 307
f 297 310 392
f 297 392 393
f 297 393 394
f 297 394 298
f 298 394 395
f 298 395 396
f 298 396 397
f 298 397 299
f 299 397 300
f 305 309 306
f 306 398 392
f 306 392 310
f 306 309 399
f 306 399 400
f 306 400 401
f 306 401 398
f 307 391 308
f 308 391 402
f 308 402 403
f 308 403 400
f 308 400 399
f 308 399 309
f 311 316 404
f 311 404 318
f 311 318 312
f 313 347 405
f 313 405 406
f 313 406 315
f 313 315 314
f 315 406 407
f 315 407 408
f 315 408 409
f 315 409 410
f 315 410 316
f 316 410 411
f 316 411 412
f 316 412 413
f 316 413 404
f 318 404 321
f 318 320 319
f 321 404 414
f 321 414 415
f 321 415 416
f 321 416 417
f 321 417 418
f 321 418 419
f 321 419 322
f 322 419 420
f 322 420 323
f 323 420 324
f 324 420 348
f 325 341 421
f 325 421 342
f 326 422 327
f 327 422 423
f 327 423 424
f 327 424 332
f 327 332 328
f 329 332 425
f 329 425 426
f 329 426 427
f 329 427 428
f 329 428 330
f 330 428 429
f 330 429 331
f 331 429 333
f 332 424 425
f 333 429 430
f 333 430 431
f 333 431 432
f 333 432 334
f 334 432 335
f 335 433 336
f 335 432 434
f 335 434 433
f 336 433 337
f 337 433 435
f 337 435 436
f 337 436 338
f 338 436 437
f 338 437 339
f 339 438 439
f 339 439 440
f 339 440 441
f 339 441 442
f 339 442 443
f 339 443 444
f 339 444 421
f 339 421 341
f 339 341 445
f 339 445 340
f 339 437 446
f 339 446 447
f 339 447 438
f 340 445 341
f 342 421 444
f 342 444 448
f 342 448 449
f 342 449 343
f 343 449 443
f 343 443 442
f 343 442 344
f 344 442 345
f 345 405 346
f 345 442 405
f 346 405 347
f 348 420 450
f 348 450 349
f 349 450 451
f 349 451 350
f 350 451 452
f 350 452 453
f 350 453 351
f 351 453 352
f 352 453 454
f 352 454 455
f 352 455 353
f 353 455 456
f 353 456 354
f 354 456 457
f 354 457 356
f 356 457 458
f 356 458 459
f 356 459 460
f 356 460 364
f 356 364 363
f 356 362 357
f 358 361 359
f 359 361 360
f 364 460 461
f 364 461 378
f 365 388 366
f 366 388 462
f 366 462 463
f 366 463 464
f 366 464 370
f 368 369 465
f 368 465 373
f 368 373 372
f 369 371 464
f 369 464 466
f 369 466 467
f 369 467 468
f 369 468 465
f 370 464 371
f 373 465 469
f 378 470 390
f 378 389 379
f 378 461 471
f 378 471 472
f 378 472 470
f 382 473 385
f 382 385 383
f 384 387 474
f 384 474 475
f 384 475 464
f 384 464 388
f 385 473 476
f 385 476 386
f 386 476 477
f 386 477 478
f 386 478 387
f 387 478 479
f 387 479 480
f 387 480 466
f 387 466 474
f 388 464 463
f 388 463 462
f 390 470 481
f 390 481 391
f 391 481 402
f 392 398 393
f 393 398 394
f 394 482 396
f 394 396 395
f 394 398 483
f 394 483 484
f 394 484 485
f 394 485 486
f 394 486 487
f 394 487 482
f 396 482 489
f 396 489 490
f 396 490 488
f 398 401 491
f 398 491 483
f 400 403 492
f 400 492 401
f 401 492 491
f 402 481 493
f 402 493 403
f 403 493 492
f 404 413 494
f 404 494 414
f 405 442 495
f 405 495 496
f 405 496 497
f 405 497 406
f 406 497 407
f 407 497 498
f 407 498 408
f 408 499 410
f 408 410 409
f 408 498 500
f 408 500 501
f 408 501 502
f 408 502 499
f 410 503 504
f 410 504 494
f 410 494 411
f 410 499 502
f 410 502 505
f 410 505 506
f 410 506 507
f 410 507 503
f 411 494 412
f 412 494 413
f 414 494 504
f 414 504 415
f 415 504 417
f 415 417 416
f 417 504 508
f 417 508 509
f 417 509 510
f 417 510 418
f 418 510 419
f 419 510 511
f 419 511 512
f 419 512 420
f 420 512 513
f 420 513 450
f 422 514 423
f 423 515 516
f 423 516 424
f 423 514 517
f 423 517 515
f 424 518 425
f 424 516 518
f 425 518 516
f 425 516 519
f 425 519 426
f 426 520 427
f 426 519 520
f 427 521 489
f 427 489 522
f 427 522 523
f 427 523 524
f 427 524 428
f 427 520 525
f 427 525 521
f 428 524 429
f 429 524 526
f 429 526 430
f 430 526 527
f 430 527 431
f 431 528 432
f 431 527 529
f 431 529 528
f 432 528 530
f 432 530 435
f 432 435 434
f 433 434 435
f 435 437 436
f 435 530 446
f 435 446 437
f 438 447 531
f 438 531 532
f 438 532 439
f 439 442 441
f 439 441 440
f 439 532 533
f 439 533 534
f 439 534 442
f 442 501 535
f 442 535 500
f 442 500 495
f 442 534 536
f 442 536 537
f 442 537 501
f 443 449 448
f 443 448 444
f 446 530 528
f 446 528 538
f 446 538 539
f 446 539 447
f 447 539 529
f 447 529 532
f 447 532 531
f 450 513 512
f 450 512 540
f 450 540 451
f 451 540 452
f 452 540 541
f 452 541 454
f 452 454 453
f 454 541 542
f 454 542 455
f 455 542 543
f 455 543 544
f 455 544 545
f 455 545 456
f 456 545 457
f 457 544 458
f 457 545 544
f 458 546 547
f 458 547 459
f 458 544 548
f 458 548 546
f 459 547 471
f 459 471 460
f 460 471 461
f 464 475 474
f 464 474 466
f 465 468 469
f 466 480 549
f 466 549 550
f 466 550 551
f 466 551 552
f 466 552 553
f 466 553 467
f 467 553 554
f 467 554 468
f 470 472 481
f 471 555 472
f 471 547 555
f 472 555 568
f 472 568 493
f 472 493 481
f 477 556 478
f 478 556 557
f 478 557 558
f 478 558 479
f 479 558 559
f 479 559 560
f 479 560 480
f 480 560 561
f 480 561 562
f 480 562 563
f 480 563 550
f 480 550 549
f 482 487 489
f 483 491 485
f 483 485 484
f 485 492 564
f 485 564 486
f 485 491 492
f 486 564 487
f 487 564 527
f 487 527 565
f 487 565 523
f 487 523 522
f 487 522 489
f 488 490 566
f 488 566 567
f 489 521 490
f 490 521 566
f 492 493 564
f 493 568 527
f 493 527 564
f 495 500 497
f 495 497 496
f 497 500 498
f 500 535 501
f 501 537 569
f 501 569 502
f 502 570 571
f 502 571 505
f 502 569 572
f 502 572 573
f 502 573 574
f 502 574 570
f 503 575 508
f 503 508 504
f 503 507 575
f 505 571 506
f 506 571 570
f 506 570 574
f 506 574 576
f 506 576 577
f 506 577 507
f 507 577 578
f 507 578 575
f 508 575 579
f 508 579 509
f 509 580 581
f 509 581 510
f 509 579 582
f 509 582 583
f 509 583 580
f 510 581 511
f 511 581 512
f 512 581 584
f 512 584 585
f 512 585 586
f 512 586 540
f 515 587 588
f 515 588 589
f 515 589 516
f 515 517 587
f 516 589 519
f 519 589 525
f 519 525 520
f 521 525 590
f 521 590 591
f 521 591 566
f 523 526 524
f 523 565 526
f 525 589 588
f 526 565 527
f 527 568 529
f 528 529 538
f 529 568 592
f 529 592 573
f 529 573 532
f 529 539 538
f 532 593 534
f 532 534 533
f 532 573 593
f 534 593 536
f 536 593 573
f 536 573 537
f 537 573 569
f 540 586 542
f 540 542 541
f 542 586 594
f 542 594 595
f 542 595 548
f 542 548 543
f 543 548 544
f 546 596 547
f 546 548 597
f 546 597 595
f 546 595 596
f 547 596 555
f 548 595 597
f 550 563 598
f 550 598 551
f 555 596 583
f 555 583 568
f 559 599 560
f 560 599 561
f 562 598 563
f 566 591 600
f 566 600 567
f 568 583 601
f 568 601 592
f 569 573 572
f 573 592 601
f 573 601 574
f 574 601 578
f 574 578 577
f 574 577 576
f 575 578 579
f 578 601 579
f 579 601 582
f 580 602 584
f 580 584 581
f 580 583 602
f 582 601 583
f 583 596 584
f 583 584 602
f 584 596 594
f 584 594 586
f 584 586 585
f 594 596 595

