# https://github.com/mikedh/trimesh
v 0.01300000 0.01263649 -0.00500001
v 0.01373996 -0.00826342 0.02303096
v -0.01271824 0.00080077 0.09151306
v -0.01231801 0.00089274 0.09189527
v -0.01202816 0.00094478 0.09209829
v -0.01158213 0.00100116 0.09232408
v -0.01321831 0.00064269 0.09071194
v -0.01344324 0.00054052 0.08981031
v -0.01121920 0.00102769 0.09244493
v -0.01093120 0.00103742 0.09250587
v -0.01031278 0.00102404 0.09254058
v -0.00942083 0.00092824 0.09236010
v -0.01292751 -0.01566498 0.09125583
v -0.01323832 -0.01555836 0.09068566
v -0.01329703 -0.01553494 0.09053114
v -0.01346379 -0.01544926 0.08960126
v 0.00628253 0.03463681 0.06150093
v 0.00132377 0.04188820 0.07477488
v -0.00302872 0.04275057 0.07462461
v -0.00260996 0.04284227 0.07498428
v -0.00231162 0.04288075 0.07517511
v -0.00177379 0.04290000 0.07542019
v -0.00357062 0.04253205 0.07386201
v -0.00383222 0.04230184 0.07299466
v -0.00385031 0.04225449 0.07279380
v -0.00149053 0.04288673 0.07550637
v -0.00120362 0.04285792 0.07556650
v -0.00059592 0.04274470 0.07560775
v 0.00026158 0.04246390 0.07545551
v 0.00092770 0.04213756 0.07511867
v 0.00155361 0.04171823 0.07449087
v 0.00190923 0.04139046 0.07376463
v 0.00263463 0.04053142 0.07146249
v 0.00529528 0.03665484 0.06348093
v 0.00590488 0.03550402 0.06223308
v 0.00683190 0.03287703 0.06002500
v -0.00945879 0.02222858 0.08565439
v -0.00905216 0.02233228 0.08602457
v -0.00875960 0.02238632 0.08622050
v -0.00829630 0.02243947 0.08644434
v -0.00997455 0.02202602 0.08486958
v -0.01021112 0.02185588 0.08398143
v -0.00794344 0.02245608 0.08655664
v -0.00765486 0.02245559 0.08661562
v -0.00703781 0.02241179 0.08664958
v -0.00615375 0.02225186 0.08647585
v -0.00545518 0.02204302 0.08611244
v -0.00510598 0.02190913 0.08582112
v -0.00945220 -0.02200789 0.09520288
v -0.00917341 -0.02191294 0.09540588
v -0.00983672 -0.02214790 0.09481914
v -0.01032045 -0.02233106 0.09401339
v -0.00628793 -0.03813038 0.09285453
v -0.00672161 -0.03802320 0.09220284
v -0.00678921 -0.03799830 0.09205504
v -0.00700894 -0.03785608 0.09114064
v -0.00810948 -0.02161716 0.09580409
v -0.00839023 -0.02168546 0.09574692
v -0.00591286 -0.02129913 0.09522468
v -0.00538431 -0.02125957 0.09471830
v -0.00750283 -0.02149369 0.09582749
v -0.00661997 -0.02136579 0.09562372
v 0.00307525 -0.02913554 0.07764237
v 0.00292273 -0.02979480 0.07829151
v 0.00282598 -0.03014038 0.07862969
v 0.00232188 -0.03150642 0.07996571
v 0.00197409 -0.03222388 0.08081287
v 0.00024581 -0.03486302 0.08642409
v -0.00269944 -0.03753573 0.09369520
v -0.00288239 -0.03762102 0.09377512
v -0.00130056 -0.03660595 0.09198505
v -0.00157573 -0.03684426 0.09264116
v -0.00204949 -0.03717567 0.09324587
v -0.00443024 -0.03810082 0.09391331
v -0.00354170 -0.03787592 0.09394097
v -0.00532001 -0.03819257 0.09361111
v -0.00572952 -0.03818959 0.09336173
v -0.00605125 -0.03816448 0.09309913
v 0.01283995 0.01447014 0.00199999
v 0.01300000 0.01243649 0.00199999
v 0.01268453 0.01528291 -0.00680992
v 0.01296202 0.01342925 -0.00774584
v 0.01300000 0.01243649 -0.00824720
v -0.01300000 0.01243649 -0.00824719
v -0.01285723 0.01435742 -0.00727680
v -0.01247698 0.01608674 -0.00640499
v -0.01137500 0.01873009 -0.00507791
v -0.01139453 0.01869466 -0.00509517
v -0.01181422 0.01786090 -0.00551379
v -0.01158339 0.01833782 -0.00527431
v -0.01141389 0.01865929 -0.00511277
v -0.00590188 0.02401958 -0.00000000
v -0.00203365 0.02527644 -0.00000000
v 0.00203365 0.02527644 -0.00000000
v 0.00590188 0.02401958 -0.00000000
v 0.01139453 0.01869466 -0.00509517
v 0.01137500 0.01873009 -0.00507791
v 0.01250867 0.01597665 -0.00646049
v 0.01218270 0.01697304 -0.00595962
v 0.01158387 0.01833688 -0.00527478
v 0.01141389 0.01865929 -0.00511277
v 0.01137500 -0.01985710 -0.00456409
v 0.01139702 -0.01981713 -0.00458653
v 0.01300000 -0.01356351 -0.00823254
v 0.01288080 -0.01531944 -0.00720591
v 0.01250772 -0.01710702 -0.00616245
v 0.00914897 -0.02279911 -0.00000000
v 0.01141879 -0.01977730 -0.00460945
v 0.01187573 -0.01885188 -0.00514750
v 0.00612936 -0.02502784 -0.00000000
v 0.00529455 -0.02543649 -0.00000001
v 0.00403306 -0.02592190 0.00012570
v 0.00298094 -0.02621710 0.00037498
v 0.00257203 -0.02630628 0.00050656
v 0.00202555 -0.02640474 0.00074999
v 0.01406500 -0.01239875 0.01819065
v 0.01406742 -0.01053116 0.01815272
v -0.00283155 -0.03294102 0.04353252
v -0.00432493 -0.03299729 0.04355469
v -0.01403355 -0.02879474 0.06543931
v -0.01082394 -0.03358580 0.06503705
v -0.01090903 -0.03354803 0.06567266
v -0.01213927 -0.03234530 0.06554259
v -0.00858901 -0.03501328 0.06527635
v -0.00337136 -0.03593105 0.06645988
v -0.00488228 -0.03597349 0.06631274
v -0.00477621 -0.03593338 0.06575883
v -0.00607399 -0.03580444 0.06558188
v 0.00830254 0.02963844 0.05494334
v 0.00831184 0.03141086 0.05421384
v 0.00809268 0.03299924 0.05348185
v -0.01333232 -0.02482299 0.03452646
v -0.01215518 -0.02692069 0.03432348
v 0.01387978 -0.01360116 0.01300450
v 0.01396188 -0.01025386 0.01286366
v 0.01398537 -0.01191485 0.01297416
v 0.01224642 0.01693213 0.00348326
v 0.01276355 0.01472269 0.00355725
v -0.01297798 -0.02935538 0.05486485
v -0.01327038 -0.03057275 0.06482868
v -0.00594661 -0.03563963 0.06379317
v -0.00461455 -0.03573848 0.06398439
v -0.00529798 -0.03464708 0.05537585
v -0.00387210 -0.03466740 0.05550410
v -0.00247481 -0.03446758 0.05563463
v -0.01134513 -0.02792631 0.03413639
v -0.01189023 -0.02910900 0.04390400
v -0.01261379 -0.02805241 0.04395962
v -0.01232139 -0.03044809 0.05488947
v -0.01255084 -0.03144911 0.06305738
v -0.01259968 -0.03166481 0.06487624
v -0.01309519 -0.03101569 0.06545918
v -0.01371284 -0.02976044 0.06543181
v -0.01377633 -0.02959633 0.06543156
v -0.01355770 -0.02559203 0.04128006
v -0.00919295 -0.02968349 0.03358252
v -0.01035983 -0.02886276 0.03388726
v -0.00991668 -0.03103786 0.04376749
v -0.01099453 -0.03011836 0.04383785
v -0.01051691 -0.03245318 0.05498078
v -0.01150447 -0.03149366 0.05492679
v -0.01079229 -0.03340613 0.06321761
v -0.01174311 -0.03247605 0.06312694
v -0.01177903 -0.03267656 0.06494597
v -0.01243851 -0.03197987 0.06551407
v -0.00786585 -0.03034824 0.03324217
v -0.00729507 -0.03242861 0.04363879
v -0.00867250 -0.03182298 0.04369912
v -0.00809212 -0.03394454 0.05514549
v -0.00937056 -0.03328463 0.05505347
v -0.00852799 -0.03486530 0.06346412
v -0.00971360 -0.03421181 0.06333000
v -0.00975346 -0.03437144 0.06514788
v -0.00735403 -0.03549504 0.06542119
v -0.00726178 -0.03534581 0.06361910
v -0.00671878 -0.03440363 0.05525464
v -0.00582796 -0.03282485 0.04359021
v 0.01085143 -0.02539145 0.02646014
v 0.01268554 -0.02363999 0.02742666
v 0.01272385 -0.02358452 0.02744802
v 0.01378682 -0.02109611 0.02809975
v 0.01380394 -0.02101544 0.02811277
v 0.01394536 -0.01901840 0.02830303
v 0.01394983 -0.01909896 0.02830011
v 0.01395633 -0.01926330 0.02829293
v 0.01395931 -0.01942911 0.02828402
v 0.01395889 -0.01958259 0.02827428
v 0.01395597 -0.01971749 0.02826454
v 0.01393811 -0.02005657 0.02823511
v 0.01388893 -0.02052023 0.02818329
v -0.00242740 -0.03411113 0.09325578
v -0.00360537 -0.03448189 0.09413259
v -0.00506805 -0.03483744 0.09429993
v -0.00644266 -0.03508715 0.09371515
v -0.00737883 -0.03516737 0.09252730
v -0.00967407 -0.02519073 0.09366240
v -0.00873789 -0.02511050 0.09485026
v -0.00736329 -0.02486079 0.09543504
v -0.00590060 -0.02450525 0.09526770
v -0.00472264 -0.02413448 0.09439088
v -0.01323082 -0.00230991 0.09068591
v -0.01323679 -0.01260991 0.09068538
v 0.01359108 -0.02002384 0.03011788
v 0.01359108 -0.01937109 0.03018552
v 0.01359108 -0.02176642 0.02832603
v 0.00958424 -0.02626670 0.02738714
v 0.01131552 -0.02517205 0.02745712
v 0.01268523 -0.02365056 0.02755437
v 0.01359108 -0.02063286 0.02987343
v 0.01359108 -0.02153905 0.02894163
v 0.01359108 -0.02115124 0.02947102
v 0.01268523 -0.02356271 0.02871754
v -0.01280000 0.01243649 -0.00847121
v 0.00970000 0.01223835 -0.00857119
v -0.00970000 -0.01261478 -0.00885939
v -0.00970000 0.01147177 -0.00886371
v -0.01280000 0.01043649 -0.00900001
v -0.01280000 0.01147177 -0.00886371
v -0.01280000 -0.01156351 -0.00900001
v -0.01279999 -0.01358109 -0.00845390
v -0.01280000 -0.01356351 -0.00846411
v 0.01116244 0.01870595 -0.00530792
v 0.01099389 0.01889072 -0.00521469
v 0.01108572 0.01905648 -0.00492160
v 0.01078234 0.01901372 -0.00515263
v 0.01054838 0.01906577 -0.00512637
v 0.01031028 0.01904318 -0.00513776
v 0.00976656 0.01857086 -0.00537608
v 0.01119568 0.01865101 -0.00533564
v 0.01276941 0.01331661 -0.00802714
v 0.01279969 0.01252548 -0.00842631
v 0.01280000 0.01243649 -0.00847121
v 0.01280000 0.01223835 -0.00857119
v 0.01181564 0.01736422 -0.00598490
v 0.01238409 0.01566972 -0.00683987
v -0.01119568 0.01865101 -0.00533564
v -0.01116244 0.01870595 -0.00530792
v -0.01271779 0.01387774 -0.00774402
v -0.01239517 0.01562637 -0.00686174
v -0.01158984 0.01787690 -0.00572622
v -0.01054832 0.01906592 -0.00512629
v -0.01031007 0.01904345 -0.00513763
v -0.01078231 0.01901421 -0.00515238
v -0.01008698 0.01894874 -0.00518542
v -0.01099378 0.01889125 -0.00521442
v -0.01105983 0.01907462 -0.00491504
v 0.01280000 -0.01261478 -0.00885939
v 0.01280000 -0.01356351 -0.00846411
v 0.01280000 -0.01357230 -0.00845902
v 0.01279999 -0.01358109 -0.00845390
v 0.01280000 -0.01156351 -0.00900001
v 0.01280000 0.01043649 -0.00900001
v 0.01279961 -0.01366323 -0.00840591
v 0.01119454 -0.01978266 -0.00483102
v 0.01115656 -0.01984475 -0.00479475
v 0.01270621 -0.01510478 -0.00756378
v 0.01238371 -0.01679950 -0.00657375
v 0.01154918 -0.01909247 -0.00523422
v 0.01054608 -0.02019879 -0.00458793
v 0.01077694 -0.02014811 -0.00461753
v 0.01009192 -0.02008359 -0.00465522
v 0.01098719 -0.02002748 -0.00468800
v 0.01103013 -0.02022088 -0.00436689
v -0.01137500 -0.01985710 -0.00456409
v -0.01115656 -0.01984475 -0.00479475
v -0.01132501 -0.01993832 -0.00451897
v -0.01098718 -0.02002749 -0.00468800
v -0.01115764 -0.02012627 -0.00441670
v -0.01077693 -0.02014813 -0.00461752
v -0.01031230 -0.02017706 -0.00460062
v -0.01054608 -0.02019881 -0.00458791
v -0.01099029 -0.02024453 -0.00435463
v -0.01279961 -0.01366323 -0.00840591
v -0.01119454 -0.01978266 -0.00483102
v -0.01276878 -0.01445310 -0.00794449
v -0.01181347 -0.01849848 -0.00558122
v -0.01238371 -0.01679950 -0.00657375
v -0.01300000 -0.01356351 -0.00823254
v -0.01300000 -0.01348031 -0.00828115
v -0.01300000 0.01233649 -0.00829091
v -0.01300000 0.01043649 -0.00880001
v -0.01300000 -0.01156351 -0.00880001
v -0.01300000 -0.01346351 -0.00829091
v 0.01300000 -0.01346351 -0.00829091
v 0.01300000 -0.01348031 -0.00828115
v 0.01300000 -0.01256222 -0.00866642
v 0.01300000 -0.01156351 -0.00880001
v 0.01300000 0.01043649 -0.00880001
v 0.01300000 0.01214826 -0.00839263
v 0.01300000 0.01234640 -0.00829265
v -0.00202555 -0.02640474 0.00074999
v -0.00166874 -0.02645593 0.00096838
v -0.00432571 -0.02582253 0.00007751
v -0.00529455 -0.02543649 -0.00000001
v -0.00289751 -0.02623644 0.00039992
v -0.00612936 -0.02502784 -0.00000000
v -0.00914897 -0.02279911 -0.00000000
v -0.01141879 -0.01977730 -0.00460945
v -0.01139702 -0.01981713 -0.00458653
v -0.01219241 -0.01807389 -0.00559977
v -0.01250953 -0.01710062 -0.00616618
v -0.01268774 -0.01639560 -0.00657726
v -0.01296326 -0.01453997 -0.00766169
v -0.01299987 -0.03122473 0.06607369
v -0.01091532 -0.03354348 0.06572181
v -0.01414865 -0.02833398 0.06557206
v -0.01386741 -0.02871985 0.06693818
v 0.00814014 0.03051001 0.05579594
v -0.00854489 0.03341946 0.04775053
v -0.01758446 -0.00620907 0.06306135
v -0.01765576 -0.00754724 0.06323614
v -0.01750400 -0.00886961 0.06329054
v -0.01755676 -0.00927905 0.06222066
v -0.01773660 -0.00633103 0.06175154
v -0.01777875 -0.00780609 0.06192447
v -0.01510089 0.01255038 0.05775981
v -0.01490887 0.01367242 0.05700062
v -0.01016065 0.02951191 0.04798567
v -0.00891632 0.03270550 0.04647454
v -0.00893383 0.03267960 0.04649661
v -0.00945464 0.03172157 0.04705546
v -0.00959454 0.03126660 0.04656050
v -0.01010607 0.02968512 0.04675249
v -0.00697863 0.03523555 0.04658739
v -0.00798905 0.03410845 0.04648571
v -0.00794208 0.03426497 0.04708074
v -0.00815894 0.03388549 0.04647658
v -0.00319434 0.03774438 0.04751536
v -0.00194292 0.03825416 0.04823815
v -0.00105293 0.03831021 0.04781386
v -0.00256131 0.03793309 0.04743700
v -0.00053605 0.03860616 0.04884941
v 0.00095700 0.03871503 0.04936923
v 0.00246171 0.03852028 0.04979473
v 0.00387958 0.03800933 0.05007029
v 0.00362779 0.03803523 0.04971397
v 0.00602096 0.03664376 0.05120508
v 0.00530708 0.03733493 0.05130979
v 0.00487938 0.03747320 0.05043522
v 0.00396465 0.03814879 0.05123652
v 0.00762130 0.03442634 0.05272438
v 0.00692204 0.03563767 0.05195705
v 0.00735833 0.03500427 0.05305401
v 0.00664775 0.03607564 0.05223648
v 0.00815672 0.03168226 0.05518935
v 0.00062447 -0.03465033 0.06778994
v 0.00000847 -0.03508560 0.06801058
v -0.00175495 -0.03568922 0.06711587
v -0.00070754 -0.03543103 0.06819564
v -0.01354275 -0.03007817 0.06658699
v -0.01476547 0.01407488 0.05756261
v -0.01498217 0.01288811 0.05836831
v 0.00110923 -0.03432691 0.06897535
v 0.00169107 -0.03385930 0.06872123
v -0.00251677 -0.03589675 0.06723254
v -0.00332610 -0.03600484 0.06730183
v 0.00807215 0.03276768 0.05446664
v 0.00789157 0.03370220 0.05363037
v 0.00763014 0.03423538 0.05402962
v 0.00697714 0.03556825 0.05332977
v 0.00557433 0.03713190 0.05247692
v 0.00661998 0.03602347 0.05168419
v -0.00658714 0.03109602 0.02461599
v -0.00528514 0.03174872 0.02401700
v -0.01412751 -0.02266241 0.03459872
v -0.01470128 -0.02042460 0.03460740
v -0.01447060 -0.01937740 0.02667298
v -0.01559070 0.00243028 0.02546486
v 0.00379575 0.03124445 0.02084920
v -0.00712727 0.03426315 0.04161006
v -0.00618625 0.03521815 0.04222794
v -0.00593429 0.03386937 0.03395424
v -0.01757570 -0.00909935 0.06168114
v -0.01775488 -0.00757821 0.06141878
v 0.00643784 0.02996899 0.02171190
v 0.00517663 0.03069821 0.02121808
v -0.01546493 0.00230943 0.02204474
v -0.01543098 -0.01488312 0.02680476
v -0.01557325 -0.01575937 0.03453616
v -0.01602483 -0.01063867 0.02708046
v -0.01618975 -0.00858068 0.02713060
v -0.01626372 -0.00652292 0.02704500
v -0.01624524 -0.00440695 0.02680001
v -0.01612731 -0.00219151 0.02641051
v -0.01591377 -0.00230504 0.02288013
v -0.01597931 -0.00450166 0.02320181
v -0.01595800 -0.00656720 0.02337411
v -0.00706431 0.03300146 0.03382649
v -0.00552648 0.03244963 0.02683870
v -0.00189079 0.03540293 0.03450666
v -0.00044668 0.03554269 0.03476143
v 0.00101572 0.03550398 0.03510879
v -0.00801654 0.03200708 0.03378635
v -0.00679505 0.03172979 0.02727972
v -0.00114702 0.03357407 0.02626012
v 0.00036980 0.03359198 0.02632407
v 0.00188585 0.03343021 0.02650448
v 0.00337663 0.03307979 0.02680317
v 0.00480171 0.03253002 0.02721667
v 0.00611099 0.03177793 0.02773369
v 0.00725215 0.03083444 0.02833527
v 0.00818078 0.02973012 0.02899553
v 0.00742974 0.02989382 0.02501627
v 0.00632257 0.03082385 0.02441760
v 0.00504207 0.03157381 0.02391296
v 0.00363899 0.03213270 0.02352539
v 0.00216311 0.03250305 0.02326680
v 0.00065579 0.03269434 0.02313683
v -0.00085757 0.03271374 0.02312602
v -0.00788326 0.03087214 0.02780661
v -0.00878259 0.03093849 0.03386566
v -0.00386182 0.03224346 0.02354917
v -0.00237115 0.03256387 0.02325385
v -0.00412840 0.03300619 0.02651111
v -0.00265418 0.03337969 0.02631937
v -0.00466715 0.03457321 0.03412822
v -0.00330666 0.03508281 0.03431163
v -0.00512090 0.03603608 0.04282414
v -0.00395312 0.03667787 0.04332668
v -0.00877309 0.02991659 0.02838355
v -0.00946334 0.02890994 0.02897098
v -0.00997500 0.02788662 0.02954375
f 317 352 351
f 351 352 42
f 315 374 383
f 314 374 315
f 315 311 314
f 314 311 310
f 314 383 374
f 322 323 321
f 318 323 317
f 321 323 318
f 317 351 318
f 318 42 321
f 318 351 42
f 321 42 24
f 7 42 8
f 42 352 8
f 8 352 310
f 310 311 8
f 8 15 7
f 312 311 315
f 301 132 365
f 49 197 50
f 14 13 7
f 198 193 57
f 71 32 72
f 310 352 316
f 316 314 310
f 316 352 317
f 316 317 85
f 368 316 85
f 314 316 368
f 323 322 86
f 86 322 321
f 85 317 86
f 317 323 86
f 41 42 7
f 41 24 42
f 59 60 48
f 48 47 59
f 48 60 18
f 29 47 30
f 30 48 18
f 47 48 30
f 313 312 315
f 306 312 313
f 16 312 306
f 311 312 16
f 15 8 16
f 16 8 311
f 155 132 153
f 365 132 155
f 154 120 365
f 154 155 153
f 365 155 154
f 307 56 15
f 15 16 307
f 307 16 306
f 117 2 184
f 136 135 117
f 110 263 107
f 58 50 76
f 45 12 46
f 46 47 29
f 12 62 46
f 29 28 46
f 46 28 45
f 59 47 46
f 46 62 59
f 9 58 57
f 7 15 201
f 201 14 7
f 15 196 52
f 52 14 15
f 52 53 51
f 13 14 52
f 52 51 13
f 191 72 18
f 18 72 31
f 31 72 32
f 70 62 199
f 85 238 84
f 383 314 384
f 314 368 384
f 85 84 384
f 320 421 321
f 411 421 320
f 239 238 85
f 85 86 239
f 38 19 37
f 51 53 78
f 49 51 78
f 15 56 55
f 55 196 15
f 55 195 196
f 373 379 306
f 306 313 373
f 373 313 315
f 153 132 139
f 132 148 139
f 146 157 159
f 299 298 264
f 133 148 132
f 132 298 133
f 298 299 133
f 133 299 264
f 278 303 380
f 380 303 378
f 315 380 378
f 378 373 315
f 379 373 378
f 302 301 365
f 302 378 303
f 302 303 275
f 185 186 117
f 117 184 185
f 185 129 308
f 185 184 129
f 183 184 2
f 308 63 204
f 204 185 308
f 186 185 204
f 117 186 116
f 116 136 117
f 111 263 110
f 110 206 111
f 293 271 295
f 112 113 295
f 295 271 112
f 80 2 117
f 80 138 2
f 57 193 61
f 11 12 45
f 11 62 12
f 11 61 62
f 38 37 4
f 49 50 4
f 15 14 202
f 202 201 15
f 14 201 202
f 18 60 200
f 200 191 18
f 60 191 200
f 73 60 59
f 73 191 60
f 72 191 73
f 74 58 76
f 76 355 74
f 193 198 74
f 74 198 57
f 57 58 74
f 308 345 17
f 17 36 308
f 17 32 71
f 71 36 17
f 282 386 281
f 387 282 283
f 386 282 387
f 281 386 385
f 385 386 383
f 383 384 385
f 385 384 84
f 218 217 281
f 377 368 85
f 85 384 377
f 377 384 368
f 24 41 23
f 23 37 19
f 41 37 23
f 20 19 38
f 25 326 24
f 89 421 90
f 327 393 411
f 24 326 309
f 321 24 309
f 309 320 321
f 326 327 309
f 326 25 324
f 420 421 411
f 411 393 420
f 45 28 27
f 350 154 153
f 56 307 350
f 120 154 350
f 306 120 350
f 350 307 306
f 77 197 49
f 49 78 77
f 76 50 77
f 195 55 54
f 53 52 54
f 196 195 54
f 54 52 196
f 110 107 178
f 178 206 110
f 158 160 159
f 159 157 158
f 56 124 174
f 174 55 56
f 127 77 78
f 127 78 53
f 177 119 143
f 177 293 295
f 143 119 144
f 379 378 366
f 306 379 366
f 366 120 306
f 365 120 366
f 378 302 367
f 367 366 378
f 367 302 365
f 365 366 367
f 104 189 105
f 181 106 105
f 104 136 134
f 134 189 104
f 136 189 134
f 179 180 208
f 205 106 181
f 181 210 205
f 180 109 205
f 205 109 106
f 188 189 136
f 136 116 188
f 188 203 189
f 286 287 136
f 251 287 286
f 286 247 251
f 136 287 288
f 295 113 114
f 292 115 119
f 265 276 275
f 157 146 266
f 266 133 264
f 146 133 266
f 296 272 294
f 267 294 272
f 293 294 267
f 259 112 271
f 300 276 298
f 132 301 300
f 300 298 132
f 301 302 277
f 277 300 301
f 276 300 277
f 277 302 275
f 275 276 277
f 241 93 94
f 1 80 117
f 117 82 1
f 1 82 80
f 192 70 199
f 9 43 40
f 22 21 40
f 40 43 22
f 10 43 9
f 10 9 57
f 57 61 10
f 61 11 10
f 3 4 37
f 3 41 7
f 3 37 41
f 7 13 3
f 13 51 3
f 3 51 49
f 49 4 3
f 193 74 75
f 75 61 193
f 70 192 75
f 75 74 355
f 355 348 75
f 75 192 199
f 199 62 75
f 62 61 75
f 358 98 99
f 32 17 33
f 33 344 32
f 283 282 219
f 381 380 315
f 381 278 380
f 381 279 278
f 381 387 283
f 283 279 381
f 383 386 382
f 386 387 382
f 387 381 382
f 315 383 382
f 382 381 315
f 281 385 280
f 280 385 84
f 280 218 281
f 213 84 238
f 213 280 84
f 218 280 213
f 332 23 19
f 19 20 332
f 332 20 21
f 321 421 422
f 421 89 422
f 422 86 321
f 422 89 86
f 411 320 319
f 319 327 411
f 320 309 319
f 319 309 327
f 326 393 325
f 325 327 326
f 393 327 325
f 371 324 25
f 330 332 390
f 390 332 391
f 410 420 393
f 410 87 420
f 124 172 171
f 169 175 171
f 171 174 124
f 175 174 171
f 170 172 160
f 160 158 170
f 169 171 170
f 170 171 172
f 173 124 56
f 173 172 124
f 194 50 197
f 197 77 194
f 194 77 50
f 207 178 107
f 207 179 208
f 208 71 207
f 206 178 207
f 70 75 349
f 349 75 348
f 349 112 111
f 349 348 112
f 156 158 157
f 156 297 296
f 157 297 156
f 356 355 76
f 76 77 356
f 77 127 356
f 176 177 143
f 176 175 169
f 143 141 176
f 176 141 175
f 167 176 169
f 177 176 167
f 293 177 167
f 167 294 293
f 143 144 142
f 142 141 143
f 127 141 142
f 119 115 118
f 118 144 119
f 115 114 118
f 118 114 113
f 159 160 161
f 190 105 189
f 180 179 102
f 179 207 102
f 102 107 263
f 102 207 107
f 208 180 212
f 180 205 212
f 212 71 208
f 68 205 210
f 68 66 71
f 71 212 68
f 68 212 205
f 187 116 186
f 187 188 116
f 203 188 187
f 186 204 187
f 204 203 187
f 284 286 136
f 247 286 284
f 252 216 233
f 135 136 289
f 136 288 289
f 288 252 289
f 289 252 233
f 291 292 119
f 291 177 295
f 119 177 291
f 115 292 291
f 295 114 291
f 291 114 115
f 298 276 274
f 276 265 274
f 264 298 274
f 274 266 264
f 265 266 274
f 268 272 296
f 296 297 268
f 268 267 272
f 157 266 268
f 268 297 157
f 268 266 265
f 265 267 268
f 271 293 269
f 269 267 271
f 293 267 269
f 263 111 262
f 138 80 79
f 80 82 79
f 99 98 235
f 221 279 283
f 221 219 215
f 283 219 221
f 9 40 6
f 50 58 6
f 58 9 6
f 43 10 44
f 45 27 44
f 44 11 45
f 44 10 11
f 357 17 345
f 35 33 17
f 17 357 35
f 35 357 358
f 226 241 94
f 391 332 333
f 333 21 22
f 333 332 21
f 218 213 214
f 214 228 233
f 418 371 25
f 418 25 24
f 324 371 370
f 370 393 326
f 326 324 370
f 388 410 393
f 394 410 388
f 393 370 388
f 388 370 371
f 419 418 24
f 416 418 419
f 24 23 329
f 329 331 24
f 23 332 329
f 329 332 330
f 330 390 329
f 416 419 417
f 417 419 331
f 417 329 390
f 331 329 417
f 416 417 414
f 90 421 91
f 421 420 88
f 420 87 88
f 88 91 421
f 87 91 88
f 246 410 394
f 87 410 246
f 71 72 354
f 354 207 71
f 72 73 347
f 206 207 347
f 347 111 206
f 347 349 111
f 168 170 158
f 158 156 168
f 169 170 168
f 168 167 169
f 128 141 127
f 53 54 128
f 128 54 55
f 55 174 128
f 128 174 175
f 175 141 128
f 125 142 144
f 125 144 355
f 355 356 125
f 125 356 127
f 127 142 125
f 355 144 145
f 144 118 145
f 145 118 113
f 113 112 145
f 145 348 355
f 112 348 145
f 147 161 149
f 147 133 146
f 147 146 159
f 159 161 147
f 148 133 147
f 147 149 148
f 182 210 181
f 182 190 210
f 181 105 182
f 105 190 182
f 71 66 65
f 65 36 71
f 108 109 180
f 210 66 67
f 67 68 210
f 66 68 67
f 285 136 104
f 285 284 136
f 117 135 83
f 83 82 117
f 111 112 260
f 260 262 111
f 112 259 260
f 259 262 260
f 104 105 256
f 256 262 275
f 270 259 271
f 271 267 270
f 270 267 265
f 270 265 275
f 275 262 270
f 233 235 230
f 82 83 230
f 81 235 98
f 81 79 82
f 82 230 81
f 81 230 235
f 137 79 81
f 5 4 50
f 50 6 5
f 38 4 5
f 130 357 345
f 2 138 130
f 130 183 2
f 308 129 130
f 130 345 308
f 129 184 130
f 184 183 130
f 358 357 131
f 138 79 131
f 131 130 138
f 357 130 131
f 131 79 137
f 98 358 131
f 137 81 131
f 131 81 98
f 358 33 34
f 34 35 358
f 33 35 34
f 26 333 22
f 27 333 26
f 22 43 26
f 43 44 26
f 26 44 27
f 344 33 360
f 360 343 344
f 33 343 360
f 359 33 358
f 358 343 359
f 359 343 33
f 344 343 342
f 341 358 99
f 341 343 358
f 238 239 240
f 240 239 86
f 86 89 240
f 240 89 90
f 94 93 409
f 409 408 94
f 392 333 397
f 394 388 372
f 372 418 416
f 371 418 372
f 372 388 371
f 24 331 328
f 328 419 24
f 331 419 328
f 415 417 390
f 415 414 417
f 245 246 243
f 93 241 243
f 92 93 243
f 243 246 92
f 70 349 69
f 349 347 69
f 69 347 73
f 69 73 59
f 59 62 69
f 62 70 69
f 353 354 72
f 207 354 353
f 166 156 296
f 166 168 156
f 296 294 166
f 294 167 166
f 167 168 166
f 126 127 53
f 53 128 126
f 126 128 127
f 56 350 304
f 304 350 153
f 149 161 150
f 203 65 209
f 189 203 209
f 209 190 189
f 64 65 203
f 64 204 63
f 64 203 204
f 64 63 308
f 308 36 64
f 36 65 64
f 180 102 103
f 103 108 180
f 102 108 103
f 254 108 102
f 135 289 290
f 290 83 135
f 290 289 233
f 233 83 290
f 247 284 248
f 261 262 259
f 259 270 261
f 261 270 262
f 233 230 231
f 231 230 83
f 39 6 40
f 39 5 6
f 38 5 39
f 39 40 21
f 39 20 38
f 21 20 39
f 400 401 404
f 404 405 400
f 99 235 234
f 241 226 227
f 227 242 241
f 403 401 97
f 97 224 403
f 404 401 403
f 403 224 404
f 225 94 95
f 95 224 225
f 225 226 94
f 225 227 226
f 376 224 95
f 95 405 376
f 376 405 224
f 404 224 375
f 375 405 404
f 224 405 375
f 101 229 97
f 97 401 402
f 342 101 402
f 236 91 87
f 90 91 236
f 236 240 90
f 406 405 95
f 408 409 396
f 396 397 408
f 392 397 396
f 396 333 392
f 391 333 396
f 363 246 394
f 92 246 363
f 363 364 92
f 414 364 389
f 416 414 389
f 389 372 416
f 394 372 389
f 389 363 394
f 364 363 389
f 414 415 412
f 412 93 92
f 92 364 412
f 412 364 414
f 72 347 346
f 346 353 72
f 346 347 207
f 207 353 346
f 165 123 56
f 56 304 165
f 165 150 161
f 153 139 140
f 121 173 56
f 56 122 121
f 172 173 121
f 56 123 305
f 305 122 56
f 123 122 305
f 210 190 211
f 190 209 211
f 211 209 65
f 211 66 210
f 211 65 66
f 255 254 102
f 255 102 263
f 263 262 255
f 262 256 255
f 109 108 258
f 108 254 258
f 258 255 256
f 254 255 258
f 250 256 275
f 250 285 104
f 232 83 233
f 233 231 232
f 232 231 83
f 223 225 224
f 343 341 100
f 100 342 343
f 100 101 342
f 100 341 99
f 99 234 100
f 100 234 229
f 229 101 100
f 96 101 97
f 97 402 96
f 96 402 101
f 237 236 87
f 87 246 237
f 237 246 245
f 245 243 237
f 237 243 241
f 241 242 237
f 242 244 237
f 240 236 237
f 237 214 213
f 228 214 237
f 237 213 238
f 238 240 237
f 408 397 407
f 407 406 94
f 407 397 398
f 398 406 407
f 94 408 407
f 95 94 369
f 369 406 95
f 94 406 369
f 395 396 409
f 395 415 390
f 395 390 391
f 391 396 395
f 93 412 413
f 413 412 415
f 413 409 93
f 413 395 409
f 415 395 413
f 152 165 304
f 149 150 152
f 152 140 139
f 152 304 153
f 153 140 152
f 152 139 148
f 148 149 152
f 160 172 162
f 172 121 162
f 162 161 160
f 164 122 123
f 164 121 122
f 164 162 121
f 257 258 256
f 257 105 106
f 257 256 105
f 106 109 257
f 109 258 257
f 221 248 249
f 285 250 249
f 284 285 249
f 249 248 284
f 220 250 275
f 221 249 220
f 220 249 250
f 278 279 220
f 279 221 220
f 104 256 253
f 253 250 104
f 256 250 253
f 362 402 401
f 344 342 362
f 342 402 362
f 399 400 405
f 398 335 399
f 399 406 398
f 405 406 399
f 398 397 334
f 334 397 333
f 334 27 28
f 334 333 27
f 334 28 29
f 222 224 97
f 222 223 224
f 97 229 222
f 233 228 222
f 242 227 222
f 227 225 222
f 225 223 222
f 228 237 222
f 222 237 244
f 222 244 242
f 222 235 233
f 222 234 235
f 229 234 222
f 150 165 151
f 151 152 150
f 165 152 151
f 161 162 163
f 162 164 163
f 163 164 123
f 163 165 161
f 123 165 163
f 273 220 275
f 278 220 273
f 275 303 273
f 303 278 273
f 401 400 338
f 18 31 338
f 338 31 32
f 336 335 398
f 398 334 336
f 336 334 335
f 400 399 339
f 339 338 400
f 339 399 335
f 337 362 401
f 401 338 337
f 344 362 337
f 18 338 340
f 340 30 18
f 340 339 335
f 338 339 340
f 29 30 340
f 340 334 29
f 335 334 340
f 361 338 32
f 361 337 338
f 32 344 361
f 344 337 361
f 281 217 219
f 219 282 281
f 251 247 219
f 247 215 219
f 251 219 252
f 252 219 217
f 252 287 251
f 252 288 287
f 252 218 216
f 217 218 252
f 216 218 214
f 233 216 214
f 248 215 247
f 248 221 215

