# https://github.com/mikedh/trimesh
v 0.00861906 0.00159169 0.02827903
v 0.00861906 0.00159169 -0.00132870
v 0.00861906 0.01372720 0.02308807
v 0.00665402 0.01372720 0.04603406
v 0.00652009 0.01372720 0.04757212
v 0.00649818 0.01372720 0.04778361
v 0.00646896 0.01372720 0.04806238
v 0.00634477 0.01372720 0.04919670
v 0.00527825 0.01372720 0.05860773
v 0.00519546 0.01372720 0.05929986
v 0.00494465 0.01372720 0.06138586
v 0.00481316 0.01372720 0.06242406
v 0.00475716 0.01372720 0.06279896
v 0.00448200 0.01251995 0.06361606
v 0.00394630 0.01021414 0.06490418
v 0.00212736 0.00159169 0.06803799
v -0.00971888 0.00159169 -0.00940354
v 0.00861906 0.01372720 -0.00132870
v -0.00628798 0.02107564 0.05982857
v -0.00628798 0.02105848 0.06621154
v 0.00464515 0.01372720 0.06345263
v 0.00453557 0.01335911 0.06380831
v 0.00438947 0.01222624 0.06392367
v 0.00407779 0.01126501 0.06490418
v 0.00338625 0.00861019 0.06647109
v 0.00208840 0.00159169 0.06826870
v -0.01076837 0.00159169 -0.00956696
v -0.00971888 0.01022368 -0.00940354
v -0.00913205 0.01126501 -0.00906709
v -0.00917588 0.01183908 -0.00900941
v -0.00916127 0.01396751 -0.00798083
v -0.00916371 0.01606162 -0.00693302
v -0.00916614 0.01813665 -0.00587560
v -0.00971888 0.01832737 -0.00597173
v -0.00968723 0.01849330 -0.00579870
v -0.00961905 0.01889190 -0.00538535
v -0.00990394 0.01934581 -0.00508734
v -0.00628798 0.02107564 -0.00055967
v -0.00658992 0.02107564 0.05966515
v -0.00657287 0.02107374 0.06621154
v 0.00441139 0.01372720 0.06432741
v 0.00448200 0.01372720 0.06414476
v -0.00628554 0.01590904 0.07692992
v 0.00018180 0.01372530 0.07371921
v 0.00030112 0.01372530 0.07353657
v 0.00051540 0.01372530 0.07320012
v 0.00069802 0.01372530 0.07289250
v 0.00103892 0.01372530 0.07230612
v 0.00132625 0.01372530 0.07177741
v 0.00142365 0.01372530 0.07157554
v 0.00159897 0.01372530 0.07118141
v 0.00442356 0.01335911 0.06432741
v 0.00129216 0.00861591 0.07172934
v 0.00188873 0.00159169 0.06908579
v 0.00416058 0.01231015 0.06490418
v 0.00371254 0.01126501 0.06594238
v -0.01181298 0.00159169 -0.00956696
v -0.01076837 0.00917281 -0.00956696
v -0.01076837 0.01022368 -0.00954773
v -0.00971888 0.01126501 -0.00928818
v -0.00971888 0.01416395 -0.00807696
v -0.00971888 0.01203170 -0.00909593
v -0.01076837 0.01755305 -0.00652928
v -0.01076837 0.01847804 -0.00604863
v -0.01051026 0.01883659 -0.00579870
v -0.01076837 0.01900252 -0.00573141
v -0.01076837 0.01939731 -0.00521231
v -0.00657287 0.02107564 -0.00055967
v -0.00722058 0.02107564 0.05924218
v -0.00817266 0.02107564 0.05845393
v -0.00888855 0.02107564 0.05776180
v -0.00918075 0.02107564 0.05746380
v -0.00938773 0.02107564 0.05721386
v -0.00995995 0.02107564 0.05649290
v -0.01028624 0.02107564 0.05605070
v -0.01066123 0.02107564 0.05542586
v -0.01110440 0.02107564 0.05457032
v -0.01134790 0.02107564 0.05400315
v -0.00684803 0.02104894 0.06621154
v -0.00821649 0.01590904 0.07673766
v -0.00758826 0.01590904 0.07685302
v -0.00704770 0.01590904 0.07690108
v -0.00656800 0.01590904 0.07692031
v -0.00630746 0.01590904 0.07692992
v -0.00761748 0.00902023 0.08788863
v -0.00657287 0.00892869 0.08773482
v -0.00628554 0.00886957 0.08766753
v -0.00587646 0.00878565 0.08756179
v -0.00015910 0.01372530 0.07407489
v -0.00491464 0.00873606 0.08652360
v -0.00487081 0.00811813 0.08660050
v -0.00454209 0.00707298 0.08586031
v -0.00488786 0.00602593 0.08658127
v 0.00180838 0.00159169 0.06927805
v -0.01181298 0.00917281 -0.00956696
v -0.01286003 0.00159169 -0.00937470
v -0.01181298 0.01022368 -0.00954773
v -0.01076837 0.01126501 -0.00943237
v -0.01076837 0.01273546 -0.00895173
v -0.01076837 0.01335721 -0.00864412
v -0.01076837 0.01221289 -0.00917283
v -0.01181298 0.01335721 -0.00864412
v -0.01181298 0.01545513 -0.00757709
v -0.01076837 0.01890334 -0.00579870
v -0.01181298 0.01637058 -0.00709644
v -0.01144286 0.01926953 -0.00504889
v -0.01158166 0.01833500 -0.00598134
v -0.01076837 0.01967195 -0.00427025
v -0.00970671 0.02107564 -0.00030012
v -0.00865479 0.02107564 -0.00049238
v -0.00762235 0.02107564 -0.00055006
v -0.01151591 0.02107564 0.05334948
v -0.01029111 0.02019833 0.06622115
v -0.00977489 0.02039668 0.06622115
v -0.00894699 0.02066369 0.06622115
v -0.00866940 0.02074760 0.06622115
v -0.00814344 0.02086204 0.06622115
v -0.00789507 0.02091544 0.06621154
v -0.00762235 0.02097265 0.06621154
v -0.00866940 0.01590904 0.07665115
v -0.00866697 0.00903931 0.08785018
v -0.00763940 0.00809906 0.08840772
v -0.00657287 0.00811813 0.08810011
v -0.00628554 0.00839277 0.08787902
v -0.00577419 0.00811813 0.08763869
v -0.00524824 0.00811813 0.08712921
v -0.00486594 0.00707298 0.08661011
v -0.00522389 0.00707298 0.08713882
v -0.00493656 0.00543851 0.08649476
v -0.00522389 0.00602593 0.08710998
v 0.00150400 0.00159169 0.06989328
v -0.01286003 0.00917281 -0.00937470
v -0.01345660 0.00159169 -0.00907670
v -0.01286003 0.01022368 -0.00934586
v -0.01181298 0.01126501 -0.00943237
v -0.01181298 0.01273546 -0.00895173
v -0.01181298 0.01221289 -0.00917283
v -0.01265062 0.01416967 -0.00808657
v -0.01251913 0.01622182 -0.00702915
v -0.01246799 0.01732037 -0.00608709
v -0.01229024 0.01802794 -0.00530844
v -0.01152322 0.01934200 -0.00427025
v -0.01034711 0.02107564 0.00027665
v -0.01173750 0.02107564 0.05227283
v -0.01034224 0.02015447 0.06622115
v -0.01240955 0.01590904 0.07295018
v -0.01218553 0.01590904 0.07346928
v -0.01169367 0.01590904 0.07437289
v -0.01134303 0.01590904 0.07493044
v -0.01081950 0.01590904 0.07544954
v -0.01028624 0.01590904 0.07593979
v -0.00975541 0.01590904 0.07621857
v -0.00926598 0.01590904 0.07642044
v -0.00971401 0.00890962 0.08765792
v -0.00860853 0.00809906 0.08836927
v -0.00730094 0.00737051 0.08845579
v -0.00822136 0.00774050 0.08849424
v -0.00799978 0.00774050 0.08849424
v -0.00706231 0.00667247 0.08849424
v -0.00665810 0.00704247 0.08824431
v -0.00648765 0.00602593 0.08822508
v -0.00574741 0.00707298 0.08767714
v -0.00574741 0.00602593 0.08770598
v -0.00585211 0.00536223 0.08761947
v 0.00140173 0.00159169 0.07001824
v -0.01345660 0.00917281 -0.00907670
v -0.01344930 0.01022368 -0.00906709
v -0.01355157 0.00159169 -0.00846147
v -0.01342008 0.01100372 -0.00902864
v -0.01294525 0.01132222 -0.00919205
v -0.01265062 0.01207175 -0.00910554
v -0.01334946 0.01381112 -0.00782702
v -0.01334946 0.01169031 -0.00893251
v -0.01312301 0.01545513 -0.00637548
v -0.01252643 0.01750537 -0.00530844
v -0.01220745 0.02107564 0.02110781
v -0.01204187 0.02107564 0.01824316
v -0.01203700 0.01860010 -0.00427025
v -0.01190064 0.02107564 0.01602258
v -0.01182028 0.02107564 0.01499400
v -0.01133329 0.02107564 0.00909168
v -0.01125537 0.02107564 0.00831304
v -0.01182515 0.02107564 0.05125386
v -0.01447686 0.01605017 0.05650251
v -0.01445008 0.01600440 0.05708890
v -0.01131868 0.01918179 0.06622115
v -0.01061009 0.01991607 0.06622115
v -0.01249721 0.01590904 0.07251760
v -0.01134303 0.00873988 0.08556231
v -0.01051269 0.00890771 0.08690811
v -0.01029111 0.00873606 0.08747527
v -0.00971401 0.00811813 0.08794631
v -0.00915640 0.00649129 0.08847501
v -0.00761748 0.00602593 0.08861921
v -0.00875219 0.00609459 0.08858076
v -0.00701117 0.00602593 0.08851347
v -0.00701361 0.00545186 0.08851347
v -0.00662644 0.00527449 0.08796553
v 0.00082464 0.00159169 0.07045083
v -0.00657287 0.00495218 0.08690811
v -0.01355157 0.00917281 -0.00846147
v -0.01354183 0.01022368 -0.00846147
v -0.01348339 0.01132222 -0.00853838
v -0.01599874 0.00159169 0.02090594
v -0.01347365 0.01230443 -0.00824999
v -0.01343712 0.01310355 -0.00805773
v -0.01341277 0.01406096 -0.00712528
v -0.01314005 0.01545703 -0.00579870
v -0.01289899 0.01650409 -0.00530844
v -0.01224641 0.02107564 0.02195374
v -0.01196882 0.02107564 0.01708000
v -0.01221962 0.02107564 0.02718316
v -0.01478611 0.01545513 0.05650251
v -0.01223180 0.02107564 0.02635645
v -0.01225858 0.02107564 0.02417432
v -0.01516353 0.01440807 0.05755031
v -0.01254835 0.01590904 0.07222921
v -0.01552148 0.01299102 0.05822322
v -0.01136981 0.00803421 0.08588914
v -0.01125050 0.00832601 0.08625444
v -0.01555313 0.01224912 0.05857889
v -0.01093638 0.00803421 0.08680237
v -0.01035198 0.00811813 0.08755218
v -0.00971401 0.00707108 0.08810011
v -0.00924650 0.00579135 0.08850385
v -0.00866697 0.00539083 0.08856153
v -0.00761748 0.00538130 0.08857115
v -0.00924650 0.00546331 0.08850385
v -0.00761748 0.00508759 0.08795592
v 0.00068098 0.00159169 0.07054696
v 0.00037904 0.00159169 0.07071999
v -0.01608396 0.00159169 0.02193452
v -0.01356131 0.01230443 -0.00741367
v -0.01346634 0.01342014 -0.00745212
v -0.01612779 0.00183009 0.02300155
v -0.01617405 0.00183009 0.02404936
v -0.01621545 0.00183009 0.02508755
v -0.01606691 0.00287905 0.02508755
v -0.01553365 0.01314169 0.05755031
v -0.01542895 0.01355174 0.05650251
v -0.01315466 0.01545703 -0.00530844
v -0.01543138 0.01366427 0.05755031
v -0.01521467 0.01440807 0.05650251
v -0.01226589 0.02107564 0.02299194
v -0.01226589 0.02107564 0.02309768
v -0.01562375 0.01230443 0.05755031
v -0.01145747 0.00707108 0.08586031
v -0.01129189 0.00762989 0.08638902
v -0.01549469 0.01186005 0.05915567
v -0.01558235 0.01126310 0.05859812
v -0.01095099 0.00707108 0.08695618
v -0.01042990 0.00707108 0.08760985
v -0.00964340 0.00609459 0.08822508
v -0.00866697 0.00510857 0.08795592
v -0.01046156 0.00602593 0.08764830
v -0.01038120 0.00540228 0.08757140
v -0.00964340 0.00531455 0.08793669
v -0.00761748 0.00486826 0.08690811
v -0.00057305 0.00159169 0.07086418
v -0.00028328 0.00159169 0.07084495
v -0.01615214 0.00159169 0.02300155
v -0.01620084 0.00159169 0.02404936
v -0.01623980 0.00159169 0.02508755
v -0.01625684 0.00159169 0.02614497
v -0.01593299 0.00159169 0.05126348
v -0.01586725 0.00159169 0.05439728
v -0.01583072 0.00159169 0.05545470
v -0.01139173 0.00596109 0.08591798
v -0.01131868 0.00626433 0.08643708
v -0.01131381 0.00707108 0.08642747
v -0.01547765 0.00159169 0.06017464
v -0.01577715 0.00159169 0.05650251
v -0.01571628 0.00159169 0.05756954
v -0.01564566 0.00159169 0.05859812
v -0.01554583 0.00159169 0.05965554
v -0.01103378 0.00596109 0.08684082
v -0.00971401 0.00504944 0.08690811
v -0.00866697 0.00489687 0.08690811
v -0.01126754 0.00556439 0.08631211
v -0.01059061 0.00533171 0.08690811
v -0.00858661 0.00159169 0.07005670
v -0.00131572 0.00159169 0.07086418
v -0.01535590 0.00159169 0.06083793
v -0.01457913 0.00159169 0.06248173
v -0.01434781 0.00159169 0.06280857
v -0.01423823 0.00159169 0.06296238
v -0.00958740 0.00159169 0.06896083
v -0.01512944 0.00159169 0.06146276
v -0.01496630 0.00159169 0.06183767
f 1 2 18
f 1 18 3
f 1 3 4
f 1 4 5
f 1 5 6
f 1 6 7
f 1 7 8
f 1 8 9
f 1 9 10
f 1 10 11
f 1 11 12
f 1 12 13
f 1 13 14
f 1 14 15
f 1 15 16
f 1 16 26
f 1 26 54
f 1 54 94
f 1 94 131
f 1 131 165
f 1 165 199
f 1 199 230
f 1 230 231
f 1 231 260
f 1 260 259
f 1 259 282
f 1 282 281
f 1 281 287
f 1 287 286
f 1 286 285
f 1 285 284
f 1 284 289
f 1 289 288
f 1 288 283
f 1 283 271
f 1 271 275
f 1 275 274
f 1 274 273
f 1 273 272
f 1 272 267
f 1 267 266
f 1 266 265
f 1 265 264
f 1 264 263
f 1 263 262
f 1 262 261
f 1 261 232
f 1 232 204
f 1 204 168
f 1 168 133
f 1 133 96
f 1 96 57
f 1 57 27
f 1 27 17
f 1 17 2
f 2 17 28
f 2 28 18
f 3 19 20
f 3 20 4
f 3 18 38
f 3 38 19
f 4 20 5
f 5 20 6
f 6 20 7
f 7 20 8
f 8 20 9
f 9 20 10
f 10 20 11
f 11 20 12
f 12 20 13
f 13 20 21
f 13 21 14
f 14 21 22
f 14 22 23
f 14 23 15
f 15 23 24
f 15 24 25
f 15 25 26
f 15 26 16
f 17 27 58
f 17 58 28
f 18 28 29
f 18 29 30
f 18 30 31
f 18 31 32
f 18 32 33
f 18 33 34
f 18 34 35
f 18 35 36
f 18 36 37
f 18 37 38
f 19 39 40
f 19 40 20
f 19 38 68
f 19 68 111
f 19 111 110
f 19 110 109
f 19 109 143
f 19 143 182
f 19 182 181
f 19 181 180
f 19 180 179
f 19 179 211
f 19 211 177
f 19 177 176
f 19 176 210
f 19 210 244
f 19 244 245
f 19 245 215
f 19 215 214
f 19 214 212
f 19 212 183
f 19 183 144
f 19 144 112
f 19 112 78
f 19 78 77
f 19 77 76
f 19 76 75
f 19 75 74
f 19 74 73
f 19 73 72
f 19 72 71
f 19 71 70
f 19 70 69
f 19 69 39
f 20 41 42
f 20 42 21
f 20 40 43
f 20 43 44
f 20 44 45
f 20 45 46
f 20 46 47
f 20 47 48
f 20 48 49
f 20 49 50
f 20 50 51
f 20 51 41
f 21 42 52
f 21 52 22
f 22 52 24
f 22 24 23
f 24 52 25
f 25 53 54
f 25 54 26
f 25 52 55
f 25 55 56
f 25 56 53
f 27 57 95
f 27 95 58
f 28 58 59
f 28 59 98
f 28 98 60
f 28 60 29
f 29 60 30
f 30 61 31
f 30 60 62
f 30 62 61
f 31 61 32
f 32 34 33
f 32 61 34
f 34 63 64
f 34 64 65
f 34 65 37
f 34 37 35
f 34 61 63
f 35 37 36
f 37 65 66
f 37 66 67
f 37 67 38
f 38 67 68
f 39 69 40
f 40 69 70
f 40 70 71
f 40 71 72
f 40 72 73
f 40 73 74
f 40 74 75
f 40 75 76
f 40 76 77
f 40 77 78
f 40 78 79
f 40 79 80
f 40 80 81
f 40 81 82
f 40 82 83
f 40 83 84
f 40 84 43
f 41 52 42
f 41 51 52
f 43 84 85
f 43 85 86
f 43 86 87
f 43 87 88
f 43 88 89
f 43 89 44
f 44 89 88
f 44 88 90
f 44 90 45
f 45 90 46
f 46 90 47
f 47 90 48
f 48 90 49
f 49 90 50
f 50 90 91
f 50 91 51
f 51 91 92
f 51 92 52
f 52 92 53
f 52 53 56
f 52 56 55
f 53 92 93
f 53 93 54
f 54 93 94
f 57 96 132
f 57 132 95
f 58 95 97
f 58 97 59
f 59 97 135
f 59 135 98
f 60 98 62
f 61 62 99
f 61 99 100
f 61 100 63
f 62 98 101
f 62 101 99
f 63 100 102
f 63 102 103
f 63 103 64
f 64 104 65
f 64 103 105
f 64 105 104
f 65 104 66
f 66 106 67
f 66 104 107
f 66 107 106
f 67 106 108
f 67 108 109
f 67 109 110
f 67 110 111
f 67 111 68
f 78 112 113
f 78 113 114
f 78 114 115
f 78 115 116
f 78 116 117
f 78 117 118
f 78 118 119
f 78 119 79
f 79 119 120
f 79 120 80
f 80 120 121
f 80 121 81
f 81 121 82
f 82 121 83
f 83 121 84
f 84 121 85
f 85 121 122
f 85 122 86
f 86 122 123
f 86 123 87
f 87 123 124
f 87 124 88
f 88 124 125
f 88 125 126
f 88 126 90
f 90 126 91
f 91 127 92
f 91 126 128
f 91 128 127
f 92 127 93
f 93 129 94
f 93 127 130
f 93 130 129
f 94 129 131
f 95 132 97
f 96 133 166
f 96 166 132
f 97 132 134
f 97 134 135
f 98 135 137
f 98 137 101
f 99 136 102
f 99 102 100
f 99 101 137
f 99 137 136
f 102 136 138
f 102 138 103
f 103 138 105
f 104 105 107
f 105 138 139
f 105 139 107
f 106 107 140
f 106 140 141
f 106 141 142
f 106 142 143
f 106 143 108
f 107 139 140
f 108 143 109
f 112 144 113
f 113 145 146
f 113 146 147
f 113 147 148
f 113 148 149
f 113 149 150
f 113 150 151
f 113 151 114
f 113 144 145
f 114 151 115
f 115 151 116
f 116 151 152
f 116 152 117
f 117 119 118
f 117 152 119
f 119 152 153
f 119 153 120
f 120 153 154
f 120 154 121
f 121 154 155
f 121 155 122
f 122 156 123
f 122 155 157
f 122 157 158
f 122 158 156
f 123 156 159
f 123 159 160
f 123 160 125
f 123 125 124
f 125 160 161
f 125 161 162
f 125 162 126
f 126 162 128
f 127 128 130
f 128 162 163
f 128 163 130
f 129 130 164
f 129 164 131
f 130 163 164
f 131 164 165
f 132 166 167
f 132 167 134
f 133 168 201
f 133 201 166
f 134 167 169
f 134 169 170
f 134 170 135
f 135 170 171
f 135 171 137
f 136 137 171
f 136 171 138
f 138 172 139
f 138 171 173
f 138 173 172
f 139 172 140
f 140 172 174
f 140 174 175
f 140 175 141
f 141 175 176
f 141 176 177
f 141 177 178
f 141 178 142
f 142 179 180
f 142 180 181
f 142 181 182
f 142 182 143
f 142 178 179
f 144 183 184
f 144 184 185
f 144 185 186
f 144 186 187
f 144 187 145
f 145 187 146
f 146 187 186
f 146 186 188
f 146 188 189
f 146 189 147
f 147 189 190
f 147 190 148
f 148 190 149
f 149 190 191
f 149 191 150
f 150 191 151
f 151 191 154
f 151 154 152
f 152 154 153
f 154 191 192
f 154 192 155
f 155 193 157
f 155 192 193
f 156 158 194
f 156 194 159
f 157 195 194
f 157 194 158
f 157 193 195
f 159 194 196
f 159 196 161
f 159 161 160
f 161 196 197
f 161 197 163
f 161 163 162
f 163 197 164
f 164 197 198
f 164 198 165
f 165 198 200
f 165 200 199
f 166 201 167
f 167 201 202
f 167 202 203
f 167 203 169
f 168 204 201
f 169 203 205
f 169 205 206
f 169 206 173
f 169 173 170
f 170 173 171
f 172 173 206
f 172 206 207
f 172 207 174
f 174 208 209
f 174 209 175
f 174 207 208
f 175 209 210
f 175 210 176
f 177 211 178
f 178 211 179
f 183 212 184
f 184 213 185
f 184 212 214
f 184 214 215
f 184 215 213
f 185 213 216
f 185 216 217
f 185 217 186
f 186 217 188
f 188 217 218
f 188 218 189
f 189 219 220
f 189 220 190
f 189 218 221
f 189 221 219
f 190 220 191
f 191 220 222
f 191 222 223
f 191 223 192
f 192 223 224
f 192 224 193
f 193 224 225
f 193 225 195
f 194 195 226
f 194 226 227
f 194 227 197
f 194 197 196
f 195 225 228
f 195 228 226
f 197 227 229
f 197 229 198
f 198 229 200
f 199 200 230
f 200 229 231
f 200 231 230
f 201 204 232
f 201 232 202
f 202 232 233
f 202 233 205
f 202 205 203
f 205 233 206
f 206 233 234
f 206 234 207
f 207 234 235
f 207 235 236
f 207 236 237
f 207 237 238
f 207 238 239
f 207 239 240
f 207 240 208
f 208 241 209
f 208 240 241
f 209 241 240
f 209 240 242
f 209 242 243
f 209 243 210
f 210 243 244
f 213 243 216
f 213 215 245
f 213 245 244
f 213 244 243
f 216 243 242
f 216 242 217
f 217 242 218
f 218 242 239
f 218 239 246
f 218 246 221
f 219 247 248
f 219 248 220
f 219 221 249
f 219 249 247
f 220 248 222
f 221 250 249
f 221 246 250
f 222 248 251
f 222 251 223
f 223 251 252
f 223 252 224
f 224 253 225
f 224 252 253
f 225 253 228
f 226 228 254
f 226 254 229
f 226 229 227
f 228 253 255
f 228 255 256
f 228 256 257
f 228 257 254
f 229 254 258
f 229 258 259
f 229 259 260
f 229 260 231
f 232 261 233
f 233 261 234
f 234 261 235
f 235 261 262
f 235 262 236
f 236 262 237
f 237 262 263
f 237 263 264
f 237 264 246
f 237 246 239
f 237 239 238
f 239 242 240
f 246 264 265
f 246 265 266
f 246 266 267
f 246 267 250
f 247 268 269
f 247 269 270
f 247 270 248
f 247 249 271
f 247 271 268
f 248 270 251
f 249 250 271
f 250 267 272
f 250 272 273
f 250 273 274
f 250 274 275
f 250 275 271
f 251 255 252
f 251 270 269
f 251 269 276
f 251 276 255
f 252 255 253
f 254 257 277
f 254 277 278
f 254 278 258
f 255 276 256
f 256 276 279
f 256 279 280
f 256 280 277
f 256 277 257
f 258 278 281
f 258 281 282
f 258 282 259
f 268 279 269
f 268 271 279
f 269 279 276
f 271 283 279
f 277 280 284
f 277 284 285
f 277 285 286
f 277 286 287
f 277 287 281
f 277 281 278
f 279 283 288
f 279 288 289
f 279 289 280
f 280 289 284

