# https://github.com/mikedh/trimesh
v 0.00578382 -0.02767990 0.03793916
v 0.00705519 -0.02737270 0.02820810
v 0.00810313 -0.02721243 0.02716265
v 0.00810313 -0.02722244 0.02820810
v 0.00815249 -0.02721243 0.02820810
v 0.00878645 -0.02703545 0.02820810
v 0.00931042 -0.02687518 0.02820810
v 0.00578382 -0.02764984 0.03894001
v 0.00578382 -0.02733597 0.02716265
v 0.00600726 -0.02736602 0.02716265
v 0.00705519 -0.02735600 0.02716265
v 0.00877000 -0.02703212 0.02716265
v 0.00815163 -0.02720241 0.02723202
v 0.00578382 -0.02580334 0.00084816
v 0.01020073 -0.02646447 0.02716265
v 0.01020073 -0.02646113 0.02820810
v 0.00578382 -0.02756303 0.04087235
v 0.00578382 -0.02760978 0.03992105
v 0.00929396 -0.02686850 0.02716265
v 0.00578382 -0.02558296 0.00015450
v 0.00678931 -0.02507876 0.00012477
v 0.00694780 -0.02517225 0.00096707
v 0.01090744 -0.02605711 0.02716265
v 0.01090051 -0.02605043 0.02820810
v 0.01082083 -0.02600368 0.02901076
v 0.00578382 -0.02754967 0.04104081
v 0.00578382 -0.02542602 -0.00000405
v 0.01070824 -0.02070123 -0.00480517
v 0.01073076 -0.02070123 -0.00480517
v 0.00866087 -0.02386667 0.00037251
v 0.00747177 -0.02481831 0.00096707
v 0.01142881 -0.02565642 0.02716265
v 0.01142188 -0.02568647 0.02820810
v 0.01120103 -0.02565642 0.02931300
v 0.00662216 -0.02610385 0.04104081
v 0.00578382 -0.00516787 0.04104081
v 0.01194411 -0.02507208 0.02925354
v 0.01184278 -0.02496857 0.02999179
v 0.01283702 -0.02386667 0.02982829
v 0.01302409 -0.02331573 0.03022962
v 0.01292190 -0.02295845 0.03100751
v 0.00578382 -0.02437421 -0.00055898
v 0.00959449 -0.01347882 -0.00904641
v 0.00964385 -0.01550230 -0.00796133
v 0.00953819 -0.01879462 -0.00595466
v 0.01020160 -0.01940901 -0.00569702
v 0.01029600 -0.02024044 -0.00510245
v 0.01124867 -0.01887142 -0.00601412
v 0.01124867 -0.01939900 -0.00564747
v 0.01193805 -0.01877459 -0.00595466
v 0.01188435 -0.01981304 -0.00498354
v 0.01136472 -0.02042743 -0.00427997
v 0.00975211 -0.02287831 0.00026350
v 0.01198915 -0.02512884 0.02716265
v 0.01202812 -0.02515889 0.02820810
v 0.00685340 -0.02557628 0.04104081
v 0.00578382 0.00159042 0.03895983
v 0.00678758 -0.01206973 0.04104081
v 0.01308212 -0.01912853 0.03226601
v 0.01385811 -0.01874788 0.03080932
v 0.00886093 -0.00781241 0.03639329
v 0.01255209 -0.02459793 0.02820810
v 0.01246895 -0.02449108 0.02925354
v 0.01291497 -0.02396685 0.02925354
v 0.01329430 -0.02332241 0.02925354
v 0.01372127 -0.02245425 0.02925354
v 0.01356971 -0.02218044 0.03021476
v 0.01305960 -0.02225056 0.03135434
v 0.00578382 -0.02332241 -0.00056889
v 0.00896746 -0.01074746 -0.00846671
v 0.00898305 -0.01179259 -0.00846671
v 0.00935892 -0.01179259 -0.00925450
v 0.00946371 -0.01283772 -0.00915541
v 0.01020160 -0.01283772 -0.00931892
v 0.01020160 -0.01353558 -0.00907614
v 0.01020160 -0.01405648 -0.00880858
v 0.01020160 -0.01493799 -0.00831807
v 0.01020160 -0.01888478 -0.00600917
v 0.01124867 -0.01808006 -0.00647986
v 0.01229400 -0.01550897 -0.00797619
v 0.01284049 -0.01548560 -0.00796133
v 0.01290544 -0.01666095 -0.00700011
v 0.01286300 -0.01765934 -0.00595466
v 0.01193632 -0.01990653 -0.00427997
v 0.01294615 -0.02401360 0.02745498
v 0.01299638 -0.02407370 0.02820810
v 0.00690970 -0.02541934 0.04104081
v 0.01288552 -0.02188326 0.03196873
v 0.00862017 0.00643207 0.02146968
v 0.00578382 0.00159042 -0.00056889
v 0.01377930 -0.01808340 0.03066068
v 0.01399668 -0.01808340 0.03013548
v 0.01395598 -0.00800274 0.02368940
v 0.01227928 -0.00446666 0.02506681
v 0.01182286 -0.00381220 0.02575056
v 0.01168083 -0.00311434 0.02525509
v 0.00693395 -0.01309816 0.04104081
v 0.00704307 -0.01388619 0.04104081
v 0.00707771 -0.01414330 0.04104081
v 0.00721628 -0.01519176 0.04104081
v 0.00735399 -0.01638381 0.04104081
v 0.00744059 -0.01720856 0.04104081
v 0.00750901 -0.01794316 0.04104081
v 0.00751854 -0.01804667 0.04104081
v 0.00752114 -0.01808340 0.04104081
v 0.00757656 -0.01887142 0.04104081
v 0.00759302 -0.01913521 0.04104081
v 0.00761380 -0.01958264 0.04104081
v 0.00764498 -0.02034061 0.04104081
v 0.00765624 -0.02122881 0.04104081
v 0.00765451 -0.02149259 0.04104081
v 0.01307606 -0.02017366 0.03225610
v 0.01365372 -0.01911183 0.03126020
v 0.01387716 -0.01944908 0.03084896
v 0.01401920 -0.01911183 0.03039808
v 0.01342508 -0.02332241 0.02820810
v 0.01377064 -0.02256110 0.02820810
v 0.01394385 -0.02192667 0.02925354
v 0.01387716 -0.02177308 0.02980847
v 0.01375505 -0.02122213 0.03053186
v 0.01339996 -0.02122213 0.03135434
v 0.00896746 0.00643207 -0.00846671
v 0.00905233 0.00158374 -0.00865499
v 0.00934246 0.00158708 -0.00927928
v 0.00934420 -0.01074746 -0.00927432
v 0.01020160 -0.01074746 -0.00956170
v 0.01020160 -0.01179259 -0.00951710
v 0.01229400 -0.01283772 -0.00931892
v 0.01229400 -0.01353558 -0.00907614
v 0.01229400 -0.01405648 -0.00880858
v 0.01124867 -0.01493799 -0.00831807
v 0.01229400 -0.01493799 -0.00830816
v 0.01290284 -0.01347882 -0.00904641
v 0.01299118 -0.01493799 -0.00811988
v 0.01300157 -0.01589631 -0.00738162
v 0.01331336 -0.01493799 -0.00741631
v 0.01296866 -0.01701490 -0.00633123
v 0.01233038 -0.01912853 -0.00427997
v 0.01324667 -0.01598312 -0.00637086
v 0.01306220 -0.01703159 -0.00532046
v 0.01397849 -0.02203686 0.02820810
v 0.00717818 -0.02462798 0.04104081
v 0.01298772 -0.02122213 0.03212232
v 0.00725525 -0.02437421 0.04104081
v 0.01249493 0.00643207 0.00725460
v 0.00862017 0.00643207 -0.00133192
v 0.01433358 -0.01912853 0.02925354
v 0.01423052 -0.01808340 0.02925354
v 0.01402180 -0.00789589 0.02296601
v 0.01346405 0.00643207 0.00305796
v 0.01335666 0.00643207 0.00369712
v 0.01328564 0.00643207 0.00410836
v 0.01313408 0.00643207 0.00474752
v 0.01260145 -0.00453678 0.02396686
v 0.01214331 -0.00341819 0.02401641
v 0.01189821 -0.00344824 0.02496276
v 0.01177350 -0.00288394 0.02455152
v 0.00761813 -0.02202684 0.04104081
v 0.00746138 -0.02333576 0.04104081
v 0.01363553 -0.02012691 0.03126020
v 0.01387716 -0.01973958 0.03084896
v 0.01401227 -0.02012691 0.03036835
v 0.01414304 -0.02122213 0.02925354
v 0.01395338 -0.02122213 0.03001161
v 0.01383646 -0.02043745 0.03074987
v 0.00919437 0.00643207 -0.00896218
v 0.00934246 0.00643207 -0.00927928
v 0.00986297 0.00643207 -0.00945765
v 0.01019986 0.00158708 -0.00956665
v 0.01043803 0.00158708 -0.00957161
v 0.01124867 -0.01074746 -0.00957161
v 0.01229400 -0.01179259 -0.00951710
v 0.01303362 -0.01283772 -0.00915541
v 0.01314534 -0.01384946 -0.00849643
v 0.01341122 -0.01283772 -0.00846671
v 0.01352814 -0.01388619 -0.00741631
v 0.01343634 -0.01493799 -0.00637086
v 0.01415344 -0.02122213 0.02820810
v 0.00741288 -0.02359955 0.04104081
v 0.01258760 0.00643207 0.00689787
v 0.01430673 -0.02017366 0.02925354
v 0.01463150 -0.01179593 0.01772392
v 0.01461158 -0.01179593 0.01876441
v 0.01460032 -0.01075080 0.01876441
v 0.01453450 -0.00971234 0.01876441
v 0.01441585 -0.00866388 0.01876441
v 0.01355066 0.00643207 0.00201252
v 0.01303275 0.00643207 0.00515876
v 0.01292709 0.00643207 0.00557991
v 0.01272617 0.00643207 0.00636276
v 0.01019986 0.00643207 -0.00956665
v 0.01124780 0.00643207 -0.00957161
v 0.01229487 0.00158708 -0.00957161
v 0.01229400 -0.01074746 -0.00956170
v 0.01313841 -0.01179259 -0.00925450
v 0.01351688 -0.01179259 -0.00846671
v 0.01357491 -0.01283772 -0.00741631
v 0.01451372 -0.01284106 0.01354214
v 0.01441066 -0.01388952 0.01354214
v 0.01453364 -0.01284106 0.01457767
v 0.01455269 -0.01284106 0.01562808
v 0.01457001 -0.01284106 0.01667352
v 0.01458387 -0.01284106 0.01772392
v 0.01461938 -0.01075080 0.01772392
v 0.01461505 -0.01179593 0.01667352
v 0.01460639 -0.01075080 0.01667352
v 0.01456135 -0.00971234 0.01772392
v 0.01357577 0.00643207 0.00096212
v 0.01229487 0.00643207 -0.00957161
v 0.01315487 0.00158708 -0.00927928
v 0.01315400 -0.01074746 -0.00927432
v 0.01353247 -0.01074746 -0.00846671
v 0.01455442 -0.01179593 0.01354214
v 0.01457608 -0.01179593 0.01457767
v 0.01459599 -0.01179593 0.01562808
v 0.01357577 0.00643207 -0.00741631
v 0.01455356 -0.01075080 0.01354214
v 0.01457175 -0.01075080 0.01457767
v 0.01458993 -0.01075080 0.01562808
v 0.01315487 0.00643207 -0.00927928
v 0.01353334 0.00158708 -0.00846671
v 0.01353334 0.00643207 -0.00846671
f 1 2 3
f 1 3 4
f 1 4 5
f 1 5 6
f 1 6 7
f 1 7 8
f 1 8 18
f 1 18 17
f 1 17 26
f 1 26 36
f 1 36 57
f 1 57 90
f 1 90 69
f 1 69 42
f 1 42 27
f 1 27 20
f 1 20 14
f 1 14 9
f 1 9 10
f 1 10 11
f 1 11 2
f 2 11 3
f 3 12 13
f 3 13 5
f 3 5 4
f 3 11 14
f 3 14 12
f 5 13 12
f 5 12 6
f 6 12 7
f 7 15 16
f 7 16 17
f 7 17 18
f 7 18 8
f 7 12 19
f 7 19 15
f 9 14 10
f 10 14 11
f 12 14 19
f 14 20 21
f 14 21 22
f 14 22 15
f 14 15 19
f 15 23 16
f 15 22 23
f 16 23 24
f 16 24 25
f 16 25 26
f 16 26 17
f 20 27 28
f 20 28 29
f 20 29 21
f 21 30 31
f 21 31 22
f 21 29 30
f 22 31 23
f 23 31 30
f 23 30 32
f 23 32 33
f 23 33 24
f 24 33 25
f 25 33 34
f 25 34 26
f 26 35 56
f 26 56 87
f 26 87 142
f 26 142 144
f 26 144 179
f 26 179 159
f 26 159 158
f 26 158 111
f 26 111 110
f 26 110 109
f 26 109 108
f 26 108 107
f 26 107 106
f 26 106 105
f 26 105 104
f 26 104 103
f 26 103 102
f 26 102 101
f 26 101 100
f 26 100 99
f 26 99 98
f 26 98 97
f 26 97 58
f 26 58 36
f 26 34 37
f 26 37 38
f 26 38 39
f 26 39 40
f 26 40 41
f 26 41 35
f 27 42 43
f 27 43 44
f 27 44 45
f 27 45 46
f 27 46 47
f 27 47 28
f 28 47 46
f 28 46 29
f 29 46 48
f 29 48 49
f 29 49 50
f 29 50 51
f 29 51 52
f 29 52 30
f 30 52 51
f 30 51 53
f 30 53 32
f 32 53 54
f 32 54 55
f 32 55 33
f 33 55 37
f 33 37 34
f 35 41 56
f 36 58 59
f 36 59 60
f 36 60 61
f 36 61 57
f 37 55 62
f 37 62 63
f 37 63 38
f 38 63 39
f 39 63 64
f 39 64 65
f 39 65 40
f 40 65 66
f 40 66 67
f 40 67 41
f 41 67 68
f 41 68 56
f 42 69 70
f 42 70 71
f 42 71 72
f 42 72 73
f 42 73 43
f 43 73 74
f 43 74 75
f 43 75 76
f 43 76 44
f 44 76 77
f 44 77 78
f 44 78 46
f 44 46 45
f 46 78 48
f 48 79 80
f 48 80 81
f 48 81 50
f 48 50 49
f 48 78 79
f 50 81 82
f 50 82 51
f 51 82 83
f 51 83 84
f 51 84 53
f 53 84 54
f 54 85 86
f 54 86 62
f 54 62 55
f 54 84 85
f 56 68 88
f 56 88 87
f 57 89 146
f 57 146 90
f 57 61 60
f 57 60 91
f 57 91 92
f 57 92 93
f 57 93 94
f 57 94 95
f 57 95 96
f 57 96 89
f 58 97 59
f 59 97 98
f 59 98 99
f 59 99 100
f 59 100 101
f 59 101 102
f 59 102 103
f 59 103 104
f 59 104 105
f 59 105 106
f 59 106 107
f 59 107 108
f 59 108 109
f 59 109 110
f 59 110 111
f 59 111 112
f 59 112 113
f 59 113 60
f 60 113 114
f 60 114 115
f 60 115 92
f 60 92 91
f 62 86 64
f 62 64 63
f 64 86 65
f 65 86 116
f 65 116 66
f 66 116 117
f 66 117 118
f 66 118 119
f 66 119 67
f 67 119 120
f 67 120 68
f 68 120 121
f 68 121 88
f 69 90 122
f 69 122 70
f 70 122 123
f 70 123 124
f 70 124 125
f 70 125 71
f 71 125 72
f 72 125 126
f 72 126 127
f 72 127 73
f 73 127 74
f 74 127 172
f 74 172 128
f 74 128 129
f 74 129 75
f 75 129 130
f 75 130 76
f 76 130 131
f 76 131 77
f 77 131 78
f 78 131 79
f 79 131 80
f 80 131 132
f 80 132 81
f 81 132 130
f 81 130 133
f 81 133 134
f 81 134 82
f 82 134 135
f 82 135 136
f 82 136 137
f 82 137 83
f 83 138 84
f 83 137 139
f 83 139 140
f 83 140 141
f 83 141 117
f 83 117 116
f 83 116 138
f 84 138 116
f 84 116 86
f 84 86 85
f 87 88 142
f 88 121 143
f 88 143 144
f 88 144 142
f 89 96 145
f 89 145 180
f 89 180 190
f 89 190 189
f 89 189 188
f 89 188 153
f 89 153 152
f 89 152 151
f 89 151 150
f 89 150 187
f 89 187 208
f 89 208 216
f 89 216 222
f 89 222 220
f 89 220 209
f 89 209 192
f 89 192 191
f 89 191 168
f 89 168 167
f 89 167 166
f 89 166 122
f 89 122 146
f 90 146 122
f 92 115 147
f 92 147 148
f 92 148 93
f 93 149 150
f 93 150 151
f 93 151 152
f 93 152 153
f 93 153 154
f 93 154 94
f 93 148 147
f 93 147 149
f 94 154 155
f 94 155 156
f 94 156 95
f 95 156 96
f 96 156 155
f 96 155 157
f 96 157 145
f 111 158 112
f 112 158 159
f 112 159 143
f 112 143 160
f 112 160 161
f 112 161 113
f 113 161 114
f 114 161 115
f 115 162 147
f 115 161 162
f 117 141 118
f 118 141 163
f 118 163 119
f 119 164 120
f 119 163 164
f 120 165 121
f 120 164 165
f 121 165 160
f 121 160 143
f 122 166 123
f 123 166 124
f 124 166 167
f 124 167 168
f 124 168 125
f 125 168 126
f 126 169 170
f 126 170 171
f 126 171 127
f 126 168 169
f 127 171 172
f 128 172 173
f 128 173 133
f 128 133 129
f 129 133 130
f 130 132 131
f 133 173 174
f 133 174 134
f 134 136 135
f 134 174 136
f 136 174 175
f 136 175 176
f 136 176 139
f 136 139 137
f 139 176 177
f 139 177 178
f 139 178 141
f 139 141 140
f 141 178 163
f 143 159 179
f 143 179 144
f 145 157 155
f 145 155 180
f 147 162 181
f 147 181 182
f 147 182 183
f 147 183 184
f 147 184 185
f 147 185 149
f 149 185 186
f 149 186 187
f 149 187 150
f 153 188 154
f 154 188 189
f 154 189 155
f 155 189 190
f 155 190 180
f 160 165 161
f 161 165 162
f 162 165 164
f 162 164 181
f 163 178 181
f 163 181 164
f 168 191 169
f 169 191 170
f 170 191 192
f 170 192 209
f 170 209 193
f 170 193 171
f 171 193 194
f 171 194 172
f 172 194 195
f 172 195 173
f 173 195 175
f 173 175 174
f 175 195 196
f 175 196 176
f 176 197 198
f 176 198 199
f 176 199 178
f 176 178 177
f 176 196 197
f 178 199 181
f 181 199 198
f 181 198 200
f 181 200 201
f 181 201 202
f 181 202 203
f 181 203 182
f 182 204 184
f 182 184 183
f 182 203 202
f 182 202 205
f 182 205 206
f 182 206 204
f 184 204 207
f 184 207 185
f 185 207 187
f 185 187 186
f 187 207 208
f 193 209 220
f 193 220 210
f 193 210 211
f 193 211 194
f 194 211 195
f 195 211 196
f 196 212 197
f 196 211 212
f 197 212 213
f 197 213 198
f 198 213 214
f 198 214 200
f 200 214 215
f 200 215 205
f 200 205 201
f 201 205 202
f 204 206 216
f 204 216 207
f 205 215 217
f 205 217 218
f 205 218 219
f 205 219 206
f 206 219 216
f 207 216 208
f 210 220 222
f 210 222 221
f 210 221 212
f 210 212 211
f 212 221 213
f 213 217 214
f 213 221 222
f 213 222 217
f 214 217 215
f 216 219 218
f 216 218 217
f 216 217 222

