# https://github.com/mikedh/trimesh
v 0.00751797 -0.01804860 0.04104889
v -0.01581388 -0.01804860 0.04104889
v 0.00743969 -0.01721039 0.04104889
v 0.00213195 0.00159169 0.06804269
v 0.00349550 -0.01804860 0.07119298
v -0.01597801 -0.01703736 0.04104889
v -0.01582650 -0.01804860 0.04393963
v -0.01798040 -0.00970109 0.06175737
v -0.01819251 -0.00864948 0.06175737
v 0.00735131 -0.01638563 0.04104889
v 0.00208902 0.00159169 0.06828188
v 0.00535397 0.00159169 0.04104889
v 0.00189207 0.00159169 0.06909618
v 0.00324299 -0.01804860 0.07223120
v -0.01677089 -0.01179662 0.04104889
v -0.01584165 -0.01804860 0.04813832
v -0.01584165 -0.01804860 0.04817395
v -0.01583408 -0.01804860 0.04922235
v -0.01580883 -0.01804860 0.05023004
v -0.01577348 -0.01804860 0.05131915
v -0.01770517 -0.01060082 0.06175737
v -0.01793748 -0.00970109 0.06280577
v -0.01814959 -0.00864948 0.06280577
v -0.01827837 -0.00760748 0.06175737
v -0.01822534 -0.00760748 0.06070896
v -0.01688956 -0.01074885 0.04104889
v -0.01680119 -0.01154285 0.04104889
v -0.01590730 0.00159169 0.04104889
v 0.00181126 0.00159169 0.06928957
v 0.00323794 -0.01804860 0.07224138
v -0.00707453 0.00030362 0.09062912
v -0.01573812 -0.01804860 0.05236756
v -0.01768497 -0.01052584 0.06280577
v -0.01570277 -0.01804860 0.05337524
v -0.01394531 -0.01493991 0.09005912
v -0.01822281 -0.00760748 0.06280577
v -0.01825817 -0.00655972 0.06175737
v -0.01822281 -0.00655972 0.06070896
v -0.01703602 -0.00760748 0.04104889
v -0.01702844 -0.00839763 0.04104889
v -0.01702339 -0.00864948 0.04104889
v -0.01696532 -0.00970109 0.04104889
v -0.01690976 -0.01049701 0.04104889
v -0.01591235 0.00159169 0.04184282
v -0.01651080 -0.00197071 0.04104889
v -0.01809656 -0.00551003 0.06070896
v -0.01784405 -0.00446035 0.06070896
v 0.00150825 0.00159169 0.06990538
v -0.00825123 0.00126294 0.09110243
v -0.00761743 0.00067081 0.09103118
v 0.00269000 -0.01804860 0.07320326
v -0.00706443 -0.00026929 0.09064948
v -0.00734724 -0.00026929 0.09117368
v -0.00734977 -0.01493991 0.09116350
v -0.00796084 0.00056315 0.09183020
v -0.01564217 -0.01804860 0.05442364
v -0.01563965 -0.01804860 0.05446436
v -0.01365997 -0.01576082 0.09005912
v -0.01354634 -0.01565700 0.09091413
v -0.01362210 -0.01493991 0.09104645
v -0.01394531 -0.01389215 0.09005912
v -0.01393268 -0.00026929 0.09005912
v -0.01817989 -0.00655972 0.06280577
v -0.01811423 -0.00551003 0.06175737
v -0.01685674 -0.00446035 0.04104889
v -0.01696027 -0.00551003 0.04104889
v -0.01702087 -0.00655972 0.04104889
v -0.01703350 -0.00735564 0.04104889
v -0.01592245 0.00159169 0.04370552
v -0.01763699 -0.00377017 0.06070896
v -0.01659160 -0.00249363 0.04104889
v -0.01672796 -0.00341258 0.04104889
v -0.01682644 -0.00420850 0.04104889
v -0.01783395 -0.00446035 0.06175737
v 0.00140220 0.00159169 0.07002243
v -0.01076369 0.00158016 0.09110243
v -0.01076369 0.00156478 0.09215083
v -0.00971578 0.00153594 0.09110243
v -0.00971578 0.00149172 0.09215083
v -0.00897845 0.00135522 0.09215083
v -0.00916783 0.00131485 0.09269030
v 0.00221528 -0.01804860 0.07372746
v -0.00708211 -0.01548975 0.09061894
v -0.00796589 -0.01566662 0.09183020
v -0.00870069 -0.01587425 0.09216610
v -0.00866534 -0.01626644 0.09110752
v -0.00787246 -0.00026929 0.09192181
v -0.00787499 -0.01493991 0.09191672
v -0.00908198 0.00078040 0.09273610
v -0.00848606 -0.00026929 0.09244601
v -0.01555127 -0.01804860 0.05542624
v -0.01285952 -0.01620684 0.09005912
v -0.01295800 -0.01594153 0.09119913
v -0.01554117 -0.01804860 0.05553312
v -0.01542754 -0.01804860 0.05666804
v -0.01533663 -0.01804860 0.05756885
v -0.01522301 -0.01804860 0.05861725
v -0.01507907 -0.01804860 0.05966056
v -0.01490484 -0.01804860 0.06074968
v -0.01473819 -0.01804860 0.06175737
v -0.01267519 -0.01576466 0.09193199
v -0.01334686 -0.01493991 0.09157574
v -0.01334181 -0.00026929 0.09156047
v -0.01360947 -0.00026929 0.09103627
v -0.01353624 0.00053432 0.09088868
v -0.01365997 0.00067273 0.09005912
v -0.01404126 -0.00026929 0.08901072
v -0.01799556 -0.00551003 0.06280577
v -0.01593761 0.00159169 0.04708992
v -0.01744761 -0.00324533 0.06070896
v -0.01586690 0.00159169 0.05442364
v -0.01591235 0.00159169 0.05232684
v -0.01593255 0.00159169 0.05127844
v -0.01594518 0.00159169 0.05023004
v -0.01594518 0.00159169 0.04894753
v -0.01762437 -0.00381823 0.06175737
v 0.00082900 0.00159169 0.07046520
v -0.01181161 0.00151287 0.09110243
v 0.00068507 0.00159169 0.07055681
v 0.00037449 0.00159169 0.07073494
v -0.00028456 0.00159169 0.07085199
v -0.00057242 0.00159169 0.07086726
v -0.00131480 0.00159169 0.07087744
v -0.00858454 0.00159169 0.07005806
v -0.00958700 0.00159169 0.06895876
v -0.01423822 0.00159169 0.06297371
v -0.01434932 0.00159169 0.06282104
v -0.01457911 0.00159169 0.06250041
v -0.01461446 0.00159169 0.06244442
v -0.01496545 0.00159169 0.06184897
v -0.01512958 0.00159169 0.06148254
v -0.01535683 0.00159169 0.06086164
v -0.01547804 0.00159169 0.06018476
v -0.01181918 0.00143405 0.09214574
v -0.01147577 0.00137637 0.09275646
v -0.01076369 0.00142251 0.09280736
v -0.00971578 0.00137637 0.09276155
v -0.00971578 0.00078040 0.09290914
v 0.00169006 -0.01804860 0.07399720
v -0.00981931 -0.01636833 0.09205922
v -0.01023342 -0.01651252 0.09164699
v -0.00849364 -0.01493991 0.09244093
v -0.00907188 -0.01563009 0.09274120
v -0.00971578 -0.01583195 0.09282262
v -0.00971578 -0.00026929 0.09297021
v -0.00901128 -0.00026929 0.09277173
v -0.00901885 -0.01493991 0.09277173
v -0.01180908 -0.01643754 0.09110752
v -0.01473061 -0.01804860 0.06179808
v -0.01454628 -0.01804860 0.06270398
v -0.01452860 -0.01804860 0.06278541
v -0.01427105 -0.01804860 0.06380327
v -0.01185958 -0.01603574 0.09223226
v -0.01282164 -0.01493991 0.09207958
v -0.01154395 -0.01576659 0.09278700
v -0.01219542 -0.01493991 0.09260378
v -0.01281912 -0.00026929 0.09208976
v -0.01268276 0.00078040 0.09198797
v -0.01246813 0.00135522 0.09179458
v -0.01311708 0.00119758 0.09005912
v -0.01564722 0.00159169 0.05861725
v -0.01583155 0.00159169 0.05547204
v -0.01571792 0.00159169 0.05758920
v -0.01577852 0.00159169 0.05652045
v -0.01257923 0.00137637 0.09110243
v -0.01554622 0.00159169 0.05966565
v -0.01215249 0.00078040 0.09250708
v -0.01162980 0.00078040 0.09281754
v -0.01076369 0.00078040 0.09299566
v 0.00076335 -0.01804860 0.07428220
v -0.01073339 -0.01646830 0.09205922
v -0.01076117 -0.01593577 0.09285825
v -0.01036220 -0.01651252 0.09164699
v -0.00361516 -0.01804860 0.07451631
v -0.00971578 -0.01493991 0.09296512
v -0.01076117 -0.01493991 0.09303129
v -0.01076369 -0.00026929 0.09304147
v -0.01102378 -0.01651252 0.09110752
v -0.01385945 -0.01804860 0.06490257
v -0.01349332 -0.01804860 0.06559981
v -0.01348069 -0.01804860 0.06562017
v -0.01314990 -0.01804860 0.06612401
v -0.01313223 -0.01804860 0.06614946
v -0.01262721 -0.01804860 0.06686196
v -0.01220047 -0.00026929 0.09260887
v -0.01167273 -0.01493991 0.09283789
v -0.01167778 -0.00026929 0.09284298
v -0.01120053 -0.01804860 0.06851599
v -0.00759975 -0.01804860 0.07225156
v -0.00600137 -0.01804860 0.07375800
v -0.00522112 -0.01804860 0.07410407
v -0.01220300 -0.01804860 0.06741161
v -0.01167525 -0.01804860 0.06800197
f 1 2 6
f 1 6 15
f 1 15 27
f 1 27 26
f 1 26 43
f 1 43 42
f 1 42 41
f 1 41 40
f 1 40 39
f 1 39 68
f 1 68 67
f 1 67 66
f 1 66 65
f 1 65 73
f 1 73 72
f 1 72 71
f 1 71 45
f 1 45 28
f 1 28 12
f 1 12 10
f 1 10 3
f 1 3 4
f 1 4 5
f 1 5 14
f 1 14 30
f 1 30 51
f 1 51 82
f 1 82 139
f 1 139 170
f 1 170 174
f 1 174 191
f 1 191 190
f 1 190 189
f 1 189 188
f 1 188 193
f 1 193 192
f 1 192 184
f 1 184 183
f 1 183 182
f 1 182 181
f 1 181 180
f 1 180 179
f 1 179 152
f 1 152 151
f 1 151 150
f 1 150 149
f 1 149 100
f 1 100 99
f 1 99 98
f 1 98 97
f 1 97 96
f 1 96 95
f 1 95 94
f 1 94 91
f 1 91 57
f 1 57 56
f 1 56 34
f 1 34 32
f 1 32 20
f 1 20 19
f 1 19 18
f 1 18 17
f 1 17 16
f 1 16 7
f 1 7 2
f 2 7 8
f 2 8 9
f 2 9 6
f 3 10 4
f 4 11 5
f 4 10 12
f 4 12 28
f 4 28 44
f 4 44 69
f 4 69 109
f 4 109 115
f 4 115 114
f 4 114 113
f 4 113 112
f 4 112 111
f 4 111 162
f 4 162 164
f 4 164 163
f 4 163 161
f 4 161 166
f 4 166 133
f 4 133 132
f 4 132 131
f 4 131 130
f 4 130 129
f 4 129 128
f 4 128 127
f 4 127 126
f 4 126 125
f 4 125 124
f 4 124 123
f 4 123 122
f 4 122 121
f 4 121 120
f 4 120 119
f 4 119 117
f 4 117 75
f 4 75 48
f 4 48 29
f 4 29 13
f 4 13 11
f 5 11 13
f 5 13 14
f 6 9 15
f 7 16 8
f 8 16 17
f 8 17 18
f 8 18 19
f 8 19 20
f 8 20 21
f 8 21 22
f 8 22 23
f 8 23 9
f 9 23 24
f 9 24 25
f 9 25 26
f 9 26 27
f 9 27 15
f 13 29 14
f 14 29 31
f 14 31 30
f 20 32 21
f 21 33 22
f 21 32 34
f 21 34 33
f 22 33 35
f 22 35 23
f 23 36 24
f 23 35 36
f 24 36 37
f 24 37 38
f 24 38 25
f 25 38 39
f 25 39 40
f 25 40 41
f 25 41 42
f 25 42 43
f 25 43 26
f 28 45 46
f 28 46 47
f 28 47 44
f 29 48 49
f 29 49 50
f 29 50 31
f 30 31 52
f 30 52 53
f 30 53 54
f 30 54 51
f 31 50 55
f 31 55 53
f 31 53 52
f 33 34 56
f 33 56 57
f 33 57 58
f 33 58 35
f 35 58 59
f 35 59 60
f 35 60 61
f 35 61 36
f 36 61 62
f 36 62 63
f 36 63 37
f 37 46 38
f 37 63 64
f 37 64 46
f 38 46 65
f 38 65 66
f 38 66 67
f 38 67 68
f 38 68 39
f 44 47 70
f 44 70 69
f 45 71 46
f 46 64 47
f 46 71 72
f 46 72 73
f 46 73 65
f 47 64 74
f 47 74 70
f 48 75 76
f 48 76 77
f 48 77 78
f 48 78 79
f 48 79 80
f 48 80 49
f 49 80 81
f 49 81 50
f 50 81 55
f 51 54 83
f 51 83 84
f 51 84 85
f 51 85 86
f 51 86 82
f 53 55 87
f 53 87 88
f 53 88 54
f 54 88 83
f 55 81 89
f 55 89 90
f 55 90 87
f 57 91 58
f 58 92 93
f 58 93 59
f 58 91 94
f 58 94 95
f 58 95 96
f 58 96 97
f 58 97 98
f 58 98 99
f 58 99 100
f 58 100 92
f 59 93 101
f 59 101 102
f 59 102 60
f 60 102 103
f 60 103 104
f 60 104 62
f 60 62 61
f 62 104 105
f 62 105 106
f 62 106 107
f 62 107 64
f 62 64 108
f 62 108 63
f 63 108 64
f 64 107 74
f 69 70 109
f 70 110 111
f 70 111 112
f 70 112 113
f 70 113 114
f 70 114 115
f 70 115 109
f 70 74 116
f 70 116 110
f 74 107 106
f 74 106 116
f 75 117 76
f 76 118 77
f 76 117 119
f 76 119 120
f 76 120 121
f 76 121 122
f 76 122 123
f 76 123 124
f 76 124 125
f 76 125 126
f 76 126 127
f 76 127 128
f 76 128 129
f 76 129 130
f 76 130 131
f 76 131 132
f 76 132 133
f 76 133 118
f 77 134 135
f 77 135 136
f 77 136 137
f 77 137 79
f 77 79 78
f 77 118 134
f 79 137 81
f 79 81 80
f 81 137 138
f 81 138 89
f 82 86 140
f 82 140 141
f 82 141 139
f 83 88 84
f 84 88 142
f 84 142 143
f 84 143 85
f 85 143 144
f 85 144 140
f 85 140 86
f 87 90 88
f 88 90 142
f 89 138 145
f 89 145 146
f 89 146 90
f 90 146 147
f 90 147 142
f 92 148 93
f 92 100 149
f 92 149 150
f 92 150 151
f 92 151 152
f 92 152 148
f 93 148 153
f 93 153 101
f 101 154 102
f 101 153 155
f 101 155 156
f 101 156 154
f 102 154 157
f 102 157 103
f 103 158 105
f 103 105 104
f 103 157 158
f 105 158 159
f 105 159 106
f 106 159 160
f 106 160 161
f 106 161 116
f 110 162 111
f 110 116 162
f 116 161 163
f 116 163 164
f 116 164 162
f 118 165 159
f 118 159 134
f 118 133 165
f 133 166 165
f 134 159 135
f 135 159 158
f 135 158 167
f 135 167 168
f 135 168 169
f 135 169 136
f 136 169 137
f 137 169 138
f 138 169 145
f 139 141 170
f 140 171 141
f 140 144 172
f 140 172 171
f 141 171 173
f 141 173 174
f 141 174 170
f 142 147 143
f 143 147 175
f 143 175 144
f 144 175 176
f 144 176 172
f 145 169 177
f 145 177 175
f 145 175 147
f 145 147 146
f 148 178 171
f 148 171 153
f 148 152 179
f 148 179 180
f 148 180 181
f 148 181 182
f 148 182 183
f 148 183 184
f 148 184 178
f 153 171 155
f 154 156 185
f 154 185 157
f 155 172 176
f 155 176 186
f 155 186 156
f 155 171 172
f 156 186 187
f 156 187 185
f 157 185 167
f 157 167 158
f 159 165 160
f 160 165 166
f 160 166 161
f 167 185 168
f 168 187 177
f 168 177 169
f 168 185 187
f 171 178 188
f 171 188 189
f 171 189 190
f 171 190 191
f 171 191 173
f 173 191 174
f 175 177 176
f 176 177 186
f 177 187 186
f 178 184 192
f 178 192 193
f 178 193 188

