v -0.008094245567917824 -0.002949998714029789 -0.0026149614714086056
v -0.00766261201351881 -0.0029986232984811068 -0.0025073427241295576
v -0.007502792403101921 -0.00294999941252172 -0.0025526012759655714
v -0.007244182750582695 -0.0031456565484404564 -0.002403019927442074
v -0.0070818038657307625 -0.0029499996453523636 -0.0025939210318028927
v -0.006795721594244242 -0.002949998714029789 -0.002652120543643832
v -0.006867366377264261 -0.0033839207608252764 -0.0023090699687600136
v -0.006406818050891161 -0.0029499996453523636 -0.0027608396485447884
v -0.006795721594244242 0.002950000111013651 -0.0026521242689341307
v -0.006406817585229874 0.002950000576674938 -0.00276083592325449
v -0.006867366377264261 0.0033839200623333454 -0.002309065777808428
v -0.007081804797053337 0.0029499991796910763 -0.0025939245242625475
v -0.008094245567917824 0.002950000111013651 -0.002614965196698904
v -0.007502792403101921 0.0029500010423362255 -0.002552597550675273
v -0.007662612479180098 0.002998621668666601 -0.0025073476135730743
v -0.007244182750582695 0.0031456567812711 -0.002403017831966281
v -0.006184490397572517 -0.0038430262356996536 -0.002138810697942972
v -0.005270343739539385 -0.0029499989468604326 -0.003044276498258114
v -0.005437301006168127 -0.004179312381893396 -0.0019525152165442705
v -0.004733182489871979 -0.0029499991796910763 -0.003110170364379883
v -0.004354753997176886 -0.00294999941252172 -0.00312171527184546
v -0.004646408837288618 -0.004383498337119818 -0.0017553193029016256
v -0.004072515293955803 -0.0029500003438442945 -0.0031084176152944565
v -0.0036217954475432634 -0.002949998015537858 -0.003043137723580003
v -0.003853107802569866 -0.004449999891221523 -0.0015575278084725142
v -0.0034902256447821856 -0.0029500017408281565 -0.003012974513694644
v 6.280053699292409e-10 -0.007000000216066837 0.0015000065322965384
v -0.0005740245105698705 -0.006999998819082975 0.0013858216116204858
v 2.0693734226195915e-10 -0.007000001613050699 2.3329298493024453e-09
v 0.001385819516144693 -0.0070000020787119865 0.0005740282940678298
v 0.0010606610449030995 -0.006999998353421688 0.0010606643045321107
v 0.0005740260821767151 -0.006999998819082975 0.0013858251040801406
v 0.0010606611613184214 -0.006999999284744263 -0.0010606520809233189
v 0.001385820098221302 -0.006999998819082975 -0.0005740211927331984
v 0.0015000008279457688 -0.006999998819082975 4.607945580659134e-09
v -0.0005740243941545486 -0.006999999284744263 -0.0013858139282092452
v 3.5971395306866327e-10 -0.007000001613050699 -0.0014999945415183902
v 0.0005740254418924451 -0.007000000681728125 -0.0013858176534995437
v -0.0014999991981312633 -0.006999999284744263 6.586247103257392e-09
v -0.0013858190504834056 -0.007000001147389412 -0.0005740235792472959
v -0.0010606595315039158 -0.00699999975040555 -0.0010606531286612153
v -0.001060659415088594 -0.006999998819082975 0.0010606632567942142
v -0.0013858184684067965 -0.006999999284744263 0.0005740324268117547
v -0.00011108059698017314 -0.0019499982008710504 -0.0007876242161728442
v 0.0015386821469292045 -0.0019500001799315214 -0.000496728578582406
v -0.00011380268551874906 -0.002145207254216075 -0.0008079984108917415
v 0.0015345941064879298 -0.002170777879655361 -0.0005225030472502112
v -0.0001210935806739144 -0.0023217033594846725 -0.0008625767659395933
v 0.0015195646556094289 -0.002377485390752554 -0.0005975552485324442
v 0.0014884836273267865 -0.002558734267950058 -0.000715388567186892
v -0.00013452835264615715 -0.0025060479529201984 -0.000963148195296526
v 0.0014556162059307098 -0.0026614938396960497 -0.0008132674847729504
v -0.0001518083445262164 -0.00265669752843678 -0.0010925035458058119
v 0.0014319075271487236 -0.00271202833391726 -0.0008734469301998615
v 0.0013439645990729332 -0.002825007773935795 -0.0010549069847911596
v -0.0001965621195267886 -0.0028709829784929752 -0.001427525538019836
v 0.0009158322936855257 -0.002950355177745223 -0.0016219763783738017
v -0.0002499994297977537 -0.00294999941252172 -0.00182754872366786
v 0.0010469146072864532 -0.002943044062703848 -0.0014792920555919409
v 0.0012156639713793993 -0.0029030076693743467 -0.001261484925635159
v -0.0007424468640238047 -0.00294999941252172 -0.004221300128847361
v -0.0011587399058043957 -0.002950001507997513 -0.004387230146676302
v -0.001879807678051293 -0.002950000111013651 -0.004578873980790377
v -0.0025086586829274893 -0.002950001507997513 -0.0026557983364909887
v -0.0016227179439738393 -0.00294999941252172 -0.0021024751476943493
v -0.0008710695547051728 -0.0029499989468604326 -0.001377166947349906
v -0.00871188286691904 -0.0029499996453523636 -0.005858082789927721
v -0.0007400193717330694 -0.00294999941252172 -0.0012143392814323306
v -0.0006639061612077057 -0.00294999941252172 -0.0013257074169814587
v -0.0006112275295890868 -0.002950000111013651 -0.0013974447501823306
v 0.0009139127796515822 -0.0029499991796910763 -0.0019822362810373306
v 0.0009034192189574242 -0.0029499982483685017 -0.002084777457639575
v 0.0008576925611123443 -0.0029499996453523636 -0.002341478830203414
v 0.00038534836494363844 -0.002950000111013651 -0.0033357415813952684
v 0.00013485777890309691 -0.0029499989468604326 -0.0036202992778271437
v -0.000528368225786835 -0.0029499991796910763 -0.0015036341501399875
v -0.00046696356730535626 -0.0029499998781830072 -0.0015782469417899847
v -0.00014826316328253597 -0.002949998714029789 -0.0038677947595715523
v -0.0004805922508239746 -0.0029499989468604326 -0.004088066052645445
v -0.009350823238492012 -0.002950000111013651 -0.002928264671936631
v 0.0007508386042900383 -0.002950000111013651 -0.0026875571347773075
v 0.0005903670098632574 -0.002949998714029789 -0.0030257466714829206
v -0.009286236017942429 -0.002950000111013651 -0.005853746552020311
v -0.009816854260861874 -0.0029499998781830072 -0.005633869208395481
v -0.01022593304514885 -0.002950000809505582 -0.005230688489973545
v -0.010262105613946915 -0.0029499982483685017 -0.0035921866074204445
v -0.009871218353509903 -0.0029499996453523636 -0.003171345219016075
v -0.01046617142856121 -0.002949998714029789 -0.004129089880734682
v -0.010453494265675545 -0.002949998714029789 -0.004703314043581486
v -0.00011108086619060487 0.0019499994814395905 -0.0007876249146647751
v 0.0015386816812679172 0.0019499975023791194 -0.000496729277074337
v -0.00019752857042476535 0.002873881021514535 -0.001434755278751254
v -0.0002499993424862623 0.0029499991796910763 -0.001827544765546918
v 0.0009158315369859338 0.002949843881651759 -0.001621980918571353
v -0.0001518175849923864 0.002656764118000865 -0.0010925732785835862
v -0.0001729334326228127 0.002779964590445161 -0.001250642933882773
v 0.0012475707335397601 0.0028891859110444784 -0.0012147765373811126
v 0.001127846771851182 0.002929553622379899 -0.0013803140027448535
v -0.00019695833907462656 0.0028721780981868505 -0.0014304902870208025
v 0.0012864629970863461 0.0028679324313998222 -0.001153765944764018
v 0.001394076505675912 0.002770580118522048 -0.0009573003044351935
v 0.0014570698840543628 0.0026574586518108845 -0.0008088891045190394
v -0.00012164477811893448 0.002331499010324478 -0.00086670444579795
v 0.001461178995668888 0.002646912354975939 -0.0007976014167070389
v 0.0015052107628434896 0.0024783709086477757 -0.0006559448083862662
v 0.0015375814400613308 0.0020696099381893873 -0.0005042103002779186
v 0.0015281439991667867 0.0022844441700726748 -0.0005570582579821348
v -0.0034902249462902546 0.0029500003438442945 -0.003012971254065633
v -0.00385310803540051 0.004449999891221523 -0.001557531883008778
v -0.0036217961460351944 0.0029499989468604326 -0.003043140983209014
v -0.004660819657146931 0.004381044767796993 -0.0017589161871001124
v -0.004083472304046154 0.0029499989468604326 -0.0031093142461031675
v -0.004354753997176886 0.002950000809505582 -0.0031217115465551615
v -0.005446513183414936 0.00417606346309185 -0.0019548069685697556
v -0.004741611424833536 0.002950000576674938 -0.0031095603480935097
v -0.006188774015754461 0.003840641351416707 -0.002139878459274769
v -0.0052703432738780975 0.0029500010423362255 -0.003044273005798459
v -0.0011587393237277865 0.002950000576674938 -0.004387226887047291
v -0.0007424472714774311 0.00294999941252172 -0.004221303388476372
v -0.0018798073288053274 0.002950000111013651 -0.004578870255500078
v -0.002508658217266202 0.002950000576674938 -0.0026557950768619776
v -0.0004291512304916978 0.00294999941252172 -0.0016209634486585855
v -0.0005286229425109923 0.002950000111013651 -0.0015017689438536763
v -0.0008710699621587992 0.0029499998781830072 -0.0013771706726402044
v -0.00037857663119211793 0.0029499996453523636 -0.0040275780484080315
v -5.320506897987798e-05 0.00294999941252172 -0.0037927667144685984
v 0.00020411156583577394 0.002950000809505582 -0.0035497848875820637
v -0.001622718176804483 0.00294999941252172 -0.0021024788729846478
v -0.000609011622145772 0.002950000111013651 -0.0013994952896609902
v -0.0006167396786622703 0.0029499989468604326 -0.0013893116265535355
v -0.0007401092443615198 0.0029499996453523636 -0.0012144565116614103
v -0.008711881935596466 0.0029499991796910763 -0.0058580865152180195
v 0.0004483764641918242 0.0029499989468604326 -0.0032493919134140015
v 0.0006474106921814382 0.0029499984811991453 -0.0029178361874073744
v 0.0007944679236970842 0.002950000576674938 -0.0025656481739133596
v 0.0008859977242536843 0.002950000809505582 -0.002202714327722788
v 0.0009213189478032291 0.002950000111013651 -0.0018358242232352495
v -0.010262105613946915 0.0029500003438442945 -0.003592190332710743
v -0.01046617142856121 0.0029500017408281565 -0.004129086155444384
v -0.010453494265675545 0.002950000111013651 -0.004703317768871784
v -0.009350822307169437 0.002950000111013651 -0.0029282609466463327
v -0.009286236949265003 0.0029499989468604326 -0.0058537498116493225
v -0.009871219284832478 0.00294999941252172 -0.00317134871147573
v -0.009816853329539299 0.0029500003438442945 -0.005633865483105183
v -0.010225932113826275 0.00294999941252172 -0.005230684764683247
v 6.400253105276477e-10 0.007000000216066837 0.0015000024577602744
v 0.0005740255583077669 0.00699999975040555 0.001385821495205164
v 6.783223982509412e-10 0.007000000216066837 5.632712074543633e-09
v -0.0013858187012374401 0.006999998819082975 0.0005740287597291172
v -0.0010606591822579503 0.007000001147389412 0.0010606668656691909
v -0.0005740242777392268 0.006999999284744263 0.0013858256861567497
v -0.0010606592986732721 0.007000000216066837 -0.0010606572031974792
v -0.0013858187012374401 0.007000000681728125 -0.0005740203196182847
v -0.001499999430961907 0.006999998819082975 2.9619546815240483e-09
v 0.0005740257911384106 0.006999999284744263 -0.001385814044624567
v 2.572543567058716e-10 0.006999998819082975 -0.0014999984996393323
v -0.000574024859815836 0.006999998819082975 -0.0013858175370842218
v 0.0015000004786998034 0.00699999975040555 9.940461787039112e-10
v 0.0013858202146366239 0.007000001147389412 -0.0005740175256505609
v 0.0010606608120724559 0.006999999284744263 -0.0010606556897982955
v 0.0010606609284877777 0.00699999975040555 0.0010606683790683746
v 0.0013858199818059802 0.00699999975040555 0.000574031553696841
v -0.0011390456929802895 -0.004367109388113022 0.001441148342564702
v -0.0011120577109977603 -0.0043532331474125385 0.0015843578148633242
v -0.0010499991476535797 -0.004288239870220423 0.001543228980153799
v -0.0010655898367986083 -0.004314111545681953 0.0019478220492601395
v -0.0010499992640689015 -0.004269185476005077 0.0023150481283664703
v -0.0013012058334425092 -0.004413639660924673 0.0008611878147348762
v -0.0010499994968995452 -0.0041422005742788315 0.0007531308801844716
v -0.001402523834258318 -0.0044288779608905315 0.0006031740922480822
v -0.0010499997297301888 -0.003808926558122039 -0.00011781887587858364
v -0.0016062407521530986 -0.004445161670446396 0.0001912098377943039
v -0.000960349861998111 -0.003191861789673567 -0.0011036219075322151
v -0.000932203431148082 -0.003151139011606574 -0.0011337045580148697
v -0.0008304801885969937 -0.0030330982990562916 -0.001195302465930581
v -0.0010217152303084731 -0.0033091395162045956 -0.000991511158645153
v -0.0009849781636148691 -0.003232514252886176 -0.0010691590141505003
v -0.002019699430093169 -0.004450000356882811 -0.0004124657716602087
v -0.001829603803344071 -0.004449998494237661 -0.00016443328058812767
v -0.0010499979835003614 -0.003442479530349374 -0.0008065710426308215
v -0.0010319710709154606 -0.0033377353101968765 -0.0009578826720826328
v -0.0031660106033086777 -0.004449998959898949 -0.0013075030874460936
v -0.003073042258620262 -0.004449998028576374 -0.0012604502262547612
v -0.0023855066392570734 -0.004450001288205385 -0.0007871167035773396
v -0.0025458529125899076 -0.004449998028576374 -0.0009201812790706754
v -0.0002499989641364664 -0.0019499995978549123 -0.000799702771473676
v -0.0003614647139329463 -0.0028780633583664894 -0.0014285336947068572
v -0.000521236564964056 -0.0029147982131689787 -0.0014138640835881233
v -0.0004890952841378748 -0.0026786834932863712 -0.0010711478535085917
v -0.0006453066016547382 -0.002727174898609519 -0.0010234354995191097
v -0.0009840070270001888 -0.003180338302627206 -0.0009876800468191504
v -0.0007914983434602618 -0.0029534653294831514 -0.0011373590677976608
v -0.0010499991476535797 -0.0019579988438636065 2.0435761882708903e-07
v -0.001049998914822936 -0.0019499978516250849 2.2298600299563986e-07
v -0.0009915631962940097 -0.0019500007620081306 -0.00029991293558850884
v -0.001049998914822936 -0.0024856829550117254 -8.248177618952468e-05
v -0.0009779682150110602 -0.0022361138835549355 -0.0003583453071769327
v -0.000978429103270173 -0.0019499985501170158 -0.00033052012440748513
v -0.0010499991476535797 -0.0030792958568781614 -0.0004043546796310693
v -0.0009818930411711335 -0.0029935408383607864 -0.0007610207539983094
v -0.0010499991476535797 -0.0029034672770649195 -0.0002765426761470735
v -0.0009801307460293174 -0.0027682450599968433 -0.0005768073024228215
v -0.0009788036113604903 -0.0025123385712504387 -0.000441567855887115
v -0.0007837079465389252 -0.0027980520389974117 -0.0009536422439850867
v -0.0007674311054870486 -0.0019500000635161996 -0.0006099111051298678
v -0.0007693513762205839 -0.002180973067879677 -0.0006312352488748729
v -0.0007723942981101573 -0.002404604572802782 -0.0006972686969675124
v -0.0007772434037178755 -0.002612927695736289 -0.0008053447818383574
v -0.0004249907215125859 -0.001949999830685556 -0.0007804014603607357
v -0.00045958810369484127 -0.0019499986665323377 -0.0007718330598436296
v -0.00046150278649292886 -0.0021486266050487757 -0.0007911293068900704
v -0.00046731793554499745 -0.002340869512408972 -0.0008485643775202334
v -0.0004766247875522822 -0.002519829897210002 -0.0009424564777873456
v -0.0003221095248591155 -0.0026549079921096563 -0.0010944860987365246
v -0.000249997217906639 0.0019500015769153833 -0.0007995747146196663
v -0.00042499040137045085 0.0019500013440847397 -0.0007804029155522585
v -0.0004674058291129768 0.002341012004762888 -0.0008479117532260716
v -0.0005212497781030834 0.00291523989289999 -0.001413709600456059
v -0.0005042307893745601 0.002812242368236184 -0.0012301147216930985
v -0.000791531871072948 0.002953482558950782 -0.0011373417219147086
v -0.0007939349161460996 0.002997742500156164 -0.0012059652945026755
v -0.0009855463868007064 0.0032327137887477875 -0.0010695622768253088
v -0.0009623175719752908 0.003194274613633752 -0.0011022231774404645
v -0.00098459015134722 0.0031803154852241278 -0.0009876969270408154
v -0.0009337903466075659 0.003152950666844845 -0.0011327872052788734
v -0.0008313256548717618 0.003034008899703622 -0.0011949078179895878
v -0.0010499977506697178 0.003442480694502592 -0.0008065687143243849
v -0.001032136962749064 0.003337499452754855 -0.0009584837825968862
v -0.0010224353754892945 0.003310138126835227 -0.000990812899544835
v -0.0009787102462723851 0.002236100612208247 -0.000358383433194831
v -0.001049999613314867 0.0024710611905902624 -7.801847095834091e-05
v -0.0010499993804842234 0.0027562619652599096 -0.00019345423788763583
v -0.0003221102524548769 0.002654987620189786 -0.0010942885419353843
v -0.0004891484277322888 0.0026790013071149588 -0.0010707223555073142
v -0.0007837473531253636 0.002798057859763503 -0.0009536107536405325
v -0.0009825276210904121 0.002993515459820628 -0.0007610382745042443
v -0.0007772897370159626 0.002612924436107278 -0.0008052982157096267
v -0.0004766971687786281 0.0025200615637004375 -0.000941902631893754
v -0.0006289795855991542 0.0023663050960749388 -0.0007880161865614355
v -0.0006232123705558479 0.0019499987829476595 -0.000707386527210474
v -0.0010499994968995452 0.001949999830685556 2.2233001573113143e-07
v -0.0009915630798786879 0.001950000529177487 -0.0002999143616762012
v -0.0009786015143617988 0.0019499993650242686 -0.0003301386605016887
v -0.0007694061496295035 0.002180966082960367 -0.0006311762845143676
v -0.0007674310472793877 0.0019500012276694179 -0.0006099125021137297
v -0.0010499991476535797 0.0030837953090667725 -0.0004081863444298506
v -0.0009808121249079704 0.002768218982964754 -0.0005768303526565433
v -0.0009795220103114843 0.002512318780645728 -0.0004415973962750286
v -0.0007724464521743357 0.002404598519206047 -0.0006972221890464425
v -0.0002956524258479476 0.0023296442814171314 -0.0008749600383453071
v -0.001049999613314867 0.0034335735253989697 -0.0007932602893561125
v -0.002019698964431882 0.004450000822544098 -0.00041246257023885846
v -0.0018296042690053582 0.004449999425560236 -0.00016443697677459568
v -0.0016062402864918113 0.004445160273462534 0.00019121642981190234
v -0.001049998914822936 0.0038029032293707132 -0.0001305317273363471
v -0.001049999613314867 0.0039510345086455345 0.00020436232443898916
v -0.0014025234850123525 0.004428878426551819 0.0006031774100847542
v -0.0013012062991037965 0.004413641057908535 0.000861184555105865
v -0.0010499993804842234 0.004148751962929964 0.0007763453177176416
v -0.0010499990312382579 0.004219630733132362 0.0010675574885681272
v -0.0011390452273190022 0.004367108456790447 0.0014411542797461152
v -0.0010499993804842234 0.004290782380849123 0.0015766380820423365
v -0.0010499991476535797 0.0043001300655305386 0.0018544261110946536
v -0.001065625692717731 0.0043141585774719715 0.0019474016735330224
v -0.0010499997297301888 0.004269185476005077 0.002315046265721321
v -0.0023855064064264297 0.004449999891221523 -0.0007871134439483285
v -0.002545853378251195 0.004449999891221523 -0.0009201849461533129
v -0.0031660113018006086 0.004449998959898949 -0.001307506812736392
v -0.003073042957112193 0.004449999891221523 -0.0012604538351297379
v -0.00871188286691904 -0.004949998576194048 -0.005858087912201881
v -0.009286236017942429 -0.004949997644871473 -0.005853744223713875
v -0.009816854260861874 -0.0049500009045004845 -0.005633866414427757
v -0.01022593304514885 -0.004949998110532761 -0.0052306861616671085
v -0.010453494265675545 -0.004950001370161772 -0.0047033182345330715
v -0.01046617142856121 -0.00494999997317791 -0.004129087086766958
v -0.01026210654526949 -0.0049500009045004845 -0.0035921907983720303
v -0.009871219284832478 -0.004950002301484346 -0.003171349409967661
v -0.009350823238492012 -0.004950001370161772 -0.0029282616451382637
v -0.003853107802569866 -0.004949998576194048 -0.001557529321871698
v -0.003073042491450906 -0.004950000438839197 -0.0012604509247466922
v -0.0023855064064264297 -0.00494999997317791 -0.0007871181587688625
v -0.0018296042690053582 -0.0049500009045004845 -0.00016443397908005863
v -0.0014025240670889616 -0.0049500009045004845 0.0006031730445101857
v -0.0010499994968995452 -0.0049499995075166225 0.0023150441702455282
v -0.0011390459258109331 -0.004950001835823059 0.0014411485753953457
v 0.0022000004537403584 -0.004621994681656361 0.005545394495129585
v 0.002200000686571002 -0.004254162777215242 0.005875441245734692
v -0.0010499997297301888 -0.004254163708537817 0.005875435192137957
v -0.0010499993804842234 -0.004621994215995073 0.005545395892113447
v -0.0010499991476535797 -0.004865624010562897 0.005105203948915005
v 0.002200000686571002 -0.004865624476224184 0.005105202551931143
v -0.0010499993804842234 -0.0049499995075166225 0.004609213210642338
v 0.0022000004537403584 -0.00494999997317791 0.004609211813658476
v -0.001879807678051293 -0.004950001370161772 -0.004578871186822653
v 0.001634286716580391 -0.0035953412298113108 -0.0019406266510486603
v 0.0015934230759739876 -0.0034462055191397667 -0.0019223005510866642
v 0.0017642818856984377 -0.0034338978584855795 -0.0015730225713923573
v 0.0010778451105579734 -0.002967208158224821 -0.0016670690383762121
v 0.0017046999419108033 -0.0027544545009732246 -0.0008014053455553949
v 0.0017525041475892067 -0.002585850190371275 -0.0006310553872026503
v 0.001780173392035067 -0.0023890542797744274 -0.0005051959888078272
v 0.0017940681427717209 -0.002174052409827709 -0.00042855794890783727
v 0.001860231626778841 -0.001950001809746027 -0.00036307639675214887
v 0.0016290216008201241 -0.0028845483902841806 -0.0010095969773828983
v 0.0015212245052680373 -0.002970638684928417 -0.001244681770913303
v 0.0013812989927828312 -0.0030130285304039717 -0.0014905601274222136
v 0.0012103108456358314 -0.003013819456100464 -0.0017338946927338839
v 0.0010114980395883322 -0.0029788734391331673 -0.00196931348182261
v 0.0009142134804278612 -0.0029740827158093452 -0.0023027074057608843
v 2.3566035451949574e-05 -0.003013616893440485 -0.0037512120325118303
v -2.838336513377726e-05 -0.0032219085842370987 -0.0038244782481342554
v -0.00017166606266982853 -0.003164018038660288 -0.003916654735803604
v 0.0019012799020856619 -0.0033677229657769203 -0.0012198284966871142
v 0.0020263849291950464 -0.003567054169252515 -0.0009695322369225323
v 0.0011063533602282405 -0.00319191487506032 -0.0025028090458363295
v 0.0010219929972663522 -0.0030680415220558643 -0.002407859079539776
v 0.0013300094287842512 -0.0032686961349099874 -0.002204387215897441
v 0.0012433144729584455 -0.0031454165000468493 -0.0021349438466131687
v 0.0015276956837624311 -0.003308657556772232 -0.0018910866929218173
v 0.0014395384350791574 -0.003187910420820117 -0.001848074491135776
v 0.0016073522856459022 -0.003188126953318715 -0.0015520157758146524
v 0.0013918208424001932 -0.0034121363423764706 -0.0022606346756219864
v 0.0014261541655287147 -0.0035695142578333616 -0.0023013607133179903
v 0.0011630316730588675 -0.003339868038892746 -0.0025828261859714985
v 0.0011893236078321934 -0.0035045258700847626 -0.002644060179591179
v 0.0006379931000992656 -0.0031133575830608606 -0.0031581735238432884
v 0.0009277498465962708 -0.00340894958935678 -0.0029632889200001955
v 0.0006452689995057881 -0.0032912488095462322 -0.0032539102248847485
v 0.0006159203476272523 -0.0034811170771718025 -0.003316490212455392
v 1.0947624105028808e-05 -0.0032379182521253824 -0.0037980051711201668
v 0.0020098662935197353 -0.0019499995978549123 -0.00022634738706983626
v 0.0021203274372965097 -0.001950000529177487 -5.642757605528459e-05
v 0.002006171504035592 -0.0022111404687166214 -0.00025797629496082664
v 0.002146785845980048 -0.0022606549318879843 -2.7298598070046864e-05
v 0.0019929988775402308 -0.002461763098835945 -0.00035181481507606804
v 0.002136645372956991 -0.002558295149356127 -0.0001417320891050622
v 0.001966734416782856 -0.002691203262656927 -0.0005057118250988424
v 0.0021145998034626245 -0.0028301009442657232 -0.0003281824756413698
v 0.001921068294905126 -0.002887764712795615 -0.000713635585270822
v 0.0020733557175844908 -0.0030631155241280794 -0.0005782930529676378
v 0.0018482417799532413 -0.003039327450096607 -0.0009672053274698555
v 0.0020040080416947603 -0.0032444975804537535 -0.0008808946586214006
v 0.001743813045322895 -0.00313936616294086 -0.0012530782260000706
v 0.0005944135482423007 -0.002958958735689521 -0.0030352994799613953
v 0.0020783478394150734 -0.0034765221644192934 -0.0007605745340697467
v 0.00213168584741652 -0.00331876240670681 -0.0004904298693872988
v 0.002172166481614113 -0.0030670545529574156 -0.00019208960293326527
v 0.0021952250972390175 -0.00263677048496902 0.00011659258598228917
v 0.0021993168629705906 -0.0023167836479842663 0.0002363296807743609
v 0.0021997210569679737 -0.0021530711092054844 0.00026846647961065173
v 0.002199718961492181 -0.0019499982008710504 0.00028262558043934405
v 0.0018806291045621037 -0.003695864463225007 -0.001424186397343874
v 0.0018396631348878145 -0.0037144592497497797 -0.0015297674108296633
v 0.001576556940563023 -0.003749561496078968 -0.0020802519284188747
v 0.0013826275244355202 -0.0037251205649226904 -0.002401151228696108
v 0.0011943498393520713 -0.0036804068367928267 -0.0026698410511016846
v 0.0006967263761907816 -0.0035120800603181124 -0.0032392835710197687
v 0.0006903167814016342 -0.003509645350277424 -0.003245540661737323
v 0.0018602325581014156 0.0019500008784234524 -0.00036307054688222706
v 0.002199718728661537 0.0019499994814395905 0.00028262491105124354
v 0.0021203274372965097 0.0019500007620081306 -5.6428994867019355e-05
v 0.00200983346439898 0.0019499982008710504 -0.0002263907517772168
v 0.0013312738155946136 0.003087448887526989 -0.0017961851553991437
v 0.0014384387759491801 0.0031869381200522184 -0.0018493682146072388
v 0.0016072966391220689 0.003188073169440031 -0.001550439279526472
v 0.0009285079431720078 0.0034096427261829376 -0.002962110098451376
v 0.0011887714499607682 0.003503737272694707 -0.002646348439157009
v 0.0011624086182564497 0.0033391553442925215 -0.002585006644949317
v 0.001105675706639886 0.003191240830346942 -0.00250486982986331
v 0.0013902313075959682 0.003410488599911332 -0.002264502225443721
v 0.0016287340549752116 0.0028843891341239214 -0.0010096065234392881
v 0.001704305992461741 0.002754259156063199 -0.0008019628003239632
v 2.2556985641131178e-05 0.003012655768543482 -0.003753173165023327
v -0.0005494553479366004 0.0030182122718542814 -0.004129243548959494
v -0.00017135693633463234 0.003163584740832448 -0.0039177932776510715
v -2.9228733183117583e-05 0.0032209381461143494 -0.0038265003822743893
v 0.0010768454521894455 0.002966466126963496 -0.001667930744588375
v 0.0009134922293014824 0.0029734831769019365 -0.002304503694176674
v 0.0012092572869732976 0.003012970555573702 -0.0017349689733237028
v 0.0013812537072226405 0.003012968460097909 -0.0014892042381688952
v 0.0015213362639769912 0.002970734378322959 -0.0012432761723175645
v 0.0017524103168398142 0.0025859116576611996 -0.0006309901946224272
v 0.0017802977235987782 0.0023892673198133707 -0.0005046591395512223
v 0.0017941060941666365 0.002174148801714182 -0.00042830785969272256
v 0.0012416013050824404 0.0031439035665243864 -0.002138500101864338
v 0.0011338585754856467 0.0030459801200777292 -0.0020587104372680187
v 0.0010212846100330353 0.0030673989094793797 -0.002409794833511114
v 0.0013837801525369287 0.0037238532677292824 -0.0024015887174755335
v 0.0015924065373837948 0.003445192240178585 -0.0019236624939367175
v 0.0015870326897129416 0.0037486583460122347 -0.002061795676127076
v 0.0017642548773437738 0.0034339302219450474 -0.0015712567837908864
v 0.0006459937430918217 0.003292056731879711 -0.003252154216170311
v 0.0006386931054294109 0.0031141561921685934 -0.0031564529053866863
v 0.0005950900376774371 0.0029597256798297167 -0.003033604007214308
v 0.00016506116662640125 0.003300286829471588 -0.003690215526148677
v 0.0006166573730297387 0.003481954336166382 -0.0033146818168461323
v 0.0006892303936183453 0.0035098847001791 -0.003245392581447959
v 0.0007522655068896711 0.003533651353791356 -0.0031828980427235365
v 0.001225984888151288 0.003688093740493059 -0.0026291245594620705
v 0.0017439229413866997 0.0031394963152706623 -0.001251460169441998
v 0.0019014178542420268 0.0033679448533803225 -0.001218026620335877
v 0.0018479456193745136 0.003039156086742878 -0.0009672350133769214
v 0.002003771485760808 0.0032443515956401825 -0.0008809168357402086
v 0.001920662703923881 0.002887551672756672 -0.0007143129478208721
v 0.0020730237010866404 0.0030629062093794346 -0.0005790385766886175
v 0.001966640120372176 0.002691286150366068 -0.000505649542901665
v 0.00211456511169672 0.0028302203863859177 -0.0003281179233454168
v 0.001993137877434492 0.002462017349898815 -0.00035119365202263
v 0.00213682372123003 0.002558603184297681 -0.00014104749425314367
v 0.002006236696615815 0.0022112568840384483 -0.0002576820843387395
v 0.002146879443898797 0.0022607941646128893 -2.695616967685055e-05
v 0.0021986498031765223 0.0024349212180823088 0.00020193078671582043
v 0.0021946937777101994 0.0026678740978240967 0.00010151162859983742
v 0.0021862040739506483 0.002883866196498275 -3.5424767702352256e-05
v 0.0021442559082061052 0.003260220168158412 -0.00041087259887717664
v 0.0020431361626833677 0.003542001359164715 -0.000905218068510294
v 0.001974557526409626 0.003628277452662587 -0.0011470415629446507
v 0.0018794741481542587 0.0036968488711863756 -0.0014252645196393132
v 0.0018681122455745935 0.003702454501762986 -0.0014552428619936109
v -0.008711881935596466 0.00494999997317791 -0.005858081858605146
v -0.009286236949265003 0.0049499995075166225 -0.005853745155036449
v -0.009816853329539299 0.0049499995075166225 -0.0056338682770729065
v -0.01022593304514885 0.004949998576194048 -0.0052306875586509705
v -0.010453494265675545 0.0049499995075166225 -0.004703320562839508
v -0.010466172359883785 0.004949999041855335 -0.00412908848375082
v -0.010262105613946915 0.00494999997317791 -0.003592192893847823
v -0.009871219284832478 0.00494999997317791 -0.003171344054862857
v -0.009350822307169437 0.0049499995075166225 -0.0029282637406140566
v -0.0038531082682311535 0.004949998576194048 -0.0015575304860249162
v -0.003073042491450906 0.004950000438839197 -0.0012604527873918414
v -0.0023855059407651424 0.004950000438839197 -0.000787112396210432
v -0.0018296039197593927 0.00494999997317791 -0.000164435914484784
v -0.0010499991476535797 0.004950001370161772 0.0023150499910116196
v -0.0011390451109036803 0.004950000438839197 0.0014411539305001497
v -0.0014025232521817088 0.004950001370161772 0.0006031783996149898
v -0.001879807561635971 0.0049499995075166225 -0.004578873049467802
v -0.0010499987984076142 0.004621995147317648 0.005545388907194138
v -0.0010499991476535797 0.004254164639860392 0.005875433795154095
v 0.002200000686571002 0.004254164174199104 0.005875432398170233
v 0.0022000009194016457 0.004621994681656361 0.005545387510210276
v 0.002200000686571002 0.004865625873208046 0.005105194635689259
v -0.0010499992640689015 0.004865626338869333 0.0051051960326731205
v 0.0022000009194016457 0.0049500009045004845 0.004609209951013327
v -0.0010499991476535797 0.0049499995075166225 0.004609211347997189
v 0.002200000686571002 0.0014961899723857641 0.007562396116554737
v 0.002200000686571002 0.0020714353304356337 0.00726165808737278
v 0.0014158382546156645 0.0017901384271681309 0.007424126844853163
v 0.0004944148822687566 0.0020714339334517717 0.007261656690388918
v 0.0004944373504258692 -0.00207143509760499 0.007261664140969515
v 0.0022000004537403584 -0.002071438590064645 0.007261660881340504
v 0.0014158457051962614 -0.0017901441315189004 0.007424128707498312
v 0.0022000009194016457 -0.0014961964916437864 0.007562399376183748
v -0.0010499998461455107 0.0012932638637721539 0.00282103568315506
v -0.0010499997297301888 0.0007800416788086295 0.005566537380218506
v -0.0010499992640689015 0.00016147003043442965 0.005742539651691914
v -0.0010499997297301888 0.0025002281181514263 0.0069893342442810535
v -0.0010499992640689015 -0.0025002346374094486 0.006989336106926203
v -0.0010499990312382579 -0.0010546089615672827 0.0053965370170772076
v -0.0010499990312382579 -0.0014878796646371484 0.004921264480799437
v -0.0010499993804842234 -0.0004789095255546272 0.002316809259355068
v -0.001049999613314867 -0.0004789108061231673 0.0056831976398825645
v -0.0010499991476535797 0.001631826744414866 0.0033678323961794376
v -0.0010499990312382579 0.0017500018002465367 0.00400000624358654
v -0.0010499999625608325 0.0016318244161084294 0.004632176365703344
v -0.0010499991476535797 0.001293266424909234 0.0051789735443890095
v -0.001049999613314867 -0.0017202042508870363 0.0043215686455369
v -0.0010499991476535797 -0.0017202020389959216 0.00367844570428133
v -0.0010499994968995452 -0.0014878816436976194 0.0030787503346800804
v -0.0010499998461455107 -0.0010546118719503284 0.002603472676128149
v -0.0010499992640689015 0.00016146997222676873 0.0022574709728360176
v -0.0010499994968995452 0.0007800407474860549 0.0024334704503417015
v -0.0010606595315039158 -0.0049500009045004845 0.0010606664000079036
v -0.0005740246269851923 -0.0049500009045004845 0.0013858247548341751
v 0.0005740257329307497 -0.004949998576194048 0.0013858202146366239
v 0.0010606609284877777 -0.004950000438839197 0.0010606675641611218
v 0.002200000686571002 -0.004950000438839197 0.00033572694519534707
v 3.2011532313802604e-10 -0.004950000438839197 0.0015000016428530216
v 7.401481094682083e-10 -0.00494999997317791 -0.0014999920967966318
v -0.0005740239867009223 -0.004949998110532761 -0.0013858114834874868
v -0.0011587393237277865 -0.004949999041855335 -0.004387228284031153
v 0.0013858198653906584 -0.004950000438839197 0.0005740306805819273
v 0.0015000005951151252 -0.0049500009045004845 7.784925593057324e-09
v 0.0021503486204892397 -0.0049500009045004845 -0.00036716528120450675
v 0.0018793008057400584 -0.004949998576194048 -0.0014261360047385097
v 0.0013858198653906584 -0.0049500009045004845 -0.0005740180495195091
v 0.0010606608120724559 -0.0049499995075166225 -0.0010606568539515138
v 0.0013846022775396705 -0.00494999997317791 -0.002400896744802594
v 0.0005740258493460715 -0.0049499995075166225 -0.0013858153251931071
v 0.0006898979190737009 -0.004950000438839197 -0.0032448633573949337
v -0.0001716076221782714 -0.004949998110532761 -0.003917691297829151
v -0.0013858187012374401 -0.0049499995075166225 0.000574027537368238
v -0.001499999430961907 -0.0049499995075166225 1.7177487210418008e-09
v -0.001385818817652762 -0.00494999997317791 -0.0005740211927331984
v -0.0010606596479192376 -0.00494999997317791 -0.001060658018104732
v 0.0006898980354890227 0.00494999997317791 -0.003244865220040083
v -0.00017160779680125415 0.0049500009045004845 -0.003917692694813013
v -0.0011587395565584302 0.00494999997317791 -0.004387229681015015
v 0.0013846022775396705 0.0049500009045004845 -0.0024008986074477434
v 0.0018793005729094148 0.004950000438839197 -0.0014261376345530152
v 0.0021503488533198833 0.00494999997317791 -0.0003671672020573169
v 0.0022000009194016457 0.004950000438839197 0.0003357250243425369
v 9.708462922475292e-10 0.004950000438839197 -0.0014999940758571029
v -0.000574024161323905 0.0049500009045004845 -0.0013858131133019924
v -0.001060659415088594 0.004950000438839197 -0.0010606523137539625
v 0.0005740256165154278 0.0049499995075166225 -0.0013858168385922909
v -0.0013858189340680838 0.004949999041855335 -0.0005740227061323822
v -0.0014999990817159414 0.0049500009045004845 7.4658901283442e-09
v -0.0013858183519914746 0.0049500009045004845 0.0005740332999266684
v -0.001060659415088594 0.0049499995075166225 0.0010606644209474325
v -0.0005740245105698705 0.00494999997317791 0.0013858228921890259
v 8.334357648465129e-10 0.00494999997317791 0.0015000073472037911
v 0.0005740259657613933 0.00494999997317791 0.0013858263846486807
v 0.0010606605792418122 0.0049499995075166225 -0.0010606584837660193
v 0.0013858199818059802 0.00494999997317791 -0.0005740199703723192
v 0.001500000711530447 0.00494999997317791 5.862544671941805e-09
v 0.0013858199818059802 0.00494999997317791 0.0005740287597291172
v 0.0010606609284877777 0.004950000438839197 0.0010606655851006508
v 0.002200000686571002 -0.0004789100494235754 0.00231680809520185
v 0.002200000686571002 0.00016146946290973574 0.0022574698086827993
v 0.0022000002209097147 0.0007800402818247676 0.0024334692861884832
v 0.002200000686571002 0.0012932647950947285 0.002821041736751795
v 0.002200000686571002 -0.0014878801302984357 0.004921263549476862
v 0.0022000009194016457 -0.0017202012240886688 0.00432156678289175
v 0.002200000686571002 -0.0017202026210725307 0.003678444540128112
v 0.0022000009194016457 -0.0014878785004839301 0.0030787482392042875
v 0.0022000009194016457 -0.0010546110570430756 0.002603478729724884
v 0.0022000009194016457 0.0017500013345852494 0.004000004846602678
v 0.0022000004537403584 0.0016318261623382568 0.0033678312320262194
v 0.0022000009194016457 -0.0004789099039044231 0.0056832036934792995
v 0.0022000009194016457 -0.00105460942722857 0.005396535620093346
v 0.002200000686571002 0.001631827442906797 0.004632174037396908
v 0.002200000686571002 0.0012932659592479467 0.0051789721474051476
v 0.0022000009194016457 0.0007800425519235432 0.005566543433815241
v 0.0022000004537403584 0.00016146953566931188 0.005742538254708052
vn -0.16774727241949175 0.7071204946031175 0.6869071689159048
vn -0.15036886817936365 0.4376187664645916 0.8864981775054399
vn 0.015033080586677844 0.9019589905141181 0.4315599447571886
vn -0.056130235873871996 0.3608892161887368 0.9309180255314764
vn 0.07456773716382349 0.8985256430747967 0.4325405429682753
vn 0.11349532469500054 0.8876999869138026 0.4462146843231532
vn -0.02214346911530354 0.3219591266779717 0.9464945787083502
vn 0.1132224780826216 0.8934046999876951 0.43475132259341825
vn 0.1111234372939527 -0.886965234524911 0.448268060905689
vn 0.11081000163010582 -0.8952444233708661 0.43157683668392277
vn -0.02449441109048836 -0.3231812044603761 0.9460200488937172
vn 0.07817892681232377 -0.8938816273971899 0.4414336774694753
vn -0.1677452347895846 -0.7071201690284964 0.6869080016701639
vn 0.03731175423187116 -0.8708641936811352 0.49010548778834023
vn -0.14560830273173528 -0.43808921862009664 0.8870603467095215
vn -0.05529214513680951 -0.367613724250653 0.9283334144738811
vn -0.05608562027215782 0.32098564988578754 0.9454219247331246
vn 0.06472382784178705 0.9115706252898551 0.40601702084785696
vn -0.1101767636518377 0.34726802100737175 0.9312711755105656
vn 0.025177419200243745 0.9182444640547243 0.3952128563132374
vn -0.006226594583784121 0.9223128144316002 0.38639397233283784
vn -0.16746338435168404 0.36197986804199267 0.917020495972572
vn -0.03838164041440048 0.9261428710024073 0.37521491464295226
vn -0.0693956283651107 0.9271594189240006 0.368184272700941
vn -0.2569356814601608 0.379269027599761 0.8888976658176884
vn -0.10434757670515565 0.9290764979333231 0.3548639798904833
vn -1.323986808548206e-06 -0.6657180464294369 0.7462033788830102
vn -0.28556202498317856 -0.6657193189265136 0.6893998246993724
vn 1.3282168978901301e-08 -0.9999999999999348 3.608769480061499e-07
vn 0.689399623427491 -0.6657209675102922 0.2855586675889809
vn 0.5276454640686321 -0.6657172777712482 0.5276464444347523
vn 0.2855620035951014 -0.6657171251570259 0.6894019519666421
vn 0.5276468632866483 -0.6657196310714221 -0.5276420760988365
vn 0.6894019768350256 -0.6657175549080597 -0.2855609416975531
vn 0.7462038843433422 -0.6657174798587536 -1.1907584064266615e-06
vn -0.285561585178779 -0.6657171604525982 -0.6894020911986795
vn -3.0979900648601846e-06 -0.6657197464421628 -0.746201862224549
vn 0.2855610825300285 -0.6657173733159046 -0.6894020938535441
vn -0.7462032569851992 -0.6657181830634448 1.8403330016191948e-06
vn -0.6894012395726212 -0.6657187483666435 -0.2855599393277757
vn -0.5276427318649662 -0.6657192489430451 -0.5276466896482751
vn -0.5276441144774751 -0.6657185618682779 0.5276461739094797
vn -0.6894015521052903 -0.6657177802974079 0.2855614416385884
vn 0.13046460936922916 0.05070608940590379 -0.9901554818306542
vn 0.27492050127662504 0.059719691517314814 -0.9596104816137045
vn 0.07113389207536683 0.18589639167298402 -0.9799910718782976
vn 0.25575159976882733 0.21203026716637977 -0.9432042647385767
vn 0.0498035467267483 0.38694229401825886 -0.9207579854844181
vn 0.2441755169455121 0.4112766748954443 -0.8781969104997688
vn 0.22290543418096986 0.5750621881336245 -0.7871573204840066
vn 0.035613976535010486 0.5677390808890945 -0.8224378278669885
vn 0.20467876881611016 0.6704470385960088 -0.7131671403210913
vn 0.05311009284616736 0.7617104311638105 -0.6457372043595702
vn 0.20051234920198965 0.7482619998630657 -0.6323755034616891
vn 0.17429944089722005 0.8433418214823805 -0.5083249718848144
vn 0.0002895985161527488 0.9217940045740574 -0.38767993146927576
vn 0.038457640011466315 0.9982731729546573 -0.044403626921563716
vn -0.016997351291103694 0.9979688821199235 -0.061393813771397264
vn 0.10902242557316023 0.976964211489073 -0.18345310079602967
vn 0.13777812132689296 0.9264329586442356 -0.35034149400452114
vn 0.30193363700638565 0.694029158534024 -0.6535744838567757
vn 0.22618689503342035 0.6939074321530672 -0.6836168255081768
vn 0.15780181161534065 0.6988000441018808 -0.6976941210975809
vn -0.15786011023955612 0.9324933887882108 0.32486345664207
vn -0.22262852510479722 0.9321117498220398 0.2856645334187601
vn -0.2744075812050398 0.9286106782227793 0.24976526513474426
vn 0.0644973499374115 0.686088004503108 -0.7246539463274828
vn -0.5642777044638527 0.8005166150430378 -0.20190052324112884
vn -0.3355409943187162 0.9105621515053537 -0.24143075482951357
vn -0.23584355996701406 0.9437242483615692 -0.23186711340006058
vn 0.13636130480998424 0.9903586900229044 -0.02439794349193292
vn 0.17580710260300833 0.9836756261855246 -0.038394337119576454
vn 0.2469415709000659 0.966619614726649 -0.06831091411416063
vn 0.4184953604420986 0.8372452117788424 -0.3519688745355753
vn 0.4267301913187346 0.7921003391942829 -0.43643830774277603
vn -0.15385869916151293 0.9771067987349766 -0.14693469487569183
vn -0.10674778981182792 0.9873594420688883 -0.11715904372989379
vn 0.3883110902034706 0.744260400162022 -0.5434068033947117
vn 0.3433523473901341 0.6847480765049213 -0.6428290886888173
vn -0.24307691224579647 0.6860881253418241 0.6857089025220474
vn 0.34785081255353967 0.9239050342725926 -0.15937157792906995
vn 0.36047349752994823 0.91059341926613 -0.20218427824077748
vn -0.14826153203628348 0.6664451862869125 -0.7306636242439174
vn -0.4119984098927901 0.6664451086052815 -0.6213760757077046
vn -0.6153281341424777 0.6664444425347115 -0.42097873146672693
vn -0.6333041229470434 0.6664481545972959 0.39341167381273173
vn -0.43901990809191144 0.6664454255076853 0.6025877654905134
vn -0.7347334465108106 0.6664463525935757 0.12655442186294893
vn -0.7284310495754083 0.6664477719796771 -0.15885708431729897
vn 0.13001533887982739 -0.09532439100061624 -0.9869190808451953
vn 0.2811949630168975 -0.028725101804980578 -0.959220653082605
vn -0.0514736324928761 -0.959973981808061 -0.27531875963973956
vn -0.018912608641793397 -0.9979075968498906 -0.061828321856885284
vn 0.04990206096077378 -0.9957432261105283 -0.07749330272265312
vn 0.06545407311345434 -0.6880775313216898 -0.7226790955902265
vn -0.002630807549246712 -0.8339648319766273 -0.5518113245284431
vn 0.16138360854586126 -0.9059311845619348 -0.39146394435621495
vn 0.12835247929808463 -0.9640723113729213 -0.23257304121954403
vn -0.02962492129240777 -0.9104396100989526 -0.4125797867095353
vn 0.15383055770546925 -0.8715835910504319 -0.46548706032247295
vn 0.1878175787264077 -0.8007162103843836 -0.5688392633679757
vn 0.21732825922499238 -0.6933504058580815 -0.6870470452877796
vn 0.10802855997349865 -0.3923927353671552 -0.9134318647064672
vn 0.21201773902277135 -0.6330662122653863 -0.7444969101531778
vn 0.23655032600756856 -0.5175952001954892 -0.8222768098397913
vn 0.2727380147494111 -0.14338705940369867 -0.9513433273566961
vn 0.2572564391438461 -0.3181184454529966 -0.9124800157710837
vn -0.10436550258594378 -0.929075752256914 0.3548606605954409
vn -0.256707731607521 -0.37913044105916927 0.8890226370544232
vn -0.06912194727348525 -0.9272211505454582 0.36808028252852415
vn -0.16675377203118733 -0.36175463207920544 0.9172386634255064
vn -0.037884994130613504 -0.9261062256731344 0.3753558125155181
vn -0.0057777354398704335 -0.9222272008869965 0.3866052349843727
vn -0.10921140975993669 -0.3461998618971325 0.9317824443509618
vn 0.026381450805699314 -0.9184214940846966 0.39472265992291367
vn -0.0563485826109734 -0.3192213781054108 0.9460034614092153
vn 0.06359859384022981 -0.9130939416816476 0.4027588267509695
vn 0.22618208198161213 -0.6939096828499572 -0.6836161333947107
vn 0.2916444969728322 -0.6973441770720211 -0.6547171802306773
vn 0.15780119315915075 -0.6988007578855255 -0.69769354606171
vn -0.1580355294543585 -0.9326967276530574 0.32419374709478715
vn -0.09371890530698997 -0.990356711969395 -0.10203112194437546
vn -0.19464947520431403 -0.9677583614017982 -0.15986036325365807
vn -0.2731408713633475 -0.9289876432096978 0.24975192322495202
vn 0.4091394078330302 -0.6581557206776856 -0.6320094875057446
vn 0.3871401356791772 -0.7702545986843599 -0.5067843412654973
vn 0.4295999095918717 -0.7972989144535528 -0.4239791960578276
vn -0.22198657476622227 -0.9326599027266536 0.28437205641460234
vn -0.20219797883761523 -0.9670125515565813 -0.1549280558388743
vn -0.2269640601216027 -0.9557644973736359 -0.1870869877175814
vn -0.46769043846828245 -0.8729079738250968 -0.1389148048190318
vn 0.0644981688761483 -0.6860868260462794 -0.7246549891757914
vn 0.4076818408432983 -0.8577811198127516 -0.31306080422084387
vn 0.3693414168580993 -0.909464660359709 -0.19094750417340067
vn 0.3309009631840077 -0.9334551672909299 -0.13844133494646021
vn 0.18060592881124538 -0.9819814629432201 -0.05562288121016757
vn 0.05928736377459927 -0.998231164476778 -0.004421624587629292
vn -0.6333064417631481 -0.6664450836497757 0.3934131432735104
vn -0.7347384177849215 -0.6664403631205458 0.12655710108352436
vn -0.7284334631245473 -0.666444933473661 -0.15885792535365126
vn -0.24307789701243554 -0.6860860237368444 0.6857106561932504
vn -0.14826667983739522 -0.6664441400108384 -0.730663533984836
vn -0.43902303289851496 -0.666447001619874 0.602583745728732
vn -0.41200197631966257 -0.666445614624241 -0.6213731682787804
vn -0.6153246052287452 -0.6664472819628473 -0.420979394465361
vn 2.3743755875718634e-06 0.6657206487560573 0.7462010572320149
vn 0.28555710014957386 0.6657199719410468 0.6894012340524045
vn -7.766686642224293e-08 0.9999999999999831 -1.6648470155511212e-07
vn -0.6894025239361713 0.6657183378506115 0.2855577956208799
vn -0.5276452495033925 0.6657193786947858 0.5276440083112199
vn -0.2855577543734161 0.6657176223549071 0.6894032319356656
vn -0.5276448111371197 0.6657188685476264 -0.5276450903208912
vn -0.6894011280678125 0.6657197298228724 -0.28555792047041784
vn -0.7462033306346803 0.6657181005121763 4.12380924961278e-07
vn 0.2855600584053669 0.6657194381254009 -0.6894005241842539
vn 1.8674137347392702e-06 0.6657170489396699 -0.7462042687813908
vn -0.28556015085190634 0.6657173476110295 -0.6894025045901505
vn 0.7462028043247239 0.6657186904521553 -7.651115564240206e-07
vn 0.6894002897418676 0.6657203007247482 -0.2855586134347545
vn 0.527645128514466 0.6657182824629552 -0.527645512393999
vn 0.5276439594396398 0.6657173900049176 0.5276478074548402
vn 0.6894019407045292 0.6657186951150547 0.285558370788072
vn -0.9129196541068888 0.3565470247461665 0.19862508474514357
vn -0.9173596078527622 0.38533394701203516 0.09984537625925738
vn -0.9194969345469866 0.3910410148390978 0.04015360596887114
vn -0.973500094861826 0.22522063269475204 0.0396639876032573
vn -0.999931210654108 0.0067125045445486945 0.00961853640371262
vn -0.8808154552364609 0.3992569816718656 0.25447592499656563
vn -0.9091334648746382 0.3990656940995599 0.11925986264402431
vn -0.8522854874334472 0.3805888994186094 0.35883357918353026
vn -0.8933290153408555 0.4034100143441435 0.1980495662125908
vn -0.8067015520342687 0.39381119250771957 0.44061928078688245
vn -0.7761821838199676 0.6165796572801054 0.131798117394801
vn -0.7145949380848979 0.6801548985881508 0.16353405880728172
vn -0.7049358542700144 0.697971516172737 0.12609997611473153
vn -0.8141194561148365 0.5450324537989798 0.2003724918274606
vn -0.8049005642567413 0.575501745482928 0.14468179776766207
vn -0.6927551410820307 0.397507099462805 0.6017295242723953
vn -0.759020697379675 0.38574403074621455 0.5244893933083252
vn -0.8566991921783218 0.4707587071720381 0.21083816955836635
vn -0.791985830747575 0.546328595937888 0.2725500122098866
vn -0.3642271917949867 0.3914031667234471 0.8450692952864844
vn -0.45922272803261227 0.3867765281689935 0.7996989454262304
vn -0.6254252187687488 0.38666902481025545 0.6777391540853669
vn -0.5420008197645644 0.39483201477549823 0.7418509226811417
vn -0.030625003326237254 0.0039050822702647405 -0.9995233161381132
vn -0.12459417993372222 0.8776336145171003 -0.4628558404042157
vn -0.3208665291231859 0.8475949950408259 -0.42264334239424844
vn -0.31793080590763817 0.7225356654373185 -0.6138910447514048
vn -0.49028264211390155 0.6741933172924102 -0.5523461792753415
vn -0.9170223989233217 0.3489481556287417 -0.1931452939012901
vn -0.7260584211576915 0.5758933851485445 -0.37574722621484613
vn -0.9954381760222273 0.0035952106990543072 -0.09534103092357692
vn -0.9953880143041788 0.00012757343795049777 -0.09593062443558796
vn -0.9576845667012984 0.0059432572005972 -0.28775848970272594
vn -0.9950962421348037 0.03027745595454748 -0.09416339283454361
vn -0.91335264608581 0.07600826958165711 -0.40001210837079837
vn -0.8661722032694447 0.02347236744863853 -0.4991941127955256
vn -0.9954186465397553 0.06181155135113935 -0.07294552927031953
vn -0.9177143222364901 0.28458381967936786 -0.27715063113534666
vn -0.9953008495812821 0.04995951939624332 -0.08294736430094979
vn -0.9156836098041506 0.22604870956555828 -0.3323033367870172
vn -0.9130526802139942 0.16199127885637551 -0.3742908344169247
vn -0.7122440534602036 0.5036587491493661 -0.48891335910964295
vn -0.6508413165983468 0.035965532514915986 -0.7583614316929951
vn -0.6566236981141027 0.1488714191353772 -0.7393798885820324
vn -0.6600444442106852 0.290806775079115 -0.6926563009420276
vn -0.6720607455713685 0.4259933070621418 -0.6056930382630432
vn -0.16043496782911623 0.03045639533759981 -0.9865764182670851
vn -0.35585950957923856 0.04543181634684704 -0.933434496633508
vn -0.27375655058868203 0.1817098271249867 -0.9444781044238102
vn -0.2758685766796273 0.3723709340979767 -0.8861356644666532
vn -0.29455227062488465 0.5502727461552372 -0.7813058714156054
vn -0.06857672885131517 0.7841279519996321 -0.6167986601419589
vn -0.011811348891167747 -0.09462913832935006 -0.9954425238136132
vn -0.2272078255002211 -0.09323549119672296 -0.9693728628411087
vn -0.3076162579761155 -0.33274939457661173 -0.8914314770287566
vn -0.2935673083743876 -0.8834111451715837 -0.3652437323766809
vn -0.3211888163905734 -0.7950333163267795 -0.5145481222937904
vn -0.6832267635550866 -0.6204332338845895 -0.3850503757348537
vn -0.6757883927512942 -0.7355720743361225 0.047368467142988
vn -0.8052354917569607 -0.5748960046945234 0.1452252960100279
vn -0.7768658236654036 -0.6157823311653702 0.13149757657545033
vn -0.9175127531768251 -0.3461643221058154 -0.19580758376248766
vn -0.7238548715859027 -0.6723474670302759 0.15486448417674217
vn -0.7080643765985536 -0.6970475840873966 0.11300223055331853
vn -0.8539027921350666 -0.47470608536453723 0.21331702721961593
vn -0.7928020567174805 -0.5452554580247493 0.27232587897361826
vn -0.8143563899162564 -0.5442590286535672 0.20150875894520723
vn -0.9095674230106624 -0.07342904963225741 -0.4090174539892478
vn -0.9954959448381353 -0.025614304694490705 -0.09127831728207055
vn -0.9953720409615808 -0.04488046927694711 -0.08497201627275909
vn -0.10811240944071551 -0.6684274874492574 -0.7358779796591252
vn -0.3500589045551437 -0.6722892011151542 -0.6522928739497316
vn -0.6738455033487885 -0.5302639044863193 -0.514540988858557
vn -0.916812625028599 -0.28989986058579814 -0.27461369488884657
vn -0.6694687467377579 -0.41304946294448747 -0.6174153693443712
vn -0.42229412652155957 -0.49599786730131684 -0.7587185158792016
vn -0.4620797908220051 -0.2566527890297211 -0.8488884572175296
vn -0.4570671680391944 -0.08849714228323441 -0.8850185646122527
vn -0.9957858232789373 -0.006531250403987206 -0.09147642824711529
vn -0.9561525508527787 -0.014468970336502103 -0.2925114500239703
vn -0.8663967035223602 -0.024891296715943718 -0.49873557670712276
vn -0.7420329626680435 -0.11576885216161281 -0.6602913411390977
vn -0.6988819382738459 -0.050682966195410545 -0.7134390466551628
vn -0.9953882206423902 -0.062219493713735766 -0.0730138672334437
vn -0.9159030122552717 -0.2234831240168546 -0.3334321001664161
vn -0.9142782158109196 -0.15653563078397065 -0.37362004816212147
vn -0.6973891151541074 -0.2781219481290263 -0.6605275195126139
vn -0.06353018128827477 -0.3941561995091912 -0.9168450285920461
vn -0.9953666359333052 -0.07572786797264251 -0.059249895216219595
vn -0.6808495175404718 -0.4095353567514536 0.6072270794648129
vn -0.762417378673572 -0.39238076549898443 0.514545503879832
vn -0.7910381613550689 -0.41621463460260055 0.4483570064386366
vn -0.8928876501774788 -0.4015988607387307 0.20364184052864484
vn -0.902553592034739 -0.3982535528632212 0.16367993504706482
vn -0.8539284400873928 -0.38109798349309304 0.3543593461267959
vn -0.8776306716713538 -0.3932150195580552 0.2741283504777405
vn -0.9099031935694013 -0.3964131326246894 0.12219986339961808
vn -0.9124543908845333 -0.4015043297962628 0.07887494982812658
vn -0.909198188332348 -0.38837448587380546 0.15007968901698035
vn -0.9135059959754818 -0.4061260052802866 0.02384246530708687
vn -0.9033089959661007 -0.42896922273007143 0.004273611713029569
vn -0.9342963231209601 -0.3547255070235752 0.03549922913982425
vn -0.9999338895485603 -0.006699573139102674 0.009345172659776416
vn -0.6314023324151349 -0.3904484757847808 0.6699858822229533
vn -0.5415256545651325 -0.3939243936898078 0.7426799697742776
vn -0.3642237708194975 -0.39140521071274564 0.8450698230305809
vn -0.46021774000377896 -0.385758444886912 0.7996186928681979
vn 0.0644936822652431 -0.6860851502063406 -0.724656975136659
vn -0.1482655247954433 -0.6664460773272691 -0.730662001319507
vn -0.4119927322426569 -0.6664561852534422 -0.6213679600016885
vn -0.6153263789843914 -0.6664450497313028 -0.4209803356626039
vn -0.7284303621707597 -0.6664479758429411 -0.1588593810973155
vn -0.7347364486824172 -0.6664426363224788 0.1265565623312118
vn -0.6333072513863998 -0.6664448494905443 0.39341223662836106
vn -0.4390216497959698 -0.6664481323009949 0.6025835028964374
vn -0.2430788378818725 -0.6860868367928197 0.6857095091608553
vn -0.2049681835004191 -0.7193199857719802 0.6637520635158407
vn -0.31722534743389225 -0.7288372277463506 0.6067655019828176
vn -0.45457720796301937 -0.7260556407689482 0.5159484165186843
vn -0.5634694882510968 -0.7231520753949956 0.39944112414967675
vn -0.63594009123509 -0.7235317785089932 0.26848084819502216
vn -0.69883509376127 -0.7147105449684212 0.028606793574588712
vn -0.6716009311132171 -0.7265485540703648 0.14518742337448587
vn 0.6715375295786794 -0.5796396210058985 0.46157908978581647
vn 0.6889685480830907 -0.43780515615970034 0.5776235668601643
vn -0.6889702383831379 -0.4378018430206206 0.5776240618863017
vn -0.6715363499538842 -0.5796386973954191 0.461581965822275
vn -0.6712357229937987 -0.6995496556995049 0.2450977017185107
vn 0.671236841239571 -0.6995487282531123 0.2450972863215269
vn -0.6886474961318472 -0.7225243471902474 0.061017979224521866
vn 0.6886475177298671 -0.722524348947975 0.061017714655642125
vn 0.15780088559351027 -0.6988013013223152 -0.6976930713258824
vn 0.8766326946907272 0.17759339551917852 -0.44718643144357906
vn 0.818513921214102 0.3765643809171961 -0.433859686768849
vn 0.8511439179503696 0.34940596143478514 -0.3917518411570363
vn 0.21362078014849198 0.9742978331400145 -0.07148352696546148
vn 0.44945797636115375 0.6212157886960814 -0.6419333854536949
vn 0.47317510347461966 0.4924484345230851 -0.730479199421548
vn 0.49003757618156 0.3428377181252491 -0.8014521027240331
vn 0.4971478273965083 0.18224643490325934 -0.8483102467140095
vn 0.5548175254536075 0.03530894245865387 -0.8312224684354886
vn 0.42508138183393035 0.7313707277676647 -0.5332941752754786
vn 0.3998510352907751 0.8108315110234917 -0.42740076077173317
vn 0.3728907227981153 0.8712412757439535 -0.3192039290033059
vn 0.38288676129922594 0.8991349946521846 -0.21202355862876532
vn 0.3877692169615947 0.9118249526446747 -0.1349455079338631
vn 0.4840171429501882 0.8646373573316151 -0.13464637253538683
vn 0.6247274942477941 0.23693964653988903 -0.7440263179676004
vn 0.5668549839148124 0.06825269463663591 -0.8209853816516931
vn 0.5308921380241157 0.05846537263714721 -0.8454202138502386
vn 0.8702747103644319 0.29782611083704075 -0.39232835253622295
vn 0.9519044353993132 0.07136091105855065 -0.2979690692672789
vn 0.6976543203080365 0.603483905482872 -0.3861160773377243
vn 0.5982265190113034 0.7573917927744062 -0.26169200253272856
vn 0.7190140537566834 0.5780637921177849 -0.38582514529613987
vn 0.5914943061480747 0.7598597117235241 -0.2697178234634311
vn 0.7393827749017166 0.5457518050452345 -0.3942944070976734
vn 0.5933962500627566 0.7363421887493689 -0.32508625236888666
vn 0.6480694852687655 0.6647462052876696 -0.3716428726871008
vn 0.7964205934937677 0.39778484544284487 -0.4555013227149255
vn 0.839375111737545 0.20252629437849998 -0.5044130468979735
vn 0.7644998345105981 0.41930786388105556 -0.48961302915749133
vn 0.7994043983429727 0.21919806455922536 -0.55937895598905
vn 0.7154269883072722 0.45335114221015016 -0.5316361220405723
vn 0.771175302236432 0.2356911614616374 -0.5913867851325494
vn 0.7076303428194494 0.2393097161316825 -0.6648234033833361
vn 0.6650302514677293 0.06244862081116972 -0.7442008696525095
vn 0.6065133959544844 0.06054800998472998 -0.7927644284493647
vn 0.7605735168051783 0.02749955208452444 -0.6486691762136949
vn 0.9204855595426908 0.02168115200918568 -0.39017465617455727
vn 0.7618699170870755 0.12325931567785033 -0.6358941504184171
vn 0.9411188151796498 0.06763865453063828 -0.3312406800623034
vn 0.7539080773336108 0.2500449464478312 -0.607536118833308
vn 0.9312266041107697 0.12659432562630366 -0.34174681932030465
vn 0.7370029370485377 0.3600009577902738 -0.5720366956515242
vn 0.9179439237481787 0.18919127781689846 -0.34869128645810327
vn 0.7166757772729826 0.45503499478448983 -0.5285063706254122
vn 0.9030237541902251 0.23886725780509238 -0.35705816405295554
vn 0.6942516646154951 0.5365322398564619 -0.47973720073934434
vn 0.8858216411512239 0.27846401068112253 -0.3711843407574412
vn 0.6710193681128972 0.6030724038641111 -0.4313196996601599
vn 0.6635425483638621 0.6261401075519528 -0.409462882598192
vn 0.9642818919059106 0.07123826364738267 -0.25511868362560935
vn 0.9779958027176647 0.058303676036079936 -0.20031198473209408
vn 0.9867863336452819 0.045538137898828365 -0.1554960119347425
vn 0.9926972087172572 0.03173129214257911 -0.11638460767613737
vn 0.9949508041969194 0.019792926306218428 -0.09839277054814546
vn 0.994804766771477 0.01775794581663855 -0.1002403679618176
vn 0.993372914479867 0.003828752288611885 -0.11487207421165153
vn 0.9363438591136317 0.08842960472734712 -0.3397651873102312
vn 0.9144957856733964 0.08022612901475627 -0.3965617558576534
vn 0.8780578083074964 0.04353476584270297 -0.4765702565553762
vn 0.8377450164479852 0.053066967014968 -0.5434769401073035
vn 0.7934244674447277 0.046178498288963823 -0.6069144591751182
vn 0.7289345568501199 0.054646897282096416 -0.682398804546989
vn 0.7050737027176472 0.060135487934000816 -0.7065796464850699
vn 0.542270058806666 -0.04540172090102359 -0.8389766784965125
vn 0.99370166879858 -0.008068533103449448 -0.11176713381166958
vn 0.9185130038513272 -0.015931150057391753 -0.3950696903254673
vn 0.7679276758482138 -0.02771615786661958 -0.6399366369098377
vn 0.5030484209711743 -0.8222146539009084 -0.26628058334962684
vn 0.657230470583064 -0.6657946615946732 -0.3532217110105195
vn 0.6543700047490048 -0.6508355263752373 -0.3849844340913733
vn 0.7708715562734353 -0.20792520038724469 -0.6020997880521933
vn 0.8005775081907095 -0.2066047173581726 -0.5624856835018152
vn 0.7654895911784323 -0.42351753759385463 -0.4844157110869905
vn 0.6954362757312704 -0.605908963494527 -0.38631944599516066
vn 0.8062436536762896 -0.3888391315211557 -0.44584223746139234
vn 0.424535628021958 -0.7384546173513438 -0.5238838408010714
vn 0.4414950471515601 -0.6236477708220315 -0.6450934670955463
vn 0.6240528864768465 -0.233246676798175 -0.7457573215480515
vn 0.4694034855483181 -0.04699432229979542 -0.8817323298068825
vn 0.5241260725684322 -0.08650685283947748 -0.8472357549500609
vn 0.5731360045571512 -0.06622928413576452 -0.8167795309648309
vn 0.1830945490317913 -0.9778587784144821 -0.10133407912731843
vn 0.4590495560202978 -0.875416392728546 -0.15139235271210788
vn 0.3487246329048192 -0.9196746161802671 -0.180526260580221
vn 0.3684628901105093 -0.8837952148682885 -0.28834201356605393
vn 0.38597663720912107 -0.8156854870270279 -0.4309051192341751
vn 0.4715611810339113 -0.5047857999542642 -0.7230638621217607
vn 0.48059686727670176 -0.34878521689233183 -0.8045964974079799
vn 0.4832869621633746 -0.1885957579687712 -0.8549066336618765
vn 0.6407456692908464 -0.6998343407941514 -0.31571645939076554
vn 0.516791510492898 -0.8261711553653199 -0.22442762023601615
vn 0.5890458576649235 -0.7564772863975725 -0.28419551849450403
vn 0.8457915626280692 -0.09171338670621507 -0.5255713912362858
vn 0.8232966443602453 -0.36643873627016826 -0.4334804354822508
vn 0.8811210256526187 -0.08306866346255955 -0.46553768408521046
vn 0.8458484724067308 -0.33769393328625086 -0.4129202939416534
vn 0.7115367734562414 -0.2388785888843393 -0.6607968218689523
vn 0.717175258680471 -0.4516429257817108 -0.530733752391852
vn 0.6055077591410418 -0.7050728449350075 -0.36909705628093104
vn 0.6280539892156464 -0.0706670092853455 -0.7749544247431442
vn 0.6761343705139358 -0.04081873085734955 -0.7356467523349228
vn 0.7028802502831146 -0.05287255989789182 -0.7093404303800751
vn 0.7342554320331159 -0.06781408100123124 -0.6754777649544216
vn 0.7969424047508705 -0.0493730850236546 -0.6020341368935375
vn 0.6728103154015064 -0.6006612909294847 -0.4318938446751129
vn 0.8666026829300261 -0.31404733346081665 -0.3877809462630049
vn 0.6947201831848167 -0.5359183438136219 -0.4797451363377428
vn 0.8851766151548152 -0.2794762029474069 -0.3719615732426726
vn 0.7162724534409158 -0.4571744130241546 -0.5272052053211833
vn 0.9042950291551359 -0.23434946075767804 -0.35683445810052816
vn 0.736346660502582 -0.3636702802710128 -0.5705589564754006
vn 0.9202742368586848 -0.18760979176536158 -0.3433626290205779
vn 0.7532654564873281 -0.25340375917569147 -0.6069412548991587
vn 0.93079063098981 -0.12876055328828231 -0.3421250081161664
vn 0.7675738751360719 -0.12525237949480386 -0.6286033627331972
vn 0.942574504075176 -0.0804022323840216 -0.3241740046566069
vn 0.9951008558179653 -0.02547910403424386 -0.0955253998053168
vn 0.9929512084717477 -0.0317029946045707 -0.11420515630915398
vn 0.989905266630767 -0.04002676397405537 -0.13596110201978845
vn 0.9797187120723051 -0.05347527069433314 -0.19311043638175435
vn 0.9614352448646203 -0.061110297612105687 -0.268156300425456
vn 0.9473679994433007 -0.07004302101618402 -0.31239053896961244
vn 0.9298718286371347 -0.08823390561389237 -0.3571458528488749
vn 0.9146331909292403 -0.08121289714134448 -0.39604367358727605
vn 0.06449759340737833 0.6860885695778632 -0.7246533896555358
vn -0.14826271066346522 0.6664460061439624 -0.7306626372830921
vn -0.411998389674513 0.6664449271313625 -0.6213762837496141
vn -0.6153275377811532 0.6664440091778575 -0.42098028918124814
vn -0.728430630887114 0.6664478966616112 -0.15885848111043857
vn -0.7347350234364618 0.6664444041531906 0.1265555273732462
vn -0.6333059637990981 0.6664469250199512 0.3934107933800839
vn -0.43902296345252545 0.6664449922143563 0.602586018684278
vn -0.24307496629427755 0.6860880150933774 0.6857097026484789
vn -0.20496848693509143 0.7193179707208799 0.663754153555015
vn -0.31722649989995194 0.7288363463438003 0.6067659581827622
vn -0.4575953226905552 0.7301134165412185 0.5074848959705457
vn -0.560392822962439 0.7290075767863587 0.3930748490558379
vn -0.6974454616893638 0.7159087913729512 0.03231764848856611
vn -0.6729656520800342 0.7276971564373292 0.13256726456225645
vn -0.6333172303560576 0.7231237457337123 0.2756833946580349
vn 0.15780101430479584 0.6987996589355585 -0.69769468720632
vn -0.6715376387786242 0.5796392293782936 0.46157942271007696
vn -0.6889687902374272 0.4378046480911136 0.5776236631134429
vn 0.6889689185482802 0.43780428879296646 0.5776237823955122
vn 0.6715381696476815 0.5796388653018546 0.46157910756209525
vn 0.6712366828451386 0.6995485334980875 0.24509827597053763
vn -0.6712376274083482 0.6995480419122321 0.24509709220628004
vn 0.6886475313089078 0.7225242934774885 0.061018218238516025
vn -0.6886480828386299 0.7225238621048022 0.061017101634215566
vn 0.6173692901333476 0.14364199804237054 0.7734482115815137
vn 0.7000909352739761 0.360378118860366 0.6164416385951499
vn -0.08620441514352993 0.2594911035735852 0.9618904126645224
vn -0.09001023272942055 0.2799957833190982 0.9557722110040238
vn -0.09001016896552293 -0.2799953049852202 0.9557723571379493
vn 0.7000915214182619 -0.3603781946788655 0.6164409285878617
vn -0.08620355742647923 -0.25949016762050936 0.9618907420259848
vn 0.6173679079236823 -0.14364232352672066 0.7734492544167203
vn -0.7508993915286202 -0.48805281559665004 0.44492083901535817
vn -0.7508972861292835 -0.2943741324860927 -0.5911828277332972
vn -0.7508996037242271 -0.060935857509176364 -0.6575991228677391
vn -0.6764159019410111 0.2443976571997178 0.6947886820873078
vn -0.6764158803511091 -0.2443981644622982 0.6947885246722874
vn -0.750898649629462 0.3979885617421321 -0.5270259222344569
vn -0.750898771338396 0.5614972910895052 -0.3476662585032301
vn -0.7508989602064858 0.18073056371327056 0.6352064348703513
vn -0.7508980303820578 0.18073144137000474 -0.635207284332183
vn -0.7508986798800349 -0.6158203254107655 0.23857179079975008
vn -0.7508998827547791 -0.6604160552830263 -1.8071846131666758e-06
vn -0.7508975287927622 -0.6158219436695551 -0.23857123663169078
vn -0.7509000829994896 -0.48805308083537574 -0.4449193810551054
vn -0.7509002037014068 0.6491711023078071 -0.12134975900121196
vn -0.7508978412692484 0.6491736279474163 0.12135086631240974
vn -0.7508989704195056 0.5614989516581821 0.3476631466084506
vn -0.7509001914947381 0.39798932576250234 0.5270231484406299
vn -0.7508984991179708 -0.06093691713452298 0.657600286003982
vn -0.7508981425009899 -0.29437335101323325 0.5911821291292579
vn -0.4646694325767111 -0.7537687689970946 0.4646665054783291
vn -0.2514746403134927 -0.7537678636401629 0.6071198506246888
vn 0.25147575059892835 -0.753766639799654 0.607120910186632
vn 0.4646653229143752 -0.7537690023325431 0.4646702366232234
vn 0.7146162725276075 -0.6990237237570598 -0.026256745106011007
vn 3.494001729228987e-06 -0.7537658578972327 0.6571430829402686
vn -3.060220038223421e-06 -0.7537659407107701 -0.6571429879524263
vn -0.25147572869091844 -0.7537668186805074 -0.6071206971728423
vn 0.24663455844411808 -0.6892276752791309 -0.6812757196689162
vn 0.6071196178378808 -0.7537672353631474 0.2514770854956433
vn 0.6571415299988742 -0.7537672117773017 4.5941319437630873e-07
vn 0.7166474196122351 -0.6881892821854161 -0.1131900518961207
vn 0.6821968809425529 -0.6863660806799707 -0.2520099579863226
vn 0.6071213602595908 -0.7537657746054445 -0.25147725732160836
vn 0.46466920427688285 -0.7537680546965089 -0.46466789249498314
vn 0.6060542922352474 -0.6892457656635822 -0.39703711335095077
vn 0.2514749139300133 -0.7537679910331575 -0.6071195791256697
vn 0.5056557156556303 -0.6868828586615084 -0.52201938249627
vn 0.3832826224616833 -0.686836247200013 -0.6175357486422123
vn -0.6070955155500259 -0.7537878577678817 0.2514734587998419
vn -0.6571387308372328 -0.7537696521026888 -1.6193565249701756e-06
vn -0.6071196924547095 -0.7537672602905733 -0.2514768306380174
vn -0.4646650270085933 -0.7537684350414832 -0.46467145276013744
vn 0.5053529244964529 0.6856411678646984 -0.5239414190842473
vn 0.382345848408242 0.6847850413505552 -0.620387862024637
vn 0.2495399304460371 0.6880582402293595 -0.6813997953958192
vn 0.608737172225221 0.6879626734141308 -0.3951536601628836
vn 0.6793005165475438 0.6864894014544758 -0.259389880120478
vn 0.7139373391363457 0.6910353646321957 -0.11297610638786706
vn 0.7135055469009974 0.7002447613273728 -0.023814045752017086
vn -4.869054428493022e-07 0.7537664431426524 -0.6571424116520236
vn -0.2514783198276808 0.7537666547678284 -0.6071198273955184
vn -0.4646701641468725 0.7537658127639222 -0.46467056939305085
vn 0.2514746999155948 0.753768714335808 -0.607118769756713
vn -0.607117111964441 0.7537691992635597 -0.2514772486757572
vn -0.6571427794246144 0.753766122513921 6.491478635201726e-07
vn -0.6071136596112896 0.7537729693595748 0.25147428293214474
vn -0.4646657199044935 0.7537690891762855 0.464669698762456
vn -0.2514792700095188 0.7537666482490358 0.6071194419081748
vn -8.429036631485469e-07 0.753768538626962 0.6571400080465832
vn 0.2514770398520119 0.7537685120446082 0.6071180516813243
vn 0.46466829299538764 0.7537686336295334 -0.46466786465282806
vn 0.6071199204755812 0.7537671934009937 -0.2514764806380767
vn 0.6571411749441897 0.753767521317374 1.794827456433821e-07
vn 0.6071199081702772 0.7537671147190339 0.2514767461843283
vn 0.4646698996052904 0.753767294143146 0.4646684309063068
vn 0.7509002488299221 0.18073307040780417 0.6352041983237587
vn 0.7508988026518736 -0.0609367792240463 0.6575999521850519
vn 0.750898718542987 -0.2943743943640809 0.5911808779327021
vn 0.7508976292795004 -0.4880554055782454 0.4449209721155885
vn 0.7508995797096234 0.5614973379290418 -0.34766443690793325
vn 0.7508980391812089 0.6491734271313545 -0.1213507159449322
vn 0.7508990821775388 0.6491722114569851 0.12135076537450107
vn 0.7508987503196564 0.5614976363179771 0.3476657463393587
vn 0.7508974802338071 0.3979925277089812 0.5270245934169819
vn 0.7508994384807524 -0.6604165604293176 1.4353826836958104e-08
vn 0.7508989649294805 -0.6158198595532336 0.23857209612121522
vn 0.7509008244078059 0.18072988370994503 -0.6352044246050771
vn 0.7508978152431772 0.39799134906888145 -0.527025006170822
vn 0.7508984466446751 -0.6158213666854917 -0.2385698370713014
vn 0.7508988174905267 -0.48805517780534324 -0.44491921660985073
vn 0.7509004859496746 -0.2943721343042944 -0.5911797584032096
vn 0.750896936852667 -0.06093566412220972 -0.6576021860237898
f 1//1 2//2 3//3
f 3//3 2//2 4//4
f 3//3 4//4 5//5
f 5//5 4//4 6//6
f 6//6 4//4 7//7
f 6//6 7//7 8//8
f 9//9 10//10 11//11
f 9//9 11//11 12//12
f 13//13 14//14 15//15
f 15//15 14//14 12//12
f 15//15 12//12 16//16
f 16//16 12//12 11//11
f 8//8 7//7 17//17
f 8//8 17//17 18//18
f 18//18 17//17 19//19
f 18//18 19//19 20//20
f 20//20 19//19 21//21
f 21//21 19//19 22//22
f 21//21 22//22 23//23
f 23//23 22//22 24//24
f 24//24 22//22 25//25
f 24//24 25//25 26//26
f 27//27 28//28 29//29
f 30//30 31//31 29//29
f 29//29 31//31 32//32
f 29//29 32//32 27//27
f 33//33 34//34 29//29
f 29//29 34//34 35//35
f 29//29 35//35 30//30
f 36//36 37//37 29//29
f 29//29 37//37 38//38
f 29//29 38//38 33//33
f 39//39 40//40 29//29
f 29//29 40//40 41//41
f 29//29 41//41 36//36
f 28//28 42//42 29//29
f 29//29 42//42 43//43
f 29//29 43//43 39//39
f 44//44 45//45 46//46
f 46//46 45//45 47//47
f 46//46 47//47 48//48
f 47//47 49//49 48//48
f 48//48 49//49 50//50
f 48//48 50//50 51//51
f 51//51 50//50 52//52
f 51//51 52//52 53//53
f 52//52 54//54 53//53
f 53//53 54//54 55//55
f 53//53 55//55 56//56
f 57//57 58//58 59//59
f 59//59 58//58 56//56
f 59//59 56//56 60//60
f 60//60 56//56 55//55
f 61//61 62//62 58//58
f 24//24 26//26 63//63
f 63//63 26//26 64//64
f 63//63 64//64 62//62
f 62//62 64//64 65//65
f 62//62 65//65 58//58
f 58//58 65//65 66//66
f 8//8 18//18 67//67
f 68//68 69//69 66//66
f 66//66 69//69 70//70
f 57//57 71//71 58//58
f 58//58 71//71 72//72
f 58//58 72//72 73//73
f 8//8 67//67 6//6
f 74//74 75//75 58//58
f 70//70 76//76 66//66
f 66//66 76//76 77//77
f 66//66 77//77 58//58
f 75//75 78//78 58//58
f 58//58 78//78 79//79
f 58//58 79//79 61//61
f 80//80 1//1 67//67
f 18//18 20//20 67//67
f 67//67 20//20 21//21
f 67//67 21//21 63//63
f 63//63 21//21 23//23
f 63//63 23//23 24//24
f 73//73 81//81 58//58
f 58//58 81//81 82//82
f 58//58 82//82 74//74
f 1//1 3//3 67//67
f 67//67 3//3 5//5
f 67//67 5//5 6//6
f 67//67 83//83 80//80
f 80//80 83//83 84//84
f 80//80 84//84 85//85
f 86//86 87//87 88//88
f 88//88 87//87 80//80
f 88//88 80//80 89//89
f 89//89 80//80 85//85
f 44//44 90//90 45//45
f 45//45 90//90 91//91
f 92//92 93//93 94//94
f 95//95 96//96 97//97
f 94//94 98//98 92//92
f 92//92 98//98 97//97
f 92//92 97//97 99//99
f 99//99 97//97 96//96
f 97//97 100//100 95//95
f 95//95 100//100 101//101
f 95//95 101//101 102//102
f 95//95 102//102 103//103
f 103//103 102//102 104//104
f 103//103 104//104 105//105
f 91//91 90//90 106//106
f 106//106 90//90 103//103
f 106//106 103//103 107//107
f 107//107 103//103 105//105
f 108//108 109//109 110//110
f 110//110 109//109 111//111
f 110//110 111//111 112//112
f 112//112 111//111 113//113
f 113//113 111//111 114//114
f 113//113 114//114 115//115
f 115//115 114//114 116//116
f 115//115 116//116 117//117
f 117//117 116//116 11//11
f 117//117 11//11 10//10
f 93//93 118//118 119//119
f 120//120 121//121 108//108
f 122//122 123//123 124//124
f 119//119 125//125 93//93
f 93//93 125//125 126//126
f 93//93 126//126 127//127
f 121//121 120//120 128//128
f 128//128 120//120 118//118
f 128//128 118//118 124//124
f 124//124 118//118 93//93
f 124//124 93//93 122//122
f 123//123 129//129 124//124
f 124//124 129//129 130//130
f 124//124 130//130 131//131
f 115//115 117//117 132//132
f 132//132 117//117 10//10
f 127//127 133//133 93//93
f 93//93 133//133 134//134
f 93//93 134//134 135//135
f 135//135 136//136 93//93
f 93//93 136//136 137//137
f 93//93 137//137 94//94
f 108//108 110//110 120//120
f 120//120 110//110 112//112
f 120//120 112//112 132//132
f 132//132 112//112 113//113
f 132//132 113//113 115//115
f 10//10 9//9 132//132
f 132//132 9//9 12//12
f 132//132 12//12 14//14
f 138//138 139//139 140//140
f 14//14 13//13 132//132
f 132//132 13//13 141//141
f 132//132 141//141 142//142
f 142//142 141//141 143//143
f 142//142 143//143 144//144
f 144//144 143//143 138//138
f 144//144 138//138 145//145
f 145//145 138//138 140//140
f 146//146 147//147 148//148
f 149//149 150//150 148//148
f 148//148 150//150 151//151
f 148//148 151//151 146//146
f 152//152 153//153 148//148
f 148//148 153//153 154//154
f 148//148 154//154 149//149
f 155//155 156//156 148//148
f 148//148 156//156 157//157
f 148//148 157//157 152//152
f 158//158 159//159 148//148
f 148//148 159//159 160//160
f 148//148 160//160 155//155
f 147//147 161//161 148//148
f 148//148 161//161 162//162
f 148//148 162//162 158//158
f 163//163 164//164 165//165
f 165//165 164//164 166//166
f 165//165 166//166 167//167
f 163//163 165//165 168//168
f 168//168 165//165 169//169
f 168//168 169//169 170//170
f 170//170 169//169 171//171
f 170//170 171//171 172//172
f 173//173 174//174 66//66
f 66//66 174//174 175//175
f 66//66 175//175 68//68
f 176//176 177//177 178//178
f 172//172 171//171 179//179
f 179//179 171//171 180//180
f 179//179 180//180 178//178
f 178//178 180//180 181//181
f 178//178 181//181 176//176
f 64//64 26//26 25//25
f 25//25 182//182 64//64
f 64//64 182//182 183//183
f 64//64 183//183 65//65
f 177//177 173//173 178//178
f 178//178 173//173 66//66
f 178//178 66//66 184//184
f 184//184 66//66 65//65
f 184//184 65//65 185//185
f 185//185 65//65 183//183
f 186//186 44//44 46//46
f 187//187 188//188 189//189
f 70//70 69//69 190//190
f 191//191 176//176 181//181
f 174//174 173//173 191//191
f 191//191 173//173 177//177
f 191//191 177//177 176//176
f 174//174 191//191 175//175
f 175//175 191//191 192//192
f 175//175 192//192 68//68
f 193//193 194//194 195//195
f 196//196 193//193 197//197
f 197//197 193//193 195//195
f 197//197 195//195 198//198
f 180//180 199//199 200//200
f 200//200 199//199 201//201
f 200//200 201//201 202//202
f 202//202 201//201 196//196
f 202//202 196//196 203//203
f 203//203 196//196 197//197
f 69//69 68//68 190//190
f 190//190 68//68 192//192
f 190//190 192//192 204//204
f 204//204 192//192 191//191
f 198//198 205//205 197//197
f 197//197 205//205 206//206
f 197//197 206//206 203//203
f 203//203 206//206 207//207
f 203//203 207//207 202//202
f 202//202 207//207 208//208
f 202//202 208//208 200//200
f 186//186 46//46 209//209
f 210//210 209//209 211//211
f 211//211 209//209 46//46
f 211//211 46//46 212//212
f 212//212 46//46 48//48
f 212//212 48//48 213//213
f 56//56 214//214 53//53
f 53//53 214//214 213//213
f 53//53 213//213 51//51
f 51//51 213//213 48//48
f 56//56 187//187 214//214
f 214//214 187//187 189//189
f 214//214 189//189 213//213
f 213//213 189//189 208//208
f 213//213 208//208 212//212
f 212//212 208//208 207//207
f 212//212 207//207 211//211
f 211//211 207//207 206//206
f 211//211 206//206 210//210
f 210//210 206//206 205//205
f 181//181 180//180 191//191
f 191//191 180//180 200//200
f 191//191 200//200 204//204
f 204//204 200//200 208//208
f 204//204 208//208 190//190
f 190//190 208//208 189//189
f 190//190 189//189 70//70
f 70//70 189//189 188//188
f 70//70 188//188 76//76
f 76//76 188//188 187//187
f 76//76 187//187 77//77
f 77//77 187//187 56//56
f 77//77 56//56 58//58
f 215//215 216//216 217//217
f 93//93 92//92 122//122
f 129//129 123//123 218//218
f 218//218 123//123 122//122
f 129//129 218//218 130//130
f 130//130 218//218 219//219
f 130//130 219//219 131//131
f 131//131 219//219 220//220
f 131//131 220//220 221//221
f 222//222 223//223 224//224
f 224//224 223//223 225//225
f 224//224 225//225 220//220
f 220//220 225//225 226//226
f 220//220 226//226 221//221
f 227//227 228//228 224//224
f 224//224 228//228 229//229
f 224//224 229//229 222//222
f 230//230 231//231 232//232
f 233//233 234//234 219//219
f 219//219 234//234 235//235
f 219//219 235//235 220//220
f 220//220 235//235 236//236
f 220//220 236//236 224//224
f 122//122 92//92 218//218
f 218//218 92//92 99//99
f 218//218 99//99 219//219
f 219//219 99//99 96//96
f 219//219 96//96 233//233
f 237//237 238//238 217//217
f 237//237 217//217 239//239
f 239//239 217//217 216//216
f 239//239 216//216 240//240
f 241//241 231//231 242//242
f 242//242 231//231 230//230
f 242//242 230//230 243//243
f 243//243 230//230 244//244
f 243//243 244//244 245//245
f 246//246 247//247 248//248
f 248//248 247//247 237//237
f 248//248 237//237 249//249
f 249//249 237//237 239//239
f 240//240 245//245 239//239
f 239//239 245//245 244//244
f 239//239 244//244 249//249
f 249//249 244//244 230//230
f 249//249 230//230 248//248
f 248//248 230//230 232//232
f 248//248 232//232 246//246
f 96//96 95//95 233//233
f 233//233 95//95 250//250
f 250//250 95//95 103//103
f 250//250 103//103 90//90
f 90//90 215//215 250//250
f 250//250 215//215 217//217
f 250//250 217//217 233//233
f 233//233 217//217 238//238
f 233//233 238//238 234//234
f 234//234 238//238 237//237
f 234//234 237//237 235//235
f 235//235 237//237 247//247
f 235//235 247//247 236//236
f 236//236 247//247 246//246
f 236//236 246//246 224//224
f 224//224 246//246 251//251
f 224//224 251//251 227//227
f 131//131 221//221 124//124
f 124//124 221//221 226//226
f 124//124 226//226 225//225
f 223//223 222//222 252//252
f 252//252 222//222 229//229
f 229//229 228//228 252//252
f 252//252 228//228 227//227
f 252//252 227//227 253//253
f 253//253 227//227 254//254
f 227//227 255//255 254//254
f 254//254 255//255 256//256
f 254//254 256//256 257//257
f 257//257 256//256 258//258
f 256//256 259//259 258//258
f 258//258 259//259 260//260
f 258//258 260//260 261//261
f 260//260 262//262 261//261
f 261//261 262//262 263//263
f 261//261 263//263 264//264
f 264//264 263//263 265//265
f 225//225 223//223 124//124
f 124//124 223//223 252//252
f 124//124 252//252 128//128
f 252//252 266//266 128//128
f 128//128 266//266 267//267
f 128//128 267//267 121//121
f 109//109 108//108 268//268
f 268//268 108//108 121//121
f 268//268 121//121 269//269
f 269//269 121//121 267//267
f 67//67 270//270 271//271
f 67//67 271//271 83//83
f 83//83 271//271 272//272
f 83//83 272//272 84//84
f 84//84 272//272 273//273
f 84//84 273//273 85//85
f 85//85 273//273 274//274
f 85//85 274//274 89//89
f 89//89 274//274 275//275
f 89//89 275//275 88//88
f 88//88 275//275 276//276
f 88//88 276//276 86//86
f 86//86 276//276 277//277
f 86//86 277//277 87//87
f 87//87 277//277 278//278
f 87//87 278//278 80//80
f 1//1 80//80 278//278
f 279//279 25//25 22//22
f 279//279 22//22 278//278
f 22//22 19//19 278//278
f 278//278 19//19 17//17
f 278//278 17//17 7//7
f 7//7 4//4 278//278
f 278//278 4//4 2//2
f 278//278 2//2 1//1
f 25//25 279//279 182//182
f 182//182 279//279 280//280
f 182//182 280//280 183//183
f 183//183 280//280 185//185
f 185//185 280//280 281//281
f 185//185 281//281 184//184
f 184//184 281//281 178//178
f 178//178 281//281 282//282
f 178//178 282//282 179//179
f 179//179 282//282 172//172
f 172//172 282//282 283//283
f 172//172 283//283 170//170
f 284//284 167//167 166//166
f 284//284 166//166 285//285
f 166//166 164//164 285//285
f 285//285 164//164 163//163
f 285//285 163//163 283//283
f 283//283 163//163 168//168
f 283//283 168//168 170//170
f 286//286 287//287 288//288
f 288//288 289//289 286//286
f 286//286 289//289 290//290
f 286//286 290//290 291//291
f 291//291 290//290 292//292
f 291//291 292//292 293//293
f 270//270 67//67 294//294
f 294//294 67//67 63//63
f 295//295 296//296 297//297
f 57//57 298//298 71//71
f 299//299 50//50 300//300
f 300//300 50//50 49//49
f 300//300 49//49 301//301
f 301//301 49//49 47//47
f 301//301 47//47 302//302
f 302//302 47//47 45//45
f 302//302 45//45 303//303
f 55//55 54//54 299//299
f 299//299 54//54 52//52
f 299//299 52//52 50//50
f 299//299 304//304 55//55
f 55//55 304//304 305//305
f 55//55 305//305 60//60
f 60//60 305//305 306//306
f 60//60 306//306 59//59
f 59//59 306//306 307//307
f 57//57 59//59 298//298
f 298//298 59//59 307//307
f 298//298 307//307 71//71
f 71//71 307//307 308//308
f 71//71 308//308 72//72
f 72//72 308//308 309//309
f 72//72 309//309 73//73
f 73//73 309//309 81//81
f 310//310 311//311 312//312
f 75//75 310//310 78//78
f 78//78 310//310 312//312
f 78//78 312//312 79//79
f 79//79 312//312 61//61
f 297//297 313//313 314//314
f 315//315 316//316 317//317
f 317//317 316//316 318//318
f 317//317 318//318 319//319
f 319//319 318//318 320//320
f 319//319 320//320 321//321
f 296//296 295//295 322//322
f 322//322 295//295 323//323
f 322//322 323//323 324//324
f 324//324 323//323 325//325
f 324//324 325//325 326//326
f 326//326 325//325 327//327
f 326//326 327//327 328//328
f 328//328 329//329 330//330
f 331//331 332//332 333//333
f 333//333 332//332 334//334
f 333//333 334//334 335//335
f 335//335 334//334 336//336
f 335//335 336//336 337//337
f 337//337 336//336 338//338
f 337//337 338//338 339//339
f 339//339 338//338 340//340
f 339//339 340//340 341//341
f 341//341 340//340 342//342
f 341//341 342//342 343//343
f 343//343 342//342 313//313
f 343//343 313//313 321//321
f 321//321 313//313 297//297
f 321//321 297//297 319//319
f 319//319 297//297 296//296
f 319//319 296//296 317//317
f 317//317 296//296 322//322
f 317//317 322//322 315//315
f 315//315 322//322 324//324
f 315//315 324//324 344//344
f 344//344 324//324 326//326
f 314//314 313//313 345//345
f 345//345 313//313 342//342
f 345//345 342//342 346//346
f 346//346 342//342 340//340
f 346//346 340//340 347//347
f 347//347 340//340 338//338
f 347//347 338//338 348//348
f 348//348 338//338 336//336
f 348//348 336//336 349//349
f 349//349 336//336 334//334
f 349//349 334//334 350//350
f 350//350 334//334 332//332
f 350//350 332//332 351//351
f 314//314 352//352 297//297
f 297//297 352//352 353//353
f 297//297 353//353 295//295
f 295//295 353//353 354//354
f 295//295 354//354 323//323
f 323//323 354//354 355//355
f 323//323 355//355 325//325
f 325//325 355//355 356//356
f 325//325 356//356 327//327
f 327//327 356//356 357//357
f 327//327 357//357 328//328
f 328//328 357//357 358//358
f 328//328 358//358 329//329
f 303//303 331//331 302//302
f 302//302 331//331 333//333
f 302//302 333//333 301//301
f 301//301 333//333 335//335
f 301//301 335//335 300//300
f 300//300 335//335 337//337
f 300//300 337//337 299//299
f 299//299 337//337 339//339
f 299//299 339//339 304//304
f 304//304 339//339 341//341
f 304//304 341//341 305//305
f 305//305 341//341 343//343
f 305//305 343//343 306//306
f 306//306 343//343 321//321
f 306//306 321//321 307//307
f 307//307 321//321 320//320
f 307//307 320//320 308//308
f 308//308 320//320 318//318
f 308//308 318//318 309//309
f 309//309 318//318 316//316
f 309//309 316//316 81//81
f 81//81 316//316 315//315
f 81//81 315//315 82//82
f 82//82 315//315 344//344
f 82//82 344//344 74//74
f 74//74 344//344 326//326
f 74//74 326//326 75//75
f 75//75 326//326 328//328
f 75//75 328//328 310//310
f 310//310 328//328 330//330
f 310//310 330//330 311//311
f 45//45 91//91 359//359
f 360//360 351//351 361//361
f 361//361 351//351 332//332
f 361//361 332//332 362//362
f 362//362 332//332 331//331
f 362//362 331//331 359//359
f 359//359 331//331 303//303
f 359//359 303//303 45//45
f 363//363 364//364 365//365
f 366//366 367//367 368//368
f 369//369 368//368 370//370
f 101//101 371//371 372//372
f 127//127 126//126 373//373
f 373//373 126//126 125//125
f 125//125 119//119 374//374
f 125//125 374//374 373//373
f 373//373 374//374 375//375
f 373//373 375//375 376//376
f 98//98 94//94 377//377
f 377//377 94//94 137//137
f 377//377 137//137 136//136
f 135//135 378//378 136//136
f 136//136 378//378 379//379
f 136//136 379//379 377//377
f 377//377 379//379 380//380
f 377//377 380//380 98//98
f 98//98 380//380 381//381
f 98//98 381//381 97//97
f 371//371 101//101 381//381
f 381//381 101//101 100//100
f 381//381 100//100 97//97
f 105//105 104//104 372//372
f 372//372 104//104 102//102
f 372//372 102//102 101//101
f 372//372 382//382 105//105
f 105//105 382//382 383//383
f 105//105 383//383 107//107
f 107//107 383//383 384//384
f 107//107 384//384 106//106
f 106//106 384//384 359//359
f 106//106 359//359 91//91
f 364//364 363//363 385//385
f 385//385 363//363 386//386
f 385//385 386//386 387//387
f 368//368 367//367 370//370
f 370//370 367//367 388//388
f 370//370 388//388 389//389
f 389//389 388//388 390//390
f 389//389 390//390 391//391
f 392//392 366//366 393//393
f 393//393 366//366 368//368
f 393//393 368//368 394//394
f 394//394 368//368 369//369
f 395//395 396//396 392//392
f 392//392 396//396 397//397
f 392//392 397//397 366//366
f 366//366 397//397 398//398
f 366//366 398//398 367//367
f 367//367 398//398 399//399
f 367//367 399//399 388//388
f 387//387 369//369 385//385
f 385//385 369//369 370//370
f 385//385 370//370 364//364
f 364//364 370//370 389//389
f 364//364 389//389 365//365
f 365//365 389//389 391//391
f 365//365 391//391 400//400
f 400//400 391//391 401//401
f 400//400 401//401 402//402
f 402//402 401//401 403//403
f 402//402 403//403 404//404
f 404//404 403//403 405//405
f 404//404 405//405 406//406
f 406//406 405//405 407//407
f 406//406 407//407 408//408
f 408//408 407//407 409//409
f 408//408 409//409 410//410
f 410//410 409//409 411//411
f 410//410 411//411 362//362
f 362//362 411//411 361//361
f 360//360 361//361 412//412
f 412//412 361//361 411//411
f 412//412 411//411 413//413
f 413//413 411//411 409//409
f 413//413 409//409 414//414
f 414//414 409//409 407//407
f 414//414 407//407 415//415
f 415//415 407//407 405//405
f 415//415 405//405 416//416
f 416//416 405//405 403//403
f 416//416 403//403 417//417
f 417//417 403//403 401//401
f 417//417 401//401 418//418
f 418//418 401//401 391//391
f 418//418 391//391 419//419
f 419//419 391//391 390//390
f 376//376 395//395 373//373
f 373//373 395//395 392//392
f 373//373 392//392 127//127
f 127//127 392//392 393//393
f 127//127 393//393 133//133
f 133//133 393//393 394//394
f 133//133 394//394 134//134
f 134//134 394//394 369//369
f 134//134 369//369 135//135
f 135//135 369//369 387//387
f 135//135 387//387 378//378
f 378//378 387//387 386//386
f 378//378 386//386 379//379
f 379//379 386//386 363//363
f 379//379 363//363 380//380
f 380//380 363//363 365//365
f 380//380 365//365 381//381
f 381//381 365//365 400//400
f 381//381 400//400 371//371
f 371//371 400//400 402//402
f 371//371 402//402 372//372
f 372//372 402//402 404//404
f 372//372 404//404 382//382
f 382//382 404//404 406//406
f 382//382 406//406 383//383
f 383//383 406//406 408//408
f 383//383 408//408 384//384
f 384//384 408//408 410//410
f 384//384 410//410 359//359
f 359//359 410//410 362//362
f 420//420 132//132 142//142
f 420//420 142//142 421//421
f 421//421 142//142 144//144
f 421//421 144//144 422//422
f 422//422 144//144 145//145
f 422//422 145//145 423//423
f 423//423 145//145 140//140
f 423//423 140//140 424//424
f 424//424 140//140 139//139
f 424//424 139//139 425//425
f 425//425 139//139 138//138
f 425//425 138//138 426//426
f 426//426 138//138 143//143
f 426//426 143//143 427//427
f 427//427 143//143 141//141
f 427//427 141//141 428//428
f 116//116 114//114 428//428
f 428//428 114//114 429//429
f 429//429 114//114 111//111
f 429//429 111//111 109//109
f 141//141 13//13 428//428
f 428//428 13//13 15//15
f 15//15 16//16 428//428
f 428//428 16//16 11//11
f 428//428 11//11 116//116
f 109//109 268//268 429//429
f 429//429 268//268 430//430
f 268//268 269//269 430//430
f 430//430 269//269 267//267
f 430//430 267//267 431//431
f 431//431 267//267 266//266
f 431//431 266//266 432//432
f 432//432 266//266 252//252
f 432//432 252//252 253//253
f 264//264 265//265 433//433
f 264//264 433//433 261//261
f 261//261 433//433 434//434
f 261//261 434//434 258//258
f 258//258 434//434 435//435
f 258//258 435//435 257//257
f 432//432 253//253 435//435
f 435//435 253//253 254//254
f 435//435 254//254 257//257
f 420//420 436//436 132//132
f 132//132 436//436 120//120
f 437//437 438//438 439//439
f 439//439 440//440 437//437
f 437//437 440//440 441//441
f 437//437 441//441 442//442
f 442//442 441//441 443//443
f 442//442 443//443 444//444
f 445//445 446//446 447//447
f 447//447 446//446 448//448
f 449//449 450//450 451//451
f 451//451 450//450 452//452
f 259//259 256//256 453//453
f 454//454 455//455 456//456
f 456//456 455//455 457//457
f 167//167 458//458 459//459
f 241//241 194//194 460//460
f 455//455 461//461 457//457
f 457//457 461//461 458//458
f 457//457 458//458 288//288
f 288//288 458//458 167//167
f 462//462 265//265 453//453
f 453//453 265//265 263//263
f 263//263 262//262 453//453
f 453//453 262//262 260//260
f 453//453 260//260 259//259
f 462//462 463//463 265//265
f 265//265 463//463 444//444
f 265//265 444//444 433//433
f 442//442 444//444 437//437
f 437//437 444//444 463//463
f 437//437 463//463 438//438
f 438//438 463//463 464//464
f 438//438 464//464 456//456
f 456//456 464//464 465//465
f 456//456 465//465 454//454
f 290//290 289//289 292//292
f 292//292 289//289 288//288
f 292//292 288//288 284//284
f 284//284 288//288 167//167
f 459//459 466//466 167//167
f 167//167 466//466 467//467
f 167//167 467//467 165//165
f 165//165 467//467 468//468
f 165//165 468//468 169//169
f 169//169 468//468 469//469
f 169//169 469//469 171//171
f 171//171 469//469 180//180
f 460//460 194//194 469//469
f 469//469 194//194 193//193
f 469//469 193//193 196//196
f 196//196 201//201 469//469
f 469//469 201//201 199//199
f 469//469 199//199 180//180
f 460//460 470//470 241//241
f 241//241 470//470 471//471
f 241//241 471//471 231//231
f 231//231 471//471 453//453
f 231//231 453//453 232//232
f 232//232 453//453 256//256
f 232//232 256//256 246//246
f 246//246 256//256 255//255
f 246//246 255//255 251//251
f 251//251 255//255 227//227
f 457//457 288//288 449//449
f 449//449 288//288 287//287
f 449//449 287//287 450//450
f 285//285 472//472 473//473
f 293//293 474//474 475//475
f 293//293 475//475 476//476
f 474//474 293//293 477//477
f 477//477 293//293 292//292
f 477//477 292//292 473//473
f 473//473 292//292 284//284
f 473//473 284//284 285//285
f 478//478 479//479 480//480
f 475//475 481//481 476//476
f 476//476 481//481 482//482
f 476//476 482//482 483//483
f 483//483 482//482 484//484
f 482//482 485//485 484//484
f 484//484 485//485 486//486
f 484//484 486//486 487//487
f 487//487 486//486 488//488
f 487//487 488//488 489//489
f 489//489 488//488 478//478
f 489//489 478//478 490//490
f 490//490 478//478 480//480
f 472//472 285//285 491//491
f 491//491 285//285 283//283
f 491//491 283//283 492//492
f 492//492 283//283 282//282
f 492//492 282//282 493//493
f 282//282 281//281 493//493
f 493//493 281//281 280//280
f 493//493 280//280 494//494
f 494//494 280//280 270//270
f 494//494 270//270 479//479
f 479//479 270//270 294//294
f 479//479 294//294 480//480
f 280//280 279//279 270//270
f 270//270 279//279 278//278
f 270//270 278//278 271//271
f 271//271 278//278 277//277
f 277//277 276//276 275//275
f 272//272 271//271 273//273
f 273//273 271//271 277//277
f 273//273 277//277 274//274
f 274//274 277//277 275//275
f 495//495 397//397 496//496
f 496//496 397//397 396//396
f 496//496 396//396 395//395
f 395//395 376//376 496//496
f 496//496 376//376 375//375
f 496//496 375//375 497//497
f 497//497 375//375 374//374
f 497//497 374//374 119//119
f 390//390 388//388 498//498
f 498//498 388//388 399//399
f 498//498 399//399 495//495
f 495//495 399//399 398//398
f 495//495 398//398 397//397
f 390//390 498//498 419//419
f 419//419 498//498 499//499
f 419//419 499//499 418//418
f 418//418 499//499 417//417
f 417//417 499//499 500//500
f 417//417 500//500 416//416
f 347//347 476//476 346//346
f 346//346 476//476 483//483
f 346//346 483//483 345//345
f 347//347 348//348 476//476
f 476//476 348//348 349//349
f 476//476 349//349 350//350
f 350//350 351//351 476//476
f 476//476 351//351 360//360
f 476//476 360//360 501//501
f 501//501 360//360 412//412
f 412//412 413//413 501//501
f 501//501 413//413 414//414
f 501//501 414//414 500//500
f 500//500 414//414 415//415
f 500//500 415//415 416//416
f 487//487 355//355 354//354
f 487//487 354//354 484//484
f 354//354 353//353 484//484
f 484//484 353//353 352//352
f 484//484 352//352 483//483
f 483//483 352//352 314//314
f 483//483 314//314 345//345
f 355//355 487//487 356//356
f 356//356 487//487 489//489
f 356//356 489//489 357//357
f 490//490 312//312 311//311
f 311//311 330//330 490//490
f 490//490 330//330 329//329
f 490//490 329//329 489//489
f 489//489 329//329 358//358
f 489//489 358//358 357//357
f 312//312 490//490 61//61
f 61//61 490//490 480//480
f 61//61 480//480 62//62
f 62//62 480//480 294//294
f 62//62 294//294 63//63
f 119//119 118//118 497//497
f 497//497 118//118 120//120
f 497//497 120//120 436//436
f 502//502 497//497 503//503
f 503//503 497//497 436//436
f 503//503 436//436 504//504
f 499//499 498//498 505//505
f 505//505 498//498 495//495
f 505//505 495//495 502//502
f 502//502 495//495 496//496
f 502//502 496//496 497//497
f 426//426 427//427 428//428
f 420//420 429//429 430//430
f 436//436 420//420 504//504
f 504//504 420//420 430//430
f 504//504 430//430 506//506
f 506//506 430//430 431//431
f 506//506 431//431 507//507
f 507//507 431//431 432//432
f 507//507 432//432 508//508
f 508//508 432//432 435//435
f 508//508 435//435 509//509
f 509//509 435//435 434//434
f 509//509 434//434 510//510
f 510//510 434//434 433//433
f 510//510 433//433 511//511
f 511//511 433//433 444//444
f 511//511 444//444 512//512
f 512//512 444//444 443//443
f 505//505 513//513 499//499
f 499//499 513//513 514//514
f 499//499 514//514 500//500
f 500//500 514//514 515//515
f 500//500 515//515 501//501
f 501//501 515//515 516//516
f 501//501 516//516 443//443
f 443//443 516//516 517//517
f 443//443 517//517 512//512
f 429//429 420//420 428//428
f 428//428 420//420 421//421
f 428//428 421//421 426//426
f 424//424 425//425 423//423
f 423//423 425//425 426//426
f 423//423 426//426 422//422
f 422//422 426//426 421//421
f 446//446 439//439 448//448
f 448//448 439//439 438//438
f 448//448 438//438 456//456
f 456//456 457//457 449//449
f 452//452 445//445 451//451
f 451//451 445//445 447//447
f 451//451 447//447 449//449
f 449//449 447//447 448//448
f 449//449 448//448 456//456
f 518//518 476//476 519//519
f 519//519 476//476 501//501
f 519//519 501//501 520//520
f 520//520 501//501 521//521
f 522//522 286//286 523//523
f 523//523 286//286 291//291
f 523//523 291//291 524//524
f 524//524 291//291 293//293
f 524//524 293//293 525//525
f 525//525 293//293 476//476
f 525//525 476//476 526//526
f 526//526 476//476 518//518
f 443//443 527//527 501//501
f 501//501 527//527 528//528
f 501//501 528//528 521//521
f 445//445 452//452 529//529
f 529//529 452//452 530//530
f 530//530 452//452 450//450
f 530//530 450//450 522//522
f 522//522 450//450 287//287
f 522//522 287//287 286//286
f 443//443 441//441 527//527
f 527//527 441//441 440//440
f 527//527 440//440 531//531
f 531//531 440//440 439//439
f 531//531 439//439 532//532
f 532//532 439//439 446//446
f 532//532 446//446 533//533
f 533//533 446//446 445//445
f 533//533 445//445 534//534
f 534//534 445//445 529//529
f 90//90 44//44 215//215
f 215//215 44//44 186//186
f 215//215 186//186 216//216
f 194//194 241//241 195//195
f 195//195 241//241 242//242
f 195//195 242//242 198//198
f 198//198 242//242 243//243
f 198//198 243//243 205//205
f 243//243 245//245 205//205
f 205//205 245//245 240//240
f 205//205 240//240 210//210
f 210//210 240//240 216//216
f 210//210 216//216 209//209
f 209//209 216//216 186//186
f 27//27 473//473 28//28
f 28//28 473//473 472//472
f 28//28 472//472 42//42
f 42//42 472//472 491//491
f 42//42 491//491 43//43
f 43//43 491//491 492//492
f 43//43 492//492 39//39
f 39//39 492//492 493//493
f 39//39 493//493 40//40
f 40//40 493//493 494//494
f 40//40 494//494 41//41
f 41//41 494//494 479//479
f 41//41 479//479 36//36
f 36//36 479//479 478//478
f 36//36 478//478 37//37
f 37//37 478//478 488//488
f 37//37 488//488 38//38
f 38//38 488//488 486//486
f 38//38 486//486 33//33
f 33//33 486//486 485//485
f 33//33 485//485 34//34
f 34//34 485//485 482//482
f 34//34 482//482 35//35
f 35//35 482//482 481//481
f 35//35 481//481 30//30
f 30//30 481//481 475//475
f 30//30 475//475 31//31
f 31//31 475//475 474//474
f 31//31 474//474 32//32
f 32//32 474//474 477//477
f 32//32 477//477 27//27
f 27//27 477//477 473//473
f 511//511 151//151 510//510
f 510//510 151//151 150//150
f 510//510 150//150 509//509
f 509//509 150//150 149//149
f 509//509 149//149 508//508
f 508//508 149//149 154//154
f 508//508 154//154 507//507
f 507//507 154//154 153//153
f 507//507 153//153 506//506
f 506//506 153//153 152//152
f 506//506 152//152 504//504
f 504//504 152//152 157//157
f 504//504 157//157 503//503
f 503//503 157//157 156//156
f 503//503 156//156 502//502
f 502//502 156//156 155//155
f 502//502 155//155 505//505
f 505//505 155//155 160//160
f 505//505 160//160 513//513
f 513//513 160//160 159//159
f 513//513 159//159 514//514
f 514//514 159//159 158//158
f 514//514 158//158 515//515
f 515//515 158//158 162//162
f 515//515 162//162 516//516
f 516//516 162//162 161//161
f 516//516 161//161 517//517
f 517//517 161//161 147//147
f 517//517 147//147 512//512
f 512//512 147//147 146//146
f 512//512 146//146 511//511
f 511//511 146//146 151//151
f 463//463 527//527 464//464
f 464//464 527//527 531//531
f 464//464 531//531 465//465
f 465//465 531//531 532//532
f 465//465 532//532 454//454
f 454//454 532//532 533//533
f 454//454 533//533 455//455
f 455//455 533//533 534//534
f 455//455 534//534 461//461
f 461//461 534//534 529//529
f 461//461 529//529 458//458
f 458//458 529//529 530//530
f 458//458 530//530 459//459
f 459//459 530//530 522//522
f 459//459 522//522 466//466
f 466//466 522//522 523//523
f 466//466 523//523 467//467
f 467//467 523//523 524//524
f 467//467 524//524 468//468
f 468//468 524//524 525//525
f 468//468 525//525 469//469
f 469//469 525//525 526//526
f 469//469 526//526 460//460
f 460//460 526//526 518//518
f 460//460 518//518 470//470
f 470//470 518//518 519//519
f 470//470 519//519 471//471
f 471//471 519//519 520//520
f 471//471 520//520 453//453
f 453//453 520//520 521//521
f 453//453 521//521 462//462
f 462//462 521//521 528//528
f 462//462 528//528 463//463
f 463//463 528//528 527//527
