v -0.008094245567917824 -0.0029499998781830072 -0.002614962635561824
v -0.007662612479180098 -0.002998622599989176 -0.002507341094315052
v -0.007503887638449669 -0.002950000111013651 -0.0025525696109980345
v -0.007244182750582695 -0.0031456572469323874 -0.002403016434982419
v -0.0070819491520524025 -0.0029499982483685017 -0.0025938996113836765
v -0.006798477843403816 -0.0029499984811991453 -0.0026514632627367973
v -0.0068673668429255486 -0.00338392099365592 -0.0023090660106390715
v -0.006406818982213736 -0.0029499991796910763 -0.0027608396485447884
v -0.0067984783090651035 0.0029500022064894438 -0.0026514653582125902
v -0.006406818516552448 0.002950000809505582 -0.0027608342934399843
v -0.006867367308586836 0.0033839228563010693 -0.0023090641479939222
v -0.007081950083374977 0.002950000576674938 -0.002593901939690113
v -0.008094246499240398 0.002950000809505582 -0.0026149647310376167
v -0.007503887638449669 0.0029499989468604326 -0.002552571939304471
v -0.007662612944841385 0.002998623764142394 -0.0025073476135730743
v -0.007244182750582695 0.003145656082779169 -0.0024030182976275682
v -0.006184490863233805 -0.0038430255372077227 -0.002138806041330099
v -0.005272058304399252 -0.0029499991796910763 -0.0030439835973083973
v -0.005437301937490702 -0.004179310519248247 -0.0019525149837136269
v -0.004733112640678883 -0.00294999941252172 -0.0031101692002266645
v -0.0043576243333518505 -0.0029499989468604326 -0.0031217446085065603
v -0.004646409768611193 -0.00438349973410368 -0.0017553193029016256
v -0.004072537645697594 -0.0029499991796910763 -0.0031084178481251
v -0.0036256539169698954 -0.002950000111013651 -0.0030439449474215508
v -0.00385310803540051 -0.004449999891221523 -0.0015575253637507558
v -0.003490225877612829 -0.0029499996453523636 -0.0030129735823720694
v 5.411365799901091e-10 -0.00699999975040555 0.0015000073472037911
v -0.0005740246851928532 -0.00699999975040555 0.0013858265010640025
v 3.177345053728686e-10 -0.006999999284744263 7.149314917853644e-09
v 0.001385819516144693 -0.006999998819082975 0.0005740334163419902
v 0.0010606604628264904 -0.006999998819082975 0.001060668844729662
v 0.0005740253254771233 -0.006999998819082975 0.001385822775773704
v 0.0010606604628264904 -0.006999999284744263 -0.0010606514988467097
v 0.0013858198653906584 -0.006999999284744263 -0.0005740168853662908
v 0.0015000003622844815 -0.007000000216066837 5.9416391806621505e-09
v -0.0005740252090618014 -0.006999998819082975 -0.0013858159072697163
v 9.433239606115862e-11 -0.006999998819082975 -0.0014999930281192064
v 0.0005740257329307497 -0.007000000216066837 -0.0013858124148100615
v -0.001499999314546585 -0.00699999975040555 8.12759282098341e-09
v -0.0013858192833140492 -0.00699999975040555 -0.0005740190972574055
v -0.0010606598807498813 -0.00699999975040555 -0.0010606545256450772
v -0.0010606597643345594 -0.006999998819082975 0.0010606658179312944
v -0.0013858196325600147 -0.006999998819082975 0.0005740312044508755
v -0.00011108109902124852 -0.0019499995978549123 -0.0007876243907958269
v 0.0015386815648525953 -0.0019499985501170158 -0.0004967291606590152
v -0.00011380251089576632 -0.0021452060900628567 -0.0008079943363554776
v 0.0015346083091571927 -0.002170408144593239 -0.0005224192282184958
v -0.00012112975673517212 -0.002322342712432146 -0.0008628436480648816
v 0.0015196374151855707 -0.0023768343962728977 -0.0005972320795990527
v 0.0014886840945109725 -0.002557925181463361 -0.0007147236610762775
v -0.00013452870189212263 -0.002506047021597624 -0.0009631483117118478
v 0.0014556222595274448 -0.002661478240042925 -0.0008132536895573139
v -0.00015180854825302958 -0.0026566972956061363 -0.001092500751838088
v 0.0014324361691251397 -0.0027110434602946043 -0.0008721821359358728
v 0.0013449426041916013 -0.002824124414473772 -0.0010531243169680238
v -0.0001966511335922405 -0.002871251432225108 -0.0014281852636486292
v 0.0009158318280242383 -0.002950354479253292 -0.0016219738172367215
v -0.00024999972083605826 -0.0029500003438442945 -0.001827541971579194
v 0.0010493593290448189 -0.0029427562840282917 -0.0014764401130378246
v 0.0012172672431915998 -0.0029023673851042986 -0.0012591708218678832
v -0.000742447329685092 -0.002950000111013651 -0.004221298266202211
v -0.0012886652257293463 -0.0029499989468604326 -0.0044303941540420055
v -0.0018798086093738675 -0.0029499989468604326 -0.004578873515129089
v -0.0025086584500968456 -0.0029499989468604326 -0.0026557943783700466
v -0.0016227184096351266 -0.0029499991796910763 -0.0021024742163717747
v -0.0008710705442354083 -0.00294999941252172 -0.0013771684607490897
v -0.00046696196659468114 -0.002949998714029789 -0.0015782468253746629
v -0.0007400201284326613 -0.002949998714029789 -0.001214339630678296
v -0.00871188286691904 -0.0029499982483685017 -0.0058580865152180195
v 0.0009139626054093242 -0.0029499998781830072 -0.0019816115964204073
v 0.0009034179383888841 -0.0029499982483685017 -0.002084779553115368
v 0.0008579798741266131 -0.002949998015537858 -0.0023402422666549683
v 0.00038731470704078674 -0.0029499989468604326 -0.0033331713639199734
v 0.00013485709496308118 -0.0029499998781830072 -0.003620297182351351
v -0.0001477439800510183 -0.0029500003438442945 -0.003867390798404813
v -0.0004794103733729571 -0.0029499984811991453 -0.004087390378117561
v -0.009350823238492012 -0.0029499989468604326 -0.00292826141230762
v 0.0007515221368521452 -0.00294999941252172 -0.0026857920456677675
v 0.0005916475201956928 -0.0029499991796910763 -0.003023476107046008
v -0.009286236949265003 -0.0029499996453523636 -0.005853747483342886
v -0.009816853329539299 -0.002949998714029789 -0.005633865483105183
v -0.010225932113826275 -0.0029499996453523636 -0.005230685230344534
v -0.010262105613946915 -0.0029499984811991453 -0.0035921887028962374
v -0.009871219284832478 -0.0029499998781830072 -0.003171345219016075
v -0.010466172359883785 -0.0029499989468604326 -0.0041290889494121075
v -0.010453494265675545 -0.0029499998781830072 -0.004703316371887922
v -0.00011108147009508684 0.0019500009948387742 -0.0007876235758885741
v 0.0015386816812679172 0.0019500002963468432 -0.000496728578582406
v -0.00019797819550149143 0.0028752079233527184 -0.0014381185173988342
v -0.0002499999536667019 0.002950000576674938 -0.001827544067054987
v 0.0009158316534012556 0.00294984458014369 -0.0016219763783738017
v -0.0001516362972324714 0.0026554716750979424 -0.0010912135476246476
v -0.0001729343057377264 0.0027799641247838736 -0.0012506425846368074
v 0.001247591688297689 0.0028891758993268013 -0.001214745338074863
v 0.0011275297729298472 0.0029296246357262135 -0.0013807121431455016
v -0.0001969590812223032 0.0028721801936626434 -0.001430486561730504
v 0.001285984180867672 0.002868227194994688 -0.0011545397574082017
v 0.0013935891911387444 0.0027712169103324413 -0.0009583140490576625
v 0.0014570815255865455 0.0026574295479804277 -0.0008088520262390375
v -0.00012160953338025138 0.002330868039280176 -0.0008664312190376222
v 0.0014608324272558093 0.0026478231884539127 -0.0007985624251887202
v 0.0015049469657242298 0.002479871967807412 -0.000656941207125783
v 0.0015375807415693998 0.0020696099381893873 -0.0005042088450863957
v 0.0015282798558473587 0.0022826101630926132 -0.0005563716986216605
v -0.003490226110443473 0.002950001275166869 -0.0030129756778478622
v -0.0038531089667230844 0.004450001288205385 -0.001557527924887836
v -0.0036256536841392517 0.002949998714029789 -0.0030439472757279873
v -0.004660819657146931 0.004381046164780855 -0.0017589150229468942
v -0.004083497449755669 0.002950001275166869 -0.0031093175057321787
v -0.004357624799013138 0.0029500019736588 -0.003121746703982353
v -0.005446513649076223 0.00417606346309185 -0.001954808831214905
v -0.004741545766592026 0.0029500010423362255 -0.0031095591839402914
v -0.006188774481415749 0.0038406418170779943 -0.002139878226444125
v -0.005272058304399252 0.0029500017408281565 -0.0030439854599535465
v -0.0012886645272374153 0.0029499991796910763 -0.0044303894974291325
v -0.0007424471550621092 0.0029499989468604326 -0.004221300594508648
v -0.0018798074452206492 0.00294999941252172 -0.004578868392854929
v -0.0025086586829274893 0.002950000111013651 -0.002655796706676483
v -0.00042914849473163486 0.0029499989468604326 -0.0016209654277190566
v -0.0005286285886541009 0.002950000576674938 -0.001501761726103723
v -0.000871070777066052 0.002950001507997513 -0.0013771705562248826
v -0.00037917200825177133 0.002950000111013651 -0.0040279473178088665
v -5.426372808869928e-05 0.002949998714029789 -0.0037936498410999775
v 0.00020311826665420085 0.0029499982483685017 -0.0035508431028574705
v -0.0016227186424657702 0.0029499998781830072 -0.002102476544678211
v -0.0006090058595873415 0.002950001275166869 -0.001399507513269782
v -0.0006162673234939575 0.0029499991796910763 -0.0013899309560656548
v -0.0007401094771921635 0.002949998714029789 -0.0012144559295848012
v -0.00871188286691904 0.0029500017408281565 -0.005858081392943859
v 0.00044717983109876513 0.002949998714029789 -0.0032510906457901
v 0.0006461573648266494 0.0029500017408281565 -0.002920305822044611
v 0.0007934145396575332 0.002950000809505582 -0.0025688055902719498
v 0.0008853079634718597 0.0029500017408281565 -0.0022066545207053423
v 0.0009212289587594569 0.0029499989468604326 -0.0018403177382424474
v -0.009350822307169437 0.002950000111013651 -0.0029282637406140566
v -0.009286236949265003 0.0029499991796910763 -0.005853749345988035
v -0.009871218353509903 0.0029499991796910763 -0.0031713475473225117
v -0.010262107476592064 0.0029500022064894438 -0.0035921907983720303
v -0.01022593304514885 0.0029499991796910763 -0.0052306875586509705
v -0.009816854260861874 0.0029500019736588 -0.005633867811411619
v -0.010453494265675545 0.0029499991796910763 -0.004703318700194359
v -0.01046617142856121 0.0029499991796910763 -0.004129083827137947
v 2.4221333272400614e-10 0.006999999284744263 0.001500001992098987
v 0.0005740255583077669 0.00699999975040555 0.001385824871249497
v -3.8342573560612436e-10 0.007000001613050699 1.980846597859909e-09
v -0.001385819399729371 0.007000001147389412 0.0005740334163419902
v -0.001060659997165203 0.007000001147389412 0.0010606680298224092
v -0.0005740253836847842 0.007000001147389412 0.0013858213787898421
v -0.0010606596479192376 0.006999998819082975 -0.0010606525465846062
v -0.0013858185848221183 0.006999998819082975 -0.0005740171764045954
v -0.0014999996637925506 0.006999999284744263 2.7297260007941304e-09
v 0.0005740246269851923 0.007000002544373274 -0.0013858174206689
v -2.0459087202162607e-10 0.007000000681728125 -0.0014999984996393323
v -0.0005740249762311578 0.00699999975040555 -0.0013858139282092452
v 0.0015000003622844815 0.00699999975040555 8.148920649375668e-09
v 0.0013858191668987274 0.007000001613050699 -0.0005740220658481121
v 0.001060659997165203 0.007000001613050699 -0.001060656737536192
v 0.0010606602299958467 0.007000000216066837 0.001060663489624858
v 0.001385819399729371 0.007000000681728125 0.0005740280030295253
v -0.0011390458093956113 -0.004367108456790447 0.0014411499723792076
v -0.0011120584094896913 -0.004353231750428677 0.001584355952218175
v -0.0010499998461455107 -0.004288346506655216 0.0015445591416209936
v -0.001065590768121183 -0.004314109683036804 0.001947822398506105
v -0.001049999613314867 -0.004269186407327652 0.0023150495253503323
v -0.0013012071140110493 -0.004413640592247248 0.0008611858356744051
v -0.0010499999625608325 -0.00414300337433815 0.0007559580844826996
v -0.001402524532750249 -0.004428876098245382 0.0006031734519638121
v -0.0010499998461455107 -0.003811206202954054 -0.00011298424942651764
v -0.0016062407521530986 -0.004445159807801247 0.0001912168663693592
v -0.0009604869992472231 -0.0031920711044222116 -0.0011034583440050483
v -0.0009322039550170302 -0.0031511380802839994 -0.0011337035102769732
v -0.0010217162780463696 -0.0033091397490352392 -0.0009915112750604749
v -0.0009849776979535818 -0.003232510294765234 -0.0010691614588722587
v -0.002019699662923813 -0.004449999891221523 -0.00041246548062190413
v -0.00182960438542068 -0.004449999425560236 -0.00016443587082903832
v -0.001049998332746327 -0.0034424804616719484 -0.0008065662696026266
v -0.0010320356814190745 -0.0033379315864294767 -0.0009576345910318196
v -0.0008306802483275533 -0.003033299697563052 -0.0011952369241043925
v -0.000793907034676522 -0.002997720381245017 -0.0012059657601639628
v -0.0031660122331231833 -0.004449998494237661 -0.0013075072783976793
v -0.0030730434227734804 -0.004449999891221523 -0.001260452438145876
v -0.002385506872087717 -0.004450000356882811 -0.0007871135603636503
v -0.0025458543095737696 -0.004449999425560236 -0.0009201846551150084
v -0.0003221093793399632 -0.0026549070607870817 -0.0010944836540147662
v -0.0004890952841378748 -0.0026786813978105783 -0.001071144943125546
v -0.0004766253987327218 -0.00251982850022614 -0.0009424597374163568
v -0.0002499999536667019 -0.0019499994814395905 -0.0007997070206329226
v -0.0009915637783706188 -0.0019499986665323377 -0.0002999153221026063
v -0.0009784296853467822 -0.0019499999471008778 -0.0003305207646917552
v -0.0009779685642570257 -0.002236113417893648 -0.0003583460347726941
v -0.000791499565821141 -0.002953466260805726 -0.0011373598827049136
v -0.0009840078419074416 -0.0031803366728127003 -0.0009876827243715525
v -0.0009818930411711335 -0.00299353851005435 -0.0007610170869156718
v -0.0010500000789761543 -0.0030815419740974903 -0.00040623321547172964
v -0.0010499997297301888 -0.0028964742086827755 -0.0002721315249800682
v -0.0009801301639527082 -0.0027682436630129814 -0.0005768006667494774
v -0.0010499993804842234 -0.0026398655027151108 -0.00013911067799199373
v -0.0009788037277758121 -0.002512338338419795 -0.00044156317017041147
v -0.0010499994968995452 -0.002408791333436966 -6.006363037158735e-05
v -0.0010500000789761543 -0.0020978273823857307 -5.940381015534513e-06
v -0.001050000311806798 -0.0019499980844557285 2.192453223415214e-07
v -0.0005041983094997704 -0.002811852842569351 -0.0012303957482799888
v -0.0003614651213865727 -0.0028780605643987656 -0.0014285339275375009
v -0.0005212370306253433 -0.0029147949535399675 -0.0014138644328340888
v -0.0007837082375772297 -0.002798050409182906 -0.0009536402649246156
v -0.000777243752963841 -0.0026129274629056454 -0.0008053407073020935
v -0.0007723949383944273 -0.0024046064354479313 -0.0006972674163989723
v -0.0007693517254665494 -0.0021809739992022514 -0.0006312305340543389
v -0.000767431512940675 -0.001949999132193625 -0.0006099083693698049
v -0.0004249911871738732 -0.0019499999471008778 -0.0007804040214978158
v -0.00045958886039443314 -0.0019499992486089468 -0.0007718358538113534
v -0.000461503368569538 -0.0021486266050487757 -0.0007911257562227547
v -0.00046731901238672435 -0.0023408690467476845 -0.0008485668804496527
v -0.0002499986148905009 0.0019500007620081306 -0.0007995786145329475
v -0.0004249915655236691 0.0019500007620081306 -0.0007804032065905631
v -0.0004674064985010773 0.0023410117719322443 -0.0008479132666252553
v -0.0005212499527260661 0.0029152389615774155 -0.0014137070393189788
v -0.0005042312550358474 0.0028122453950345516 -0.0012301095994189382
v -0.000791532511357218 0.0029534827917814255 -0.0011373462621122599
v -0.0007939333445392549 0.0029977404046803713 -0.0012059661094099283
v -0.0009855463868007064 0.003232714021578431 -0.0010695633245632052
v -0.00096245261374861 0.003194484394043684 -0.0011020585661754012
v -0.0009845906170085073 0.0031803154852241278 -0.0009876983240246773
v -0.000933790928684175 0.0031529488041996956 -0.0011327879037708044
v -0.0008315271115861833 0.0030342114623636007 -0.0011948349419981241
v -0.0010499985655769706 0.003442481392994523 -0.000806569354608655
v -0.001032201573252678 0.00333769922144711 -0.0009582366910763085
v -0.0010224360739812255 0.0033101390581578016 -0.000990814995020628
v -0.0009787104791030288 0.00223610270768404 -0.00035838360781781375
v -0.0010499994968995452 0.0024701785296201706 -7.774501864332706e-05
v -0.001050000311806798 0.002760400529950857 -0.0001955669722519815
v -0.0003221109800506383 0.0026549887843430042 -0.0010942858643829823
v -0.0004891484277322888 0.002679003169760108 -0.001070719095878303
v -0.0007837486919015646 0.0027980576269328594 -0.0009536167490296066
v -0.000982528319582343 0.002993515459820628 -0.0007610440952703357
v -0.0007772902026772499 0.002612925134599209 -0.0008052983903326094
v -0.00047669754712842405 0.002520062495023012 -0.0009419016423635185
v -0.0006289806333370507 0.0023663060273975134 -0.0007880181074142456
v -0.0006232126615941525 0.0019499992486089468 -0.0007073900778777897
v -0.001050000311806798 0.0019500006455928087 2.1983299802741385e-07
v -0.0009915637783706188 0.0019500001799315214 -0.00029991474002599716
v -0.000978601397946477 0.0019499987829476595 -0.0003301396209280938
v -0.0007694069645367563 0.0021809677127748728 -0.000631175353191793
v -0.0007674319786019623 0.001950000529177487 -0.0006099151214584708
v -0.0010500000789761543 0.003085290314629674 -0.0004094234900549054
v -0.000980812357738614 0.002768220379948616 -0.0005768304108642042
v -0.000979522243142128 0.0025123211089521646 -0.0004415997536852956
v -0.0007724467432126403 0.002404599217697978 -0.0006972153787501156
v -0.0002956535608973354 0.002329644514247775 -0.0008749590488150716
v -0.001049999613314867 0.0034346834290772676 -0.0007949078571982682
v -0.002019699662923813 0.004449999425560236 -0.0004124683327972889
v -0.0018296052003279328 0.00445000221952796 -0.00016443844651803374
v -0.0016062409849837422 0.0044451612047851086 0.00019121287914458662
v -0.0010499999625608325 0.0038029630668461323 -0.00013040879275649786
v -0.0010499998461455107 0.003950394224375486 0.0002027954178629443
v -0.001402524416334927 0.0044288793578743935 0.0006031793309375644
v -0.001301207346841693 0.004413643851876259 0.0008611863595433533
v -0.0010500000789761543 0.004148776177316904 0.0007764246547594666
v -0.0010499997297301888 0.0042190528474748135 0.0010647672461345792
v -0.0011390458093956113 0.004367109388113022 0.001441153697669506
v -0.0010500000789761543 0.004290785640478134 0.0015766546130180359
v -0.0010499998461455107 0.004300145898014307 0.0018504394683986902
v -0.0010656259255483747 0.004314159508794546 0.0019473994616419077
v -0.0010499998461455107 0.004269185941666365 0.0023150471970438957
v -0.002385506872087717 0.004450001288205385 -0.0007871161797083914
v -0.0025458536110818386 0.004450001288205385 -0.0009201798820868134
v -0.0031660108361393213 0.004449998494237661 -0.0013075029710307717
v -0.0030730434227734804 0.0044500017538666725 -0.001260455115698278
v -0.00871188286691904 -0.004950000438839197 -0.005858083721250296
v -0.009286236017942429 -0.0049499995075166225 -0.005853744223713875
v -0.009816854260861874 -0.004949998110532761 -0.005633870139718056
v -0.01022593304514885 -0.00494999997317791 -0.00523068243637681
v -0.010453494265675545 -0.00494999997317791 -0.0047033135779201984
v -0.010466172359883785 -0.004949999041855335 -0.004129086155444384
v -0.01026210654526949 -0.004949998576194048 -0.0035921859089285135
v -0.009871219284832478 -0.00494999997317791 -0.0031713421922177076
v -0.009350824169814587 -0.004949998576194048 -0.0029282658360898495
v -0.0038531089667230844 -0.004949999041855335 -0.0015575300203636289
v -0.003073042957112193 -0.0049499995075166225 -0.0012604498770087957
v -0.0023855066392570734 -0.00494999997317791 -0.0007871109410189092
v -0.0018296048510819674 -0.004949999041855335 -0.00016443322238046676
v -0.0014025239506736398 -0.0049499995075166225 0.0006031726952642202
v -0.0010499999625608325 -0.0049499995075166225 0.0023150485940277576
v -0.0011390458093956113 -0.0049499995075166225 0.0014411520678550005
v 0.0022000002209097147 -0.004621992353349924 0.005545393563807011
v 0.0022000002209097147 -0.004254162777215242 0.005875441245734692
v -0.001049999613314867 -0.004254162311553955 0.005875436123460531
v -0.0010500000789761543 -0.004621992819011211 0.005545395892113447
v -0.0010499998461455107 -0.004865624476224184 0.0051052020862698555
v 0.0022000004537403584 -0.004865624941885471 0.005105207208544016
v -0.0010499997297301888 -0.00494999997317791 0.004609217401593924
v 0.0022000002209097147 -0.00494999997317791 0.004609215073287487
v -0.0018798079108819366 -0.004949999041855335 -0.0045788707211613655
v 9.680648872745223e-06 -0.003237402066588402 -0.0037988638505339622
v -2.8384383767843246e-05 -0.0032219088170677423 -0.0038244817405939102
v 2.3565480660181493e-05 -0.0030136150307953358 -0.003751210868358612
v 0.0016342859016731381 -0.0035953407641500235 -0.0019406251376494765
v 0.0015934226103127003 -0.003446205984801054 -0.0019222968257963657
v 0.0017642814200371504 -0.003433896927163005 -0.0015730218729004264
v 0.0010778449941426516 -0.002967206295579672 -0.001667065778747201
v 0.0017046993598341942 -0.0027544545009732246 -0.0008014052291400731
v 0.0017525034490972757 -0.002585850888863206 -0.0006310531753115356
v 0.0017801731592044234 -0.002389053115621209 -0.0005051919142715633
v 0.0017940672114491463 -0.002174052409827709 -0.00042855963693000376
v 0.0018602320924401283 -0.0019500001799315214 -0.00036307115806266665
v 0.0016290206694975495 -0.002884549554437399 -0.001009593834169209
v 0.001521224738098681 -0.0029706370551139116 -0.0012446778127923608
v 0.0013812988763675094 -0.003013027599081397 -0.0014905626885592937
v 0.001210310379974544 -0.0030138175934553146 -0.0017338948091492057
v 0.001011497457511723 -0.0029788727406412363 -0.0019693130161613226
v 0.000914212956558913 -0.002974084345623851 -0.0023027078714221716
v -0.0004077439953107387 -0.0030714061576873064 -0.004054378718137741
v 0.0011063525453209877 -0.0031919146422296762 -0.002502807881683111
v 0.0010219928808510303 -0.0030680408235639334 -0.0024078567512333393
v 0.0013300093123689294 -0.0032686956692487 -0.0022043860517442226
v 0.001243313425220549 -0.0031454141717404127 -0.0021349461749196053
v 0.0015276948688551784 -0.00330865615978837 -0.0018910880899056792
v 0.0014395377365872264 -0.003187911119312048 -0.0018480769358575344
v 0.0016073521692305803 -0.003188125789165497 -0.0015520130982622504
v 0.0020040073432028294 -0.003244495252147317 -0.0008808947750367224
v 0.0020295612048357725 -0.0035625386517494917 -0.0009577335440553725
v 0.0019012793200090528 -0.0033677241299301386 -0.0012198255863040686
v 0.001969776349142194 -0.003632381558418274 -0.0011638886062428355
v 0.001845190767198801 -0.0037122508510947227 -0.0015159575268626213
v 0.0015741143142804503 -0.0037494434509426355 -0.0020846393890678883
v 0.0014261541655287147 -0.0035695142578333616 -0.002301356289535761
v 0.0011893234914168715 -0.0035045244731009007 -0.0026440571527928114
v 0.0006944424821995199 -0.0035112134646624327 -0.0032415136229246855
v 0.0009277491481043398 -0.00340894958935678 -0.0029632914811372757
v 0.0010587242431938648 -0.0036399371456354856 -0.002843082183972001
v 0.0011917671654373407 -0.00367969018407166 -0.002673286711797118
v 0.0013918206095695496 -0.003412136808037758 -0.0022606346756219864
v 0.0011630312073975801 -0.0033398696687072515 -0.002582826418802142
v 0.0006379929254762828 -0.0031133571173995733 -0.003158171661198139
v 0.0006452683010138571 -0.0032912467140704393 -0.003253908595070243
v 0.0003827332693617791 -0.003388960612937808 -0.00352046568877995
v 0.0020098660606890917 -0.001950000412762165 -0.00022634593187831342
v 0.0021203269716352224 -0.0019499993650242686 -5.6426804803777486e-05
v 0.00200617010705173 -0.0022111416328698397 -0.0002579813008196652
v 0.0021467856131494045 -0.002260654466226697 -2.7292389859212562e-05
v 0.0019929984118789434 -0.0024617621675133705 -0.0003518147277645767
v 0.002136644208803773 -0.0025582965463399887 -0.00014173639647196978
v 0.001966733718290925 -0.002691202098503709 -0.0005057103699073195
v 0.00211459887214005 -0.002830101875588298 -0.0003281808167230338
v 0.0019210679456591606 -0.0028877644799649715 -0.0007136319181881845
v 0.002073354786261916 -0.0030631159897893667 -0.0005782968946732581
v 0.0018482411978766322 -0.003039325587451458 -0.0009672043961472809
v 0.0017438118811696768 -0.0031393668614327908 -0.001253081951290369
v 0.0005944131407886744 -0.00295895803719759 -0.0030352971516549587
v 0.0021997177973389626 -0.001949998433701694 0.00028262383420951664
v 0.002199689857661724 -0.002184104872867465 0.0002638090227264911
v 0.002194515662267804 -0.002665251027792692 0.00010193738125963137
v 0.0021697187330573797 -0.0030902717262506485 -0.00021500590082723647
v 0.0021332132164388895 -0.0033124026376754045 -0.0004812594852410257
v 0.0020783471409231424 -0.003476522397249937 -0.0007605733117088675
v 0.001860231626778841 0.001950000412762165 -0.00036307034315541387
v 0.002199718030169606 0.001950000412762165 0.0002826244162861258
v 0.0021203267388045788 0.0019500013440847397 -5.642599717248231e-05
v 0.00200983346439898 0.001950000412762165 -0.00022638787049800158
v 0.0013312733499333262 0.003087450983002782 -0.0017961851553991437
v 0.0014384377282112837 0.003186937887221575 -0.001849370775744319
v 0.0016072960570454597 0.0031880724709481 -0.0015504435868933797
v 0.0016287339385598898 0.0028843884356319904 -0.0010096023324877024
v 0.00170430529396981 0.0027542589232325554 -0.0008019626257009804
v 2.255629988212604e-05 0.0030126578640192747 -0.003753171768039465
v -2.9228278435766697e-05 0.003220936516299844 -0.0038264947943389416
v -0.0004078657948412001 0.003071081591770053 -0.004055125638842583
v -0.0005536266835406423 0.0030166874639689922 -0.004131339956074953
v 0.00107684510294348 0.00296646635979414 -0.0016679277177900076
v 0.0009134914143942297 0.002973484108224511 -0.0023045025300234556
v 0.0012092567048966885 0.0030129689257591963 -0.0017349687404930592
v 0.0013812530087307096 0.003012970555573702 -0.001489203772507608
v 0.0015213357983157039 0.002970733679831028 -0.0012432755902409554
v 0.0017524102004244924 0.0025859109591692686 -0.0006309854798018932
v 0.001780297257937491 0.0023892675526440144 -0.0005046551814302802
v 0.001794106443412602 0.0021741504315286875 -0.0004283023881725967
v 0.0011338581098243594 0.0030459833797067404 -0.0020587085746228695
v 0.0012416010722517967 0.003143905196338892 -0.002138496609404683
v 0.0007486915565095842 0.003532317467033863 -0.0031864966731518507
v 0.0010590598685666919 0.003639957634732127 -0.0028434733394533396
v 0.001188770867884159 0.0035037393681705 -0.002646344481036067
v 0.0012224967358633876 0.0036871840711683035 -0.0026338566094636917
v 0.0015839310362935066 0.003748528426513076 -0.0020674653351306915
v 0.0013902309583500028 0.0034104869700968266 -0.0022644998971372843
v 0.00016168318688869476 0.0032989063765853643 -0.0036927044857293367
v 0.0003829934576060623 0.0033890774939209223 -0.0035201157443225384
v 0.0006459935684688389 0.0032920571975409985 -0.0032521518878638744
v 0.0009285073028877378 0.003409645752981305 -0.0029621063731610775
v 0.0006386929890140891 0.0031141582876443863 -0.0031564475502818823
v 0.0011624081525951624 0.003339156275615096 -0.002585009904578328
v 0.0005950894556008279 0.0029597252141684294 -0.0030336016789078712
v 0.0011056751245632768 0.0031912412960082293 -0.0025048693642020226
v 0.0010212836787104607 0.0030673984438180923 -0.002409796230494976
v 0.0020730234682559967 0.0030629069078713655 -0.0005790331051684916
v 0.0021445986349135637 0.0032584788277745247 -0.0004085900145582855
v 0.00211456511169672 0.0028302210848778486 -0.00032811396522447467
v 0.0021862846333533525 0.0028824126347899437 -3.43354549841024e-05
v 0.0021368234883993864 0.0025586022529751062 -0.00014104564615990967
v 0.0021946930792182684 0.0026678747963160276 0.00010151057358598337
v 0.0021468789782375097 0.002260794397443533 -2.695232797123026e-05
v 0.0021986565552651882 0.0024341007228940725 0.00020220574515406042
v 0.0015924063045531511 0.0034451927058398724 -0.0019236609805375338
v 0.0017642541788518429 0.0034339292906224728 -0.0015712602762505412
v 0.0017439225921407342 0.003139499109238386 -0.0012514542322605848
v 0.0019014176214113832 0.003367944620549679 -0.001218029297888279
v 0.0018479449208825827 0.0030391558539122343 -0.0009672382147982717
v 0.0020037705544382334 0.0032443541567772627 -0.0008809186401776969
v 0.0019206617726013064 0.002887551672756672 -0.0007143132388591766
v 0.0019666398875415325 0.0026912845205515623 -0.0005056509398855269
v 0.001993137411773205 0.002462017349898815 -0.0003511923714540899
v 0.002006236696615815 0.002211259212344885 -0.0002576773113105446
v 0.0018655906897038221 0.0037036403082311153 -0.0014618152054026723
v 0.0019695227965712547 0.003633110551163554 -0.0011632005916908383
v 0.0020412986632436514 0.0035449350252747536 -0.0009123186464421451
v 0.002142894547432661 0.003267030231654644 -0.000419850111939013
v -0.00871188286691904 0.00494999997317791 -0.005858084186911583
v -0.009286236949265003 0.004950000438839197 -0.005853744689375162
v -0.009816854260861874 0.004950000438839197 -0.00563387107104063
v -0.01022593304514885 0.004950000438839197 -0.005230682902038097
v -0.010453494265675545 0.004950000438839197 -0.004703314043581486
v -0.010466172359883785 0.0049500009045004845 -0.004129086621105671
v -0.010262105613946915 0.0049499995075166225 -0.0035921866074204445
v -0.009871219284832478 0.00494999997317791 -0.003171342657878995
v -0.009350823238492012 0.0049500009045004845 -0.0029282590840011835
v -0.003853109199553728 0.004950001370161772 -0.0015575304860249162
v -0.0030730431899428368 0.004950000438839197 -0.001260450342670083
v -0.0023855064064264297 0.004950000438839197 -0.0007871114066801965
v -0.0018296047346666455 0.0049500009045004845 -0.00016443368804175407
v -0.0010499994968995452 0.004949999041855335 0.0023150478955358267
v -0.0011390458093956113 0.004949998576194048 0.0014411513693630695
v -0.0014025247655808926 0.004950002301484346 0.0006031724624335766
v -0.001879808260127902 0.004950001370161772 -0.004578871186822653
v -0.0010499998461455107 0.004621993284672499 0.005545385647565126
v -0.0010500000789761543 0.004254165571182966 0.005875431001186371
v 0.002199999988079071 0.004254164174199104 0.005875428207218647
v 0.0021999997552484274 0.004621995147317648 0.005545383784919977
v 0.002200000686571002 0.004865624010562897 0.005105198826640844
v -0.001050000311806798 0.004865626338869333 0.005105193704366684
v 0.0022000002209097147 0.0049499995075166225 0.004609207157045603
v -0.0010500001953914762 0.0049500009045004845 0.004609209485352039
v 0.0021999997552484274 0.001496190787293017 0.007562398444861174
v 0.002199999988079071 0.002071435796096921 0.007261656224727631
v 0.0014158374397084117 0.001790141104720533 0.007424127776175737
v 0.0004944148822687566 0.0020714348647743464 0.007261659484356642
v 0.0004944367683492601 -0.0020714362617582083 0.007261661812663078
v 0.0021999997552484274 -0.002071436494588852 0.007261659950017929
v 0.0014158455887809396 -0.001790145761333406 0.007424133829772472
v 0.0021999997552484274 -0.0014961963752284646 0.007562396116554737
v -0.0010500004282221198 0.0016318283742293715 0.003367831464856863
v -0.0010499999625608325 0.001293265842832625 0.0028210363816469908
v -0.0010499999625608325 0.0007800433086231351 0.002433468820527196
v -0.0010500000789761543 -0.0010546095436438918 0.0026034770999103785
v -0.0010499998461455107 0.0017499999376013875 0.004000002983957529
v -0.0010499993804842234 -0.0010546111734583974 0.005396538879722357
v -0.0010499994968995452 -0.0014878800138831139 0.004921262618154287
v -0.0010499991476535797 0.0025002274196594954 0.006989337969571352
v -0.0010499999625608325 0.0007800431922078133 0.0055665383115410805
v -0.0010500000789761543 0.00016147030692081898 0.005742539651691914
v -0.0010500000789761543 -0.002500234404578805 0.006989335175603628
v -0.0010499998461455107 -0.0004789097874891013 0.005683197174221277
v -0.001050000311806798 0.0016318286070600152 0.004632176365703344
v -0.0010499998461455107 0.001293266424909234 0.005178974475711584
v -0.0010499994968995452 -0.001720202504657209 0.004321569111198187
v -0.0010499997297301888 -0.0017202027374878526 0.0036784468684345484
v -0.0010499998461455107 -0.0014878801302984357 0.0030787514988332987
v -0.0010500000789761543 0.00016147090354934335 0.002257467480376363
v -0.0010499997297301888 -0.00047890987480059266 0.002316809259355068
v -0.0010606598807498813 -0.004949999041855335 0.0010606672149151564
v -0.000574024859815836 -0.00494999997317791 0.0013858278980478644
v -0.0013858189340680838 -0.004949999041855335 0.0005740324850194156
v -0.001500000013038516 -0.004949999041855335 2.0827881641594104e-09
v -0.001385819399729371 -0.00494999997317791 -0.0005740177584812045
v 3.6501343614325776e-10 -0.004950000438839197 -0.00149999198038131
v -0.0005740253254771233 -0.004949999041855335 -0.0013858146267011762
v -0.001288665342144668 -0.004949999041855335 -0.004430391360074282
v -0.001060659997165203 -0.0049499995075166225 -0.0010606532450765371
v 4.0958067493157557e-10 -0.00494999997317791 0.001500008744187653
v -0.0004083712410647422 -0.004949998576194048 -0.0040551889687776566
v 0.0003843236481770873 -0.004950000438839197 -0.0035191504284739494
v 0.0005740256165154278 -0.004950000438839197 -0.0013858111342415214
v 0.0010603821137920022 -0.0049499995075166225 -0.0028419275768101215
v 0.0010606602299958467 -0.004949998576194048 -0.0010606575524434447
v 0.001595043926499784 -0.0049499995075166225 -0.002048305468633771
v 0.0013858191668987274 -0.004949998576194048 -0.0005740229389630258
v 0.0019687246531248093 -0.0049499995075166225 -0.001167362672276795
v 0.0015000002458691597 -0.004950000438839197 7.2830732555928535e-09
v 0.0021677366457879543 -0.004949999041855335 -0.00023136628442443907
v 0.0013858191668987274 -0.00494999997317791 0.0005740271881222725
v 0.0022000002209097147 -0.0049499995075166225 0.0003357235109433532
v 0.0010606602299958467 -0.00494999997317791 0.0010606625583022833
v 0.0005740251508541405 -0.004949999041855335 0.001385824172757566
v 0.0010603823466226459 0.004950001835823059 -0.0028419203590601683
v -0.0004083711246494204 0.004950001835823059 -0.004055189434438944
v -0.001288665342144668 0.0049500009045004845 -0.004430391825735569
v 0.00038432335713878274 0.004950001835823059 -0.003519150661304593
v 0.0015950436936691403 0.0049500009045004845 -0.0020483059342950583
v 0.0019687244202941656 0.004950000438839197 -0.0011673631379380822
v 0.0021677373442798853 0.0049499995075166225 -0.00023136698291637003
v 0.002199999988079071 0.0049500009045004845 0.00033572304528206587
v 0.0005740253254771233 0.004950001835823059 -0.001385811367072165
v 0.0010606598807498813 0.004950001835823059 -0.001060658018104732
v 0.0013858190504834056 0.004950001370161772 -0.0005740233464166522
v 0.0015000003622844815 0.00494999997317791 6.817975073403204e-09
v 0.0013858192833140492 0.004950000438839197 0.0005740267224609852
v -0.0010606595315039158 0.004949998576194048 -0.001060653943568468
v -0.000574024859815836 0.0049499995075166225 -0.0013858152087777853
v -0.0013858189340680838 0.004949998576194048 -0.0005740184569731355
v -0.0014999998966231942 0.004949999041855335 1.4092697009360222e-09
v -0.0013858192833140492 0.004950001370161772 0.0005740320193581283
v -0.0010606603464111686 0.0049500009045004845 0.001060666749253869
v -0.0005740247434005141 0.004950000438839197 0.0013858274323865771
v 4.4988351932673254e-10 0.004949998576194048 0.001500008045695722
v 0.0005740252090618014 0.0049499995075166225 0.001385823474265635
v 0.001060660113580525 0.004950000438839197 0.001060662092640996
v 4.5654677260920096e-10 0.0049499995075166225 -0.0014999924460425973
v 0.0022000004537403584 -0.0004789104568772018 0.005683202296495438
v 0.0022000004537403584 -0.0010546109406277537 0.00539653655141592
v 0.0022000002209097147 -0.0014878797810524702 0.004921260289847851
v 0.0022000002209097147 -0.001720202388241887 0.00432156678289175
v 0.0022000002209097147 -0.001720202504657209 0.003678444540128112
v 0.0022000004537403584 -0.001487879897467792 0.003078749170526862
v 0.0021999997552484274 -0.00105460942722857 0.002603474771603942
v 0.002199999988079071 0.0017500011017546058 0.0040000081062316895
v 0.002200000686571002 0.001631826045922935 0.003367836121469736
v 0.002200000686571002 0.0012932652607560158 0.002821041503921151
v 0.0021999997552484274 0.0007800434832461178 0.0024334664922207594
v 0.0022000002209097147 0.00016147024871315807 0.002257472602650523
v 0.002200000686571002 -0.0004789105150848627 0.002316814148798585
v 0.0021999997552484274 0.00016147048154380172 0.005742537323385477
v 0.0022000004537403584 0.0007800425519235432 0.005566543433815241
v 0.002199999988079071 0.0012932665413245559 0.0051789721474051476
v 0.0022000004537403584 0.0016318261623382568 0.004632181022316217
vn -0.16775496983507154 0.7071210879510514 0.6869046783000939
vn -0.15039838009282339 0.4372594416292485 0.8866704618805864
vn 0.014940958854241208 0.9019741440582566 0.4315314718521598
vn -0.05616322734820553 0.36091651317013584 0.9309054529945266
vn 0.07440752974555484 0.8985809529303711 0.4324532235374257
vn 0.11333431649352985 0.8877440587896783 0.44616792666951377
vn -0.022137566711004312 0.32196436435902925 0.9464929351152084
vn 0.11322204011494282 0.8933963746369605 0.43476854465076714
vn 0.11092076004720078 -0.8869907410409492 0.4482677886020575
vn 0.11083194041354466 -0.8952179089056925 0.43162620003735613
vn -0.02447538327380161 -0.3231864730289271 0.9460187414976107
vn 0.07810248988753724 -0.8938968349577319 0.4414164128415669
vn -0.1677525894079295 -0.7071194763464436 0.6869069186712753
vn 0.037075913268152204 -0.871275421482297 0.4893919866284882
vn -0.14562732091959757 -0.4377200573995699 0.8872394461203232
vn -0.05528173844192882 -0.3676134099286761 0.9283341587141181
vn -0.0560873769038303 0.32098843322462034 0.9454208755300738
vn 0.0647822642266178 0.9115590064580652 0.40603378675531177
vn -0.11017181385786874 0.34726221995637685 0.9312739242683842
vn 0.025277340238828248 0.9182182249446134 0.39526743788226953
vn -0.006100435428995464 0.9222960006322085 0.3864361162021605
vn -0.16745337393003648 0.3619892361264098 0.9170186260311542
vn -0.03821270943116373 0.9261216676450864 0.375284486165114
vn -0.06921477440826003 0.9271547956704225 0.3682299551488863
vn -0.2569426919198134 0.37927703225112985 0.8888922239933112
vn -0.10425221339510483 0.9291030739487346 0.3548224259840883
vn 2.85590914525387e-06 -0.6657187697670113 0.7462027335595472
vn -0.28556053038818985 -0.6657192380927967 0.689400521843117
vn 9.635466281982596e-09 -0.9999999999999963 8.510948137211794e-08
vn 0.6894018318562752 -0.6657180240855385 0.28556019792831555
vn 0.5276442451171713 -0.6657176546650182 0.5276471878651849
vn 0.285559087481335 -0.6657202075876006 0.6894001833234085
vn 0.5276454194506461 -0.6657197737717243 -0.5276433399011837
vn 0.6894011048296698 -0.6657189104109971 -0.28555988685532424
vn 0.7462021416485163 -0.6657194332443418 4.568082665940737e-09
vn -0.2855585611161494 -0.66571747176985 -0.6894030431856486
vn 1.4666881607361924e-06 -0.665718923378072 -0.7462025965206697
vn 0.28555918321039636 -0.6657194880519947 -0.6894008384909329
vn -0.7462021349104515 -0.6657194407965193 8.086430696548729e-07
vn -0.6894016869856433 -0.6657187491741053 -0.28555885729462793
vn -0.5276451959933057 -0.6657193848515776 -0.5276440540535099
vn -0.5276454130180382 -0.6657190958801151 0.5276442016184636
vn -0.689401582738218 -0.6657183318257004 0.28556008192540955
vn 0.13047890616791594 0.05069638831518616 -0.9901540947029508
vn 0.27490866159598204 0.059658506306748654 -0.9596176792893895
vn 0.07110022572415246 0.18604552815624945 -0.9799652133392476
vn 0.2557218043191455 0.21170697748254647 -0.9432849593208646
vn 0.04977462980152159 0.3872874271435543 -0.9206144334109951
vn 0.244125231228423 0.4106687478830375 -0.8784953335048782
vn 0.2229007623723341 0.5745289313034949 -0.7875479396386588
vn 0.035634986579827936 0.5678860092517193 -0.8223354718286277
vn 0.2046293923451187 0.6700682888621585 -0.7135371749599361
vn 0.05314072169311909 0.7617970874191672 -0.6456324506231146
vn 0.20070413706118534 0.7474472447543217 -0.6332775581652159
vn 0.17446580099591455 0.8426315167561688 -0.5094446105829878
vn 0.0001129340953287272 0.9219634430052848 -0.38727689965673306
vn 0.038504042842224966 0.9982456742065633 -0.044977912498112574
vn -0.01695090231141695 0.9979768464927697 -0.061277081973404986
vn 0.10926994633303318 0.9766092658408122 -0.1851875284738297
vn 0.13786148870913895 0.9258305962632407 -0.3518975944131366
vn 0.2894886361805733 0.6957669086864887 -0.6573467413010876
vn 0.21680741894281375 0.6939082118972635 -0.6866483354329914
vn 0.15270612425640603 0.7003077027357736 -0.6973162561589474
vn -0.1578598352851086 0.9324929248370247 0.32486492197935
vn -0.22262757344952674 0.9321115985569047 0.28566576864522525
vn -0.27439491570383895 0.9286057397050586 0.24979753886438566
vn -0.1060698227475581 0.9862525266364517 -0.12670890420770103
vn -0.46359981358364627 0.8743077653820507 -0.14373984916457008
vn 0.06449594942736732 0.6860868968381663 -0.7246551196910418
vn 0.13627169895467392 0.9903708006506572 -0.02440699249361052
vn 0.17580977258868108 0.9836755366927137 -0.038384402751873256
vn 0.24652548624054435 0.9667538918788517 -0.06791242280287588
vn 0.4181527264227667 0.8377749336989827 -0.35111459361705855
vn 0.42675192239085896 0.7921039092586059 -0.43641057924039917
vn 0.3850391927038932 0.7424343177453043 -0.5482117327420115
vn 0.34017281698596763 0.7120868667067317 -0.6141781084079934
vn -0.24307757980178207 0.6860864089028018 0.6857103832643675
vn 0.3475826782042013 0.9240774142301105 -0.15895664290047073
vn 0.36173089195786257 0.9103916431670028 -0.20084276898871334
vn -0.1482658611873382 0.6664447980902525 -0.7306630998653343
vn -0.4120002682944159 0.6664470904900847 -0.6213727178615346
vn -0.6153271371235085 0.666444914872449 -0.42097944101825363
vn -0.6333032755070225 0.6664494892326086 0.3934107770939577
vn -0.4390228828731883 0.6664439762689125 0.6025872009996528
vn -0.734733481433911 0.6664463691733824 0.12655413179987635
vn -0.7284329701963601 0.6664451947973521 -0.15885908932896528
vn 0.13007696658711446 -0.09521133070922068 -0.9869218739434618
vn 0.2811946850306427 -0.028721868647792605 -0.9592208313896737
vn -0.05133597555911139 -0.960565627209453 -0.27327329440892034
vn -0.018746893429159535 -0.9979439448357125 -0.06128977853192317
vn 0.04967156822376856 -0.9957850849174292 -0.07710252892207528
vn 0.06562715773932153 -0.6870575331341158 -0.7236332098036421
vn -0.002767958227823446 -0.8337900143195013 -0.5520747688749549
vn 0.16150594299752344 -0.9059178981755537 -0.39144423886636504
vn 0.12810303687383368 -0.9641734483667255 -0.2322911393237341
vn -0.029717473549581805 -0.9109145821139497 -0.41152338433921126
vn 0.15419212286171058 -0.8717573743534753 -0.4650417932914564
vn 0.1878243702074546 -0.8010794795589727 -0.5683253235477882
vn 0.21741372114003285 -0.6935518678011581 -0.6868166280234989
vn 0.10802100106310066 -0.39144517833538306 -0.9138392285776014
vn 0.21237725487859677 -0.6337012783510642 -0.743853877738403
vn 0.23665761179331243 -0.5181885197534088 -0.821872151113576
vn 0.27268990109315006 -0.14298759924127097 -0.9514172398611588
vn 0.2573918971123577 -0.3174604686158392 -0.9126709495580065
vn -0.10424230131521633 -0.9291009524642873 0.3548308931680867
vn -0.2567174418692547 -0.37913881545512884 0.8890162617496868
vn -0.06892888371852178 -0.9272156363084827 0.3681303746967561
vn -0.1667477612678647 -0.36176227106006814 0.9172367433490751
vn -0.037720939283342254 -0.9260854163957438 0.3754236703761553
vn -0.005647328347328895 -0.9222129978290011 0.38664104065371036
vn -0.10920747160431869 -0.3462025031237334 0.931781924581419
vn 0.026479553910284198 -0.9183923857128238 0.3947838131046161
vn -0.056348128934360815 -0.31924213295056236 0.9459964846207264
vn 0.06366370321256011 -0.9130705097279569 0.40280165982576627
vn 0.21680234411454236 -0.6939102154318968 -0.6866479130571198
vn 0.2889871950821533 -0.6944759657233279 -0.6589305988578771
vn 0.15270549964843644 -0.7003087497216451 -0.6973153414635503
vn -0.15803613032690772 -0.9326969482466916 0.3241928195420203
vn -0.092970109900106 -0.9904660032665983 -0.10165458690218171
vn -0.19465500043348014 -0.9677572773673857 -0.15986019801284784
vn -0.2731439519789845 -0.9289874518453315 0.24974926588724977
vn 0.3730668298502462 -0.7181388002247031 -0.5874502566833311
vn 0.3872028374395028 -0.7696637573009486 -0.5076333946621171
vn 0.42959261422755207 -0.7971948542916395 -0.4241822133141243
vn -0.22198638333472254 -0.9326596536767212 0.2843730226614122
vn -0.20216820270444663 -0.9670294359220475 -0.15486151192449465
vn -0.2268211523074826 -0.955793516881345 -0.18711204652158545
vn -0.46767432426821587 -0.8729140878513527 -0.1389306361135237
vn 0.06450233036477326 -0.6860882953323076 -0.724653227678951
vn 0.4078481266048078 -0.8574729938752026 -0.31368769564591686
vn 0.3694771371509222 -0.9093331849616445 -0.19131075205087175
vn 0.3313112458157685 -0.9332434157830701 -0.13888695148771601
vn 0.18189489513378473 -0.9817104415321276 -0.05620370193381007
vn 0.059553162609451 -0.9982147012459038 -0.004564103390921627
vn -0.24307659179100305 -0.6860879794567308 0.6857091620856838
vn -0.14826119166692012 -0.6664449920388 -0.7306638704848547
vn -0.4390209652077436 -0.6664472878076514 0.6025849356579426
vn -0.6333079305534666 -0.6664435624019696 0.3934133236572674
vn -0.6153226273875214 -0.6664502283514642 -0.42097762096719443
vn -0.4120027295812197 -0.6664412205828655 -0.621377381569079
vn -0.7284329261129499 -0.6664455023622257 -0.15885800116986992
vn -0.7347318839006067 -0.6664474808909465 0.1265575521017086
vn -6.201792029825751e-07 0.6657190793445027 0.7462024573775694
vn 0.285558605704807 0.6657172978874318 0.6894031926248839
vn -3.7237187022225795e-07 0.9999999999999228 1.2453908886923993e-07
vn -0.6894020536960388 0.6657187569421142 0.28555795386423843
vn -0.5276433868625239 0.6657183944315861 0.5276471127710984
vn -0.28555517492986154 0.6657208746146759 0.6894011598286207
vn -0.527646569559438 0.6657185666589803 -0.5276437127813333
vn -0.6894012386391111 0.665718616291708 -0.2855602494842601
vn -0.7462032993440769 0.6657181355795648 -2.9123593147673926e-06
vn 0.2855598332403233 0.6657185918819339 -0.689401434624627
vn -2.791697121525435e-06 0.6657172306152677 -0.7462041066987941
vn -0.285563717068008 0.6657189984975884 -0.6893994332269723
vn 0.746203615699803 0.6657177809806533 1.653980113072111e-06
vn 0.6894015075756135 0.665719217044462 -0.28555819968997526
vn 0.527645383026236 0.6657186620743063 -0.5276447789347417
vn 0.5276457217326491 0.6657187088863785 0.5276443811658424
vn 0.6894009443301415 0.6657191248644114 0.2855597743844036
vn -0.9131437890468744 0.35585571268284927 0.19883443433193052
vn -0.9172820841930673 0.3854987798877413 0.09992131265893771
vn -0.9195036947847568 0.3910480284946302 0.03992987212155623
vn -0.9734213702932603 0.2255681102463141 0.03962150295354986
vn -0.9999312155995632 0.0067125938316762125 0.009617959951620635
vn -0.8807732741068424 0.399316552970245 0.2545284466284159
vn -0.9091712917560811 0.39909339448820197 0.11887819279608616
vn -0.8523157885355568 0.38058205373977844 0.35876886289674675
vn -0.8933837364761197 0.4034051928983927 0.19781241048674827
vn -0.8066650877825003 0.39381799684338886 0.4406799536115884
vn -0.77626987014799 0.6164716914441981 0.1317867305473212
vn -0.714693591181883 0.6800676103285697 0.1634659478470433
vn -0.8140891410055864 0.5450410866126454 0.20047215367949037
vn -0.8049575418499892 0.5754351301387853 0.14462975772980416
vn -0.6927513751138026 0.3975091595285307 0.6017324990133542
vn -0.7590521197981611 0.38571022368615077 0.5244687815055323
vn -0.8566850545451438 0.4707878705083843 0.21083049661082
vn -0.791933129052152 0.5463619512019028 0.27263627306086247
vn -0.7093616620377178 0.6935546974541092 0.12564996645612506
vn -0.6751904451658076 0.7361512345669865 0.04689586977869498
vn -0.36422644567896306 0.39140718496101073 0.8450677557622032
vn -0.45922468338285605 0.38677460114249457 0.799698754583862
vn -0.625431256293351 0.3866715004131054 0.677732170122976
vn -0.5420088843299983 0.39483548605112334 0.741843183066424
vn -0.08308132713446907 0.7746912156952772 -0.6268580488485004
vn -0.354630274076464 0.6710042816244994 -0.6511456233056022
vn -0.2966944864030483 0.5482593684445596 -0.7819105106409583
vn -0.030619286381702707 0.003884362700193269 -0.9995235720221353
vn -0.9572674441630777 0.007345087180026377 -0.2891108611584955
vn -0.8661649208022144 0.023473657197460546 -0.4992066880456124
vn -0.91425740628726 0.07565856157935734 -0.3980065038521791
vn -0.6853183997972409 0.6199413641369831 -0.38211437545756605
vn -0.9170234532123489 0.34895129292524385 -0.1931346199527666
vn -0.9177241019293566 0.28452048498352706 -0.2771832721552555
vn -0.9954273310043705 0.0617368923979854 -0.07289022435522488
vn -0.9951301104762531 0.05256672566585757 -0.08338346704407729
vn -0.9160450660675793 0.22719398100224542 -0.3305213032916272
vn -0.9948940183246193 0.04021445421986995 -0.09256721867751022
vn -0.9152849159865901 0.15708269841568698 -0.3709158239086958
vn -0.9947980397363212 0.02599053633182604 -0.09849544232073262
vn -0.9952783777891988 0.00682522669813076 -0.09682131472883473
vn -0.9955003627847789 0.001946830478804104 -0.09473773032145227
vn -0.3928997034485528 0.7780553036377306 -0.4901630009611477
vn -0.13417356118568732 0.8852891416345904 -0.4452646305093644
vn -0.36120143065593474 0.8599339815054902 -0.3606204014531364
vn -0.6738051182237376 0.5298783390592036 -0.5149908819108885
vn -0.6662721345949449 0.4201060037926134 -0.6161106947941224
vn -0.6600491130401359 0.29080902219787363 -0.6926509084547905
vn -0.6566251817347712 0.14886891117600018 -0.7393790759800082
vn -0.6508436980882301 0.035962202212633534 -0.7583595457768396
vn -0.16043423254779218 0.03043927462139261 -0.9865770662180043
vn -0.35586035982790026 0.04541908232276336 -0.9334347921864254
vn -0.27376032508219283 0.18170774290102243 -0.9444774113660463
vn -0.27584152824569597 0.37235793346015 -0.8861495475845852
vn -0.011799086289150686 -0.09462385277375236 -0.9954431716823379
vn -0.2272127397636144 -0.09323583957335986 -0.9693716774840095
vn -0.30761197965934006 -0.33274421745339006 -0.8914348858561644
vn -0.29316799456315906 -0.8834391825427053 -0.3654965632014783
vn -0.3211845832927974 -0.7950418802933765 -0.5145375321923602
vn -0.6832100769836718 -0.6204489356366095 -0.38505468309756175
vn -0.6758222249694807 -0.7355381869447174 0.047411979323566805
vn -0.8052826643609092 -0.5748358792048704 0.1452017302188879
vn -0.7769693474702 -0.6156545387436235 0.13148430330692565
vn -0.9175049235285112 -0.3461859860262102 -0.19580597125726648
vn -0.7239072026212972 -0.6722948505293338 0.15484829977997486
vn -0.708086924433229 -0.6969911329360146 0.11320895748686005
vn -0.853883066206414 -0.4747300109139845 0.21334274298307163
vn -0.7927400928495882 -0.5452927145360771 0.27243164401864667
vn -0.8143270664136041 -0.544267274311291 0.20160496774626274
vn -0.9095884568830193 -0.07348293681324149 -0.4089609970430787
vn -0.9955020585767265 -0.025628043673720315 -0.09120775595834991
vn -0.9953830394496215 -0.04500606070475644 -0.08477652550012388
vn -0.10771716558926522 -0.6687418189428487 -0.7356503189929473
vn -0.35005424107050176 -0.6722852375379031 -0.6522994616716774
vn -0.6738370987335055 -0.5302732855312016 -0.5145423277266474
vn -0.9168670205653134 -0.289782858701509 -0.27455557070011544
vn -0.6694672375874998 -0.4130581893747784 -0.6174111676892409
vn -0.42229566630251814 -0.49598721720995353 -0.7587246210493228
vn -0.4620909315319735 -0.25664813702677347 -0.8488837993250898
vn -0.4570626528793733 -0.08849652332326961 -0.885020958340854
vn -0.995785066942917 -0.006519827995605457 -0.09148547587676326
vn -0.9561530980751629 -0.014451425657601222 -0.29251052859295656
vn -0.8663933799760464 -0.024890579928268004 -0.49874138605545537
vn -0.7420418789602198 -0.11575541916746927 -0.6602836760079338
vn -0.6988853978084496 -0.050679237932441 -0.7134359225415497
vn -0.9953884051258534 -0.06229592996863648 -0.07294614486285915
vn -0.9158619539980207 -0.22350026623735522 -0.33353337495782714
vn -0.9142002423002812 -0.15652095080905712 -0.3738169457581286
vn -0.697401012456351 -0.2781199332330618 -0.6605158064447011
vn -0.06337916040900363 -0.3940854247072697 -0.9168859035120676
vn -0.9953602140679222 -0.07585236228747462 -0.059198508309498084
vn -0.6808470301151656 -0.4095419151677472 0.6072254452047381
vn -0.7624182206193459 -0.3923794855635151 0.5145452323912268
vn -0.7910379060693173 -0.4162165403824405 0.4483556876783679
vn -0.892891752284283 -0.4015861279641013 0.2036489639784675
vn -0.9025415189417982 -0.39825226529917623 0.16374962525241507
vn -0.8539524208283441 -0.3810537626692149 0.35434911163574867
vn -0.8776291580041482 -0.3932074509309128 0.27414405255876645
vn -0.9098965876699218 -0.3964017519674038 0.12228593861849155
vn -0.9124801575012172 -0.4014179585117221 0.07901635748903438
vn -0.9092361334740827 -0.38825271718838245 0.15016484668835745
vn -0.9135940214308023 -0.40591652130013256 0.02403625889138836
vn -0.9030111642976335 -0.42959560784940654 0.00429544762877542
vn -0.9351285502590473 -0.352510091962325 0.03565430626341769
vn -0.9999338532900865 -0.006699686749514282 0.009348970098254849
vn -0.631392271492151 -0.3904520771301138 0.6699932648652234
vn -0.5415187022124618 -0.3939231336688229 0.7426857073585474
vn -0.36420480180906617 -0.391406916890142 0.8450772081589778
vn -0.4602013438030597 -0.38576171996302927 0.7996265494423153
vn 0.06449581986533073 -0.6860878676206212 -0.7246542121064969
vn -0.1482619959711151 -0.6664474107817681 -0.7306615011158987
vn -0.4120017167657819 -0.6664427024481651 -0.6213764637766988
vn -0.6153249451803741 -0.6664493506731878 -0.4209756226030863
vn -0.7284318905431377 -0.6664465361742522 -0.15885841262297473
vn -0.7347354723817682 -0.6664439323776237 0.1265554053408593
vn -0.6333093605496243 -0.666442145816722 0.39341342137683744
vn -0.43901856049220556 -0.6664447451808114 0.6025894997128933
vn -0.24307392278409898 -0.6860881497350194 0.6857099378421808
vn -0.2049656852021276 -0.7193221132756197 0.6637505293725339
vn -0.3172283875734939 -0.7288344706566192 0.6067672243127563
vn -0.4545816264347955 -0.7260523740015403 0.5159491206646479
vn -0.56347066652017 -0.7231505253917221 0.39944226816524026
vn -0.635951713275222 -0.7235203080892799 0.26848423075611566
vn -0.6988345958963362 -0.7147110517832923 0.02860629366459082
vn -0.6716026232924405 -0.7265472542548572 0.14518610030385126
vn 0.6715389240398221 -0.5796373948859935 0.46157985652454175
vn 0.6889678713017874 -0.43780652049151475 0.5776233400140585
vn -0.6889698670308583 -0.4378023170181687 0.57762414556267
vn -0.6715379643723324 -0.579637177101662 0.4615815261990896
vn -0.671236570285899 -0.6995485201737605 0.24509862225954096
vn 0.6712355576069691 -0.699548644681406 0.2451010402435478
vn -0.6886474785282485 -0.7225243210866282 0.061018486993635664
vn 0.6886477302959108 -0.7225241971775149 0.061017112774025564
vn 0.1527061680165138 -0.7003085211950936 -0.6973154246044279
vn 0.5911762824820509 0.06028108934623797 -0.804286511945795
vn 0.5590398647733603 0.060658205448144334 -0.826918987389934
vn 0.6225738407531233 0.2432739619281844 -0.7437873299926997
vn 0.8770934044066331 0.17619383549930012 -0.446836538656395
vn 0.8185147957771678 0.37656063931378264 -0.43386128429886045
vn 0.8503442235979449 0.34932953459316896 -0.39355250939935393
vn 0.21228998032385948 0.9744514611814433 -0.07333017152199722
vn 0.449486328980013 0.6211462801037047 -0.641980793149921
vn 0.4732402725773482 0.4924336104397742 -0.7304469752967467
vn 0.49007786200727776 0.3428361918317307 -0.8014281220051442
vn 0.49715875844032253 0.1822659743597101 -0.8482996425183631
vn 0.5548180586141981 0.03531905960502505 -0.8312216827442538
vn 0.4251257736305813 0.7314372679925399 -0.5331675155020319
vn 0.4000227222406701 0.8107164835410802 -0.427458307915461
vn 0.37307651683410803 0.8711168798046595 -0.31932631320692006
vn 0.38301450063578407 0.8989895686785133 -0.21240915166240265
vn 0.38755688057212395 0.9119542723011984 -0.1346813630492209
vn 0.48415593751863634 0.864553237082586 -0.13468752137994106
vn 0.5004923033475459 0.0397428783997478 -0.8648282823233587
vn 0.6976154477183336 0.6035241420543763 -0.386123422058644
vn 0.598218654015193 0.7573613047570656 -0.26179819717661507
vn 0.7190157205203844 0.5780592273537906 -0.3858288782811511
vn 0.5914944196653448 0.7598588161530896 -0.2697200975440691
vn 0.7393854786172809 0.5457461201482687 -0.39429720561146003
vn 0.5933966074840713 0.7363427872580697 -0.3250842442804819
vn 0.6480711076999754 0.6647446200449157 -0.37164287896563714
vn 0.8849125882894232 0.28515861880230037 -0.368258432638926
vn 0.956310168684694 0.059692961482372985 -0.28619505869199763
vn 0.8645161001023155 0.31782455074415433 -0.38935776299973757
vn 0.945299151933601 0.07415631036252773 -0.3176639025558793
vn 0.9192560549769702 0.07364806146587713 -0.3867095401338012
vn 0.8734681649023978 0.038702990912608884 -0.4853405437385756
vn 0.8356766071718393 0.15517582927700443 -0.5268444459553097
vn 0.8050380958918736 0.21570273967323167 -0.5526174013368095
vn 0.7107273548465899 0.05492318033589721 -0.701320234510997
vn 0.7671936353343213 0.2533394901391719 -0.58926482046575
vn 0.7712321367493608 0.057022362588255444 -0.6339948275892076
vn 0.8161788310351605 0.05002283659367788 -0.5756299432701543
vn 0.7964219124203635 0.39778049564234746 -0.4555028152527921
vn 0.7645002011291167 0.41930580975755716 -0.4896142158650006
vn 0.7154801645896665 0.45327189517749555 -0.5316321313849879
vn 0.7123111586725783 0.2390514215859306 -0.6598994098105215
vn 0.6472772545828228 0.08347639652781386 -0.7576700118933405
vn 0.7605706063003874 0.02750677742170687 -0.6486722824568147
vn 0.9187089466214773 0.025184947026890513 -0.3941314372654231
vn 0.7618704954540264 0.12325906703680843 -0.6358935056673025
vn 0.940239117588283 0.06381120757272225 -0.3344824831660366
vn 0.7539059800880771 0.2500441494687479 -0.6075390493654598
vn 0.9305999642084445 0.12689333622590576 -0.34333917317530344
vn 0.7370026488394541 0.3599980683102454 -0.5720388854059836
vn 0.9177759390101542 0.1900978254237565 -0.3486404201224937
vn 0.7166747031534582 0.4550368036970258 -0.5285062697273301
vn 0.9029368678351352 0.23843310454757183 -0.3575677101751254
vn 0.6942474038580042 0.5365395697943941 -0.4797351689018303
vn 0.671021340342884 0.6030691285543639 -0.4313212109195646
vn 0.6607915288772935 0.628771374297461 -0.40987938985522454
vn 0.9939684442005615 0.009340430595198883 -0.10926796552426284
vn 0.9958934080348354 0.012252365020669616 -0.0897006097201187
vn 0.9927899174322861 0.030602490997999676 -0.11589507060057427
vn 0.9863055351287107 0.04989132313515942 -0.15720129532001492
vn 0.9759527727840042 0.06234823372421953 -0.20887528108104209
vn 0.9666255891174451 0.0659861292787299 -0.24754959342758537
vn 0.5422718534049377 -0.0453949307731771 -0.8389758859853316
vn 0.993700781356208 -0.008058044489927795 -0.11177578025252242
vn 0.9185155414832149 -0.01592711270392393 -0.3950639532211376
vn 0.767930463654208 -0.027714290858736338 -0.6399333723709293
vn 0.5030477676489714 -0.822214218300643 -0.26628316260636703
vn 0.6572253930164217 -0.6657990277976328 -0.3532229286982052
vn 0.6543700451700475 -0.6508379729270002 -0.3849802293370709
vn 0.4243007561398528 -0.7385378406037961 -0.5239567981574731
vn 0.44147354348144363 -0.6237400995862827 -0.6450189133459824
vn 0.6237953649665433 -0.23206890937521854 -0.7463399787949548
vn 0.5618281250237572 -0.06576440667119085 -0.8246357988515146
vn 0.49899156512640336 -0.03183925648807558 -0.8660217547377139
vn 0.4558572715426231 -0.049576506468184414 -0.8886710966314395
vn 0.18308375923639786 -0.977872552337762 -0.10122059320266598
vn 0.4594994105917035 -0.875088507143947 -0.15192233650933384
vn 0.3487709952282639 -0.9196624878150403 -0.18049848030755575
vn 0.3684112410590975 -0.8838218192854762 -0.2883264629134944
vn 0.3859729241139429 -0.8157279493332867 -0.43082805680160086
vn 0.4712684641434015 -0.5047838878736819 -0.7232560136266062
vn 0.48070898366861686 -0.3487911745646253 -0.8045269352645159
vn 0.4832178184136423 -0.18857455728195535 -0.8549503940659218
vn 0.5167994401476188 -0.8261647959274934 -0.22443277085397087
vn 0.6407418813502818 -0.6998387743766927 -0.315714319223297
vn 0.7163661695931834 -0.08437795043391795 -0.6926036908239527
vn 0.7635178839692064 -0.07691653650384013 -0.6411897435794173
vn 0.8063532083486189 -0.21199167036687933 -0.552135884616232
vn 0.8224367337280212 -0.05025151792664406 -0.5666326887507039
vn 0.8724180262409014 -0.0851087527475836 -0.4812933489003154
vn 0.8050254101522729 -0.3900948493467979 -0.44694529589454646
vn 0.6212146748237247 -0.06872428846963906 -0.780621098842451
vn 0.6500436394698552 -0.09286529674395488 -0.754201102787209
vn 0.7214995023279802 -0.1866123289420999 -0.6667940512836644
vn 0.7687350830379275 -0.20674438730980338 -0.6052298162041961
vn 0.7171564407345865 -0.4516667548204942 -0.5307389020062719
vn 0.7654919520241084 -0.4235097915182478 -0.4844187526040772
vn 0.6061531039949056 -0.7041339636088078 -0.36982938743411303
vn 0.695555603962797 -0.6057721121149754 -0.38631923325109024
vn 0.5892963418245629 -0.7565247344952277 -0.28354919786363897
vn 0.9042785516298126 -0.23444705282777661 -0.35681210809424313
vn 0.9811846258277741 -0.05992621335127323 -0.18353631518745459
vn 0.9202816449954009 -0.18761452119203004 -0.3433401889124607
vn 0.9899150013705532 -0.040305539629765165 -0.13580778157635376
vn 0.9307946441835915 -0.12873297428616123 -0.3421244681261192
vn 0.9929521162234747 -0.031701701098436424 -0.11419762271951382
vn 0.9425639256895758 -0.08039451747464803 -0.32420667412728327
vn 0.9951011813567229 -0.025468774881504345 -0.09552476311663737
vn 0.8237506503999332 -0.3667791251750564 -0.43232850854588223
vn 0.845652395606593 -0.3379673487613422 -0.41309816869124427
vn 0.6728093984625206 -0.6006622944857076 -0.43189387738617707
vn 0.866576793442118 -0.31404181688064015 -0.38784326514441797
vn 0.6947169175722893 -0.5359199293414127 -0.4797480940801661
vn 0.8851766822979777 -0.2794730325931557 -0.37196379550855474
vn 0.716274568854432 -0.4571736852077382 -0.5272029624025014
vn 0.7363456131994458 -0.36367176946383417 -0.5705593588900074
vn 0.7532645197665125 -0.25340982104659476 -0.6069398865275356
vn 0.7675747896327038 -0.12525289037664034 -0.6286021442634505
vn 0.9198742663867289 -0.07940725073080898 -0.38409090404597174
vn 0.9435196568248725 -0.07817058116816061 -0.32196275782286815
vn 0.9618973873265345 -0.06549800038853816 -0.2654494833287301
vn 0.9759693804269902 -0.059391103915896415 -0.20965797205116696
vn 0.06449748101061432 0.6860868689357734 -0.7246550097923784
vn -0.14826168318300792 0.6664472547866943 -0.7306617068705739
vn -0.41199959924353735 0.6664437289457784 -0.6213767668427992
vn -0.6153277987376804 0.6664469062770371 -0.42097532138405325
vn -0.7284332066958794 0.6664451335734616 -0.15885826172726736
vn -0.7347324715803385 0.6664472132256484 0.12655554981593664
vn -0.6333068379235406 0.666444930276264 0.39341276536019
vn -0.4390237236305368 0.6664439106789746 0.6025866609944938
vn -0.24307798960169116 0.6860864120129604 0.6857102348823316
vn -0.2049655336963343 0.7193235692559798 0.6637489982737559
vn -0.31722643019348384 0.7288364194505329 0.6067659068118656
vn -0.45759326785266824 0.7301138228951336 0.5074861641792513
vn -0.5603891803300801 0.7290131342634563 0.3930697350857132
vn -0.6974464390708067 0.7159078509349538 0.03231738846422377
vn -0.6729671467947577 0.7276951405791031 0.13257074229437832
vn -0.6333120304789227 0.723129919390178 0.275679146352093
vn 0.15270617268570866 0.7003080177298316 -0.6973159292078424
vn -0.6715385571160021 0.5796384719811173 0.46157903776704756
vn -0.688968382226541 0.43780657007703705 0.5776226930181355
vn 0.6889694836757096 0.4378045181501475 0.5776229344918217
vn 0.671537758617021 0.5796377345713711 0.4615811254943124
vn 0.6712366532880221 0.6995481406940437 0.24509947803739235
vn -0.671237436886805 0.6995474495617678 0.2450993046364234
vn 0.6886477235117365 0.7225241829944812 0.06101735728676269
vn -0.6886474969446728 0.7225243554618154 0.06101787210584611
vn 0.6173685915692949 0.14364382415989654 0.7734484300355556
vn 0.7000923257048383 0.36037937327234293 0.616439326137637
vn -0.08620330672002795 0.25949391937283567 0.9618897523724105
vn -0.09000921981249806 0.27999614568615927 0.9557722002389695
vn -0.09001107910397299 -0.27999649631052204 0.9557719224231114
vn 0.7000928287158473 -0.36037829870944754 0.6164393830701664
vn -0.08620319910666728 -0.2594977623399008 0.9618887252714632
vn 0.6173721668763757 -0.14364175583915914 0.7734459603267779
vn -0.7508999859490597 -0.6158196017964789 0.23856954781557582
vn -0.7508987417886132 -0.48805424087666055 0.4449203721370646
vn -0.7508983856623076 -0.29437395741607697 0.5911815183215205
vn -0.7508980347390992 0.3979919702358106 0.5270242243510027
vn -0.7508980416113932 -0.660418148678342 6.67888022237476e-07
vn -0.7509001257815686 0.3979877454526023 -0.5270244354589065
vn -0.7508992232695851 0.5614983940695557 -0.34766350103288624
vn -0.6764151907104332 0.24439824330647225 0.6947891683416478
vn -0.7508977166888765 -0.2943734802767875 -0.591182605614512
vn -0.7508997941246017 -0.060934777970909786 -0.6575990054868289
vn -0.6764159782744146 -0.24439818235264194 0.6947884230453119
vn -0.7508968222617193 0.18072970654452877 -0.635209206080627
vn -0.7508992194928862 -0.6158208403800817 -0.23856876308214414
vn -0.7508997419896946 -0.48805262534971516 -0.4449204562267965
vn -0.7508988362921909 0.6491723667588624 -0.12135145607585662
vn -0.7508988271088928 0.6491724342932352 0.12135115162323104
vn -0.7508989461406365 0.5614978744687914 0.3476649387728225
vn -0.7509002493039084 -0.060936027127443226 0.6575983699746005
vn -0.7508991671386844 0.1807337201916637 0.6352052921505862
vn -0.46466935738004744 -0.7537678930505292 0.46466800160779276
vn -0.2514781583125872 -0.7537677186133545 0.6071185734830785
vn -0.6071110087038774 -0.7537745295229147 0.25147600631684397
vn -0.6571408323803836 -0.7537678199666288 -1.0828602032296535e-06
vn -0.6071198351712415 -0.753766993753791 -0.25147728499611466
vn 1.122173009344225e-06 -0.7537663250734576 -0.6571425470809171
vn -0.2514765202331917 -0.7537686032222723 -0.6071181537128911
vn 0.22800097853767937 -0.6914986068363872 -0.6854525735083328
vn -0.4646700593674322 -0.7537667609807133 -0.4646691360184268
vn 2.5184047414914765e-06 -0.7537684306177219 0.657140131933634
vn 0.3459486262305659 -0.6898382102057506 -0.6359581682385337
vn 0.4600797059576844 -0.6904884985236376 -0.5581686999218631
vn 0.2514770627470328 -0.7537657466976196 -0.6071214755034653
vn 0.5592168890576457 -0.6902770328612541 -0.45912317399250524
vn 0.4646668176599937 -0.7537689231034975 -0.46466887041110005
vn 0.6404691796186227 -0.6868870732313799 -0.3434899977965547
vn 0.6071170451957859 -0.7537689717220848 -0.25147809189225395
vn 0.6928162929379527 -0.6872892284738662 -0.21826383269683236
vn 0.6571421293709419 -0.7537666892375536 1.296800464478184e-06
vn 0.7158522733781819 -0.6917360479602157 -0.09516702502269875
vn 0.6071203624039953 -0.7537664136299846 0.2514777509797483
vn 0.7129162833866072 -0.700960693628408 -0.020111660056000666
vn 0.4646708957184377 -0.7537661814808064 0.46466923970504914
vn 0.25147969961752314 -0.7537671991843703 0.607118579944668
vn 0.5602282388190166 0.687389553575869 -0.4622119882310609
vn 0.34705587466644894 0.6871494799883643 -0.6382615545458041
vn 0.23031167192065652 0.6905031933719927 -0.6856835084207525
vn 0.4620577056736813 0.6872903888228878 -0.5604771164456736
vn 0.6361578625292111 0.6883103566832878 -0.3486144386349918
vn 0.6899614205590725 0.6906420289195878 -0.2167183103245829
vn 0.714988471578965 0.6928248319085875 -0.09372959938041586
vn 0.7125359296549657 0.7013659647695262 -0.01945076897311356
vn 0.2514754775806842 0.7537656293066354 -0.607122277841572
vn 0.46466697803729656 0.7537679923506466 -0.464670219864973
vn 0.6071203417145251 0.7537669512074172 -0.25147618961626017
vn 0.6571407912555418 0.7537678558197479 9.695399707742387e-07
vn 0.6071195235360537 0.7537670559190514 0.25147785101770076
vn -0.46467012766984084 0.7537674149378537 -0.4646680068922317
vn -0.25147729743676245 0.7537683094855605 -0.6071181964734564
vn -0.6071185167794141 0.7537677980485146 -0.2514780571116655
vn -0.6571379527496503 0.753770330426001 -5.04737595984136e-06
vn -0.6071100499392033 0.7537778847591748 0.2514682638242888
vn -0.46467039980019414 0.75376500812155 0.46467163898934827
vn -0.251476342942381 0.7537669701909006 0.6071202546362261
vn 1.9272089688161563e-06 0.7537697504327255 0.6571386180471153
vn 0.2514786292076071 0.7537674457499295 0.6071187172040491
vn 0.46467021180367263 0.7537666755357818 0.4646691221870307
vn 6.444604797268303e-07 0.7537664682787164 -0.6571423828198995
vn 0.7509003046264013 0.18072898678423843 -0.6352052942536925
vn 0.7508990448383217 0.39799122564393463 -0.527023347463217
vn 0.750898330713544 0.5614990789723637 -0.34766432265160674
vn 0.7508987728472412 0.6491724494964801 -0.12135140605385437
vn 0.7508986919969771 0.649172567746558 0.12135127375750725
vn 0.7508992728375579 0.5614978265308127 0.3476643105830681
vn 0.7508988506679776 0.39798879412310356 0.527025460312828
vn 0.7508993172529681 -0.6604166982662891 2.820207798547552e-07
vn 0.7508985712374094 -0.6158206352982503 0.23857133284298185
vn 0.750897460932794 -0.48805806068646873 0.44491834370325306
vn 0.7509006898250203 -0.29437240587851815 0.5911793642183407
vn 0.7508979922342066 -0.060932565433851976 0.657601268040358
vn 0.750897986671263 0.1807316266367935 0.6352072832912596
vn 0.750896735765486 -0.06093508791901485 -0.6576024690320438
vn 0.7509005347789399 -0.29437163532456206 -0.5911799448433995
vn 0.7508983640372887 -0.4880548524176793 -0.4449203388446978
vn 0.750898818290964 -0.615820358532088 -0.23857126965886805
f 1//1 2//2 3//3
f 3//3 2//2 4//4
f 3//3 4//4 5//5
f 5//5 4//4 6//6
f 6//6 4//4 7//7
f 6//6 7//7 8//8
f 9//9 10//10 11//11
f 9//9 11//11 12//12
f 13//13 14//14 15//15
f 15//15 14//14 12//12
f 15//15 12//12 16//16
f 16//16 12//12 11//11
f 8//8 7//7 17//17
f 8//8 17//17 18//18
f 18//18 17//17 19//19
f 18//18 19//19 20//20
f 20//20 19//19 21//21
f 21//21 19//19 22//22
f 21//21 22//22 23//23
f 23//23 22//22 24//24
f 24//24 22//22 25//25
f 24//24 25//25 26//26
f 27//27 28//28 29//29
f 30//30 31//31 29//29
f 29//29 31//31 32//32
f 29//29 32//32 27//27
f 33//33 34//34 29//29
f 29//29 34//34 35//35
f 29//29 35//35 30//30
f 36//36 37//37 29//29
f 29//29 37//37 38//38
f 29//29 38//38 33//33
f 39//39 40//40 29//29
f 29//29 40//40 41//41
f 29//29 41//41 36//36
f 28//28 42//42 29//29
f 29//29 42//42 43//43
f 29//29 43//43 39//39
f 44//44 45//45 46//46
f 46//46 45//45 47//47
f 46//46 47//47 48//48
f 47//47 49//49 48//48
f 48//48 49//49 50//50
f 48//48 50//50 51//51
f 51//51 50//50 52//52
f 51//51 52//52 53//53
f 52//52 54//54 53//53
f 53//53 54//54 55//55
f 53//53 55//55 56//56
f 57//57 58//58 59//59
f 59//59 58//58 56//56
f 59//59 56//56 60//60
f 60//60 56//56 55//55
f 61//61 62//62 58//58
f 24//24 26//26 63//63
f 63//63 26//26 64//64
f 63//63 64//64 62//62
f 62//62 64//64 65//65
f 62//62 65//65 58//58
f 58//58 65//65 66//66
f 58//58 66//66 67//67
f 67//67 66//66 68//68
f 8//8 18//18 69//69
f 57//57 70//70 58//58
f 58//58 70//70 71//71
f 58//58 71//71 72//72
f 8//8 69//69 6//6
f 73//73 74//74 58//58
f 74//74 75//75 58//58
f 58//58 75//75 76//76
f 58//58 76//76 61//61
f 77//77 1//1 69//69
f 18//18 20//20 69//69
f 69//69 20//20 21//21
f 69//69 21//21 63//63
f 63//63 21//21 23//23
f 63//63 23//23 24//24
f 72//72 78//78 58//58
f 58//58 78//78 79//79
f 58//58 79//79 73//73
f 1//1 3//3 69//69
f 69//69 3//3 5//5
f 69//69 5//5 6//6
f 69//69 80//80 77//77
f 77//77 80//80 81//81
f 77//77 81//81 82//82
f 83//83 84//84 85//85
f 85//85 84//84 77//77
f 85//85 77//77 86//86
f 86//86 77//77 82//82
f 44//44 87//87 45//45
f 45//45 87//87 88//88
f 89//89 90//90 91//91
f 92//92 93//93 94//94
f 91//91 95//95 89//89
f 89//89 95//95 94//94
f 89//89 94//94 96//96
f 96//96 94//94 93//93
f 94//94 97//97 92//92
f 92//92 97//97 98//98
f 92//92 98//98 99//99
f 92//92 99//99 100//100
f 100//100 99//99 101//101
f 100//100 101//101 102//102
f 88//88 87//87 103//103
f 103//103 87//87 100//100
f 103//103 100//100 104//104
f 104//104 100//100 102//102
f 105//105 106//106 107//107
f 107//107 106//106 108//108
f 107//107 108//108 109//109
f 109//109 108//108 110//110
f 110//110 108//108 111//111
f 110//110 111//111 112//112
f 112//112 111//111 113//113
f 112//112 113//113 114//114
f 114//114 113//113 11//11
f 114//114 11//11 10//10
f 90//90 115//115 116//116
f 117//117 118//118 105//105
f 119//119 120//120 121//121
f 116//116 122//122 90//90
f 90//90 122//122 123//123
f 90//90 123//123 124//124
f 118//118 117//117 125//125
f 125//125 117//117 115//115
f 125//125 115//115 121//121
f 121//121 115//115 90//90
f 121//121 90//90 119//119
f 120//120 126//126 121//121
f 121//121 126//126 127//127
f 121//121 127//127 128//128
f 112//112 114//114 129//129
f 129//129 114//114 10//10
f 124//124 130//130 90//90
f 90//90 130//130 131//131
f 90//90 131//131 132//132
f 132//132 133//133 90//90
f 90//90 133//133 134//134
f 90//90 134//134 91//91
f 105//105 107//107 117//117
f 117//117 107//107 109//109
f 117//117 109//109 129//129
f 129//129 109//109 110//110
f 129//129 110//110 112//112
f 10//10 9//9 129//129
f 129//129 9//9 12//12
f 129//129 12//12 14//14
f 14//14 13//13 129//129
f 129//129 13//13 135//135
f 129//129 135//135 136//136
f 136//136 135//135 137//137
f 136//136 137//137 138//138
f 139//139 140//140 141//141
f 141//141 140//140 136//136
f 141//141 136//136 142//142
f 142//142 136//136 138//138
f 143//143 144//144 145//145
f 146//146 147//147 145//145
f 145//145 147//147 148//148
f 145//145 148//148 143//143
f 149//149 150//150 145//145
f 145//145 150//150 151//151
f 145//145 151//151 146//146
f 152//152 153//153 145//145
f 145//145 153//153 154//154
f 145//145 154//154 149//149
f 155//155 156//156 145//145
f 145//145 156//156 157//157
f 145//145 157//157 152//152
f 144//144 158//158 145//145
f 145//145 158//158 159//159
f 145//145 159//159 155//155
f 160//160 161//161 162//162
f 162//162 161//161 163//163
f 162//162 163//163 164//164
f 160//160 162//162 165//165
f 165//165 162//162 166//166
f 165//165 166//166 167//167
f 167//167 166//166 168//168
f 167//167 168//168 169//169
f 170//170 171//171 66//66
f 172//172 173//173 174//174
f 169//169 168//168 175//175
f 175//175 168//168 176//176
f 175//175 176//176 174//174
f 174//174 176//176 177//177
f 174//174 177//177 172//172
f 171//171 178//178 66//66
f 66//66 178//178 179//179
f 66//66 179//179 68//68
f 64//64 26//26 25//25
f 25//25 180//180 64//64
f 64//64 180//180 181//181
f 64//64 181//181 65//65
f 173//173 170//170 174//174
f 174//174 170//170 66//66
f 174//174 66//66 182//182
f 182//182 66//66 65//65
f 182//182 65//65 183//183
f 183//183 65//65 181//181
f 184//184 185//185 186//186
f 187//187 44//44 46//46
f 188//188 189//189 190//190
f 68//68 179//179 191//191
f 192//192 173//173 172//172
f 172//172 177//177 192//192
f 192//192 177//177 176//176
f 192//192 176//176 193//193
f 178//178 171//171 192//192
f 192//192 171//171 170//170
f 192//192 170//170 173//173
f 56//56 58//58 67//67
f 176//176 194//194 193//193
f 193//193 194//194 195//195
f 193//193 195//195 196//196
f 196//196 195//195 197//197
f 196//196 197//197 198//198
f 198//198 197//197 199//199
f 198//198 199//199 190//190
f 190//190 199//199 200//200
f 190//190 200//200 188//188
f 188//188 200//200 201//201
f 185//185 184//184 202//202
f 202//202 184//184 203//203
f 202//202 203//203 204//204
f 179//179 178//178 191//191
f 191//191 178//178 192//192
f 191//191 192//192 205//205
f 205//205 192//192 193//193
f 205//205 193//193 206//206
f 206//206 193//193 196//196
f 206//206 196//196 207//207
f 207//207 196//196 198//198
f 207//207 198//198 208//208
f 208//208 198//198 190//190
f 208//208 190//190 209//209
f 209//209 190//190 189//189
f 187//187 46//46 210//210
f 211//211 210//210 212//212
f 212//212 210//210 46//46
f 212//212 46//46 213//213
f 213//213 46//46 48//48
f 213//213 48//48 186//186
f 48//48 51//51 186//186
f 186//186 51//51 53//53
f 186//186 53//53 184//184
f 184//184 53//53 56//56
f 184//184 56//56 203//203
f 203//203 56//56 67//67
f 203//203 67//67 204//204
f 204//204 67//67 68//68
f 204//204 68//68 202//202
f 202//202 68//68 191//191
f 202//202 191//191 185//185
f 185//185 191//191 205//205
f 185//185 205//205 186//186
f 186//186 205//205 206//206
f 186//186 206//206 213//213
f 213//213 206//206 207//207
f 213//213 207//207 212//212
f 212//212 207//207 208//208
f 212//212 208//208 211//211
f 211//211 208//208 209//209
f 214//214 215//215 216//216
f 90//90 89//89 119//119
f 126//126 120//120 217//217
f 217//217 120//120 119//119
f 126//126 217//217 127//127
f 127//127 217//217 218//218
f 127//127 218//218 128//128
f 128//128 218//218 219//219
f 128//128 219//219 220//220
f 221//221 222//222 223//223
f 223//223 222//222 224//224
f 223//223 224//224 219//219
f 219//219 224//224 225//225
f 219//219 225//225 220//220
f 226//226 227//227 223//223
f 223//223 227//227 228//228
f 223//223 228//228 221//221
f 229//229 230//230 231//231
f 232//232 233//233 218//218
f 218//218 233//233 234//234
f 218//218 234//234 219//219
f 219//219 234//234 235//235
f 219//219 235//235 223//223
f 119//119 89//89 217//217
f 217//217 89//89 96//96
f 217//217 96//96 218//218
f 218//218 96//96 93//93
f 218//218 93//93 232//232
f 236//236 237//237 216//216
f 236//236 216//216 238//238
f 238//238 216//216 215//215
f 238//238 215//215 239//239
f 240//240 230//230 241//241
f 241//241 230//230 229//229
f 241//241 229//229 242//242
f 242//242 229//229 243//243
f 242//242 243//243 244//244
f 245//245 246//246 247//247
f 247//247 246//246 236//236
f 247//247 236//236 248//248
f 248//248 236//236 238//238
f 239//239 244//244 238//238
f 238//238 244//244 243//243
f 238//238 243//243 248//248
f 248//248 243//243 229//229
f 248//248 229//229 247//247
f 247//247 229//229 231//231
f 247//247 231//231 245//245
f 93//93 92//92 232//232
f 232//232 92//92 249//249
f 249//249 92//92 100//100
f 249//249 100//100 87//87
f 87//87 214//214 249//249
f 249//249 214//214 216//216
f 249//249 216//216 232//232
f 232//232 216//216 237//237
f 232//232 237//237 233//233
f 233//233 237//237 236//236
f 233//233 236//236 234//234
f 234//234 236//236 246//246
f 234//234 246//246 235//235
f 235//235 246//246 245//245
f 235//235 245//245 223//223
f 223//223 245//245 250//250
f 223//223 250//250 226//226
f 128//128 220//220 121//121
f 121//121 220//220 225//225
f 121//121 225//225 224//224
f 222//222 221//221 251//251
f 251//251 221//221 228//228
f 228//228 227//227 251//251
f 251//251 227//227 226//226
f 251//251 226//226 252//252
f 252//252 226//226 253//253
f 226//226 254//254 253//253
f 253//253 254//254 255//255
f 253//253 255//255 256//256
f 256//256 255//255 257//257
f 255//255 258//258 257//257
f 257//257 258//258 259//259
f 257//257 259//259 260//260
f 259//259 261//261 260//260
f 260//260 261//261 262//262
f 260//260 262//262 263//263
f 263//263 262//262 264//264
f 224//224 222//222 121//121
f 121//121 222//222 251//251
f 121//121 251//251 125//125
f 251//251 265//265 125//125
f 125//125 265//265 266//266
f 125//125 266//266 118//118
f 106//106 105//105 267//267
f 267//267 105//105 118//118
f 267//267 118//118 268//268
f 268//268 118//118 266//266
f 69//69 269//269 270//270
f 69//69 270//270 80//80
f 80//80 270//270 271//271
f 80//80 271//271 81//81
f 81//81 271//271 272//272
f 81//81 272//272 82//82
f 82//82 272//272 273//273
f 82//82 273//273 86//86
f 86//86 273//273 274//274
f 86//86 274//274 85//85
f 85//85 274//274 275//275
f 85//85 275//275 83//83
f 83//83 275//275 276//276
f 83//83 276//276 84//84
f 84//84 276//276 277//277
f 84//84 277//277 77//77
f 1//1 77//77 277//277
f 278//278 25//25 22//22
f 278//278 22//22 277//277
f 22//22 19//19 277//277
f 277//277 19//19 17//17
f 277//277 17//17 7//7
f 7//7 4//4 277//277
f 277//277 4//4 2//2
f 277//277 2//2 1//1
f 25//25 278//278 180//180
f 180//180 278//278 279//279
f 180//180 279//279 181//181
f 181//181 279//279 183//183
f 183//183 279//279 280//280
f 183//183 280//280 182//182
f 182//182 280//280 174//174
f 174//174 280//280 281//281
f 174//174 281//281 175//175
f 175//175 281//281 169//169
f 169//169 281//281 282//282
f 169//169 282//282 167//167
f 283//283 164//164 163//163
f 283//283 163//163 284//284
f 163//163 161//161 284//284
f 284//284 161//161 160//160
f 284//284 160//160 282//282
f 282//282 160//160 165//165
f 282//282 165//165 167//167
f 285//285 286//286 287//287
f 287//287 288//288 285//285
f 285//285 288//288 289//289
f 285//285 289//289 290//290
f 290//290 289//289 291//291
f 290//290 291//291 292//292
f 269//269 69//69 293//293
f 293//293 69//69 63//63
f 294//294 295//295 296//296
f 297//297 298//298 299//299
f 57//57 300//300 70//70
f 301//301 50//50 302//302
f 302//302 50//50 49//49
f 302//302 49//49 303//303
f 303//303 49//49 47//47
f 303//303 47//47 304//304
f 304//304 47//47 45//45
f 304//304 45//45 305//305
f 55//55 54//54 301//301
f 301//301 54//54 52//52
f 301//301 52//52 50//50
f 301//301 306//306 55//55
f 55//55 306//306 307//307
f 55//55 307//307 60//60
f 60//60 307//307 308//308
f 60//60 308//308 59//59
f 59//59 308//308 309//309
f 57//57 59//59 300//300
f 300//300 59//59 309//309
f 300//300 309//309 70//70
f 70//70 309//309 310//310
f 70//70 310//310 71//71
f 71//71 310//310 311//311
f 71//71 311//311 72//72
f 72//72 311//311 78//78
f 74//74 296//296 75//75
f 75//75 296//296 295//295
f 75//75 295//295 76//76
f 76//76 295//295 312//312
f 76//76 312//312 61//61
f 313//313 314//314 315//315
f 315//315 314//314 316//316
f 315//315 316//316 317//317
f 317//317 316//316 318//318
f 317//317 318//318 319//319
f 320//320 321//321 322//322
f 322//322 321//321 323//323
f 322//322 323//323 299//299
f 299//299 323//323 324//324
f 299//299 324//324 297//297
f 297//297 324//324 325//325
f 297//297 325//325 326//326
f 326//326 325//325 327//327
f 328//328 329//329 330//330
f 330//330 329//329 327//327
f 330//330 327//327 331//331
f 331//331 327//327 325//325
f 298//298 297//297 332//332
f 332//332 297//297 326//326
f 332//332 326//326 333//333
f 333//333 326//326 327//327
f 333//333 327//327 334//334
f 334//334 327//327 329//329
f 334//334 329//329 335//335
f 335//335 329//329 328//328
f 335//335 328//328 336//336
f 337//337 338//338 339//339
f 339//339 338//338 340//340
f 339//339 340//340 341//341
f 341//341 340//340 342//342
f 341//341 342//342 343//343
f 343//343 342//342 344//344
f 343//343 344//344 345//345
f 345//345 344//344 346//346
f 345//345 346//346 347//347
f 347//347 346//346 320//320
f 347//347 320//320 348//348
f 348//348 320//320 322//322
f 348//348 322//322 319//319
f 319//319 322//322 299//299
f 319//319 299//299 317//317
f 317//317 299//299 298//298
f 317//317 298//298 315//315
f 315//315 298//298 332//332
f 315//315 332//332 313//313
f 313//313 332//332 333//333
f 313//313 333//333 349//349
f 349//349 333//333 334//334
f 338//338 350//350 340//340
f 340//340 350//350 351//351
f 340//340 351//351 342//342
f 342//342 351//351 352//352
f 342//342 352//352 344//344
f 344//344 352//352 353//353
f 344//344 353//353 346//346
f 346//346 353//353 354//354
f 346//346 354//354 320//320
f 320//320 354//354 355//355
f 320//320 355//355 321//321
f 305//305 337//337 304//304
f 304//304 337//337 339//339
f 304//304 339//339 303//303
f 303//303 339//339 341//341
f 303//303 341//341 302//302
f 302//302 341//341 343//343
f 302//302 343//343 301//301
f 301//301 343//343 345//345
f 301//301 345//345 306//306
f 306//306 345//345 347//347
f 306//306 347//347 307//307
f 307//307 347//347 348//348
f 307//307 348//348 308//308
f 308//308 348//348 319//319
f 308//308 319//319 309//309
f 309//309 319//319 318//318
f 309//309 318//318 310//310
f 310//310 318//318 316//316
f 310//310 316//316 311//311
f 311//311 316//316 314//314
f 311//311 314//314 78//78
f 78//78 314//314 313//313
f 78//78 313//313 79//79
f 79//79 313//313 349//349
f 79//79 349//349 73//73
f 73//73 349//349 334//334
f 73//73 334//334 74//74
f 74//74 334//334 335//335
f 74//74 335//335 296//296
f 296//296 335//335 336//336
f 296//296 336//336 294//294
f 45//45 88//88 356//356
f 357//357 350//350 358//358
f 358//358 350//350 338//338
f 358//358 338//338 359//359
f 359//359 338//338 337//337
f 359//359 337//337 356//356
f 356//356 337//337 305//305
f 356//356 305//305 45//45
f 360//360 361//361 362//362
f 98//98 363//363 364//364
f 124//124 123//123 365//365
f 365//365 123//123 122//122
f 366//366 365//365 367//367
f 367//367 365//365 122//122
f 367//367 122//122 368//368
f 368//368 122//122 116//116
f 95//95 91//91 369//369
f 369//369 91//91 134//134
f 369//369 134//134 133//133
f 132//132 370//370 133//133
f 133//133 370//370 371//371
f 133//133 371//371 369//369
f 369//369 371//371 372//372
f 369//369 372//372 95//95
f 95//95 372//372 373//373
f 95//95 373//373 94//94
f 363//363 98//98 373//373
f 373//373 98//98 97//97
f 373//373 97//97 94//94
f 102//102 101//101 364//364
f 364//364 101//101 99//99
f 364//364 99//99 98//98
f 364//364 374//374 102//102
f 102//102 374//374 375//375
f 102//102 375//375 104//104
f 104//104 375//375 376//376
f 104//104 376//376 103//103
f 103//103 376//376 356//356
f 103//103 356//356 88//88
f 360//360 377//377 378//378
f 379//379 380//380 381//381
f 380//380 382//382 381//381
f 381//381 382//382 383//383
f 381//381 383//383 384//384
f 385//385 386//386 387//387
f 387//387 386//386 388//388
f 387//387 388//388 389//389
f 389//389 388//388 390//390
f 389//389 390//390 391//391
f 391//391 390//390 392//392
f 377//377 393//393 378//378
f 378//378 393//393 392//392
f 378//378 392//392 384//384
f 384//384 392//392 390//390
f 384//384 390//390 381//381
f 381//381 390//390 388//388
f 381//381 388//388 379//379
f 379//379 388//388 386//386
f 394//394 395//395 396//396
f 396//396 395//395 397//397
f 396//396 397//397 398//398
f 398//398 397//397 399//399
f 398//398 399//399 400//400
f 400//400 399//399 401//401
f 400//400 401//401 358//358
f 358//358 401//401 357//357
f 361//361 402//402 362//362
f 362//362 402//402 403//403
f 362//362 403//403 404//404
f 404//404 403//403 405//405
f 404//404 405//405 406//406
f 406//406 405//405 407//407
f 406//406 407//407 408//408
f 408//408 407//407 394//394
f 408//408 394//394 409//409
f 409//409 394//394 396//396
f 409//409 396//396 410//410
f 410//410 396//396 398//398
f 410//410 398//398 411//411
f 411//411 398//398 400//400
f 411//411 400//400 359//359
f 359//359 400//400 358//358
f 360//360 378//378 361//361
f 361//361 378//378 384//384
f 361//361 384//384 402//402
f 402//402 384//384 383//383
f 402//402 383//383 403//403
f 403//403 383//383 412//412
f 403//403 412//412 405//405
f 405//405 412//412 413//413
f 405//405 413//413 407//407
f 407//407 413//413 414//414
f 407//407 414//414 394//394
f 394//394 414//414 415//415
f 394//394 415//415 395//395
f 366//366 385//385 365//365
f 365//365 385//385 387//387
f 365//365 387//387 124//124
f 124//124 387//387 389//389
f 124//124 389//389 130//130
f 130//130 389//389 391//391
f 130//130 391//391 131//131
f 131//131 391//391 392//392
f 131//131 392//392 132//132
f 132//132 392//392 393//393
f 132//132 393//393 370//370
f 370//370 393//393 377//377
f 370//370 377//377 371//371
f 371//371 377//377 360//360
f 371//371 360//360 372//372
f 372//372 360//360 362//362
f 372//372 362//362 373//373
f 373//373 362//362 404//404
f 373//373 404//404 363//363
f 363//363 404//404 406//406
f 363//363 406//406 364//364
f 364//364 406//406 408//408
f 364//364 408//408 374//374
f 374//374 408//408 409//409
f 374//374 409//409 375//375
f 375//375 409//409 410//410
f 375//375 410//410 376//376
f 376//376 410//410 411//411
f 376//376 411//411 356//356
f 356//356 411//411 359//359
f 416//416 129//129 136//136
f 416//416 136//136 417//417
f 417//417 136//136 140//140
f 417//417 140//140 418//418
f 418//418 140//140 139//139
f 418//418 139//139 419//419
f 419//419 139//139 141//141
f 419//419 141//141 420//420
f 420//420 141//141 142//142
f 420//420 142//142 421//421
f 421//421 142//142 138//138
f 421//421 138//138 422//422
f 422//422 138//138 137//137
f 422//422 137//137 423//423
f 423//423 137//137 135//135
f 423//423 135//135 424//424
f 113//113 111//111 424//424
f 424//424 111//111 425//425
f 425//425 111//111 108//108
f 425//425 108//108 106//106
f 135//135 13//13 424//424
f 424//424 13//13 15//15
f 15//15 16//16 424//424
f 424//424 16//16 11//11
f 424//424 11//11 113//113
f 106//106 267//267 425//425
f 425//425 267//267 426//426
f 267//267 268//268 426//426
f 426//426 268//268 266//266
f 426//426 266//266 427//427
f 427//427 266//266 265//265
f 427//427 265//265 428//428
f 428//428 265//265 251//251
f 428//428 251//251 252//252
f 263//263 264//264 429//429
f 263//263 429//429 260//260
f 260//260 429//429 430//430
f 260//260 430//430 257//257
f 257//257 430//430 431//431
f 257//257 431//431 256//256
f 428//428 252//252 431//431
f 431//431 252//252 253//253
f 431//431 253//253 256//256
f 416//416 432//432 129//129
f 129//129 432//432 117//117
f 433//433 434//434 435//435
f 435//435 436//436 433//433
f 433//433 436//436 437//437
f 433//433 437//437 438//438
f 438//438 437//437 439//439
f 438//438 439//439 440//440
f 441//441 442//442 443//443
f 443//443 442//442 444//444
f 445//445 446//446 447//447
f 447//447 446//446 448//448
f 449//449 264//264 450//450
f 450//450 264//264 451//451
f 194//194 176//176 452//452
f 449//449 453//453 264//264
f 264//264 453//453 440//440
f 264//264 440//440 429//429
f 164//164 454//454 455//455
f 456//456 457//457 458//458
f 456//456 458//458 459//459
f 458//458 460//460 459//459
f 459//459 460//460 454//454
f 459//459 454//454 287//287
f 287//287 454//454 164//164
f 438//438 440//440 433//433
f 433//433 440//440 453//453
f 433//433 453//453 434//434
f 434//434 453//453 461//461
f 434//434 461//461 456//456
f 456//456 461//461 462//462
f 456//456 462//462 457//457
f 289//289 288//288 291//291
f 291//291 288//288 287//287
f 291//291 287//287 283//283
f 283//283 287//287 164//164
f 226//226 250//250 254//254
f 254//254 250//250 245//245
f 254//254 245//245 255//255
f 455//455 463//463 164//164
f 164//164 463//463 464//464
f 164//164 464//464 162//162
f 162//162 464//464 465//465
f 162//162 465//465 166//166
f 166//166 465//465 452//452
f 166//166 452//452 168//168
f 168//168 452//452 176//176
f 262//262 231//231 264//264
f 264//264 231//231 230//230
f 264//264 230//230 240//240
f 451//451 264//264 466//466
f 466//466 264//264 240//240
f 466//466 240//240 467//467
f 467//467 240//240 201//201
f 467//467 201//201 452//452
f 452//452 201//201 200//200
f 452//452 200//200 199//199
f 199//199 197//197 452//452
f 452//452 197//197 195//195
f 452//452 195//195 194//194
f 262//262 261//261 231//231
f 231//231 261//261 259//259
f 231//231 259//259 245//245
f 245//245 259//259 258//258
f 245//245 258//258 255//255
f 459//459 287//287 445//445
f 445//445 287//287 286//286
f 445//445 286//286 446//446
f 468//468 469//469 284//284
f 284//284 469//469 283//283
f 468//468 284//284 470//470
f 470//470 284//284 282//282
f 470//470 282//282 471//471
f 471//471 282//282 281//281
f 471//471 281//281 472//472
f 473//473 474//474 475//475
f 281//281 280//280 472//472
f 472//472 280//280 279//279
f 472//472 279//279 476//476
f 476//476 279//279 269//269
f 476//476 269//269 474//474
f 474//474 269//269 293//293
f 474//474 293//293 475//475
f 283//283 469//469 291//291
f 291//291 469//469 477//477
f 291//291 477//477 292//292
f 475//475 478//478 473//473
f 473//473 478//478 479//479
f 473//473 479//479 480//480
f 480//480 479//479 481//481
f 480//480 481//481 482//482
f 482//482 481//481 483//483
f 482//482 483//483 484//484
f 484//484 483//483 485//485
f 484//484 485//485 486//486
f 486//486 485//485 487//487
f 486//486 487//487 488//488
f 488//488 487//487 489//489
f 488//488 489//489 490//490
f 490//490 489//489 292//292
f 490//490 292//292 491//491
f 491//491 292//292 477//477
f 275//275 274//274 276//276
f 276//276 274//274 273//273
f 279//279 278//278 269//269
f 269//269 278//278 277//277
f 269//269 277//277 270//270
f 270//270 277//277 276//276
f 270//270 276//276 271//271
f 271//271 276//276 273//273
f 271//271 273//273 272//272
f 382//382 380//380 492//492
f 366//366 367//367 493//493
f 493//493 367//367 494//494
f 494//494 367//367 368//368
f 494//494 368//368 116//116
f 492//492 380//380 495//495
f 380//380 379//379 495//495
f 495//495 379//379 386//386
f 495//495 386//386 493//493
f 493//493 386//386 385//385
f 493//493 385//385 366//366
f 382//382 492//492 383//383
f 383//383 492//492 496//496
f 383//383 496//496 412//412
f 412//412 496//496 497//497
f 412//412 497//497 413//413
f 413//413 497//497 414//414
f 414//414 497//497 498//498
f 414//414 498//498 415//415
f 351//351 350//350 489//489
f 489//489 350//350 357//357
f 489//489 357//357 499//499
f 499//499 357//357 401//401
f 401//401 399//399 499//499
f 499//499 399//399 397//397
f 499//499 397//397 498//498
f 498//498 397//397 395//395
f 498//498 395//395 415//415
f 355//355 354//354 487//487
f 487//487 354//354 353//353
f 487//487 353//353 489//489
f 489//489 353//353 352//352
f 489//489 352//352 351//351
f 485//485 323//323 487//487
f 487//487 323//323 321//321
f 487//487 321//321 355//355
f 481//481 331//331 483//483
f 483//483 331//331 325//325
f 483//483 325//325 485//485
f 485//485 325//325 324//324
f 485//485 324//324 323//323
f 479//479 328//328 481//481
f 481//481 328//328 330//330
f 481//481 330//330 331//331
f 312//312 295//295 478//478
f 478//478 295//295 294//294
f 478//478 294//294 479//479
f 479//479 294//294 336//336
f 479//479 336//336 328//328
f 312//312 478//478 61//61
f 61//61 478//478 475//475
f 61//61 475//475 62//62
f 62//62 475//475 293//293
f 62//62 293//293 63//63
f 116//116 115//115 494//494
f 494//494 115//115 117//117
f 494//494 117//117 432//432
f 500//500 501//501 496//496
f 496//496 501//501 497//497
f 497//497 501//501 502//502
f 497//497 502//502 498//498
f 498//498 502//502 503//503
f 498//498 503//503 499//499
f 499//499 503//503 504//504
f 499//499 504//504 439//439
f 424//424 425//425 416//416
f 416//416 425//425 426//426
f 505//505 506//506 432//432
f 432//432 416//416 505//505
f 505//505 416//416 426//426
f 505//505 426//426 507//507
f 507//507 426//426 427//427
f 507//507 427//427 508//508
f 508//508 427//427 428//428
f 508//508 428//428 509//509
f 509//509 428//428 431//431
f 509//509 431//431 510//510
f 510//510 431//431 430//430
f 510//510 430//430 511//511
f 511//511 430//430 429//429
f 511//511 429//429 512//512
f 512//512 429//429 440//440
f 512//512 440//440 513//513
f 513//513 440//440 439//439
f 513//513 439//439 514//514
f 514//514 439//439 504//504
f 496//496 492//492 500//500
f 500//500 492//492 495//495
f 500//500 495//495 515//515
f 515//515 495//495 493//493
f 515//515 493//493 506//506
f 506//506 493//493 494//494
f 506//506 494//494 432//432
f 416//416 417//417 424//424
f 424//424 417//417 418//418
f 424//424 418//418 419//419
f 423//423 424//424 422//422
f 422//422 424//424 419//419
f 422//422 419//419 421//421
f 421//421 419//419 420//420
f 442//442 435//435 444//444
f 444//444 435//435 434//434
f 444//444 434//434 456//456
f 456//456 459//459 445//445
f 448//448 441//441 447//447
f 447//447 441//441 443//443
f 447//447 443//443 445//445
f 445//445 443//443 444//444
f 445//445 444//444 456//456
f 441//441 448//448 516//516
f 516//516 448//448 517//517
f 517//517 448//448 446//446
f 517//517 446//446 518//518
f 446//446 286//286 518//518
f 518//518 286//286 285//285
f 518//518 285//285 519//519
f 519//519 285//285 290//290
f 519//519 290//290 520//520
f 520//520 290//290 292//292
f 520//520 292//292 521//521
f 521//521 292//292 489//489
f 521//521 489//489 522//522
f 439//439 523//523 499//499
f 499//499 523//523 524//524
f 499//499 524//524 525//525
f 525//525 526//526 499//499
f 499//499 526//526 527//527
f 499//499 527//527 489//489
f 489//489 527//527 528//528
f 489//489 528//528 522//522
f 516//516 529//529 441//441
f 441//441 529//529 530//530
f 441//441 530//530 442//442
f 442//442 530//530 531//531
f 442//442 531//531 435//435
f 435//435 531//531 532//532
f 435//435 532//532 436//436
f 436//436 532//532 523//523
f 436//436 523//523 437//437
f 437//437 523//523 439//439
f 87//87 44//44 214//214
f 214//214 44//44 187//187
f 214//214 187//187 215//215
f 201//201 240//240 188//188
f 188//188 240//240 241//241
f 188//188 241//241 189//189
f 189//189 241//241 242//242
f 189//189 242//242 209//209
f 242//242 244//244 209//209
f 209//209 244//244 239//239
f 209//209 239//239 211//211
f 211//211 239//239 215//215
f 211//211 215//215 210//210
f 210//210 215//215 187//187
f 27//27 469//469 28//28
f 28//28 469//469 468//468
f 28//28 468//468 42//42
f 42//42 468//468 470//470
f 42//42 470//470 43//43
f 43//43 470//470 471//471
f 43//43 471//471 39//39
f 39//39 471//471 472//472
f 39//39 472//472 40//40
f 40//40 472//472 476//476
f 40//40 476//476 41//41
f 41//41 476//476 474//474
f 41//41 474//474 36//36
f 36//36 474//474 473//473
f 36//36 473//473 37//37
f 37//37 473//473 480//480
f 37//37 480//480 38//38
f 38//38 480//480 482//482
f 38//38 482//482 33//33
f 33//33 482//482 484//484
f 33//33 484//484 34//34
f 34//34 484//484 486//486
f 34//34 486//486 35//35
f 35//35 486//486 488//488
f 35//35 488//488 30//30
f 30//30 488//488 490//490
f 30//30 490//490 31//31
f 31//31 490//490 491//491
f 31//31 491//491 32//32
f 32//32 491//491 477//477
f 32//32 477//477 27//27
f 27//27 477//477 469//469
f 512//512 148//148 511//511
f 511//511 148//148 147//147
f 511//511 147//147 510//510
f 510//510 147//147 146//146
f 510//510 146//146 509//509
f 509//509 146//146 151//151
f 509//509 151//151 508//508
f 508//508 151//151 150//150
f 508//508 150//150 507//507
f 507//507 150//150 149//149
f 507//507 149//149 505//505
f 505//505 149//149 154//154
f 505//505 154//154 506//506
f 506//506 154//154 153//153
f 506//506 153//153 515//515
f 515//515 153//153 152//152
f 515//515 152//152 500//500
f 500//500 152//152 157//157
f 500//500 157//157 501//501
f 501//501 157//157 156//156
f 501//501 156//156 502//502
f 502//502 156//156 155//155
f 502//502 155//155 503//503
f 503//503 155//155 159//159
f 503//503 159//159 504//504
f 504//504 159//159 158//158
f 504//504 158//158 514//514
f 514//514 158//158 144//144
f 514//514 144//144 513//513
f 513//513 144//144 143//143
f 513//513 143//143 512//512
f 512//512 143//143 148//148
f 453//453 523//523 461//461
f 461//461 523//523 532//532
f 461//461 532//532 462//462
f 462//462 532//532 531//531
f 462//462 531//531 457//457
f 457//457 531//531 530//530
f 457//457 530//530 458//458
f 458//458 530//530 529//529
f 458//458 529//529 460//460
f 460//460 529//529 516//516
f 460//460 516//516 454//454
f 454//454 516//516 517//517
f 454//454 517//517 455//455
f 455//455 517//517 518//518
f 455//455 518//518 463//463
f 463//463 518//518 519//519
f 463//463 519//519 464//464
f 464//464 519//519 520//520
f 464//464 520//520 465//465
f 465//465 520//520 521//521
f 465//465 521//521 452//452
f 452//452 521//521 522//522
f 452//452 522//522 467//467
f 467//467 522//522 528//528
f 467//467 528//528 466//466
f 466//466 528//528 527//527
f 466//466 527//527 451//451
f 451//451 527//527 526//526
f 451//451 526//526 450//450
f 450//450 526//526 525//525
f 450//450 525//525 449//449
f 449//449 525//525 524//524
f 449//449 524//524 453//453
f 453//453 524//524 523//523
