v -0.008094246499240398 -0.002949998714029789 -0.002614961937069893
v -0.007662612944841385 -0.002998621203005314 -0.0025073469150811434
v -0.007514941040426493 -0.002949998714029789 -0.0025523356162011623
v -0.007244183216243982 -0.0031456565484404564 -0.0024030222557485104
v -0.0070834471844136715 -0.002949998015537858 -0.0025936514139175415
v -0.006826185621321201 -0.0029499991796910763 -0.002644952852278948
v -0.006867367308586836 -0.0033839193638414145 -0.002309067640453577
v -0.006406818982213736 -0.002949998714029789 -0.0027608408126980066
v -0.006826184689998627 0.002950001507997513 -0.002644947497174144
v -0.006406818050891161 0.0029500010423362255 -0.0027608354575932026
v -0.0068673668429255486 0.0033839219249784946 -0.002309069037437439
v -0.0070834471844136715 0.0029500010423362255 -0.0025936535093933344
v -0.008094245567917824 0.002950001275166869 -0.0026149640325456858
v -0.007514941040426493 0.002950001275166869 -0.0025523374788463116
v -0.007662612944841385 0.002998624462634325 -0.002507347846403718
v -0.007244182750582695 0.0031456586439162493 -0.002403021790087223
v -0.006184490397572517 -0.003843025304377079 -0.0021388065069913864
v -0.0052894242107868195 -0.002949998714029789 -0.0030410003382712603
v -0.005437301006168127 -0.00417931005358696 -0.0019525097450241446
v -0.004732353612780571 -0.002949998714029789 -0.0031102255452424288
v -0.004386721178889275 -0.0029499991796910763 -0.0031219900120049715
v -0.00464641023427248 -0.004383498802781105 -0.0017553229117766023
v -0.004072706215083599 -0.002949998714029789 -0.0031084350775927305
v -0.003664740128442645 -0.0029499977827072144 -0.0030518630519509315
v -0.003853108733892441 -0.004449998028576374 -0.0015575282741338015
v -0.003490225877612829 -0.0029499989468604326 -0.003012975910678506
v 2.1548592077369477e-10 -0.006999998353421688 0.0015000042039901018
v -0.0005740247434005141 -0.006999999284744263 0.0013858251040801406
v 5.675649394909499e-10 -0.006999998353421688 7.725333261987544e-09
v 0.0013858196325600147 -0.006999998819082975 0.0005740318447351456
v 0.0010606608120724559 -0.0069999974220991135 0.0010606657015159726
v 0.0005740252090618014 -0.006999999284744263 0.0013858210295438766
v 0.0010606604628264904 -0.006999998353421688 -0.001060658716596663
v 0.0013858196325600147 -0.006999998819082975 -0.0005740182823501527
v 0.0015000004786998034 -0.0069999974220991135 5.366312727517197e-09
v -0.0005740246851928532 -0.006999998353421688 -0.0013858129968866706
v 3.8616451702999655e-10 -0.0069999974220991135 -0.0014999962877482176
v 0.0005740252672694623 -0.006999998819082975 -0.0013858170714229345
v -0.0014999998966231942 -0.006999998353421688 2.5147890436727494e-09
v -0.0013858190504834056 -0.006999999284744263 -0.0005740238120779395
v -0.0010606597643345594 -0.006999998353421688 -0.0010606579016894102
v -0.001060659415088594 -0.006999997887760401 0.0010606665164232254
v -0.001385819516144693 -0.006999998819082975 0.0005740263732150197
v -0.0001110808807425201 -0.001949998433701694 -0.0007876220624893904
v 0.0015386816812679172 -0.0019499986665323377 -0.0004967281129211187
v -0.00011380248906789348 -0.00214520376175642 -0.000807998119853437
v 0.0015347589505836368 -0.002166685415431857 -0.0005215428536757827
v -0.00012104560300940648 -0.002320828614756465 -0.0008622151217423379
v 0.0015203695511445403 -0.0023702417965978384 -0.0005939716356806457
v 0.0014906852738931775 -0.002549692988395691 -0.0007080421783030033
v -0.00013452813436742872 -0.002506046323105693 -0.0009631451684981585
v 0.0014426426496356726 -0.002690879162400961 -0.0008470859611406922
v -0.00015005719615146518 -0.002644017105922103 -0.001079393201507628
v -0.000152399210492149 -0.0026608710177242756 -0.0010969252325594425
v 0.0013646435691043735 -0.0028050534892827272 -0.0010163012193515897
v -0.00019755082030314952 -0.0028739452827721834 -0.0014349223347380757
v 0.000915832060854882 -0.002950353780761361 -0.0016219756798818707
v -0.000249999575316906 -0.0029499977827072144 -0.0018275448819622397
v 0.0011015156051144004 -0.002934947842732072 -0.0014137321850284934
v 0.0012516046408563852 -0.0028870622627437115 -0.0012082284083589911
v -0.0007424473878927529 -0.0029499989468604326 -0.004221304319798946
v -0.001288664760068059 -0.0029499989468604326 -0.00443038996309042
v -0.0018798083765432239 -0.00294999941252172 -0.004578873515129089
v -0.0025086579844355583 -0.0029499982483685017 -0.0026557922828942537
v -0.001622718875296414 -0.0029499982483685017 -0.002102477476000786
v -0.0008710706024430692 -0.0029499984811991453 -0.0013771711383014917
v -0.00046696345089003444 -0.0029499984811991453 -0.0015782458940520883
v -0.0007400193717330694 -0.002949998714029789 -0.0012143384665250778
v 0.0009144612122327089 -0.0029499975498765707 -0.0019753179512917995
v 0.0009034160175360739 -0.0029499982483685017 -0.0020847993437200785
v 0.0008608601056039333 -0.00294999941252172 -0.002327680354937911
v -0.008711883798241615 -0.0029499977827072144 -0.005858086980879307
v 0.0004069962596986443 -0.0029499984811991453 -0.0033070978242903948
v 0.00016067438991740346 -0.0029499991796910763 -0.003594285110011697
v -0.00011025175626855344 -0.002949998015537858 -0.003838184056803584
v -0.0004456970782484859 -0.0029499977827072144 -0.004067859146744013
v -0.009350822307169437 -0.0029499991796910763 -0.002928264904767275
v 0.0007583546102978289 -0.0029499977827072144 -0.0026679786387830973
v 0.0006044634501449764 -0.00294999941252172 -0.003000471042469144
v -0.009286236017942429 -0.0029499975498765707 -0.005853744689375162
v -0.009816854260861874 -0.002949998015537858 -0.00563387107104063
v -0.01022593304514885 -0.0029499982483685017 -0.005230681970715523
v -0.01026210654526949 -0.002949998714029789 -0.003592187538743019
v -0.009871219284832478 -0.0029499984811991453 -0.0031713496427983046
v -0.01046617142856121 -0.0029499977827072144 -0.004129085224121809
v -0.010453494265675545 -0.0029499991796910763 -0.004703318700194359
v -0.00011108086619060487 0.0019500012276694179 -0.0007876206072978675
v 0.0015386821469292045 0.001950001111254096 -0.0004967266577295959
v -0.0001729334908304736 0.0027799648232758045 -0.0012506424682214856
v -0.0002025446592597291 0.0028879758901894093 -0.0014723055064678192
v 0.0012811218621209264 0.002871166914701462 -0.0011623973259702325
v -0.00024999972083605826 0.002950001507997513 -0.001827546744607389
v 0.000915831420570612 0.0029498464427888393 -0.0016219806857407093
v 0.0011243191547691822 0.0029303275514394045 -0.0013847856316715479
v -0.0001565521233715117 0.002688855631276965 -0.0011280152248218656
v 0.0013886078959330916 0.0027775890193879604 -0.0009686184930615127
v -0.00015027474728412926 0.002645628759637475 -0.0010810231324285269
v 0.001457282225601375 0.002656931057572365 -0.0008083066786639392
v 0.001502216444350779 0.0024948888458311558 -0.0006671375595033169
v -0.00012124722707085311 0.002324451692402363 -0.0008637240389361978
v 0.0015372566413134336 0.002085215412080288 -0.0005063003627583385
v 0.0015268740244209766 0.0023008680436760187 -0.0005633631953969598
v -0.0034902249462902546 0.0029500019736588 -0.003012970555573702
v -0.003853107802569866 0.004450000822544098 -0.001557527924887836
v -0.003664740826934576 0.002950000576674938 -0.0030518649145960808
v -0.004660819191485643 0.00438104709610343 -0.001758916536346078
v -0.004083695355802774 0.002950000809505582 -0.0031093310099095106
v -0.0043867202475667 0.002950001507997513 -0.0031219846569001675
v -0.005446514114737511 0.004176064860075712 -0.0019548116251826286
v -0.004740817006677389 0.0029500017408281565 -0.003109614597633481
v -0.006188774015754461 0.0038406422827392817 -0.002139875665307045
v -0.0052894242107868195 0.0029500019736588 -0.0030409949831664562
v -0.0012886644108220935 0.002950001275166869 -0.004430392291396856
v -0.000742447329685092 0.0029500017408281565 -0.004221298731863499
v -0.0018798073288053274 0.002950001275166869 -0.004578868392854929
v -0.0025086586829274893 0.0029500010423362255 -0.002655794145539403
v -0.00038519210647791624 0.002950001507997513 -0.004031681921333075
v -6.498904258478433e-05 0.002950001275166869 -0.0038025362882763147
v 0.00019304220040794462 0.002950000809505582 -0.003561548423022032
v -0.0004291165969334543 0.002950001507997513 -0.0016210040776059031
v -0.0005286791711114347 0.002950001507997513 -0.0015017017722129822
v -0.0008710696711204946 0.002950001275166869 -0.0013771656667813659
v -0.0016227186424657702 0.002950000809505582 -0.002102479338645935
v -0.0006089399685151875 0.002950001275166869 -0.001399590284563601
v -0.0006114498828537762 0.002950000809505582 -0.0013962939847260714
v -0.0007401093025691807 0.002950001507997513 -0.0012144531356170774
v -0.00871188286691904 0.002950001507997513 -0.005858088843524456
v 0.0004350090748630464 0.002950001507997513 -0.0032682600431144238
v 0.0006333367782644928 0.002950001507997513 -0.0029452196322381496
v 0.0007825390785001218 0.0029500017408281565 -0.0026006672997027636
v 0.0008779828203842044 0.002950001275166869 -0.002246435731649399
v 0.0009198481566272676 0.0029500010423362255 -0.0018857531249523163
v -0.009350823238492012 0.002950001507997513 -0.002928259549662471
v -0.009286236017942429 0.002950001507997513 -0.005853746552020311
v -0.009871218353509903 0.002950001275166869 -0.0031713442876935005
v -0.009816853329539299 0.0029500017408281565 -0.005633865483105183
v -0.01045349333435297 0.0029500017408281565 -0.0047033135779201984
v -0.01022593304514885 0.0029500017408281565 -0.005230684299021959
v -0.010466172359883785 0.002950001275166869 -0.004129087086766958
v -0.01026210654526949 0.002950001275166869 -0.003592189634218812
v 5.0556794861655874e-11 0.007000000681728125 0.0015000024577602744
v 0.0005740257329307497 0.007000001147389412 0.0013858266174793243
v 9.098832243203958e-10 0.007000001613050699 5.8583018436308976e-09
v -0.0013858185848221183 0.007000001613050699 0.0005740319029428065
v -0.001060659997165203 0.007000001147389412 0.0010606648866087198
v -0.0005740243359468877 0.007000001613050699 0.0013858232414349914
v -0.0010606597643345594 0.007000001613050699 -0.0010606521973386407
v -0.0013858190504834056 0.007000001613050699 -0.0005740181659348309
v -0.0014999989653006196 0.007000001613050699 8.12972089647701e-09
v 0.0005740257329307497 0.007000001613050699 -0.0013858114834874868
v 1.9937478057396874e-10 0.007000001147389412 -0.001499998033978045
v -0.000574024859815836 0.007000001147389412 -0.001385814743116498
v 0.0015000003622844815 0.007000001147389412 3.66731001122389e-09
v 0.0013858199818059802 0.007000001147389412 -0.000574020144995302
v 0.0010606609284877777 0.007000001613050699 -0.0010606530122458935
v 0.0010606605792418122 0.007000001147389412 0.001060664071701467
v 0.0013858199818059802 0.007000001613050699 0.0005740299820899963
v -0.0011390459258109331 -0.004367107525467873 0.0014411520678550005
v -0.0011120578274130821 -0.004353231284767389 0.0015843571163713932
v -0.0010500000789761543 -0.004289402160793543 0.001558024319820106
v -0.0010655894875526428 -0.0043141101486980915 0.0019478268222883344
v -0.001050000311806798 -0.004269185476005077 0.0023150453343987465
v -0.0009618591284379363 -0.0031941942870616913 -0.0011017665965482593
v -0.0009322033729404211 -0.003151137148961425 -0.0011336983880028129
v -0.0010217163944616914 -0.0033091395162045956 -0.0009915150003507733
v -0.0009849669877439737 -0.0032324919011443853 -0.00106917938683182
v -0.002019698964431882 -0.004449998028576374 -0.00041246353066526353
v -0.0013012067647650838 -0.00441364012658596 0.0008611854864284396
v -0.0010499997297301888 -0.00415100296959281 0.0007844372885301709
v -0.0014025237178429961 -0.00442887656390667 0.0006031786324456334
v -0.0010499994968995452 -0.0038339097518473864 -6.435756949940696e-05
v -0.0016062402864918113 -0.004445159342139959 0.0001912138395709917
v -0.0010499998461455107 -0.0038133461493998766 -0.00010844168718904257
v -0.001829603803344071 -0.004449997562915087 -0.00016443466302007437
v -0.001049998216331005 -0.00344247929751873 -0.0008065674919635057
v -0.0010326794581487775 -0.003339939983561635 -0.0009551692637614906
v -0.000832688994705677 -0.003035326022654772 -0.0011945076985284686
v -0.0007938841008581221 -0.00299769826233387 -0.001205965643748641
v -0.003166011068969965 -0.004449998494237661 -0.0013075042515993118
v -0.0030730434227734804 -0.004449998959898949 -0.0012604555813595653
v -0.0023855066392570734 -0.004449997562915087 -0.0007871135603636503
v -0.0025458531454205513 -0.004449998494237661 -0.0009201823850162327
v -0.00032210961217060685 -0.002654906129464507 -0.001094483188353479
v -0.0004890952841378748 -0.0026786800008267164 -0.0010711447102949023
v -0.00047662516590207815 -0.0025198282673954964 -0.0009424559539183974
v -0.000249999575316906 -0.0019499987829476595 -0.0007997095817700028
v -0.0009915633127093315 -0.0019499987829476595 -0.00029991756309755147
v -0.0009784293361008167 -0.0019499973859637976 -0.00033051648642867804
v -0.0009779691463336349 -0.0022361113224178553 -0.00035834877053275704
v -0.0007914991583675146 -0.002953466260805726 -0.0011373617453500628
v -0.0009840071434155107 -0.0031803371384739876 -0.0009876833064481616
v -0.0009818937396630645 -0.0029935387428849936 -0.0007610215106979012
v -0.0010499991476535797 -0.0019499975023791194 2.260021716438132e-07
v -0.0010499997297301888 -0.0030948999337852 -0.00041746566421352327
v -0.0010499991476535797 -0.002829235512763262 -0.0002320514468010515
v -0.0009801307460293174 -0.0027682415675371885 -0.0005768042174167931
v -0.0010499990312382579 -0.002639859216287732 -0.00013911203132010996
v -0.0009788036113604903 -0.002512336242944002 -0.00044156855437904596
v -0.0010499992640689015 -0.002341571031138301 -4.3490254029165953e-05
v -0.0010499990312382579 -0.002302587730810046 -3.513156116241589e-05
v -0.0005041987751610577 -0.0028118512127548456 -0.0012303993571549654
v -0.0003614648594520986 -0.0028780605643987656 -0.001428532530553639
v -0.0005212364485487342 -0.002914795419201255 -0.0014138667611405253
v -0.0007837085286155343 -0.0027980501763522625 -0.0009536464349366724
v -0.0007772429962642491 -0.0026129253674298525 -0.0008053411729633808
v -0.0007723957533016801 -0.0024046057369560003 -0.0006972738774493337
v -0.0007693514926359057 -0.0021809714380651712 -0.0006312297773547471
v -0.0007674313965253532 -0.0019499976187944412 -0.0006099138408899307
v -0.00042499153641983867 -0.0019499983172863722 -0.0007804057095199823
v -0.0004595885693561286 -0.001949998433701694 -0.0007718325359746814
v -0.0004615028155967593 -0.002148627070710063 -0.0007911253487691283
v -0.00046731808106414974 -0.002340868813917041 -0.0008485658327117562
v -0.0003221104561816901 0.0026549892500042915 -0.0010942877270281315
v -0.00047669728519394994 0.0025200636591762304 -0.0009419071720913053
v -0.0004891481366939843 0.0026790036354213953 -0.0010707186302170157
v -0.0005042304401285946 0.002812245162203908 -0.00123010971583426
v -0.000833548023365438 0.003036257578060031 -0.0011941014090552926
v -0.0007939114584587514 0.002997721079736948 -0.0012059715809300542
v -0.0007915318128652871 0.0029534841887652874 -0.0011373452143743634
v -0.000521249370649457 0.0029152408242225647 -0.0014137058751657605
v -0.0009337906376458704 0.003152950666844845 -0.0011327925603836775
v -0.0010328402277082205 0.003339713905006647 -0.0009557537268847227
v -0.0010224358411505818 0.00331014022231102 -0.0009908153442665935
v -0.0009845906170085073 0.0031803168822079897 -0.0009877013508230448
v -0.0009855346288532019 0.0032326942309737206 -0.0010695804376155138
v -0.000963803322520107 0.0031965854577720165 -0.0011003764811903238
v -0.0010499984491616488 0.003442480694502592 -0.0008065745932981372
v -0.0009825285524129868 0.0029935163911432028 -0.0007610442698933184
v -0.0010499991476535797 0.003108265111222863 -0.0004287628980819136
v -0.0009808118920773268 0.002768222475424409 -0.0005768291302956641
v -0.001049999613314867 0.0028006616048514843 -0.00021680268400814384
v -0.0009787108283489943 0.002236103406175971 -0.00035838515032082796
v -0.0009786018636077642 0.0019500009948387742 -0.0003301400283817202
v -0.0009915633127093315 0.0019500009948387742 -0.00029991607880219817
v -0.0009795214282348752 0.002512321574613452 -0.0004415969306137413
v -0.0010499994968995452 0.002461237832903862 -7.501922664232552e-05
v -0.0010499997297301888 0.0019500006455928087 2.2019028733666346e-07
v -0.0007724461611360312 0.0024046001490205526 -0.0006972174160182476
v -0.0004674058873206377 0.002341012703254819 -0.0008479133830405772
v -0.0007694064406678081 0.0021809677127748728 -0.0006311724428087473
v -0.0004616006335709244 0.0021486866753548384 -0.0007904029334895313
v -0.0007674313965253532 0.0019500012276694179 -0.0006099122692830861
v -0.0004600055399350822 0.0019500013440847397 -0.0007717209518887103
v -0.0004249915073160082 0.0019500014605000615 -0.0007804041961207986
v -0.0002499972761142999 0.0019500014605000615 -0.0007995732012204826
v -0.0002956534153781831 0.0023296440485864878 -0.0008749612607061863
v -0.0007837479934096336 0.0027980580925941467 -0.0009536124998703599
v -0.0007772897952236235 0.002612926997244358 -0.0008053032797761261
v -0.002019698964431882 0.0044500017538666725 -0.00041246323962695897
v -0.001829603803344071 0.004450001288205385 -0.00016443428467027843
v -0.0016062409849837422 0.004445161670446396 0.000191212966456078
v -0.0010499997297301888 0.003803565166890621 -0.00012914289254695177
v -0.0010500000789761543 0.003943862393498421 0.000186884673894383
v -0.0014025236014276743 0.0044288793578743935 0.0006031785160303116
v -0.0013012067647650838 0.004413642920553684 0.0008611841476522386
v -0.0010499999625608325 0.004149019252508879 0.0007772942772135139
v -0.001049999613314867 0.004213086795061827 0.0010364858899265528
v -0.0011390456929802895 0.0043671103194355965 0.001441153814084828
v -0.0010499999625608325 0.004290797282010317 0.0015768331941217184
v -0.0010499997297301888 0.004300054628401995 0.0018101070309057832
v -0.001065625692717731 0.004314160905778408 0.0019474030705168843
v -0.0010499999625608325 0.004269187338650227 0.002315047662705183
v -0.0023855066392570734 0.004450001288205385 -0.0007871132111176848
v -0.0025458531454205513 0.004450001288205385 -0.0009201820939779282
v -0.003166011068969965 0.004450001288205385 -0.0013075039023533463
v -0.0030730434227734804 0.004450000822544098 -0.0012604552321135998
v -0.00871188286691904 -0.004949999041855335 -0.005858083255589008
v -0.009286236017942429 -0.004949997644871473 -0.005853748414665461
v -0.009816854260861874 -0.004949997179210186 -0.005633867345750332
v -0.01022593304514885 -0.004949998576194048 -0.0052306861616671085
v -0.01045349333435297 -0.004949998576194048 -0.004703315440565348
v -0.01046617142856121 -0.004949998110532761 -0.004129089415073395
v -0.01026210654526949 -0.004949998576194048 -0.003592191729694605
v -0.009871218353509903 -0.004949998110532761 -0.0031713463831692934
v -0.009350822307169437 -0.004949998576194048 -0.0029282616451382637
v -0.003853108733892441 -0.004949998110532761 -0.0015575311845168471
v -0.003073042957112193 -0.004949998576194048 -0.001260451041162014
v -0.002385506872087717 -0.004949997644871473 -0.0007871164125390351
v -0.0018296048510819674 -0.004949998110532761 -0.00016443744243588299
v -0.0014025242999196053 -0.004949998576194048 0.0006031756056472659
v -0.001049999613314867 -0.004949999041855335 0.0023150471970438957
v -0.0011390451109036803 -0.004949998110532761 0.0014411535812541842
v 0.0022000004537403584 -0.004621990956366062 0.005545395892113447
v 0.0022000009194016457 -0.0042541613802313805 0.005875442177057266
v -0.0010499991476535797 -0.0042541599832475185 0.005875442177057266
v -0.001049999613314867 -0.004621991887688637 0.005545395892113447
v -0.0010499999625608325 -0.004865624010562897 0.005105201620608568
v 0.0022000002209097147 -0.004865623544901609 0.005105201620608568
v -0.0010499993804842234 -0.004949997644871473 0.004609217867255211
v 0.002200000686571002 -0.004949998576194048 0.004609218332916498
v -0.001879807678051293 -0.004949999041855335 -0.004578870255500078
v 0.0009277493809349835 -0.003408948890864849 -0.002963287988677621
v 0.0006452688830904663 -0.003291246946901083 -0.003253908595070243
v 0.0006379928672686219 -0.003113355254754424 -0.0031581763178110123
v -0.0004077572375535965 -0.003071399638429284 -0.004054390359669924
v 0.001077844761312008 -0.002967206295579672 -0.001667069736868143
v 0.0012103109620511532 -0.00301381666213274 -0.0017338921315968037
v 0.001381299109198153 -0.003013025503605604 -0.0014905614079907537
v 0.0015212252037599683 -0.002970634726807475 -0.0012446761829778552
v 0.0016290214844048023 -0.0028845476917922497 -0.0010095944162458181
v 0.0017046998254954815 -0.002754452871158719 -0.000801403250079602
v 0.0017525035655125976 -0.0025858499575406313 -0.0006310564349405468
v 0.001780173392035067 -0.002389051951467991 -0.0005051910411566496
v 0.001794067327864468 -0.002174052409827709 -0.00042856266372837126
v 0.0018602317431941628 -0.001949998433701694 -0.0003630748251453042
v 0.0010219927644357085 -0.0030680394265800714 -0.002407860942184925
v 0.0009142126655206084 -0.002974082250148058 -0.0023027118295431137
v 0.0010114980395883322 -0.0029788727406412363 -0.0019693111535161734
v 2.3565820811199956e-05 -0.0030136145651340485 -0.0037512120325118303
v -3.1304959975386737e-06 -0.0032321824692189693 -0.003807538654655218
v -0.00037642577080987394 -0.0030834206845611334 -0.004037088714540005
v 0.0020040080416947603 -0.0032444954849779606 -0.0008808935526758432
v 0.002078347373753786 -0.003476521233096719 -0.0007605729042552412
v 0.00202776025980711 -0.003565111430361867 -0.0009644373785704374
v 0.00190127978567034 -0.0033677227329462767 -0.0012198254698887467
v 0.0019697288516908884 -0.0036324243992567062 -0.0011640420416370034
v 0.0017642815364524722 -0.0034338971599936485 -0.0015730239683762193
v 0.0018462868174538016 -0.00371180335059762 -0.0015132033731788397
v 0.001634286600165069 -0.0035953407641500235 -0.0019406237406656146
v 0.0015490896767005324 -0.0037479090970009565 -0.0021290425211191177
v 0.0014261541655287147 -0.0035695116966962814 -0.002301358850672841
v 0.0005944130825810134 -0.002958957338705659 -0.00303530041128397
v 0.0011063533602282405 -0.003191913478076458 -0.0025028071831911802
v 0.001163031323812902 -0.003339868038892746 -0.002582826651632786
v 0.0013300094287842512 -0.003268694505095482 -0.00220438651740551
v 0.00124331412371248 -0.0031454146374017 -0.002134947804734111
v 0.0015276956837624311 -0.003308655694127083 -0.00189108622726053
v 0.0014395380858331919 -0.0031879092566668987 -0.0018480733269825578
v 0.001607352402061224 -0.003188124392181635 -0.0015520146116614342
v 0.0010588860604912043 -0.0036399862729012966 -0.002842886606231332
v 0.0006713073817081749 -0.0035024061799049377 -0.0032639631535857916
v 0.0003828250919468701 -0.0033889953047037125 -0.0035203888546675444
v 0.0011893234914168715 -0.003504523541778326 -0.0026440592482686043
v 0.0011654586996883154 -0.003672265913337469 -0.002708052285015583
v 0.001391820260323584 -0.0034121351782232523 -0.0022606372367590666
v 0.0015934224938973784 -0.0034462043549865484 -0.0019222998525947332
v 0.0020098655950278044 -0.0019499983172863722 -0.00022635122877545655
v 0.0021203276701271534 -0.0019499979680404067 -5.642200994770974e-05
v 0.002006170339882374 -0.0022111411672085524 -0.00025798179558478296
v 0.002146786078810692 -0.002260653767734766 -2.729361403908115e-05
v 0.0019929981790483 -0.0024617621675133705 -0.0003518173180054873
v 0.002136644208803773 -0.0025582953821867704 -0.0001417387102264911
v 0.001966734416782856 -0.0026912023313343525 -0.0005057049565948546
v 0.0021145991049706936 -0.002830102341249585 -0.00032818346517160535
v 0.0019210679456591606 -0.0028877637814730406 -0.0007136360509321094
v 0.0020733552519232035 -0.0030631152912974358 -0.000578293576836586
v 0.0018482415471225977 -0.0030393260531127453 -0.0009672065498307347
v 0.0017438122304156423 -0.0031393670942634344 -0.0012530838139355183
v 0.0021309771109372377 -0.003321658354252577 -0.0004946450353600085
v 0.0021732363384217024 -0.00305630499497056 -0.00018174256547354162
v 0.0021953138057142496 -0.0026329660322517157 0.00011849265138152987
v 0.0021993163973093033 -0.002316783182322979 0.000236329942708835
v 0.0021997164003551006 -0.0021588008385151625 0.0002676612348295748
v 0.0021997184958308935 -0.0019499985501170158 0.00028262671548873186
v 0.0018602317431941628 0.0019500013440847397 -0.00036307331174612045
v 0.00219971826300025 0.001950000412762165 0.0002826207783073187
v 0.002120327204465866 0.001950001111254096 -5.6427907111356035e-05
v 0.0020098339300602674 0.0019500015769153833 -0.00022638461086899042
v 0.0013312740484252572 0.0030874519143253565 -0.0017961785197257996
v 0.0014384380774572492 0.003186938352882862 -0.0018493718234822154
v 0.0016072964062914252 0.0031880743335932493 -0.0015504376497119665
v 0.00012546716607175767 0.0032840892672538757 -0.0037191100418567657
v 0.00038299697916954756 0.0033890812192112207 -0.003520115977153182
v 0.0006459940923377872 0.0032920585945248604 -0.0032521497923880816
v 0.0009285083506256342 0.003409645287320018 -0.0029621042776852846
v 0.0011887711007148027 0.0035037389025092125 -0.0026463503018021584
v 0.0011624085018411279 0.003339157672598958 -0.002585004549473524
v -0.000407818442909047 0.00307110114954412 -0.004055102355778217
v -2.9228405765024945e-05 0.0032209393102675676 -0.00382649595849216
v 2.2556978365173563e-05 0.0030126571655273438 -0.003753173165023327
v -0.0005798274069093168 0.003007166553288698 -0.00414440268650651
v 0.0010768453357741237 0.002966466825455427 -0.0016679298132658005
v 0.0009134921128861606 0.0029734838753938675 -0.0023045013658702374
v 0.0012092568213120103 0.0030129714868962765 -0.001734972815029323
v 0.0013812539400532842 0.003012971021234989 -0.0014892002800479531
v 0.0015213360311463475 0.002970735542476177 -0.0012432790827006102
v 0.001628734404221177 0.0028843912295997143 -0.0010096017504110932
v 0.0017043055268004537 0.00275425985455513 -0.0008019628585316241
v 0.0017524098511785269 0.0025859123561531305 -0.0006309925811365247
v 0.0017802978400141 0.0023892682511359453 -0.0005046550068072975
v 0.0017941065598279238 0.0021741525270044804 -0.00042830462916754186
v 0.0011338589247316122 0.0030459826812148094 -0.0020587078761309385
v 0.0012416016543284059 0.0031439056620001793 -0.0021384963765740395
v 0.0010212837951257825 0.0030673996079713106 -0.0024098006542772055
v 0.0011056752409785986 0.003191242227330804 -0.0025048714596778154
v 0.0013902310747653246 0.003410489298403263 -0.002264501294121146
v 0.0015513814287260175 0.003746619215235114 -0.002125933300703764
v 0.0011854878393933177 0.003677255241200328 -0.002683389699086547
v 0.0006386928143911064 0.003114157821983099 -0.0031564540695399046
v 0.0005950895138084888 0.002959725446999073 -0.0030336063355207443
v 0.0007107207202352583 0.0035180440172553062 -0.0032243349123746157
v 0.0010592036414891481 0.0036400018725544214 -0.0028432991821318865
v 0.0020037717185914516 0.0032443541567772627 -0.0008809143328107893
v 0.0019014175049960613 0.003367946483194828 -0.0012180265039205551
v 0.00202204124070704 0.0035732844844460487 -0.0009844686137512326
v 0.0020782153587788343 0.0034763950388878584 -0.0007605563150718808
v 0.0021315745543688536 0.0033180327154695988 -0.0004905530950054526
v 0.0020730237010866404 0.003062907140702009 -0.00057903619017452
v 0.002147975843399763 0.0032407399266958237 -0.0003857179544866085
v 0.0021145653445273638 0.002830222714692354 -0.00032811379060149193
v 0.0021870790515094995 0.0028676646761596203 -2.3471055101254024e-05
v 0.00213682372123003 0.00255860504694283 -0.0001410427939845249
v 0.0021946928463876247 0.002667875261977315 0.000101505771453958
v 0.0021468796767294407 0.0022607953287661076 -2.695208058867138e-05
v 0.002198732690885663 0.0024257826153188944 0.00020499415404628962
v 0.0015924059553071856 0.0034451938699930906 -0.0019236684311181307
v 0.0017642546445131302 0.003433930454775691 -0.0015712585300207138
v 0.0017439231742173433 0.003139499109238386 -0.0012514539994299412
v 0.0018479449208825827 0.0030391570180654526 -0.00096724001923576
v 0.0019206618890166283 0.0028875519055873156 -0.0007143164402805269
v 0.001966639421880245 0.002691286848857999 -0.0005056539666838944
v 0.0019931381102651358 0.0024620182812213898 -0.00035119164385832846
v 0.002006236929446459 0.002211259910836816 -0.00025767830084078014
v 0.001839243108406663 0.003714798716828227 -0.0015288143185898662
v 0.0019692389760166407 0.0036333801690489054 -0.001164107583463192
v -0.00871188286691904 0.004950001370161772 -0.0058580851182341576
v -0.009286236949265003 0.0049500009045004845 -0.0058537498116493225
v -0.009816854260861874 0.004950001370161772 -0.005633868742734194
v -0.01022593304514885 0.004950001370161772 -0.0052306875586509705
v -0.010453494265675545 0.0049500009045004845 -0.00470331683754921
v -0.010466170497238636 0.004950001370161772 -0.00412908336147666
v -0.01026210654526949 0.004950001370161772 -0.00359218567609787
v -0.009871219284832478 0.004950001370161772 -0.0031713477801531553
v -0.009350822307169437 0.0049500009045004845 -0.0029282630421221256
v -0.0038531082682311535 0.004950001370161772 -0.001557532581500709
v -0.0030730431899428368 0.0049500009045004845 -0.001260452438145876
v -0.0023855071049183607 0.0049500009045004845 -0.0007871177513152361
v -0.0018296042690053582 0.004950000438839197 -0.00016443882486782968
v -0.0010499998461455107 0.004950001370161772 0.002315045800060034
v -0.0011390454601496458 0.004950001370161772 0.0014411521842703223
v -0.0014025236014276743 0.0049500009045004845 0.0006031741504557431
v -0.0018798079108819366 0.004950001835823059 -0.00457887165248394
v -0.0010499994968995452 0.004621995612978935 0.005545386113226414
v -0.001050000311806798 0.004254165105521679 0.00587542774155736
v 0.0022000002209097147 0.004254165571182966 0.00587542774155736
v 0.0022000004537403584 0.004621995147317648 0.005545386113226414
v 0.0022000002209097147 0.004865626338869333 0.005105192773044109
v -0.0010500001953914762 0.004865626804530621 0.005105192773044109
v 0.002200000686571002 0.004950001370161772 0.004609209019690752
v -0.0010499993804842234 0.004950001370161772 0.004609209019690752
v 0.0022000004537403584 0.0014961909037083387 0.007562400307506323
v 0.0022000004537403584 0.0020714369602501392 0.007261661347001791
v 0.0014158383710309863 0.0017901400569826365 0.007424131501466036
v 0.0004944154643453658 0.0020714374259114265 0.007261660415679216
v 0.0004944368847645819 -0.00207143509760499 0.007261662743985653
v 0.002199999988079071 -0.0020714362617582083 0.00726165808737278
v 0.0014158455887809396 -0.0017901429673656821 0.00742413429543376
v 0.0022000002209097147 -0.00149619672447443 0.007562398444861174
v -0.0010499998461455107 -0.0013405770296230912 0.0051248809322714806
v -0.0010499997297301888 -0.0016444609500467777 0.004598543513566256
v -0.0010499991476535797 -0.0008749989792704582 0.0024844608269631863
v -0.0010499994968995452 -0.0003038833092432469 0.002276592655107379
v -0.0010499994968995452 0.0003038853465113789 0.002276588696986437
v -0.0010499992640689015 0.0008750019478611648 0.002484463155269623
v -0.0010500001953914762 -0.00030388307641260326 0.005723415873944759
v -0.0010500001953914762 -0.0025002339389175177 0.0069893342442810535
v -0.001049999613314867 0.00030388531740754843 0.0057234191335737705
v -0.0010499998461455107 0.0025002299807965755 0.006989336106926203
v -0.0010499999625608325 0.0013405784266069531 0.0028751236386597157
v -0.0010499993804842234 0.0016444629291072488 0.0034014685079455376
v -0.0010499999625608325 0.0017500011017546058 0.004000004846602678
v -0.001049999613314867 0.001644463511183858 0.004598540719598532
v -0.0010499997297301888 0.0013405787758529186 0.005124881863594055
v -0.0010499998461455107 0.0008750018896535039 0.005515551194548607
v -0.0010499998461455107 -0.0008749990374781191 0.005515548400580883
v -0.0010499993804842234 -0.0013405757490545511 0.0028751299250870943
v -0.0010499991476535797 -0.0017499991226941347 0.004000007174909115
v -0.0010499993804842234 -0.0016444606008008122 0.0034014710690826178
v -0.0010606595315039158 -0.004949997644871473 0.0010606664000079036
v -0.000574024859815836 -0.004949999041855335 0.0013858249876648188
v 1.3515298602495562e-10 -0.0049499995075166225 -0.0014999962877482176
v -0.0005740243941545486 -0.004949998110532761 -0.0013858132297173142
v -0.001288664760068059 -0.004949999041855335 -0.0044303941540420055
v -0.0013858192833140492 -0.004949999041855335 -0.0005740239867009223
v -0.0010606598807498813 -0.004949998576194048 -0.0010606581345200539
v -0.0013858190504834056 -0.004949998110532761 0.000574033590964973
v -0.0015000001294538379 -0.004949998110532761 2.3351838240870393e-09
v 5.154430215981165e-10 -0.004949998110532761 0.0015000039711594582
v 0.0005740250344388187 -0.0049499995075166225 0.001385820796713233
v 0.0010606605792418122 -0.004949997644871473 0.0010606655851006508
v 0.0022000002209097147 -0.004949998110532761 0.0003357218229211867
v 0.0013858198653906584 -0.004949998576194048 0.0005740316119045019
v 0.0021677371114492416 -0.004949998110532761 -0.00023136740492191166
v 0.0015000003622844815 -0.004949997644871473 5.186707507931487e-09
v 0.0019687251187860966 -0.004949997644871473 -0.001167360576801002
v 0.0013858198653906584 -0.004949999041855335 -0.0005740184569731355
v 0.0015950441593304276 -0.004949999041855335 -0.00204830477014184
v 0.0010606602299958467 -0.004949998110532761 -0.0010606588330119848
v 0.0010603824630379677 -0.004949998110532761 -0.002841927809640765
v 0.0005740250926464796 -0.004949998576194048 -0.0013858173042535782
v 0.0003843237354885787 -0.004949998576194048 -0.003519154153764248
v -0.0004083703679498285 -0.004949999041855335 -0.004055187106132507
v -0.00040837060078047216 0.004950001370161772 -0.004055188503116369
v -0.0012886651093140244 0.004950000438839197 -0.0044303955510258675
v 0.0003843234444502741 0.004950001370161772 -0.00351915555074811
v 0.0010603828122839332 0.004950001835823059 -0.00284192175604403
v 0.0019687246531248093 0.0049500009045004845 -0.0011673618573695421
v 0.0015950442757457495 0.004950000438839197 -0.002048306167125702
v 0.0021677378099411726 0.004950001835823059 -0.00023136143863666803
v 0.002199999988079071 0.0049500009045004845 0.0003357205423526466
v -0.0010606595315039158 0.004950001835823059 -0.0010606520809233189
v -0.0005740246851928532 0.004950001370161772 -0.0013858146267011762
v 0.0005740259075537324 0.004950001835823059 -0.0013858112506568432
v 0.0010606610449030995 0.0049500009045004845 -0.0010606527794152498
v 0.0013858196325600147 0.004950001370161772 -0.0005740199703723192
v 0.0015000004786998034 0.0049500009045004845 3.8469152308096e-09
v 0.0013858196325600147 0.0049500009045004845 0.00057403021492064
v 3.629438416474784e-10 0.0049500009045004845 -0.0014999978011474013
v -0.0013858189340680838 0.0049500009045004845 -0.0005740179331041873
v -0.0014999988488852978 0.004950001835823059 8.265526041384419e-09
v -0.0013858184684067965 0.004950001370161772 0.0005740320775657892
v -0.0010606598807498813 0.0049500009045004845 0.0010606650030240417
v -0.0005740251508541405 0.004950001370161772 0.001385823474265635
v 2.3598648035694225e-10 0.004950001370161772 0.0015000025741755962
v 0.0005740259075537324 0.004950001835823059 0.0013858267338946462
v 0.0010606608120724559 0.004950001370161772 0.0010606641881167889
v 0.0022000002209097147 0.001340579125098884 0.0028751236386597157
v 0.0022000009194016457 0.0008750017150305212 0.0024844633881002665
v 0.0022000002209097147 0.0003038851427845657 0.0022765889298170805
v 0.002200000686571002 -0.00030388261075131595 0.002276592655107379
v 0.0022000004537403584 -0.000874999153893441 0.0024844608269631863
v 0.002200000686571002 -0.0013405759818851948 0.0028751299250870943
v 0.002200000686571002 -0.001644460717216134 0.0034014710690826178
v 0.0022000004537403584 -0.0017499984242022038 0.004000007174909115
v 0.0022000009194016457 -0.0016444602515548468 0.004598543513566256
v 0.0022000002209097147 -0.0013405763311311603 0.0051248809322714806
v 0.0022000002209097147 -0.0008749982807785273 0.005515548400580883
v 0.0022000002209097147 -0.00030388333834707737 0.005723415873944759
v 0.0022000004537403584 0.00030388604500330985 0.0057234191335737705
v 0.002200000686571002 0.0008750016568228602 0.005515551194548607
v 0.0022000004537403584 0.001340578543022275 0.005124881863594055
v 0.0022000004537403584 0.0016444632783532143 0.004598540719598532
v 0.002200000686571002 0.0017500008689239621 0.004000004846602678
v 0.0022000002209097147 0.0016444637440145016 0.0034014685079455376
vn -0.16780818985144275 0.7071163194888539 0.6868965876544441
vn -0.15058317345463001 0.4335901332969809 0.8884392518230153
vn 0.014035739351315949 0.902196056635299 0.4310977538941464
vn -0.056482549584752406 0.361182621445189 0.9307829153773651
vn 0.07280361578921599 0.8990848516980596 0.4316781937683375
vn 0.11171580071179225 0.888182362113005 0.44570356909350145
vn -0.022078138434451607 0.32204593076433913 0.9464665732509521
vn 0.11321850935174411 0.8933029801283768 0.4349613256761226
vn 0.10889570746054451 -0.8872359483792172 0.4482790389927891
vn 0.11104103719213997 -0.894963650087816 0.43209947128038356
vn -0.024279812292075424 -0.32326397490893727 0.9459973008635572
vn 0.07730240967161196 -0.8940355744908929 0.4412762502148757
vn -0.16780778170632035 -0.7071175812137172 0.6868953884961421
vn 0.03460287676747561 -0.8754637080197589 0.4820435010034977
vn -0.14578235678533533 -0.4341062213646136 0.8889877912674901
vn -0.05519025477458871 -0.367534687556091 0.9283707714167667
vn -0.05611877613221354 0.3210531027231408 0.9453970531989546
vn 0.06539224895929652 0.9114341277162228 0.40621630273810216
vn -0.11013685105682444 0.34720781773702025 0.931298343895007
vn 0.026308545148023908 0.9179659405657733 0.39578579107061107
vn -0.0048471325200310006 0.9221362648588046 0.3868348670150943
vn -0.16735740754076114 0.362085064476717 0.9169983120072399
vn -0.03655182243457388 0.9259075008545526 0.37597774420567515
vn -0.06730195763316328 0.9271003815959542 0.3687212076127165
vn -0.2570103203409915 0.37937439581968835 0.88883112177436
vn -0.10309552940105837 0.9293483709274923 0.3545178659418052
vn 2.551729088084182e-06 -0.6657183381151404 0.7462031186551717
vn -0.2855583831792073 -0.6657193445799671 0.689401308417743
vn 1.2605041004022477e-07 -0.9999999999999883 -8.799584211251487e-08
vn 0.6894007649380568 -0.6657194749221385 0.28555939139207825
vn 0.5276442504692304 -0.6657174669117045 0.5276474193961604
vn 0.2855586321765268 -0.6657206140935573 0.6893999793736348
vn 0.5276464145023088 -0.6657181031412941 -0.5276444526504708
vn 0.6894012563838917 -0.6657199694282638 -0.2855570520942233
vn 0.7462033512628266 -0.6657180773901075 -3.812935820174641e-07
vn -0.2855580583265 -0.6657200871160599 -0.689400725946082
vn -2.7724279841316524e-06 -0.665718046175985 -0.746203379105149
vn 0.2855575822542454 -0.665719279364497 -0.6894017031452162
vn -0.7462028127159709 -0.6657186810468129 2.5628632980334754e-07
vn -0.6894007752420817 -0.6657193987806853 -0.2855595440231333
vn -0.5276431604243825 -0.6657182781661914 -0.527647485896418
vn -0.527646044377019 -0.6657182058044672 0.5276446932489381
vn -0.689401013835673 -0.6657199742091697 0.2855576265157155
vn 0.13049535786893424 0.050712211357079776 -0.9901511163423156
vn 0.2747341606616397 0.058975552926208756 -0.9597098650751654
vn 0.07114237745490089 0.18572658173024617 -0.9800226522733353
vn 0.25531750661836566 0.20840324283385886 -0.9441297893777699
vn 0.05012035759701994 0.38623451735335945 -0.9210379185240771
vn 0.24362664981222368 0.404706425949108 -0.8813959180168531
vn 0.22545102670071576 0.5738204179470747 -0.7873385310694744
vn 0.04548648050968845 0.5724862196830132 -0.8186516404209391
vn 0.20128844296498555 0.713683655704991 -0.670923693357368
vn 0.07423945810940039 0.6763669551976151 -0.7328139223406784
vn 0.06721606796065811 0.7834478107716727 -0.6178118872318511
vn 0.1720250994884897 0.8263329510679475 -0.5362659966148445
vn -0.0012921974563599324 0.923969248473807 -0.3824645841126758
vn 0.039602636289756826 0.9975402250277505 -0.057837104444173636
vn -0.016475127912000988 0.998059672270986 -0.06004548897806661
vn 0.1130881388107544 0.967968916176929 -0.2241589841509383
vn 0.13920041546726497 0.911739299496112 -0.3864643503456427
vn 0.28990576042613514 0.6957530775222974 -0.657177529431733
vn 0.2168018881619772 0.6939111292071715 -0.6866471335786888
vn 0.15270838357079247 0.700306593086763 -0.6973168757934994
vn -0.15786020185001573 0.9324925795625335 0.3248657349316552
vn -0.22262738417660427 0.9321117679272385 0.2856653635046442
vn -0.2743937087802407 0.9286069606651349 0.2497943257683908
vn -0.10509743381817264 0.9863543423999848 -0.12672663742689824
vn -0.4635969122947257 0.8743078665256079 -0.14374859109652585
vn 0.13541182998883072 0.9904856398077763 -0.02453229776551805
vn 0.1758302648146271 0.9836749182466906 -0.03830630741255008
vn 0.24251193239029267 0.9680460113325327 -0.06383480705304981
vn 0.0644955989942716 0.6860864920564684 -0.7246555341181214
vn 0.4137543317020553 0.8453383130132484 -0.33795042469229236
vn 0.42773290437574535 0.7937598776881163 -0.43242319443669514
vn 0.38837191977930574 0.7475680306696564 -0.5388035740857962
vn 0.34536119395982756 0.7172972906357105 -0.6051530736543534
vn -0.24307869451718886 0.686087616497089 0.6857087798483862
vn 0.33037126014464696 0.9325554901852109 -0.1455853296038405
vn 0.3690954002610196 0.9078003939987429 -0.19916583583005626
vn -0.14826341230227513 0.6664479055342559 -0.7306607624482714
vn -0.412000174402312 0.6664435506038578 -0.6213765767640326
vn -0.6153274753542268 0.66644721978959 -0.42097529774194525
vn -0.6333072244533954 0.6664429456649795 0.393415505068778
vn -0.43901897299912446 0.6664472367389015 0.602586443582891
vn -0.7347326571155192 0.6664472304843013 0.1265543817802196
vn -0.7284336573878142 0.6664444284569963 -0.15885915322460942
vn 0.13065995074023817 -0.09401719362032136 -0.9869593429196146
vn 0.28127711934929434 -0.032494008651075365 -0.9590762855645774
vn 0.004055014179232358 -0.8441605179282318 -0.5360751596848579
vn -0.04379677500092139 -0.9525323463999884 -0.3012705952482775
vn 0.16625025931901788 -0.8838418459150428 -0.43724643244496464
vn -0.01707446786781032 -0.9982942106281717 -0.05583127773306792
vn 0.047431435354943416 -0.9961780110947709 -0.07334595524932873
vn 0.12744597587454207 -0.9624681538586464 -0.23960921526793322
vn 0.06382684070425286 -0.7702130442954827 -0.6345849043294353
vn 0.1931756579854567 -0.7923312559902767 -0.5787005667378912
vn 0.07885798864001023 -0.6484643686777768 -0.757149509795116
vn 0.21608838950674397 -0.6719053777019475 -0.7084129948946342
vn 0.2384087739863164 -0.519282049992149 -0.8206749716192719
vn 0.11114764473687185 -0.38043352800004726 -0.9181048588494037
vn 0.27151563863793815 -0.15467969232504325 -0.9499228656881897
vn 0.2558530134328924 -0.3342545203287043 -0.9070904867526369
vn -0.10310209303737575 -0.9293459644964752 0.354522265429731
vn -0.25678544218152394 -0.3792368238243298 0.8889548178278092
vn -0.06702436259850668 -0.927161924751475 0.3686170100651949
vn -0.16665408317952166 -0.36186289314366976 0.9172140770426969
vn -0.036051061351017134 -0.9258672771662146 0.3761251202037496
vn -0.004394634119859665 -0.9220511173695272 0.38704318124539955
vn -0.10918320971973458 -0.3462148543297099 0.9317801786670257
vn 0.02742557425756863 -0.9181175559850013 0.3953580545135897
vn -0.0563539754496191 -0.31944707966717506 0.9459269489464486
vn 0.06439380372675681 -0.9127949286503235 0.4033098762389171
vn 0.21680414674625972 -0.6939088650906087 -0.6866487085127952
vn 0.2878675936437243 -0.6949311926194965 -0.6589407303044912
vn 0.15270441139117194 -0.7003093090756463 -0.6973150180253304
vn -0.1580354761115134 -0.9326967822209304 0.3241936161076119
vn 0.37121610879390227 -0.7183805279190882 -0.5883264550218746
vn 0.38801092954873956 -0.7636340070746668 -0.5160529253766624
vn 0.42950754667460384 -0.7961654768551298 -0.4261969038057488
vn -0.08549111834341816 -0.9915075476653681 -0.09800026330066237
vn -0.19464253059217804 -0.9677600921572728 -0.159858341391433
vn -0.2731404100952626 -0.9289865762569639 0.24975639632921542
vn -0.22198617874433907 -0.932660082535664 0.2843717758341268
vn -0.2023116880765216 -0.9669109285671396 -0.15541311748066872
vn -0.22491719147546327 -0.9562789818710516 -0.1869298419473327
vn -0.46758186551601294 -0.8729497190559752 -0.13901793783774405
vn 0.0644947817260494 -0.6860858021002237 -0.7246562600892936
vn 0.4095931696351749 -0.8542393696549416 -0.320169540587076
vn 0.37069388031131173 -0.9080768582755719 -0.19489090939320325
vn 0.3353734455295756 -0.9310832968950268 -0.1435567702224735
vn 0.19646335193809153 -0.9785289632663872 -0.06231548277963229
vn 0.06254476991089153 -0.998023658693743 -0.006076877845461471
vn -0.24307758002925717 -0.6860858813365298 0.6857109110388993
vn -0.14826667453301137 -0.6664463011546223 -0.7306615638585654
vn -0.43902210107863404 -0.6664458763113164 0.6025856691891563
vn -0.4119997062138776 -0.6664464121506829 -0.6213738180927489
vn -0.7284327374011526 -0.6664457001550766 -0.15885803670911064
vn -0.6153274229844748 -0.6664453483166732 -0.4209783370083944
vn -0.7347342413130138 -0.666445434332695 0.12655464313606085
vn -0.6333060805339793 -0.6664462733058804 0.3934117094792591
vn -2.047698441013196e-06 0.665719463945036 0.746202114256279
vn 0.28555845821087034 0.6657176126789458 0.6894029497422215
vn 7.465630443745461e-08 0.9999999999999941 7.883405451616672e-08
vn -0.6894011179311129 0.6657188573484081 0.2855599789292284
vn -0.5276444176537537 0.6657185983315432 0.5276458247293504
vn -0.28555764559662244 0.6657191972201256 0.6894017562306507
vn -0.5276453604553994 0.6657195486519779 -0.5276436829267441
vn -0.6894016608958693 0.6657185805326445 -0.2855593134317595
vn -0.7462024840127343 0.6657190494892479 5.97860376895752e-07
vn 0.2855617288545296 0.6657200177231826 -0.6893992725672531
vn 1.7518554447141166e-06 0.6657172893773263 -0.746204054278075
vn -0.2855624917749024 0.6657186064071124 -0.6894003193897439
vn 0.7462027189756986 0.6657187861198681 -6.032120104466614e-07
vn 0.6894015311427972 0.6657184557532255 -0.2855599175786184
vn 0.5276441877602956 0.6657190599705457 -0.5276454721825168
vn 0.5276455146126131 0.6657193300986116 0.5276438045142258
vn 0.6894012962772337 0.6657188582595504 0.2855595462401327
vn -0.9155687148961175 0.34832665328494417 0.20100365895869268
vn -0.9165677970391738 0.3869629900706439 0.10081228965926022
vn -0.919542162150171 0.3911839548220964 0.03764738394540183
vn -0.9726460455392556 0.22896366083979705 0.039183058988377775
vn -0.9999313563924751 0.006710820092505708 0.00960455083752968
vn -0.7772104903651409 0.6153134768768108 0.1316555309895766
vn -0.7154311492125884 0.6793743012544551 0.16312213072227902
vn -0.8138304021346969 0.5450768580454303 0.20142317489454775
vn -0.8053121645503327 0.5749232421911115 0.1446913377356046
vn -0.692752465408455 0.39750626102691045 0.6017331585635888
vn -0.8803553554471911 0.39985847028295135 0.25512281724382924
vn -0.9094921225412058 0.3994884334448557 0.115035084123355
vn -0.8526400367793191 0.38051797008267346 0.3580656952643232
vn -0.9005799130346774 0.39745940868883234 0.17601658638655762
vn -0.8063068097424313 0.3942582309844547 0.4409419189235595
vn -0.8941718128239078 0.3986517041056332 0.20379790961852637
vn -0.7590804023282343 0.38567448328980836 0.524454131207244
vn -0.8566517807553161 0.4708272427875708 0.21087777023147708
vn -0.7911162569650367 0.5468151030659676 0.27409544145166886
vn -0.7093742400092395 0.6932546218388221 0.1272250640024436
vn -0.6755071817173045 0.7358293913168972 0.04738305944690835
vn -0.36421154761330743 0.3914030873039764 0.845076074583842
vn -0.45920822988952864 0.38678004401415994 0.799705570290798
vn -0.6254315572256057 0.3866700610068049 0.6777327136470154
vn -0.5420104912004031 0.39483180001154145 0.7418439708782053
vn -0.10056160879448565 0.7519387803087847 -0.6515177921625794
vn -0.3546266313987027 0.6710131168454092 -0.6511385024126723
vn -0.30148054641530375 0.5494698563002072 -0.7792254854344534
vn -0.030607765712889996 0.0038906874771996633 -0.9995239002790377
vn -0.9576894883413775 0.005901910597012914 -0.2877429605945827
vn -0.8661507899274825 0.023481595774471592 -0.4992308321486986
vn -0.9142103851163214 0.07652337814449557 -0.3979491730646288
vn -0.6849886891793342 0.6203595318108316 -0.38202689301647763
vn -0.9170352519520834 0.3489681723956959 -0.19304808036338184
vn -0.917723551046378 0.28399194426141705 -0.2777265911817704
vn -0.9953914259801089 0.0019589432991986943 -0.09587529205397818
vn -0.9955202745171116 0.060673178749777686 -0.07251309127166213
vn -0.9952050006149897 0.049749073967266466 -0.08421422914399887
vn -0.9147925347870778 0.23021994977300783 -0.3318936471587654
vn -0.9949391864023205 0.038638639442651716 -0.09275274067707763
vn -0.9150979716944819 0.15682069502572019 -0.37148751232349
vn -0.994621261363736 0.02679102411084589 -0.10005392281316676
vn -0.9946192455058637 0.016215785273849415 -0.10232108666984997
vn -0.3928976982627108 0.7780552122837106 -0.4901647532595687
vn -0.13702927543204307 0.8847417923142686 -0.44548281516474336
vn -0.36120173209662215 0.8599327292462972 -0.36062308564679396
vn -0.6738015121548675 0.5298817079478895 -0.5149921337263719
vn -0.6662663766624739 0.4201054671954558 -0.6161172873419039
vn -0.6600421542439355 0.29081319077756956 -0.6926557894732374
vn -0.6566225394761492 0.14887131642441317 -0.7393809382165294
vn -0.6502191904354404 0.037176820732311926 -0.7588365360139943
vn -0.1605046466875221 0.03044083823965154 -0.9865655648556668
vn -0.35662700207812764 0.046611953792172284 -0.9330833334447913
vn -0.27376655979713815 0.1817110178608167 -0.9444749741125098
vn -0.275912349173102 0.3724136071557999 -0.8861041026758572
vn -0.10084419006349836 -0.67027619739072 -0.7352280384628116
vn -0.42059862206678145 -0.4949258331756957 -0.7603586119528523
vn -0.35006197878799655 -0.6722776128078047 -0.6523031674953539
vn -0.3239165179210383 -0.7960072067817249 -0.5113224189975109
vn -0.7082916549115216 -0.6964166354115721 0.11544176672558051
vn -0.6761293122608465 -0.7352224426393421 0.047928206111997364
vn -0.6830989005204373 -0.6206011129294629 -0.3850066892126442
vn -0.29453428083846284 -0.8810287813883806 -0.37018622850705124
vn -0.7239660028222827 -0.6721656058055534 0.15513421650164655
vn -0.791935227067492 -0.5457352191480705 0.2738825783268578
vn -0.8140640038509219 -0.5443024551320176 0.2025700742248565
vn -0.9182078776258547 -0.3463021462978357 -0.19227354715440229
vn -0.8056580405904703 -0.5743049112237564 0.14522048951920405
vn -0.7779267618865406 -0.6144698478812749 0.13136498462484023
vn -0.8568245859100421 -0.4704033491710218 0.21112157177505705
vn -0.919391231116615 -0.2827770624995737 -0.2734170753080124
vn -0.9952188883426542 -0.06468889922734578 -0.07317588812420418
vn -0.9179215623362061 -0.22383213371223812 -0.32759606425609766
vn -0.9951399684213235 -0.046195071901493995 -0.08696239751998035
vn -0.9097962949141923 -0.07405099509230366 -0.4083958274593997
vn -0.8663951789023443 -0.024891348887843178 -0.49873822264322065
vn -0.9561844595189912 -0.014279849783986817 -0.2924164244096449
vn -0.9137105850598346 -0.15427918815236874 -0.37594002028603
vn -0.9955579030234301 -0.025735755110374924 -0.0905656261309413
vn -0.9957784364420006 -0.0064139750605339335 -0.09156509400993086
vn -0.659505014412319 -0.29185386598208396 -0.6927297141572019
vn -0.3546615037800117 -0.3651196835471443 -0.8607571285925746
vn -0.6557640753748022 -0.14971955388901367 -0.7399713052754853
vn -0.6523167253317141 -0.1818635021590177 -0.7358046999272063
vn -0.6500341014058333 -0.03788328951047641 -0.7589601592872819
vn -0.35639199027037 -0.04536364111654682 -0.9332346378782634
vn -0.1885406900702668 -0.0725918216726783 -0.9793788008804711
vn -0.011793121032422338 -0.09462938061516976 -0.9954427168957055
vn -0.06218446485922697 -0.3936015111101046 -0.9171755245218951
vn -0.6738400226662401 -0.5302674515061722 -0.5145445109281704
vn -0.6659970018527405 -0.42089699613488335 -0.6158682587760087
vn -0.6808500260637808 -0.40953496051990274 0.6072267765183869
vn -0.762418501210658 -0.3923787626537854 0.5145453679025576
vn -0.7910340869673489 -0.4162304703493255 0.44834949404288604
vn -0.8929368973768401 -0.4014542610823396 0.20371100500919267
vn -0.9024126330330393 -0.3982499892801237 0.16446393458980146
vn -0.8541874271295177 -0.38060998161070203 0.3542596240501536
vn -0.8776337722770207 -0.3931172325701006 0.2742586429180163
vn -0.9098412139792513 -0.3962616327415657 0.12314903069756938
vn -0.9127399194387411 -0.4005303303687209 0.08050648369965971
vn -0.9096296683264729 -0.38700255181673193 0.1510062627430034
vn -0.9145033898373639 -0.4037425639003767 0.02599023030141789
vn -0.9013753976011638 -0.43301275108159487 0.004727578671215916
vn -0.9427294034457853 -0.33144657717788367 0.03747583695955154
vn -0.9999334860674628 -0.0067028013324552105 0.009385941362939161
vn -0.6314004399230602 -0.3904462279965529 0.6699889756617121
vn -0.5415239895181952 -0.39392087401377257 0.7426830506969465
vn -0.3642137481212371 -0.3914011258211477 0.8450760346770096
vn -0.46020760172240877 -0.3857630203745969 0.7996223204916036
vn 0.06449848870479476 -0.6860888161239298 -0.7246530765438461
vn -0.14826432214796462 -0.66644434857068 -0.7306638221755658
vn -0.41200058188078953 -0.6664426987565656 -0.6213772202164775
vn -0.615327289000438 -0.6664459684858274 -0.4209775510646136
vn -0.7284318341049981 -0.6664469130033288 -0.1588570905271842
vn -0.7347341554566933 -0.6664456075552515 0.12655422938666097
vn -0.6333059863842642 -0.6664465695931701 0.39341135912343717
vn -0.43902226471648365 -0.6664455629657818 0.6025858965213441
vn -0.2430787210419147 -0.6860866203259449 0.6857097671656355
vn -0.20496722683564236 -0.719321833335564 0.6637503566929883
vn -0.3172265043654639 -0.728835384088805 0.6067671116896437
vn -0.4545789636989513 -0.7260531863218017 0.5159503235722862
vn -0.5634693191190643 -0.7231523107478273 0.3994409366496827
vn -0.6359531075787055 -0.7235193274701589 0.26848357070427314
vn -0.6988334485177001 -0.7147121732826736 0.02860630340355326
vn -0.6716023705699286 -0.7265473907215468 0.1451865864347127
vn 0.6715383229615932 -0.5796394312876976 0.4615781737586881
vn 0.6889686450907363 -0.43780555483782047 0.5776231489777597
vn -0.6889687035364943 -0.4378044731574097 0.5776238991165487
vn -0.6715387538149742 -0.5796381928002021 0.4615791021828729
vn -0.6712384323346279 -0.6995473299655689 0.24509691979907597
vn 0.6712364306360784 -0.6995485410276084 0.2450989451896548
vn -0.6886478698351103 -0.7225240326892642 0.06101748567425429
vn 0.6886475249618201 -0.7225242573283696 0.0610187179154682
vn 0.15270494584377065 -0.7003088404784001 -0.6973153715949832
vn 0.7625330422733594 0.23928901638593467 -0.6010691524927785
vn 0.7153653377370335 0.2366787448005105 -0.6574462756180424
vn 0.7164012973476994 0.4525897864471983 -0.530972378153716
vn 0.4748972270803867 0.0281406135725972 -0.8795912286847325
vn 0.1923581272915386 0.9762184732232788 -0.09997921485240015
vn 0.38544482690448073 0.8959248525504185 -0.2207961593757592
vn 0.3782296339867071 0.8679991023203296 -0.3217450890773375
vn 0.40461800031981243 0.8080056667322214 -0.4282652406462786
vn 0.43197724768315127 0.7256960429108961 -0.5355006169814898
vn 0.45487756929649786 0.6203607133720099 -0.6389358201380484
vn 0.47393638382977676 0.49226303506161173 -0.7301105453246687
vn 0.4904796562716441 0.34290481853334087 -0.8011529143741951
vn 0.4972789443252116 0.1824537307653222 -0.848188827832941
vn 0.5548106525534552 0.03531996699657656 -0.831226587486571
vn 0.5998967539495643 0.7606333967621023 -0.24811432915275602
vn 0.4980164200938875 0.8573789281466961 -0.12992697520873356
vn 0.3866685110294883 0.9120313126542414 -0.13669801504198778
vn 0.6248484664879729 0.23972894529491667 -0.7430305691661787
vn 0.5769454578790438 0.06035308647386833 -0.8145498410691749
vn 0.5190883850331036 0.04267558789079216 -0.8536545218774979
vn 0.8848302640125933 0.28521927326172214 -0.3684092426194807
vn 0.9664632149526646 0.0657736482286203 -0.24823916158023332
vn 0.9561456334904763 0.05964308209819486 -0.28675465177556203
vn 0.8644604614722626 0.31787302360385855 -0.38944171761138213
vn 0.9452492859547066 0.07414238340659338 -0.31781550368870753
vn 0.8503300654654071 0.34933427841418546 -0.393578888776363
vn 0.9187963936716713 0.07256642685924297 -0.38800425341587863
vn 0.8783403890763489 0.1689888965640588 -0.4471698936145743
vn 0.869726475756666 0.038156122784496795 -0.49205687441793117
vn 0.8354194621681177 0.17067430264472272 -0.5224410059015954
vn 0.6382017674158127 0.6579744796988608 -0.39971000504408977
vn 0.6995184323762208 0.6017048072182003 -0.38551950370431726
vn 0.7644998705308673 0.41930807910084145 -0.4896127885983468
vn 0.7190150835634117 0.5780615927884146 -0.3858265213165385
vn 0.587151355327604 0.762714917055928 -0.27114431809891626
vn 0.7393833035801772 0.5457507112087124 -0.3942949297189196
vn 0.5933946513863111 0.7363440129350687 -0.32508503859882226
vn 0.6480707400882321 0.6647446257533399 -0.3716435097960721
vn 0.7711126057658408 0.06377146622063488 -0.6334970791764437
vn 0.7113894262407789 0.05835988703541239 -0.7003707645369194
vn 0.6461927787082355 0.08382163440126877 -0.7585570686188544
vn 0.804940169603822 0.2125652076067236 -0.5539741472968578
vn 0.8098906078947518 0.0517953529790814 -0.5842896924074921
vn 0.796421169682034 0.3977830271656767 -0.45550190315871486
vn 0.8185153752303898 0.3765600653685384 -0.43386068925531396
vn 0.7605770030547498 0.027502582610948127 -0.6486649600325141
vn 0.9205045878318465 0.021624745106703112 -0.39013289297314163
vn 0.7618730055289189 0.12325632297258764 -0.6358910302037678
vn 0.9411544749881919 0.06776221309185622 -0.33111408409579085
vn 0.7539043801050711 0.2500423933416216 -0.6075417575692903
vn 0.9312641125601681 0.1265139743903562 -0.34167435803917007
vn 0.7370053081514075 0.35999576185448007 -0.5720369107002289
vn 0.9180695769681313 0.18869662778059343 -0.34862850501613973
vn 0.7166740356152832 0.45504122383249196 -0.5285033692304447
vn 0.9030610941887841 0.23905824345611357 -0.3568358395652451
vn 0.6942501325098569 0.5365354206370679 -0.4797358605648015
vn 0.6710222988785887 0.6030689084127022 -0.43132002748957277
vn 0.9759279802931474 0.06238924525046687 -0.20897884906854844
vn 0.9869157496369991 0.04860287535538471 -0.1537369949804828
vn 0.9927213912117222 0.03168138478417642 -0.1161917780603243
vn 0.9949370522625562 0.019866558169703112 -0.09851691175420245
vn 0.9948098841007875 0.017912214777278942 -0.1001621038973846
vn 0.9933801692791754 0.003925860644364682 -0.11480604035100994
vn 0.542177579631319 -0.045242136118560435 -0.8390450650975514
vn 0.9936921962022418 -0.007948780753241062 -0.11185989491905679
vn 0.918536775628482 -0.015887287641724607 -0.39501618436390756
vn 0.767934387658591 -0.02771646759867034 -0.6399285691975916
vn 0.50304717336547 -0.8222156942123721 -0.26627972803027633
vn 0.6572221310432597 -0.665805938778343 -0.35321597126184034
vn 0.6543681366566854 -0.6508392156821542 -0.3849813723528658
vn 0.6172024332953792 -0.06647298756669281 -0.7839913891480067
vn 0.6477938227464681 -0.09686641021540038 -0.7556322265384788
vn 0.7212804135528441 -0.18673294158754283 -0.6669972815170249
vn 0.7700120568322203 -0.1934446295051187 -0.6079972102309686
vn 0.8145902079654966 -0.21710928348215677 -0.5378720592414085
vn 0.7757592495118217 -0.41173732782476063 -0.47819447892314776
vn 0.4984413251367397 -0.03203857699038735 -0.8663312155176922
vn 0.560244229329686 -0.0664012077248828 -0.8256617243856366
vn 0.623458202418352 -0.2338534188667697 -0.7460646408466228
vn 0.45366622327529843 -0.05301193913822354 -0.8895935544775109
vn 0.18298959363144982 -0.9779914441214711 -0.1002374373564911
vn 0.4652729149436962 -0.8708675124566663 -0.15846416114482903
vn 0.3491320884806156 -0.9195698890505162 -0.18027202762709765
vn 0.3679458531600614 -0.8840666199805998 -0.28817019377165354
vn 0.38168738853406453 -0.8245711265828559 -0.4176089015333914
vn 0.4093431201363226 -0.7410571131898429 -0.5322335624402098
vn 0.4356734024556749 -0.6332119278505862 -0.6397119201800443
vn 0.46009218339929825 -0.5024166843834851 -0.7320468960578768
vn 0.4808271551287898 -0.3487718927939307 -0.8044646752267582
vn 0.48289020821011186 -0.18954853013260767 -0.8549201141272573
vn 0.5167991272109964 -0.8261660171679222 -0.22442899587808343
vn 0.640744089956514 -0.6998369331862196 -0.3157139181827522
vn 0.5912438396735772 -0.7570486851329237 -0.27804318079492
vn 0.696710374940501 -0.6044537696965743 -0.3863033700990286
vn 0.8013502234697293 -0.3737431317591128 -0.4670694710724579
vn 0.8660250475172212 -0.08840682748553505 -0.49212279964124583
vn 0.8142556527511703 -0.04828881790213327 -0.5784945306814752
vn 0.7169085084059935 -0.451953126591649 -0.5308300687970928
vn 0.6144356439565655 -0.6923286704465555 -0.37835149201950463
vn 0.7125822657871987 -0.09357784878779928 -0.6953198549601686
vn 0.7607339484919834 -0.08038206948194722 -0.6440672189434856
vn 0.8883331396815712 -0.27667050439573887 -0.36649374475001506
vn 0.8676732828050588 -0.31250806723234165 -0.3866287395176392
vn 0.9558272378635301 -0.07077545474445658 -0.2852807851291252
vn 0.9662435001184408 -0.0653582841395046 -0.24920231373966842
vn 0.9741486410213622 -0.0626968769677199 -0.2170334693422369
vn 0.9044675188939608 -0.23229441458341216 -0.35773986668968355
vn 0.9814946630565037 -0.05836049229851883 -0.1823794926253356
vn 0.9203349048647067 -0.18766808950078034 -0.34316810905268896
vn 0.9900714664734405 -0.04008451223238319 -0.13472833092643444
vn 0.930842182071492 -0.12843556992314506 -0.3421069079321553
vn 0.9929603511149424 -0.03168270920081571 -0.11413127113717185
vn 0.9424600128728113 -0.08030734137420693 -0.3245302066945183
vn 0.9951066817959477 -0.025358840058100313 -0.09549670714724184
vn 0.825681436099313 -0.3635624494350881 -0.43136123080515165
vn 0.8448581170865167 -0.33963060649993765 -0.4133591817312276
vn 0.6728098144429937 -0.600660495686525 -0.4318957310634156
vn 0.6947163075146403 -0.5359189174989933 -0.47975010780606486
vn 0.7162736010455497 -0.45717275509046845 -0.5272050838603808
vn 0.7363492253312497 -0.3636737508683875 -0.5705534342052343
vn 0.7532676267633339 -0.2534084105295419 -0.6069366193790137
vn 0.7675768741822434 -0.12525288487208847 -0.6285995999456536
vn 0.9158051785651241 -0.08083003520384305 -0.3934048554889053
vn 0.9419019227116011 -0.08045403344308039 -0.3261102827187895
vn 0.06449792033900946 0.6860880466160744 -0.7246538556873081
vn -0.14826341509293584 0.6664441715016853 -0.7306641677381012
vn -0.41200001914016143 0.6664455782893735 -0.6213745049541777
vn -0.6153270008673907 0.6664458870391977 -0.42097810115501155
vn -0.7284334742502013 0.6664451205749876 -0.15885708940293328
vn -0.7347327472385949 0.6664469733056829 0.1265552128792856
vn -0.6333061516470933 0.666444949903244 0.39341383686191284
vn -0.4390190057196827 0.6664477331628015 0.6025858707097805
vn -0.24307732121996792 0.6860873163597414 0.6857095669733743
vn -0.2049662267353036 0.7193239380973316 0.6637483845389294
vn -0.3172261928097864 0.7288360504135823 0.6067664741998672
vn -0.4575920444201788 0.730115540434671 0.5074847963231505
vn -0.5603926509739642 0.7290076278220357 0.3930749996014262
vn -0.6974464571199884 0.7159078157477803 0.03231777842021963
vn -0.672965672161992 0.7276970638113939 0.13256767106589185
vn -0.6333256460152193 0.7231138783325914 0.27568994370887606
vn 0.15270503705164015 0.7003083644339673 -0.6973158297090915
vn -0.6715369827601333 0.5796385992123312 0.4615811684726566
vn -0.6889702566438419 0.43780360754162345 0.5776227027079689
vn 0.688969446185083 0.43780382520173705 0.5776235044232073
vn 0.671537663010701 0.5796384967992791 0.46158030740749567
vn 0.6712366517772531 0.699548511177926 0.24509842475954363
vn -0.6712370253277612 0.6995483816771042 0.2450977713527461
vn 0.6886476701457315 0.7225241299862492 0.06101858725396193
vn -0.6886473330186292 0.722524541496693 0.06101751929833506
vn 0.617369602181539 0.14364204888726706 0.7734479530606284
vn 0.7000910871989721 0.3603791644146617 0.6164408548111908
vn -0.08620454530083325 0.2594915503860157 0.961890280462246
vn -0.09001090243568695 0.279996967329271 0.9557718010744639
vn -0.09001113415381519 -0.2799961510127795 0.9557720183947491
vn 0.7000936277816522 -0.3603791477341959 0.6164379792143733
vn -0.08620312689503702 -0.259498207891965 0.9618886115420936
vn 0.6173709927437669 -0.14364413033595408 0.7734464565427935
vn -0.748359929190882 0.5081112054482254 -0.42635714990998935
vn -0.7483607733735491 0.6232899089759157 -0.22686084334793857
vn -0.7483612195924301 0.3316466151113009 0.5744266773882872
vn -0.7483596182145761 0.11518109142391608 0.6532160423658695
vn -0.748362298524567 -0.1151795330739909 0.6532132464271405
vn -0.7483584566132624 -0.3316476756304757 0.5744296646799489
vn -0.7483600763316505 0.11518104257138512 -0.6532155261359417
vn -0.676416680328092 -0.24439707971402044 0.6947881274181232
vn -0.7483608339472719 -0.11517684475531594 -0.6532153983533713
vn -0.6764157518239121 0.24439872707998037 0.6947884518946592
vn -0.7483617271207138 -0.5081095025380614 0.4263560235430314
vn -0.7483601594511329 -0.6232912078968488 0.22685929979783137
vn -0.7483606668679765 -0.6632920263993076 -1.3224388688684242e-07
vn -0.748360806986173 -0.6232903463129503 -0.22685953089982053
vn -0.7483596451864855 -0.5081125957412863 -0.4263559915204781
vn -0.7483615457487606 -0.3316463980266934 -0.5744263778069787
vn -0.7483609219854744 0.3316452862426716 -0.5744278323323717
vn -0.7483596396986124 0.5081126919884216 0.4263558864498557
vn -0.7483602560914283 0.6632924898584928 -3.0549508456641176e-07
vn -0.7483607197947587 0.6232901876328113 0.22686025449365432
vn -0.464667908626721 -0.7537679998758556 0.4646692770730828
vn -0.25147626040111587 -0.7537673462460751 0.6071198219361807
vn -2.3800816465740618e-06 -0.7537672450480312 -0.6571414918318859
vn -0.25147761313594075 -0.7537664359927578 -0.6071203917364546
vn 0.22799967548655026 -0.691497344336262 -0.6854542805715965
vn -0.6071196481791127 -0.7537671919747168 -0.2514771422961158
vn -0.4646664949029226 -0.7537679712864137 -0.46467073716492674
vn -0.6071102941878602 -0.753774958522397 0.25147644540928416
vn -0.6571411557677499 -0.7537675380355277 -2.917735892590038e-07
vn 2.241989741414235e-06 -0.7537676742563615 0.6571409995131404
vn 0.25147765622942003 -0.7537654002192515 0.6071216598422996
vn 0.46466720627913805 -0.7537682587796621 0.4646695594344622
vn 0.7128162217122002 -0.7010677273894866 -0.01992675781164095
vn 0.607119637371996 -0.753766793034452 0.2514783641505836
vn 0.7156951037669681 -0.6918743271028592 -0.09534376717937239
vn 0.6571407745609735 -0.7537678703741398 -1.0187450629176283e-06
vn 0.6928448570172038 -0.6870066412795512 -0.21906135885317707
vn 0.6071222841663304 -0.7537657245550119 -0.2514751768161532
vn 0.6416467480836459 -0.6858969264968611 -0.34327082150372434
vn 0.4646682345022064 -0.7537686242129158 -0.4646679384213751
vn 0.5596897890139045 -0.6899106347344319 -0.4590976542674818
vn 0.25147672129701276 -0.7537675229914731 -0.6071194115896837
vn 0.4601638101489515 -0.6904460366601636 -0.5581518953559789
vn 0.3459576032450878 -0.6898396363369776 -0.6359517378664679
vn 0.3470656496751362 0.6871429660367132 -0.6382632521474536
vn 0.23031255659650043 0.6905018350482737 -0.6856845791389437
vn 0.46208045524600644 0.6872900425554408 -0.5604587855353718
vn 0.5595956646693202 0.6876095771729749 -0.46265079861954644
vn 0.6904156257955276 0.6904385058508681 -0.21591881181543868
vn 0.6357320647727976 0.6892289030987482 -0.34757482784720173
vn 0.7149480163940083 0.692815770801365 -0.09410441851041484
vn 0.7125282557571719 0.7013741605560164 -0.0194363487308129
vn -0.4646709148735155 0.7537664755478194 -0.4646687435268576
vn -0.25147925564257695 0.75376753809026 -0.6071183430788465
vn 0.25148064276438425 0.7537657514404134 -0.6071199867162017
vn 0.46466872651788343 0.753767345716598 -0.46466952033418685
vn 0.6071190637453464 0.7537673648408643 -0.2514780351001523
vn 0.6571408970818906 0.7537677635600455 3.0905242976381535e-07
vn 0.6071192833189423 0.753767515480999 0.2514770534818156
vn 1.5083626578710076e-06 0.7537693412451395 -0.65713908740585
vn -0.6071188529181126 0.7537680131072367 -0.2514766009945334
vn -0.6571434846608748 0.7537655076783313 1.4798447119509235e-06
vn -0.6071243692573002 0.7537620287000923 0.25148122065841577
vn -0.4646683456463389 0.753767900568284 0.46466900114724274
vn -0.25147600112660495 0.7537677054775946 0.6071194833279643
vn -2.2706018557850733e-06 0.7537662105788253 0.6571426784074236
vn 0.2514755401810036 0.7537689530463574 0.6071181253381182
vn 0.464671260801463 0.7537665901387471 0.4646682117121685
vn 0.7483614918238879 -0.5081088652616018 0.42635719601959626
vn 0.748359187543805 -0.33164744362807463 0.5744288463802448
vn 0.7483622608056713 -0.11517979163557496 0.6532132440486872
vn 0.7483601907651076 0.11518152357087896 0.6532153102200704
vn 0.7483612770065325 0.33164638467148416 0.5744267356343068
vn 0.7483598059867663 0.5081125706225498 0.4263557392117453
vn 0.7483609456799182 0.6232901209565377 0.2268596925393378
vn 0.7483603587346384 0.6632923740512332 -2.0589377983962935e-07
vn 0.7483611754046796 0.6232896422408336 -0.22686024998271534
vn 0.7483597499286406 0.5081116586584713 -0.4263569244448597
vn 0.7483609735722193 0.33164559417095774 -0.5744275873432895
vn 0.7483596043759654 0.11518061082954993 -0.6532161429627872
vn 0.7483610848417545 -0.1151773514344205 -0.6532150215748441
vn 0.7483614870835309 -0.33164651892438773 -0.5744263844353441
vn 0.7483595957792996 -0.5081125630297139 -0.4263561172264549
vn 0.7483608741688479 -0.6232902748277133 -0.22685950568233076
vn 0.7483603203769034 -0.663292417328339 -3.2759233613438616e-07
vn 0.7483605141923662 -0.6232912038007167 0.22685814083340916
f 1//1 2//2 3//3
f 3//3 2//2 4//4
f 3//3 4//4 5//5
f 5//5 4//4 6//6
f 6//6 4//4 7//7
f 6//6 7//7 8//8
f 9//9 10//10 11//11
f 9//9 11//11 12//12
f 13//13 14//14 15//15
f 15//15 14//14 12//12
f 15//15 12//12 16//16
f 16//16 12//12 11//11
f 8//8 7//7 17//17
f 8//8 17//17 18//18
f 18//18 17//17 19//19
f 18//18 19//19 20//20
f 20//20 19//19 21//21
f 21//21 19//19 22//22
f 21//21 22//22 23//23
f 23//23 22//22 24//24
f 24//24 22//22 25//25
f 24//24 25//25 26//26
f 27//27 28//28 29//29
f 30//30 31//31 29//29
f 29//29 31//31 32//32
f 29//29 32//32 27//27
f 33//33 34//34 29//29
f 29//29 34//34 35//35
f 29//29 35//35 30//30
f 36//36 37//37 29//29
f 29//29 37//37 38//38
f 29//29 38//38 33//33
f 39//39 40//40 29//29
f 29//29 40//40 41//41
f 29//29 41//41 36//36
f 28//28 42//42 29//29
f 29//29 42//42 43//43
f 29//29 43//43 39//39
f 44//44 45//45 46//46
f 46//46 45//45 47//47
f 46//46 47//47 48//48
f 47//47 49//49 48//48
f 48//48 49//49 50//50
f 48//48 50//50 51//51
f 51//51 50//50 52//52
f 51//51 52//52 53//53
f 53//53 52//52 54//54
f 54//54 52//52 55//55
f 54//54 55//55 56//56
f 57//57 58//58 59//59
f 59//59 58//58 56//56
f 59//59 56//56 60//60
f 60//60 56//56 55//55
f 61//61 62//62 58//58
f 24//24 26//26 63//63
f 63//63 26//26 64//64
f 63//63 64//64 62//62
f 62//62 64//64 65//65
f 62//62 65//65 58//58
f 58//58 65//65 66//66
f 58//58 66//66 67//67
f 67//67 66//66 68//68
f 57//57 69//69 58//58
f 58//58 69//69 70//70
f 58//58 70//70 71//71
f 8//8 18//18 72//72
f 8//8 72//72 6//6
f 73//73 74//74 58//58
f 74//74 75//75 58//58
f 58//58 75//75 76//76
f 58//58 76//76 61//61
f 77//77 1//1 72//72
f 18//18 20//20 72//72
f 72//72 20//20 21//21
f 72//72 21//21 63//63
f 63//63 21//21 23//23
f 63//63 23//23 24//24
f 71//71 78//78 58//58
f 58//58 78//78 79//79
f 58//58 79//79 73//73
f 1//1 3//3 72//72
f 72//72 3//3 5//5
f 72//72 5//5 6//6
f 72//72 80//80 77//77
f 77//77 80//80 81//81
f 77//77 81//81 82//82
f 83//83 84//84 85//85
f 85//85 84//84 77//77
f 85//85 77//77 86//86
f 86//86 77//77 82//82
f 44//44 87//87 45//45
f 45//45 87//87 88//88
f 89//89 90//90 91//91
f 92//92 93//93 90//90
f 90//90 93//93 94//94
f 90//90 94//94 91//91
f 89//89 91//91 95//95
f 95//95 91//91 96//96
f 95//95 96//96 97//97
f 96//96 98//98 97//97
f 97//97 98//98 99//99
f 97//97 99//99 100//100
f 88//88 87//87 101//101
f 101//101 87//87 100//100
f 101//101 100//100 102//102
f 102//102 100//100 99//99
f 103//103 104//104 105//105
f 105//105 104//104 106//106
f 105//105 106//106 107//107
f 107//107 106//106 108//108
f 108//108 106//106 109//109
f 108//108 109//109 110//110
f 110//110 109//109 111//111
f 110//110 111//111 112//112
f 112//112 111//111 11//11
f 112//112 11//11 10//10
f 92//92 113//113 114//114
f 115//115 116//116 103//103
f 114//114 117//117 92//92
f 92//92 117//117 118//118
f 92//92 118//118 119//119
f 120//120 121//121 122//122
f 116//116 115//115 123//123
f 123//123 115//115 113//113
f 123//123 113//113 122//122
f 122//122 113//113 92//92
f 122//122 92//92 120//120
f 121//121 124//124 122//122
f 122//122 124//124 125//125
f 122//122 125//125 126//126
f 110//110 112//112 127//127
f 127//127 112//112 10//10
f 119//119 128//128 92//92
f 92//92 128//128 129//129
f 92//92 129//129 130//130
f 130//130 131//131 92//92
f 92//92 131//131 132//132
f 92//92 132//132 93//93
f 103//103 105//105 115//115
f 115//115 105//105 107//107
f 115//115 107//107 127//127
f 127//127 107//107 108//108
f 127//127 108//108 110//110
f 10//10 9//9 127//127
f 127//127 9//9 12//12
f 127//127 12//12 14//14
f 14//14 13//13 127//127
f 127//127 13//13 133//133
f 127//127 133//133 134//134
f 134//134 133//133 135//135
f 134//134 135//135 136//136
f 137//137 138//138 139//139
f 139//139 138//138 136//136
f 139//139 136//136 140//140
f 140//140 136//136 135//135
f 141//141 142//142 143//143
f 144//144 145//145 143//143
f 143//143 145//145 146//146
f 143//143 146//146 141//141
f 147//147 148//148 143//143
f 143//143 148//148 149//149
f 143//143 149//149 144//144
f 150//150 151//151 143//143
f 143//143 151//151 152//152
f 143//143 152//152 147//147
f 153//153 154//154 143//143
f 143//143 154//154 155//155
f 143//143 155//155 150//150
f 142//142 156//156 143//143
f 143//143 156//156 157//157
f 143//143 157//157 153//153
f 158//158 159//159 160//160
f 160//160 159//159 161//161
f 160//160 161//161 162//162
f 163//163 164//164 66//66
f 165//165 166//166 167//167
f 158//158 160//160 168//168
f 168//168 160//160 169//169
f 168//168 169//169 170//170
f 170//170 169//169 171//171
f 170//170 171//171 172//172
f 172//172 171//171 173//173
f 172//172 173//173 174//174
f 174//174 173//173 175//175
f 174//174 175//175 167//167
f 167//167 175//175 176//176
f 167//167 176//176 165//165
f 164//164 177//177 66//66
f 66//66 177//177 178//178
f 66//66 178//178 68//68
f 64//64 26//26 25//25
f 25//25 179//179 64//64
f 64//64 179//179 180//180
f 64//64 180//180 65//65
f 166//166 163//163 167//167
f 167//167 163//163 66//66
f 167//167 66//66 181//181
f 181//181 66//66 65//65
f 181//181 65//65 182//182
f 182//182 65//65 180//180
f 183//183 184//184 185//185
f 186//186 44//44 46//46
f 187//187 188//188 189//189
f 68//68 178//178 190//190
f 191//191 166//166 165//165
f 165//165 176//176 191//191
f 191//191 176//176 175//175
f 191//191 175//175 192//192
f 177//177 164//164 191//191
f 191//191 164//164 163//163
f 191//191 163//163 166//166
f 56//56 58//58 67//67
f 187//187 189//189 193//193
f 175//175 194//194 192//192
f 192//192 194//194 195//195
f 192//192 195//195 196//196
f 196//196 195//195 197//197
f 196//196 197//197 198//198
f 198//198 197//197 199//199
f 198//198 199//199 189//189
f 189//189 199//199 200//200
f 189//189 200//200 193//193
f 184//184 183//183 201//201
f 201//201 183//183 202//202
f 201//201 202//202 203//203
f 178//178 177//177 190//190
f 190//190 177//177 191//191
f 190//190 191//191 204//204
f 204//204 191//191 192//192
f 204//204 192//192 205//205
f 205//205 192//192 196//196
f 205//205 196//196 206//206
f 206//206 196//196 198//198
f 206//206 198//198 207//207
f 207//207 198//198 189//189
f 207//207 189//189 208//208
f 208//208 189//189 188//188
f 186//186 46//46 209//209
f 210//210 209//209 211//211
f 211//211 209//209 46//46
f 211//211 46//46 212//212
f 212//212 46//46 48//48
f 212//212 48//48 185//185
f 185//185 48//48 51//51
f 185//185 51//51 183//183
f 183//183 51//51 53//53
f 53//53 54//54 183//183
f 183//183 54//54 56//56
f 183//183 56//56 202//202
f 202//202 56//56 67//67
f 202//202 67//67 203//203
f 203//203 67//67 68//68
f 203//203 68//68 201//201
f 201//201 68//68 190//190
f 201//201 190//190 184//184
f 184//184 190//190 204//204
f 184//184 204//204 185//185
f 185//185 204//204 205//205
f 185//185 205//205 212//212
f 212//212 205//205 206//206
f 212//212 206//206 211//211
f 211//211 206//206 207//207
f 211//211 207//207 210//210
f 210//210 207//207 208//208
f 213//213 97//97 100//100
f 214//214 215//215 213//213
f 213//213 215//215 216//216
f 217//217 218//218 219//219
f 121//121 220//220 124//124
f 92//92 90//90 120//120
f 124//124 220//220 125//125
f 125//125 220//220 216//216
f 125//125 216//216 126//126
f 217//217 219//219 221//221
f 222//222 223//223 224//224
f 224//224 223//223 225//225
f 224//224 225//225 226//226
f 222//222 224//224 227//227
f 227//227 224//224 228//228
f 227//227 228//228 229//229
f 229//229 228//228 230//230
f 229//229 230//230 231//231
f 232//232 233//233 234//234
f 230//230 235//235 231//231
f 231//231 235//235 232//232
f 231//231 232//232 236//236
f 236//236 232//232 234//234
f 236//236 234//234 237//237
f 121//121 120//120 220//220
f 220//220 120//120 90//90
f 220//220 90//90 216//216
f 216//216 90//90 89//89
f 216//216 89//89 213//213
f 213//213 89//89 95//95
f 213//213 95//95 97//97
f 238//238 239//239 240//240
f 240//240 239//239 241//241
f 240//240 241//241 242//242
f 242//242 241//241 243//243
f 243//243 241//241 244//244
f 244//244 241//241 239//239
f 244//244 239//239 245//245
f 245//245 239//239 246//246
f 245//245 246//246 87//87
f 218//218 126//126 219//219
f 219//219 126//126 216//216
f 219//219 216//216 247//247
f 247//247 216//216 215//215
f 247//247 215//215 248//248
f 248//248 215//215 214//214
f 248//248 214//214 238//238
f 238//238 214//214 239//239
f 239//239 214//214 213//213
f 239//239 213//213 246//246
f 246//246 213//213 100//100
f 246//246 100//100 87//87
f 226//226 221//221 224//224
f 224//224 221//221 219//219
f 224//224 219//219 228//228
f 228//228 219//219 247//247
f 228//228 247//247 230//230
f 230//230 247//247 248//248
f 230//230 248//248 235//235
f 235//235 248//248 238//238
f 235//235 238//238 232//232
f 232//232 238//238 240//240
f 232//232 240//240 233//233
f 233//233 240//240 242//242
f 126//126 218//218 122//122
f 122//122 218//218 217//217
f 122//122 217//217 221//221
f 226//226 225//225 249//249
f 249//249 225//225 223//223
f 223//223 222//222 249//249
f 249//249 222//222 227//227
f 249//249 227//227 250//250
f 250//250 227//227 251//251
f 227//227 252//252 251//251
f 251//251 252//252 253//253
f 251//251 253//253 254//254
f 254//254 253//253 255//255
f 253//253 256//256 255//255
f 255//255 256//256 257//257
f 255//255 257//257 258//258
f 257//257 259//259 258//258
f 258//258 259//259 260//260
f 258//258 260//260 261//261
f 261//261 260//260 262//262
f 221//221 226//226 122//122
f 122//122 226//226 249//249
f 122//122 249//249 123//123
f 249//249 263//263 123//123
f 123//123 263//263 264//264
f 123//123 264//264 116//116
f 104//104 103//103 265//265
f 265//265 103//103 116//116
f 265//265 116//116 266//266
f 266//266 116//116 264//264
f 72//72 267//267 268//268
f 72//72 268//268 80//80
f 80//80 268//268 269//269
f 80//80 269//269 81//81
f 81//81 269//269 270//270
f 81//81 270//270 82//82
f 82//82 270//270 271//271
f 82//82 271//271 86//86
f 86//86 271//271 272//272
f 86//86 272//272 85//85
f 85//85 272//272 273//273
f 85//85 273//273 83//83
f 83//83 273//273 274//274
f 83//83 274//274 84//84
f 84//84 274//274 275//275
f 84//84 275//275 77//77
f 1//1 77//77 275//275
f 276//276 25//25 22//22
f 276//276 22//22 275//275
f 22//22 19//19 275//275
f 275//275 19//19 17//17
f 275//275 17//17 7//7
f 7//7 4//4 275//275
f 275//275 4//4 2//2
f 275//275 2//2 1//1
f 25//25 276//276 179//179
f 179//179 276//276 277//277
f 179//179 277//277 180//180
f 180//180 277//277 182//182
f 182//182 277//277 278//278
f 182//182 278//278 181//181
f 181//181 278//278 167//167
f 167//167 278//278 279//279
f 167//167 279//279 174//174
f 174//174 279//279 172//172
f 172//172 279//279 280//280
f 172//172 280//280 170//170
f 281//281 162//162 161//161
f 281//281 161//161 282//282
f 161//161 159//159 282//282
f 282//282 159//159 158//158
f 282//282 158//158 280//280
f 280//280 158//158 168//168
f 280//280 168//168 170//170
f 283//283 284//284 285//285
f 285//285 286//286 283//283
f 283//283 286//286 287//287
f 283//283 287//287 288//288
f 288//288 287//287 289//289
f 288//288 289//289 290//290
f 267//267 72//72 291//291
f 291//291 72//72 63//63
f 292//292 293//293 294//294
f 295//295 61//61 76//76
f 57//57 296//296 69//69
f 297//297 59//59 298//298
f 298//298 59//59 60//60
f 298//298 60//60 299//299
f 299//299 60//60 55//55
f 299//299 55//55 300//300
f 300//300 55//55 52//52
f 300//300 52//52 301//301
f 301//301 52//52 50//50
f 301//301 50//50 302//302
f 302//302 50//50 49//49
f 302//302 49//49 303//303
f 303//303 49//49 47//47
f 303//303 47//47 304//304
f 304//304 47//47 45//45
f 304//304 45//45 305//305
f 79//79 78//78 306//306
f 306//306 78//78 307//307
f 306//306 307//307 308//308
f 57//57 59//59 296//296
f 296//296 59//59 297//297
f 296//296 297//297 69//69
f 69//69 297//297 308//308
f 69//69 308//308 70//70
f 70//70 308//308 307//307
f 70//70 307//307 71//71
f 71//71 307//307 78//78
f 74//74 309//309 75//75
f 75//75 309//309 310//310
f 75//75 310//310 76//76
f 76//76 310//310 311//311
f 76//76 311//311 295//295
f 312//312 313//313 314//314
f 312//312 314//314 315//315
f 315//315 314//314 316//316
f 315//315 316//316 317//317
f 317//317 316//316 318//318
f 317//317 318//318 319//319
f 319//319 318//318 320//320
f 319//319 320//320 321//321
f 322//322 323//323 324//324
f 325//325 326//326 327//327
f 327//327 326//326 328//328
f 327//327 328//328 329//329
f 292//292 330//330 293//293
f 293//293 330//330 331//331
f 293//293 331//331 332//332
f 322//322 324//324 294//294
f 294//294 324//324 333//333
f 294//294 333//333 292//292
f 292//292 333//333 334//334
f 292//292 334//334 330//330
f 321//321 335//335 319//319
f 319//319 335//335 336//336
f 319//319 336//336 317//317
f 306//306 323//323 79//79
f 79//79 323//323 322//322
f 79//79 322//322 73//73
f 73//73 322//322 294//294
f 73//73 294//294 74//74
f 74//74 294//294 293//293
f 74//74 293//293 309//309
f 309//309 293//293 332//332
f 309//309 332//332 310//310
f 337//337 338//338 339//339
f 339//339 338//338 340//340
f 339//339 340//340 341//341
f 341//341 340//340 342//342
f 341//341 342//342 343//343
f 343//343 342//342 344//344
f 343//343 344//344 345//345
f 345//345 344//344 346//346
f 345//345 346//346 347//347
f 347//347 346//346 312//312
f 347//347 312//312 348//348
f 348//348 312//312 315//315
f 348//348 315//315 329//329
f 329//329 315//315 317//317
f 329//329 317//317 327//327
f 327//327 317//317 336//336
f 327//327 336//336 325//325
f 325//325 336//336 335//335
f 313//313 312//312 349//349
f 349//349 312//312 346//346
f 349//349 346//346 350//350
f 350//350 346//346 344//344
f 350//350 344//344 351//351
f 351//351 344//344 342//342
f 351//351 342//342 352//352
f 352//352 342//342 340//340
f 352//352 340//340 353//353
f 353//353 340//340 338//338
f 353//353 338//338 354//354
f 305//305 337//337 304//304
f 304//304 337//337 339//339
f 304//304 339//339 303//303
f 303//303 339//339 341//341
f 303//303 341//341 302//302
f 302//302 341//341 343//343
f 302//302 343//343 301//301
f 301//301 343//343 345//345
f 301//301 345//345 300//300
f 300//300 345//345 347//347
f 300//300 347//347 299//299
f 299//299 347//347 348//348
f 299//299 348//348 298//298
f 298//298 348//348 329//329
f 298//298 329//329 297//297
f 297//297 329//329 328//328
f 297//297 328//328 308//308
f 308//308 328//328 326//326
f 308//308 326//326 306//306
f 306//306 326//326 325//325
f 306//306 325//325 323//323
f 323//323 325//325 335//335
f 323//323 335//335 324//324
f 324//324 335//335 321//321
f 324//324 321//321 333//333
f 333//333 321//321 320//320
f 333//333 320//320 334//334
f 45//45 88//88 355//355
f 356//356 354//354 357//357
f 357//357 354//354 338//338
f 357//357 338//338 358//358
f 358//358 338//338 337//337
f 358//358 337//337 355//355
f 355//355 337//337 305//305
f 355//355 305//305 45//45
f 359//359 360//360 361//361
f 362//362 363//363 364//364
f 365//365 366//366 367//367
f 368//368 369//369 370//370
f 117//117 114//114 371//371
f 371//371 368//368 117//117
f 117//117 368//368 370//370
f 117//117 370//370 118//118
f 118//118 370//370 119//119
f 94//94 93//93 372//372
f 372//372 93//93 132//132
f 372//372 132//132 131//131
f 130//130 373//373 131//131
f 131//131 373//373 374//374
f 131//131 374//374 372//372
f 372//372 374//374 375//375
f 372//372 375//375 94//94
f 94//94 375//375 376//376
f 94//94 376//376 91//91
f 91//91 376//376 377//377
f 91//91 377//377 96//96
f 96//96 377//377 378//378
f 96//96 378//378 98//98
f 98//98 378//378 379//379
f 98//98 379//379 99//99
f 99//99 379//379 380//380
f 99//99 380//380 102//102
f 102//102 380//380 381//381
f 102//102 381//381 101//101
f 101//101 381//381 355//355
f 101//101 355//355 88//88
f 359//359 382//382 383//383
f 382//382 384//384 383//383
f 383//383 384//384 385//385
f 383//383 385//385 386//386
f 386//386 385//385 367//367
f 386//386 367//367 387//387
f 387//387 367//367 366//366
f 387//387 366//366 388//388
f 364//364 365//365 389//389
f 389//389 365//365 367//367
f 389//389 367//367 390//390
f 390//390 367//367 385//385
f 364//364 363//363 365//365
f 365//365 363//363 391//391
f 365//365 391//391 366//366
f 366//366 391//391 392//392
f 366//366 392//392 388//388
f 393//393 394//394 395//395
f 395//395 396//396 393//393
f 393//393 396//396 397//397
f 393//393 397//397 398//398
f 398//398 397//397 399//399
f 398//398 399//399 400//400
f 400//400 399//399 401//401
f 400//400 401//401 402//402
f 402//402 401//401 403//403
f 402//402 403//403 404//404
f 404//404 403//403 405//405
f 404//404 405//405 357//357
f 357//357 405//405 356//356
f 360//360 406//406 361//361
f 361//361 406//406 407//407
f 361//361 407//407 408//408
f 408//408 407//407 394//394
f 408//408 394//394 409//409
f 409//409 394//394 393//393
f 409//409 393//393 410//410
f 410//410 393//393 398//398
f 410//410 398//398 411//411
f 411//411 398//398 400//400
f 411//411 400//400 412//412
f 412//412 400//400 402//402
f 412//412 402//402 413//413
f 413//413 402//402 404//404
f 413//413 404//404 358//358
f 358//358 404//404 357//357
f 359//359 383//383 360//360
f 360//360 383//383 386//386
f 360//360 386//386 406//406
f 406//406 386//386 387//387
f 406//406 387//387 407//407
f 407//407 387//387 414//414
f 407//407 414//414 394//394
f 394//394 414//414 415//415
f 394//394 415//415 395//395
f 369//369 362//362 370//370
f 370//370 362//362 364//364
f 370//370 364//364 119//119
f 119//119 364//364 389//389
f 119//119 389//389 128//128
f 128//128 389//389 390//390
f 128//128 390//390 129//129
f 129//129 390//390 385//385
f 129//129 385//385 130//130
f 130//130 385//385 384//384
f 130//130 384//384 373//373
f 373//373 384//384 382//382
f 373//373 382//382 374//374
f 374//374 382//382 359//359
f 374//374 359//359 375//375
f 375//375 359//359 361//361
f 375//375 361//361 376//376
f 376//376 361//361 408//408
f 376//376 408//408 377//377
f 377//377 408//408 409//409
f 377//377 409//409 378//378
f 378//378 409//409 410//410
f 378//378 410//410 379//379
f 379//379 410//410 411//411
f 379//379 411//411 380//380
f 380//380 411//411 412//412
f 380//380 412//412 381//381
f 381//381 412//412 413//413
f 381//381 413//413 355//355
f 355//355 413//413 358//358
f 416//416 127//127 134//134
f 416//416 134//134 417//417
f 417//417 134//134 136//136
f 417//417 136//136 418//418
f 418//418 136//136 138//138
f 418//418 138//138 419//419
f 419//419 138//138 137//137
f 419//419 137//137 420//420
f 420//420 137//137 139//139
f 420//420 139//139 421//421
f 421//421 139//139 140//140
f 421//421 140//140 422//422
f 422//422 140//140 135//135
f 422//422 135//135 423//423
f 423//423 135//135 133//133
f 423//423 133//133 424//424
f 111//111 109//109 424//424
f 424//424 109//109 425//425
f 425//425 109//109 106//106
f 425//425 106//106 104//104
f 133//133 13//13 424//424
f 424//424 13//13 15//15
f 15//15 16//16 424//424
f 424//424 16//16 11//11
f 424//424 11//11 111//111
f 104//104 265//265 425//425
f 425//425 265//265 426//426
f 265//265 266//266 426//426
f 426//426 266//266 264//264
f 426//426 264//264 427//427
f 427//427 264//264 263//263
f 427//427 263//263 428//428
f 428//428 263//263 249//249
f 428//428 249//249 250//250
f 261//261 262//262 429//429
f 261//261 429//429 258//258
f 258//258 429//429 430//430
f 258//258 430//430 255//255
f 255//255 430//430 431//431
f 255//255 431//431 254//254
f 428//428 250//250 431//431
f 431//431 250//250 251//251
f 431//431 251//251 254//254
f 416//416 432//432 127//127
f 127//127 432//432 115//115
f 433//433 434//434 435//435
f 435//435 436//436 433//433
f 433//433 436//436 437//437
f 433//433 437//437 438//438
f 438//438 437//437 439//439
f 438//438 439//439 440//440
f 441//441 442//442 443//443
f 443//443 442//442 444//444
f 445//445 446//446 447//447
f 447//447 446//446 448//448
f 162//162 449//449 450//450
f 451//451 452//452 193//193
f 262//262 453//453 454//454
f 256//256 253//253 229//229
f 229//229 253//253 252//252
f 229//229 252//252 227//227
f 455//455 456//456 457//457
f 457//457 456//456 458//458
f 256//256 229//229 257//257
f 257//257 229//229 231//231
f 257//257 231//231 259//259
f 194//194 175//175 173//173
f 454//454 459//459 262//262
f 262//262 459//459 460//460
f 262//262 460//460 429//429
f 193//193 452//452 237//237
f 237//237 452//452 453//453
f 237//237 453//453 236//236
f 236//236 453//453 262//262
f 236//236 262//262 231//231
f 231//231 262//262 260//260
f 231//231 260//260 259//259
f 197//197 195//195 169//169
f 169//169 195//195 194//194
f 169//169 194//194 171//171
f 171//171 194//194 173//173
f 429//429 460//460 440//440
f 440//440 460//460 461//461
f 440//440 461//461 438//438
f 438//438 461//461 462//462
f 438//438 462//462 433//433
f 433//433 462//462 434//434
f 434//434 462//462 463//463
f 434//434 463//463 458//458
f 458//458 463//463 464//464
f 458//458 464//464 457//457
f 455//455 465//465 456//456
f 456//456 465//465 449//449
f 456//456 449//449 285//285
f 285//285 449//449 162//162
f 193//193 200//200 451//451
f 451//451 200//200 199//199
f 451//451 199//199 466//466
f 450//450 467//467 162//162
f 162//162 467//467 468//468
f 162//162 468//468 160//160
f 160//160 468//468 466//466
f 160//160 466//466 169//169
f 169//169 466//466 199//199
f 169//169 199//199 197//197
f 287//287 286//286 289//289
f 289//289 286//286 285//285
f 289//289 285//285 281//281
f 281//281 285//285 162//162
f 456//456 285//285 445//445
f 445//445 285//285 284//284
f 445//445 284//284 446//446
f 469//469 470//470 282//282
f 282//282 470//470 281//281
f 471//471 472//472 473//473
f 474//474 277//277 475//475
f 475//475 277//277 267//267
f 475//475 267//267 472//472
f 472//472 267//267 291//291
f 472//472 291//291 473//473
f 270//270 269//269 268//268
f 469//469 282//282 476//476
f 476//476 282//282 280//280
f 476//476 280//280 477//477
f 477//477 280//280 279//279
f 477//477 279//279 474//474
f 474//474 279//279 278//278
f 474//474 278//278 277//277
f 281//281 470//470 289//289
f 289//289 470//470 478//478
f 289//289 478//478 290//290
f 277//277 276//276 267//267
f 267//267 276//276 275//275
f 267//267 275//275 268//268
f 268//268 275//275 274//274
f 478//478 479//479 290//290
f 290//290 479//479 480//480
f 290//290 480//480 481//481
f 481//481 480//480 482//482
f 481//481 482//482 483//483
f 483//483 482//482 484//484
f 483//483 484//484 485//485
f 485//485 484//484 486//486
f 485//485 486//486 487//487
f 487//487 486//486 488//488
f 487//487 488//488 489//489
f 489//489 488//488 490//490
f 489//489 490//490 491//491
f 491//491 490//490 471//471
f 491//491 471//471 492//492
f 492//492 471//471 473//473
f 271//271 270//270 272//272
f 272//272 270//270 268//268
f 272//272 268//268 273//273
f 273//273 268//268 274//274
f 369//369 368//368 493//493
f 493//493 368//368 494//494
f 494//494 368//368 371//371
f 494//494 371//371 114//114
f 495//495 496//496 392//392
f 392//392 391//391 495//495
f 495//495 391//391 363//363
f 495//495 363//363 493//493
f 493//493 363//363 362//362
f 493//493 362//362 369//369
f 497//497 414//414 498//498
f 498//498 414//414 387//387
f 498//498 387//387 496//496
f 496//496 387//387 388//388
f 496//496 388//388 392//392
f 397//397 396//396 499//499
f 499//499 396//396 395//395
f 499//499 395//395 497//497
f 497//497 395//395 415//415
f 497//497 415//415 414//414
f 481//481 352//352 353//353
f 353//353 354//354 481//481
f 481//481 354//354 356//356
f 481//481 356//356 500//500
f 500//500 356//356 405//405
f 405//405 403//403 500//500
f 500//500 403//403 401//401
f 500//500 401//401 499//499
f 499//499 401//401 399//399
f 499//499 399//399 397//397
f 313//313 349//349 483//483
f 483//483 349//349 350//350
f 483//483 350//350 481//481
f 481//481 350//350 351//351
f 481//481 351//351 352//352
f 485//485 316//316 483//483
f 483//483 316//316 314//314
f 483//483 314//314 313//313
f 489//489 334//334 487//487
f 487//487 334//334 320//320
f 487//487 320//320 485//485
f 485//485 320//320 318//318
f 485//485 318//318 316//316
f 491//491 331//331 489//489
f 489//489 331//331 330//330
f 489//489 330//330 334//334
f 295//295 311//311 492//492
f 492//492 311//311 310//310
f 492//492 310//310 491//491
f 491//491 310//310 332//332
f 491//491 332//332 331//331
f 295//295 492//492 61//61
f 61//61 492//492 473//473
f 61//61 473//473 62//62
f 62//62 473//473 291//291
f 62//62 291//291 63//63
f 114//114 113//113 494//494
f 494//494 113//113 115//115
f 494//494 115//115 432//432
f 501//501 502//502 432//432
f 503//503 504//504 498//498
f 498//498 504//504 497//497
f 497//497 504//504 505//505
f 497//497 505//505 499//499
f 499//499 505//505 506//506
f 499//499 506//506 500//500
f 500//500 506//506 507//507
f 500//500 507//507 439//439
f 422//422 423//423 424//424
f 424//424 425//425 416//416
f 416//416 425//425 426//426
f 498//498 496//496 503//503
f 503//503 496//496 495//495
f 503//503 495//495 508//508
f 508//508 495//495 493//493
f 508//508 493//493 502//502
f 502//502 493//493 494//494
f 502//502 494//494 432//432
f 432//432 416//416 501//501
f 501//501 416//416 426//426
f 501//501 426//426 509//509
f 509//509 426//426 427//427
f 509//509 427//427 510//510
f 510//510 427//427 428//428
f 510//510 428//428 511//511
f 511//511 428//428 431//431
f 511//511 431//431 512//512
f 512//512 431//431 430//430
f 512//512 430//430 513//513
f 513//513 430//430 429//429
f 513//513 429//429 514//514
f 514//514 429//429 440//440
f 514//514 440//440 515//515
f 515//515 440//440 439//439
f 515//515 439//439 516//516
f 516//516 439//439 507//507
f 418//418 419//419 420//420
f 416//416 417//417 424//424
f 424//424 417//417 418//418
f 424//424 418//418 422//422
f 422//422 418//418 420//420
f 422//422 420//420 421//421
f 442//442 435//435 444//444
f 444//444 435//435 434//434
f 444//444 434//434 458//458
f 458//458 456//456 445//445
f 448//448 441//441 447//447
f 447//447 441//441 443//443
f 447//447 443//443 445//445
f 445//445 443//443 444//444
f 445//445 444//444 458//458
f 517//517 518//518 500//500
f 500//500 518//518 519//519
f 500//500 519//519 481//481
f 481//481 519//519 520//520
f 481//481 520//520 521//521
f 521//521 522//522 481//481
f 481//481 522//522 523//523
f 481//481 523//523 290//290
f 290//290 523//523 524//524
f 290//290 524//524 288//288
f 288//288 524//524 525//525
f 288//288 525//525 283//283
f 283//283 525//525 284//284
f 284//284 525//525 526//526
f 284//284 526//526 446//446
f 446//446 526//526 527//527
f 446//446 527//527 448//448
f 448//448 527//527 528//528
f 448//448 528//528 441//441
f 441//441 528//528 529//529
f 441//441 529//529 442//442
f 442//442 529//529 530//530
f 442//442 530//530 435//435
f 435//435 530//530 531//531
f 435//435 531//531 436//436
f 436//436 531//531 532//532
f 436//436 532//532 437//437
f 437//437 532//532 533//533
f 437//437 533//533 439//439
f 439//439 533//533 500//500
f 500//500 533//533 534//534
f 500//500 534//534 517//517
f 87//87 44//44 245//245
f 245//245 44//44 186//186
f 245//245 186//186 244//244
f 244//244 186//186 209//209
f 244//244 209//209 243//243
f 243//243 209//209 210//210
f 243//243 210//210 242//242
f 242//242 210//210 208//208
f 242//242 208//208 233//233
f 233//233 208//208 188//188
f 233//233 188//188 234//234
f 234//234 188//188 187//187
f 234//234 187//187 237//237
f 237//237 187//187 193//193
f 27//27 470//470 28//28
f 28//28 470//470 469//469
f 28//28 469//469 42//42
f 42//42 469//469 476//476
f 42//42 476//476 43//43
f 43//43 476//476 477//477
f 43//43 477//477 39//39
f 39//39 477//477 474//474
f 39//39 474//474 40//40
f 40//40 474//474 475//475
f 40//40 475//475 41//41
f 41//41 475//475 472//472
f 41//41 472//472 36//36
f 36//36 472//472 471//471
f 36//36 471//471 37//37
f 37//37 471//471 490//490
f 37//37 490//490 38//38
f 38//38 490//490 488//488
f 38//38 488//488 33//33
f 33//33 488//488 486//486
f 33//33 486//486 34//34
f 34//34 486//486 484//484
f 34//34 484//484 35//35
f 35//35 484//484 482//482
f 35//35 482//482 30//30
f 30//30 482//482 480//480
f 30//30 480//480 31//31
f 31//31 480//480 479//479
f 31//31 479//479 32//32
f 32//32 479//479 478//478
f 32//32 478//478 27//27
f 27//27 478//478 470//470
f 514//514 146//146 513//513
f 513//513 146//146 145//145
f 513//513 145//145 512//512
f 512//512 145//145 144//144
f 512//512 144//144 511//511
f 511//511 144//144 149//149
f 511//511 149//149 510//510
f 510//510 149//149 148//148
f 510//510 148//148 509//509
f 509//509 148//148 147//147
f 509//509 147//147 501//501
f 501//501 147//147 152//152
f 501//501 152//152 502//502
f 502//502 152//152 151//151
f 502//502 151//151 508//508
f 508//508 151//151 150//150
f 508//508 150//150 503//503
f 503//503 150//150 155//155
f 503//503 155//155 504//504
f 504//504 155//155 154//154
f 504//504 154//154 505//505
f 505//505 154//154 153//153
f 505//505 153//153 506//506
f 506//506 153//153 157//157
f 506//506 157//157 507//507
f 507//507 157//157 156//156
f 507//507 156//156 516//516
f 516//516 156//156 142//142
f 516//516 142//142 515//515
f 515//515 142//142 141//141
f 515//515 141//141 514//514
f 514//514 141//141 146//146
f 461//461 533//533 462//462
f 462//462 533//533 532//532
f 462//462 532//532 463//463
f 463//463 532//532 531//531
f 463//463 531//531 464//464
f 464//464 531//531 530//530
f 464//464 530//530 457//457
f 457//457 530//530 529//529
f 457//457 529//529 455//455
f 455//455 529//529 528//528
f 455//455 528//528 465//465
f 465//465 528//528 527//527
f 465//465 527//527 449//449
f 449//449 527//527 526//526
f 449//449 526//526 450//450
f 450//450 526//526 525//525
f 450//450 525//525 467//467
f 467//467 525//525 524//524
f 467//467 524//524 468//468
f 468//468 524//524 523//523
f 468//468 523//523 466//466
f 466//466 523//523 522//522
f 466//466 522//522 451//451
f 451//451 522//522 521//521
f 451//451 521//521 452//452
f 452//452 521//521 520//520
f 452//452 520//520 453//453
f 453//453 520//520 519//519
f 453//453 519//519 454//454
f 454//454 519//519 518//518
f 454//454 518//518 459//459
f 459//459 518//518 517//517
f 459//459 517//517 460//460
f 460//460 517//517 534//534
f 460//460 534//534 461//461
f 461//461 534//534 533//533
