# https://github.com/mikedh/trimesh
v 0.00645000 -0.00000014 0.01008897
v 0.00643679 0.00039457 0.00979959
v 0.00643532 0.00043594 0.02384599
v 0.00633254 -0.00130218 0.02384599
v 0.00640302 -0.00080859 0.00949886
v 0.00643532 0.00043511 0.00977122
v 0.00636484 0.00108386 0.00929742
v 0.00632226 0.00108386 0.02384599
v 0.00554994 0.00108386 0.03058974
v 0.00554994 0.00097587 0.03062662
v 0.00554994 0.00055179 0.03072308
v 0.00554994 0.00011943 0.03076280
v 0.00554994 -0.00031417 0.03075145
v 0.00554994 -0.00074115 0.03068620
v 0.00554994 -0.00115489 0.03056988
v 0.00554994 -0.00192610 0.03019255
v 0.00583479 -0.00297037 0.02384599
v 0.00608146 -0.00231832 0.00841509
v 0.00627087 -0.00162076 0.00891158
v 0.00633254 -0.00129969 0.00914138
v 0.00554994 -0.00227902 0.02993153
v 0.00554994 -0.00259718 0.02963080
v 0.00554994 -0.00274944 0.02945490
v 0.00635897 0.00108386 0.00924352
v 0.00554113 0.00108386 0.03062946
v 0.00554113 0.00098621 0.03066350
v 0.00554113 0.00055758 0.03075713
v 0.00554113 0.00012067 0.03079968
v 0.00554113 -0.00031748 0.03078833
v 0.00554113 -0.00074901 0.03072308
v 0.00554113 -0.00116771 0.03060392
v 0.00554113 -0.00194596 0.03022375
v 0.00575257 -0.00314290 0.02384599
v 0.00575403 -0.00314290 0.00784200
v 0.00579808 -0.00304898 0.00790725
v 0.00583479 -0.00296913 0.00795832
v 0.00589793 0.00108386 0.00806613
v 0.00607118 0.00108386 0.00841509
v 0.00615634 0.00108386 0.00858815
v 0.00619892 0.00108386 0.00870731
v 0.00631932 0.00108386 0.00907613
v 0.00554113 -0.00230260 0.02995991
v 0.00554113 -0.00262407 0.02965634
v 0.00554554 -0.00274944 0.02949462
v 0.00553526 0.00108386 0.03064081
v 0.00553526 0.00098911 0.03067485
v 0.00553526 0.00055882 0.03076847
v 0.00553526 0.00012150 0.03081103
v 0.00553526 -0.00031872 0.03079968
v 0.00550589 -0.00057027 0.03082238
v 0.00553526 -0.00075108 0.03073443
v 0.00553526 -0.00117102 0.03061527
v 0.00553526 -0.00195175 0.03023227
v 0.00553526 -0.00231005 0.02996842
v 0.00535466 -0.00169440 0.03074010
v 0.00464695 -0.00314290 0.02467725
v 0.00553379 -0.00274944 0.02953434
v 0.00506688 -0.00274944 0.03058123
v 0.00482314 -0.00274944 0.03099260
v 0.00443551 -0.00274944 0.03154016
v 0.00379094 -0.00274944 0.03224943
v 0.00274699 -0.00274944 0.03308070
v 0.00545450 -0.00314290 0.00745048
v 0.00567475 0.00108386 0.00773419
v 0.00553526 -0.00263235 0.02966201
v 0.00551177 0.00108386 0.03068336
v 0.00476735 0.00108386 0.03179834
v 0.00482901 0.00056834 0.03184657
v 0.00550589 0.00056834 0.03082238
v 0.00482901 -0.00057027 0.03184657
v 0.00469393 -0.00169440 0.03174159
v 0.00456179 -0.00314290 0.02472832
v 0.00249591 -0.00274944 0.03323674
v 0.00387610 -0.00169440 0.03262109
v 0.00292758 -0.00169440 0.03335589
v 0.00406110 -0.00314290 0.00570284
v 0.00406110 0.00108386 0.00570000
v 0.00545010 0.00108386 0.00744481
v 0.00393923 0.00108386 0.03268918
v 0.00399356 0.00056834 0.03274876
v 0.00399356 -0.00057027 0.03274876
v 0.00344148 -0.00314290 0.02528155
v 0.00173827 -0.00274944 0.03362258
v 0.00186895 -0.00169440 0.03392615
v 0.00302009 -0.00057027 0.03350059
v 0.00193796 -0.00057027 0.03408503
v 0.00405229 -0.00314290 0.00570000
v -0.00679393 0.00108386 0.00570000
v 0.00350462 0.00108386 0.03302679
v 0.00297604 0.00108386 0.03343533
v 0.00302009 0.00056834 0.03350059
v 0.00335779 -0.00314290 0.02532127
v 0.00100854 -0.00274944 0.03389494
v 0.00330493 -0.00314290 0.02534113
v 0.00073397 -0.00169440 0.03431199
v 0.00193796 0.00056834 0.03408503
v 0.00077508 -0.00057027 0.03447938
v -0.00678219 -0.00314290 0.00570000
v -0.00817265 -0.00234108 0.00865908
v -0.00818293 0.00108386 0.00868177
v -0.00679393 -0.00314290 0.00570284
v 0.00190713 0.00108386 0.03401126
v 0.00065174 -0.00274944 0.03399424
v -0.00542255 -0.00314290 0.02824631
v -0.00043772 -0.00057027 0.03468365
v 0.00000570 -0.00169440 0.03443399
v 0.00000570 -0.00213172 0.03429781
v 0.00138735 0.00108386 0.03419000
v 0.00077508 0.00056834 0.03447938
v -0.00837527 -0.00159676 0.00918961
v -0.00827396 0.00108386 0.00890874
v -0.00821817 0.00108386 0.00876405
v -0.00784816 -0.00314290 0.00796399
v -0.00793479 -0.00297037 0.00815124
v -0.00800820 -0.00279495 0.02660647
v -0.00803757 -0.00271427 0.02581209
v -0.00835178 -0.00169482 0.02728454
v 0.00000570 -0.00274944 0.03409637
v -0.00547688 -0.00314290 0.02825766
v -0.00043772 0.00056834 0.03468365
v -0.00166374 -0.00057027 0.03468365
v -0.00045241 -0.00169440 0.03451059
v -0.00059189 -0.00274944 0.03419000
v 0.00075599 0.00108386 0.03440278
v -0.00838996 0.00108386 0.00923784
v -0.00843401 -0.00130218 0.02723063
v -0.00843401 -0.00130176 0.02386301
v -0.00843401 -0.00129928 0.00940523
v -0.00785844 -0.00314290 0.02386301
v -0.00792892 -0.00298485 0.02581209
v -0.00794653 -0.00294472 0.02386301
v -0.00794800 -0.00294141 0.02581209
v -0.00794653 -0.00293976 0.02689302
v -0.00802435 -0.00274944 0.02723063
v -0.00824606 -0.00195961 0.02757108
v -0.00832829 -0.00169482 0.02757108
v -0.00621543 -0.00314290 0.02833142
v -0.00044507 0.00108386 0.03460421
v -0.00166374 0.00056834 0.03468365
v -0.00287508 -0.00057027 0.03447938
v -0.00283397 -0.00169440 0.03431199
v -0.00164906 -0.00169440 0.03451059
v -0.00162263 -0.00274944 0.03418432
v -0.00839877 0.00108386 0.00927189
v -0.00844869 -0.00107793 0.02757108
v -0.00849127 -0.00079286 0.02770442
v -0.00849714 -0.00080734 0.02757108
v -0.00849861 -0.00081190 0.02752853
v -0.00850155 -0.00080652 0.02744057
v -0.00850889 -0.00075439 0.02723063
v -0.00850008 -0.00084127 0.00973717
v -0.00850301 0.00081120 0.00975987
v -0.00846043 0.00108386 0.00956127
v -0.00785844 -0.00314290 0.02581209
v -0.00785550 -0.00314290 0.02713133
v -0.00792304 -0.00274944 0.02842504
v -0.00824753 -0.00169482 0.02848178
v -0.00628884 -0.00314290 0.02831156
v -0.00221435 -0.00274944 0.03410772
v -0.00275321 -0.00274944 0.03399424
v -0.00165640 0.00108386 0.03460421
v -0.00285599 0.00108386 0.03440278
v -0.00287508 0.00056834 0.03447938
v -0.00403943 -0.00057027 0.03408219
v -0.00397189 -0.00169440 0.03392615
v -0.00377661 -0.00274944 0.03365095
v -0.00848099 -0.00070308 0.02793706
v -0.00855000 -0.00000014 0.02671996
v -0.00854266 -0.00028396 0.02677102
v -0.00853679 -0.00040602 0.02682777
v -0.00852944 -0.00051649 0.02690437
v -0.00854266 -0.00027569 0.02386301
v -0.00854853 -0.00000014 0.01035282
v -0.00853532 0.00043470 0.01003506
v -0.00852357 0.00061426 0.02581209
v -0.00850889 0.00075576 0.02723347
v -0.00849861 0.00081120 0.02752853
v -0.00844869 0.00108386 0.02750866
v -0.00779090 -0.00314290 0.02726184
v -0.00727553 -0.00274944 0.03037412
v -0.00763379 -0.00274944 0.02953434
v -0.00783641 -0.00274944 0.02884777
v -0.00794360 -0.00169440 0.02964499
v -0.00810805 -0.00057027 0.02970173
v -0.00839877 -0.00057027 0.02857541
v -0.00841492 -0.00056944 0.02851015
v -0.00696278 -0.00314290 0.02810729
v -0.00400713 0.00108386 0.03401126
v -0.00403943 0.00056834 0.03408219
v -0.00512155 -0.00057027 0.03350059
v -0.00502758 -0.00169440 0.03335589
v -0.00484699 -0.00274944 0.03308070
v -0.00847218 -0.00051814 0.02815552
v -0.00846778 -0.00028066 0.02829170
v -0.00846484 -0.00001048 0.02834277
v -0.00846631 0.00026589 0.02829737
v -0.00846924 0.00040574 0.02823212
v -0.00847218 0.00051000 0.02816119
v -0.00848099 0.00070239 0.02793706
v -0.00848980 0.00078514 0.02773279
v -0.00849714 0.00080624 0.02757108
v -0.00853532 0.00044215 0.02685046
v -0.00854706 0.00011571 0.02672847
v -0.00854706 0.00013308 0.02581209
v -0.00855000 -0.00000014 0.02386301
v -0.00854413 -0.00026742 0.02581209
v -0.00853972 0.00037760 0.02581209
v -0.00853825 0.00040739 0.02581209
v -0.00841051 0.00108386 0.02797962
v -0.00761617 -0.00314290 0.02755122
v -0.00716834 -0.00274944 0.03058123
v -0.00745613 -0.00169440 0.03074010
v -0.00810805 0.00056834 0.02970173
v -0.00760589 -0.00057027 0.03082238
v -0.00846924 -0.00040602 0.02823212
v -0.00698774 -0.00314290 0.02809027
v -0.00507604 0.00108386 0.03343533
v -0.00512155 0.00056834 0.03350059
v -0.00609209 -0.00057027 0.03274876
v -0.00597610 -0.00169440 0.03262109
v -0.00518910 -0.00274944 0.03284522
v -0.00839877 0.00056834 0.02857541
v -0.00841492 0.00056917 0.02851015
v -0.00847952 0.00068170 0.02797111
v -0.00838849 0.00108386 0.02817254
v -0.00853679 0.00040574 0.02682777
v -0.00757212 -0.00314290 0.02760796
v -0.00653551 -0.00274944 0.03154016
v -0.00679393 -0.00169440 0.03174159
v -0.00693048 -0.00057027 0.03184657
v -0.00760589 0.00056834 0.03082238
v -0.00753688 0.00108386 0.03078550
v -0.00803170 0.00108386 0.02967336
v -0.00831801 0.00108386 0.02857541
v -0.00710374 -0.00314290 0.02800515
v -0.00551359 0.00108386 0.03309772
v -0.00609209 0.00056834 0.03274876
v -0.00637841 -0.00274944 0.03173025
v -0.00575439 -0.00274944 0.03237710
v -0.00833710 0.00108386 0.02849597
v -0.00693048 0.00056834 0.03184657
v -0.00716981 0.00108386 0.03134157
v -0.00604070 0.00108386 0.03268918
v -0.00641365 0.00108386 0.03228915
v -0.00686735 0.00108386 0.03179834
f 1 2 3
f 1 3 4
f 1 4 5
f 1 5 2
f 2 6 3
f 2 5 6
f 3 6 7
f 3 7 8
f 3 8 9
f 3 9 10
f 3 10 11
f 3 11 12
f 3 12 13
f 3 13 14
f 3 14 15
f 3 15 16
f 3 16 4
f 4 17 18
f 4 18 19
f 4 19 20
f 4 20 5
f 4 16 21
f 4 21 22
f 4 22 23
f 4 23 17
f 5 20 24
f 5 24 6
f 6 24 7
f 7 24 41
f 7 41 40
f 7 40 39
f 7 39 38
f 7 38 37
f 7 37 64
f 7 64 78
f 7 78 77
f 7 77 88
f 7 88 100
f 7 100 112
f 7 112 111
f 7 111 125
f 7 125 144
f 7 144 153
f 7 153 178
f 7 178 209
f 7 209 225
f 7 225 240
f 7 240 234
f 7 234 233
f 7 233 232
f 7 232 242
f 7 242 245
f 7 245 244
f 7 244 243
f 7 243 236
f 7 236 217
f 7 217 188
f 7 188 162
f 7 162 161
f 7 161 138
f 7 138 124
f 7 124 108
f 7 108 102
f 7 102 90
f 7 90 89
f 7 89 79
f 7 79 67
f 7 67 66
f 7 66 45
f 7 45 25
f 7 25 9
f 7 9 8
f 9 25 26
f 9 26 10
f 10 26 11
f 11 26 27
f 11 27 28
f 11 28 12
f 12 28 29
f 12 29 13
f 13 29 30
f 13 30 14
f 14 30 15
f 15 30 31
f 15 31 32
f 15 32 16
f 16 32 21
f 17 33 34
f 17 34 35
f 17 35 36
f 17 36 18
f 17 23 33
f 18 36 37
f 18 37 38
f 18 38 39
f 18 39 19
f 19 39 40
f 19 40 41
f 19 41 20
f 20 41 24
f 21 32 42
f 21 42 43
f 21 43 22
f 22 43 44
f 22 44 23
f 23 44 33
f 25 45 46
f 25 46 26
f 26 46 27
f 27 47 28
f 27 46 47
f 28 48 49
f 28 49 29
f 28 47 48
f 29 49 50
f 29 50 30
f 30 51 52
f 30 52 31
f 30 50 51
f 31 52 32
f 32 53 54
f 32 54 42
f 32 52 55
f 32 55 53
f 33 56 72
f 33 72 82
f 33 82 92
f 33 92 94
f 33 94 104
f 33 104 119
f 33 119 137
f 33 137 158
f 33 158 187
f 33 187 216
f 33 216 235
f 33 235 227
f 33 227 210
f 33 210 179
f 33 179 155
f 33 155 154
f 33 154 129
f 33 129 113
f 33 113 101
f 33 101 98
f 33 98 87
f 33 87 76
f 33 76 63
f 33 63 34
f 33 44 57
f 33 57 58
f 33 58 59
f 33 59 60
f 33 60 61
f 33 61 62
f 33 62 56
f 34 63 64
f 34 64 36
f 34 36 35
f 36 64 37
f 42 54 43
f 43 65 57
f 43 57 44
f 43 54 65
f 45 66 46
f 46 66 67
f 46 67 68
f 46 68 69
f 46 69 47
f 47 69 48
f 48 69 68
f 48 68 70
f 48 70 49
f 49 70 50
f 50 70 51
f 51 70 71
f 51 71 52
f 52 71 55
f 53 55 58
f 53 58 54
f 54 58 65
f 55 59 58
f 55 71 59
f 56 62 73
f 56 73 72
f 57 65 58
f 59 71 60
f 60 71 61
f 61 71 74
f 61 74 62
f 62 74 75
f 62 75 73
f 63 76 77
f 63 77 78
f 63 78 64
f 67 79 80
f 67 80 68
f 68 80 81
f 68 81 70
f 70 81 71
f 71 81 74
f 72 73 83
f 72 83 82
f 73 75 84
f 73 84 83
f 74 81 75
f 75 81 85
f 75 85 86
f 75 86 84
f 76 87 77
f 77 87 98
f 77 98 88
f 79 89 80
f 80 89 90
f 80 90 91
f 80 91 85
f 80 85 81
f 82 83 92
f 83 84 93
f 83 93 94
f 83 94 92
f 84 86 95
f 84 95 93
f 85 91 96
f 85 96 86
f 86 96 109
f 86 109 97
f 86 97 95
f 88 99 100
f 88 98 101
f 88 101 99
f 90 102 96
f 90 96 91
f 93 95 103
f 93 103 104
f 93 104 94
f 95 97 105
f 95 105 106
f 95 106 107
f 95 107 103
f 96 108 109
f 96 102 108
f 97 109 120
f 97 120 105
f 99 110 111
f 99 111 112
f 99 112 100
f 99 101 113
f 99 113 114
f 99 114 115
f 99 115 116
f 99 116 117
f 99 117 110
f 103 107 118
f 103 118 119
f 103 119 104
f 105 120 139
f 105 139 121
f 105 121 142
f 105 142 122
f 105 122 106
f 106 122 107
f 107 123 118
f 107 122 123
f 108 124 109
f 109 124 120
f 110 125 111
f 110 117 126
f 110 126 127
f 110 127 128
f 110 128 125
f 113 129 114
f 114 129 130
f 114 130 131
f 114 131 115
f 115 131 132
f 115 132 133
f 115 133 134
f 115 134 116
f 116 134 117
f 117 134 135
f 117 135 136
f 117 136 126
f 118 123 119
f 119 123 137
f 120 138 161
f 120 161 139
f 120 124 138
f 121 139 163
f 121 163 140
f 121 140 141
f 121 141 142
f 122 142 123
f 123 142 143
f 123 143 137
f 125 128 144
f 126 136 145
f 126 145 146
f 126 146 147
f 126 147 148
f 126 148 149
f 126 149 150
f 126 150 151
f 126 151 127
f 127 151 128
f 128 151 152
f 128 152 153
f 128 153 144
f 129 154 130
f 130 132 131
f 130 154 155
f 130 155 133
f 130 133 132
f 133 155 134
f 134 155 156
f 134 156 135
f 135 156 157
f 135 157 136
f 136 157 145
f 137 143 159
f 137 159 160
f 137 160 158
f 139 161 162
f 139 162 163
f 140 163 189
f 140 189 164
f 140 164 165
f 140 165 141
f 141 165 166
f 141 166 160
f 141 160 159
f 141 159 142
f 142 159 143
f 145 157 146
f 146 167 168
f 146 168 147
f 146 157 167
f 147 168 169
f 147 169 148
f 148 169 170
f 148 170 149
f 149 170 171
f 149 171 150
f 150 171 151
f 151 172 173
f 151 173 174
f 151 174 152
f 151 171 170
f 151 170 172
f 152 174 175
f 152 175 176
f 152 176 153
f 153 176 177
f 153 177 178
f 155 179 180
f 155 180 181
f 155 181 182
f 155 182 156
f 156 182 157
f 157 182 183
f 157 183 184
f 157 184 185
f 157 185 186
f 157 186 167
f 158 160 187
f 160 166 187
f 162 188 163
f 163 188 189
f 164 189 218
f 164 218 190
f 164 190 165
f 165 190 191
f 165 191 192
f 165 192 166
f 166 192 187
f 167 193 168
f 167 186 193
f 168 194 195
f 168 195 196
f 168 196 197
f 168 197 198
f 168 198 199
f 168 199 200
f 168 200 201
f 168 201 202
f 168 202 203
f 168 203 204
f 168 204 205
f 168 205 206
f 168 206 169
f 168 193 194
f 169 206 170
f 170 206 172
f 172 206 173
f 173 206 205
f 173 205 204
f 173 204 207
f 173 207 174
f 174 207 208
f 174 208 175
f 175 208 202
f 175 202 176
f 176 202 177
f 177 201 178
f 177 202 201
f 178 201 200
f 178 200 209
f 179 210 211
f 179 211 180
f 180 211 212
f 180 212 183
f 180 183 181
f 181 183 182
f 183 212 184
f 184 213 195
f 184 195 185
f 184 212 214
f 184 214 231
f 184 231 213
f 185 195 186
f 186 195 194
f 186 194 215
f 186 215 193
f 187 192 216
f 188 217 218
f 188 218 189
f 190 218 237
f 190 237 219
f 190 219 191
f 191 219 220
f 191 220 221
f 191 221 192
f 192 221 216
f 193 215 194
f 195 213 222
f 195 222 223
f 195 223 196
f 196 223 197
f 197 223 198
f 198 224 199
f 198 223 224
f 199 224 225
f 199 225 209
f 199 209 200
f 202 208 207
f 202 207 226
f 202 226 203
f 203 226 207
f 203 207 204
f 210 227 228
f 210 228 211
f 211 228 212
f 212 228 229
f 212 229 230
f 212 230 214
f 213 231 232
f 213 232 233
f 213 233 234
f 213 234 222
f 214 230 241
f 214 241 231
f 216 221 235
f 217 236 218
f 218 236 237
f 219 237 241
f 219 241 230
f 219 230 229
f 219 229 220
f 220 229 238
f 220 238 239
f 220 239 221
f 221 239 235
f 222 234 223
f 223 234 240
f 223 240 225
f 223 225 224
f 227 235 239
f 227 239 238
f 227 238 228
f 228 238 229
f 231 241 232
f 232 241 242
f 236 243 237
f 237 243 244
f 237 244 241
f 241 244 245
f 241 245 242

