# https://github.com/mikedh/trimesh
v 0.00560767 0.00345276 0.00763047
v 0.00544658 0.00374729 0.00743627
v 0.00555000 0.00356230 0.02385000
v -0.00798974 0.00284476 0.02672803
v -0.00790084 0.00305226 0.02704134
v -0.00780534 0.00325813 0.02699170
v -0.00851703 0.00070277 0.02712543
v -0.00851200 0.00075401 0.02723120
v -0.00823492 0.00215102 0.02723120
v -0.00802764 -0.00275000 0.02634053
v -0.00802764 -0.00275000 0.02723120
v -0.00843606 -0.00130236 0.02723120
v 0.00231648 -0.00670094 0.02557646
v 0.00371999 -0.00578821 0.02518662
v 0.00331075 -0.00610191 0.02534249
v 0.00354374 -0.00592854 0.00441298
v 0.00314570 -0.00621633 0.02539506
v 0.00253735 -0.00658548 0.02554116
v 0.00374973 -0.00576347 0.00004503
v 0.00372075 -0.00578815 -0.00046749
v 0.00366305 -0.00583590 -0.00080286
v 0.00362100 -0.00586955 -0.00097510
v 0.00343092 -0.00601447 -0.00151369
v 0.00320541 -0.00617752 -0.00194625
v 0.00316104 -0.00620823 -0.00201750
v 0.00283858 -0.00641449 -0.00245051
v 0.00243315 -0.00664179 -0.00285347
v 0.00240250 -0.00665766 -0.00287932
v -0.00008412 -0.00743664 0.02550088
v -0.00056409 -0.00748390 0.00320067
v -0.00033211 -0.00746534 0.00323299
v 0.00049048 -0.00733999 0.02553019
v 0.00065653 -0.00730327 0.02555425
v 0.00191555 -0.00688775 0.02561728
v 0.00128751 -0.00712593 0.02562212
v -0.00277728 -0.00729839 0.02655086
v -0.00278491 -0.00729663 0.00167534
v -0.00250160 -0.00735779 0.00207472
v -0.00218308 -0.00741378 0.00240762
v -0.00177466 -0.00746417 0.00272270
v -0.00173441 -0.00746798 0.02589558
v -0.00162513 -0.00747731 0.00281451
v -0.00134533 -0.00749411 0.00295848
v -0.00085898 -0.00749731 0.00313443
v -0.00063799 -0.00748765 0.02555121
v -0.00105345 -0.00749990 0.00307453
v -0.00105221 -0.00749911 0.02564088
v -0.00121142 -0.00749731 0.02568785
v -0.00248965 -0.00736013 0.00208905
v -0.00224713 -0.00740384 0.02619086
v -0.00292417 -0.00726214 -0.00141835
v -0.00339865 -0.00712277 -0.00158482
v -0.00332937 -0.00714532 -0.00172562
v -0.00278755 -0.00729601 -0.00167095
v -0.00305393 -0.00722740 -0.00111176
v -0.00311683 -0.00720987 -0.00092080
v -0.00441599 -0.00670224 0.00059687
v -0.00321832 -0.00718012 -0.00045270
v -0.00305398 -0.00722739 0.00111163
v -0.00283277 -0.00728513 0.00159309
v -0.00441599 -0.00670224 0.02766366
v -0.00324862 -0.00717054 0.00009460
v -0.00319312 -0.00718776 0.00060538
v -0.00306875 -0.00722332 0.00107017
v -0.00361515 -0.00704769 0.02711984
v -0.00108862 -0.00749964 -0.00358851
v -0.00105239 -0.00749971 -0.00359930
v -0.00105377 -0.00749990 -0.00307442
v -0.00121095 -0.00749813 -0.00354910
v -0.00135559 -0.00749369 -0.00295379
v -0.00169278 -0.00747197 -0.00334619
v -0.00162512 -0.00747731 -0.00281451
v -0.00219270 -0.00741174 -0.00304213
v -0.00177433 -0.00746420 -0.00272291
v -0.00221591 -0.00740816 -0.00302527
v -0.00220167 -0.00741095 -0.00239064
v -0.00264700 -0.00732787 -0.00265629
v -0.00300365 -0.00724101 -0.00224512
v -0.00278580 -0.00729602 -0.00251034
v -0.00267707 -0.00732136 -0.00184277
v -0.00248965 -0.00736013 -0.00208906
v -0.00236579 -0.00738343 -0.00222834
v -0.00033813 -0.00746591 -0.00323236
v -0.00014901 -0.00744562 -0.00374704
v -0.00064848 -0.00748881 -0.00369350
v -0.00056410 -0.00748390 -0.00320067
v -0.00084650 -0.00749697 -0.00313782
v 0.00231925 -0.00669983 -0.00294679
v 0.00200531 -0.00684784 -0.00316879
v 0.00149881 -0.00705351 -0.00343745
v 0.00013359 -0.00740596 -0.00374762
v 0.00040341 -0.00735745 -0.00372824
v 0.00068159 -0.00729675 -0.00368754
v 0.00099043 -0.00721658 -0.00361684
v 0.00134078 -0.00710865 -0.00350211
v -0.00517132 -0.00626616 0.00221667
v -0.00587091 -0.00574533 0.00371695
v -0.00490408 -0.00643398 0.02799510
v -0.00506543 -0.00633439 0.02809386
v -0.00544486 -0.00607688 0.02825374
v -0.00585921 -0.00575499 0.02833343
v -0.00587086 -0.00574525 0.02833438
v -0.00650530 -0.00514681 0.00507741
v -0.00628725 -0.00536814 0.02832361
v -0.00667938 -0.00495588 0.02823136
v -0.00696595 -0.00461063 0.02810677
v -0.00706592 -0.00447869 0.00627967
v -0.00707758 -0.00446177 0.02804278
v -0.00754519 -0.00375000 0.00730746
v -0.00740755 -0.00397853 0.02778824
v -0.00757376 -0.00370027 0.02760921
v -0.00794971 -0.00294004 0.02689339
v -0.00793662 -0.00297060 0.00814688
v -0.00782979 -0.00320692 0.02720786
v -0.00766078 -0.00354211 0.02749504
v -0.00800992 -0.00279527 0.02660620
v -0.00843610 -0.00129963 0.00940130
v -0.00837751 -0.00159702 0.00918709
v -0.00817523 -0.00234117 0.00865858
v -0.00853733 0.00043505 0.01003096
v -0.00854910 0.00011580 0.02672801
v -0.00854079 0.00037434 0.02681120
v -0.00853898 -0.00040577 0.02682844
v -0.00854447 -0.00028366 0.02677089
v -0.00851200 -0.00075401 0.02723120
v -0.00851733 -0.00069833 0.02711784
v -0.00853225 -0.00051632 0.02690515
v -0.00855000 -0.00000000 0.02671970
v -0.00855000 -0.00000000 0.01034906
v -0.00850249 -0.00084104 0.00973437
v -0.00853913 0.00040576 0.02682843
v -0.00853699 0.00044223 0.02685078
v -0.00850577 0.00081157 0.00975587
v -0.00852593 0.00060009 0.02698492
v -0.00839408 0.00151899 0.00924313
v -0.00823521 0.00214967 0.00879368
v -0.00802764 0.00275000 0.02723120
v -0.00802764 0.00275000 0.02634053
v -0.00754519 0.00375000 0.00730746
v -0.00789654 0.00306183 0.00806094
v -0.00754550 0.00374810 0.02764288
v -0.00817523 0.00234117 0.00865858
v -0.00818807 0.00230172 0.00868638
v -0.00774942 0.00337114 0.02735811
v -0.00802213 0.00276434 0.02648889
v -0.00706592 0.00447869 0.00627967
v -0.00752383 0.00378541 0.02766772
v -0.00722445 0.00425777 0.02794292
v -0.00697644 0.00459622 0.02810115
v -0.00685411 0.00474934 0.02816178
v -0.00650545 0.00514536 0.02828262
v -0.00643648 0.00521765 0.02829830
v -0.00587091 0.00574533 0.00371695
v -0.00650530 0.00514681 0.00507741
v -0.00621848 0.00543443 0.02833141
v -0.00602416 0.00561316 0.02834053
v -0.00562474 0.00594286 0.02829953
v -0.00524960 0.00621374 0.02818299
v -0.00516865 0.00626778 0.02814667
v -0.00517132 0.00626616 0.00221667
v -0.00490408 0.00643398 0.02799510
v -0.00441599 0.00670224 0.00059687
v -0.00361515 0.00704769 0.02711984
v -0.00361122 0.00704912 -0.00112897
v -0.00208443 0.00742832 -0.00311713
v -0.00219271 0.00741244 -0.00304168
v -0.00192482 0.00744857 0.02599357
v -0.00255217 0.00734803 -0.00274754
v -0.00294765 0.00725596 -0.00232033
v -0.00224713 0.00740384 0.02619086
v -0.00210963 0.00742470 0.02610155
v -0.00339865 0.00712277 -0.00158482
v -0.00327451 0.00716251 -0.00182842
v -0.00161207 0.00747855 0.02583923
v -0.00139211 0.00749196 0.02575006
v -0.00158565 0.00748085 -0.00339870
v -0.00105000 0.00750000 0.02564027
v 0.00377174 -0.00574531 0.02516420
v 0.00401631 -0.00553014 0.00561265
v 0.00464930 -0.00487524 0.00658237
v 0.00473077 -0.00478249 0.02462232
v 0.00463156 -0.00489997 0.02469073
v 0.00432476 -0.00523087 0.00613531
v 0.00421146 -0.00534739 0.02494711
v 0.00553784 -0.00358474 0.02385000
v 0.00496472 -0.00448031 0.00694518
v 0.00583662 -0.00297060 0.02385000
v 0.00499518 -0.00443912 0.00697724
v 0.00520219 -0.00414248 0.00718324
v 0.00545861 -0.00372633 0.00744994
v 0.00580201 -0.00304899 0.00790324
v 0.00583692 -0.00296935 0.00795781
v 0.00496848 -0.00447886 0.02444475
v 0.00520146 -0.00414570 0.02425004
v 0.00553784 -0.00358474 0.02392631
v 0.00608256 -0.00231872 0.00841123
v 0.00627241 -0.00162115 0.00890728
v 0.00633606 -0.00130236 0.02385000
v 0.00645000 -0.00000000 0.01008590
v 0.00643731 0.00043609 0.02385000
v 0.00640615 -0.00080843 0.00949521
v 0.00633614 -0.00130009 0.00913830
v 0.00643959 0.00039459 0.00979744
v 0.00643731 0.00043550 0.00976753
v 0.00613492 0.00215102 0.02385000
v 0.00636002 0.00115643 0.00924224
v 0.00631719 0.00140346 0.00906372
v 0.00617716 0.00200436 0.00863392
v 0.00613527 0.00214985 0.00853065
v 0.00592452 0.00275751 0.00810406
v 0.00520219 0.00414247 0.00718324
v 0.00499256 0.00444242 0.00697442
v 0.00440605 0.00514602 0.02483374
v 0.00555000 0.00356230 0.02391353
v 0.00544533 0.00374976 0.02402066
v 0.00527096 0.00403677 0.02418645
v 0.00482954 0.00465628 0.02454978
v 0.00402617 0.00552187 0.00563359
v 0.00307214 0.00626562 0.02541602
v 0.00432272 0.00523348 0.00613415
v 0.00318163 0.00619220 0.02538364
v 0.00331021 0.00610234 0.02534240
v 0.00464653 0.00487823 0.00657899
v 0.00440118 0.00515154 0.00625006
v 0.00431881 0.00523697 0.02488546
v 0.00374733 0.00576503 0.02517469
v 0.00376386 0.00575159 0.00506816
v 0.00354466 0.00592777 0.00441806
v 0.00340530 0.00603357 0.00377383
v 0.00316975 0.00620030 -0.00200292
v 0.00307669 0.00626262 -0.00214338
v 0.00333655 0.00608343 -0.00052760
v 0.00366186 0.00583510 -0.00080292
v 0.00360938 0.00587709 -0.00101406
v 0.00342956 0.00601528 -0.00151632
v 0.00320510 0.00617609 -0.00194581
v 0.00333688 0.00608329 0.00310637
v 0.00334473 0.00607773 0.00241597
v 0.00343080 0.00601471 0.00173665
v 0.00358865 0.00589347 0.00108817
v 0.00370845 0.00579717 0.00055958
v 0.00375012 0.00576271 0.00003101
v 0.00371677 0.00579033 -0.00049206
v 0.00240249 0.00665810 -0.00287914
v 0.00151523 0.00704767 0.02562777
v 0.00242236 0.00664776 -0.00286247
v 0.00192752 0.00688363 0.02561514
v 0.00256124 0.00657335 0.02553546
v 0.00284195 0.00641114 -0.00244659
v 0.00013348 0.00740604 -0.00374833
v -0.00017926 0.00744928 -0.00374675
v 0.00008046 0.00741431 0.02550081
v 0.00065653 0.00730327 0.02555425
v 0.00151693 0.00704705 -0.00342931
v 0.00144935 0.00707130 -0.00345840
v 0.00134063 0.00710879 -0.00350191
v 0.00089230 0.00724413 -0.00364143
v 0.00031698 0.00737437 -0.00373687
v 0.00193674 0.00687964 -0.00321048
v 0.00128907 0.00712592 0.02562163
v -0.00024743 0.00745694 -0.00374286
v -0.00080420 0.00749597 -0.00366301
v -0.00050153 0.00747972 0.02553157
v -0.00105000 0.00750000 -0.00360000
v -0.00108872 0.00749990 -0.00358848
v 0.00320577 -0.00315000 -0.00194565
v -0.00306006 -0.00315000 -0.00216761
v -0.00219265 -0.00315000 -0.00304217
v 0.00133987 -0.00315000 -0.00350246
v 0.00240242 -0.00315000 -0.00287939
v -0.00219265 0.00335000 -0.00304217
v -0.00306006 0.00335000 -0.00216761
v 0.00320577 0.00335000 -0.00194565
v 0.00240242 0.00335000 -0.00287939
v 0.00133987 0.00335000 -0.00350246
v 0.00180000 -0.00727321 -0.00000000
v 0.00175487 -0.00727321 -0.00040054
v 0.00170000 -0.00730000 -0.00000000
v 0.00165738 -0.00730000 -0.00037829
v -0.00850352 -0.00080645 0.02744085
v -0.00849991 0.00081150 0.02753120
v -0.00850226 0.00080936 0.02747232
v -0.00851180 0.00075595 0.02723613
v -0.00848358 0.00070278 0.02793695
v -0.00849173 0.00078545 0.02773516
v -0.00846908 0.00026594 0.02829789
v -0.00847168 0.00040576 0.02823398
v -0.00847454 0.00051011 0.02816233
v -0.00848219 0.00068183 0.02797125
v -0.00846718 -0.00001025 0.02834264
v -0.00846929 -0.00028027 0.02829277
v -0.00847168 -0.00040576 0.02823398
v -0.00849991 -0.00081150 0.02753120
v -0.00849297 -0.00079286 0.02770416
v -0.00848358 -0.00070278 0.02793695
v -0.00847480 -0.00051801 0.02815586
v -0.00835577 -0.00169491 0.02728585
v 0.00553784 -0.00263307 0.02966323
v 0.00553609 -0.00275000 0.02953575
v 0.00553784 -0.00275000 0.02953073
v 0.00553784 0.00012170 0.03081283
v 0.00553784 0.00055989 0.03077056
v 0.00550872 0.00056935 0.03082410
v 0.00553784 0.00275000 0.02953073
v 0.00553608 0.00275000 0.02953575
v 0.00553784 0.00249225 0.02980728
v 0.00506958 0.00275000 0.03058353
v 0.00553784 0.00216046 0.03009062
v 0.00553784 0.00098961 0.03067543
v 0.00535754 0.00169491 0.03074128
v 0.00553784 0.00140419 0.03052855
v 0.00553784 0.00179569 0.03033262
v 0.00553784 -0.00075055 0.03073474
v 0.00553784 -0.00031797 0.03080106
v 0.00550873 -0.00056934 0.03082410
v 0.00553784 -0.00231053 0.02996920
v 0.00553784 -0.00195248 0.03023303
v 0.00535754 -0.00169491 0.03074128
v 0.00553784 -0.00117175 0.03061548
v 0.00506958 -0.00275000 0.03058353
v 0.00482581 -0.00275000 0.03099449
v 0.00443774 -0.00275000 0.03154074
v 0.00469596 -0.00169491 0.03174353
v 0.00387914 -0.00169491 0.03262386
v 0.00379401 -0.00275000 0.03225344
v 0.00292913 -0.00169491 0.03335849
v 0.00275031 -0.00275000 0.03308313
v -0.00165044 -0.00169491 0.03451245
v -0.00059053 -0.00275000 0.03419369
v -0.00044953 -0.00169491 0.03451245
v 0.00065493 -0.00275000 0.03399733
v 0.00073516 -0.00169491 0.03431571
v 0.00101009 -0.00275000 0.03389779
v 0.00187161 -0.00169491 0.03392756
v 0.00174032 -0.00275000 0.03362663
v 0.00249861 -0.00275000 0.03323909
v -0.00519203 -0.00275000 0.03284644
v -0.00485029 -0.00275000 0.03308314
v -0.00502911 -0.00169491 0.03335850
v -0.00377834 -0.00275000 0.03365332
v -0.00397159 -0.00169491 0.03392757
v -0.00275491 -0.00275000 0.03399734
v -0.00283513 -0.00169491 0.03431572
v -0.00221617 -0.00275000 0.03411069
v -0.00162346 -0.00275000 0.03418523
v -0.00575760 -0.00275000 0.03238153
v -0.00597912 -0.00169491 0.03262388
v -0.00638031 -0.00275000 0.03173399
v -0.00679595 -0.00169491 0.03174355
v -0.00653772 -0.00275000 0.03154076
v -0.00745753 -0.00169491 0.03074130
v -0.00716957 -0.00275000 0.03058355
v -0.00792463 -0.00275000 0.02842572
v -0.00824812 -0.00169491 0.02848193
v -0.00783778 -0.00275000 0.02884784
v -0.00794598 -0.00169491 0.02964421
v -0.00763608 -0.00275000 0.02953577
v -0.00727852 -0.00275000 0.03037650
v -0.00841796 0.00056934 0.02851144
v -0.00841796 -0.00056935 0.02851144
v -0.00824812 0.00169491 0.02848193
v -0.00830306 0.00189653 0.02744653
v -0.00783778 0.00275000 0.02884784
v -0.00792463 0.00275000 0.02842572
v -0.00763608 0.00275000 0.02953577
v -0.00794598 0.00169491 0.02964421
v -0.00727852 0.00275000 0.03037650
v -0.00745753 0.00169491 0.03074130
v -0.00716957 0.00275000 0.03058355
v -0.00679595 0.00169491 0.03174355
v -0.00653772 0.00275000 0.03154076
v -0.00283513 0.00169491 0.03431572
v -0.00377833 0.00275000 0.03365332
v -0.00397159 0.00169491 0.03392757
v -0.00485029 0.00275000 0.03308314
v -0.00502911 0.00169491 0.03335850
v -0.00519203 0.00275000 0.03284645
v -0.00597912 0.00169491 0.03262388
v -0.00575760 0.00275000 0.03238153
v -0.00638031 0.00275000 0.03173399
v -0.00162346 0.00275000 0.03418523
v -0.00221616 0.00275000 0.03411069
v -0.00275491 0.00275000 0.03399734
v 0.00101010 0.00275000 0.03389778
v 0.00065493 0.00275000 0.03399733
v 0.00073516 0.00169491 0.03431571
v -0.00059053 0.00275000 0.03419369
v -0.00044953 0.00169491 0.03451245
v -0.00165044 0.00169491 0.03451245
v 0.00174032 0.00275000 0.03362663
v 0.00187161 0.00169491 0.03392756
v 0.00249861 0.00275000 0.03323909
v 0.00292913 0.00169491 0.03335849
v 0.00275031 0.00275000 0.03308313
v 0.00387914 0.00169491 0.03262386
v 0.00379402 0.00275000 0.03225344
v 0.00469596 0.00169491 0.03174353
v 0.00443774 0.00275000 0.03154074
v 0.00482581 0.00275000 0.03099448
v 0.00483154 -0.00056934 0.03185000
v 0.00399544 -0.00056934 0.03275110
v 0.00302302 -0.00056934 0.03350306
v 0.00194055 -0.00056934 0.03408556
v 0.00077728 -0.00056935 0.03448287
v -0.00043536 -0.00056935 0.03468425
v -0.00166461 -0.00056935 0.03468425
v -0.00287725 -0.00056935 0.03448288
v -0.00404052 -0.00056935 0.03408558
v -0.00512299 -0.00056935 0.03350307
v -0.00609542 -0.00056935 0.03275112
v -0.00693152 -0.00056935 0.03185002
v -0.00760871 -0.00056935 0.03082412
v -0.00810869 -0.00056935 0.02970115
v 0.00483154 0.00056935 0.03185000
v 0.00399544 0.00056935 0.03275110
v 0.00302302 0.00056935 0.03350306
v 0.00194055 0.00056935 0.03408556
v 0.00077728 0.00056935 0.03448287
v -0.00043536 0.00056934 0.03468425
v -0.00166461 0.00056934 0.03468425
v -0.00287725 0.00056934 0.03448288
v -0.00404052 0.00056934 0.03408558
v -0.00512299 0.00056934 0.03350307
v -0.00609542 0.00056934 0.03275112
v -0.00693152 0.00056934 0.03185002
v -0.00760871 0.00056934 0.03082412
v -0.00810869 0.00056934 0.02970115
v 0.00554704 0.00275000 0.02949360
v 0.00554304 0.00248448 0.02979925
v 0.00554304 0.00215373 0.03008171
v 0.00554304 0.00179010 0.03032296
v 0.00554304 0.00139981 0.03051828
v 0.00554304 0.00098653 0.03066470
v 0.00554304 0.00055814 0.03075954
v 0.00554304 0.00012132 0.03080167
v 0.00554304 -0.00031698 0.03078993
v 0.00554304 -0.00074821 0.03072383
v 0.00554304 -0.00116810 0.03060493
v 0.00554304 -0.00194640 0.03022368
v 0.00554304 -0.00230333 0.02996067
v 0.00554304 -0.00262486 0.02965565
v 0.00554704 -0.00275000 0.02949361
v 0.00555000 0.00275000 0.02945549
v 0.00555000 0.00245902 0.02977293
v 0.00555000 0.00213165 0.03005249
v 0.00555000 0.00177175 0.03029127
v 0.00555000 0.00138547 0.03048459
v 0.00555000 0.00097641 0.03062951
v 0.00555000 0.00055242 0.03072337
v 0.00555000 0.00012008 0.03076507
v 0.00555000 -0.00031373 0.03075346
v 0.00555000 -0.00074054 0.03068803
v 0.00555000 -0.00115613 0.03057035
v 0.00555000 -0.00192644 0.03019301
v 0.00555000 -0.00227972 0.02993269
v 0.00555000 -0.00259796 0.02963080
v 0.00555000 -0.00275000 0.02945549
f 204 203 201
f 201 203 199
f 258 257 93
f 260 256 257
f 204 201 206
f 428 205 443
f 214 443 205
f 163 385 170
f 170 385 384
f 73 165 71
f 71 165 176
f 250 258 91
f 164 162 163
f 160 159 161
f 161 162 160
f 163 162 161
f 109 114 113
f 364 144 137
f 141 144 364
f 362 361 364
f 137 9 364
f 364 9 362
f 65 329 345
f 340 99 342
f 350 102 348
f 207 22 234
f 234 23 235
f 22 23 234
f 187 192 196
f 231 249 219
f 395 396 394
f 256 260 255
f 257 258 253
f 253 260 257
f 253 170 384
f 384 390 253
f 390 260 253
f 219 249 248
f 248 249 246
f 248 398 399
f 248 307 219
f 399 307 248
f 225 226 428
f 205 209 210
f 1 214 210
f 210 214 205
f 202 206 201
f 207 206 202
f 202 22 207
f 197 22 202
f 120 133 130
f 130 129 120
f 143 119 136
f 119 118 136
f 136 9 143
f 362 9 136
f 115 114 109
f 119 113 10
f 168 170 166
f 267 53 173
f 173 272 267
f 73 71 74
f 74 71 40
f 40 39 74
f 250 91 84
f 92 258 93
f 92 91 258
f 69 71 176
f 155 154 152
f 160 154 153
f 153 157 160
f 156 157 153
f 154 155 153
f 153 155 156
f 163 173 172
f 172 164 163
f 173 53 172
f 162 164 172
f 160 162 172
f 101 102 97
f 52 53 65
f 52 172 53
f 96 52 57
f 57 52 65
f 137 4 145
f 137 144 5
f 5 144 6
f 5 4 137
f 154 113 140
f 6 144 140
f 140 5 6
f 4 5 140
f 140 145 4
f 109 113 107
f 107 110 109
f 107 108 110
f 103 113 154
f 103 107 113
f 96 97 103
f 105 107 103
f 150 149 365
f 366 361 427
f 363 366 365
f 363 364 361
f 361 366 363
f 82 49 81
f 48 69 46
f 43 69 48
f 46 68 44
f 325 327 34
f 335 334 333
f 128 129 124
f 123 129 130
f 130 127 123
f 123 124 129
f 127 280 123
f 128 292 291
f 65 345 61
f 61 57 65
f 328 345 329
f 99 340 100
f 100 96 99
f 101 97 100
f 100 97 96
f 352 350 351
f 257 256 94
f 93 257 94
f 207 234 208
f 208 205 207
f 208 209 205
f 223 217 212
f 216 217 428
f 216 212 217
f 211 212 216
f 216 2 211
f 191 192 187
f 379 157 156
f 387 385 163
f 163 161 381
f 161 382 381
f 381 387 163
f 322 321 323
f 323 321 318
f 323 325 322
f 403 334 326
f 418 417 386
f 384 385 386
f 392 260 390
f 392 394 260
f 90 255 254
f 95 255 90
f 254 259 90
f 90 259 89
f 256 255 275
f 275 255 95
f 275 94 256
f 252 258 250
f 252 253 258
f 170 253 252
f 244 248 246
f 246 274 244
f 245 394 396
f 260 394 245
f 254 255 245
f 245 255 260
f 396 398 247
f 398 248 247
f 247 245 396
f 247 244 259
f 248 244 247
f 247 259 254
f 254 245 247
f 305 222 307
f 226 222 305
f 219 307 221
f 307 222 221
f 428 217 213
f 213 225 428
f 213 217 223
f 225 213 220
f 226 225 218
f 218 220 242
f 225 220 218
f 243 2 1
f 211 2 243
f 243 212 211
f 223 212 243
f 233 210 209
f 209 208 233
f 233 208 234
f 241 243 233
f 1 210 233
f 233 243 1
f 233 234 226
f 226 241 233
f 133 120 134
f 135 136 118
f 362 136 135
f 133 283 135
f 109 110 111
f 111 115 109
f 112 113 114
f 62 63 65
f 65 53 62
f 271 166 165
f 75 271 73
f 168 166 75
f 166 271 75
f 168 79 169
f 169 272 173
f 169 170 168
f 169 173 163
f 163 170 169
f 77 82 81
f 77 75 82
f 77 79 168
f 168 75 77
f 175 170 177
f 175 174 170
f 176 174 175
f 170 174 167
f 176 165 167
f 167 174 176
f 85 262 261
f 261 84 85
f 85 84 83
f 67 262 85
f 265 69 176
f 265 175 177
f 176 175 265
f 158 159 160
f 160 157 158
f 137 145 138
f 145 140 138
f 142 113 119
f 142 140 113
f 142 119 143
f 142 138 140
f 137 138 142
f 143 9 142
f 142 9 137
f 146 150 154
f 149 150 146
f 106 107 105
f 108 107 106
f 104 97 102
f 104 103 97
f 105 103 104
f 102 350 104
f 104 352 105
f 350 352 104
f 152 154 151
f 154 150 151
f 141 364 147
f 365 149 148
f 148 363 365
f 149 146 148
f 364 363 148
f 148 147 364
f 70 69 43
f 71 69 70
f 70 72 71
f 81 49 38
f 38 77 81
f 43 48 41
f 40 71 41
f 41 39 40
f 47 44 45
f 47 48 46
f 46 44 47
f 278 83 84
f 336 327 326
f 326 334 336
f 334 335 336
f 189 190 194
f 318 321 320
f 130 12 125
f 12 280 125
f 125 280 127
f 360 291 292
f 413 360 356
f 356 360 354
f 115 111 353
f 353 111 110
f 427 361 359
f 344 61 345
f 345 328 344
f 236 232 235
f 237 232 236
f 236 222 237
f 236 221 222
f 3 214 1
f 1 2 3
f 215 216 428
f 428 443 215
f 443 214 215
f 2 216 215
f 214 3 215
f 215 3 2
f 20 191 190
f 20 190 189
f 20 186 180
f 180 183 20
f 412 425 426
f 426 427 412
f 412 427 413
f 413 356 412
f 412 356 351
f 425 412 411
f 152 151 369
f 369 155 152
f 370 425 424
f 159 158 373
f 200 446 447
f 445 446 200
f 200 444 445
f 200 205 428
f 428 444 200
f 200 201 199
f 199 203 200
f 200 203 204
f 204 206 200
f 207 205 200
f 200 206 207
f 401 323 400
f 332 331 333
f 333 334 332
f 332 403 404
f 334 403 332
f 405 332 404
f 417 403 402
f 402 416 417
f 402 403 326
f 326 401 402
f 310 307 399
f 311 310 309
f 391 392 390
f 391 386 417
f 391 390 384
f 384 386 391
f 95 94 269
f 269 275 95
f 94 275 269
f 177 170 263
f 170 252 263
f 263 262 177
f 263 261 262
f 428 226 304
f 226 305 304
f 238 232 237
f 238 229 232
f 237 222 238
f 222 229 238
f 228 222 226
f 242 220 224
f 223 243 224
f 224 243 242
f 224 213 223
f 224 220 213
f 227 218 242
f 226 218 227
f 242 243 227
f 227 241 226
f 227 243 241
f 133 134 7
f 7 134 283
f 117 135 118
f 117 12 130
f 117 118 12
f 130 133 117
f 133 135 117
f 116 10 113
f 113 112 116
f 58 62 53
f 63 62 58
f 268 165 73
f 73 271 268
f 268 271 165
f 82 75 76
f 76 75 73
f 73 74 76
f 76 74 39
f 78 169 79
f 53 267 78
f 78 267 272
f 272 169 78
f 79 51 78
f 78 51 59
f 60 51 54
f 54 51 79
f 171 167 165
f 170 167 171
f 165 166 171
f 171 166 170
f 250 84 251
f 84 261 251
f 251 252 250
f 251 263 252
f 261 263 251
f 30 45 85
f 87 44 68
f 68 67 87
f 87 67 85
f 85 45 87
f 45 44 87
f 262 67 264
f 67 265 264
f 177 262 264
f 264 265 177
f 69 265 66
f 66 265 67
f 66 67 68
f 66 68 46
f 46 69 66
f 154 140 139
f 139 146 154
f 141 147 139
f 139 148 146
f 147 148 139
f 139 144 141
f 139 140 144
f 43 41 42
f 42 70 43
f 72 70 42
f 71 72 42
f 42 41 71
f 39 41 50
f 49 82 50
f 50 38 49
f 50 76 39
f 82 76 50
f 50 47 45
f 50 41 48
f 48 47 50
f 26 231 25
f 249 231 26
f 33 335 333
f 276 33 278
f 276 26 25
f 22 16 276
f 25 24 276
f 276 24 23
f 276 23 22
f 279 84 91
f 279 278 84
f 91 92 279
f 279 92 93
f 279 276 278
f 442 194 195
f 195 194 190
f 195 191 187
f 180 186 181
f 14 276 16
f 14 16 22
f 18 320 321
f 18 321 322
f 126 127 130
f 130 125 126
f 126 125 127
f 354 360 295
f 128 124 295
f 358 352 351
f 351 356 358
f 105 352 358
f 114 115 11
f 115 353 11
f 11 112 114
f 11 116 112
f 10 116 11
f 119 10 11
f 427 359 290
f 413 427 290
f 290 360 413
f 291 360 290
f 128 291 290
f 342 344 343
f 343 344 328
f 328 407 343
f 343 340 342
f 343 407 408
f 61 344 98
f 57 61 98
f 342 99 98
f 98 344 342
f 99 96 98
f 96 57 98
f 338 100 340
f 338 337 100
f 101 100 346
f 100 337 346
f 346 102 101
f 348 102 346
f 337 338 339
f 273 236 235
f 273 24 25
f 221 236 230
f 230 231 219
f 219 221 230
f 25 231 230
f 230 273 25
f 236 273 230
f 188 20 189
f 186 20 188
f 189 194 188
f 179 183 184
f 423 376 424
f 365 366 367
f 367 150 365
f 367 151 150
f 367 369 151
f 378 370 424
f 424 376 378
f 155 369 371
f 156 155 371
f 426 425 368
f 425 370 368
f 368 371 369
f 370 371 368
f 368 427 426
f 368 366 427
f 368 367 366
f 369 367 368
f 383 382 161
f 383 161 159
f 159 373 383
f 375 376 374
f 374 373 375
f 375 158 157
f 375 373 158
f 389 381 382
f 387 381 389
f 306 305 307
f 306 304 305
f 447 446 432
f 311 309 432
f 198 200 454
f 198 456 442
f 197 202 198
f 198 202 201
f 201 200 198
f 187 196 198
f 198 196 197
f 313 323 318
f 400 323 313
f 324 401 326
f 326 327 324
f 327 325 324
f 325 323 324
f 323 401 324
f 332 405 330
f 329 331 330
f 331 332 330
f 330 328 329
f 330 405 328
f 397 396 395
f 397 398 396
f 395 415 397
f 399 398 397
f 397 310 399
f 397 309 310
f 312 310 311
f 311 432 312
f 450 200 449
f 394 392 393
f 392 391 393
f 395 394 393
f 417 416 393
f 393 391 417
f 416 415 393
f 393 415 395
f 239 229 222
f 222 228 239
f 239 228 235
f 235 232 239
f 232 229 239
f 226 234 240
f 240 228 226
f 240 234 235
f 235 228 240
f 8 283 133
f 133 7 8
f 8 7 283
f 132 134 120
f 283 134 132
f 121 120 129
f 121 122 120
f 121 129 128
f 59 64 55
f 55 78 59
f 79 77 80
f 80 54 79
f 37 54 80
f 85 83 86
f 86 30 85
f 83 30 86
f 83 278 31
f 31 30 83
f 31 278 45
f 45 30 31
f 45 278 29
f 29 50 45
f 35 336 335
f 335 33 35
f 34 327 35
f 327 336 35
f 35 276 34
f 33 276 35
f 27 274 246
f 246 249 27
f 249 26 27
f 276 279 277
f 277 90 89
f 26 276 277
f 277 27 26
f 95 90 277
f 277 94 95
f 93 94 277
f 277 279 93
f 457 195 187
f 442 195 457
f 187 198 457
f 457 198 442
f 190 191 185
f 185 195 190
f 191 195 185
f 182 442 184
f 182 181 442
f 184 183 182
f 182 183 180
f 180 181 182
f 193 194 442
f 442 181 193
f 193 188 194
f 193 181 186
f 186 188 193
f 178 179 184
f 178 14 20
f 21 14 22
f 20 14 21
f 21 196 192
f 192 191 21
f 191 20 21
f 21 22 197
f 197 196 21
f 13 18 322
f 322 325 13
f 13 325 34
f 34 276 13
f 276 18 13
f 320 18 17
f 17 18 276
f 317 316 439
f 320 316 317
f 318 320 317
f 440 454 439
f 439 316 440
f 293 280 12
f 293 123 280
f 124 123 293
f 354 295 294
f 294 293 12
f 294 295 124
f 124 293 294
f 296 360 292
f 296 295 360
f 296 292 128
f 128 295 296
f 357 358 356
f 108 106 357
f 357 106 105
f 105 358 357
f 297 353 354
f 297 11 353
f 297 294 12
f 354 294 297
f 119 11 297
f 297 118 119
f 12 118 297
f 289 359 361
f 361 284 289
f 284 121 289
f 285 284 361
f 285 361 362
f 362 281 285
f 281 122 285
f 122 121 285
f 285 121 284
f 340 343 341
f 341 343 408
f 408 339 341
f 341 338 340
f 341 339 338
f 348 346 347
f 347 346 337
f 337 339 347
f 235 23 266
f 266 273 235
f 23 24 266
f 24 273 266
f 410 347 339
f 424 425 410
f 425 411 410
f 374 376 422
f 376 423 422
f 408 407 422
f 422 407 421
f 380 379 156
f 156 371 380
f 380 378 379
f 370 378 380
f 380 371 370
f 379 378 377
f 157 379 377
f 377 375 157
f 377 378 376
f 376 375 377
f 382 383 372
f 372 389 382
f 421 389 372
f 374 422 372
f 372 422 421
f 372 373 374
f 372 383 373
f 420 389 421
f 428 304 429
f 304 306 429
f 429 444 428
f 445 444 429
f 315 314 400
f 400 313 315
f 315 313 314
f 451 200 450
f 450 436 451
f 314 313 437
f 437 436 314
f 414 397 415
f 303 309 414
f 309 397 414
f 431 432 446
f 431 312 432
f 431 446 445
f 308 429 306
f 312 431 308
f 308 306 307
f 307 310 308
f 310 312 308
f 450 449 434
f 448 200 447
f 448 449 200
f 448 434 449
f 120 122 131
f 131 132 120
f 56 64 63
f 56 55 64
f 63 58 56
f 78 55 56
f 56 58 53
f 53 78 56
f 38 50 36
f 77 38 36
f 36 80 77
f 37 80 36
f 36 54 37
f 60 54 36
f 36 64 59
f 59 51 36
f 36 51 60
f 36 329 65
f 36 331 329
f 333 331 36
f 65 63 36
f 63 64 36
f 36 33 333
f 278 33 32
f 32 29 278
f 50 29 32
f 32 36 50
f 33 36 32
f 88 277 89
f 88 274 270
f 88 244 274
f 89 259 88
f 259 244 88
f 19 178 20
f 179 178 19
f 19 20 183
f 183 179 19
f 298 316 320
f 320 299 298
f 298 440 316
f 14 178 300
f 300 299 14
f 184 442 300
f 300 178 184
f 300 298 299
f 15 299 320
f 320 17 15
f 14 299 15
f 276 14 15
f 15 17 276
f 319 313 318
f 318 317 319
f 319 317 439
f 455 198 454
f 454 440 455
f 456 198 455
f 455 440 456
f 355 356 354
f 355 357 356
f 354 353 355
f 108 357 355
f 110 108 355
f 355 353 110
f 351 350 349
f 349 350 348
f 348 347 349
f 349 410 411
f 347 410 349
f 349 412 351
f 349 411 412
f 409 410 339
f 409 339 408
f 408 422 409
f 409 422 423
f 389 420 419
f 418 386 419
f 406 407 328
f 328 405 406
f 452 451 436
f 436 437 452
f 200 451 452
f 445 429 430
f 429 308 430
f 430 431 445
f 430 308 431
f 303 414 301
f 301 414 400
f 400 314 301
f 447 432 433
f 433 448 447
f 433 432 309
f 309 434 433
f 434 448 433
f 132 131 282
f 283 132 282
f 282 122 281
f 282 131 122
f 282 281 362
f 362 135 282
f 282 135 283
f 27 277 28
f 277 88 28
f 28 88 270
f 270 274 28
f 274 27 28
f 456 440 441
f 440 298 441
f 442 456 441
f 441 300 442
f 298 300 441
f 439 454 438
f 438 319 439
f 438 452 437
f 438 437 313
f 313 319 438
f 359 289 288
f 288 287 359
f 288 289 121
f 121 287 288
f 286 121 128
f 286 287 121
f 128 290 286
f 286 290 359
f 359 287 286
f 388 419 386
f 385 387 388
f 388 386 385
f 387 389 388
f 389 419 388
f 303 301 302
f 302 301 434
f 302 309 303
f 302 434 309
f 450 434 435
f 434 301 435
f 435 436 450
f 314 436 435
f 435 301 314
f 454 200 453
f 453 438 454
f 200 452 453
f 452 438 453
f 160 172 52
f 52 96 160
f 160 96 103
f 103 154 160
f 418 404 403
f 403 417 418
f 415 402 401
f 416 402 415
f 414 415 401
f 414 401 400
f 424 410 409
f 409 423 424
f 419 404 418
f 419 405 404
f 406 420 421
f 421 407 406
f 405 419 406
f 406 419 420

