# https://github.com/mikedh/trimesh
v 0.00724898 -0.00196826 -0.01400000
v 0.00706160 -0.00253053 -0.01400000
v -0.00681125 0.00312725 -0.01400000
v 0.00746495 0.00090874 -0.01400000
v 0.00751370 -0.00026051 -0.01400000
v -0.00126123 0.00742625 -0.01400000
v 0.00317750 -0.00678527 -0.01400000
v -0.00743207 -0.00093134 -0.01400000
v -0.00749852 0.00012239 -0.01400000
v -0.00626541 0.00409853 -0.01400000
v 0.00745297 -0.00101363 -0.01400000
v 0.00666633 -0.00341323 -0.01400000
v 0.00615861 -0.00425374 -0.01400000
v 0.00550953 -0.00505992 -0.01400000
v -0.00364194 -0.00650330 -0.01400000
v -0.00439368 -0.00601343 -0.01400000
v -0.00742908 0.00113251 -0.01400000
v -0.00717603 0.00221654 -0.01400000
v -0.00559320 0.00498118 -0.01400000
v -0.00489433 0.00568002 -0.01400000
v -0.00400762 0.00636206 -0.01400000
v 0.00476720 -0.00576240 -0.01400000
v 0.00380412 -0.00644806 -0.01400000
v -0.00520643 -0.00532687 -0.01400000
v -0.00596882 -0.00447180 -0.01400000
v -0.00645577 -0.00376886 -0.01400000
v -0.00306505 0.00688786 -0.01400000
v -0.00220447 0.00721234 -0.01400000
v -0.00174684 -0.00727787 -0.01400000
v 0.00156811 -0.00731723 -0.01400000
v -0.00083574 -0.00743100 -0.01400000
v 0.00038703 -0.00746039 -0.01400000
v 0.00245208 -0.00708216 -0.01400000
v -0.00264283 -0.00699254 -0.01400000
v -0.00694347 -0.00282289 -0.01400000
v -0.00724040 -0.00195512 -0.01400000
v -0.00003907 0.00753479 -0.01400000
v 0.00097599 0.00748430 -0.01400000
v 0.00203090 0.00727226 -0.01400000
v 0.00298881 0.00691872 -0.01400000
v 0.00399414 0.00637673 -0.01400000
v 0.00495378 0.00565836 -0.01400000
v 0.00575698 0.00483340 -0.01400000
v 0.00642867 0.00390641 -0.01400000
v 0.00728314 0.00192006 -0.01400000
v 0.00694866 0.00290636 -0.01400000
v 0.00043983 -0.00745756 -0.00900000
v 0.00038703 -0.00746039 -0.00900000
v -0.00232464 -0.00711090 -0.00900000
v -0.00264283 -0.00699254 -0.00900000
v -0.00135620 -0.00735856 -0.00900000
v -0.00174684 -0.00727787 -0.00900000
v 0.00000025 -0.00747133 -0.00900000
v -0.00044464 -0.00746107 -0.00900000
v -0.00083574 -0.00743100 -0.00900000
v 0.00156811 -0.00731723 -0.00900000
v 0.00132423 -0.00736134 -0.00900000
v 0.00087910 -0.00742165 -0.00900000
v 0.00177972 -0.00727213 -0.00900000
v 0.00245208 -0.00708216 -0.00900000
v 0.00317750 -0.00678527 -0.00900000
v 0.00380412 -0.00644806 -0.00900000
v 0.00445323 -0.00600880 -0.00900000
v 0.00706160 -0.00253053 -0.00900000
v 0.00724898 -0.00196826 -0.00900000
v 0.00738230 -0.00142666 -0.00900000
v 0.00745297 -0.00101363 -0.00900000
v 0.00751370 -0.00026051 -0.00900000
v 0.00749634 0.00056076 -0.00900000
v 0.00751609 0.00007367 -0.00900000
v 0.00737006 0.00153179 -0.00900000
v 0.00746495 0.00090874 -0.00900000
v 0.00710259 0.00251245 -0.00900000
v 0.00728314 0.00192006 -0.00900000
v 0.00666334 0.00350041 -0.00900000
v 0.00694866 0.00290636 -0.00900000
v 0.00273283 0.00702862 -0.00900000
v 0.00298881 0.00691872 -0.00900000
v 0.00170870 0.00735612 -0.00900000
v 0.00203089 0.00727226 -0.00900000
v 0.00026439 0.00753388 -0.00900000
v 0.00097599 0.00748430 -0.00900000
v -0.00062407 0.00750493 -0.00900000
v -0.00018525 0.00753117 -0.00900000
v -0.00003907 0.00753479 -0.00900000
v -0.00106028 0.00745629 -0.00900000
v -0.00126123 0.00742625 -0.00900000
v -0.00149775 0.00738450 -0.00900000
v -0.00220447 0.00721234 -0.00900000
v -0.00238642 0.00715489 -0.00900000
v -0.00306505 0.00688786 -0.00900000
v -0.00331157 0.00676875 -0.00900000
v -0.00400762 0.00636206 -0.00900000
v -0.00717602 0.00221654 -0.00900000
v -0.00731530 0.00172504 -0.00900000
v -0.00742908 0.00113251 -0.00900000
v -0.00747159 0.00076213 -0.00900000
v -0.00749852 0.00012239 -0.00900000
v -0.00743207 -0.00093134 -0.00900000
v -0.00743560 -0.00090198 -0.00900000
v -0.00747437 -0.00050317 -0.00900000
v -0.00749530 -0.00010092 -0.00900000
v -0.00716675 -0.00221057 -0.00900000
v -0.00724040 -0.00195512 -0.00900000
v -0.00737717 -0.00131949 -0.00900000
v -0.00678739 -0.00316665 -0.00900000
v -0.00694348 -0.00282289 -0.00900000
v 0.00196636 0.00432555 -0.00028844
v 0.00188253 0.00481918 -0.00059025
v 0.00074651 0.00494432 -0.00020615
v 0.00232535 0.00644040 -0.00281848
v 0.00220330 0.00666803 -0.00321125
v 0.00132167 0.00685194 -0.00293241
v 0.00412043 0.00306731 -0.00095928
v 0.00420348 0.00254648 -0.00079729
v 0.00502580 0.00247167 -0.00149887
v 0.00496679 0.00482677 -0.00337653
v 0.00464655 0.00543801 -0.00391020
v 0.00401846 0.00569806 -0.00336170
v 0.00453424 -0.00555474 -0.00401250
v 0.00509665 -0.00520337 -0.00449942
v 0.00536302 -0.00467133 -0.00391454
v -0.00529558 -0.00528728 -0.00566174
v -0.00545343 -0.00462475 -0.00222307
v -0.00571078 -0.00446164 -0.00264931
v -0.00551453 -0.00480764 -0.00292784
v -0.00461237 -0.00530372 -0.00177561
v -0.00480472 -0.00492857 -0.00140544
v -0.00515201 -0.00478216 -0.00180538
v -0.00559944 -0.00231520 -0.00019177
v -0.00571246 -0.00168877 -0.00008866
v -0.00607166 -0.00166529 -0.00061743
v -0.00342792 -0.00618327 -0.00203817
v -0.00361117 -0.00590119 -0.00157060
v -0.00403397 -0.00577472 -0.00185678
v -0.00160796 -0.00570489 -0.00035991
v -0.00170763 -0.00526103 0.00008796
v -0.00233004 -0.00529447 -0.00001181
v -0.00238604 0.00128518 0.00170953
v -0.00166285 0.00132329 0.00170539
v -0.00170322 0.00201223 0.00156186
v -0.00246148 0.00331182 0.00113738
v -0.00176641 0.00333362 0.00114517
v -0.00178695 0.00395162 0.00086321
v -0.00114242 0.00504737 0.00011938
v -0.00049288 0.00502805 0.00005210
v -0.00052407 0.00549923 -0.00034868
v -0.00115667 0.00592743 -0.00075196
v -0.00055113 0.00591692 -0.00078331
v -0.00057396 0.00627808 -0.00124379
v -0.00223547 0.00647439 -0.00184240
v -0.00169640 0.00653862 -0.00176263
v -0.00165546 0.00676258 -0.00226657
v -0.00301209 0.00663153 -0.00308633
v -0.00256534 0.00675837 -0.00295148
v -0.00238321 0.00699492 -0.00387476
v -0.00196130 0.00709932 -0.00377869
v -0.00388187 0.00644007 -0.00613510
v -0.00435786 0.00612708 -0.00644688
v -0.00495926 0.00566094 -0.00522046
v 0.00689917 -0.00293679 -0.00755219
v 0.00668278 -0.00339435 -0.00788565
v 0.00749165 0.00055991 -0.00658312
v 0.00750980 -0.00007309 -0.00660893
v -0.00463293 0.00591165 -0.00816217
v -0.00712355 -0.00228335 -0.00689249
v -0.00728290 -0.00171685 -0.00676161
v -0.00740045 -0.00111962 -0.00668400
v -0.00747011 -0.00050375 -0.00665839
v -0.00748868 0.00011580 -0.00668360
v -0.00694170 0.00283989 -0.00757974
v -0.00674954 0.00326967 -0.00788700
v -0.00654438 0.00365893 -0.00821989
v -0.00387641 0.00644340 -0.00753747
v -0.00343173 0.00669358 -0.00728211
v -0.00294251 0.00692470 -0.00706909
v -0.00241084 0.00712905 -0.00689932
v -0.00184142 0.00729793 -0.00677416
v -0.00124443 0.00742445 -0.00669563
v -0.00063037 0.00750328 -0.00666568
v -0.00001077 0.00753020 -0.00668669
v 0.00060167 0.00750686 -0.00676099
v 0.00119495 0.00743681 -0.00689036
v 0.00358926 0.00662065 -0.00827726
v 0.00228223 0.00717898 -0.00731196
v 0.00175753 0.00732477 -0.00707541
v 0.00481357 0.00579121 -0.00808983
v 0.00451845 0.00602578 -0.00762191
v 0.00512499 0.00551763 -0.00761384
v 0.00584744 0.00473711 -0.00825105
v 0.00613332 0.00436177 -0.00788294
v 0.00667706 0.00346788 -0.00725840
v 0.00641219 0.00393904 -0.00754978
v 0.00628209 0.00414384 -0.00694777
v 0.00747530 -0.00069922 -0.00668846
v 0.00739090 -0.00130782 -0.00682423
v 0.00726162 -0.00188837 -0.00701612
v 0.00709490 -0.00243323 -0.00726047
v 0.00645280 -0.00380602 -0.00825400
v 0.00584773 -0.00468051 -0.00761744
v 0.00557822 -0.00499503 -0.00809355
v 0.00531917 -0.00526888 -0.00762588
v 0.00412626 -0.00623988 -0.00792315
v 0.00372191 -0.00648795 -0.00759947
v 0.00326912 -0.00672546 -0.00731672
v 0.00277054 -0.00694379 -0.00708029
v 0.00222976 -0.00713410 -0.00689531
v 0.00165269 -0.00728722 -0.00676595
v 0.00105009 -0.00739686 -0.00669161
v 0.00043331 -0.00745781 -0.00667053
v -0.00018534 -0.00746666 -0.00670038
v -0.00336068 -0.00666570 -0.00783681
v -0.00292828 -0.00686857 -0.00754153
v -0.00193607 -0.00721253 -0.00707347
v -0.00138111 -0.00733944 -0.00690385
v -0.00079386 -0.00742594 -0.00677881
v -0.00063536 0.00747738 -0.00529608
v -0.00136754 0.00738242 -0.00535258
v -0.00144259 0.00731397 -0.00457354
v -0.00221715 0.00713578 -0.00471659
v -0.00476955 0.00580990 -0.00680005
v -0.00512577 0.00549543 -0.00718901
v -0.00536261 0.00527972 -0.00568135
v -0.00417761 0.00613694 -0.00361684
v -0.00343201 0.00648321 -0.00324372
v -0.00317225 0.00672860 -0.00412367
v -0.00569025 0.00493051 -0.00509538
v -0.00273520 0.00700101 -0.00564314
v -0.00334021 0.00673580 -0.00586652
v -0.00358559 0.00659285 -0.00518739
v -0.00446305 0.00604193 -0.00480284
v -0.00529917 0.00533796 -0.00455551
v -0.00602559 0.00449728 -0.00451411
v -0.00548497 0.00479229 -0.00250388
v -0.00501199 0.00530217 -0.00257857
v -0.00531978 0.00509171 -0.00288604
v -0.00450370 0.00575630 -0.00274074
v -0.00514763 0.00534753 -0.00327806
v -0.00412513 0.00594353 -0.00250374
v -0.00466420 0.00550337 -0.00229204
v -0.00517250 0.00500091 -0.00216552
v -0.00564035 0.00444810 -0.00213939
v -0.00152604 0.00718188 -0.00370426
v -0.00370703 0.00611422 -0.00229208
v -0.00427467 0.00569099 -0.00203090
v -0.00481686 0.00520004 -0.00185008
v -0.00532275 0.00465125 -0.00176968
v -0.00578304 0.00405799 -0.00180039
v -0.00207275 0.00722057 -0.00546977
v -0.00293778 0.00688989 -0.00492458
v -0.00386750 0.00640355 -0.00443565
v -0.00479851 0.00574777 -0.00405774
v -0.00564945 0.00491843 -0.00387863
v -0.00582215 0.00466027 -0.00354581
v -0.00635006 0.00395199 -0.00396771
v -0.00598856 0.00436536 -0.00322547
v -0.00614577 0.00403288 -0.00292336
v -0.00663926 0.00328228 -0.00349238
v -0.00629089 0.00366199 -0.00264523
v -0.00112461 0.00452557 0.00049514
v -0.00045771 0.00450642 0.00041105
v -0.00109896 0.00395253 0.00081881
v -0.00041868 0.00393753 0.00072031
v -0.00106654 0.00333929 0.00108964
v -0.00037654 0.00333169 0.00097959
v -0.00102890 0.00269712 0.00131276
v -0.00033205 0.00269907 0.00119392
v -0.00173800 0.00268438 0.00137694
v -0.00244448 0.00265870 0.00137637
v -0.00313349 0.00261791 0.00130100
v -0.00094171 0.00135466 0.00163424
v -0.00708350 0.00218951 -0.00400675
v -0.00687038 0.00248353 -0.00312106
v -0.00676350 0.00289931 -0.00329167
v -0.00653332 0.00280177 -0.00218399
v -0.00642104 0.00325188 -0.00239687
v -0.00618928 0.00343596 -0.00194217
v -0.00653898 0.00076641 -0.00116311
v -0.00625059 0.00083917 -0.00061636
v -0.00622581 0.00145163 -0.00070517
v -0.00587540 0.00154925 -0.00018984
v -0.00583091 0.00216422 -0.00033746
v -0.00542124 0.00227984 0.00012612
v -0.00536524 0.00288599 -0.00008717
v -0.00490121 0.00301103 0.00031044
v -0.00484060 0.00359640 0.00002965
v -0.00432770 0.00372148 0.00035325
v -0.00426559 0.00427034 0.00000410
v -0.00370970 0.00437998 0.00024269
v -0.00364619 0.00487751 -0.00016796
v -0.00306064 0.00496343 -0.00000511
v -0.00300170 0.00540878 -0.00045909
v -0.00240374 0.00547266 -0.00035273
v -0.00235653 0.00586711 -0.00083234
v -0.00176203 0.00591133 -0.00076828
v -0.00173257 0.00625554 -0.00125926
v -0.00115421 0.00628104 -0.00122915
v -0.00114611 0.00657392 -0.00172177
v -0.00059242 0.00657966 -0.00172216
v -0.00113332 0.00680685 -0.00221891
v -0.00060659 0.00682138 -0.00220852
v -0.00111775 0.00699111 -0.00270896
v -0.00229977 0.00620117 -0.00133274
v -0.00284653 0.00611751 -0.00144822
v -0.00292947 0.00579331 -0.00094422
v -0.00347017 0.00568844 -0.00110400
v -0.00356536 0.00531328 -0.00062104
v -0.00408271 0.00518372 -0.00084043
v -0.00418294 0.00475732 -0.00039778
v -0.00466237 0.00460656 -0.00068942
v -0.00476145 0.00413114 -0.00030499
v -0.00519900 0.00397322 -0.00066515
v -0.00529150 0.00345401 -0.00035057
v -0.00568330 0.00329885 -0.00077469
v -0.00576658 0.00274994 -0.00053228
v -0.00610834 0.00260682 -0.00101061
v -0.00617776 0.00204328 -0.00083581
v -0.00646523 0.00192020 -0.00135309
v -0.00651430 0.00135326 -0.00123901
v -0.00674476 0.00125646 -0.00177411
v -0.00676799 0.00069601 -0.00170906
v -0.00115292 0.00551543 -0.00029938
v -0.00178348 0.00550740 -0.00030012
v -0.00179564 0.00504517 0.00013479
v -0.00243942 0.00501825 0.00009455
v -0.00246156 0.00450429 0.00049799
v -0.00310371 0.00445678 0.00040543
v -0.00312840 0.00388860 0.00076039
v -0.00375303 0.00381974 0.00059852
v -0.00377861 0.00320841 0.00089666
v -0.00437134 0.00312110 0.00064616
v -0.00439961 0.00248234 0.00088549
v -0.00494528 0.00238695 0.00053907
v -0.00497325 0.00173296 0.00071620
v -0.00545918 0.00164380 0.00028970
v -0.00547765 0.00098608 0.00040514
v -0.00589831 0.00091286 -0.00008741
v -0.00589605 0.00026305 -0.00002747
v -0.00624937 0.00021363 -0.00056556
v -0.00621948 -0.00041733 -0.00054952
v -0.00725228 -0.00048951 -0.00366632
v -0.00708644 0.00056554 -0.00274591
v -0.00727952 0.00044884 -0.00369817
v -0.00706680 0.00107387 -0.00279694
v -0.00660425 -0.00159597 -0.00170982
v -0.00650861 -0.00043768 -0.00110776
v -0.00673751 -0.00045374 -0.00166275
v -0.00722302 0.00135339 -0.00380586
v -0.00702350 0.00156616 -0.00287492
v -0.00695755 0.00203750 -0.00298253
v -0.00669679 0.00179817 -0.00187346
v -0.00662574 0.00231509 -0.00200977
v -0.00639368 0.00246056 -0.00150787
v -0.00630130 0.00296823 -0.00170404
v -0.00601893 0.00313542 -0.00123006
v -0.00591018 0.00362078 -0.00149469
v -0.00558100 0.00380149 -0.00106536
v -0.00545987 0.00425189 -0.00139999
v -0.00508716 0.00443641 -0.00102659
v -0.00495882 0.00484487 -0.00142491
v -0.00454624 0.00502401 -0.00111263
v -0.00441603 0.00538498 -0.00156349
v -0.00396795 0.00555101 -0.00131176
v -0.00384170 0.00586069 -0.00179967
v -0.00336360 0.00600415 -0.00160432
v -0.00324861 0.00626157 -0.00210945
v -0.00275548 0.00638183 -0.00195879
v -0.00266000 0.00659060 -0.00246296
v -0.00599691 0.00454096 -0.00565781
v -0.00630612 0.00409854 -0.00515929
v -0.00660504 0.00356450 -0.00470129
v -0.00687126 0.00292927 -0.00430957
v -0.00712913 0.00232604 -0.00579179
v -0.00692244 0.00289563 -0.00607604
v -0.00668974 0.00340142 -0.00641380
v -0.00644495 0.00384741 -0.00679204
v -0.00729487 0.00169124 -0.00557194
v -0.00737990 0.00130738 -0.00689127
v -0.00209713 0.00686183 -0.00284186
v -0.00740575 0.00099621 -0.00542207
v -0.00745717 0.00072380 -0.00676081
v -0.00074402 -0.00142565 0.00163234
v -0.00004394 -0.00135079 0.00150552
v -0.00079428 -0.00073479 0.00173085
v -0.00009174 -0.00067227 0.00160499
v -0.00084417 -0.00003571 0.00176786
v -0.00014032 0.00001442 0.00164300
v -0.00018938 0.00070118 0.00160610
v -0.00234535 0.00057660 0.00180162
v -0.00306132 0.00052812 0.00172360
v -0.00301575 -0.00019024 0.00175369
v -0.00370717 -0.00023938 0.00158391
v -0.00295907 -0.00090775 0.00172267
v -0.00364784 -0.00095429 0.00155489
v -0.00289238 -0.00161700 0.00163354
v -0.00357382 -0.00166074 0.00146970
v -0.00281696 -0.00231163 0.00149070
v -0.00348776 -0.00235184 0.00132985
v -0.00273449 -0.00298592 0.00129764
v -0.00339255 -0.00302125 0.00113737
v -0.00264556 -0.00363248 0.00105331
v -0.00328924 -0.00366113 0.00089248
v -0.00254946 -0.00424197 0.00075538
v -0.00317729 -0.00426202 0.00059350
v -0.00244448 -0.00480000 0.00039950
v -0.00305496 -0.00480952 0.00023675
v -0.00241911 0.00198090 0.00156607
v -0.00309581 0.00123983 0.00163533
v -0.00374984 0.00047679 0.00155576
v -0.00435614 -0.00028545 0.00131386
v -0.00429426 -0.00099217 0.00128633
v -0.00421257 -0.00168998 0.00120485
v -0.00411530 -0.00237174 0.00106984
v -0.00400662 -0.00303057 0.00088220
v -0.00388812 -0.00365836 0.00064206
v -0.00375983 -0.00424583 0.00034832
v -0.00311958 0.00193840 0.00149329
v -0.00377674 0.00118675 0.00147143
v -0.00439521 0.00042294 0.00128717
v -0.00493842 -0.00032674 0.00094371
v -0.00487487 -0.00101965 0.00091781
v -0.00478712 -0.00170317 0.00084110
v -0.00468051 -0.00237006 0.00071386
v -0.00456010 -0.00301309 0.00053594
v -0.00442801 -0.00362409 0.00030651
v -0.00428504 -0.00419431 0.00002491
v -0.00413084 -0.00471154 -0.00031056
v -0.00362051 -0.00477942 -0.00000172
v -0.00378952 0.00188334 0.00133241
v -0.00441336 0.00112544 0.00120652
v -0.00497397 0.00036821 0.00091860
v -0.00543962 -0.00036224 0.00049633
v -0.00537603 -0.00103698 0.00047310
v -0.00528569 -0.00170208 0.00040371
v -0.00517407 -0.00235025 0.00028755
v -0.00504630 -0.00297410 0.00012321
v -0.00180235 -0.00475632 0.00049216
v -0.00189012 -0.00419106 0.00084127
v -0.00197119 -0.00357732 0.00113329
v -0.00204683 -0.00292884 0.00137307
v -0.00211768 -0.00225459 0.00156350
v -0.00218345 -0.00156145 0.00170769
v -0.00224351 -0.00085440 0.00180063
v -0.00229762 -0.00013917 0.00183385
v -0.00161758 0.00062184 0.00180075
v 0.00037713 -0.00697335 -0.00269842
v 0.00036065 -0.00678272 -0.00221599
v -0.00020801 -0.00661473 -0.00172944
v 0.00034054 -0.00654227 -0.00172963
v -0.00025741 -0.00632690 -0.00123665
v 0.00031621 -0.00624206 -0.00125105
v -0.00030983 -0.00597812 -0.00075915
v 0.00028777 -0.00588220 -0.00079023
v -0.00036438 -0.00557062 -0.00030612
v 0.00025553 -0.00546573 -0.00035514
v -0.00042019 -0.00510663 0.00011323
v 0.00021979 -0.00499568 0.00004622
v -0.00047638 -0.00458838 0.00048972
v 0.00018086 -0.00447508 0.00040588
v -0.00053208 -0.00401823 0.00081425
v 0.00013905 -0.00390706 0.00071594
v -0.00058676 -0.00340709 0.00108584
v 0.00009509 -0.00330183 0.00097595
v -0.00064036 -0.00276644 0.00130967
v 0.00004964 -0.00266964 0.00119095
v 0.00000318 -0.00201759 0.00136450
v -0.00012103 -0.00702218 -0.00271643
v -0.00004960 -0.00726289 -0.00366054
v -0.00049799 -0.00726764 -0.00371127
v -0.00039683 -0.00738595 -0.00457989
v -0.00182715 -0.00665167 -0.00196664
v -0.00129967 -0.00666990 -0.00185027
v -0.00195466 -0.00640381 -0.00145606
v -0.00140194 -0.00640947 -0.00134055
v -0.00208264 -0.00609554 -0.00095188
v -0.00150539 -0.00608775 -0.00083992
v -0.00220859 -0.00572604 -0.00046636
v -0.00233198 -0.00660224 -0.00211721
v -0.00248222 -0.00636457 -0.00161210
v -0.00263240 -0.00606803 -0.00111161
v -0.00277977 -0.00571106 -0.00062828
v -0.00292155 -0.00529207 -0.00017465
v -0.00346964 -0.00524884 -0.00040432
v -0.00396534 -0.00516723 -0.00069568
v -0.00330997 -0.00565582 -0.00084751
v -0.00379122 -0.00556314 -0.00111939
v -0.00314433 -0.00600226 -0.00131918
v -0.00297552 -0.00629007 -0.00180725
v -0.00280634 -0.00652114 -0.00229964
v -0.00140470 -0.00218424 0.00155934
v -0.00134399 -0.00285426 0.00137373
v -0.00128022 -0.00350056 0.00114121
v -0.00121306 -0.00411469 0.00085846
v -0.00114188 -0.00468395 0.00052036
v -0.00106684 -0.00519675 0.00012839
v -0.00098938 -0.00565171 -0.00030710
v -0.00091100 -0.00604762 -0.00077570
v -0.00083316 -0.00638327 -0.00126695
v -0.00075735 -0.00665743 -0.00177042
v -0.00061796 -0.00704153 -0.00276763
v -0.00110808 -0.00703250 -0.00284933
v -0.00094020 -0.00724743 -0.00378562
v -0.00137230 -0.00720375 -0.00388157
v -0.00118822 -0.00731916 -0.00472273
v -0.00219051 -0.00705177 -0.00413015
v -0.00422482 -0.00544403 -0.00143128
v -0.00440977 -0.00505869 -0.00103247
v -0.00458616 -0.00461687 -0.00067038
v -0.00475137 -0.00411685 -0.00035502
v -0.00490492 -0.00356566 -0.00009084
v -0.00179721 0.00452604 0.00052600
v -0.00246824 0.00393144 0.00084618
v -0.00313710 0.00327103 0.00105747
v -0.00379015 0.00255984 0.00114072
v -0.00441377 0.00181437 0.00107232
v -0.00498415 0.00105742 0.00084267
v -0.00547260 0.00031474 0.00047381
v -0.00586490 -0.00039230 -0.00000811
v -0.00580256 -0.00104538 -0.00002808
v -0.00615935 -0.00104608 -0.00056607
v -0.00636751 -0.00163367 -0.00116401
v -0.00625970 -0.00221082 -0.00124046
v -0.00596015 -0.00226777 -0.00070685
v -0.00546814 -0.00291726 -0.00034010
v -0.00532136 -0.00348744 -0.00053565
v -0.00533988 -0.00436810 -0.00149910
v -0.00498850 -0.00450067 -0.00107021
v -0.00551639 -0.00390378 -0.00123379
v -0.00516108 -0.00401839 -0.00077880
v -0.00567990 -0.00339378 -0.00101365
v -0.00582859 -0.00284625 -0.00083817
v -0.00696139 -0.00230904 -0.00380703
v -0.00670447 -0.00311630 -0.00400869
v -0.00660134 -0.00294899 -0.00298443
v -0.00705652 -0.00047600 -0.00270947
v -0.00693812 -0.00151106 -0.00274651
v -0.00714589 -0.00142208 -0.00369869
v -0.00684643 -0.00201125 -0.00279792
v -0.00673360 -0.00249212 -0.00287635
v -0.00589780 -0.00407470 -0.00240044
v -0.00564231 -0.00422439 -0.00194615
v -0.00607285 -0.00364565 -0.00218698
v -0.00581957 -0.00377791 -0.00170739
v -0.00623343 -0.00317750 -0.00201216
v -0.00598307 -0.00328901 -0.00151058
v -0.00637717 -0.00267629 -0.00187527
v -0.00613061 -0.00276470 -0.00135517
v -0.00650162 -0.00214721 -0.00177536
v -0.00495545 -0.00514742 -0.00214483
v -0.00441409 -0.00562783 -0.00217178
v -0.00383990 -0.00605260 -0.00229892
v -0.00324416 -0.00641129 -0.00251101
v -0.00248211 -0.00684636 -0.00325079
v -0.00204571 -0.00693380 -0.00309359
v -0.00158585 -0.00699622 -0.00295888
v -0.00531178 -0.00511393 -0.00323028
v -0.00326878 -0.00660914 -0.00362337
v -0.00364525 -0.00627951 -0.00274765
v -0.00401038 -0.00612977 -0.00300641
v -0.00421254 -0.00590261 -0.00258503
v -0.00475287 -0.00546545 -0.00250965
v -0.00489781 -0.00561231 -0.00388382
v -0.00449184 -0.00597721 -0.00456070
v -0.00463589 -0.00579222 -0.00357766
v -0.00393828 -0.00631188 -0.00406363
v -0.00434034 -0.00596602 -0.00328413
v -0.00493672 -0.00562937 -0.00509989
v -0.00532986 -0.00524867 -0.00451851
v -0.00572825 -0.00475573 -0.00397169
v -0.00292435 -0.00682849 -0.00444171
v -0.00356483 -0.00655497 -0.00480841
v -0.00410987 -0.00624825 -0.00522548
v -0.00456315 -0.00592817 -0.00568583
v -0.00638934 -0.00381771 -0.00431228
v -0.00628686 -0.00377367 -0.00329454
v -0.00645170 -0.00337773 -0.00312344
v -0.00031298 -0.00744274 -0.00535826
v -0.00103348 -0.00738236 -0.00547526
v -0.00193588 -0.00717781 -0.00493043
v -0.00171989 -0.00725887 -0.00564839
v -0.00566417 -0.00489366 -0.00516301
v -0.00603571 -0.00440806 -0.00470459
v -0.00610951 -0.00413468 -0.00349569
v -0.00583767 -0.00466426 -0.00679507
v -0.00614309 -0.00425782 -0.00641658
v -0.00644508 -0.00379054 -0.00607845
v -0.00673045 -0.00325645 -0.00579374
v -0.00698464 -0.00265204 -0.00557336
v -0.00719313 -0.00198015 -0.00542297
v -0.00734448 -0.00125620 -0.00533774
v -0.00743202 -0.00050159 -0.00531056
v -0.00745264 0.00025787 -0.00533731
v -0.00429866 -0.00610774 -0.00719283
v -0.00390151 -0.00636846 -0.00680416
v -0.00344914 -0.00662398 -0.00645128
v -0.00293380 -0.00686624 -0.00613980
v -0.00235599 -0.00708212 -0.00587150
v 0.00522822 0.00092831 -0.00124912
v 0.00527177 0.00040044 -0.00123219
v 0.00596984 0.00045033 -0.00201339
v 0.00530315 -0.00012827 -0.00124965
v 0.00601020 -0.00053658 -0.00207369
v 0.00532201 -0.00065433 -0.00130090
v 0.00532794 -0.00117421 -0.00138502
v 0.00599148 -0.00150194 -0.00224963
v 0.00532050 -0.00168438 -0.00150089
v 0.00529936 -0.00218129 -0.00164691
v 0.00591447 -0.00242041 -0.00253316
v 0.00578025 -0.00326672 -0.00291460
v 0.00498714 -0.00434734 -0.00277206
v 0.00559388 -0.00402181 -0.00338040
v 0.00477821 -0.00501773 -0.00336651
v 0.00526430 -0.00266145 -0.00182153
v 0.00521500 -0.00312096 -0.00202335
v 0.00515174 -0.00355648 -0.00225065
v 0.00433966 -0.00428224 -0.00191087
v 0.00426583 -0.00467854 -0.00221166
v 0.00418120 -0.00504045 -0.00253223
v 0.00408673 -0.00536561 -0.00286970
v 0.00387403 -0.00590112 -0.00358032
v 0.00086989 -0.00689623 -0.00271427
v 0.00135177 -0.00679598 -0.00276094
v 0.00137881 -0.00658417 -0.00230277
v 0.00227257 -0.00654007 -0.00293901
v 0.00233422 -0.00631067 -0.00251218
v 0.00311889 -0.00623351 -0.00321734
v 0.00320758 -0.00599152 -0.00282448
v 0.00132196 -0.00696425 -0.00321612
v 0.00220758 -0.00672786 -0.00336685
v 0.00302601 -0.00643710 -0.00361407
v 0.00480858 -0.00562256 -0.00511577
v 0.00426931 -0.00596576 -0.00468634
v 0.00364198 -0.00629691 -0.00431379
v 0.00667072 -0.00341278 -0.00633959
v 0.00640305 -0.00389502 -0.00673125
v 0.00612537 -0.00431571 -0.00716031
v 0.00451328 -0.00594041 -0.00574649
v 0.00399743 -0.00626566 -0.00536766
v 0.00340402 -0.00657301 -0.00504584
v 0.00273753 -0.00685135 -0.00479214
v 0.00293047 -0.00660569 -0.00401114
v 0.00200507 -0.00708701 -0.00461697
v 0.00214050 -0.00687859 -0.00379177
v 0.00122444 -0.00726448 -0.00452308
v 0.00129022 -0.00709464 -0.00366425
v 0.00084915 -0.00717445 -0.00363708
v 0.00041575 -0.00736875 -0.00451095
v 0.00042474 -0.00743319 -0.00530186
v 0.00116091 -0.00735051 -0.00531043
v 0.00187592 -0.00720281 -0.00538719
v 0.00255228 -0.00699986 -0.00553496
v 0.00317403 -0.00675255 -0.00575429
v 0.00373377 -0.00647346 -0.00603739
v 0.00422709 -0.00617373 -0.00637531
v 0.00040104 -0.00723175 -0.00363546
v 0.00691897 0.00295175 -0.00701444
v 0.00657568 0.00365510 -0.00663354
v 0.00611913 0.00437772 -0.00633674
v 0.00712880 0.00239504 -0.00682297
v 0.00684493 0.00311336 -0.00637138
v 0.00643656 0.00386930 -0.00599302
v 0.00589399 0.00463393 -0.00571943
v 0.00729812 0.00180427 -0.00668763
v 0.00707733 0.00252313 -0.00616768
v 0.00672445 0.00329665 -0.00570535
v 0.00622413 0.00410123 -0.00533852
v 0.00558051 0.00490085 -0.00510220
v 0.00742047 0.00118918 -0.00660853
v 0.00726290 0.00189239 -0.00602690
v 0.00697144 0.00266675 -0.00548129
v 0.00652233 0.00349341 -0.00501679
v 0.00591489 0.00434176 -0.00467644
v 0.00516653 0.00517074 -0.00449496
v 0.00484220 0.00576751 -0.00711168
v 0.00417330 0.00626991 -0.00717437
v 0.00450563 0.00603401 -0.00662661
v 0.00377279 0.00652130 -0.00675437
v 0.00410358 0.00630883 -0.00616667
v 0.00330926 0.00676760 -0.00637050
v 0.00362580 0.00657660 -0.00574162
v 0.00277830 0.00699472 -0.00603230
v 0.00306892 0.00682574 -0.00536243
v 0.00218443 0.00719201 -0.00574895
v 0.00243771 0.00704621 -0.00504027
v 0.00153358 0.00734905 -0.00552940
v 0.00173816 0.00722765 -0.00478625
v 0.00083486 0.00745444 -0.00538148
v 0.00097925 0.00735753 -0.00461080
v -0.00161281 0.00694004 -0.00276012
v -0.00108113 0.00724059 -0.00365350
v -0.00063512 0.00741190 -0.00450451
v 0.00018080 0.00742296 -0.00451672
v 0.00010564 0.00749962 -0.00530464
v 0.00071145 0.00722570 -0.00370942
v 0.00739588 0.00123344 -0.00594788
v 0.00716862 0.00198994 -0.00532584
v 0.00677863 0.00281960 -0.00476307
v 0.00621746 0.00369678 -0.00431262
v 0.00549769 0.00458512 -0.00401781
v 0.00579806 0.00390188 -0.00360553
v 0.00647855 0.00297630 -0.00402141
v 0.00698462 0.00209197 -0.00458337
v 0.00731048 0.00128049 -0.00523730
v 0.00747260 0.00055837 -0.00592378
v 0.00749171 -0.00012074 -0.00594826
v 0.00745285 -0.00079177 -0.00602774
v 0.00735796 -0.00144221 -0.00616901
v 0.00721102 -0.00205908 -0.00637318
v 0.00702084 -0.00263311 -0.00663577
v 0.00380982 0.00449043 -0.00162865
v 0.00392329 0.00404360 -0.00137649
v 0.00471864 0.00387982 -0.00202004
v 0.00483228 0.00343154 -0.00181863
v 0.00551012 0.00328534 -0.00253059
v 0.00402705 0.00356788 -0.00115280
v 0.00493474 0.00296085 -0.00164444
v 0.00571592 0.00238649 -0.00224786
v 0.00626979 0.00229326 -0.00302569
v 0.00642717 0.00140512 -0.00287547
v 0.00684505 0.00136903 -0.00368442
v 0.00693819 0.00051970 -0.00364262
v 0.00722214 0.00054013 -0.00444295
v 0.00696564 -0.00033422 -0.00368507
v 0.00724580 -0.00025094 -0.00447804
v 0.00692830 -0.00117286 -0.00381225
v 0.00720557 -0.00102952 -0.00458447
v 0.00682927 -0.00197665 -0.00402335
v 0.00710414 -0.00177867 -0.00476474
v 0.00667230 -0.00272633 -0.00431516
v 0.00694532 -0.00248155 -0.00501902
v 0.00646366 -0.00340705 -0.00467950
v 0.00673576 -0.00312495 -0.00534124
v 0.00621143 -0.00400716 -0.00510570
v 0.00648401 -0.00369842 -0.00572258
v 0.00592442 -0.00451589 -0.00558194
v 0.00620041 -0.00419297 -0.00615315
v 0.00561730 -0.00493616 -0.00609451
v 0.00590120 -0.00461259 -0.00662112
v 0.00530742 -0.00527908 -0.00663080
v 0.00560300 -0.00496779 -0.00711557
v 0.00501196 -0.00555922 -0.00717861
v 0.00448372 -0.00598847 -0.00828149
v 0.00517265 0.00145184 -0.00129986
v 0.00510515 0.00196748 -0.00138348
v 0.00427625 0.00200944 -0.00066855
v 0.00465103 -0.00586455 -0.00675889
v 0.00494828 -0.00560787 -0.00617119
v 0.00525682 -0.00527680 -0.00558916
v 0.00555913 -0.00485523 -0.00502685
v 0.00583985 -0.00433305 -0.00449885
v 0.00608514 -0.00370724 -0.00402126
v 0.00628620 -0.00298904 -0.00360842
v 0.00643523 -0.00219132 -0.00327348
v 0.00652649 -0.00133082 -0.00302722
v 0.00655711 -0.00042957 -0.00287625
v 0.00652431 0.00049002 -0.00282507
v 0.00587061 0.00143316 -0.00207277
v 0.00271246 0.00680572 -0.00430811
v 0.00196405 0.00701089 -0.00400504
v 0.00208252 0.00685701 -0.00360795
v 0.00114294 0.00716951 -0.00378526
v 0.00123072 0.00702925 -0.00336027
v 0.00299821 0.00644573 -0.00357473
v 0.00578597 0.00481775 -0.00672807
v 0.00554338 0.00508402 -0.00614968
v 0.00522453 0.00536460 -0.00557812
v 0.00481487 0.00564878 -0.00502264
v 0.00430768 0.00592795 -0.00449478
v 0.00370104 0.00619620 -0.00400739
v 0.00328449 0.00594453 -0.00286439
v 0.00141518 0.00663289 -0.00250564
v 0.00151063 0.00636731 -0.00208422
v 0.00244758 0.00617049 -0.00243337
v 0.00256818 0.00585574 -0.00206216
v 0.00342396 0.00563541 -0.00252716
v 0.00355886 0.00528854 -0.00220687
v 0.00431996 0.00506295 -0.00276774
v 0.00170129 0.00568498 -0.00128883
v 0.00179374 0.00527340 -0.00092520
v 0.00279860 0.00510007 -0.00137807
v 0.00160649 0.00605070 -0.00167666
v 0.00268563 0.00549805 -0.00170923
v 0.00368791 0.00490615 -0.00190640
v 0.00459455 0.00430242 -0.00224697
v 0.00525785 0.00410485 -0.00291132
v 0.00605811 0.00313266 -0.00327123
v 0.00668989 0.00219421 -0.00381095
v 0.00713413 0.00132670 -0.00447750
v 0.00739290 0.00055250 -0.00520956
v 0.00741382 -0.00017981 -0.00523774
v 0.00737329 -0.00090206 -0.00532677
v 0.00727341 -0.00159972 -0.00548276
v 0.00711760 -0.00225786 -0.00570734
v 0.00691328 -0.00286506 -0.00599547
v 0.00085433 0.00692270 -0.00282965
v 0.00338060 0.00656653 -0.00468109
v 0.00396320 0.00630299 -0.00511095
v 0.00445596 0.00602409 -0.00558473
v 0.00486103 0.00573783 -0.00609045
v 0.00518779 0.00545763 -0.00661740
v 0.00545154 0.00519538 -0.00715689
v 0.00037335 0.00697521 -0.00275389
v 0.00027006 0.00726333 -0.00365742
v -0.00011821 0.00700640 -0.00270704
v -0.00017819 0.00728004 -0.00363013
v 0.00049024 0.00651248 -0.00183910
v -0.00004463 0.00655747 -0.00176309
v 0.00068210 0.00541199 -0.00057231
v 0.00061725 0.00583161 -0.00097051
v 0.00055297 0.00619963 -0.00139476
v -0.00061728 0.00701314 -0.00269103
v -0.00063025 0.00727345 -0.00362844
v 0.00300583 0.00419377 -0.00079497
v 0.00290578 0.00466442 -0.00107215
v 0.00374427 0.00257925 -0.00046986
v 0.00433903 0.00146022 -0.00057494
v 0.00387351 0.00146027 -0.00023579
v 0.00342738 0.00086695 0.00014908
v 0.00357763 0.00363124 -0.00084248
v 0.00325379 0.00260850 -0.00016102
v 0.00337662 0.00145743 0.00008497
v 0.00284872 0.00145175 0.00038502
v 0.00233909 0.00082161 0.00073977
v 0.00080947 0.00443215 0.00012200
v 0.00087000 0.00387915 0.00040626
v 0.00147166 0.00384040 0.00020427
v 0.00092756 0.00329397 0.00064675
v 0.00309745 0.00369078 -0.00054997
v 0.00258609 0.00374580 -0.00027646
v 0.00273193 0.00263372 0.00012670
v 0.00217902 0.00265482 0.00039158
v 0.00229026 0.00144323 0.00066237
v 0.00170179 0.00143181 0.00091517
v 0.00113192 0.00076659 0.00123372
v 0.00159561 0.00267184 0.00063220
v 0.00098226 0.00268486 0.00084711
v 0.00108388 0.00141747 0.00114153
v 0.00043709 0.00140015 0.00133959
v 0.00204393 0.00379581 -0.00002418
v 0.00033952 0.00269393 0.00103486
v -0.00023806 0.00137979 0.00150742
v -0.00089370 0.00066349 0.00173193
v -0.00156852 -0.00008728 0.00183502
v -0.00151673 -0.00079613 0.00179971
v -0.00146226 -0.00149677 0.00170351
v 0.00140214 -0.00632290 -0.00184607
v 0.00239121 -0.00603502 -0.00209063
v 0.00142007 -0.00600520 -0.00140147
v 0.00244143 -0.00570880 -0.00168280
v 0.00143174 -0.00563261 -0.00097686
v 0.00248368 -0.00533407 -0.00129463
v 0.00143667 -0.00520879 -0.00057822
v 0.00251711 -0.00491422 -0.00093060
v 0.00143438 -0.00473742 -0.00021152
v 0.00254090 -0.00445262 -0.00059517
v 0.00142438 -0.00422214 0.00011727
v 0.00255421 -0.00395267 -0.00029281
v 0.00140619 -0.00366672 0.00040223
v 0.00255624 -0.00341778 -0.00002795
v 0.00138048 -0.00307968 0.00064335
v 0.00254734 -0.00285462 0.00019888
v 0.00134855 -0.00246928 0.00084431
v 0.00252884 -0.00226981 0.00038894
v 0.00131137 -0.00184145 0.00100743
v 0.00250186 -0.00166850 0.00054238
v 0.00126997 -0.00120066 0.00113975
v 0.00246777 -0.00105505 0.00066084
v 0.00122549 -0.00054966 0.00123269
v 0.00242823 -0.00043289 0.00073893
v 0.00117909 0.00010845 0.00126810
v 0.00238490 0.00019442 0.00076734
v 0.00329050 -0.00570770 -0.00243921
v 0.00336550 -0.00537973 -0.00206775
v 0.00343131 -0.00500964 -0.00171451
v 0.00348701 -0.00460026 -0.00138299
v 0.00353165 -0.00415438 -0.00107666
v 0.00356430 -0.00367480 -0.00079901
v 0.00358404 -0.00316436 -0.00055349
v 0.00359094 -0.00262811 -0.00034142
v 0.00358606 -0.00207147 -0.00016348
v 0.00357034 -0.00149899 -0.00002113
v 0.00354509 -0.00091496 0.00008366
v 0.00351192 -0.00032332 0.00014841
v 0.00347232 0.00027199 0.00017075
v -0.00505165 -0.00529251 -0.00286446
v 0.00439236 0.00090272 -0.00051796
v 0.00443667 0.00034080 -0.00049889
v 0.00447216 -0.00022170 -0.00051856
v 0.00449809 -0.00078107 -0.00057611
v 0.00451347 -0.00133351 -0.00067028
v 0.00451723 -0.00187525 -0.00079954
v 0.00450849 -0.00240233 -0.00096203
v 0.00448667 -0.00291076 -0.00115602
v 0.00445104 -0.00339598 -0.00138017
v 0.00440172 -0.00385393 -0.00163274
v 0.00100954 0.00644800 -0.00194715
f 18 17 95
f 625 847 846
f 794 793 732
f 58 32 30
f 59 207 208
f 33 59 30
f 208 207 650
f 8 101 9
f 36 8 35
f 35 8 9
f 9 17 35
f 35 17 18
f 34 29 49
f 16 15 572
f 212 15 34
f 595 15 212
f 212 596 595
f 594 595 572
f 572 15 594
f 594 15 595
f 24 581 25
f 24 16 567
f 42 44 41
f 44 42 43
f 199 13 12
f 200 201 14
f 14 13 200
f 630 633 620
f 120 619 620
f 623 625 846
f 846 449 623
f 129 526 124
f 413 423 414
f 414 400 413
f 535 536 347
f 347 342 535
f 321 342 347
f 321 344 342
f 341 535 343
f 343 535 342
f 343 344 348
f 342 344 343
f 347 536 345
f 523 531 130
f 131 523 130
f 132 523 131
f 466 864 383
f 793 794 709
f 419 420 410
f 431 420 419
f 887 884 888
f 32 58 47
f 210 47 58
f 57 58 30
f 207 59 60
f 59 33 60
f 624 629 630
f 625 623 624
f 651 650 207
f 652 640 651
f 642 650 651
f 651 640 642
f 3 35 18
f 10 35 3
f 20 35 19
f 19 35 10
f 21 35 20
f 97 17 9
f 9 98 97
f 101 169 102
f 9 101 102
f 102 98 9
f 173 375 371
f 10 3 173
f 173 3 375
f 50 596 34
f 34 49 50
f 51 29 31
f 31 32 54
f 54 32 53
f 470 502 504
f 504 578 470
f 451 449 846
f 486 134 487
f 487 134 488
f 482 138 406
f 482 428 483
f 406 428 482
f 138 482 477
f 34 596 213
f 213 212 34
f 596 212 213
f 123 581 24
f 24 567 123
f 573 567 16
f 797 678 680
f 680 677 679
f 678 677 680
f 798 678 797
f 686 683 685
f 185 77 80
f 80 683 185
f 838 388 834
f 44 38 39
f 80 77 39
f 37 38 44
f 188 42 41
f 801 43 42
f 801 764 43
f 757 598 600
f 738 200 636
f 636 200 13
f 198 1 65
f 201 200 740
f 740 200 738
f 121 120 631
f 751 731 729
f 750 731 751
f 62 7 23
f 23 22 63
f 202 22 14
f 14 201 202
f 201 740 202
f 202 740 739
f 847 625 627
f 627 620 619
f 654 638 653
f 653 62 654
f 204 62 653
f 633 638 632
f 631 120 632
f 120 620 632
f 632 620 633
f 642 640 643
f 643 645 642
f 639 638 633
f 639 640 652
f 652 653 639
f 639 653 638
f 621 623 447
f 447 623 449
f 222 160 20
f 362 363 364
f 361 363 362
f 248 358 242
f 399 400 401
f 401 439 399
f 402 400 414
f 401 400 402
f 402 403 401
f 527 508 529
f 507 508 527
f 486 484 507
f 507 484 508
f 423 435 424
f 414 423 424
f 398 413 400
f 398 399 397
f 400 399 398
f 412 413 398
f 543 545 542
f 542 540 543
f 346 321 347
f 346 340 339
f 347 345 346
f 344 321 320
f 380 381 592
f 592 348 380
f 592 343 348
f 338 279 339
f 522 523 132
f 132 131 519
f 865 864 862
f 864 466 862
f 858 861 860
f 860 862 465
f 465 862 466
f 405 138 137
f 406 138 405
f 605 755 602
f 895 875 616
f 11 5 68
f 68 67 11
f 68 5 70
f 66 1 11
f 11 67 66
f 66 65 1
f 197 65 66
f 2 1 198
f 315 314 316
f 282 317 281
f 315 316 282
f 282 316 317
f 392 410 394
f 412 421 422
f 422 413 412
f 423 413 422
f 422 435 423
f 411 410 420
f 420 421 411
f 411 421 412
f 411 394 410
f 391 394 393
f 392 394 391
f 393 444 391
f 391 444 390
f 419 410 409
f 409 410 392
f 392 391 409
f 409 391 390
f 517 338 432
f 432 420 517
f 420 431 517
f 315 282 284
f 332 333 334
f 334 515 332
f 331 333 332
f 516 515 334
f 265 266 267
f 265 264 266
f 840 265 267
f 827 265 840
f 882 888 883
f 883 888 884
f 883 869 882
f 887 888 599
f 600 598 599
f 267 266 271
f 843 844 386
f 834 388 387
f 357 314 312
f 312 359 357
f 357 359 358
f 470 578 577
f 32 47 48
f 47 210 48
f 53 32 48
f 48 210 53
f 56 59 208
f 30 59 56
f 56 57 30
f 204 653 61
f 61 62 204
f 7 62 61
f 628 643 629
f 645 643 628
f 647 468 470
f 104 36 103
f 36 35 103
f 223 227 232
f 223 19 227
f 232 160 223
f 160 222 223
f 20 19 223
f 223 222 20
f 44 35 27
f 35 21 27
f 28 44 27
f 27 21 92
f 27 90 28
f 165 21 20
f 96 95 17
f 17 97 96
f 96 381 380
f 96 97 381
f 341 343 591
f 343 592 591
f 168 591 169
f 100 169 101
f 101 8 100
f 8 99 100
f 100 168 169
f 99 168 100
f 533 576 534
f 533 534 532
f 532 534 539
f 543 540 541
f 124 526 541
f 533 587 574
f 574 587 586
f 575 583 540
f 575 542 576
f 540 542 575
f 575 574 583
f 575 576 533
f 533 574 575
f 540 583 125
f 124 541 125
f 125 541 540
f 375 3 172
f 377 373 95
f 272 373 377
f 380 348 377
f 348 272 377
f 372 373 272
f 372 258 371
f 18 95 94
f 95 373 94
f 250 220 228
f 52 49 29
f 29 51 52
f 55 51 31
f 31 54 55
f 425 510 426
f 474 499 498
f 486 487 485
f 483 484 485
f 485 484 486
f 485 487 480
f 26 25 585
f 585 586 26
f 581 123 568
f 568 123 567
f 593 16 572
f 572 573 593
f 593 573 16
f 563 573 572
f 567 573 563
f 217 693 181
f 184 677 41
f 679 677 184
f 41 677 675
f 675 677 678
f 675 188 41
f 797 680 796
f 758 763 796
f 760 763 758
f 186 683 80
f 186 685 683
f 77 185 681
f 679 78 681
f 681 78 77
f 681 185 683
f 769 763 770
f 769 796 763
f 797 796 769
f 822 818 821
f 837 838 834
f 825 265 827
f 839 829 108
f 108 829 813
f 117 118 119
f 770 775 119
f 119 769 770
f 118 769 119
f 782 775 774
f 770 773 774
f 774 775 770
f 308 363 361
f 108 813 109
f 109 813 814
f 41 44 40
f 44 39 40
f 40 184 41
f 77 78 40
f 40 39 77
f 40 78 679
f 679 184 40
f 79 38 82
f 79 39 38
f 80 39 79
f 79 186 80
f 6 44 28
f 6 37 44
f 82 38 81
f 38 37 81
f 37 85 81
f 81 85 181
f 194 44 191
f 44 43 191
f 765 801 800
f 764 801 765
f 800 766 765
f 668 163 72
f 4 71 72
f 72 71 668
f 668 71 663
f 669 695 663
f 663 695 668
f 45 71 4
f 75 46 44
f 819 815 114
f 114 815 115
f 743 757 744
f 598 757 743
f 743 816 598
f 713 714 712
f 716 714 713
f 717 714 716
f 744 757 717
f 718 714 717
f 786 714 718
f 13 199 635
f 635 636 13
f 637 638 654
f 637 747 631
f 631 632 637
f 637 632 638
f 738 735 737
f 737 740 738
f 739 740 737
f 749 121 631
f 749 737 735
f 750 121 749
f 618 619 612
f 612 619 120
f 733 731 750
f 750 749 733
f 733 749 735
f 732 731 733
f 752 751 729
f 203 62 23
f 654 62 203
f 23 63 203
f 203 63 654
f 746 637 654
f 747 637 746
f 22 202 741
f 741 746 22
f 747 746 741
f 739 747 741
f 741 202 739
f 630 620 626
f 620 627 626
f 626 624 630
f 625 624 626
f 626 627 625
f 641 643 640
f 641 633 630
f 630 629 641
f 629 643 641
f 641 639 633
f 640 639 641
f 874 875 853
f 448 447 449
f 448 498 499
f 10 370 369
f 369 19 10
f 227 19 369
f 376 173 371
f 371 370 376
f 10 173 376
f 376 370 10
f 247 242 358
f 361 362 360
f 362 246 360
f 360 359 361
f 360 246 241
f 241 247 360
f 358 359 360
f 360 247 358
f 382 466 383
f 393 395 443
f 443 444 393
f 443 844 843
f 843 444 443
f 442 395 397
f 397 441 442
f 442 443 395
f 442 441 845
f 845 844 442
f 844 443 442
f 403 402 404
f 406 405 404
f 404 405 403
f 415 402 414
f 415 424 425
f 414 424 415
f 415 404 402
f 528 526 527
f 527 529 528
f 543 541 528
f 528 541 526
f 130 531 524
f 524 435 130
f 509 529 508
f 509 426 510
f 506 134 486
f 486 507 506
f 549 129 124
f 560 550 561
f 128 507 527
f 527 526 128
f 526 129 128
f 129 549 128
f 128 506 507
f 436 424 435
f 435 524 436
f 436 524 510
f 436 510 425
f 425 424 436
f 348 344 349
f 344 320 349
f 278 346 339
f 321 346 278
f 339 279 278
f 278 279 319
f 319 320 278
f 278 320 321
f 521 346 345
f 521 522 132
f 521 345 548
f 548 522 521
f 170 592 381
f 170 97 98
f 381 97 170
f 98 102 170
f 170 102 169
f 169 591 170
f 170 591 592
f 319 279 280
f 280 318 319
f 317 318 280
f 281 317 280
f 279 338 337
f 281 280 337
f 337 280 279
f 338 517 337
f 531 523 547
f 523 522 547
f 547 545 531
f 339 340 518
f 518 338 339
f 432 338 518
f 518 519 432
f 865 862 863
f 861 880 863
f 860 861 863
f 863 862 860
f 863 881 865
f 863 880 881
f 866 864 865
f 383 864 866
f 606 892 607
f 607 605 606
f 607 608 605
f 613 608 607
f 881 880 890
f 854 852 853
f 457 852 854
f 877 857 855
f 853 875 855
f 855 854 853
f 878 857 877
f 861 858 859
f 859 858 857
f 857 878 859
f 403 405 437
f 437 405 137
f 137 495 437
f 437 495 494
f 494 495 456
f 462 460 461
f 754 755 605
f 754 608 753
f 605 608 754
f 606 605 604
f 605 602 604
f 615 895 616
f 198 709 64
f 64 2 198
f 709 2 64
f 162 199 12
f 634 635 162
f 162 635 199
f 12 2 161
f 161 162 12
f 161 2 709
f 634 162 161
f 161 794 634
f 161 709 794
f 354 316 355
f 355 316 314
f 314 357 355
f 353 316 354
f 353 318 317
f 317 316 353
f 335 282 281
f 334 333 335
f 335 516 334
f 248 259 277
f 354 355 277
f 248 242 257
f 257 259 248
f 242 256 257
f 258 259 257
f 276 259 258
f 276 277 259
f 354 277 276
f 397 395 396
f 396 398 397
f 396 395 393
f 393 394 396
f 412 398 396
f 396 411 412
f 394 411 396
f 435 422 434
f 130 435 434
f 434 131 130
f 434 422 421
f 313 314 315
f 315 284 313
f 312 314 313
f 313 311 312
f 515 516 430
f 430 431 419
f 430 516 431
f 835 827 836
f 827 840 836
f 836 837 835
f 836 840 838
f 838 837 836
f 884 818 871
f 871 883 884
f 869 883 871
f 388 838 841
f 841 271 388
f 267 271 841
f 841 840 267
f 838 840 841
f 388 271 842
f 842 387 388
f 386 387 842
f 842 271 140
f 356 358 248
f 356 357 358
f 248 277 356
f 356 355 357
f 356 277 355
f 211 54 53
f 53 210 211
f 205 653 652
f 652 61 205
f 205 61 653
f 60 61 206
f 206 61 652
f 652 651 206
f 207 60 206
f 206 651 207
f 480 473 475
f 475 473 474
f 622 624 623
f 622 623 621
f 621 628 622
f 629 624 622
f 622 628 629
f 468 647 655
f 642 645 644
f 644 650 642
f 470 577 648
f 648 647 470
f 648 211 210
f 577 211 648
f 107 103 35
f 103 107 588
f 588 107 587
f 588 587 533
f 533 532 588
f 588 532 589
f 591 168 590
f 589 532 590
f 104 589 167
f 589 590 167
f 167 590 168
f 105 99 8
f 105 168 99
f 105 8 36
f 105 36 104
f 104 167 105
f 105 167 168
f 538 532 539
f 538 539 548
f 548 345 538
f 538 345 536
f 581 568 569
f 95 96 378
f 378 377 95
f 378 96 380
f 380 377 378
f 258 372 274
f 274 276 258
f 272 273 274
f 274 372 272
f 374 94 373
f 18 94 374
f 374 172 3
f 375 172 374
f 373 372 374
f 371 375 374
f 374 372 371
f 90 27 91
f 91 228 90
f 91 27 92
f 28 90 89
f 249 228 220
f 178 89 249
f 471 473 479
f 479 478 471
f 479 473 480
f 488 478 479
f 479 487 488
f 480 487 479
f 471 478 555
f 488 134 133
f 489 478 488
f 488 133 489
f 489 133 552
f 489 552 553
f 553 552 557
f 503 504 502
f 503 505 504
f 502 555 503
f 597 50 49
f 596 50 597
f 578 504 580
f 428 426 427
f 483 428 427
f 427 484 483
f 508 484 427
f 427 509 508
f 426 509 427
f 472 500 499
f 472 499 474
f 474 473 472
f 472 473 471
f 468 500 469
f 469 502 470
f 470 468 469
f 499 500 467
f 467 448 499
f 447 448 467
f 467 500 468
f 468 655 467
f 481 485 480
f 481 477 482
f 481 482 483
f 483 485 481
f 480 475 481
f 481 475 477
f 582 585 25
f 581 569 582
f 582 574 586
f 586 585 582
f 583 574 582
f 582 569 583
f 567 563 562
f 562 563 564
f 562 568 567
f 692 687 693
f 806 810 896
f 807 810 806
f 802 804 807
f 807 806 802
f 218 217 179
f 179 178 218
f 178 249 218
f 325 323 293
f 293 323 295
f 364 363 365
f 217 218 219
f 219 249 220
f 219 218 249
f 150 810 807
f 150 149 810
f 807 804 301
f 770 763 111
f 111 773 770
f 759 760 758
f 686 761 759
f 759 761 762
f 762 760 759
f 183 687 685
f 183 79 82
f 685 186 183
f 186 79 183
f 182 81 181
f 82 81 182
f 181 693 182
f 693 687 182
f 182 183 82
f 687 183 182
f 682 796 680
f 682 680 679
f 679 681 682
f 758 796 682
f 797 769 768
f 768 769 118
f 598 816 886
f 887 599 886
f 886 599 598
f 886 884 887
f 886 818 884
f 744 115 745
f 745 743 744
f 816 743 745
f 115 815 745
f 835 837 833
f 833 837 834
f 108 109 824
f 824 109 110
f 835 833 831
f 831 833 832
f 819 813 828
f 828 813 829
f 828 815 819
f 814 813 711
f 711 710 814
f 711 813 819
f 712 710 711
f 711 713 712
f 117 119 777
f 777 119 775
f 307 308 309
f 309 311 288
f 147 149 322
f 329 327 289
f 780 109 814
f 814 710 780
f 710 783 780
f 782 774 778
f 86 6 87
f 86 87 179
f 87 6 88
f 179 87 88
f 88 178 179
f 88 6 28
f 28 89 88
f 88 89 178
f 189 674 800
f 800 801 189
f 189 801 42
f 42 188 187
f 188 674 187
f 187 189 42
f 674 189 187
f 676 674 188
f 676 675 678
f 188 675 676
f 678 798 676
f 43 764 190
f 190 191 43
f 764 191 190
f 764 765 662
f 662 765 766
f 4 72 69
f 69 72 163
f 69 163 70
f 69 5 4
f 70 5 69
f 197 66 707
f 67 68 195
f 704 163 668
f 668 695 704
f 696 695 669
f 193 44 194
f 46 75 76
f 76 75 192
f 715 114 716
f 716 713 715
f 713 711 715
f 819 114 715
f 715 711 819
f 744 717 116
f 116 717 716
f 116 115 744
f 116 114 115
f 716 114 116
f 714 786 785
f 712 714 785
f 117 777 785
f 736 735 738
f 738 636 736
f 636 635 736
f 748 749 631
f 737 749 748
f 631 747 748
f 748 747 739
f 739 737 748
f 122 121 750
f 750 751 122
f 120 121 122
f 122 612 120
f 654 63 742
f 742 746 654
f 742 63 22
f 22 746 742
f 848 451 846
f 846 847 848
f 851 874 853
f 853 852 851
f 852 850 851
f 847 627 872
f 872 627 619
f 158 175 92
f 158 21 93
f 20 160 221
f 221 165 20
f 252 160 232
f 252 231 160
f 250 230 226
f 226 220 250
f 229 230 250
f 250 228 229
f 229 158 230
f 175 158 229
f 92 175 229
f 229 91 92
f 227 369 233
f 233 369 370
f 232 227 253
f 227 233 253
f 234 256 242
f 234 247 241
f 242 247 234
f 384 386 844
f 384 844 845
f 845 382 384
f 384 387 386
f 440 491 441
f 440 399 439
f 440 441 397
f 397 399 440
f 464 491 462
f 464 465 466
f 466 382 464
f 425 426 416
f 416 415 425
f 416 426 428
f 404 415 416
f 416 428 406
f 406 404 416
f 510 524 525
f 525 509 510
f 529 509 525
f 134 506 135
f 135 506 550
f 135 550 560
f 135 133 134
f 506 128 127
f 127 128 549
f 550 506 127
f 127 561 550
f 549 561 127
f 318 353 352
f 340 346 520
f 346 521 520
f 520 521 132
f 132 519 520
f 520 518 340
f 519 518 520
f 576 542 544
f 544 534 576
f 544 542 545
f 545 547 544
f 867 866 865
f 882 869 867
f 867 881 882
f 865 881 867
f 383 866 385
f 387 384 385
f 385 382 383
f 385 384 382
f 834 387 870
f 869 871 870
f 891 890 880
f 891 892 606
f 606 604 891
f 891 604 890
f 857 858 856
f 856 855 857
f 854 855 856
f 858 461 856
f 877 855 876
f 876 855 875
f 875 895 876
f 876 894 877
f 895 894 876
f 879 878 892
f 892 891 879
f 879 891 880
f 879 880 861
f 861 859 879
f 879 859 878
f 494 456 458
f 458 493 494
f 460 493 458
f 458 456 457
f 462 461 463
f 463 464 462
f 465 464 463
f 860 465 463
f 463 858 860
f 463 461 858
f 492 460 462
f 492 493 460
f 462 491 492
f 439 493 492
f 492 440 439
f 491 440 492
f 403 437 438
f 438 493 439
f 438 437 494
f 494 493 438
f 438 439 401
f 401 403 438
f 889 888 882
f 882 881 889
f 881 890 889
f 753 608 609
f 609 752 753
f 617 874 618
f 616 875 617
f 875 874 617
f 893 894 613
f 613 607 893
f 893 607 892
f 892 878 893
f 893 878 877
f 877 894 893
f 895 615 614
f 614 894 895
f 613 894 614
f 614 608 613
f 614 609 608
f 615 609 614
f 283 284 282
f 282 335 283
f 283 335 333
f 336 337 517
f 516 335 336
f 281 337 336
f 336 335 281
f 336 517 431
f 431 516 336
f 433 434 421
f 433 420 432
f 433 421 420
f 432 519 433
f 433 519 131
f 131 434 433
f 390 444 389
f 389 444 843
f 266 264 268
f 311 313 286
f 288 311 286
f 286 313 284
f 818 822 823
f 823 871 818
f 823 822 832
f 832 833 823
f 823 833 834
f 834 870 823
f 823 870 871
f 445 842 140
f 445 389 843
f 843 386 445
f 386 842 445
f 140 139 445
f 139 389 445
f 216 55 54
f 54 211 216
f 578 51 216
f 51 55 216
f 216 577 578
f 216 211 577
f 646 655 647
f 647 644 646
f 646 644 645
f 645 628 646
f 646 628 621
f 209 648 210
f 209 56 208
f 57 56 209
f 209 210 58
f 58 57 209
f 650 644 649
f 648 209 649
f 649 644 647
f 647 648 649
f 208 650 649
f 649 209 208
f 106 107 35
f 587 107 106
f 106 35 26
f 586 587 106
f 26 586 106
f 166 588 589
f 103 588 166
f 166 589 104
f 104 103 166
f 537 590 532
f 341 591 537
f 591 590 537
f 537 535 341
f 536 535 537
f 537 538 536
f 532 538 537
f 126 125 583
f 583 569 126
f 124 125 126
f 126 549 124
f 171 3 18
f 18 374 171
f 171 374 3
f 90 228 177
f 228 249 177
f 177 89 90
f 177 249 89
f 554 555 478
f 554 489 553
f 478 489 554
f 554 503 555
f 553 505 554
f 505 503 554
f 471 555 501
f 501 472 471
f 500 472 501
f 501 555 502
f 502 469 501
f 501 469 500
f 551 135 560
f 133 135 551
f 570 505 553
f 553 557 570
f 596 597 570
f 560 561 566
f 566 561 564
f 49 52 214
f 214 597 49
f 52 580 214
f 214 580 597
f 215 52 51
f 215 580 52
f 215 51 578
f 578 580 215
f 597 580 579
f 505 570 579
f 579 570 597
f 504 505 579
f 579 580 504
f 621 447 446
f 447 467 446
f 446 467 655
f 446 646 621
f 655 646 446
f 450 497 498
f 498 448 450
f 449 451 450
f 450 448 449
f 454 456 495
f 137 138 136
f 138 477 136
f 474 498 476
f 498 497 476
f 476 475 474
f 497 136 476
f 477 475 476
f 476 136 477
f 584 25 581
f 581 582 584
f 584 582 25
f 804 802 803
f 693 217 691
f 691 692 693
f 217 219 691
f 687 692 688
f 688 761 686
f 692 803 688
f 686 685 688
f 685 687 688
f 795 806 896
f 795 802 806
f 294 303 305
f 294 293 295
f 151 303 152
f 325 293 291
f 291 327 325
f 289 327 291
f 306 365 363
f 306 308 307
f 363 308 306
f 307 305 306
f 364 365 366
f 367 366 365
f 305 303 304
f 304 306 305
f 365 306 304
f 304 367 365
f 304 303 151
f 151 367 304
f 299 150 807
f 807 301 299
f 299 301 298
f 298 297 299
f 299 297 150
f 811 301 804
f 763 760 112
f 112 111 763
f 773 111 772
f 684 681 683
f 684 682 681
f 684 683 686
f 758 682 684
f 686 759 684
f 684 759 758
f 767 766 798
f 767 798 797
f 797 768 767
f 817 886 816
f 816 745 817
f 821 818 817
f 818 886 817
f 817 745 815
f 108 824 826
f 826 824 825
f 826 839 108
f 826 825 827
f 826 827 835
f 835 831 826
f 826 831 839
f 265 825 263
f 825 824 263
f 264 265 263
f 829 839 830
f 839 831 830
f 832 822 830
f 830 831 832
f 776 775 782
f 782 780 776
f 776 780 783
f 776 777 775
f 776 783 777
f 777 783 784
f 712 785 784
f 784 785 777
f 784 710 712
f 784 783 710
f 307 309 290
f 289 291 290
f 288 289 290
f 290 309 288
f 311 309 310
f 361 359 310
f 310 308 361
f 310 309 308
f 310 359 312
f 312 311 310
f 324 322 323
f 324 323 325
f 325 327 326
f 326 324 325
f 511 324 326
f 809 149 147
f 810 149 809
f 110 109 779
f 109 780 779
f 779 780 782
f 782 778 779
f 37 6 83
f 6 86 83
f 800 674 799
f 674 676 799
f 799 676 798
f 799 766 800
f 798 766 799
f 764 662 658
f 194 191 658
f 658 191 764
f 708 707 793
f 197 707 708
f 793 709 708
f 708 709 198
f 198 65 708
f 708 65 197
f 196 66 67
f 196 707 66
f 67 195 196
f 706 707 196
f 196 195 706
f 755 754 723
f 163 704 164
f 164 195 68
f 70 163 164
f 164 68 70
f 657 75 44
f 44 193 657
f 192 75 657
f 657 193 194
f 660 76 192
f 660 665 664
f 192 657 660
f 660 657 665
f 73 45 46
f 46 76 73
f 664 665 670
f 669 664 670
f 670 696 669
f 697 696 670
f 700 785 786
f 786 701 700
f 117 785 700
f 734 733 735
f 735 736 734
f 732 733 734
f 734 635 634
f 734 736 635
f 634 794 734
f 734 794 732
f 850 848 849
f 849 851 850
f 849 848 847
f 847 872 849
f 618 874 873
f 873 619 618
f 873 872 619
f 873 849 872
f 874 851 873
f 851 849 873
f 92 21 174
f 174 158 92
f 21 158 174
f 231 158 159
f 159 158 93
f 160 231 159
f 159 221 160
f 165 221 159
f 93 21 159
f 21 165 159
f 231 252 224
f 252 237 224
f 228 91 176
f 176 229 228
f 91 229 176
f 371 258 255
f 255 370 371
f 255 233 370
f 258 257 255
f 255 257 256
f 256 234 254
f 254 253 233
f 254 255 256
f 233 255 254
f 490 382 845
f 490 464 382
f 491 464 490
f 845 441 490
f 441 491 490
f 530 528 529
f 529 525 530
f 531 545 530
f 530 524 531
f 530 525 524
f 530 545 543
f 543 528 530
f 351 349 320
f 318 352 351
f 351 320 319
f 319 318 351
f 350 352 273
f 350 273 272
f 349 351 350
f 350 351 352
f 350 272 348
f 348 349 350
f 273 352 275
f 275 274 273
f 276 274 275
f 354 276 275
f 275 353 354
f 275 352 353
f 539 534 546
f 534 544 546
f 548 539 546
f 546 544 547
f 546 522 548
f 546 547 522
f 869 870 868
f 868 867 869
f 866 867 868
f 868 385 866
f 387 385 868
f 868 870 387
f 459 458 457
f 459 856 461
f 459 461 460
f 460 458 459
f 457 854 459
f 854 856 459
f 601 599 888
f 888 889 601
f 601 602 600
f 600 599 601
f 890 604 603
f 603 889 890
f 603 601 889
f 603 604 602
f 602 601 603
f 611 122 751
f 751 752 611
f 752 609 611
f 612 122 611
f 327 329 328
f 328 326 327
f 330 329 331
f 331 332 330
f 330 328 329
f 390 389 408
f 408 389 139
f 407 139 140
f 143 268 264
f 288 286 287
f 331 329 287
f 287 289 288
f 287 329 289
f 285 286 284
f 285 283 333
f 284 283 285
f 285 333 331
f 331 287 285
f 285 287 286
f 556 126 569
f 556 569 568
f 568 562 556
f 552 133 558
f 133 551 558
f 558 557 552
f 595 596 571
f 596 570 571
f 572 595 571
f 571 570 557
f 457 456 455
f 456 454 455
f 455 852 457
f 455 850 852
f 497 450 452
f 452 450 451
f 496 136 497
f 497 452 496
f 496 452 454
f 496 454 495
f 496 495 137
f 137 136 496
f 805 803 692
f 805 691 812
f 692 691 805
f 812 811 805
f 804 803 805
f 805 811 804
f 761 688 694
f 694 688 803
f 762 761 694
f 694 803 802
f 694 795 762
f 802 795 694
f 149 150 148
f 150 297 148
f 148 297 295
f 148 322 149
f 295 323 148
f 323 322 148
f 153 379 151
f 151 152 153
f 296 152 303
f 295 297 296
f 296 297 298
f 298 152 296
f 296 294 295
f 303 294 296
f 292 291 293
f 292 305 307
f 307 290 292
f 292 290 291
f 292 294 305
f 293 294 292
f 151 379 368
f 368 367 151
f 154 366 368
f 366 367 368
f 220 226 156
f 156 226 154
f 302 811 812
f 113 760 762
f 113 112 760
f 762 795 113
f 810 809 781
f 781 809 778
f 896 810 781
f 781 772 896
f 781 778 774
f 781 774 773
f 773 772 781
f 699 118 117
f 117 700 699
f 766 767 667
f 667 662 766
f 672 666 667
f 667 666 662
f 671 666 672
f 665 666 671
f 697 670 671
f 671 670 665
f 718 717 719
f 719 717 757
f 261 824 110
f 261 263 824
f 820 828 829
f 829 830 820
f 815 828 820
f 821 817 820
f 820 817 815
f 820 822 821
f 820 830 822
f 147 322 145
f 322 324 145
f 145 324 511
f 110 779 808
f 808 809 147
f 778 809 808
f 808 779 778
f 180 217 181
f 179 217 180
f 180 86 179
f 180 83 86
f 732 793 730
f 730 728 729
f 730 731 732
f 729 731 730
f 726 728 791
f 791 790 726
f 729 728 727
f 753 752 727
f 727 752 729
f 727 728 726
f 706 195 705
f 195 164 705
f 705 791 706
f 790 791 705
f 705 164 704
f 704 790 705
f 726 790 724
f 656 660 664
f 76 660 656
f 664 73 656
f 656 73 76
f 45 73 74
f 74 663 71
f 71 45 74
f 661 658 662
f 662 666 661
f 194 658 661
f 661 657 194
f 665 657 661
f 661 666 665
f 698 700 701
f 698 671 672
f 672 699 698
f 698 699 700
f 698 701 697
f 697 671 698
f 238 237 252
f 238 252 232
f 232 253 238
f 154 226 225
f 231 224 251
f 230 158 251
f 251 158 231
f 251 226 230
f 251 225 226
f 224 225 251
f 612 611 610
f 618 612 610
f 610 617 618
f 610 615 616
f 616 617 610
f 610 609 615
f 610 611 609
f 326 328 512
f 144 511 512
f 511 326 512
f 515 430 429
f 141 407 140
f 268 407 141
f 266 268 141
f 141 271 266
f 140 271 141
f 269 407 268
f 268 143 269
f 270 429 417
f 417 269 270
f 407 269 417
f 417 408 139
f 139 407 417
f 885 562 564
f 885 556 562
f 564 561 885
f 885 561 549
f 549 126 885
f 126 556 885
f 557 558 559
f 560 566 559
f 559 551 560
f 559 558 551
f 565 563 572
f 572 571 565
f 564 563 565
f 565 566 564
f 565 559 566
f 565 571 557
f 557 559 565
f 453 452 451
f 850 455 453
f 453 455 454
f 454 452 453
f 451 848 453
f 453 848 850
f 154 368 155
f 155 368 379
f 155 156 154
f 379 243 157
f 157 155 379
f 156 155 157
f 157 243 219
f 157 219 220
f 220 156 157
f 690 302 812
f 812 691 690
f 690 691 219
f 219 243 690
f 379 153 689
f 153 302 689
f 689 243 379
f 689 690 243
f 302 690 689
f 300 302 153
f 298 301 300
f 301 811 300
f 811 302 300
f 300 152 298
f 300 153 152
f 771 772 111
f 111 112 771
f 112 113 771
f 896 772 771
f 771 795 896
f 771 113 795
f 673 667 767
f 673 768 118
f 673 767 768
f 118 699 673
f 673 699 672
f 672 667 673
f 600 602 756
f 756 602 755
f 756 757 600
f 756 719 757
f 146 261 110
f 146 808 147
f 110 808 146
f 147 145 146
f 263 261 262
f 264 263 262
f 144 143 262
f 262 143 264
f 260 145 511
f 260 262 261
f 261 146 260
f 260 146 145
f 260 511 144
f 144 262 260
f 83 180 84
f 84 85 37
f 37 83 84
f 181 85 84
f 84 180 181
f 792 791 728
f 792 730 793
f 728 730 792
f 793 707 792
f 792 707 706
f 706 791 792
f 725 727 726
f 726 724 725
f 725 724 723
f 725 723 754
f 725 754 753
f 753 727 725
f 659 73 664
f 659 74 73
f 663 74 659
f 669 663 659
f 659 664 669
f 245 246 362
f 245 240 246
f 245 362 364
f 237 240 245
f 241 246 235
f 246 240 235
f 235 240 237
f 237 238 235
f 244 366 154
f 154 225 244
f 364 366 244
f 244 245 364
f 514 429 270
f 514 330 332
f 514 332 515
f 515 429 514
f 418 409 390
f 390 408 418
f 418 429 430
f 408 417 418
f 418 417 429
f 419 409 418
f 418 430 419
f 513 512 328
f 328 330 513
f 513 514 270
f 330 514 513
f 142 269 143
f 142 143 144
f 144 512 142
f 512 513 142
f 270 269 142
f 142 513 270
f 723 724 722
f 702 696 697
f 697 701 702
f 788 702 787
f 787 702 701
f 787 786 718
f 787 701 786
f 236 234 241
f 241 235 236
f 236 235 238
f 236 254 234
f 253 254 236
f 236 238 253
f 237 245 239
f 245 244 239
f 239 244 225
f 239 224 237
f 239 225 224
f 789 724 790
f 789 722 724
f 789 790 704
f 788 722 789
f 723 722 721
f 755 723 721
f 721 756 755
f 719 756 721
f 703 704 695
f 703 789 704
f 695 696 703
f 788 789 703
f 696 702 703
f 703 702 788
f 720 722 788
f 720 721 722
f 788 787 720
f 719 721 720
f 718 719 720
f 720 787 718
f 33 7 61
f 61 60 33
f 45 29 34
f 30 32 45
f 11 1 45
f 34 15 45
f 4 5 45
f 45 2 12
f 45 16 24
f 45 33 30
f 45 32 31
f 31 29 45
f 26 35 45
f 45 25 26
f 45 5 11
f 45 13 14
f 14 22 45
f 45 35 44
f 15 16 45
f 24 25 45
f 44 46 45
f 12 13 45
f 23 7 45
f 45 22 23
f 45 7 33
f 1 2 45

