# https://github.com/mikedh/trimesh
v -0.00057853 0.00747738 -0.01600000
v 0.00050708 0.00748247 -0.01600000
v 0.00029471 -0.00749421 -0.01600000
v -0.00612014 0.00434198 -0.01600000
v -0.00664589 0.00348922 -0.01600000
v -0.00703263 0.00260894 -0.01600000
v 0.00270692 0.00699413 -0.01600000
v 0.00371361 0.00651748 -0.01600000
v 0.00737271 -0.00137918 -0.01600000
v 0.00453214 0.00597755 -0.01600000
v 0.00535600 0.00525112 -0.01600000
v 0.00542971 -0.00517553 -0.01600000
v 0.00474984 -0.00581170 -0.01600000
v 0.00392164 -0.00639707 -0.01600000
v 0.00293350 -0.00690161 -0.01600000
v -0.00648451 -0.00377412 -0.01600000
v -0.00090614 -0.00744710 -0.01600000
v -0.00694037 -0.00284188 -0.01600000
v -0.00727783 -0.00181308 -0.01600000
v -0.00746310 -0.00074463 -0.01600000
v -0.00545735 0.00514340 -0.01600000
v -0.00457582 0.00594302 -0.01600000
v -0.00375030 0.00649713 -0.01600000
v 0.00718886 -0.00214095 -0.01600000
v 0.00675524 -0.00325926 -0.01600000
v 0.00617632 -0.00425423 -0.01600000
v 0.00186907 -0.00726263 -0.01600000
v 0.00066332 -0.00747057 -0.01600000
v -0.00302805 -0.00686343 -0.01600000
v -0.00406807 -0.00630127 -0.01600000
v -0.00503446 -0.00555822 -0.01600000
v -0.00748294 0.00049195 -0.01600000
v -0.00731923 0.00162765 -0.01600000
v -0.00276041 0.00697541 -0.01600000
v -0.00167617 0.00730949 -0.01600000
v 0.00156130 0.00733448 -0.01600000
v -0.00197527 -0.00723754 -0.01600000
v -0.00585262 -0.00469505 -0.01600000
v 0.00669136 0.00338953 -0.01600000
v 0.00715902 0.00223802 -0.01600000
v 0.00742598 0.00105233 -0.01600000
v 0.00612422 0.00433093 -0.01600000
v 0.00749824 -0.00016597 -0.01600000
v 0.00186907 -0.00726263 -0.01330000
v 0.00123152 -0.00739794 -0.01330000
v 0.00216175 -0.00718074 -0.01330000
v 0.00293350 -0.00690161 -0.01330000
v 0.00392164 -0.00639707 -0.01330000
v 0.00400922 -0.00634317 -0.01330000
v 0.00474984 -0.00581170 -0.01330000
v 0.00496918 -0.00562178 -0.01330000
v 0.00542971 -0.00517553 -0.01330000
v 0.00659229 -0.00357659 -0.01330000
v 0.00675524 -0.00325926 -0.01330000
v 0.00702915 -0.00261826 -0.01330000
v 0.00718886 -0.00214095 -0.01330000
v 0.00731497 -0.00165896 -0.01330000
v 0.00737271 -0.00137918 -0.01330000
v 0.00746672 -0.00070863 -0.01330000
v 0.00749824 -0.00016597 -0.01330000
v 0.00749608 0.00024302 -0.01330000
v 0.00742598 0.00105233 -0.01330000
v 0.00740513 0.00119049 -0.01330000
v 0.00719039 0.00213491 -0.01330000
v 0.00683917 0.00308051 -0.01330000
v 0.00633292 0.00401970 -0.01330000
v 0.00669136 0.00338953 -0.01330000
v 0.00563009 0.00495604 -0.01330000
v 0.00612422 0.00433093 -0.01330000
v 0.00453214 0.00597755 -0.01330000
v 0.00456054 0.00595599 -0.01330000
v 0.00535600 0.00525112 -0.01330000
v 0.00270692 0.00699413 -0.01330000
v 0.00318200 0.00679218 -0.01330000
v 0.00356623 0.00659913 -0.01330000
v 0.00371361 0.00651748 -0.01330000
v 0.00066361 0.00747009 -0.01330000
v 0.00156130 0.00733448 -0.01330000
v 0.00259240 0.00703712 -0.01330000
v -0.00029460 0.00749422 -0.01330000
v 0.00050708 0.00748247 -0.01330000
v -0.00408912 0.00628923 -0.01330000
v -0.00457582 0.00594302 -0.01330000
v -0.00545735 0.00514340 -0.01330000
v -0.00612014 0.00434198 -0.01330000
v -0.00664589 0.00348922 -0.01330000
v -0.00703263 0.00260894 -0.01330000
v -0.00706131 0.00252919 -0.01330000
v -0.00731923 0.00162765 -0.01330000
v -0.00733332 0.00156271 -0.01330000
v -0.00747447 0.00060479 -0.01330000
v -0.00749192 -0.00034637 -0.01330000
v -0.00748294 0.00049195 -0.01330000
v -0.00738833 -0.00129200 -0.01330000
v -0.00746310 -0.00074463 -0.01330000
v -0.00694037 -0.00284188 -0.01330000
v -0.00716059 -0.00223026 -0.01330000
v -0.00727783 -0.00181308 -0.01330000
v -0.00503446 -0.00555822 -0.01330000
v -0.00585262 -0.00469505 -0.01330000
v -0.00629384 -0.00408557 -0.01330000
v -0.00648451 -0.00377412 -0.01330000
v -0.00349507 -0.00663740 -0.01330000
v -0.00357505 -0.00659476 -0.01330000
v -0.00406807 -0.00630127 -0.01330000
v 0.00066332 -0.00747057 -0.01330000
v -0.00209709 -0.00358240 0.00080645
v -0.00165355 -0.00360248 0.00087514
v -0.00170855 -0.00320801 0.00119177
v -0.00583281 -0.00061570 -0.00066425
v -0.00578967 -0.00100518 -0.00072160
v -0.00528234 -0.00101862 0.00030629
v -0.00464035 -0.00262055 0.00000345
v -0.00430456 -0.00265576 0.00037477
v -0.00449282 -0.00185992 0.00086543
v -0.00411817 -0.00187712 0.00120648
v -0.00159747 -0.00397473 0.00052779
v -0.00102575 -0.00497382 -0.00058398
v -0.00061802 -0.00498303 -0.00056541
v -0.00068421 -0.00434681 0.00020148
v -0.00277422 -0.00421913 -0.00021291
v -0.00237472 -0.00426141 -0.00004834
v -0.00253091 -0.00355504 0.00069240
v -0.00690681 -0.00087770 -0.00545782
v -0.00683618 -0.00145483 -0.00554353
v -0.00655177 -0.00158630 -0.00389299
v -0.00701363 -0.00133152 -0.00690056
v -0.00378026 -0.00594129 -0.00562253
v -0.00419039 -0.00575412 -0.00605934
v -0.00376564 -0.00623549 -0.00709007
v -0.00007689 -0.00751154 -0.00973652
v -0.00044862 -0.00752101 -0.00975219
v -0.00032319 -0.00751811 -0.01118378
v -0.00414247 -0.00623866 -0.01206665
v -0.00388556 -0.00641334 -0.01252582
v -0.00349862 -0.00663643 -0.01222584
v 0.00679368 -0.00311225 -0.01056874
v 0.00700827 -0.00252989 -0.01030254
v 0.00685243 -0.00277032 -0.00963068
v 0.00685942 -0.00231154 -0.00856851
v 0.00703542 -0.00150948 -0.00827886
v 0.00680406 -0.00169844 -0.00731563
v 0.00467524 -0.00058116 -0.00144611
v 0.00467396 0.00018529 -0.00137689
v 0.00407868 0.00016545 -0.00067494
v 0.00184423 -0.00083193 0.00100918
v 0.00181850 0.00008595 0.00107101
v 0.00093402 0.00005362 0.00150903
v 0.00005589 -0.00140827 0.00171744
v 0.00007412 -0.00187183 0.00159523
v 0.00098746 -0.00181147 0.00125220
v 0.00099458 -0.00225815 0.00110252
v 0.00100177 -0.00310798 0.00069718
v 0.00099932 -0.00269128 0.00091768
v 0.00010914 -0.00276285 0.00123963
v 0.00009190 -0.00232435 0.00143613
v 0.00085900 -0.00698420 -0.00535887
v 0.00027748 -0.00704784 -0.00531408
v 0.00028642 -0.00727614 -0.00666898
v 0.00712963 0.00069966 -0.00802801
v 0.00715767 0.00025019 -0.00801020
v 0.00721978 0.00105779 -0.00900069
v 0.00031171 0.00704539 -0.00533704
v 0.00088899 0.00697382 -0.00546441
v 0.00075186 0.00720257 -0.00678012
v 0.00035291 0.00687098 -0.00461447
v -0.00027070 0.00689227 -0.00455160
v -0.00026162 0.00666187 -0.00378933
v -0.00199974 0.00683461 -0.00561284
v -0.00144301 0.00695176 -0.00543743
v -0.00132522 0.00719703 -0.00677609
v -0.00089411 0.00685386 -0.00458615
v -0.00092108 0.00662047 -0.00381632
v -0.00275519 0.00683474 -0.00727383
v -0.00317633 0.00666530 -0.00750076
v -0.00347695 0.00632712 -0.00641581
v -0.00592145 0.00383161 -0.00557669
v -0.00571013 0.00424251 -0.00603680
v -0.00614596 0.00378641 -0.00710031
v -0.00735413 -0.00138657 -0.01243653
v -0.00727053 -0.00153727 -0.01130391
v -0.00737229 -0.00094387 -0.01122773
v -0.00675217 -0.00325987 -0.01298476
v 0.00029459 -0.00749450 -0.01236153
v 0.00681493 -0.00313401 -0.01318673
v 0.00659197 0.00357898 -0.01320878
v 0.00679249 0.00318396 -0.01298787
v 0.00484262 0.00572939 -0.01280789
v 0.00510946 0.00549290 -0.01240306
v -0.00029488 0.00749470 -0.01239550
v -0.00153152 0.00738471 -0.01125784
v -0.00091859 0.00746702 -0.01120687
v -0.00029444 0.00749098 -0.01121039
v 0.00023995 0.00749008 -0.01242642
v 0.00269125 0.00699769 -0.01303160
v 0.00352435 0.00660440 -0.01231940
v 0.00427818 0.00616041 -0.01289067
v 0.00459174 0.00593203 -0.01320866
v 0.00559079 0.00500004 -0.01319915
v 0.00584045 0.00470658 -0.01286531
v 0.00609410 0.00437501 -0.01254557
v 0.00634796 0.00400057 -0.01224692
v 0.00697752 0.00275674 -0.01279626
v 0.00714150 0.00229855 -0.01263789
v 0.00727905 0.00181209 -0.01251558
v 0.00738591 0.00130350 -0.01242912
v 0.00741997 0.00086685 -0.01121692
v 0.00746365 0.00024918 -0.01119433
v 0.00749482 0.00024619 -0.01235984
v 0.00749353 -0.00028781 -0.01237464
v 0.00745551 -0.00081540 -0.01242308
v 0.00738244 -0.00132924 -0.01250667
v 0.00727743 -0.00182288 -0.01262606
v 0.00714437 -0.00229008 -0.01278125
v 0.00698840 -0.00272759 -0.01296950
v 0.00660358 -0.00356249 -0.01222820
v 0.00637630 -0.00395232 -0.01252303
v 0.00591807 -0.00460800 -0.01316766
v 0.00436867 -0.00609039 -0.01256205
v 0.00133775 -0.00736886 -0.01245666
v 0.00090509 -0.00741545 -0.01124304
v -0.00506003 -0.00551223 -0.01238635
v -0.00554050 -0.00505606 -0.01317225
v -0.00479366 -0.00576042 -0.01277405
v -0.00453951 -0.00596906 -0.01316855
v -0.00604607 -0.00441855 -0.01255721
v -0.00702098 0.00263313 -0.01300209
v -0.00716760 0.00218721 -0.01281658
v -0.00729071 0.00171519 -0.01265965
v -0.00738622 0.00122078 -0.01253388
v -0.00745028 0.00070922 -0.01244170
v -0.00747979 0.00018609 -0.01238516
v -0.00747347 -0.00034216 -0.01236535
v -0.00682659 0.00300977 -0.01203618
v -0.00662942 0.00345567 -0.01229627
v -0.00641775 0.00386103 -0.01257931
v -0.00619553 0.00422293 -0.01288246
v -0.00596821 0.00454332 -0.01320308
v -0.00700526 0.00252589 -0.01180286
v -0.00716141 0.00200659 -0.01160018
v -0.00728944 0.00145455 -0.01143295
v -0.00738088 0.00087474 -0.01130754
v -0.00742820 0.00027431 -0.01122941
v -0.00742598 -0.00033604 -0.01120232
v -0.00724354 -0.00188956 -0.01252602
v -0.00577245 0.00473182 -0.01203224
v -0.00491752 0.00561912 -0.01163201
v -0.00524210 0.00532504 -0.01202108
v -0.00552377 0.00504843 -0.01241467
v -0.00674620 0.00259574 -0.00755939
v -0.00710150 0.00072544 -0.00689960
v -0.00695586 0.00029553 -0.00545776
v -0.00693401 0.00087601 -0.00554305
v -0.00669537 0.00039170 -0.00377738
v -0.00666090 0.00104697 -0.00389240
v -0.00649540 0.00044469 -0.00282081
v -0.00645002 0.00113859 -0.00296074
v -0.00622524 0.00050079 -0.00179501
v -0.00616602 0.00123320 -0.00197095
v -0.00621922 0.00244768 -0.00353855
v -0.00630710 0.00285255 -0.00472510
v -0.00646300 0.00228922 -0.00437191
v -0.00666076 0.00249395 -0.00613821
v -0.00678604 0.00198435 -0.00588623
v -0.00687454 0.00216668 -0.00734246
v -0.00697869 0.00170903 -0.00715665
v -0.00710164 0.00147140 -0.00822758
v -0.00650765 0.00296582 -0.00643222
v -0.00726976 0.00111320 -0.00995314
v -0.00605440 0.00193987 -0.00226753
v -0.00635604 0.00181037 -0.00320183
v -0.00658260 0.00168319 -0.00409137
v -0.00687759 0.00144182 -0.00568644
v -0.00705458 0.00122634 -0.00700798
v -0.00716777 0.00104101 -0.00811386
v -0.00734814 0.00040266 -0.00983371
v -0.00499727 0.00515896 -0.00649176
v -0.00529419 0.00492116 -0.00693350
v -0.00576248 0.00444633 -0.00779280
v -0.00609816 0.00399774 -0.00859716
v -0.00465289 0.00539215 -0.00604814
v -0.00541916 0.00447254 -0.00547816
v -0.00563753 0.00405163 -0.00495014
v -0.00585021 0.00357236 -0.00443544
v -0.00502863 0.00539881 -0.00912215
v -0.00425761 0.00561792 -0.00560875
v -0.00507068 0.00469939 -0.00491147
v -0.00529053 0.00426934 -0.00431178
v -0.00550859 0.00377595 -0.00372116
v -0.00571514 0.00322124 -0.00316600
v -0.00622619 -0.00024351 -0.00173632
v -0.00585770 -0.00022357 -0.00064637
v -0.00586357 0.00016918 -0.00066731
v -0.00668821 -0.00027228 -0.00373997
v -0.00649152 -0.00025937 -0.00277509
v -0.00535512 -0.00019877 0.00040187
v -0.00536046 0.00021334 0.00037391
v -0.00534614 0.00062374 0.00029766
v -0.00643690 0.00335965 -0.00805957
v -0.00633371 0.00339746 -0.00675677
v -0.00612351 0.00336749 -0.00513306
v -0.00604737 0.00303695 -0.00395721
v -0.00590048 0.00260730 -0.00267262
v -0.00565264 0.00207113 -0.00131985
v -0.00585155 0.00056047 -0.00072580
v -0.00561589 0.00059171 -0.00020204
v -0.00553882 0.00138032 -0.00045884
v -0.00526674 0.00143030 0.00001233
v -0.00513531 0.00220310 -0.00042604
v -0.00483275 0.00226864 -0.00001984
v -0.00577897 0.00133067 -0.00095337
v -0.00540853 0.00213717 -0.00086211
v -0.00496888 0.00292657 -0.00098506
v -0.00434675 0.00308231 -0.00026983
v -0.00496207 0.00148041 0.00044978
v -0.00450063 0.00233350 0.00034827
v -0.00399682 0.00315799 0.00003305
v -0.00384041 0.00384588 -0.00069112
v -0.00348167 0.00392823 -0.00044490
v -0.00333568 0.00454443 -0.00123895
v -0.00280568 0.00336997 0.00065750
v -0.00332892 0.00252074 0.00114544
v -0.00289203 0.00257836 0.00129709
v -0.00341078 0.00167750 0.00166008
v -0.00295578 0.00172349 0.00180021
v -0.00297575 0.00127807 0.00198814
v -0.00249821 0.00131536 0.00205979
v -0.00250249 0.00085584 0.00218976
v -0.00200923 0.00088533 0.00219586
v -0.00198613 -0.00005719 0.00229402
v -0.00151944 0.00184013 0.00188974
v -0.00151771 0.00138052 0.00204448
v -0.00101323 0.00093649 0.00206873
v -0.00057114 0.00277803 0.00133038
v -0.00054928 0.00189166 0.00172725
v -0.00007449 0.00190701 0.00159541
v -0.00052045 0.00095719 0.00195040
v -0.00003779 0.00097401 0.00180549
v -0.00000023 0.00001886 0.00186809
v -0.00151115 0.00091237 0.00215303
v -0.00201057 0.00134973 0.00207643
v -0.00248576 0.00176648 0.00188162
v -0.00244040 0.00263168 0.00139582
v -0.00237509 0.00343155 0.00076920
v -0.00229857 0.00414917 0.00004245
v -0.00462417 0.00153043 0.00084311
v -0.00425238 0.00158016 0.00118194
v -0.00413874 0.00239738 0.00067010
v -0.00374684 0.00246000 0.00093744
v -0.00362104 0.00323175 0.00029082
v -0.00322223 0.00330289 0.00049869
v -0.00310258 0.00400730 -0.00024039
v -0.00270715 0.00408147 -0.00007822
v -0.00260222 0.00470826 -0.00087781
v -0.00221581 0.00478024 -0.00075138
v -0.00249509 0.00524970 -0.00171284
v -0.00175666 0.00538974 -0.00148646
v -0.00200542 0.00180564 0.00190969
v -0.00150985 0.00272063 0.00144829
v -0.00197826 0.00267950 0.00144507
v -0.00148664 0.00353247 0.00085907
v -0.00193418 0.00348620 0.00083573
v -0.00145471 0.00425880 0.00016253
v -0.00188002 0.00420881 0.00012243
v -0.00141715 0.00489605 -0.00060715
v -0.00181988 0.00484339 -0.00066114
v -0.00103249 0.00186908 0.00182715
v -0.00103940 0.00275387 0.00140891
v -0.00103619 0.00356893 0.00084115
v -0.00102581 0.00429757 0.00016358
v -0.00101032 0.00493656 -0.00058949
v -0.00021687 0.00552526 -0.00142951
v -0.00099119 0.00548607 -0.00139005
v -0.00060209 0.00496326 -0.00060823
v -0.00058653 0.00359414 0.00078394
v -0.00017002 0.00433508 0.00005180
v -0.00059652 0.00432352 0.00012640
v -0.00019519 0.00497449 -0.00066343
v -0.00538624 0.00497475 -0.00847036
v -0.00490041 0.00544301 -0.00777583
v -0.00426980 0.00590352 -0.00708077
v -0.00389365 0.00612156 -0.00674130
v -0.00392256 0.00627549 -0.00800904
v -0.00453560 0.00584277 -0.00855701
v -0.00230418 0.00698240 -0.00707272
v -0.00302125 0.00651684 -0.00611309
v -0.00381185 0.00583385 -0.00518587
v -0.00465861 0.00492109 -0.00434789
v -0.00487217 0.00448316 -0.00367674
v -0.00508732 0.00397703 -0.00301018
v -0.00529520 0.00340447 -0.00237633
v -0.00548695 0.00276731 -0.00180322
v -0.00156706 0.00652610 -0.00394304
v -0.00218870 0.00639007 -0.00415689
v -0.00277512 0.00622369 -0.00444524
v -0.00478189 0.00358542 -0.00163208
v -0.00417683 0.00376104 -0.00097450
v -0.00458340 0.00417428 -0.00233721
v -0.00399883 0.00436449 -0.00173567
v -0.00438102 0.00469159 -0.00307213
v -0.00381907 0.00489141 -0.00252521
v -0.00418239 0.00513587 -0.00380836
v -0.00364382 0.00534062 -0.00331491
v -0.00331717 0.00603682 -0.00479340
v -0.00252808 0.00668735 -0.00584194
v -0.00182562 0.00710445 -0.00690436
v -0.00121785 0.00733423 -0.00792717
v -0.00086618 0.00703114 -0.00532618
v -0.00080975 0.00725641 -0.00669418
v -0.00075638 0.00737435 -0.00787512
v -0.00470103 0.00574562 -0.00973743
v -0.00420650 0.00615509 -0.00927037
v -0.00361225 0.00654998 -0.00883277
v -0.00290861 0.00689792 -0.00844345
v -0.00210405 0.00716805 -0.00813078
v -0.00166895 0.00726516 -0.00801336
v -0.00440171 0.00603062 -0.01032341
v -0.00390981 0.00640082 -0.00993170
v -0.00333491 0.00675338 -0.00957722
v -0.00267128 0.00705787 -0.00927568
v -0.00192830 0.00728562 -0.00904634
v -0.00112429 0.00741516 -0.00890874
v -0.00211829 0.00724301 -0.01136527
v -0.00404799 0.00631557 -0.01226026
v -0.00442030 0.00605717 -0.01256151
v -0.00029372 0.00747434 -0.00975553
v -0.00104416 0.00745500 -0.00976655
v -0.00177566 0.00735015 -0.00985955
v -0.00246171 0.00715811 -0.01003050
v -0.00308601 0.00689566 -0.01026815
v -0.00363925 0.00658696 -0.01055958
v -0.00412400 0.00625833 -0.01089173
v -0.00454710 0.00593190 -0.01125251
v -0.00475119 0.00580149 -0.01287835
v -0.00504284 0.00555072 -0.01320639
v 0.00089244 0.00099544 0.00144887
v 0.00177315 0.00100282 0.00100727
v 0.00259497 0.00099902 0.00048879
v -0.00010930 0.00279193 0.00121615
v -0.00009219 0.00235702 0.00142593
v 0.00081442 0.00235833 0.00109149
v 0.00084231 0.00191489 0.00125042
v 0.00171030 0.00189694 0.00080908
v 0.00154657 0.00352967 -0.00000222
v 0.00072408 0.00359113 0.00040062
v 0.00075489 0.00319878 0.00066364
v 0.00252009 0.00185958 0.00028563
v 0.00326225 0.00180920 -0.00030570
v 0.00402375 0.00096988 -0.00074847
v 0.00461709 0.00094992 -0.00144874
v 0.00512950 0.00092802 -0.00218160
v 0.00392714 0.00175261 -0.00095506
v 0.00451247 0.00169364 -0.00165039
v 0.00501984 0.00163420 -0.00237424
v 0.00545085 0.00157622 -0.00310919
v 0.00512726 0.00281025 -0.00373803
v 0.00494599 0.00335943 -0.00413717
v 0.00470219 0.00293155 -0.00305164
v 0.00452502 0.00350644 -0.00348542
v 0.00421165 0.00305911 -0.00236592
v 0.00404394 0.00366179 -0.00283016
v 0.00365217 0.00318874 -0.00169961
v 0.00476273 0.00386212 -0.00456699
v 0.00387521 0.00420761 -0.00333688
v 0.00349868 0.00382002 -0.00219089
v 0.00302033 0.00331624 -0.00107147
v 0.00530058 0.00221411 -0.00338685
v 0.00487214 0.00230527 -0.00267250
v 0.00437250 0.00240035 -0.00196407
v 0.00379914 0.00249636 -0.00127941
v 0.00314951 0.00259030 -0.00063637
v 0.00242443 0.00267664 -0.00004939
v 0.00611617 0.00146213 -0.00452940
v 0.00597513 0.00204036 -0.00475628
v 0.00581047 0.00258377 -0.00504252
v 0.00563533 0.00308874 -0.00536682
v 0.00545512 0.00355590 -0.00571557
v 0.00509039 0.00438112 -0.00644566
v 0.00440093 0.00473410 -0.00546485
v 0.00354544 0.00513287 -0.00441078
v 0.00370817 0.00469763 -0.00386932
v 0.00319117 0.00489511 -0.00330543
v 0.00334412 0.00438860 -0.00273226
v 0.00274886 0.00456633 -0.00216099
v 0.00288513 0.00397569 -0.00158712
v 0.00220168 0.00411912 -0.00103994
v 0.00231552 0.00343409 -0.00049948
v 0.00163301 0.00274544 0.00046706
v 0.00078514 0.00278707 0.00089492
v 0.00096259 0.00679235 -0.00476880
v 0.00039686 0.00663859 -0.00387242
v -0.00024988 0.00636375 -0.00300970
v -0.00094653 0.00632120 -0.00302238
v -0.00163014 0.00622302 -0.00314747
v -0.00228793 0.00608179 -0.00337295
v -0.00304470 0.00553217 -0.00288954
v -0.00318829 0.00507938 -0.00206323
v 0.00209454 0.00650038 -0.00530133
v 0.00154693 0.00666571 -0.00500196
v 0.00165200 0.00641806 -0.00432937
v 0.00103888 0.00655369 -0.00405746
v 0.00111737 0.00624848 -0.00333746
v 0.00044357 0.00633818 -0.00311827
v 0.00049303 0.00595968 -0.00235940
v -0.00023507 0.00598773 -0.00221962
v -0.00096989 0.00594629 -0.00221001
v -0.00169322 0.00584770 -0.00232499
v -0.00238989 0.00570523 -0.00255476
v 0.00054599 0.00549583 -0.00160536
v 0.00119758 0.00586737 -0.00261587
v 0.00175848 0.00610684 -0.00365007
v 0.00222382 0.00624256 -0.00467306
v 0.00322066 0.00583683 -0.00549017
v 0.00404205 0.00542965 -0.00635952
v 0.00305793 0.00611198 -0.00602359
v 0.00386189 0.00571443 -0.00680236
v -0.00027751 0.00706512 -0.00528956
v 0.00023755 0.00726044 -0.00669418
v -0.00028595 0.00727889 -0.00666491
v 0.00017439 0.00736411 -0.00788488
v -0.00029015 0.00738456 -0.00786014
v 0.00368299 0.00596085 -0.00724058
v 0.00273893 0.00653074 -0.00706438
v 0.00289688 0.00634181 -0.00654923
v 0.00216930 0.00684182 -0.00732082
v 0.00245113 0.00652959 -0.00622018
v 0.00274596 0.00604392 -0.00506721
v 0.00196729 0.00670578 -0.00591870
v 0.00172403 0.00698698 -0.00710070
v 0.00150436 0.00714161 -0.00817903
v 0.00145706 0.00423551 -0.00057093
v 0.00208714 0.00472906 -0.00164627
v 0.00261409 0.00508838 -0.00277319
v 0.00304244 0.00534011 -0.00389213
v 0.00338364 0.00551193 -0.00495167
v 0.00422218 0.00510377 -0.00591329
v 0.00472130 0.00506150 -0.00717909
v 0.00434845 0.00560406 -0.00791052
v 0.00289470 0.00572207 -0.00448055
v 0.00248335 0.00554198 -0.00340387
v 0.00197428 0.00526395 -0.00229689
v 0.00136777 0.00486033 -0.00121164
v 0.00066269 0.00431185 -0.00020029
v 0.00029606 0.00360538 0.00056049
v -0.00012572 0.00320930 0.00096946
v 0.00653348 0.00261097 -0.00749941
v 0.00638906 0.00302176 -0.00770646
v 0.00598888 0.00327725 -0.00675887
v 0.00607362 0.00376910 -0.00816097
v 0.00564216 0.00406204 -0.00734020
v 0.00573267 0.00441206 -0.00864641
v 0.00528073 0.00472488 -0.00793787
v 0.00537557 0.00495280 -0.00915619
v 0.00490980 0.00526987 -0.00854693
v 0.00501494 0.00539792 -0.00968508
v 0.00454087 0.00570624 -0.00916350
v 0.00466341 0.00575404 -0.01022780
v 0.00204877 0.00703678 -0.00938751
v 0.00229807 0.00689650 -0.00851995
v 0.00300671 0.00661730 -0.00892332
v 0.00258552 0.00668320 -0.00756635
v 0.00333434 0.00634946 -0.00809841
v 0.00350670 0.00617162 -0.00767300
v 0.00659397 0.00358058 -0.01197693
v 0.00682346 0.00311555 -0.01174104
v 0.00702778 0.00260597 -0.01154466
v 0.00719882 0.00205514 -0.01139166
v 0.00733099 0.00147233 -0.01128241
v 0.00116419 0.00730009 -0.00996755
v 0.00044865 0.00741746 -0.00982577
v 0.00063143 0.00731482 -0.00794814
v 0.00107630 0.00723967 -0.00804713
v 0.00124976 0.00710989 -0.00691741
v 0.00144422 0.00685806 -0.00566163
v 0.00403753 0.00626685 -0.01130759
v 0.00356816 0.00650901 -0.01098387
v 0.00308092 0.00680640 -0.01207194
v 0.00032631 0.00746217 -0.01126411
v 0.00076790 0.00744999 -0.01248974
v 0.00128243 0.00737757 -0.01258295
v 0.00271630 0.00680618 -0.00969704
v 0.00363404 0.00633115 -0.00934844
v 0.00398248 0.00602263 -0.00863523
v 0.00235385 0.00592540 -0.00403891
v 0.00186541 0.00572380 -0.00297028
v 0.00128064 0.00540425 -0.00190106
v 0.00060293 0.00494664 -0.00087730
v 0.00025041 0.00433091 -0.00005816
v -0.00014136 0.00360666 0.00068938
v 0.00418548 0.00604329 -0.00978364
v 0.00385953 0.00630360 -0.01039457
v 0.00331955 0.00656031 -0.01003538
v 0.00304405 0.00673692 -0.01068422
v 0.00259644 0.00698919 -0.01185133
v 0.00207394 0.00714912 -0.01165841
v 0.00177795 0.00727604 -0.01270472
v 0.00392371 0.00638686 -0.01259289
v 0.00445027 0.00601300 -0.01165350
v 0.00507019 0.00546372 -0.01067980
v 0.00541013 0.00509531 -0.01020183
v 0.00575433 0.00464737 -0.00974469
v 0.00608946 0.00411530 -0.00931529
v 0.00640215 0.00349454 -0.00892049
v 0.00668075 0.00278497 -0.00856790
v 0.00691219 0.00199691 -0.00827782
v 0.00707812 0.00114342 -0.00808055
v 0.00708492 0.00183693 -0.00914154
v 0.00688952 0.00256817 -0.00935805
v 0.00664520 0.00323771 -0.00963389
v 0.00636251 0.00383321 -0.00995728
v 0.00605332 0.00435279 -0.01032116
v 0.00573075 0.00479909 -0.01071805
v 0.00540792 0.00517474 -0.01114049
v 0.00480574 0.00575257 -0.01201994
v 0.00029478 -0.00749228 -0.01118854
v 0.00102340 -0.00736745 -0.00981238
v 0.00149789 -0.00729764 -0.01134022
v 0.00172092 -0.00719557 -0.00995487
v 0.00163026 -0.00714131 -0.00804130
v 0.00119628 -0.00725030 -0.00794166
v 0.00179211 -0.00699175 -0.00691928
v 0.00247303 -0.00653040 -0.00592845
v 0.00225206 -0.00683476 -0.00710218
v 0.00204594 -0.00701124 -0.00817387
v 0.00026125 -0.00663419 -0.00382421
v 0.00222224 -0.00593807 -0.00366537
v 0.00213974 -0.00625739 -0.00434782
v 0.00269392 -0.00604518 -0.00468592
v 0.00205387 -0.00651470 -0.00501934
v 0.00196624 -0.00671771 -0.00567503
v 0.00130667 -0.00712107 -0.00678257
v 0.00074837 -0.00733473 -0.00787800
v 0.00029442 -0.00748164 -0.00974157
v 0.00336689 -0.00610540 -0.00655467
v 0.00308160 -0.00647102 -0.00756724
v 0.00379706 -0.00608662 -0.00809859
v 0.00349098 -0.00637918 -0.00891892
v 0.00408860 -0.00604974 -0.00934330
v 0.00353185 -0.00649570 -0.01067066
v 0.00260338 -0.00697375 -0.01163652
v 0.00310574 -0.00677761 -0.01182792
v 0.00231852 -0.00712200 -0.01267013
v 0.00281196 -0.00670843 -0.00851556
v 0.00268171 -0.00665833 -0.00732201
v 0.00293928 -0.00632229 -0.00622742
v 0.00319722 -0.00581336 -0.00507637
v 0.00279967 -0.00571818 -0.00404923
v 0.00229977 -0.00554902 -0.00297691
v 0.00088627 -0.00680144 -0.00464328
v 0.00091190 -0.00656265 -0.00390366
v 0.00024951 -0.00633535 -0.00303977
v 0.00093513 -0.00625883 -0.00314516
v 0.00023490 -0.00596317 -0.00223494
v 0.00095524 -0.00588098 -0.00237294
v 0.00021695 -0.00550627 -0.00142425
v 0.00097255 -0.00541972 -0.00159988
v 0.00019545 -0.00495898 -0.00063871
v 0.00098686 -0.00487108 -0.00085393
v 0.00058832 -0.00428357 -0.00002027
v 0.00057693 -0.00355167 0.00060235
v 0.00100199 -0.00350541 0.00044057
v 0.00099705 -0.00423349 -0.00016408
v 0.00003735 -0.00093665 0.00180328
v 0.00096587 -0.00088887 0.00144799
v 0.00185073 -0.00173012 0.00081475
v 0.00184052 -0.00258751 0.00048870
v 0.00251340 -0.00392673 -0.00101520
v 0.00244601 -0.00454428 -0.00162949
v 0.00309166 -0.00433472 -0.00214803
v 0.00299677 -0.00486507 -0.00276811
v 0.00355580 -0.00463316 -0.00330151
v 0.00344010 -0.00508788 -0.00389478
v 0.00392418 -0.00484842 -0.00441308
v 0.00405468 -0.00440186 -0.00386694
v 0.00418437 -0.00389981 -0.00333090
v 0.00367011 -0.00411620 -0.00272289
v 0.00378090 -0.00353604 -0.00217760
v 0.00318240 -0.00373432 -0.00156852
v 0.00326688 -0.00306313 -0.00105052
v 0.00257429 -0.00323131 -0.00047196
v 0.00262354 -0.00246172 -0.00002968
v 0.00266320 -0.00076923 0.00049329
v 0.00265480 -0.00163468 0.00029471
v 0.00339057 -0.00153200 -0.00029612
v 0.00333918 -0.00232408 -0.00061988
v 0.00397901 -0.00218518 -0.00126706
v 0.00388605 -0.00289174 -0.00168435
v 0.00443286 -0.00272440 -0.00235570
v 0.00431113 -0.00334106 -0.00282159
v 0.00477755 -0.00315425 -0.00348092
v 0.00463929 -0.00369152 -0.00395214
v 0.00503975 -0.00349731 -0.00456669
v 0.00592135 0.00088119 -0.00366765
v 0.00556185 0.00090514 -0.00292938
v 0.00518720 0.00020178 -0.00211316
v 0.00518429 -0.00052630 -0.00218055
v 0.00512823 -0.00123908 -0.00237266
v 0.00264387 0.00011556 0.00055819
v 0.00341358 -0.00070415 -0.00009325
v 0.00404877 -0.00142955 -0.00094772
v 0.00454256 -0.00205062 -0.00195589
v 0.00491104 -0.00256484 -0.00304574
v 0.00518459 -0.00298053 -0.00413598
v 0.00570335 -0.00314851 -0.00571850
v 0.00365276 -0.00557629 -0.00549693
v 0.00411673 -0.00567340 -0.00724400
v 0.00441280 -0.00571654 -0.00863436
v 0.00461096 -0.00572501 -0.00977709
v 0.00403118 -0.00623236 -0.01096862
v 0.00356914 -0.00656257 -0.01204644
v 0.00447582 -0.00595993 -0.01129009
v 0.00506086 -0.00540524 -0.01021921
v 0.00494030 -0.00536373 -0.00916106
v 0.00474786 -0.00527343 -0.00791258
v 0.00443659 -0.00511720 -0.00636413
v 0.00332150 -0.00548041 -0.00448778
v 0.00289983 -0.00532610 -0.00340779
v 0.00237413 -0.00508478 -0.00229124
v 0.00544111 -0.00509064 -0.01066859
v 0.00575329 -0.00470001 -0.01019450
v 0.00538524 -0.00502571 -0.00968049
v 0.00571325 -0.00455772 -0.00915461
v 0.00527714 -0.00490343 -0.00854740
v 0.00560857 -0.00433452 -0.00794019
v 0.00508108 -0.00470600 -0.00718268
v 0.00539979 -0.00399981 -0.00644939
v 0.00474328 -0.00439568 -0.00546797
v 0.00489195 -0.00396856 -0.00501496
v 0.00592169 -0.00364742 -0.00734351
v 0.00603140 -0.00399462 -0.00864696
v 0.00606483 -0.00423064 -0.00974039
v 0.00555301 -0.00115448 -0.00311000
v 0.00596992 -0.00043228 -0.00366882
v 0.00561345 -0.00047696 -0.00292965
v 0.00597664 0.00022527 -0.00360976
v 0.00561906 0.00021497 -0.00286575
v 0.00545191 -0.00180522 -0.00338571
v 0.00610949 -0.00159239 -0.00475894
v 0.00598583 -0.00214972 -0.00504459
v 0.00646664 -0.00191105 -0.00623773
v 0.00665374 -0.00086792 -0.00584552
v 0.00694727 -0.00074927 -0.00703351
v 0.00670056 -0.00031686 -0.00573249
v 0.00697950 -0.00025369 -0.00695428
v 0.00670440 0.00024344 -0.00569189
v 0.00697919 0.00024822 -0.00692611
v 0.00666027 0.00080256 -0.00573049
v 0.00694396 0.00074924 -0.00695274
v 0.00657377 0.00134921 -0.00584164
v 0.00687673 0.00124160 -0.00703049
v 0.00645387 0.00187423 -0.00601445
v 0.00678201 0.00171876 -0.00715341
v 0.00631083 0.00237218 -0.00623428
v 0.00666563 0.00217629 -0.00731285
v 0.00615431 0.00283989 -0.00648574
v 0.00620675 -0.00100273 -0.00453278
v 0.00626498 -0.00039082 -0.00438407
v 0.00627159 0.00023323 -0.00433071
v 0.00621932 0.00085580 -0.00438235
v 0.00519647 -0.00540037 -0.01199682
v 0.00470174 -0.00584318 -0.01285689
v 0.00600731 -0.00448793 -0.01159098
v 0.00547785 -0.00512442 -0.01237697
v 0.00319636 -0.00678149 -0.01299318
v 0.00399098 -0.00633228 -0.01229138
v 0.00486434 -0.00568103 -0.01163333
v 0.00575408 -0.00478323 -0.01112630
v 0.00604896 -0.00438683 -0.01070761
v 0.00571591 -0.00485852 -0.01276888
v 0.00621124 -0.00420941 -0.01205808
v 0.00628114 -0.00409041 -0.01122031
v 0.00633921 -0.00392080 -0.01031370
v 0.00636189 -0.00367812 -0.00931325
v 0.00632622 -0.00332975 -0.00816290
v 0.00621120 -0.00283889 -0.00676258
v 0.00584835 -0.00266799 -0.00536968
v 0.00532432 -0.00241683 -0.00373568
v 0.00503261 -0.00192307 -0.00266818
v 0.00462740 -0.00133134 -0.00164590
v 0.00408533 -0.00064071 -0.00074435
v 0.00340074 0.00014217 -0.00002530
v 0.00334859 0.00098693 -0.00009846
v 0.00658824 -0.00256203 -0.00770918
v 0.00663064 -0.00303804 -0.00892008
v 0.00661148 -0.00338276 -0.00995218
v 0.00654729 -0.00363214 -0.01087711
v 0.00705034 -0.00208662 -0.00935622
v 0.00719511 -0.00134433 -0.00914066
v 0.00727559 -0.00055788 -0.00900077
v 0.00718030 -0.00188923 -0.01008447
v 0.00657280 -0.00140192 -0.00601819
v 0.00688722 -0.00123276 -0.00715643
v 0.00714064 -0.00064599 -0.00808207
v 0.00716111 -0.00019995 -0.00802876
v 0.00730195 -0.00120278 -0.00992058
v 0.00736626 -0.00048385 -0.00981861
v 0.00737095 0.00025101 -0.00978418
v 0.00731613 0.00098410 -0.00981974
v 0.00720281 0.00169742 -0.00992323
v 0.00703480 0.00237485 -0.01008861
v 0.00681957 0.00300348 -0.01030842
v 0.00656547 0.00357097 -0.01057677
v 0.00628354 0.00407431 -0.01088762
v 0.00598577 0.00451465 -0.01123381
v 0.00568416 0.00489313 -0.01160819
v 0.00539054 0.00521625 -0.01200090
v 0.00746121 -0.00036982 -0.01121421
v 0.00741291 -0.00097936 -0.01127718
v 0.00732005 -0.00156886 -0.01138406
v 0.00718645 -0.00212886 -0.01153467
v 0.00701721 -0.00265000 -0.01172838
v 0.00682006 -0.00312813 -0.01196144
v -0.00533377 -0.00521974 -0.01200864
v -0.00579399 -0.00475824 -0.01285604
v -0.00152468 -0.00739357 -0.01133857
v -0.00093462 -0.00748604 -0.01123312
v -0.00117966 -0.00747465 -0.00984474
v -0.00187254 -0.00733927 -0.01001471
v -0.00250973 -0.00713016 -0.01025064
v -0.00308006 -0.00687021 -0.01053984
v -0.00358400 -0.00658547 -0.01086975
v -0.00441626 -0.00602109 -0.01160642
v -0.00387865 -0.00638318 -0.01030715
v -0.00419937 -0.00612536 -0.00972748
v -0.00336383 -0.00670813 -0.00991793
v -0.00367828 -0.00648833 -0.00926351
v -0.00276803 -0.00700932 -0.00956576
v -0.00305929 -0.00682891 -0.00882877
v 0.00029090 -0.00739108 -0.00785336
v 0.00080251 -0.00721757 -0.00669737
v 0.00142508 -0.00687157 -0.00548218
v 0.00148429 -0.00668036 -0.00479216
v 0.00154190 -0.00643347 -0.00408263
v 0.00159672 -0.00612235 -0.00335886
v 0.00164755 -0.00573845 -0.00262611
v 0.00169550 -0.00527444 -0.00189536
v 0.00174073 -0.00472796 -0.00119116
v 0.00178151 -0.00409785 -0.00053986
v 0.00181612 -0.00338298 0.00003210
v -0.00629167 -0.00403492 -0.01227824
v -0.00693813 -0.00283029 -0.01280270
v -0.00652676 -0.00360976 -0.01202197
v -0.00712674 -0.00210580 -0.01142730
v -0.00694934 -0.00264312 -0.01159218
v -0.00704991 -0.00166140 -0.00811475
v -0.00728195 -0.00105489 -0.00983350
v -0.00714017 -0.00175550 -0.00995196
v -0.00735387 -0.00032799 -0.00979222
v -0.00710339 -0.00237240 -0.01264892
v -0.00674732 -0.00314513 -0.01179206
v -0.00455440 -0.00580878 -0.00911730
v -0.00403131 -0.00620513 -0.00855575
v -0.00338971 -0.00658016 -0.00801157
v -0.00261970 -0.00690189 -0.00750632
v -0.00536514 -0.00492103 -0.00779623
v -0.00580549 -0.00429481 -0.00710179
v -0.00533815 -0.00470360 -0.00603888
v -0.00208809 -0.00725658 -0.00926564
v -0.00133575 -0.00742285 -0.00903646
v -0.00233572 -0.00711488 -0.00844113
v -0.00151875 -0.00731739 -0.00812813
v -0.00218943 -0.00703407 -0.00728026
v -0.00173159 -0.00714279 -0.00707944
v -0.00197795 -0.00685786 -0.00586115
v -0.00247965 -0.00673182 -0.00612998
v -0.00226220 -0.00640800 -0.00446855
v -0.00337539 -0.00641766 -0.00675317
v -0.00294609 -0.00658409 -0.00643023
v -0.00332090 -0.00611445 -0.00520252
v -0.00281423 -0.00627091 -0.00481322
v -0.00319888 -0.00560076 -0.00332069
v -0.00192516 -0.00585479 -0.00256454
v -0.00241992 -0.00610415 -0.00370539
v -0.00179247 -0.00622082 -0.00339544
v -0.00166822 -0.00652183 -0.00418440
v -0.00144367 -0.00695864 -0.00563445
v -0.00124882 -0.00722468 -0.00691083
v -0.00108099 -0.00737937 -0.00800974
v -0.00053094 -0.00748850 -0.00889811
v -0.00132328 -0.00549034 -0.00148124
v -0.00122269 -0.00593883 -0.00233757
v -0.00112943 -0.00630551 -0.00317416
v -0.00104202 -0.00660390 -0.00397488
v -0.00088394 -0.00702823 -0.00546124
v -0.00074700 -0.00727636 -0.00678194
v -0.00062974 -0.00741282 -0.00792230
v -0.00666527 -0.00274957 -0.00734283
v -0.00694678 -0.00208462 -0.00822820
v -0.00524859 -0.00318537 -0.00178701
v -0.00567221 -0.00306692 -0.00266061
v -0.00543621 -0.00366751 -0.00315584
v -0.00578061 -0.00351805 -0.00394994
v -0.00553882 -0.00403772 -0.00443062
v -0.00582592 -0.00386237 -0.00512999
v -0.00558462 -0.00430973 -0.00557600
v -0.00623702 -0.00350555 -0.00643169
v -0.00602643 -0.00392187 -0.00675724
v -0.00650032 -0.00316640 -0.00755991
v -0.00612567 -0.00390186 -0.00806025
v -0.00680818 -0.00230182 -0.00715705
v -0.00642989 -0.00304727 -0.00613694
v -0.00659765 -0.00254848 -0.00588481
v -0.00605254 -0.00336257 -0.00472030
v -0.00625497 -0.00281140 -0.00436644
v -0.00600107 -0.00294163 -0.00353012
v -0.00618842 -0.00231498 -0.00319759
v -0.00633548 -0.00165108 -0.00296100
v -0.00642279 -0.00221534 -0.00408894
v -0.00673343 -0.00201457 -0.00568603
v -0.00692455 -0.00182688 -0.00700874
v -0.00711977 0.00021274 -0.00683388
v -0.00711088 -0.00030526 -0.00681186
v -0.00694622 -0.00029159 -0.00542944
v -0.00664065 -0.00093503 -0.00377716
v -0.00643794 -0.00096189 -0.00282023
v -0.00616535 -0.00098582 -0.00179356
v -0.00713033 -0.00122216 -0.00803126
v -0.00718718 -0.00077176 -0.00797970
v -0.00721958 -0.00031505 -0.00796204
v -0.00720985 0.00059657 -0.00803027
v -0.00375011 -0.00544590 -0.00381292
v -0.00341205 -0.00516561 -0.00252086
v -0.00277021 -0.00529823 -0.00205837
v -0.00296158 -0.00477605 -0.00122268
v -0.00221909 -0.00487943 -0.00085866
v -0.00494554 -0.00541651 -0.00847081
v -0.00486382 -0.00534725 -0.00694038
v -0.00503129 -0.00490349 -0.00548062
v -0.00528572 -0.00449979 -0.00494866
v -0.00492396 -0.00468224 -0.00430949
v -0.00518353 -0.00420614 -0.00371438
v -0.00474887 -0.00436581 -0.00300127
v -0.00500425 -0.00380914 -0.00236285
v -0.00447925 -0.00394192 -0.00161490
v -0.00472057 -0.00329571 -0.00096426
v -0.00408885 -0.00339575 -0.00024429
v -0.00424030 -0.00527653 -0.00435154
v -0.00398652 -0.00501703 -0.00306837
v -0.00363551 -0.00465329 -0.00172199
v -0.00352154 -0.00411923 -0.00066794
v -0.00055530 -0.00552645 -0.00138484
v -0.00017058 -0.00741697 -0.00786909
v -0.00023297 -0.00729460 -0.00669919
v -0.00030736 -0.00706013 -0.00535123
v -0.00039505 -0.00664457 -0.00385111
v -0.00044428 -0.00634732 -0.00305209
v -0.00049733 -0.00597889 -0.00222478
v -0.00335415 -0.00348332 0.00032098
v -0.00315788 -0.00417131 -0.00041963
v -0.00295120 -0.00352161 0.00053118
v -0.00258877 -0.00573855 -0.00289694
v -0.00206794 -0.00541018 -0.00170768
v -0.00143038 -0.00495247 -0.00063915
v -0.00196266 -0.00429674 0.00007472
v -0.00154136 -0.00432369 0.00015694
v -0.00111411 -0.00434085 0.00019897
v -0.00071821 -0.00399333 0.00055520
v 0.00015637 -0.00396451 0.00042438
v -0.00025497 -0.00434015 0.00016512
v 0.00017032 -0.00431945 0.00009056
v -0.00021001 -0.00497859 -0.00058360
v 0.00012571 -0.00318434 0.00100520
v 0.00014149 -0.00358584 0.00073233
v -0.00504839 -0.00220608 -0.00017226
v -0.00494645 -0.00258277 -0.00040637
v -0.00556877 -0.00213963 -0.00111142
v -0.00547066 -0.00250047 -0.00130746
v -0.00587937 -0.00241069 -0.00226043
v -0.00483314 -0.00184033 0.00046864
v -0.00521867 -0.00142204 0.00018777
v -0.00513991 -0.00181852 0.00002702
v -0.00573008 -0.00139019 -0.00081655
v -0.00565584 -0.00176894 -0.00094713
v -0.00604676 -0.00171261 -0.00196982
v -0.00463369 -0.00102533 0.00118694
v -0.00497629 -0.00102287 0.00077147
v -0.00502307 -0.00060528 0.00085078
v -0.00468013 -0.00059883 0.00127154
v -0.00470723 -0.00016907 0.00129857
v -0.00432528 -0.00015238 0.00165577
v -0.00471325 0.00026133 0.00126493
v -0.00433229 0.00028664 0.00162059
v -0.00469984 0.00068973 0.00117440
v -0.00432099 0.00072347 0.00152618
v -0.00429362 0.00115551 0.00137810
v -0.00419248 -0.00145541 0.00139761
v -0.00425335 -0.00102590 0.00153981
v -0.00429842 -0.00059081 0.00162767
v -0.00387660 -0.00058114 0.00190566
v -0.00390279 -0.00013445 0.00193389
v -0.00344793 -0.00011562 0.00212756
v -0.00391131 0.00031274 0.00189849
v -0.00345823 0.00033918 0.00209334
v -0.00390349 0.00075757 0.00180342
v -0.00345460 0.00079148 0.00200099
v -0.00388113 0.00119735 0.00165408
v -0.00343834 0.00123851 0.00185504
v -0.00384607 0.00162938 0.00145589
v -0.00532860 -0.00061020 0.00037888
v -0.00505004 -0.00018453 0.00087603
v -0.00505553 0.00023689 0.00084490
v -0.00504118 0.00065645 0.00076068
v -0.00312088 -0.00274366 0.00117629
v -0.00260726 -0.00316963 0.00102564
v -0.00222586 -0.00278279 0.00142531
v -0.00268046 -0.00276569 0.00132754
v -0.00233930 -0.00191773 0.00189791
v -0.00442735 -0.00583626 -0.00778036
v -0.00455054 -0.00555508 -0.00650067
v -0.00466729 -0.00509524 -0.00491444
v -0.00449128 -0.00485504 -0.00367367
v -0.00423207 -0.00451570 -0.00232599
v -0.00386315 -0.00406344 -0.00095337
v -0.00373433 -0.00344123 0.00006093
v -0.00393881 -0.00268818 0.00069909
v -0.00354282 -0.00271758 0.00096789
v -0.00370843 -0.00189174 0.00148090
v -0.00326964 -0.00190365 0.00168355
v -0.00377730 -0.00146212 0.00167381
v -0.00333176 -0.00146649 0.00187322
v -0.00383406 -0.00102448 0.00181718
v -0.00338335 -0.00102113 0.00201372
v -0.00342266 -0.00057002 0.00210013
v -0.00294917 -0.00055770 0.00222046
v -0.00297347 -0.00009635 0.00224644
v -0.00248451 -0.00007682 0.00229907
v -0.00298547 0.00036532 0.00221444
v -0.00249810 0.00039082 0.00227001
v -0.00298594 0.00082440 0.00212728
v -0.00281169 -0.00191249 0.00182059
v -0.00286686 -0.00146833 0.00200336
v -0.00238748 -0.00146734 0.00207114
v -0.00291316 -0.00101589 0.00213804
v -0.00242849 -0.00100860 0.00219793
v -0.00246120 -0.00054421 0.00227498
v -0.00196380 -0.00052956 0.00227208
v -0.00148343 -0.00003763 0.00223983
v -0.00176138 -0.00279406 0.00147324
v -0.00181120 -0.00236341 0.00171723
v -0.00185719 -0.00191886 0.00192142
v -0.00189850 -0.00146317 0.00208351
v -0.00193432 -0.00099914 0.00220116
v -0.00075259 -0.00361598 0.00088363
v -0.00078672 -0.00321576 0.00117793
v -0.00082003 -0.00279550 0.00143419
v -0.00085214 -0.00235816 0.00165191
v -0.00088267 -0.00190669 0.00183058
v -0.00091125 -0.00144402 0.00196972
v -0.00093749 -0.00097311 0.00206882
v -0.00098148 -0.00001833 0.00214508
v -0.00096103 -0.00049691 0.00212739
f 912 913 911
f 2 1 80
f 191 1 35
f 35 428 191
f 2 77 36
f 81 77 2
f 132 817 816
f 816 817 17
f 37 17 815
f 17 817 815
f 28 27 45
f 859 861 858
f 820 827 825
f 819 827 820
f 858 827 819
f 37 819 29
f 29 819 820
f 31 30 225
f 223 38 31
f 35 34 429
f 41 40 205
f 552 537 478
f 478 550 552
f 758 759 735
f 8 7 74
f 230 33 91
f 91 231 230
f 92 233 232
f 90 33 230
f 90 89 33
f 920 275 276
f 267 274 266
f 275 274 267
f 230 231 242
f 276 275 242
f 244 232 233
f 918 848 846
f 77 81 579
f 580 579 570
f 77 579 580
f 78 36 580
f 580 36 77
f 735 759 693
f 46 27 15
f 184 3 28
f 921 922 938
f 938 922 1012
f 1012 1011 938
f 121 948 949
f 940 924 949
f 949 924 121
f 1003 1018 1017
f 952 924 923
f 871 922 921
f 921 869 871
f 860 827 858
f 858 861 860
f 876 875 864
f 818 815 817
f 858 819 818
f 37 815 818
f 818 859 858
f 817 859 818
f 818 819 37
f 828 825 827
f 828 854 853
f 827 860 828
f 828 860 854
f 968 890 967
f 905 890 968
f 891 890 892
f 892 890 905
f 935 933 934
f 1012 922 939
f 939 934 1012
f 1013 934 939
f 939 922 923
f 923 924 939
f 939 924 940
f 940 1013 939
f 889 933 935
f 967 890 889
f 891 933 889
f 889 890 891
f 921 938 937
f 937 938 1011
f 932 1011 1012
f 1012 934 932
f 932 934 933
f 930 1011 932
f 1009 130 129
f 1009 928 927
f 868 854 865
f 129 130 128
f 128 937 129
f 128 869 921
f 921 937 128
f 927 928 857
f 929 928 930
f 929 857 928
f 105 225 30
f 853 130 852
f 97 19 18
f 20 19 94
f 99 223 31
f 423 428 35
f 35 429 423
f 423 429 428
f 430 34 23
f 430 429 34
f 208 210 209
f 203 40 39
f 212 9 211
f 567 568 205
f 206 41 205
f 205 568 206
f 39 42 66
f 42 202 66
f 802 565 564
f 68 42 11
f 613 805 806
f 58 9 212
f 748 746 160
f 745 758 743
f 746 748 745
f 7 36 79
f 457 463 459
f 459 456 457
f 463 478 479
f 32 91 33
f 32 20 92
f 231 232 243
f 276 242 243
f 243 242 231
f 232 244 243
f 243 848 276
f 243 244 848
f 231 91 93
f 93 232 231
f 92 232 93
f 93 32 92
f 91 32 93
f 23 22 82
f 403 404 387
f 382 175 383
f 435 22 21
f 86 87 227
f 229 90 230
f 89 90 229
f 239 240 265
f 265 267 266
f 240 267 265
f 266 264 265
f 275 920 251
f 251 274 275
f 251 920 911
f 275 267 269
f 269 242 275
f 1001 981 1002
f 985 984 996
f 307 306 298
f 298 1001 1002
f 913 912 124
f 124 294 913
f 914 294 124
f 912 918 124
f 124 918 127
f 919 918 912
f 848 918 919
f 919 912 911
f 911 920 919
f 276 848 919
f 919 920 276
f 917 918 846
f 127 918 917
f 846 845 917
f 570 579 578
f 569 580 570
f 1 191 192
f 192 193 190
f 190 80 192
f 192 80 1
f 570 578 426
f 428 429 421
f 169 170 406
f 406 170 171
f 1036 1042 1049
f 1026 1035 1036
f 1036 1035 1042
f 437 147 698
f 146 698 147
f 44 45 27
f 27 46 44
f 44 220 45
f 617 220 44
f 44 46 642
f 633 45 221
f 45 220 221
f 106 184 28
f 615 184 106
f 28 45 106
f 106 45 633
f 633 615 106
f 3 184 131
f 131 184 615
f 131 615 633
f 743 758 757
f 757 758 735
f 616 220 617
f 616 221 220
f 633 221 616
f 950 948 121
f 964 967 965
f 967 889 965
f 965 889 935
f 113 965 935
f 964 965 113
f 936 1013 940
f 936 113 935
f 935 934 936
f 936 934 1013
f 1016 1003 1017
f 1016 1015 948
f 948 950 1016
f 1016 950 1003
f 872 952 923
f 883 875 876
f 870 871 869
f 870 868 865
f 869 868 870
f 862 860 861
f 854 860 862
f 865 854 862
f 862 864 865
f 30 29 104
f 820 136 104
f 905 968 906
f 907 906 974
f 974 906 968
f 894 892 903
f 903 892 905
f 129 937 1010
f 1010 1009 129
f 928 1009 1010
f 930 928 1010
f 1010 1011 930
f 1010 937 1011
f 930 932 931
f 931 929 930
f 931 933 891
f 931 932 933
f 867 128 130
f 867 130 853
f 867 868 869
f 869 128 867
f 853 854 867
f 854 868 867
f 894 903 896
f 896 903 901
f 857 929 895
f 895 856 857
f 130 1009 1008
f 1008 852 130
f 1008 1009 927
f 927 926 1008
f 851 852 1008
f 1008 926 851
f 183 18 16
f 92 20 95
f 20 94 95
f 95 233 92
f 98 19 97
f 98 94 19
f 181 845 846
f 847 845 181
f 888 845 847
f 31 225 224
f 224 99 31
f 223 99 222
f 99 224 222
f 851 926 222
f 222 224 851
f 431 430 23
f 23 82 431
f 429 430 420
f 414 415 420
f 420 421 429
f 415 421 420
f 43 41 61
f 65 203 39
f 565 203 65
f 743 742 744
f 744 745 743
f 746 745 744
f 800 607 799
f 799 567 800
f 568 567 799
f 799 798 568
f 802 609 801
f 801 565 802
f 608 607 800
f 605 607 608
f 800 801 608
f 608 801 609
f 59 9 43
f 59 211 9
f 43 210 59
f 210 211 59
f 40 203 204
f 204 567 205
f 62 61 41
f 209 61 62
f 208 209 207
f 207 206 568
f 209 62 207
f 207 62 206
f 568 798 207
f 207 797 208
f 207 798 797
f 160 797 162
f 797 798 162
f 162 799 607
f 798 799 162
f 39 564 67
f 186 564 39
f 202 564 186
f 39 66 186
f 186 66 202
f 600 553 601
f 538 514 537
f 42 68 200
f 200 68 805
f 805 804 200
f 72 806 11
f 613 806 189
f 806 72 189
f 189 72 11
f 805 68 199
f 199 806 805
f 199 68 11
f 11 806 199
f 201 804 202
f 42 200 201
f 201 200 804
f 202 804 803
f 802 564 803
f 803 564 202
f 26 25 53
f 25 216 53
f 747 745 748
f 759 758 747
f 758 745 747
f 8 74 75
f 197 10 8
f 8 597 197
f 577 593 576
f 576 593 592
f 73 74 7
f 7 79 73
f 596 36 78
f 596 79 36
f 78 580 596
f 580 569 596
f 596 569 572
f 694 693 455
f 458 467 456
f 458 456 459
f 460 462 469
f 476 457 456
f 473 693 759
f 473 455 693
f 536 478 537
f 536 479 478
f 537 514 536
f 514 535 536
f 570 426 520
f 520 426 521
f 574 529 573
f 572 165 573
f 559 529 525
f 533 540 541
f 484 541 532
f 533 541 484
f 425 82 22
f 176 175 382
f 386 175 176
f 382 387 176
f 404 386 176
f 176 387 404
f 384 383 412
f 382 383 381
f 381 383 384
f 413 175 414
f 413 383 175
f 418 412 413
f 413 412 383
f 249 379 285
f 227 239 234
f 234 86 227
f 235 86 234
f 89 229 228
f 228 6 33
f 33 89 228
f 228 229 240
f 228 239 227
f 228 240 239
f 263 265 264
f 263 261 268
f 241 269 267
f 241 267 240
f 240 229 241
f 241 229 230
f 230 242 241
f 242 269 241
f 1019 986 1017
f 1017 1018 1019
f 975 986 987
f 986 1019 987
f 987 1019 1021
f 1027 1028 328
f 328 1029 1027
f 1002 981 983
f 981 984 983
f 983 984 985
f 983 315 1002
f 445 531 543
f 532 541 542
f 542 541 586
f 543 531 542
f 485 484 532
f 437 442 436
f 436 442 338
f 338 148 436
f 436 147 437
f 436 148 147
f 443 447 488
f 488 441 443
f 443 441 442
f 443 442 437
f 488 447 472
f 471 487 472
f 543 542 587
f 587 542 586
f 345 344 364
f 338 442 336
f 336 337 338
f 335 337 336
f 440 335 336
f 336 441 440
f 442 441 336
f 338 337 339
f 339 148 338
f 341 328 329
f 328 1028 329
f 164 490 574
f 574 573 164
f 164 573 165
f 164 166 490
f 506 492 493
f 493 492 168
f 166 168 491
f 503 501 491
f 491 492 503
f 168 492 491
f 490 166 491
f 491 501 490
f 167 168 166
f 354 355 356
f 395 386 404
f 395 404 403
f 393 170 169
f 172 170 393
f 508 497 356
f 1002 315 308
f 308 298 1002
f 307 298 308
f 315 309 308
f 1001 298 297
f 297 298 306
f 307 308 312
f 312 308 309
f 392 290 303
f 260 270 303
f 311 270 259
f 259 305 311
f 311 306 307
f 311 305 306
f 271 270 260
f 259 270 271
f 274 251 253
f 295 291 256
f 256 254 295
f 295 254 294
f 295 294 914
f 900 909 910
f 910 888 900
f 845 888 910
f 127 917 910
f 910 917 845
f 914 124 125
f 125 124 127
f 127 910 125
f 125 910 909
f 902 909 900
f 194 579 81
f 194 578 579
f 194 426 578
f 193 426 194
f 190 193 194
f 194 81 2
f 194 80 190
f 2 80 194
f 519 409 517
f 171 170 408
f 408 409 171
f 517 409 408
f 408 170 172
f 408 167 517
f 172 167 408
f 193 192 427
f 427 426 193
f 427 191 428
f 427 192 191
f 385 406 415
f 169 406 385
f 1042 1035 1034
f 1032 1041 1034
f 1034 1041 1042
f 448 452 471
f 471 472 448
f 448 472 447
f 448 447 782
f 782 145 449
f 449 448 782
f 452 448 449
f 449 145 144
f 781 145 782
f 699 145 781
f 437 698 438
f 782 447 438
f 438 781 782
f 698 781 438
f 438 443 437
f 447 443 438
f 147 148 664
f 664 146 147
f 664 339 663
f 148 339 664
f 15 764 47
f 47 46 15
f 642 46 47
f 14 764 15
f 623 622 630
f 133 131 132
f 3 131 133
f 17 3 133
f 132 816 133
f 133 816 17
f 829 131 633
f 52 12 763
f 770 762 26
f 218 12 26
f 26 762 218
f 144 145 780
f 780 145 699
f 792 791 142
f 783 140 142
f 690 702 689
f 736 734 735
f 735 693 736
f 736 693 694
f 736 696 734
f 694 451 736
f 738 791 756
f 756 732 738
f 633 616 632
f 632 616 620
f 632 829 633
f 115 986 975
f 948 1015 1014
f 1014 936 940
f 940 949 1014
f 1014 949 948
f 113 936 114
f 1015 115 114
f 114 115 113
f 114 1014 1015
f 936 1014 114
f 951 872 923
f 923 922 951
f 922 871 951
f 663 1049 149
f 149 664 663
f 156 1047 1046
f 150 1047 156
f 1046 1047 1040
f 1040 1047 1041
f 1040 1041 1032
f 1032 1007 1040
f 682 683 699
f 698 146 682
f 699 781 682
f 682 781 698
f 651 947 946
f 881 872 882
f 882 946 881
f 881 946 947
f 952 872 881
f 863 862 861
f 876 864 863
f 864 862 863
f 103 29 820
f 820 104 103
f 103 104 29
f 907 974 916
f 973 974 968
f 1000 297 296
f 1001 297 1000
f 929 931 893
f 893 892 894
f 891 892 893
f 893 931 891
f 894 895 893
f 893 895 929
f 855 926 927
f 927 857 855
f 857 856 855
f 856 226 855
f 825 823 821
f 820 825 821
f 821 136 820
f 821 104 136
f 225 105 134
f 134 821 823
f 826 823 825
f 852 823 826
f 853 852 826
f 826 828 853
f 825 828 826
f 18 183 96
f 97 18 96
f 96 849 97
f 842 899 898
f 898 899 896
f 898 896 901
f 182 181 846
f 233 95 182
f 182 244 233
f 846 848 182
f 848 244 182
f 97 849 245
f 245 98 97
f 847 181 245
f 824 823 852
f 824 852 851
f 851 224 824
f 223 222 813
f 813 222 926
f 926 855 813
f 418 431 424
f 424 431 82
f 82 425 424
f 60 210 43
f 43 61 60
f 60 209 210
f 60 61 209
f 187 65 39
f 565 65 187
f 39 67 187
f 187 564 565
f 187 67 564
f 787 139 138
f 140 139 787
f 809 213 212
f 810 213 809
f 160 746 161
f 161 797 160
f 807 211 210
f 807 210 208
f 208 797 807
f 552 550 551
f 551 553 552
f 601 553 551
f 551 602 601
f 205 40 64
f 64 204 205
f 40 204 64
f 567 204 566
f 565 801 566
f 566 203 565
f 566 204 203
f 800 567 566
f 566 801 800
f 41 206 63
f 63 62 41
f 206 62 63
f 606 607 605
f 606 162 607
f 606 748 160
f 160 162 606
f 612 600 601
f 613 600 612
f 612 805 613
f 612 804 805
f 553 600 555
f 69 202 42
f 42 201 69
f 69 201 202
f 601 602 611
f 611 612 601
f 611 803 804
f 804 612 611
f 24 9 57
f 57 213 24
f 9 58 57
f 57 58 212
f 212 213 57
f 56 214 24
f 24 213 56
f 810 214 56
f 56 213 810
f 26 53 217
f 217 53 216
f 217 770 26
f 55 25 24
f 55 215 25
f 24 214 55
f 811 214 810
f 811 812 215
f 811 55 214
f 215 55 811
f 811 810 138
f 76 597 8
f 8 75 76
f 577 576 196
f 196 74 577
f 196 75 74
f 597 76 196
f 196 76 75
f 70 197 198
f 10 197 70
f 195 73 79
f 577 74 195
f 74 73 195
f 79 596 195
f 595 195 596
f 572 573 530
f 530 573 529
f 530 529 559
f 559 558 530
f 558 595 530
f 530 596 572
f 530 595 596
f 453 451 454
f 454 469 453
f 454 451 694
f 694 455 454
f 470 469 462
f 471 452 470
f 470 452 453
f 453 469 470
f 550 478 477
f 477 478 463
f 463 457 477
f 457 476 477
f 467 455 474
f 455 473 474
f 570 520 571
f 572 569 571
f 571 569 570
f 571 165 572
f 560 581 559
f 582 592 560
f 592 593 560
f 593 581 560
f 513 535 514
f 514 538 516
f 516 513 514
f 515 513 516
f 584 512 511
f 585 541 540
f 585 584 511
f 540 584 585
f 511 510 585
f 585 510 586
f 586 541 585
f 463 479 481
f 483 482 533
f 533 484 483
f 22 435 434
f 435 247 434
f 380 381 384
f 380 384 285
f 285 379 380
f 430 431 419
f 419 413 414
f 419 431 418
f 418 413 419
f 414 420 419
f 419 420 430
f 285 384 411
f 248 247 435
f 248 249 285
f 285 411 248
f 248 411 247
f 84 435 21
f 84 248 435
f 249 248 84
f 237 4 5
f 177 178 179
f 179 300 177
f 250 234 239
f 239 265 250
f 250 263 268
f 265 263 250
f 302 261 260
f 260 303 302
f 302 303 290
f 264 272 262
f 262 263 264
f 261 263 262
f 260 261 262
f 262 271 260
f 272 271 262
f 88 87 6
f 6 228 88
f 227 87 88
f 88 228 227
f 403 387 402
f 1032 1034 1033
f 1031 1033 1022
f 1032 1033 1031
f 1031 1007 1032
f 1030 1007 1031
f 988 987 1021
f 995 1029 326
f 323 325 343
f 343 344 323
f 994 996 984
f 982 984 981
f 982 994 984
f 1023 991 990
f 1022 1033 1023
f 545 439 446
f 531 445 444
f 444 487 531
f 444 446 488
f 444 445 446
f 488 472 444
f 444 472 487
f 466 487 471
f 471 470 466
f 466 470 462
f 462 485 466
f 486 485 532
f 531 487 486
f 486 466 485
f 487 466 486
f 532 542 486
f 486 542 531
f 488 446 489
f 489 441 488
f 446 439 489
f 489 439 440
f 440 441 489
f 543 587 588
f 376 588 378
f 378 588 587
f 1051 1036 1049
f 1051 1049 663
f 663 339 1051
f 341 329 332
f 166 164 163
f 517 167 163
f 163 167 166
f 163 164 165
f 502 510 511
f 502 501 503
f 511 512 500
f 500 502 511
f 501 502 500
f 357 373 506
f 356 355 357
f 373 357 365
f 496 395 403
f 495 395 496
f 496 508 495
f 497 508 496
f 403 401 496
f 401 497 496
f 394 395 495
f 495 393 394
f 394 393 169
f 172 393 173
f 173 493 168
f 173 167 172
f 168 167 173
f 494 393 495
f 495 508 494
f 493 173 494
f 494 173 393
f 258 305 259
f 256 291 258
f 110 916 111
f 291 916 110
f 392 312 313
f 313 312 309
f 356 497 320
f 320 354 356
f 270 311 304
f 304 312 392
f 307 312 304
f 304 311 307
f 392 303 304
f 304 303 270
f 259 271 257
f 256 258 257
f 257 258 259
f 257 271 272
f 273 272 264
f 274 253 273
f 273 264 266
f 266 274 273
f 252 251 911
f 252 253 251
f 911 913 252
f 254 253 252
f 913 294 252
f 294 254 252
f 914 125 126
f 126 125 909
f 901 903 904
f 904 902 901
f 904 903 905
f 905 906 904
f 165 571 518
f 518 571 520
f 518 163 165
f 518 520 521
f 521 519 518
f 518 519 517
f 517 163 518
f 521 426 422
f 426 427 422
f 428 421 422
f 422 427 428
f 174 175 386
f 414 175 174
f 174 415 414
f 174 385 415
f 169 385 405
f 386 395 405
f 405 174 386
f 385 174 405
f 405 394 169
f 395 394 405
f 453 452 450
f 452 449 450
f 450 451 453
f 450 449 144
f 146 664 151
f 151 149 150
f 664 149 151
f 710 764 48
f 764 14 48
f 630 622 629
f 879 817 132
f 879 859 817
f 132 131 879
f 13 12 51
f 12 52 51
f 786 785 772
f 216 812 786
f 772 731 768
f 763 12 769
f 12 218 769
f 769 218 762
f 637 709 638
f 638 636 637
f 142 791 740
f 740 783 142
f 775 783 740
f 740 739 775
f 740 791 738
f 738 739 740
f 784 139 140
f 140 783 784
f 785 139 784
f 702 690 777
f 775 739 776
f 776 704 775
f 739 777 776
f 779 696 143
f 144 780 143
f 734 696 697
f 697 732 734
f 697 696 779
f 779 701 697
f 696 736 695
f 144 143 695
f 695 143 696
f 695 736 451
f 695 450 144
f 451 450 695
f 741 756 791
f 741 742 743
f 743 757 741
f 757 756 741
f 741 792 742
f 791 792 741
f 734 732 733
f 732 756 733
f 733 756 757
f 735 734 733
f 733 757 735
f 829 632 830
f 830 632 620
f 116 115 1015
f 116 1016 1017
f 1015 1016 116
f 1017 986 116
f 986 115 116
f 964 113 969
f 113 115 969
f 969 971 964
f 975 976 969
f 969 115 975
f 872 951 874
f 882 872 874
f 874 883 882
f 875 883 874
f 871 870 873
f 873 951 871
f 873 874 951
f 875 874 873
f 150 149 1048
f 1048 1047 150
f 1048 149 1049
f 1041 1047 1048
f 1049 1042 1048
f 1042 1041 1048
f 1003 950 1004
f 1039 1040 1007
f 1046 1040 1039
f 915 295 914
f 907 916 915
f 291 295 915
f 915 916 291
f 915 126 907
f 914 126 915
f 966 968 967
f 966 973 968
f 966 967 964
f 964 971 966
f 971 973 966
f 974 973 972
f 111 916 972
f 972 916 974
f 972 112 111
f 977 112 976
f 976 112 970
f 971 969 970
f 970 969 976
f 112 972 970
f 970 973 971
f 970 972 973
f 38 223 100
f 16 38 101
f 38 100 101
f 101 100 226
f 896 899 897
f 897 899 856
f 894 896 897
f 897 895 894
f 856 895 897
f 840 226 856
f 856 899 840
f 840 899 842
f 840 101 226
f 135 134 105
f 821 134 135
f 104 821 135
f 135 105 30
f 30 104 135
f 849 96 841
f 841 96 183
f 850 183 842
f 842 898 850
f 850 841 183
f 898 841 850
f 180 95 94
f 180 182 95
f 181 182 180
f 180 245 181
f 94 98 180
f 98 245 180
f 843 245 849
f 843 888 847
f 847 245 843
f 822 134 823
f 823 824 822
f 225 134 822
f 822 224 225
f 822 824 224
f 418 424 432
f 432 424 425
f 795 789 788
f 790 809 795
f 795 788 790
f 790 788 787
f 790 787 138
f 138 810 790
f 810 809 790
f 793 744 742
f 793 788 789
f 795 809 808
f 211 807 808
f 212 211 808
f 808 809 212
f 796 789 795
f 795 808 796
f 796 808 807
f 797 789 796
f 796 807 797
f 759 747 749
f 749 473 759
f 604 608 609
f 609 603 604
f 604 603 547
f 605 608 604
f 604 754 605
f 550 477 548
f 548 477 476
f 597 196 575
f 575 196 576
f 553 555 554
f 554 538 537
f 554 537 552
f 552 553 554
f 538 554 556
f 556 554 555
f 590 556 557
f 557 556 555
f 557 575 590
f 610 611 602
f 610 609 802
f 802 803 610
f 803 611 610
f 610 603 609
f 602 603 610
f 54 216 25
f 25 812 54
f 54 812 216
f 25 215 185
f 185 812 25
f 215 812 185
f 198 10 71
f 71 70 198
f 10 70 71
f 188 10 198
f 198 614 188
f 188 614 189
f 11 10 188
f 188 189 11
f 613 189 599
f 189 614 599
f 599 600 613
f 599 555 600
f 599 557 555
f 195 595 594
f 577 195 594
f 594 595 558
f 594 593 577
f 594 558 559
f 594 581 593
f 559 581 594
f 469 454 468
f 467 458 468
f 468 455 467
f 468 454 455
f 468 458 460
f 460 469 468
f 475 474 753
f 475 476 456
f 456 467 475
f 467 474 475
f 515 526 498
f 498 500 512
f 528 526 525
f 528 529 574
f 528 525 529
f 528 498 526
f 583 590 582
f 583 556 590
f 538 556 583
f 515 516 522
f 522 516 538
f 538 583 522
f 522 583 563
f 525 526 523
f 539 584 540
f 535 513 539
f 480 481 479
f 480 536 535
f 479 536 480
f 482 481 480
f 484 485 465
f 465 483 484
f 465 485 462
f 465 462 460
f 483 465 461
f 461 465 460
f 461 458 459
f 460 458 461
f 464 481 482
f 482 483 464
f 483 461 464
f 464 461 459
f 459 463 464
f 463 481 464
f 83 425 22
f 22 434 83
f 83 434 425
f 247 411 417
f 384 412 417
f 417 411 384
f 417 412 418
f 418 432 417
f 425 434 417
f 417 432 425
f 21 4 238
f 238 84 21
f 249 84 238
f 5 86 236
f 236 237 5
f 236 86 235
f 235 179 236
f 236 179 280
f 280 179 279
f 279 236 280
f 237 236 279
f 279 179 178
f 234 250 299
f 235 234 299
f 268 300 299
f 299 250 268
f 299 179 235
f 300 179 299
f 261 302 301
f 177 300 301
f 301 300 268
f 268 261 301
f 283 289 288
f 288 282 283
f 283 178 177
f 283 282 178
f 1024 1034 1035
f 1024 1033 1034
f 1024 1023 1033
f 991 1023 1024
f 1020 1031 1022
f 1020 1019 1018
f 1018 1030 1020
f 1030 1031 1020
f 1021 1019 1020
f 1020 1022 1021
f 975 987 978
f 987 988 978
f 978 976 975
f 978 977 976
f 989 988 1021
f 989 1023 990
f 1021 1022 989
f 1022 1023 989
f 995 326 997
f 997 994 995
f 996 994 997
f 997 326 325
f 327 1029 328
f 327 326 1029
f 327 328 341
f 341 358 327
f 344 343 362
f 362 364 344
f 361 362 360
f 360 362 343
f 993 991 1027
f 993 1029 995
f 993 1027 1029
f 990 991 993
f 980 982 981
f 980 989 990
f 988 989 980
f 994 982 992
f 990 993 992
f 992 980 990
f 982 980 992
f 995 994 992
f 992 993 995
f 446 445 544
f 544 545 446
f 544 445 543
f 543 588 544
f 439 545 334
f 440 439 334
f 375 368 334
f 334 545 375
f 368 367 334
f 334 335 440
f 334 367 335
f 374 370 377
f 377 378 374
f 376 378 377
f 375 376 377
f 369 370 361
f 369 368 375
f 375 377 369
f 369 377 370
f 509 378 587
f 586 510 509
f 509 587 586
f 333 337 335
f 335 367 333
f 333 367 332
f 366 357 355
f 366 365 357
f 364 365 366
f 366 355 345
f 345 364 366
f 371 370 374
f 374 373 371
f 373 365 371
f 363 365 364
f 361 370 363
f 370 371 363
f 363 371 365
f 363 362 361
f 364 362 363
f 507 494 508
f 507 508 356
f 356 357 507
f 507 357 506
f 506 493 507
f 493 494 507
f 111 112 999
f 999 110 111
f 296 110 999
f 112 977 999
f 999 1000 296
f 999 977 1000
f 291 110 292
f 292 110 296
f 985 996 998
f 323 344 321
f 321 344 345
f 255 257 272
f 255 253 254
f 255 254 256
f 256 257 255
f 272 273 255
f 255 273 253
f 908 904 906
f 908 906 907
f 907 126 908
f 908 126 909
f 909 902 908
f 902 904 908
f 521 422 410
f 410 519 521
f 409 519 410
f 152 156 154
f 154 666 152
f 150 156 152
f 152 151 150
f 665 666 683
f 146 151 665
f 665 152 666
f 151 152 665
f 665 682 146
f 683 682 665
f 765 709 710
f 710 48 765
f 618 616 617
f 620 616 618
f 617 44 618
f 618 44 642
f 621 624 623
f 621 623 630
f 630 831 621
f 640 624 642
f 642 47 640
f 705 673 716
f 876 863 877
f 877 863 861
f 131 829 942
f 942 879 131
f 760 52 763
f 760 51 52
f 137 786 812
f 137 811 138
f 812 811 137
f 785 786 137
f 138 139 137
f 137 139 785
f 762 768 767
f 763 769 767
f 767 769 762
f 770 217 771
f 762 770 771
f 771 768 762
f 771 786 772
f 772 768 771
f 771 217 216
f 216 786 771
f 728 726 704
f 691 674 728
f 622 623 644
f 688 701 687
f 689 702 688
f 688 677 689
f 687 677 688
f 779 143 700
f 700 143 780
f 687 701 686
f 686 700 685
f 686 701 779
f 779 700 686
f 683 666 681
f 680 685 681
f 681 839 680
f 666 839 681
f 774 783 775
f 774 784 783
f 703 777 690
f 703 776 777
f 704 776 703
f 703 690 691
f 778 697 701
f 778 688 702
f 701 688 778
f 732 697 778
f 829 830 159
f 159 942 829
f 943 942 159
f 159 830 157
f 832 831 630
f 630 629 832
f 875 873 866
f 866 873 870
f 866 864 875
f 865 864 866
f 866 870 865
f 1003 1004 1006
f 1006 1030 1018
f 1018 1003 1006
f 882 883 945
f 945 946 882
f 884 883 876
f 876 877 884
f 884 945 883
f 944 945 884
f 122 950 121
f 123 1004 950
f 950 122 123
f 123 122 954
f 814 100 223
f 223 813 814
f 814 813 855
f 814 855 226
f 226 100 814
f 102 183 16
f 16 101 102
f 842 183 102
f 102 840 842
f 101 840 102
f 887 841 898
f 887 898 901
f 887 902 900
f 901 902 887
f 900 888 887
f 888 843 887
f 787 788 141
f 142 140 141
f 140 787 141
f 141 792 142
f 788 793 141
f 742 792 141
f 141 793 742
f 744 793 794
f 746 744 794
f 794 161 746
f 794 793 789
f 797 161 794
f 794 789 797
f 751 754 753
f 753 474 751
f 751 474 473
f 473 749 751
f 750 747 748
f 750 749 747
f 748 606 750
f 750 606 605
f 602 551 549
f 549 603 602
f 549 551 550
f 550 548 549
f 547 603 549
f 549 548 547
f 754 604 546
f 546 604 547
f 753 754 546
f 547 548 755
f 753 546 755
f 755 546 547
f 755 475 753
f 755 548 476
f 476 475 755
f 591 575 576
f 591 592 582
f 591 576 592
f 582 590 591
f 590 575 591
f 598 197 597
f 597 575 598
f 198 197 598
f 598 614 198
f 575 557 598
f 598 599 614
f 557 599 598
f 500 498 499
f 574 490 499
f 499 528 574
f 498 528 499
f 490 501 499
f 501 500 499
f 562 583 582
f 563 583 562
f 562 523 563
f 582 560 562
f 525 523 561
f 559 525 561
f 561 560 559
f 561 562 560
f 523 562 561
f 524 526 515
f 524 523 526
f 563 523 524
f 515 522 524
f 524 522 563
f 534 539 540
f 534 540 533
f 533 482 534
f 482 480 534
f 535 539 534
f 534 480 535
f 527 539 513
f 527 513 515
f 512 584 527
f 584 539 527
f 527 498 512
f 515 498 527
f 381 380 277
f 433 434 247
f 247 417 433
f 433 417 434
f 4 237 85
f 85 238 4
f 237 238 85
f 379 249 246
f 249 238 246
f 246 279 379
f 246 238 237
f 237 279 246
f 284 301 302
f 289 283 284
f 177 301 284
f 284 283 177
f 284 302 290
f 290 289 284
f 400 401 403
f 403 402 400
f 288 289 390
f 390 389 288
f 1027 991 1025
f 991 1024 1025
f 1026 1028 1025
f 1028 1027 1025
f 1025 1035 1026
f 1025 1024 1035
f 332 367 331
f 331 358 341
f 341 332 331
f 331 367 368
f 342 327 358
f 358 360 342
f 325 326 342
f 326 327 342
f 342 343 325
f 342 360 343
f 359 360 358
f 358 331 359
f 359 331 368
f 361 360 359
f 359 369 361
f 368 369 359
f 979 980 981
f 979 978 988
f 988 980 979
f 981 1001 979
f 1001 1000 979
f 1000 977 979
f 977 978 979
f 375 545 589
f 545 544 589
f 589 376 375
f 589 588 376
f 589 544 588
f 504 509 510
f 504 502 503
f 510 502 504
f 378 509 372
f 372 373 374
f 374 378 372
f 509 504 372
f 1036 1051 1037
f 293 258 291
f 291 292 293
f 305 258 293
f 306 305 293
f 293 297 306
f 296 297 293
f 293 292 296
f 310 309 315
f 310 313 309
f 346 983 985
f 315 983 346
f 348 316 346
f 346 310 315
f 316 310 346
f 317 316 348
f 324 997 325
f 324 325 323
f 996 997 324
f 324 998 996
f 407 410 422
f 171 409 407
f 409 410 407
f 49 14 13
f 13 219 49
f 49 48 14
f 49 765 48
f 49 219 765
f 13 51 50
f 50 219 13
f 50 760 766
f 51 760 50
f 711 219 766
f 766 708 711
f 709 765 711
f 765 219 711
f 638 709 711
f 711 708 638
f 624 621 619
f 620 618 619
f 642 624 619
f 619 618 642
f 631 621 831
f 631 831 157
f 157 830 631
f 631 830 620
f 620 619 631
f 631 619 621
f 715 705 706
f 673 705 715
f 706 705 634
f 636 706 634
f 673 674 671
f 669 677 678
f 678 677 687
f 628 629 622
f 878 877 861
f 861 859 878
f 859 879 878
f 727 674 673
f 727 728 674
f 673 715 727
f 726 728 727
f 725 726 727
f 727 715 725
f 714 715 706
f 714 723 725
f 725 715 714
f 707 636 638
f 638 708 707
f 707 706 636
f 707 714 706
f 635 637 636
f 636 634 635
f 685 700 684
f 683 681 684
f 684 681 685
f 699 683 684
f 684 780 699
f 684 700 780
f 729 774 775
f 775 704 729
f 704 726 729
f 785 784 773
f 784 774 773
f 772 785 773
f 773 731 772
f 692 728 704
f 704 703 692
f 691 728 692
f 692 703 691
f 702 777 737
f 737 778 702
f 732 778 737
f 738 732 737
f 737 739 738
f 737 777 739
f 650 832 833
f 833 832 629
f 155 156 1046
f 154 156 155
f 109 108 1043
f 1043 108 957
f 1005 1006 1004
f 109 1038 1005
f 1030 1006 1005
f 1005 1007 1030
f 1005 1039 1007
f 1005 1038 1039
f 839 661 838
f 680 839 838
f 154 155 153
f 153 155 962
f 153 666 154
f 153 839 666
f 153 661 839
f 660 962 963
f 660 153 962
f 661 153 660
f 158 945 944
f 158 159 157
f 158 944 943
f 943 159 158
f 885 884 877
f 877 878 885
f 943 944 885
f 944 884 885
f 880 881 947
f 947 941 880
f 952 881 880
f 925 953 954
f 954 122 925
f 952 880 925
f 925 880 953
f 925 122 121
f 121 924 925
f 924 952 925
f 107 123 954
f 1004 123 107
f 107 108 109
f 109 1005 107
f 107 1005 1004
f 849 841 844
f 841 887 844
f 844 843 849
f 844 887 843
f 749 750 752
f 754 751 752
f 752 751 749
f 605 754 752
f 752 750 605
f 286 387 382
f 382 381 286
f 286 402 387
f 278 380 379
f 278 277 380
f 379 279 278
f 278 279 178
f 178 282 278
f 282 277 278
f 399 396 397
f 399 497 401
f 399 320 497
f 391 289 290
f 391 390 289
f 391 290 392
f 396 390 391
f 392 313 391
f 313 396 391
f 398 400 389
f 389 390 398
f 398 390 396
f 396 399 398
f 401 400 398
f 398 399 401
f 505 372 504
f 503 492 505
f 505 504 503
f 505 492 506
f 506 373 505
f 373 372 505
f 340 1037 333
f 340 332 329
f 340 333 332
f 1026 1036 330
f 1036 1037 330
f 330 1028 1026
f 330 329 1028
f 330 340 329
f 1037 340 330
f 1050 1051 339
f 1050 1037 1051
f 1050 339 337
f 337 333 1050
f 333 1037 1050
f 348 346 347
f 347 349 348
f 998 349 347
f 985 998 347
f 347 346 985
f 316 317 314
f 313 310 314
f 314 310 316
f 397 396 314
f 314 396 313
f 318 399 397
f 320 399 318
f 397 314 318
f 318 314 317
f 323 321 322
f 322 324 323
f 322 349 998
f 998 324 322
f 350 317 348
f 348 349 350
f 416 422 421
f 416 407 422
f 416 421 415
f 171 407 416
f 416 406 171
f 415 406 416
f 766 219 761
f 761 50 766
f 219 50 761
f 624 640 641
f 641 47 764
f 641 640 47
f 641 764 710
f 623 624 643
f 643 644 623
f 624 641 643
f 637 635 643
f 643 635 644
f 689 677 676
f 676 677 669
f 669 678 668
f 679 678 687
f 679 685 680
f 687 686 679
f 679 686 685
f 646 634 705
f 646 705 716
f 723 721 722
f 720 768 731
f 731 722 720
f 720 722 721
f 720 767 768
f 712 708 766
f 714 707 713
f 713 721 723
f 723 714 713
f 713 712 721
f 713 707 708
f 708 712 713
f 645 635 634
f 645 628 622
f 622 644 645
f 644 635 645
f 634 646 645
f 645 646 628
f 724 726 725
f 724 729 726
f 725 723 724
f 723 722 724
f 629 628 627
f 627 833 629
f 1045 155 1046
f 962 155 1045
f 1046 1039 1045
f 1039 1038 1045
f 1044 1038 109
f 109 1043 1044
f 1044 1045 1038
f 962 1045 1044
f 963 962 1044
f 1044 1043 963
f 957 959 958
f 963 1043 958
f 958 1043 957
f 959 960 958
f 958 960 659
f 659 660 958
f 958 660 963
f 837 838 662
f 662 838 661
f 662 660 659
f 661 660 662
f 658 836 837
f 658 662 659
f 837 662 658
f 945 158 625
f 625 650 651
f 651 946 625
f 946 945 625
f 886 885 878
f 879 942 886
f 886 878 879
f 886 942 943
f 943 885 886
f 954 953 955
f 957 108 117
f 117 956 957
f 117 955 956
f 108 107 117
f 117 107 954
f 954 955 117
f 119 941 961
f 381 277 281
f 281 286 381
f 402 286 388
f 388 400 402
f 389 400 388
f 286 281 388
f 319 318 317
f 317 350 319
f 320 318 319
f 639 641 710
f 639 643 641
f 637 643 639
f 710 709 639
f 709 637 639
f 672 717 716
f 716 673 672
f 673 671 672
f 647 717 648
f 716 717 647
f 647 646 716
f 628 646 647
f 670 676 669
f 671 676 670
f 670 672 671
f 717 672 670
f 689 676 675
f 675 674 691
f 675 671 674
f 675 676 671
f 691 690 675
f 675 690 689
f 667 668 678
f 667 679 680
f 678 679 667
f 680 838 667
f 667 838 837
f 837 668 667
f 719 720 721
f 721 712 719
f 767 720 719
f 719 760 763
f 763 767 719
f 766 760 719
f 719 712 766
f 730 724 722
f 731 773 730
f 730 722 731
f 730 773 774
f 774 729 730
f 729 724 730
f 626 647 648
f 626 627 628
f 628 647 626
f 653 947 651
f 653 941 947
f 651 650 652
f 652 653 651
f 654 653 652
f 650 833 652
f 836 658 656
f 649 158 157
f 649 625 158
f 650 625 649
f 649 832 650
f 157 831 649
f 831 832 649
f 118 119 956
f 118 955 953
f 956 955 118
f 941 119 118
f 118 880 941
f 953 880 118
f 956 119 120
f 120 959 957
f 957 956 120
f 961 959 120
f 120 119 961
f 287 388 281
f 287 277 282
f 287 281 277
f 287 282 288
f 288 389 287
f 389 388 287
f 351 322 321
f 349 322 351
f 351 350 349
f 718 836 648
f 648 717 718
f 717 670 718
f 669 668 718
f 718 670 669
f 837 836 718
f 718 668 837
f 834 652 833
f 833 627 834
f 627 626 834
f 654 652 834
f 655 653 654
f 654 656 655
f 961 941 655
f 941 653 655
f 353 321 345
f 353 351 321
f 345 355 353
f 355 354 353
f 352 319 350
f 350 351 352
f 351 353 352
f 352 353 354
f 354 320 352
f 320 319 352
f 654 834 835
f 836 656 835
f 835 656 654
f 648 836 835
f 835 626 648
f 835 834 626
f 657 656 658
f 657 655 656
f 961 655 657
f 657 959 961
f 657 960 959
f 659 960 657
f 657 658 659
f 5 6 86
f 6 87 86
f 14 17 37
f 31 38 14
f 23 34 14
f 15 27 14
f 2 36 14
f 16 18 14
f 28 3 14
f 14 42 39
f 37 29 14
f 14 1 2
f 14 7 8
f 8 10 14
f 14 6 5
f 5 4 14
f 35 1 14
f 14 19 20
f 14 41 43
f 14 25 26
f 14 3 17
f 14 27 28
f 14 30 31
f 14 38 16
f 14 34 35
f 39 40 14
f 11 42 14
f 43 9 14
f 14 36 7
f 26 12 14
f 33 6 14
f 20 32 14
f 14 29 30
f 14 22 23
f 40 41 14
f 14 9 24
f 24 25 14
f 21 22 14
f 14 18 19
f 14 10 11
f 14 32 33
f 14 12 13
f 14 4 21

