# https://github.com/mikedh/trimesh
v 0.00149360 0.00699980 0.00013832
v 0.00134272 0.00699980 0.00066837
v 0.00149360 0.00495871 0.00013832
v 0.00144272 0.00699980 -0.00041023
v 0.00134126 0.00495871 0.00067042
v 0.00134272 0.00495871 0.00066837
v 0.00101026 0.00699980 0.00110827
v 0.00144272 0.00495871 -0.00041023
v 0.00119798 0.00495871 -0.00090182
v 0.00119681 0.00699980 -0.00090387
v 0.00101026 0.00495871 0.00110827
v 0.00054183 0.00699980 0.00139869
v 0.00100850 0.00495871 0.00110973
v 0.00119681 0.00495871 -0.00090387
v 0.00079125 0.00495871 -0.00127359
v 0.00078949 0.00699980 -0.00127505
v -0.00000000 0.00699980 0.00150001
v 0.00054183 0.00495871 0.00139869
v 0.00078949 0.00495871 -0.00127505
v 0.00027778 0.00495871 -0.00147357
v 0.00027544 0.00699980 -0.00147445
v -0.00000000 0.00495871 0.00149971
v -0.00054183 0.00699980 0.00139869
v -0.00054183 0.00495871 0.00139869
v -0.00000205 0.00495871 0.00149942
v 0.00027544 0.00495871 -0.00147445
v -0.00000000 0.00495871 -0.00150000
v -0.00000000 0.00699980 -0.00149970
v -0.00101026 0.00699980 0.00110827
v -0.00101026 0.00495871 0.00110827
v -0.00027544 0.00495871 -0.00147445
v -0.00027544 0.00699980 -0.00147445
v -0.00134272 0.00699980 0.00066837
v -0.00101172 0.00495871 0.00110650
v -0.00078744 0.00495871 -0.00127593
v -0.00078949 0.00699980 -0.00127505
v -0.00149331 0.00699980 0.00013832
v -0.00134331 0.00495871 0.00066631
v -0.00134272 0.00495871 0.00066837
v -0.00078949 0.00495871 -0.00127505
v -0.00119681 0.00699980 -0.00090387
v -0.00149331 0.00495871 0.00013597
v -0.00149331 0.00495871 0.00013832
v -0.00144272 0.00699980 -0.00041023
v -0.00119681 0.00495871 -0.00090387
v -0.00144155 0.00495871 -0.00041258
v -0.00144272 0.00495871 -0.00041023
f 1 2 6
f 1 6 3
f 1 3 8
f 1 8 4
f 1 4 10
f 1 10 16
f 1 16 21
f 1 21 28
f 1 28 32
f 1 32 36
f 1 36 41
f 1 41 44
f 1 44 37
f 1 37 33
f 1 33 29
f 1 29 23
f 1 23 17
f 1 17 12
f 1 12 7
f 1 7 2
f 2 5 6
f 2 7 5
f 3 6 5
f 3 5 11
f 3 11 13
f 3 13 18
f 3 18 22
f 3 22 25
f 3 25 24
f 3 24 30
f 3 30 34
f 3 34 39
f 3 39 38
f 3 38 43
f 3 43 42
f 3 42 47
f 3 47 46
f 3 46 45
f 3 45 40
f 3 40 35
f 3 35 31
f 3 31 27
f 3 27 26
f 3 26 20
f 3 20 19
f 3 19 15
f 3 15 14
f 3 14 9
f 3 9 8
f 4 8 9
f 4 9 10
f 5 7 11
f 7 12 13
f 7 13 11
f 9 14 10
f 10 14 15
f 10 15 16
f 12 17 18
f 12 18 13
f 15 19 16
f 16 19 20
f 16 20 21
f 17 22 18
f 17 23 24
f 17 24 25
f 17 25 22
f 20 26 21
f 21 26 27
f 21 27 28
f 23 29 30
f 23 30 24
f 27 31 32
f 27 32 28
f 29 33 34
f 29 34 30
f 31 35 32
f 32 35 36
f 33 37 38
f 33 38 39
f 33 39 34
f 35 40 36
f 36 40 45
f 36 45 41
f 37 42 43
f 37 43 38
f 37 44 42
f 41 45 46
f 41 46 44
f 42 44 47
f 44 46 47

