# https://github.com/mikedh/trimesh
v 0.00219967 0.00000031 0.00756240
v 0.00219967 0.00149406 0.00756151
v -0.00104959 0.00249769 0.00698848
v 0.00219967 -0.00149461 0.00756240
v 0.00219967 0.00206957 0.00725992
v 0.00141530 0.00178884 0.00742225
v -0.00104959 -0.00249824 0.00698848
v 0.00049474 0.00206957 0.00725992
v 0.00219967 0.00425113 0.00587435
v -0.00104959 0.00425113 0.00587435
v -0.00202893 0.00494829 -0.00038818
v 0.00049474 -0.00206895 0.00725992
v 0.00141530 -0.00178938 0.00742225
v 0.00219967 -0.00206895 0.00725992
v -0.00104959 -0.00425167 0.00587435
v 0.00219967 -0.00425167 0.00587435
v -0.00202893 0.00444764 -0.00041746
v 0.00219967 0.00461959 0.00554437
v -0.00104959 0.00461959 0.00554437
v -0.00202893 0.00494829 -0.00099670
v -0.00149290 0.00699883 0.00013872
v -0.00104959 -0.00462014 0.00554437
v 0.00219967 -0.00462014 0.00554437
v -0.00202893 0.00404759 -0.00099670
v 0.00219967 0.00473773 0.00533148
v 0.00000052 0.00699883 0.00150033
v -0.00054130 0.00699883 0.00139832
v -0.00104959 0.00473773 0.00533148
v -0.00134182 0.00699883 0.00066917
v -0.00144199 0.00699883 -0.00040947
v -0.00119612 0.00699883 -0.00090356
v -0.00078882 0.00699883 -0.00127434
v -0.00027515 0.00699883 -0.00147393
v -0.00104959 -0.00485291 0.00512480
v 0.00219967 -0.00485291 0.00512480
v -0.00027515 0.00495764 -0.00147393
v -0.00031033 -0.00254737 -0.00100557
v -0.00047797 -0.00254737 -0.00096388
v -0.00063485 -0.00254737 -0.00088138
v -0.00077516 -0.00254737 -0.00077139
v -0.00089148 -0.00254737 -0.00062857
v -0.00097881 -0.00254737 -0.00046003
v -0.00112782 -0.00494883 0.00150743
v -0.00104959 -0.00486461 0.00510351
v 0.00219967 0.00486173 0.00510440
v 0.00054151 0.00699883 0.00139832
v -0.00100944 0.00699883 0.00110826
v -0.00104959 0.00486173 0.00510440
v 0.00000052 0.00699883 -0.00149965
v 0.00219967 -0.00486461 0.00510351
v 0.00000052 0.00495764 -0.00149965
v -0.00013856 -0.00254737 -0.00099936
v 0.00219967 -0.00494883 0.00150743
v -0.00104959 -0.00494883 0.00460765
v 0.00219967 0.00494946 0.00460854
v 0.00149270 0.00699883 0.00013872
v 0.00134203 0.00699883 0.00066917
v 0.00100966 0.00699883 0.00110826
v 0.00027454 0.00699883 -0.00147393
v 0.00219967 -0.00494883 0.00460765
v 0.00027454 0.00495764 -0.00147393
v 0.00030972 -0.00254737 -0.00091952
v 0.00148939 -0.00254737 -0.00070752
v 0.00171332 -0.00254737 -0.00062325
v 0.00175637 -0.00254737 -0.00060640
v 0.00198195 -0.00254737 -0.00040859
v 0.00213593 -0.00254737 -0.00013626
v 0.00219595 -0.00254737 0.00015291
v 0.00219885 -0.00254737 0.00024605
v 0.00219926 -0.00254737 0.00033564
v 0.00219926 0.00215847 0.00026734
v 0.00219967 0.00030327 0.00150743
v 0.00219967 0.00494946 0.00278832
v 0.00219926 0.00494829 0.00033564
v 0.00216615 0.00494829 -0.00023029
v 0.00144220 0.00699883 -0.00040947
v 0.00078904 0.00699883 -0.00127434
v 0.00200306 0.00494829 -0.00099670
v 0.00201589 0.00357385 -0.00099670
v 0.00200513 0.00348612 -0.00099670
v 0.00196705 0.00328609 -0.00099670
v 0.00207674 0.00347442 -0.00075986
v 0.00211565 0.00337032 -0.00057003
v 0.00214297 0.00326036 -0.00040947
v 0.00217360 0.00303694 -0.00016376
v 0.00217774 0.00298547 -0.00011764
v 0.00218643 0.00280767 0.00000389
v 0.00219305 0.00266497 0.00010146
v 0.00219429 0.00262052 0.00012364
v 0.00219885 0.00280767 0.00025492
v 0.00219885 -0.00231459 0.00023807
v 0.00119633 0.00699883 -0.00090356
f 1 2 3
f 1 3 7
f 1 7 4
f 1 4 14
f 1 14 16
f 1 16 23
f 1 23 35
f 1 35 50
f 1 50 60
f 1 60 53
f 1 53 72
f 1 72 73
f 1 73 55
f 1 55 45
f 1 45 25
f 1 25 18
f 1 18 9
f 1 9 5
f 1 5 2
f 2 5 6
f 2 6 3
f 3 6 8
f 3 8 5
f 3 5 9
f 3 9 10
f 3 10 11
f 3 11 7
f 4 7 12
f 4 12 13
f 4 13 14
f 5 8 6
f 7 15 16
f 7 16 14
f 7 14 12
f 7 11 17
f 7 17 15
f 9 18 19
f 9 19 10
f 10 19 11
f 11 20 24
f 11 24 17
f 11 19 21
f 11 21 20
f 12 14 13
f 15 22 23
f 15 23 16
f 15 17 22
f 17 24 22
f 18 25 26
f 18 26 19
f 19 26 27
f 19 27 28
f 19 28 29
f 19 29 21
f 20 21 30
f 20 30 31
f 20 31 32
f 20 32 33
f 20 33 36
f 20 36 24
f 21 29 47
f 21 47 27
f 21 27 26
f 21 26 46
f 21 46 58
f 21 58 57
f 21 57 56
f 21 56 76
f 21 76 92
f 21 92 77
f 21 77 59
f 21 59 49
f 21 49 33
f 21 33 32
f 21 32 31
f 21 31 30
f 22 34 35
f 22 35 23
f 22 24 34
f 24 36 37
f 24 37 38
f 24 38 39
f 24 39 40
f 24 40 41
f 24 41 42
f 24 42 43
f 24 43 44
f 24 44 34
f 25 45 26
f 26 45 46
f 27 47 48
f 27 48 28
f 28 48 29
f 29 48 47
f 33 49 51
f 33 51 36
f 34 44 50
f 34 50 35
f 36 51 37
f 37 51 52
f 37 52 53
f 37 53 43
f 37 43 38
f 38 43 39
f 39 43 40
f 40 43 41
f 41 43 42
f 43 53 60
f 43 60 54
f 43 54 44
f 44 54 60
f 44 60 50
f 45 55 56
f 45 56 57
f 45 57 58
f 45 58 46
f 49 59 61
f 49 61 51
f 51 61 52
f 52 62 53
f 52 61 62
f 53 62 63
f 53 63 64
f 53 64 65
f 53 65 66
f 53 66 67
f 53 67 68
f 53 68 69
f 53 69 70
f 53 70 71
f 53 71 72
f 55 73 56
f 56 73 74
f 56 74 75
f 56 75 76
f 59 77 78
f 59 78 79
f 59 79 61
f 61 79 80
f 61 80 81
f 61 81 63
f 61 63 62
f 63 81 64
f 64 81 65
f 65 81 80
f 65 80 79
f 65 79 66
f 66 79 67
f 67 79 82
f 67 82 83
f 67 83 68
f 68 83 84
f 68 84 85
f 68 85 86
f 68 86 87
f 68 87 88
f 68 88 89
f 68 89 90
f 68 90 91
f 68 91 69
f 69 91 70
f 70 91 71
f 71 91 90
f 71 90 74
f 71 74 72
f 72 74 73
f 74 90 89
f 74 89 88
f 74 88 75
f 75 78 76
f 75 88 87
f 75 87 86
f 75 86 85
f 75 85 84
f 75 84 83
f 75 83 82
f 75 82 78
f 76 78 92
f 77 92 78
f 78 82 79

