# https://github.com/mikedh/trimesh
v -0.00922169 0.00295040 -0.00586463
v -0.00922169 0.00494961 -0.00586463
v -0.00871134 0.00295040 -0.00585713
v -0.00031068 0.00253829 -0.00099859
v -0.00970512 0.00295040 -0.00569902
v -0.00871134 0.00494961 -0.00585713
v -0.00970512 0.00494961 -0.00569902
v -0.00027641 0.00495790 -0.00147507
v -0.00000104 0.00495790 -0.00150026
v -0.00203022 0.00295040 -0.00460672
v -0.00187968 0.00295040 -0.00457831
v -0.00027029 0.00253948 -0.00099859
v -0.00203144 0.00444986 -0.00041921
v -0.00042083 0.00256932 -0.00099859
v -0.00935020 0.00295040 -0.00292914
v -0.00981772 0.00295040 -0.00313442
v -0.01018855 0.00295040 -0.00348601
v -0.01041986 0.00295040 -0.00394105
v -0.01048595 0.00295040 -0.00444807
v -0.01037580 0.00295040 -0.00494759
v -0.01010655 0.00295040 -0.00538119
v 0.00027433 0.00495790 -0.00147507
v -0.00203022 0.00494984 -0.00460672
v -0.01010655 0.00494961 -0.00538119
v -0.00078921 0.00495790 -0.00127569
v -0.00187968 0.00494984 -0.00457831
v -0.00128855 0.00295040 -0.00442985
v -0.00013934 0.00254658 -0.00099859
v -0.00074271 0.00295040 -0.00422082
v -0.00203144 0.00494961 -0.00038920
v -0.00809328 0.00295040 -0.00261560
v -0.00048202 0.00258850 -0.00099859
v 0.00137214 0.00279337 -0.00099859
v 0.00150799 0.00282251 -0.00099859
v 0.00163283 0.00287745 -0.00099859
v 0.00174298 0.00295585 -0.00099859
v 0.00174420 0.00295703 -0.00099859
v 0.00183599 0.00305035 -0.00099859
v 0.00194736 0.00324575 -0.00099859
v -0.00935020 0.00494961 -0.00292914
v -0.00981772 0.00494961 -0.00313442
v -0.01018855 0.00494961 -0.00348601
v -0.01041986 0.00494961 -0.00394105
v -0.01048595 0.00494961 -0.00444807
v -0.01037580 0.00494961 -0.00494759
v 0.00078836 0.00495790 -0.00127569
v -0.00128855 0.00494984 -0.00442985
v -0.00109396 0.00495790 -0.00099859
v -0.00066438 0.00295040 -0.00418384
v -0.00034005 0.00295040 -0.00400161
v -0.00012220 0.00295040 -0.00384672
v -0.00004755 0.00295040 -0.00378562
v 0.00020702 0.00295040 -0.00354497
v -0.00040859 0.00494984 -0.00405467
v 0.00196695 0.00328743 -0.00099859
v 0.00200489 0.00348757 -0.00099859
v 0.00201713 0.00357520 -0.00099859
v 0.00200366 0.00494961 -0.00099859
v 0.00109310 0.00495790 -0.00099859
v 0.00044567 0.00295040 -0.00325126
v 0.00062558 0.00295017 -0.00296076
v 0.00059376 0.00295917 -0.00303526
v 0.00085934 0.00308635 -0.00278175
v 0.00110534 0.00319198 -0.00250359
v 0.00132931 0.00326896 -0.00220505
v 0.00152635 0.00330875 -0.00189205
v 0.00169525 0.00330425 -0.00156832
v 0.00172217 0.00329288 -0.00150347
v 0.00183110 0.00324788 -0.00124192
v 0.00176378 0.00343428 -0.00157368
v 0.00038326 0.00494984 -0.00351817
v -0.00040737 0.00307167 -0.00405360
v -0.00037677 0.00308375 -0.00403645
v -0.00001940 0.00322609 -0.00381724
v 0.00002221 0.00301388 -0.00375078
v 0.00034287 0.00315835 -0.00351495
v 0.00034532 0.00297361 -0.00340562
v 0.00189963 0.00336820 -0.00122048
v 0.00194859 0.00349609 -0.00118940
v 0.00200489 0.00359438 -0.00104415
v 0.00196695 0.00494961 -0.00116796
v 0.00182498 0.00494984 -0.00150347
v 0.00159367 0.00494984 -0.00204855
v 0.00105883 0.00494984 -0.00284232
v 0.00063660 0.00311359 -0.00315800
v 0.00090952 0.00323793 -0.00288412
v 0.00116164 0.00334001 -0.00258344
v 0.00139050 0.00341225 -0.00226133
v 0.00159244 0.00344659 -0.00192313
v 0.00163283 0.00359580 -0.00194136
v 0.00180907 0.00357378 -0.00156779
v 0.00182620 0.00353541 -0.00150347
v 0.00064149 0.00349207 -0.00329038
v 0.00038203 0.00338951 -0.00351978
v 0.00030126 0.00335683 -0.00358409
v 0.00064394 0.00329146 -0.00325340
v 0.00181519 0.00372299 -0.00158655
v 0.00196817 0.00363299 -0.00116581
v 0.00197307 0.00362825 -0.00114973
v 0.00184578 0.00396694 -0.00150347
v 0.00159367 0.00375023 -0.00204855
v 0.00151656 0.00374573 -0.00218361
v 0.00143089 0.00373412 -0.00232511
v 0.00113227 0.00366330 -0.00275067
v 0.00105883 0.00364057 -0.00284285
v 0.00092666 0.00340917 -0.00296344
v 0.00118856 0.00350486 -0.00264454
v 0.00142477 0.00356975 -0.00230206
f 1 2 6
f 1 6 3
f 1 3 4
f 1 4 5
f 1 5 7
f 1 7 2
f 2 7 8
f 2 8 9
f 2 9 6
f 3 6 23
f 3 23 10
f 3 10 4
f 4 11 12
f 4 12 13
f 4 13 14
f 4 14 15
f 4 15 16
f 4 16 17
f 4 17 18
f 4 18 19
f 4 19 20
f 4 20 21
f 4 21 5
f 4 10 11
f 5 21 24
f 5 24 7
f 6 9 22
f 6 22 23
f 7 24 25
f 7 25 8
f 8 25 48
f 8 48 59
f 8 59 46
f 8 46 22
f 8 22 9
f 10 23 26
f 10 26 11
f 11 26 47
f 11 47 27
f 11 27 12
f 12 28 13
f 12 27 29
f 12 29 28
f 13 30 15
f 13 15 31
f 13 31 32
f 13 32 14
f 13 28 33
f 13 33 34
f 13 34 35
f 13 35 36
f 13 36 37
f 13 37 38
f 13 38 39
f 13 39 30
f 14 32 15
f 15 32 31
f 15 30 40
f 15 40 41
f 15 41 16
f 16 41 42
f 16 42 17
f 17 42 43
f 17 43 18
f 18 43 44
f 18 44 19
f 19 44 45
f 19 45 20
f 20 45 24
f 20 24 21
f 22 46 47
f 22 47 26
f 22 26 23
f 24 45 48
f 24 48 25
f 27 47 29
f 28 29 49
f 28 49 50
f 28 50 51
f 28 51 52
f 28 52 53
f 28 53 33
f 29 47 54
f 29 54 49
f 30 48 40
f 30 39 55
f 30 55 56
f 30 56 57
f 30 57 58
f 30 58 59
f 30 59 48
f 33 53 60
f 33 60 34
f 34 60 61
f 34 61 35
f 35 61 36
f 36 61 62
f 36 62 37
f 37 62 38
f 38 62 63
f 38 63 64
f 38 64 65
f 38 65 66
f 38 66 67
f 38 67 68
f 38 68 69
f 38 69 39
f 39 69 70
f 39 70 55
f 40 48 41
f 41 48 42
f 42 48 43
f 43 48 44
f 44 48 45
f 46 71 54
f 46 54 47
f 46 59 71
f 49 54 72
f 49 72 50
f 50 72 73
f 50 73 74
f 50 74 51
f 51 74 75
f 51 75 52
f 52 75 53
f 53 76 77
f 53 77 60
f 53 75 76
f 54 74 73
f 54 73 72
f 54 71 74
f 55 70 78
f 55 78 79
f 55 79 56
f 56 79 57
f 57 79 80
f 57 80 81
f 57 81 58
f 58 81 59
f 59 81 82
f 59 82 83
f 59 83 84
f 59 84 71
f 60 85 62
f 60 62 61
f 60 77 85
f 62 85 63
f 63 85 86
f 63 86 64
f 64 86 87
f 64 87 65
f 65 87 88
f 65 88 66
f 66 89 67
f 66 88 89
f 67 89 68
f 68 89 69
f 69 89 70
f 70 89 90
f 70 90 91
f 70 91 92
f 70 92 78
f 71 84 93
f 71 93 94
f 71 94 95
f 71 95 74
f 74 95 75
f 75 95 76
f 76 94 96
f 76 96 77
f 76 95 94
f 77 96 85
f 78 92 79
f 79 92 91
f 79 91 97
f 79 97 98
f 79 98 99
f 79 99 80
f 80 99 81
f 81 99 98
f 81 98 100
f 81 100 82
f 82 100 83
f 83 100 97
f 83 97 101
f 83 101 102
f 83 102 103
f 83 103 84
f 84 103 104
f 84 104 105
f 84 105 93
f 85 96 106
f 85 106 86
f 86 106 87
f 87 106 107
f 87 107 88
f 88 107 108
f 88 108 89
f 89 108 90
f 90 108 102
f 90 102 101
f 90 101 97
f 90 97 91
f 93 96 94
f 93 105 106
f 93 106 96
f 97 100 98
f 102 108 103
f 103 108 107
f 103 107 104
f 104 107 105
f 105 107 106

