# https://github.com/mikedh/trimesh
v 0.00149331 -0.00496082 0.00013832
v 0.00149331 -0.00699980 0.00013832
v 0.00149331 -0.00496082 0.00013538
v 0.00134272 -0.00496082 0.00066837
v 0.00134272 -0.00699980 0.00066837
v 0.00119681 -0.00700000 -0.00090387
v 0.00144272 -0.00699980 -0.00041023
v 0.00144272 -0.00496082 -0.00041023
v 0.00101026 -0.00496082 0.00110827
v 0.00101026 -0.00699980 0.00110827
v -0.00027544 -0.00700000 -0.00147445
v 0.00078949 -0.00700000 -0.00127505
v 0.00119681 -0.00496082 -0.00090387
v 0.00054183 -0.00699980 0.00139869
v 0.00000000 -0.00699980 0.00150001
v -0.00054182 -0.00699980 0.00139869
v 0.00054183 -0.00496082 0.00139869
v -0.00078949 -0.00699980 -0.00127505
v -0.00027544 -0.00496082 -0.00147445
v 0.00000000 -0.00700000 -0.00149999
v -0.00101026 -0.00699980 0.00110827
v -0.00134272 -0.00699980 0.00066837
v -0.00149360 -0.00699980 0.00013832
v -0.00144272 -0.00699980 -0.00041023
v -0.00119681 -0.00699980 -0.00090387
v 0.00027545 -0.00700000 -0.00147445
v 0.00078686 -0.00496082 -0.00127623
v 0.00078949 -0.00496082 -0.00127505
v 0.00000263 -0.00496082 0.00149942
v 0.00000000 -0.00496082 0.00149971
v -0.00054182 -0.00496082 0.00139869
v -0.00100792 -0.00496082 0.00111003
v -0.00078949 -0.00496082 -0.00127505
v -0.00079154 -0.00496082 -0.00127329
v 0.00000000 -0.00496082 -0.00149999
v -0.00134097 -0.00496082 0.00067072
v -0.00101026 -0.00496082 0.00110827
v -0.00134272 -0.00496082 0.00066837
v -0.00149360 -0.00496082 0.00013832
v -0.00144272 -0.00496082 -0.00041023
v -0.00119827 -0.00496082 -0.00090123
v -0.00119681 -0.00496082 -0.00090387
v 0.00027545 -0.00496082 -0.00147445
f 1 2 3
f 1 3 8
f 1 8 13
f 1 13 28
f 1 28 27
f 1 27 43
f 1 43 35
f 1 35 19
f 1 19 33
f 1 33 34
f 1 34 42
f 1 42 41
f 1 41 40
f 1 40 39
f 1 39 38
f 1 38 36
f 1 36 37
f 1 37 32
f 1 32 31
f 1 31 30
f 1 30 29
f 1 29 17
f 1 17 9
f 1 9 4
f 1 4 5
f 1 5 2
f 2 5 6
f 2 6 7
f 2 7 3
f 3 7 8
f 4 9 10
f 4 10 5
f 5 10 6
f 6 11 20
f 6 20 26
f 6 26 12
f 6 12 28
f 6 28 13
f 6 13 8
f 6 8 7
f 6 10 14
f 6 14 15
f 6 15 16
f 6 16 11
f 9 17 14
f 9 14 10
f 11 18 33
f 11 33 19
f 11 19 35
f 11 35 20
f 11 16 21
f 11 21 22
f 11 22 23
f 11 23 24
f 11 24 25
f 11 25 18
f 12 26 27
f 12 27 28
f 14 17 15
f 15 17 29
f 15 29 30
f 15 30 31
f 15 31 16
f 16 31 32
f 16 32 21
f 18 25 34
f 18 34 33
f 20 35 43
f 20 43 26
f 21 36 22
f 21 32 37
f 21 37 36
f 22 36 38
f 22 38 39
f 22 39 23
f 23 39 40
f 23 40 24
f 24 40 41
f 24 41 25
f 25 41 42
f 25 42 34
f 26 43 27

