# https://github.com/mikedh/trimesh
v -0.00922250 -0.00494980 -0.00586517
v -0.00922250 -0.00295020 -0.00586517
v -0.00871130 -0.00494980 -0.00585800
v -0.00970641 -0.00494980 -0.00569984
v -0.00871130 -0.00295020 -0.00585800
v -0.00970641 -0.00295020 -0.00569984
v -0.01010719 -0.00295000 -0.00538227
v -0.00385137 -0.00494980 -0.00494787
v -0.01010719 -0.00494980 -0.00538227
v -0.00385137 -0.00295020 -0.00494787
v -0.01037740 -0.00295000 -0.00494829
v -0.00385137 -0.00295000 -0.00344983
v -0.00385137 -0.00494980 -0.00155704
v -0.01037740 -0.00494980 -0.00494829
v -0.01048587 -0.00295000 -0.00444853
v -0.00385137 -0.00295000 -0.00307912
v -0.00385137 -0.00444980 -0.00155704
v -0.00618910 -0.00384076 -0.00213989
v -0.00935046 -0.00494980 -0.00292856
v -0.01048587 -0.00494980 -0.00444853
v -0.01042092 -0.00295000 -0.00394159
v -0.00708548 -0.00295000 -0.00259369
v -0.00724397 -0.00314577 -0.00240306
v -0.00935046 -0.00295000 -0.00292856
v -0.00981814 -0.00494980 -0.00313479
v -0.01042092 -0.00494980 -0.00394159
v -0.01018968 -0.00295000 -0.00348652
v -0.00752782 -0.00295000 -0.00255236
v -0.00766228 -0.00299875 -0.00250765
v -0.00809423 -0.00295000 -0.00261520
v -0.00981814 -0.00295000 -0.00313479
v -0.01018968 -0.00494980 -0.00348652
f 1 2 5
f 1 5 3
f 1 3 8
f 1 8 13
f 1 13 19
f 1 19 25
f 1 25 32
f 1 32 26
f 1 26 20
f 1 20 14
f 1 14 9
f 1 9 4
f 1 4 6
f 1 6 2
f 2 6 7
f 2 7 5
f 3 5 10
f 3 10 8
f 4 9 7
f 4 7 6
f 5 7 10
f 7 9 14
f 7 14 11
f 7 11 15
f 7 15 21
f 7 21 27
f 7 27 31
f 7 31 24
f 7 24 30
f 7 30 28
f 7 28 22
f 7 22 16
f 7 16 12
f 7 12 10
f 8 10 12
f 8 12 16
f 8 16 17
f 8 17 13
f 11 14 20
f 11 20 15
f 13 17 18
f 13 18 19
f 15 20 26
f 15 26 21
f 16 22 17
f 17 22 23
f 17 23 18
f 18 23 24
f 18 24 19
f 19 24 31
f 19 31 25
f 21 26 32
f 21 32 27
f 22 28 23
f 23 28 29
f 23 29 30
f 23 30 24
f 25 31 27
f 25 27 32
f 28 30 29

