# https://github.com/mikedh/trimesh
v 0.00219968 0.00494978 0.00150641
v 0.00219968 0.00293160 0.00150641
v 0.00219968 0.00494978 0.00033530
v 0.00149333 0.00495871 0.00013782
v 0.00134220 0.00495871 0.00066802
v 0.00134096 0.00495871 0.00066982
v 0.00101014 0.00495871 0.00110786
v 0.00054186 0.00495871 0.00139809
v 0.00053938 0.00495871 0.00139869
v 0.00000029 0.00495871 0.00149923
v -0.00112797 0.00494978 0.00150641
v -0.00104972 0.00293160 0.00150641
v 0.00219968 0.00293160 0.00028623
v 0.00219927 0.00293160 0.00025930
v 0.00219554 0.00293160 0.00015099
v 0.00219471 0.00293160 0.00012765
v 0.00216739 0.00494978 -0.00023200
v 0.00144240 0.00495871 -0.00041093
v -0.00000219 0.00495871 0.00149923
v -0.00112590 0.00436006 0.00150641
v -0.00054127 0.00495871 0.00139809
v -0.00054334 0.00495871 0.00139690
v -0.00101038 0.00495871 0.00110786
v -0.00105303 0.00495871 0.00105161
v -0.00134244 0.00495852 0.00066742
v -0.00134327 0.00495852 0.00066623
v -0.00203017 0.00494978 -0.00038998
v -0.00203017 0.00444975 -0.00041871
v -0.00203017 0.00295025 -0.00237973
v -0.00104972 0.00293160 -0.00029663
v 0.00218146 0.00293160 -0.00008060
v 0.00217898 0.00298716 -0.00011950
v 0.00217484 0.00303835 -0.00016498
v 0.00214420 0.00326118 -0.00041093
v 0.00211687 0.00337191 -0.00057190
v 0.00207795 0.00347667 -0.00076160
v 0.00196823 0.00494978 -0.00116793
v 0.00159477 0.00494978 -0.00204760
v 0.00119687 0.00495871 -0.00090462
v -0.00149357 0.00495852 0.00013723
v -0.00105303 0.00495871 -0.00103568
v -0.00203017 0.00494978 -0.00460704
v -0.00203017 0.00295025 -0.00460704
v -0.00103316 0.00293160 -0.00050009
v 0.00217318 0.00293160 -0.00012189
v 0.00209617 0.00293160 -0.00043726
v 0.00214379 0.00293160 -0.00024935
v 0.00207298 0.00306335 -0.00057848
v 0.00194877 0.00349612 -0.00118947
v 0.00200508 0.00359434 -0.00104465
v 0.00197403 0.00362827 -0.00114997
v 0.00196906 0.00363303 -0.00116613
v 0.00181628 0.00372292 -0.00158562
v 0.00159394 0.00375050 -0.00204700
v 0.00151734 0.00374534 -0.00218285
v 0.00143122 0.00373403 -0.00232407
v 0.00106024 0.00494978 -0.00284111
v 0.00079111 0.00495871 -0.00127385
v 0.00038452 0.00494978 -0.00351852
v -0.00144264 0.00495852 -0.00041153
v -0.00119670 0.00495852 -0.00090402
v -0.00078928 0.00495871 -0.00127564
v -0.00078680 0.00495871 -0.00127684
v -0.00027546 0.00495871 -0.00147432
v 0.00000029 0.00495871 -0.00150005
v 0.00000153 0.00495871 -0.00150005
v 0.00027563 0.00495871 -0.00147432
v -0.00187946 0.00494978 -0.00457832
v -0.00187946 0.00295025 -0.00457832
v 0.00064537 0.00293160 -0.00157485
v -0.00022453 0.00293160 -0.00163888
v -0.00038021 0.00293160 -0.00159340
v -0.00043942 0.00293160 -0.00153955
v -0.00052430 0.00293160 -0.00145636
v -0.00059676 0.00293160 -0.00137558
v -0.00066176 0.00293160 -0.00129539
v -0.00079011 0.00293160 -0.00111168
v -0.00082696 0.00293160 -0.00104585
v -0.00089859 0.00293160 -0.00091719
v -0.00098099 0.00293160 -0.00071073
v 0.00203531 0.00293160 -0.00055275
v 0.00159311 0.00344651 -0.00192194
v 0.00176370 0.00343421 -0.00157246
v 0.00190074 0.00336794 -0.00122059
v 0.00200384 0.00324471 -0.00088128
v 0.00180924 0.00357370 -0.00156647
v 0.00163410 0.00359553 -0.00194049
v 0.00142584 0.00356974 -0.00230073
v 0.00118901 0.00350485 -0.00264363
v 0.00113228 0.00366300 -0.00274955
v 0.00105900 0.00364038 -0.00284230
v 0.00064247 0.00349175 -0.00329052
v 0.00078904 0.00495871 -0.00127564
v 0.00038287 0.00338937 -0.00351971
v 0.00030254 0.00335683 -0.00358434
v -0.00001834 0.00322606 -0.00381713
v -0.00040795 0.00494978 -0.00405410
v 0.00027770 0.00495871 -0.00147372
v -0.00128862 0.00494978 -0.00442991
v -0.00128862 0.00295025 -0.00442991
v 0.00111282 0.00293160 -0.00139952
v 0.00193055 0.00293160 -0.00073467
v 0.00110578 0.00319213 -0.00250240
v 0.00132937 0.00326892 -0.00220379
v 0.00139147 0.00341238 -0.00226004
v 0.00116251 0.00334016 -0.00258259
v 0.00092733 0.00340921 -0.00296318
v 0.00064496 0.00329154 -0.00325282
v 0.00034353 0.00315820 -0.00351493
v 0.00002389 0.00301395 -0.00375070
v -0.00012144 0.00295045 -0.00384585
v -0.00033964 0.00295045 -0.00400144
v -0.00037607 0.00308379 -0.00403675
v -0.00040754 0.00307169 -0.00405350
v -0.00066342 0.00295025 -0.00418396
v -0.00074208 0.00295025 -0.00422106
v -0.00105303 0.00408723 -0.00434015
v -0.00105303 0.00295025 -0.00434015
v 0.00134220 0.00293160 -0.00130496
v 0.00189992 0.00293160 -0.00078733
v 0.00085984 0.00308637 -0.00278067
v 0.00091036 0.00323777 -0.00288300
v 0.00063750 0.00311356 -0.00315767
v 0.00034643 0.00297367 -0.00340542
v 0.00020731 0.00295025 -0.00354485
v -0.00004649 0.00295045 -0.00378541
v 0.00156992 0.00293160 -0.00113801
v 0.00151569 0.00293160 -0.00117990
v 0.00183408 0.00293160 -0.00086991
v 0.00044704 0.00295025 -0.00325162
v 0.00062591 0.00295005 -0.00295959
v 0.00059403 0.00295918 -0.00303440
v 0.00175666 0.00293160 -0.00095728
v 0.00163162 0.00293160 -0.00108116
f 1 2 13
f 1 13 3
f 1 3 4
f 1 4 5
f 1 5 6
f 1 6 7
f 1 7 8
f 1 8 9
f 1 9 10
f 1 10 19
f 1 19 11
f 1 11 20
f 1 20 12
f 1 12 2
f 2 12 30
f 2 30 44
f 2 44 80
f 2 80 79
f 2 79 78
f 2 78 77
f 2 77 76
f 2 76 75
f 2 75 74
f 2 74 73
f 2 73 72
f 2 72 71
f 2 71 70
f 2 70 101
f 2 101 119
f 2 119 128
f 2 128 127
f 2 127 134
f 2 134 133
f 2 133 129
f 2 129 120
f 2 120 102
f 2 102 81
f 2 81 46
f 2 46 47
f 2 47 45
f 2 45 31
f 2 31 16
f 2 16 15
f 2 15 14
f 2 14 13
f 3 13 14
f 3 14 15
f 3 15 16
f 3 16 17
f 3 17 4
f 4 17 18
f 4 18 39
f 4 39 58
f 4 58 93
f 4 93 98
f 4 98 67
f 4 67 66
f 4 66 65
f 4 65 64
f 4 64 63
f 4 63 62
f 4 62 41
f 4 41 24
f 4 24 23
f 4 23 22
f 4 22 21
f 4 21 19
f 4 19 10
f 4 10 9
f 4 9 8
f 4 8 7
f 4 7 6
f 4 6 5
f 11 19 21
f 11 21 22
f 11 22 23
f 11 23 24
f 11 24 25
f 11 25 26
f 11 26 27
f 11 27 20
f 12 20 28
f 12 28 29
f 12 29 43
f 12 43 30
f 16 31 32
f 16 32 17
f 17 32 33
f 17 33 34
f 17 34 35
f 17 35 36
f 17 36 37
f 17 37 18
f 18 37 38
f 18 38 39
f 20 27 28
f 24 40 26
f 24 26 25
f 24 41 40
f 26 40 27
f 27 40 42
f 27 42 43
f 27 43 29
f 27 29 28
f 30 43 44
f 31 45 33
f 31 33 32
f 33 45 34
f 34 46 35
f 34 45 47
f 34 47 46
f 35 46 36
f 36 46 48
f 36 48 49
f 36 49 50
f 36 50 37
f 37 50 51
f 37 51 52
f 37 52 53
f 37 53 38
f 38 53 54
f 38 54 55
f 38 55 56
f 38 56 57
f 38 57 39
f 39 57 59
f 39 59 58
f 40 41 60
f 40 60 42
f 41 61 60
f 41 62 42
f 41 42 61
f 42 60 61
f 42 62 63
f 42 63 64
f 42 64 65
f 42 65 66
f 42 66 67
f 42 67 68
f 42 68 69
f 42 69 43
f 43 69 70
f 43 70 71
f 43 71 72
f 43 72 73
f 43 73 74
f 43 74 75
f 43 75 76
f 43 76 77
f 43 77 78
f 43 78 79
f 43 79 80
f 43 80 44
f 46 81 82
f 46 82 83
f 46 83 84
f 46 84 85
f 46 85 49
f 46 49 48
f 49 52 51
f 49 51 50
f 49 85 84
f 49 84 86
f 49 86 53
f 49 53 52
f 53 86 87
f 53 87 54
f 54 87 55
f 55 87 88
f 55 88 56
f 56 88 89
f 56 89 90
f 56 90 57
f 57 90 91
f 57 91 92
f 57 92 59
f 58 59 93
f 59 92 94
f 59 94 95
f 59 95 96
f 59 96 97
f 59 97 93
f 67 98 99
f 67 99 68
f 68 99 100
f 68 100 69
f 69 100 70
f 70 100 101
f 81 102 103
f 81 103 104
f 81 104 105
f 81 105 82
f 82 105 88
f 82 88 87
f 82 87 83
f 83 87 86
f 83 86 84
f 88 105 89
f 89 105 106
f 89 106 107
f 89 107 91
f 89 91 90
f 91 107 92
f 92 107 108
f 92 108 94
f 93 97 99
f 93 99 98
f 94 108 109
f 94 109 95
f 95 110 96
f 95 109 110
f 96 110 111
f 96 111 112
f 96 112 113
f 96 113 97
f 97 113 114
f 97 114 115
f 97 115 116
f 97 116 117
f 97 117 99
f 99 117 118
f 99 118 100
f 100 118 101
f 101 118 116
f 101 116 119
f 102 120 103
f 103 121 122
f 103 122 106
f 103 106 104
f 103 120 121
f 104 106 105
f 106 122 107
f 107 123 108
f 107 122 123
f 108 123 124
f 108 124 109
f 109 124 125
f 109 125 110
f 110 125 126
f 110 126 111
f 111 126 127
f 111 127 128
f 111 128 119
f 111 119 112
f 112 119 115
f 112 115 114
f 112 114 113
f 115 119 116
f 116 118 117
f 120 129 130
f 120 130 131
f 120 131 132
f 120 132 121
f 121 132 130
f 121 130 123
f 121 123 122
f 123 130 124
f 124 130 125
f 125 130 129
f 125 129 133
f 125 133 134
f 125 134 127
f 125 127 126
f 130 132 131

