# https://github.com/mikedh/trimesh
v 0.00219967 -0.00117354 0.00756240
v 0.00219967 -0.00149527 0.00756240
v 0.00219967 0.00149624 0.00756181
v -0.00104970 0.00249923 0.00698857
v -0.00104970 -0.00249923 0.00698857
v 0.00141552 -0.00178987 0.00742309
v 0.00219967 -0.00207187 0.00726007
v 0.00219967 0.00206993 0.00726067
v 0.00141552 0.00178987 0.00742309
v 0.00049481 0.00206993 0.00726067
v 0.00219967 0.00425227 0.00587471
v -0.00104970 0.00425227 0.00587471
v -0.00112825 0.00494903 0.00150700
v -0.00112955 -0.00435887 0.00150700
v -0.00112792 -0.00494903 0.00150700
v -0.00104970 -0.00425324 0.00587471
v 0.00049481 -0.00207187 0.00726007
v 0.00219967 -0.00425324 0.00587471
v 0.00219967 0.00462052 0.00554512
v -0.00104970 0.00462052 0.00554512
v -0.00104970 0.00473874 0.00533290
v -0.00104970 0.00486472 0.00510526
v -0.00104970 0.00495000 0.00460850
v -0.00104970 0.00495000 0.00395702
v -0.00060092 0.00494903 0.00150700
v 0.00219967 -0.00494903 0.00150700
v -0.00104970 -0.00495000 0.00278803
v -0.00104970 -0.00495000 0.00460969
v -0.00104970 -0.00486472 0.00510526
v -0.00104970 -0.00462149 0.00554512
v 0.00219967 -0.00462149 0.00554512
v 0.00219967 0.00473874 0.00533290
v 0.00219967 0.00486472 0.00510526
v 0.00219967 0.00495000 0.00460850
v 0.00219967 0.00495000 0.00395702
v 0.00219967 0.00494903 0.00267599
v 0.00219935 0.00494806 0.00150700
v 0.00219967 -0.00030332 0.00150700
v 0.00219967 -0.00495000 0.00278803
v 0.00219967 -0.00495000 0.00460969
v 0.00219967 -0.00486472 0.00510526
f 1 2 7
f 1 7 18
f 1 18 31
f 1 31 41
f 1 41 40
f 1 40 39
f 1 39 26
f 1 26 38
f 1 38 36
f 1 36 35
f 1 35 34
f 1 34 33
f 1 33 32
f 1 32 19
f 1 19 11
f 1 11 8
f 1 8 3
f 1 3 4
f 1 4 5
f 1 5 2
f 2 5 6
f 2 6 7
f 3 8 9
f 3 9 4
f 4 9 10
f 4 10 8
f 4 8 11
f 4 11 12
f 4 12 13
f 4 13 14
f 4 14 5
f 5 14 15
f 5 15 16
f 5 16 17
f 5 17 6
f 6 17 7
f 7 17 16
f 7 16 18
f 8 10 9
f 11 19 20
f 11 20 12
f 12 20 13
f 13 20 21
f 13 21 22
f 13 22 23
f 13 23 24
f 13 24 35
f 13 35 25
f 13 25 37
f 13 37 38
f 13 38 26
f 13 26 15
f 13 15 14
f 15 26 39
f 15 39 27
f 15 27 28
f 15 28 29
f 15 29 30
f 15 30 16
f 16 30 31
f 16 31 18
f 19 32 21
f 19 21 20
f 21 32 33
f 21 33 22
f 22 33 34
f 22 34 23
f 23 34 35
f 23 35 24
f 25 35 36
f 25 36 37
f 27 39 40
f 27 40 28
f 28 40 41
f 28 41 29
f 29 41 31
f 29 31 30
f 36 38 37

