# https://github.com/mikedh/trimesh
v -0.00922179 -0.00494962 -0.00586517
v -0.00970606 -0.00494962 -0.00569923
v -0.00922179 -0.00295022 -0.00586517
v -0.00871019 -0.00494962 -0.00585795
v -0.00000067 -0.00700000 -0.00150109
v -0.00027634 -0.00700000 -0.00147512
v -0.00970606 -0.00295022 -0.00569923
v -0.00079041 -0.00699957 -0.00127528
v -0.01010714 -0.00494962 -0.00538179
v -0.00047998 -0.00254894 -0.00096650
v -0.00031235 -0.00254894 -0.00100690
v -0.00871019 -0.00295022 -0.00585795
v -0.00385253 -0.00494962 -0.00494748
v 0.00027499 -0.00700000 -0.00147512
v 0.00119636 -0.00700000 -0.00090445
v -0.00054331 -0.00699957 0.00139843
v -0.00101020 -0.00699957 0.00110768
v -0.00134299 -0.00699957 0.00066832
v -0.00149324 -0.00699957 0.00013733
v -0.00144232 -0.00699957 -0.00041098
v -0.00119770 -0.00699957 -0.00090445
v -0.01010714 -0.00295022 -0.00538179
v -0.00063644 -0.00254894 -0.00088353
v -0.01037660 -0.00494962 -0.00494820
v -0.00013975 -0.00254894 -0.00100040
v -0.00385253 -0.00295022 -0.00494748
v 0.00030976 -0.00254894 -0.00092104
v 0.00148817 -0.00254894 -0.00070966
v -0.00203091 -0.00494962 -0.00460551
v 0.00078907 -0.00700000 -0.00127528
v -0.00187941 -0.00494962 -0.00457665
v -0.00128835 -0.00494962 -0.00442803
v 0.00144222 -0.00699957 -0.00041098
v 0.00149314 -0.00699957 0.00013733
v 0.00134164 -0.00699957 0.00066832
v 0.00100886 -0.00699957 0.00110768
v 0.00054073 -0.00699957 0.00139843
v -0.00000067 -0.00699957 0.00149943
v 0.00038303 -0.00494875 -0.00351756
v 0.00105853 -0.00494875 -0.00284083
v 0.00159372 -0.00494875 -0.00204795
v -0.00112817 -0.00494962 0.00150521
v -0.00981782 -0.00494962 -0.00313446
v -0.01018910 -0.00494962 -0.00348581
v -0.01042006 -0.00494962 -0.00394105
v -0.01048587 -0.00494962 -0.00444823
v -0.01037660 -0.00295022 -0.00494820
v -0.00089224 -0.00254894 -0.00063030
v -0.00077675 -0.00254894 -0.00077242
v -0.00203091 -0.00295065 -0.00460551
v 0.00175638 -0.00254894 -0.00060865
v -0.00128835 -0.00295065 -0.00442803
v -0.00187941 -0.00295065 -0.00457665
v -0.00105366 -0.00494962 -0.00432775
v -0.00040920 -0.00494875 -0.00405287
v -0.00074323 -0.00295065 -0.00422025
v 0.00196748 -0.00494875 -0.00116850
v 0.00216616 -0.00494875 -0.00023278
v 0.00219968 -0.00494875 0.00033429
v 0.00219968 -0.00494875 0.00150521
v -0.00105366 -0.00494962 0.00150521
v 0.00007756 -0.00326566 -0.00375059
v 0.00030107 -0.00335672 -0.00358393
v 0.00038178 -0.00338983 -0.00351828
v 0.00065993 -0.00350050 -0.00327010
v 0.00105853 -0.00364036 -0.00284083
v 0.00113676 -0.00366432 -0.00274416
v 0.00118146 -0.00367783 -0.00268428
v 0.00150679 -0.00374405 -0.00219730
v 0.00159372 -0.00374972 -0.00204723
v 0.00180233 -0.00372706 -0.00161292
v -0.00113065 -0.00435969 0.00150521
v -0.00981782 -0.00295022 -0.00313446
v -0.01018910 -0.00295022 -0.00348581
v -0.01042006 -0.00295022 -0.00394105
v -0.01048587 -0.00295022 -0.00444823
v -0.00103255 -0.00254894 -0.00028184
v -0.00097916 -0.00254894 -0.00046220
v 0.00198114 -0.00254894 -0.00041098
v -0.00006648 -0.00295065 -0.00380109
v -0.00039058 -0.00295065 -0.00403267
v -0.00061533 -0.00299553 -0.00415965
v -0.00040796 -0.00307177 -0.00405287
v -0.00037816 -0.00308397 -0.00403628
v 0.00182840 -0.00371835 -0.00154943
v 0.00196748 -0.00363469 -0.00116706
v 0.00199480 -0.00360550 -0.00107471
v 0.00207675 -0.00347697 -0.00076232
v 0.00211400 -0.00337676 -0.00058124
v 0.00214256 -0.00326174 -0.00041242
v 0.00215001 -0.00321991 -0.00035903
v 0.00217733 -0.00298769 -0.00012023
v 0.00218602 -0.00285044 -0.00001129
v 0.00219596 -0.00254894 0.00015104
v 0.00219968 -0.00254894 0.00029172
v 0.00219968 -0.00254894 0.00150521
v 0.00002168 -0.00301339 -0.00375203
v 0.00034205 -0.00315804 -0.00351467
v 0.00064503 -0.00329311 -0.00325062
v 0.00092690 -0.00341031 -0.00296131
v 0.00118643 -0.00350442 -0.00264532
v 0.00142236 -0.00356847 -0.00230407
v 0.00163221 -0.00359504 -0.00194118
v 0.00180729 -0.00357413 -0.00156602
v 0.00168809 -0.00358851 -0.00182214
v -0.00104994 -0.00254894 0.00150521
v -0.00104994 -0.00254894 -0.00010797
v 0.00213511 -0.00254894 -0.00013827
v 0.00138883 -0.00341162 -0.00226295
v 0.00116035 -0.00334016 -0.00258399
v 0.00090952 -0.00323908 -0.00288123
v 0.00063758 -0.00311534 -0.00315539
v 0.00042649 -0.00295065 -0.00327659
v 0.00018931 -0.00295065 -0.00356229
v 0.00194761 -0.00349701 -0.00118798
v 0.00204943 -0.00335933 -0.00082581
v 0.00211773 -0.00316109 -0.00049899
v 0.00034453 -0.00297374 -0.00340501
v 0.00159123 -0.00344560 -0.00192314
v 0.00176259 -0.00343471 -0.00157180
v 0.00189918 -0.00336848 -0.00121900
f 1 2 7
f 1 7 3
f 1 3 12
f 1 12 4
f 1 4 5
f 1 5 6
f 1 6 2
f 2 6 8
f 2 8 9
f 2 9 22
f 2 22 7
f 3 7 10
f 3 10 11
f 3 11 12
f 4 12 26
f 4 26 13
f 4 13 14
f 4 14 5
f 5 14 30
f 5 30 15
f 5 15 6
f 6 15 16
f 6 16 17
f 6 17 18
f 6 18 19
f 6 19 20
f 6 20 21
f 6 21 8
f 7 22 23
f 7 23 10
f 8 21 9
f 9 24 47
f 9 47 22
f 9 21 24
f 10 23 49
f 10 49 48
f 10 48 78
f 10 78 77
f 10 77 107
f 10 107 106
f 10 106 96
f 10 96 95
f 10 95 94
f 10 94 108
f 10 108 79
f 10 79 51
f 10 51 28
f 10 28 27
f 10 27 25
f 10 25 11
f 11 25 12
f 12 25 27
f 12 27 28
f 12 28 26
f 13 26 50
f 13 50 29
f 13 29 14
f 14 29 31
f 14 31 32
f 14 32 30
f 15 33 34
f 15 34 35
f 15 35 36
f 15 36 37
f 15 37 38
f 15 38 16
f 15 30 39
f 15 39 40
f 15 40 41
f 15 41 33
f 16 42 43
f 16 43 17
f 16 38 42
f 17 43 44
f 17 44 18
f 18 44 45
f 18 45 19
f 19 45 46
f 19 46 20
f 20 46 24
f 20 24 21
f 22 47 48
f 22 48 49
f 22 49 23
f 24 46 76
f 24 76 47
f 26 28 50
f 28 51 52
f 28 52 53
f 28 53 50
f 29 50 53
f 29 53 31
f 30 32 54
f 30 54 55
f 30 55 39
f 31 53 52
f 31 52 32
f 32 52 56
f 32 56 55
f 32 55 54
f 33 41 57
f 33 57 58
f 33 58 34
f 34 58 59
f 34 59 60
f 34 60 35
f 35 60 36
f 36 60 37
f 37 60 38
f 38 60 61
f 38 61 42
f 39 62 63
f 39 63 64
f 39 64 65
f 39 65 40
f 39 55 62
f 40 65 66
f 40 66 67
f 40 67 68
f 40 68 41
f 41 69 70
f 41 70 71
f 41 71 57
f 41 68 69
f 42 61 60
f 42 60 96
f 42 96 106
f 42 106 72
f 42 72 43
f 43 73 74
f 43 74 44
f 43 72 73
f 44 74 75
f 44 75 45
f 45 75 76
f 45 76 46
f 47 76 77
f 47 77 78
f 47 78 48
f 51 79 80
f 51 80 81
f 51 81 56
f 51 56 52
f 55 56 82
f 55 82 83
f 55 83 84
f 55 84 62
f 56 81 82
f 57 71 85
f 57 85 86
f 57 86 87
f 57 87 88
f 57 88 58
f 58 88 89
f 58 89 90
f 58 90 91
f 58 91 92
f 58 92 93
f 58 93 59
f 59 93 94
f 59 94 95
f 59 95 96
f 59 96 60
f 62 97 63
f 62 84 81
f 62 81 97
f 63 98 64
f 63 97 98
f 64 98 99
f 64 99 65
f 65 99 100
f 65 100 66
f 66 100 101
f 66 101 67
f 67 101 68
f 68 101 102
f 68 102 69
f 69 102 70
f 70 102 103
f 70 103 71
f 71 104 85
f 71 103 105
f 71 105 104
f 72 106 73
f 73 106 74
f 74 106 75
f 75 106 76
f 76 106 107
f 76 107 77
f 79 108 109
f 79 109 110
f 79 110 111
f 79 111 112
f 79 112 113
f 79 113 114
f 79 114 80
f 80 114 97
f 80 97 81
f 81 84 83
f 81 83 82
f 85 104 115
f 85 115 86
f 86 115 87
f 87 116 88
f 87 115 116
f 88 116 117
f 88 117 89
f 89 117 90
f 90 117 91
f 91 117 94
f 91 94 92
f 92 94 93
f 94 117 108
f 97 114 98
f 98 114 118
f 98 118 99
f 99 112 100
f 99 118 112
f 100 111 110
f 100 110 101
f 100 112 111
f 101 110 109
f 101 109 102
f 102 109 119
f 102 119 103
f 103 119 120
f 103 120 105
f 104 105 120
f 104 120 108
f 104 108 121
f 104 121 115
f 108 117 116
f 108 116 115
f 108 115 121
f 108 120 119
f 108 119 109
f 112 118 113
f 113 118 114

