# https://github.com/mikedh/trimesh
v -0.00109801 0.00769564 0.00291453
v -0.00135191 0.00769163 0.00291453
v -0.00138074 0.00769029 0.00347160
v -0.00125240 0.00769207 0.00347160
v -0.00118357 0.00769296 0.00347160
v -0.00114451 0.00769296 0.00347160
v -0.00106360 0.00769163 0.00347160
v -0.00092223 0.00768807 0.00347160
v -0.00085806 0.00768940 0.00291453
v 0.00197487 0.00706197 -0.00047228
v -0.00391605 0.00706197 -0.00047228
v -0.00139469 0.00768985 0.00291453
v -0.00156675 0.00768139 0.00291453
v -0.00157977 0.00768050 0.00347160
v -0.00087945 0.00768673 0.00347160
v -0.00081341 0.00768807 0.00291453
v 0.00124292 0.00733940 0.00291453
v 0.00166237 0.00718399 0.00291453
v 0.00197580 0.00706197 -0.00027424
v 0.00208182 0.00701166 -0.00047228
v -0.00035955 0.00766714 0.00291453
v -0.00008333 0.00763552 0.00291453
v -0.00003682 0.00762929 0.00291453
v 0.00027009 0.00757897 0.00291453
v 0.00041704 0.00755136 0.00291453
v 0.00072117 0.00748635 0.00291453
v 0.00100111 0.00741332 0.00291453
v -0.00391605 0.00315180 -0.00047228
v -0.00487586 0.00477803 0.00158459
v -0.00575568 0.00602932 0.00347160
v -0.00556875 0.00618429 0.00307089
v -0.00406393 0.00706197 -0.00015495
v -0.00224941 0.00758609 0.00291453
v -0.00174067 0.00766714 0.00291453
v -0.00163092 0.00767649 0.00347160
v -0.00035955 0.00766714 0.00347160
v 0.00115829 0.00736522 0.00347160
v 0.00122618 0.00734429 0.00347160
v 0.00100111 0.00741332 0.00347160
v 0.00170702 0.00716484 0.00347160
v 0.00184094 0.00711541 0.00291453
v 0.00197580 0.00706197 0.00037162
v 0.00213670 0.00698672 0.00347160
v 0.00220552 0.00695421 0.00291453
v 0.00217204 0.00696935 0.00037162
v 0.00229481 0.00691102 -0.00047228
v -0.00019214 0.00764843 0.00347160
v -0.00006007 0.00763285 0.00347160
v 0.00022452 0.00758565 0.00347160
v 0.00027474 0.00757630 0.00347160
v 0.00045796 0.00754112 0.00347160
v 0.00054446 0.00752331 0.00347160
v 0.00074256 0.00748100 0.00347160
v -0.00430853 0.00315046 0.00037201
v -0.00487586 0.00315091 0.00158459
v -0.00130262 0.00314735 -0.00047228
v -0.00575568 0.00315002 0.00347160
v -0.00556875 0.00618429 0.00347160
v -0.00516045 0.00646438 0.00347160
v -0.00499584 0.00657571 0.00184556
v -0.00487493 0.00664384 0.00158459
v -0.00430946 0.00695020 0.00037162
v -0.00406393 0.00706242 0.00177376
v -0.00405184 0.00706776 0.00291453
v -0.00365750 0.00722006 0.00291453
v -0.00342685 0.00730511 0.00291453
v -0.00328920 0.00735543 0.00291453
v -0.00310133 0.00741332 0.00291453
v -0.00289765 0.00745473 0.00347160
v -0.00252656 0.00752998 0.00347160
v -0.00230986 0.00757362 0.00347160
v -0.00174067 0.00766714 0.00347160
v 0.00184373 0.00711229 0.00347160
v 0.00187349 0.00710027 0.00347160
v 0.00193023 0.00707711 0.00347160
v 0.00196836 0.00706242 0.00291415
v 0.00205299 0.00702546 0.00347160
v 0.00229388 0.00691235 0.00347160
v 0.00229388 0.00691235 0.00291453
v 0.00307047 0.00645726 -0.00047228
v -0.00549527 0.00315002 0.00291453
v -0.00142538 0.00314646 0.00037201
v 0.00058631 0.00314646 -0.00047228
v -0.00138446 0.00314646 0.00057391
v -0.00108220 0.00314646 0.00102636
v -0.00105802 0.00314646 0.00106072
v -0.00057532 0.00314646 0.00138578
v -0.00000148 0.00314646 0.00149966
v 0.00337831 0.00315002 0.00347160
v -0.00510186 0.00650446 0.00347160
v -0.00501630 0.00655745 0.00347160
v -0.00488609 0.00663805 0.00347160
v -0.00475681 0.00671019 0.00347160
v -0.00453825 0.00683175 0.00291453
v -0.00439131 0.00691280 0.00054805
v -0.00439131 0.00691324 0.00291453
v -0.00411601 0.00703882 0.00347160
v -0.00406393 0.00706242 0.00291415
v -0.00407509 0.00705708 0.00347160
v -0.00375608 0.00718042 0.00347160
v -0.00361751 0.00723386 0.00347160
v -0.00334779 0.00733361 0.00347160
v -0.00327618 0.00735988 0.00347160
v -0.00310133 0.00741332 0.00347160
v 0.00201207 0.00704283 0.00347160
v 0.00311604 0.00641674 0.00347160
v 0.00326298 0.00632634 0.00347160
v 0.00330577 0.00630140 0.00291453
v 0.00314208 0.00641228 -0.00047228
v 0.00140475 0.00314646 -0.00047228
v 0.00042913 0.00314646 0.00141434
v 0.00138429 0.00314646 0.00057430
v 0.00142521 0.00314646 0.00037162
v 0.00149868 0.00314646 0.00000024
v 0.00370848 0.00315091 0.00037162
v 0.00374568 0.00315135 0.00016702
v 0.00369453 0.00600661 0.00063491
v 0.00336715 0.00625954 0.00347160
v 0.00057143 0.00314646 0.00138578
v 0.00105877 0.00314646 0.00106072
v -0.00439131 0.00691324 0.00347160
v 0.00331042 0.00629650 0.00347160
v 0.00333553 0.00628270 0.00291453
v 0.00321834 0.00636285 -0.00047228
v 0.00369267 0.00315135 -0.00047228
v 0.00373638 0.00597233 -0.00030435
v 0.00374568 0.00596476 0.00016702
v 0.00372336 0.00598346 0.00037162
v 0.00358757 0.00609256 0.00108273
v 0.00343132 0.00621190 0.00037162
v 0.00334669 0.00627424 0.00328823
v 0.00347132 0.00618206 0.00108273
v 0.00340435 0.00623149 -0.00047228
v 0.00371127 0.00494636 -0.00047228
v 0.00371127 0.00599192 -0.00047228
v 0.00350201 0.00615802 -0.00047228
v 0.00352991 0.00613709 0.00037162
v 0.00347783 0.00617716 -0.00028003
v 0.00346202 0.00618874 -0.00047228
f 1 2 3
f 1 3 4
f 1 4 5
f 1 5 6
f 1 6 7
f 1 7 8
f 1 8 9
f 1 9 10
f 1 10 11
f 1 11 2
f 2 12 3
f 2 11 12
f 3 12 13
f 3 13 14
f 3 14 35
f 3 35 72
f 3 72 71
f 3 71 70
f 3 70 69
f 3 69 104
f 3 104 103
f 3 103 102
f 3 102 101
f 3 101 100
f 3 100 99
f 3 99 97
f 3 97 121
f 3 121 93
f 3 93 92
f 3 92 91
f 3 91 90
f 3 90 59
f 3 59 58
f 3 58 30
f 3 30 57
f 3 57 89
f 3 89 118
f 3 118 122
f 3 122 107
f 3 107 106
f 3 106 78
f 3 78 43
f 3 43 77
f 3 77 105
f 3 105 75
f 3 75 74
f 3 74 73
f 3 73 40
f 3 40 38
f 3 38 37
f 3 37 39
f 3 39 53
f 3 53 52
f 3 52 51
f 3 51 50
f 3 50 49
f 3 49 48
f 3 48 47
f 3 47 36
f 3 36 15
f 3 15 8
f 3 8 7
f 3 7 6
f 3 6 5
f 3 5 4
f 8 15 16
f 8 16 9
f 9 16 10
f 10 17 18
f 10 18 19
f 10 19 20
f 10 20 46
f 10 46 80
f 10 80 109
f 10 109 124
f 10 124 133
f 10 133 139
f 10 139 136
f 10 136 135
f 10 135 134
f 10 134 125
f 10 125 110
f 10 110 83
f 10 83 56
f 10 56 28
f 10 28 11
f 10 16 21
f 10 21 22
f 10 22 23
f 10 23 24
f 10 24 25
f 10 25 26
f 10 26 27
f 10 27 17
f 11 28 55
f 11 55 29
f 11 29 30
f 11 30 31
f 11 31 32
f 11 32 33
f 11 33 34
f 11 34 13
f 11 13 12
f 13 34 35
f 13 35 14
f 15 36 16
f 16 36 21
f 17 37 38
f 17 38 18
f 17 27 39
f 17 39 37
f 18 38 40
f 18 40 41
f 18 41 19
f 19 41 42
f 19 42 43
f 19 43 44
f 19 44 45
f 19 45 46
f 19 46 20
f 21 36 47
f 21 47 22
f 22 47 48
f 22 48 23
f 23 48 24
f 24 48 49
f 24 49 50
f 24 50 25
f 25 50 51
f 25 51 52
f 25 52 53
f 25 53 26
f 26 53 27
f 27 53 39
f 28 54 55
f 28 56 54
f 29 55 57
f 29 57 30
f 30 58 31
f 31 58 59
f 31 59 60
f 31 60 61
f 31 61 62
f 31 62 32
f 32 62 63
f 32 63 64
f 32 64 65
f 32 65 66
f 32 66 67
f 32 67 68
f 32 68 33
f 33 69 70
f 33 70 71
f 33 71 72
f 33 72 34
f 33 68 69
f 34 72 35
f 40 73 41
f 41 73 74
f 41 74 75
f 41 75 76
f 41 76 42
f 42 76 77
f 42 77 43
f 43 78 44
f 44 78 79
f 44 79 46
f 44 46 45
f 46 79 80
f 54 81 57
f 54 57 55
f 54 56 82
f 54 82 81
f 56 83 82
f 57 81 82
f 57 82 84
f 57 84 85
f 57 85 86
f 57 86 87
f 57 87 88
f 57 88 89
f 59 90 60
f 60 90 91
f 60 91 92
f 60 92 61
f 61 93 94
f 61 94 95
f 61 95 62
f 61 92 93
f 62 95 96
f 62 96 63
f 63 97 98
f 63 98 64
f 63 96 97
f 64 98 99
f 64 99 100
f 64 100 65
f 65 100 101
f 65 101 102
f 65 102 66
f 66 102 103
f 66 103 67
f 67 103 68
f 68 103 104
f 68 104 69
f 75 105 76
f 76 105 77
f 78 106 80
f 78 80 79
f 80 106 107
f 80 107 108
f 80 108 109
f 82 83 110
f 82 110 114
f 82 114 113
f 82 113 112
f 82 112 120
f 82 120 119
f 82 119 111
f 82 111 88
f 82 88 87
f 82 87 86
f 82 86 85
f 82 85 84
f 88 111 89
f 89 112 113
f 89 113 114
f 89 114 115
f 89 115 116
f 89 116 117
f 89 117 118
f 89 111 119
f 89 119 120
f 89 120 112
f 93 121 94
f 94 96 95
f 94 121 96
f 96 121 97
f 97 99 98
f 107 122 123
f 107 123 108
f 108 123 109
f 109 123 124
f 110 125 115
f 110 115 114
f 115 125 116
f 116 125 126
f 116 126 127
f 116 127 128
f 116 128 117
f 117 128 129
f 117 129 118
f 118 130 123
f 118 123 131
f 118 131 122
f 118 129 132
f 118 132 130
f 122 131 123
f 123 130 133
f 123 133 124
f 125 134 126
f 126 128 127
f 126 134 135
f 126 135 136
f 126 136 129
f 126 129 128
f 129 136 137
f 129 137 132
f 130 132 138
f 130 138 133
f 132 137 138
f 133 138 139
f 136 139 138
f 136 138 137

