# https://github.com/mikedh/trimesh
v -0.00150000 0.00016056 -0.00000015
v -0.00138577 0.00016056 -0.00057360
v -0.00138547 -0.00314820 -0.00057390
v -0.00149971 -0.00314820 -0.00000015
v -0.00138577 -0.00314820 0.00057360
v -0.00138577 0.00314646 0.00057360
v -0.00149971 0.00314646 0.00000044
v -0.00138577 0.00314646 -0.00057360
v -0.00121486 0.00016056 -0.00082935
v -0.00106040 -0.00314820 -0.00106044
v -0.00106069 -0.00314820 0.00106014
v -0.00106040 0.00314646 0.00106014
v -0.00106040 0.00314646 -0.00106014
v -0.00057351 -0.00314820 -0.00138548
v -0.00057351 0.00314646 -0.00138548
v -0.00057410 -0.00314820 0.00138519
v -0.00082958 0.00016056 0.00121459
v -0.00057351 0.00314646 0.00138548
v -0.00000000 0.00016056 -0.00150000
v -0.00000000 -0.00314820 -0.00149941
v -0.00000000 0.00314646 -0.00150000
v -0.00000000 -0.00314820 0.00149971
v -0.00057351 0.00016056 0.00138548
v -0.00000000 0.00314646 0.00149971
v 0.00057410 -0.00314820 -0.00138519
v 0.00057381 0.00016056 -0.00138548
v 0.00057381 0.00314646 -0.00138548
v 0.00057381 -0.00314820 0.00138548
v 0.00057381 0.00314646 0.00138548
v 0.00106069 -0.00314820 -0.00106014
v 0.00082958 0.00016056 -0.00121459
v 0.00106040 0.00314646 -0.00106014
v 0.00106040 -0.00314820 0.00106044
v 0.00106040 0.00314646 0.00106014
v 0.00138577 -0.00314820 -0.00057360
v 0.00138577 0.00314646 -0.00057360
v 0.00138547 -0.00314820 0.00057390
v 0.00138577 0.00016056 0.00057360
v 0.00121486 0.00016056 0.00082935
v 0.00138577 0.00314646 0.00057360
v 0.00149971 -0.00314820 -0.00000015
v 0.00150000 0.00016056 -0.00000015
v 0.00149971 0.00314646 -0.00000015
f 1 2 3
f 1 3 4
f 1 4 5
f 1 5 6
f 1 6 7
f 1 7 8
f 1 8 2
f 2 9 10
f 2 10 3
f 2 8 9
f 3 10 14
f 3 14 20
f 3 20 25
f 3 25 30
f 3 30 35
f 3 35 41
f 3 41 37
f 3 37 33
f 3 33 28
f 3 28 22
f 3 22 16
f 3 16 11
f 3 11 5
f 3 5 4
f 5 11 6
f 6 12 18
f 6 18 24
f 6 24 29
f 6 29 34
f 6 34 40
f 6 40 43
f 6 43 36
f 6 36 32
f 6 32 27
f 6 27 21
f 6 21 15
f 6 15 13
f 6 13 8
f 6 8 7
f 6 11 12
f 8 13 9
f 9 13 10
f 10 13 15
f 10 15 14
f 11 16 17
f 11 17 12
f 12 17 18
f 14 19 20
f 14 15 21
f 14 21 19
f 16 22 23
f 16 23 18
f 16 18 17
f 18 23 22
f 18 22 24
f 19 25 20
f 19 21 27
f 19 27 26
f 19 26 25
f 22 28 29
f 22 29 24
f 25 26 30
f 26 27 31
f 26 31 30
f 27 32 31
f 28 33 29
f 29 33 34
f 30 31 32
f 30 32 36
f 30 36 35
f 33 37 38
f 33 38 39
f 33 39 34
f 34 39 40
f 35 36 42
f 35 42 41
f 36 43 42
f 37 41 42
f 37 42 38
f 38 42 40
f 38 40 39
f 40 42 43

