# https://github.com/mikedh/trimesh
v 0.00283268 0.00401465 0.00347179
v 0.00337324 0.00401465 0.00347179
v 0.00283268 0.00401465 0.00375327
v 0.00300181 0.00481239 0.00347179
v 0.00338270 0.00401465 0.00352375
v 0.00336863 0.00481239 0.00347179
v 0.00342199 0.00401465 0.00375327
v 0.00300181 0.00481239 0.00375327
v 0.00341472 0.00481239 0.00374087
v 0.00341680 0.00481239 0.00375327
f 1 2 5
f 1 5 7
f 1 7 3
f 1 3 8
f 1 8 4
f 1 4 6
f 1 6 2
f 2 6 5
f 3 7 10
f 3 10 8
f 4 8 10
f 4 10 9
f 4 9 6
f 5 6 9
f 5 9 7
f 7 9 10

