# https://github.com/mikedh/trimesh
v -0.00138330 0.00768335 0.00637810
v -0.00152426 0.00768017 0.00637810
v -0.00174009 0.00766744 0.01070000
v -0.00035991 0.00766744 0.01070000
v -0.00035991 0.00766744 0.00637810
v -0.00164466 0.00767487 0.00637810
v -0.00174009 0.00766744 0.00637810
v -0.00262841 0.00750841 0.00637810
v -0.00310119 0.00741298 0.01070000
v 0.00099973 0.00741298 0.01070000
v 0.00067670 0.00748932 0.00637810
v -0.00001045 0.00761761 0.00637810
v -0.00017931 0.00764624 0.00637810
v -0.00310119 0.00741298 0.00637810
v -0.00320544 0.00738118 0.00637810
v -0.00340953 0.00730590 0.00637810
v -0.00420388 0.00699842 0.00637810
v -0.00439182 0.00691254 0.01070000
v 0.00204221 0.00702493 0.00637810
v 0.00113481 0.00737163 0.00637810
v 0.00099973 0.00741298 0.00637810
v 0.00084702 0.00745327 0.00637810
v 0.00229182 0.00691254 0.01070000
v -0.00439182 0.00691254 0.00637810
v -0.00468694 0.00674820 0.00637810
v -0.00556791 0.00618415 0.01070000
v 0.00211269 0.00699524 0.00637810
v 0.00346938 0.00618415 0.01070000
v 0.00285564 0.00657326 0.00637810
v 0.00229328 0.00691254 0.00637810
v 0.00217435 0.00696874 0.00637810
v -0.00528894 0.00637499 0.00637810
v -0.00556791 0.00618415 0.00637810
v -0.00592324 0.00588940 0.00637810
v -0.00615816 0.00567629 0.00637810
v -0.00659131 0.00525219 0.01070000
v 0.00346938 0.00618415 0.00637810
v 0.00449131 0.00525219 0.01070000
v 0.00383792 0.00588092 0.00637810
v 0.00364558 0.00604526 0.00637810
v 0.00351343 0.00615022 0.00637810
v -0.00626388 0.00557874 0.00637810
v -0.00659131 0.00525219 0.00637810
v -0.00701858 0.00473902 0.00637810
v -0.00742529 0.00414846 0.01070000
v 0.00484663 0.00483233 0.00681897
v 0.00449131 0.00525325 0.00637810
v 0.00412130 0.00562221 0.00637810
v 0.00532529 0.00414846 0.01070000
v -0.00704794 0.00469873 0.00637810
v -0.00742529 0.00414846 0.00705378
v -0.00776300 0.00354306 0.00777643
v -0.00804344 0.00290797 0.01070000
v 0.00520049 0.00434249 0.00718367
v 0.00532676 0.00414740 0.00730722
v 0.00537375 0.00406894 0.00735799
v 0.00536934 0.00314864 0.00735207
v 0.00449131 0.00314970 0.00637810
v 0.00564978 0.00356744 0.00768842
v 0.00582304 0.00314970 0.01070000
v -0.00710961 0.00460861 0.00637810
v -0.00773363 0.00314864 0.00771296
v -0.00804344 0.00290797 0.00837680
v -0.00817412 0.00254006 0.00865858
v -0.00834444 0.00194101 0.00908463
v -0.00842226 0.00157841 0.01070000
v 0.00539137 0.00314970 0.00737745
v 0.00544863 0.00016191 0.00744134
v 0.00551030 -0.00314820 0.00751199
v 0.00532970 -0.00314820 0.00731187
v 0.00474385 -0.00314820 0.00670008
v -0.00710961 0.00314970 0.00637810
v 0.00594344 0.00290797 0.01070000
v 0.00584066 0.00314970 0.00797317
v 0.00588618 0.00304898 0.00804086
v 0.00566006 0.00314864 0.00770112
v -0.00726085 0.00314864 0.00670008
v -0.00726085 -0.00314820 0.00670008
v -0.00804344 0.00016191 0.00837680
v -0.00817412 -0.00213990 0.00865858
v -0.00832388 -0.00162356 0.00902497
v -0.00842226 0.00016191 0.00934568
v -0.00842226 0.00157735 0.00934653
v -0.00846337 0.00133243 0.00952380
v -0.00853091 0.00071536 0.00997313
v -0.00855000 0.00020008 0.01070000
v 0.00565272 -0.00314820 0.00770281
v 0.00608293 0.00251567 0.00841318
v 0.00594344 0.00290690 0.00813902
v 0.00632226 0.00157841 0.01070000
v 0.00623857 0.00196752 0.00880327
v 0.00594197 -0.00250675 0.00813902
v 0.00578487 -0.00288208 0.00788051
v -0.00776006 -0.00314820 0.00777050
v -0.00804197 -0.00250887 0.01070000
v -0.00804197 -0.00250887 0.00837680
v -0.00842079 -0.00117719 0.01070000
v -0.00842079 -0.00117719 0.00934568
v -0.00844722 -0.00102982 0.00945315
v -0.00845603 0.00016191 0.00948869
v -0.00852210 -0.00042547 0.00989147
v -0.00854853 0.00016085 0.01032006
v -0.00855000 0.00020008 0.01034841
v 0.00564391 -0.00314820 0.00874404
v 0.00601245 -0.00232121 0.00826891
v 0.00598015 0.00016191 0.00820671
v 0.00614460 0.00016191 0.00856042
v 0.00610495 0.00016191 0.00846268
v 0.00645000 0.00020008 0.01070000
v 0.00642210 0.00082987 0.00962619
v 0.00634575 0.00143951 0.00918363
v 0.00632226 0.00157841 0.00908252
v 0.00623710 -0.00156631 0.00880327
v 0.00621654 0.00016085 0.00874193
v 0.00621654 0.00016191 0.00874193
v 0.00632226 0.00016191 0.00908252
v 0.00594197 -0.00250887 0.01070000
v -0.00776006 -0.00314820 0.00780308
v -0.00776300 -0.00314184 0.00777685
v -0.00772336 -0.00314820 0.01070000
v 0.00562336 -0.00314820 0.01070000
v 0.00612404 -0.00198192 0.00850796
v 0.00619305 -0.00174125 0.00867846
v 0.00642944 -0.00033853 0.00969219
v 0.00644853 0.00016085 0.01005690
v 0.00645000 0.00020008 0.01008567
v 0.00632079 -0.00117719 0.01070000
v 0.00635897 -0.00095560 0.00924287
v 0.00635309 0.00016191 0.00921537
v 0.00644853 0.00016191 0.01005690
v 0.00635309 0.00016085 0.00921537
v 0.00632079 -0.00117719 0.00908336
f 1 2 3
f 1 3 4
f 1 4 5
f 1 5 13
f 1 13 12
f 1 12 11
f 1 11 22
f 1 22 21
f 1 21 20
f 1 20 19
f 1 19 27
f 1 27 31
f 1 31 30
f 1 30 29
f 1 29 37
f 1 37 41
f 1 41 40
f 1 40 39
f 1 39 48
f 1 48 47
f 1 47 58
f 1 58 72
f 1 72 61
f 1 61 50
f 1 50 44
f 1 44 43
f 1 43 42
f 1 42 35
f 1 35 34
f 1 34 33
f 1 33 32
f 1 32 25
f 1 25 24
f 1 24 17
f 1 17 16
f 1 16 15
f 1 15 14
f 1 14 8
f 1 8 7
f 1 7 6
f 1 6 2
f 2 6 3
f 3 7 8
f 3 8 9
f 3 9 18
f 3 18 26
f 3 26 36
f 3 36 45
f 3 45 53
f 3 53 66
f 3 66 86
f 3 86 97
f 3 97 95
f 3 95 120
f 3 120 121
f 3 121 117
f 3 117 127
f 3 127 109
f 3 109 90
f 3 90 73
f 3 73 60
f 3 60 49
f 3 49 38
f 3 38 28
f 3 28 23
f 3 23 10
f 3 10 4
f 3 6 7
f 4 10 11
f 4 11 12
f 4 12 13
f 4 13 5
f 8 14 9
f 9 14 15
f 9 15 16
f 9 16 17
f 9 17 18
f 10 19 20
f 10 20 21
f 10 21 22
f 10 22 11
f 10 23 19
f 17 24 18
f 18 24 25
f 18 25 26
f 19 23 27
f 23 28 29
f 23 29 30
f 23 30 31
f 23 31 27
f 25 32 26
f 26 32 33
f 26 33 34
f 26 34 35
f 26 35 36
f 28 37 29
f 28 38 39
f 28 39 40
f 28 40 41
f 28 41 37
f 35 42 36
f 36 42 43
f 36 43 44
f 36 44 45
f 38 46 47
f 38 47 48
f 38 48 39
f 38 49 46
f 44 50 45
f 45 51 52
f 45 52 53
f 45 50 51
f 46 49 54
f 46 54 47
f 47 54 55
f 47 55 56
f 47 56 57
f 47 57 58
f 49 59 56
f 49 56 55
f 49 55 54
f 49 60 59
f 50 61 51
f 51 61 52
f 52 61 62
f 52 62 63
f 52 63 53
f 53 63 64
f 53 64 65
f 53 65 66
f 56 59 67
f 56 67 57
f 57 67 68
f 57 68 58
f 58 68 69
f 58 69 70
f 58 70 71
f 58 71 78
f 58 78 72
f 59 69 68
f 59 68 67
f 59 60 73
f 59 73 74
f 59 74 75
f 59 75 76
f 59 76 69
f 61 72 78
f 61 78 77
f 61 77 62
f 62 77 78
f 62 78 79
f 62 79 63
f 63 79 80
f 63 80 64
f 64 80 81
f 64 81 65
f 65 81 82
f 65 82 83
f 65 83 66
f 66 83 84
f 66 84 85
f 66 85 86
f 69 76 87
f 69 87 104
f 69 104 121
f 69 121 120
f 69 120 118
f 69 118 94
f 69 94 78
f 69 78 71
f 69 71 70
f 73 88 89
f 73 89 75
f 73 75 74
f 73 90 91
f 73 91 88
f 75 92 93
f 75 93 76
f 75 89 92
f 76 93 87
f 78 94 79
f 79 94 80
f 80 95 81
f 80 94 96
f 80 96 95
f 81 95 97
f 81 97 98
f 81 98 82
f 82 99 100
f 82 100 83
f 82 98 99
f 83 100 84
f 84 100 101
f 84 101 85
f 85 101 102
f 85 102 103
f 85 103 86
f 86 103 102
f 86 102 101
f 86 101 97
f 87 93 104
f 88 105 106
f 88 106 89
f 88 91 107
f 88 107 108
f 88 108 105
f 89 106 92
f 90 109 110
f 90 110 111
f 90 111 112
f 90 112 91
f 91 113 114
f 91 114 115
f 91 115 107
f 91 112 116
f 91 116 113
f 92 106 105
f 92 105 117
f 92 117 93
f 93 117 104
f 94 118 119
f 94 119 96
f 95 96 119
f 95 119 118
f 95 118 120
f 97 101 99
f 97 99 98
f 99 101 100
f 104 117 121
f 105 108 122
f 105 122 117
f 107 123 122
f 107 122 108
f 107 115 123
f 109 124 125
f 109 125 126
f 109 126 110
f 109 127 124
f 110 124 128
f 110 128 129
f 110 129 111
f 110 126 130
f 110 130 124
f 111 116 112
f 111 129 131
f 111 131 116
f 113 132 127
f 113 127 123
f 113 123 114
f 113 116 132
f 114 123 115
f 116 131 128
f 116 128 132
f 117 122 123
f 117 123 127
f 124 127 128
f 124 130 125
f 125 130 126
f 127 132 128
f 128 131 129

