# https://github.com/mikedh/trimesh
v -0.00114511 0.00769303 0.00347207
v -0.00092363 0.00768770 0.00347207
v -0.00518286 0.00450411 0.00347179
v -0.00575416 0.00450411 0.00347179
v -0.00121099 0.00769259 0.00347207
v -0.00128027 0.00768770 0.00510302
v -0.00036028 0.00766680 0.00637706
v -0.00036255 0.00766635 0.00347207
v -0.00036141 0.00766769 0.00510273
v -0.00036141 0.00766769 0.00471512
v -0.00422992 0.00395046 0.00347179
v -0.00013766 0.00764101 0.00347207
v -0.00006156 0.00763167 0.00347207
v 0.00016560 0.00759476 0.00347207
v 0.00022239 0.00758453 0.00347207
v 0.00034164 0.00756274 0.00347207
v 0.00045636 0.00754095 0.00347207
v 0.00074031 0.00748047 0.00347207
v 0.00099700 0.00741288 0.00347207
v 0.00106401 0.00739331 0.00347207
v 0.00122416 0.00734395 0.00347207
v 0.00178751 0.00713316 0.00347207
v 0.00187156 0.00709981 0.00347207
v 0.00199082 0.00705045 0.00347207
v 0.00208395 0.00700998 0.00347207
v 0.00229180 0.00691170 0.00347207
v -0.00575530 0.00602809 0.00347207
v -0.00556789 0.00618462 0.00347207
v -0.00510108 0.00650347 0.00347207
v -0.00488414 0.00663777 0.00347207
v -0.00475580 0.00671025 0.00347207
v -0.00439007 0.00691215 0.00347207
v -0.00420494 0.00699619 0.00347207
v -0.00407205 0.00705623 0.00347207
v -0.00383467 0.00714828 0.00347207
v -0.00361432 0.00723233 0.00347207
v -0.00327245 0.00735907 0.00347207
v -0.00309754 0.00741288 0.00347207
v -0.00230816 0.00757297 0.00347207
v -0.00173799 0.00766635 0.00347207
v -0.00157671 0.00768014 0.00347207
v -0.00138022 0.00768948 0.00347207
v -0.00575416 0.00315000 0.00347179
v -0.00144382 0.00768592 0.00471512
v -0.00122802 0.00769170 0.00375361
v -0.00139612 0.00768592 0.00510273
v -0.00149834 0.00768236 0.00587085
v -0.00134160 0.00768414 0.00587085
v -0.00133819 0.00768414 0.00587085
v -0.00018082 0.00764634 0.00637706
v -0.00138476 0.00768147 0.00637706
v -0.00016038 0.00764412 0.00587085
v -0.00011267 0.00763878 0.00471512
v -0.00422992 0.00315000 0.00347179
v 0.00245422 0.00681431 0.00347207
v 0.00310617 0.00642120 0.00347207
v 0.00323110 0.00634471 0.00347207
v 0.00331856 0.00629046 0.00347207
v 0.00336513 0.00625888 0.00347207
v 0.00337762 0.00315045 0.00347207
v 0.00015310 0.00759520 0.00432494
v 0.00055177 0.00751960 0.00471512
v 0.00075053 0.00747825 0.00375361
v 0.00100040 0.00741288 0.00432523
v 0.00114919 0.00736796 0.00471512
v 0.00121621 0.00734706 0.00375361
v 0.00099927 0.00741376 0.00510302
v 0.00188746 0.00709314 0.00375361
v 0.00116282 0.00736351 0.00548722
v 0.00113443 0.00737196 0.00637706
v 0.00190222 0.00708069 0.00587085
v 0.00198968 0.00704867 0.00548722
v 0.00202716 0.00703444 0.00432494
v 0.00211689 0.00699530 0.00432523
v 0.00229180 0.00691215 0.00375361
v -0.00575530 0.00450411 0.00347207
v -0.00711143 0.00419282 0.00637706
v -0.00651628 0.00532902 0.00510273
v -0.00615282 0.00569012 0.00432494
v -0.00609944 0.00574081 0.00421403
v -0.00609149 0.00575015 0.00432494
v -0.00588818 0.00592002 0.00471512
v -0.00556789 0.00618462 0.00587085
v -0.00554972 0.00619752 0.00510330
v -0.00543841 0.00627445 0.00510273
v -0.00515787 0.00646611 0.00432494
v -0.00501930 0.00655416 0.00375361
v -0.00480009 0.00668535 0.00471512
v -0.00467516 0.00675561 0.00510330
v -0.00465017 0.00676940 0.00471512
v -0.00439234 0.00691215 0.00432494
v -0.00438212 0.00691748 0.00471512
v -0.00420834 0.00699619 0.00471512
v -0.00408568 0.00705045 0.00375361
v -0.00352800 0.00726524 0.00471512
v -0.00359615 0.00724033 0.00375361
v -0.00350075 0.00727546 0.00375361
v -0.00324519 0.00736885 0.00471512
v -0.00318159 0.00738886 0.00471512
v -0.00309867 0.00741288 0.00375361
v -0.00248875 0.00753695 0.00375361
v -0.00240243 0.00755473 0.00432494
v -0.00174140 0.00766635 0.00637706
v -0.00174140 0.00766769 0.00510273
v -0.00174140 0.00766769 0.00471512
v -0.00161760 0.00767747 0.00510273
v -0.00633455 0.00315000 0.00471512
v -0.00687519 0.00315045 0.00587114
v -0.00163123 0.00767614 0.00587085
v -0.00152674 0.00768014 0.00637706
v -0.00001159 0.00761788 0.00637706
v 0.00006110 0.00760810 0.00548722
v -0.00061810 0.00315000 0.00347207
v 0.00245536 0.00681520 0.00548722
v 0.00276656 0.00662665 0.00432523
v 0.00302325 0.00647234 0.00510302
v 0.00327994 0.00631492 0.00375361
v 0.00346962 0.00618373 0.00637706
v 0.00340147 0.00623354 0.00375361
v 0.00351959 0.00614549 0.00432523
v 0.00370586 0.00599829 0.00492073
v 0.00392053 0.00581463 0.00542636
v 0.00395347 0.00578439 0.00548722
v 0.00416132 0.00559139 0.00587085
v 0.00419085 0.00556382 0.00592546
v 0.00448956 0.00525431 0.00637706
v 0.00449183 0.00450233 0.00637706
v 0.00449183 0.00315133 0.00637706
v 0.00342419 0.00315000 0.00375361
v 0.00067557 0.00748936 0.00637706
v 0.00071873 0.00748225 0.00548722
v 0.00081413 0.00746179 0.00548722
v 0.00080050 0.00746535 0.00510302
v 0.00099927 0.00741376 0.00548722
v 0.00100040 0.00741332 0.00587085
v 0.00099927 0.00741332 0.00637706
v 0.00194198 0.00706334 0.00637706
v 0.00204079 0.00702510 0.00637706
v 0.00211348 0.00699530 0.00637706
v 0.00209190 0.00700509 0.00587085
v 0.00214074 0.00698419 0.00587085
v 0.00212938 0.00698952 0.00510302
v 0.00214869 0.00698063 0.00548722
v 0.00229294 0.00691259 0.00587085
v -0.00711143 0.00418259 0.00637706
v -0.00710916 0.00460950 0.00637706
v -0.00703420 0.00472067 0.00621325
v -0.00659010 0.00525387 0.00526483
v -0.00659010 0.00525387 0.00587085
v -0.00622551 0.00561718 0.00587085
v -0.00637430 0.00547043 0.00510330
v -0.00613011 0.00571279 0.00471512
v -0.00596542 0.00585510 0.00587085
v -0.00556562 0.00618373 0.00637706
v -0.00528735 0.00637451 0.00637706
v -0.00525668 0.00639763 0.00587085
v -0.00520671 0.00643232 0.00510273
v -0.00472172 0.00672893 0.00587085
v -0.00477397 0.00670002 0.00510273
v -0.00454454 0.00682765 0.00587085
v -0.00439121 0.00691259 0.00510273
v -0.00439007 0.00691259 0.00637706
v -0.00425264 0.00697618 0.00510273
v -0.00417768 0.00700909 0.00587085
v -0.00414588 0.00702376 0.00510273
v -0.00412884 0.00703132 0.00471512
v -0.00411180 0.00703888 0.00432523
v -0.00414474 0.00702421 0.00510302
v -0.00387101 0.00713138 0.00510273
v -0.00344282 0.00729370 0.00587085
v -0.00335082 0.00732972 0.00510273
v -0.00320317 0.00738041 0.00637706
v -0.00320657 0.00738086 0.00510273
v -0.00309981 0.00741288 0.00510273
v -0.00309981 0.00741288 0.00471512
v -0.00309754 0.00741332 0.00587085
v -0.00248762 0.00753739 0.00510273
v -0.00257053 0.00752005 0.00587085
v -0.00262618 0.00750804 0.00637706
v -0.00164599 0.00767391 0.00637706
v -0.00454227 0.00315000 0.00471512
v -0.00096793 0.00315045 0.00637706
v -0.00710916 0.00315089 0.00637706
v 0.00229294 0.00691259 0.00637706
v 0.00285629 0.00657284 0.00637706
v 0.00319930 0.00636428 0.00432523
v 0.00351392 0.00614993 0.00637706
v 0.00351959 0.00614638 0.00587085
v 0.00346848 0.00618462 0.00510273
v 0.00346848 0.00618462 0.00432523
v 0.00366725 0.00602853 0.00587085
v 0.00388305 0.00584576 0.00587085
v 0.00383875 0.00588178 0.00637706
v 0.00412270 0.00562208 0.00637706
v 0.00418744 0.00315045 0.00587114
v 0.00189655 0.00315045 0.00637706
v 0.00352300 0.00315000 0.00432494
v 0.00084366 0.00745290 0.00637706
v 0.00217254 0.00696907 0.00637706
v -0.00704896 0.00470022 0.00637706
v -0.00701830 0.00473980 0.00637706
v -0.00674003 0.00507465 0.00637706
v -0.00658783 0.00525431 0.00637706
v -0.00626186 0.00557850 0.00637706
v -0.00615964 0.00568300 0.00510273
v -0.00592112 0.00588845 0.00637706
v -0.00468424 0.00674716 0.00637706
v -0.00419926 0.00699797 0.00637706
v -0.00340875 0.00730481 0.00637706
v -0.00309867 0.00741243 0.00637706
v 0.00364567 0.00604365 0.00637706
f 1 2 3
f 1 3 4
f 1 4 5
f 1 5 6
f 1 6 7
f 1 7 2
f 2 8 3
f 2 7 9
f 2 9 10
f 2 10 8
f 3 11 54
f 3 54 43
f 3 43 4
f 3 8 12
f 3 12 13
f 3 13 14
f 3 14 15
f 3 15 16
f 3 16 17
f 3 17 18
f 3 18 19
f 3 19 20
f 3 20 21
f 3 21 22
f 3 22 23
f 3 23 24
f 3 24 25
f 3 25 26
f 3 26 11
f 4 27 28
f 4 28 29
f 4 29 30
f 4 30 31
f 4 31 32
f 4 32 33
f 4 33 34
f 4 34 35
f 4 35 36
f 4 36 37
f 4 37 38
f 4 38 39
f 4 39 40
f 4 40 41
f 4 41 42
f 4 42 5
f 4 43 76
f 4 76 27
f 5 42 44
f 5 44 45
f 5 45 6
f 6 45 46
f 6 46 47
f 6 47 48
f 6 48 49
f 6 49 7
f 7 50 9
f 7 49 51
f 7 51 110
f 7 110 180
f 7 180 103
f 7 103 179
f 7 179 210
f 7 210 172
f 7 172 209
f 7 209 208
f 7 208 162
f 7 162 207
f 7 207 155
f 7 155 154
f 7 154 206
f 7 206 204
f 7 204 203
f 7 203 202
f 7 202 201
f 7 201 200
f 7 200 146
f 7 146 77
f 7 77 145
f 7 145 183
f 7 183 182
f 7 182 196
f 7 196 128
f 7 128 127
f 7 127 126
f 7 126 194
f 7 194 193
f 7 193 211
f 7 211 187
f 7 187 118
f 7 118 185
f 7 185 184
f 7 184 199
f 7 199 139
f 7 139 138
f 7 138 137
f 7 137 70
f 7 70 136
f 7 136 198
f 7 198 130
f 7 130 111
f 7 111 50
f 8 10 12
f 9 50 52
f 9 52 53
f 9 53 10
f 10 53 12
f 11 26 55
f 11 55 56
f 11 56 57
f 11 57 58
f 11 58 59
f 11 59 60
f 11 60 54
f 12 53 13
f 13 53 14
f 14 61 15
f 14 53 61
f 15 61 16
f 16 61 62
f 16 62 17
f 17 62 63
f 17 63 18
f 18 63 19
f 19 64 20
f 19 63 64
f 20 65 66
f 20 66 21
f 20 64 67
f 20 67 65
f 21 66 22
f 22 68 23
f 22 66 69
f 22 69 70
f 22 70 71
f 22 71 72
f 22 72 68
f 23 68 24
f 24 68 73
f 24 73 25
f 25 74 75
f 25 75 26
f 25 73 74
f 26 75 55
f 27 76 145
f 27 145 77
f 27 77 78
f 27 78 79
f 27 79 80
f 27 80 81
f 27 81 28
f 28 81 82
f 28 82 83
f 28 83 84
f 28 84 85
f 28 85 86
f 28 86 29
f 29 86 87
f 29 87 30
f 30 88 31
f 30 87 88
f 31 88 89
f 31 89 90
f 31 90 91
f 31 91 32
f 32 91 92
f 32 92 33
f 33 92 93
f 33 93 94
f 33 94 34
f 34 94 95
f 34 95 96
f 34 96 35
f 35 96 36
f 36 96 37
f 37 96 97
f 37 97 98
f 37 98 99
f 37 99 38
f 38 99 100
f 38 100 101
f 38 101 39
f 39 101 102
f 39 102 103
f 39 103 104
f 39 104 105
f 39 105 40
f 40 105 41
f 41 105 106
f 41 106 44
f 41 44 42
f 43 107 108
f 43 108 76
f 43 54 113
f 43 113 129
f 43 129 197
f 43 197 181
f 43 181 107
f 44 46 45
f 44 106 47
f 44 47 46
f 47 106 109
f 47 109 110
f 47 110 48
f 48 51 49
f 48 110 51
f 50 111 112
f 50 112 52
f 52 112 53
f 53 112 61
f 54 60 113
f 55 114 115
f 55 115 56
f 55 75 114
f 56 115 114
f 56 114 116
f 56 116 117
f 56 117 57
f 57 117 58
f 58 117 118
f 58 118 59
f 59 118 119
f 59 119 120
f 59 120 121
f 59 121 122
f 59 122 123
f 59 123 124
f 59 124 125
f 59 125 126
f 59 126 60
f 60 126 127
f 60 127 128
f 60 128 129
f 60 129 113
f 61 112 62
f 62 130 131
f 62 131 132
f 62 132 133
f 62 133 63
f 62 112 130
f 63 133 67
f 63 67 64
f 65 69 66
f 65 67 134
f 65 134 135
f 65 135 70
f 65 70 69
f 67 133 134
f 68 72 73
f 70 135 136
f 70 137 71
f 71 137 72
f 72 137 138
f 72 138 139
f 72 139 140
f 72 140 73
f 73 140 141
f 73 141 142
f 73 142 74
f 74 142 143
f 74 143 144
f 74 144 75
f 75 144 114
f 76 108 145
f 77 146 147
f 77 147 78
f 78 147 148
f 78 148 149
f 78 149 150
f 78 150 151
f 78 151 79
f 79 151 152
f 79 152 81
f 79 81 80
f 81 153 82
f 81 152 153
f 82 153 83
f 83 154 155
f 83 155 156
f 83 156 85
f 83 85 84
f 83 153 154
f 85 156 157
f 85 157 86
f 86 157 158
f 86 158 159
f 86 159 87
f 87 159 88
f 88 159 89
f 89 159 158
f 89 158 160
f 89 160 91
f 89 91 90
f 91 160 161
f 91 161 92
f 92 162 163
f 92 163 93
f 92 161 162
f 93 164 165
f 93 165 166
f 93 166 167
f 93 167 94
f 93 163 164
f 94 167 166
f 94 166 165
f 94 165 168
f 94 168 169
f 94 169 95
f 95 170 171
f 95 171 98
f 95 98 97
f 95 97 96
f 95 169 170
f 98 171 172
f 98 172 173
f 98 173 99
f 99 174 175
f 99 175 100
f 99 173 176
f 99 176 174
f 100 102 101
f 100 175 102
f 102 177 103
f 102 175 174
f 102 174 177
f 103 177 178
f 103 178 179
f 103 180 109
f 103 109 104
f 104 109 106
f 104 106 105
f 107 181 196
f 107 196 182
f 107 182 108
f 108 183 145
f 108 182 183
f 109 180 110
f 111 130 112
f 114 144 184
f 114 184 185
f 114 185 116
f 116 185 186
f 116 186 117
f 117 186 118
f 118 187 188
f 118 188 189
f 118 189 119
f 118 186 185
f 119 189 190
f 119 190 120
f 120 190 188
f 120 188 121
f 121 191 192
f 121 192 122
f 121 188 191
f 122 192 123
f 123 192 124
f 124 192 193
f 124 193 194
f 124 194 125
f 125 194 126
f 128 195 129
f 128 196 195
f 129 195 197
f 130 198 132
f 130 132 131
f 132 198 136
f 132 136 135
f 132 135 134
f 132 134 133
f 139 199 141
f 139 141 140
f 141 199 143
f 141 143 142
f 143 199 184
f 143 184 144
f 146 200 147
f 147 200 201
f 147 201 202
f 147 202 148
f 148 202 149
f 149 202 203
f 149 203 150
f 150 204 153
f 150 153 205
f 150 205 152
f 150 152 151
f 150 203 204
f 152 205 153
f 153 204 206
f 153 206 154
f 155 207 158
f 155 158 156
f 156 158 157
f 158 207 162
f 158 162 160
f 160 162 161
f 162 208 164
f 162 164 163
f 164 208 209
f 164 209 169
f 164 169 168
f 164 168 165
f 169 209 170
f 170 209 171
f 171 209 172
f 172 210 173
f 173 210 176
f 174 176 177
f 176 210 178
f 176 178 177
f 178 210 179
f 181 197 196
f 187 211 191
f 187 191 188
f 188 190 189
f 191 193 192
f 191 211 193
f 195 196 197

