# https://github.com/mikedh/trimesh
v 0.00197585 0.00706257 0.00027602
v 0.00188361 0.00736926 -0.00011864
v 0.00196934 0.00706257 0.00291402
v 0.00186705 0.00706257 -0.00026411
v 0.00196757 0.00706264 -0.00318261
v 0.00197526 0.00706264 -0.00027520
v 0.00183748 0.00744130 -0.00011538
v 0.00184221 0.00711565 0.00291402
v -0.00012091 0.00706257 0.00291402
v 0.00180851 0.00744130 0.00034517
v 0.00173696 0.00748752 0.00033147
v 0.00071342 0.00706257 -0.00026411
v 0.00008546 0.00706264 -0.00374622
v 0.00043137 0.00706264 -0.00372469
v 0.00095467 0.00706264 -0.00362227
v 0.00102917 0.00706264 -0.00360401
v 0.00133961 0.00706264 -0.00350159
v 0.00176002 0.00706264 -0.00330916
v 0.00177776 0.00706264 -0.00330003
v 0.00176889 0.00714971 -0.00330524
v 0.00168197 0.00748752 -0.00054656
v 0.00176534 0.00748752 -0.00011081
v 0.00160037 0.00748752 0.00075287
v 0.00166305 0.00718495 0.00291402
v -0.00406489 0.00706264 0.00291402
v -0.00012091 0.00706257 0.00075026
v 0.00166955 0.00749993 0.00031842
v -0.00290061 0.00706264 -0.00237568
v -0.00261620 0.00706264 -0.00268162
v -0.00254169 0.00706264 -0.00275142
v -0.00222239 0.00706264 -0.00301953
v -0.00180612 0.00706264 -0.00327980
v -0.00169613 0.00706264 -0.00334112
v -0.00140580 0.00706264 -0.00347550
v -0.00102382 0.00706264 -0.00360336
v -0.00089788 0.00706264 -0.00363662
v -0.00050407 0.00706264 -0.00371556
v -0.00037871 0.00706264 -0.00372991
v -0.00003162 0.00706264 -0.00374491
v 0.00003638 0.00762068 -0.00374882
v 0.00043137 0.00755201 -0.00372469
v 0.00100138 0.00741361 -0.00361314
v 0.00133961 0.00730907 -0.00350159
v 0.00161634 0.00749987 -0.00052569
v 0.00169616 0.00749993 -0.00010690
v 0.00027113 0.00757927 0.00291402
v 0.00041777 0.00755176 0.00291402
v 0.00072347 0.00748639 0.00291402
v 0.00099961 0.00741410 0.00291402
v 0.00100197 0.00741342 0.00291402
v 0.00124382 0.00733976 0.00291402
v 0.00153769 0.00749993 0.00072351
v -0.00405247 0.00706844 0.00291402
v -0.00406489 0.00706264 -0.00015582
v -0.00401404 0.00706264 -0.00026541
v -0.00339790 0.00706264 -0.00158441
v -0.00308510 0.00706264 -0.00212845
v -0.00035861 0.00766784 0.00291402
v -0.00012091 0.00764014 0.00291402
v -0.00003517 0.00763004 0.00291402
v -0.00290061 0.00746787 -0.00237568
v -0.00258131 0.00754172 -0.00271946
v -0.00310166 0.00741361 -0.00210627
v -0.00222239 0.00760758 -0.00301953
v -0.00174048 0.00766784 -0.00332025
v -0.00140580 0.00769135 -0.00347550
v -0.00096174 0.00769940 -0.00362423
v -0.00050407 0.00767987 -0.00371556
v -0.00035920 0.00766790 -0.00373186
v -0.00365866 0.00722087 0.00291402
v -0.00391351 0.00713150 -0.00026476
v -0.00401404 0.00708578 -0.00026476
v -0.00401404 0.00708565 -0.00026541
v -0.00339790 0.00732279 -0.00158441
v -0.00068856 0.00769110 0.00187748
v -0.00081155 0.00768836 0.00291402
v -0.00310225 0.00741361 -0.00026476
v -0.00310225 0.00741361 0.00291402
v -0.00225018 0.00758631 0.00291402
v -0.00310757 0.00741186 -0.00171553
v -0.00196931 0.00764326 -0.00034760
v -0.00200006 0.00763946 0.00000009
v -0.00197700 0.00764233 -0.00026476
v -0.00187944 0.00765386 -0.00068420
v -0.00174107 0.00766790 -0.00171553
v -0.00157610 0.00768087 -0.00171553
v -0.00153116 0.00768436 -0.00128499
v -0.00153175 0.00768436 0.00128516
v -0.00128518 0.00769622 0.00153174
v -0.00128459 0.00769622 -0.00153223
v -0.00100017 0.00769977 -0.00173184
v -0.00100076 0.00769965 0.00173135
v -0.00068856 0.00769110 -0.00187796
v -0.00328969 0.00735616 0.00291402
v -0.00347477 0.00729298 -0.00026476
v -0.00388572 0.00714216 -0.00026476
v -0.00390228 0.00713611 -0.00050286
v -0.00336597 0.00733265 -0.00026476
v -0.00109774 0.00769547 0.00291402
v -0.00174226 0.00766784 0.00291402
v -0.00196931 0.00764326 0.00034777
v -0.00187885 0.00765386 0.00068372
v -0.00174226 0.00766784 0.00098249
v -0.00156841 0.00768150 0.00291402
v -0.00139634 0.00768985 0.00291402
v -0.00135377 0.00769191 0.00291402
v -0.00114327 0.00769484 0.00291402
f 1 2 3
f 1 3 9
f 1 9 26
f 1 26 12
f 1 12 4
f 1 4 5
f 1 5 6
f 1 6 2
f 2 7 3
f 2 6 5
f 2 5 7
f 3 8 24
f 3 24 51
f 3 51 50
f 3 50 49
f 3 49 48
f 3 48 47
f 3 47 46
f 3 46 60
f 3 60 59
f 3 59 58
f 3 58 76
f 3 76 99
f 3 99 107
f 3 107 106
f 3 106 105
f 3 105 104
f 3 104 100
f 3 100 79
f 3 79 78
f 3 78 94
f 3 94 70
f 3 70 53
f 3 53 25
f 3 25 9
f 3 7 10
f 3 10 11
f 3 11 8
f 4 12 13
f 4 13 14
f 4 14 15
f 4 15 16
f 4 16 17
f 4 17 18
f 4 18 19
f 4 19 5
f 5 19 20
f 5 20 21
f 5 21 22
f 5 22 7
f 7 22 10
f 8 11 23
f 8 23 24
f 9 25 54
f 9 54 26
f 10 22 11
f 11 22 27
f 11 27 23
f 12 26 28
f 12 28 29
f 12 29 30
f 12 30 31
f 12 31 32
f 12 32 33
f 12 33 34
f 12 34 35
f 12 35 36
f 12 36 37
f 12 37 38
f 12 38 39
f 12 39 13
f 13 39 40
f 13 40 41
f 13 41 14
f 14 41 42
f 14 42 15
f 15 42 16
f 16 42 43
f 16 43 17
f 17 43 20
f 17 20 18
f 18 20 19
f 20 43 21
f 21 43 42
f 21 42 41
f 21 41 40
f 21 40 44
f 21 44 45
f 21 45 22
f 22 45 27
f 23 46 47
f 23 47 48
f 23 48 49
f 23 49 50
f 23 50 51
f 23 51 24
f 23 27 52
f 23 52 46
f 25 53 54
f 26 54 55
f 26 55 56
f 26 56 57
f 26 57 28
f 27 45 58
f 27 58 59
f 27 59 60
f 27 60 52
f 28 61 62
f 28 62 29
f 28 57 63
f 28 63 61
f 29 62 30
f 30 62 31
f 31 62 64
f 31 64 32
f 32 64 65
f 32 65 33
f 33 65 66
f 33 66 34
f 34 67 35
f 34 66 67
f 35 67 36
f 36 67 37
f 37 68 38
f 37 67 68
f 38 68 69
f 38 69 39
f 39 69 40
f 40 69 45
f 40 45 44
f 45 69 68
f 45 68 58
f 46 52 60
f 53 70 71
f 53 71 72
f 53 72 54
f 54 72 73
f 54 73 55
f 55 73 74
f 55 74 56
f 56 74 63
f 56 63 57
f 58 75 76
f 58 68 75
f 61 63 77
f 61 77 78
f 61 78 62
f 62 78 79
f 62 79 64
f 63 74 80
f 63 80 77
f 64 81 65
f 64 79 82
f 64 82 83
f 64 83 81
f 65 81 84
f 65 84 85
f 65 85 86
f 65 86 66
f 66 86 87
f 66 87 88
f 66 88 89
f 66 89 90
f 66 90 67
f 67 90 91
f 67 91 92
f 67 92 75
f 67 75 93
f 67 93 68
f 68 93 75
f 70 94 95
f 70 95 96
f 70 96 71
f 71 96 97
f 71 97 72
f 72 97 73
f 73 97 74
f 74 97 96
f 74 96 95
f 74 95 94
f 74 94 98
f 74 98 77
f 74 77 80
f 75 92 99
f 75 99 76
f 77 98 94
f 77 94 78
f 79 100 101
f 79 101 82
f 81 83 101
f 81 101 84
f 82 101 83
f 84 101 102
f 84 102 100
f 84 100 103
f 84 103 85
f 85 103 86
f 86 103 104
f 86 104 88
f 86 88 87
f 88 104 89
f 89 104 105
f 89 105 106
f 89 106 107
f 89 107 92
f 89 92 91
f 89 91 90
f 92 107 99
f 100 104 103
f 100 102 101

