# https://github.com/mikedh/trimesh
v 0.00196735 0.00706251 -0.00318327
v 0.00177766 0.00706251 -0.00330057
v 0.00195988 0.00706251 -0.00179513
v 0.00197407 0.00706213 -0.00047269
v 0.00216376 0.00697589 -0.00306179
v 0.00216376 0.00315029 -0.00306179
v 0.00175973 0.00706251 -0.00330987
v 0.00133928 0.00315029 -0.00350217
v -0.00327525 0.00706251 -0.00179513
v -0.00391676 0.00706213 -0.00047269
v 0.00299421 0.00650176 -0.00047237
v 0.00204651 0.00702878 -0.00047269
v 0.00229520 0.00691111 -0.00047269
v 0.00227877 0.00691993 -0.00179513
v 0.00229669 0.00691150 -0.00296371
v 0.00258645 0.00675856 -0.00271436
v 0.00285381 0.00315029 -0.00243166
v 0.00105997 0.00314684 -0.00106115
v 0.00057380 0.00314684 -0.00138583
v 0.00133928 0.00706251 -0.00350217
v 0.00043116 0.00315029 -0.00372493
v 0.00102935 0.00706251 -0.00360410
v -0.00308482 0.00706251 -0.00212878
v -0.00339698 0.00706174 -0.00158487
v -0.00348660 0.00706213 -0.00139224
v -0.00371438 0.00650176 -0.00090602
v -0.00391676 0.00650176 -0.00047269
v -0.00391527 0.00650176 -0.00047237
v 0.00307113 0.00645768 -0.00047237
v 0.00292476 0.00655580 -0.00179513
v 0.00285381 0.00660256 -0.00243166
v 0.00229594 0.00691150 -0.00179513
v 0.00313312 0.00642472 -0.00206051
v 0.00336687 0.00315105 -0.00164993
v 0.00327128 0.00315029 -0.00179513
v 0.00138484 0.00314684 -0.00057429
v -0.00000199 0.00314684 -0.00149993
v 0.00043116 0.00706251 -0.00372493
v 0.00095467 0.00706251 -0.00362237
v -0.00050235 0.00315029 -0.00371596
v 0.00008539 0.00706251 -0.00374673
v -0.00326629 0.00315029 -0.00179513
v -0.00339698 0.00315105 -0.00158487
v -0.00290035 0.00706251 -0.00237621
v -0.00290035 0.00315029 -0.00237621
v -0.00371438 0.00315067 -0.00090602
v -0.00391527 0.00315067 -0.00047237
v 0.00294791 0.00654124 -0.00179513
v 0.00321975 0.00636263 -0.00047237
v 0.00315477 0.00640632 -0.00090602
v 0.00328397 0.00631855 -0.00179513
v 0.00336687 0.00625991 -0.00164993
v 0.00358344 0.00609547 -0.00110186
v 0.00363422 0.00438218 -0.00090602
v 0.00362228 0.00315067 -0.00090602
v 0.00345499 0.00315067 -0.00139192
v 0.00367007 0.00315067 -0.00076564
v 0.00140500 0.00314684 -0.00047237
v -0.00057255 0.00314684 -0.00138583
v -0.00050235 0.00706251 -0.00371596
v -0.00037763 0.00706251 -0.00373038
v -0.00003037 0.00706251 -0.00374544
v -0.00140599 0.00315029 -0.00347589
v -0.00102288 0.00706251 -0.00360378
v -0.00089592 0.00706251 -0.00363743
v -0.00138358 0.00314684 -0.00057429
v -0.00348660 0.00315067 -0.00139192
v -0.00261582 0.00706251 -0.00268198
v -0.00254263 0.00706251 -0.00275218
v -0.00222225 0.00315029 -0.00301980
v -0.00105947 0.00314684 -0.00106115
v -0.00130218 0.00314684 -0.00047237
v 0.00342960 0.00621353 -0.00047237
v 0.00339076 0.00624227 -0.00090602
v 0.00342736 0.00621506 -0.00090602
v 0.00350204 0.00615833 -0.00047237
v 0.00355357 0.00611809 -0.00047237
v 0.00367007 0.00602725 -0.00076564
v 0.00371264 0.00494523 -0.00047237
v 0.00369322 0.00315067 -0.00047237
v -0.00169650 0.00706251 -0.00334128
v -0.00140599 0.00706251 -0.00347589
v -0.00222225 0.00706251 -0.00301980
v -0.00180553 0.00706251 -0.00328006
v 0.00371264 0.00599199 -0.00047237
f 1 2 7
f 1 7 20
f 1 20 22
f 1 22 39
f 1 39 38
f 1 38 41
f 1 41 62
f 1 62 61
f 1 61 60
f 1 60 65
f 1 65 64
f 1 64 82
f 1 82 81
f 1 81 84
f 1 84 83
f 1 83 69
f 1 69 68
f 1 68 44
f 1 44 23
f 1 23 9
f 1 9 3
f 1 3 4
f 1 4 5
f 1 5 6
f 1 6 2
f 2 6 8
f 2 8 7
f 3 9 10
f 3 10 4
f 4 10 28
f 4 28 11
f 4 11 12
f 4 12 5
f 5 13 14
f 5 14 15
f 5 15 6
f 5 12 13
f 6 15 16
f 6 16 17
f 6 17 18
f 6 18 19
f 6 19 8
f 7 8 20
f 8 19 21
f 8 21 22
f 8 22 20
f 9 23 24
f 9 24 25
f 9 25 10
f 10 25 24
f 10 24 26
f 10 26 46
f 10 46 27
f 10 27 47
f 10 47 28
f 11 29 13
f 11 13 12
f 11 28 47
f 11 47 72
f 11 72 58
f 11 58 80
f 11 80 79
f 11 79 85
f 11 85 77
f 11 77 76
f 11 76 73
f 11 73 49
f 11 49 29
f 13 29 30
f 13 30 31
f 13 31 16
f 13 16 32
f 13 32 14
f 14 32 15
f 15 32 16
f 16 31 17
f 17 31 33
f 17 33 34
f 17 34 35
f 17 35 36
f 17 36 18
f 18 36 58
f 18 58 72
f 18 72 66
f 18 66 71
f 18 71 59
f 18 59 37
f 18 37 19
f 19 37 21
f 21 38 39
f 21 39 22
f 21 37 40
f 21 40 41
f 21 41 38
f 23 42 43
f 23 43 24
f 23 44 45
f 23 45 42
f 24 43 46
f 24 46 26
f 27 46 47
f 29 33 48
f 29 48 30
f 29 49 50
f 29 50 33
f 30 48 31
f 31 48 33
f 33 50 49
f 33 49 51
f 33 51 52
f 33 52 34
f 34 52 53
f 34 53 54
f 34 54 55
f 34 55 56
f 34 56 35
f 35 56 55
f 35 55 57
f 35 57 58
f 35 58 36
f 37 59 40
f 40 60 61
f 40 61 62
f 40 62 41
f 40 59 63
f 40 63 64
f 40 64 65
f 40 65 60
f 42 45 66
f 42 66 47
f 42 47 46
f 42 46 67
f 42 67 43
f 43 67 46
f 44 68 45
f 45 68 69
f 45 69 70
f 45 70 71
f 45 71 66
f 47 66 72
f 49 73 74
f 49 74 52
f 49 52 51
f 52 74 73
f 52 73 75
f 52 75 53
f 53 75 76
f 53 76 77
f 53 77 78
f 53 78 54
f 54 78 57
f 54 57 55
f 57 78 85
f 57 85 79
f 57 79 80
f 57 80 58
f 59 71 70
f 59 70 63
f 63 70 81
f 63 81 82
f 63 82 64
f 69 83 70
f 70 83 84
f 70 84 81
f 73 76 75
f 77 85 78

