# https://github.com/mikedh/trimesh
v -0.00019935 0.00749707 -0.01600000
v 0.00088512 0.00744722 -0.01600000
v -0.00008495 -0.00749952 -0.01600000
v -0.00589255 0.00464616 -0.01600000
v -0.00646078 0.00382110 -0.01600000
v -0.00689157 0.00296152 -0.01600000
v 0.00305743 0.00684816 -0.01600000
v 0.00403870 0.00632118 -0.01600000
v 0.00729346 -0.00175055 -0.01600000
v 0.00482886 0.00574051 -0.01600000
v 0.00561490 0.00497332 -0.01600000
v 0.00516081 -0.00544370 -0.01600000
v 0.00444962 -0.00604464 -0.01600000
v 0.00359285 -0.00658735 -0.01600000
v 0.00258044 -0.00704123 -0.01600000
v -0.00666721 -0.00344109 -0.01600000
v -0.00128188 -0.00739170 -0.01600000
v -0.00707530 -0.00248698 -0.01600000
v -0.00736027 -0.00144242 -0.01600000
v -0.00749122 -0.00036596 -0.01600000
v -0.00519005 0.00541301 -0.01600000
v -0.00426917 0.00616699 -0.01600000
v -0.00341666 0.00667861 -0.01600000
v 0.00707129 -0.00250204 -0.01600000
v 0.00658163 -0.00359697 -0.01600000
v 0.00595310 -0.00456137 -0.01600000
v 0.00149910 -0.00734792 -0.01600000
v 0.00028438 -0.00749457 -0.01600000
v -0.00337154 -0.00670138 -0.01600000
v -0.00438177 -0.00608731 -0.01600000
v -0.00530932 -0.00529630 -0.01600000
v -0.00744845 0.00087004 -0.01600000
v -0.00722747 0.00199599 -0.01600000
v -0.00240384 0.00710618 -0.01600000
v -0.00130408 0.00738496 -0.01600000
v 0.00193050 0.00724606 -0.01600000
v -0.00233904 -0.00712830 -0.01600000
v -0.00608275 -0.00439283 -0.01600000
v 0.00685433 0.00304653 -0.01600000
v 0.00726311 0.00187283 -0.01600000
v 0.00746972 0.00067515 -0.01600000
v 0.00633556 0.00401543 -0.01600000
v 0.00748023 -0.00054525 -0.01600000
v 0.00149910 -0.00734792 -0.01330000
v 0.00085553 -0.00745079 -0.01330000
v 0.00179555 -0.00728095 -0.01330000
v 0.00258044 -0.00704123 -0.01330000
v 0.00359285 -0.00658735 -0.01330000
v 0.00368305 -0.00653795 -0.01330000
v 0.00444962 -0.00604464 -0.01330000
v 0.00467829 -0.00586607 -0.01330000
v 0.00516081 -0.00544370 -0.01330000
v 0.00640282 -0.00390565 -0.01330000
v 0.00658163 -0.00359697 -0.01330000
v 0.00688763 -0.00297066 -0.01330000
v 0.00707129 -0.00250204 -0.01330000
v 0.00722163 -0.00202705 -0.01330000
v 0.00729346 -0.00175055 -0.01330000
v 0.00742129 -0.00108562 -0.01330000
v 0.00748023 -0.00054525 -0.01330000
v 0.00749878 -0.00013667 -0.01330000
v 0.00746972 0.00067515 -0.01330000
v 0.00745590 0.00081419 -0.01330000
v 0.00728923 0.00176826 -0.01330000
v 0.00698631 0.00273042 -0.01330000
v 0.00652824 0.00369403 -0.01330000
v 0.00685433 0.00304653 -0.01330000
v 0.00587371 0.00466474 -0.01330000
v 0.00633556 0.00401543 -0.01330000
v 0.00482886 0.00574051 -0.01330000
v 0.00485613 0.00571754 -0.01330000
v 0.00561490 0.00497332 -0.01330000
v 0.00305743 0.00684816 -0.01330000
v 0.00352168 0.00662243 -0.01330000
v 0.00389565 0.00641018 -0.01330000
v 0.00403870 0.00632118 -0.01330000
v 0.00104082 0.00742693 -0.01330000
v 0.00193050 0.00724606 -0.01330000
v 0.00294523 0.00689689 -0.01330000
v 0.00008507 0.00749953 -0.01330000
v 0.00088512 0.00744722 -0.01330000
v -0.00376558 0.00648813 -0.01330000
v -0.00426917 0.00616699 -0.01330000
v -0.00519005 0.00541301 -0.01330000
v -0.00589255 0.00464616 -0.01330000
v -0.00646078 0.00382110 -0.01330000
v -0.00689157 0.00296152 -0.01330000
v -0.00692426 0.00288333 -0.01330000
v -0.00722747 0.00199599 -0.01330000
v -0.00724484 0.00193185 -0.01330000
v -0.00743428 0.00098231 -0.01330000
v -0.00749985 0.00003325 -0.01330000
v -0.00744845 0.00087004 -0.01330000
v -0.00744425 -0.00091642 -0.01330000
v -0.00749122 -0.00036596 -0.01330000
v -0.00707530 -0.00248698 -0.01330000
v -0.00726429 -0.00186499 -0.01330000
v -0.00736027 -0.00144242 -0.01330000
v -0.00530932 -0.00529630 -0.01330000
v -0.00608275 -0.00439283 -0.01330000
v -0.00649255 -0.00376180 -0.01330000
v -0.00666721 -0.00344109 -0.01330000
v -0.00382652 -0.00645200 -0.01330000
v -0.00390423 -0.00640537 -0.01330000
v -0.00438177 -0.00608731 -0.01330000
v 0.00028438 -0.00749457 -0.01330000
v -0.00227571 -0.00347167 0.00080645
v -0.00183376 -0.00351418 0.00087514
v -0.00186873 -0.00311743 0.00119177
v -0.00585650 -0.00031971 -0.00066425
v -0.00583313 -0.00071087 -0.00072160
v -0.00532713 -0.00074997 0.00030629
v -0.00476703 -0.00238234 0.00000345
v -0.00443345 -0.00243450 0.00037477
v -0.00458119 -0.00163015 0.00086543
v -0.00420789 -0.00166629 0.00120648
v -0.00179659 -0.00388879 0.00052779
v -0.00127616 -0.00491553 -0.00058398
v -0.00086942 -0.00494537 -0.00056541
v -0.00090333 -0.00430661 0.00020148
v -0.00298420 -0.00407332 -0.00021291
v -0.00258735 -0.00413577 -0.00004834
v -0.00270759 -0.00342239 0.00069240
v -0.00694238 -0.00052702 -0.00545782
v -0.00690105 -0.00110698 -0.00554353
v -0.00662366 -0.00125267 -0.00389299
v -0.00707203 -0.00097485 -0.00690056
v -0.00407611 -0.00574236 -0.00562253
v -0.00447624 -0.00553466 -0.00605934
v -0.00407639 -0.00603691 -0.00709007
v -0.00045696 -0.00749802 -0.00973652
v -0.00082869 -0.00748867 -0.00975219
v -0.00070327 -0.00749212 -0.01118378
v -0.00445291 -0.00602101 -0.01206665
v -0.00420516 -0.00620847 -0.01252582
v -0.00383001 -0.00645086 -0.01222584
v 0.00662746 -0.00345210 -0.01056874
v 0.00687124 -0.00288134 -0.01030254
v 0.00670344 -0.00311358 -0.00963068
v 0.00673364 -0.00265574 -0.00856851
v 0.00695000 -0.00186361 -0.00827886
v 0.00670939 -0.00204062 -0.00731563
v 0.00463984 -0.00081703 -0.00144611
v 0.00467735 -0.00005150 -0.00137689
v 0.00408183 -0.00004119 -0.00067494
v 0.00179976 -0.00092421 0.00100918
v 0.00182052 -0.00000620 0.00107101
v 0.00093554 0.00000628 0.00150903
v -0.00001546 -0.00140930 0.00171744
v -0.00002072 -0.00187319 0.00159523
v 0.00089452 -0.00185912 0.00125220
v 0.00087901 -0.00230559 0.00110252
v 0.00084319 -0.00315470 0.00069718
v 0.00086183 -0.00273841 0.00091768
v -0.00003083 -0.00276483 0.00123963
v -0.00002585 -0.00232603 0.00143613
v 0.00050443 -0.00701872 -0.00535887
v -0.00007957 -0.00705285 -0.00531408
v -0.00008219 -0.00728131 -0.00666898
v 0.00715590 0.00033792 -0.00802801
v 0.00716116 -0.00011239 -0.00801020
v 0.00726406 0.00069103 -0.00900069
v 0.00066788 0.00702058 -0.00533704
v 0.00124080 0.00691989 -0.00546441
v 0.00111542 0.00715529 -0.00678012
v 0.00070020 0.00684432 -0.00461447
v 0.00007847 0.00689714 -0.00455160
v 0.00007588 0.00666658 -0.00378933
v -0.00165127 0.00692706 -0.00561284
v -0.00108933 0.00701588 -0.00543743
v -0.00095927 0.00725488 -0.00677609
v -0.00054608 0.00689033 -0.00458615
v -0.00058484 0.00665860 -0.00381632
v -0.00240575 0.00696542 -0.00727383
v -0.00283492 0.00681751 -0.00750076
v -0.00315228 0.00649499 -0.00641581
v -0.00571994 0.00412639 -0.00557669
v -0.00548810 0.00452607 -0.00603680
v -0.00594645 0.00409261 -0.00710031
v -0.00741488 -0.00101260 -0.01243653
v -0.00733902 -0.00116734 -0.01130391
v -0.00741061 -0.00056954 -0.01122773
v -0.00690850 -0.00291396 -0.01298476
v -0.00008509 -0.00749980 -0.01236153
v 0.00664758 -0.00347490 -0.01318673
v 0.00676466 0.00324077 -0.01320878
v 0.00694493 0.00283610 -0.01298787
v 0.00512639 0.00547695 -0.01280789
v 0.00538091 0.00522726 -0.01240306
v 0.00008481 0.00750002 -0.01239550
v -0.00115581 0.00745276 -0.01125784
v -0.00053950 0.00750394 -0.01120687
v 0.00008506 0.00749628 -0.01121039
v 0.00061872 0.00746834 -0.01242642
v 0.00304196 0.00685252 -0.01303160
v 0.00385409 0.00641757 -0.01231940
v 0.00458448 0.00593599 -0.01289067
v 0.00488608 0.00569203 -0.01320866
v 0.00583668 0.00471067 -0.01319915
v 0.00607117 0.00440496 -0.01286531
v 0.00630771 0.00406097 -0.01254557
v 0.00654230 0.00367416 -0.01224692
v 0.00710810 0.00240007 -0.01279626
v 0.00724868 0.00193416 -0.01263789
v 0.00736144 0.00144137 -0.01251558
v 0.00744242 0.00092803 -0.01242912
v 0.00745433 0.00049021 -0.01121692
v 0.00746670 -0.00012888 -0.01119433
v 0.00749768 -0.00013345 -0.01235984
v 0.00746936 -0.00066670 -0.01237464
v 0.00740468 -0.00119168 -0.01242308
v 0.00730570 -0.00170117 -0.01250667
v 0.00717585 -0.00218886 -0.01262606
v 0.00701931 -0.00264873 -0.01278125
v 0.00684140 -0.00307779 -0.01296950
v 0.00641481 -0.00389214 -0.01222820
v 0.00616810 -0.00426996 -0.01252303
v 0.00567727 -0.00490162 -0.01316766
v 0.00405483 -0.00630369 -0.01256205
v 0.00096309 -0.00742713 -0.01245666
v 0.00052863 -0.00745175 -0.01124304
v -0.00533252 -0.00524907 -0.01238635
v -0.00578929 -0.00476917 -0.01317225
v -0.00507905 -0.00551043 -0.01277405
v -0.00483580 -0.00573166 -0.01316855
v -0.00626194 -0.00410689 -0.01255721
v -0.00687871 0.00298510 -0.01300209
v -0.00704772 0.00254717 -0.01281658
v -0.00719455 0.00208198 -0.01265965
v -0.00731497 0.00159304 -0.01253388
v -0.00740484 0.00108538 -0.01244170
v -0.00746078 0.00056441 -0.01238516
v -0.00748121 0.00003651 -0.01236535
v -0.00666552 0.00335141 -0.01203618
v -0.00644603 0.00378676 -0.01229627
v -0.00621412 0.00418089 -0.01257931
v -0.00597387 0.00453108 -0.01288246
v -0.00573062 0.00483956 -0.01320308
v -0.00686845 0.00287720 -0.01180286
v -0.00705068 0.00236646 -0.01160018
v -0.00720648 0.00182161 -0.01143295
v -0.00732715 0.00124717 -0.01130754
v -0.00740480 0.00064990 -0.01122941
v -0.00743347 0.00004022 -0.01120232
v -0.00732989 -0.00152054 -0.01252602
v -0.00552557 0.00501790 -0.01203224
v -0.00462683 0.00586080 -0.01163201
v -0.00496587 0.00558352 -0.01202108
v -0.00526119 0.00532152 -0.01241467
v -0.00660618 0.00293384 -0.00755939
v -0.00705568 0.00108392 -0.00689960
v -0.00693198 0.00064719 -0.00545776
v -0.00688079 0.00122582 -0.00554305
v -0.00666697 0.00073005 -0.00377738
v -0.00659937 0.00138275 -0.00389240
v -0.00646457 0.00077286 -0.00282081
v -0.00638413 0.00146357 -0.00296074
v -0.00619192 0.00081521 -0.00179501
v -0.00609571 0.00154369 -0.00197095
v -0.00608737 0.00275930 -0.00353855
v -0.00615465 0.00316810 -0.00472510
v -0.00633886 0.00261339 -0.00437191
v -0.00652600 0.00282786 -0.00613821
v -0.00667692 0.00232526 -0.00588623
v -0.00675607 0.00251183 -0.00734246
v -0.00688325 0.00206004 -0.00715665
v -0.00701807 0.00182894 -0.00822758
v -0.00634921 0.00329137 -0.00643222
v -0.00720410 0.00147970 -0.00995314
v -0.00594846 0.00224380 -0.00226753
v -0.00625627 0.00212973 -0.00320183
v -0.00648898 0.00201418 -0.00409137
v -0.00679581 0.00178805 -0.00568644
v -0.00698347 0.00158181 -0.00700798
v -0.00710590 0.00140245 -0.00811386
v -0.00731835 0.00077404 -0.00983371
v -0.00472976 0.00540526 -0.00649176
v -0.00503834 0.00518280 -0.00693350
v -0.00553007 0.00473228 -0.00779280
v -0.00588801 0.00430125 -0.00859716
v -0.00437402 0.00562072 -0.00604814
v -0.00518586 0.00474108 -0.00547816
v -0.00542524 0.00433176 -0.00495014
v -0.00566191 0.00386387 -0.00443544
v -0.00474895 0.00564640 -0.00912215
v -0.00396783 0.00582620 -0.00560875
v -0.00482635 0.00495000 -0.00491147
v -0.00506768 0.00453162 -0.00431178
v -0.00531043 0.00404990 -0.00372116
v -0.00554479 0.00350636 -0.00316600
v -0.00623053 0.00007192 -0.00173632
v -0.00586150 0.00007318 -0.00064637
v -0.00584750 0.00046573 -0.00066731
v -0.00669342 0.00006656 -0.00373997
v -0.00649633 0.00006950 -0.00277509
v -0.00535832 0.00007252 0.00040187
v -0.00534280 0.00048437 0.00037391
v -0.00530772 0.00089351 0.00029766
v -0.00625862 0.00368112 -0.00805957
v -0.00615364 0.00371366 -0.00675677
v -0.00594524 0.00367309 -0.00513306
v -0.00588592 0.00333912 -0.00395721
v -0.00576096 0.00290259 -0.00267262
v -0.00554057 0.00235456 -0.00131985
v -0.00581569 0.00085591 -0.00072580
v -0.00557874 0.00087518 -0.00020204
v -0.00546187 0.00165887 -0.00045884
v -0.00518760 0.00169502 0.00001233
v -0.00501722 0.00246018 -0.00042604
v -0.00471174 0.00251032 -0.00001984
v -0.00570421 0.00162144 -0.00095337
v -0.00529343 0.00240816 -0.00086211
v -0.00481439 0.00317430 -0.00098506
v -0.00418518 0.00329835 -0.00026983
v -0.00488079 0.00172965 0.00044978
v -0.00437676 0.00255829 0.00034827
v -0.00383187 0.00335622 0.00003305
v -0.00364085 0.00403532 -0.00069112
v -0.00327840 0.00409941 -0.00044490
v -0.00310141 0.00470743 -0.00123895
v -0.00263153 0.00350765 0.00065750
v -0.00319708 0.00268599 0.00114544
v -0.00275783 0.00272142 0.00129709
v -0.00332151 0.00184798 0.00166008
v -0.00286476 0.00187087 0.00180021
v -0.00290725 0.00142703 0.00198814
v -0.00242843 0.00144011 0.00205979
v -0.00245597 0.00098140 0.00218976
v -0.00196185 0.00098588 0.00219586
v -0.00198648 0.00004341 0.00229402
v -0.00142436 0.00191467 0.00188974
v -0.00144589 0.00145557 0.00204448
v -0.00096454 0.00098657 0.00206873
v -0.00042981 0.00280338 0.00133038
v -0.00045284 0.00191703 0.00172725
v 0.00002212 0.00190834 0.00159541
v -0.00047134 0.00098231 0.00195040
v 0.00001155 0.00097468 0.00180549
v 0.00000073 0.00001885 0.00186809
v -0.00146304 0.00098768 0.00215303
v -0.00193968 0.00144976 0.00207643
v -0.00239318 0.00189002 0.00188162
v -0.00230408 0.00275182 0.00139582
v -0.00219838 0.00354736 0.00076920
v -0.00208563 0.00426018 0.00004245
v -0.00454079 0.00176250 0.00084311
v -0.00416696 0.00179335 0.00118194
v -0.00401210 0.00260377 0.00067010
v -0.00361754 0.00264648 0.00093744
v -0.00345284 0.00341087 0.00029082
v -0.00305094 0.00346173 0.00049869
v -0.00289579 0.00415919 -0.00024039
v -0.00249711 0.00421325 -0.00007822
v -0.00236060 0.00483392 -0.00087781
v -0.00197104 0.00488626 -0.00075138
v -0.00222620 0.00536925 -0.00171284
v -0.00148162 0.00547174 -0.00148646
v -0.00191147 0.00190483 0.00190969
v -0.00137023 0.00279355 0.00144829
v -0.00184012 0.00277619 0.00144507
v -0.00130596 0.00360319 0.00085907
v -0.00175526 0.00357962 0.00083573
v -0.00123730 0.00432697 0.00016253
v -0.00166460 0.00429856 0.00012243
v -0.00116754 0.00496150 -0.00060715
v -0.00157242 0.00492929 -0.00066114
v -0.00093658 0.00191894 0.00182715
v -0.00089870 0.00280294 0.00140891
v -0.00085423 0.00361680 0.00084115
v -0.00080699 0.00434398 0.00016358
v -0.00075918 0.00498137 -0.00058949
v 0.00006305 0.00552915 -0.00142951
v -0.00071226 0.00552921 -0.00139005
v -0.00035013 0.00498737 -0.00060823
v -0.00040387 0.00361922 0.00078394
v 0.00004960 0.00433813 0.00005180
v -0.00037694 0.00434817 0.00012640
v 0.00005683 0.00497799 -0.00066343
v -0.00512756 0.00524098 -0.00847036
v -0.00461866 0.00568405 -0.00777583
v -0.00396555 0.00611205 -0.00708077
v -0.00357884 0.00631078 -0.00674130
v -0.00359993 0.00646597 -0.00800904
v -0.00423408 0.00606483 -0.00855701
v -0.00194785 0.00709006 -0.00707272
v -0.00268756 0.00666140 -0.00611309
v -0.00351171 0.00601929 -0.00518587
v -0.00440358 0.00515056 -0.00434789
v -0.00463903 0.00472400 -0.00367674
v -0.00487952 0.00422941 -0.00301018
v -0.00511611 0.00366810 -0.00237633
v -0.00533986 0.00304146 -0.00180322
v -0.00123476 0.00659705 -0.00394304
v -0.00186248 0.00649266 -0.00415689
v -0.00245658 0.00635617 -0.00444524
v -0.00459430 0.00382285 -0.00163208
v -0.00398113 0.00396761 -0.00097450
v -0.00436626 0.00440090 -0.00233721
v -0.00377282 0.00456128 -0.00173567
v -0.00413796 0.00490731 -0.00307213
v -0.00356661 0.00507843 -0.00252521
v -0.00391710 0.00534097 -0.00380836
v -0.00336886 0.00551819 -0.00331491
v -0.00300739 0.00619696 -0.00479340
v -0.00218639 0.00680673 -0.00584194
v -0.00146371 0.00718775 -0.00690436
v -0.00084510 0.00738647 -0.00792717
v -0.00050921 0.00706597 -0.00532618
v -0.00044146 0.00728809 -0.00669418
v -0.00038219 0.00740318 -0.00787512
v -0.00440422 0.00597618 -0.00973743
v -0.00388960 0.00636010 -0.00927037
v -0.00327613 0.00672440 -0.00883277
v -0.00255578 0.00703629 -0.00844345
v -0.00173857 0.00726535 -0.00813078
v -0.00129912 0.00734031 -0.00801336
v -0.00409086 0.00624567 -0.01032341
v -0.00358084 0.00659049 -0.00993170
v -0.00298884 0.00691351 -0.00957722
v -0.00231065 0.00718402 -0.00927568
v -0.00155709 0.00737388 -0.00904634
v -0.00074757 0.00746256 -0.00890874
v -0.00174900 0.00734093 -0.01136527
v -0.00372316 0.00651235 -0.01226026
v -0.00410808 0.00627312 -0.01256151
v 0.00008494 0.00747962 -0.00975553
v -0.00066552 0.00749829 -0.00976655
v -0.00140138 0.00743060 -0.00985955
v -0.00209628 0.00727353 -0.01003050
v -0.00273306 0.00704301 -0.01026815
v -0.00330121 0.00676271 -0.01055958
v -0.00380197 0.00645903 -0.01089173
v -0.00424105 0.00615443 -0.01125251
v -0.00445148 0.00603452 -0.01287835
v -0.00475545 0.00579883 -0.01320639
v 0.00094168 0.00094900 0.00144887
v 0.00182163 0.00091179 0.00100727
v 0.00264221 0.00086641 0.00048879
v 0.00003214 0.00279388 0.00121615
v 0.00002722 0.00235866 0.00142593
v 0.00093273 0.00231409 0.00109149
v 0.00093814 0.00186980 0.00125042
v 0.00180412 0.00180795 0.00080908
v 0.00172323 0.00344687 -0.00000222
v 0.00090490 0.00354989 0.00040062
v 0.00091582 0.00315647 0.00066364
v 0.00261097 0.00172965 0.00028563
v 0.00334964 0.00164177 -0.00030570
v 0.00406768 0.00076499 -0.00074847
v 0.00465925 0.00071503 -0.00144874
v 0.00516989 0.00066722 -0.00218160
v 0.00401081 0.00155161 -0.00095506
v 0.00459241 0.00146309 -0.00165039
v 0.00509612 0.00137805 -0.00237424
v 0.00552363 0.00129833 -0.00310919
v 0.00526292 0.00254716 -0.00373803
v 0.00510968 0.00310480 -0.00413717
v 0.00484454 0.00268981 -0.00305164
v 0.00469668 0.00327293 -0.00348542
v 0.00436107 0.00284204 -0.00236592
v 0.00422409 0.00345243 -0.00283016
v 0.00380888 0.00299982 -0.00169961
v 0.00495209 0.00361613 -0.00456699
v 0.00408320 0.00400609 -0.00333688
v 0.00368753 0.00363805 -0.00219089
v 0.00318429 0.00315913 -0.00107147
v 0.00540584 0.00194300 -0.00338685
v 0.00498257 0.00205573 -0.00267250
v 0.00448838 0.00217598 -0.00196407
v 0.00392061 0.00230088 -0.00127941
v 0.00327657 0.00242758 -0.00063637
v 0.00255679 0.00255051 -0.00004939
v 0.00618233 0.00115071 -0.00452940
v 0.00607074 0.00173534 -0.00475628
v 0.00593379 0.00228638 -0.00504252
v 0.00578444 0.00279957 -0.00536682
v 0.00562810 0.00327525 -0.00571557
v 0.00530560 0.00411787 -0.00644566
v 0.00463489 0.00450530 -0.00546485
v 0.00380068 0.00494685 -0.00441078
v 0.00394117 0.00450393 -0.00386932
v 0.00343482 0.00472733 -0.00330543
v 0.00356194 0.00421373 -0.00273226
v 0.00297644 0.00442136 -0.00216099
v 0.00308265 0.00382457 -0.00158712
v 0.00240733 0.00400241 -0.00103994
v 0.00248636 0.00331250 -0.00049948
v 0.00176987 0.00265927 0.00046706
v 0.00092519 0.00274376 0.00089492
v 0.00130512 0.00673493 -0.00476880
v 0.00073234 0.00661000 -0.00387242
v 0.00007252 0.00636824 -0.00300970
v -0.00062540 0.00636101 -0.00302238
v -0.00131310 0.00629754 -0.00314747
v -0.00197719 0.00618979 -0.00337295
v -0.00276081 0.00567918 -0.00288954
v -0.00292713 0.00523423 -0.00206323
v 0.00242084 0.00638604 -0.00530133
v 0.00188230 0.00657888 -0.00500196
v 0.00197471 0.00632622 -0.00432937
v 0.00136923 0.00649272 -0.00405746
v 0.00143218 0.00618393 -0.00333746
v 0.00076378 0.00630760 -0.00311827
v 0.00079402 0.00592709 -0.00235940
v 0.00006827 0.00599195 -0.00221962
v -0.00066770 0.00598776 -0.00221001
v -0.00139510 0.00592590 -0.00232499
v -0.00209808 0.00581887 -0.00255476
v 0.00082343 0.00546115 -0.00160536
v 0.00149300 0.00579924 -0.00261587
v 0.00206530 0.00601002 -0.00365007
v 0.00253691 0.00612201 -0.00467306
v 0.00351194 0.00566635 -0.00549017
v 0.00431167 0.00521812 -0.00635952
v 0.00336334 0.00594938 -0.00602359
v 0.00414615 0.00551166 -0.00680236
v 0.00008041 0.00707011 -0.00528956
v 0.00060470 0.00723911 -0.00669418
v 0.00008280 0.00728403 -0.00666491
v 0.00054687 0.00734584 -0.00788488
v 0.00008396 0.00738978 -0.00786014
v 0.00397996 0.00576681 -0.00724058
v 0.00306595 0.00638375 -0.00706438
v 0.00321413 0.00618707 -0.00654923
v 0.00251279 0.00672326 -0.00732082
v 0.00277845 0.00639717 -0.00622018
v 0.00304832 0.00589720 -0.00506721
v 0.00230415 0.00659762 -0.00591870
v 0.00207544 0.00689078 -0.00710070
v 0.00186387 0.00705632 -0.00817903
v 0.00166956 0.00415634 -0.00057093
v 0.00232381 0.00461737 -0.00164627
v 0.00286826 0.00494956 -0.00277319
v 0.00330881 0.00517929 -0.00389213
v 0.00365827 0.00533362 -0.00495167
v 0.00447507 0.00488355 -0.00591329
v 0.00497142 0.00481606 -0.00717909
v 0.00462651 0.00537679 -0.00791052
v 0.00318059 0.00556824 -0.00448055
v 0.00276065 0.00540920 -0.00340387
v 0.00223816 0.00515729 -0.00229689
v 0.00161200 0.00478488 -0.00121164
v 0.00088006 0.00427278 -0.00020029
v 0.00047816 0.00358578 0.00056049
v 0.00003686 0.00321155 0.00096946
v 0.00665725 0.00227696 -0.00749941
v 0.00653381 0.00269453 -0.00770646
v 0.00614707 0.00296995 -0.00675887
v 0.00625660 0.00345688 -0.00816097
v 0.00584051 0.00377128 -0.00734020
v 0.00594862 0.00411627 -0.00864641
v 0.00551309 0.00445156 -0.00793787
v 0.00561935 0.00467439 -0.00915619
v 0.00517022 0.00501463 -0.00854693
v 0.00528170 0.00513719 -0.00968508
v 0.00482384 0.00546911 -0.00916350
v 0.00494865 0.00551065 -0.01022780
v 0.00240228 0.00692408 -0.00938751
v 0.00264416 0.00677135 -0.00851995
v 0.00333776 0.00645665 -0.00892332
v 0.00292045 0.00654378 -0.00756635
v 0.00365141 0.00617256 -0.00809841
v 0.00381456 0.00598623 -0.00767300
v 0.00676674 0.00324227 -0.01197693
v 0.00697240 0.00276621 -0.01174104
v 0.00715066 0.00224695 -0.01154466
v 0.00729360 0.00168816 -0.01139166
v 0.00739611 0.00109941 -0.01128241
v 0.00153216 0.00723181 -0.00996755
v 0.00082348 0.00738525 -0.00982577
v 0.00100083 0.00727349 -0.00794814
v 0.00144133 0.00717592 -0.00804713
v 0.00160799 0.00703753 -0.00691741
v 0.00178946 0.00677618 -0.00566163
v 0.00434953 0.00605448 -0.01130759
v 0.00389302 0.00632008 -0.01098387
v 0.00342145 0.00664175 -0.01207194
v 0.00070355 0.00743609 -0.01126411
v 0.00114396 0.00740157 -0.01248974
v 0.00165417 0.00730322 -0.01258295
v 0.00305728 0.00665999 -0.00969704
v 0.00394981 0.00613912 -0.00934844
v 0.00428218 0.00581336 -0.00863523
v 0.00265073 0.00579868 -0.00403891
v 0.00215271 0.00562205 -0.00297028
v 0.00155251 0.00533251 -0.00190106
v 0.00085251 0.00490979 -0.00087730
v 0.00046928 0.00431269 -0.00005816
v 0.00004136 0.00360919 0.00068938
v 0.00448598 0.00582372 -0.00978364
v 0.00417361 0.00610018 -0.01039457
v 0.00364732 0.00638389 -0.01003538
v 0.00338112 0.00657422 -0.01068422
v 0.00294684 0.00684883 -0.01185133
v 0.00243310 0.00703500 -0.01165841
v 0.00214392 0.00717673 -0.01270472
v 0.00424193 0.00618009 -0.01259289
v 0.00474889 0.00578006 -0.01165350
v 0.00534022 0.00520011 -0.01067980
v 0.00566107 0.00481497 -0.01020183
v 0.00598217 0.00435018 -0.00974469
v 0.00628993 0.00380183 -0.00931529
v 0.00657080 0.00316604 -0.00892049
v 0.00681314 0.00244328 -0.00856790
v 0.00700440 0.00164451 -0.00827782
v 0.00712692 0.00078373 -0.00808055
v 0.00716881 0.00147601 -0.00914154
v 0.00701066 0.00221620 -0.00935805
v 0.00680054 0.00289724 -0.00963389
v 0.00654836 0.00350628 -0.00995728
v 0.00626586 0.00404085 -0.01032116
v 0.00596629 0.00450290 -0.01071805
v 0.00566289 0.00489441 -0.01114049
v 0.00509072 0.00550197 -0.01201994
v -0.00008479 -0.00749760 -0.01118854
v 0.00064922 -0.00740980 -0.00981238
v 0.00112663 -0.00736410 -0.01134022
v 0.00135454 -0.00727344 -0.00995487
v 0.00126674 -0.00721467 -0.00804130
v 0.00082780 -0.00730156 -0.00794166
v 0.00143596 -0.00707349 -0.00691928
v 0.00213935 -0.00664720 -0.00592845
v 0.00190326 -0.00693998 -0.00710218
v 0.00168848 -0.00710580 -0.00817387
v -0.00007485 -0.00663891 -0.00382421
v 0.00191886 -0.00604293 -0.00366537
v 0.00182031 -0.00635767 -0.00434782
v 0.00238451 -0.00617377 -0.00468592
v 0.00172152 -0.00661030 -0.00501934
v 0.00162373 -0.00680862 -0.00567503
v 0.00094459 -0.00717807 -0.00678257
v 0.00037619 -0.00736320 -0.00787800
v -0.00008461 -0.00748696 -0.00974157
v 0.00305358 -0.00626798 -0.00655467
v 0.00275015 -0.00661869 -0.00756724
v 0.00348414 -0.00627099 -0.00809859
v 0.00316365 -0.00654768 -0.00891892
v 0.00377717 -0.00624892 -0.00934330
v 0.00319857 -0.00666613 -0.01067066
v 0.00224709 -0.00709657 -0.01163652
v 0.00275874 -0.00692611 -0.01182792
v 0.00195510 -0.00723022 -0.01267013
v 0.00246884 -0.00684215 -0.00851556
v 0.00234129 -0.00678552 -0.00732201
v 0.00261554 -0.00646294 -0.00622742
v 0.00289891 -0.00596772 -0.00507637
v 0.00250668 -0.00585255 -0.00404923
v 0.00201598 -0.00565830 -0.00297691
v 0.00054091 -0.00683758 -0.00464328
v 0.00057859 -0.00660039 -0.00390366
v -0.00007144 -0.00633986 -0.00303977
v 0.00061717 -0.00629814 -0.00314516
v -0.00006720 -0.00596741 -0.00223494
v 0.00065638 -0.00592178 -0.00237294
v -0.00006200 -0.00551020 -0.00142425
v 0.00069701 -0.00546200 -0.00159988
v -0.00005578 -0.00496252 -0.00063871
v 0.00073906 -0.00491478 -0.00085393
v 0.00037077 -0.00430785 -0.00002027
v 0.00039644 -0.00357632 0.00060235
v 0.00082329 -0.00355163 0.00044057
v 0.00078151 -0.00427853 -0.00016408
v -0.00001011 -0.00093734 0.00180328
v 0.00091965 -0.00093662 0.00144799
v 0.00176079 -0.00182157 0.00081475
v 0.00170720 -0.00267735 0.00048870
v 0.00231145 -0.00404890 -0.00101520
v 0.00221289 -0.00466225 -0.00162949
v 0.00286832 -0.00448563 -0.00214803
v 0.00274671 -0.00501050 -0.00276811
v 0.00331676 -0.00480719 -0.00330151
v 0.00317819 -0.00525546 -0.00389478
v 0.00367377 -0.00504081 -0.00441308
v 0.00382670 -0.00460143 -0.00386694
v 0.00398163 -0.00410658 -0.00333090
v 0.00345708 -0.00429667 -0.00272289
v 0.00359710 -0.00372286 -0.00217760
v 0.00298933 -0.00389059 -0.00156852
v 0.00310767 -0.00322455 -0.00105052
v 0.00240745 -0.00335746 -0.00047196
v 0.00249559 -0.00259135 -0.00002968
v 0.00262086 -0.00090303 0.00049329
v 0.00256867 -0.00176694 0.00029471
v 0.00330869 -0.00170163 -0.00029612
v 0.00321728 -0.00249010 -0.00061988
v 0.00386331 -0.00238376 -0.00126706
v 0.00373472 -0.00308471 -0.00168435
v 0.00428930 -0.00294526 -0.00235570
v 0.00413652 -0.00355496 -0.00282159
v 0.00461178 -0.00339201 -0.00348092
v 0.00444652 -0.00392159 -0.00395214
v 0.00485629 -0.00374789 -0.00456669
v 0.00595836 0.00058038 -0.00366765
v 0.00560054 0.00062249 -0.00292938
v 0.00519077 -0.00006101 -0.00211316
v 0.00515101 -0.00078801 -0.00218055
v 0.00505895 -0.00149703 -0.00237266
v 0.00264633 -0.00001840 0.00055819
v 0.00337357 -0.00087601 -0.00009325
v 0.00397123 -0.00163263 -0.00094772
v 0.00443296 -0.00227790 -0.00195589
v 0.00477494 -0.00281011 -0.00304574
v 0.00502710 -0.00323911 -0.00413598
v 0.00553669 -0.00343312 -0.00571850
v 0.00336586 -0.00575402 -0.00549693
v 0.00382432 -0.00587448 -0.00724400
v 0.00411783 -0.00593255 -0.00863436
v 0.00431530 -0.00595104 -0.00977709
v 0.00371059 -0.00642839 -0.01096862
v 0.00323242 -0.00673480 -0.01204644
v 0.00416844 -0.00617882 -0.01129009
v 0.00478081 -0.00565444 -0.01021921
v 0.00466251 -0.00560689 -0.00916106
v 0.00447488 -0.00550697 -0.00791258
v 0.00417192 -0.00533518 -0.00636413
v 0.00303988 -0.00564149 -0.00448778
v 0.00262656 -0.00546604 -0.00340779
v 0.00211374 -0.00519842 -0.00229124
v 0.00517649 -0.00535949 -0.01066859
v 0.00550805 -0.00498516 -0.01019450
v 0.00512398 -0.00529182 -0.00968049
v 0.00547526 -0.00484103 -0.00915461
v 0.00502221 -0.00516423 -0.00854740
v 0.00538201 -0.00461282 -0.00794019
v 0.00483639 -0.00495713 -0.00718268
v 0.00519044 -0.00426797 -0.00644939
v 0.00451474 -0.00463011 -0.00546797
v 0.00468483 -0.00421106 -0.00501496
v 0.00572950 -0.00394245 -0.00734351
v 0.00582150 -0.00429475 -0.00864696
v 0.00584294 -0.00453216 -0.00974039
v 0.00548747 -0.00143404 -0.00311000
v 0.00594039 -0.00073387 -0.00366882
v 0.00558212 -0.00076045 -0.00292965
v 0.00598039 -0.00007750 -0.00360976
v 0.00562274 -0.00006969 -0.00286575
v 0.00535356 -0.00207883 -0.00338571
v 0.00602107 -0.00189956 -0.00475894
v 0.00586936 -0.00244991 -0.00504459
v 0.00636163 -0.00223589 -0.00623773
v 0.00660128 -0.00120356 -0.00584552
v 0.00690044 -0.00109991 -0.00703351
v 0.00667594 -0.00065557 -0.00573249
v 0.00695772 -0.00060661 -0.00695428
v 0.00670813 -0.00009619 -0.00569189
v 0.00698281 -0.00010532 -0.00692611
v 0.00669235 0.00046444 -0.00573049
v 0.00697298 0.00039684 -0.00695274
v 0.00663363 0.00101478 -0.00584164
v 0.00693075 0.00089197 -0.00703049
v 0.00654046 0.00154519 -0.00601445
v 0.00686031 0.00137331 -0.00715341
v 0.00642280 0.00204974 -0.00623428
v 0.00676723 0.00183615 -0.00731285
v 0.00629015 0.00252477 -0.00648574
v 0.00614804 -0.00131558 -0.00453278
v 0.00623717 -0.00070739 -0.00438407
v 0.00627535 -0.00008448 -0.00433071
v 0.00625466 0.00053993 -0.00438235
v 0.00491649 -0.00565645 -0.01199682
v 0.00439999 -0.00607365 -0.01285689
v 0.00577247 -0.00478622 -0.01159098
v 0.00521148 -0.00539509 -0.01237697
v 0.00284905 -0.00693457 -0.01299318
v 0.00366538 -0.00652615 -0.01229138
v 0.00457058 -0.00591994 -0.01163333
v 0.00550462 -0.00506832 -0.01112630
v 0.00581919 -0.00468735 -0.01070761
v 0.00546269 -0.00514158 -0.01276888
v 0.00599024 -0.00451837 -0.01205808
v 0.00606608 -0.00440306 -0.01122031
v 0.00613265 -0.00423661 -0.01031370
v 0.00616758 -0.00399538 -0.00931325
v 0.00614959 -0.00364566 -0.00816290
v 0.00605956 -0.00314960 -0.00676258
v 0.00570583 -0.00296056 -0.00536968
v 0.00519518 -0.00268320 -0.00373568
v 0.00492884 -0.00217531 -0.00266818
v 0.00455409 -0.00156383 -0.00164590
v 0.00404767 -0.00084665 -0.00074435
v 0.00340358 -0.00003013 -0.00002530
v 0.00339425 0.00081619 -0.00009846
v 0.00645013 -0.00289219 -0.00770918
v 0.00646839 -0.00336973 -0.00892008
v 0.00643180 -0.00371304 -0.00995218
v 0.00635507 -0.00395885 -0.01087711
v 0.00693570 -0.00244077 -0.00935622
v 0.00711785 -0.00170675 -0.00914066
v 0.00723803 -0.00092539 -0.00900077
v 0.00707548 -0.00225021 -0.01008447
v 0.00649342 -0.00173278 -0.00601819
v 0.00681600 -0.00157975 -0.00715643
v 0.00709879 -0.00100656 -0.00808207
v 0.00714181 -0.00056212 -0.00802876
v 0.00723172 -0.00157080 -0.00992058
v 0.00733233 -0.00085604 -0.00981861
v 0.00737421 -0.00012237 -0.00978418
v 0.00735656 0.00061257 -0.00981974
v 0.00727949 0.00133070 -0.00992323
v 0.00714598 0.00201577 -0.01008861
v 0.00696284 0.00265448 -0.01030842
v 0.00673779 0.00323411 -0.01057677
v 0.00648169 0.00375108 -0.01088762
v 0.00620658 0.00420592 -0.01123381
v 0.00592452 0.00459918 -0.01160819
v 0.00564763 0.00493675 -0.01200090
v 0.00743293 -0.00074697 -0.01121421
v 0.00735385 -0.00135328 -0.01127718
v 0.00723127 -0.00193732 -0.01138406
v 0.00706950 -0.00248984 -0.01153467
v 0.00687410 -0.00300175 -0.01172838
v 0.00665301 -0.00346929 -0.01196144
v -0.00559111 -0.00494310 -0.01200864
v -0.00602739 -0.00445891 -0.01285604
v -0.00189692 -0.00730693 -0.01133857
v -0.00131230 -0.00742915 -0.01123312
v -0.00155644 -0.00740537 -0.00984474
v -0.00224159 -0.00723510 -0.01001471
v -0.00286738 -0.00699401 -0.01025064
v -0.00342382 -0.00670553 -0.01053984
v -0.00391270 -0.00639564 -0.01086975
v -0.00471533 -0.00578987 -0.01160642
v -0.00419674 -0.00617869 -0.01030715
v -0.00450400 -0.00590497 -0.00972748
v -0.00369903 -0.00652929 -0.00991793
v -0.00400195 -0.00629385 -0.00926351
v -0.00311923 -0.00686025 -0.00956576
v -0.00340099 -0.00666533 -0.00882877
v -0.00008354 -0.00739634 -0.00785336
v 0.00043619 -0.00724894 -0.00669737
v 0.00107547 -0.00693489 -0.00548218
v 0.00114428 -0.00674692 -0.00479216
v 0.00121432 -0.00650326 -0.00408263
v 0.00128481 -0.00619531 -0.00335886
v 0.00135501 -0.00581448 -0.00262611
v 0.00142638 -0.00535349 -0.00189536
v 0.00149921 -0.00481000 -0.00119116
v 0.00157184 -0.00418276 -0.00053986
v 0.00164258 -0.00347056 0.00003210
v -0.00648782 -0.00371133 -0.01227824
v -0.00707248 -0.00247551 -0.01280270
v -0.00670109 -0.00327481 -0.01202197
v -0.00722418 -0.00174241 -0.01142730
v -0.00707420 -0.00228802 -0.01159218
v -0.00712496 -0.00130246 -0.00811475
v -0.00732601 -0.00068499 -0.00983350
v -0.00721987 -0.00139188 -0.00995196
v -0.00736104 0.00004462 -0.00979222
v -0.00721436 -0.00200985 -0.01264892
v -0.00689785 -0.00279961 -0.01179206
v -0.00484255 -0.00557083 -0.00911730
v -0.00434019 -0.00599315 -0.00855575
v -0.00371840 -0.00640017 -0.00801157
v -0.00296565 -0.00676046 -0.00750632
v -0.00560732 -0.00464319 -0.00779623
v -0.00601541 -0.00399548 -0.00710179
v -0.00556936 -0.00442740 -0.00603888
v -0.00245268 -0.00714160 -0.00926564
v -0.00170971 -0.00734573 -0.00903646
v -0.00269282 -0.00698755 -0.00844113
v -0.00188714 -0.00723115 -0.00812813
v -0.00254262 -0.00691424 -0.00728026
v -0.00209088 -0.00704600 -0.00707944
v -0.00232250 -0.00674897 -0.00586115
v -0.00281717 -0.00659769 -0.00612998
v -0.00258362 -0.00628529 -0.00446855
v -0.00369586 -0.00623861 -0.00675317
v -0.00327554 -0.00642655 -0.00643023
v -0.00362610 -0.00593854 -0.00520252
v -0.00312800 -0.00612044 -0.00481322
v -0.00347824 -0.00543169 -0.00332069
v -0.00221901 -0.00574985 -0.00256454
v -0.00272575 -0.00597385 -0.00370539
v -0.00210501 -0.00612213 -0.00339544
v -0.00199615 -0.00642905 -0.00418440
v -0.00179400 -0.00687666 -0.00563445
v -0.00161287 -0.00715222 -0.00691083
v -0.00145309 -0.00731520 -0.00800974
v -0.00090926 -0.00745203 -0.00889811
v -0.00159945 -0.00541633 -0.00148124
v -0.00152169 -0.00586934 -0.00233757
v -0.00144711 -0.00624026 -0.00317416
v -0.00137491 -0.00654270 -0.00397488
v -0.00123851 -0.00697449 -0.00546124
v -0.00111430 -0.00722923 -0.00678194
v -0.00100411 -0.00737144 -0.00792230
v -0.00679588 -0.00240871 -0.00734283
v -0.00704338 -0.00173037 -0.00822820
v -0.00540308 -0.00291565 -0.00178701
v -0.00582016 -0.00277592 -0.00266061
v -0.00561485 -0.00338768 -0.00315584
v -0.00595125 -0.00322098 -0.00394994
v -0.00573607 -0.00375222 -0.00443062
v -0.00601393 -0.00356257 -0.00512999
v -0.00579559 -0.00402157 -0.00557600
v -0.00640645 -0.00318540 -0.00643169
v -0.00621720 -0.00361184 -0.00675724
v -0.00665224 -0.00283336 -0.00755991
v -0.00631530 -0.00358683 -0.00806025
v -0.00691595 -0.00195430 -0.00715705
v -0.00657588 -0.00271795 -0.00613694
v -0.00671818 -0.00221131 -0.00588481
v -0.00621496 -0.00305194 -0.00472030
v -0.00638924 -0.00249123 -0.00436644
v -0.00614226 -0.00263414 -0.00353012
v -0.00629766 -0.00199881 -0.00319759
v -0.00641093 -0.00132832 -0.00296100
v -0.00652668 -0.00188743 -0.00408894
v -0.00682676 -0.00167120 -0.00568603
v -0.00700813 -0.00147408 -0.00700874
v -0.00709987 0.00057281 -0.00683388
v -0.00711722 0.00005502 -0.00681186
v -0.00695208 0.00006034 -0.00542944
v -0.00667947 -0.00059775 -0.00377716
v -0.00647837 -0.00063483 -0.00282023
v -0.00620735 -0.00067252 -0.00179356
v -0.00718305 -0.00085972 -0.00803126
v -0.00721702 -0.00040702 -0.00797970
v -0.00722627 0.00005074 -0.00796204
v -0.00717042 0.00096070 -0.00803027
v -0.00402093 -0.00524912 -0.00381292
v -0.00366911 -0.00498631 -0.00252086
v -0.00303481 -0.00515123 -0.00205837
v -0.00319950 -0.00462004 -0.00122268
v -0.00246320 -0.00476087 -0.00085866
v -0.00521334 -0.00515927 -0.00847081
v -0.00512822 -0.00509423 -0.00694038
v -0.00527302 -0.00464256 -0.00548062
v -0.00550668 -0.00422651 -0.00494866
v -0.00515463 -0.00442703 -0.00430949
v -0.00538976 -0.00393841 -0.00371438
v -0.00496374 -0.00411987 -0.00300127
v -0.00519062 -0.00355099 -0.00236285
v -0.00467302 -0.00371017 -0.00161490
v -0.00488132 -0.00305257 -0.00096426
v -0.00425548 -0.00318446 -0.00024429
v -0.00450192 -0.00505516 -0.00435154
v -0.00423533 -0.00480884 -0.00306837
v -0.00386636 -0.00446333 -0.00172199
v -0.00372551 -0.00393572 -0.00066794
v -0.00083429 -0.00549127 -0.00138484
v -0.00054574 -0.00739883 -0.00786909
v -0.00060185 -0.00727346 -0.00669919
v -0.00066428 -0.00703552 -0.00535123
v -0.00073083 -0.00661606 -0.00385111
v -0.00076496 -0.00631670 -0.00305209
v -0.00079929 -0.00594606 -0.00222478
v -0.00352615 -0.00330910 0.00032098
v -0.00336495 -0.00400614 -0.00041963
v -0.00312565 -0.00336773 0.00053118
v -0.00287588 -0.00560018 -0.00289694
v -0.00233910 -0.00529859 -0.00170768
v -0.00167920 -0.00487373 -0.00063915
v -0.00217761 -0.00419190 0.00007472
v -0.00175821 -0.00424014 0.00015694
v -0.00133237 -0.00427890 0.00019897
v -0.00091940 -0.00395186 0.00055520
v -0.00004448 -0.00396735 0.00042438
v -0.00047430 -0.00432168 0.00016512
v -0.00004851 -0.00432253 0.00009056
v -0.00046171 -0.00496158 -0.00058360
v -0.00003561 -0.00318662 0.00100520
v -0.00004017 -0.00358841 0.00073233
v -0.00515358 -0.00194775 -0.00017226
v -0.00507082 -0.00232912 -0.00040637
v -0.00566992 -0.00185505 -0.00111142
v -0.00559020 -0.00222039 -0.00130746
v -0.00599385 -0.00211004 -0.00226043
v -0.00492009 -0.00159336 0.00046864
v -0.00528395 -0.00115610 0.00018777
v -0.00522536 -0.00155605 0.00002702
v -0.00579310 -0.00109840 -0.00081655
v -0.00573812 -0.00148042 -0.00094713
v -0.00612568 -0.00140438 -0.00196982
v -0.00467965 -0.00078950 0.00118694
v -0.00502168 -0.00076970 0.00077147
v -0.00504727 -0.00035028 0.00085078
v -0.00470444 -0.00036120 0.00127154
v -0.00470975 0.00006938 0.00129857
v -0.00432745 0.00006672 0.00165577
v -0.00469398 0.00049954 0.00126493
v -0.00431223 0.00050553 0.00162059
v -0.00465891 0.00092670 0.00117440
v -0.00427884 0.00094123 0.00152618
v -0.00422963 0.00137134 0.00137810
v -0.00426076 -0.00124136 0.00139761
v -0.00429982 -0.00080932 0.00153981
v -0.00432281 -0.00037250 0.00162767
v -0.00390104 -0.00038420 0.00190566
v -0.00390459 0.00006325 0.00193389
v -0.00344936 0.00005903 0.00212756
v -0.00389047 0.00051029 0.00189849
v -0.00343663 0.00051377 0.00209334
v -0.00386015 0.00095416 0.00180342
v -0.00341012 0.00096531 0.00200099
v -0.00381556 0.00139224 0.00165408
v -0.00337126 0.00141094 0.00185504
v -0.00375868 0.00182195 0.00145589
v -0.00535266 -0.00033974 0.00037888
v -0.00505291 0.00007129 0.00087603
v -0.00503707 0.00049245 0.00084490
v -0.00500149 0.00091074 0.00076068
v -0.00325574 -0.00258219 0.00117629
v -0.00276434 -0.00303361 0.00102564
v -0.00236384 -0.00266658 0.00142531
v -0.00281700 -0.00262649 0.00132754
v -0.00243336 -0.00179688 0.00189791
v -0.00471705 -0.00560471 -0.00778036
v -0.00482586 -0.00531766 -0.00650067
v -0.00491918 -0.00485250 -0.00491444
v -0.00473124 -0.00462151 -0.00367367
v -0.00445519 -0.00429572 -0.00232599
v -0.00406386 -0.00386272 -0.00095337
v -0.00390371 -0.00324782 0.00006093
v -0.00406981 -0.00248539 0.00069909
v -0.00367582 -0.00253479 0.00096789
v -0.00379942 -0.00170163 0.00148090
v -0.00336179 -0.00173574 0.00168355
v -0.00384646 -0.00126908 0.00167381
v -0.00340171 -0.00129598 0.00187322
v -0.00388100 -0.00082912 0.00181718
v -0.00343070 -0.00084859 0.00201372
v -0.00344713 -0.00039607 0.00210013
v -0.00297362 -0.00040773 0.00222046
v -0.00297454 0.00005426 0.00224644
v -0.00248521 0.00004902 0.00229907
v -0.00296315 0.00051595 0.00221444
v -0.00247511 0.00051675 0.00227001
v -0.00294039 0.00097446 0.00212728
v -0.00290488 -0.00176774 0.00182059
v -0.00293750 -0.00132136 0.00200336
v -0.00245869 -0.00134462 0.00207114
v -0.00296084 -0.00086715 0.00213804
v -0.00247642 -0.00088440 0.00219793
v -0.00248558 -0.00041895 0.00227498
v -0.00198809 -0.00042949 0.00227208
v -0.00148343 0.00003749 0.00223983
v -0.00190053 -0.00270133 0.00147324
v -0.00192850 -0.00226872 0.00171723
v -0.00195192 -0.00182240 0.00192142
v -0.00197012 -0.00136521 0.00208351
v -0.00198241 -0.00089997 0.00220116
v -0.00093463 -0.00357326 0.00088363
v -0.00094847 -0.00317182 0.00117793
v -0.00096046 -0.00275042 0.00143419
v -0.00097040 -0.00231201 0.00165191
v -0.00097804 -0.00185957 0.00183058
v -0.00098317 -0.00139605 0.00196972
v -0.00098554 -0.00092442 0.00206882
v -0.00098115 0.00003137 0.00214508
v -0.00098495 -0.00044763 0.00212739
f 93 32 92
f 32 93 91
f 232 93 92
f 3 184 131
f 131 133 3
f 231 91 93
f 93 232 231
f 230 91 231
f 34 23 430
f 380 381 384
f 428 35 423
f 541 542 532
f 230 90 33
f 33 90 89
f 33 91 230
f 32 91 33
f 106 184 28
f 184 3 28
f 17 3 133
f 45 28 27
f 106 28 45
f 45 633 106
f 250 234 239
f 908 126 909
f 908 904 906
f 907 908 906
f 126 908 907
f 916 291 915
f 915 907 916
f 126 907 915
f 92 32 20
f 20 95 92
f 94 95 20
f 20 19 94
f 61 43 41
f 42 200 201
f 42 11 68
f 68 200 42
f 42 202 66
f 531 487 486
f 486 542 531
f 532 542 486
f 179 178 279
f 556 555 557
f 590 557 575
f 590 556 557
f 538 556 583
f 583 590 582
f 556 590 583
f 197 10 8
f 313 314 396
f 311 259 305
f 270 259 311
f 402 400 403
f 388 400 402
f 420 430 419
f 1 35 191
f 35 428 191
f 192 1 191
f 191 427 192
f 428 427 191
f 412 384 383
f 383 384 381
f 542 541 586
f 483 482 533
f 444 487 531
f 531 542 543
f 324 323 322
f 322 321 351
f 323 321 322
f 325 323 324
f 325 326 342
f 324 997 325
f 325 997 326
f 344 321 323
f 362 364 344
f 331 359 358
f 358 341 331
f 343 325 342
f 323 325 343
f 362 344 343
f 343 344 323
f 368 359 331
f 359 368 369
f 369 377 370
f 666 839 681
f 681 839 680
f 419 430 431
f 431 430 23
f 86 234 235
f 819 820 29
f 37 819 29
f 818 819 37
f 615 633 131
f 106 633 615
f 131 184 615
f 615 184 106
f 616 633 221
f 633 45 221
f 44 45 27
f 618 44 642
f 632 633 616
f 877 863 861
f 861 878 877
f 6 88 87
f 235 234 299
f 234 250 299
f 299 179 235
f 265 267 266
f 265 240 267
f 265 263 250
f 265 250 239
f 239 240 265
f 228 240 239
f 228 33 89
f 6 33 228
f 228 88 6
f 267 240 241
f 230 231 242
f 242 241 230
f 856 895 897
f 891 890 892
f 852 826 853
f 971 973 966
f 111 112 999
f 968 966 973
f 916 907 974
f 974 968 973
f 974 907 906
f 906 968 974
f 273 266 274
f 266 267 274
f 267 275 274
f 233 232 92
f 233 244 232
f 92 95 233
f 275 242 276
f 182 233 95
f 244 233 182
f 294 124 914
f 126 915 914
f 912 124 913
f 294 252 913
f 913 124 294
f 909 126 125
f 126 914 125
f 125 914 124
f 29 820 103
f 103 104 29
f 820 104 103
f 29 104 30
f 104 135 30
f 749 473 759
f 69 202 42
f 42 201 69
f 69 201 202
f 200 68 805
f 566 203 565
f 566 800 567
f 39 203 40
f 42 66 39
f 472 444 488
f 487 444 472
f 473 474 455
f 210 59 43
f 798 162 797
f 284 290 289
f 277 381 380
f 277 281 381
f 282 288 287
f 388 281 287
f 287 277 282
f 281 277 287
f 389 400 388
f 388 287 389
f 389 287 288
f 246 279 379
f 237 279 246
f 4 5 237
f 435 248 247
f 247 248 411
f 247 434 435
f 435 21 84
f 84 248 435
f 580 570 569
f 80 2 1
f 80 1 192
f 192 190 80
f 195 577 74
f 7 74 8
f 43 59 9
f 26 770 762
f 811 137 812
f 812 786 216
f 812 137 786
f 70 197 198
f 10 197 70
f 575 557 598
f 198 197 598
f 11 189 72
f 604 609 603
f 608 609 604
f 601 600 553
f 553 600 555
f 601 553 551
f 551 553 552
f 478 552 537
f 537 536 478
f 535 513 539
f 475 474 753
f 547 604 603
f 546 604 547
f 396 314 397
f 391 313 396
f 289 290 391
f 306 311 305
f 999 1000 296
f 296 1000 297
f 253 255 273
f 273 274 253
f 254 252 294
f 254 253 252
f 255 253 254
f 304 303 270
f 270 311 304
f 387 402 403
f 410 519 521
f 429 428 423
f 430 420 429
f 429 35 34
f 423 35 429
f 34 430 429
f 412 383 413
f 464 482 483
f 478 463 477
f 534 533 482
f 534 535 539
f 483 533 484
f 484 541 532
f 484 533 541
f 440 489 439
f 331 341 332
f 488 489 441
f 489 440 441
f 314 313 310
f 310 316 314
f 351 352 350
f 350 352 319
f 327 326 1029
f 342 326 327
f 327 358 342
f 341 358 327
f 495 394 395
f 495 508 494
f 370 371 363
f 363 364 362
f 439 489 446
f 446 489 488
f 488 444 446
f 376 378 377
f 351 321 353
f 353 352 351
f 354 352 353
f 360 343 342
f 342 358 360
f 360 358 359
f 362 343 360
f 367 368 331
f 331 332 367
f 439 446 545
f 545 446 544
f 685 681 680
f 684 681 685
f 739 737 777
f 777 737 702
f 702 737 778
f 778 688 702
f 701 688 778
f 778 737 732
f 680 839 838
f 838 661 662
f 839 661 838
f 781 782 438
f 683 681 684
f 666 681 683
f 425 434 417
f 417 384 412
f 411 384 417
f 417 247 411
f 22 21 435
f 435 434 22
f 82 431 23
f 23 22 82
f 82 22 425
f 425 417 432
f 853 826 828
f 719 763 767
f 51 13 12
f 765 219 711
f 711 219 766
f 634 646 645
f 816 17 133
f 816 817 17
f 815 817 818
f 17 817 815
f 815 37 17
f 818 37 815
f 132 133 131
f 132 816 133
f 817 816 132
f 818 817 859
f 859 878 861
f 27 15 46
f 46 44 27
f 642 44 46
f 764 15 14
f 45 44 220
f 616 221 220
f 220 221 45
f 853 867 130
f 130 852 853
f 863 877 876
f 1043 957 958
f 658 657 656
f 649 650 625
f 625 650 651
f 941 119 118
f 953 880 118
f 118 880 941
f 961 119 941
f 120 119 961
f 947 653 941
f 651 653 947
f 941 880 947
f 872 882 881
f 881 947 880
f 1007 1032 1031
f 1031 1032 1033
f 1031 1033 1022
f 617 618 616
f 44 618 617
f 616 220 617
f 617 220 44
f 616 618 620
f 620 632 616
f 131 633 829
f 633 632 829
f 830 829 632
f 632 620 830
f 635 634 645
f 264 266 273
f 264 265 266
f 263 265 264
f 179 299 300
f 263 264 262
f 227 228 239
f 239 234 227
f 227 87 88
f 88 228 227
f 86 87 227
f 234 86 227
f 240 228 229
f 229 241 240
f 229 228 89
f 230 241 229
f 229 90 230
f 89 90 229
f 267 241 269
f 241 242 269
f 269 275 267
f 269 242 275
f 978 988 979
f 107 954 117
f 871 873 951
f 872 881 952
f 952 881 880
f 899 856 897
f 840 856 899
f 897 896 899
f 129 937 1010
f 905 892 890
f 906 904 905
f 905 968 906
f 890 968 905
f 931 891 893
f 891 892 893
f 893 929 931
f 895 929 893
f 904 901 903
f 901 896 903
f 903 905 904
f 892 905 903
f 824 852 851
f 851 224 824
f 926 927 855
f 857 927 928
f 857 929 895
f 928 929 857
f 855 927 857
f 857 856 855
f 895 856 857
f 16 38 101
f 31 224 99
f 898 896 901
f 898 899 896
f 909 900 902
f 902 901 904
f 902 908 909
f 904 908 902
f 967 968 890
f 966 968 967
f 970 973 971
f 976 112 970
f 971 969 970
f 970 969 976
f 916 111 110
f 292 291 110
f 110 291 916
f 110 111 999
f 110 296 292
f 999 296 110
f 972 974 973
f 973 970 972
f 972 111 916
f 916 974 972
f 112 111 972
f 972 970 112
f 275 276 920
f 244 182 848
f 232 244 243
f 243 231 232
f 244 848 243
f 243 848 276
f 243 242 231
f 243 276 242
f 183 18 16
f 19 18 97
f 136 104 820
f 826 852 823
f 852 824 823
f 825 828 826
f 826 823 825
f 105 135 134
f 105 30 135
f 61 41 62
f 205 41 40
f 205 206 41
f 567 568 205
f 205 568 206
f 160 162 606
f 606 748 160
f 161 797 160
f 160 797 162
f 606 162 607
f 607 800 608
f 745 748 747
f 749 759 747
f 758 745 747
f 747 759 758
f 745 744 746
f 746 748 745
f 161 160 746
f 746 160 748
f 202 803 564
f 565 564 802
f 802 564 803
f 612 600 601
f 612 805 613
f 613 600 612
f 202 201 804
f 804 803 202
f 804 201 200
f 200 805 804
f 805 612 804
f 203 566 204
f 40 203 204
f 204 566 567
f 567 205 204
f 565 203 65
f 203 39 65
f 684 780 699
f 699 683 684
f 682 683 699
f 781 682 699
f 700 780 684
f 684 685 700
f 697 696 779
f 697 778 732
f 779 701 697
f 701 778 697
f 144 780 143
f 779 696 143
f 143 700 779
f 780 700 143
f 734 697 732
f 696 697 734
f 532 486 485
f 485 484 532
f 693 759 473
f 473 455 693
f 792 142 141
f 141 142 140
f 743 744 745
f 743 757 741
f 743 745 758
f 758 757 743
f 739 740 738
f 738 737 739
f 732 737 738
f 809 810 213
f 60 43 61
f 60 210 43
f 209 60 61
f 210 60 209
f 61 62 209
f 767 763 769
f 769 762 767
f 769 763 12
f 770 26 217
f 811 810 138
f 138 137 811
f 139 137 138
f 671 673 674
f 675 671 674
f 676 671 675
f 775 740 739
f 775 729 774
f 704 729 775
f 727 715 725
f 673 715 727
f 674 673 727
f 628 622 645
f 645 646 628
f 629 630 622
f 622 628 629
f 629 628 627
f 987 1021 988
f 988 978 987
f 1022 1021 1020
f 1020 1031 1022
f 1026 1028 1025
f 1025 1035 1026
f 988 1021 989
f 989 1021 1022
f 979 988 980
f 988 989 980
f 980 989 990
f 301 284 177
f 177 178 179
f 179 300 177
f 177 300 301
f 278 279 178
f 278 178 282
f 282 277 278
f 278 379 279
f 278 277 380
f 380 379 278
f 390 288 289
f 390 389 288
f 289 391 390
f 390 391 396
f 285 379 380
f 411 248 285
f 380 384 285
f 285 384 411
f 246 379 249
f 248 84 249
f 249 285 248
f 379 285 249
f 236 86 235
f 235 179 236
f 5 86 236
f 236 237 5
f 279 237 236
f 4 237 85
f 572 569 571
f 571 569 570
f 570 520 571
f 521 520 426
f 426 520 570
f 579 570 580
f 575 576 591
f 591 590 575
f 582 590 591
f 593 576 577
f 575 598 597
f 597 598 197
f 597 197 8
f 79 7 36
f 73 79 195
f 73 7 79
f 195 74 73
f 74 7 73
f 195 595 594
f 594 577 195
f 594 595 558
f 594 593 577
f 581 593 594
f 558 595 530
f 57 9 58
f 24 55 25
f 24 57 213
f 9 57 24
f 216 25 54
f 54 812 216
f 25 812 54
f 25 55 215
f 215 55 811
f 811 812 215
f 557 555 599
f 555 600 599
f 599 600 613
f 599 598 557
f 613 189 599
f 538 583 522
f 560 593 581
f 524 523 526
f 563 523 524
f 563 522 583
f 524 522 563
f 198 10 71
f 71 70 198
f 10 70 71
f 198 598 614
f 614 599 189
f 598 599 614
f 199 68 11
f 199 805 68
f 750 748 606
f 750 752 749
f 749 747 750
f 750 747 748
f 554 553 555
f 554 556 538
f 555 556 554
f 538 537 554
f 552 553 554
f 554 537 552
f 601 551 602
f 478 477 550
f 550 477 548
f 550 552 478
f 550 551 552
f 536 537 514
f 514 535 536
f 513 535 514
f 514 537 538
f 751 753 474
f 751 473 749
f 751 474 473
f 749 752 751
f 755 547 548
f 475 753 755
f 755 753 546
f 546 547 755
f 318 397 314
f 396 397 399
f 397 318 399
f 297 306 293
f 292 296 293
f 293 296 297
f 293 306 305
f 293 291 292
f 298 306 297
f 298 1002 308
f 297 1000 1001
f 1001 298 297
f 1002 298 1001
f 1001 1000 979
f 295 254 294
f 295 915 291
f 294 914 295
f 295 914 915
f 303 304 392
f 392 290 303
f 392 391 290
f 313 391 392
f 307 304 311
f 311 306 307
f 307 298 308
f 306 298 307
f 381 281 286
f 286 281 388
f 388 402 286
f 402 387 286
f 404 395 386
f 386 176 404
f 404 176 387
f 403 395 404
f 404 387 403
f 166 164 163
f 518 520 521
f 521 519 518
f 518 571 520
f 422 427 428
f 422 426 427
f 422 410 521
f 521 426 422
f 169 385 405
f 386 395 405
f 405 394 169
f 395 394 405
f 406 385 169
f 382 383 381
f 381 286 382
f 387 176 382
f 382 286 387
f 412 413 418
f 419 431 418
f 418 413 419
f 418 417 412
f 418 432 417
f 175 176 386
f 175 413 383
f 383 382 175
f 175 382 176
f 463 464 459
f 458 456 459
f 536 535 480
f 535 534 480
f 480 534 482
f 548 477 476
f 475 755 476
f 476 755 548
f 476 456 475
f 585 586 541
f 336 440 335
f 442 441 336
f 336 441 440
f 329 332 341
f 332 329 340
f 324 322 998
f 998 347 985
f 309 310 313
f 328 327 1029
f 1028 329 328
f 341 327 328
f 328 329 341
f 496 497 508
f 508 495 496
f 496 395 403
f 496 495 395
f 494 173 393
f 393 495 494
f 394 495 393
f 169 394 393
f 377 378 374
f 370 377 374
f 374 371 370
f 509 378 587
f 587 543 542
f 587 586 509
f 542 586 587
f 493 173 494
f 168 173 493
f 494 508 507
f 507 493 494
f 506 493 507
f 371 374 373
f 544 446 445
f 445 446 444
f 445 543 544
f 445 444 531
f 531 543 445
f 544 543 588
f 543 587 588
f 378 376 588
f 588 587 378
f 321 344 345
f 345 353 321
f 345 344 364
f 364 366 345
f 359 369 361
f 361 360 359
f 362 360 361
f 361 363 362
f 361 369 370
f 370 363 361
f 368 367 334
f 334 440 439
f 335 440 334
f 334 367 335
f 439 545 334
f 377 369 375
f 375 376 377
f 375 334 545
f 375 369 368
f 368 334 375
f 687 688 701
f 677 688 687
f 687 678 677
f 739 777 776
f 776 775 739
f 704 775 776
f 836 658 656
f 717 718 648
f 718 836 648
f 668 718 669
f 669 678 668
f 669 676 677
f 677 678 669
f 153 839 666
f 153 661 839
f 153 155 962
f 680 838 667
f 668 678 667
f 447 782 448
f 447 438 782
f 448 472 447
f 447 472 488
f 665 152 666
f 666 683 665
f 665 683 682
f 1026 1035 1036
f 1036 1035 1042
f 1042 1049 1036
f 1042 1035 1034
f 1034 1041 1042
f 1032 1041 1034
f 1033 1032 1034
f 434 247 433
f 433 417 434
f 247 417 433
f 83 434 425
f 425 22 83
f 83 22 434
f 431 82 424
f 424 418 431
f 432 418 424
f 424 82 425
f 425 432 424
f 820 819 827
f 827 825 820
f 828 825 827
f 760 719 766
f 763 719 760
f 708 711 766
f 638 711 708
f 14 13 49
f 13 219 49
f 49 219 765
f 13 51 50
f 50 219 13
f 50 760 766
f 51 760 50
f 15 764 47
f 642 46 47
f 47 46 15
f 1009 130 129
f 928 927 1009
f 129 1010 1009
f 1009 1010 928
f 875 876 883
f 875 873 866
f 128 937 129
f 867 869 128
f 129 130 128
f 128 130 867
f 853 828 854
f 854 867 853
f 866 865 864
f 864 875 866
f 876 875 864
f 863 876 864
f 870 865 866
f 866 873 870
f 870 873 871
f 871 869 870
f 933 891 931
f 931 932 933
f 932 934 933
f 933 934 935
f 659 658 662
f 657 658 659
f 660 153 962
f 661 153 660
f 958 659 660
f 662 661 660
f 660 659 662
f 120 961 959
f 959 961 657
f 959 957 120
f 959 958 957
f 652 653 651
f 651 650 652
f 945 882 883
f 120 957 956
f 957 117 956
f 956 119 120
f 956 118 119
f 657 961 655
f 656 657 655
f 941 653 655
f 655 961 941
f 1007 1031 1030
f 1018 1006 1030
f 1030 1020 1018
f 1031 1020 1030
f 1044 109 1043
f 1038 109 1044
f 1040 1032 1007
f 1040 1041 1032
f 1043 109 108
f 108 957 1043
f 108 117 957
f 108 107 117
f 109 107 108
f 1005 109 1038
f 1005 1030 1006
f 1005 1006 1004
f 1007 1030 1005
f 1004 107 1005
f 1005 107 109
f 879 132 131
f 879 886 878
f 878 859 879
f 817 132 879
f 879 859 817
f 621 630 831
f 631 830 620
f 621 831 631
f 709 711 638
f 765 711 709
f 641 639 643
f 643 624 641
f 641 47 764
f 619 618 642
f 642 624 619
f 619 620 618
f 619 624 621
f 621 631 619
f 619 631 620
f 621 624 623
f 623 624 643
f 623 630 621
f 622 630 623
f 634 635 636
f 645 622 644
f 644 635 645
f 622 623 644
f 643 635 644
f 644 623 643
f 643 639 637
f 637 635 643
f 637 709 638
f 639 709 637
f 638 636 637
f 637 636 635
f 268 299 250
f 268 300 299
f 250 263 268
f 301 300 268
f 303 290 302
f 302 284 301
f 290 284 302
f 255 257 272
f 273 255 272
f 272 264 273
f 272 262 264
f 976 969 975
f 986 987 975
f 975 978 976
f 975 987 978
f 979 1000 977
f 977 978 979
f 976 978 977
f 977 1000 999
f 999 112 977
f 977 112 976
f 1003 950 1004
f 1004 1006 1003
f 1003 1006 1018
f 1018 1017 1003
f 986 975 115
f 115 975 969
f 969 113 115
f 115 113 114
f 923 951 872
f 872 952 923
f 923 952 924
f 924 952 925
f 925 880 953
f 925 952 880
f 953 954 925
f 954 122 925
f 950 122 123
f 1004 950 123
f 123 107 1004
f 954 107 123
f 123 122 954
f 924 949 940
f 1011 1010 937
f 937 938 1011
f 928 1010 930
f 930 929 928
f 931 929 930
f 1010 1011 930
f 930 932 931
f 930 1011 932
f 894 893 892
f 892 903 894
f 895 893 894
f 897 895 894
f 894 896 897
f 894 903 896
f 822 824 224
f 134 823 822
f 822 823 824
f 927 926 1008
f 1008 1009 927
f 851 852 1008
f 1008 926 851
f 852 130 1008
f 130 1009 1008
f 223 38 31
f 31 99 223
f 887 898 901
f 901 902 887
f 887 902 900
f 900 888 887
f 844 841 887
f 841 898 887
f 887 843 844
f 887 888 843
f 127 125 124
f 971 966 964
f 966 967 964
f 964 969 971
f 964 113 969
f 251 274 275
f 275 920 251
f 251 253 274
f 252 253 251
f 919 920 276
f 276 848 919
f 180 181 182
f 180 95 94
f 180 182 95
f 843 888 847
f 18 183 96
f 96 183 841
f 96 97 18
f 16 101 102
f 102 183 16
f 102 101 840
f 850 898 841
f 841 183 850
f 844 843 849
f 849 841 844
f 849 96 841
f 97 96 849
f 94 19 98
f 19 97 98
f 98 180 94
f 821 136 820
f 820 825 821
f 821 135 104
f 104 136 821
f 821 825 823
f 134 135 821
f 821 823 134
f 30 105 225
f 31 30 225
f 225 224 31
f 225 105 134
f 134 822 225
f 225 822 224
f 41 206 63
f 63 62 41
f 206 62 63
f 64 205 40
f 40 204 64
f 64 204 205
f 808 796 795
f 795 809 808
f 797 796 807
f 796 808 807
f 742 793 744
f 742 741 792
f 792 141 742
f 742 141 793
f 744 743 742
f 742 743 741
f 795 796 789
f 789 796 797
f 744 793 794
f 161 746 794
f 794 746 744
f 793 789 794
f 794 797 161
f 794 789 797
f 799 162 798
f 799 607 162
f 798 568 799
f 800 607 799
f 567 800 799
f 799 568 567
f 606 607 605
f 605 750 606
f 752 750 605
f 605 607 608
f 608 604 605
f 202 564 186
f 186 564 39
f 186 66 202
f 186 39 66
f 39 564 67
f 801 566 565
f 565 802 801
f 800 566 801
f 801 802 609
f 801 609 608
f 608 800 801
f 611 612 601
f 601 602 611
f 803 804 611
f 611 804 612
f 565 65 187
f 187 65 39
f 39 67 187
f 187 564 565
f 187 67 564
f 453 452 450
f 450 451 453
f 448 782 449
f 449 452 448
f 449 450 452
f 144 450 449
f 487 472 471
f 471 472 448
f 448 452 471
f 694 693 455
f 144 143 695
f 695 143 696
f 695 450 144
f 451 450 695
f 740 142 791
f 791 738 740
f 792 741 791
f 791 142 792
f 774 773 784
f 139 140 784
f 785 137 139
f 139 784 785
f 785 784 773
f 786 137 785
f 767 762 768
f 733 734 732
f 741 757 756
f 756 791 741
f 738 791 756
f 757 733 756
f 732 738 756
f 756 733 732
f 206 568 207
f 207 62 206
f 207 209 62
f 207 568 798
f 798 797 207
f 12 26 218
f 218 769 12
f 218 26 762
f 762 769 218
f 53 26 25
f 53 217 26
f 53 25 216
f 216 217 53
f 787 141 140
f 787 140 139
f 139 138 787
f 673 671 672
f 691 675 674
f 740 775 783
f 783 142 740
f 140 142 783
f 783 784 140
f 783 775 774
f 774 784 783
f 705 715 673
f 646 634 705
f 726 729 704
f 726 724 729
f 726 727 725
f 725 724 726
f 833 629 627
f 833 627 834
f 834 652 833
f 833 652 650
f 1019 1020 1021
f 986 1017 1019
f 1019 1017 1018
f 1018 1020 1019
f 1019 987 986
f 1021 987 1019
f 1035 1025 1024
f 1033 1034 1024
f 1024 1034 1035
f 995 993 1029
f 1029 326 995
f 326 997 995
f 1029 993 1027
f 1027 1025 1028
f 1027 328 1029
f 1028 328 1027
f 991 993 990
f 991 1024 1025
f 1025 1027 991
f 991 1027 993
f 283 177 284
f 283 288 282
f 282 178 283
f 178 177 283
f 289 288 283
f 283 284 289
f 179 279 280
f 280 236 179
f 279 236 280
f 238 249 84
f 21 4 238
f 238 84 21
f 4 85 238
f 246 249 238
f 238 237 246
f 238 85 237
f 194 81 2
f 194 579 81
f 2 80 194
f 194 80 190
f 196 74 577
f 577 576 196
f 196 576 575
f 575 597 196
f 77 579 580
f 580 36 77
f 77 36 2
f 2 81 77
f 81 579 77
f 79 36 596
f 195 79 596
f 596 595 195
f 580 569 596
f 596 530 595
f 596 569 572
f 572 530 596
f 213 810 56
f 56 24 213
f 185 812 25
f 25 215 185
f 185 215 812
f 515 522 524
f 524 526 515
f 582 560 562
f 523 563 562
f 562 583 582
f 562 563 583
f 576 593 592
f 593 560 592
f 592 560 582
f 582 591 592
f 592 591 576
f 188 10 198
f 198 614 188
f 188 614 189
f 11 10 188
f 188 189 11
f 805 199 806
f 613 805 806
f 11 72 806
f 806 199 11
f 806 189 613
f 806 72 189
f 551 550 549
f 603 602 549
f 549 602 551
f 549 550 548
f 549 547 603
f 548 547 549
f 538 522 516
f 516 514 538
f 513 514 516
f 516 515 513
f 522 515 516
f 546 753 754
f 753 751 754
f 754 751 752
f 752 605 754
f 754 604 546
f 754 605 604
f 396 399 398
f 398 390 396
f 400 389 398
f 389 390 398
f 403 400 401
f 401 399 497
f 400 398 401
f 401 398 399
f 401 496 403
f 497 496 401
f 497 399 320
f 320 399 318
f 320 318 319
f 320 352 354
f 319 352 320
f 985 983 984
f 985 347 346
f 346 983 985
f 316 310 346
f 346 348 316
f 347 348 346
f 981 983 1002
f 1002 1001 981
f 981 1001 979
f 981 984 983
f 979 980 981
f 254 295 256
f 255 254 256
f 256 257 255
f 256 295 291
f 572 571 165
f 571 518 165
f 165 163 164
f 165 518 163
f 410 422 407
f 385 406 415
f 174 175 386
f 386 405 174
f 174 405 385
f 385 415 174
f 463 459 457
f 457 459 456
f 456 476 457
f 457 477 463
f 457 476 477
f 461 459 464
f 461 464 483
f 458 459 461
f 536 480 479
f 478 536 479
f 479 463 478
f 541 533 540
f 540 585 541
f 533 534 540
f 540 534 539
f 586 585 510
f 509 586 510
f 510 504 509
f 510 585 511
f 574 499 528
f 528 529 574
f 498 526 528
f 528 499 498
f 498 515 526
f 490 164 166
f 490 574 164
f 499 574 490
f 150 152 151
f 152 665 151
f 337 336 335
f 330 329 1028
f 330 340 329
f 330 1028 1026
f 1026 1036 330
f 663 664 339
f 1041 1040 1047
f 1047 1040 1046
f 350 348 349
f 349 322 351
f 351 350 349
f 349 998 322
f 349 348 347
f 347 998 349
f 317 348 350
f 317 318 314
f 314 316 317
f 316 348 317
f 317 350 319
f 319 318 317
f 312 392 304
f 304 307 312
f 313 392 312
f 312 309 313
f 312 307 308
f 308 309 312
f 504 503 505
f 506 373 505
f 506 507 357
f 357 373 506
f 371 373 365
f 365 363 371
f 365 357 366
f 373 357 365
f 364 363 365
f 365 366 364
f 355 345 366
f 366 357 355
f 354 353 355
f 353 345 355
f 376 375 589
f 544 588 589
f 589 588 376
f 589 545 544
f 589 375 545
f 686 687 701
f 686 700 685
f 686 701 779
f 779 700 686
f 678 687 679
f 680 667 679
f 679 667 678
f 679 685 680
f 679 686 685
f 687 686 679
f 837 718 668
f 837 836 718
f 668 667 837
f 837 667 838
f 658 836 837
f 837 838 662
f 662 658 837
f 835 648 836
f 835 836 656
f 627 628 626
f 834 627 626
f 626 835 834
f 648 835 626
f 670 718 717
f 670 669 718
f 717 672 670
f 670 672 671
f 670 671 676
f 676 669 670
f 156 152 150
f 1046 155 156
f 150 1047 156
f 156 1047 1046
f 666 152 154
f 154 153 666
f 155 153 154
f 152 156 154
f 154 156 155
f 443 447 488
f 488 441 443
f 443 441 442
f 438 447 443
f 146 665 682
f 146 147 664
f 664 151 146
f 146 151 665
f 858 819 818
f 858 827 819
f 858 859 861
f 818 859 858
f 52 51 12
f 52 760 51
f 12 763 52
f 763 760 52
f 766 719 712
f 712 708 766
f 634 636 706
f 706 705 634
f 715 705 706
f 48 764 14
f 14 49 48
f 48 49 765
f 766 219 761
f 761 50 766
f 219 50 761
f 873 875 874
f 872 951 874
f 874 951 873
f 874 882 872
f 883 882 874
f 874 875 883
f 865 854 862
f 863 864 862
f 862 864 865
f 861 863 862
f 828 827 860
f 860 854 828
f 827 858 860
f 860 862 854
f 860 858 861
f 861 862 860
f 867 854 868
f 868 854 865
f 868 869 867
f 868 870 869
f 865 870 868
f 921 938 937
f 921 869 871
f 937 128 921
f 921 128 869
f 1012 934 932
f 932 1011 1012
f 1012 1011 938
f 889 890 891
f 891 933 889
f 889 967 890
f 889 933 935
f 963 660 962
f 958 660 963
f 1043 958 963
f 963 1044 1043
f 962 1044 963
f 960 659 958
f 958 959 960
f 657 659 960
f 960 959 657
f 653 652 654
f 656 655 654
f 654 655 653
f 654 835 656
f 654 652 834
f 834 835 654
f 882 945 946
f 946 881 882
f 947 881 946
f 651 947 946
f 946 625 651
f 946 945 625
f 117 954 955
f 955 956 117
f 955 954 953
f 953 118 955
f 118 956 955
f 962 155 1045
f 1045 1044 962
f 1045 155 1046
f 1038 1044 1045
f 131 829 942
f 942 879 131
f 886 879 942
f 942 943 886
f 630 629 832
f 832 831 630
f 629 833 832
f 649 831 832
f 832 650 649
f 832 833 650
f 829 830 159
f 159 942 829
f 943 942 159
f 886 943 885
f 878 886 885
f 885 877 878
f 639 641 710
f 765 709 710
f 710 709 639
f 710 641 764
f 710 48 765
f 764 48 710
f 640 624 642
f 640 641 624
f 642 47 640
f 47 641 640
f 638 708 707
f 707 636 638
f 707 706 636
f 263 262 261
f 261 268 263
f 301 268 261
f 261 302 301
f 303 302 260
f 270 303 260
f 260 261 262
f 302 261 260
f 271 272 257
f 271 259 270
f 271 257 259
f 270 260 271
f 262 272 271
f 271 260 262
f 1016 1003 1017
f 950 1003 1016
f 121 949 924
f 924 925 121
f 121 925 122
f 121 122 950
f 1014 940 949
f 100 101 38
f 38 223 100
f 222 223 99
f 222 99 224
f 222 224 851
f 851 926 222
f 918 919 848
f 912 919 918
f 918 124 912
f 918 127 124
f 935 113 965
f 113 964 965
f 965 964 967
f 965 889 935
f 967 889 965
f 911 251 920
f 920 919 911
f 911 919 912
f 252 251 911
f 912 913 911
f 911 913 252
f 910 888 900
f 910 900 909
f 909 125 910
f 125 127 910
f 182 181 846
f 846 848 182
f 846 918 848
f 842 102 840
f 183 102 842
f 840 899 842
f 899 898 842
f 898 850 842
f 842 850 183
f 97 849 245
f 245 98 97
f 245 849 843
f 843 847 245
f 245 847 181
f 181 180 245
f 180 98 245
f 59 210 211
f 210 807 211
f 211 807 808
f 211 9 59
f 610 611 602
f 609 802 610
f 610 802 803
f 803 611 610
f 603 609 610
f 610 602 603
f 144 449 145
f 145 780 144
f 145 782 781
f 145 449 782
f 781 699 145
f 145 699 780
f 487 471 466
f 462 485 466
f 466 486 487
f 466 485 486
f 470 471 452
f 470 452 453
f 453 469 470
f 470 469 462
f 462 466 470
f 470 466 471
f 467 456 458
f 458 468 467
f 467 468 455
f 467 455 474
f 467 474 475
f 475 456 467
f 455 468 454
f 453 451 454
f 454 469 453
f 454 468 469
f 454 694 455
f 451 694 454
f 693 694 736
f 696 734 736
f 736 695 696
f 736 694 451
f 451 695 736
f 786 785 772
f 772 785 773
f 770 217 771
f 786 772 771
f 771 772 768
f 762 770 771
f 771 768 762
f 216 786 771
f 771 217 216
f 209 207 208
f 210 209 208
f 208 807 210
f 797 807 208
f 208 207 797
f 141 787 788
f 793 141 788
f 795 789 788
f 788 789 793
f 790 787 138
f 810 809 790
f 790 138 810
f 790 809 795
f 795 788 790
f 790 788 787
f 702 688 689
f 689 688 677
f 677 676 689
f 676 675 689
f 704 776 703
f 703 776 777
f 674 727 728
f 728 691 674
f 727 726 728
f 728 726 704
f 720 719 767
f 767 768 720
f 673 672 716
f 716 705 673
f 646 705 716
f 716 672 717
f 990 989 1023
f 1023 991 990
f 1023 989 1022
f 1024 991 1023
f 1022 1033 1023
f 1033 1024 1023
f 193 194 190
f 426 194 193
f 427 426 193
f 193 190 192
f 192 427 193
f 578 194 426
f 579 194 578
f 578 426 570
f 570 579 578
f 8 74 75
f 74 196 75
f 78 36 580
f 580 596 78
f 78 596 36
f 525 529 528
f 528 526 525
f 525 526 523
f 214 810 811
f 214 56 810
f 811 55 214
f 55 24 214
f 24 56 214
f 994 995 997
f 1002 983 315
f 983 346 315
f 308 1002 315
f 315 346 310
f 315 309 308
f 310 309 315
f 259 257 258
f 257 256 258
f 305 259 258
f 258 256 291
f 258 293 305
f 291 293 258
f 517 518 519
f 163 518 517
f 171 408 409
f 519 410 409
f 409 517 519
f 408 517 409
f 409 407 171
f 410 407 409
f 170 408 171
f 170 406 169
f 171 406 170
f 169 393 170
f 572 165 573
f 573 530 572
f 573 529 530
f 573 574 529
f 573 165 164
f 164 574 573
f 421 429 420
f 420 415 421
f 428 429 421
f 421 422 428
f 416 406 171
f 416 415 406
f 171 407 416
f 416 421 415
f 416 407 422
f 422 421 416
f 175 174 414
f 414 420 419
f 414 415 420
f 414 174 415
f 419 413 414
f 413 175 414
f 465 461 483
f 465 485 462
f 483 484 465
f 484 485 465
f 458 461 460
f 462 469 460
f 460 465 462
f 461 465 460
f 460 468 458
f 469 468 460
f 481 479 480
f 482 464 481
f 481 480 482
f 481 464 463
f 463 479 481
f 584 540 539
f 511 585 584
f 585 540 584
f 502 510 511
f 502 503 504
f 504 510 502
f 500 498 499
f 500 502 511
f 513 515 527
f 515 498 527
f 539 513 527
f 527 584 539
f 491 490 166
f 166 168 491
f 781 438 698
f 698 682 781
f 698 146 682
f 147 146 698
f 339 664 148
f 664 147 148
f 332 340 333
f 333 337 335
f 335 367 333
f 333 367 332
f 1037 330 1036
f 340 330 1037
f 1037 333 340
f 149 151 664
f 664 663 149
f 150 151 149
f 149 663 1049
f 1041 1047 1048
f 1042 1041 1048
f 1048 1049 1042
f 1048 149 1049
f 1048 1047 150
f 150 149 1048
f 168 493 492
f 492 505 503
f 492 493 506
f 506 505 492
f 492 491 168
f 503 491 492
f 372 373 374
f 372 505 373
f 372 374 378
f 372 378 509
f 509 504 372
f 504 505 372
f 508 497 356
f 354 355 356
f 356 355 357
f 356 507 508
f 356 357 507
f 356 320 354
f 497 320 356
f 647 626 628
f 647 716 717
f 717 648 647
f 648 626 647
f 647 628 646
f 646 716 647
f 939 923 924
f 939 940 1013
f 924 940 939
f 1013 934 939
f 934 1012 939
f 1046 1040 1039
f 1039 1045 1046
f 1038 1045 1039
f 1039 1040 1007
f 1007 1005 1039
f 1039 1005 1038
f 649 625 158
f 943 159 158
f 625 945 158
f 884 876 877
f 877 885 884
f 883 876 884
f 884 945 883
f 708 712 713
f 713 707 708
f 116 1016 1017
f 116 1017 986
f 986 115 116
f 948 1014 949
f 948 121 950
f 949 121 948
f 950 1016 948
f 114 1014 1015
f 1016 116 1015
f 1015 948 1016
f 1014 948 1015
f 1015 115 114
f 1015 116 115
f 1013 940 936
f 940 1014 936
f 936 934 1013
f 935 934 936
f 936 1014 114
f 936 113 935
f 114 113 936
f 840 101 226
f 101 100 226
f 226 856 840
f 855 856 226
f 814 100 223
f 855 226 814
f 814 226 100
f 813 222 926
f 223 222 813
f 813 926 855
f 855 814 813
f 813 814 223
f 181 847 845
f 845 846 181
f 845 847 888
f 888 910 845
f 212 808 809
f 212 211 808
f 212 809 213
f 58 9 212
f 9 211 212
f 213 57 212
f 212 57 58
f 693 736 735
f 758 759 735
f 759 693 735
f 735 757 758
f 735 733 757
f 734 733 735
f 735 736 734
f 691 703 690
f 675 691 690
f 690 689 675
f 702 689 690
f 690 777 702
f 690 703 777
f 704 703 692
f 692 728 704
f 692 703 691
f 691 728 692
f 768 772 731
f 731 720 768
f 731 722 720
f 731 772 773
f 76 196 597
f 76 75 196
f 76 597 8
f 8 75 76
f 561 525 523
f 523 562 561
f 561 562 560
f 559 560 581
f 559 561 560
f 525 561 559
f 529 525 559
f 581 594 559
f 559 594 558
f 558 530 559
f 530 529 559
f 993 995 992
f 995 994 992
f 990 993 992
f 992 980 990
f 996 994 997
f 996 997 324
f 324 998 996
f 996 998 985
f 985 984 996
f 984 994 996
f 166 163 167
f 163 517 167
f 167 168 166
f 167 173 168
f 167 517 408
f 512 527 498
f 584 527 512
f 498 500 512
f 511 584 512
f 512 500 511
f 490 491 501
f 502 500 501
f 503 502 501
f 501 491 503
f 499 490 501
f 501 500 499
f 436 148 147
f 1051 1036 1049
f 1051 1037 1036
f 1051 663 339
f 1049 663 1051
f 922 1012 938
f 922 939 1012
f 922 921 871
f 938 921 922
f 923 939 922
f 871 951 922
f 951 923 922
f 157 159 830
f 157 158 159
f 830 631 157
f 157 631 831
f 157 831 649
f 649 158 157
f 944 158 945
f 945 884 944
f 943 158 944
f 944 885 943
f 944 884 885
f 706 707 714
f 707 713 714
f 725 715 714
f 715 706 714
f 846 845 917
f 127 918 917
f 918 846 917
f 917 910 127
f 917 845 910
f 724 722 730
f 730 773 774
f 730 731 773
f 722 731 730
f 774 729 730
f 729 724 730
f 720 722 721
f 719 720 721
f 721 712 719
f 721 713 712
f 980 992 982
f 982 981 980
f 984 981 982
f 982 994 984
f 982 992 994
f 173 167 172
f 172 167 408
f 408 170 172
f 172 393 173
f 172 170 393
f 437 436 147
f 437 698 438
f 147 698 437
f 438 443 437
f 437 443 442
f 442 436 437
f 339 148 338
f 148 436 338
f 338 337 339
f 336 337 338
f 442 336 338
f 338 436 442
f 1050 1051 339
f 1037 1051 1050
f 339 337 1050
f 337 333 1050
f 333 1037 1050
f 723 721 722
f 725 714 723
f 723 714 713
f 713 721 723
f 723 724 725
f 723 722 724
f 87 5 6
f 87 86 5
f 29 30 24
f 24 41 43
f 32 33 24
f 24 11 42
f 24 26 12
f 24 38 16
f 27 28 24
f 24 35 1
f 24 4 21
f 24 5 4
f 12 13 24
f 43 9 24
f 34 35 24
f 24 23 34
f 1 2 24
f 8 10 24
f 24 20 32
f 24 15 27
f 16 18 24
f 42 39 24
f 6 5 24
f 24 33 6
f 24 37 29
f 24 28 3
f 3 17 24
f 19 20 24
f 24 18 19
f 40 41 24
f 24 7 8
f 24 10 11
f 24 13 14
f 17 37 24
f 14 15 24
f 31 38 24
f 24 30 31
f 24 39 40
f 21 22 24
f 2 36 24
f 25 26 24
f 24 22 23
f 24 36 7

