# https://github.com/mikedh/trimesh
v -0.00108747 0.00769519 0.00278936
v -0.00112782 0.00769519 0.00278936
v -0.00113424 0.00769296 0.00335309
v -0.00093064 0.00768804 0.00335309
v -0.00079766 0.00768760 0.00278936
v 0.00202609 0.00703865 0.00074910
v -0.00043633 0.00703865 0.00074736
v -0.00146073 0.00703865 0.00074707
v -0.00134609 0.00769117 0.00278936
v -0.00137360 0.00768938 0.00335309
v -0.00123879 0.00769162 0.00335309
v -0.00117826 0.00769251 0.00335309
v -0.00411573 0.00703865 0.00074707
v 0.00308258 0.00450717 0.00371873
v 0.00341182 0.00450717 0.00371873
v -0.00086553 0.00768626 0.00335309
v -0.00036021 0.00766661 0.00335309
v -0.00036021 0.00766661 0.00278936
v 0.00027901 0.00757683 0.00278936
v 0.00040649 0.00755316 0.00278936
v 0.00071738 0.00748617 0.00278936
v 0.00100077 0.00741248 0.00278936
v 0.00124655 0.00733744 0.00278936
v 0.00165191 0.00718782 0.00278936
v 0.00183349 0.00711770 0.00278936
v 0.00202609 0.00703865 0.00161884
v 0.00204168 0.00703150 0.00131022
v 0.00223794 0.00693860 0.00074910
v -0.00007316 0.00763311 0.00278936
v -0.00003189 0.00762820 0.00278936
v 0.00002956 0.00649868 0.00074736
v 0.00229388 0.00691181 0.00074910
v 0.00320639 0.00636692 0.00074910
v 0.00328618 0.00631601 0.00074910
v 0.00344209 0.00620301 0.00074910
v 0.00347144 0.00618157 0.00074910
v 0.00355948 0.00611413 0.00074910
v 0.00366769 0.00602838 0.00074910
v 0.00003048 0.00648974 0.00074736
v -0.00146073 0.00315076 0.00074707
v -0.00138461 0.00768938 0.00278936
v -0.00139836 0.00768849 0.00335309
v -0.00439178 0.00691315 0.00074707
v -0.00411573 0.00703865 0.00164648
v -0.00404511 0.00706947 0.00278936
v -0.00366635 0.00721641 0.00278936
v -0.00329126 0.00735397 0.00278936
v -0.00317295 0.00739059 0.00278936
v -0.00310050 0.00741248 0.00278936
v -0.00223476 0.00758755 0.00278936
v -0.00173953 0.00766661 0.00278936
v -0.00156253 0.00768090 0.00278936
v 0.00246538 0.00386938 0.00371873
v -0.00150658 0.00768313 0.00335309
v -0.00157628 0.00767956 0.00335309
v -0.00160379 0.00767777 0.00335309
v -0.00165332 0.00767375 0.00335309
v -0.00173953 0.00766661 0.00335309
v -0.00228703 0.00757728 0.00335309
v -0.00229712 0.00757549 0.00335309
v -0.00310050 0.00741248 0.00335309
v -0.00327750 0.00735799 0.00335309
v -0.00362600 0.00723070 0.00335309
v -0.00406988 0.00705830 0.00335309
v -0.00410931 0.00704088 0.00335309
v -0.00439178 0.00691225 0.00335309
v -0.00447982 0.00686357 0.00335309
v -0.00489343 0.00663311 0.00335309
v -0.00504567 0.00653977 0.00335309
v -0.00509244 0.00650895 0.00335309
v -0.00518140 0.00644910 0.00335309
v -0.00551706 0.00621998 0.00335309
v -0.00556842 0.00618425 0.00335309
v -0.00569498 0.00608019 0.00335309
v -0.00570140 0.00607483 0.00335309
v 0.00335405 0.00626866 0.00335309
v 0.00333754 0.00627983 0.00335309
v 0.00326050 0.00632806 0.00335309
v 0.00312936 0.00640756 0.00335309
v 0.00269373 0.00667063 0.00335309
v 0.00229388 0.00691136 0.00335309
v 0.00208478 0.00701006 0.00335309
v 0.00205360 0.00702391 0.00335309
v 0.00197289 0.00705830 0.00335309
v 0.00190503 0.00708688 0.00335309
v 0.00186651 0.00710296 0.00335309
v 0.00182891 0.00711770 0.00335309
v 0.00169776 0.00716817 0.00335309
v 0.00122913 0.00734280 0.00335309
v 0.00099985 0.00741292 0.00335309
v 0.00094941 0.00742632 0.00335309
v 0.00083110 0.00745714 0.00335309
v 0.00073756 0.00748081 0.00335309
v 0.00068437 0.00749242 0.00335309
v 0.00055414 0.00752056 0.00335309
v 0.00044959 0.00754289 0.00335309
v 0.00031203 0.00756879 0.00335309
v 0.00023316 0.00758309 0.00335309
v 0.00005065 0.00761346 0.00335309
v -0.00005481 0.00763088 0.00335309
v -0.00012543 0.00763936 0.00335309
v -0.00024740 0.00765365 0.00335309
v 0.00342099 0.00315121 0.00371873
v 0.00196464 0.00706321 0.00278936
v 0.00204443 0.00702882 0.00278936
v 0.00207469 0.00701542 0.00278936
v 0.00229388 0.00691181 0.00278936
v 0.00226361 0.00692655 0.00131022
v 0.00332195 0.00629144 0.00278936
v 0.00333112 0.00628563 0.00278936
v 0.00331645 0.00629501 0.00131022
v 0.00335772 0.00626598 0.00164648
v 0.00346868 0.00618470 0.00154380
v 0.00358699 0.00609314 0.00108856
v 0.00366769 0.00528832 0.00074910
v 0.00003048 0.00313245 0.00074736
v -0.00448532 0.00315076 0.00074707
v -0.00440462 0.00690645 0.00074707
v -0.00439178 0.00691315 0.00278936
v -0.00415517 0.00702034 0.00278936
v 0.00246538 0.00315121 0.00371873
v -0.00493195 0.00661212 0.00278936
v -0.00499706 0.00657594 0.00184573
v -0.00505759 0.00653441 0.00278936
v -0.00513188 0.00648394 0.00278936
v -0.00556842 0.00618425 0.00307093
v -0.00543727 0.00627447 0.00278936
v -0.00570140 0.00315121 0.00335309
v -0.00490444 0.00662775 0.00164648
v -0.00448532 0.00686178 0.00074707
v 0.00336413 0.00626152 0.00217734
v 0.00334671 0.00627402 0.00328822
v 0.00364568 0.00315031 0.00074910
v -0.00000070 0.00313245 0.00149987
v 0.00057340 0.00313245 0.00138585
v 0.00057707 0.00313245 0.00138381
v 0.00106038 0.00313245 0.00106093
v 0.00126764 0.00313245 0.00074910
v 0.00333570 0.00628162 0.00164648
v -0.00126905 0.00313245 0.00074736
v -0.00543727 0.00315076 0.00278936
v -0.00105904 0.00313245 0.00106093
v -0.00057481 0.00313245 0.00138585
f 1 2 3
f 1 3 4
f 1 4 5
f 1 5 6
f 1 6 7
f 1 7 8
f 1 8 13
f 1 13 2
f 2 9 10
f 2 10 11
f 2 11 12
f 2 12 3
f 2 13 9
f 3 12 14
f 3 14 15
f 3 15 4
f 4 16 5
f 4 15 16
f 5 16 17
f 5 17 18
f 5 18 6
f 6 19 20
f 6 20 21
f 6 21 22
f 6 22 23
f 6 23 24
f 6 24 25
f 6 25 26
f 6 26 27
f 6 27 28
f 6 28 7
f 6 18 29
f 6 29 30
f 6 30 19
f 7 31 8
f 7 28 32
f 7 32 33
f 7 33 34
f 7 34 35
f 7 35 36
f 7 36 37
f 7 37 38
f 7 38 31
f 8 31 39
f 8 39 116
f 8 116 40
f 8 40 117
f 8 117 130
f 8 130 118
f 8 118 43
f 8 43 13
f 9 41 42
f 9 42 10
f 9 13 41
f 10 42 14
f 10 14 11
f 11 14 12
f 13 43 119
f 13 119 44
f 13 44 45
f 13 45 46
f 13 46 47
f 13 47 48
f 13 48 49
f 13 49 50
f 13 50 51
f 13 51 52
f 13 52 41
f 14 53 121
f 14 121 103
f 14 103 15
f 14 42 54
f 14 54 55
f 14 55 56
f 14 56 57
f 14 57 58
f 14 58 59
f 14 59 60
f 14 60 61
f 14 61 62
f 14 62 63
f 14 63 64
f 14 64 65
f 14 65 66
f 14 66 67
f 14 67 68
f 14 68 69
f 14 69 70
f 14 70 71
f 14 71 72
f 14 72 73
f 14 73 74
f 14 74 75
f 14 75 53
f 15 76 77
f 15 77 78
f 15 78 79
f 15 79 80
f 15 80 81
f 15 81 82
f 15 82 83
f 15 83 84
f 15 84 85
f 15 85 86
f 15 86 87
f 15 87 88
f 15 88 89
f 15 89 90
f 15 90 91
f 15 91 92
f 15 92 93
f 15 93 94
f 15 94 95
f 15 95 96
f 15 96 97
f 15 97 98
f 15 98 99
f 15 99 100
f 15 100 101
f 15 101 102
f 15 102 17
f 15 17 16
f 15 103 38
f 15 38 76
f 17 102 18
f 18 102 29
f 19 97 20
f 19 30 99
f 19 99 98
f 19 98 97
f 20 97 96
f 20 96 95
f 20 95 21
f 21 95 94
f 21 94 93
f 21 93 92
f 21 92 22
f 22 92 91
f 22 91 90
f 22 90 23
f 23 90 89
f 23 89 24
f 24 89 88
f 24 88 87
f 24 87 25
f 25 87 86
f 25 86 104
f 25 104 26
f 26 104 105
f 26 105 106
f 26 106 27
f 27 106 107
f 27 107 108
f 27 108 28
f 28 108 32
f 29 102 101
f 29 101 30
f 30 101 100
f 30 100 99
f 31 38 39
f 32 107 33
f 32 108 107
f 33 107 81
f 33 81 80
f 33 80 79
f 33 79 78
f 33 78 109
f 33 109 110
f 33 110 34
f 34 110 111
f 34 111 112
f 34 112 35
f 35 112 36
f 36 113 37
f 36 112 113
f 37 113 114
f 37 114 38
f 38 115 116
f 38 116 39
f 38 114 76
f 38 103 115
f 40 116 140
f 40 140 117
f 41 52 42
f 42 52 54
f 43 118 119
f 44 119 120
f 44 120 65
f 44 65 45
f 45 64 63
f 45 63 46
f 45 65 64
f 46 63 47
f 47 63 62
f 47 62 48
f 48 62 61
f 48 61 49
f 49 61 60
f 49 60 50
f 50 60 59
f 50 59 58
f 50 58 51
f 51 58 57
f 51 57 56
f 51 56 52
f 52 56 55
f 52 55 54
f 53 75 128
f 53 128 121
f 65 120 119
f 65 119 66
f 66 119 67
f 67 119 68
f 68 122 69
f 68 119 122
f 69 122 123
f 69 123 124
f 69 124 70
f 70 124 71
f 71 124 125
f 71 125 72
f 72 126 73
f 72 125 127
f 72 127 126
f 73 126 74
f 74 126 75
f 75 126 127
f 75 127 123
f 75 123 129
f 75 129 130
f 75 130 117
f 75 117 128
f 76 131 110
f 76 110 132
f 76 132 77
f 76 114 113
f 76 113 131
f 77 132 110
f 77 110 109
f 77 109 78
f 81 107 106
f 81 106 82
f 82 106 83
f 83 106 105
f 83 105 104
f 83 104 84
f 84 104 85
f 85 104 86
f 103 133 115
f 103 121 134
f 103 134 135
f 103 135 136
f 103 136 137
f 103 137 138
f 103 138 133
f 110 131 112
f 110 112 139
f 110 139 111
f 111 139 112
f 112 131 113
f 115 133 116
f 116 133 138
f 116 138 137
f 116 137 136
f 116 136 135
f 116 135 134
f 116 134 143
f 116 143 142
f 116 142 140
f 117 141 128
f 117 140 141
f 118 130 119
f 119 130 122
f 121 128 134
f 122 129 123
f 122 130 129
f 123 127 125
f 123 125 124
f 128 141 140
f 128 140 142
f 128 142 143
f 128 143 134

