# https://github.com/mikedh/trimesh
v 0.00202681 0.00703894 0.00100030
v 0.00202681 0.00703894 -0.00000848
v 0.00202681 0.00703906 -0.00000848
v 0.00188363 0.00736910 -0.00011986
v 0.00202559 0.00703894 0.00215054
v -0.00005872 0.00651879 -0.00075035
v -0.00005872 0.00651879 -0.00153254
v 0.00202681 0.00703906 -0.00027412
v 0.00202132 0.00703906 -0.00314941
v 0.00183732 0.00744134 -0.00011666
v 0.00202376 0.00703906 0.00278935
v 0.00202376 0.00703894 0.00278935
v -0.00048399 0.00650167 -0.00066330
v -0.00079411 0.00650167 0.00012593
v -0.00342190 0.00651879 -0.00153254
v 0.00008811 0.00703906 -0.00374598
v 0.00043174 0.00703906 -0.00372421
v 0.00095206 0.00703906 -0.00362244
v 0.00103187 0.00703906 -0.00360324
v 0.00133955 0.00703906 -0.00350146
v 0.00175751 0.00703906 -0.00331072
v 0.00178066 0.00703906 -0.00329855
v 0.00176970 0.00714966 -0.00330495
v 0.00168196 0.00748755 -0.00054616
v 0.00176543 0.00748755 -0.00011218
v 0.00173740 0.00748755 0.00033140
v 0.00180808 0.00744122 0.00034485
v 0.00196588 0.00706428 0.00278935
v -0.00006725 0.00703894 0.00278935
v -0.00382706 0.00650167 -0.00066330
v -0.00419628 0.00650167 0.00012593
v -0.00339813 0.00703906 -0.00158439
v -0.00308436 0.00703906 -0.00212911
v -0.00290036 0.00703906 -0.00237554
v -0.00261766 0.00703906 -0.00267959
v -0.00254028 0.00703906 -0.00275320
v -0.00222224 0.00703906 -0.00301883
v -0.00180916 0.00703906 -0.00327807
v -0.00169583 0.00703906 -0.00334080
v -0.00140765 0.00703906 -0.00347522
v -0.00102746 0.00703906 -0.00360132
v -0.00089586 0.00703906 -0.00363716
v -0.00050410 0.00703906 -0.00371461
v -0.00037981 0.00703906 -0.00372934
v -0.00003435 0.00703906 -0.00374470
v 0.00007166 0.00703906 -0.00374598
v 0.00007227 0.00721757 -0.00374726
v 0.00003571 0.00762067 -0.00374982
v 0.00043174 0.00755206 -0.00372421
v 0.00100202 0.00741355 -0.00361284
v 0.00133955 0.00730905 -0.00350146
v 0.00007227 0.00761457 -0.00374726
v 0.00161616 0.00749987 -0.00052504
v 0.00169597 0.00749987 -0.00010770
v 0.00168988 0.00749987 -0.00000848
v 0.00166978 0.00749987 0.00031796
v 0.00160032 0.00748755 0.00075322
v 0.00183489 0.00711870 0.00278935
v -0.00411646 0.00703906 0.00278935
v -0.00419628 0.00700294 0.00012593
v -0.00339813 0.00732265 -0.00158439
v -0.00310203 0.00741355 -0.00210478
v -0.00290036 0.00746773 -0.00237554
v -0.00258110 0.00754162 -0.00271799
v -0.00222224 0.00760753 -0.00301883
v -0.00174214 0.00766793 -0.00331968
v -0.00140765 0.00769127 -0.00347522
v -0.00096227 0.00769913 -0.00362308
v -0.00050410 0.00767978 -0.00371461
v -0.00035909 0.00766793 -0.00373126
v -0.00035848 0.00766793 0.00196684
v -0.00035848 0.00766793 0.00278935
v 0.00153756 0.00749987 0.00072378
v -0.00006725 0.00763392 0.00278935
v -0.00003009 0.00762946 0.00278935
v 0.00024104 0.00758454 0.00278935
v 0.00028064 0.00757786 0.00278935
v 0.00040859 0.00755405 0.00278935
v 0.00067606 0.00749693 0.00278935
v 0.00071870 0.00748767 0.00278935
v 0.00095632 0.00742563 0.00278935
v 0.00099958 0.00741425 0.00278935
v 0.00100202 0.00741355 0.00278935
v 0.00124755 0.00733837 0.00278935
v 0.00165333 0.00718918 0.00278935
v -0.00404640 0.00707096 0.00278935
v -0.00390261 0.00713605 -0.00050327
v -0.00329273 0.00735514 0.00278935
v -0.00310203 0.00741355 0.00278935
v -0.00223565 0.00758912 0.00278935
v -0.00200473 0.00763873 -0.00000848
v -0.00200047 0.00763943 -0.00000016
v -0.00197000 0.00764330 -0.00034901
v -0.00153255 0.00768435 -0.00128547
v -0.00187983 0.00765386 -0.00068314
v -0.00174214 0.00766793 0.00278935
v -0.00153194 0.00768435 0.00128514
v -0.00128458 0.00769620 0.00153222
v -0.00128579 0.00769620 -0.00153254
v -0.00100126 0.00769983 -0.00173161
v -0.00100066 0.00769983 0.00173064
v -0.00068871 0.00769115 0.00187722
v -0.00068932 0.00769115 -0.00187691
v -0.00079716 0.00768869 0.00278935
v -0.00366743 0.00721757 0.00278935
v -0.00197000 0.00764330 0.00034805
v -0.00156545 0.00768177 0.00278935
v -0.00187922 0.00765386 0.00068345
v -0.00134733 0.00769233 0.00278935
v -0.00112860 0.00769549 0.00278935
v -0.00108778 0.00769585 0.00278935
f 1 2 8
f 1 8 3
f 1 3 4
f 1 4 5
f 1 5 6
f 1 6 7
f 1 7 2
f 2 7 8
f 3 8 4
f 4 8 9
f 4 9 10
f 4 10 11
f 4 11 5
f 5 11 12
f 5 12 6
f 6 13 7
f 6 12 14
f 6 14 13
f 7 13 30
f 7 30 15
f 7 15 46
f 7 46 16
f 7 16 17
f 7 17 18
f 7 18 19
f 7 19 20
f 7 20 21
f 7 21 22
f 7 22 9
f 7 9 8
f 9 22 23
f 9 23 24
f 9 24 25
f 9 25 10
f 10 25 26
f 10 26 27
f 10 27 11
f 11 27 26
f 11 26 28
f 11 28 58
f 11 58 85
f 11 85 84
f 11 84 83
f 11 83 82
f 11 82 81
f 11 81 80
f 11 80 79
f 11 79 78
f 11 78 77
f 11 77 76
f 11 76 75
f 11 75 74
f 11 74 72
f 11 72 104
f 11 104 111
f 11 111 110
f 11 110 109
f 11 109 107
f 11 107 96
f 11 96 90
f 11 90 89
f 11 89 88
f 11 88 105
f 11 105 86
f 11 86 59
f 11 59 29
f 11 29 12
f 12 29 31
f 12 31 14
f 13 14 31
f 13 31 30
f 15 32 33
f 15 33 34
f 15 34 35
f 15 35 36
f 15 36 37
f 15 37 38
f 15 38 39
f 15 39 40
f 15 40 41
f 15 41 42
f 15 42 43
f 15 43 44
f 15 44 45
f 15 45 46
f 15 30 31
f 15 31 32
f 16 46 47
f 16 47 17
f 17 47 48
f 17 48 49
f 17 49 50
f 17 50 18
f 18 50 19
f 19 50 51
f 19 51 20
f 20 51 21
f 21 23 22
f 21 51 23
f 23 51 24
f 24 51 50
f 24 50 49
f 24 49 52
f 24 52 53
f 24 53 25
f 25 54 55
f 25 55 56
f 25 56 26
f 25 53 54
f 26 56 57
f 26 57 58
f 26 58 28
f 29 59 31
f 31 59 60
f 31 60 61
f 31 61 32
f 32 61 62
f 32 62 33
f 33 62 63
f 33 63 34
f 34 63 35
f 35 63 64
f 35 64 36
f 36 64 65
f 36 65 37
f 37 65 38
f 38 65 66
f 38 66 39
f 39 66 40
f 40 67 68
f 40 68 41
f 40 66 67
f 41 68 42
f 42 68 69
f 42 69 43
f 43 69 44
f 44 69 70
f 44 70 48
f 44 48 45
f 45 48 46
f 46 48 47
f 48 52 49
f 48 70 54
f 48 54 53
f 48 53 52
f 54 71 72
f 54 72 55
f 54 70 71
f 55 72 56
f 56 73 57
f 56 72 74
f 56 74 75
f 56 75 73
f 57 73 76
f 57 76 77
f 57 77 78
f 57 78 79
f 57 79 80
f 57 80 81
f 57 81 82
f 57 82 83
f 57 83 84
f 57 84 85
f 57 85 58
f 59 86 60
f 60 86 87
f 60 87 61
f 61 87 88
f 61 88 62
f 62 88 89
f 62 89 63
f 63 89 64
f 64 89 90
f 64 90 91
f 64 91 65
f 65 91 92
f 65 92 93
f 65 93 66
f 66 94 67
f 66 93 95
f 66 95 96
f 66 96 94
f 67 94 97
f 67 97 98
f 67 98 99
f 67 99 68
f 68 99 100
f 68 100 101
f 68 101 102
f 68 102 103
f 68 103 69
f 69 103 102
f 69 102 72
f 69 72 71
f 69 71 70
f 72 102 104
f 73 75 76
f 86 105 87
f 87 105 88
f 90 96 106
f 90 106 92
f 90 92 91
f 92 106 93
f 93 106 95
f 94 96 107
f 94 107 97
f 95 106 108
f 95 108 96
f 96 108 106
f 97 107 98
f 98 107 109
f 98 109 110
f 98 110 101
f 98 101 99
f 99 101 100
f 101 110 111
f 101 111 104
f 101 104 102

