# https://github.com/mikedh/trimesh
v 0.00584066 0.00314948 0.00797291
v 0.00566006 0.00314948 0.00770078
v 0.00582304 0.00314948 0.01070000
v 0.00594344 0.00290845 0.01070000
v 0.00588618 0.00304962 0.00804064
v 0.00578487 -0.00288313 0.00788050
v 0.00565272 -0.00314820 0.00770274
v 0.00551030 -0.00314820 0.00751167
v 0.00544863 0.00016092 0.00744119
v 0.00539137 0.00314948 0.00737776
v -0.00792304 0.00314948 0.01070000
v 0.00608293 0.00251577 0.00841300
v 0.00594344 0.00290783 0.00813892
v 0.00632226 0.00157814 0.01070000
v 0.00623857 0.00196651 0.00880337
v 0.00594197 -0.00250771 0.00813892
v 0.00594197 -0.00250894 0.01070000
v 0.00564391 -0.00314820 0.00874424
v 0.00532970 -0.00314820 0.00731159
v 0.00536934 0.00314948 0.00735192
v -0.00793626 0.00314948 0.00959154
v -0.00804344 0.00290845 0.01070000
v 0.00610495 0.00016092 0.00846233
v 0.00601245 -0.00232154 0.00826852
v 0.00598015 0.00016092 0.00820666
v 0.00614460 0.00016092 0.00856061
v 0.00645000 0.00019975 0.01070000
v 0.00642210 0.00082915 0.00962639
v 0.00634575 0.00143883 0.00918395
v 0.00632226 0.00157753 0.00908293
v 0.00623710 -0.00156638 0.00880337
v 0.00621654 0.00016030 0.00874229
v 0.00621654 0.00016092 0.00874229
v 0.00632226 0.00016092 0.00908293
v 0.00562336 -0.00314820 0.01070000
v 0.00612404 -0.00198249 0.00850775
v 0.00619305 -0.00174146 0.00867886
v 0.00632079 -0.00117802 0.01070000
v 0.00474385 -0.00314820 0.00670000
v 0.00474532 0.00016092 0.00670000
v 0.00532676 0.00314948 0.00730689
v 0.00536347 0.00314948 0.00734565
v -0.00793626 0.00314948 0.00814910
v -0.00804344 0.00290845 0.00837659
v -0.00817412 0.00254104 0.00865889
v -0.00834444 0.00194062 0.00908489
v -0.00842226 0.00157814 0.01070000
v 0.00642944 -0.00033903 0.00969256
v 0.00644853 0.00016030 0.01005709
v 0.00645000 0.00019975 0.01008567
v 0.00635897 -0.00095610 0.00924307
v 0.00635309 0.00016092 0.00921566
v 0.00644853 0.00016092 0.01005709
v 0.00635309 0.00016030 0.00921566
v 0.00632079 -0.00117740 0.00908371
v -0.00772336 -0.00314820 0.01070000
v -0.00726085 -0.00314820 0.00670000
v 0.00474532 0.00314948 0.00670000
v -0.00773363 0.00314948 0.00771292
v -0.00804344 0.00016092 0.00837659
v -0.00726085 0.00314948 0.00670000
v -0.00817412 -0.00214092 0.00865889
v -0.00832388 -0.00162433 0.00902498
v -0.00842226 0.00016092 0.00934605
v -0.00842226 0.00157691 0.00934683
v -0.00846337 0.00133156 0.00952420
v -0.00853091 0.00071449 0.00997330
v -0.00855000 0.00019975 0.01070000
v -0.00804197 -0.00250894 0.01070000
v -0.00776006 -0.00314820 0.00780298
v -0.00776006 -0.00314820 0.00777009
v -0.00804197 -0.00250894 0.00837659
v -0.00842079 -0.00117802 0.01070000
v -0.00842079 -0.00117740 0.00934605
v -0.00844722 -0.00103007 0.00945333
v -0.00845603 0.00016092 0.00948896
v -0.00852210 -0.00042595 0.00989186
v -0.00854853 0.00016030 0.01032020
v -0.00855000 0.00019975 0.01034879
v -0.00776300 -0.00314266 0.00777674
f 1 2 10
f 1 10 20
f 1 20 42
f 1 42 41
f 1 41 58
f 1 58 61
f 1 61 59
f 1 59 43
f 1 43 21
f 1 21 11
f 1 11 3
f 1 3 4
f 1 4 5
f 1 5 2
f 2 5 6
f 2 6 7
f 2 7 8
f 2 8 9
f 2 9 10
f 3 11 22
f 3 22 47
f 3 47 68
f 3 68 73
f 3 73 69
f 3 69 56
f 3 56 35
f 3 35 17
f 3 17 38
f 3 38 27
f 3 27 14
f 3 14 4
f 4 12 13
f 4 13 5
f 4 14 15
f 4 15 12
f 5 13 16
f 5 16 6
f 6 17 18
f 6 18 7
f 6 16 17
f 7 18 35
f 7 35 56
f 7 56 70
f 7 70 71
f 7 71 57
f 7 57 39
f 7 39 19
f 7 19 8
f 8 19 9
f 9 19 20
f 9 20 10
f 11 21 22
f 12 23 24
f 12 24 25
f 12 25 13
f 12 15 26
f 12 26 23
f 13 25 16
f 14 27 28
f 14 28 29
f 14 29 30
f 14 30 15
f 15 31 32
f 15 32 33
f 15 33 26
f 15 30 34
f 15 34 31
f 16 25 24
f 16 24 17
f 17 35 18
f 17 24 36
f 17 36 37
f 17 37 38
f 19 39 40
f 19 40 41
f 19 41 42
f 19 42 20
f 21 43 44
f 21 44 22
f 22 44 45
f 22 45 46
f 22 46 47
f 23 36 24
f 23 26 37
f 23 37 36
f 26 33 37
f 27 48 49
f 27 49 50
f 27 50 28
f 27 38 48
f 28 51 52
f 28 52 29
f 28 50 53
f 28 53 48
f 28 48 51
f 29 52 54
f 29 54 34
f 29 34 30
f 31 38 37
f 31 37 32
f 31 34 55
f 31 55 38
f 32 37 33
f 34 54 51
f 34 51 55
f 38 55 51
f 38 51 48
f 39 57 61
f 39 61 58
f 39 58 40
f 40 58 41
f 43 59 44
f 44 60 62
f 44 62 45
f 44 59 61
f 44 61 57
f 44 57 60
f 45 62 63
f 45 63 46
f 46 63 64
f 46 64 65
f 46 65 47
f 47 65 66
f 47 66 67
f 47 67 68
f 48 53 49
f 49 53 50
f 51 54 52
f 56 69 70
f 57 71 60
f 60 71 62
f 62 69 63
f 62 71 72
f 62 72 69
f 63 69 73
f 63 73 74
f 63 74 64
f 64 74 75
f 64 75 76
f 64 76 65
f 65 76 66
f 66 76 77
f 66 77 67
f 67 77 78
f 67 78 79
f 67 79 68
f 68 79 78
f 68 78 77
f 68 77 73
f 69 72 80
f 69 80 70
f 70 80 71
f 71 80 72
f 73 77 75
f 73 75 74
f 75 77 76

