# https://github.com/mikedh/trimesh
v -0.00113499 0.00769377 0.00335343
v -0.00035812 0.00766753 0.00637726
v -0.00089875 0.00768710 0.00335343
v -0.00119632 0.00769288 0.00335343
v -0.00150071 0.00768220 0.00587052
v -0.00128378 0.00768710 0.00513765
v -0.00017867 0.00764618 0.00637726
v -0.00015822 0.00764395 0.00587112
v -0.00035812 0.00766753 0.00513825
v -0.00138600 0.00768220 0.00637667
v -0.00096462 0.00766753 0.00637726
v -0.00036266 0.00766708 0.00426005
v -0.00036153 0.00766619 0.00335343
v -0.00137464 0.00768843 0.00335343
v -0.00142120 0.00768710 0.00426005
v -0.00143711 0.00768621 0.00459925
v -0.00152570 0.00768042 0.00637667
v -0.00153819 0.00768087 0.00513765
v -0.00164609 0.00767464 0.00637667
v -0.00000830 0.00761816 0.00637726
v 0.00003259 0.00761237 0.00587112
v -0.00012756 0.00763995 0.00513825
v -0.00010143 0.00763550 0.00335343
v -0.00174036 0.00766708 0.00637667
v -0.00262853 0.00750874 0.00637667
v -0.00310215 0.00741267 0.00637667
v -0.00320551 0.00738109 0.00637667
v -0.00340994 0.00730548 0.00637667
v -0.00420158 0.00699859 0.00637667
v -0.00674003 0.00507318 0.00637726
v -0.00140644 0.00768710 0.00335343
v -0.00157453 0.00767953 0.00335343
v -0.00161656 0.00767687 0.00513765
v -0.00163473 0.00767553 0.00587052
v -0.00174036 0.00766708 0.00513765
v 0.00013367 0.00759147 0.00637726
v 0.00064023 0.00749851 0.00587112
v 0.00025406 0.00757368 0.00513825
v 0.00009165 0.00760348 0.00513825
v 0.00023021 0.00758257 0.00335343
v -0.00009462 0.00763506 0.00426005
v -0.00005828 0.00762928 0.00335343
v -0.00229461 0.00757501 0.00335343
v -0.00257288 0.00752031 0.00587052
v -0.00310215 0.00741267 0.00513765
v -0.00321913 0.00737709 0.00587052
v -0.00344288 0.00729614 0.00513765
v -0.00349854 0.00727524 0.00513765
v -0.00414706 0.00702350 0.00513765
v -0.00439125 0.00691275 0.00637667
v -0.00468655 0.00674819 0.00637667
v -0.00528851 0.00637591 0.00637667
v -0.00556792 0.00618466 0.00637667
v -0.00592228 0.00589023 0.00637667
v -0.00626415 0.00557933 0.00637667
v -0.00659011 0.00525376 0.00637667
v -0.00674117 0.00507452 0.00637667
v -0.00701830 0.00473872 0.00637726
v -0.00173695 0.00766619 0.00335343
v -0.00173809 0.00766708 0.00426005
v 0.00067771 0.00748917 0.00637726
v 0.00058571 0.00751141 0.00513825
v 0.00084694 0.00745359 0.00637726
v 0.00082876 0.00745848 0.00587112
v 0.00080378 0.00746516 0.00513825
v 0.00044714 0.00754210 0.00335343
v -0.00309874 0.00741178 0.00335343
v -0.00326570 0.00736108 0.00371927
v -0.00342471 0.00730281 0.00335343
v -0.00362233 0.00722943 0.00335343
v -0.00383245 0.00714937 0.00335343
v -0.00408459 0.00705019 0.00371927
v -0.00438898 0.00691186 0.00335343
v -0.00439125 0.00691275 0.00513765
v -0.00459796 0.00679845 0.00459866
v -0.00477174 0.00670104 0.00513765
v -0.00517494 0.00645419 0.00459925
v -0.00556792 0.00618422 0.00459925
v -0.00578485 0.00600498 0.00513765
v -0.00535780 0.00632877 0.00459925
v -0.00606879 0.00576836 0.00459925
v -0.00613012 0.00571321 0.00459925
v -0.00628118 0.00556288 0.00459925
v -0.00659011 0.00525376 0.00526434
v -0.00674117 0.00507452 0.00587052
v -0.00703420 0.00472004 0.00621298
v -0.00704783 0.00469869 0.00637726
v 0.00061070 0.00750785 0.00335343
v 0.00100140 0.00741312 0.00637726
v 0.00100027 0.00741312 0.00513825
v 0.00073450 0.00748117 0.00335343
v -0.00327592 0.00735708 0.00335343
v -0.00406642 0.00705730 0.00335343
v -0.00410617 0.00703996 0.00335343
v -0.00454458 0.00682558 0.00335343
v -0.00489213 0.00663255 0.00335343
v -0.00467974 0.00675263 0.00459925
v -0.00501593 0.00655649 0.00335343
v -0.00509316 0.00650801 0.00335343
v -0.00556678 0.00618333 0.00335343
v -0.00569853 0.00607392 0.00335343
v -0.00610059 0.00574078 0.00421417
v -0.00628118 0.00450521 0.00459925
v -0.00711143 0.00419165 0.00637726
v -0.00672527 0.00509231 0.00555204
v -0.00711030 0.00460840 0.00637726
v 0.00113656 0.00737220 0.00637726
v 0.00115246 0.00736731 0.00587112
v 0.00117518 0.00736019 0.00513825
v 0.00122515 0.00734284 0.00335343
v 0.00099572 0.00741178 0.00335343
v -0.00569853 0.00315133 0.00335343
v -0.00711143 0.00418142 0.00637726
v 0.00194296 0.00706353 0.00637726
v 0.00191002 0.00708043 0.00513825
v 0.00169536 0.00716760 0.00335343
v -0.00454004 0.00315045 0.00426005
v -0.00653105 0.00315045 0.00513825
v -0.00711030 0.00315045 0.00637726
v 0.00246428 0.00315133 0.00335343
v 0.00204177 0.00702483 0.00637726
v 0.00199293 0.00704752 0.00513825
v 0.00186232 0.00710178 0.00335343
v 0.00158633 0.00315045 0.00426005
v -0.00096462 0.00315000 0.00587112
v -0.00096462 0.00315000 0.00637726
v 0.00335018 0.00450788 0.00335343
v 0.00341719 0.00315133 0.00371927
v 0.00351033 0.00315089 0.00426005
v 0.00211332 0.00699548 0.00637726
v 0.00209288 0.00700482 0.00587112
v 0.00211787 0.00699459 0.00513825
v 0.00198385 0.00705152 0.00335343
v 0.00189753 0.00315000 0.00587112
v 0.00189753 0.00315000 0.00637726
v 0.00335018 0.00626695 0.00335343
v 0.00449164 0.00315089 0.00637726
v 0.00217352 0.00696879 0.00637726
v 0.00215989 0.00697546 0.00587112
v 0.00213945 0.00698480 0.00513825
v 0.00208152 0.00700838 0.00335343
v 0.00332860 0.00628207 0.00335343
v 0.00339334 0.00623715 0.00371927
v 0.00350351 0.00615709 0.00426005
v 0.00370454 0.00599653 0.00492010
v 0.00379768 0.00591825 0.00513825
v 0.00392034 0.00581417 0.00542624
v 0.00416113 0.00559045 0.00587112
v 0.00418952 0.00556332 0.00592587
v 0.00449164 0.00525287 0.00637726
v 0.00229278 0.00691231 0.00637726
v 0.00229391 0.00691231 0.00587112
v 0.00229391 0.00691231 0.00513825
v 0.00222122 0.00694655 0.00513825
v 0.00228937 0.00691097 0.00335343
v 0.00324683 0.00633366 0.00335343
v 0.00316278 0.00638570 0.00426005
v 0.00346944 0.00618333 0.00637726
v 0.00346944 0.00618377 0.00587112
v 0.00346944 0.00618377 0.00513825
v 0.00353304 0.00613396 0.00438407
v 0.00369659 0.00600409 0.00513825
v 0.00383857 0.00588089 0.00637726
v 0.00412137 0.00562159 0.00637726
v 0.00264146 0.00670193 0.00637726
v 0.00247223 0.00680467 0.00587112
v 0.00247223 0.00680467 0.00513825
v 0.00246428 0.00680734 0.00335343
v 0.00301740 0.00647510 0.00513825
v 0.00306397 0.00644619 0.00513825
v 0.00308441 0.00643329 0.00513825
v 0.00351373 0.00614908 0.00637726
v 0.00290837 0.00653959 0.00637726
v 0.00352623 0.00613930 0.00513825
v 0.00364548 0.00604412 0.00637726
v 0.00285612 0.00657206 0.00637726
v 0.00264146 0.00670238 0.00587112
v 0.00292200 0.00653247 0.00587112
f 1 2 3
f 1 3 13
f 1 13 23
f 1 23 42
f 1 42 40
f 1 40 66
f 1 66 88
f 1 88 91
f 1 91 111
f 1 111 110
f 1 110 116
f 1 116 123
f 1 123 133
f 1 133 141
f 1 141 155
f 1 155 168
f 1 168 156
f 1 156 142
f 1 142 136
f 1 136 127
f 1 127 120
f 1 120 112
f 1 112 101
f 1 101 100
f 1 100 99
f 1 99 98
f 1 98 96
f 1 96 95
f 1 95 73
f 1 73 94
f 1 94 93
f 1 93 71
f 1 71 70
f 1 70 69
f 1 69 92
f 1 92 67
f 1 67 43
f 1 43 59
f 1 59 32
f 1 32 31
f 1 31 14
f 1 14 4
f 1 4 5
f 1 5 6
f 1 6 2
f 2 7 8
f 2 8 9
f 2 9 3
f 2 6 10
f 2 10 11
f 2 11 30
f 2 30 58
f 2 58 87
f 2 87 106
f 2 106 104
f 2 104 113
f 2 113 119
f 2 119 126
f 2 126 135
f 2 135 137
f 2 137 150
f 2 150 164
f 2 164 163
f 2 163 175
f 2 175 172
f 2 172 158
f 2 158 173
f 2 173 176
f 2 176 165
f 2 165 151
f 2 151 138
f 2 138 130
f 2 130 121
f 2 121 114
f 2 114 107
f 2 107 89
f 2 89 63
f 2 63 61
f 2 61 36
f 2 36 20
f 2 20 7
f 3 9 12
f 3 12 13
f 4 14 15
f 4 15 16
f 4 16 5
f 5 17 6
f 5 16 18
f 5 18 19
f 5 19 17
f 6 17 10
f 7 20 8
f 8 20 21
f 8 21 22
f 8 22 9
f 9 13 12
f 9 22 23
f 9 23 13
f 10 17 11
f 11 17 19
f 11 19 24
f 11 24 25
f 11 25 26
f 11 26 27
f 11 27 28
f 11 28 29
f 11 29 30
f 14 31 15
f 15 31 32
f 15 32 16
f 16 32 33
f 16 33 18
f 18 33 34
f 18 34 19
f 19 35 24
f 19 34 35
f 20 36 37
f 20 37 38
f 20 38 21
f 21 39 22
f 21 38 39
f 22 39 40
f 22 40 41
f 22 41 23
f 23 41 42
f 24 35 43
f 24 43 44
f 24 44 25
f 25 44 26
f 26 45 46
f 26 46 27
f 26 44 45
f 27 46 47
f 27 47 28
f 28 47 48
f 28 48 29
f 29 48 49
f 29 49 50
f 29 50 30
f 30 50 51
f 30 51 52
f 30 52 53
f 30 53 54
f 30 54 55
f 30 55 56
f 30 56 57
f 30 57 58
f 32 59 60
f 32 60 33
f 33 60 35
f 33 35 34
f 35 60 43
f 36 61 37
f 37 62 38
f 37 61 63
f 37 63 64
f 37 64 65
f 37 65 62
f 38 62 66
f 38 66 40
f 38 40 39
f 40 42 41
f 43 60 59
f 43 67 45
f 43 45 44
f 45 67 68
f 45 68 46
f 46 68 47
f 47 68 69
f 47 69 70
f 47 70 48
f 48 70 71
f 48 71 49
f 49 71 72
f 49 72 73
f 49 73 74
f 49 74 50
f 50 74 75
f 50 75 51
f 51 76 77
f 51 77 52
f 51 75 76
f 52 77 53
f 53 78 79
f 53 79 54
f 53 77 80
f 53 80 78
f 54 79 81
f 54 81 82
f 54 82 55
f 55 82 83
f 55 83 56
f 56 84 85
f 56 85 57
f 56 83 84
f 57 85 86
f 57 86 58
f 58 86 87
f 62 88 66
f 62 65 88
f 63 89 64
f 64 89 65
f 65 89 90
f 65 90 91
f 65 91 88
f 67 92 68
f 68 92 69
f 71 93 72
f 72 94 73
f 72 93 94
f 73 95 75
f 73 75 74
f 75 95 96
f 75 96 97
f 75 97 76
f 76 97 96
f 76 96 98
f 76 98 77
f 77 99 100
f 77 100 80
f 77 98 99
f 78 100 79
f 78 80 100
f 79 100 81
f 81 100 101
f 81 101 102
f 81 102 82
f 82 102 83
f 83 102 101
f 83 101 112
f 83 112 103
f 83 103 113
f 83 113 104
f 83 104 86
f 83 86 105
f 83 105 84
f 84 105 85
f 85 105 86
f 86 104 106
f 86 106 87
f 89 107 108
f 89 108 90
f 90 108 109
f 90 109 110
f 90 110 111
f 90 111 91
f 103 112 113
f 107 114 115
f 107 115 116
f 107 116 108
f 108 116 109
f 109 116 110
f 112 117 118
f 112 118 119
f 112 119 113
f 112 120 124
f 112 124 117
f 114 121 115
f 115 121 122
f 115 122 123
f 115 123 116
f 117 124 134
f 117 134 125
f 117 125 118
f 118 125 119
f 119 125 126
f 120 127 128
f 120 128 129
f 120 129 124
f 121 130 122
f 122 130 131
f 122 131 132
f 122 132 133
f 122 133 123
f 124 129 134
f 125 134 135
f 125 135 126
f 127 136 150
f 127 150 137
f 127 137 128
f 128 137 129
f 129 137 134
f 130 138 139
f 130 139 132
f 130 132 131
f 132 139 140
f 132 140 141
f 132 141 133
f 134 137 135
f 136 142 143
f 136 143 144
f 136 144 145
f 136 145 146
f 136 146 147
f 136 147 148
f 136 148 149
f 136 149 150
f 138 151 152
f 138 152 139
f 139 152 153
f 139 153 154
f 139 154 140
f 140 154 141
f 141 154 155
f 142 156 157
f 142 157 158
f 142 158 159
f 142 159 143
f 143 159 160
f 143 160 144
f 144 160 159
f 144 159 172
f 144 172 174
f 144 174 161
f 144 161 145
f 145 161 162
f 145 162 146
f 146 162 147
f 147 162 163
f 147 163 148
f 148 163 164
f 148 164 149
f 149 164 150
f 151 165 152
f 152 165 166
f 152 166 167
f 152 167 153
f 153 167 168
f 153 168 155
f 153 155 154
f 156 169 157
f 156 168 169
f 157 169 170
f 157 170 171
f 157 171 158
f 158 172 159
f 158 171 173
f 161 174 162
f 162 174 172
f 162 172 175
f 162 175 163
f 165 176 177
f 165 177 166
f 166 177 167
f 167 177 169
f 167 169 168
f 169 177 178
f 169 178 170
f 170 178 173
f 170 173 171
f 173 178 176
f 176 178 177

