# https://github.com/mikedh/trimesh
v -0.00150000 0.00016057 -0.00000015
v -0.00138577 0.00016057 -0.00057360
v -0.00138547 -0.00314820 -0.00057390
v -0.00149971 -0.00314820 -0.00000015
v -0.00138577 -0.00314820 0.00057360
v -0.00150000 0.00313245 -0.00000015
v -0.00138606 0.00313245 -0.00057213
v -0.00106040 -0.00314820 -0.00106044
v -0.00138577 0.00313245 -0.00057360
v -0.00106245 0.00313245 -0.00105750
v -0.00106069 -0.00314820 0.00106014
v -0.00138489 0.00313245 0.00057507
v -0.00138577 0.00313245 0.00057360
v -0.00057351 -0.00314820 -0.00138548
v -0.00106040 0.00313245 -0.00106014
v -0.00057498 0.00313245 -0.00138460
v -0.00057410 -0.00314820 0.00138519
v -0.00082958 0.00016057 0.00121459
v -0.00105775 0.00313245 0.00106220
v -0.00106040 0.00313245 0.00106014
v -0.00000000 0.00016057 -0.00150000
v -0.00000000 -0.00314820 -0.00149941
v -0.00057351 0.00313245 -0.00138548
v -0.00000000 -0.00314820 0.00149971
v -0.00057351 0.00016057 0.00138548
v -0.00057351 0.00313245 0.00138548
v 0.00057381 0.00016057 -0.00138548
v 0.00057410 -0.00314820 -0.00138519
v -0.00000000 0.00313245 -0.00150000
v 0.00057234 0.00313245 -0.00138578
v 0.00057381 -0.00314820 0.00138548
v -0.00000000 0.00313245 0.00149971
v -0.00057204 0.00313245 0.00138578
v 0.00106069 -0.00314820 -0.00106014
v 0.00057381 0.00313245 -0.00138548
v 0.00105775 0.00313245 -0.00106220
v 0.00106040 -0.00314820 0.00106044
v 0.00057527 0.00313245 0.00138460
v 0.00057381 0.00313245 0.00138548
v 0.00138577 -0.00314820 -0.00057360
v 0.00106040 0.00313245 -0.00106014
v 0.00138489 0.00313245 -0.00057507
v 0.00138547 -0.00314820 0.00057390
v 0.00138577 0.00016057 0.00057360
v 0.00106245 0.00313245 0.00105750
v 0.00106040 0.00313245 0.00106014
v 0.00149971 -0.00314820 -0.00000015
v 0.00138577 0.00313245 -0.00057360
v 0.00150000 0.00016057 -0.00000015
v 0.00138606 0.00313245 0.00057213
v 0.00138577 0.00313245 0.00057360
v 0.00149971 0.00313245 -0.00000015
f 1 2 3
f 1 3 4
f 1 4 5
f 1 5 13
f 1 13 6
f 1 6 7
f 1 7 2
f 2 8 3
f 2 7 9
f 2 9 10
f 2 10 8
f 3 8 14
f 3 14 22
f 3 22 28
f 3 28 34
f 3 34 40
f 3 40 47
f 3 47 43
f 3 43 37
f 3 37 31
f 3 31 24
f 3 24 17
f 3 17 11
f 3 11 5
f 3 5 4
f 5 11 12
f 5 12 13
f 6 13 12
f 6 12 20
f 6 20 19
f 6 19 26
f 6 26 33
f 6 33 32
f 6 32 39
f 6 39 38
f 6 38 46
f 6 46 45
f 6 45 51
f 6 51 50
f 6 50 52
f 6 52 48
f 6 48 42
f 6 42 41
f 6 41 36
f 6 36 35
f 6 35 30
f 6 30 29
f 6 29 23
f 6 23 16
f 6 16 15
f 6 15 10
f 6 10 9
f 6 9 7
f 8 10 15
f 8 15 16
f 8 16 14
f 11 17 18
f 11 18 19
f 11 19 20
f 11 20 12
f 14 21 22
f 14 16 23
f 14 23 29
f 14 29 21
f 17 24 25
f 17 25 26
f 17 26 18
f 18 26 19
f 21 27 28
f 21 28 22
f 21 29 30
f 21 30 27
f 24 31 39
f 24 39 32
f 24 32 33
f 24 33 25
f 25 33 26
f 27 34 28
f 27 30 35
f 27 35 36
f 27 36 34
f 31 37 38
f 31 38 39
f 34 36 41
f 34 41 42
f 34 42 40
f 37 43 44
f 37 44 45
f 37 45 46
f 37 46 38
f 40 42 48
f 40 48 49
f 40 49 47
f 43 47 49
f 43 49 44
f 44 49 50
f 44 50 51
f 44 51 45
f 48 52 49
f 49 52 50

