# https://github.com/mikedh/trimesh
v -0.00111231 0.00275306 0.02568778
v -0.00111231 0.00749811 0.02565858
v -0.00490383 0.00643379 0.02799462
v -0.00490383 0.00275306 0.02799462
v -0.00111231 0.00275306 0.00570115
v -0.00139252 0.00749160 0.02574842
v -0.00224733 0.00740380 0.02618868
v -0.00361517 0.00704748 0.02711860
v -0.00111231 0.00749857 0.00539342
v -0.00516846 0.00626748 0.02814511
v -0.00427168 0.00676456 0.00539342
v -0.00450180 0.00665493 0.00539342
v -0.00513800 0.00628653 0.00539342
v -0.00542497 0.00275306 0.02824619
v -0.00679552 0.00275306 0.00570115
v -0.00111231 0.00335003 0.00539342
v -0.00161248 0.00747813 0.02583827
v -0.00192517 0.00744840 0.02599326
v -0.00152788 0.00748417 0.00539342
v -0.00210994 0.00742424 0.02610107
v -0.00211535 0.00742285 0.00539342
v -0.00237457 0.00737639 0.00539342
v -0.00266966 0.00730810 0.00539342
v -0.00307440 0.00719846 0.00539342
v -0.00361247 0.00704841 0.00539342
v -0.00524900 0.00621359 0.02818105
v -0.00517049 0.00626609 0.00539342
v -0.00562463 0.00594275 0.02829785
v -0.00602395 0.00561291 0.02834053
v -0.00621481 0.00275306 0.02833155
v -0.00779585 0.00275306 0.00784626
v -0.00665204 0.00335003 0.00539342
v -0.00203820 0.00743400 0.00539342
v -0.00585407 0.00575878 0.00539342
v -0.00621820 0.00543405 0.02832930
v -0.00588114 0.00573602 0.00539342
v -0.00643613 0.00521757 0.02829785
v -0.00650517 0.00514510 0.02828213
v -0.00697623 0.00275306 0.02810019
v -0.00801582 0.00275306 0.00831796
v -0.00665204 0.00497135 0.00539342
v -0.00589400 0.00572394 0.00539342
v -0.00650517 0.00514649 0.00539342
v -0.00685373 0.00474975 0.02816083
v -0.00697623 0.00459645 0.02810019
v -0.00722394 0.00425778 0.02794071
v -0.00758604 0.00275306 0.02759255
v -0.00802664 0.00275306 0.02636613
v -0.00789602 0.00306200 0.00806190
v -0.00706557 0.00447891 0.00628066
v -0.00752377 0.00378579 0.02766667
v -0.00754475 0.00375002 0.00730942
v -0.00754543 0.00374816 0.02764196
v -0.00774915 0.00337140 0.02735670
v -0.00790076 0.00305271 0.02703998
v -0.00795016 0.00275306 0.02688949
v -0.00796370 0.00275306 0.02681536
v -0.00802191 0.00276468 0.02648742
v -0.00798942 0.00284505 0.02672776
v -0.00780533 0.00325851 0.02699057
v -0.00795152 0.00275306 0.02688275
f 1 2 3
f 1 3 4
f 1 4 14
f 1 14 30
f 1 30 39
f 1 39 47
f 1 47 56
f 1 56 61
f 1 61 57
f 1 57 48
f 1 48 40
f 1 40 31
f 1 31 15
f 1 15 5
f 1 5 16
f 1 16 9
f 1 9 2
f 2 6 7
f 2 7 8
f 2 8 3
f 2 9 6
f 3 10 4
f 3 8 11
f 3 11 12
f 3 12 13
f 3 13 10
f 4 10 14
f 5 15 32
f 5 32 16
f 6 17 18
f 6 18 7
f 6 9 19
f 6 19 17
f 7 18 20
f 7 20 21
f 7 21 22
f 7 22 23
f 7 23 8
f 8 23 24
f 8 24 25
f 8 25 11
f 9 16 32
f 9 32 41
f 9 41 43
f 9 43 42
f 9 42 36
f 9 36 34
f 9 34 27
f 9 27 13
f 9 13 12
f 9 12 11
f 9 11 25
f 9 25 24
f 9 24 23
f 9 23 22
f 9 22 21
f 9 21 33
f 9 33 19
f 10 26 14
f 10 13 27
f 10 27 26
f 14 26 28
f 14 28 29
f 14 29 30
f 15 31 32
f 17 19 18
f 18 19 33
f 18 33 20
f 20 33 21
f 26 27 28
f 27 34 28
f 28 34 29
f 29 35 30
f 29 34 36
f 29 36 35
f 30 35 37
f 30 37 38
f 30 38 39
f 31 40 41
f 31 41 32
f 35 36 42
f 35 42 43
f 35 43 37
f 37 43 38
f 38 44 39
f 38 43 44
f 39 44 45
f 39 45 46
f 39 46 47
f 40 48 49
f 40 49 50
f 40 50 41
f 41 50 44
f 41 44 43
f 44 50 45
f 45 50 46
f 46 51 47
f 46 50 52
f 46 52 51
f 47 53 54
f 47 54 55
f 47 55 56
f 47 51 53
f 48 57 58
f 48 58 59
f 48 59 49
f 49 52 50
f 49 59 55
f 49 55 60
f 49 60 54
f 49 54 52
f 51 52 53
f 52 54 53
f 54 60 55
f 55 59 56
f 56 59 61
f 57 59 58
f 57 61 59

