# https://github.com/mikedh/trimesh
v 0.00575440 -0.00314333 0.00784384
v 0.00575173 -0.00314333 0.02384623
v 0.00553720 -0.00358555 0.02392247
v 0.00553720 -0.00358555 0.02384623
v 0.00545724 -0.00372671 0.00745282
v 0.00334785 -0.00607429 0.00321060
v 0.00337983 -0.00315058 0.00321060
v 0.00545724 -0.00314333 0.00745036
v 0.00496687 -0.00447938 0.02444383
v 0.00520007 -0.00414633 0.02424709
v 0.00470570 -0.00314333 0.02463565
v 0.00520140 -0.00414292 0.00718722
v 0.00499352 -0.00443972 0.00698064
v 0.00496288 -0.00448066 0.00694621
v 0.00464840 -0.00487555 0.00658470
v 0.00432326 -0.00523121 0.00613712
v 0.00401545 -0.00552972 0.00561329
v 0.00375161 -0.00576000 0.00504275
v 0.00354240 -0.00592802 0.00441563
v 0.00340248 -0.00603463 0.00375901
v 0.00330921 -0.00610158 0.02533900
v 0.00314530 -0.00621587 0.02539311
v 0.00232047 -0.00669903 0.00321060
v 0.00406075 -0.00314333 0.00570183
v -0.00120541 -0.00315015 0.00321060
v 0.00472968 -0.00478301 0.02461844
v 0.00464707 -0.00314333 0.02467746
v 0.00462974 -0.00490029 0.02468730
v 0.00421000 -0.00534677 0.02494552
v 0.00377026 -0.00574465 0.02516194
v 0.00371829 -0.00578772 0.02518407
v 0.00335984 -0.00314333 0.02532179
v 0.00330654 -0.00314333 0.02534146
v -0.00544419 -0.00607642 0.02825322
v -0.00506442 -0.00633400 0.02809337
v 0.00253634 -0.00658475 0.02553820
v 0.00210860 -0.00680138 0.00321060
v 0.00231514 -0.00670031 0.02557509
v -0.00120408 -0.00314333 0.00570183
v -0.00563341 -0.00315015 0.00321060
v 0.00462841 -0.00314333 0.02468976
v 0.00456445 -0.00314333 0.02472911
v 0.00344379 -0.00314333 0.02528244
v -0.00542420 -0.00314333 0.02824584
v -0.00586926 -0.00574507 0.02833438
v -0.00585860 -0.00575488 0.02833192
v -0.00586926 -0.00574507 0.00371967
v -0.00563341 -0.00592034 0.00321060
v -0.00514037 -0.00628282 0.00321060
v -0.00490318 -0.00643378 0.02799500
v 0.00191538 -0.00688710 0.02561444
v 0.00169684 -0.00697622 0.00321060
v -0.00679537 -0.00314333 0.00570429
v -0.00784940 -0.00314333 0.00796434
v -0.00547883 -0.00314333 0.02825568
v -0.00621839 -0.00314333 0.02832946
v -0.00628635 -0.00536767 0.02832208
v -0.00650355 -0.00514720 0.00507963
v -0.00706454 -0.00447896 0.00628221
v -0.00754426 -0.00375059 0.00731018
v -0.00441547 -0.00670159 0.00321060
v -0.00441547 -0.00670159 0.02766300
v 0.00128642 -0.00712548 0.02561936
v 0.00163688 -0.00699925 0.00321060
v -0.00785873 -0.00314333 0.02204360
v -0.00629034 -0.00314333 0.02831224
v -0.00667811 -0.00495615 0.02823109
v -0.00696460 -0.00461116 0.02810567
v -0.00707654 -0.00446233 0.02804173
v -0.00740700 -0.00397916 0.02778350
v -0.00757224 -0.00370069 0.02760644
v -0.00766019 -0.00354248 0.02749331
v -0.00782942 -0.00320730 0.02720558
v -0.00316156 -0.00718561 0.00321060
v -0.00361462 -0.00704744 0.02711950
v 0.00065614 -0.00730245 0.02555050
v 0.00072676 -0.00728540 0.00321060
v 0.00122246 -0.00714595 0.00321060
v -0.00277646 -0.00729819 0.02654896
v -0.00785740 -0.00314333 0.02713180
v -0.00696327 -0.00314333 0.02810567
v -0.00698859 -0.00314333 0.02809091
v -0.00710452 -0.00314333 0.02800484
v -0.00757357 -0.00314333 0.02760644
v -0.00761621 -0.00314333 0.02754988
v -0.00779344 -0.00314333 0.02726214
v -0.00282843 -0.00728582 0.00321060
v -0.00224611 -0.00740352 0.02618991
v 0.00048957 -0.00733955 0.02552591
v 0.00056419 -0.00732292 0.00321060
v 0.00068012 -0.00729648 0.00321060
v -0.00278446 -0.00729648 0.00321060
v -0.00251395 -0.00735491 0.00321060
v -0.00173442 -0.00746791 0.02589479
v -0.00120541 -0.00749691 0.02568576
v -0.00105217 -0.00749905 0.02563903
v -0.00063775 -0.00748710 0.02554804
v -0.00008475 -0.00743593 0.02549885
v -0.00250196 -0.00735704 0.00321060
v -0.00218482 -0.00741333 0.00321060
v 0.00019641 -0.00739457 0.00324749
v 0.00048024 -0.00733955 0.00321060
v -0.00120408 -0.00749734 0.02568330
v -0.00177440 -0.00746408 0.00321060
v -0.00162649 -0.00747687 0.00321060
v -0.00134266 -0.00749393 0.00321060
v -0.00105217 -0.00749947 0.00321060
v -0.00105083 -0.00749947 0.00321060
v -0.00085628 -0.00749691 0.00321060
v -0.00056446 -0.00748327 0.00321060
v -0.00049384 -0.00747772 0.00321060
v -0.00033260 -0.00746450 0.00323519
f 1 2 3
f 1 3 4
f 1 4 5
f 1 5 6
f 1 6 7
f 1 7 8
f 1 8 24
f 1 24 39
f 1 39 53
f 1 53 54
f 1 54 65
f 1 65 80
f 1 80 86
f 1 86 85
f 1 85 84
f 1 84 83
f 1 83 82
f 1 82 81
f 1 81 66
f 1 66 56
f 1 56 55
f 1 55 44
f 1 44 33
f 1 33 32
f 1 32 43
f 1 43 42
f 1 42 41
f 1 41 27
f 1 27 11
f 1 11 2
f 2 9 10
f 2 10 3
f 2 11 9
f 3 10 5
f 3 5 4
f 5 10 12
f 5 12 6
f 6 12 13
f 6 13 14
f 6 14 15
f 6 15 16
f 6 16 17
f 6 17 18
f 6 18 19
f 6 19 20
f 6 20 21
f 6 21 22
f 6 22 23
f 6 23 37
f 6 37 52
f 6 52 64
f 6 64 78
f 6 78 77
f 6 77 91
f 6 91 90
f 6 90 102
f 6 102 111
f 6 111 110
f 6 110 109
f 6 109 108
f 6 108 107
f 6 107 106
f 6 106 105
f 6 105 104
f 6 104 100
f 6 100 99
f 6 99 93
f 6 93 92
f 6 92 87
f 6 87 74
f 6 74 61
f 6 61 49
f 6 49 48
f 6 48 40
f 6 40 25
f 6 25 7
f 7 24 8
f 7 25 24
f 9 14 13
f 9 13 12
f 9 12 10
f 9 11 26
f 9 26 14
f 11 27 26
f 14 26 15
f 15 26 28
f 15 28 16
f 16 28 29
f 16 29 17
f 17 29 30
f 17 30 18
f 18 30 31
f 18 31 19
f 19 31 21
f 19 21 20
f 21 31 32
f 21 32 33
f 21 33 34
f 21 34 22
f 22 34 35
f 22 35 36
f 22 36 23
f 23 36 38
f 23 38 37
f 24 25 40
f 24 40 39
f 26 27 28
f 27 41 28
f 28 41 29
f 29 41 42
f 29 42 43
f 29 43 30
f 30 43 32
f 30 32 31
f 33 44 34
f 34 44 45
f 34 45 46
f 34 46 47
f 34 47 48
f 34 48 49
f 34 49 35
f 35 49 50
f 35 50 51
f 35 51 38
f 35 38 36
f 37 38 51
f 37 51 52
f 39 40 53
f 40 48 54
f 40 54 53
f 44 55 45
f 45 55 56
f 45 56 57
f 45 57 46
f 46 57 47
f 47 58 48
f 47 57 58
f 48 58 59
f 48 59 60
f 48 60 54
f 49 61 50
f 50 62 51
f 50 61 62
f 51 62 63
f 51 63 64
f 51 64 52
f 54 60 65
f 56 66 67
f 56 67 57
f 57 67 58
f 58 67 59
f 59 67 68
f 59 68 69
f 59 69 70
f 59 70 60
f 60 70 71
f 60 71 72
f 60 72 73
f 60 73 65
f 61 74 75
f 61 75 62
f 62 75 63
f 63 76 77
f 63 77 78
f 63 78 64
f 63 75 79
f 63 79 76
f 65 73 80
f 66 81 67
f 67 81 68
f 68 81 69
f 69 81 82
f 69 82 83
f 69 83 70
f 70 83 84
f 70 84 71
f 71 84 72
f 72 84 85
f 72 85 86
f 72 86 73
f 73 86 80
f 74 87 75
f 75 87 79
f 76 79 88
f 76 88 89
f 76 89 90
f 76 90 91
f 76 91 77
f 79 87 92
f 79 92 93
f 79 93 88
f 88 94 95
f 88 95 96
f 88 96 97
f 88 97 98
f 88 98 89
f 88 93 99
f 88 99 100
f 88 100 94
f 89 98 101
f 89 101 102
f 89 102 90
f 94 103 95
f 94 100 104
f 94 104 105
f 94 105 106
f 94 106 103
f 95 103 96
f 96 103 107
f 96 107 108
f 96 108 109
f 96 109 97
f 97 109 110
f 97 110 111
f 97 111 112
f 97 112 98
f 98 112 101
f 101 112 111
f 101 111 102
f 103 106 107

