# https://github.com/mikedh/trimesh
v 0.00636635 0.00108386 0.00929617
v 0.00635909 0.00108386 0.00924241
v 0.00635909 0.00115655 0.00924524
v 0.00632280 0.00108386 0.02384779
v 0.00631699 0.00108386 0.00907265
v 0.00631699 0.00140352 0.00906699
v 0.00613407 0.00215083 0.02384779
v 0.00554904 0.00274999 0.02945567
v 0.00554904 0.00245858 0.02976973
v 0.00554904 0.00213139 0.03004984
v 0.00554904 0.00177203 0.03028751
v 0.00554904 0.00138605 0.03048274
v 0.00554904 0.00108402 0.03059026
v 0.00554904 0.00108386 0.02909916
v 0.00631118 0.00108386 0.00905001
v 0.00620085 0.00108386 0.00870765
v 0.00617617 0.00200415 0.00863692
v 0.00613407 0.00214969 0.00853506
v 0.00592503 0.00275260 0.00811065
v 0.00588438 0.00275260 0.02384779
v 0.00554468 0.00274999 0.02949245
v 0.00554033 0.00248422 0.02979802
v 0.00554033 0.00215345 0.03007813
v 0.00554033 0.00179049 0.03032146
v 0.00554033 0.00139993 0.03051669
v 0.00554033 0.00108402 0.03062704
v 0.00553597 0.00108402 0.03063836
v 0.00551275 0.00108402 0.03068080
v 0.00476657 0.00108402 0.03179841
v 0.00394055 0.00108402 0.03268967
v 0.00297808 0.00108402 0.03343381
v 0.00190817 0.00108402 0.03401100
v 0.00138846 0.00108402 0.03418926
v 0.00075697 0.00108402 0.03440429
v 0.00021694 0.00108402 0.03449483
v -0.00044358 0.00108402 0.03460235
v -0.00818260 0.00108386 0.02909916
v 0.00615585 0.00108386 0.00858882
v 0.00607310 0.00108386 0.00841340
v 0.00589890 0.00108386 0.00806538
v 0.00592358 0.00275260 0.00810782
v 0.00462721 0.00275260 0.02469095
v 0.00274726 0.00274999 0.03308013
v 0.00379248 0.00274999 0.03225112
v 0.00443704 0.00274999 0.03153811
v 0.00482319 0.00274999 0.03099203
v 0.00506853 0.00274999 0.03058177
v 0.00553452 0.00274999 0.02953489
v 0.00553597 0.00274999 0.02952923
v 0.00553597 0.00249190 0.02980368
v 0.00553597 0.00216031 0.03008662
v 0.00553597 0.00179588 0.03032995
v 0.00553597 0.00140467 0.03052518
v 0.00535596 0.00169542 0.03074021
v 0.00469399 0.00169542 0.03174182
v 0.00387668 0.00169542 0.03261894
v 0.00292727 0.00169542 0.03335458
v 0.00073375 0.00169542 0.03431375
v 0.00187043 0.00169542 0.03392329
v -0.00044939 0.00169542 0.03450898
v -0.00165721 0.00108402 0.03460235
v -0.00818260 0.00108402 0.02909916
v -0.00833939 0.00108386 0.02849650
v -0.00219869 0.00108402 0.03451464
v -0.00285776 0.00108402 0.03440429
v -0.00400751 0.00108402 0.03401100
v -0.00507886 0.00108402 0.03343381
v -0.00603844 0.00108402 0.03268967
v -0.00686881 0.00108402 0.03179841
v -0.00753805 0.00108402 0.03078548
v -0.00803162 0.00108402 0.02967353
v 0.00567824 0.00108386 0.00773151
v 0.00562743 0.00275260 0.00766078
v 0.00330616 0.00275260 0.02534171
v 0.00173977 0.00274999 0.03362338
v 0.00249756 0.00274999 0.03323575
v 0.00100957 0.00274999 0.03389500
v 0.00065390 0.00274999 0.03399403
v -0.00164995 0.00169542 0.03450898
v -0.00059166 0.00274999 0.03418926
v -0.00794452 0.00169542 0.02964241
v -0.00824648 0.00169493 0.02848235
v -0.00839165 0.00108386 0.02814565
v -0.00283453 0.00169542 0.03431375
v -0.00397122 0.00169542 0.03392612
v -0.00502806 0.00169542 0.03335741
v -0.00597747 0.00169542 0.03262177
v -0.00679478 0.00169542 0.03174182
v -0.00745530 0.00169542 0.03074021
v 0.00545032 0.00108386 0.00744291
v 0.00406105 0.00108386 0.00570283
v 0.00406105 0.00275260 0.00570283
v -0.00542292 0.00275260 0.02824751
v -0.00075715 0.00274999 0.03418926
v -0.00162236 0.00274999 0.03418360
v -0.00221466 0.00274999 0.03410720
v -0.00621264 0.00275260 0.02832956
v -0.00763386 0.00274999 0.02953489
v -0.00783564 0.00274999 0.02884734
v -0.00727674 0.00274999 0.03037522
v -0.00792420 0.00274999 0.02842576
v -0.00830164 0.00189716 0.02744396
v -0.00841052 0.00108386 0.02797872
v -0.00275469 0.00274999 0.03399686
v -0.00377814 0.00274999 0.03365167
v -0.00484804 0.00274999 0.03308013
v -0.00518919 0.00274999 0.03284246
v -0.00575536 0.00274999 0.03237844
v -0.00637814 0.00274999 0.03173051
v -0.00653637 0.00274999 0.03153811
v -0.00716641 0.00274999 0.03058177
v -0.00679332 0.00108386 0.00570283
v -0.00679332 0.00275260 0.00570283
v -0.00697479 0.00275260 0.02810038
v -0.00794888 0.00275260 0.02688940
v -0.00795033 0.00275260 0.02688374
v -0.00758450 0.00275260 0.02759109
v -0.00796194 0.00275260 0.02681583
v -0.00802437 0.00275260 0.02636596
v -0.00802437 0.00274999 0.02722893
v -0.00823341 0.00215083 0.02722893
v -0.00845117 0.00108386 0.02746377
v -0.00844826 0.00108386 0.02750904
v -0.00823486 0.00215083 0.02465983
v -0.00823486 0.00214936 0.00879537
v -0.00839310 0.00151901 0.00924524
v -0.00743643 0.00275260 0.00707792
v -0.00811873 0.00108386 0.00854072
v -0.00802437 0.00275260 0.02634332
v -0.00804179 0.00270964 0.02465983
v -0.00846133 0.00108386 0.00955931
v -0.00817389 0.00234113 0.00865955
v -0.00818696 0.00230160 0.00868785
v -0.00817389 0.00108386 0.00865955
v -0.00821889 0.00108386 0.00876424
v -0.00827551 0.00108386 0.00890854
v -0.00839019 0.00108386 0.00923675
v -0.00840036 0.00108386 0.00927071
v -0.00801566 0.00275260 0.00832003
f 1 2 3
f 1 3 4
f 1 4 14
f 1 14 37
f 1 37 63
f 1 63 83
f 1 83 103
f 1 103 123
f 1 123 122
f 1 122 131
f 1 131 138
f 1 138 137
f 1 137 136
f 1 136 135
f 1 135 134
f 1 134 128
f 1 128 112
f 1 112 91
f 1 91 90
f 1 90 72
f 1 72 40
f 1 40 39
f 1 39 38
f 1 38 16
f 1 16 15
f 1 15 5
f 1 5 2
f 2 5 6
f 2 6 3
f 3 6 4
f 4 6 7
f 4 7 8
f 4 8 9
f 4 9 10
f 4 10 11
f 4 11 12
f 4 12 13
f 4 13 14
f 5 15 6
f 6 15 16
f 6 16 17
f 6 17 7
f 7 17 18
f 7 18 19
f 7 19 20
f 7 20 8
f 8 21 9
f 8 20 21
f 9 21 22
f 9 22 10
f 10 22 23
f 10 23 24
f 10 24 11
f 11 24 12
f 12 24 25
f 12 25 13
f 13 25 26
f 13 26 14
f 14 26 27
f 14 27 28
f 14 28 29
f 14 29 30
f 14 30 31
f 14 31 32
f 14 32 33
f 14 33 34
f 14 34 35
f 14 35 36
f 14 36 61
f 14 61 37
f 16 38 17
f 17 38 18
f 18 38 39
f 18 39 19
f 19 39 40
f 19 40 41
f 19 41 73
f 19 73 92
f 19 92 113
f 19 113 127
f 19 127 139
f 19 139 129
f 19 129 119
f 19 119 118
f 19 118 116
f 19 116 115
f 19 115 117
f 19 117 114
f 19 114 97
f 19 97 93
f 19 93 74
f 19 74 42
f 19 42 20
f 20 42 43
f 20 43 44
f 20 44 45
f 20 45 46
f 20 46 47
f 20 47 48
f 20 48 49
f 20 49 21
f 21 49 22
f 22 50 51
f 22 51 23
f 22 49 48
f 22 48 50
f 23 51 24
f 24 51 52
f 24 52 25
f 25 53 27
f 25 27 26
f 25 52 53
f 27 53 28
f 28 53 54
f 28 54 55
f 28 55 29
f 29 55 30
f 30 56 57
f 30 57 31
f 30 55 56
f 31 57 32
f 32 58 33
f 32 57 59
f 32 59 58
f 33 58 34
f 34 58 35
f 35 58 60
f 35 60 36
f 36 60 79
f 36 79 61
f 37 62 63
f 37 61 64
f 37 64 65
f 37 65 66
f 37 66 67
f 37 67 68
f 37 68 69
f 37 69 70
f 37 70 71
f 37 71 62
f 40 72 41
f 41 72 73
f 42 74 75
f 42 75 76
f 42 76 43
f 43 76 57
f 43 57 56
f 43 56 44
f 44 55 45
f 44 56 55
f 45 55 46
f 46 55 54
f 46 54 47
f 47 54 51
f 47 51 50
f 47 50 48
f 51 54 52
f 52 54 53
f 57 76 59
f 58 59 77
f 58 77 78
f 58 78 60
f 59 76 75
f 59 75 77
f 60 78 80
f 60 80 94
f 60 94 79
f 61 79 64
f 62 71 81
f 62 81 82
f 62 82 63
f 63 82 83
f 64 79 84
f 64 84 65
f 65 84 85
f 65 85 66
f 66 85 86
f 66 86 67
f 67 86 87
f 67 87 68
f 68 87 69
f 69 87 88
f 69 88 70
f 70 88 89
f 70 89 81
f 70 81 71
f 72 90 73
f 73 90 91
f 73 91 92
f 74 93 77
f 74 77 75
f 77 93 78
f 78 93 80
f 79 94 95
f 79 95 96
f 79 96 84
f 80 93 97
f 80 97 94
f 81 98 99
f 81 99 82
f 81 89 100
f 81 100 98
f 82 99 101
f 82 101 102
f 82 102 103
f 82 103 83
f 84 96 104
f 84 104 105
f 84 105 85
f 85 105 106
f 85 106 86
f 86 106 107
f 86 107 87
f 87 107 108
f 87 108 109
f 87 109 88
f 88 109 110
f 88 110 89
f 89 111 100
f 89 110 111
f 91 112 113
f 91 113 92
f 94 97 95
f 95 97 96
f 96 97 104
f 97 114 104
f 98 100 115
f 98 115 99
f 99 115 116
f 99 116 101
f 100 111 117
f 100 117 115
f 101 116 118
f 101 118 119
f 101 119 120
f 101 120 121
f 101 121 102
f 102 122 123
f 102 123 103
f 102 121 124
f 102 124 125
f 102 125 126
f 102 126 122
f 104 114 105
f 105 114 106
f 106 114 107
f 107 114 108
f 108 114 117
f 108 117 109
f 109 117 110
f 110 117 111
f 112 127 113
f 112 128 127
f 119 129 130
f 119 130 120
f 120 130 121
f 121 130 124
f 122 126 131
f 124 130 132
f 124 132 133
f 124 133 125
f 125 133 134
f 125 134 135
f 125 135 136
f 125 136 126
f 126 136 137
f 126 137 138
f 126 138 131
f 127 128 139
f 128 134 132
f 128 132 139
f 129 139 130
f 130 139 132
f 132 134 133

