# https://github.com/mikedh/trimesh
v 0.00591867 0.00275303 0.01330271
v 0.00583677 0.00296959 0.02153952
v 0.00591731 0.00275303 0.02138914
v 0.00590775 0.00275303 0.00900316
v 0.00583541 0.00297098 0.00665174
v 0.00580674 0.00303557 0.02158509
v 0.00582585 0.00275303 0.02155547
v 0.00584906 0.00275303 0.02151674
v 0.00590093 0.00275303 0.00665174
v 0.00565112 0.00336644 0.00900316
v 0.00554875 0.00356255 0.00558767
v 0.00565112 0.00336644 0.00950215
v 0.00546684 0.00371172 0.02203852
v 0.00376054 0.00574016 0.02444007
v 0.00579855 0.00275303 0.02159649
v 0.00554875 0.00275303 0.00558767
v 0.00515698 0.00421128 0.00521400
v 0.00554875 0.00356255 0.00665174
v 0.00520202 0.00414250 0.02231422
v 0.00375781 0.00575457 0.02444007
v 0.00375781 0.00305044 0.02444007
v 0.00546411 0.00275303 0.02204080
v 0.00462871 0.00275303 0.00480842
v 0.00496724 0.00447848 0.00505678
v 0.00496314 0.00448360 0.02255574
v 0.00364178 0.00584983 0.02444007
v 0.00485394 0.00462533 0.02267194
v 0.00450722 0.00503799 0.02309803
v 0.00418234 0.00537490 0.02358791
v 0.00389022 0.00564350 0.02413703
v 0.00377146 0.00574481 0.00433677
v 0.00365679 0.00295007 0.02444007
v 0.00474473 0.00275303 0.02279726
v 0.00419599 0.00535957 0.00454639
v 0.00463007 0.00490044 0.00481070
v 0.00468331 0.00483817 0.00484715
v 0.00330734 0.00275303 0.00415905
v 0.00342746 0.00601573 0.00950215
v 0.00340972 0.00601991 0.02444007
v 0.00366498 0.00583217 0.00429348
v -0.00649506 0.00295007 0.02444007
v -0.00726085 0.00275303 0.02279726
v 0.00331007 0.00610077 0.00416132
v -0.00540438 0.00275303 0.00126078
v 0.00329369 0.00610310 0.02444007
v 0.00342746 0.00601573 0.00900316
v -0.00649506 0.00515463 0.02444007
v -0.00650461 0.00514673 0.02442184
v -0.00728269 0.00275303 0.02275397
v -0.00549584 0.00603897 0.00123344
v 0.00307528 0.00626249 0.00408613
v 0.00326775 0.00612122 0.02444007
v -0.00619611 0.00275303 0.00116736
v -0.00587805 0.00573877 0.00116736
v -0.00586986 0.00574481 0.02444007
v -0.00706565 0.00447941 0.02321879
v -0.00619611 0.00545483 0.00950215
v -0.00629030 0.00536375 0.00190560
v -0.00629985 0.00535399 0.00117875
v -0.00665067 0.00498455 0.00190560
v -0.00669026 0.00494226 0.00127445
v -0.00754478 0.00375029 0.02219118
v -0.00801845 0.00275303 0.02117496
v -0.00516414 0.00626946 0.00135648
v -0.00552860 0.00601341 0.00190560
v -0.00511090 0.00630245 0.02444007
v 0.00246647 0.00662264 0.00394942
v 0.00231768 0.00669978 0.02444007
v 0.00319677 0.00616722 0.02444007
v -0.00696327 0.00275303 0.00139293
v -0.00590809 0.00571228 0.00190560
v -0.00697146 0.00460256 0.00190560
v -0.00706565 0.00447941 0.00900316
v -0.00731545 0.00412159 0.00950215
v -0.00619611 0.00545483 0.00900316
v -0.00696463 0.00461093 0.00139521
v -0.00793654 0.00297098 0.02135041
v -0.00741510 0.00396591 0.00172104
v -0.00757890 0.00369034 0.00189876
v -0.00757890 0.00369034 0.00190560
v -0.00758436 0.00368059 0.00190560
v -0.00766354 0.00353746 0.00201269
v -0.00783144 0.00320333 0.00229978
v -0.00802664 0.00275303 0.00314511
v -0.00490341 0.00643350 0.00150686
v 0.00231632 0.00670117 0.00392436
v -0.00441473 0.00670210 0.02444007
v -0.00479967 0.00649484 0.00950215
v -0.00489795 0.00643675 0.00190560
v 0.00231495 0.00670210 0.00900316
v 0.00231495 0.00670210 0.00950215
v 0.00207061 0.00681781 0.02444007
v -0.00708339 0.00445293 0.00146357
v -0.00706428 0.00447802 0.00145217
v -0.00758027 0.00275303 0.00190104
v -0.00706565 0.00447802 0.00190560
v -0.00731545 0.00412159 0.00900316
v -0.00793654 0.00297098 0.00900316
v -0.00795020 0.00293892 0.00260966
v -0.00758436 0.00275907 0.00190560
v -0.00794883 0.00275303 0.00260966
v -0.00793791 0.00296726 0.00257092
v -0.00800889 0.00279532 0.00289675
v -0.00795293 0.00275303 0.00262561
v -0.00441609 0.00670210 0.00183724
v 0.00187404 0.00690518 0.00388335
v 0.00192045 0.00688659 0.00900316
v -0.00333770 0.00714171 0.02444007
v -0.00361344 0.00704738 0.00238181
v -0.00441609 0.00670210 0.00190560
v -0.00479967 0.00649484 0.00900316
v 0.00200645 0.00684616 0.02444007
v 0.00192045 0.00688659 0.00950215
v -0.00758573 0.00275303 0.00191015
v -0.00431371 0.00674578 0.00190560
v 0.00128434 0.00712684 0.00388107
v 0.00171570 0.00696326 0.02444007
v -0.00328856 0.00715751 0.02444007
v -0.00319983 0.00718446 0.00900316
v -0.00277667 0.00729832 0.00295143
v 0.00188223 0.00689774 0.02444007
v 0.00067826 0.00729785 0.00394486
v 0.00068236 0.00729692 0.02444007
v 0.00105228 0.00718586 0.02444007
v 0.00142358 0.00706364 0.02444007
v 0.00169522 0.00697070 0.02444007
v -0.00292546 0.00726021 0.02444007
v -0.00319983 0.00718446 0.00950215
v -0.00224703 0.00740381 0.00331144
v -0.00278350 0.00729646 0.02444007
v -0.00008480 0.00743634 0.00400183
v 0.00048716 0.00734014 0.00397449
v 0.00047760 0.00734154 0.02444007
v -0.00173514 0.00746747 0.00360537
v -0.00121369 0.00749675 0.00381271
v -0.00105262 0.00749907 0.00386056
v -0.00064447 0.00748792 0.00394942
v -0.00030457 0.00746096 0.00399044
v -0.00218424 0.00740566 0.02444007
v -0.00214465 0.00741078 0.02444007
v -0.00031003 0.00745864 0.02444007
v 0.00004215 0.00741914 0.02444007
v 0.00025100 0.00738568 0.00900316
v 0.00025100 0.00738568 0.00950215
v -0.00210780 0.00741496 0.02444007
v -0.00196856 0.00743029 0.02444007
v -0.00148534 0.00748699 0.00950215
v -0.00148534 0.00748699 0.00900316
v -0.00124099 0.00749582 0.02444007
v -0.00115909 0.00749814 0.02444007
v -0.00105125 0.00750000 0.00900316
v -0.00086424 0.00749675 0.02444007
v -0.00053390 0.00747816 0.02444007
v -0.00105398 0.00749954 0.02444007
v -0.00105125 0.00750000 0.00950215
v -0.00090110 0.00749768 0.02444007
f 1 2 3
f 1 3 8
f 1 8 7
f 1 7 15
f 1 15 22
f 1 22 33
f 1 33 42
f 1 42 49
f 1 49 63
f 1 63 84
f 1 84 104
f 1 104 101
f 1 101 114
f 1 114 95
f 1 95 70
f 1 70 53
f 1 53 44
f 1 44 37
f 1 37 23
f 1 23 16
f 1 16 9
f 1 9 4
f 1 4 5
f 1 5 2
f 2 6 7
f 2 7 8
f 2 8 3
f 2 5 6
f 4 9 5
f 5 10 6
f 5 9 11
f 5 11 10
f 6 10 12
f 6 12 13
f 6 13 14
f 6 14 15
f 6 15 7
f 9 16 11
f 10 11 18
f 10 18 12
f 11 16 17
f 11 17 13
f 11 13 18
f 12 18 13
f 13 17 19
f 13 19 20
f 13 20 14
f 14 20 26
f 14 26 39
f 14 39 45
f 14 45 52
f 14 52 69
f 14 69 68
f 14 68 92
f 14 92 112
f 14 112 121
f 14 121 117
f 14 117 126
f 14 126 125
f 14 125 124
f 14 124 123
f 14 123 133
f 14 133 142
f 14 142 141
f 14 141 153
f 14 153 152
f 14 152 156
f 14 156 154
f 14 154 150
f 14 150 149
f 14 149 146
f 14 146 145
f 14 145 140
f 14 140 139
f 14 139 130
f 14 130 127
f 14 127 118
f 14 118 108
f 14 108 87
f 14 87 66
f 14 66 55
f 14 55 47
f 14 47 41
f 14 41 32
f 14 32 21
f 14 21 15
f 15 21 22
f 16 23 17
f 17 23 24
f 17 24 25
f 17 25 19
f 19 25 20
f 20 25 27
f 20 27 28
f 20 28 29
f 20 29 30
f 20 30 31
f 20 31 26
f 21 32 22
f 22 32 33
f 23 34 35
f 23 35 36
f 23 36 24
f 23 37 34
f 24 36 27
f 24 27 25
f 26 38 39
f 26 31 40
f 26 40 38
f 27 36 28
f 28 36 35
f 28 35 34
f 28 34 29
f 29 34 30
f 30 34 31
f 31 34 37
f 31 37 40
f 32 41 42
f 32 42 33
f 37 43 40
f 37 44 43
f 38 45 39
f 38 40 46
f 38 46 43
f 38 43 45
f 40 43 46
f 41 47 48
f 41 48 49
f 41 49 42
f 43 44 50
f 43 50 51
f 43 51 52
f 43 52 45
f 44 53 54
f 44 54 50
f 47 55 48
f 48 56 49
f 48 55 57
f 48 57 58
f 48 58 59
f 48 59 60
f 48 60 61
f 48 61 56
f 49 56 62
f 49 62 63
f 50 64 51
f 50 54 65
f 50 65 55
f 50 55 66
f 50 66 64
f 51 64 67
f 51 67 68
f 51 68 69
f 51 69 52
f 53 70 61
f 53 61 59
f 53 59 54
f 54 59 58
f 54 58 71
f 54 71 55
f 54 55 65
f 55 71 57
f 56 61 72
f 56 72 73
f 56 73 97
f 56 97 74
f 56 74 62
f 57 75 58
f 57 71 75
f 58 75 71
f 59 61 60
f 61 70 76
f 61 76 72
f 62 77 63
f 62 74 78
f 62 78 79
f 62 79 80
f 62 80 81
f 62 81 82
f 62 82 83
f 62 83 77
f 63 77 84
f 64 85 86
f 64 86 67
f 64 66 85
f 66 87 88
f 66 88 89
f 66 89 85
f 67 86 90
f 67 90 91
f 67 91 68
f 68 91 92
f 70 93 94
f 70 94 76
f 70 95 78
f 70 78 93
f 72 76 96
f 72 96 73
f 73 96 93
f 73 93 97
f 74 97 78
f 76 94 93
f 76 93 96
f 77 83 98
f 77 98 99
f 77 99 84
f 78 95 79
f 78 97 93
f 79 81 80
f 79 95 100
f 79 100 81
f 81 100 82
f 82 100 83
f 83 100 101
f 83 101 102
f 83 102 98
f 84 99 103
f 84 103 104
f 85 89 105
f 85 105 106
f 85 106 86
f 86 106 107
f 86 107 92
f 86 92 90
f 87 108 109
f 87 109 110
f 87 110 88
f 88 111 89
f 88 110 105
f 88 105 111
f 89 111 105
f 90 92 91
f 92 107 113
f 92 113 112
f 95 114 100
f 98 102 99
f 99 102 101
f 99 101 104
f 99 104 103
f 100 114 101
f 105 110 109
f 105 109 115
f 105 115 116
f 105 116 106
f 106 116 117
f 106 117 113
f 106 113 107
f 108 118 119
f 108 119 109
f 109 120 116
f 109 116 115
f 109 119 120
f 112 113 121
f 113 117 121
f 116 120 122
f 116 122 123
f 116 123 124
f 116 124 125
f 116 125 126
f 116 126 117
f 118 127 128
f 118 128 119
f 119 128 127
f 119 127 120
f 120 129 122
f 120 127 130
f 120 130 129
f 122 129 131
f 122 131 132
f 122 132 123
f 123 132 133
f 129 134 135
f 129 135 136
f 129 136 137
f 129 137 138
f 129 138 131
f 129 130 139
f 129 139 140
f 129 140 134
f 131 138 141
f 131 141 142
f 131 142 143
f 131 143 132
f 132 143 144
f 132 144 133
f 133 144 142
f 134 140 145
f 134 145 146
f 134 146 147
f 134 147 148
f 134 148 135
f 135 148 149
f 135 149 150
f 135 150 151
f 135 151 136
f 136 151 137
f 137 151 152
f 137 152 153
f 137 153 138
f 138 153 141
f 142 144 143
f 146 149 147
f 147 149 148
f 150 154 155
f 150 155 151
f 151 155 156
f 151 156 152
f 154 156 155

