# https://github.com/mikedh/trimesh
v 0.00592541 -0.00275418 0.02138939
v 0.00592183 -0.00275418 0.02139805
v 0.00319504 -0.00335013 0.03145895
v 0.00365967 -0.00335013 0.03031252
v 0.00364102 -0.00585241 0.03039337
v 0.00365967 -0.00583708 0.03031252
v 0.00592183 -0.00276347 0.02139805
v 0.00589530 -0.00275418 0.00781699
v 0.00562785 -0.00275418 0.02183988
v 0.00238196 -0.00335013 0.03239458
v 0.00290394 -0.00637219 0.03186901
v 0.00307889 -0.00626071 0.03163799
v 0.00319504 -0.00618174 0.03145895
v 0.00324523 -0.00614737 0.03137809
v 0.00348113 -0.00597597 0.03089006
v 0.00544860 -0.00275418 0.02205646
v 0.00354136 -0.00592952 0.02509436
v 0.00347970 -0.00597690 0.00422175
v 0.00373423 -0.00577577 0.02450238
v 0.00374642 -0.00576555 0.02934223
v 0.00373639 -0.00577344 0.02965411
v 0.00372922 -0.00577902 0.02988224
v 0.00560491 -0.00345604 0.02186875
v 0.00565152 -0.00336685 0.00950055
v 0.00565152 -0.00336685 0.00900097
v 0.00554970 -0.00356288 0.00559054
v 0.00588383 -0.00275418 0.00665034
v 0.00209300 -0.00680743 0.03260827
v 0.00238196 -0.00666715 0.03239458
v 0.00251604 -0.00659701 0.03227907
v 0.00541562 -0.00275418 0.02209400
v 0.00474593 -0.00275418 0.02279861
v 0.00130931 -0.00335013 0.03301255
v 0.00290752 -0.00636940 0.00403982
v 0.00307244 -0.00626442 0.00408603
v 0.00333629 -0.00608327 0.02639962
v 0.00335279 -0.00607073 0.02965411
v 0.00333701 -0.00608187 0.03002374
v 0.00331048 -0.00610138 0.00416111
v 0.00343094 -0.00601359 0.02776553
v 0.00342807 -0.00601545 0.00900097
v 0.00330761 -0.00275418 0.00415822
v 0.00402534 -0.00552215 0.00445855
v 0.00399236 -0.00555280 0.02392771
v 0.00428346 -0.00527457 0.02342236
v 0.00440034 -0.00515380 0.02324621
v 0.00460181 -0.00493223 0.02297476
v 0.00493594 -0.00451975 0.02258203
v 0.00520195 -0.00414304 0.02231347
v 0.00544645 -0.00374775 0.02206223
v 0.00554970 -0.00356288 0.00665034
v 0.00544502 -0.00375007 0.00548370
v 0.00554970 -0.00275418 0.00559054
v 0.00544502 -0.00375053 0.00900097
v 0.00225648 -0.00672846 0.02965411
v 0.00161762 -0.00700856 0.03288261
v 0.00203636 -0.00683390 0.02484313
v 0.00227727 -0.00672010 0.00392143
v -0.00139955 -0.00275418 0.02279861
v 0.00009255 -0.00335013 0.03324646
v 0.00059732 -0.00731559 0.03320026
v 0.00116304 -0.00716556 0.03306454
v 0.00131003 -0.00711818 0.03301255
v 0.00151724 -0.00704618 0.03292881
v 0.00186284 -0.00275418 0.00388100
v 0.00462978 -0.00275418 0.00481085
v 0.00440751 -0.00514636 0.00466935
v 0.00459034 -0.00494709 0.00478486
v 0.00469503 -0.00482121 0.00950055
v 0.00469503 -0.00482121 0.00900097
v 0.00510444 -0.00428936 0.00516893
v 0.00544502 -0.00375053 0.00950055
v 0.00463336 -0.00275418 0.00481374
v 0.00172159 -0.00696675 0.02484313
v 0.00148856 -0.00705733 0.02965411
v 0.00163985 -0.00700066 0.00387233
v 0.00186428 -0.00691008 0.00388100
v 0.00192164 -0.00688593 0.00950055
v 0.00192164 -0.00688593 0.00900097
v -0.00139955 -0.00335060 0.02484313
v 0.00006745 -0.00335013 0.03324357
v -0.00139955 -0.00275418 0.00374816
v 0.00006745 -0.00587470 0.03324935
v 0.00006745 -0.00741593 0.03324935
v 0.00009255 -0.00741221 0.03324646
v 0.00038437 -0.00736111 0.03094782
v 0.00065683 -0.00730259 0.00394742
v 0.00064249 -0.00730584 0.02814382
v 0.00074789 -0.00728122 0.03079766
v 0.00103398 -0.00720411 0.03058685
v 0.00104330 -0.00720133 0.00389832
v 0.00119387 -0.00715627 0.02859142
v 0.00126414 -0.00713444 0.03030674
v 0.00142332 -0.00708055 0.02997465
v 0.00151581 -0.00704711 0.00900097
v 0.00151509 -0.00704711 0.00387233
v -0.00139955 -0.00749071 0.00374816
v -0.00139955 -0.00748607 0.02484313
v -0.00125615 -0.00749536 0.02484313
v -0.00104965 -0.00749907 0.02484313
v -0.00081303 -0.00749489 0.02484313
v -0.00080371 -0.00749443 0.02484313
v -0.00052121 -0.00747677 0.02484313
v -0.00017920 -0.00744844 0.00900097
v 0.00008323 -0.00741314 0.00400228
v 0.00029761 -0.00737691 0.02802831
v 0.00025244 -0.00738527 0.00900097
v 0.00025244 -0.00738527 0.00950055
v 0.00028972 -0.00737876 0.02484313
v -0.00139166 -0.00749117 0.00375105
v 0.00094937 -0.00722827 0.02833730
v -0.00139955 -0.00749071 0.00416977
v -0.00139955 -0.00748978 0.01527892
v -0.00104965 -0.00749907 0.00386367
v -0.00049683 -0.00747863 0.00397052
f 1 2 3
f 1 3 4
f 1 4 5
f 1 5 6
f 1 6 7
f 1 7 8
f 1 8 27
f 1 27 53
f 1 53 73
f 1 73 66
f 1 66 42
f 1 42 65
f 1 65 82
f 1 82 59
f 1 59 32
f 1 32 31
f 1 31 16
f 1 16 9
f 1 9 2
f 2 9 3
f 3 10 11
f 3 11 12
f 3 12 13
f 3 13 14
f 3 14 15
f 3 15 4
f 3 9 16
f 3 16 10
f 4 15 5
f 5 15 17
f 5 17 18
f 5 18 19
f 5 19 6
f 6 19 20
f 6 20 21
f 6 21 22
f 6 22 23
f 6 23 7
f 7 23 24
f 7 24 25
f 7 25 8
f 8 25 26
f 8 26 27
f 10 28 29
f 10 29 30
f 10 30 11
f 10 16 31
f 10 31 32
f 10 32 33
f 10 33 28
f 11 30 34
f 11 34 35
f 11 35 12
f 12 35 13
f 13 35 14
f 14 36 37
f 14 37 38
f 14 38 15
f 14 35 39
f 14 39 36
f 15 38 37
f 15 37 40
f 15 40 18
f 15 18 17
f 18 41 39
f 18 39 42
f 18 42 43
f 18 43 19
f 18 40 41
f 19 43 44
f 19 44 20
f 20 44 45
f 20 45 21
f 21 45 22
f 22 45 46
f 22 46 47
f 22 47 48
f 22 48 49
f 22 49 50
f 22 50 23
f 23 50 51
f 23 51 24
f 24 51 26
f 24 26 25
f 26 52 53
f 26 53 27
f 26 51 72
f 26 72 54
f 26 54 52
f 28 55 29
f 28 33 56
f 28 56 57
f 28 57 58
f 28 58 55
f 29 55 58
f 29 58 30
f 30 58 34
f 32 59 60
f 32 60 33
f 33 60 61
f 33 61 62
f 33 62 63
f 33 63 64
f 33 64 56
f 34 58 65
f 34 65 42
f 34 42 35
f 35 42 39
f 36 40 37
f 36 39 41
f 36 41 40
f 42 66 43
f 43 66 67
f 43 67 45
f 43 45 44
f 45 67 46
f 46 67 68
f 46 68 47
f 47 68 69
f 47 69 48
f 48 69 70
f 48 70 71
f 48 71 49
f 49 71 52
f 49 52 54
f 49 54 72
f 49 72 50
f 50 72 51
f 52 71 53
f 53 71 73
f 56 74 57
f 56 64 75
f 56 75 76
f 56 76 77
f 56 77 74
f 57 74 78
f 57 78 79
f 57 79 58
f 58 79 77
f 58 77 65
f 59 80 81
f 59 81 60
f 59 82 97
f 59 97 112
f 59 112 113
f 59 113 98
f 59 98 80
f 60 81 83
f 60 83 61
f 61 83 84
f 61 84 85
f 61 85 86
f 61 86 87
f 61 87 88
f 61 88 89
f 61 89 62
f 62 89 90
f 62 90 91
f 62 91 92
f 62 92 93
f 62 93 63
f 63 93 94
f 63 94 64
f 64 94 75
f 65 77 82
f 66 73 71
f 66 71 68
f 66 68 67
f 68 71 70
f 68 70 69
f 74 77 78
f 75 94 95
f 75 95 76
f 76 95 96
f 76 96 97
f 76 97 77
f 77 97 82
f 77 79 78
f 80 83 81
f 80 98 84
f 80 84 83
f 84 98 99
f 84 99 100
f 84 100 101
f 84 101 102
f 84 102 103
f 84 103 104
f 84 104 105
f 84 105 85
f 85 106 86
f 85 105 107
f 85 107 108
f 85 108 109
f 85 109 106
f 86 106 109
f 86 109 107
f 86 107 87
f 87 107 105
f 87 105 110
f 87 110 97
f 87 97 91
f 87 91 111
f 87 111 89
f 87 89 88
f 89 111 90
f 90 111 91
f 91 97 96
f 91 96 93
f 91 93 92
f 93 96 94
f 94 96 95
f 97 110 112
f 98 113 99
f 99 113 110
f 99 110 114
f 99 114 100
f 100 114 101
f 101 114 115
f 101 115 102
f 102 115 103
f 103 115 104
f 104 115 105
f 105 115 110
f 107 109 108
f 110 115 114
f 110 113 112

