# https://github.com/mikedh/trimesh
v -0.00000000 -0.00687965 0.00150000
v -0.00074971 -0.00687965 0.00129885
v -0.00063988 -0.00710000 0.00110826
v -0.00000000 -0.00710000 0.00127976
v 0.00063988 -0.00710000 0.00110826
v 0.00075000 -0.00687965 0.00129885
v 0.00000059 -0.00275418 0.00149971
v -0.00074912 -0.00275418 0.00129914
v -0.00129884 -0.00687965 0.00074971
v -0.00129826 -0.00275418 0.00075029
v -0.00110826 -0.00710000 0.00063988
v 0.00110826 -0.00710000 0.00063988
v 0.00129884 -0.00687965 0.00074971
v 0.00075029 -0.00275418 0.00129826
v -0.00149971 -0.00275418 0.00000059
v -0.00150000 -0.00687965 0.00000000
v -0.00127976 -0.00710000 0.00000000
v 0.00127976 -0.00710000 0.00000000
v 0.00150000 -0.00687965 0.00000000
v 0.00129914 -0.00275418 0.00074912
v -0.00129914 -0.00275418 -0.00074912
v -0.00129884 -0.00687965 -0.00075000
v -0.00110826 -0.00710000 -0.00063988
v 0.00110826 -0.00710000 -0.00063988
v 0.00149971 -0.00275418 -0.00000059
v 0.00129884 -0.00687965 -0.00075000
v -0.00075029 -0.00275418 -0.00129826
v -0.00075000 -0.00687965 -0.00129884
v -0.00063988 -0.00710000 -0.00110826
v 0.00063988 -0.00710000 -0.00110826
v 0.00129826 -0.00275418 -0.00075029
v 0.00075000 -0.00687965 -0.00129884
v -0.00000059 -0.00275418 -0.00149971
v -0.00000000 -0.00687965 -0.00150000
v -0.00000000 -0.00710000 -0.00127976
v 0.00074912 -0.00275418 -0.00129914
f 1 2 3
f 1 3 4
f 1 4 5
f 1 5 6
f 1 6 7
f 1 7 8
f 1 8 2
f 2 9 11
f 2 11 3
f 2 8 10
f 2 10 9
f 3 11 17
f 3 17 23
f 3 23 29
f 3 29 35
f 3 35 30
f 3 30 24
f 3 24 18
f 3 18 12
f 3 12 5
f 3 5 4
f 5 12 6
f 6 12 13
f 6 13 20
f 6 20 14
f 6 14 7
f 7 14 20
f 7 20 25
f 7 25 31
f 7 31 36
f 7 36 33
f 7 33 27
f 7 27 21
f 7 21 15
f 7 15 10
f 7 10 8
f 9 10 15
f 9 15 16
f 9 16 11
f 11 16 17
f 12 18 19
f 12 19 13
f 13 19 20
f 15 21 16
f 16 22 23
f 16 23 17
f 16 21 22
f 18 24 19
f 19 25 20
f 19 24 26
f 19 26 25
f 21 27 22
f 22 27 28
f 22 28 29
f 22 29 23
f 24 30 32
f 24 32 26
f 25 26 31
f 26 32 31
f 27 33 28
f 28 33 34
f 28 34 29
f 29 34 35
f 30 35 34
f 30 34 32
f 31 32 36
f 32 34 36
f 33 36 34

