# https://github.com/mikedh/trimesh
v 0.00006699 -0.00587501 0.03324613
v 0.00006699 -0.00741545 0.03324613
v 0.00006699 -0.00335065 0.03324299
v -0.00018097 -0.00744890 0.03324299
v 0.00005114 -0.00741824 0.03324613
v 0.00006699 -0.00741545 0.03241059
v -0.00113556 -0.00335065 0.03307023
v -0.00050101 -0.00747956 0.03321472
v 0.00006699 -0.00335065 0.03098138
v -0.00140015 -0.00275418 0.02279559
v -0.00726156 -0.00275418 0.02279559
v -0.00037110 -0.00746841 0.03095311
v -0.00041229 -0.00747166 0.02805699
v -0.00005105 -0.00743218 0.02800044
v -0.00000114 -0.00742567 0.03099708
v -0.00000114 -0.00742567 0.02799730
v 0.00004243 -0.00741870 0.02484361
v 0.00006699 -0.00741499 0.03099080
v 0.00006619 -0.00741452 0.02484361
v -0.00223829 -0.00335065 0.03250797
v -0.00192379 -0.00744751 0.03271842
v -0.00144768 -0.00748839 0.03295715
v -0.00113556 -0.00749907 0.03307023
v -0.00105079 -0.00749954 0.03309850
v -0.00075055 -0.00749350 0.03079605
v -0.00070936 -0.00749164 0.03082118
v -0.00076244 -0.00749396 0.02820462
v 0.00006619 -0.00335065 0.02484361
v -0.00140015 -0.00275418 0.00375092
v -0.00789768 -0.00275418 0.02143234
v -0.00339884 -0.00335065 0.03108189
v -0.00309702 -0.00335065 0.03161275
v -0.00052320 -0.00747677 0.02484361
v 0.00000044 -0.00742474 0.02484361
v -0.00140015 -0.00749024 0.00375092
v -0.00277856 -0.00729746 0.03201795
v -0.00238326 -0.00738015 0.03239175
v -0.00223829 -0.00740430 0.03250797
v -0.00192379 -0.00744797 0.02484361
v -0.00161087 -0.00747817 0.00366610
v -0.00150393 -0.00748606 0.02952075
v -0.00210678 -0.00742474 0.00340225
v -0.00142471 -0.00749024 0.02996993
v -0.00130033 -0.00749535 0.03024950
v -0.00120131 -0.00749768 0.02860040
v -0.00105079 -0.00750000 0.02484361
v -0.00105079 -0.00750000 0.02842764
v -0.00099772 -0.00749954 0.03062015
v -0.00081472 -0.00749489 0.02484361
v -0.00080522 -0.00749442 0.02484361
v -0.00490400 -0.00275418 0.00150501
v -0.00587047 -0.00574447 0.02578281
v -0.00630776 -0.00335019 0.02484361
v -0.00801414 -0.00275418 0.02118105
v -0.00789531 -0.00306217 0.02143548
v -0.00339884 -0.00712232 0.03108189
v -0.00313504 -0.00720408 0.03155620
v -0.00140015 -0.00749117 0.00416869
v -0.00224779 -0.00740337 0.00331116
v -0.00361590 -0.00704706 0.00238452
v -0.00490400 -0.00643293 0.00150501
v -0.00291085 -0.00726308 0.02952075
v -0.00291402 -0.00726169 0.02484361
v -0.00192220 -0.00744843 0.00950547
v -0.00192220 -0.00744843 0.00900289
v -0.00148650 -0.00748653 0.00900289
v -0.00138431 -0.00749210 0.02891766
v -0.00516780 -0.00626709 0.00135423
v -0.00542447 -0.00275418 0.00125686
v -0.00583007 -0.00577513 0.02484361
v -0.00517097 -0.00626523 0.02728113
v -0.00441522 -0.00670144 0.02890195
v -0.00412686 -0.00682640 0.02952075
v -0.00706430 -0.00447951 0.02321650
v -0.00630697 -0.00533335 0.02484361
v -0.00619606 -0.00545459 0.00950547
v -0.00604238 -0.00559582 0.00150501
v -0.00603525 -0.00560232 0.00116262
v -0.00564549 -0.00592518 0.00119718
v -0.00802602 -0.00275418 0.00311955
v -0.00754358 -0.00375063 0.02218621
v -0.00798641 -0.00284987 0.00276460
v -0.00790957 -0.00302919 0.00248818
v -0.00780500 -0.00325821 0.00251331
v -0.00777490 -0.00332092 0.00218977
v -0.00338458 -0.00712697 0.02952075
v -0.00361115 -0.00704892 0.03062643
v -0.00361353 -0.00704846 0.02484047
v -0.00346222 -0.00710049 0.02484047
v -0.00315564 -0.00719851 0.02484047
v -0.00320238 -0.00718411 0.00900289
v -0.00424886 -0.00677391 0.02484047
v -0.00449602 -0.00665870 0.02484047
v -0.00479943 -0.00649472 0.00900289
v -0.00479943 -0.00649472 0.00950547
v -0.00517097 -0.00626523 0.02484361
v -0.00525890 -0.00620623 0.00131654
v -0.00621428 -0.00275418 0.00116890
v -0.00731543 -0.00412180 0.00950547
v -0.00721719 -0.00426674 0.00155841
v -0.00714194 -0.00436987 0.00150815
v -0.00697558 -0.00459657 0.00140135
v -0.00685437 -0.00474941 0.00150815
v -0.00650422 -0.00514613 0.02441641
v -0.00621824 -0.00543369 0.00116890
v -0.00619606 -0.00545459 0.00900289
v -0.00796898 -0.00275418 0.00272377
v -0.00802047 -0.00276532 0.00300961
v -0.00754595 -0.00374738 0.00185995
v -0.00795076 -0.00275418 0.00262011
v -0.00794918 -0.00275418 0.00261383
v -0.00758635 -0.00275418 0.00191335
v -0.00320238 -0.00718411 0.00950547
v -0.00645115 -0.00520141 0.00120660
v -0.00650422 -0.00514520 0.00121916
v -0.00697478 -0.00275418 0.00140135
v -0.00731543 -0.00412180 0.00900289
v -0.00758398 -0.00275418 0.00191021
v -0.00714114 -0.00379523 0.00150501
v -0.00714114 -0.00436987 0.00150501
v -0.00686150 -0.00474012 0.00134481
v -0.00650422 -0.00514613 0.00900289
v -0.00645352 -0.00519956 0.00150815
v -0.00645352 -0.00519956 0.00150501
v -0.00710233 -0.00275418 0.00150501
f 1 2 6
f 1 6 18
f 1 18 9
f 1 9 3
f 1 3 4
f 1 4 5
f 1 5 2
f 2 5 6
f 3 7 8
f 3 8 4
f 3 9 29
f 3 29 10
f 3 10 11
f 3 11 7
f 4 8 12
f 4 12 13
f 4 13 14
f 4 14 15
f 4 15 5
f 5 15 16
f 5 16 17
f 5 17 6
f 6 17 19
f 6 19 18
f 7 20 21
f 7 21 22
f 7 22 23
f 7 23 24
f 7 24 8
f 7 11 20
f 8 24 25
f 8 25 26
f 8 26 27
f 8 27 13
f 8 13 12
f 9 18 19
f 9 19 28
f 9 28 29
f 10 29 51
f 10 51 69
f 10 69 98
f 10 98 116
f 10 116 125
f 10 125 118
f 10 118 112
f 10 112 111
f 10 111 110
f 10 110 107
f 10 107 80
f 10 80 54
f 10 54 30
f 10 30 11
f 11 30 31
f 11 31 32
f 11 32 20
f 13 27 33
f 13 33 34
f 13 34 14
f 14 34 16
f 14 16 15
f 16 34 17
f 17 34 35
f 17 35 19
f 19 35 29
f 19 29 28
f 20 32 36
f 20 36 37
f 20 37 38
f 20 38 21
f 21 39 40
f 21 40 41
f 21 41 22
f 21 38 42
f 21 42 39
f 22 41 43
f 22 43 44
f 22 44 23
f 23 44 45
f 23 45 46
f 23 46 47
f 23 47 24
f 24 47 48
f 24 48 25
f 25 48 27
f 25 27 26
f 27 49 50
f 27 50 33
f 27 48 49
f 29 35 61
f 29 61 51
f 30 52 53
f 30 53 31
f 30 54 55
f 30 55 52
f 31 56 57
f 31 57 32
f 31 53 52
f 31 52 56
f 32 57 36
f 33 50 58
f 33 58 35
f 33 35 34
f 35 58 40
f 35 40 59
f 35 59 60
f 35 60 61
f 36 57 62
f 36 62 63
f 36 63 59
f 36 59 37
f 37 59 38
f 38 59 42
f 39 42 64
f 39 64 40
f 40 64 65
f 40 65 42
f 40 42 59
f 40 58 66
f 40 66 41
f 41 66 58
f 41 58 43
f 42 65 64
f 43 67 44
f 43 58 67
f 44 67 58
f 44 58 45
f 45 58 46
f 46 49 48
f 46 48 47
f 46 58 49
f 49 58 50
f 51 61 68
f 51 68 69
f 52 70 71
f 52 71 72
f 52 72 73
f 52 73 56
f 52 55 74
f 52 74 75
f 52 75 76
f 52 76 77
f 52 77 78
f 52 78 79
f 52 79 70
f 54 80 55
f 55 81 74
f 55 80 82
f 55 82 83
f 55 83 84
f 55 84 85
f 55 85 81
f 56 86 57
f 56 73 87
f 56 87 88
f 56 88 89
f 56 89 60
f 56 60 86
f 57 86 90
f 57 90 62
f 59 91 60
f 59 63 91
f 60 91 86
f 60 89 88
f 60 88 92
f 60 92 72
f 60 72 93
f 60 93 94
f 60 94 61
f 61 94 95
f 61 95 71
f 61 71 96
f 61 96 68
f 62 90 63
f 63 90 91
f 68 97 69
f 68 96 97
f 69 97 79
f 69 79 98
f 70 79 71
f 71 79 97
f 71 97 96
f 71 95 93
f 71 93 72
f 72 92 73
f 73 92 88
f 73 88 87
f 74 81 99
f 74 99 100
f 74 100 101
f 74 101 102
f 74 102 103
f 74 103 104
f 74 104 75
f 75 104 76
f 76 104 105
f 76 105 106
f 76 106 77
f 77 106 105
f 77 105 78
f 78 105 98
f 78 98 79
f 80 107 108
f 80 108 82
f 81 85 109
f 81 109 99
f 82 108 110
f 82 110 111
f 82 111 83
f 83 111 112
f 83 112 85
f 83 85 84
f 85 112 109
f 86 91 113
f 86 113 90
f 90 113 91
f 93 95 94
f 98 105 114
f 98 114 115
f 98 115 116
f 99 109 117
f 99 117 100
f 100 109 118
f 100 118 119
f 100 119 120
f 100 120 101
f 100 117 109
f 101 120 102
f 102 120 119
f 102 119 116
f 102 116 121
f 102 121 103
f 103 121 115
f 103 115 122
f 103 122 104
f 104 122 124
f 104 124 123
f 104 123 105
f 105 123 124
f 105 124 114
f 107 110 108
f 109 112 118
f 114 124 115
f 115 121 116
f 115 124 122
f 116 119 125
f 118 125 119

