# https://github.com/mikedh/trimesh
v 0.00006055 0.00741618 0.03324827
v -0.00016280 0.00744647 0.03324568
v 0.00006055 0.00295089 0.03324396
v 0.00006055 0.00741618 0.03264489
v -0.00000042 0.00742554 0.03149933
v -0.00064864 0.00748833 0.03319224
v -0.00000042 0.00742554 0.02749977
v -0.00042658 0.00747319 0.02754632
v -0.00036882 0.00746829 0.03146485
v -0.00113577 0.00295089 0.03307329
v -0.00223774 0.00295000 0.03250870
v 0.00006055 0.00295000 0.03109247
v 0.00006055 0.00741529 0.03176826
v 0.00005991 0.00741529 0.02444235
v 0.00004194 0.00741886 0.02444235
v -0.00105298 0.00749946 0.03309829
v -0.00082321 0.00749590 0.02767733
v -0.00077315 0.00749367 0.03134417
v -0.00086814 0.00749723 0.03130193
v -0.00031041 0.00745805 0.02444235
v -0.00053440 0.00747764 0.02444235
v -0.00113577 0.00749812 0.03307329
v -0.00120957 0.00749812 0.03304915
v -0.00169028 0.00747140 0.03284745
v -0.00221014 0.00740772 0.03252852
v -0.00223774 0.00740416 0.03250870
v -0.00264336 0.00732801 0.03215874
v -0.00309583 0.00295000 0.03161569
v 0.00006055 0.00295000 0.03098387
v 0.00006055 0.00741485 0.03149243
v 0.00005991 0.00295000 0.02444235
v 0.00006055 0.00529955 0.03098387
v -0.00090151 0.00749768 0.02444235
v -0.00105490 0.00749946 0.03119936
v -0.00113962 0.00749946 0.03114419
v -0.00086429 0.00749634 0.02444235
v -0.00086878 0.00749723 0.02769802
v -0.00118583 0.00749812 0.02788852
v -0.00124231 0.00749590 0.02444235
v -0.00151186 0.00748521 0.02819021
v -0.00147913 0.00748655 0.03084767
v -0.00190785 0.00745003 0.03010293
v -0.00195021 0.00744558 0.02994433
v -0.00156449 0.00748165 0.02825313
v -0.00174933 0.00746695 0.02852897
v -0.00199065 0.00744023 0.02970383
v -0.00199193 0.00744023 0.02930819
v -0.00200926 0.00743712 0.02886513
v -0.00218575 0.00740505 0.02444235
v -0.00278455 0.00729595 0.02444235
v -0.00278584 0.00729550 0.03200961
v -0.00299892 0.00724162 0.03175102
v -0.00332816 0.00714498 0.03122608
v -0.00339812 0.00295000 0.03108385
v -0.00443270 0.00295000 0.02886513
v -0.00649609 0.00295045 0.02444235
v -0.00105554 0.00749902 0.02444235
v -0.00116016 0.00749812 0.02444235
v -0.00197075 0.00743043 0.02444235
v -0.00189438 0.00745181 0.02886513
v -0.00191106 0.00745003 0.02886600
v -0.00195021 0.00744558 0.02905477
v -0.00191106 0.00745003 0.02886513
v -0.00200605 0.00743756 0.02886513
v -0.00214660 0.00741040 0.02444235
v -0.00292768 0.00725987 0.02444235
v -0.00291484 0.00726344 0.02886513
v -0.00297132 0.00724919 0.02886513
v -0.00328837 0.00715745 0.02444235
v -0.00331468 0.00714943 0.02886513
v -0.00339041 0.00712494 0.03024860
v -0.00339812 0.00712227 0.03108385
v -0.00378833 0.00295000 0.03024946
v -0.00443270 0.00295000 0.02886600
v -0.00378833 0.00696106 0.03024946
v -0.00587033 0.00574487 0.02578358
v -0.00649545 0.00515615 0.02444235
v -0.00211002 0.00741485 0.02444235
v -0.00333779 0.00714142 0.02444235
v -0.00441537 0.00670188 0.02444235
v -0.00378833 0.00696106 0.03024860
v -0.00440703 0.00670544 0.02886513
v -0.00441344 0.00670277 0.02886513
v -0.00441537 0.00670143 0.02890306
v -0.00443270 0.00669164 0.02886600
v -0.00517077 0.00626546 0.02728341
v -0.00587033 0.00574487 0.02444235
v -0.00511172 0.00630242 0.02444235
v -0.00441537 0.00670188 0.02886513
f 1 2 3
f 1 3 12
f 1 12 29
f 1 29 32
f 1 32 30
f 1 30 13
f 1 13 4
f 1 4 7
f 1 7 5
f 1 5 2
f 2 6 3
f 2 5 7
f 2 7 8
f 2 8 9
f 2 9 6
f 3 6 10
f 3 10 11
f 3 11 12
f 4 13 14
f 4 14 15
f 4 15 7
f 6 16 10
f 6 9 8
f 6 8 17
f 6 17 18
f 6 18 19
f 6 19 16
f 7 15 8
f 8 15 20
f 8 20 21
f 8 21 17
f 10 22 23
f 10 23 24
f 10 24 11
f 10 16 22
f 11 24 25
f 11 25 26
f 11 26 27
f 11 27 28
f 11 28 54
f 11 54 73
f 11 73 74
f 11 74 55
f 11 55 31
f 11 31 29
f 11 29 12
f 13 30 14
f 14 31 56
f 14 56 77
f 14 77 87
f 14 87 88
f 14 88 80
f 14 80 79
f 14 79 69
f 14 69 66
f 14 66 50
f 14 50 49
f 14 49 65
f 14 65 78
f 14 78 59
f 14 59 39
f 14 39 58
f 14 58 57
f 14 57 33
f 14 33 36
f 14 36 21
f 14 21 20
f 14 20 15
f 14 30 32
f 14 32 29
f 14 29 31
f 16 23 22
f 16 19 33
f 16 33 34
f 16 34 35
f 16 35 23
f 17 21 36
f 17 36 33
f 17 33 37
f 17 37 19
f 17 19 18
f 19 37 33
f 23 35 38
f 23 38 39
f 23 39 40
f 23 40 41
f 23 41 24
f 24 42 43
f 24 43 25
f 24 41 44
f 24 44 45
f 24 45 42
f 25 43 26
f 26 43 46
f 26 46 47
f 26 47 48
f 26 48 49
f 26 49 50
f 26 50 27
f 27 51 28
f 27 50 51
f 28 51 52
f 28 52 53
f 28 53 54
f 31 55 56
f 33 57 34
f 34 57 35
f 35 57 58
f 35 58 38
f 38 58 39
f 39 59 45
f 39 45 44
f 39 44 40
f 40 44 41
f 42 45 60
f 42 60 43
f 43 60 61
f 43 61 63
f 43 63 62
f 43 62 47
f 43 47 46
f 45 63 60
f 45 59 63
f 47 62 64
f 47 64 48
f 48 64 49
f 49 64 62
f 49 62 65
f 50 66 67
f 50 67 51
f 51 67 68
f 51 68 52
f 52 68 69
f 52 69 70
f 52 70 53
f 53 71 72
f 53 72 54
f 53 70 71
f 54 72 75
f 54 75 73
f 55 74 56
f 56 75 76
f 56 76 77
f 56 74 73
f 56 73 75
f 59 78 63
f 60 63 61
f 62 63 65
f 63 78 65
f 66 69 68
f 66 68 67
f 69 79 70
f 70 79 71
f 71 79 80
f 71 80 72
f 72 80 81
f 72 81 75
f 75 81 82
f 75 82 83
f 75 83 84
f 75 84 85
f 75 85 86
f 75 86 76
f 76 86 87
f 76 87 77
f 80 88 89
f 80 89 83
f 80 83 82
f 80 82 81
f 83 89 84
f 84 89 85
f 85 89 86
f 86 88 87
f 86 89 88

