# https://github.com/mikedh/trimesh
v -0.00190000 0.00709976 -0.00000001
v -0.00185164 0.00709976 -0.00042219
v -0.00185164 0.00529982 -0.00042219
v -0.00185164 0.00529982 0.00042217
v -0.00185164 0.00709976 0.00042217
v -0.00182598 0.00719946 0.00041659
v -0.00187285 0.00719946 -0.00000001
v -0.00182598 0.00719946 -0.00041587
v -0.00171179 0.00709976 -0.00082391
v -0.00148526 0.00529982 -0.00118397
v -0.00129853 0.00275257 -0.00074989
v -0.00149939 0.00275257 -0.00000001
v -0.00148526 0.00529982 0.00118432
v -0.00171179 0.00709976 0.00082389
v -0.00129853 0.00275257 0.00074949
v -0.00168761 0.00719946 0.00081273
v -0.00175456 0.00727290 0.00040022
v -0.00179994 0.00727290 -0.00000001
v -0.00175456 0.00727290 -0.00039950
v -0.00168761 0.00719946 -0.00081201
v -0.00148526 0.00709976 -0.00118397
v -0.00118397 0.00709976 -0.00148452
v -0.00082390 0.00529982 -0.00171141
v -0.00074951 0.00275257 -0.00129853
v -0.00082390 0.00529982 0.00171139
v -0.00118397 0.00709976 0.00148524
v -0.00148526 0.00709976 0.00118432
v -0.00074951 0.00275257 0.00129851
v -0.00146406 0.00719946 0.00116721
v -0.00140677 0.00727290 0.00112220
v -0.00162140 0.00727290 0.00078037
v -0.00165711 0.00729916 0.00037790
v -0.00169988 0.00729916 -0.00000001
v -0.00165711 0.00729916 -0.00037755
v -0.00162140 0.00727290 -0.00078039
v -0.00140677 0.00727290 -0.00112148
v -0.00146406 0.00719946 -0.00116686
v -0.00116723 0.00719946 -0.00146369
v -0.00082390 0.00709976 -0.00171141
v -0.00042218 0.00709976 -0.00185127
v -0.00000000 0.00529982 -0.00190000
v 0.00000037 0.00275257 -0.00149939
v -0.00000000 0.00529982 0.00189960
v -0.00042218 0.00709976 0.00185199
v -0.00082390 0.00709976 0.00171139
v -0.00000000 0.00275257 0.00149974
v -0.00081274 0.00719946 0.00168759
v -0.00116723 0.00719946 0.00146441
v -0.00112185 0.00727290 0.00140713
v -0.00132903 0.00729916 0.00105971
v -0.00153101 0.00729916 0.00073722
v -0.00153101 0.00729916 -0.00073724
v -0.00132903 0.00729916 -0.00105936
v -0.00112185 0.00727290 -0.00140640
v -0.00081274 0.00719946 -0.00168686
v -0.00041623 0.00719946 -0.00182523
v -0.00000000 0.00709976 -0.00190000
v 0.00042292 0.00709976 -0.00185127
v 0.00082428 0.00529982 -0.00171141
v 0.00074951 0.00275257 -0.00129853
v 0.00082428 0.00529982 0.00171139
v 0.00042292 0.00709976 0.00185199
v -0.00000000 0.00709976 0.00189998
v -0.00041623 0.00719946 0.00182596
v 0.00074951 0.00275257 0.00129851
v -0.00039986 0.00727290 0.00175454
v -0.00078038 0.00727290 0.00162138
v -0.00105973 0.00729916 0.00132901
v -0.00105973 0.00729916 -0.00132829
v -0.00078038 0.00727290 -0.00162065
v -0.00039986 0.00727290 -0.00175382
v -0.00000000 0.00727290 -0.00179920
v -0.00000000 0.00719946 -0.00187210
v 0.00041697 0.00719946 -0.00182523
v 0.00082428 0.00709976 -0.00171141
v 0.00118434 0.00709976 -0.00148452
v 0.00148526 0.00529982 -0.00118397
v 0.00129853 0.00275257 -0.00074989
v 0.00148526 0.00529982 0.00118432
v 0.00118434 0.00709976 0.00148524
v 0.00082428 0.00709976 0.00171139
v 0.00081274 0.00719946 0.00168759
v 0.00041697 0.00719946 0.00182596
v -0.00000000 0.00719946 0.00187282
v -0.00000000 0.00727290 0.00179992
v 0.00129853 0.00275257 0.00074949
v -0.00037792 0.00729916 0.00165708
v -0.00073724 0.00729916 0.00153136
v -0.00073724 0.00729916 -0.00153064
v -0.00037792 0.00729916 -0.00165636
v -0.00000000 0.00729916 -0.00169951
v 0.00040061 0.00727290 -0.00175382
v 0.00081274 0.00719946 -0.00168686
v 0.00116760 0.00719946 -0.00146369
v 0.00148526 0.00709976 -0.00118397
v 0.00171141 0.00709976 -0.00082391
v 0.00185202 0.00529982 -0.00042219
v 0.00149939 0.00275257 -0.00000001
v 0.00185202 0.00529982 0.00042217
v 0.00171141 0.00709976 0.00082389
v 0.00148526 0.00709976 0.00118432
v 0.00116760 0.00719946 0.00146441
v 0.00112185 0.00727290 0.00140713
v 0.00078076 0.00727290 0.00162138
v 0.00040061 0.00727290 0.00175454
v 0.00037829 0.00729916 0.00165708
v -0.00000000 0.00729916 0.00169949
v 0.00037829 0.00729916 -0.00165636
v 0.00078076 0.00727290 -0.00162065
v 0.00073761 0.00729916 -0.00153064
v 0.00112185 0.00727290 -0.00140640
v 0.00140715 0.00727290 -0.00112148
v 0.00146406 0.00719946 -0.00116686
v 0.00168724 0.00719946 -0.00081201
v 0.00182598 0.00719946 -0.00041587
v 0.00185202 0.00709976 -0.00042219
v 0.00190000 0.00709976 -0.00000001
v 0.00185202 0.00709976 0.00042217
v 0.00182598 0.00719946 0.00041659
v 0.00168724 0.00719946 0.00081273
v 0.00146406 0.00719946 0.00116721
v 0.00140715 0.00727290 0.00112220
v 0.00105973 0.00729916 0.00132901
v 0.00073761 0.00729916 0.00153136
v 0.00105973 0.00729916 -0.00132829
v 0.00162140 0.00727290 -0.00078039
v 0.00132866 0.00729916 -0.00105936
v 0.00153138 0.00729916 -0.00073687
v 0.00187285 0.00719946 -0.00000001
v 0.00175456 0.00727290 -0.00039950
v 0.00175456 0.00727290 0.00040022
v 0.00162140 0.00727290 0.00078037
v 0.00153138 0.00729916 0.00073722
v 0.00132866 0.00729916 0.00105971
v 0.00165711 0.00729916 -0.00037755
v 0.00179957 0.00727290 -0.00000001
v 0.00165711 0.00729916 0.00037753
v 0.00169951 0.00729916 -0.00000001
f 1 2 3
f 1 3 4
f 1 4 5
f 1 5 6
f 1 6 7
f 1 7 8
f 1 8 2
f 2 8 9
f 2 9 3
f 3 9 10
f 3 10 11
f 3 11 12
f 3 12 4
f 4 13 14
f 4 14 5
f 4 12 15
f 4 15 13
f 5 14 6
f 6 16 17
f 6 17 18
f 6 18 7
f 6 14 16
f 7 18 8
f 8 18 19
f 8 19 20
f 8 20 9
f 9 20 21
f 9 21 10
f 10 21 22
f 10 22 23
f 10 23 24
f 10 24 11
f 11 24 42
f 11 42 60
f 11 60 78
f 11 78 98
f 11 98 86
f 11 86 65
f 11 65 46
f 11 46 28
f 11 28 15
f 11 15 12
f 13 25 26
f 13 26 27
f 13 27 14
f 13 15 28
f 13 28 25
f 14 27 16
f 16 29 30
f 16 30 31
f 16 31 17
f 16 27 29
f 17 31 32
f 17 32 18
f 18 32 33
f 18 33 34
f 18 34 19
f 19 34 35
f 19 35 20
f 20 35 36
f 20 36 37
f 20 37 21
f 21 37 38
f 21 38 22
f 22 38 39
f 22 39 23
f 23 39 40
f 23 40 41
f 23 41 42
f 23 42 24
f 25 43 44
f 25 44 45
f 25 45 26
f 25 28 46
f 25 46 43
f 26 45 47
f 26 47 48
f 26 48 27
f 27 48 29
f 29 48 30
f 30 49 68
f 30 68 50
f 30 50 31
f 30 48 49
f 31 50 51
f 31 51 32
f 32 51 50
f 32 50 68
f 32 68 88
f 32 88 87
f 32 87 107
f 32 107 106
f 32 106 124
f 32 124 123
f 32 123 134
f 32 134 133
f 32 133 137
f 32 137 138
f 32 138 135
f 32 135 128
f 32 128 127
f 32 127 125
f 32 125 110
f 32 110 108
f 32 108 91
f 32 91 90
f 32 90 89
f 32 89 69
f 32 69 53
f 32 53 52
f 32 52 34
f 32 34 33
f 34 52 35
f 35 52 53
f 35 53 36
f 36 53 54
f 36 54 38
f 36 38 37
f 38 54 55
f 38 55 39
f 39 55 56
f 39 56 40
f 40 56 57
f 40 57 41
f 41 57 58
f 41 58 59
f 41 59 42
f 42 59 60
f 43 61 62
f 43 62 63
f 43 63 44
f 43 46 61
f 44 63 64
f 44 64 47
f 44 47 45
f 46 65 61
f 47 64 66
f 47 66 67
f 47 67 49
f 47 49 48
f 49 67 88
f 49 88 68
f 53 69 54
f 54 69 89
f 54 89 70
f 54 70 55
f 55 70 71
f 55 71 56
f 56 71 72
f 56 72 73
f 56 73 57
f 57 73 74
f 57 74 58
f 58 74 75
f 58 75 59
f 59 75 76
f 59 76 77
f 59 77 60
f 60 77 78
f 61 79 80
f 61 80 81
f 61 81 62
f 61 65 79
f 62 81 82
f 62 82 83
f 62 83 63
f 63 83 84
f 63 84 64
f 64 84 85
f 64 85 66
f 65 86 79
f 66 85 87
f 66 87 88
f 66 88 67
f 70 89 71
f 71 89 90
f 71 90 91
f 71 91 72
f 72 92 74
f 72 74 73
f 72 91 92
f 74 92 93
f 74 93 75
f 75 93 94
f 75 94 76
f 76 94 95
f 76 95 77
f 77 95 96
f 77 96 97
f 77 97 78
f 78 97 98
f 79 99 100
f 79 100 101
f 79 101 80
f 79 86 99
f 80 101 102
f 80 102 82
f 80 82 81
f 82 102 103
f 82 103 104
f 82 104 105
f 82 105 83
f 83 105 85
f 83 85 84
f 85 105 106
f 85 106 107
f 85 107 87
f 86 98 99
f 91 108 92
f 92 109 93
f 92 108 110
f 92 110 109
f 93 109 111
f 93 111 94
f 94 111 112
f 94 112 113
f 94 113 95
f 95 113 114
f 95 114 96
f 96 114 115
f 96 115 116
f 96 116 97
f 97 99 98
f 97 116 117
f 97 117 99
f 99 117 118
f 99 118 100
f 100 118 119
f 100 119 120
f 100 120 101
f 101 120 121
f 101 121 102
f 102 121 122
f 102 122 103
f 103 122 123
f 103 123 124
f 103 124 104
f 104 124 105
f 105 124 106
f 109 110 111
f 110 125 111
f 111 125 112
f 112 126 114
f 112 114 113
f 112 125 127
f 112 127 128
f 112 128 126
f 114 126 115
f 115 129 117
f 115 117 116
f 115 126 130
f 115 130 129
f 117 129 119
f 117 119 118
f 119 129 131
f 119 131 120
f 120 131 132
f 120 132 122
f 120 122 121
f 122 132 133
f 122 133 134
f 122 134 123
f 126 128 135
f 126 135 130
f 129 130 136
f 129 136 131
f 130 135 136
f 131 136 137
f 131 137 133
f 131 133 132
f 135 138 136
f 136 138 137

