# https://github.com/mikedh/trimesh
v -0.00224713 -0.00740384 0.00330914
v -0.00210583 -0.00742524 0.00340081
v -0.00161002 -0.00747870 0.00366167
v -0.00139211 -0.00749196 0.00374994
v -0.00105000 -0.00750000 0.00385973
v -0.00049719 -0.00747941 0.00396898
v 0.00008257 -0.00741398 0.00399915
v 0.00065653 -0.00730327 0.00394575
v -0.00490408 -0.00643398 0.00150490
v -0.00361515 -0.00704769 0.00238016
v 0.00555000 -0.00275000 0.00000441
v 0.00409698 -0.00275000 -0.00244247
v 0.00435833 -0.00275000 -0.00213998
v 0.00436731 -0.00275000 -0.00212894
v -0.00219783 -0.00275000 -0.00461378
v -0.00138566 -0.00275000 -0.00470075
v -0.00056889 -0.00275000 -0.00469223
v 0.00024129 -0.00275000 -0.00458831
v 0.00082091 -0.00275000 -0.00445333
v -0.00376407 -0.00275000 -0.00415936
v -0.00299427 -0.00275000 -0.00443248
v 0.00319854 -0.00275000 -0.00326629
v 0.00347507 -0.00275000 -0.00304262
v -0.00763054 -0.00275000 -0.00005153
v -0.00727573 -0.00275000 -0.00088203
v 0.00503799 -0.00275000 -0.00114058
v 0.00524016 -0.00275000 -0.00075135
v 0.00082992 -0.00275000 -0.00445082
v 0.00154041 -0.00275000 -0.00421018
v 0.00179769 -0.00275000 -0.00410129
v -0.00645717 -0.00275000 -0.00214141
v -0.00637431 -0.00275000 -0.00224109
v -0.00518205 -0.00275000 -0.00335379
v -0.00783706 -0.00275000 0.00064914
v -0.00802764 -0.00275000 0.00226880
v -0.00802764 -0.00275000 0.00315947
v 0.00005969 0.00038096 -0.00513885
v 0.00010726 0.00019311 -0.00513885
v -0.00105000 0.00000000 -0.00523119
v -0.00001815 0.00055841 -0.00513885
v -0.00012414 0.00072063 -0.00513885
v -0.00025537 0.00086319 -0.00513885
v -0.00040829 0.00098221 -0.00513885
v -0.00057871 0.00107444 -0.00513885
v -0.00076198 0.00113736 -0.00513885
v -0.00095311 0.00116925 -0.00513885
v -0.00114689 0.00116925 -0.00513885
v -0.00133802 0.00113736 -0.00513885
v -0.00152129 0.00107444 -0.00513885
v -0.00169171 0.00098221 -0.00513885
v -0.00184463 0.00086319 -0.00513885
v -0.00197586 0.00072063 -0.00513885
v -0.00208185 0.00055841 -0.00513885
v -0.00215969 0.00038096 -0.00513885
v -0.00220726 0.00019311 -0.00513885
v -0.00222326 0.00000000 -0.00513885
v -0.00220726 -0.00019311 -0.00513885
v -0.00215969 -0.00038096 -0.00513885
v -0.00208185 -0.00055841 -0.00513885
v -0.00197586 -0.00072063 -0.00513885
v -0.00184463 -0.00086319 -0.00513885
v -0.00169171 -0.00098221 -0.00513885
v -0.00152129 -0.00107444 -0.00513885
v -0.00133802 -0.00113736 -0.00513885
v -0.00114689 -0.00116925 -0.00513885
v -0.00095311 -0.00116925 -0.00513885
v -0.00076198 -0.00113736 -0.00513885
v -0.00057871 -0.00107444 -0.00513885
v -0.00040829 -0.00098221 -0.00513885
v -0.00025537 -0.00086319 -0.00513885
v -0.00012414 -0.00072063 -0.00513885
v -0.00001815 -0.00055841 -0.00513885
v 0.00005969 -0.00038096 -0.00513885
v 0.00010726 -0.00019311 -0.00513885
v 0.00012326 0.00000000 -0.00513885
v 0.00125609 -0.00250508 -0.00441374
v -0.00823492 -0.00215102 0.00226880
v -0.00805629 -0.00240526 0.00109554
v 0.00555000 0.00269888 -0.00005628
v 0.00553131 0.00275000 -0.00004934
v 0.00555000 0.00275000 0.00000441
v 0.00527047 -0.00216982 -0.00113613
v 0.00555000 -0.00269888 -0.00005628
v 0.00554140 -0.00109991 -0.00113613
v 0.00555000 -0.00197588 -0.00069529
v 0.00555000 -0.00229502 -0.00045569
v 0.00555000 -0.00103222 -0.00114066
v 0.00493487 -0.00099870 -0.00213958
v 0.00501762 0.00000000 -0.00213958
v 0.00555000 0.00103222 -0.00114066
v 0.00554140 0.00109991 -0.00113613
v 0.00555000 0.00197588 -0.00069529
v 0.00527047 0.00216982 -0.00113613
v 0.00555000 0.00229502 -0.00045569
v 0.00484412 0.00275000 -0.00146573
v 0.00468886 0.00197015 -0.00213958
v 0.00435191 0.00275000 -0.00214785
v 0.00396595 0.00172198 -0.00303450
v 0.00361411 0.00252409 -0.00303450
v 0.00381627 0.00275000 -0.00273188
v 0.00252260 0.00275000 -0.00372486
v 0.00282706 0.00209816 -0.00379882
v 0.00249295 0.00275000 -0.00374243
v 0.00242884 0.00270769 -0.00379882
v 0.00237586 0.00275000 -0.00380992
v 0.00163696 0.00209135 -0.00441374
v 0.00125609 0.00250508 -0.00441374
v 0.00156533 0.00275000 -0.00420016
v 0.00051968 0.00170513 -0.00486412
v 0.00021762 0.00194024 -0.00486412
v 0.00103377 0.00275000 -0.00439043
v -0.00011902 0.00212242 -0.00486412
v 0.00024129 0.00275000 -0.00458831
v -0.00048106 0.00224671 -0.00486412
v -0.00056889 0.00275000 -0.00469223
v -0.00085861 0.00230971 -0.00486412
v -0.00124139 0.00230971 -0.00486412
v -0.00138566 0.00275000 -0.00470075
v -0.00161894 0.00224671 -0.00486412
v -0.00198098 0.00212242 -0.00486412
v -0.00219783 0.00275000 -0.00461378
v -0.00231762 0.00194024 -0.00486412
v -0.00299427 0.00275000 -0.00443248
v -0.00304395 0.00275000 -0.00441787
v -0.00335609 0.00250508 -0.00441374
v -0.00367505 0.00275000 -0.00419622
v -0.00373696 0.00209135 -0.00441374
v -0.00449667 0.00275000 -0.00379815
v -0.00713842 0.00275000 -0.00113980
v -0.00686486 0.00275000 -0.00158799
v -0.00678886 0.00197015 -0.00213958
v -0.00645165 0.00275000 -0.00214817
v -0.00619807 0.00275000 -0.00244127
v -0.00779644 0.00231606 -0.00004883
v -0.00760128 0.00275000 -0.00013290
v -0.00805629 0.00240526 0.00109554
v -0.00797983 0.00275000 0.00145338
v -0.00678886 -0.00197015 -0.00213958
v -0.00606595 -0.00172198 -0.00303450
v -0.00571411 -0.00252409 -0.00303450
v -0.00492706 -0.00209816 -0.00379882
v -0.00452884 -0.00270769 -0.00379882
v -0.00373696 -0.00209135 -0.00441374
v -0.00335609 -0.00250508 -0.00441374
v -0.00261968 -0.00170513 -0.00486412
v -0.00231762 -0.00194024 -0.00486412
v -0.00198098 -0.00212242 -0.00486412
v -0.00161894 -0.00224671 -0.00486412
v -0.00124139 -0.00230971 -0.00486412
v -0.00085861 -0.00230971 -0.00486412
v -0.00048106 -0.00224671 -0.00486412
v -0.00011902 -0.00212242 -0.00486412
v 0.00021762 -0.00194024 -0.00486412
v 0.00242884 -0.00270769 -0.00379882
v 0.00282706 -0.00209816 -0.00379882
v 0.00468886 -0.00197015 -0.00213958
v -0.00835663 -0.00121926 0.00109554
v -0.00802764 0.00275000 0.00226880
v -0.00814363 0.00243525 0.00226880
v -0.00843606 0.00130236 0.00226880
v -0.00835663 0.00121926 0.00109554
v -0.00855000 0.00000000 0.00226880
v -0.00845766 0.00000000 0.00109554
v -0.00853731 -0.00043609 0.00226880
v -0.00844771 -0.00123446 0.00226880
v -0.00808564 0.00117404 -0.00004883
v -0.00818292 0.00000000 -0.00004883
v -0.00808564 -0.00117404 -0.00004883
v -0.00779644 -0.00231606 -0.00004883
v -0.00737047 0.00216982 -0.00113613
v -0.00764140 0.00109991 -0.00113613
v -0.00773254 0.00000000 -0.00113613
v -0.00764140 -0.00109991 -0.00113613
v -0.00737047 -0.00216982 -0.00113613
v -0.00703487 0.00099870 -0.00213958
v -0.00711762 0.00000000 -0.00213958
v -0.00703487 -0.00099870 -0.00213958
v 0.00493487 0.00099870 -0.00213958
v 0.00555000 0.00000000 -0.00129349
v -0.00452884 0.00270769 -0.00379882
v -0.00581080 0.00275000 -0.00283239
v -0.00571411 0.00252409 -0.00303450
v -0.00606595 0.00172198 -0.00303450
v -0.00628097 0.00087289 -0.00303450
v -0.00635330 0.00000000 -0.00303450
v -0.00628097 -0.00087289 -0.00303450
v 0.00361411 -0.00252409 -0.00303450
v 0.00396595 -0.00172198 -0.00303450
v 0.00418097 -0.00087289 -0.00303450
v 0.00425330 0.00000000 -0.00303450
v 0.00418097 0.00087289 -0.00303450
v -0.00492706 0.00209816 -0.00379882
v -0.00521953 0.00143140 -0.00379882
v -0.00539826 0.00072560 -0.00379882
v -0.00545839 0.00000000 -0.00379882
v -0.00539826 -0.00072560 -0.00379882
v -0.00521953 -0.00143140 -0.00379882
v 0.00311953 -0.00143140 -0.00379882
v 0.00329826 -0.00072560 -0.00379882
v 0.00335839 0.00000000 -0.00379882
v 0.00329826 0.00072560 -0.00379882
v 0.00311953 0.00143140 -0.00379882
v -0.00404454 0.00162057 -0.00441374
v -0.00427044 0.00110558 -0.00441374
v -0.00440849 0.00056043 -0.00441374
v -0.00445493 0.00000000 -0.00441374
v -0.00440849 -0.00056043 -0.00441374
v -0.00427044 -0.00110558 -0.00441374
v -0.00404454 -0.00162057 -0.00441374
v 0.00163696 -0.00209135 -0.00441374
v 0.00194454 -0.00162057 -0.00441374
v 0.00217044 -0.00110558 -0.00441374
v 0.00230849 -0.00056043 -0.00441374
v 0.00235493 0.00000000 -0.00441374
v 0.00230849 0.00056043 -0.00441374
v 0.00217044 0.00110558 -0.00441374
v 0.00194454 0.00162057 -0.00441374
v -0.00261968 0.00170513 -0.00486412
v -0.00287893 0.00142351 -0.00486412
v -0.00308829 0.00110307 -0.00486412
v -0.00324205 0.00075253 -0.00486412
v -0.00333602 0.00038147 -0.00486412
v -0.00336763 0.00000000 -0.00486412
v -0.00333602 -0.00038147 -0.00486412
v -0.00324205 -0.00075253 -0.00486412
v -0.00308829 -0.00110307 -0.00486412
v -0.00287893 -0.00142351 -0.00486412
v 0.00051968 -0.00170513 -0.00486412
v 0.00077893 -0.00142351 -0.00486412
v 0.00098829 -0.00110307 -0.00486412
v 0.00114205 -0.00075253 -0.00486412
v 0.00123602 -0.00038147 -0.00486412
v 0.00126763 0.00000000 -0.00486412
v 0.00123602 0.00038147 -0.00486412
v 0.00114205 0.00075253 -0.00486412
v 0.00098829 0.00110307 -0.00486412
v 0.00077893 0.00142351 -0.00486412
v -0.00802764 0.00275000 0.00315947
v -0.00490408 0.00643398 0.00150490
v -0.00441599 0.00670224 0.00183634
v -0.00361515 0.00704769 0.00238016
v -0.00277728 0.00729839 0.00294913
v -0.00224713 0.00740384 0.00330914
v -0.00121516 0.00749720 0.00381095
v -0.00105225 0.00749909 0.00385912
v -0.00064408 0.00748797 0.00394780
v -0.00030420 0.00746176 0.00398842
v -0.00173632 0.00746780 0.00360350
v 0.00555000 0.00356230 0.00558647
v 0.00555000 0.00356230 0.00664967
v 0.00555000 -0.00356230 0.00664967
v 0.00555000 -0.00356230 0.00558647
v 0.00583662 0.00297060 0.00664967
v 0.00633606 0.00130236 0.00664967
v 0.00643731 -0.00043609 0.00664967
v 0.00613492 -0.00215102 0.00664967
v 0.00064000 -0.00710000 -0.00110851
v 0.00110851 -0.00710000 -0.00064000
v 0.00128000 -0.00710000 -0.00000000
v -0.00110851 -0.00710000 -0.00064000
v -0.00064000 -0.00710000 -0.00110851
v -0.00000000 -0.00710000 -0.00128000
v -0.00037829 0.00730000 -0.00165738
v -0.00073760 0.00730000 -0.00153165
v -0.00105993 0.00730000 -0.00132911
v 0.00170000 0.00730000 -0.00000000
v 0.00165738 0.00730000 -0.00037829
v 0.00105993 0.00730000 -0.00132911
v 0.00132911 0.00730000 -0.00105993
v 0.00153165 0.00730000 -0.00073760
v 0.00073760 0.00730000 -0.00153165
v 0.00037829 0.00730000 -0.00165738
v -0.00000000 0.00730000 -0.00170000
v -0.00132911 0.00730000 -0.00105993
v -0.00153165 0.00730000 -0.00073760
v -0.00165738 0.00730000 -0.00037829
v -0.00850608 -0.00080872 0.01974206
v -0.00839508 -0.00151412 0.02025336
v -0.00843610 0.00129963 0.02009870
v -0.00837692 0.00159975 0.02031486
v -0.00823520 -0.00214972 0.02070635
v -0.00817523 0.00234117 0.02084142
v -0.00819036 -0.00229460 0.02080859
v -0.00817523 -0.00234117 0.02084142
v -0.00853733 -0.00043506 0.01946905
v -0.00850187 0.00084651 0.01976961
v -0.00855000 -0.00000000 0.01915094
v -0.00361122 -0.00704912 0.03062897
v -0.00339865 -0.00712277 0.03108482
v -0.00517132 0.00626616 0.02728333
v -0.00441599 0.00670224 0.02890313
v -0.00339865 0.00712277 0.03108482
v -0.00789655 -0.00306183 0.02143906
v -0.00587091 -0.00574533 0.02578305
v -0.00517132 -0.00626616 0.02728333
v -0.00441599 -0.00670224 0.02890313
v -0.00587091 0.00574533 0.02578305
v -0.00650530 0.00514681 0.02442259
v -0.00793662 0.00297060 0.02135312
v -0.00754519 0.00375000 0.02219254
v -0.00706592 0.00447869 0.02322033
v -0.00754519 -0.00375000 0.02219254
v -0.00706592 -0.00447869 0.02322033
v -0.00650530 -0.00514681 0.02442259
v 0.00343205 0.00601363 0.03101113
v 0.00319565 0.00618432 0.03146222
v 0.00319592 0.00295000 0.03146178
v -0.00221025 0.00740903 0.03252941
v -0.00223791 0.00740469 0.03250903
v -0.00332867 0.00714554 0.03122698
v -0.00309629 0.00295000 0.03161554
v -0.00264355 0.00732863 0.03215972
v -0.00278578 0.00729603 0.03201036
v -0.00299857 0.00724237 0.03175191
v -0.00168931 0.00747228 0.03284794
v -0.00113509 0.00295000 0.03307408
v -0.00120885 0.00749815 0.03304981
v -0.00064838 0.00748879 0.03319352
v -0.00105236 0.00749968 0.03309931
v -0.00113505 0.00749928 0.03307410
v 0.00068142 0.00729682 0.03318757
v 0.00009160 0.00295000 0.03324888
v 0.00095971 0.00722521 0.03312511
v 0.00130829 0.00295000 0.03301438
v 0.00038916 0.00736028 0.03322975
v 0.00009243 0.00741245 0.03324886
v -0.00016202 0.00744717 0.03324650
v 0.00201385 0.00684405 0.03266337
v 0.00150930 0.00704969 0.03293286
v 0.00130945 0.00711910 0.03301395
v 0.00238215 0.00295000 0.03239618
v 0.00316399 0.00620620 0.03151288
v 0.00284326 0.00641167 0.03194507
v 0.00244031 0.00663808 0.03234735
v 0.00238230 0.00666803 0.03239606
v 0.00231936 0.00669980 0.03244670
v 0.00374968 0.00576351 0.02945115
v 0.00372145 0.00578755 0.02996183
v 0.00366058 0.00583791 0.03031404
v 0.00362117 0.00586942 0.03047447
v 0.00496338 0.00448277 0.02255634
v 0.00485512 0.00462495 0.02267436
v 0.00520219 0.00414247 0.02231676
v 0.00520219 -0.00414247 0.02231676
v 0.00493607 -0.00451930 0.02258551
v 0.00460233 -0.00493178 0.02297690
v 0.00450846 0.00503757 0.02310030
v 0.00418241 0.00537555 0.02358897
v 0.00389061 0.00564394 0.02413939
v 0.00376234 0.00575308 0.02443561
v 0.00373435 -0.00577627 0.02450665
v 0.00399267 -0.00555344 0.02393072
v 0.00428367 -0.00527525 0.02342580
v 0.00440073 -0.00515416 0.02325058
v 0.00340376 -0.00603470 0.02573586
v 0.00334508 -0.00607748 0.02708910
v 0.00343125 -0.00601437 0.02776578
v 0.00544656 -0.00374731 0.02206374
v 0.00583687 0.00296947 0.02154227
v 0.00580803 0.00303543 0.02158749
v 0.00560628 -0.00345544 0.02187132
v 0.00546707 0.00371150 0.02204037
v 0.00592235 -0.00276300 0.02139975
v 0.00613526 -0.00214989 0.02096937
v 0.00617564 -0.00200985 0.02086998
v 0.00635877 -0.00116436 0.02026350
v 0.00633613 0.00130010 0.02036171
v 0.00632210 -0.00137745 0.02041753
v 0.00627364 0.00161561 0.02058875
v 0.00608635 0.00230703 0.02108052
v 0.00643731 -0.00043553 0.01973248
v 0.00643895 -0.00040644 0.01971122
v 0.00640645 0.00080561 0.02000274
v 0.00645000 -0.00000000 0.01941410
v 0.00373034 -0.00577997 0.02988353
v 0.00374675 -0.00576612 0.02934400
v 0.00324561 -0.00614802 0.03137844
v 0.00348216 -0.00597646 0.03089178
v 0.00319592 -0.00335000 0.03146178
v 0.00364177 -0.00585316 0.03039443
v 0.00366066 -0.00583794 0.03031368
v 0.00251668 -0.00659760 0.03228008
v 0.00290469 -0.00637276 0.03187177
v 0.00238215 -0.00335000 0.03239618
v 0.00307924 -0.00626087 0.03164028
v 0.00319559 -0.00618267 0.03146232
v 0.00130829 -0.00335000 0.03301438
v 0.00130912 -0.00711920 0.03301407
v 0.00151689 -0.00704666 0.03292951
v 0.00161667 -0.00700912 0.03288362
v 0.00209302 -0.00680830 0.03261155
v 0.00238244 -0.00666812 0.03239594
v 0.00116212 -0.00716605 0.03306539
v 0.00059676 -0.00731635 0.03320221
v -0.00113509 -0.00335000 0.03307408
v -0.00105000 -0.00750000 0.03310000
v -0.00049990 -0.00747974 0.03321653
v -0.00017984 -0.00744936 0.03324569
v 0.00005194 -0.00741859 0.03324964
v 0.00009186 -0.00741252 0.03324888
v -0.00192328 -0.00744778 0.03271924
v -0.00144673 -0.00748871 0.03295969
v -0.00113513 -0.00749946 0.03307407
v -0.00223807 -0.00740479 0.03250891
v -0.00223785 -0.00335000 0.03250907
v -0.00238286 -0.00738044 0.03239559
v -0.00309629 -0.00335000 0.03161554
v -0.00277773 -0.00729799 0.03201927
v -0.00313494 -0.00720450 0.03155782
v 0.00142218 -0.00708088 0.02997687
v 0.00129892 -0.00712287 0.03025021
v 0.00002495 -0.00742256 0.03099979
v 0.00038414 -0.00736149 0.03094998
v 0.00074689 -0.00728152 0.03080083
v 0.00103324 -0.00720489 0.03058739
v 0.00126341 -0.00713452 0.03030857
v 0.00149559 -0.00705483 0.02961495
v 0.00150000 -0.00705319 0.02949994
v 0.00147939 -0.00706071 0.02925220
v 0.00137468 -0.00709726 0.02889978
v 0.00075004 -0.00728075 0.02820099
v 0.00094857 -0.00722887 0.02833801
v 0.00119336 -0.00715680 0.02859121
v 0.00129885 -0.00712289 0.02874968
v 0.00064158 -0.00730671 0.02814413
v 0.00029693 -0.00737791 0.02802968
v -0.00074998 -0.00749392 0.02820095
v -0.00041121 -0.00747270 0.02805746
v -0.00005065 -0.00743311 0.02800086
v 0.00000016 -0.00742611 0.02800000
v -0.00129904 -0.00749570 0.02875000
v -0.00120005 -0.00749821 0.02860006
v -0.00076146 -0.00749437 0.02820764
v -0.00149594 -0.00748678 0.02961029
v -0.00150000 -0.00748649 0.02950000
v -0.00148447 -0.00748751 0.02928473
v -0.00138277 -0.00749261 0.02891866
v -0.00142387 -0.00749072 0.02997180
v -0.00129904 -0.00749570 0.03025000
v -0.00074999 -0.00749392 0.03079905
v -0.00099634 -0.00749979 0.03062129
v -0.00126317 -0.00749672 0.03030895
v -0.00000000 -0.00742614 0.03100000
v -0.00036981 -0.00746903 0.03095370
v -0.00070835 -0.00749216 0.03082221
v -0.00036813 0.00746876 0.03146583
v -0.00077225 0.00749483 0.03134489
v -0.00086775 0.00749774 0.03130195
v -0.00147780 0.00748703 0.03084763
v -0.00113858 0.00749950 0.03114428
v -0.00105405 0.00749991 0.03119970
v -0.00194985 0.00744598 0.02994507
v -0.00190694 0.00745096 0.03010298
v -0.00190855 0.00745078 0.02890214
v -0.00194985 0.00744598 0.02905493
v -0.00199077 0.00744086 0.02930805
v -0.00198955 0.00744102 0.02970415
v -0.00174846 0.00746748 0.02852898
v -0.00156367 0.00748234 0.02825303
v -0.00086776 0.00749773 0.02769806
v -0.00118458 0.00749861 0.02788855
v -0.00151086 0.00748578 0.02818954
v -0.00042583 0.00747386 0.02754586
v -0.00082254 0.00749653 0.02767697
v -0.00148609 0.00748731 0.00950000
v -0.00277962 0.00729784 0.00950000
v -0.00320102 0.00718492 0.00950000
v -0.00809770 0.00256515 0.00950000
v -0.00731616 0.00412132 0.00950000
v -0.00619681 0.00545530 0.00950000
v -0.00480000 0.00649519 0.00950000
v -0.00823492 -0.00215102 0.00950000
v -0.00849929 -0.00087070 0.00950000
v -0.00853731 -0.00043609 0.00950000
v -0.00849929 0.00087070 0.00950000
v -0.00843606 0.00130236 0.00950000
v -0.00809770 -0.00256515 0.00950000
v -0.00731616 -0.00412132 0.00950000
v -0.00619681 -0.00545530 0.00950000
v -0.00480000 -0.00649519 0.00950000
v -0.00361515 -0.00704769 0.00950000
v -0.00320102 -0.00718492 0.00950000
v -0.00192070 -0.00744929 0.00950000
v 0.00151515 -0.00704769 0.00950000
v 0.00025236 -0.00738606 0.00950000
v 0.00192060 -0.00688662 0.00950000
v 0.00307132 -0.00626616 0.00950000
v 0.00333781 -0.00608253 0.03002605
v 0.00565224 -0.00336599 0.00950000
v 0.00469533 -0.00482091 0.00950000
v 0.00643731 -0.00043609 0.00950000
v 0.00624784 -0.00172962 0.00950000
v 0.00613492 -0.00215102 0.00950000
v 0.00633606 0.00130236 0.00950000
v 0.00645000 -0.00000000 0.00950000
v 0.00583662 0.00297060 0.00950000
v 0.00624784 0.00172962 0.00950000
v 0.00565224 0.00336599 0.00950000
v -0.00105000 0.00750000 0.00950000
v -0.00855000 0.00000000 0.00900000
v -0.00853731 -0.00043609 0.00900000
v -0.00849929 -0.00087070 0.00900000
v -0.00809770 -0.00256515 0.00900000
v -0.00754519 -0.00375000 0.00900000
v -0.00731616 -0.00412132 0.00900000
v -0.00650530 -0.00514681 0.00900000
v -0.00619681 -0.00545530 0.00900000
v -0.00517132 -0.00626616 0.00900000
v -0.00480000 -0.00649519 0.00900000
v -0.00320102 -0.00718492 0.00900000
v -0.00192070 -0.00744929 0.00900000
v -0.00148609 -0.00748731 0.00900000
v -0.00017930 -0.00744929 0.00900000
v 0.00025236 -0.00738606 0.00900000
v 0.00151515 -0.00704769 0.00900000
v 0.00192060 -0.00688662 0.00900000
v 0.00307132 -0.00626616 0.00900000
v 0.00342869 -0.00601592 0.00900000
v 0.00469533 -0.00482091 0.00900000
v 0.00565224 -0.00336599 0.00900000
v 0.00624784 -0.00172962 0.00900000
v 0.00643731 -0.00043609 0.00900000
v 0.00645000 -0.00000000 0.00900000
v 0.00624784 0.00172962 0.00900000
v 0.00565224 0.00336599 0.00900000
v -0.00105000 0.00750000 0.00900000
v -0.00148609 0.00748731 0.00900000
v -0.00277962 0.00729784 0.00900000
v -0.00320102 0.00718492 0.00900000
v -0.00480000 0.00649519 0.00900000
v -0.00587091 0.00574533 0.00900000
v -0.00619681 0.00545530 0.00900000
v -0.00706592 0.00447869 0.00900000
v -0.00731616 0.00412132 0.00900000
v -0.00793662 0.00297060 0.00900000
v -0.00809770 0.00256515 0.00900000
v -0.00849929 0.00087070 0.00900000
v -0.00000000 -0.00688000 -0.00150000
v -0.00075000 -0.00688000 -0.00129904
v 0.00150000 -0.00688000 -0.00000000
v 0.00129904 -0.00688000 -0.00075000
v 0.00075000 -0.00688000 -0.00129904
v 0.00515773 0.00421091 0.00521173
v 0.00496822 0.00447848 0.00505504
v 0.00468400 0.00483735 0.00484503
v 0.00366529 0.00583280 0.00429036
v 0.00377218 0.00574486 0.00433599
v 0.00419721 0.00536022 0.00454508
v 0.00463035 0.00490016 0.00480846
v -0.00630117 0.00535450 0.00117826
v -0.00587789 0.00573934 0.00116508
v -0.00549609 0.00603950 0.00123140
v -0.00516524 0.00626985 0.00135496
v -0.00708445 0.00445239 0.00146148
v -0.00706580 0.00447778 0.00145001
v -0.00696596 0.00461062 0.00139324
v -0.00669139 0.00494228 0.00127282
v -0.00783162 0.00320306 0.00229595
v -0.00766357 0.00353686 0.00200893
v -0.00757980 0.00368958 0.00189820
v -0.00741571 0.00396548 0.00171958
v -0.00801005 0.00279494 0.00289480
v -0.00795032 0.00293862 0.00260871
v -0.00793806 0.00296718 0.00256759
v -0.00516828 -0.00626784 0.00135350
v -0.00525959 -0.00620676 0.00131282
v -0.00802172 -0.00276523 0.00300566
v -0.00798770 -0.00284934 0.00276176
v -0.00777515 -0.00331996 0.00218673
v -0.00791115 -0.00302908 0.00248686
v -0.00721838 -0.00426604 0.00155256
v -0.00754672 -0.00374671 0.00185854
v -0.00645190 -0.00520220 0.00120498
v -0.00650561 -0.00514586 0.00121742
v -0.00686239 -0.00473974 0.00134200
v -0.00697627 -0.00459648 0.00139876
v -0.00564658 -0.00592589 0.00119610
v -0.00603580 -0.00560284 0.00115948
v -0.00621838 -0.00543457 0.00116858
v 0.00544565 -0.00374955 0.00547940
v 0.00104286 -0.00720213 0.00389546
v 0.00151493 -0.00704778 0.00387134
v 0.00290823 -0.00637013 0.00403916
v 0.00227817 -0.00672065 0.00391835
v 0.00186386 -0.00691055 0.00387961
v 0.00163936 -0.00700114 0.00387175
v 0.00402630 -0.00552265 0.00445551
v 0.00348037 -0.00597731 0.00421760
v 0.00331062 -0.00610208 0.00415746
v 0.00307255 -0.00626516 0.00408345
v 0.00510482 -0.00428881 0.00516654
v 0.00459098 -0.00494670 0.00478220
v 0.00440838 -0.00514706 0.00466665
v -0.00780572 -0.00325734 0.00250906
v -0.00116792 0.00720000 -0.00146453
v -0.00081275 0.00720000 -0.00168770
v -0.00041683 0.00720000 -0.00182624
v -0.00000000 0.00720000 -0.00187321
v 0.00041683 0.00720000 -0.00182624
v 0.00081275 0.00720000 -0.00168770
v 0.00116792 0.00720000 -0.00146453
v 0.00146453 0.00720000 -0.00116792
v 0.00168770 0.00720000 -0.00081275
v 0.00182624 0.00720000 -0.00041683
v 0.00187321 0.00720000 -0.00000000
v -0.00162174 0.00727321 -0.00078099
v -0.00140730 0.00727321 -0.00112228
v -0.00112228 0.00727321 -0.00140730
v -0.00078099 0.00727321 -0.00162174
v -0.00040054 0.00727321 -0.00175487
v -0.00000000 0.00727321 -0.00180000
v 0.00040054 0.00727321 -0.00175487
v 0.00078099 0.00727321 -0.00162174
v 0.00112228 0.00727320 -0.00140730
v 0.00140730 0.00727321 -0.00112228
v 0.00162174 0.00727321 -0.00078099
v 0.00175487 0.00727321 -0.00040054
v 0.00180000 0.00727321 -0.00000000
f 368 367 340
f 434 435 3
f 162 537 160
f 306 618 332
f 332 618 333
f 399 326 327
f 5 6 433
f 94 93 95
f 165 157 77
f 77 157 78
f 302 303 293
f 293 303 304
f 304 294 293
f 293 294 296
f 289 510 482
f 289 293 296
f 441 433 440
f 5 433 441
f 432 4 5
f 130 129 550
f 514 426 485
f 328 390 391
f 305 340 618
f 618 306 305
f 386 306 332
f 340 305 378
f 382 333 334
f 334 333 618
f 323 330 618
f 329 328 618
f 618 330 329
f 329 390 328
f 318 327 446
f 253 496 370
f 618 340 546
f 546 547 618
f 304 573 479
f 479 294 304
f 296 294 295
f 295 480 296
f 9 480 295
f 1 510 10
f 510 289 10
f 440 433 427
f 427 433 6
f 513 444 6
f 440 427 445
f 445 427 6
f 92 93 94
f 94 254 92
f 362 249 543
f 81 543 249
f 81 249 253
f 253 254 81
f 371 372 373
f 373 372 374
f 373 494 367
f 254 494 373
f 157 165 164
f 552 553 607
f 607 551 552
f 181 551 595
f 607 553 239
f 577 295 294
f 172 171 176
f 197 141 139
f 504 505 302
f 572 505 504
f 288 296 481
f 288 289 296
f 481 10 288
f 288 10 289
f 434 436 402
f 402 317 315
f 408 510 1
f 512 3 4
f 434 3 512
f 512 436 434
f 511 3 483
f 483 2 511
f 511 2 3
f 550 129 557
f 135 557 129
f 561 135 137
f 131 130 132
f 550 551 132
f 132 130 550
f 534 561 469
f 382 334 392
f 516 391 486
f 486 391 390
f 388 330 387
f 388 329 330
f 415 414 422
f 307 386 379
f 306 386 307
f 383 333 382
f 340 378 380
f 380 368 340
f 387 330 324
f 449 317 462
f 315 317 449
f 322 326 399
f 457 456 308
f 455 456 457
f 315 458 453
f 308 315 453
f 459 458 315
f 459 449 462
f 315 449 459
f 458 459 248
f 618 605 617
f 340 367 369
f 367 494 369
f 369 494 254
f 360 498 362
f 360 496 253
f 362 543 343
f 350 349 547
f 547 349 548
f 618 547 548
f 548 605 618
f 349 350 338
f 362 343 338
f 338 350 547
f 338 360 362
f 575 576 24
f 304 303 575
f 303 576 575
f 572 78 34
f 34 169 24
f 78 169 34
f 567 293 477
f 293 570 594
f 569 78 572
f 569 594 570
f 572 504 569
f 569 504 302
f 302 293 569
f 293 594 569
f 3 2 261
f 4 3 261
f 261 577 33
f 261 2 1
f 353 352 587
f 484 515 586
f 509 480 9
f 9 10 509
f 509 10 296
f 296 480 509
f 6 444 428
f 255 92 254
f 11 255 256
f 256 255 521
f 79 254 94
f 79 81 254
f 543 81 544
f 95 603 80
f 81 79 80
f 94 95 80
f 80 79 94
f 363 381 361
f 346 490 345
f 371 373 366
f 367 368 366
f 366 373 367
f 368 521 366
f 521 255 366
f 233 234 215
f 215 234 216
f 217 102 216
f 232 233 213
f 168 78 157
f 168 169 78
f 532 551 550
f 550 470 532
f 532 470 551
f 531 552 551
f 607 239 606
f 606 239 240
f 606 240 241
f 530 239 471
f 240 239 530
f 25 31 573
f 25 575 24
f 24 169 25
f 139 141 140
f 140 141 33
f 294 479 578
f 578 577 294
f 33 577 32
f 32 140 33
f 32 578 31
f 577 578 32
f 139 140 32
f 9 508 565
f 508 295 566
f 295 577 566
f 566 565 508
f 577 261 566
f 261 565 566
f 600 105 108
f 108 111 600
f 237 217 236
f 33 141 142
f 186 197 139
f 478 303 302
f 302 505 478
f 299 282 293
f 403 432 5
f 316 317 403
f 317 402 403
f 409 289 482
f 482 510 409
f 510 408 409
f 1 2 404
f 431 437 4
f 438 402 436
f 436 512 438
f 438 512 4
f 4 437 438
f 170 135 129
f 131 171 170
f 170 130 131
f 129 130 170
f 556 135 555
f 557 135 556
f 556 555 533
f 135 170 134
f 555 135 554
f 135 561 554
f 561 534 554
f 533 555 554
f 554 534 469
f 133 183 131
f 131 132 133
f 133 551 181
f 133 132 551
f 536 158 159
f 159 158 137
f 391 392 336
f 328 391 336
f 618 328 336
f 400 485 426
f 514 485 400
f 400 322 399
f 400 325 326
f 326 322 400
f 376 587 352
f 351 587 376
f 517 386 385
f 385 386 332
f 332 333 385
f 333 383 385
f 377 488 378
f 377 378 305
f 379 386 377
f 377 307 379
f 377 305 306
f 306 307 377
f 355 488 356
f 488 377 356
f 378 488 357
f 357 488 355
f 320 317 316
f 316 319 320
f 455 457 452
f 452 457 308
f 308 453 452
f 454 453 458
f 458 248 454
f 454 248 455
f 455 452 454
f 454 452 453
f 243 456 455
f 455 248 243
f 308 456 243
f 317 461 244
f 527 459 462
f 527 248 459
f 527 244 248
f 317 244 527
f 600 111 599
f 115 598 599
f 81 80 604
f 604 80 603
f 549 81 604
f 604 548 549
f 604 617 605
f 605 548 604
f 608 264 609
f 609 595 608
f 608 551 607
f 608 595 551
f 529 242 241
f 250 249 362
f 362 498 250
f 253 249 525
f 525 360 253
f 498 360 525
f 524 369 254
f 524 254 253
f 253 370 524
f 359 370 496
f 496 360 359
f 347 338 342
f 549 548 347
f 342 338 341
f 341 338 343
f 341 544 342
f 341 343 543
f 543 544 341
f 572 34 571
f 571 505 572
f 24 576 571
f 571 34 24
f 571 576 303
f 303 478 571
f 571 478 505
f 568 570 293
f 293 567 568
f 78 569 35
f 35 569 570
f 77 78 35
f 570 568 35
f 35 568 567
f 35 503 77
f 260 10 9
f 9 565 260
f 260 565 261
f 1 10 260
f 260 261 1
f 542 28 29
f 21 15 538
f 538 15 16
f 16 17 538
f 538 17 18
f 257 6 5
f 257 258 6
f 257 538 542
f 518 357 355
f 583 383 382
f 517 383 583
f 6 258 7
f 7 8 514
f 7 513 6
f 7 429 513
f 7 400 399
f 514 400 7
f 422 8 581
f 415 422 581
f 581 423 415
f 421 422 414
f 414 8 421
f 421 8 422
f 394 323 321
f 321 325 394
f 325 400 394
f 372 255 523
f 523 373 374
f 254 373 523
f 523 255 254
f 363 361 489
f 363 256 493
f 342 544 545
f 549 347 545
f 545 347 342
f 545 81 549
f 545 544 81
f 602 95 97
f 602 603 95
f 100 602 97
f 601 602 100
f 613 601 600
f 371 366 491
f 491 372 371
f 99 102 101
f 101 100 99
f 601 100 101
f 600 601 101
f 104 101 102
f 235 216 234
f 236 217 235
f 217 216 235
f 215 216 201
f 16 15 148
f 286 537 162
f 278 277 165
f 278 165 77
f 502 164 165
f 502 277 164
f 574 25 573
f 575 25 574
f 573 506 574
f 574 506 575
f 169 168 174
f 174 25 169
f 31 25 174
f 579 479 573
f 573 31 579
f 31 578 579
f 217 237 106
f 106 108 105
f 105 104 106
f 106 102 217
f 106 104 102
f 109 110 111
f 109 106 237
f 539 142 20
f 539 20 21
f 539 261 33
f 33 142 539
f 21 538 539
f 539 538 261
f 182 133 181
f 183 133 182
f 175 185 176
f 175 171 131
f 175 176 171
f 195 185 194
f 186 185 195
f 121 597 598
f 282 299 468
f 536 159 468
f 468 159 282
f 158 564 558
f 137 158 558
f 560 561 137
f 301 554 469
f 533 554 301
f 301 556 533
f 557 556 301
f 301 299 293
f 396 441 440
f 318 319 396
f 319 403 396
f 395 319 316
f 316 403 395
f 395 403 319
f 406 408 1
f 1 404 406
f 401 2 483
f 401 404 2
f 483 3 401
f 401 3 435
f 401 435 434
f 434 402 401
f 401 402 315
f 401 315 308
f 308 404 401
f 439 403 402
f 402 438 439
f 437 431 439
f 439 438 437
f 162 160 161
f 563 564 158
f 335 392 334
f 335 334 618
f 618 336 335
f 390 329 389
f 329 388 389
f 415 423 393
f 393 414 415
f 393 394 414
f 323 394 393
f 393 388 387
f 387 324 393
f 330 323 393
f 393 324 330
f 381 351 375
f 351 376 375
f 346 345 375
f 375 354 346
f 353 354 375
f 375 361 381
f 358 361 375
f 375 352 353
f 375 376 352
f 487 383 517
f 517 385 487
f 487 385 383
f 450 461 317
f 317 320 450
f 450 244 461
f 318 246 447
f 246 464 447
f 463 247 246
f 318 446 463
f 463 246 318
f 246 247 266
f 247 463 266
f 618 617 266
f 266 463 446
f 266 325 321
f 326 325 266
f 266 446 327
f 321 323 266
f 266 323 618
f 266 327 326
f 275 243 248
f 275 606 241
f 265 244 264
f 264 608 265
f 462 317 465
f 465 527 462
f 317 527 465
f 115 599 113
f 113 599 111
f 113 112 115
f 111 110 113
f 110 112 113
f 273 244 245
f 610 611 598
f 598 597 610
f 528 466 242
f 370 369 497
f 497 524 370
f 369 524 497
f 360 338 339
f 339 359 360
f 339 546 340
f 370 359 339
f 547 546 339
f 339 338 547
f 340 369 339
f 339 369 370
f 348 548 349
f 348 347 548
f 338 347 348
f 36 567 477
f 36 35 567
f 12 542 23
f 12 23 187
f 187 188 12
f 28 542 19
f 542 538 19
f 19 538 18
f 18 153 19
f 261 538 262
f 538 257 262
f 4 261 262
f 5 4 262
f 262 257 5
f 11 591 592
f 592 490 346
f 346 354 592
f 580 591 11
f 345 591 344
f 358 375 344
f 344 375 345
f 344 580 358
f 591 580 344
f 588 587 351
f 588 351 381
f 381 380 588
f 588 380 378
f 378 357 588
f 357 518 588
f 259 581 8
f 259 7 258
f 8 7 259
f 259 540 587
f 587 588 259
f 582 586 515
f 582 259 586
f 581 259 582
f 8 394 413
f 413 426 514
f 514 8 413
f 413 400 426
f 413 394 400
f 425 8 414
f 414 394 425
f 425 394 8
f 412 7 399
f 399 443 412
f 429 7 430
f 430 443 429
f 7 412 430
f 430 412 443
f 374 372 495
f 372 523 495
f 492 521 368
f 245 246 269
f 246 270 269
f 271 613 272
f 611 273 272
f 245 271 272
f 272 273 245
f 612 599 598
f 598 611 612
f 600 599 612
f 612 613 600
f 611 272 612
f 612 272 613
f 522 366 255
f 522 491 366
f 522 255 372
f 372 491 522
f 103 104 105
f 101 104 103
f 103 105 600
f 600 101 103
f 23 542 22
f 542 154 22
f 187 23 22
f 202 216 102
f 202 201 216
f 200 201 190
f 97 95 96
f 96 95 93
f 96 100 97
f 92 255 90
f 189 188 198
f 146 15 21
f 16 148 149
f 205 195 194
f 236 235 40
f 235 37 40
f 230 210 229
f 211 210 230
f 232 213 212
f 212 231 232
f 212 230 231
f 211 230 212
f 155 22 154
f 155 212 198
f 211 212 155
f 154 210 155
f 155 210 211
f 187 22 155
f 155 188 187
f 198 188 155
f 228 19 153
f 229 210 228
f 74 233 232
f 537 286 475
f 472 278 77
f 280 160 476
f 280 159 160
f 282 159 280
f 279 286 277
f 277 278 279
f 278 280 279
f 279 280 476
f 476 475 279
f 279 475 286
f 165 277 473
f 473 502 165
f 277 502 473
f 173 174 168
f 172 176 173
f 31 174 138
f 139 32 138
f 138 32 31
f 138 186 139
f 174 173 138
f 507 578 479
f 479 579 507
f 507 579 578
f 111 108 107
f 108 106 107
f 107 109 111
f 106 109 107
f 185 175 184
f 194 185 184
f 131 183 184
f 184 175 131
f 184 193 194
f 183 193 184
f 197 186 196
f 186 195 196
f 596 597 124
f 609 610 596
f 596 610 597
f 596 595 609
f 118 598 115
f 118 121 598
f 124 597 123
f 597 121 123
f 125 124 123
f 125 123 218
f 238 468 299
f 535 558 564
f 564 563 535
f 300 558 299
f 300 301 469
f 299 301 300
f 469 561 300
f 561 560 300
f 557 301 298
f 298 470 550
f 550 557 298
f 440 445 397
f 397 396 440
f 397 428 444
f 397 445 6
f 6 428 397
f 318 396 397
f 397 327 318
f 432 403 442
f 403 439 442
f 442 439 431
f 4 432 442
f 442 431 4
f 137 135 136
f 135 134 136
f 136 159 137
f 160 159 136
f 136 161 160
f 166 170 171
f 166 134 170
f 166 136 134
f 161 136 166
f 162 161 163
f 163 164 162
f 157 164 163
f 384 336 392
f 392 335 384
f 410 389 388
f 419 389 410
f 388 420 410
f 410 582 419
f 420 582 410
f 484 586 418
f 418 586 390
f 390 389 418
f 424 582 420
f 581 582 424
f 388 393 416
f 416 393 423
f 423 581 416
f 581 424 416
f 245 244 526
f 244 450 526
f 526 460 464
f 526 246 245
f 526 464 246
f 451 320 319
f 451 450 320
f 464 460 448
f 448 447 464
f 448 451 319
f 448 319 318
f 318 447 448
f 460 526 448
f 267 270 246
f 246 266 267
f 617 270 267
f 267 266 617
f 242 243 276
f 243 275 276
f 241 242 276
f 276 275 241
f 274 275 248
f 248 244 274
f 244 265 274
f 607 606 274
f 606 275 274
f 274 608 607
f 274 265 608
f 263 273 611
f 611 610 263
f 264 244 263
f 244 273 263
f 609 264 263
f 263 610 609
f 349 338 337
f 337 348 349
f 338 348 337
f 542 12 541
f 258 257 541
f 541 257 542
f 12 13 541
f 541 13 14
f 11 587 541
f 587 540 541
f 541 259 258
f 540 259 541
f 593 587 11
f 11 592 593
f 353 587 593
f 593 592 354
f 593 354 353
f 490 592 519
f 519 592 591
f 519 345 490
f 519 591 345
f 11 256 252
f 252 580 11
f 584 259 583
f 584 391 516
f 584 392 391
f 382 392 584
f 584 583 382
f 589 259 588
f 589 588 518
f 589 356 377
f 589 377 386
f 355 356 589
f 589 518 355
f 365 256 521
f 521 492 365
f 365 492 368
f 368 380 365
f 268 271 245
f 245 269 268
f 616 269 270
f 616 270 617
f 603 602 616
f 616 604 603
f 617 604 616
f 98 102 99
f 98 202 102
f 99 100 98
f 100 96 98
f 214 233 215
f 214 213 233
f 215 201 214
f 201 200 214
f 93 92 91
f 92 90 91
f 91 96 93
f 26 541 14
f 179 90 255
f 87 179 255
f 199 200 190
f 190 189 199
f 199 189 198
f 198 212 199
f 199 212 213
f 213 214 199
f 199 214 200
f 190 89 88
f 88 189 190
f 88 87 84
f 89 179 88
f 179 87 88
f 147 148 15
f 15 146 147
f 66 151 150
f 150 151 17
f 150 17 16
f 16 149 150
f 143 142 141
f 20 142 143
f 41 237 236
f 236 40 41
f 29 210 30
f 30 210 154
f 30 542 29
f 30 154 542
f 29 28 76
f 76 210 29
f 76 228 210
f 28 19 76
f 19 228 76
f 151 68 152
f 152 153 18
f 18 17 152
f 17 151 152
f 69 228 153
f 70 228 69
f 153 152 69
f 69 152 68
f 67 151 66
f 67 68 151
f 232 231 73
f 73 74 232
f 231 230 73
f 233 74 75
f 500 286 162
f 162 287 500
f 500 287 286
f 277 286 285
f 286 287 285
f 283 472 77
f 177 173 176
f 177 138 173
f 186 138 177
f 176 185 177
f 177 185 186
f 182 180 192
f 192 193 183
f 183 182 192
f 180 203 192
f 126 124 125
f 126 596 124
f 207 196 195
f 116 118 115
f 122 123 121
f 122 218 123
f 299 563 562
f 562 238 299
f 158 238 562
f 562 563 158
f 558 300 559
f 559 300 560
f 137 558 559
f 559 560 137
f 470 298 297
f 551 470 297
f 297 531 551
f 552 531 297
f 297 298 301
f 398 397 444
f 398 443 399
f 399 327 398
f 327 397 398
f 429 443 398
f 444 513 398
f 513 429 398
f 405 404 308
f 161 166 167
f 167 163 161
f 167 171 172
f 167 166 171
f 172 173 167
f 167 173 168
f 167 168 157
f 157 163 167
f 331 335 336
f 336 384 331
f 331 384 335
f 417 389 419
f 417 418 389
f 484 418 417
f 417 515 484
f 417 582 515
f 419 582 417
f 411 420 388
f 411 424 420
f 388 416 411
f 411 416 424
f 499 526 450
f 450 451 499
f 499 448 526
f 451 448 499
f 520 252 256
f 520 256 363
f 363 489 520
f 520 489 361
f 361 252 520
f 251 361 358
f 251 252 361
f 358 580 251
f 580 252 251
f 585 584 516
f 516 486 585
f 586 259 585
f 259 584 585
f 585 486 390
f 390 586 585
f 590 386 517
f 590 589 386
f 517 583 590
f 583 259 590
f 259 589 590
f 364 493 256
f 256 365 364
f 363 493 364
f 364 381 363
f 364 380 381
f 364 365 380
f 615 268 269
f 615 602 601
f 615 616 602
f 269 616 615
f 201 202 191
f 202 98 191
f 190 201 191
f 191 98 96
f 96 91 178
f 178 91 90
f 178 191 96
f 178 179 89
f 90 179 178
f 178 89 190
f 190 191 178
f 11 541 27
f 541 26 27
f 26 82 27
f 188 189 156
f 189 88 156
f 156 12 188
f 156 13 12
f 14 13 156
f 156 26 14
f 156 82 26
f 84 82 156
f 156 88 84
f 222 205 204
f 194 193 204
f 204 205 194
f 193 192 204
f 204 192 203
f 125 218 127
f 127 126 125
f 127 203 180
f 180 126 127
f 220 204 203
f 203 127 220
f 21 20 144
f 20 143 144
f 42 109 237
f 237 41 42
f 229 228 71
f 71 228 70
f 71 230 229
f 234 233 38
f 233 75 38
f 38 235 234
f 38 37 235
f 474 285 287
f 277 285 474
f 278 472 281
f 472 283 281
f 281 280 278
f 282 280 281
f 281 283 282
f 293 282 284
f 282 283 284
f 477 293 284
f 284 503 477
f 77 503 284
f 284 283 77
f 128 126 180
f 596 126 128
f 595 596 128
f 181 595 128
f 128 182 181
f 128 180 182
f 197 196 208
f 196 207 208
f 141 197 208
f 208 207 224
f 195 205 206
f 206 207 195
f 115 112 114
f 114 116 115
f 121 118 119
f 553 552 290
f 552 297 290
f 471 239 290
f 290 239 553
f 268 615 614
f 614 613 271
f 271 268 614
f 601 613 614
f 614 615 601
f 86 27 82
f 222 204 221
f 204 220 221
f 145 146 21
f 21 144 145
f 145 144 143
f 148 147 64
f 147 63 64
f 64 149 148
f 62 147 146
f 62 63 147
f 146 145 62
f 226 208 225
f 225 208 224
f 226 225 59
f 59 225 58
f 110 109 43
f 109 42 43
f 43 112 110
f 72 73 230
f 230 71 72
f 501 287 162
f 501 474 287
f 162 164 501
f 164 277 501
f 277 474 501
f 209 143 141
f 141 208 209
f 226 143 209
f 209 208 226
f 224 207 223
f 207 206 223
f 222 56 223
f 223 56 224
f 223 205 222
f 223 206 205
f 120 122 121
f 121 119 120
f 118 116 117
f 117 119 118
f 471 290 291
f 240 530 291
f 291 530 471
f 241 240 291
f 291 301 293
f 291 297 301
f 291 290 297
f 11 27 83
f 27 86 83
f 83 255 11
f 83 86 255
f 85 82 84
f 85 86 82
f 84 87 85
f 85 87 255
f 255 86 85
f 227 143 226
f 227 145 143
f 60 145 227
f 227 59 60
f 226 59 227
f 149 64 65
f 61 145 60
f 61 62 145
f 224 56 57
f 57 225 224
f 58 225 57
f 222 221 55
f 55 56 222
f 45 114 112
f 312 243 242
f 242 466 312
f 408 406 312
f 241 291 292
f 292 529 241
f 293 289 292
f 292 291 293
f 53 221 220
f 112 43 44
f 44 45 112
f 48 120 119
f 119 117 48
f 308 243 309
f 243 312 309
f 309 312 406
f 309 405 308
f 309 406 404
f 404 405 309
f 467 529 310
f 529 292 310
f 289 409 310
f 310 292 289
f 54 55 221
f 221 53 54
f 219 53 220
f 219 127 218
f 219 220 127
f 122 120 50
f 218 122 50
f 50 51 218
f 116 114 46
f 114 45 46
f 467 310 314
f 314 529 467
f 466 528 314
f 242 529 314
f 314 528 242
f 53 219 52
f 52 219 218
f 218 51 52
f 120 48 49
f 49 50 120
f 47 48 117
f 313 312 466
f 466 314 313
f 408 312 313
f 313 314 408
f 311 310 409
f 311 314 310
f 70 69 39
f 39 42 41
f 39 40 37
f 39 41 40
f 39 67 66
f 39 71 70
f 37 38 39
f 39 69 68
f 68 67 39
f 74 73 39
f 39 75 74
f 73 72 39
f 66 65 39
f 60 59 39
f 39 43 42
f 39 38 75
f 39 64 63
f 63 62 39
f 39 59 58
f 39 61 60
f 58 57 39
f 39 72 71
f 39 65 64
f 62 61 39
f 39 57 56
f 56 55 39
f 53 52 39
f 39 44 43
f 45 44 39
f 55 54 39
f 39 54 53
f 39 46 45
f 51 50 39
f 39 49 48
f 39 52 51
f 50 49 39
f 39 47 46
f 48 47 39
f 407 311 409
f 314 311 407
f 407 409 408
f 408 314 407
f 295 508 9
f 481 296 10
f 525 250 498
f 249 250 525
f 506 573 304
f 304 575 506
f 396 403 5
f 5 441 396
f 503 35 36
f 477 503 36
f 475 160 537
f 476 160 475
f 536 468 238
f 238 158 536
f 299 558 535
f 535 563 299
f 66 150 65
f 65 150 149
f 47 117 116
f 116 46 47

