# https://github.com/mikedh/trimesh
v 0.00149550 0.00295000 0.02948200
v 0.00370442 0.00295000 0.02948200
v 0.00006091 0.00295000 0.03098358
v 0.00006055 0.00295044 0.02444284
v 0.00366059 0.00295044 0.03031296
v 0.00319556 0.00295044 0.03146112
v 0.00238175 0.00295044 0.03239551
v 0.00130861 0.00295044 0.03301356
v 0.00075050 0.00295000 0.03079912
v 0.00365661 0.00295044 0.02444284
v 0.00372615 0.00295044 0.02907946
v 0.00006091 0.00295000 0.03109305
v 0.00006055 0.00741498 0.02444284
v 0.00006055 0.00295044 0.02801663
v 0.00372108 0.00578718 0.02996127
v 0.00366023 0.00583746 0.03031382
v 0.00362076 0.00586894 0.03047415
v 0.00343170 0.00601323 0.03101117
v 0.00374643 0.00566257 0.02948114
v 0.00319520 0.00618375 0.03146198
v 0.00316369 0.00620561 0.03151198
v 0.00284280 0.00641111 0.03194470
v 0.00244006 0.00663759 0.03234724
v 0.00238211 0.00666732 0.03239551
v 0.00231909 0.00669924 0.03244637
v 0.00201341 0.00684353 0.03266273
v 0.00150962 0.00704902 0.03293167
v 0.00131006 0.00711854 0.03301356
v 0.00096020 0.00722435 0.03312475
v 0.00068205 0.00729606 0.03318682
v 0.00009206 0.00295044 0.03324802
v 0.00375947 0.00305013 0.02444284
v 0.00374933 0.00576313 0.02945011
v 0.00006091 0.00295044 0.03324371
v 0.00047850 0.00734153 0.02444284
v 0.00006055 0.00741542 0.02750633
v 0.00006091 0.00741673 0.03264549
v 0.00009278 0.00741192 0.03324802
v 0.00043685 0.00735028 0.02754857
v 0.00006055 0.00529923 0.02801663
v 0.00006091 0.00741673 0.03324802
v 0.00375983 0.00575483 0.02444284
v 0.00364683 0.00584664 0.02474798
v 0.00347733 0.00597912 0.02535137
v 0.00348240 0.00597519 0.02801318
v 0.00338643 0.00604689 0.02585046
v 0.00336796 0.00606045 0.02600045
v 0.00337013 0.00605870 0.02736238
v 0.00332993 0.00608756 0.02668659
v 0.00300397 0.00630923 0.03040347
v 0.00231800 0.00670055 0.02444284
v 0.00199059 0.00685533 0.02948114
v 0.00194967 0.00687369 0.02994489
v 0.00191345 0.00688900 0.03008108
v 0.00177582 0.00694671 0.03042071
v 0.00176460 0.00695196 0.02855709
v 0.00156395 0.00702891 0.03074740
v 0.00154548 0.00703591 0.03076981
v 0.00156395 0.00702935 0.02825281
v 0.00153896 0.00703853 0.02822264
v 0.00123582 0.00714259 0.03107237
v 0.00121807 0.00714828 0.02791405
v 0.00086495 0.00725102 0.02769683
v 0.00085734 0.00725277 0.03130683
v 0.00038941 0.00735946 0.03322905
v 0.00068386 0.00729650 0.03137923
v 0.00043540 0.00735071 0.03145164
v 0.00376056 0.00573996 0.02444284
v 0.00068277 0.00729650 0.02444284
v 0.00068349 0.00729650 0.02762098
v 0.00364212 0.00585014 0.02444284
v 0.00341033 0.00602022 0.02444284
v 0.00329443 0.00610330 0.02444284
v 0.00326836 0.00612122 0.02444284
v 0.00319773 0.00616757 0.02444284
v 0.00207064 0.00681773 0.02444284
v 0.00199059 0.00685533 0.02930788
v 0.00194931 0.00687369 0.02905360
v 0.00191345 0.00688900 0.02891827
v 0.00188375 0.00689774 0.02444284
v 0.00171715 0.00696289 0.02444284
v 0.00169614 0.00697076 0.02444284
v 0.00142560 0.00706389 0.02444284
v 0.00105364 0.00718588 0.02444284
v 0.00203550 0.00683303 0.02444284
v 0.00200581 0.00684571 0.02444284
f 1 2 9
f 1 9 12
f 1 12 3
f 1 3 4
f 1 4 10
f 1 10 2
f 2 5 6
f 2 6 7
f 2 7 8
f 2 8 9
f 2 10 11
f 2 11 5
f 3 12 14
f 3 14 4
f 4 13 35
f 4 35 69
f 4 69 84
f 4 84 83
f 4 83 82
f 4 82 81
f 4 81 80
f 4 80 86
f 4 86 85
f 4 85 76
f 4 76 51
f 4 51 75
f 4 75 74
f 4 74 73
f 4 73 72
f 4 72 71
f 4 71 42
f 4 42 68
f 4 68 32
f 4 32 10
f 4 14 40
f 4 40 36
f 4 36 13
f 5 15 16
f 5 16 17
f 5 17 18
f 5 18 6
f 5 11 19
f 5 19 15
f 6 20 21
f 6 21 22
f 6 22 7
f 6 18 20
f 7 22 23
f 7 23 24
f 7 24 25
f 7 25 26
f 7 26 8
f 8 26 27
f 8 27 28
f 8 28 29
f 8 29 30
f 8 30 31
f 8 31 12
f 8 12 9
f 10 32 11
f 11 32 33
f 11 33 19
f 12 31 34
f 12 34 14
f 13 36 37
f 13 37 38
f 13 38 39
f 13 39 35
f 14 34 41
f 14 41 40
f 15 19 33
f 15 33 42
f 15 42 16
f 16 42 43
f 16 43 17
f 17 43 44
f 17 44 45
f 17 45 18
f 18 45 44
f 18 44 46
f 18 46 47
f 18 47 48
f 18 48 20
f 20 48 47
f 20 47 49
f 20 49 21
f 21 50 22
f 21 49 50
f 22 50 51
f 22 51 23
f 23 51 24
f 24 51 25
f 25 52 26
f 25 51 52
f 26 52 53
f 26 53 54
f 26 54 55
f 26 55 27
f 27 55 56
f 27 56 57
f 27 57 58
f 27 58 59
f 27 59 60
f 27 60 28
f 28 61 29
f 28 60 62
f 28 62 61
f 29 61 62
f 29 62 63
f 29 63 64
f 29 64 30
f 30 65 31
f 30 64 66
f 30 66 67
f 30 67 65
f 31 65 38
f 31 38 41
f 31 41 34
f 32 68 33
f 33 68 42
f 35 39 67
f 35 67 66
f 35 66 70
f 35 70 69
f 36 40 41
f 36 41 37
f 37 41 38
f 38 65 39
f 39 65 67
f 42 71 43
f 43 71 44
f 44 71 72
f 44 72 73
f 44 73 46
f 46 73 47
f 47 73 74
f 47 74 49
f 49 74 75
f 49 75 50
f 50 75 51
f 51 76 52
f 52 76 77
f 52 77 53
f 53 77 78
f 53 78 79
f 53 79 56
f 53 56 54
f 54 56 55
f 56 79 80
f 56 80 81
f 56 81 59
f 56 59 57
f 57 59 58
f 59 81 82
f 59 82 60
f 60 82 62
f 62 82 83
f 62 83 84
f 62 84 69
f 62 69 63
f 63 69 70
f 63 70 66
f 63 66 64
f 76 85 78
f 76 78 77
f 78 85 79
f 79 85 86
f 79 86 80

