# https://github.com/mikedh/trimesh
v 0.00270682 -0.00754925 0.00380823
v 0.00289713 -0.00750470 0.00336600
v 0.00270682 -0.00754925 0.00397298
v 0.00270623 -0.00337462 0.00260873
v 0.00270682 -0.00754511 0.00336600
v 0.00286918 -0.00749745 0.00307697
v 0.00311717 -0.00744875 0.00336600
v 0.00289654 -0.00750470 0.01876875
v 0.00270682 -0.00754822 0.00661477
v 0.00270623 -0.00337462 0.02832429
v 0.00270682 -0.00751195 0.00306541
v 0.00270623 -0.00299125 -0.00063715
v 0.00391229 -0.00710267 0.00216361
v 0.00416861 -0.00706123 0.00219541
v 0.00391229 -0.00717106 0.00248444
v 0.00347221 -0.00733477 0.00292667
v 0.00347221 -0.00733477 0.00336600
v 0.00311658 -0.00744667 0.01876875
v 0.00289535 -0.00750470 0.01921097
v 0.00270682 -0.00754718 0.00793567
v 0.00270682 -0.00751817 0.02757569
v 0.00270682 -0.00751610 0.02770286
v 0.00270682 -0.00749848 0.02793409
v 0.00270682 -0.00745186 0.02815376
v 0.00270682 -0.00726017 0.02827515
v 0.00270682 -0.00715241 0.02829250
v 0.00270682 -0.00682292 0.02832429
v 0.00270623 0.00301010 0.02840233
v 0.00270682 -0.00754200 0.01233769
v 0.00270682 -0.00753889 0.01497370
v 0.00270682 -0.00718557 0.00275903
v 0.00358342 -0.00710578 0.00219541
v 0.00270623 0.00299145 -0.00063715
v 0.00695361 -0.00299125 -0.00063715
v 0.00498395 -0.00660740 0.00138032
v 0.00502201 -0.00660740 0.00138032
v 0.00418705 -0.00706952 0.00248444
v 0.00503747 -0.00661776 0.00160577
v 0.00479245 -0.00676178 0.00204511
v 0.00391229 -0.00717728 0.00292667
v 0.00347221 -0.00731716 0.02757569
v 0.00311539 -0.00744667 0.01921097
v 0.00311420 -0.00744667 0.01964742
v 0.00308268 -0.00744667 0.02757569
v 0.00286264 -0.00749330 0.02757569
v 0.00284539 -0.00749019 0.02786183
v 0.00300834 -0.00741145 0.02800924
v 0.00347221 -0.00727571 0.02801502
v 0.00381833 -0.00708920 0.02827515
v 0.00347221 -0.00713894 0.02829539
v 0.00303153 -0.00719075 0.02828961
v 0.00611211 -0.00466152 0.02889080
v 0.00580702 -0.00452164 0.02889080
v 0.00566905 -0.00419214 0.02889080
v 0.00542701 -0.00355802 0.02889080
v 0.00536218 -0.00337566 0.02889080
v 0.00325930 0.00267854 0.02889080
v 0.00313561 0.00303601 0.02889080
v 0.00270623 0.00303601 0.02840233
v 0.00697205 0.00303601 -0.00061114
v 0.00697086 0.00302875 -0.00063715
v 0.00270623 0.00303601 0.00227923
v 0.00301012 0.00303601 0.00202488
v 0.00482695 0.00303601 0.00076757
v 0.00612935 0.00303601 -0.00012844
v 0.00699286 -0.00298918 -0.00063715
v 0.00590753 -0.00573289 0.00094099
v 0.00554357 -0.00622920 0.00128783
v 0.00558817 -0.00626236 0.00160577
v 0.00525751 -0.00648202 0.00160577
v 0.00440709 -0.00696072 0.00248444
v 0.00418705 -0.00706952 0.00424467
v 0.00504758 -0.00662398 0.00204511
v 0.00479245 -0.00675764 0.01612985
v 0.00440709 -0.00696072 0.00424467
v 0.00412579 -0.00704051 0.02757569
v 0.00411390 -0.00703014 0.02801502
v 0.00389326 -0.00712236 0.02801502
v 0.00502736 -0.00661361 0.02824625
v 0.00479245 -0.00666542 0.02829250
v 0.00699286 -0.00445429 0.02889080
v 0.00658846 -0.00460349 0.02889080
v 0.00816265 0.00303601 0.02889080
v 0.00741689 0.00303601 -0.00055911
v 0.00748290 0.00290131 -0.00063715
v 0.00745436 -0.00283065 -0.00063715
v 0.00621439 -0.00559612 0.00116355
v 0.00599435 -0.00580853 0.00116355
v 0.00746565 -0.00282547 -0.00063715
v 0.00767261 -0.00265968 -0.00063715
v 0.00607464 -0.00587795 0.00160577
v 0.00580821 -0.00609761 0.00160577
v 0.00580524 -0.00609658 0.00336600
v 0.00503747 -0.00661983 0.02757569
v 0.00526762 -0.00648099 0.00204511
v 0.00440649 -0.00696072 0.00468690
v 0.00479245 -0.00674417 0.02757569
v 0.00435237 -0.00694414 0.02757569
v 0.00435237 -0.00692757 0.02801502
v 0.00554535 -0.00623335 0.02801502
v 0.00605323 -0.00584583 0.02801502
v 0.00627327 -0.00567590 0.02801502
v 0.00551383 -0.00620952 0.02828382
v 0.00741689 -0.00421908 0.02889080
v 0.00479245 -0.00673692 0.02801502
v 0.00503569 -0.00661879 0.02801502
v 0.00525573 -0.00645301 0.02801502
v 0.00823520 0.00286090 0.02889080
v 0.00816384 0.00303601 0.01568473
v 0.00761433 0.00303601 -0.00036835
v 0.00749361 0.00288784 -0.00063715
v 0.00642611 -0.00537646 0.00116355
v 0.00687630 -0.00496511 0.00128205
v 0.00673892 -0.00524590 0.00160577
v 0.00651888 -0.00546764 0.00160577
v 0.00629468 -0.00568834 0.00160577
v 0.00775052 -0.00245245 -0.00063715
v 0.00798126 -0.00238303 -0.00011688
v 0.00770294 -0.00271564 -0.00049263
v 0.00629468 -0.00568834 0.00292667
v 0.00629409 -0.00568834 0.00688936
v 0.00629349 -0.00568834 0.01040982
v 0.00629290 -0.00568834 0.01305161
v 0.00629171 -0.00568834 0.01480895
v 0.00607464 -0.00587691 0.00292667
v 0.00628338 -0.00568419 0.02141054
v 0.00580167 -0.00609554 0.00512623
v 0.00525751 -0.00645301 0.02757569
v 0.00650758 -0.00545624 0.02801502
v 0.00644990 -0.00539822 0.02832718
v 0.00599971 -0.00580438 0.02830695
v 0.00767380 -0.00399838 0.02889080
v 0.00839399 0.00242779 0.02889080
v 0.00823639 0.00286090 0.01568473
v 0.00816384 0.00303601 0.01480606
v 0.00763396 0.00303601 -0.00034522
v 0.00770532 0.00275728 -0.00048685
v 0.00775171 0.00245266 -0.00063715
v 0.00725453 -0.00447397 0.00134853
v 0.00714808 -0.00474337 0.00160577
v 0.00692804 -0.00502520 0.00160577
v 0.00673892 -0.00524590 0.00204511
v 0.00651888 -0.00546764 0.00248444
v 0.00775706 -0.00243277 -0.00063715
v 0.00809604 -0.00221207 0.00005365
v 0.00806155 -0.00253120 0.00028199
v 0.00804728 -0.00198101 -0.00025273
v 0.00808950 -0.00262964 0.00051611
v 0.00651532 -0.00546764 0.01524829
v 0.00672762 -0.00523140 0.02801502
v 0.00767618 -0.00399528 0.02889080
v 0.00691793 -0.00501070 0.02801502
v 0.00713797 -0.00475270 0.02801502
v 0.00731163 -0.00453200 0.02801502
v 0.00839637 0.00242054 0.02889080
v 0.00839637 0.00242054 0.02845436
v 0.00839161 0.00242054 0.00248444
v 0.00823639 0.00286090 0.01436673
v 0.00823401 0.00286090 0.00248444
v 0.00815968 0.00303601 0.00248444
v 0.00776598 0.00288680 -0.00017758
v 0.00772435 0.00303601 -0.00010532
v 0.00776539 0.00243608 -0.00061981
v 0.00798067 0.00238634 -0.00012266
v 0.00776003 0.00242779 -0.00063715
v 0.00766845 -0.00398699 0.00179654
v 0.00729378 -0.00452371 0.00160577
v 0.00753167 -0.00421908 0.00204511
v 0.00731163 -0.00453614 0.00204511
v 0.00714749 -0.00475684 0.00204511
v 0.00673774 -0.00524383 0.00645002
v 0.00673833 -0.00524487 0.00468690
v 0.00789087 -0.00197894 -0.00063715
v 0.00833154 -0.00154065 0.00028199
v 0.00821439 -0.00198101 0.00028199
v 0.00812816 -0.00198101 -0.00003306
v 0.00808296 -0.00172094 -0.00034811
v 0.00831608 -0.00198101 0.00072421
v 0.00817573 -0.00245764 0.00068664
v 0.00828397 -0.00242033 0.00116355
v 0.00812399 -0.00269388 0.00081092
v 0.00753167 -0.00421908 0.02801502
v 0.00767618 -0.00399942 0.02845436
v 0.00767856 -0.00399113 0.02889080
v 0.00753226 -0.00421908 0.02449167
v 0.00849925 0.00208690 0.02889080
v 0.00849568 0.00206825 0.00248444
v 0.00837674 0.00242054 0.00204511
v 0.00821677 0.00286090 0.00204511
v 0.00814124 0.00303601 0.00204511
v 0.00791109 0.00286090 0.00028199
v 0.00805144 0.00252311 0.00028199
v 0.00778204 0.00303601 0.00009411
v 0.00804847 0.00198017 -0.00025562
v 0.00791049 0.00198017 -0.00059668
v 0.00788195 0.00202058 -0.00063715
v 0.00809842 0.00221745 0.00004787
v 0.00834106 -0.00242033 0.00160288
v 0.00837912 -0.00242033 0.00204511
v 0.00803122 -0.00328033 0.00244687
v 0.00798840 -0.00337566 0.00245554
v 0.00767677 -0.00399942 0.00204511
v 0.00815849 -0.00274050 0.00116355
v 0.00753226 -0.00421908 0.02361011
v 0.00800505 -0.00155930 -0.00063715
v 0.00812161 -0.00142771 -0.00044639
v 0.00818644 -0.00156137 -0.00018336
v 0.00828159 -0.00110132 -0.00015735
v 0.00841124 -0.00110132 0.00028199
v 0.00853434 -0.00132513 0.00093810
v 0.00845108 -0.00149920 0.00076468
v 0.00840588 -0.00198101 0.00116355
v 0.00852482 -0.00172508 0.00150750
v 0.00781594 -0.00373624 0.02889080
v 0.00767677 -0.00399942 0.01084915
v 0.00782010 -0.00374142 0.00468690
v 0.00856051 0.00186102 0.02889080
v 0.00855991 0.00185169 0.01436673
v 0.00855813 0.00184858 0.00248444
v 0.00848855 0.00203613 0.00204511
v 0.00834225 0.00242054 0.00160288
v 0.00816800 0.00288991 0.00162601
v 0.00812518 0.00303601 0.00184856
v 0.00783675 0.00303601 0.00029355
v 0.00801932 0.00285261 0.00070398
v 0.00811983 0.00269926 0.00083694
v 0.00808415 0.00261326 0.00054212
v 0.00818227 0.00155639 -0.00018336
v 0.00808177 0.00171389 -0.00034811
v 0.00812935 0.00198017 -0.00003595
v 0.00811864 0.00142169 -0.00043771
v 0.00789384 0.00197810 -0.00063715
v 0.00812637 0.00230242 0.00028199
v 0.00831727 0.00198017 0.00072421
v 0.00821558 0.00198017 0.00028199
v 0.00832679 0.00153981 0.00028199
v 0.00849093 -0.00203385 0.00204511
v 0.00850223 -0.00207737 0.00248444
v 0.00839815 -0.00242033 0.00248444
v 0.00819714 -0.00290421 0.00244687
v 0.00811091 -0.00311973 0.00256248
v 0.00811983 -0.00313838 0.00292378
v 0.00782010 -0.00374142 0.00248444
v 0.00807761 -0.00120804 -0.00063715
v 0.00814778 -0.00110132 -0.00050708
v 0.00832619 -0.00066096 -0.00015735
v 0.00845465 -0.00066096 0.00028199
v 0.00854623 -0.00110132 0.00088896
v 0.00864020 -0.00066096 0.00116355
v 0.00859678 -0.00110132 0.00116355
v 0.00855396 -0.00140698 0.00116355
v 0.00849985 -0.00162665 0.00116355
v 0.00857181 -0.00156344 0.00163468
v 0.00854683 -0.00181419 0.00204511
v 0.00800208 -0.00337462 0.02889080
v 0.00800862 -0.00337462 0.00294401
v 0.00863128 0.00153981 0.02889080
v 0.00863128 0.00153981 0.01349095
v 0.00863009 0.00153981 0.00248444
v 0.00854921 0.00181543 0.00204511
v 0.00847784 0.00194495 0.00162311
v 0.00852363 0.00172217 0.00148727
v 0.00840826 0.00198017 0.00116355
v 0.00828278 0.00242054 0.00116355
v 0.00815432 0.00277697 0.00116355
v 0.00811567 0.00303601 0.00174451
v 0.00809366 0.00303601 0.00151328
v 0.00789860 0.00303601 0.00054501
v 0.00793963 0.00303601 0.00071265
v 0.00817573 0.00244851 0.00070398
v 0.00803895 0.00303601 0.00116355
v 0.00805620 0.00299767 0.00116355
v 0.00828040 0.00109945 -0.00015735
v 0.00814659 0.00109945 -0.00050419
v 0.00809128 0.00109945 -0.00063715
v 0.00803122 0.00139890 -0.00063715
v 0.00799970 0.00155536 -0.00063715
v 0.00853374 0.00132119 0.00094388
v 0.00841005 0.00109945 0.00028199
v 0.00855753 -0.00185771 0.00248444
v 0.00850223 -0.00207737 0.00336600
v 0.00839815 -0.00242033 0.00468690
v 0.00823520 -0.00286070 0.00292378
v 0.00800862 -0.00337462 0.00292378
v 0.00812161 -0.00313942 0.02845436
v 0.00809366 -0.00110132 -0.00063715
v 0.00816919 -0.00066096 -0.00056200
v 0.00811507 -0.00089616 -0.00063715
v 0.00813886 -0.00066096 -0.00063715
v 0.00814659 -0.00058428 -0.00063715
v 0.00836128 -0.00022060 -0.00015735
v 0.00817335 -0.00025065 -0.00063715
v 0.00849509 -0.00023718 0.00031089
v 0.00853018 -0.00039467 0.00051611
v 0.00851888 -0.00066096 0.00057102
v 0.00856705 -0.00066096 0.00079358
v 0.00867647 -0.00022060 0.00116355
v 0.00869729 -0.00066096 0.00160288
v 0.00865209 -0.00110132 0.00160288
v 0.00860749 -0.00154065 0.00204511
v 0.00812161 -0.00313942 0.02889080
v 0.00870680 0.00110670 0.02889080
v 0.00870859 0.00109945 0.02272855
v 0.00870859 0.00109945 0.01217005
v 0.00870740 0.00109945 0.00248444
v 0.00869194 0.00109945 0.00204511
v 0.00861284 0.00153981 0.00204511
v 0.00857537 0.00156157 0.00162311
v 0.00853731 0.00177502 0.00178208
v 0.00855396 0.00140201 0.00116355
v 0.00808712 0.00303601 0.00146993
v 0.00832679 0.00065909 -0.00015735
v 0.00817038 0.00065909 -0.00056489
v 0.00814005 0.00065909 -0.00063715
v 0.00859916 0.00109945 0.00116355
v 0.00854683 0.00109945 0.00088607
v 0.00845465 0.00065909 0.00028199
v 0.00862533 -0.00154065 0.00248444
v 0.00862592 -0.00154065 0.01788719
v 0.00855753 -0.00185771 0.00336600
v 0.00850223 -0.00207115 0.02493389
v 0.00839399 -0.00242033 0.02317077
v 0.00823401 -0.00285448 0.02889080
v 0.00823163 -0.00286070 0.02889080
v 0.00835950 0.00021976 -0.00015735
v 0.00854029 0.00008714 0.00047275
v 0.00817335 -0.00024339 -0.00063715
v 0.00817276 0.00023427 -0.00063715
v 0.00854029 -0.00010144 0.00047275
v 0.00857835 -0.00023718 0.00068664
v 0.00867410 0.00021976 0.00116355
v 0.00873238 0.00021976 0.00160288
v 0.00873297 -0.00022060 0.00160288
v 0.00873059 -0.00066096 0.00204511
v 0.00868123 -0.00110132 0.00204511
v 0.00875854 0.00065909 0.02889080
v 0.00875854 0.00065909 0.02228921
v 0.00875795 0.00065909 0.01832652
v 0.00875676 0.00065909 0.01128849
v 0.00875557 0.00065909 0.00512623
v 0.00875438 0.00065909 0.00248444
v 0.00873832 0.00065909 0.00204511
v 0.00865744 0.00109945 0.00160288
v 0.00864139 0.00065909 0.00116355
v 0.00870086 0.00065909 0.00160288
v 0.00856705 0.00065909 0.00079069
v 0.00849330 0.00022805 0.00031089
v 0.00869491 -0.00110132 0.00248444
v 0.00869610 -0.00110132 0.00292378
v 0.00869788 -0.00110132 0.00776803
v 0.00870145 -0.00110132 0.02008965
v 0.00862592 -0.00154065 0.02141343
v 0.00862533 -0.00154065 0.02581256
v 0.00862473 -0.00154065 0.02889080
v 0.00855337 -0.00185253 0.02889080
v 0.00850223 -0.00207012 0.02625190
v 0.00850163 -0.00206908 0.02889080
v 0.00839161 -0.00242033 0.02889080
v 0.00857716 0.00022805 0.00069242
v 0.00876509 0.00021976 0.00204511
v 0.00876509 -0.00022060 0.00204511
v 0.00874605 -0.00066096 0.00248444
v 0.00878055 0.00022598 0.02889080
v 0.00878174 0.00021976 0.00292378
v 0.00878055 0.00021976 0.00248444
v 0.00874784 -0.00066096 0.00820736
v 0.00874962 -0.00066096 0.01832652
v 0.00870264 -0.00109407 0.02889080
v 0.00870145 -0.00110132 0.02625190
v 0.00878055 -0.00022060 0.00248444
v 0.00878055 0.00021976 0.02889080
v 0.00878055 -0.00022060 0.00820736
v 0.00875022 -0.00065371 0.02889080
v 0.00874962 -0.00066096 0.02889080
v 0.00877817 -0.00022060 0.02889080
f 1 2 3
f 1 3 10
f 1 10 4
f 1 4 5
f 1 5 2
f 2 5 6
f 2 6 7
f 2 7 8
f 2 8 3
f 3 9 10
f 3 8 9
f 4 11 5
f 4 10 28
f 4 28 59
f 4 59 62
f 4 62 33
f 4 33 12
f 4 12 11
f 5 11 6
f 6 11 13
f 6 13 14
f 6 14 15
f 6 15 16
f 6 16 7
f 7 16 17
f 7 17 18
f 7 18 8
f 8 18 42
f 8 42 19
f 8 19 9
f 9 20 10
f 9 19 20
f 10 21 22
f 10 22 23
f 10 23 24
f 10 24 25
f 10 25 26
f 10 26 27
f 10 27 28
f 10 20 29
f 10 29 30
f 10 30 21
f 11 12 31
f 11 31 32
f 11 32 13
f 12 33 61
f 12 61 85
f 12 85 111
f 12 111 138
f 12 138 165
f 12 165 196
f 12 196 232
f 12 232 277
f 12 277 276
f 12 276 275
f 12 275 314
f 12 314 328
f 12 328 327
f 12 327 292
f 12 292 290
f 12 290 289
f 12 289 288
f 12 288 286
f 12 286 244
f 12 244 205
f 12 205 173
f 12 173 144
f 12 144 117
f 12 117 90
f 12 90 89
f 12 89 86
f 12 86 66
f 12 66 34
f 12 34 36
f 12 36 35
f 12 35 32
f 12 32 31
f 13 32 35
f 13 35 36
f 13 36 14
f 14 37 15
f 14 36 38
f 14 38 39
f 14 39 37
f 15 37 40
f 15 40 16
f 16 40 17
f 17 40 41
f 17 41 18
f 18 41 42
f 19 42 43
f 19 43 44
f 19 44 45
f 19 45 21
f 19 21 30
f 19 30 29
f 19 29 20
f 21 45 22
f 22 46 23
f 22 45 46
f 23 46 24
f 24 46 47
f 24 47 48
f 24 48 49
f 24 49 50
f 24 50 25
f 25 50 51
f 25 51 52
f 25 52 26
f 26 52 53
f 26 53 27
f 27 53 54
f 27 54 55
f 27 55 56
f 27 56 57
f 27 57 58
f 27 58 28
f 28 58 59
f 33 60 61
f 33 62 63
f 33 63 64
f 33 64 65
f 33 65 60
f 34 66 36
f 36 66 67
f 36 67 68
f 36 68 69
f 36 69 70
f 36 70 38
f 37 71 75
f 37 75 72
f 37 72 40
f 37 39 71
f 38 70 73
f 38 73 39
f 39 73 74
f 39 74 75
f 39 75 71
f 40 72 41
f 41 76 77
f 41 77 78
f 41 78 48
f 41 48 44
f 41 44 43
f 41 43 42
f 41 72 76
f 44 48 46
f 44 46 45
f 46 48 47
f 48 78 49
f 49 78 79
f 49 79 80
f 49 80 81
f 49 81 82
f 49 82 50
f 50 82 52
f 50 52 51
f 52 82 81
f 52 81 104
f 52 104 132
f 52 132 151
f 52 151 184
f 52 184 214
f 52 214 255
f 52 255 301
f 52 301 324
f 52 324 323
f 52 323 358
f 52 358 357
f 52 357 355
f 52 355 354
f 52 354 368
f 52 368 374
f 52 374 373
f 52 373 375
f 52 375 371
f 52 371 363
f 52 363 336
f 52 336 302
f 52 302 257
f 52 257 217
f 52 217 186
f 52 186 155
f 52 155 133
f 52 133 108
f 52 108 83
f 52 83 58
f 52 58 57
f 52 57 56
f 52 56 55
f 52 55 54
f 52 54 53
f 58 83 109
f 58 109 135
f 58 135 160
f 58 160 190
f 58 190 223
f 58 223 266
f 58 266 267
f 58 267 311
f 58 311 271
f 58 271 269
f 58 269 268
f 58 268 224
f 58 224 193
f 58 193 162
f 58 162 136
f 58 136 110
f 58 110 84
f 58 84 60
f 58 60 65
f 58 65 64
f 58 64 63
f 58 63 62
f 58 62 59
f 60 84 61
f 61 84 85
f 66 86 67
f 67 87 88
f 67 88 68
f 67 86 89
f 67 89 90
f 67 90 87
f 68 88 91
f 68 91 92
f 68 92 69
f 69 92 93
f 69 93 94
f 69 94 95
f 69 95 70
f 70 95 73
f 72 75 96
f 72 96 74
f 72 74 97
f 72 97 98
f 72 98 76
f 73 95 94
f 73 94 74
f 74 94 97
f 74 96 75
f 76 98 77
f 77 99 79
f 77 79 78
f 77 98 99
f 79 100 101
f 79 101 102
f 79 102 103
f 79 103 104
f 79 104 81
f 79 81 80
f 79 99 105
f 79 105 106
f 79 106 107
f 79 107 100
f 83 108 134
f 83 134 109
f 84 110 85
f 85 110 111
f 87 90 112
f 87 112 113
f 87 113 114
f 87 114 115
f 87 115 116
f 87 116 88
f 88 116 91
f 90 117 118
f 90 118 119
f 90 119 113
f 90 113 112
f 91 116 120
f 91 120 121
f 91 121 122
f 91 122 123
f 91 123 124
f 91 124 125
f 91 125 92
f 92 125 124
f 92 124 126
f 92 126 93
f 93 126 127
f 93 127 94
f 94 127 128
f 94 128 107
f 94 107 106
f 94 106 97
f 97 106 105
f 97 105 98
f 98 105 99
f 100 107 128
f 100 128 127
f 100 127 101
f 101 127 126
f 101 126 102
f 102 129 130
f 102 130 131
f 102 131 103
f 102 126 129
f 103 131 104
f 104 131 132
f 108 133 134
f 109 134 158
f 109 158 135
f 110 136 111
f 111 136 137
f 111 137 138
f 113 139 140
f 113 140 141
f 113 141 114
f 113 119 139
f 114 141 142
f 114 142 143
f 114 143 115
f 115 143 120
f 115 120 116
f 117 144 118
f 118 145 146
f 118 146 119
f 118 144 147
f 118 147 145
f 119 146 148
f 119 148 139
f 120 143 121
f 121 143 122
f 122 143 123
f 123 143 149
f 123 149 124
f 124 149 129
f 124 129 126
f 129 149 150
f 129 150 132
f 129 132 130
f 130 132 131
f 132 150 152
f 132 152 153
f 132 153 154
f 132 154 151
f 133 155 156
f 133 156 157
f 133 157 158
f 133 158 134
f 135 158 159
f 135 159 160
f 136 161 137
f 136 162 161
f 137 163 138
f 137 161 164
f 137 164 163
f 138 163 165
f 139 166 167
f 139 167 140
f 139 148 166
f 140 167 166
f 140 166 168
f 140 168 169
f 140 169 170
f 140 170 141
f 141 170 153
f 141 153 171
f 141 171 172
f 141 172 142
f 142 172 149
f 142 149 143
f 144 173 147
f 145 174 175
f 145 175 146
f 145 147 176
f 145 176 174
f 146 175 148
f 147 173 177
f 147 177 176
f 148 175 178
f 148 178 179
f 148 179 180
f 148 180 181
f 148 181 166
f 149 172 171
f 149 171 150
f 150 171 152
f 151 154 182
f 151 182 183
f 151 183 184
f 152 171 153
f 153 170 154
f 154 185 182
f 154 170 169
f 154 169 185
f 155 186 156
f 156 186 157
f 157 159 158
f 157 186 187
f 157 187 188
f 157 188 159
f 159 188 189
f 159 189 160
f 160 189 190
f 161 162 191
f 161 191 192
f 161 192 164
f 162 193 191
f 163 164 194
f 163 194 195
f 163 195 196
f 163 196 165
f 164 192 197
f 164 197 194
f 166 198 199
f 166 199 200
f 166 200 201
f 166 201 202
f 166 202 168
f 166 181 203
f 166 203 198
f 168 202 204
f 168 204 169
f 169 204 185
f 173 205 206
f 173 206 177
f 174 176 207
f 174 207 208
f 174 208 209
f 174 209 210
f 174 210 211
f 174 211 178
f 174 178 175
f 176 177 207
f 177 206 207
f 178 211 210
f 178 210 212
f 178 212 180
f 178 180 179
f 180 212 213
f 180 213 198
f 180 198 203
f 180 203 181
f 182 185 183
f 183 214 184
f 183 185 215
f 183 215 216
f 183 216 214
f 185 204 202
f 185 202 215
f 186 217 218
f 186 218 219
f 186 219 187
f 187 219 220
f 187 220 188
f 188 220 221
f 188 221 189
f 189 221 222
f 189 222 223
f 189 223 190
f 191 224 225
f 191 225 226
f 191 226 227
f 191 227 192
f 191 193 224
f 192 227 197
f 194 228 229
f 194 229 195
f 194 197 230
f 194 230 228
f 195 229 231
f 195 231 232
f 195 232 196
f 197 227 233
f 197 233 234
f 197 234 235
f 197 235 236
f 197 236 230
f 198 237 199
f 198 213 237
f 199 237 238
f 199 238 239
f 199 239 240
f 199 240 200
f 200 240 241
f 200 241 201
f 201 241 242
f 201 242 243
f 201 243 202
f 202 243 216
f 202 216 215
f 205 244 206
f 206 245 208
f 206 208 207
f 206 244 245
f 208 245 246
f 208 246 209
f 209 247 248
f 209 248 210
f 209 246 247
f 210 248 249
f 210 249 250
f 210 250 251
f 210 251 252
f 210 252 212
f 212 252 213
f 213 252 251
f 213 251 253
f 213 253 254
f 213 254 237
f 214 216 255
f 216 243 284
f 216 284 256
f 216 256 255
f 217 257 258
f 217 258 259
f 217 259 218
f 218 259 219
f 219 259 260
f 219 260 220
f 220 260 261
f 220 261 221
f 221 261 262
f 221 262 263
f 221 263 264
f 221 264 265
f 221 265 222
f 222 266 223
f 222 265 267
f 222 267 266
f 224 268 225
f 225 268 269
f 225 269 226
f 226 270 227
f 226 269 271
f 226 271 272
f 226 272 265
f 226 265 264
f 226 264 270
f 227 270 233
f 228 273 231
f 228 231 229
f 228 230 236
f 228 236 273
f 231 274 275
f 231 275 276
f 231 276 277
f 231 277 232
f 231 273 274
f 233 270 234
f 234 236 235
f 234 270 264
f 234 264 263
f 234 263 278
f 234 278 236
f 236 279 273
f 236 278 279
f 237 254 238
f 238 280 320
f 238 320 281
f 238 281 282
f 238 282 239
f 238 254 280
f 239 282 283
f 239 283 240
f 240 283 242
f 240 242 241
f 242 284 243
f 242 283 285
f 242 285 284
f 244 286 245
f 245 287 246
f 245 286 288
f 245 288 289
f 245 289 290
f 245 290 287
f 246 291 247
f 246 287 290
f 246 290 292
f 246 292 291
f 247 293 294
f 247 294 295
f 247 295 248
f 247 291 293
f 248 295 296
f 248 296 249
f 249 297 298
f 249 298 250
f 249 296 297
f 250 298 299
f 250 299 251
f 251 299 253
f 253 299 300
f 253 300 254
f 254 300 280
f 255 256 301
f 256 284 285
f 256 285 301
f 257 302 303
f 257 303 304
f 257 304 258
f 258 304 259
f 259 304 305
f 259 305 306
f 259 306 307
f 259 307 260
f 260 307 308
f 260 308 309
f 260 309 261
f 261 309 262
f 262 310 263
f 262 309 308
f 262 308 310
f 263 310 278
f 265 272 311
f 265 311 267
f 271 311 272
f 273 312 313
f 273 313 274
f 273 279 312
f 274 313 275
f 275 313 314
f 278 310 315
f 278 315 316
f 278 316 279
f 279 316 317
f 279 317 312
f 280 318 319
f 280 319 352
f 280 352 320
f 280 300 318
f 281 320 321
f 281 321 282
f 282 321 322
f 282 322 323
f 282 323 283
f 283 323 324
f 283 324 301
f 283 301 285
f 291 325 326
f 291 326 293
f 291 292 327
f 291 327 328
f 291 328 325
f 293 326 329
f 293 329 294
f 294 329 330
f 294 330 296
f 294 296 295
f 296 330 297
f 297 331 332
f 297 332 333
f 297 333 298
f 297 330 329
f 297 329 326
f 297 326 331
f 298 333 334
f 298 334 299
f 299 334 335
f 299 335 300
f 300 335 318
f 302 336 303
f 303 336 337
f 303 337 304
f 304 337 305
f 305 337 338
f 305 338 339
f 305 339 340
f 305 340 341
f 305 341 306
f 306 342 343
f 306 343 307
f 306 341 342
f 307 343 308
f 308 343 310
f 310 343 315
f 312 317 325
f 312 325 313
f 313 325 328
f 313 328 314
f 315 344 316
f 315 343 345
f 315 345 344
f 316 346 317
f 316 344 346
f 317 346 326
f 317 326 347
f 317 347 325
f 318 348 349
f 318 349 350
f 318 350 351
f 318 351 319
f 318 335 348
f 319 351 369
f 319 369 352
f 320 352 353
f 320 353 354
f 320 354 355
f 320 355 356
f 320 356 321
f 321 356 322
f 322 356 357
f 322 357 358
f 322 358 323
f 325 347 326
f 326 346 359
f 326 359 331
f 331 344 345
f 331 345 332
f 331 359 346
f 331 346 344
f 332 345 342
f 332 342 360
f 332 360 333
f 333 360 361
f 333 361 334
f 334 361 370
f 334 370 362
f 334 362 335
f 335 362 348
f 336 363 364
f 336 364 337
f 337 364 338
f 338 364 339
f 339 364 340
f 340 364 341
f 341 364 365
f 341 365 360
f 341 360 342
f 342 345 343
f 348 362 349
f 349 362 350
f 350 362 366
f 350 366 351
f 351 367 368
f 351 368 369
f 351 366 367
f 352 369 368
f 352 368 353
f 353 368 354
f 355 357 356
f 360 365 370
f 360 370 361
f 362 370 366
f 363 371 364
f 364 370 365
f 364 371 372
f 364 372 370
f 366 370 367
f 367 373 374
f 367 374 368
f 367 370 373
f 370 372 373
f 371 375 372
f 372 375 373

