# https://github.com/mikedh/trimesh
v -0.00192900 -0.00713538 0.00424581
v -0.00209000 -0.00706832 0.00424581
v -0.00207138 -0.00706133 0.00398173
v -0.00192900 -0.00712560 0.00412697
v -0.00192900 -0.00712980 0.02845602
v -0.00208441 -0.00706552 0.02888516
v -0.00231008 -0.00696493 0.00424581
v -0.00230449 -0.00696633 0.02493376
v -0.00192900 -0.00708928 0.00394211
v -0.00293264 -0.00661424 0.00400813
v -0.00399583 -0.00277199 -0.00277561
v -0.00353751 -0.00275522 -0.00321795
v -0.00313271 -0.00291171 -0.00323776
v -0.00271209 -0.00282648 -0.00370652
v -0.00192900 -0.00711024 0.02888516
v -0.00230449 -0.00696493 0.02888516
v -0.00269208 -0.00676513 0.00424581
v -0.00269208 -0.00676373 0.00953086
v -0.00225238 -0.00279155 -0.00404653
v -0.00192900 -0.00281810 -0.00413236
v -0.00294334 -0.00662262 0.00424581
v -0.00316296 -0.00646613 0.00424581
v -0.00345795 -0.00624538 0.00424581
v -0.00340351 -0.00620766 0.00399493
v -0.00560433 -0.00271471 -0.00049125
v -0.00525630 -0.00278596 -0.00103593
v -0.00517208 -0.00272029 -0.00135944
v -0.00477286 -0.00273846 -0.00191733
v -0.00442715 -0.00274824 -0.00232336
v -0.00426383 -0.00268536 -0.00261385
v -0.00383809 -0.00269794 -0.00305950
v -0.00313271 -0.00273566 -0.00355797
v -0.00257809 -0.00272449 -0.00395740
v -0.00192900 -0.00011455 0.02888516
v -0.00269208 -0.00675395 0.02888516
v -0.00269208 -0.00676094 0.01612974
v -0.00294334 -0.00662262 0.00468816
v -0.00192900 -0.00263926 -0.00434363
v -0.00316342 -0.00648150 0.00468816
v -0.00348587 -0.00625935 0.00468816
v -0.00370595 -0.00609448 0.00468816
v -0.00397535 -0.00587373 0.00468816
v -0.00419544 -0.00567673 0.00468816
v -0.00565133 -0.00277618 -0.00015784
v -0.00577044 -0.00241990 -0.00015784
v -0.00565831 -0.00244365 -0.00062330
v -0.00553780 -0.00260573 -0.00078505
v -0.00508740 -0.00257219 -0.00165324
v -0.00468492 -0.00265882 -0.00215170
v -0.00432851 -0.00241990 -0.00268978
v -0.00413216 -0.00241990 -0.00291095
v -0.00391207 -0.00241990 -0.00311892
v -0.00364732 -0.00241990 -0.00334010
v -0.00336722 -0.00265742 -0.00346884
v -0.00287168 -0.00257499 -0.00387157
v -0.00200810 -0.00261131 -0.00432712
v -0.00192947 -0.00006984 0.02888516
v -0.00192900 0.00494464 0.02805989
v -0.00293031 -0.00661284 0.02888516
v -0.00294241 -0.00662262 0.00556955
v -0.00315039 -0.00647731 0.02888516
v -0.00192900 -0.00253307 -0.00438984
v -0.00348354 -0.00625656 0.02888516
v -0.00369711 -0.00609728 0.02888516
v -0.00397396 -0.00587233 0.02888516
v -0.00419450 -0.00568791 0.01480931
v -0.00419450 -0.00568791 0.00512721
v -0.00441784 -0.00546575 0.00512721
v -0.00463793 -0.00524360 0.00512721
v -0.00438574 -0.00545737 0.00468816
v -0.00567227 -0.00279993 0.00028120
v -0.00629343 -0.00241850 0.00732903
v -0.00482404 -0.00502145 0.00512721
v -0.00504413 -0.00471407 0.00512721
v -0.00556432 -0.00397915 0.00533187
v -0.00576533 -0.00197979 -0.00059689
v -0.00638323 -0.00202590 0.00688999
v -0.00644558 -0.00180514 0.00688999
v -0.00649211 -0.00153828 0.00688999
v -0.00655911 -0.00109817 0.00688999
v -0.00661634 -0.00065806 0.00688999
v -0.00563318 -0.00195464 -0.00104254
v -0.00559782 -0.00231232 -0.00090059
v -0.00547033 -0.00244365 -0.00104254
v -0.00523210 -0.00242409 -0.00149479
v -0.00514091 -0.00227879 -0.00174237
v -0.00497387 -0.00242409 -0.00190082
v -0.00473796 -0.00241990 -0.00221442
v -0.00420009 -0.00211811 -0.00298358
v -0.00399815 -0.00194346 -0.00322456
v -0.00379668 -0.00176742 -0.00346224
v -0.00373108 -0.00206083 -0.00340612
v -0.00357986 -0.00194067 -0.00357777
v -0.00342724 -0.00241990 -0.00351835
v -0.00311456 -0.00242549 -0.00375603
v -0.00295497 -0.00228158 -0.00392769
v -0.00271209 -0.00242549 -0.00401682
v -0.00225517 -0.00244645 -0.00425780
v -0.00211047 -0.00231791 -0.00437994
v -0.00289867 0.00267701 0.02888516
v -0.00192900 0.00506200 0.02803678
v -0.00328858 0.00375284 0.02888516
v -0.00328300 0.00373887 0.02888516
v -0.00312527 0.00331413 0.02888516
v -0.00192900 -0.00240453 -0.00443276
v -0.00418846 -0.00569070 0.02888516
v -0.00482451 -0.00502145 0.00556955
v -0.00440202 -0.00546296 0.02888516
v -0.00462211 -0.00522823 0.02888516
v -0.00482218 -0.00500748 0.02888516
v -0.00504226 -0.00475319 0.02888516
v -0.00612453 -0.00286141 0.00732903
v -0.00612872 -0.00286141 0.01480931
v -0.00613104 -0.00286141 0.01920966
v -0.00613570 -0.00286141 0.02845602
v -0.00629390 -0.00243108 0.02888516
v -0.00629808 -0.00241850 0.02801368
v -0.00640184 -0.00208178 0.02888516
v -0.00639952 -0.00206641 0.00732903
v -0.00504413 -0.00475459 0.00556955
v -0.00521349 -0.00453523 0.00556955
v -0.00543311 -0.00421248 0.00556955
v -0.00557270 -0.00399452 0.00556955
v -0.00579185 -0.00153968 -0.00059689
v -0.00576160 -0.00109956 -0.00103593
v -0.00571507 -0.00153968 -0.00103593
v -0.00664891 -0.00021794 0.00688999
v -0.00645582 -0.00184706 0.00732903
v -0.00651537 -0.00153828 0.00732903
v -0.00659075 -0.00109817 0.00732903
v -0.00665031 -0.00065806 0.00732903
v -0.00559596 -0.00153968 -0.00132973
v -0.00556199 -0.00178977 -0.00127361
v -0.00551779 -0.00208318 -0.00119439
v -0.00518557 -0.00197979 -0.00181169
v -0.00503622 -0.00197979 -0.00202956
v -0.00541403 -0.00195464 -0.00144197
v -0.00481613 -0.00197979 -0.00231015
v -0.00463374 -0.00197979 -0.00253133
v -0.00439039 -0.00197560 -0.00282182
v -0.00425499 -0.00182470 -0.00303970
v -0.00404747 -0.00153968 -0.00329718
v -0.00382786 -0.00153968 -0.00348864
v -0.00337280 -0.00138459 -0.00391449
v -0.00332115 -0.00167800 -0.00387817
v -0.00325136 -0.00197979 -0.00382205
v -0.00303128 -0.00197979 -0.00397060
v -0.00265393 -0.00194765 -0.00419838
v -0.00240360 -0.00207200 -0.00430071
v -0.00225517 -0.00194765 -0.00441625
v -0.00192900 -0.00197141 -0.00456480
v -0.00192900 0.00532886 0.02792785
v -0.00349471 0.00392749 0.02888516
v -0.00521489 -0.00453244 0.02888516
v -0.00591329 -0.00333785 0.00732903
v -0.00591329 -0.00334064 0.00820712
v -0.00601937 -0.00313526 0.02888516
v -0.00613570 -0.00286141 0.02888516
v -0.00629808 -0.00241850 0.02888516
v -0.00646094 -0.00186243 0.02888516
v -0.00646094 -0.00186103 0.02757463
v -0.00543264 -0.00421667 0.00600860
v -0.00557549 -0.00399871 0.00600860
v -0.00578487 -0.00065945 -0.00103593
v -0.00568204 -0.00021934 -0.00147498
v -0.00564435 -0.00063011 -0.00151129
v -0.00564249 -0.00109956 -0.00141556
v -0.00668241 -0.00021794 0.00732903
v -0.00667311 0.00021937 0.00732903
v -0.00663868 0.00021937 0.00688999
v -0.00578487 0.00065949 -0.00103593
v -0.00579138 0.00021937 -0.00103593
v -0.00579138 -0.00021934 -0.00103593
v -0.00652794 -0.00154806 0.02888516
v -0.00652980 -0.00153828 0.02845602
v -0.00660611 -0.00109817 0.02888516
v -0.00665496 -0.00065806 0.01612974
v -0.00551639 -0.00109956 -0.00163673
v -0.00546568 -0.00153968 -0.00155090
v -0.00522419 -0.00151592 -0.00193713
v -0.00508274 -0.00164726 -0.00209558
v -0.00489616 -0.00155225 -0.00236297
v -0.00467050 -0.00175065 -0.00257424
v -0.00454394 -0.00157880 -0.00278221
v -0.00456720 -0.00109956 -0.00289445
v -0.00429408 -0.00153968 -0.00307601
v -0.00410656 -0.00109956 -0.00334670
v -0.00388602 -0.00109956 -0.00354146
v -0.00362918 -0.00109956 -0.00375934
v -0.00340909 -0.00109956 -0.00393759
v -0.00313271 -0.00109956 -0.00411255
v -0.00261438 -0.00109956 -0.00442285
v -0.00275536 -0.00153968 -0.00424790
v -0.00315784 -0.00153409 -0.00401022
v -0.00253528 -0.00153968 -0.00437664
v -0.00248177 -0.00177859 -0.00434363
v -0.00225238 -0.00153968 -0.00452849
v -0.00192900 -0.00186243 -0.00459451
v -0.00192900 0.00540291 0.02789484
v -0.00357288 0.00395404 0.02888516
v -0.00543497 -0.00420829 0.02888516
v -0.00543171 -0.00421667 0.01569070
v -0.00571554 -0.00374163 0.00732903
v -0.00571647 -0.00374163 0.00864947
v -0.00591515 -0.00334623 0.01612974
v -0.00591189 -0.00335601 0.02801368
v -0.00591143 -0.00335601 0.02888516
v -0.00591561 -0.00334903 0.01964871
v -0.00591561 -0.00334903 0.02053010
v -0.00557549 -0.00399871 0.01129364
v -0.00568064 0.00021937 -0.00147498
v -0.00556292 -0.00021934 -0.00171266
v -0.00555501 -0.00046524 -0.00169945
v -0.00554338 -0.00075865 -0.00167965
v -0.00665543 -0.00065806 0.01745018
v -0.00665822 -0.00065806 0.02845602
v -0.00665822 -0.00065806 0.02888516
v -0.00667450 -0.00023052 0.02888516
v -0.00667497 -0.00021794 0.02888516
v -0.00667264 0.00021937 0.02888516
v -0.00663681 0.00065949 0.00732903
v -0.00656656 0.00109960 0.00688999
v -0.00665496 0.00065949 0.02888516
v -0.00577184 0.00241993 -0.00015784
v -0.00576486 0.00197982 -0.00059689
v -0.00579185 0.00153971 -0.00059689
v -0.00576300 0.00109960 -0.00103593
v -0.00652980 -0.00153828 0.02888516
v -0.00665682 -0.00067063 0.02888516
v -0.00533074 -0.00109956 -0.00191733
v -0.00512183 -0.00135385 -0.00214840
v -0.00470958 -0.00145724 -0.00262376
v -0.00460210 -0.00065945 -0.00293736
v -0.00434712 -0.00109956 -0.00312882
v -0.00475099 -0.00109956 -0.00267658
v -0.00414472 -0.00065945 -0.00337971
v -0.00392464 -0.00065945 -0.00357447
v -0.00366733 -0.00065945 -0.00379565
v -0.00344725 -0.00065945 -0.00396730
v -0.00313271 -0.00065945 -0.00416867
v -0.00266277 -0.00065945 -0.00445586
v -0.00225238 -0.00109956 -0.00461432
v -0.00192900 -0.00117082 -0.00474636
v -0.00192900 -0.00155924 -0.00466714
v -0.00192900 0.00556359 0.02775289
v -0.00403212 0.00391911 0.02888516
v -0.00556851 -0.00398614 0.02888516
v -0.00556851 -0.00398754 0.02801368
v -0.00557176 -0.00399173 0.02185054
v -0.00571647 -0.00374163 0.01129364
v -0.00571554 -0.00374163 0.01656879
v -0.00571507 -0.00374163 0.01832827
v -0.00571368 -0.00374163 0.02141149
v -0.00570670 -0.00374163 0.02888516
v -0.00571135 -0.00374163 0.02405236
v -0.00570856 -0.00374163 0.02713228
v -0.00570810 -0.00374163 0.02757463
v -0.00570716 -0.00374163 0.02845602
v -0.00564388 0.00109960 -0.00141556
v -0.00564295 0.00061617 -0.00150799
v -0.00556106 0.00021937 -0.00170936
v -0.00541496 0.00021937 -0.00193053
v -0.00541403 -0.00021934 -0.00193383
v -0.00542194 -0.00063011 -0.00187441
v -0.00517627 -0.00065945 -0.00221772
v -0.00514695 -0.00109956 -0.00218141
v -0.00659633 0.00109960 0.00732903
v -0.00650467 0.00153971 0.00688999
v -0.00660797 0.00108702 0.02888516
v -0.00660657 0.00109960 0.02757463
v -0.00660564 0.00109960 0.02361002
v -0.00660378 0.00109960 0.02008775
v -0.00565226 0.00278040 -0.00015784
v -0.00560620 0.00272033 -0.00051106
v -0.00565877 0.00245626 -0.00063320
v -0.00644744 0.00180936 0.00688999
v -0.00637765 0.00202872 0.00688999
v -0.00563272 0.00195467 -0.00104254
v -0.00571694 0.00153971 -0.00103593
v -0.00478263 -0.00065945 -0.00271619
v -0.00462071 -0.00021934 -0.00296047
v -0.00438202 -0.00065945 -0.00315854
v -0.00416333 -0.00021934 -0.00339621
v -0.00394325 -0.00021934 -0.00359098
v -0.00368780 -0.00021934 -0.00381215
v -0.00346772 -0.00021934 -0.00398051
v -0.00309130 -0.00020677 -0.00422479
v -0.00290472 -0.00034509 -0.00433372
v -0.00273163 -0.00020677 -0.00444596
v -0.00227285 -0.00021934 -0.00469024
v -0.00221283 -0.00063570 -0.00469024
v -0.00200578 -0.00076704 -0.00476947
v -0.00195134 -0.00109956 -0.00474966
v -0.00192900 -0.00112471 -0.00475296
v -0.00192900 0.00578155 0.02753171
v -0.00407586 0.00390234 0.02888516
v -0.00192900 0.00583883 0.02747229
v -0.00192900 0.00600091 0.02730064
v -0.00192900 0.00606657 0.02722471
v -0.00192900 0.00620489 0.02706296
v -0.00213792 0.00620489 0.02696723
v -0.00570298 -0.00374862 0.02888516
v -0.00559782 0.00153971 -0.00133303
v -0.00551733 0.00109960 -0.00163673
v -0.00554059 0.00073354 -0.00167635
v -0.00555315 0.00044013 -0.00169615
v -0.00517534 0.00065949 -0.00221772
v -0.00519488 0.00021937 -0.00224083
v -0.00541961 0.00061617 -0.00187441
v -0.00519395 -0.00021934 -0.00224083
v -0.00652701 0.00153971 0.00732903
v -0.00660657 0.00109960 0.02888516
v -0.00627668 0.00242133 0.00732903
v -0.00600960 0.00311713 0.00688999
v -0.00556013 0.00397360 0.00533847
v -0.00505064 0.00471969 0.00512721
v -0.00483056 0.00502567 0.00512721
v -0.00438341 0.00545321 0.00468816
v -0.00419357 0.00567257 0.00468816
v -0.00525583 0.00277901 -0.00103593
v -0.00554803 0.00262672 -0.00080486
v -0.00346167 0.00624541 0.00424581
v -0.00340584 0.00620769 0.00399493
v -0.00293357 0.00661706 0.00400813
v -0.00559736 0.00233331 -0.00090059
v -0.00645721 0.00184290 0.00732903
v -0.00639347 0.00206225 0.00732903
v -0.00556246 0.00178980 -0.00127361
v -0.00479985 -0.00021934 -0.00273930
v -0.00480078 0.00021937 -0.00273930
v -0.00462118 0.00021937 -0.00296047
v -0.00440063 -0.00021934 -0.00317504
v -0.00440109 0.00021937 -0.00317504
v -0.00416333 0.00021937 -0.00339621
v -0.00394325 0.00021937 -0.00359098
v -0.00368780 0.00021937 -0.00381215
v -0.00346772 0.00021937 -0.00398051
v -0.00291682 -0.00005168 -0.00434033
v -0.00273163 0.00020540 -0.00444596
v -0.00227239 0.00021937 -0.00469024
v -0.00205277 -0.00021934 -0.00478597
v -0.00203974 -0.00047363 -0.00478267
v -0.00192900 -0.00056305 -0.00481568
v -0.00192900 -0.00070556 -0.00480248
v -0.00192900 -0.00085925 -0.00478597
v -0.00192900 -0.00109956 -0.00475626
v -0.00532795 0.00341053 0.02888516
v -0.00192900 0.00624541 0.02701344
v -0.00192900 0.00640609 0.02677907
v -0.00243152 0.00614621 0.02689130
v -0.00368548 0.00567955 0.02685499
v -0.00339141 0.00573824 0.02693092
v -0.00546801 0.00153971 -0.00155420
v -0.00522792 0.00152155 -0.00193713
v -0.00512462 0.00136087 -0.00215170
v -0.00533167 0.00109960 -0.00191733
v -0.00514742 0.00109960 -0.00218141
v -0.00478124 0.00065949 -0.00271619
v -0.00652375 0.00153971 0.02888516
v -0.00627761 0.00242133 0.00776808
v -0.00612453 0.00286144 0.00732903
v -0.00602124 0.00313948 0.00732903
v -0.00556665 0.00398477 0.00556955
v -0.00543311 0.00420413 0.00556955
v -0.00521303 0.00454365 0.00556955
v -0.00505110 0.00476300 0.00556955
v -0.00483056 0.00502288 0.02625419
v -0.00463839 0.00524503 0.00512721
v -0.00441784 0.00546439 0.00512721
v -0.00419264 0.00568375 0.00512721
v -0.00397303 0.00587935 0.00468816
v -0.00476402 0.00273849 -0.00191733
v -0.00516184 0.00270915 -0.00133633
v -0.00468911 0.00266584 -0.00215830
v -0.00507158 0.00255406 -0.00163013
v -0.00513951 0.00226065 -0.00173907
v -0.00371060 0.00609871 0.00468816
v -0.00349099 0.00626078 0.00468816
v -0.00294334 0.00662265 0.00424581
v -0.00269208 0.00676237 0.00424581
v -0.00231101 0.00696217 0.00424581
v -0.00207092 0.00706137 0.00398173
v -0.00399489 0.00277062 -0.00277561
v -0.00442668 0.00275246 -0.00232666
v -0.00551639 0.00208321 -0.00119439
v -0.00645116 0.00184849 0.02888516
v -0.00640045 0.00206225 0.02888516
v -0.00629529 0.00242133 0.02888516
v -0.00541264 0.00195467 -0.00144197
v -0.00460024 0.00065949 -0.00293406
v -0.00438016 0.00065949 -0.00315854
v -0.00414332 0.00065949 -0.00337971
v -0.00392324 0.00065949 -0.00357447
v -0.00366780 0.00065949 -0.00379565
v -0.00344771 0.00065949 -0.00396730
v -0.00313271 0.00065949 -0.00417197
v -0.00309130 0.00020540 -0.00422479
v -0.00291682 0.00005031 -0.00434033
v -0.00266416 0.00065949 -0.00445586
v -0.00290425 0.00034372 -0.00433372
v -0.00221190 0.00063294 -0.00469024
v -0.00203835 0.00046947 -0.00478267
v -0.00205231 0.00021937 -0.00478597
v -0.00192900 -0.00021934 -0.00483879
v -0.00536704 0.00339377 0.02888516
v -0.00401351 0.00539593 0.02704645
v -0.00432479 0.00532886 0.02697053
v -0.00192900 0.00645918 0.02669654
v -0.00227146 0.00631387 0.02672625
v -0.00297544 0.00618673 0.02651168
v -0.00355194 0.00583604 0.02670314
v -0.00390091 0.00578155 0.02656119
v -0.00518464 0.00197982 -0.00180839
v -0.00508228 0.00165428 -0.00209558
v -0.00481474 0.00197982 -0.00231015
v -0.00466910 0.00174789 -0.00257424
v -0.00471191 0.00145448 -0.00262376
v -0.00475053 0.00109960 -0.00267658
v -0.00497061 0.00109960 -0.00240259
v -0.00613616 0.00286144 0.02845602
v -0.00591422 0.00336023 0.00732903
v -0.00602263 0.00314367 0.02185054
v -0.00591701 0.00336443 0.02713228
v -0.00556990 0.00398897 0.00600860
v -0.00543311 0.00420832 0.00600860
v -0.00543078 0.00421671 0.02713228
v -0.00521303 0.00454365 0.00644764
v -0.00505064 0.00475881 0.02669324
v -0.00483056 0.00502009 0.02669324
v -0.00463513 0.00524224 0.02625419
v -0.00441552 0.00546579 0.02625419
v -0.00419171 0.00568514 0.02581185
v -0.00397117 0.00587656 0.02581185
v -0.00426337 0.00268540 -0.00261055
v -0.00413216 0.00241993 -0.00291095
v -0.00432897 0.00241993 -0.00268978
v -0.00420195 0.00211814 -0.00298688
v -0.00474029 0.00241993 -0.00221772
v -0.00503528 0.00197982 -0.00202626
v -0.00370828 0.00609871 0.01260748
v -0.00316202 0.00648154 0.00468816
v -0.00348866 0.00625799 0.02273193
v -0.00348773 0.00625799 0.02537280
v -0.00316807 0.00647874 0.02537280
v -0.00294753 0.00662545 0.02537280
v -0.00269208 0.00676656 0.02493376
v -0.00209046 0.00707115 0.00424581
v -0.00231101 0.00696496 0.02493376
v -0.00192900 0.00713681 0.00424581
v -0.00192900 0.00709071 0.00393881
v -0.00271255 0.00282651 -0.00370652
v -0.00313271 0.00291593 -0.00323776
v -0.00353891 0.00275665 -0.00321795
v -0.00383623 0.00269657 -0.00305620
v -0.00608591 0.00292012 0.02888516
v -0.00602310 0.00313389 0.02845602
v -0.00456581 0.00109960 -0.00289445
v -0.00434572 0.00109960 -0.00312552
v -0.00410517 0.00109960 -0.00334670
v -0.00388509 0.00109960 -0.00353816
v -0.00362918 0.00109960 -0.00375934
v -0.00340909 0.00109960 -0.00394089
v -0.00313271 0.00109960 -0.00411255
v -0.00225238 0.00109960 -0.00461432
v -0.00261484 0.00109960 -0.00442285
v -0.00200578 0.00076288 -0.00476947
v -0.00192900 0.00055889 -0.00481568
v -0.00192900 0.00034791 -0.00483219
v -0.00192900 0.00021937 -0.00483549
v -0.00577137 0.00321353 0.02888516
v -0.00517813 0.00447938 0.02743928
v -0.00582209 0.00318140 0.02888516
v -0.00579231 0.00320096 0.02888516
v -0.00439318 0.00540990 0.02669324
v -0.00192900 0.00655559 0.02653478
v -0.00198856 0.00658772 0.02644235
v -0.00326951 0.00613084 0.02641594
v -0.00343282 0.00620909 0.02612215
v -0.00396372 0.00584302 0.02625419
v -0.00463374 0.00197982 -0.00253133
v -0.00425360 0.00182473 -0.00303970
v -0.00454347 0.00157604 -0.00278221
v -0.00602263 0.00314507 0.02801368
v -0.00602263 0.00314507 0.02669324
v -0.00570996 0.00374167 0.00732903
v -0.00571880 0.00374167 0.02713228
v -0.00591701 0.00336443 0.02757463
v -0.00557502 0.00399595 0.02669324
v -0.00521023 0.00452828 0.02713228
v -0.00520930 0.00453806 0.02669324
v -0.00557502 0.00399595 0.02713228
v -0.00557363 0.00399036 0.02757463
v -0.00461327 0.00523944 0.02669324
v -0.00418427 0.00568654 0.02625419
v -0.00370083 0.00609731 0.02581185
v -0.00370735 0.00609591 0.02537280
v -0.00391207 0.00241993 -0.00311892
v -0.00373247 0.00205387 -0.00340942
v -0.00399769 0.00193930 -0.00322456
v -0.00438993 0.00197423 -0.00282182
v -0.00348028 0.00624541 0.02581185
v -0.00293589 0.00661706 0.02562698
v -0.00209093 0.00707115 0.02493376
v -0.00192900 0.00713821 0.00839529
v -0.00207185 0.00706137 0.02521765
v -0.00192900 0.00281953 -0.00412576
v -0.00225238 0.00278879 -0.00403993
v -0.00257948 0.00272312 -0.00395740
v -0.00313271 0.00273989 -0.00356127
v -0.00336908 0.00266164 -0.00347214
v -0.00601286 0.00311014 0.02875972
v -0.00556525 0.00397639 0.02781561
v -0.00571694 0.00374167 0.02757463
v -0.00429408 0.00153971 -0.00307601
v -0.00404608 0.00153971 -0.00329718
v -0.00354031 0.00153691 -0.00373292
v -0.00337234 0.00138602 -0.00391119
v -0.00315923 0.00153691 -0.00401022
v -0.00192900 0.00117504 -0.00474636
v -0.00195273 0.00109960 -0.00474966
v -0.00225238 0.00153971 -0.00452849
v -0.00275443 0.00153971 -0.00424790
v -0.00253435 0.00153971 -0.00437664
v -0.00192900 0.00109960 -0.00475956
v -0.00192900 0.00070280 -0.00480248
v -0.00192900 0.00659750 0.02646216
v -0.00192900 0.00664081 0.02637963
v -0.00192900 0.00668552 0.02629381
v -0.00312620 0.00626358 0.02626409
v -0.00277258 0.00655279 0.02592078
v -0.00379342 0.00176046 -0.00345894
v -0.00365011 0.00241993 -0.00334010
v -0.00343003 0.00241993 -0.00352166
v -0.00358079 0.00193651 -0.00357777
v -0.00265253 0.00665479 0.02578874
v -0.00192900 0.00691606 0.02581515
v -0.00197042 0.00702085 0.02551475
v -0.00192900 0.00713542 0.02493376
v -0.00192900 0.00709210 0.02530348
v -0.00192900 0.00712703 0.02506250
v -0.00192900 0.00269518 -0.00425120
v -0.00199833 0.00259598 -0.00432052
v -0.00287308 0.00257642 -0.00387487
v -0.00311456 0.00242552 -0.00375934
v -0.00332395 0.00167943 -0.00387817
v -0.00192900 0.00156067 -0.00467044
v -0.00192900 0.00197144 -0.00456480
v -0.00248223 0.00177863 -0.00434363
v -0.00225378 0.00194769 -0.00441625
v -0.00303267 0.00197982 -0.00397060
v -0.00192900 0.00687973 0.02589437
v -0.00325276 0.00197982 -0.00382536
v -0.00192900 0.00702783 0.02553455
v -0.00192900 0.00704600 0.02547183
v -0.00192900 0.00252891 -0.00437994
v -0.00210768 0.00230257 -0.00437664
v -0.00225378 0.00243810 -0.00425120
v -0.00271255 0.00242552 -0.00401682
v -0.00295497 0.00228301 -0.00392439
v -0.00192900 0.00210836 -0.00452189
v -0.00265439 0.00194769 -0.00419838
v -0.00240174 0.00207203 -0.00430071
v -0.00192900 0.00239199 -0.00442946
f 1 2 3
f 1 3 4
f 1 4 9
f 1 9 20
f 1 20 38
f 1 38 62
f 1 62 105
f 1 105 151
f 1 151 198
f 1 198 244
f 1 244 243
f 1 243 294
f 1 294 346
f 1 346 345
f 1 345 344
f 1 344 343
f 1 343 404
f 1 404 469
f 1 469 468
f 1 468 467
f 1 467 525
f 1 525 524
f 1 524 519
f 1 519 546
f 1 546 547
f 1 547 560
f 1 560 563
f 1 563 555
f 1 555 541
f 1 541 506
f 1 506 450
f 1 450 449
f 1 449 504
f 1 504 538
f 1 538 540
f 1 540 539
f 1 539 554
f 1 554 553
f 1 553 536
f 1 536 551
f 1 551 528
f 1 528 527
f 1 527 526
f 1 526 475
f 1 475 408
f 1 408 349
f 1 349 348
f 1 348 300
f 1 300 299
f 1 299 298
f 1 298 297
f 1 297 295
f 1 295 245
f 1 245 199
f 1 199 152
f 1 152 101
f 1 101 58
f 1 58 34
f 1 34 15
f 1 15 5
f 1 5 6
f 1 6 2
f 2 7 3
f 2 6 8
f 2 8 7
f 3 9 4
f 3 7 10
f 3 10 11
f 3 11 12
f 3 12 13
f 3 13 14
f 3 14 9
f 5 15 6
f 6 16 8
f 6 15 34
f 6 34 57
f 6 57 100
f 6 100 104
f 6 104 103
f 6 103 102
f 6 102 153
f 6 153 200
f 6 200 246
f 6 246 296
f 6 296 347
f 6 347 405
f 6 405 470
f 6 470 473
f 6 473 472
f 6 472 455
f 6 455 388
f 6 388 387
f 6 387 386
f 6 386 359
f 6 359 312
f 6 312 269
f 6 269 223
f 6 223 220
f 6 220 219
f 6 219 218
f 6 218 217
f 6 217 229
f 6 229 176
f 6 176 228
f 6 228 174
f 6 174 160
f 6 160 118
f 6 118 159
f 6 159 116
f 6 116 158
f 6 158 157
f 6 157 207
f 6 207 254
f 6 254 302
f 6 302 247
f 6 247 201
f 6 201 154
f 6 154 111
f 6 111 110
f 6 110 109
f 6 109 108
f 6 108 106
f 6 106 65
f 6 65 64
f 6 64 63
f 6 63 61
f 6 61 59
f 6 59 35
f 6 35 16
f 7 17 10
f 7 8 17
f 8 16 18
f 8 18 17
f 9 14 19
f 9 19 20
f 10 17 21
f 10 21 22
f 10 22 23
f 10 23 24
f 10 24 25
f 10 25 26
f 10 26 27
f 10 27 28
f 10 28 29
f 10 29 11
f 11 29 30
f 11 30 31
f 11 31 12
f 12 31 32
f 12 32 13
f 13 32 14
f 14 32 33
f 14 33 19
f 16 35 36
f 16 36 18
f 17 18 37
f 17 37 21
f 18 36 37
f 19 33 38
f 19 38 20
f 21 37 39
f 21 39 40
f 21 40 22
f 22 40 23
f 23 40 41
f 23 41 42
f 23 42 43
f 23 43 44
f 23 44 25
f 23 25 24
f 25 44 45
f 25 45 46
f 25 46 47
f 25 47 27
f 25 27 26
f 27 47 48
f 27 48 49
f 27 49 28
f 28 49 29
f 29 49 30
f 30 50 51
f 30 51 31
f 30 49 50
f 31 51 52
f 31 52 53
f 31 53 54
f 31 54 32
f 32 54 33
f 33 54 55
f 33 55 56
f 33 56 38
f 34 58 57
f 35 59 60
f 35 60 37
f 35 37 36
f 37 60 61
f 37 61 39
f 38 56 62
f 39 61 63
f 39 63 40
f 40 63 64
f 40 64 41
f 41 64 65
f 41 65 42
f 42 65 66
f 42 66 67
f 42 67 43
f 43 67 68
f 43 68 69
f 43 69 70
f 43 70 44
f 44 71 72
f 44 72 45
f 44 70 73
f 44 73 74
f 44 74 75
f 44 75 71
f 45 76 46
f 45 72 77
f 45 77 78
f 45 78 79
f 45 79 80
f 45 80 81
f 45 81 76
f 46 76 82
f 46 82 83
f 46 83 47
f 47 83 84
f 47 84 48
f 48 84 85
f 48 85 86
f 48 86 87
f 48 87 49
f 49 88 50
f 49 87 88
f 50 89 51
f 50 88 89
f 51 89 52
f 52 89 90
f 52 90 91
f 52 91 92
f 52 92 53
f 53 92 93
f 53 93 94
f 53 94 54
f 54 94 95
f 54 95 55
f 55 95 96
f 55 96 97
f 55 97 98
f 55 98 56
f 56 98 99
f 56 99 62
f 57 58 100
f 58 101 102
f 58 102 103
f 58 103 104
f 58 104 100
f 59 61 60
f 62 99 105
f 65 106 66
f 66 68 67
f 66 106 68
f 68 106 69
f 69 107 73
f 69 73 70
f 69 106 108
f 69 108 109
f 69 109 110
f 69 110 111
f 69 111 107
f 71 75 72
f 72 75 112
f 72 112 113
f 72 113 114
f 72 114 115
f 72 115 116
f 72 116 117
f 72 117 118
f 72 118 119
f 72 119 77
f 73 107 120
f 73 120 121
f 73 121 74
f 74 121 122
f 74 122 75
f 75 122 123
f 75 123 112
f 76 124 125
f 76 125 126
f 76 126 82
f 76 81 127
f 76 127 124
f 77 119 78
f 78 119 128
f 78 128 129
f 78 129 79
f 79 129 130
f 79 130 80
f 80 130 131
f 80 131 81
f 81 131 127
f 82 126 132
f 82 132 133
f 82 133 134
f 82 134 83
f 83 134 85
f 83 85 84
f 85 134 86
f 86 135 136
f 86 136 87
f 86 134 133
f 86 133 137
f 86 137 135
f 87 136 88
f 88 136 138
f 88 138 139
f 88 139 140
f 88 140 89
f 89 141 90
f 89 140 141
f 90 141 91
f 91 141 142
f 91 142 143
f 91 143 144
f 91 144 145
f 91 145 93
f 91 93 92
f 93 145 146
f 93 146 94
f 94 146 95
f 95 146 96
f 96 145 147
f 96 147 148
f 96 148 149
f 96 149 97
f 96 146 145
f 97 149 99
f 97 99 98
f 99 150 151
f 99 151 105
f 99 149 150
f 101 152 153
f 101 153 102
f 107 111 120
f 111 154 120
f 112 123 155
f 112 155 156
f 112 156 157
f 112 157 113
f 113 157 114
f 114 157 115
f 115 157 158
f 115 158 116
f 116 159 117
f 117 159 118
f 118 160 161
f 118 161 119
f 119 161 128
f 120 154 121
f 121 162 122
f 121 154 162
f 122 162 163
f 122 163 123
f 123 163 155
f 124 164 125
f 124 127 164
f 125 164 165
f 125 165 166
f 125 166 167
f 125 167 126
f 126 167 132
f 127 131 168
f 127 168 169
f 127 169 170
f 127 170 171
f 127 171 172
f 127 172 173
f 127 173 164
f 128 161 174
f 128 174 175
f 128 175 129
f 129 175 176
f 129 176 130
f 130 176 131
f 131 176 177
f 131 177 168
f 132 167 178
f 132 178 179
f 132 179 133
f 133 179 135
f 133 135 137
f 135 179 180
f 135 180 181
f 135 181 136
f 136 181 138
f 138 182 183
f 138 183 139
f 138 181 182
f 139 183 141
f 139 141 140
f 141 183 184
f 141 184 185
f 141 185 186
f 141 186 142
f 142 187 188
f 142 188 143
f 142 186 187
f 143 188 144
f 144 189 190
f 144 190 191
f 144 191 192
f 144 192 193
f 144 193 194
f 144 194 145
f 144 188 189
f 145 194 193
f 145 193 147
f 147 193 195
f 147 195 148
f 148 195 196
f 148 196 149
f 149 196 150
f 150 196 197
f 150 197 198
f 150 198 151
f 152 199 153
f 153 199 200
f 154 201 202
f 154 202 162
f 155 163 203
f 155 203 156
f 156 203 204
f 156 204 205
f 156 205 157
f 157 206 207
f 157 205 208
f 157 208 209
f 157 209 206
f 160 174 161
f 162 202 210
f 162 210 163
f 163 210 250
f 163 250 204
f 163 204 203
f 164 173 165
f 165 211 212
f 165 212 166
f 165 173 172
f 165 172 211
f 166 212 213
f 166 213 214
f 166 214 167
f 167 214 178
f 168 177 215
f 168 215 216
f 168 216 217
f 168 217 218
f 168 218 219
f 168 219 220
f 168 220 169
f 169 221 222
f 169 222 170
f 169 220 223
f 169 223 221
f 170 222 224
f 170 224 225
f 170 225 226
f 170 226 171
f 171 226 227
f 171 227 211
f 171 211 172
f 174 228 175
f 175 228 176
f 176 229 216
f 176 216 215
f 176 215 177
f 178 214 230
f 178 230 231
f 178 231 180
f 178 180 179
f 180 231 181
f 181 231 182
f 182 231 232
f 182 232 183
f 183 232 184
f 184 232 185
f 185 233 234
f 185 234 186
f 185 232 235
f 185 235 233
f 186 234 187
f 187 234 236
f 187 236 237
f 187 237 188
f 188 237 238
f 188 238 189
f 189 238 190
f 190 238 239
f 190 239 240
f 190 240 191
f 191 240 241
f 191 241 192
f 192 195 193
f 192 241 242
f 192 242 197
f 192 197 195
f 195 197 196
f 197 242 243
f 197 243 244
f 197 244 198
f 199 245 246
f 199 246 200
f 201 247 248
f 201 248 249
f 201 249 210
f 201 210 202
f 204 250 209
f 204 209 208
f 204 208 205
f 206 209 250
f 206 250 251
f 206 251 252
f 206 252 253
f 206 253 207
f 207 253 255
f 207 255 256
f 207 256 257
f 207 257 258
f 207 258 254
f 210 252 251
f 210 251 250
f 210 249 253
f 210 253 252
f 211 259 260
f 211 260 261
f 211 261 212
f 211 227 259
f 212 261 262
f 212 262 263
f 212 263 213
f 213 263 264
f 213 264 214
f 214 264 265
f 214 265 266
f 214 266 230
f 216 229 217
f 221 267 222
f 221 223 267
f 222 267 268
f 222 268 224
f 223 269 270
f 223 270 271
f 223 271 272
f 223 272 267
f 224 273 274
f 224 274 275
f 224 275 225
f 224 268 276
f 224 276 277
f 224 277 273
f 225 275 278
f 225 278 279
f 225 279 227
f 225 227 226
f 227 279 259
f 230 266 231
f 231 266 235
f 231 235 232
f 233 235 280
f 233 280 281
f 233 281 282
f 233 282 234
f 234 282 236
f 235 266 280
f 236 283 284
f 236 284 237
f 236 282 332
f 236 332 283
f 237 284 285
f 237 285 238
f 238 285 239
f 239 285 286
f 239 286 287
f 239 287 240
f 240 287 288
f 240 288 241
f 241 289 290
f 241 290 291
f 241 291 242
f 241 288 289
f 242 291 292
f 242 292 293
f 242 293 243
f 243 293 294
f 245 295 246
f 246 295 297
f 246 297 298
f 246 298 299
f 246 299 300
f 246 300 301
f 246 301 296
f 247 302 256
f 247 256 249
f 247 249 248
f 249 256 255
f 249 255 253
f 254 258 302
f 256 302 257
f 257 302 258
f 259 279 303
f 259 303 304
f 259 304 305
f 259 305 260
f 260 305 306
f 260 306 261
f 261 306 262
f 262 307 308
f 262 308 263
f 262 306 309
f 262 309 307
f 263 308 310
f 263 310 265
f 263 265 264
f 265 310 280
f 265 280 266
f 267 311 268
f 267 272 311
f 268 311 276
f 269 312 270
f 270 312 311
f 270 311 271
f 271 311 272
f 273 277 313
f 273 313 314
f 273 314 315
f 273 315 316
f 273 316 317
f 273 317 318
f 273 318 319
f 273 319 274
f 274 320 321
f 274 321 275
f 274 319 322
f 274 322 323
f 274 323 324
f 274 324 320
f 275 321 325
f 275 325 278
f 276 311 326
f 276 326 327
f 276 327 277
f 277 327 313
f 278 325 328
f 278 328 303
f 278 303 279
f 280 329 281
f 280 310 329
f 281 329 330
f 281 330 331
f 281 331 333
f 281 333 332
f 281 332 282
f 283 332 333
f 283 333 334
f 283 334 335
f 283 335 284
f 284 335 336
f 284 336 285
f 285 336 337
f 285 337 286
f 286 337 398
f 286 398 338
f 286 338 287
f 287 338 288
f 288 338 289
f 289 339 290
f 289 338 398
f 289 398 339
f 290 339 340
f 290 340 403
f 290 403 341
f 290 341 342
f 290 342 291
f 291 342 292
f 292 342 343
f 292 343 344
f 292 344 345
f 292 345 293
f 293 345 346
f 293 346 294
f 296 301 347
f 300 348 301
f 301 348 349
f 301 349 350
f 301 350 351
f 301 351 352
f 301 352 347
f 303 328 353
f 303 353 304
f 304 353 354
f 304 354 355
f 304 355 356
f 304 356 305
f 305 356 309
f 305 309 306
f 307 309 356
f 307 356 357
f 307 357 358
f 307 358 330
f 307 330 308
f 308 330 329
f 308 329 310
f 311 312 359
f 311 359 326
f 313 327 360
f 313 360 361
f 313 361 314
f 314 361 362
f 314 362 363
f 314 363 315
f 315 363 364
f 315 364 365
f 315 365 316
f 316 365 317
f 317 365 366
f 317 366 367
f 317 367 368
f 317 368 319
f 317 319 318
f 319 368 369
f 319 369 370
f 319 370 371
f 319 371 322
f 320 372 373
f 320 373 321
f 320 324 372
f 321 373 374
f 321 374 375
f 321 375 376
f 321 376 325
f 322 371 377
f 322 377 324
f 322 324 323
f 324 377 378
f 324 378 379
f 324 379 380
f 324 380 381
f 324 381 382
f 324 382 383
f 324 383 384
f 324 384 372
f 325 376 385
f 325 385 328
f 326 359 386
f 326 386 387
f 326 387 327
f 327 387 388
f 327 388 360
f 328 385 389
f 328 389 353
f 330 358 331
f 331 358 390
f 331 390 391
f 331 391 333
f 333 391 392
f 333 392 334
f 334 392 393
f 334 393 335
f 335 393 394
f 335 394 336
f 336 394 395
f 336 395 337
f 337 395 396
f 337 396 397
f 337 397 398
f 339 399 340
f 339 398 400
f 339 400 399
f 340 399 401
f 340 401 402
f 340 402 403
f 341 403 404
f 341 404 342
f 342 404 343
f 347 352 406
f 347 406 407
f 347 407 405
f 349 408 409
f 349 409 350
f 350 409 410
f 350 410 411
f 350 411 351
f 351 411 412
f 351 412 407
f 351 407 406
f 351 406 352
f 353 413 354
f 353 389 413
f 354 414 355
f 354 413 414
f 355 357 356
f 355 414 415
f 355 415 416
f 355 416 417
f 355 417 418
f 355 418 419
f 355 419 357
f 357 419 358
f 358 418 390
f 358 419 418
f 360 388 361
f 361 388 420
f 361 420 362
f 362 421 363
f 362 420 422
f 362 422 423
f 362 423 421
f 363 424 364
f 363 421 424
f 364 424 425
f 364 425 365
f 365 425 426
f 365 426 427
f 365 427 366
f 366 427 428
f 366 428 367
f 367 428 429
f 367 429 430
f 367 430 368
f 368 430 431
f 368 431 369
f 369 431 432
f 369 432 370
f 370 432 371
f 371 432 433
f 371 433 377
f 372 384 374
f 372 374 373
f 374 384 434
f 374 434 435
f 374 435 436
f 374 436 437
f 374 437 438
f 374 438 376
f 374 376 375
f 376 413 389
f 376 389 385
f 376 438 439
f 376 439 413
f 377 433 440
f 377 440 378
f 378 441 379
f 378 440 442
f 378 442 443
f 378 443 444
f 378 444 441
f 379 441 445
f 379 445 380
f 380 445 446
f 380 446 381
f 381 447 382
f 381 446 448
f 381 448 447
f 382 447 449
f 382 449 450
f 382 450 451
f 382 451 452
f 382 452 453
f 382 453 383
f 383 453 454
f 383 454 434
f 383 434 384
f 388 455 456
f 388 456 420
f 390 418 457
f 390 457 458
f 390 458 391
f 391 458 392
f 392 458 459
f 392 459 393
f 393 459 460
f 393 460 394
f 394 461 462
f 394 462 395
f 394 460 461
f 395 462 396
f 396 463 399
f 396 399 400
f 396 400 397
f 396 462 463
f 397 400 398
f 399 464 401
f 399 463 465
f 399 465 464
f 401 464 466
f 401 466 402
f 402 466 467
f 402 467 468
f 402 468 403
f 403 468 469
f 403 469 404
f 405 407 470
f 407 471 472
f 407 472 473
f 407 473 470
f 407 412 474
f 407 474 471
f 408 475 410
f 408 410 409
f 410 475 476
f 410 476 477
f 410 477 411
f 411 477 412
f 412 477 478
f 412 478 479
f 412 479 474
f 413 439 414
f 414 439 415
f 415 438 480
f 415 480 416
f 415 439 438
f 416 480 481
f 416 481 482
f 416 482 417
f 417 482 457
f 417 457 418
f 420 456 483
f 420 483 484
f 420 484 422
f 421 485 424
f 421 423 486
f 421 486 485
f 422 484 423
f 423 487 486
f 423 484 483
f 423 483 487
f 424 485 486
f 424 486 488
f 424 488 425
f 425 488 426
f 426 489 490
f 426 490 427
f 426 488 491
f 426 491 492
f 426 492 489
f 427 490 428
f 428 490 489
f 428 489 429
f 429 489 493
f 429 493 431
f 429 431 430
f 431 494 432
f 431 493 494
f 432 494 433
f 433 494 495
f 433 495 496
f 433 496 440
f 434 454 435
f 435 454 497
f 435 497 437
f 435 437 436
f 437 497 498
f 437 498 499
f 437 499 481
f 437 481 500
f 437 500 480
f 437 480 438
f 440 496 443
f 440 443 442
f 441 444 445
f 443 496 495
f 443 495 444
f 444 495 501
f 444 501 445
f 445 501 502
f 445 502 448
f 445 448 446
f 447 448 503
f 447 503 504
f 447 504 449
f 448 502 505
f 448 505 503
f 450 506 507
f 450 507 451
f 451 507 508
f 451 508 509
f 451 509 452
f 452 509 453
f 453 509 510
f 453 510 454
f 454 510 497
f 455 472 511
f 455 511 456
f 456 511 512
f 456 512 492
f 456 492 513
f 456 513 487
f 456 487 483
f 457 481 514
f 457 514 458
f 457 482 481
f 458 514 459
f 459 514 515
f 459 515 460
f 460 515 461
f 461 516 517
f 461 517 462
f 461 515 516
f 462 517 463
f 463 517 518
f 463 518 465
f 464 519 520
f 464 520 466
f 464 465 521
f 464 521 519
f 465 518 522
f 465 522 523
f 465 523 521
f 466 520 524
f 466 524 525
f 466 525 467
f 471 474 493
f 471 493 489
f 471 489 512
f 471 512 511
f 471 511 472
f 474 479 494
f 474 494 493
f 475 526 476
f 476 526 527
f 476 527 528
f 476 528 529
f 476 529 477
f 477 529 478
f 478 529 530
f 478 530 502
f 478 502 501
f 478 501 479
f 479 501 495
f 479 495 494
f 480 500 481
f 481 499 531
f 481 531 515
f 481 515 514
f 486 487 513
f 486 513 491
f 486 491 488
f 489 492 512
f 491 513 492
f 497 510 532
f 497 532 498
f 498 533 534
f 498 534 531
f 498 531 499
f 498 532 533
f 502 530 535
f 502 535 536
f 502 536 537
f 502 537 505
f 503 505 538
f 503 538 504
f 505 539 540
f 505 540 538
f 505 537 539
f 506 541 507
f 507 541 542
f 507 542 508
f 508 543 510
f 508 510 509
f 508 542 543
f 510 543 544
f 510 544 533
f 510 533 532
f 515 531 516
f 516 545 517
f 516 531 545
f 517 545 518
f 518 545 522
f 519 524 520
f 519 521 546
f 521 547 546
f 521 523 548
f 521 548 549
f 521 549 547
f 522 545 550
f 522 550 523
f 523 550 548
f 528 551 529
f 529 551 536
f 529 536 530
f 530 536 535
f 531 534 545
f 533 544 552
f 533 552 534
f 534 552 545
f 536 553 537
f 537 553 554
f 537 554 539
f 541 555 542
f 542 555 556
f 542 556 557
f 542 557 543
f 543 557 558
f 543 558 559
f 543 559 552
f 543 552 544
f 545 559 550
f 545 552 559
f 547 549 556
f 547 556 560
f 548 550 561
f 548 561 562
f 548 562 549
f 549 562 556
f 550 559 561
f 555 563 556
f 556 563 560
f 556 562 558
f 556 558 557
f 558 562 561
f 558 561 559

