# https://github.com/mikedh/trimesh
v 0.00201683 0.00550289 0.03506093
v 0.00204133 0.00550289 0.03464827
v 0.00213337 0.00506228 0.03464827
v 0.00211152 0.00506228 0.03506093
v 0.00206649 0.00506228 0.03594143
v 0.00207179 0.00506228 0.03638231
v 0.00204067 0.00550289 0.03550139
v 0.00218503 0.00582435 0.03506093
v 0.00219893 0.00582263 0.03464827
v 0.00236581 0.00438766 0.03474278
v 0.00398356 -0.00019157 0.03464827
v 0.00282008 0.00281125 0.03667695
v 0.00259427 0.00330157 0.03770198
v 0.00237177 0.00396420 0.03749629
v 0.00236448 0.00394277 0.03778922
v 0.00217642 0.00462253 0.03682235
v 0.00220158 0.00509314 0.03684800
v 0.00219695 0.00544203 0.03638231
v 0.00236448 0.00394277 0.03793547
v 0.00222211 0.00462253 0.03726195
v 0.00222078 0.00579949 0.03550139
v 0.00259162 0.00600693 0.03506093
v 0.00259162 0.00600265 0.03464827
v 0.00445902 -0.00153996 0.03464827
v 0.00413719 -0.00086534 0.03626001
v 0.00362862 0.00062364 0.03594912
v 0.00341539 0.00110025 0.03682192
v 0.00352466 0.00066050 0.03770198
v 0.00274591 0.00281125 0.03810609
v 0.00274525 0.00281125 0.03811892
v 0.00280551 0.00262352 0.03824208
v 0.00229230 0.00494399 0.03726195
v 0.00226913 0.00536059 0.03671929
v 0.00229959 0.00575748 0.03582939
v 0.00276379 0.00286096 0.03842724
v 0.00272339 0.00330157 0.03844734
v 0.00236448 0.00400534 0.03793547
v 0.00280551 0.00262352 0.03837764
v 0.00277240 0.00281125 0.03841655
v 0.00232475 0.00462253 0.03757284
v 0.00259162 0.00595979 0.03550139
v 0.00317170 0.00619209 0.03542570
v 0.00291477 0.00612523 0.03506093
v 0.00290153 0.00611580 0.03464827
v 0.00455438 -0.00179713 0.03464827
v 0.00412991 -0.00088591 0.03655337
v 0.00385774 -0.00021900 0.03726195
v 0.00364716 0.00031419 0.03770198
v 0.00326044 0.00134627 0.03814201
v 0.00235918 0.00485312 0.03749159
v 0.00257771 0.00543431 0.03684800
v 0.00283663 0.00571291 0.03657731
v 0.00256778 0.00566833 0.03641096
v 0.00240421 0.00571034 0.03612274
v 0.00242276 0.00526030 0.03701179
v 0.00256778 0.00582349 0.03596195
v 0.00325315 0.00616209 0.03571949
v 0.00315581 0.00200718 0.03860471
v 0.00324322 0.00217005 0.03880655
v 0.00303198 0.00330157 0.03858076
v 0.00275187 0.00361531 0.03840415
v 0.00324322 0.00223177 0.03880655
v 0.00242607 0.00429851 0.03788586
v 0.00335315 0.00110025 0.03814201
v 0.00320217 0.00162058 0.03847257
v 0.00452061 0.00662241 0.03578577
v 0.00422990 0.00656669 0.03550139
v 0.00444975 0.00664727 0.03550139
v 0.00418421 0.00658469 0.03506093
v 0.00347234 0.00632753 0.03506093
v 0.00314191 0.00620238 0.03464827
v 0.00480734 -0.00200800 0.03464827
v 0.00454709 -0.00179627 0.03506136
v 0.00412527 -0.00089105 0.03682192
v 0.00412527 -0.00088848 0.03706139
v 0.00373855 0.00009388 0.03770198
v 0.00259162 0.00490370 0.03753606
v 0.00328097 0.00526973 0.03746807
v 0.00303198 0.00521573 0.03740221
v 0.00257771 0.00514201 0.03725040
v 0.00271876 0.00444509 0.03795728
v 0.00271611 0.00532031 0.03709603
v 0.00491925 0.00620066 0.03709517
v 0.00300218 0.00562119 0.03682192
v 0.00312932 0.00576777 0.03667438
v 0.00410541 0.00617237 0.03662008
v 0.00435241 0.00635925 0.03638231
v 0.00366968 0.00617152 0.03618646
v 0.00269757 0.00576606 0.03628439
v 0.00436499 0.00651783 0.03593587
v 0.00362597 0.00066050 0.03842040
v 0.00368888 0.00043591 0.03836481
v 0.00391204 0.00110025 0.03864534
v 0.00391204 0.00154086 0.03875267
v 0.00347234 0.00212891 0.03881083
v 0.00743296 0.00330157 0.03901695
v 0.00699260 0.00330157 0.03899984
v 0.00655224 0.00330157 0.03898060
v 0.00347234 0.00330157 0.03866201
v 0.00347234 0.00374218 0.03852646
v 0.00305317 0.00375418 0.03843623
v 0.00339023 0.00252408 0.03878603
v 0.00292073 0.00390933 0.03833873
v 0.00391204 0.00272724 0.03881682
v 0.00368425 0.00264580 0.03880313
v 0.00611254 0.00330157 0.03895280
v 0.00699260 0.00374218 0.03899172
v 0.00353724 0.00066050 0.03814201
v 0.00466960 0.00657784 0.03607912
v 0.00496362 0.00661470 0.03621041
v 0.00480668 0.00663098 0.03593587
v 0.00479277 0.00666956 0.03550139
v 0.00440472 0.00666356 0.03506093
v 0.00347234 0.00632067 0.03464827
v 0.00522982 -0.00207143 0.03464827
v 0.00455372 -0.00178170 0.03534702
v 0.00435241 -0.00077790 0.03730771
v 0.00406303 -0.00052931 0.03757540
v 0.00366504 0.00036562 0.03814201
v 0.00449875 -0.00138052 0.03628567
v 0.00435241 -0.00090905 0.03708748
v 0.00548874 0.00570691 0.03790896
v 0.00303198 0.00473483 0.03783412
v 0.00452789 0.00573948 0.03750100
v 0.00423454 0.00568033 0.03742915
v 0.00303198 0.00538288 0.03718198
v 0.00305317 0.00414850 0.03824165
v 0.00303198 0.00451453 0.03800902
v 0.00363723 0.00486598 0.03794146
v 0.00523181 0.00609865 0.03739665
v 0.00523181 0.00623752 0.03717642
v 0.00478085 0.00629581 0.03684458
v 0.00480668 0.00652212 0.03636735
v 0.00402131 -0.00008442 0.03798850
v 0.00435241 -0.00009642 0.03799748
v 0.00391204 0.00043420 0.03836567
v 0.00391204 0.00066050 0.03846787
v 0.00415706 0.00043591 0.03836438
v 0.00435241 0.00110025 0.03861669
v 0.00732569 0.00218120 0.03880997
v 0.00567283 0.00182459 0.03878816
v 0.00523313 0.00178859 0.03879757
v 0.00435241 0.00154086 0.03874839
v 0.00479277 0.00178431 0.03879971
v 0.00435241 0.00182031 0.03879629
v 0.00391204 0.00186231 0.03879159
v 0.00391204 0.00208176 0.03881553
v 0.00523313 0.00242036 0.03888053
v 0.00655224 0.00286096 0.03895622
v 0.00699260 0.00286096 0.03896349
v 0.00743296 0.00286096 0.03896649
v 0.00787266 0.00286096 0.03892586
v 0.00788591 0.00328100 0.03890363
v 0.00743296 0.00374218 0.03898145
v 0.00391204 0.00330157 0.03872060
v 0.00547881 0.00394277 0.03879971
v 0.00631649 0.00440909 0.03880484
v 0.00435241 0.00374218 0.03867826
v 0.00391204 0.00374218 0.03860599
v 0.00350744 0.00281125 0.03875524
v 0.00479277 0.00418193 0.03861113
v 0.00435241 0.00418193 0.03852474
v 0.00393986 0.00419136 0.03843280
v 0.00321475 0.00397963 0.03837080
v 0.00410474 0.00441423 0.03836866
v 0.00381139 0.00434480 0.03833488
v 0.00347234 0.00426251 0.03829254
v 0.00655224 0.00374218 0.03895195
v 0.00611254 0.00374218 0.03890619
v 0.00418487 0.00304441 0.03879672
v 0.00699260 0.00418193 0.03893185
v 0.00503514 0.00661470 0.03621041
v 0.00523181 0.00637639 0.03682235
v 0.00479277 0.00668584 0.03506093
v 0.00504838 0.00662327 0.03594143
v 0.00442657 0.00665498 0.03464827
v 0.00476827 0.00667641 0.03464827
v 0.00535432 -0.00128794 0.03609922
v 0.00506030 -0.00133509 0.03619245
v 0.00507089 -0.00177912 0.03531880
v 0.00479277 -0.00137709 0.03627754
v 0.00479277 -0.00153139 0.03594185
v 0.00479277 -0.00169426 0.03557879
v 0.00479277 -0.00179027 0.03535856
v 0.00793425 -0.00119022 0.03464827
v 0.00831369 -0.00081133 0.03514731
v 0.00835475 -0.00014442 0.03642465
v 0.00435241 -0.00055760 0.03760192
v 0.00479277 -0.00126480 0.03649735
v 0.00466761 -0.00090991 0.03708277
v 0.00391204 0.00492513 0.03798764
v 0.00523181 0.00543089 0.03803425
v 0.00564966 0.00553632 0.03808600
v 0.00578276 0.00576006 0.03795728
v 0.00523181 0.00587835 0.03763955
v 0.00479277 0.00579091 0.03755402
v 0.00435241 0.00469025 0.03827586
v 0.00591917 0.00526973 0.03835583
v 0.00598208 0.00576006 0.03795728
v 0.00553708 0.00622466 0.03716702
v 0.00435241 -0.00031586 0.03782215
v 0.00625094 0.00090481 0.03835027
v 0.00479277 0.00022075 0.03813646
v 0.00479277 0.00050877 0.03832932
v 0.00432327 0.00026190 0.03823909
v 0.00813688 0.00086880 0.03793205
v 0.00785147 0.00113968 0.03820573
v 0.00798325 0.00135227 0.03834215
v 0.00445041 0.00046763 0.03835070
v 0.00787333 0.00223863 0.03878988
v 0.00761838 0.00220948 0.03880014
v 0.00787333 0.00245807 0.03885915
v 0.00699260 0.00215376 0.03881938
v 0.00655224 0.00211862 0.03882879
v 0.00699260 0.00242036 0.03888652
v 0.00738330 0.00281125 0.03895751
v 0.00567283 0.00242036 0.03888951
v 0.00743561 0.00281125 0.03895537
v 0.00787333 0.00281125 0.03891774
v 0.00813887 0.00286096 0.03884376
v 0.00813688 0.00253608 0.03883692
v 0.00813887 0.00281125 0.03884290
v 0.00811039 0.00311984 0.03882366
v 0.00773559 0.00374218 0.03887754
v 0.00741707 0.00415193 0.03887455
v 0.00726013 0.00445881 0.03883777
v 0.00434049 0.00329814 0.03877277
v 0.00655224 0.00418193 0.03888182
v 0.00655224 0.00446738 0.03882238
v 0.00655224 0.00468768 0.03874540
v 0.00614631 0.00458225 0.03871376
v 0.00567217 0.00462253 0.03860728
v 0.00523181 0.00462253 0.03851491
v 0.00608406 0.00509914 0.03847770
v 0.00501130 0.00484284 0.03836310
v 0.00471794 0.00477426 0.03832590
v 0.00699260 0.00450510 0.03884632
v 0.00557615 0.00625809 0.03682235
v 0.00504970 0.00662584 0.03464827
v 0.00503381 0.00662927 0.03464827
v 0.00479277 0.00667727 0.03464827
v 0.00504970 0.00662584 0.03550139
v 0.00526757 0.00648097 0.03594143
v 0.00719788 -0.00043502 0.03659228
v 0.00586620 -0.00087134 0.03658587
v 0.00834084 -0.00105564 0.03464827
v 0.00831369 -0.00092363 0.03492751
v 0.00853619 -0.00044102 0.03572590
v 0.00852890 0.00000302 0.03659912
v 0.00479277 -0.00051045 0.03755274
v 0.00557350 -0.00091934 0.03666198
v 0.00523313 -0.00097334 0.03674024
v 0.00480601 -0.00102906 0.03685228
v 0.00675487 0.00000645 0.03747448
v 0.00539339 -0.00041959 0.03745609
v 0.00510003 -0.00046588 0.03750998
v 0.00480601 -0.00075047 0.03724228
v 0.00621253 0.00532116 0.03839004
v 0.00641648 0.00532116 0.03839004
v 0.00648734 0.00540345 0.03814244
v 0.00604698 0.00582863 0.03770198
v 0.00479277 -0.00025329 0.03777297
v 0.00768990 0.00131198 0.03836823
v 0.00743296 0.00127941 0.03838790
v 0.00595824 0.00086623 0.03837080
v 0.00787333 0.00039905 0.03752836
v 0.00827131 0.00067679 0.03769001
v 0.00843024 0.00092281 0.03789100
v 0.00831369 0.00143971 0.03829425
v 0.00831369 0.00166001 0.03841784
v 0.00787333 0.00198146 0.03867826
v 0.00785147 0.00151600 0.03845333
v 0.00829581 0.00108225 0.03804965
v 0.00745614 0.00238178 0.03885872
v 0.00854016 0.00174145 0.03837165
v 0.00854016 0.00179802 0.03837165
v 0.00812033 0.00314127 0.03858205
v 0.00801636 0.00336158 0.03858205
v 0.00766804 0.00398563 0.03882238
v 0.00850109 0.00205776 0.03814201
v 0.00839713 0.00242036 0.03814201
v 0.00729721 0.00451281 0.03858205
v 0.00687605 0.00496199 0.03848113
v 0.00626749 0.00568376 0.03770198
v 0.00606221 0.00587149 0.03726195
v 0.00557284 0.00626067 0.03464827
v 0.00557284 0.00626067 0.03594143
v 0.00555430 0.00627438 0.03464827
v 0.00526889 0.00648097 0.03550139
v 0.00526889 0.00648097 0.03464827
v 0.00823555 -0.00004584 0.03668037
v 0.00835475 0.00007931 0.03682491
v 0.00858122 -0.00093563 0.03464827
v 0.00854016 -0.00088591 0.03485225
v 0.00860572 -0.00007327 0.03630577
v 0.00859446 0.00038019 0.03713452
v 0.00840573 0.00048392 0.03742744
v 0.00795610 0.00004245 0.03697330
v 0.00828124 0.00033819 0.03727307
v 0.00811238 0.00043505 0.03748859
v 0.00670785 0.00524316 0.03814244
v 0.00743296 0.00154086 0.03852004
v 0.00860175 0.00077794 0.03759764
v 0.00857923 0.00121597 0.03799790
v 0.00863088 0.00108225 0.03772721
v 0.00857592 0.00157343 0.03814330
v 0.00870703 0.00110025 0.03726195
v 0.00862956 0.00154086 0.03770198
v 0.00855142 0.00183745 0.03814201
v 0.00823820 0.00286096 0.03814244
v 0.00812231 0.00314384 0.03814244
v 0.00801835 0.00336415 0.03814244
v 0.00781903 0.00374218 0.03858205
v 0.00767533 0.00399677 0.03858205
v 0.00751772 0.00421707 0.03858205
v 0.00849977 0.00207747 0.03770198
v 0.00855936 0.00185717 0.03770198
v 0.00849977 0.00208262 0.03682192
v 0.00839646 0.00242036 0.03726195
v 0.00823820 0.00286096 0.03770198
v 0.00731112 0.00453596 0.03814244
v 0.00714557 0.00475626 0.03814244
v 0.00692572 0.00502285 0.03814244
v 0.00651648 0.00546432 0.03770198
v 0.00628206 0.00567776 0.03726195
v 0.00627279 0.00567262 0.03464827
v 0.00579269 0.00607894 0.03464827
v 0.00870041 -0.00065961 0.03464827
v 0.00862890 -0.00066218 0.03502373
v 0.00858983 -0.00049845 0.03550139
v 0.00863949 0.00028676 0.03682192
v 0.00871564 -0.00021900 0.03550139
v 0.00865207 0.00064250 0.03727307
v 0.00673633 0.00524316 0.03770198
v 0.00874279 0.00066050 0.03682192
v 0.00875869 0.00066050 0.03638189
v 0.00871035 0.00107368 0.03464827
v 0.00870703 0.00110025 0.03464827
v 0.00863154 0.00154086 0.03638189
v 0.00856069 0.00186231 0.03682192
v 0.00812231 0.00314384 0.03770198
v 0.00801768 0.00336415 0.03770198
v 0.00782035 0.00374218 0.03814244
v 0.00767533 0.00399763 0.03814244
v 0.00753097 0.00421707 0.03814244
v 0.00856400 0.00178431 0.03464827
v 0.00855936 0.00179974 0.03464827
v 0.00825409 0.00281125 0.03726195
v 0.00823555 0.00286096 0.03726195
v 0.00731112 0.00453681 0.03726195
v 0.00714822 0.00475712 0.03726195
v 0.00692837 0.00502371 0.03726195
v 0.00673567 0.00524401 0.03726195
v 0.00650191 0.00545232 0.03464827
v 0.00648800 0.00546603 0.03464827
v 0.00877789 -0.00021900 0.03464827
v 0.00877325 -0.00021900 0.03506136
v 0.00877259 0.00022075 0.03594185
v 0.00878186 0.00022075 0.03550139
v 0.00875869 0.00066050 0.03464827
v 0.00863022 0.00154086 0.03464827
v 0.00863154 0.00154086 0.03594185
v 0.00811900 0.00313527 0.03726195
v 0.00781969 0.00374218 0.03770198
v 0.00767467 0.00399677 0.03770198
v 0.00753031 0.00421622 0.03770198
v 0.00765811 0.00397105 0.03703488
v 0.00810841 0.00311213 0.03701734
v 0.00753163 0.00420593 0.03726195
v 0.00692704 0.00502114 0.03682235
v 0.00673169 0.00524144 0.03682235
v 0.00878120 0.00019332 0.03464827
v 0.00878120 0.00022075 0.03464827
v 0.00766672 0.00398563 0.03726195
f 1 2 3
f 1 3 4
f 1 4 5
f 1 5 6
f 1 6 7
f 1 7 8
f 1 8 9
f 1 9 2
f 2 9 23
f 2 23 44
f 2 44 71
f 2 71 114
f 2 114 176
f 2 176 177
f 2 177 241
f 2 241 240
f 2 240 239
f 2 239 290
f 2 290 288
f 2 288 286
f 2 286 327
f 2 327 326
f 2 326 355
f 2 355 354
f 2 354 347
f 2 347 346
f 2 346 361
f 2 361 338
f 2 338 337
f 2 337 360
f 2 360 373
f 2 373 372
f 2 372 356
f 2 356 328
f 2 328 293
f 2 293 246
f 2 246 185
f 2 185 115
f 2 115 72
f 2 72 45
f 2 45 24
f 2 24 11
f 2 11 3
f 3 10 4
f 3 11 10
f 4 10 11
f 4 11 12
f 4 12 13
f 4 13 14
f 4 14 5
f 5 14 15
f 5 15 16
f 5 16 6
f 6 17 18
f 6 18 7
f 6 16 19
f 6 19 20
f 6 20 17
f 7 18 21
f 7 21 8
f 8 21 22
f 8 22 23
f 8 23 9
f 11 24 25
f 11 25 26
f 11 26 12
f 12 26 27
f 12 27 28
f 12 28 29
f 12 29 13
f 13 29 30
f 13 30 14
f 14 30 15
f 15 19 16
f 15 30 31
f 15 31 38
f 15 38 19
f 17 20 32
f 17 32 33
f 17 33 18
f 18 33 34
f 18 34 21
f 19 35 36
f 19 36 37
f 19 37 20
f 19 38 39
f 19 39 35
f 20 37 40
f 20 40 32
f 21 41 22
f 21 34 41
f 22 41 42
f 22 42 43
f 22 43 23
f 23 43 44
f 24 45 46
f 24 46 25
f 25 46 47
f 25 47 28
f 25 28 26
f 26 28 27
f 28 47 48
f 28 48 49
f 28 49 30
f 28 30 29
f 30 49 31
f 31 49 38
f 32 50 33
f 32 40 50
f 33 51 52
f 33 52 53
f 33 53 54
f 33 54 34
f 33 50 55
f 33 55 51
f 34 54 56
f 34 56 57
f 34 57 41
f 35 39 38
f 35 38 58
f 35 58 59
f 35 59 36
f 36 60 61
f 36 61 37
f 36 59 62
f 36 62 60
f 37 63 40
f 37 61 63
f 38 49 64
f 38 64 65
f 38 65 58
f 40 63 50
f 41 57 66
f 41 66 42
f 42 66 67
f 42 67 68
f 42 68 69
f 42 69 70
f 42 70 43
f 43 70 44
f 44 70 69
f 44 69 71
f 45 72 73
f 45 73 74
f 45 74 46
f 46 74 47
f 47 74 75
f 47 75 48
f 48 76 64
f 48 64 49
f 48 75 76
f 50 77 78
f 50 78 79
f 50 79 80
f 50 80 55
f 50 63 81
f 50 81 77
f 51 55 82
f 51 82 83
f 51 83 84
f 51 84 85
f 51 85 52
f 52 54 53
f 52 85 86
f 52 86 87
f 52 87 88
f 52 88 89
f 52 89 54
f 54 89 88
f 54 88 90
f 54 90 57
f 54 57 56
f 55 80 82
f 57 90 66
f 58 65 59
f 59 65 91
f 59 91 92
f 59 92 93
f 59 93 94
f 59 94 95
f 59 95 96
f 59 96 97
f 59 97 98
f 59 98 62
f 60 99 100
f 60 100 101
f 60 101 61
f 60 62 102
f 60 102 99
f 61 101 103
f 61 103 63
f 62 104 105
f 62 105 102
f 62 98 106
f 62 106 107
f 62 107 104
f 63 103 81
f 64 76 108
f 64 108 65
f 65 108 92
f 65 92 91
f 66 90 109
f 66 109 110
f 66 110 111
f 66 111 68
f 66 68 67
f 68 111 112
f 68 112 113
f 68 113 69
f 69 113 114
f 69 114 71
f 72 115 116
f 72 116 73
f 73 116 75
f 73 75 74
f 75 117 118
f 75 118 92
f 75 92 119
f 75 119 76
f 75 116 120
f 75 120 121
f 75 121 117
f 76 119 108
f 77 122 78
f 77 81 123
f 77 123 122
f 78 80 79
f 78 122 124
f 78 124 125
f 78 125 126
f 78 126 82
f 78 82 80
f 81 103 127
f 81 127 128
f 81 128 129
f 81 129 123
f 82 126 125
f 82 125 83
f 83 130 131
f 83 131 132
f 83 132 86
f 83 86 85
f 83 85 84
f 83 125 130
f 86 132 133
f 86 133 87
f 87 133 109
f 87 109 90
f 87 90 88
f 92 108 119
f 92 118 134
f 92 134 135
f 92 135 136
f 92 136 137
f 92 137 93
f 93 137 138
f 93 138 139
f 93 139 140
f 93 140 141
f 93 141 142
f 93 142 143
f 93 143 94
f 94 143 142
f 94 142 144
f 94 144 145
f 94 145 146
f 94 146 95
f 95 146 147
f 95 147 148
f 95 148 149
f 95 149 96
f 96 149 150
f 96 150 151
f 96 151 152
f 96 152 153
f 96 153 154
f 96 154 107
f 96 107 97
f 97 107 98
f 98 107 106
f 99 155 156
f 99 156 157
f 99 157 158
f 99 158 159
f 99 159 100
f 99 102 160
f 99 160 155
f 100 159 161
f 100 161 162
f 100 162 101
f 101 162 163
f 101 163 164
f 101 164 103
f 102 105 160
f 103 164 163
f 103 163 165
f 103 165 166
f 103 166 167
f 103 167 127
f 104 160 105
f 104 107 168
f 104 168 169
f 104 169 170
f 104 170 160
f 107 154 171
f 107 171 168
f 109 133 110
f 110 172 112
f 110 112 111
f 110 133 131
f 110 131 173
f 110 173 172
f 112 174 113
f 112 172 175
f 112 175 174
f 113 176 114
f 113 174 177
f 113 177 176
f 115 178 179
f 115 179 180
f 115 180 181
f 115 181 182
f 115 182 183
f 115 183 184
f 115 184 116
f 115 185 186
f 115 186 187
f 115 187 178
f 116 184 120
f 117 188 118
f 117 121 189
f 117 189 190
f 117 190 188
f 118 188 134
f 120 184 183
f 120 183 182
f 120 182 181
f 120 181 189
f 120 189 121
f 122 129 191
f 122 191 192
f 122 192 193
f 122 193 194
f 122 194 195
f 122 195 196
f 122 196 124
f 122 123 129
f 124 196 195
f 124 195 130
f 124 130 125
f 127 167 128
f 128 167 197
f 128 197 198
f 128 198 192
f 128 192 191
f 128 191 129
f 130 195 194
f 130 194 131
f 131 194 199
f 131 199 200
f 131 200 173
f 131 133 132
f 134 188 201
f 134 201 135
f 135 202 203
f 135 203 204
f 135 204 205
f 135 205 138
f 135 138 136
f 135 201 206
f 135 206 207
f 135 207 208
f 135 208 202
f 136 138 137
f 138 209 210
f 138 210 211
f 138 211 139
f 138 205 209
f 139 211 140
f 140 211 212
f 140 212 213
f 140 213 141
f 141 213 142
f 142 213 214
f 142 214 215
f 142 215 216
f 142 216 151
f 142 151 144
f 144 217 145
f 144 151 150
f 144 150 149
f 144 149 217
f 145 217 149
f 145 149 148
f 145 148 146
f 146 148 147
f 151 216 218
f 151 218 212
f 151 212 219
f 151 219 152
f 152 220 153
f 152 219 221
f 152 221 222
f 152 222 220
f 153 220 223
f 153 223 224
f 153 224 154
f 154 224 225
f 154 225 226
f 154 226 171
f 155 227 156
f 155 160 227
f 156 228 229
f 156 229 157
f 156 227 170
f 156 170 169
f 156 169 228
f 157 229 230
f 157 230 231
f 157 231 161
f 157 161 159
f 157 159 158
f 160 170 227
f 161 231 232
f 161 232 162
f 162 232 233
f 162 233 165
f 162 165 163
f 165 233 234
f 165 234 235
f 165 235 166
f 166 235 236
f 166 236 167
f 167 236 197
f 168 171 169
f 169 171 228
f 171 226 237
f 171 237 229
f 171 229 228
f 172 173 200
f 172 200 238
f 172 238 175
f 174 239 240
f 174 240 241
f 174 241 177
f 174 175 242
f 174 242 239
f 175 238 243
f 175 243 242
f 178 189 179
f 178 187 244
f 178 244 245
f 178 245 189
f 179 189 180
f 180 189 181
f 185 246 247
f 185 247 186
f 186 248 249
f 186 249 187
f 186 247 248
f 187 249 244
f 188 250 201
f 188 190 250
f 189 251 252
f 189 252 253
f 189 253 190
f 189 245 251
f 190 253 254
f 190 254 255
f 190 255 256
f 190 256 257
f 190 257 250
f 192 198 193
f 193 198 194
f 194 198 258
f 194 258 259
f 194 259 199
f 197 236 198
f 198 236 235
f 198 235 234
f 198 234 258
f 199 259 260
f 199 260 261
f 199 261 200
f 200 261 238
f 201 262 206
f 201 250 262
f 202 263 264
f 202 264 265
f 202 265 204
f 202 204 203
f 202 208 263
f 204 209 205
f 204 265 209
f 206 262 250
f 206 250 256
f 206 256 266
f 206 266 267
f 206 267 268
f 206 268 208
f 206 208 207
f 208 269 270
f 208 270 271
f 208 271 272
f 208 272 263
f 208 268 273
f 208 273 269
f 209 265 271
f 209 271 210
f 210 221 212
f 210 212 211
f 210 271 270
f 210 270 221
f 212 221 219
f 212 218 216
f 212 216 215
f 212 215 274
f 212 274 213
f 213 274 214
f 214 274 215
f 220 222 275
f 220 275 276
f 220 276 223
f 221 270 275
f 221 275 222
f 223 277 278
f 223 278 279
f 223 279 224
f 223 276 280
f 223 280 281
f 223 281 277
f 224 279 226
f 224 226 225
f 226 279 282
f 226 282 283
f 226 283 259
f 226 259 237
f 229 237 230
f 230 232 231
f 230 237 259
f 230 259 258
f 230 258 234
f 230 234 232
f 232 234 233
f 238 261 284
f 238 284 285
f 238 285 286
f 238 286 287
f 238 287 288
f 238 288 289
f 238 289 243
f 239 242 289
f 239 289 290
f 242 243 289
f 244 249 291
f 244 291 245
f 245 291 292
f 245 292 251
f 246 293 294
f 246 294 247
f 247 294 248
f 248 294 295
f 248 295 249
f 249 292 291
f 249 295 296
f 249 296 297
f 249 297 292
f 250 257 256
f 251 292 298
f 251 298 299
f 251 299 252
f 252 299 253
f 253 299 300
f 253 300 254
f 254 300 266
f 254 266 256
f 254 256 255
f 259 283 260
f 260 284 261
f 260 283 301
f 260 301 284
f 263 272 264
f 264 272 265
f 265 272 302
f 265 302 271
f 266 300 267
f 267 300 297
f 267 297 268
f 268 297 303
f 268 303 304
f 268 304 275
f 268 275 269
f 268 269 273
f 269 275 270
f 271 302 272
f 275 304 305
f 275 305 306
f 275 306 276
f 276 306 307
f 276 307 308
f 276 308 309
f 276 309 280
f 277 310 311
f 277 311 312
f 277 312 278
f 277 281 310
f 278 312 313
f 278 313 279
f 279 313 314
f 279 314 315
f 279 315 282
f 280 316 281
f 280 309 317
f 280 317 316
f 281 316 318
f 281 318 319
f 281 319 320
f 281 320 310
f 282 315 321
f 282 321 322
f 282 322 323
f 282 323 301
f 282 301 283
f 284 301 324
f 284 324 325
f 284 325 285
f 285 325 326
f 285 326 327
f 285 327 286
f 286 288 287
f 288 290 289
f 292 297 299
f 292 299 298
f 293 328 329
f 293 329 295
f 293 295 330
f 293 330 294
f 294 330 295
f 295 331 296
f 295 329 332
f 295 332 331
f 296 333 303
f 296 303 297
f 296 331 333
f 297 300 299
f 301 323 334
f 301 334 324
f 303 305 304
f 303 333 305
f 305 307 306
f 305 333 335
f 305 335 307
f 307 335 336
f 307 336 337
f 307 337 338
f 307 338 362
f 307 362 339
f 307 339 308
f 308 339 340
f 308 340 317
f 308 317 309
f 310 320 341
f 310 341 311
f 311 341 312
f 312 341 342
f 312 342 364
f 312 364 343
f 312 343 313
f 313 343 314
f 314 343 344
f 314 344 345
f 314 345 321
f 314 321 315
f 316 317 340
f 316 340 318
f 318 340 346
f 318 346 347
f 318 347 319
f 319 347 348
f 319 348 320
f 320 348 349
f 320 349 341
f 321 345 350
f 321 350 351
f 321 351 322
f 322 351 352
f 322 352 323
f 323 352 334
f 324 353 354
f 324 354 355
f 324 355 326
f 324 326 325
f 324 334 353
f 328 356 357
f 328 357 332
f 328 332 329
f 331 332 358
f 331 358 335
f 331 335 333
f 332 357 358
f 334 352 353
f 335 358 336
f 336 358 359
f 336 359 360
f 336 360 337
f 338 361 362
f 339 362 340
f 340 362 361
f 340 361 346
f 341 349 363
f 341 363 342
f 342 363 364
f 343 364 344
f 344 364 365
f 344 365 366
f 344 366 345
f 345 366 350
f 347 354 367
f 347 367 368
f 347 368 363
f 347 363 349
f 347 349 348
f 350 366 369
f 350 369 354
f 350 354 351
f 351 354 370
f 351 370 352
f 352 370 353
f 353 370 371
f 353 371 354
f 354 371 370
f 354 369 367
f 356 372 359
f 356 359 357
f 357 359 358
f 359 372 373
f 359 373 360
f 363 368 367
f 363 367 374
f 363 374 364
f 364 374 365
f 365 374 369
f 365 369 366
f 367 369 374

