# https://github.com/mikedh/trimesh
v -0.00313316 -0.00022000 0.03845717
v -0.00456490 -0.00074154 0.03839159
v -0.00489255 -0.00097515 0.03837098
v -0.00411880 -0.00074154 0.03840096
v -0.00445185 -0.00099688 0.03837473
v -0.00367946 -0.00074154 0.03840377
v -0.00313316 -0.00066005 0.03841033
v -0.00269247 -0.00066005 0.03840564
v -0.00265456 -0.00018740 0.03841314
v -0.00277438 0.00022005 0.03841033
v -0.00313316 0.00022005 0.03844218
v -0.00357318 -0.00022000 0.03844125
v -0.00520056 -0.00092734 0.03836442
v -0.00534136 -0.00108597 0.03835037
v -0.00577258 -0.00154232 0.03830727
v -0.00445185 -0.00121745 0.03834943
v -0.00324283 -0.00074154 0.03840190
v -0.00401184 -0.00121201 0.03834850
v -0.00313384 -0.00074154 0.03840096
v -0.00269315 -0.00074154 0.03839628
v -0.00245621 -0.00090995 0.03836817
v -0.00244674 -0.00074154 0.03837754
v -0.00244200 -0.00066005 0.03838035
v -0.00244741 -0.00031127 0.03838035
v -0.00286644 0.00053841 0.03838410
v -0.00248194 -0.00001790 0.03833725
v -0.00401251 -0.00022000 0.03841501
v -0.00313316 0.00054384 0.03838410
v -0.00357182 0.00023961 0.03839909
v -0.00401251 0.00010053 0.03838035
v -0.00480319 -0.00036342 0.03837285
v -0.00518769 -0.00074154 0.03836442
v -0.00520056 -0.00077631 0.03836442
v -0.00577258 -0.00110227 0.03833351
v -0.00533256 -0.00154232 0.03830821
v -0.00621327 -0.00110227 0.03827448
v -0.00621327 -0.00154232 0.03821827
v -0.00577258 -0.00198128 0.03824076
v -0.00313384 -0.00096319 0.03837285
v -0.00489255 -0.00154232 0.03830446
v -0.00357250 -0.00120115 0.03834569
v -0.00269315 -0.00093929 0.03837192
v -0.00313384 -0.00118376 0.03834006
v -0.00269315 -0.00115877 0.03832507
v -0.00269315 -0.00154232 0.03819016
v -0.00225245 -0.00188676 0.03797937
v -0.00199724 -0.00182374 0.03795033
v -0.00198912 -0.00154232 0.03797187
v -0.00200943 -0.00125656 0.03796063
v -0.00290706 0.00133702 0.03793440
v -0.00332880 0.00177924 0.03793252
v -0.00313316 0.00076332 0.03832695
v -0.00245824 0.00004186 0.03804401
v -0.00357182 0.00063946 0.03832133
v -0.00342493 0.00047974 0.03836911
v -0.00357318 0.00110124 0.03820984
v -0.00428329 0.00002665 0.03836630
v -0.00577325 -0.00066005 0.03831852
v -0.00509698 -0.00048294 0.03835974
v -0.00533256 -0.00022000 0.03829884
v -0.00534136 -0.00064158 0.03835037
v -0.00577325 -0.00074154 0.03832133
v -0.00621327 -0.00074154 0.03826511
v -0.00651925 -0.00110227 0.03807399
v -0.00654497 -0.00066005 0.03807306
v -0.00653956 -0.00074154 0.03807399
v -0.00648134 -0.00154232 0.03802715
v -0.00624102 -0.00197694 0.03807868
v -0.00612865 -0.00242133 0.03802996
v -0.00577258 -0.00242133 0.03812646
v -0.00533256 -0.00198128 0.03822670
v -0.00401184 -0.00154232 0.03828573
v -0.00605419 -0.00273426 0.03797187
v -0.00357250 -0.00154232 0.03826418
v -0.00313384 -0.00154232 0.03823326
v -0.00401184 -0.00198128 0.03814520
v -0.00533256 -0.00273752 0.03796719
v -0.00357250 -0.00198128 0.03809835
v -0.00489255 -0.00268211 0.03794189
v -0.00463869 -0.00264951 0.03792597
v -0.00309593 -0.00202366 0.03802153
v -0.00292398 -0.00219859 0.03792035
v -0.00269315 -0.00216708 0.03790536
v -0.00225245 -0.00210732 0.03787350
v -0.00191059 -0.00232463 0.03758495
v -0.00155317 -0.00271361 0.03710152
v -0.00155317 -0.00251260 0.03710152
v -0.00170616 -0.00198128 0.03726079
v -0.00199251 -0.00120767 0.03770112
v -0.00280484 0.00110124 0.03770112
v -0.00289758 0.00136201 0.03770112
v -0.00332744 0.00269737 0.03682046
v -0.00333963 0.00265934 0.03707060
v -0.00329766 0.00227579 0.03754466
v -0.00357318 0.00229535 0.03755871
v -0.00340056 0.00177924 0.03793252
v -0.00218476 -0.00066005 0.03770112
v -0.00443831 0.00019180 0.03831758
v -0.00401251 0.00066010 0.03826793
v -0.00401251 0.00110124 0.03813583
v -0.00489255 0.00066010 0.03814332
v -0.00445185 0.00066010 0.03821078
v -0.00355761 0.00156085 0.03801778
v -0.00577325 -0.00022000 0.03825106
v -0.00621327 -0.00066005 0.03826230
v -0.00665599 -0.00066005 0.03770112
v -0.00664719 -0.00074154 0.03770112
v -0.00654768 -0.00022000 0.03804027
v -0.00667292 -0.00022000 0.03770112
v -0.00660522 -0.00110227 0.03770112
v -0.00645088 -0.00182808 0.03796625
v -0.00533256 -0.00242133 0.03809460
v -0.00445185 -0.00198128 0.03818173
v -0.00489255 -0.00198128 0.03820797
v -0.00577258 -0.00277337 0.03798780
v -0.00608668 -0.00287334 0.03768988
v -0.00601019 -0.00311890 0.03753623
v -0.00556137 -0.00396966 0.03705374
v -0.00560199 -0.00355677 0.03750906
v -0.00628029 -0.00242133 0.03770112
v -0.00489255 -0.00242133 0.03805338
v -0.00533256 -0.00295809 0.03785851
v -0.00434557 -0.00261039 0.03790629
v -0.00401184 -0.00256367 0.03788381
v -0.00357250 -0.00250391 0.03785102
v -0.00401184 -0.00286138 0.03770674
v -0.00489255 -0.00326558 0.03760649
v -0.00445185 -0.00320039 0.03756902
v -0.00313384 -0.00277663 0.03759244
v -0.00225448 -0.00245067 0.03763179
v -0.00210962 -0.00261800 0.03745941
v -0.00192955 -0.00235288 0.03757277
v -0.00181244 -0.00279619 0.03717928
v -0.00181244 -0.00301567 0.03697879
v -0.00152880 -0.00313845 0.03667899
v -0.00111992 -0.00358720 0.03542358
v -0.00111992 -0.00342747 0.03542358
v -0.00137242 -0.00286138 0.03637919
v -0.00153489 -0.00238765 0.03680453
v -0.00159852 -0.00221815 0.03694132
v -0.00131894 -0.00286138 0.03593886
v 0.00019471 -0.00609928 0.02889078
v -0.00330375 0.00277886 0.03594074
v -0.00331526 0.00274409 0.03638013
v -0.00322455 0.00242030 0.03682046
v -0.00017287 -0.00505294 0.02889078
v -0.00338702 0.00299943 0.03594074
v -0.00352173 0.00330040 0.03550041
v -0.00367269 0.00361767 0.03506008
v -0.00372481 0.00357312 0.03550041
v -0.00377761 0.00352966 0.03574212
v -0.00373835 0.00310374 0.03662840
v -0.00357318 0.00251483 0.03731794
v -0.00393331 0.00225189 0.03752124
v -0.00355761 0.00194765 0.03779387
v -0.00389811 0.00268216 0.03708653
v -0.00405313 0.00202263 0.03763273
v -0.00401251 0.00165320 0.03786132
v -0.00434422 0.00136744 0.03794658
v -0.00401251 0.00143481 0.03798499
v -0.00489255 0.00022005 0.03826043
v -0.00533256 0.00022005 0.03820516
v -0.00489255 0.00103061 0.03799623
v -0.00557694 0.00088936 0.03792597
v -0.00574347 0.00066879 0.03798686
v -0.00533256 0.00066010 0.03806650
v -0.00621327 0.00022005 0.03806743
v -0.00577325 0.00022005 0.03814051
v -0.00621327 -0.00022000 0.03819298
v -0.00668307 -0.00022000 0.03726079
v -0.00665802 -0.00066005 0.03682046
v -0.00664922 -0.00074154 0.03682046
v -0.00660793 -0.00110227 0.03682046
v -0.00649556 0.00022005 0.03797468
v -0.00662079 0.00022005 0.03770112
v -0.00664922 0.00066010 0.03726079
v -0.00668036 0.00022005 0.03726079
v -0.00653076 -0.00154232 0.03770112
v -0.00646036 -0.00186068 0.03770112
v -0.00639672 -0.00208125 0.03770112
v -0.00541650 -0.00355677 0.03750906
v -0.00613474 -0.00286138 0.03726172
v -0.00601763 -0.00313519 0.03726172
v -0.00556678 -0.00398161 0.03682046
v -0.00521410 -0.00451402 0.03593980
v -0.00518025 -0.00446512 0.03629487
v -0.00489255 -0.00435538 0.03652816
v -0.00533256 -0.00397835 0.03706030
v -0.00629518 -0.00242133 0.03726172
v -0.00529533 -0.00334381 0.03762429
v -0.00489255 -0.00290159 0.03782572
v -0.00512338 -0.00351874 0.03747814
v -0.00401184 -0.00313411 0.03752311
v -0.00374783 -0.00309499 0.03749313
v -0.00269315 -0.00270818 0.03753998
v -0.00240341 -0.00266363 0.03750063
v -0.00236821 -0.00311346 0.03707154
v -0.00207442 -0.00306783 0.03702657
v -0.00192955 -0.00304066 0.03700034
v -0.00181244 -0.00320256 0.03675956
v -0.00177182 -0.00344269 0.03638294
v -0.00159785 -0.00351983 0.03615622
v -0.00111857 -0.00399030 0.03489612
v -0.00069886 -0.00442275 0.03356015
v -0.00109690 -0.00336228 0.03505914
v -0.00069886 -0.00435538 0.03356015
v -0.00068126 -0.00430649 0.03330157
v -0.00024327 -0.00519854 0.03110086
v 0.00017846 -0.00613188 0.02921868
v 0.00023127 -0.00636983 0.02889078
v -0.00192955 -0.00007114 0.02888703
v -0.00199251 0.00010814 0.02888703
v -0.00333489 0.00312873 0.03417942
v -0.00335858 0.00306462 0.03506008
v -0.00337009 0.00303094 0.03550041
v -0.00345877 0.00330040 0.03506008
v -0.00328886 0.00375240 0.02888703
v -0.00349465 0.00392734 0.02888703
v -0.00357318 0.00395450 0.02888703
v -0.00401251 0.00364158 0.03506008
v -0.00381552 0.00352966 0.03574212
v -0.00385614 0.00310374 0.03662840
v -0.00422643 0.00219756 0.03747814
v -0.00531835 0.00155867 0.03759338
v -0.00546254 0.00216605 0.03700127
v -0.00516874 0.00222038 0.03706404
v -0.00489255 0.00154020 0.03771423
v -0.00447555 0.00152390 0.03782666
v -0.00463666 0.00130551 0.03791285
v -0.00587006 0.00082091 0.03789318
v -0.00621327 0.00051994 0.03795595
v -0.00533256 0.00115882 0.03783041
v -0.00574347 0.00106212 0.03778544
v -0.00644479 0.00045800 0.03792971
v -0.00668307 -0.00022000 0.03197964
v -0.00668036 -0.00027107 0.03197964
v -0.00665870 -0.00066113 0.03197964
v -0.00668375 0.00022005 0.03241997
v -0.00660793 -0.00110227 0.03197964
v -0.00653143 -0.00154232 0.03682046
v -0.00649894 0.00100562 0.03756059
v -0.00652737 0.00062751 0.03770487
v -0.00665802 0.00066010 0.03286030
v -0.00653888 0.00113166 0.03728796
v -0.00650097 0.00157497 0.03684294
v -0.00659981 0.00110124 0.03682046
v -0.00660454 0.00110124 0.03594074
v -0.00660590 0.00110124 0.03550041
v -0.00646036 -0.00186502 0.03066053
v -0.00640146 -0.00208559 0.03197964
v -0.00639943 -0.00207907 0.03726172
v -0.00506788 -0.00397400 0.03705468
v -0.00629586 -0.00242133 0.03682046
v -0.00613745 -0.00286138 0.03242091
v -0.00602102 -0.00314063 0.03286030
v -0.00590932 -0.00336011 0.03286030
v -0.00569879 -0.00374040 0.03682046
v -0.00556814 -0.00398704 0.02889921
v -0.00543478 -0.00420435 0.03550041
v -0.00543410 -0.00420218 0.03593980
v -0.00521410 -0.00453357 0.03550041
v -0.00570353 -0.00374040 0.03461975
v -0.00482417 -0.00500405 0.03461975
v -0.00480454 -0.00494429 0.03506101
v -0.00474700 -0.00488235 0.03536456
v -0.00489255 -0.00447707 0.03630799
v -0.00378980 -0.00396205 0.03660217
v -0.00401184 -0.00399682 0.03664714
v -0.00445185 -0.00406636 0.03673146
v -0.00490947 -0.00410874 0.03684482
v -0.00455407 -0.00443905 0.03622461
v -0.00489255 -0.00348506 0.03745191
v -0.00445185 -0.00341987 0.03739101
v -0.00477408 -0.00392946 0.03700690
v -0.00445185 -0.00387948 0.03695162
v -0.00313384 -0.00345246 0.03696661
v -0.00192955 -0.00329600 0.03668274
v -0.00269315 -0.00356438 0.03665932
v -0.00245689 -0.00352635 0.03660779
v -0.00192955 -0.00345790 0.03644290
v -0.00192955 -0.00357198 0.03625365
v -0.00426095 -0.00439232 0.03614310
v -0.00344117 -0.00437277 0.03566436
v -0.00192955 -0.00393380 0.03556037
v -0.00090939 -0.00496819 0.03289216
v -0.00024869 -0.00574398 0.03092285
v -0.00025681 -0.00531697 0.03139035
v -0.00025681 -0.00523657 0.03139035
v 0.00017846 -0.00621337 0.02921868
v 0.00021773 -0.00642851 0.02889078
v -0.00193023 -0.00710977 0.02888703
v -0.00192955 -0.00026998 0.02888703
v -0.00280890 0.00242030 0.02888703
v -0.00312571 0.00331344 0.02888703
v -0.00328277 0.00373828 0.02888703
v -0.00403215 0.00391864 0.02888703
v -0.00433745 0.00355574 0.03461975
v -0.00430428 0.00354487 0.03506008
v -0.00426569 0.00353292 0.03531210
v -0.00398273 0.00356878 0.03547511
v -0.00398273 0.00339928 0.03590982
v -0.00400710 0.00317654 0.03639043
v -0.00578138 0.00274083 0.03595573
v -0.00464885 0.00307331 0.03613935
v -0.00415061 0.00304832 0.03654314
v -0.00511052 0.00263978 0.03659936
v -0.00577325 0.00229209 0.03671178
v -0.00577325 0.00210738 0.03693195
v -0.00577325 0.00188789 0.03716897
v -0.00577325 0.00164668 0.03738914
v -0.00545509 0.00171622 0.03744723
v -0.00516197 0.00177924 0.03749501
v -0.00609345 0.00135983 0.03750906
v -0.00622884 0.00113166 0.03761680
v -0.00612188 0.00181727 0.03709871
v -0.00621327 0.00073942 0.03785008
v -0.00638657 0.00130008 0.03745285
v -0.00667630 -0.00022000 0.02933954
v -0.00665802 -0.00066113 0.02888703
v -0.00665870 -0.00066113 0.03154119
v -0.00665802 0.00066010 0.03241997
v -0.00665599 0.00066010 0.02977893
v -0.00665464 0.00066010 0.02888703
v -0.00667224 0.00022005 0.02888703
v -0.00660725 -0.00110227 0.03110086
v -0.00653143 -0.00154232 0.03110086
v -0.00641500 0.00174447 0.03700502
v -0.00648066 0.00145219 0.03715961
v -0.00660658 0.00110124 0.03506008
v -0.00645088 0.00180966 0.03671178
v -0.00645900 0.00184769 0.03638013
v -0.00653008 0.00154020 0.03638013
v -0.00646036 -0.00186502 0.02977893
v -0.00640146 -0.00208559 0.03022113
v -0.00629789 -0.00242133 0.03197964
v -0.00629315 -0.00243437 0.02888703
v -0.00613474 -0.00286138 0.02888703
v -0.00602034 -0.00313954 0.03110086
v -0.00591067 -0.00335793 0.02888703
v -0.00570285 -0.00374692 0.02888703
v -0.00556814 -0.00398704 0.02888703
v -0.00543817 -0.00420109 0.02888703
v -0.00543478 -0.00420653 0.03066053
v -0.00521410 -0.00453683 0.03506101
v -0.00504486 -0.00475632 0.03461975
v -0.00483094 -0.00501491 0.03419441
v -0.00482417 -0.00502252 0.03419441
v -0.00462989 -0.00524200 0.03373815
v -0.00441394 -0.00545822 0.03330063
v -0.00440988 -0.00541911 0.03373815
v -0.00434760 -0.00535174 0.03410259
v -0.00387848 -0.00575050 0.03313855
v -0.00454053 -0.00488235 0.03536456
v -0.00349668 -0.00391425 0.03652534
v -0.00216310 -0.00347854 0.03653190
v -0.00442545 -0.00453249 0.03597446
v -0.00441733 -0.00477044 0.03550697
v -0.00356235 -0.00562664 0.03329220
v -0.00093241 -0.00652955 0.02985857
v -0.00053165 -0.00645893 0.02973958
v -0.00041048 -0.00655672 0.02947070
v -0.00004425 -0.00673274 0.02889078
v 0.00001058 -0.00670340 0.02889078
v 0.00010806 -0.00650674 0.02907815
v -0.00061830 -0.00692180 0.02889078
v -0.00093241 -0.00702393 0.02889078
v -0.00128916 -0.00712607 0.02889078
v -0.00136836 -0.00714562 0.02889078
v -0.00181244 -0.00714345 0.02889078
v -0.00208525 -0.00706522 0.02889921
v -0.00208525 -0.00706522 0.02888703
v -0.00533324 0.00340797 0.02888703
v -0.00565547 0.00311569 0.03461975
v -0.00489255 0.00337103 0.03461975
v -0.00561079 0.00310048 0.03496358
v -0.00554174 0.00307657 0.03525682
v -0.00577325 0.00291251 0.03550041
v -0.00604742 0.00268324 0.03581894
v -0.00593369 0.00261805 0.03611218
v -0.00564057 0.00267347 0.03621899
v -0.00578138 0.00252461 0.03637170
v -0.00533256 0.00259741 0.03653378
v -0.00605351 0.00223233 0.03664058
v -0.00667427 -0.00022000 0.02888703
v -0.00667292 -0.00027107 0.02888703
v -0.00660522 -0.00110227 0.02888703
v -0.00660658 0.00110124 0.03419441
v -0.00660658 0.00110015 0.02888703
v -0.00652940 -0.00154232 0.02888703
v -0.00646036 -0.00186394 0.02888703
v -0.00613068 0.00231817 0.03638013
v -0.00635137 0.00206717 0.03638013
v -0.00627826 0.00242030 0.03550041
v -0.00639875 0.00207695 0.03594074
v -0.00645765 0.00185639 0.03594074
v -0.00652331 0.00154129 0.02888703
v -0.00640349 -0.00207799 0.02888703
v -0.00629789 -0.00242133 0.02888703
v -0.00601899 -0.00313737 0.02888703
v -0.00542801 -0.00421630 0.02888703
v -0.00521410 -0.00453683 0.03419441
v -0.00521410 -0.00453357 0.02888703
v -0.00504215 -0.00475414 0.02933954
v -0.00463395 -0.00523983 0.03330063
v -0.00504147 -0.00475414 0.02888703
v -0.00441259 -0.00546366 0.03286030
v -0.00419055 -0.00568314 0.03242091
v -0.00416686 -0.00568314 0.03286030
v -0.00397054 -0.00586133 0.03242091
v -0.00394685 -0.00580700 0.03286030
v -0.00343508 -0.00621337 0.03187659
v -0.00291925 -0.00660344 0.03088819
v -0.00370247 -0.00575050 0.03313855
v -0.00121808 -0.00702176 0.02907815
v -0.00151120 -0.00706848 0.02917184
v -0.00136768 -0.00713476 0.02891795
v -0.00181244 -0.00700437 0.02947257
v -0.00181244 -0.00707391 0.02925241
v -0.00206832 -0.00705870 0.02924585
v -0.00269382 -0.00675664 0.02977893
v -0.00229984 -0.00696743 0.02888703
v -0.00577055 0.00321348 0.02888703
v -0.00587480 0.00302333 0.03461975
v -0.00576378 0.00301681 0.03509006
v -0.00609142 0.00273649 0.03550041
v -0.00610631 0.00278429 0.03506008
v -0.00629112 0.00242030 0.03506008
v -0.00629450 0.00242030 0.02888703
v -0.00640078 0.00206174 0.03022020
v -0.00629180 0.00242030 0.03419441
v -0.00629450 0.00242030 0.02889921
v -0.00640011 0.00206174 0.02888703
v -0.00482147 -0.00500731 0.02888703
v -0.00462447 -0.00523114 0.02977893
v -0.00440176 -0.00546474 0.02888703
v -0.00418717 -0.00568966 0.02888703
v -0.00397190 -0.00587111 0.03022113
v -0.00396919 -0.00587111 0.03197964
v -0.00369977 -0.00609168 0.03154119
v -0.00347976 -0.00624923 0.03154119
v -0.00293008 -0.00661104 0.03066053
v -0.00290097 -0.00660344 0.03088819
v -0.00313384 -0.00621011 0.03186535
v -0.00233978 -0.00664473 0.03052468
v -0.00269382 -0.00675664 0.02933954
v -0.00293685 -0.00661539 0.03022113
v -0.00269382 -0.00675447 0.02888703
v -0.00579221 0.00320044 0.02888703
v -0.00595197 0.00305810 0.02905660
v -0.00610428 0.00280276 0.03461975
v -0.00582199 0.00318197 0.02888703
v -0.00608465 0.00292011 0.02888703
v -0.00609819 0.00288969 0.02888703
v -0.00462177 -0.00522788 0.02888703
v -0.00397325 -0.00587111 0.02888703
v -0.00397325 -0.00587111 0.02889921
v -0.00370315 -0.00609168 0.03110086
v -0.00348314 -0.00625901 0.03110086
v -0.00315008 -0.00647957 0.03066053
v -0.00293549 -0.00661539 0.02977893
v -0.00293211 -0.00661322 0.02889921
v -0.00315753 -0.00647957 0.03022113
v -0.00293211 -0.00661213 0.02888703
v -0.00371060 -0.00608516 0.02888703
v -0.00348314 -0.00625683 0.02888703
v -0.00314602 -0.00648175 0.02888703
v -0.00316092 -0.00647197 0.02888703
f 1 2 3
f 1 3 4
f 1 4 5
f 1 5 6
f 1 6 7
f 1 7 8
f 1 8 9
f 1 9 10
f 1 10 11
f 1 11 12
f 1 12 13
f 1 13 2
f 2 13 3
f 3 14 15
f 3 15 5
f 3 5 4
f 3 13 14
f 5 15 16
f 5 16 6
f 6 17 7
f 6 16 18
f 6 18 17
f 7 17 19
f 7 19 20
f 7 20 8
f 8 20 21
f 8 21 22
f 8 22 23
f 8 23 9
f 9 23 24
f 9 24 10
f 10 25 11
f 10 24 26
f 10 26 25
f 11 27 12
f 11 25 28
f 11 28 29
f 11 29 30
f 11 30 31
f 11 31 27
f 12 27 32
f 12 32 33
f 12 33 13
f 13 34 14
f 13 33 34
f 14 34 15
f 15 35 16
f 15 34 36
f 15 36 37
f 15 37 38
f 15 38 35
f 16 35 18
f 17 18 39
f 17 39 19
f 18 35 40
f 18 40 41
f 18 41 42
f 18 42 39
f 19 39 42
f 19 42 20
f 20 42 21
f 21 42 43
f 21 43 44
f 21 44 45
f 21 45 46
f 21 46 47
f 21 47 48
f 21 48 22
f 22 48 23
f 23 48 24
f 24 48 49
f 24 49 26
f 25 26 50
f 25 50 51
f 25 51 52
f 25 52 28
f 26 53 50
f 26 49 53
f 27 31 32
f 28 54 55
f 28 55 29
f 28 52 56
f 28 56 54
f 29 55 30
f 30 57 31
f 30 55 57
f 31 58 59
f 31 59 32
f 31 57 60
f 31 60 58
f 32 59 61
f 32 61 34
f 32 34 33
f 34 61 62
f 34 62 63
f 34 63 36
f 35 38 40
f 36 64 37
f 36 63 65
f 36 65 66
f 36 66 64
f 37 64 67
f 37 67 68
f 37 68 69
f 37 69 38
f 38 70 71
f 38 71 72
f 38 72 43
f 38 43 41
f 38 41 40
f 38 69 73
f 38 73 70
f 41 43 42
f 43 72 74
f 43 74 44
f 44 74 75
f 44 75 45
f 45 75 76
f 45 76 77
f 45 77 78
f 45 78 79
f 45 79 80
f 45 80 81
f 45 81 46
f 46 81 82
f 46 82 83
f 46 83 84
f 46 84 47
f 47 84 85
f 47 85 86
f 47 86 48
f 48 86 87
f 48 87 49
f 49 87 88
f 49 88 89
f 49 89 53
f 50 90 91
f 50 91 92
f 50 92 93
f 50 93 94
f 50 94 51
f 50 53 90
f 51 94 95
f 51 95 96
f 51 96 56
f 51 56 52
f 53 97 90
f 53 89 97
f 54 98 55
f 54 56 99
f 54 99 98
f 55 98 57
f 56 100 101
f 56 101 102
f 56 102 99
f 56 96 103
f 56 103 100
f 57 98 104
f 57 104 60
f 58 61 59
f 58 60 104
f 58 104 105
f 58 105 63
f 58 63 62
f 58 62 61
f 63 105 65
f 64 66 65
f 64 65 106
f 64 106 107
f 64 107 67
f 65 105 108
f 65 108 109
f 65 109 106
f 67 107 110
f 67 110 111
f 67 111 68
f 68 111 69
f 69 111 73
f 70 112 113
f 70 113 74
f 70 74 114
f 70 114 71
f 70 73 115
f 70 115 112
f 71 114 72
f 72 114 74
f 73 116 117
f 73 117 118
f 73 118 119
f 73 119 115
f 73 111 120
f 73 120 116
f 74 113 75
f 75 113 112
f 75 112 76
f 76 112 121
f 76 121 77
f 77 121 112
f 77 112 115
f 77 115 122
f 77 122 79
f 77 79 78
f 79 122 80
f 80 122 123
f 80 123 83
f 80 83 82
f 80 82 81
f 83 123 124
f 83 124 84
f 84 124 125
f 84 125 126
f 84 126 127
f 84 127 128
f 84 128 129
f 84 129 130
f 84 130 131
f 84 131 85
f 85 131 132
f 85 132 133
f 85 133 86
f 86 133 134
f 86 134 135
f 86 135 136
f 86 136 137
f 86 137 87
f 87 137 138
f 87 138 139
f 87 139 88
f 88 139 140
f 88 140 89
f 89 140 141
f 89 141 142
f 89 142 97
f 90 143 144
f 90 144 145
f 90 145 91
f 90 97 146
f 90 146 143
f 91 145 92
f 92 145 144
f 92 144 147
f 92 147 93
f 93 147 148
f 93 148 149
f 93 149 150
f 93 150 151
f 93 151 152
f 93 152 94
f 94 152 153
f 94 153 95
f 95 154 155
f 95 155 96
f 95 153 156
f 95 156 154
f 96 155 157
f 96 157 158
f 96 158 159
f 96 159 160
f 96 160 103
f 97 142 146
f 98 99 161
f 98 161 104
f 99 102 162
f 99 162 161
f 100 163 164
f 100 164 165
f 100 165 166
f 100 166 101
f 100 103 163
f 101 166 167
f 101 167 168
f 101 168 102
f 102 168 162
f 103 160 164
f 103 164 163
f 104 161 162
f 104 162 169
f 104 169 105
f 105 169 108
f 106 109 170
f 106 170 171
f 106 171 172
f 106 172 107
f 107 172 173
f 107 173 110
f 108 169 174
f 108 174 175
f 108 175 109
f 109 175 176
f 109 176 177
f 109 177 170
f 110 173 178
f 110 178 111
f 111 179 180
f 111 180 120
f 111 178 179
f 115 119 181
f 115 181 122
f 116 120 117
f 117 120 182
f 117 182 183
f 117 183 118
f 118 184 185
f 118 185 186
f 118 186 187
f 118 187 188
f 118 188 119
f 118 183 184
f 119 188 181
f 120 189 182
f 120 180 189
f 122 181 190
f 122 190 191
f 122 191 124
f 122 124 123
f 124 191 125
f 125 191 127
f 125 127 126
f 127 190 181
f 127 181 128
f 127 191 190
f 128 181 192
f 128 192 193
f 128 193 129
f 129 193 194
f 129 194 195
f 129 195 130
f 130 195 196
f 130 196 131
f 131 196 194
f 131 194 197
f 131 197 198
f 131 198 199
f 131 199 134
f 131 134 133
f 131 133 132
f 134 199 200
f 134 200 135
f 135 200 201
f 135 201 202
f 135 202 203
f 135 203 136
f 136 203 204
f 136 204 206
f 136 206 137
f 137 205 141
f 137 141 139
f 137 139 138
f 137 206 207
f 137 207 205
f 139 141 140
f 141 205 142
f 142 205 208
f 142 208 209
f 142 209 210
f 142 210 211
f 142 211 212
f 142 212 146
f 143 213 214
f 143 214 215
f 143 215 144
f 143 146 212
f 143 212 213
f 144 215 147
f 147 215 216
f 147 216 148
f 148 216 149
f 149 217 218
f 149 218 219
f 149 219 220
f 149 220 150
f 149 216 217
f 150 220 221
f 150 221 151
f 151 221 222
f 151 222 152
f 152 222 153
f 153 222 156
f 154 223 224
f 154 224 157
f 154 157 155
f 154 156 223
f 156 222 225
f 156 225 226
f 156 226 223
f 157 224 227
f 157 227 228
f 157 228 158
f 158 228 159
f 159 228 229
f 159 229 164
f 159 164 160
f 162 168 169
f 164 230 231
f 164 231 165
f 164 229 228
f 164 228 232
f 164 232 233
f 164 233 230
f 165 231 166
f 166 231 167
f 167 231 234
f 167 234 169
f 167 169 168
f 169 234 174
f 170 235 236
f 170 236 237
f 170 237 171
f 170 177 238
f 170 238 235
f 171 237 172
f 172 237 173
f 173 239 326
f 173 326 240
f 173 240 178
f 173 237 320
f 173 320 239
f 174 234 241
f 174 241 242
f 174 242 175
f 175 242 241
f 175 241 176
f 176 243 177
f 176 241 244
f 176 244 245
f 176 245 246
f 176 246 247
f 176 247 248
f 176 248 243
f 177 243 238
f 178 240 179
f 179 240 249
f 179 249 250
f 179 250 251
f 179 251 180
f 180 251 189
f 181 188 252
f 181 252 192
f 182 189 253
f 182 253 254
f 182 254 255
f 182 255 183
f 183 255 256
f 183 256 257
f 183 257 184
f 184 258 259
f 184 259 260
f 184 260 261
f 184 261 185
f 184 257 262
f 184 262 258
f 185 261 263
f 185 263 264
f 185 264 186
f 186 264 265
f 186 265 266
f 186 266 187
f 187 267 268
f 187 268 269
f 187 269 270
f 187 270 252
f 187 252 188
f 187 266 271
f 187 271 267
f 189 251 253
f 192 272 193
f 192 252 272
f 193 272 194
f 194 272 273
f 194 273 252
f 194 252 197
f 194 196 195
f 197 252 198
f 198 200 199
f 198 252 274
f 198 274 275
f 198 275 276
f 198 276 269
f 198 269 268
f 198 268 200
f 200 277 201
f 200 268 267
f 200 267 278
f 200 278 279
f 200 279 277
f 201 280 281
f 201 281 202
f 201 277 280
f 202 281 282
f 202 282 283
f 202 283 284
f 202 284 285
f 202 285 286
f 202 286 203
f 203 286 204
f 204 287 288
f 204 288 206
f 204 286 287
f 205 207 208
f 206 288 207
f 207 288 208
f 208 288 209
f 209 289 210
f 209 288 287
f 209 287 289
f 210 289 290
f 210 290 291
f 210 291 292
f 210 292 211
f 211 292 291
f 211 291 371
f 211 371 421
f 211 421 447
f 211 447 463
f 211 463 466
f 211 466 467
f 211 467 465
f 211 465 464
f 211 464 455
f 211 455 436
f 211 436 435
f 211 435 454
f 211 454 433
f 211 433 405
f 211 405 402
f 211 402 400
f 211 400 342
f 211 342 341
f 211 341 340
f 211 340 339
f 211 339 399
f 211 399 337
f 211 337 336
f 211 336 398
f 211 398 397
f 211 397 390
f 211 390 389
f 211 389 386
f 211 386 319
f 211 319 385
f 211 385 384
f 211 384 324
f 211 324 323
f 211 323 388
f 211 388 396
f 211 396 432
f 211 432 428
f 211 428 453
f 211 453 452
f 211 452 451
f 211 451 448
f 211 448 422
f 211 422 372
f 211 372 296
f 211 296 219
f 211 219 218
f 211 218 217
f 211 217 295
f 211 295 294
f 211 294 293
f 211 293 212
f 212 293 213
f 213 293 294
f 213 294 295
f 213 295 214
f 214 295 215
f 215 295 216
f 216 295 217
f 219 296 220
f 220 296 297
f 220 297 298
f 220 298 299
f 220 299 300
f 220 300 221
f 221 301 302
f 221 302 222
f 221 300 299
f 221 299 303
f 221 303 304
f 221 304 301
f 222 302 305
f 222 305 306
f 222 306 307
f 222 307 308
f 222 308 225
f 223 226 225
f 223 225 309
f 223 309 310
f 223 310 311
f 223 311 312
f 223 312 224
f 224 312 313
f 224 313 314
f 224 314 233
f 224 233 227
f 225 308 315
f 225 315 309
f 227 233 232
f 227 232 228
f 230 233 314
f 230 314 316
f 230 316 231
f 231 316 234
f 234 316 314
f 234 314 317
f 234 317 241
f 235 238 318
f 235 318 319
f 235 319 236
f 236 319 320
f 236 320 237
f 238 243 321
f 238 321 322
f 238 322 323
f 238 323 324
f 238 324 318
f 239 325 326
f 239 320 319
f 239 319 325
f 240 326 333
f 240 333 249
f 241 317 327
f 241 327 328
f 241 328 244
f 243 248 329
f 243 329 387
f 243 387 321
f 244 328 245
f 245 330 331
f 245 331 332
f 245 332 246
f 245 328 330
f 246 332 247
f 247 332 248
f 248 332 329
f 249 333 397
f 249 397 334
f 249 334 250
f 250 334 398
f 250 398 335
f 250 335 253
f 250 253 251
f 252 270 274
f 252 273 272
f 253 335 254
f 254 335 336
f 254 336 337
f 254 337 338
f 254 338 255
f 255 338 339
f 255 339 256
f 256 339 340
f 256 340 262
f 256 262 257
f 258 262 340
f 258 340 341
f 258 341 342
f 258 342 343
f 258 343 259
f 259 343 344
f 259 344 260
f 260 344 261
f 261 344 345
f 261 345 346
f 261 346 347
f 261 347 263
f 263 347 348
f 263 348 349
f 263 349 350
f 263 350 264
f 264 350 351
f 264 351 265
f 265 351 352
f 265 352 413
f 265 413 353
f 265 353 266
f 266 353 271
f 267 271 354
f 267 354 280
f 267 280 355
f 267 355 279
f 267 279 278
f 269 275 270
f 269 276 275
f 270 275 274
f 271 353 356
f 271 356 282
f 271 282 281
f 271 281 280
f 271 280 354
f 277 279 355
f 277 355 280
f 282 356 283
f 283 356 357
f 283 357 358
f 283 358 359
f 283 359 284
f 284 359 285
f 285 359 360
f 285 360 361
f 285 361 362
f 285 362 286
f 286 362 363
f 286 363 364
f 286 364 290
f 286 290 287
f 287 290 289
f 290 364 363
f 290 363 291
f 291 363 362
f 291 362 365
f 291 365 366
f 291 366 367
f 291 367 368
f 291 368 369
f 291 369 370
f 291 370 371
f 296 372 373
f 296 373 374
f 296 374 297
f 297 374 298
f 298 374 373
f 298 373 375
f 298 375 299
f 299 375 376
f 299 376 377
f 299 377 303
f 301 304 302
f 302 304 305
f 303 377 378
f 303 378 379
f 303 379 304
f 304 379 380
f 304 380 305
f 305 380 381
f 305 381 382
f 305 382 306
f 306 382 383
f 306 383 307
f 307 383 308
f 308 383 315
f 309 315 310
f 310 315 317
f 310 317 311
f 311 317 313
f 311 313 312
f 313 317 314
f 315 327 317
f 315 383 327
f 318 324 384
f 318 384 385
f 318 385 319
f 319 386 325
f 321 387 388
f 321 388 322
f 322 388 323
f 325 386 389
f 325 389 326
f 326 389 390
f 326 390 333
f 327 330 328
f 327 383 391
f 327 391 378
f 327 378 330
f 329 332 387
f 330 378 392
f 330 392 393
f 330 393 394
f 330 394 331
f 331 394 395
f 331 395 332
f 332 388 387
f 332 395 396
f 332 396 388
f 333 390 397
f 334 397 398
f 335 398 336
f 337 399 338
f 338 399 339
f 342 400 343
f 343 400 401
f 343 401 344
f 344 401 345
f 345 401 402
f 345 402 403
f 345 403 346
f 346 404 347
f 346 403 405
f 346 405 404
f 347 404 348
f 348 404 406
f 348 406 349
f 349 406 407
f 349 407 408
f 349 408 350
f 350 408 409
f 350 409 410
f 350 410 351
f 351 410 352
f 352 410 411
f 352 411 412
f 352 412 442
f 352 442 413
f 353 357 356
f 353 413 357
f 357 413 358
f 358 413 414
f 358 414 359
f 359 414 365
f 359 365 360
f 360 365 361
f 361 365 362
f 365 414 366
f 366 414 415
f 366 415 367
f 367 415 416
f 367 416 368
f 368 416 415
f 368 415 417
f 368 417 418
f 368 418 369
f 369 418 419
f 369 419 370
f 370 419 420
f 370 420 421
f 370 421 371
f 372 422 423
f 372 423 373
f 373 423 375
f 375 423 424
f 375 424 376
f 376 424 377
f 377 424 425
f 377 425 378
f 378 425 392
f 378 391 379
f 379 381 380
f 379 391 383
f 379 383 381
f 381 383 382
f 392 425 393
f 393 425 426
f 393 426 427
f 393 427 394
f 394 428 429
f 394 429 395
f 394 427 430
f 394 430 431
f 394 431 428
f 395 429 432
f 395 432 396
f 400 402 401
f 402 405 403
f 404 405 433
f 404 433 434
f 404 434 435
f 404 435 436
f 404 436 406
f 406 436 407
f 407 436 437
f 407 437 438
f 407 438 409
f 407 409 408
f 409 438 439
f 409 439 440
f 409 440 410
f 410 440 411
f 411 440 412
f 412 441 419
f 412 419 418
f 412 418 442
f 412 440 441
f 413 443 444
f 413 444 415
f 413 415 414
f 413 442 443
f 415 444 417
f 417 444 442
f 417 442 418
f 419 441 420
f 420 445 421
f 420 441 446
f 420 446 445
f 421 445 447
f 422 448 423
f 423 449 450
f 423 450 426
f 423 426 425
f 423 425 424
f 423 448 451
f 423 451 449
f 426 450 427
f 427 450 452
f 427 452 453
f 427 453 430
f 428 432 429
f 428 431 453
f 430 453 431
f 433 454 434
f 434 454 435
f 436 455 456
f 436 456 437
f 437 456 457
f 437 457 438
f 438 457 439
f 439 457 458
f 439 458 440
f 440 458 459
f 440 459 441
f 441 459 446
f 442 444 443
f 445 446 460
f 445 460 461
f 445 461 447
f 446 459 462
f 446 462 460
f 447 461 463
f 449 452 450
f 449 451 452
f 455 464 457
f 455 457 456
f 457 464 458
f 458 464 465
f 458 465 462
f 458 462 459
f 460 462 466
f 460 466 461
f 461 466 463
f 462 465 467
f 462 467 466

