# https://github.com/mikedh/trimesh
v -0.00024143 -0.00720000 -0.00185758
v -0.00057229 -0.00720000 -0.00178364
v -0.00098251 -0.00720000 -0.00159485
v -0.00133564 -0.00720000 -0.00131338
v -0.00161114 -0.00720000 -0.00095558
v -0.00179301 -0.00720000 -0.00054224
v -0.00187067 -0.00720000 -0.00009739
v 0.00146480 -0.00720000 -0.00116759
v 0.00114281 -0.00720000 -0.00148421
v 0.00075441 -0.00720000 -0.00171457
v 0.00032216 -0.00720000 -0.00184529
v 0.00009734 -0.00720000 -0.00187067
v -0.00023199 -0.00727321 -0.00178498
v -0.00054992 -0.00727321 -0.00171394
v -0.00094412 -0.00727321 -0.00153253
v -0.00128344 -0.00727321 -0.00126205
v -0.00154817 -0.00727321 -0.00091823
v -0.00172293 -0.00727321 -0.00052105
v -0.00179756 -0.00727321 -0.00009358
v 0.00163516 -0.00727321 -0.00075251
v 0.00140755 -0.00727321 -0.00112196
v 0.00109815 -0.00727321 -0.00142621
v 0.00072493 -0.00727321 -0.00164757
v 0.00030957 -0.00727321 -0.00177318
v 0.00009354 -0.00727321 -0.00179757
v -0.00021910 -0.00730000 -0.00168582
v -0.00051937 -0.00730000 -0.00161872
v -0.00089167 -0.00730000 -0.00144738
v -0.00121214 -0.00730000 -0.00119194
v -0.00146216 -0.00730000 -0.00086722
v -0.00162722 -0.00730000 -0.00049210
v -0.00169770 -0.00730000 -0.00008838
v 0.00166952 -0.00730000 -0.00032047
v 0.00154431 -0.00730000 -0.00071070
v 0.00132936 -0.00730000 -0.00105963
v 0.00103714 -0.00730000 -0.00134697
v 0.00068465 -0.00730000 -0.00155604
v 0.00029237 -0.00730000 -0.00167467
v 0.00008834 -0.00730000 -0.00169770
v 0.00845008 0.00122018 0.00226886
v 0.00838196 0.00157870 0.00226886
v 0.00838250 0.00157614 0.03813041
v -0.00602682 -0.00248747 0.03592620
v -0.00565353 -0.00336187 0.03740390
v -0.00571441 -0.00323763 0.03749428
v -0.00590951 -0.00279551 0.03774999
v -0.00602461 -0.00248906 0.03787700
v -0.00612487 -0.00218710 0.03611846
v -0.00549552 -0.00366110 0.03714413
v -0.00601686 -0.00251540 0.03590377
v -0.00530655 -0.00397987 0.03678082
v -0.00518077 -0.00417458 0.03649481
v -0.00581029 -0.00303053 0.03524119
v -0.00574436 -0.00317626 0.03482771
v -0.00571925 -0.00322948 0.03415253
v -0.00575743 -0.00314803 0.03370481
v -0.00555000 -0.00356230 0.00679968
v -0.00583019 -0.00298412 0.03330478
v -0.00642133 -0.00064644 0.03802220
v -0.00637520 -0.00105505 0.03630804
v -0.00636511 -0.00112209 0.03807281
v -0.00632828 -0.00134569 0.03632456
v -0.00624848 -0.00172476 0.03805303
v -0.00623553 -0.00178026 0.03626941
v -0.00610769 -0.00223792 0.03795541
v -0.00617980 -0.00199589 0.03620286
v -0.00644496 0.00028380 0.03309260
v -0.00634825 0.00123123 0.00679967
v -0.00643417 0.00049167 0.03338571
v -0.00643079 0.00053807 0.03346908
v -0.00641784 0.00069582 0.03387041
v -0.00641141 0.00075984 0.03431798
v -0.00634913 0.00122479 0.03723327
v -0.00641219 0.00075337 0.03450935
v -0.00641950 0.00067758 0.03489487
v -0.00643161 0.00052689 0.03524777
v -0.00643278 0.00051065 0.03527658
v -0.00644604 0.00024661 0.03563575
v -0.00644983 -0.00005534 0.03590588
v -0.00642325 0.00062719 0.03759944
v -0.00644871 -0.00013880 0.03596430
v -0.00644910 0.00004494 0.03784671
v -0.00643636 -0.00045112 0.03613685
v -0.00643015 -0.00053536 0.03800219
v -0.00642228 -0.00064330 0.03621248
v -0.00639448 -0.00090854 0.03628393
v -0.00615051 -0.00209823 0.03247549
v -0.00602628 -0.00248520 0.00679968
v -0.00590939 -0.00279473 0.03301632
v -0.00592543 -0.00275509 0.03296784
v -0.00616198 -0.00205846 0.03245855
v -0.00625502 -0.00169850 0.03235219
v -0.00621603 -0.00185870 0.00679967
v -0.00636511 -0.00112427 0.03233247
v -0.00640603 -0.00080927 0.03239324
v -0.00642201 -0.00064732 0.00679967
v -0.00642226 -0.00064389 0.03244592
v -0.00645000 -0.00000000 0.00679967
v -0.00643754 -0.00042009 0.03254174
v -0.00644637 -0.00019835 0.03266809
v -0.00634580 -0.00124562 0.03232248
v -0.00495670 -0.00449162 0.00504597
v -0.00442160 -0.00512986 0.00467468
v -0.00395374 -0.00558682 0.03306741
v -0.00395465 -0.00558628 0.00442020
v -0.00321407 -0.00616990 0.03145833
v -0.00518703 -0.00416585 0.00523726
v -0.00450552 -0.00503847 0.03448922
v -0.00499754 -0.00443591 0.03597889
v -0.00509955 -0.00429349 0.03628446
v -0.00542174 -0.00379050 0.00545567
v -0.00555000 -0.00356230 0.00558648
v -0.00240715 -0.00665568 0.02999653
v -0.00388249 -0.00565004 0.00438593
v -0.00330364 -0.00610658 0.00415512
v -0.00090272 -0.00724133 0.02789621
v -0.00064334 -0.00730634 0.02790972
v -0.00167074 -0.00698910 0.02887713
v 0.00122687 -0.00749792 0.02800710
v 0.00058920 -0.00748482 0.00395637
v 0.00118018 -0.00749785 0.00382193
v 0.00122814 -0.00749685 0.00380679
v 0.00308597 -0.00721837 0.02810386
v 0.00169929 -0.00747102 0.00362111
v 0.00224713 -0.00740384 0.00330914
v 0.00308597 -0.00721837 0.00273951
v 0.00481714 -0.00648527 0.02819394
v 0.00397462 -0.00690628 0.00213606
v 0.00481714 -0.00648527 0.00156393
v 0.00631161 -0.00534467 0.02827166
v 0.00490408 -0.00643398 0.00150490
v 0.00516503 -0.00626999 0.00135506
v 0.00556399 -0.00598898 0.00121395
v 0.00597577 -0.00565568 0.00116014
v 0.00631179 -0.00534405 0.00117975
v 0.00642344 -0.00523165 0.00119902
v 0.00651614 -0.00513473 0.00122004
v 0.00683301 -0.00477674 0.00132879
v 0.00721088 -0.00427546 0.00154703
v 0.00735847 -0.00405567 0.00166652
v 0.00710927 -0.00441987 0.02831313
v 0.00747741 -0.00386494 0.00178172
v 0.00747547 -0.00386825 0.02915769
v 0.00802764 -0.00275000 0.00315947
v 0.00790962 -0.00303242 0.03051414
v 0.00755204 -0.00373828 0.00186478
v 0.00779408 -0.00328116 0.00222155
v 0.00793825 -0.00296674 0.00256821
v 0.00800739 -0.00280159 0.00287554
v 0.00802764 -0.00275000 0.00226880
v 0.00812591 -0.00248627 0.00226790
v 0.00823560 -0.00214877 0.03203277
v 0.00823559 -0.00214877 0.00226516
v 0.00826230 -0.00205738 0.00226432
v 0.00844825 -0.00123123 0.03368963
v 0.00841810 -0.00140039 0.00225970
v 0.00854422 -0.00029427 0.00226510
v 0.00854423 -0.00029428 0.03545860
v 0.00854263 0.00033234 0.03668347
v 0.00855000 -0.00000000 0.00226880
v 0.00854997 0.00002229 0.00226841
v 0.00854206 0.00034506 0.03670844
v 0.00851445 0.00072941 0.00226883
v 0.00846853 0.00110300 0.03773440
v 0.00848638 0.00097775 0.03760602
v 0.00851849 0.00068384 0.03725306
v 0.00830267 0.00191008 0.03413000
v 0.00833934 0.00176582 0.03445234
v 0.00824011 0.00213384 0.03380188
v 0.00837344 0.00161780 0.00226886
v 0.00812628 0.00248519 0.00226881
v 0.00812628 0.00248519 0.03346771
v 0.00822586 0.00218138 0.03374632
v 0.00836657 0.00164956 0.03526473
v 0.00836523 0.00165560 0.03534492
v 0.00834667 0.00173503 0.03575499
v 0.00830853 0.00188800 0.03613518
v 0.00823254 0.00215917 0.03653583
v 0.00833118 0.00179883 0.03827732
v 0.00824681 0.00211084 0.03844947
v 0.00812628 0.00248519 0.03860964
v -0.00594802 0.00270072 0.03514566
v -0.00592458 0.00275987 0.03484514
v -0.00620384 0.00190573 0.03524157
v -0.00591204 0.00278941 0.03429156
v -0.00625124 0.00171543 0.03681836
v -0.00614210 0.00212825 0.03634336
v -0.00603900 0.00244982 0.03582095
v -0.00596684 0.00265109 0.03532321
v -0.00599585 0.00257020 0.03324984
v -0.00605964 0.00239165 0.03270051
v -0.00610540 0.00225675 0.03199638
v -0.00603985 0.00244612 0.02991605
v -0.00610830 0.00224774 0.03191541
v -0.00611545 0.00222260 0.03128320
v -0.00582590 0.00299814 0.02872972
v -0.00581266 0.00302832 0.02868330
v -0.00594545 0.00270666 0.02925217
v -0.00621603 0.00185870 0.00679967
v -0.00580311 0.00304984 0.02865090
v -0.00560327 0.00346299 0.02811806
v -0.00534125 0.00392453 0.02766434
v -0.00483935 0.00464367 0.02714343
v -0.00555000 0.00356230 0.00679967
v -0.00491191 0.00455034 0.02720282
v -0.00526142 0.00405163 0.02755843
v -0.00555000 0.00356230 0.00558648
v -0.00507098 0.00433722 0.00513823
v -0.00484328 0.00464304 0.00495924
v -0.00459849 0.00493404 0.02694498
v -0.00411631 0.00543684 0.02654728
v -0.00353055 0.00593904 0.02607681
v -0.00451336 0.00503370 0.00473185
v -0.00350060 0.00596202 0.02605381
v -0.00389834 0.00563705 0.00439335
v -0.00350194 0.00596091 0.00422568
v -0.00281590 0.00642695 0.02556610
v -0.00223043 0.00674455 0.02523865
v -0.00330788 0.00610396 0.00415654
v -0.00187676 0.00690581 0.02510993
v -0.00268929 0.00650056 0.00398851
v -0.00200887 0.00684679 0.00388958
v -0.00006525 0.00741592 0.00399947
v -0.00065653 0.00730327 0.00394575
v -0.00132174 0.00711457 0.00387630
v -0.00187440 0.00690534 0.00388020
v -0.00180574 0.00693544 0.02509350
v -0.00139809 0.00708922 0.02506862
v -0.00105741 0.00719831 0.02513532
v 0.00181353 0.00746105 0.02694693
v 0.00181589 0.00746017 0.00356406
v 0.00176298 0.00746532 0.00359053
v 0.00057684 0.00748404 0.00395819
v -0.00004060 0.00741955 0.00399980
v 0.00079912 0.00749604 0.02623755
v 0.00117023 0.00749803 0.00382499
v 0.00166956 0.00747436 0.02684835
v -0.00062864 0.00730976 0.02531776
v -0.00006416 0.00741682 0.02564958
v -0.00002358 0.00742281 0.02567581
v 0.00284508 0.00728201 0.02760646
v 0.00296212 0.00725209 0.02767842
v 0.00224713 0.00740384 0.00330914
v 0.00364454 0.00703693 0.00236021
v 0.00207581 0.00742958 0.02712250
v 0.00404628 0.00687519 0.02860039
v 0.00531407 0.00616990 0.00226944
v 0.00401904 0.00688679 0.02856964
v 0.00487435 0.00645169 0.00226923
v 0.00351769 0.00708077 0.02808419
v 0.00364972 0.00703319 0.02819904
v 0.00377890 0.00698592 0.00226897
v 0.00459108 0.00661141 0.00226911
v 0.00443993 0.00669282 0.02912034
v 0.00477134 0.00651362 0.02973177
v 0.00477661 0.00651057 0.02974353
v 0.00501826 0.00636440 0.03040550
v 0.00522723 0.00623068 0.03239762
v 0.00530747 0.00617385 0.03691800
v 0.00522773 0.00622841 0.03677825
v 0.00476775 0.00651405 0.03548358
v 0.00481464 0.00648732 0.03572019
v 0.00498464 0.00638508 0.03626182
v 0.00512940 0.00629355 0.03658879
v 0.00521967 0.00623561 0.03249060
v 0.00512851 0.00629422 0.03310964
v 0.00493816 0.00641344 0.03379747
v 0.00473311 0.00653346 0.03517665
v 0.00633836 0.00531760 0.03815207
v 0.00671392 0.00491626 0.03844106
v 0.00671071 0.00492026 0.03633290
v 0.00666933 0.00496730 0.03624586
v 0.00590842 0.00571396 0.03772976
v 0.00630436 0.00535122 0.03812224
v 0.00554415 0.00600470 0.03727743
v 0.00564767 0.00592647 0.03741622
v 0.00652167 0.00512989 0.03584111
v 0.00644022 0.00521558 0.03543237
v 0.00642111 0.00523461 0.03498573
v 0.00671091 0.00492002 0.03388418
v 0.00671450 0.00491563 0.00226981
v 0.00667925 0.00495629 0.03394691
v 0.00663100 0.00501023 0.00226982
v 0.00601290 0.00562313 0.00226974
v 0.00653994 0.00511055 0.03429892
v 0.00533588 0.00615477 0.00226945
v 0.00689001 0.00470563 0.03359778
v 0.00712513 0.00439813 0.03333659
v 0.00717669 0.00432591 0.03329295
v 0.00735494 0.00406157 0.03317461
v 0.00759008 0.00367195 0.03309646
v 0.00685065 0.00475420 0.00226978
v 0.00717255 0.00433178 0.00226963
v 0.00763088 0.00359750 0.00226924
v 0.00775960 0.00335228 0.03310733
v 0.00800046 0.00281800 0.00226887
v 0.00780297 0.00326409 0.03312112
v 0.00797892 0.00287169 0.03324208
v 0.00763604 0.00358810 0.03719575
v 0.00754790 0.00374527 0.03879818
v 0.00769656 0.00347451 0.03880294
v 0.00773511 0.00339974 0.03719325
v 0.00741623 0.00396470 0.03877499
v 0.00709644 0.00443660 0.03866127
v 0.00732183 0.00411105 0.03707530
v 0.00692934 0.00465630 0.03857484
v 0.00673027 0.00489741 0.03845202
v 0.00707866 0.00446081 0.03686672
v 0.00686591 0.00473573 0.03659990
v 0.00806505 0.00265258 0.03695109
v 0.00801546 0.00278055 0.03870165
v 0.00790498 0.00304209 0.03712487
v 0.00791719 0.00301500 0.03875366
v 0.00775921 0.00335188 0.03879673
v -0.00580962 0.00303242 0.00679967
v -0.00367570 0.00303713 0.03640854
v -0.00194416 -0.00205546 0.03759701
v -0.00161131 -0.00287380 0.03673866
v -0.00233832 -0.00101398 0.03812349
v -0.00313845 0.00127702 0.03799554
v -0.00345809 0.00227935 0.03735492
v -0.00149796 0.00688000 -0.00007798
v 0.00081653 0.00688000 -0.00125828
v 0.00007799 0.00688000 -0.00149797
v -0.00068144 0.00688000 -0.00133627
v -0.00125828 0.00688000 -0.00081652
v -0.00107373 0.00710000 -0.00069676
v -0.00058150 0.00710000 -0.00114028
v 0.00006655 0.00710000 -0.00127826
v 0.00069677 0.00710000 -0.00107374
v 0.00114029 0.00710000 -0.00058150
v -0.00127826 0.00710000 -0.00006654
v 0.00235848 0.00476806 0.03724518
v 0.00284656 0.00321690 0.03836291
v 0.00259253 0.00399819 0.03795732
v 0.00354869 0.00120741 0.03846918
v 0.00319042 0.00220965 0.03857146
v 0.00222352 0.00527080 0.03643644
v 0.00421558 -0.00052599 0.03738405
v 0.00391043 0.00024250 0.03804754
v -0.00555000 -0.00062509 -0.00123822
v -0.00555000 0.00007390 -0.00129273
v -0.00555000 0.00062509 -0.00123822
v -0.00555000 -0.00113968 -0.00110626
v -0.00555000 -0.00179829 -0.00080627
v -0.00555000 -0.00275000 0.00000441
v -0.00555000 0.00275000 0.00000441
v -0.00555000 0.00179829 -0.00080627
v -0.00555000 0.00129163 -0.00105108
v -0.00522597 0.00275000 -0.00078073
v -0.00017927 0.00275000 -0.00459970
v -0.00095946 0.00275000 -0.00441322
v -0.00102660 0.00275000 -0.00439266
v 0.00524728 0.00275000 -0.00330526
v 0.00417873 0.00275000 -0.00396806
v -0.00430510 0.00275000 -0.00220449
v -0.00369434 0.00275000 -0.00284770
v -0.00158772 0.00275000 -0.00419106
v -0.00254171 0.00275000 -0.00371343
v -0.00306800 0.00275000 -0.00336409
v 0.00382664 0.00275000 -0.00413258
v 0.00382224 0.00275000 -0.00413448
v 0.00309755 0.00275000 -0.00440165
v 0.00258199 0.00275000 -0.00453858
v 0.00709357 0.00275000 -0.00121870
v 0.00673458 0.00275000 -0.00177756
v 0.00629950 0.00275000 -0.00232795
v 0.00559072 0.00275000 -0.00302924
v 0.00754274 0.00275000 -0.00028693
v 0.00174352 0.00275000 -0.00467428
v 0.00089477 0.00275000 -0.00470710
v 0.00004832 0.00275000 -0.00463656
v 0.00466656 -0.00275000 -0.00369843
v 0.00527421 -0.00275000 -0.00328489
v -0.00482802 -0.00275000 -0.00149103
v -0.00459919 -0.00275000 -0.00182682
v -0.00377311 -0.00275000 -0.00277352
v -0.00370319 -0.00275000 -0.00283948
v 0.00709400 -0.00275000 -0.00121796
v 0.00730258 -0.00275000 -0.00082840
v 0.00764448 -0.00275000 -0.00001162
v 0.00784396 -0.00275000 0.00067833
v 0.00155030 -0.00275000 -0.00469087
v 0.00237491 -0.00275000 -0.00458189
v -0.00097650 -0.00275000 -0.00440807
v -0.00109622 -0.00275000 -0.00437056
v -0.00206567 -0.00275000 -0.00397460
v 0.00527809 -0.00275000 -0.00328193
v 0.00630575 -0.00275000 -0.00232081
v 0.00643201 -0.00275000 -0.00217207
v 0.00301636 -0.00275000 -0.00442603
v 0.00390157 -0.00275000 -0.00409955
v 0.00390397 -0.00275000 -0.00409848
v -0.00091898 -0.00275000 -0.00442526
v 0.00033571 -0.00275000 -0.00467218
v 0.00071858 -0.00275000 -0.00470096
v -0.00361580 -0.00275000 -0.00291943
v -0.00256773 -0.00275000 -0.00369772
v -0.00244502 -0.00275000 -0.00377042
v 0.00691544 0.00416062 0.00013905
v 0.00668292 0.00454224 0.00029694
v 0.00498765 0.00633020 0.00144815
v 0.00605001 0.00537325 0.00072673
v 0.00061391 0.00100020 -0.00515140
v 0.00079991 0.00112761 -0.00514172
v 0.00143992 -0.00000050 -0.00522105
v 0.00045284 0.00084238 -0.00515977
v 0.00032158 0.00065896 -0.00516659
v 0.00022412 0.00045550 -0.00517165
v 0.00016343 0.00023818 -0.00517480
v 0.00014135 0.00001361 -0.00517593
v 0.00015854 -0.00021138 -0.00517502
v 0.00021449 -0.00042997 -0.00517209
v 0.00030749 -0.00063551 -0.00516724
v 0.00043473 -0.00082175 -0.00516060
v 0.00059233 -0.00098304 -0.00515239
v 0.00077550 -0.00111448 -0.00514284
v 0.00097869 -0.00121207 -0.00513226
v 0.00119571 -0.00127284 -0.00512096
v 0.00141997 -0.00129496 -0.00510928
v 0.00164467 -0.00127774 -0.00509758
v 0.00186296 -0.00122172 -0.00508622
v 0.00206822 -0.00112858 -0.00507554
v 0.00225421 -0.00100118 -0.00506587
v 0.00241529 -0.00084336 -0.00505750
v 0.00254655 -0.00065994 -0.00505067
v 0.00264400 -0.00045648 -0.00504561
v 0.00270470 -0.00023916 -0.00504247
v 0.00272678 -0.00001459 -0.00504133
v 0.00270959 0.00021040 -0.00504224
v 0.00265364 0.00042899 -0.00504517
v 0.00256064 0.00063453 -0.00505003
v 0.00243340 0.00082077 -0.00505666
v 0.00227580 0.00098206 -0.00506488
v 0.00209262 0.00111350 -0.00507442
v 0.00188944 0.00121109 -0.00508501
v 0.00167242 0.00127186 -0.00509631
v 0.00144815 0.00129398 -0.00510799
v 0.00122346 0.00127676 -0.00511968
v 0.00100517 0.00122074 -0.00513104
v 0.00775521 -0.00247588 -0.00000278
v 0.00729541 -0.00227967 -0.00120220
v -0.00282442 -0.00235326 -0.00370622
v -0.00543540 -0.00233196 -0.00068948
v -0.00538308 0.00247553 -0.00068708
v -0.00143844 0.00242774 -0.00437677
v 0.00426721 0.00236549 -0.00407973
v 0.00552392 0.00235249 -0.00327193
v 0.00730259 0.00344755 -0.00002673
v 0.00780754 0.00233161 -0.00000037
v 0.00591616 0.00559733 0.00115508
v 0.00681398 0.00467849 0.00120189
v 0.00848531 -0.00008044 0.00128921
v 0.00838737 0.00120132 0.00128403
v 0.00806864 0.00244658 0.00126735
v 0.00753881 0.00361749 0.00123969
v 0.00669072 0.00189727 -0.00229547
v 0.00338536 0.00161741 -0.00467238
v 0.00307489 0.00193515 -0.00468856
v 0.00271404 0.00219407 -0.00470737
v 0.00231376 0.00238632 -0.00472822
v 0.00188623 0.00250605 -0.00475048
v 0.00144444 0.00254961 -0.00477348
v 0.00100180 0.00251570 -0.00479652
v 0.00057177 0.00240533 -0.00481890
v 0.00016740 0.00222186 -0.00483994
v -0.00019900 0.00197087 -0.00485900
v -0.00404372 0.00201439 -0.00285430
v -0.00480122 0.00227917 -0.00183224
v -0.00510462 0.00119284 -0.00184797
v -0.00512908 -0.00105447 -0.00184909
v -0.00521502 0.00007025 -0.00185364
v -0.00484940 -0.00214717 -0.00183446
v -0.00408630 -0.00189792 -0.00285626
v -0.00316902 -0.00159169 -0.00372422
v -0.00185717 -0.00182981 -0.00439829
v -0.00149062 -0.00236635 -0.00437917
v -0.00055199 -0.00161834 -0.00487714
v -0.00024152 -0.00193608 -0.00486096
v 0.00011933 -0.00219501 -0.00484215
v 0.00051960 -0.00238726 -0.00482130
v 0.00094713 -0.00250698 -0.00479904
v 0.00138893 -0.00255055 -0.00477603
v 0.00547172 -0.00244377 -0.00327433
v 0.00664814 -0.00201503 -0.00229742
v 0.00801374 -0.00259776 0.00126483
v 0.00835950 -0.00135976 0.00128274
v 0.00808474 -0.00129600 0.00001430
v 0.00820465 -0.00007675 0.00002046
v 0.00811130 0.00114483 0.00001552
v 0.00759881 -0.00119334 -0.00118648
v 0.00770921 -0.00007076 -0.00118080
v 0.00762327 0.00105397 -0.00118535
v 0.00734359 0.00214666 -0.00119998
v 0.00691630 -0.00105486 -0.00228353
v 0.00701388 -0.00006264 -0.00227851
v 0.00693792 0.00093147 -0.00228253
v -0.00431188 0.00105421 -0.00286820
v -0.00440947 0.00006200 -0.00287321
v -0.00433350 -0.00093212 -0.00286919
v 0.00583281 -0.00168991 -0.00325558
v 0.00605770 -0.00088471 -0.00324393
v 0.00613953 -0.00005264 -0.00323972
v 0.00607583 0.00078101 -0.00324309
v 0.00586852 0.00159093 -0.00325394
v -0.00277222 0.00244301 -0.00370383
v -0.00313331 0.00168914 -0.00372257
v -0.00335819 0.00088395 -0.00373423
v -0.00344003 0.00005188 -0.00373843
v -0.00337632 -0.00078178 -0.00373506
v 0.00463375 0.00182895 -0.00406062
v 0.00490169 0.00123683 -0.00404663
v 0.00506286 0.00060711 -0.00403820
v 0.00511239 -0.00004106 -0.00403557
v 0.00504877 -0.00068801 -0.00403884
v 0.00487392 -0.00131406 -0.00404791
v 0.00459316 -0.00190019 -0.00406248
v 0.00421503 -0.00242860 -0.00408213
v -0.00181658 0.00189933 -0.00439642
v -0.00209733 0.00131319 -0.00441100
v -0.00227218 0.00068714 -0.00442006
v -0.00233581 0.00004020 -0.00442333
v -0.00228628 -0.00060798 -0.00442071
v -0.00212510 -0.00123769 -0.00441227
v 0.00183157 -0.00251663 -0.00475299
v 0.00226160 -0.00240626 -0.00473061
v 0.00266596 -0.00222279 -0.00470957
v 0.00303236 -0.00197180 -0.00469052
v 0.00334967 -0.00166091 -0.00467402
v 0.00360825 -0.00129957 -0.00466058
v 0.00380024 -0.00089876 -0.00465061
v 0.00391980 -0.00047065 -0.00464442
v 0.00396331 -0.00002825 -0.00464218
v 0.00392944 0.00041499 -0.00464397
v 0.00381923 0.00084560 -0.00464974
v 0.00363601 0.00125051 -0.00465931
v -0.00051631 0.00165998 -0.00487550
v -0.00077489 0.00129863 -0.00488894
v -0.00096688 0.00089782 -0.00489890
v -0.00108644 0.00046971 -0.00490510
v -0.00112995 0.00002732 -0.00490734
v -0.00109608 -0.00041592 -0.00490554
v -0.00098586 -0.00084654 -0.00489978
v -0.00080264 -0.00125144 -0.00489021
f 104 106 119
f 454 40 163
f 304 289 288
f 304 334 82
f 301 294 299
f 130 155 127
f 130 141 143
f 162 163 166
f 161 163 162
f 166 110 123
f 123 162 166
f 127 162 123
f 119 125 123
f 108 104 119
f 45 42 179
f 179 42 175
f 175 42 174
f 174 170 175
f 233 235 236
f 219 217 221
f 217 218 221
f 221 218 222
f 326 322 327
f 326 356 350
f 350 445 347
f 347 326 350
f 322 326 347
f 199 315 347
f 445 348 347
f 133 130 127
f 61 63 301
f 301 63 314
f 63 313 314
f 297 314 313
f 172 171 310
f 181 46 180
f 172 310 181
f 308 304 288
f 84 304 82
f 59 304 84
f 301 299 300
f 289 304 305
f 293 308 288
f 288 289 293
f 293 290 294
f 293 305 290
f 289 305 293
f 294 456 293
f 456 452 293
f 199 186 184
f 193 315 199
f 186 276 333
f 82 320 80
f 186 73 321
f 68 186 199
f 68 73 186
f 199 347 68
f 68 348 98
f 68 347 348
f 252 253 402
f 242 244 243
f 360 325 359
f 328 326 327
f 325 326 328
f 328 233 236
f 327 233 328
f 325 328 324
f 324 351 325
f 324 330 323
f 323 330 354
f 155 130 152
f 152 156 155
f 127 155 158
f 160 161 158
f 453 161 160
f 454 163 453
f 453 163 161
f 166 51 318
f 40 42 164
f 109 108 119
f 119 123 109
f 109 123 110
f 340 46 45
f 45 179 340
f 180 46 340
f 340 179 180
f 41 174 42
f 170 174 41
f 41 42 40
f 41 40 454
f 454 170 41
f 234 233 327
f 189 218 217
f 236 235 237
f 235 262 237
f 250 244 242
f 253 254 255
f 327 322 332
f 332 221 222
f 219 221 332
f 222 226 332
f 332 226 225
f 225 224 332
f 332 224 223
f 332 234 327
f 223 234 332
f 200 201 315
f 315 201 207
f 208 347 207
f 207 347 315
f 214 217 219
f 213 211 215
f 215 332 322
f 322 347 215
f 215 347 213
f 104 108 103
f 106 19 113
f 119 106 113
f 115 19 106
f 114 19 115
f 106 104 115
f 104 114 115
f 32 117 116
f 116 19 32
f 119 117 32
f 32 120 119
f 18 32 19
f 443 476 387
f 387 476 477
f 124 122 35
f 124 125 119
f 119 122 124
f 127 123 128
f 81 84 82
f 83 84 81
f 301 314 302
f 312 297 313
f 65 313 63
f 304 308 306
f 334 304 306
f 306 307 320
f 82 334 306
f 306 320 82
f 287 306 292
f 292 293 452
f 308 293 292
f 292 306 308
f 291 299 294
f 294 300 291
f 291 300 299
f 337 61 301
f 301 300 337
f 337 300 61
f 290 305 303
f 294 290 303
f 303 300 294
f 303 305 304
f 303 304 59
f 59 61 303
f 61 300 303
f 269 277 278
f 271 282 272
f 272 282 283
f 270 277 269
f 269 80 270
f 270 272 277
f 320 307 270
f 270 80 320
f 270 307 271
f 271 272 270
f 195 194 199
f 199 194 192
f 192 193 199
f 275 333 276
f 186 333 275
f 187 184 186
f 186 275 187
f 187 275 259
f 187 192 194
f 188 192 187
f 194 195 187
f 199 184 187
f 187 195 199
f 283 452 451
f 451 284 283
f 402 253 249
f 253 255 249
f 335 80 269
f 73 80 335
f 274 321 73
f 274 335 269
f 73 335 274
f 273 276 186
f 186 321 273
f 321 274 273
f 273 284 276
f 273 274 284
f 70 68 98
f 73 68 72
f 143 141 140
f 488 382 441
f 487 382 488
f 244 252 331
f 331 243 244
f 330 243 331
f 402 330 331
f 331 252 402
f 236 237 232
f 232 237 230
f 359 325 358
f 358 519 359
f 370 462 463
f 357 326 325
f 325 360 357
f 356 326 357
f 330 324 329
f 329 324 328
f 329 328 236
f 236 232 329
f 329 232 330
f 491 441 442
f 488 441 491
f 145 130 143
f 145 152 130
f 143 147 145
f 152 145 151
f 159 162 127
f 127 158 159
f 161 162 159
f 159 158 161
f 157 453 160
f 160 158 157
f 156 487 157
f 157 487 453
f 155 156 157
f 157 158 155
f 317 42 45
f 45 44 317
f 165 51 166
f 166 163 165
f 165 163 40
f 40 164 165
f 49 164 42
f 42 317 49
f 49 317 44
f 175 170 176
f 170 168 176
f 176 179 175
f 176 168 179
f 180 179 177
f 177 167 180
f 179 168 177
f 177 168 170
f 170 167 177
f 178 181 180
f 170 171 169
f 169 167 170
f 180 167 169
f 169 178 180
f 98 343 342
f 98 348 349
f 349 343 98
f 262 189 263
f 263 189 188
f 263 188 264
f 264 257 263
f 188 189 190
f 242 243 241
f 243 245 241
f 261 245 230
f 261 237 262
f 230 237 261
f 261 241 245
f 242 241 261
f 262 255 261
f 262 239 238
f 238 189 262
f 218 189 238
f 223 224 238
f 238 239 223
f 240 234 223
f 223 239 240
f 233 234 240
f 235 233 240
f 240 262 235
f 240 239 262
f 246 254 253
f 246 252 248
f 253 252 246
f 196 315 183
f 183 201 185
f 185 200 183
f 201 200 185
f 204 207 201
f 182 211 183
f 182 189 217
f 217 214 182
f 216 214 219
f 219 332 216
f 332 215 216
f 212 215 211
f 211 182 212
f 212 182 214
f 214 216 212
f 212 216 215
f 209 347 208
f 213 347 209
f 210 211 213
f 213 209 210
f 210 209 203
f 183 211 210
f 210 203 183
f 105 114 104
f 104 103 105
f 105 19 114
f 108 109 102
f 102 103 108
f 102 109 110
f 118 19 116
f 118 113 19
f 116 117 118
f 118 117 119
f 119 113 118
f 7 18 19
f 19 105 7
f 7 105 103
f 28 27 121
f 119 120 121
f 121 122 119
f 15 27 28
f 126 123 125
f 126 128 123
f 125 33 126
f 11 12 383
f 1 394 395
f 383 12 396
f 396 1 395
f 12 1 396
f 63 61 62
f 62 92 63
f 63 92 64
f 86 61 59
f 79 82 98
f 98 81 79
f 79 81 82
f 100 81 98
f 83 81 100
f 314 297 295
f 295 302 314
f 295 297 294
f 295 294 301
f 301 302 295
f 296 310 171
f 294 297 296
f 296 456 294
f 297 312 296
f 296 313 298
f 296 312 313
f 45 46 53
f 43 65 48
f 46 181 47
f 65 43 47
f 298 313 311
f 311 181 310
f 311 296 298
f 310 296 311
f 309 306 287
f 307 306 309
f 287 292 309
f 309 292 307
f 307 292 281
f 283 282 281
f 281 452 283
f 281 292 452
f 283 284 279
f 279 278 283
f 269 278 279
f 279 274 269
f 284 274 279
f 285 272 283
f 277 272 285
f 283 278 285
f 285 278 277
f 191 192 188
f 193 192 191
f 188 190 191
f 191 190 193
f 276 284 286
f 286 275 276
f 259 275 286
f 286 451 402
f 284 451 286
f 259 260 316
f 316 187 259
f 188 187 316
f 82 80 78
f 98 82 78
f 78 67 98
f 74 80 73
f 73 72 74
f 74 72 68
f 381 441 382
f 146 147 143
f 141 130 138
f 231 243 330
f 330 232 231
f 231 245 243
f 230 245 231
f 231 232 230
f 325 351 352
f 351 466 467
f 537 352 467
f 467 352 351
f 370 463 371
f 371 324 370
f 464 371 463
f 472 342 343
f 485 442 379
f 485 491 442
f 455 170 454
f 455 171 170
f 456 296 455
f 455 296 171
f 400 452 456
f 538 519 537
f 538 539 519
f 156 152 154
f 154 487 156
f 51 165 339
f 339 165 164
f 339 49 51
f 164 49 339
f 173 169 171
f 178 169 173
f 173 171 172
f 172 181 173
f 181 178 173
f 341 344 98
f 98 342 341
f 342 472 341
f 256 255 262
f 256 249 255
f 257 249 267
f 267 263 257
f 249 256 267
f 262 263 267
f 267 256 262
f 198 190 189
f 189 182 198
f 315 193 198
f 193 190 198
f 183 315 198
f 198 182 183
f 248 252 251
f 251 252 244
f 244 250 251
f 254 246 268
f 268 255 254
f 268 261 255
f 268 246 248
f 248 251 268
f 268 251 250
f 268 250 242
f 242 261 268
f 266 257 264
f 264 265 266
f 197 200 315
f 315 196 197
f 183 200 197
f 197 196 183
f 208 206 205
f 205 209 208
f 203 209 205
f 183 203 205
f 205 206 183
f 208 207 202
f 202 206 208
f 207 204 202
f 202 204 201
f 202 201 183
f 183 206 202
f 107 102 110
f 103 102 346
f 102 107 346
f 120 32 31
f 31 30 120
f 32 18 31
f 18 30 31
f 17 18 5
f 17 30 18
f 386 387 477
f 478 394 477
f 28 121 29
f 29 15 28
f 120 30 29
f 29 121 120
f 30 17 29
f 12 11 24
f 383 396 483
f 481 396 395
f 133 21 8
f 132 21 133
f 131 21 132
f 132 133 127
f 127 131 132
f 9 8 22
f 22 8 21
f 22 21 35
f 20 21 131
f 128 126 20
f 101 62 61
f 87 48 91
f 85 97 95
f 85 86 59
f 95 86 85
f 59 84 85
f 85 84 83
f 83 97 85
f 99 100 98
f 83 100 99
f 46 89 58
f 58 53 46
f 46 47 50
f 50 47 43
f 319 47 181
f 65 47 319
f 181 311 319
f 319 311 65
f 313 65 336
f 336 311 313
f 65 311 336
f 271 307 280
f 307 281 280
f 280 282 271
f 280 281 282
f 247 266 265
f 402 249 247
f 247 286 402
f 247 249 257
f 257 266 247
f 259 286 258
f 258 260 259
f 258 247 265
f 286 247 258
f 264 260 258
f 258 265 264
f 338 260 264
f 338 316 260
f 264 188 338
f 188 316 338
f 77 78 80
f 67 78 77
f 80 74 75
f 142 140 382
f 143 140 142
f 142 146 143
f 139 140 141
f 141 138 139
f 139 138 381
f 382 140 139
f 139 381 382
f 381 138 380
f 379 442 380
f 442 441 380
f 441 381 380
f 353 358 325
f 325 352 353
f 372 466 351
f 351 324 372
f 324 371 372
f 371 464 465
f 466 372 465
f 465 372 371
f 376 473 474
f 474 377 376
f 474 378 377
f 492 491 496
f 496 503 497
f 497 492 496
f 493 492 497
f 496 491 495
f 491 485 495
f 501 485 389
f 389 484 501
f 450 455 454
f 452 400 401
f 152 151 153
f 153 154 152
f 148 145 147
f 148 149 145
f 147 150 148
f 148 150 149
f 145 149 144
f 149 150 144
f 144 151 145
f 144 150 151
f 471 341 472
f 471 473 344
f 344 341 471
f 387 3 399
f 3 398 399
f 443 387 399
f 399 398 443
f 397 398 3
f 443 398 397
f 378 474 397
f 218 238 220
f 222 218 220
f 220 226 222
f 52 107 110
f 51 107 52
f 52 318 51
f 52 110 166
f 166 318 52
f 51 49 111
f 111 107 51
f 111 346 107
f 18 7 6
f 5 18 6
f 6 346 5
f 6 7 103
f 103 346 6
f 376 5 375
f 5 346 375
f 375 473 376
f 98 344 96
f 95 97 96
f 96 86 95
f 96 99 98
f 96 97 83
f 83 99 96
f 3 15 4
f 4 17 5
f 4 5 376
f 376 377 4
f 377 378 4
f 4 397 3
f 378 397 4
f 14 15 3
f 27 15 14
f 394 1 2
f 1 14 2
f 2 14 3
f 2 3 387
f 387 386 2
f 10 11 391
f 438 464 463
f 542 541 412
f 541 411 412
f 539 538 408
f 408 538 537
f 410 540 539
f 541 540 410
f 410 411 541
f 15 29 16
f 16 29 17
f 16 4 15
f 17 4 16
f 121 39 38
f 122 121 38
f 38 37 122
f 480 481 395
f 395 394 480
f 418 480 417
f 481 480 418
f 482 483 396
f 396 481 482
f 36 22 35
f 35 122 36
f 122 37 36
f 37 38 23
f 23 38 24
f 23 36 37
f 22 36 23
f 23 11 10
f 23 24 11
f 10 9 23
f 9 22 23
f 128 20 129
f 129 20 131
f 127 128 129
f 129 131 127
f 34 126 33
f 34 20 126
f 34 124 35
f 35 21 34
f 21 20 34
f 125 124 34
f 34 33 125
f 66 91 48
f 63 64 66
f 66 65 63
f 48 65 66
f 90 89 46
f 46 50 90
f 76 77 80
f 80 75 76
f 76 75 70
f 67 77 69
f 98 67 69
f 69 70 98
f 69 76 70
f 77 76 69
f 71 74 68
f 71 75 74
f 68 70 71
f 70 75 71
f 130 133 134
f 134 135 130
f 9 389 134
f 133 8 134
f 134 8 9
f 137 138 130
f 137 380 138
f 379 380 137
f 446 352 537
f 446 353 352
f 537 519 446
f 519 358 446
f 358 353 446
f 356 357 468
f 468 357 360
f 356 468 469
f 350 356 469
f 469 445 350
f 469 348 445
f 470 472 343
f 343 349 470
f 470 349 348
f 348 469 470
f 470 468 498
f 470 469 468
f 472 470 499
f 499 470 498
f 488 491 489
f 491 492 489
f 489 487 488
f 453 487 489
f 489 492 493
f 504 497 503
f 503 513 504
f 505 448 367
f 493 497 494
f 494 450 493
f 502 485 501
f 502 495 485
f 502 503 496
f 496 495 502
f 379 135 390
f 390 485 379
f 390 389 485
f 135 134 390
f 390 134 389
f 9 374 388
f 388 389 9
f 374 484 388
f 484 389 388
f 365 400 449
f 449 400 456
f 456 455 449
f 455 450 449
f 403 451 452
f 452 401 403
f 403 330 402
f 402 451 403
f 403 354 330
f 486 153 151
f 151 150 486
f 382 487 486
f 486 150 147
f 487 154 486
f 154 153 486
f 147 146 486
f 486 142 382
f 146 142 486
f 229 220 238
f 225 228 229
f 229 224 225
f 229 238 224
f 226 220 227
f 225 226 227
f 227 228 225
f 227 229 228
f 220 229 227
f 112 111 49
f 346 111 112
f 473 375 444
f 444 375 346
f 345 96 344
f 346 96 345
f 345 444 346
f 344 473 345
f 473 444 345
f 61 86 60
f 86 96 60
f 27 14 26
f 26 121 27
f 26 39 121
f 394 2 385
f 385 2 386
f 477 394 385
f 385 386 477
f 384 11 383
f 384 391 11
f 464 438 439
f 512 448 505
f 505 504 512
f 512 504 513
f 542 412 543
f 407 408 537
f 537 467 407
f 407 467 404
f 539 408 409
f 409 410 539
f 466 465 440
f 440 465 464
f 464 439 440
f 391 384 527
f 130 135 136
f 136 137 130
f 136 135 379
f 379 137 136
f 507 468 360
f 498 468 507
f 523 541 542
f 523 522 541
f 542 543 523
f 500 474 473
f 473 471 500
f 500 471 472
f 472 499 500
f 493 450 490
f 490 489 493
f 490 450 454
f 454 453 490
f 453 489 490
f 369 494 365
f 450 494 369
f 365 449 369
f 369 449 450
f 457 494 497
f 505 367 457
f 457 504 505
f 497 504 457
f 503 502 515
f 373 484 374
f 373 517 484
f 373 9 10
f 373 374 9
f 501 484 516
f 484 517 516
f 516 502 501
f 516 515 502
f 516 517 531
f 531 515 516
f 401 367 368
f 368 403 401
f 354 403 368
f 368 448 354
f 368 367 448
f 57 49 44
f 44 112 57
f 57 112 49
f 55 44 45
f 55 112 44
f 88 58 89
f 88 112 58
f 89 90 88
f 88 90 50
f 88 50 43
f 88 43 48
f 346 112 88
f 94 96 101
f 94 60 96
f 94 101 61
f 61 60 94
f 13 26 14
f 13 14 1
f 13 1 12
f 354 448 511
f 448 512 511
f 417 480 416
f 478 415 416
f 477 476 544
f 544 478 477
f 414 544 543
f 414 415 478
f 478 544 414
f 466 440 405
f 404 467 405
f 405 467 466
f 425 529 424
f 406 425 424
f 406 439 438
f 406 440 439
f 406 418 417
f 417 416 406
f 406 412 411
f 411 410 406
f 406 416 415
f 415 414 406
f 408 407 406
f 406 405 440
f 406 409 408
f 410 409 406
f 406 407 404
f 404 405 406
f 532 515 531
f 383 483 525
f 525 384 383
f 483 421 525
f 483 482 419
f 418 406 419
f 481 418 419
f 419 482 481
f 424 527 423
f 423 406 424
f 506 360 359
f 506 507 360
f 359 519 506
f 520 506 519
f 507 506 520
f 519 539 520
f 539 540 520
f 509 499 498
f 522 523 509
f 524 523 543
f 524 544 476
f 543 544 524
f 524 476 443
f 365 494 366
f 494 457 366
f 366 457 367
f 366 400 365
f 366 401 400
f 366 367 401
f 514 513 503
f 503 515 514
f 515 532 514
f 10 391 392
f 391 527 528
f 528 392 391
f 529 392 528
f 528 527 424
f 424 529 528
f 45 53 54
f 54 55 45
f 93 96 346
f 346 88 93
f 101 96 93
f 92 62 93
f 62 101 93
f 91 66 93
f 87 91 93
f 93 64 92
f 93 66 64
f 93 48 87
f 93 88 48
f 39 26 25
f 26 13 25
f 25 38 39
f 24 38 25
f 12 24 25
f 25 13 12
f 478 416 479
f 479 416 480
f 394 478 479
f 479 480 394
f 531 517 530
f 517 529 530
f 427 406 428
f 427 532 531
f 428 532 427
f 531 530 427
f 412 406 413
f 413 406 414
f 413 543 412
f 413 414 543
f 534 512 513
f 513 514 534
f 526 525 421
f 526 423 527
f 526 527 384
f 384 525 526
f 420 421 483
f 483 419 420
f 420 406 421
f 420 419 406
f 498 507 508
f 508 509 498
f 510 509 523
f 523 524 510
f 474 500 510
f 510 500 499
f 499 509 510
f 517 373 518
f 518 529 517
f 518 392 529
f 53 58 56
f 56 54 53
f 58 112 56
f 112 55 56
f 55 54 56
f 323 354 355
f 363 324 323
f 323 362 363
f 425 406 426
f 406 427 426
f 426 427 530
f 529 425 426
f 426 530 529
f 533 514 532
f 533 534 514
f 422 526 421
f 423 526 422
f 421 406 422
f 406 423 422
f 507 520 521
f 521 508 507
f 521 520 540
f 522 509 521
f 509 508 521
f 521 540 541
f 541 522 521
f 475 524 443
f 475 510 524
f 474 510 475
f 443 397 475
f 475 397 474
f 393 518 373
f 392 518 393
f 393 373 10
f 10 392 393
f 354 511 447
f 447 355 354
f 370 324 364
f 324 363 364
f 364 462 370
f 534 533 429
f 429 532 428
f 429 533 532
f 428 406 429
f 361 447 362
f 355 447 361
f 361 362 323
f 323 355 361
f 362 447 458
f 436 435 406
f 434 433 406
f 406 435 434
f 462 364 461
f 534 429 430
f 430 431 534
f 430 429 406
f 406 431 430
f 406 433 432
f 432 431 406
f 437 463 462
f 437 438 463
f 462 461 437
f 437 461 436
f 437 406 438
f 437 436 406
f 460 434 435
f 460 364 363
f 460 461 364
f 435 436 460
f 436 461 460
f 512 534 535
f 534 431 535
f 433 458 536
f 536 432 433
f 431 432 536
f 536 535 431
f 536 447 511
f 536 458 447
f 536 511 512
f 512 535 536
f 434 460 459
f 459 458 433
f 433 434 459
f 459 460 363
f 459 363 362
f 362 458 459

