# https://github.com/mikedh/trimesh
v 0.00816398 0.00303601 0.01524869
v 0.00812015 0.00314032 0.01436790
v 0.00812015 0.00314032 0.01612948
v 0.00816326 0.00303601 0.02889080
v 0.00816038 0.00303601 0.00424894
v 0.00801598 0.00335860 0.01129236
v 0.00801598 0.00336044 0.01524869
v 0.00801742 0.00336044 0.02889080
v 0.00811871 0.00313573 0.00512973
v 0.00811943 0.00314032 0.02889080
v 0.00313641 0.00303601 0.02889080
v 0.00815967 0.00303601 0.00248736
v 0.00781338 0.00374232 0.00864999
v 0.00801382 0.00335447 0.00248736
v 0.00781123 0.00374232 0.00248736
v 0.00781482 0.00374232 0.01524869
v 0.00781626 0.00374232 0.02273395
v 0.00781195 0.00374646 0.02889080
v 0.00781626 0.00374232 0.02537053
v 0.00811800 0.00313435 0.00248736
v 0.00274271 0.00414166 0.02889080
v 0.00082522 0.00336871 0.02822660
v 0.00270679 0.00303601 0.02840565
v 0.00814673 0.00303601 0.00217836
v 0.00767113 0.00399139 0.00556579
v 0.00767042 0.00399093 0.00248736
v 0.00800520 0.00333379 0.00204841
v 0.00779399 0.00374232 0.00204841
v 0.00766179 0.00397714 0.00204841
v 0.00767257 0.00399185 0.02405368
v 0.00767185 0.00399185 0.01129236
v 0.00766970 0.00398863 0.02889080
v 0.00767257 0.00399185 0.02493447
v 0.00810794 0.00311413 0.00204841
v 0.00227142 0.00549638 0.02889080
v 0.00226998 0.00550328 0.02889080
v 0.00218377 0.00594306 0.02889080
v 0.00082522 0.00553544 0.02822660
v 0.00082522 0.00336871 0.00350099
v 0.00270679 0.00303601 0.00228232
v 0.00814099 0.00303601 0.00204841
v 0.00753176 0.00421105 0.00292342
v 0.00753176 0.00421059 0.00248736
v 0.00809716 0.00308977 0.00179139
v 0.00800089 0.00326256 0.00162968
v 0.00774441 0.00377357 0.00164700
v 0.00765317 0.00396336 0.00182027
v 0.00752098 0.00419726 0.00204841
v 0.00753248 0.00420600 0.02889080
v 0.00227214 0.00626519 0.02889080
v 0.00082522 0.00595271 0.02821216
v 0.00082522 0.00726745 0.00366560
v 0.00612938 0.00303601 -0.00012613
v 0.00482615 0.00303601 0.00077199
v 0.00300925 0.00303601 0.00202531
v 0.00811584 0.00303601 0.00174808
v 0.00731120 0.00454008 0.00248736
v 0.00730976 0.00453870 0.02889080
v 0.00730114 0.00452583 0.00204841
v 0.00809285 0.00303601 0.00151416
v 0.00808208 0.00305761 0.00149972
v 0.00791971 0.00330254 0.00116762
v 0.00773651 0.00367615 0.00116762
v 0.00764024 0.00394176 0.00152571
v 0.00227932 0.00627025 0.02889080
v 0.00082522 0.00637089 0.02801579
v 0.00082522 0.00635021 0.02803023
v 0.00082522 0.00760751 0.00385042
v 0.00136261 0.00754042 0.00353853
v 0.00358255 0.00710937 0.00219858
v 0.00409048 0.00667143 0.00179717
v 0.00697282 0.00303601 -0.00061128
v 0.00713878 0.00474595 0.00204841
v 0.00714812 0.00476020 0.00248736
v 0.00714884 0.00475882 0.02889080
v 0.00752026 0.00413890 0.00164700
v 0.00727672 0.00449505 0.00160657
v 0.00711794 0.00471516 0.00160657
v 0.00808782 0.00303601 0.00147084
v 0.00803825 0.00303601 0.00116762
v 0.00782344 0.00330254 0.00072578
v 0.00768909 0.00358975 0.00072578
v 0.00761366 0.00389581 0.00116762
v 0.00742543 0.00418302 0.00116762
v 0.00258897 0.00644717 0.02889080
v 0.00082522 0.00661812 0.02780786
v 0.00082522 0.00773021 0.00424605
v 0.00171104 0.00768839 0.00380710
v 0.00228148 0.00752020 0.00309958
v 0.00391231 0.00710431 0.00217836
v 0.00435271 0.00671232 0.00172209
v 0.00489225 0.00628863 0.00130335
v 0.00540233 0.00580473 0.00091061
v 0.00741609 0.00303601 -0.00055641
v 0.00625439 0.00530108 0.00049187
v 0.00672281 0.00445415 0.00003559
v 0.00682195 0.00445415 0.00003559
v 0.00691822 0.00501111 0.00204841
v 0.00689739 0.00498308 0.00160657
v 0.00692828 0.00502444 0.00248736
v 0.00692900 0.00502260 0.02889080
v 0.00724439 0.00444955 0.00116762
v 0.00708633 0.00466967 0.00116762
v 0.00686577 0.00494769 0.00116762
v 0.00793911 0.00303601 0.00071423
v 0.00772071 0.00330576 0.00031282
v 0.00765892 0.00353369 0.00048321
v 0.00756552 0.00380987 0.00072578
v 0.00732413 0.00420324 0.00074889
v 0.00722068 0.00441463 0.00091061
v 0.00260549 0.00645406 0.02889080
v 0.00082522 0.00704917 0.02735736
v 0.00082522 0.00684054 0.02757973
v 0.00082522 0.00773021 0.00425183
v 0.00083025 0.00773066 0.00424605
v 0.00127065 0.00772837 0.00424605
v 0.00171104 0.00770585 0.00424605
v 0.00215072 0.00765530 0.00380710
v 0.00259112 0.00751698 0.00308514
v 0.00270607 0.00750503 0.00309669
v 0.00284042 0.00749124 0.00311402
v 0.00391231 0.00717324 0.00248736
v 0.00416592 0.00705882 0.00221591
v 0.00479239 0.00666499 0.00171053
v 0.00523207 0.00628587 0.00126003
v 0.00567175 0.00581668 0.00087306
v 0.00761438 0.00303601 -0.00036582
v 0.00724295 0.00401253 0.00002693
v 0.00634994 0.00530108 0.00049187
v 0.00678172 0.00485349 0.00048609
v 0.00672281 0.00523123 0.00204841
v 0.00673574 0.00524455 0.00248736
v 0.00669479 0.00520320 0.00160657
v 0.00673574 0.00524501 0.00556579
v 0.00673215 0.00524272 0.02889080
v 0.00673430 0.00524410 0.01612948
v 0.00673430 0.00524364 0.01789105
v 0.00705544 0.00458603 0.00074889
v 0.00681620 0.00489301 0.00072578
v 0.00666318 0.00516781 0.00116762
v 0.00783637 0.00303601 0.00029839
v 0.00762156 0.00345511 0.00018865
v 0.00751811 0.00370510 0.00031282
v 0.00728821 0.00408054 0.00028683
v 0.00718619 0.00436362 0.00061894
v 0.00345611 0.00677666 0.02889080
v 0.00191939 0.00748803 0.02735736
v 0.00162627 0.00742967 0.02728805
v 0.00082522 0.00721230 0.02715810
v 0.00082522 0.00772607 0.02581237
v 0.00083025 0.00772653 0.02581237
v 0.00127065 0.00772515 0.02581237
v 0.00171104 0.00770539 0.02625421
v 0.00171104 0.00770585 0.01437079
v 0.00215072 0.00765576 0.00424605
v 0.00215072 0.00765714 0.00688842
v 0.00259112 0.00756569 0.00468789
v 0.00259112 0.00756431 0.00380710
v 0.00259112 0.00755696 0.00336526
v 0.00270679 0.00752663 0.00324975
v 0.00285478 0.00749492 0.00336815
v 0.00347191 0.00732995 0.00292342
v 0.00391231 0.00718106 0.00292342
v 0.00418244 0.00706663 0.00248736
v 0.00440228 0.00696507 0.00248736
v 0.00479239 0.00674725 0.00204841
v 0.00502157 0.00660893 0.00178273
v 0.00519399 0.00646923 0.00162390
v 0.00550148 0.00620086 0.00130335
v 0.00594690 0.00576567 0.00088461
v 0.00763377 0.00303601 -0.00034271
v 0.00762946 0.00305163 -0.00033405
v 0.00639233 0.00534473 0.00072578
v 0.00661217 0.00511313 0.00072578
v 0.00650297 0.00545227 0.00204841
v 0.00647495 0.00542745 0.00160657
v 0.00651518 0.00546421 0.00248736
v 0.00644262 0.00539712 0.00116762
v 0.00651518 0.00546421 0.00689130
v 0.00651159 0.00545043 0.02889080
v 0.00629103 0.00568433 0.00292342
v 0.00628959 0.00568433 0.00556579
v 0.00628816 0.00568387 0.00776920
v 0.00778177 0.00303601 0.00009624
v 0.00768838 0.00316146 -0.00003949
v 0.00390585 0.00693107 0.02889080
v 0.00215072 0.00751790 0.02740357
v 0.00174768 0.00756109 0.02714077
v 0.00127065 0.00752755 0.02697906
v 0.00104291 0.00748665 0.02691841
v 0.00082522 0.00724493 0.02711767
v 0.00082522 0.00768563 0.02625421
v 0.00083025 0.00768701 0.02625421
v 0.00127065 0.00772147 0.02625421
v 0.00171104 0.00768839 0.02669605
v 0.00215072 0.00765484 0.02669605
v 0.00215072 0.00765714 0.00909183
v 0.00259112 0.00757626 0.02053053
v 0.00259112 0.00757350 0.01524869
v 0.00259112 0.00756937 0.00864710
v 0.00259112 0.00756845 0.00732737
v 0.00259112 0.00757764 0.02361185
v 0.00270679 0.00753398 0.00361362
v 0.00290148 0.00750733 0.02053053
v 0.00289861 0.00750641 0.01921079
v 0.00287346 0.00749998 0.00997262
v 0.00270679 0.00752985 0.00336815
v 0.00308324 0.00743978 0.00644947
v 0.00307822 0.00743840 0.00468500
v 0.00307606 0.00743748 0.00380421
v 0.00307462 0.00743702 0.00336815
v 0.00347191 0.00733178 0.00336815
v 0.00347191 0.00733224 0.00380421
v 0.00347191 0.00733500 0.00644947
v 0.00347191 0.00733546 0.00689130
v 0.00391231 0.00718151 0.00336815
v 0.00440300 0.00696507 0.00292342
v 0.00391231 0.00718243 0.00512973
v 0.00418675 0.00706847 0.01085341
v 0.00479239 0.00676747 0.00248736
v 0.00503737 0.00661904 0.00204841
v 0.00525721 0.00647290 0.00204841
v 0.00554171 0.00623119 0.00160657
v 0.00599863 0.00580979 0.00116762
v 0.00772430 0.00303601 -0.00010014
v 0.00621847 0.00561678 0.00116762
v 0.00627882 0.00567239 0.00204841
v 0.00625439 0.00564757 0.00160657
v 0.00629103 0.00568433 0.00248736
v 0.00626948 0.00567377 0.02889080
v 0.00607119 0.00587320 0.00248736
v 0.00579316 0.00607908 0.02889080
v 0.00605251 0.00585896 0.02889080
v 0.00433259 0.00694715 0.02889080
v 0.00404666 0.00706020 0.02871464
v 0.00259112 0.00752755 0.02746710
v 0.00215072 0.00760383 0.02713500
v 0.00127065 0.00764473 0.02669605
v 0.00086976 0.00755052 0.02668161
v 0.00082522 0.00754639 0.02666140
v 0.00082522 0.00750549 0.02673648
v 0.00082522 0.00744345 0.02684622
v 0.00259112 0.00757396 0.02713500
v 0.00259112 0.00757718 0.02669605
v 0.00259112 0.00757764 0.02581237
v 0.00290795 0.00750963 0.02449263
v 0.00290507 0.00750871 0.02273395
v 0.00312132 0.00744897 0.02009158
v 0.00310911 0.00744667 0.01568764
v 0.00347191 0.00733684 0.00864999
v 0.00347191 0.00734189 0.01568764
v 0.00347191 0.00734465 0.01964974
v 0.00419250 0.00707168 0.02757395
v 0.00441306 0.00696737 0.02801579
v 0.00391231 0.00718289 0.00644947
v 0.00504815 0.00662593 0.00248736
v 0.00479239 0.00677115 0.02889080
v 0.00526871 0.00648210 0.00248736
v 0.00558338 0.00626198 0.00248736
v 0.00557045 0.00625279 0.00204841
v 0.00576155 0.00606345 0.00160657
v 0.00603383 0.00584333 0.00160657
v 0.00605898 0.00586401 0.00204841
v 0.00580322 0.00609332 0.00248736
v 0.00557332 0.00626152 0.02889080
v 0.00464080 0.00683043 0.02889080
v 0.00417095 0.00706020 0.02871464
v 0.00270679 0.00751698 0.02745555
v 0.00287562 0.00750090 0.02744111
v 0.00270679 0.00755052 0.02713500
v 0.00290723 0.00750917 0.02713500
v 0.00290795 0.00750963 0.02537053
v 0.00312779 0.00744943 0.02405368
v 0.00347191 0.00734511 0.02229211
v 0.00391231 0.00718657 0.02141132
v 0.00391231 0.00718565 0.01701026
v 0.00391231 0.00718519 0.01524869
v 0.00391231 0.00718703 0.02757395
v 0.00419250 0.00707123 0.02801579
v 0.00391231 0.00718703 0.02449263
v 0.00441162 0.00696737 0.02845474
v 0.00504959 0.00662639 0.02801579
v 0.00419178 0.00706985 0.02845474
v 0.00504959 0.00662639 0.02889080
v 0.00526655 0.00648347 0.02889080
v 0.00527445 0.00647796 0.02889080
v 0.00579029 0.00608413 0.00204841
v 0.00391231 0.00718519 0.02801579
v 0.00347191 0.00734511 0.02757395
v 0.00312779 0.00744943 0.02713500
f 1 2 3
f 1 3 4
f 1 4 11
f 1 11 23
f 1 23 40
f 1 40 55
f 1 55 54
f 1 54 53
f 1 53 72
f 1 72 94
f 1 94 127
f 1 127 171
f 1 171 225
f 1 225 184
f 1 184 141
f 1 141 105
f 1 105 80
f 1 80 79
f 1 79 60
f 1 60 56
f 1 56 41
f 1 41 24
f 1 24 12
f 1 12 5
f 1 5 2
f 2 6 7
f 2 7 8
f 2 8 3
f 2 5 9
f 2 9 6
f 3 8 10
f 3 10 4
f 4 10 8
f 4 8 18
f 4 18 32
f 4 32 49
f 4 49 58
f 4 58 75
f 4 75 101
f 4 101 135
f 4 135 180
f 4 180 230
f 4 230 233
f 4 233 232
f 4 232 265
f 4 265 286
f 4 286 285
f 4 285 284
f 4 284 257
f 4 257 266
f 4 266 234
f 4 234 186
f 4 186 146
f 4 146 111
f 4 111 85
f 4 85 65
f 4 65 50
f 4 50 37
f 4 37 36
f 4 36 35
f 4 35 21
f 4 21 11
f 5 12 9
f 6 13 7
f 6 9 14
f 6 14 15
f 6 15 13
f 7 13 16
f 7 16 17
f 7 17 8
f 8 17 19
f 8 19 18
f 9 12 20
f 9 20 14
f 11 21 22
f 11 22 23
f 12 24 20
f 13 25 16
f 13 15 26
f 13 26 25
f 14 20 27
f 14 27 28
f 14 28 15
f 15 28 29
f 15 29 26
f 16 25 17
f 17 30 33
f 17 33 19
f 17 25 31
f 17 31 30
f 18 19 33
f 18 33 32
f 20 24 34
f 20 34 27
f 21 35 22
f 22 35 36
f 22 36 37
f 22 37 38
f 22 38 51
f 22 51 67
f 22 67 66
f 22 66 86
f 22 86 113
f 22 113 112
f 22 112 149
f 22 149 191
f 22 191 242
f 22 242 241
f 22 241 240
f 22 240 192
f 22 192 150
f 22 150 114
f 22 114 87
f 22 87 68
f 22 68 52
f 22 52 39
f 22 39 40
f 22 40 23
f 24 41 34
f 25 26 42
f 25 42 31
f 26 29 43
f 26 43 42
f 27 44 45
f 27 45 46
f 27 46 28
f 27 34 44
f 28 46 47
f 28 47 29
f 29 47 48
f 29 48 43
f 30 31 42
f 30 42 33
f 32 33 49
f 33 42 49
f 34 41 44
f 37 50 51
f 37 51 38
f 39 52 53
f 39 53 54
f 39 54 55
f 39 55 40
f 41 56 44
f 42 43 57
f 42 57 58
f 42 58 49
f 43 48 59
f 43 59 57
f 44 56 60
f 44 60 61
f 44 61 45
f 45 61 62
f 45 62 63
f 45 63 46
f 46 64 47
f 46 63 64
f 47 64 48
f 48 64 59
f 50 65 66
f 50 66 67
f 50 67 51
f 52 68 69
f 52 69 70
f 52 70 71
f 52 71 72
f 52 72 53
f 57 59 73
f 57 73 74
f 57 74 75
f 57 75 58
f 59 64 76
f 59 76 77
f 59 77 78
f 59 78 73
f 60 79 61
f 61 79 62
f 62 79 80
f 62 80 81
f 62 81 82
f 62 82 63
f 63 82 83
f 63 83 64
f 64 77 76
f 64 83 84
f 64 84 77
f 65 85 86
f 65 86 66
f 68 87 88
f 68 88 89
f 68 89 69
f 69 89 70
f 70 89 90
f 70 90 91
f 70 91 92
f 70 92 71
f 71 92 93
f 71 93 72
f 72 93 95
f 72 95 96
f 72 96 97
f 72 97 94
f 73 98 74
f 73 78 99
f 73 99 98
f 74 98 100
f 74 100 75
f 75 100 101
f 77 84 102
f 77 102 103
f 77 103 78
f 78 103 104
f 78 104 99
f 80 105 81
f 81 105 106
f 81 106 107
f 81 107 82
f 82 107 108
f 82 108 83
f 83 108 109
f 83 109 110
f 83 110 84
f 84 110 102
f 85 111 112
f 85 112 113
f 85 113 86
f 87 114 115
f 87 115 88
f 88 115 116
f 88 116 117
f 88 117 118
f 88 118 119
f 88 119 89
f 89 119 90
f 90 119 120
f 90 120 121
f 90 121 122
f 90 122 123
f 90 123 124
f 90 124 125
f 90 125 91
f 91 125 92
f 92 125 126
f 92 126 93
f 93 126 95
f 94 97 128
f 94 128 127
f 95 129 97
f 95 97 96
f 95 126 129
f 97 129 130
f 97 130 128
f 98 131 132
f 98 132 100
f 98 99 131
f 99 133 131
f 99 104 140
f 99 140 133
f 100 132 134
f 100 134 101
f 101 134 136
f 101 136 137
f 101 137 135
f 102 110 103
f 103 110 138
f 103 138 139
f 103 139 104
f 104 139 140
f 105 141 106
f 106 141 142
f 106 142 107
f 107 142 143
f 107 143 108
f 108 143 144
f 108 144 109
f 109 144 145
f 109 145 110
f 110 145 138
f 111 146 147
f 111 147 148
f 111 148 112
f 112 148 149
f 114 150 151
f 114 151 115
f 115 151 152
f 115 152 116
f 116 152 153
f 116 153 154
f 116 154 117
f 117 155 118
f 117 154 197
f 117 197 156
f 117 156 155
f 118 155 157
f 118 157 158
f 118 158 159
f 118 159 119
f 119 159 120
f 120 159 160
f 120 160 121
f 121 160 161
f 121 161 162
f 121 162 122
f 122 162 163
f 122 163 164
f 122 164 123
f 123 164 165
f 123 165 166
f 123 166 167
f 123 167 124
f 124 167 168
f 124 168 125
f 125 168 169
f 125 169 170
f 125 170 129
f 125 129 126
f 127 128 171
f 128 172 171
f 128 130 144
f 128 144 143
f 128 143 142
f 128 142 172
f 129 170 173
f 129 173 130
f 130 173 174
f 130 174 139
f 130 139 138
f 130 138 145
f 130 145 144
f 131 175 132
f 131 133 176
f 131 176 175
f 132 177 134
f 132 175 177
f 133 140 178
f 133 178 176
f 134 177 179
f 134 179 136
f 135 137 179
f 135 179 181
f 135 181 182
f 135 182 183
f 135 183 180
f 136 179 137
f 139 174 140
f 140 174 173
f 140 173 178
f 141 184 142
f 142 184 185
f 142 185 172
f 146 186 147
f 147 187 188
f 147 188 189
f 147 189 148
f 147 186 187
f 148 189 190
f 148 190 191
f 148 191 149
f 150 192 193
f 150 193 151
f 151 193 194
f 151 194 152
f 152 194 153
f 153 194 195
f 153 195 196
f 153 196 197
f 153 197 154
f 155 156 198
f 155 198 199
f 155 199 200
f 155 200 201
f 155 201 157
f 156 197 245
f 156 245 202
f 156 202 198
f 157 203 158
f 157 201 204
f 157 204 205
f 157 205 206
f 157 206 203
f 158 203 159
f 159 203 207
f 159 207 160
f 160 207 161
f 161 207 203
f 161 203 206
f 161 206 208
f 161 208 209
f 161 209 210
f 161 210 211
f 161 211 162
f 162 211 212
f 162 212 163
f 163 212 213
f 163 213 214
f 163 214 215
f 163 215 216
f 163 216 164
f 164 217 165
f 164 216 218
f 164 218 219
f 164 219 217
f 165 217 220
f 165 220 166
f 166 221 167
f 166 220 221
f 167 221 222
f 167 222 223
f 167 223 168
f 168 223 169
f 169 223 224
f 169 224 170
f 170 224 173
f 171 172 185
f 171 185 225
f 173 224 226
f 173 226 178
f 175 227 229
f 175 229 177
f 175 176 228
f 175 228 227
f 176 178 228
f 177 229 181
f 177 181 179
f 178 226 228
f 180 183 230
f 181 229 231
f 181 231 182
f 182 231 183
f 183 232 233
f 183 233 230
f 183 231 232
f 184 225 185
f 186 234 235
f 186 235 187
f 187 236 237
f 187 237 188
f 187 235 236
f 188 237 238
f 188 238 189
f 189 238 239
f 189 239 190
f 190 239 240
f 190 240 241
f 190 241 242
f 190 242 191
f 192 240 193
f 193 240 239
f 193 239 238
f 193 238 195
f 193 195 194
f 195 238 237
f 195 237 243
f 195 243 196
f 196 243 244
f 196 244 245
f 196 245 197
f 198 202 246
f 198 246 199
f 199 246 200
f 200 246 201
f 201 246 247
f 201 247 204
f 202 245 272
f 202 272 246
f 204 247 248
f 204 248 249
f 204 249 205
f 205 249 206
f 206 249 208
f 208 249 212
f 208 212 209
f 209 212 210
f 210 212 211
f 212 249 248
f 212 248 213
f 213 248 214
f 214 248 215
f 215 248 250
f 215 250 216
f 216 250 251
f 216 251 252
f 216 252 218
f 217 219 253
f 217 253 254
f 217 254 220
f 218 252 255
f 218 255 219
f 219 255 253
f 220 256 221
f 220 254 257
f 220 257 256
f 221 256 258
f 221 258 222
f 222 258 259
f 222 259 260
f 222 260 223
f 223 261 224
f 223 260 261
f 224 261 262
f 224 262 226
f 226 262 228
f 227 263 229
f 227 228 262
f 227 262 263
f 229 263 231
f 231 264 265
f 231 265 232
f 231 263 264
f 234 266 267
f 234 267 235
f 235 267 236
f 236 268 243
f 236 243 237
f 236 267 268
f 243 268 269
f 243 269 270
f 243 270 244
f 244 270 271
f 244 271 245
f 245 271 272
f 246 272 290
f 246 290 273
f 246 273 248
f 246 248 247
f 248 273 252
f 248 252 251
f 248 251 250
f 252 273 274
f 252 274 275
f 252 275 276
f 252 276 277
f 252 277 255
f 253 278 279
f 253 279 254
f 253 255 277
f 253 277 276
f 253 276 275
f 253 275 280
f 253 280 278
f 254 279 281
f 254 281 257
f 256 257 282
f 256 282 258
f 257 281 283
f 257 283 267
f 257 267 266
f 257 284 282
f 258 282 284
f 258 284 285
f 258 285 286
f 258 286 259
f 259 264 287
f 259 287 260
f 259 286 265
f 259 265 264
f 260 287 261
f 261 287 262
f 262 287 263
f 263 287 264
f 267 283 288
f 267 288 289
f 267 289 269
f 267 269 268
f 269 289 271
f 269 271 270
f 271 289 290
f 271 290 272
f 273 290 289
f 273 289 274
f 274 280 275
f 274 289 278
f 274 278 280
f 278 289 288
f 278 288 283
f 278 283 279
f 279 283 281

