# https://github.com/mikedh/trimesh
v 0.00082408 -0.00773199 0.00424761
v 0.00127017 -0.00772744 0.00425097
v 0.00127017 -0.00771836 0.02228740
v 0.00082408 -0.00773047 0.00645217
v 0.00038884 -0.00770474 0.00469121
v 0.00038884 -0.00770474 0.00424761
v -0.00137005 -0.00753522 -0.00059504
v -0.00093010 -0.00753977 -0.00103528
v -0.00005065 -0.00753977 -0.00147552
v 0.00038884 -0.00753371 -0.00147552
v 0.00083021 -0.00754128 -0.00103528
v 0.00127017 -0.00753977 -0.00059504
v 0.00171013 -0.00770171 0.00425097
v 0.00127017 -0.00771231 0.02757365
v 0.00082408 -0.00771231 0.02141028
v 0.00038884 -0.00770171 0.00645217
v -0.00137005 -0.00754128 0.00028544
v 0.00082408 -0.00770928 0.02360812
v -0.00137005 -0.00753977 -0.00015480
v -0.00164780 -0.00750647 -0.00059504
v -0.00136392 -0.00751404 -0.00101848
v -0.00167609 -0.00751101 -0.00015480
v -0.00090463 -0.00751101 -0.00146544
v -0.00049061 -0.00753068 -0.00147552
v -0.00005065 -0.00751101 -0.00175445
v 0.00082408 -0.00751252 -0.00147216
v 0.00038884 -0.00750495 -0.00174101
v 0.00129186 -0.00751706 -0.00105544
v 0.00153754 -0.00750193 -0.00092438
v 0.00160120 -0.00751101 -0.00059504
v 0.00215008 -0.00765328 0.00381073
v 0.00171013 -0.00766842 0.02757365
v 0.00082408 -0.00770020 0.02757365
v 0.00083021 -0.00770171 0.02713341
v 0.00215008 -0.00755339 0.02800717
v 0.00171013 -0.00759274 0.02800717
v 0.00127017 -0.00760636 0.02800717
v -0.00167279 -0.00751101 0.00028544
v -0.00161479 -0.00749436 -0.00086389
v -0.00189631 -0.00736268 -0.00015480
v -0.00121208 -0.00750041 -0.00131085
v -0.00074100 -0.00748982 -0.00170740
v -0.00049061 -0.00750193 -0.00173429
v -0.00005065 -0.00726127 -0.00196953
v 0.00066517 -0.00749285 -0.00171412
v 0.00115935 -0.00750193 -0.00132765
v 0.00038884 -0.00726127 -0.00193256
v 0.00182094 -0.00738387 -0.00059504
v 0.00188130 -0.00746409 -0.00015480
v 0.00270557 -0.00754431 0.00336713
v 0.00145266 -0.00746863 -0.00121675
v 0.00259051 -0.00756852 0.00336713
v 0.00259051 -0.00757458 0.00381073
v 0.00259051 -0.00757458 0.00512809
v 0.00259051 -0.00757306 0.00644881
v 0.00259051 -0.00756247 0.01304906
v 0.00270557 -0.00751858 0.02757365
v 0.00215008 -0.00760333 0.02757365
v 0.00270557 -0.00751404 0.02769799
v 0.00270557 -0.00749739 0.02793660
v 0.00257118 -0.00750647 0.02800717
v -0.00005065 -0.00761090 0.02713341
v 0.00038884 -0.00756852 0.02797020
v -0.00005065 -0.00754582 0.02792987
v -0.00049061 -0.00752009 0.02787947
v -0.00077448 -0.00750041 0.02783242
v -0.00049061 -0.00756247 0.02757365
v 0.00241180 -0.00748679 0.02823905
v 0.00215008 -0.00749436 0.02824577
v 0.00171013 -0.00750041 0.02824913
v -0.00181096 -0.00714322 0.02888765
v -0.00080655 -0.00750949 0.02757365
v -0.00102676 -0.00744744 0.02757365
v -0.00137005 -0.00733544 0.02801389
v -0.00181096 -0.00717954 0.02845413
v -0.00192837 -0.00712808 0.02845413
v -0.00170439 -0.00726733 -0.00101848
v -0.00150539 -0.00741717 -0.00115626
v -0.00188735 -0.00725068 -0.00059504
v -0.00205192 -0.00709630 -0.00044717
v -0.00192790 -0.00732333 -0.00015480
v -0.00103478 -0.00740657 -0.00160658
v -0.00090463 -0.00725976 -0.00178806
v -0.00171287 -0.00271459 -0.00438917
v -0.00068347 -0.00262530 -0.00476892
v -0.00049061 -0.00726127 -0.00191912
v 0.00038836 -0.00276908 -0.00486638
v 0.00082408 -0.00278573 -0.00488655
v 0.00127017 -0.00278724 -0.00488655
v 0.00171013 -0.00277362 -0.00487310
v 0.00095941 -0.00743836 -0.00162339
v 0.00215008 -0.00274638 -0.00484622
v 0.00259051 -0.00268432 -0.00480253
v 0.00270557 -0.00266162 -0.00478909
v 0.00194402 -0.00707965 -0.00084036
v 0.00198410 -0.00716441 -0.00059504
v 0.00270557 -0.00751101 0.00306467
v 0.00270557 -0.00754733 0.00381073
v 0.00270557 -0.00271157 -0.00473532
v 0.00270557 -0.00754733 0.00662021
v 0.00270557 -0.00754431 0.01013877
v 0.00270557 -0.00753674 0.01540822
v 0.00270557 -0.00745198 0.02815168
v 0.00270557 -0.00725976 0.02827266
v -0.00004358 -0.00673153 0.02888765
v -0.00052409 -0.00689197 0.02888765
v -0.00093057 -0.00702516 0.02888765
v -0.00128706 -0.00712657 0.02888765
v -0.00136581 -0.00714322 0.02888765
v -0.00192837 -0.00007346 0.02889101
v -0.00192837 -0.00710841 0.02888765
v -0.00211086 -0.00682235 -0.00015480
v -0.00207078 -0.00714322 -0.00015480
v -0.00163224 -0.00712354 -0.00130413
v -0.00135025 -0.00726430 -0.00145536
v -0.00192790 -0.00263740 -0.00434213
v -0.00119417 -0.00711143 -0.00172757
v -0.00192790 -0.00253297 -0.00438581
v -0.00133186 -0.00238010 -0.00466810
v -0.00093010 -0.00252540 -0.00474204
v -0.00039017 -0.00267978 -0.00479917
v -0.00049014 -0.00197901 -0.00502433
v -0.00051843 -0.00245578 -0.00486302
v -0.00005065 -0.00241945 -0.00496720
v -0.00005065 -0.00272973 -0.00483278
v 0.00038836 -0.00241945 -0.00502769
v 0.00082408 -0.00241945 -0.00505794
v 0.00083021 -0.00241945 -0.00505794
v 0.00127017 -0.00241945 -0.00505458
v 0.00171013 -0.00241945 -0.00502769
v 0.00215008 -0.00241945 -0.00497728
v 0.00259051 -0.00241945 -0.00490335
v 0.00270557 -0.00253448 -0.00483614
v 0.00270557 -0.00283568 -0.00456393
v 0.00270557 -0.00715230 0.02828610
v 0.00021861 -0.00642883 0.02888765
v 0.00001207 -0.00670429 0.02888765
v 0.00082408 0.00595195 0.02821217
v -0.00181096 0.00506198 0.02805758
v -0.00192837 0.00494393 0.02805758
v -0.00211086 -0.00594147 -0.00015480
v 0.00023275 -0.00636828 0.02888765
v 0.00019597 -0.00609736 0.02888765
v 0.00270557 0.00336682 0.02844741
v -0.00192790 -0.00021876 -0.00483614
v -0.00192790 -0.00056234 -0.00481261
v -0.00192790 -0.00070461 -0.00480253
v -0.00192790 -0.00109813 -0.00475548
v -0.00192790 -0.00112386 -0.00475212
v -0.00192790 -0.00155976 -0.00466474
v -0.00192790 -0.00186096 -0.00459081
v -0.00192790 -0.00196993 -0.00456393
v -0.00192790 -0.00240280 -0.00442950
v -0.00183972 -0.00244518 -0.00445303
v -0.00181001 -0.00197901 -0.00461434
v -0.00147427 -0.00197901 -0.00473868
v -0.00115927 -0.00220756 -0.00477901
v -0.00093010 -0.00230442 -0.00481261
v -0.00093010 -0.00197901 -0.00491343
v -0.00093010 -0.00153857 -0.00502433
v -0.00049014 -0.00153857 -0.00513187
v -0.00005065 -0.00197901 -0.00510499
v 0.00041902 -0.00193966 -0.00516548
v 0.00083021 -0.00200777 -0.00517220
v 0.00127017 -0.00201080 -0.00516884
v 0.00168749 -0.00194420 -0.00516212
v 0.00215008 -0.00198053 -0.00509826
v 0.00259051 -0.00198053 -0.00502433
v 0.00270557 -0.00198053 -0.00499745
v 0.00270557 -0.00241037 -0.00487646
v 0.00270557 -0.00682083 0.02832307
v 0.00082408 0.00635001 0.02802733
v 0.00038884 0.00594135 0.02814159
v -0.00192837 0.00506198 0.02803741
v -0.00210992 -0.00550102 -0.00015480
v -0.00192790 0.00034579 -0.00482605
v -0.00192790 0.00022016 -0.00483278
v -0.00192790 -0.00007498 -0.00483614
v 0.00082408 0.00772430 0.02581269
v 0.00082408 0.00768495 0.02625293
v 0.00082408 0.00754571 0.02666292
v 0.00082408 0.00744278 0.02684440
v 0.00082408 0.00724451 0.02711324
v 0.00082408 0.00721121 0.02715693
v 0.00082408 0.00704926 0.02735521
v 0.00082408 0.00684039 0.02757701
v 0.00082408 0.00661790 0.02780889
v 0.00082408 0.00636968 0.02801725
v 0.00270557 0.00336682 0.00260763
v 0.00165165 0.00682072 -0.00015480
v 0.00154980 0.00710829 -0.00015480
v -0.00137005 -0.00021876 -0.00505458
v -0.00137005 -0.00065920 -0.00502433
v -0.00180577 -0.00156582 -0.00471852
v -0.00137005 -0.00109813 -0.00496384
v -0.00165582 -0.00143868 -0.00480253
v -0.00157329 -0.00173079 -0.00476892
v -0.00125452 -0.00197901 -0.00481261
v -0.00140448 -0.00156582 -0.00486302
v -0.00093010 -0.00109813 -0.00510835
v -0.00008885 -0.00155371 -0.00519236
v -0.00050806 -0.00113446 -0.00519572
v -0.00026002 -0.00130851 -0.00521589
v 0.00029264 -0.00170809 -0.00520580
v 0.00041902 -0.00155371 -0.00525285
v 0.00058595 -0.00176560 -0.00521925
v 0.00083021 -0.00154009 -0.00528646
v 0.00127017 -0.00154009 -0.00528982
v 0.00127017 -0.00179133 -0.00522597
v 0.00152528 -0.00177166 -0.00521925
v 0.00168749 -0.00155976 -0.00525957
v 0.00181858 -0.00171868 -0.00520580
v 0.00215008 -0.00140235 -0.00523941
v 0.00270557 -0.00165663 -0.00507138
v 0.00237407 -0.00132365 -0.00521589
v 0.00254855 -0.00149922 -0.00514195
v -0.00093057 0.00550242 0.02805758
v -0.00005065 0.00594135 0.02804414
v -0.00181096 0.00542523 0.02790971
v -0.00192837 0.00532837 0.02792987
v -0.00192837 0.00540253 0.02789291
v -0.00192837 0.00556297 0.02774840
v -0.00192837 0.00562199 0.02769127
v -0.00192837 0.00578092 0.02752996
v -0.00192837 0.00583843 0.02746947
v -0.00192837 0.00600038 0.02729808
v -0.00192837 0.00606546 0.02722415
v -0.00192837 0.00624557 0.02701243
v -0.00192837 0.00640601 0.02677718
v -0.00192837 0.00645898 0.02669653
v -0.00192837 0.00659823 0.02646128
v -0.00192837 0.00671174 0.02623948
v -0.00192837 0.00691607 0.02581269
v -0.00192837 0.00702807 0.02553375
v -0.00192837 0.00704624 0.02547326
v -0.00192837 0.00709164 0.02530187
v -0.00192837 0.00712797 0.02505991
v -0.00192837 0.00713402 0.02492884
v -0.00192837 0.00713554 0.02467680
v -0.00192837 0.00713705 0.00883485
v -0.00192837 0.00713705 0.00425097
v -0.00192837 0.00709013 0.00394515
v -0.00192790 0.00281740 -0.00412369
v -0.00192790 0.00269329 -0.00424467
v -0.00192790 0.00252831 -0.00437573
v -0.00192790 0.00239058 -0.00442614
v -0.00192790 0.00210604 -0.00452024
v -0.00192790 0.00196982 -0.00455721
v -0.00192790 0.00156116 -0.00466474
v -0.00192790 0.00117521 -0.00474204
v -0.00192790 0.00109802 -0.00475548
v -0.00192790 0.00070147 -0.00480253
v -0.00192790 0.00055920 -0.00481261
v -0.00137005 0.00022016 -0.00505458
v -0.00181001 0.00022016 -0.00487982
v 0.00082408 0.00773036 0.00425097
v 0.00038884 0.00770160 0.02536908
v 0.00038884 0.00768646 0.02581269
v -0.00008083 0.00757749 0.02583957
v 0.00038365 0.00757749 0.02626637
v 0.00052606 0.00751543 0.02652850
v -0.00021805 0.00702202 0.02687800
v 0.00007478 0.00707802 0.02695866
v 0.00038884 0.00696299 0.02725775
v 0.00066988 0.00701748 0.02732496
v -0.00005065 0.00665423 0.02740562
v -0.00123802 0.00619714 0.02738882
v -0.00005065 0.00622136 0.02785258
v 0.00038884 0.00630914 0.02793660
v -0.00181096 0.00586265 0.02749635
v 0.00270557 0.00298994 -0.00411696
v 0.00151538 0.00707197 -0.00048750
v 0.00130553 0.00717035 -0.00061856
v 0.00126922 0.00725813 -0.00015480
v -0.00096782 0.00022016 -0.00517892
v -0.00096735 -0.00021876 -0.00517892
v -0.00089473 -0.00063650 -0.00516884
v -0.00066556 -0.00077121 -0.00520916
v 0.00003281 -0.00141446 -0.00523605
v -0.00037272 -0.00101640 -0.00523605
v -0.00005065 -0.00065920 -0.00533687
v -0.00008885 -0.00113446 -0.00526630
v 0.00038836 -0.00109813 -0.00533687
v 0.00082408 -0.00109965 -0.00537048
v 0.00083021 -0.00109965 -0.00537048
v 0.00127017 -0.00109965 -0.00536711
v 0.00171013 -0.00109965 -0.00534359
v 0.00215008 -0.00109965 -0.00529318
v 0.00270557 -0.00151133 -0.00510163
v 0.00245990 -0.00109965 -0.00523941
v 0.00270557 -0.00109965 -0.00518228
v -0.00093057 0.00582330 0.02788955
v -0.00181096 0.00564621 0.02771480
v -0.00153180 0.00613811 0.02732496
v -0.00117766 0.00661185 0.02692505
v -0.00147097 0.00655585 0.02683431
v -0.00049061 0.00709618 0.02656882
v 0.00023322 0.00745792 0.02642432
v -0.00121869 0.00706894 0.02608154
v -0.00151199 0.00701143 0.02596055
v -0.00024729 0.00747457 0.02601096
v -0.00181756 0.00695845 0.02581269
v -0.00167609 0.00707348 0.02566818
v -0.00039818 0.00752754 0.02571523
v -0.00069102 0.00747608 0.02555056
v -0.00181756 0.00711586 0.02536908
v -0.00137005 0.00727781 0.02536908
v -0.00077873 0.00750181 0.02525819
v -0.00137005 0.00734289 0.02492884
v -0.00181096 0.00718246 0.02492884
v -0.00181096 0.00718548 0.00997410
v -0.00181096 0.00718548 0.00425097
v -0.00141344 0.00717186 -0.00019513
v -0.00160677 0.00706137 -0.00007414
v -0.00158886 0.00703564 -0.00036652
v -0.00163790 0.00686158 -0.00019513
v -0.00123943 0.00711737 -0.00092102
v -0.00081409 0.00710981 -0.00132765
v -0.00170297 0.00272053 -0.00439254
v -0.00183501 0.00243750 -0.00445303
v -0.00181001 0.00197890 -0.00461434
v -0.00180671 0.00156873 -0.00471852
v -0.00165676 0.00144159 -0.00480253
v -0.00137005 0.00109802 -0.00496384
v -0.00137005 0.00065909 -0.00502433
v 0.00082879 0.00732927 -0.00059504
v 0.00038884 0.00731867 -0.00103528
v -0.00005065 0.00733230 -0.00103528
v -0.00093010 0.00732170 -0.00059504
v 0.00038884 0.00770463 0.00425097
v 0.00038884 0.00770463 0.00601193
v -0.00005065 0.00765317 0.02492884
v -0.00005065 0.00765165 0.02536908
v -0.00052267 0.00754873 0.02538925
v 0.00004555 0.00752906 0.02612858
v 0.00270557 0.00281286 -0.00458745
v 0.00147576 0.00698569 -0.00077987
v 0.00115039 0.00710678 -0.00103528
v 0.00082879 0.00723694 -0.00103528
v -0.00089520 0.00064093 -0.00516884
v -0.00072591 0.00048201 -0.00521925
v -0.00074808 0.00022016 -0.00522597
v -0.00074761 -0.00007498 -0.00522597
v -0.00074666 -0.00021876 -0.00522597
v -0.00072544 -0.00047607 -0.00521925
v -0.00005065 -0.00021876 -0.00536711
v 0.00038836 -0.00065920 -0.00539400
v 0.00082408 -0.00065920 -0.00541080
v 0.00083021 -0.00065920 -0.00541080
v 0.00127017 -0.00065920 -0.00540744
v 0.00171013 -0.00065920 -0.00538056
v 0.00215008 -0.00065920 -0.00533687
v 0.00261598 -0.00066375 -0.00525957
v 0.00270557 -0.00074548 -0.00523269
v -0.00092774 0.00742916 0.02538925
v -0.00049061 0.00758052 0.02492884
v -0.00081268 0.00750938 0.02492884
v -0.00103242 0.00745035 0.02492884
v -0.00137005 0.00734440 0.02449196
v -0.00137005 0.00734138 0.00425097
v -0.00093010 0.00734138 -0.00015480
v -0.00132667 0.00717186 -0.00059504
v -0.00094849 0.00718700 -0.00105544
v -0.00048967 0.00731111 -0.00103528
v -0.00048967 0.00716278 -0.00139487
v -0.00137005 0.00278259 -0.00445639
v -0.00069715 0.00262972 -0.00477228
v -0.00093010 0.00252983 -0.00474204
v -0.00133233 0.00238150 -0.00466810
v -0.00147615 0.00197890 -0.00473868
v -0.00157518 0.00173522 -0.00476892
v -0.00140495 0.00156873 -0.00486302
v -0.00093010 0.00153997 -0.00502433
v -0.00093010 0.00109802 -0.00510499
v 0.00082361 0.00723846 -0.00103528
v 0.00038884 0.00716883 -0.00141167
v -0.00005065 0.00718246 -0.00143855
v -0.00005065 0.00765165 0.00425097
v -0.00005065 0.00765317 0.01832523
v 0.00270557 0.00265697 -0.00478909
v 0.00104995 0.00704321 -0.00125708
v 0.00082361 0.00709921 -0.00131757
v -0.00066603 0.00077412 -0.00520916
v -0.00005065 0.00065909 -0.00533687
v -0.00005065 0.00022016 -0.00536711
v -0.00049014 0.00022016 -0.00527974
v -0.00049014 -0.00021876 -0.00527974
v 0.00038836 -0.00021876 -0.00541752
v 0.00082408 -0.00022028 -0.00543432
v 0.00127017 -0.00022028 -0.00544105
v 0.00171013 -0.00022028 -0.00541080
v 0.00259051 -0.00022028 -0.00528982
v 0.00215008 -0.00022028 -0.00535703
v 0.00270557 -0.00060472 -0.00524613
v -0.00049061 0.00757749 0.00425097
v -0.00080561 0.00750938 0.00425097
v -0.00102535 0.00744733 0.00425097
v -0.00005065 0.00274324 -0.00484286
v -0.00040384 0.00269480 -0.00480925
v -0.00052645 0.00245718 -0.00486974
v -0.00093010 0.00231036 -0.00481261
v -0.00116069 0.00221047 -0.00477901
v -0.00125594 0.00197890 -0.00480925
v -0.00093010 0.00197890 -0.00491007
v -0.00049014 0.00197890 -0.00502433
v -0.00049014 0.00153997 -0.00513187
v -0.00050806 0.00113737 -0.00519572
v 0.00251224 0.00269632 -0.00480925
v 0.00215008 0.00274475 -0.00484622
v 0.00171013 0.00277502 -0.00487310
v 0.00082408 0.00278562 -0.00488655
v 0.00038836 0.00277351 -0.00486974
v 0.00127017 0.00278562 -0.00488655
v 0.00270557 0.00253588 -0.00483278
v 0.00263154 0.00246172 -0.00487646
v -0.00037272 0.00101326 -0.00523605
v -0.00008790 0.00113737 -0.00526630
v 0.00038836 0.00109802 -0.00533687
v 0.00038836 0.00065909 -0.00539400
v -0.00025861 0.00130840 -0.00521589
v 0.00038836 0.00022016 -0.00541752
v 0.00082408 0.00022470 -0.00543432
v 0.00127017 0.00021865 -0.00543769
v 0.00171013 0.00021865 -0.00541080
v 0.00259051 0.00021865 -0.00528982
v 0.00270557 0.00021865 -0.00526966
v 0.00270557 -0.00022028 -0.00526630
v 0.00270557 -0.00035801 -0.00525957
v 0.00215008 0.00021865 -0.00535703
v 0.00038836 0.00241783 -0.00503441
v -0.00005065 0.00241783 -0.00498064
v -0.00005065 0.00197890 -0.00510835
v -0.00008790 0.00155359 -0.00519236
v 0.00215008 0.00241934 -0.00497728
v 0.00171013 0.00241934 -0.00502769
v 0.00127017 0.00241934 -0.00505458
v 0.00082408 0.00241934 -0.00505794
v 0.00083021 0.00241934 -0.00505794
v 0.00270557 0.00243599 -0.00486638
v 0.00270557 0.00237242 -0.00488655
v 0.00259051 0.00198041 -0.00502433
v 0.00003329 0.00141586 -0.00523605
v 0.00041902 0.00155359 -0.00525285
v 0.00083021 0.00109953 -0.00537048
v 0.00082408 0.00065909 -0.00541080
v 0.00083021 0.00065909 -0.00541080
v 0.00127017 0.00065909 -0.00540744
v 0.00171013 0.00065909 -0.00538056
v 0.00215008 0.00065909 -0.00533687
v 0.00261551 0.00066212 -0.00525957
v 0.00270557 0.00050471 -0.00525285
v 0.00083021 0.00200614 -0.00517220
v 0.00041902 0.00193955 -0.00516548
v 0.00029264 0.00170949 -0.00520580
v 0.00215008 0.00198041 -0.00509826
v 0.00168843 0.00194257 -0.00516212
v 0.00152669 0.00177306 -0.00521925
v 0.00127017 0.00200917 -0.00516884
v 0.00270557 0.00198041 -0.00499745
v 0.00270557 0.00186387 -0.00502433
v 0.00254855 0.00149759 -0.00514195
v 0.00237407 0.00132202 -0.00521589
v 0.00215008 0.00140224 -0.00523941
v 0.00083021 0.00153846 -0.00528646
v 0.00058595 0.00176700 -0.00521925
v 0.00127017 0.00109953 -0.00537048
v 0.00127017 0.00153846 -0.00528982
v 0.00171013 0.00109953 -0.00534359
v 0.00215008 0.00109953 -0.00529318
v 0.00270557 0.00060460 -0.00524613
v 0.00245942 0.00109953 -0.00523941
v 0.00270557 0.00074536 -0.00523269
v 0.00127017 0.00178971 -0.00522597
v 0.00182000 0.00171857 -0.00520580
v 0.00168843 0.00155813 -0.00525957
v 0.00270557 0.00151121 -0.00510163
v 0.00270557 0.00109953 -0.00518228
v 0.00270557 0.00087704 -0.00521589
f 1 2 3
f 1 3 4
f 1 4 5
f 1 5 6
f 1 6 7
f 1 7 8
f 1 8 9
f 1 9 2
f 2 9 10
f 2 10 11
f 2 11 12
f 2 12 13
f 2 13 3
f 3 14 4
f 3 13 14
f 4 14 15
f 4 15 5
f 5 16 17
f 5 17 6
f 5 15 18
f 5 18 16
f 6 17 19
f 6 19 7
f 7 20 21
f 7 21 8
f 7 19 22
f 7 22 20
f 8 21 23
f 8 23 24
f 8 24 9
f 9 24 25
f 9 25 10
f 10 26 11
f 10 25 27
f 10 27 26
f 11 26 28
f 11 28 12
f 12 28 29
f 12 29 30
f 12 30 31
f 12 31 13
f 13 31 32
f 13 32 14
f 14 33 34
f 14 34 18
f 14 18 15
f 14 32 35
f 14 35 36
f 14 36 37
f 14 37 33
f 16 18 17
f 17 38 22
f 17 22 19
f 17 18 38
f 18 34 33
f 18 33 38
f 20 39 21
f 20 22 40
f 20 40 39
f 21 39 41
f 21 41 23
f 22 38 40
f 23 42 43
f 23 43 24
f 23 41 42
f 24 43 25
f 25 43 44
f 25 44 27
f 26 27 45
f 26 45 46
f 26 46 28
f 27 44 47
f 27 47 45
f 28 46 29
f 29 48 49
f 29 49 50
f 29 50 30
f 29 46 51
f 29 51 48
f 30 50 52
f 30 52 31
f 31 52 53
f 31 53 54
f 31 54 55
f 31 55 56
f 31 56 57
f 31 57 58
f 31 58 32
f 32 58 59
f 32 59 60
f 32 60 61
f 32 61 35
f 33 62 38
f 33 37 63
f 33 63 64
f 33 64 65
f 33 65 66
f 33 66 67
f 33 67 62
f 35 61 68
f 35 68 36
f 36 68 69
f 36 69 37
f 37 69 70
f 37 70 71
f 37 71 63
f 38 62 67
f 38 67 72
f 38 72 73
f 38 73 74
f 38 74 75
f 38 75 76
f 38 76 40
f 39 77 78
f 39 78 41
f 39 40 79
f 39 79 80
f 39 80 77
f 40 81 80
f 40 80 79
f 40 76 81
f 41 78 82
f 41 82 42
f 42 82 83
f 42 83 84
f 42 84 85
f 42 85 86
f 42 86 43
f 43 86 44
f 44 86 87
f 44 87 88
f 44 88 89
f 44 89 90
f 44 90 47
f 45 91 51
f 45 51 46
f 45 47 92
f 45 92 93
f 45 93 94
f 45 94 91
f 47 90 92
f 48 51 95
f 48 95 96
f 48 96 49
f 49 97 50
f 49 96 97
f 50 53 52
f 50 97 134
f 50 134 99
f 50 99 94
f 50 94 133
f 50 133 170
f 50 170 169
f 50 169 214
f 50 214 289
f 50 289 291
f 50 291 354
f 50 354 394
f 50 394 428
f 50 428 427
f 50 427 426
f 50 426 451
f 50 451 470
f 50 470 472
f 50 472 478
f 50 478 477
f 50 477 476
f 50 476 460
f 50 460 459
f 50 459 440
f 50 440 439
f 50 439 414
f 50 414 380
f 50 380 336
f 50 336 271
f 50 271 189
f 50 189 144
f 50 144 171
f 50 171 135
f 50 135 104
f 50 104 103
f 50 103 60
f 50 60 59
f 50 59 57
f 50 57 102
f 50 102 101
f 50 101 100
f 50 100 98
f 50 98 53
f 51 91 94
f 51 94 99
f 51 99 95
f 53 98 100
f 53 100 54
f 54 100 101
f 54 101 55
f 55 101 102
f 55 102 57
f 55 57 56
f 57 59 58
f 60 103 68
f 60 68 61
f 63 71 64
f 64 71 65
f 65 71 66
f 66 72 67
f 66 71 74
f 66 74 72
f 68 103 104
f 68 104 105
f 68 105 106
f 68 106 107
f 68 107 108
f 68 108 109
f 68 109 69
f 69 109 70
f 70 109 71
f 71 109 110
f 71 110 111
f 71 111 75
f 71 75 74
f 72 74 73
f 75 111 76
f 76 111 112
f 76 112 113
f 76 113 81
f 77 114 78
f 77 80 114
f 78 114 115
f 78 115 82
f 80 81 113
f 80 113 112
f 80 112 116
f 80 116 114
f 82 115 117
f 82 117 83
f 83 117 116
f 83 116 84
f 84 116 118
f 84 118 119
f 84 119 120
f 84 120 85
f 85 121 86
f 85 120 122
f 85 122 123
f 85 123 124
f 85 124 121
f 86 121 125
f 86 125 87
f 87 125 126
f 87 126 127
f 87 127 88
f 88 127 89
f 89 127 128
f 89 128 129
f 89 129 90
f 90 129 130
f 90 130 92
f 92 130 131
f 92 131 93
f 93 131 132
f 93 132 94
f 94 132 133
f 95 99 134
f 95 134 96
f 96 134 97
f 104 135 136
f 104 136 137
f 104 137 105
f 105 137 110
f 105 110 106
f 106 110 107
f 107 110 108
f 108 110 109
f 110 138 139
f 110 139 140
f 110 140 141
f 110 141 112
f 110 112 111
f 110 137 136
f 110 136 142
f 110 142 143
f 110 143 144
f 110 144 138
f 112 141 178
f 112 178 145
f 112 145 146
f 112 146 147
f 112 147 148
f 112 148 149
f 112 149 150
f 112 150 151
f 112 151 152
f 112 152 153
f 112 153 118
f 112 118 116
f 114 116 117
f 114 117 115
f 118 153 154
f 118 154 119
f 119 155 156
f 119 156 157
f 119 157 120
f 119 154 155
f 120 157 158
f 120 158 122
f 121 124 125
f 122 124 123
f 122 158 159
f 122 159 160
f 122 160 161
f 122 161 162
f 122 162 124
f 124 162 126
f 124 126 125
f 126 162 163
f 126 163 127
f 127 163 164
f 127 164 128
f 128 164 165
f 128 165 129
f 129 165 166
f 129 166 130
f 130 166 131
f 131 166 167
f 131 167 168
f 131 168 132
f 132 168 169
f 132 169 170
f 132 170 133
f 135 171 136
f 136 171 142
f 138 172 173
f 138 173 139
f 138 144 172
f 139 173 174
f 139 174 140
f 140 174 141
f 141 174 175
f 141 175 176
f 141 176 177
f 141 177 178
f 142 171 144
f 142 144 143
f 144 179 180
f 144 180 181
f 144 181 182
f 144 182 183
f 144 183 184
f 144 184 185
f 144 185 186
f 144 186 187
f 144 187 188
f 144 188 172
f 144 189 190
f 144 190 191
f 144 191 179
f 145 178 254
f 145 254 192
f 145 192 146
f 146 192 193
f 146 193 147
f 147 193 148
f 148 193 149
f 149 194 150
f 149 193 195
f 149 195 196
f 149 196 194
f 150 194 151
f 151 194 152
f 152 194 155
f 152 155 153
f 153 155 154
f 155 194 197
f 155 197 156
f 156 197 198
f 156 198 157
f 157 198 159
f 157 159 158
f 159 198 160
f 160 198 197
f 160 197 199
f 160 199 195
f 160 195 200
f 160 200 161
f 161 201 162
f 161 200 202
f 161 202 203
f 161 203 201
f 162 201 204
f 162 204 163
f 163 204 205
f 163 205 206
f 163 206 164
f 164 206 207
f 164 207 208
f 164 208 209
f 164 209 165
f 165 209 210
f 165 210 166
f 166 210 211
f 166 211 212
f 166 212 167
f 167 212 213
f 167 213 168
f 168 214 169
f 168 213 215
f 168 215 216
f 168 216 214
f 172 188 173
f 173 217 174
f 173 188 218
f 173 218 219
f 173 219 220
f 173 220 217
f 174 220 175
f 174 217 220
f 175 220 221
f 175 221 222
f 175 222 223
f 175 223 224
f 175 224 225
f 175 225 226
f 175 226 227
f 175 227 228
f 175 228 229
f 175 229 230
f 175 230 231
f 175 231 232
f 175 232 233
f 175 233 234
f 175 234 235
f 175 235 236
f 175 236 237
f 175 237 238
f 175 238 239
f 175 239 240
f 175 240 241
f 175 241 242
f 175 242 243
f 175 243 244
f 175 244 245
f 175 245 246
f 175 246 247
f 175 247 248
f 175 248 249
f 175 249 250
f 175 250 251
f 175 251 252
f 175 252 253
f 175 253 176
f 176 253 254
f 176 254 255
f 176 255 177
f 177 255 178
f 178 255 254
f 179 256 257
f 179 257 258
f 179 258 180
f 179 191 256
f 180 258 259
f 180 259 260
f 180 260 181
f 181 260 261
f 181 261 182
f 182 261 262
f 182 262 263
f 182 263 183
f 183 263 184
f 184 263 264
f 184 264 265
f 184 265 185
f 185 265 186
f 186 265 266
f 186 266 267
f 186 267 187
f 187 268 269
f 187 269 188
f 187 267 270
f 187 270 268
f 188 269 221
f 188 221 219
f 188 219 218
f 189 271 190
f 190 271 191
f 191 271 272
f 191 272 273
f 191 273 274
f 191 274 256
f 192 254 275
f 192 275 276
f 192 276 193
f 193 276 277
f 193 277 200
f 193 200 195
f 194 196 197
f 195 199 196
f 196 199 197
f 200 277 278
f 200 278 202
f 201 203 279
f 201 279 204
f 202 278 280
f 202 280 203
f 203 280 281
f 203 281 282
f 203 282 283
f 203 283 279
f 204 279 205
f 205 283 284
f 205 284 207
f 205 207 206
f 205 279 283
f 207 284 208
f 208 211 210
f 208 210 209
f 208 284 285
f 208 285 286
f 208 286 287
f 208 287 211
f 211 287 213
f 211 213 212
f 213 287 288
f 213 288 215
f 214 216 289
f 215 288 290
f 215 290 216
f 216 290 291
f 216 291 289
f 219 221 220
f 221 269 292
f 221 292 222
f 222 292 293
f 222 293 223
f 223 293 270
f 223 270 224
f 224 270 225
f 225 270 226
f 226 294 227
f 226 270 294
f 227 294 264
f 227 264 228
f 228 295 296
f 228 296 229
f 228 264 295
f 229 296 230
f 230 296 262
f 230 262 231
f 231 297 261
f 231 261 298
f 231 298 299
f 231 299 232
f 231 262 297
f 232 299 300
f 232 300 233
f 233 300 301
f 233 301 302
f 233 302 303
f 233 303 234
f 234 303 304
f 234 304 305
f 234 305 235
f 235 305 306
f 235 306 236
f 236 306 307
f 236 307 237
f 237 307 308
f 237 308 309
f 237 309 310
f 237 310 238
f 238 310 239
f 239 310 311
f 239 311 240
f 240 311 312
f 240 312 241
f 241 312 313
f 241 313 314
f 241 314 242
f 242 314 315
f 242 315 316
f 242 316 243
f 243 316 315
f 243 315 317
f 243 317 244
f 244 317 318
f 244 318 319
f 244 319 245
f 245 319 320
f 245 320 246
f 246 320 247
f 247 320 321
f 247 321 248
f 248 321 249
f 249 321 322
f 249 322 250
f 250 322 323
f 250 323 251
f 251 323 324
f 251 324 325
f 251 325 252
f 252 325 253
f 253 325 254
f 254 325 275
f 256 274 326
f 256 326 327
f 256 327 328
f 256 328 329
f 256 329 330
f 256 330 331
f 256 331 257
f 257 332 333
f 257 333 258
f 257 331 332
f 258 333 334
f 258 334 304
f 258 304 259
f 259 304 335
f 259 335 260
f 260 335 261
f 261 335 298
f 261 297 262
f 262 296 295
f 262 295 263
f 263 295 264
f 264 294 265
f 265 294 267
f 265 267 266
f 267 294 270
f 268 270 293
f 268 293 292
f 268 292 269
f 271 336 272
f 272 337 273
f 272 336 337
f 273 326 274
f 273 337 338
f 273 338 339
f 273 339 326
f 275 340 341
f 275 341 342
f 275 342 276
f 275 325 340
f 276 342 343
f 276 343 344
f 276 344 345
f 276 345 277
f 277 345 278
f 278 345 281
f 278 281 280
f 281 346 347
f 281 347 283
f 281 283 282
f 281 345 346
f 283 347 284
f 284 347 348
f 284 348 349
f 284 349 285
f 285 349 350
f 285 350 286
f 286 350 287
f 287 350 351
f 287 351 352
f 287 352 288
f 288 352 353
f 288 353 290
f 290 354 291
f 290 353 354
f 298 335 301
f 298 301 299
f 299 301 300
f 301 304 303
f 301 303 302
f 301 335 304
f 304 334 308
f 304 308 305
f 305 355 307
f 305 307 306
f 305 308 355
f 307 355 308
f 308 356 357
f 308 357 358
f 308 358 309
f 308 334 333
f 308 333 356
f 309 358 359
f 309 359 310
f 310 359 311
f 311 359 312
f 312 359 360
f 312 360 313
f 313 315 314
f 313 360 361
f 313 361 329
f 313 329 362
f 313 362 315
f 315 362 317
f 317 362 329
f 317 329 363
f 317 363 318
f 318 363 364
f 318 364 365
f 318 365 366
f 318 366 319
f 319 366 367
f 319 367 368
f 319 368 369
f 319 369 320
f 320 369 321
f 321 369 370
f 321 370 371
f 321 371 322
f 322 371 323
f 323 371 372
f 323 372 324
f 324 372 373
f 324 373 374
f 324 374 325
f 325 374 340
f 326 339 375
f 326 375 327
f 327 375 376
f 327 376 377
f 327 377 328
f 328 377 364
f 328 364 329
f 329 364 363
f 329 361 378
f 329 378 330
f 330 378 379
f 330 379 332
f 330 332 331
f 332 356 333
f 332 379 356
f 336 380 381
f 336 381 337
f 337 381 338
f 338 381 339
f 339 381 382
f 339 382 375
f 340 374 383
f 340 383 341
f 341 383 384
f 341 384 385
f 341 385 386
f 341 386 342
f 342 386 387
f 342 387 343
f 343 387 344
f 344 387 345
f 345 387 346
f 346 385 421
f 346 421 388
f 346 388 347
f 346 387 386
f 346 386 385
f 347 388 389
f 347 389 348
f 348 389 390
f 348 390 349
f 349 390 350
f 350 390 351
f 351 390 391
f 351 391 352
f 352 392 353
f 352 391 393
f 352 393 392
f 353 394 354
f 353 392 394
f 356 379 378
f 356 378 395
f 356 395 396
f 356 396 357
f 357 396 358
f 358 396 397
f 358 397 360
f 358 360 359
f 360 397 361
f 361 397 396
f 361 396 395
f 361 395 378
f 364 377 365
f 365 377 398
f 365 398 399
f 365 399 367
f 365 367 366
f 367 399 400
f 367 400 401
f 367 401 368
f 368 401 402
f 368 402 369
f 369 402 370
f 370 402 403
f 370 403 371
f 371 403 373
f 371 373 372
f 373 403 402
f 373 402 404
f 373 404 405
f 373 405 406
f 373 406 374
f 374 406 407
f 374 407 383
f 375 382 376
f 376 382 380
f 376 380 408
f 376 408 409
f 376 409 410
f 376 410 377
f 377 411 412
f 377 412 398
f 377 410 413
f 377 413 411
f 380 382 381
f 380 414 415
f 380 415 408
f 383 407 416
f 383 416 384
f 384 417 418
f 384 418 419
f 384 419 385
f 384 416 420
f 384 420 417
f 385 419 421
f 388 421 422
f 388 422 389
f 389 422 390
f 390 422 423
f 390 423 424
f 390 424 391
f 391 424 429
f 391 429 393
f 392 393 429
f 392 429 425
f 392 425 426
f 392 426 427
f 392 427 428
f 392 428 394
f 398 412 430
f 398 430 431
f 398 431 399
f 399 431 400
f 400 431 405
f 400 405 401
f 401 405 404
f 401 404 402
f 405 431 432
f 405 432 406
f 406 432 433
f 406 433 420
f 406 420 407
f 407 420 416
f 408 415 434
f 408 434 409
f 409 434 435
f 409 435 410
f 410 435 436
f 410 436 413
f 411 413 438
f 411 438 437
f 411 437 412
f 412 437 430
f 413 436 438
f 414 439 415
f 415 439 440
f 415 440 441
f 415 441 434
f 417 420 418
f 418 420 442
f 418 442 443
f 418 443 444
f 418 444 419
f 419 444 445
f 419 445 422
f 419 422 421
f 420 433 442
f 422 445 423
f 423 445 446
f 423 446 447
f 423 447 448
f 423 448 424
f 424 448 449
f 424 449 429
f 425 429 449
f 425 449 450
f 425 450 426
f 426 450 451
f 430 437 452
f 430 452 453
f 430 453 432
f 430 432 431
f 432 453 454
f 432 454 442
f 432 442 433
f 434 441 455
f 434 455 456
f 434 456 435
f 435 456 436
f 436 456 457
f 436 457 458
f 436 458 438
f 437 438 452
f 438 458 452
f 440 459 441
f 441 459 460
f 441 460 461
f 441 461 462
f 441 462 463
f 441 463 455
f 442 454 443
f 443 464 444
f 443 454 453
f 443 453 465
f 443 465 464
f 444 466 446
f 444 446 445
f 444 464 467
f 444 467 466
f 446 466 447
f 447 466 468
f 447 468 448
f 448 468 449
f 449 468 469
f 449 469 450
f 450 470 451
f 450 469 471
f 450 471 472
f 450 472 470
f 452 458 473
f 452 473 467
f 452 467 464
f 452 464 465
f 452 465 453
f 455 463 474
f 455 474 456
f 456 474 475
f 456 475 457
f 457 473 458
f 457 475 467
f 457 467 473
f 460 476 461
f 461 476 477
f 461 477 471
f 461 471 462
f 462 471 469
f 462 469 463
f 463 469 468
f 463 468 475
f 463 475 474
f 466 467 468
f 467 475 468
f 471 477 478
f 471 478 472

