# https://github.com/mikedh/trimesh
v 0.00270676 -0.00299154 -0.00400476
v 0.00270676 -0.00299154 -0.00063715
v 0.00270676 -0.00299036 -0.00412045
v 0.00391158 -0.00299154 -0.00367993
v 0.00695440 -0.00299154 -0.00063715
v 0.00270676 0.00299199 -0.00063715
v 0.00270676 -0.00289429 -0.00444528
v 0.00303112 -0.00298742 -0.00412045
v 0.00435208 -0.00296679 -0.00367993
v 0.00479205 -0.00298742 -0.00323987
v 0.00523255 -0.00299154 -0.00279981
v 0.00611248 -0.00299154 -0.00191968
v 0.00655298 -0.00298683 -0.00147917
v 0.00699294 -0.00298977 -0.00063715
v 0.00697153 0.00302853 -0.00063715
v 0.00270676 0.00299199 -0.00367993
v 0.00270676 -0.00283712 -0.00456550
v 0.00347162 -0.00295618 -0.00412045
v 0.00435208 -0.00279174 -0.00405104
v 0.00480918 -0.00282828 -0.00370624
v 0.00523255 -0.00292199 -0.00323987
v 0.00567251 -0.00293850 -0.00279981
v 0.00611248 -0.00294262 -0.00235974
v 0.00699294 -0.00296915 -0.00103911
v 0.00745432 -0.00283123 -0.00063715
v 0.00748322 0.00290181 -0.00063715
v 0.00699294 0.00296782 -0.00103911
v 0.00655298 0.00298786 -0.00147917
v 0.00611248 0.00299199 -0.00191968
v 0.00523255 0.00299199 -0.00279981
v 0.00479205 0.00298669 -0.00323987
v 0.00391158 0.00299199 -0.00367993
v 0.00270676 0.00299081 -0.00412045
v 0.00298830 -0.00277818 -0.00457820
v 0.00347162 -0.00278054 -0.00445390
v 0.00270676 -0.00271276 -0.00474062
v 0.00381792 -0.00271630 -0.00438902
v 0.00467322 -0.00272514 -0.00396302
v 0.00523255 -0.00274694 -0.00356198
v 0.00564254 -0.00275637 -0.00321719
v 0.00609053 -0.00276934 -0.00277939
v 0.00653210 -0.00275402 -0.00232617
v 0.00655298 -0.00291433 -0.00191968
v 0.00701756 -0.00282887 -0.00149505
v 0.00736226 -0.00279351 -0.00103911
v 0.00746609 -0.00282592 -0.00063715
v 0.00749339 0.00288826 -0.00063715
v 0.00727555 0.00272735 -0.00136303
v 0.00702024 0.00282991 -0.00149777
v 0.00655298 0.00291891 -0.00191968
v 0.00611248 0.00294307 -0.00235974
v 0.00567251 0.00294248 -0.00279981
v 0.00523255 0.00292126 -0.00323987
v 0.00435208 0.00296311 -0.00367993
v 0.00303112 0.00298727 -0.00412045
v 0.00270676 0.00281458 -0.00458909
v 0.00270676 -0.00266325 -0.00479324
v 0.00281274 -0.00264203 -0.00478099
v 0.00411176 -0.00261551 -0.00433186
v 0.00435958 -0.00244989 -0.00426789
v 0.00496707 -0.00256246 -0.00387093
v 0.00547608 -0.00267091 -0.00347850
v 0.00592889 -0.00268683 -0.00305523
v 0.00637153 -0.00269213 -0.00261879
v 0.00686823 -0.00273869 -0.00191968
v 0.00678527 -0.00266148 -0.00215695
v 0.00727822 -0.00272749 -0.00135894
v 0.00767269 -0.00265971 -0.00063715
v 0.00775191 0.00245328 -0.00063715
v 0.00763523 0.00259356 -0.00078142
v 0.00687358 0.00274327 -0.00191968
v 0.00757528 0.00243678 -0.00104591
v 0.00733710 0.00241969 -0.00149777
v 0.00718563 0.00256527 -0.00165655
v 0.00678848 0.00266605 -0.00215968
v 0.00653210 0.00275741 -0.00232753
v 0.00609160 0.00277274 -0.00277939
v 0.00564254 0.00275977 -0.00321900
v 0.00523255 0.00274621 -0.00355789
v 0.00480382 0.00282460 -0.00370352
v 0.00347162 0.00295722 -0.00412045
v 0.00435208 0.00278747 -0.00404786
v 0.00303112 0.00281164 -0.00452558
v 0.00270676 0.00265839 -0.00479098
v 0.00270676 -0.00253594 -0.00483997
v 0.00270676 -0.00241158 -0.00487853
v 0.00298830 -0.00238918 -0.00481593
v 0.00310605 -0.00251413 -0.00473653
v 0.00343843 -0.00238918 -0.00466576
v 0.00326983 -0.00222061 -0.00478735
v 0.00394370 -0.00244989 -0.00445117
v 0.00358776 -0.00198073 -0.00474107
v 0.00368197 -0.00174615 -0.00477691
v 0.00421827 -0.00232258 -0.00437813
v 0.00451158 -0.00209802 -0.00431190
v 0.00480918 -0.00241747 -0.00402382
v 0.00504843 -0.00226895 -0.00392537
v 0.00521007 -0.00241747 -0.00375932
v 0.00554084 -0.00242101 -0.00352614
v 0.00584004 -0.00208918 -0.00341453
v 0.00576083 -0.00242101 -0.00334240
v 0.00599580 -0.00242101 -0.00312237
v 0.00621631 -0.00242101 -0.00290597
v 0.00643897 -0.00242101 -0.00268548
v 0.00665895 -0.00242101 -0.00244504
v 0.00683665 -0.00242101 -0.00222500
v 0.00706841 -0.00241629 -0.00189791
v 0.00718081 -0.00255952 -0.00165247
v 0.00733603 -0.00241629 -0.00149505
v 0.00757796 -0.00244046 -0.00104137
v 0.00764004 -0.00259960 -0.00078822
v 0.00775137 -0.00245284 -0.00063715
v 0.00776101 0.00242853 -0.00063715
v 0.00768928 0.00230004 -0.00090391
v 0.00762506 0.00209611 -0.00119744
v 0.00723862 0.00227175 -0.00173731
v 0.00707376 0.00241969 -0.00189836
v 0.00683933 0.00242087 -0.00222637
v 0.00665735 0.00242087 -0.00244640
v 0.00637153 0.00269317 -0.00261925
v 0.00593103 0.00269199 -0.00305840
v 0.00547608 0.00267077 -0.00347805
v 0.00466466 0.00271969 -0.00395803
v 0.00394423 0.00282755 -0.00415946
v 0.00347162 0.00278158 -0.00445344
v 0.00381899 0.00271792 -0.00438993
v 0.00280632 0.00263835 -0.00477918
v 0.00270676 0.00253757 -0.00483634
v 0.00270676 -0.00198073 -0.00500057
v 0.00303112 -0.00198073 -0.00492572
v 0.00336778 -0.00198073 -0.00482364
v 0.00350962 -0.00157582 -0.00487672
v 0.00376707 -0.00145322 -0.00481457
v 0.00435958 -0.00196305 -0.00441715
v 0.00459347 -0.00180450 -0.00435182
v 0.00476100 -0.00196305 -0.00420528
v 0.00511640 -0.00198073 -0.00397300
v 0.00533638 -0.00198073 -0.00381876
v 0.00568482 -0.00195774 -0.00357831
v 0.00590695 -0.00179566 -0.00347215
v 0.00609749 -0.00194301 -0.00322445
v 0.00628750 -0.00209036 -0.00297538
v 0.00634638 -0.00179684 -0.00303436
v 0.00672907 -0.00207032 -0.00252987
v 0.00688804 -0.00194655 -0.00237381
v 0.00713317 -0.00198073 -0.00202131
v 0.00723754 -0.00226600 -0.00173685
v 0.00751212 -0.00195951 -0.00144560
v 0.00762238 -0.00209154 -0.00118927
v 0.00768607 -0.00230667 -0.00089574
v 0.00775726 -0.00243398 -0.00063715
v 0.00788251 0.00202126 -0.00063715
v 0.00789482 0.00197941 -0.00063715
v 0.00772515 0.00196173 -0.00104591
v 0.00766359 0.00180259 -0.00127728
v 0.00751480 0.00196173 -0.00144605
v 0.00728090 0.00198059 -0.00180263
v 0.00713478 0.00198059 -0.00202267
v 0.00689071 0.00194935 -0.00237290
v 0.00672693 0.00207548 -0.00252851
v 0.00643737 0.00242087 -0.00268548
v 0.00621792 0.00242087 -0.00290551
v 0.00599740 0.00242087 -0.00312509
v 0.00576190 0.00242087 -0.00334512
v 0.00554191 0.00242087 -0.00352659
v 0.00520900 0.00241262 -0.00375706
v 0.00495797 0.00255348 -0.00386639
v 0.00411230 0.00261714 -0.00433231
v 0.00303112 0.00254287 -0.00474561
v 0.00303112 0.00232244 -0.00482409
v 0.00270676 0.00243737 -0.00486810
v 0.00270676 -0.00151216 -0.00510537
v 0.00303112 -0.00154045 -0.00502462
v 0.00347162 -0.00110018 -0.00497471
v 0.00384468 -0.00110018 -0.00484587
v 0.00406466 -0.00110018 -0.00474878
v 0.00435208 -0.00154045 -0.00452331
v 0.00465182 -0.00154045 -0.00437995
v 0.00487233 -0.00154045 -0.00425973
v 0.00525021 -0.00151098 -0.00401520
v 0.00540811 -0.00163829 -0.00386911
v 0.00546056 -0.00134477 -0.00390632
v 0.00594281 -0.00154045 -0.00350119
v 0.00621952 -0.00110018 -0.00335238
v 0.00616279 -0.00154045 -0.00329295
v 0.00677778 -0.00177739 -0.00258522
v 0.00638277 -0.00154045 -0.00307292
v 0.00704754 -0.00151334 -0.00232254
v 0.00722042 -0.00134831 -0.00215106
v 0.00718081 -0.00164183 -0.00209072
v 0.00727983 -0.00198073 -0.00180082
v 0.00755922 -0.00154045 -0.00155357
v 0.00766359 -0.00179802 -0.00127683
v 0.00772301 -0.00195951 -0.00104137
v 0.00789053 -0.00197896 -0.00063715
v 0.00800079 0.00155564 -0.00063715
v 0.00783273 0.00154031 -0.00103911
v 0.00769624 0.00154031 -0.00133036
v 0.00755815 0.00154031 -0.00155085
v 0.00718242 0.00163697 -0.00209253
v 0.00677992 0.00178196 -0.00258749
v 0.00634905 0.00180141 -0.00303708
v 0.00609642 0.00194346 -0.00322626
v 0.00584111 0.00208609 -0.00341499
v 0.00590534 0.00179257 -0.00347034
v 0.00568536 0.00195583 -0.00357786
v 0.00533478 0.00198059 -0.00381966
v 0.00511480 0.00198059 -0.00397164
v 0.00504682 0.00225996 -0.00392310
v 0.00436011 0.00245034 -0.00426472
v 0.00480382 0.00241262 -0.00401928
v 0.00451212 0.00210024 -0.00431054
v 0.00421881 0.00232362 -0.00437904
v 0.00368304 0.00174778 -0.00477737
v 0.00394423 0.00245034 -0.00445208
v 0.00326876 0.00221929 -0.00478735
v 0.00343790 0.00238786 -0.00466576
v 0.00270676 0.00237372 -0.00488715
v 0.00303112 0.00198059 -0.00492526
v 0.00270676 -0.00113259 -0.00517841
v 0.00270676 -0.00102591 -0.00519656
v 0.00303112 -0.00110018 -0.00509947
v 0.00278009 -0.00081314 -0.00521289
v 0.00284057 -0.00051962 -0.00523013
v 0.00347162 -0.00065990 -0.00502280
v 0.00394530 -0.00066285 -0.00485585
v 0.00411390 -0.00081196 -0.00477283
v 0.00435208 -0.00110018 -0.00460769
v 0.00472942 -0.00110018 -0.00441942
v 0.00494941 -0.00110018 -0.00430691
v 0.00523255 -0.00110018 -0.00411727
v 0.00549321 -0.00110018 -0.00393081
v 0.00571319 -0.00110018 -0.00376568
v 0.00599954 -0.00110018 -0.00354564
v 0.00643683 -0.00110018 -0.00313235
v 0.00626020 -0.00065990 -0.00339230
v 0.00660275 -0.00154045 -0.00283928
v 0.00680989 -0.00154045 -0.00261925
v 0.00731837 -0.00151334 -0.00193420
v 0.00708072 -0.00110018 -0.00240511
v 0.00724343 -0.00110018 -0.00218508
v 0.00741578 -0.00110018 -0.00191968
v 0.00760579 -0.00110018 -0.00162570
v 0.00769785 -0.00154045 -0.00133354
v 0.00783755 -0.00154045 -0.00103911
v 0.00800507 -0.00155872 -0.00063715
v 0.00790070 -0.00194183 -0.00063715
v 0.00809232 0.00110062 -0.00063715
v 0.00805485 0.00110062 -0.00072653
v 0.00792158 0.00110062 -0.00103911
v 0.00774067 0.00110062 -0.00140522
v 0.00760525 0.00110062 -0.00162525
v 0.00721881 0.00134345 -0.00214833
v 0.00731622 0.00151025 -0.00193511
v 0.00704861 0.00151025 -0.00232073
v 0.00708179 0.00110062 -0.00240602
v 0.00681043 0.00154031 -0.00262015
v 0.00660436 0.00154031 -0.00284018
v 0.00638438 0.00154031 -0.00307473
v 0.00616172 0.00154031 -0.00329476
v 0.00540757 0.00164169 -0.00386821
v 0.00621952 0.00110062 -0.00335238
v 0.00594174 0.00154031 -0.00350028
v 0.00546216 0.00134817 -0.00390768
v 0.00524968 0.00151320 -0.00401610
v 0.00487287 0.00154031 -0.00425973
v 0.00476207 0.00196468 -0.00420392
v 0.00459508 0.00180672 -0.00435273
v 0.00436011 0.00196468 -0.00441760
v 0.00376707 0.00145426 -0.00481457
v 0.00351016 0.00157685 -0.00487672
v 0.00336832 0.00198059 -0.00482319
v 0.00358830 0.00198059 -0.00474153
v 0.00270676 0.00198059 -0.00500057
v 0.00303112 0.00154031 -0.00502416
v 0.00270676 0.00186566 -0.00502643
v 0.00270676 -0.00074595 -0.00523603
v 0.00270676 -0.00060567 -0.00525054
v 0.00270676 -0.00035813 -0.00526461
v 0.00287001 -0.00021962 -0.00523920
v 0.00347162 -0.00021962 -0.00504821
v 0.00391158 -0.00021962 -0.00489713
v 0.00414923 -0.00051844 -0.00478961
v 0.00431836 -0.00066285 -0.00468527
v 0.00499009 -0.00074595 -0.00432868
v 0.00518973 -0.00062336 -0.00420801
v 0.00553549 -0.00065990 -0.00396393
v 0.00575547 -0.00065990 -0.00379607
v 0.00603968 -0.00065990 -0.00357604
v 0.00665681 -0.00110018 -0.00289508
v 0.00647162 -0.00065990 -0.00317227
v 0.00628054 -0.00021962 -0.00341226
v 0.00686074 -0.00110018 -0.00267505
v 0.00711230 -0.00065990 -0.00244867
v 0.00727287 -0.00065990 -0.00222818
v 0.00774120 -0.00110018 -0.00140567
v 0.00747198 -0.00065990 -0.00191968
v 0.00763255 -0.00065990 -0.00166653
v 0.00792372 -0.00110018 -0.00103911
v 0.00807733 -0.00120686 -0.00063715
v 0.00814102 0.00066035 -0.00063715
v 0.00808001 0.00066035 -0.00078550
v 0.00797243 0.00066035 -0.00103911
v 0.00776582 0.00066035 -0.00144832
v 0.00763362 0.00066035 -0.00166835
v 0.00741578 0.00110062 -0.00191968
v 0.00747465 0.00066035 -0.00191968
v 0.00724397 0.00110062 -0.00218554
v 0.00711391 0.00066035 -0.00245048
v 0.00686127 0.00110062 -0.00267641
v 0.00665788 0.00110062 -0.00289644
v 0.00643737 0.00110062 -0.00313235
v 0.00625913 0.00066035 -0.00339230
v 0.00599901 0.00110062 -0.00354474
v 0.00571319 0.00110062 -0.00376522
v 0.00549321 0.00110062 -0.00393081
v 0.00523255 0.00110062 -0.00411727
v 0.00494887 0.00110062 -0.00430645
v 0.00465289 0.00154031 -0.00438040
v 0.00435208 0.00154031 -0.00452331
v 0.00406573 0.00110062 -0.00474924
v 0.00384521 0.00110062 -0.00484542
v 0.00347162 0.00110062 -0.00497471
v 0.00270676 0.00151261 -0.00510537
v 0.00303112 0.00110062 -0.00509947
v 0.00270676 0.00110062 -0.00518340
v 0.00270676 -0.00021962 -0.00527141
v 0.00287001 0.00022007 -0.00523920
v 0.00309053 0.00022007 -0.00516934
v 0.00347162 0.00022007 -0.00504775
v 0.00391158 0.00022007 -0.00489713
v 0.00416636 -0.00021962 -0.00479823
v 0.00416743 0.00022007 -0.00479869
v 0.00501417 -0.00045243 -0.00434139
v 0.00524272 -0.00021962 -0.00420166
v 0.00555744 -0.00021962 -0.00398162
v 0.00577742 -0.00021962 -0.00381104
v 0.00606056 -0.00021962 -0.00359101
v 0.00648982 -0.00021962 -0.00319178
v 0.00670980 -0.00021962 -0.00295088
v 0.00691051 -0.00021962 -0.00273085
v 0.00689232 -0.00065990 -0.00271089
v 0.00628054 0.00022007 -0.00341226
v 0.00648982 0.00022007 -0.00319223
v 0.00713050 -0.00021962 -0.00247362
v 0.00729107 -0.00021962 -0.00225359
v 0.00753567 -0.00020371 -0.00187840
v 0.00776529 -0.00065990 -0.00144650
v 0.00797082 -0.00065990 -0.00103911
v 0.00764647 -0.00033927 -0.00168831
v 0.00805592 -0.00110018 -0.00072970
v 0.00809446 -0.00110018 -0.00063715
v 0.00817260 0.00023421 -0.00063715
v 0.00817260 0.00023421 -0.00063760
v 0.00810088 0.00009688 -0.00083631
v 0.00801846 0.00023421 -0.00100553
v 0.00775833 0.00020121 -0.00151591
v 0.00765664 0.00004266 -0.00170419
v 0.00727448 0.00066035 -0.00223045
v 0.00753460 0.00020121 -0.00187840
v 0.00712996 0.00022007 -0.00247316
v 0.00689392 0.00066035 -0.00271316
v 0.00669321 0.00066035 -0.00293319
v 0.00647269 0.00066035 -0.00317227
v 0.00603915 0.00066035 -0.00357513
v 0.00575494 0.00066035 -0.00379516
v 0.00553442 0.00066035 -0.00396348
v 0.00519026 0.00062616 -0.00420755
v 0.00499009 0.00074993 -0.00432823
v 0.00472889 0.00110062 -0.00441896
v 0.00411497 0.00081712 -0.00477328
v 0.00435208 0.00110062 -0.00460815
v 0.00394584 0.00066624 -0.00485585
v 0.00347162 0.00066035 -0.00502235
v 0.00277956 0.00081300 -0.00521289
v 0.00284111 0.00051948 -0.00523013
v 0.00270676 0.00102459 -0.00519611
v 0.00270676 0.00022007 -0.00527141
v 0.00415030 0.00052361 -0.00479007
v 0.00438634 -0.00021962 -0.00468255
v 0.00501471 0.00045641 -0.00434184
v 0.00438741 0.00022007 -0.00468300
v 0.00479205 -0.00021962 -0.00446841
v 0.00502273 -0.00021962 -0.00434638
v 0.00524325 0.00022007 -0.00420211
v 0.00555797 0.00022007 -0.00398208
v 0.00577795 0.00022007 -0.00381150
v 0.00606056 0.00022007 -0.00359101
v 0.00670980 0.00022007 -0.00295088
v 0.00690998 0.00022007 -0.00273085
v 0.00729053 0.00022007 -0.00225313
v 0.00765664 -0.00004575 -0.00170419
v 0.00775887 -0.00020371 -0.00151682
v 0.00801953 -0.00024084 -0.00100553
v 0.00807894 -0.00065990 -0.00078414
v 0.00809125 -0.00040174 -0.00081272
v 0.00811587 -0.00089507 -0.00063715
v 0.00817421 -0.00024261 -0.00063715
v 0.00810088 -0.00010822 -0.00083631
v 0.00431943 0.00066624 -0.00468572
v 0.00270676 0.00074640 -0.00523603
v 0.00270676 0.00087901 -0.00521970
v 0.00270676 0.00060612 -0.00525054
v 0.00502327 0.00022007 -0.00434638
v 0.00479205 0.00022007 -0.00446887
v 0.00813942 -0.00065990 -0.00063715
v 0.00814691 -0.00058387 -0.00063715
f 1 2 6
f 1 6 16
f 1 16 33
f 1 33 56
f 1 56 84
f 1 84 128
f 1 128 171
f 1 171 218
f 1 218 274
f 1 274 276
f 1 276 324
f 1 324 326
f 1 326 377
f 1 377 402
f 1 402 401
f 1 401 403
f 1 403 378
f 1 378 327
f 1 327 279
f 1 279 278
f 1 278 277
f 1 277 221
f 1 221 220
f 1 220 172
f 1 172 129
f 1 129 86
f 1 86 85
f 1 85 57
f 1 57 36
f 1 36 17
f 1 17 7
f 1 7 3
f 1 3 4
f 1 4 11
f 1 11 12
f 1 12 5
f 1 5 2
f 2 5 14
f 2 14 25
f 2 25 46
f 2 46 68
f 2 68 112
f 2 112 151
f 2 151 195
f 2 195 247
f 2 247 246
f 2 246 300
f 2 300 352
f 2 352 397
f 2 397 406
f 2 406 407
f 2 407 398
f 2 398 353
f 2 353 301
f 2 301 248
f 2 248 196
f 2 196 153
f 2 153 152
f 2 152 113
f 2 113 69
f 2 69 47
f 2 47 26
f 2 26 15
f 2 15 6
f 3 7 8
f 3 8 4
f 4 8 9
f 4 9 10
f 4 10 11
f 5 12 13
f 5 13 14
f 6 15 16
f 7 17 18
f 7 18 8
f 8 18 9
f 9 18 19
f 9 19 20
f 9 20 21
f 9 21 10
f 10 21 22
f 10 22 11
f 11 22 23
f 11 23 12
f 12 23 13
f 13 23 24
f 13 24 14
f 14 24 25
f 15 26 27
f 15 27 28
f 15 28 29
f 15 29 30
f 15 30 31
f 15 31 32
f 15 32 33
f 15 33 16
f 17 34 35
f 17 35 18
f 17 36 34
f 18 35 19
f 19 35 37
f 19 37 38
f 19 38 20
f 20 38 39
f 20 39 21
f 21 39 40
f 21 40 41
f 21 41 22
f 22 41 23
f 23 41 42
f 23 42 43
f 23 43 24
f 24 43 44
f 24 44 45
f 24 45 46
f 24 46 25
f 26 47 48
f 26 48 49
f 26 49 50
f 26 50 27
f 27 50 51
f 27 51 28
f 28 51 29
f 29 51 30
f 30 51 52
f 30 52 31
f 31 52 53
f 31 53 54
f 31 54 32
f 32 54 55
f 32 55 33
f 33 55 56
f 34 36 35
f 35 36 57
f 35 57 58
f 35 58 37
f 37 58 59
f 37 59 38
f 38 59 60
f 38 60 61
f 38 61 62
f 38 62 39
f 39 62 40
f 40 62 63
f 40 63 41
f 41 63 64
f 41 64 42
f 42 65 43
f 42 64 66
f 42 66 65
f 43 65 44
f 44 65 67
f 44 67 45
f 45 67 68
f 45 68 46
f 47 69 70
f 47 70 48
f 48 71 49
f 48 70 72
f 48 72 73
f 48 73 74
f 48 74 75
f 48 75 71
f 49 71 50
f 50 71 76
f 50 76 51
f 51 76 77
f 51 77 52
f 52 77 78
f 52 78 53
f 53 78 79
f 53 79 80
f 53 80 54
f 54 81 55
f 54 80 82
f 54 82 81
f 55 81 56
f 56 81 83
f 56 83 84
f 57 85 58
f 58 85 86
f 58 86 87
f 58 87 88
f 58 88 59
f 59 88 89
f 59 89 90
f 59 90 91
f 59 91 92
f 59 92 93
f 59 93 94
f 59 94 60
f 60 94 95
f 60 95 96
f 60 96 61
f 61 96 97
f 61 97 98
f 61 98 62
f 62 98 99
f 62 99 100
f 62 100 101
f 62 101 63
f 63 101 102
f 63 102 64
f 64 102 103
f 64 103 104
f 64 104 105
f 64 105 66
f 65 66 67
f 66 105 106
f 66 106 107
f 66 107 108
f 66 108 67
f 67 108 109
f 67 109 110
f 67 110 111
f 67 111 68
f 68 111 112
f 69 113 114
f 69 114 72
f 69 72 70
f 71 75 76
f 72 114 115
f 72 115 73
f 73 116 74
f 73 115 116
f 74 116 117
f 74 117 75
f 75 117 118
f 75 118 119
f 75 119 120
f 75 120 76
f 76 120 77
f 77 120 121
f 77 121 78
f 78 121 122
f 78 122 79
f 79 123 82
f 79 82 80
f 79 122 123
f 81 82 124
f 81 124 125
f 81 125 83
f 82 125 124
f 82 123 126
f 82 126 125
f 83 125 84
f 84 127 128
f 84 125 127
f 86 129 130
f 86 130 87
f 87 130 90
f 87 90 88
f 88 90 89
f 90 130 131
f 90 131 92
f 90 92 91
f 92 131 93
f 93 131 132
f 93 132 133
f 93 133 134
f 93 134 94
f 94 134 95
f 95 134 135
f 95 135 136
f 95 136 96
f 96 136 97
f 97 136 137
f 97 137 138
f 97 138 99
f 97 99 98
f 99 138 139
f 99 139 140
f 99 140 100
f 100 140 141
f 100 141 102
f 100 102 101
f 102 141 103
f 103 141 142
f 103 142 104
f 104 142 143
f 104 143 144
f 104 144 105
f 105 144 106
f 106 144 145
f 106 145 146
f 106 146 147
f 106 147 107
f 107 147 108
f 108 147 109
f 109 147 148
f 109 148 149
f 109 149 110
f 110 149 150
f 110 150 111
f 111 150 112
f 112 150 151
f 113 152 114
f 114 152 153
f 114 153 115
f 115 153 154
f 115 154 155
f 115 155 156
f 115 156 116
f 116 156 157
f 116 157 158
f 116 158 117
f 117 158 118
f 118 158 159
f 118 159 160
f 118 160 119
f 119 161 120
f 119 160 161
f 120 161 162
f 120 162 163
f 120 163 121
f 121 163 164
f 121 164 122
f 122 164 165
f 122 165 166
f 122 166 167
f 122 167 123
f 123 167 168
f 123 168 126
f 125 126 127
f 126 168 169
f 126 169 127
f 127 169 170
f 127 170 128
f 128 170 171
f 129 172 173
f 129 173 130
f 130 173 132
f 130 132 131
f 132 173 174
f 132 174 133
f 133 174 175
f 133 175 176
f 133 176 177
f 133 177 135
f 133 135 134
f 135 177 178
f 135 178 179
f 135 179 136
f 136 179 137
f 137 179 180
f 137 180 181
f 137 181 138
f 138 181 140
f 138 140 139
f 140 143 141
f 140 181 180
f 140 180 182
f 140 182 183
f 140 183 184
f 140 184 185
f 140 185 143
f 141 143 142
f 143 186 144
f 143 185 187
f 143 187 186
f 144 186 145
f 145 186 188
f 145 188 189
f 145 189 190
f 145 190 146
f 146 190 191
f 146 191 147
f 147 191 148
f 148 191 192
f 148 192 193
f 148 193 149
f 149 193 194
f 149 194 195
f 149 195 150
f 150 195 151
f 153 196 154
f 154 196 197
f 154 197 155
f 155 197 198
f 155 198 199
f 155 199 156
f 156 199 157
f 157 199 200
f 157 200 158
f 158 200 159
f 159 200 201
f 159 201 160
f 160 201 202
f 160 202 161
f 161 202 162
f 162 202 163
f 163 202 203
f 163 203 204
f 163 204 164
f 164 204 165
f 165 204 205
f 165 205 206
f 165 206 207
f 165 207 208
f 165 208 209
f 165 209 166
f 166 209 167
f 167 210 168
f 167 209 211
f 167 211 210
f 168 210 212
f 168 212 213
f 168 213 214
f 168 214 215
f 168 215 216
f 168 216 217
f 168 217 169
f 169 217 216
f 169 216 170
f 170 218 171
f 170 216 219
f 170 219 218
f 172 220 173
f 173 220 221
f 173 221 222
f 173 222 174
f 174 222 223
f 174 223 224
f 174 224 225
f 174 225 175
f 175 225 226
f 175 226 227
f 175 227 176
f 176 227 228
f 176 228 178
f 176 178 177
f 178 228 229
f 178 229 230
f 178 230 179
f 179 230 180
f 180 230 231
f 180 231 182
f 182 231 232
f 182 232 233
f 182 233 183
f 183 233 234
f 183 234 184
f 184 235 187
f 184 187 185
f 184 234 236
f 184 236 235
f 186 187 237
f 186 237 238
f 186 238 188
f 187 235 237
f 188 238 189
f 189 192 239
f 189 239 191
f 189 191 190
f 189 238 240
f 189 240 241
f 189 241 242
f 189 242 243
f 189 243 192
f 191 239 192
f 192 243 244
f 192 244 193
f 193 244 245
f 193 245 194
f 194 245 246
f 194 246 247
f 194 247 195
f 196 248 249
f 196 249 197
f 197 249 250
f 197 250 198
f 198 250 251
f 198 251 252
f 198 252 199
f 199 252 253
f 199 253 254
f 199 254 200
f 200 254 253
f 200 253 255
f 200 255 201
f 201 255 256
f 201 256 257
f 201 257 258
f 201 258 259
f 201 259 202
f 202 259 260
f 202 260 205
f 202 205 203
f 203 205 204
f 205 261 207
f 205 207 206
f 205 260 262
f 205 262 263
f 205 263 264
f 205 264 265
f 205 265 261
f 207 261 265
f 207 265 208
f 208 265 266
f 208 266 267
f 208 267 209
f 209 267 212
f 209 212 211
f 210 211 212
f 212 267 268
f 212 268 269
f 212 269 213
f 213 269 214
f 214 269 268
f 214 268 270
f 214 270 271
f 214 271 272
f 214 272 216
f 214 216 273
f 214 273 215
f 215 273 216
f 216 272 219
f 218 219 274
f 219 272 271
f 219 271 275
f 219 275 276
f 219 276 274
f 221 277 223
f 221 223 222
f 223 277 224
f 224 277 278
f 224 278 279
f 224 279 280
f 224 280 225
f 225 280 281
f 225 281 282
f 225 282 226
f 226 282 283
f 226 283 227
f 227 283 284
f 227 284 285
f 227 285 230
f 227 230 229
f 227 229 228
f 230 285 231
f 231 285 286
f 231 286 287
f 231 287 232
f 232 287 233
f 233 287 288
f 233 288 234
f 234 288 289
f 234 289 236
f 235 290 238
f 235 238 237
f 235 236 291
f 235 291 290
f 236 289 292
f 236 292 291
f 238 290 293
f 238 293 240
f 240 293 294
f 240 294 241
f 241 294 295
f 241 295 242
f 242 295 243
f 243 296 244
f 243 295 297
f 243 297 298
f 243 298 296
f 244 296 299
f 244 299 245
f 245 299 300
f 245 300 246
f 248 301 302
f 248 302 249
f 249 302 303
f 249 303 250
f 250 303 251
f 251 303 304
f 251 304 305
f 251 305 252
f 252 306 253
f 252 305 307
f 252 307 306
f 253 306 308
f 253 308 256
f 253 256 255
f 256 308 309
f 256 309 310
f 256 310 257
f 257 310 311
f 257 311 312
f 257 312 258
f 258 312 259
f 259 312 262
f 259 262 260
f 262 312 313
f 262 313 314
f 262 314 263
f 263 314 315
f 263 315 264
f 264 315 316
f 264 316 317
f 264 317 265
f 265 317 318
f 265 318 266
f 266 319 268
f 266 268 267
f 266 318 319
f 268 319 320
f 268 320 270
f 270 320 321
f 270 321 322
f 270 322 323
f 270 323 271
f 271 323 275
f 275 324 276
f 275 323 325
f 275 325 326
f 275 326 324
f 279 327 280
f 280 327 378
f 280 378 328
f 280 328 329
f 280 329 281
f 281 329 330
f 281 330 331
f 281 331 282
f 282 332 283
f 282 331 333
f 282 333 332
f 283 332 334
f 283 334 285
f 283 285 284
f 285 334 286
f 286 334 335
f 286 335 287
f 287 335 336
f 287 336 288
f 288 336 289
f 289 336 337
f 289 337 338
f 289 338 292
f 290 291 293
f 291 292 339
f 291 339 340
f 291 340 341
f 291 341 342
f 291 342 293
f 292 338 388
f 292 388 343
f 292 343 344
f 292 344 339
f 293 342 294
f 294 342 345
f 294 345 346
f 294 346 295
f 295 346 347
f 295 347 297
f 296 298 348
f 296 348 349
f 296 349 299
f 297 347 350
f 297 350 298
f 298 350 348
f 299 351 300
f 299 349 351
f 300 351 352
f 301 353 354
f 301 354 302
f 302 354 355
f 302 355 303
f 303 355 356
f 303 356 304
f 304 356 357
f 304 357 305
f 305 357 358
f 305 358 307
f 306 307 359
f 306 359 308
f 307 358 360
f 307 360 359
f 308 359 309
f 309 359 391
f 309 391 361
f 309 361 362
f 309 362 310
f 310 362 363
f 310 363 364
f 310 364 311
f 311 364 312
f 312 364 313
f 313 364 343
f 313 343 365
f 313 365 314
f 314 365 366
f 314 366 315
f 315 366 367
f 315 367 316
f 316 367 317
f 317 367 368
f 317 368 369
f 317 369 318
f 318 370 319
f 318 369 371
f 318 371 370
f 319 370 372
f 319 372 321
f 319 321 320
f 321 372 371
f 321 371 322
f 322 371 373
f 322 373 374
f 322 374 323
f 323 375 325
f 323 374 376
f 323 376 375
f 325 375 326
f 326 375 377
f 328 378 376
f 328 376 374
f 328 374 329
f 329 374 330
f 330 374 331
f 331 374 373
f 331 373 379
f 331 379 333
f 332 380 334
f 332 333 382
f 332 382 380
f 333 379 381
f 333 381 382
f 334 380 383
f 334 383 384
f 334 384 335
f 335 384 385
f 335 385 386
f 335 386 336
f 336 386 387
f 336 387 337
f 337 387 338
f 338 387 388
f 339 344 340
f 340 344 341
f 341 345 342
f 341 344 389
f 341 389 390
f 341 390 345
f 343 388 365
f 343 364 344
f 344 364 363
f 344 363 362
f 344 362 389
f 345 390 361
f 345 361 391
f 345 391 346
f 346 391 358
f 346 358 392
f 346 392 347
f 347 392 350
f 348 350 393
f 348 393 394
f 348 394 349
f 349 395 351
f 349 394 396
f 349 396 395
f 350 392 393
f 351 395 397
f 351 397 352
f 353 398 354
f 354 398 355
f 355 398 399
f 355 399 394
f 355 394 356
f 356 393 357
f 356 394 393
f 357 393 358
f 358 393 392
f 358 391 360
f 359 360 391
f 361 390 362
f 362 390 389
f 365 388 387
f 365 387 386
f 365 386 366
f 366 386 367
f 367 386 368
f 368 386 385
f 368 385 381
f 368 381 369
f 369 400 371
f 369 381 379
f 369 379 400
f 370 371 372
f 371 400 379
f 371 379 373
f 375 401 402
f 375 402 377
f 375 376 401
f 376 378 403
f 376 403 401
f 380 382 383
f 381 385 404
f 381 404 405
f 381 405 382
f 382 405 384
f 382 384 383
f 384 405 404
f 384 404 385
f 394 399 396
f 395 406 397
f 395 396 407
f 395 407 406
f 396 399 398
f 396 398 407

