# https://github.com/mikedh/trimesh

o left_finger2_link1.STL
v -0.00685963 0.00295000 -0.00263733
v -0.00640682 0.00295000 -0.00276084
v -0.00686737 0.00338392 -0.00230907
v -0.00708537 0.00295000 -0.00259334
v -0.00809425 0.00295000 -0.00261496
v -0.00752838 0.00295000 -0.00255211
v -0.00766261 0.00299862 -0.00250734
v -0.00724418 0.00314566 -0.00240302
v -0.00809425 -0.00295000 -0.00261496
v -0.00766261 -0.00299862 -0.00250734
v -0.00752838 -0.00295000 -0.00255211
v -0.00724418 -0.00314566 -0.00240302
v -0.00708537 -0.00295000 -0.00259334
v -0.00685963 -0.00295000 -0.00263733
v -0.00686737 -0.00338392 -0.00230907
v -0.00640682 -0.00295000 -0.00276084
v -0.00349023 0.00295000 -0.00301297
v -0.00385311 0.00445000 -0.00155753
v -0.00371265 0.00295000 -0.00306095
v -0.00464641 0.00438350 -0.00175532
v -0.00407278 0.00295000 -0.00310844
v -0.00442244 0.00295000 -0.00312201
v -0.00543730 0.00417931 -0.00195251
v -0.00473128 0.00295000 -0.00311030
v -0.00618449 0.00384303 -0.00213881
v -0.00531071 0.00295000 -0.00303727
v 0.00078965 0.00700000 -0.00127532
v 0.00027562 0.00700000 -0.00147445
v 0.00000000 0.00700000 0.00000001
v 0.00000000 0.00700000 -0.00150000
v -0.00027562 0.00700000 -0.00147445
v 0.00149360 0.00700000 0.00013841
v 0.00144274 0.00700000 -0.00041049
v 0.00119703 0.00700000 -0.00090395
v 0.00054186 0.00700000 0.00139871
v 0.00101054 0.00700000 0.00110852
v 0.00134275 0.00700000 0.00066861
v -0.00101054 0.00700000 0.00110852
v -0.00054186 0.00700000 0.00139871
v 0.00000000 0.00700000 0.00150001
v -0.00144274 0.00700000 -0.00041049
v -0.00149360 0.00700000 0.00013841
v -0.00134274 0.00700000 0.00066861
v -0.00078965 0.00700000 -0.00127532
v -0.00119703 0.00700000 -0.00090395
v -0.00022296 0.00292999 -0.00162516
v -0.00025000 0.00295000 -0.00182754
v 0.00091583 0.00295035 -0.00162198
v 0.00153868 0.00195000 -0.00049673
v -0.00011108 0.00195000 -0.00078762
v 0.00153543 0.00215377 -0.00051887
v -0.00011380 0.00214521 -0.00080800
v -0.00019696 0.00287218 -0.00143049
v 0.00110348 0.00293464 -0.00141275
v 0.00125260 0.00288640 -0.00120803
v -0.00017293 0.00277996 -0.00125064
v 0.00136589 0.00280426 -0.00101434
v -0.00015182 0.00265676 -0.00109257
v 0.00144479 0.00268691 -0.00084164
v -0.00013453 0.00250605 -0.00096315
v 0.00149453 0.00253392 -0.00069578
v -0.00012173 0.00233306 -0.00086737
v 0.00152219 0.00235457 -0.00058673
v 0.00153503 0.00216451 -0.00052129
v 0.00092102 0.00295045 -0.00183855
v -0.00871188 0.00295000 -0.00585808
v -0.00128867 0.00295000 -0.00443039
v -0.00074245 0.00295000 -0.00422130
v 0.00086691 0.00295015 -0.00229988
v 0.00090323 0.00295024 -0.00208461
v 0.00091444 0.00295037 -0.00197250
v -0.00096997 0.00295000 -0.00149137
v -0.00139365 0.00295000 -0.00191238
v -0.00066393 0.00295001 -0.00418454
v -0.00033980 0.00295013 -0.00400220
v -0.00012171 0.00295014 -0.00384676
v -0.00066391 0.00295000 -0.00132571
v -0.00074002 0.00295000 -0.00121434
v -0.00186452 0.00295000 -0.00227986
v -0.00237585 0.00295000 -0.00258858
v -0.00187981 0.00295000 -0.00457887
v -0.00292034 0.00295000 -0.00283412
v -0.00935082 0.00295000 -0.00292826
v -0.00922305 0.00295000 -0.00586517
v -0.00004702 0.00295012 -0.00378621
v 0.00020745 0.00295003 -0.00354533
v 0.00044681 0.00294998 -0.00325221
v -0.00046696 0.00295000 -0.00157825
v -0.00052837 0.00295000 -0.00150363
v -0.00061123 0.00295000 -0.00139745
v 0.00062652 0.00294973 -0.00296013
v 0.00077742 0.00294993 -0.00261564
v -0.00038953 0.00295000 -0.00166896
v -0.00970691 0.00295000 -0.00570017
v -0.00981853 0.00295000 -0.00313465
v -0.01018975 0.00295000 -0.00348613
v -0.01010726 0.00295000 -0.00538227
v -0.01037760 0.00295000 -0.00494838
v -0.01048652 0.00295000 -0.00444890
v -0.01042139 0.00295000 -0.00394185
v -0.00011108 -0.00195000 -0.00078762
v 0.00153868 -0.00195000 -0.00049673
v -0.00015182 -0.00265677 -0.00109257
v 0.00136434 -0.00280571 -0.00101708
v -0.00017293 -0.00277996 -0.00125064
v 0.00126415 -0.00288077 -0.00118958
v -0.00019696 -0.00287218 -0.00143049
v 0.00112206 -0.00293101 -0.00138874
v -0.00022296 -0.00293000 -0.00162516
v 0.00091583 -0.00294985 -0.00162198
v -0.00025000 -0.00295000 -0.00182755
v -0.00012173 -0.00233306 -0.00086737
v 0.00149369 -0.00253794 -0.00069882
v -0.00013453 -0.00250605 -0.00096315
v 0.00145711 -0.00265778 -0.00080920
v 0.00144457 -0.00268677 -0.00084202
v -0.00011380 -0.00214521 -0.00080800
v 0.00153540 -0.00215805 -0.00051959
v 0.00152197 -0.00235922 -0.00058843
v -0.00618877 -0.00384064 -0.00213988
v -0.00531071 -0.00295000 -0.00303727
v -0.00544651 -0.00417606 -0.00195481
v -0.00473979 -0.00295000 -0.00310969
v -0.00442244 -0.00295000 -0.00312201
v -0.00466082 -0.00438105 -0.00175891
v -0.00408380 -0.00295000 -0.00310934
v -0.00371265 -0.00295000 -0.00306095
v -0.00385311 -0.00445000 -0.00155753
v -0.00349023 -0.00295000 -0.00301297
v -0.00871188 -0.00295000 -0.00585808
v 0.00091924 -0.00294962 -0.00168161
v 0.00091844 -0.00294952 -0.00190999
v 0.00091111 -0.00294952 -0.00201253
v 0.00087385 -0.00294982 -0.00226743
v 0.00085802 -0.00294995 -0.00234037
v -0.00237585 -0.00295000 -0.00258858
v -0.00128867 -0.00295000 -0.00443039
v -0.00292034 -0.00295000 -0.00283412
v -0.00187981 -0.00295000 -0.00457887
v -0.00074011 -0.00295000 -0.00121445
v -0.00057800 -0.00295003 -0.00143987
v -0.00096997 -0.00295000 -0.00149137
v -0.00052893 -0.00295000 -0.00150140
v -0.00042919 -0.00295002 -0.00162138
v 0.00076686 -0.00295009 -0.00264396
v 0.00076156 -0.00295008 -0.00265818
v 0.00061986 -0.00294990 -0.00297092
v -0.00186452 -0.00295000 -0.00227986
v -0.00139365 -0.00295000 -0.00191238
v -0.00038910 -0.00295001 -0.00166814
v 0.00042789 -0.00294999 -0.00327804
v 0.00019101 -0.00294996 -0.00356378
v -0.00006514 -0.00295008 -0.00380269
v -0.00038926 -0.00295013 -0.00403413
v -0.00074245 -0.00295000 -0.00422130
v -0.00970691 -0.00295000 -0.00570017
v -0.01010726 -0.00295000 -0.00538227
v -0.01037760 -0.00295000 -0.00494838
v -0.00981853 -0.00295000 -0.00313465
v -0.00922305 -0.00295000 -0.00586517
v -0.00935082 -0.00295000 -0.00292826
v -0.01048652 -0.00295000 -0.00444890
v -0.01042139 -0.00295000 -0.00394185
v -0.01018975 -0.00295000 -0.00348613
v -0.00078965 -0.00700000 -0.00127532
v -0.00027562 -0.00700000 -0.00147445
v 0.00000000 -0.00700000 0.00000000
v 0.00000000 -0.00700000 -0.00149999
v 0.00027562 -0.00700000 -0.00147445
v -0.00149360 -0.00700000 0.00013841
v -0.00144274 -0.00700000 -0.00041049
v -0.00119703 -0.00700000 -0.00090395
v -0.00054186 -0.00700000 0.00139871
v -0.00101054 -0.00700000 0.00110852
v -0.00134274 -0.00700000 0.00066861
v 0.00101054 -0.00700000 0.00110852
v 0.00054186 -0.00700000 0.00139871
v 0.00000000 -0.00700000 0.00150001
v 0.00144274 -0.00700000 -0.00041049
v 0.00149360 -0.00700000 0.00013841
v 0.00134275 -0.00700000 0.00066861
v 0.00078965 -0.00700000 -0.00127532
v 0.00119703 -0.00700000 -0.00090395
v -0.00087973 0.00308531 -0.00117163
v -0.00077262 0.00297824 -0.00121010
v -0.00097271 0.00321127 -0.00108699
v -0.00103163 0.00333667 -0.00095917
v -0.00208893 0.00445000 -0.00049241
v -0.00105000 0.00344248 -0.00080657
v -0.00182960 0.00445000 -0.00016444
v -0.00105000 0.00349452 -0.00071688
v -0.00105000 0.00386075 -0.00000558
v -0.00105000 0.00429062 0.00157445
v -0.00113038 0.00436250 0.00148434
v -0.00105000 0.00422558 0.00109687
v -0.00122679 0.00439650 0.00109000
v -0.00105000 0.00416047 0.00081907
v -0.00138346 0.00442587 0.00064820
v -0.00105000 0.00397488 0.00026361
v -0.00146853 0.00443537 0.00045721
v -0.00158670 0.00444394 0.00022634
v -0.00105000 0.00426919 0.00231505
v -0.00106060 0.00430651 0.00201216
v -0.00111872 0.00435652 0.00154646
v -0.00345419 0.00445000 -0.00143233
v -0.00307304 0.00445000 -0.00126045
v -0.00271511 0.00445000 -0.00104435
v -0.00238551 0.00445000 -0.00078711
v -0.00105000 0.00275479 -0.00019222
v -0.00105000 0.00295115 -0.00030788
v -0.00103322 0.00286052 -0.00044110
v -0.00038397 0.00294083 -0.00162324
v -0.00036147 0.00287806 -0.00142854
v -0.00103419 0.00331369 -0.00089961
v -0.00098401 0.00318034 -0.00098768
v -0.00090216 0.00305839 -0.00106818
v -0.00079150 0.00295347 -0.00113736
v -0.00065673 0.00287010 -0.00119222
v -0.00050420 0.00281185 -0.00123040
v -0.00052124 0.00291480 -0.00141386
v -0.00105000 0.00310288 -0.00042423
v -0.00103366 0.00310912 -0.00064712
v -0.00105000 0.00322260 -0.00053533
v -0.00105000 0.00252992 -0.00009710
v -0.00105000 0.00263986 -0.00013911
v -0.00103289 0.00257656 -0.00028920
v -0.00105000 0.00202607 -0.00000141
v -0.00105000 0.00230150 -0.00003492
v -0.00103267 0.00226906 -0.00019534
v -0.00034057 0.00278142 -0.00125012
v -0.00098189 0.00299354 -0.00076102
v -0.00089756 0.00288818 -0.00086484
v -0.00078371 0.00279805 -0.00095364
v -0.00064531 0.00272717 -0.00102344
v -0.00048910 0.00267868 -0.00107115
v -0.00032211 0.00265491 -0.00109448
v -0.00098013 0.00276824 -0.00057680
v -0.00089374 0.00268435 -0.00070023
v -0.00077724 0.00261293 -0.00080534
v -0.00063585 0.00255725 -0.00088732
v -0.00047663 0.00251983 -0.00094246
v -0.00030693 0.00250254 -0.00096806
v -0.00097880 0.00251234 -0.00044157
v -0.00089087 0.00245406 -0.00057989
v -0.00077240 0.00240461 -0.00069727
v -0.00062877 0.00236629 -0.00078822
v -0.00046732 0.00234087 -0.00084857
v -0.00029564 0.00232965 -0.00087529
v -0.00097797 0.00223611 -0.00035835
v -0.00088907 0.00220625 -0.00050614
v -0.00076935 0.00218097 -0.00063123
v -0.00062434 0.00216146 -0.00072772
v -0.00046150 0.00214863 -0.00079113
v -0.00028861 0.00214314 -0.00081822
v -0.00105000 0.00195000 0.00000022
v -0.00103310 0.00195000 -0.00016333
v -0.00099156 0.00195000 -0.00029992
v -0.00097843 0.00195000 -0.00033052
v -0.00088882 0.00195000 -0.00048135
v -0.00076743 0.00195000 -0.00060991
v -0.00062295 0.00195000 -0.00070753
v -0.00042499 0.00195000 -0.00078040
v -0.00025000 0.00195000 -0.00079971
v -0.00105000 -0.00284605 -0.00024236
v -0.00105000 -0.00263976 -0.00013937
v -0.00103321 -0.00257657 -0.00028923
v -0.00105000 -0.00245031 -0.00007176
v -0.00105000 -0.00230152 -0.00003478
v -0.00103301 -0.00226906 -0.00019538
v -0.00038395 -0.00294105 -0.00162324
v -0.00079153 -0.00295348 -0.00113734
v -0.00089903 -0.00310848 -0.00116053
v -0.00090238 -0.00305849 -0.00106811
v -0.00097986 -0.00322280 -0.00107838
v -0.00098459 -0.00318032 -0.00098770
v -0.00103059 -0.00333228 -0.00096506
v -0.00103444 -0.00331369 -0.00089962
v -0.00105000 -0.00344248 -0.00080657
v -0.00105000 -0.00338709 -0.00072754
v -0.00036145 -0.00287824 -0.00142849
v -0.00052125 -0.00291524 -0.00141371
v -0.00065688 -0.00287020 -0.00119214
v -0.00078463 -0.00298913 -0.00120803
v -0.00105000 -0.00312627 -0.00044426
v -0.00105000 -0.00295089 -0.00030827
v -0.00103352 -0.00286052 -0.00044113
v -0.00105000 -0.00322278 -0.00053516
v -0.00103394 -0.00310912 -0.00064714
v -0.00028863 -0.00214312 -0.00081786
v -0.00050423 -0.00281224 -0.00123011
v -0.00034056 -0.00278156 -0.00125000
v -0.00025000 -0.00195000 -0.00079958
v -0.00046160 -0.00214869 -0.00079040
v -0.00042499 -0.00195000 -0.00078040
v -0.00062456 -0.00216146 -0.00072750
v -0.00062321 -0.00195000 -0.00070739
v -0.00076941 -0.00218097 -0.00063117
v -0.00076743 -0.00195000 -0.00060991
v -0.00088938 -0.00220627 -0.00050598
v -0.00088901 -0.00195000 -0.00048110
v -0.00097871 -0.00223610 -0.00035838
v -0.00097860 -0.00195000 -0.00033014
v -0.00098253 -0.00299352 -0.00076104
v -0.00089782 -0.00288826 -0.00086475
v -0.00078375 -0.00279806 -0.00095361
v -0.00064548 -0.00272725 -0.00102331
v -0.00048915 -0.00267900 -0.00107072
v -0.00032211 -0.00265499 -0.00109429
v -0.00098081 -0.00276822 -0.00057683
v -0.00089402 -0.00268441 -0.00070011
v -0.00077729 -0.00261293 -0.00080530
v -0.00063604 -0.00255729 -0.00088715
v -0.00047670 -0.00252006 -0.00094190
v -0.00030694 -0.00250257 -0.00096779
v -0.00097952 -0.00251232 -0.00044160
v -0.00089117 -0.00245410 -0.00057975
v -0.00077245 -0.00240460 -0.00069722
v -0.00062898 -0.00236630 -0.00078801
v -0.00046741 -0.00234101 -0.00084791
v -0.00029565 -0.00232964 -0.00087496
v -0.00105000 -0.00195000 0.00000022
v -0.00103311 -0.00195000 -0.00016331
v -0.00099156 -0.00195000 -0.00029992
v -0.00105000 -0.00349343 -0.00071878
v -0.00208893 -0.00445000 -0.00049241
v -0.00146854 -0.00443537 0.00045719
v -0.00105000 -0.00393579 0.00016741
v -0.00162878 -0.00444597 0.00015162
v -0.00182960 -0.00445000 -0.00016444
v -0.00126289 -0.00440518 0.00097362
v -0.00105000 -0.00420550 0.00100187
v -0.00142011 -0.00443037 0.00056285
v -0.00142463 -0.00443088 0.00055266
v -0.00121336 -0.00439286 0.00113654
v -0.00114560 -0.00436944 0.00140992
v -0.00105000 -0.00429934 0.00176085
v -0.00107430 -0.00432420 0.00185677
v -0.00105000 -0.00426919 0.00231505
v -0.00238551 -0.00445000 -0.00078711
v -0.00271511 -0.00445000 -0.00104435
v -0.00307304 -0.00445000 -0.00126045
v -0.00345419 -0.00445000 -0.00143233
v -0.00871188 0.00495000 -0.00585808
v -0.00922305 0.00495000 -0.00586517
v -0.00970691 0.00495000 -0.00570017
v -0.01010726 0.00495000 -0.00538227
v -0.01037760 0.00495000 -0.00494838
v -0.01048652 0.00495000 -0.00444890
v -0.01042139 0.00495000 -0.00394185
v -0.01018975 0.00495000 -0.00348613
v -0.00981853 0.00495000 -0.00313465
v -0.00935082 0.00495000 -0.00292826
v -0.00385311 0.00495000 -0.00155753
v -0.00307304 0.00495000 -0.00126045
v -0.00238551 0.00495000 -0.00078711
v -0.00182960 0.00495000 -0.00016444
v -0.00105000 0.00495000 0.00231505
v -0.00113039 0.00495000 0.00148429
v -0.00142011 0.00495000 0.00056285
v -0.00105000 0.00462199 0.00554539
v -0.00105000 0.00425416 0.00587544
v 0.00220000 0.00425416 0.00587544
v 0.00220000 0.00462199 0.00554539
v 0.00220000 0.00486562 0.00510520
v -0.00105000 0.00486562 0.00510520
v 0.00220000 0.00495000 0.00460922
v -0.00105000 0.00495000 0.00460922
v -0.00187981 0.00495000 -0.00457887
v 0.00219972 0.00215869 0.00026767
v 0.00219972 0.00195000 0.00028262
v 0.00214932 0.00195000 0.00001153
v 0.00113556 0.00304740 -0.00205538
v 0.00133236 0.00308837 -0.00179496
v 0.00121031 0.00301382 -0.00173390
v 0.00200401 0.00324450 -0.00088089
v 0.00207336 0.00306312 -0.00057829
v 0.00192107 0.00288776 -0.00071363
v 0.00101150 0.00297887 -0.00196931
v 0.00077889 0.00296319 -0.00266206
v 0.00102199 0.00306804 -0.00240786
v 0.00059441 0.00295896 -0.00303530
v 0.00086008 0.00308611 -0.00278136
v 0.00034653 0.00297330 -0.00340600
v 0.00063799 0.00311336 -0.00315817
v 0.00002357 0.00301362 -0.00375121
v -0.00040778 0.00307139 -0.00405440
v -0.00037643 0.00308342 -0.00403709
v -0.00001878 0.00322582 -0.00381806
v 0.00034378 0.00315787 -0.00351543
v 0.00178017 0.00238905 -0.00050519
v 0.00179407 0.00217405 -0.00042856
v 0.00179793 0.00195000 -0.00040275
v 0.00107784 0.00296721 -0.00166707
v 0.00125150 0.00295982 -0.00144705
v 0.00138130 0.00301303 -0.00149056
v 0.00139375 0.00291549 -0.00122498
v 0.00152122 0.00297064 -0.00124468
v 0.00150328 0.00283197 -0.00101261
v 0.00162902 0.00288455 -0.00100960
v 0.00157988 0.00270853 -0.00082413
v 0.00170470 0.00275445 -0.00080140
v 0.00175250 0.00258585 -0.00063105
v 0.00196673 0.00269120 -0.00050571
v 0.00150122 0.00309003 -0.00152590
v 0.00163908 0.00304606 -0.00125410
v 0.00174509 0.00295437 -0.00099428
v 0.00181948 0.00281479 -0.00076419
v 0.00159452 0.00375025 -0.00204764
v 0.00181657 0.00372276 -0.00158611
v 0.00180977 0.00357343 -0.00156727
v 0.00151772 0.00374520 -0.00218330
v 0.00163429 0.00359534 -0.00194062
v 0.00176428 0.00343390 -0.00157302
v 0.00190128 0.00336772 -0.00121983
v 0.00183214 0.00324766 -0.00124155
v 0.00196935 0.00363278 -0.00116524
v 0.00197438 0.00362797 -0.00114906
v 0.00194915 0.00349587 -0.00118868
v 0.00200566 0.00359404 -0.00104396
v 0.00207835 0.00347652 -0.00076057
v 0.00199300 0.00246176 -0.00035182
v 0.00200617 0.00221114 -0.00025798
v 0.00213664 0.00255830 -0.00014173
v 0.00214679 0.00226065 -0.00002730
v 0.00217929 0.00298686 -0.00011865
v 0.00211460 0.00283010 -0.00032818
v 0.00211742 0.00337171 -0.00057123
v 0.00214437 0.00326084 -0.00041062
v 0.00217497 0.00303802 -0.00016451
v 0.00110635 0.00319191 -0.00250281
v 0.00124331 0.00314542 -0.00213494
v 0.00133001 0.00326869 -0.00220438
v 0.00143954 0.00318791 -0.00184808
v 0.00152770 0.00330866 -0.00189109
v 0.00160735 0.00318813 -0.00155202
v 0.00169606 0.00330401 -0.00156791
v 0.00174381 0.00313937 -0.00125308
v 0.00064527 0.00329125 -0.00325391
v 0.00091061 0.00323759 -0.00288365
v 0.00092775 0.00340895 -0.00296329
v 0.00116303 0.00333987 -0.00258283
v 0.00118932 0.00350452 -0.00264406
v 0.00139182 0.00341214 -0.00226064
v 0.00142615 0.00356951 -0.00230136
v 0.00159342 0.00344621 -0.00192230
v 0.00143168 0.00373382 -0.00232478
v 0.00113288 0.00366276 -0.00275027
v 0.00105913 0.00364006 -0.00284259
v 0.00064296 0.00349155 -0.00329105
v 0.00038294 0.00338904 -0.00352029
v 0.00030250 0.00335660 -0.00358489
v 0.00091421 0.00297408 -0.00230271
v 0.00219446 0.00266753 0.00010073
v 0.00219555 0.00262262 0.00012361
v 0.00219932 0.00231678 0.00023633
v 0.00212033 0.00195000 -0.00005642
v 0.00200987 0.00195000 -0.00022635
v 0.00186023 0.00195000 -0.00036307
v 0.00184824 0.00303933 -0.00096720
v 0.00219972 -0.00195000 0.00028262
v 0.00214931 -0.00195000 0.00001151
v 0.00212033 -0.00195000 -0.00005642
v 0.00200983 -0.00195000 -0.00022639
v 0.00186023 -0.00195000 -0.00036307
v 0.00179787 -0.00195000 -0.00040279
v -0.00061412 -0.00299483 -0.00416121
v 0.00034595 -0.00297298 -0.00340657
v 0.00077962 -0.00296384 -0.00266086
v 0.00091349 -0.00297348 -0.00230450
v 0.00125148 -0.00295980 -0.00144581
v 0.00107684 -0.00296647 -0.00166793
v 0.00179411 -0.00217415 -0.00042831
v 0.00175241 -0.00258591 -0.00063099
v 0.00170431 -0.00275426 -0.00080196
v 0.00162873 -0.00288439 -0.00100960
v 0.00139388 -0.00291560 -0.00122371
v 0.00100984 -0.00297757 -0.00197230
v 0.00034332 -0.00315754 -0.00351600
v 0.00002256 -0.00301266 -0.00375317
v 0.00113386 -0.00304598 -0.00205871
v 0.00133127 -0.00308745 -0.00179618
v 0.00030217 -0.00335628 -0.00358546
v 0.00007902 -0.00326509 -0.00375226
v -0.00037662 -0.00308303 -0.00403797
v -0.00040776 -0.00307112 -0.00405507
v 0.00118877 -0.00350374 -0.00264635
v 0.00113789 -0.00366379 -0.00274525
v 0.00092851 -0.00340964 -0.00296211
v 0.00105949 -0.00364009 -0.00284295
v 0.00064599 -0.00329206 -0.00325215
v 0.00066214 -0.00349953 -0.00327158
v 0.00038306 -0.00338911 -0.00352006
v 0.00213682 -0.00255860 -0.00014105
v 0.00219469 -0.00266787 0.00010151
v 0.00218800 -0.00284955 -0.00001046
v 0.00214688 -0.00226079 -0.00002695
v 0.00219943 -0.00231694 0.00023673
v 0.00219882 -0.00241562 0.00020832
v 0.00180977 -0.00357349 -0.00156540
v 0.00194931 -0.00349612 -0.00118677
v 0.00196879 -0.00363380 -0.00116554
v 0.00211945 -0.00316037 -0.00049813
v 0.00211573 -0.00337632 -0.00057979
v 0.00205190 -0.00335870 -0.00082419
v 0.00207821 -0.00347639 -0.00076056
v 0.00199686 -0.00360474 -0.00107312
v 0.00063869 -0.00311416 -0.00315645
v 0.00091137 -0.00323830 -0.00288246
v 0.00116241 -0.00333916 -0.00258501
v 0.00142469 -0.00356777 -0.00230536
v 0.00139023 -0.00341049 -0.00226450
v 0.00163336 -0.00359429 -0.00194200
v 0.00159241 -0.00344519 -0.00192366
v 0.00176425 -0.00343393 -0.00157126
v 0.00190142 -0.00336795 -0.00121803
v 0.00200377 -0.00324435 -0.00088092
v 0.00217936 -0.00298700 -0.00011856
v 0.00215188 -0.00321876 -0.00035829
v 0.00214418 -0.00326062 -0.00041140
v 0.00211456 -0.00283022 -0.00032812
v 0.00207302 -0.00306291 -0.00057904
v 0.00059509 -0.00295973 -0.00303360
v 0.00086083 -0.00308680 -0.00278015
v 0.00110568 -0.00319124 -0.00250487
v 0.00132833 -0.00326711 -0.00220810
v 0.00152662 -0.00330766 -0.00189242
v 0.00169601 -0.00330399 -0.00156624
v 0.00183226 -0.00324784 -0.00123983
v 0.00193513 -0.00313680 -0.00092909
v 0.00200614 -0.00297110 -0.00065181
v 0.00196664 -0.00269129 -0.00050565
v 0.00200624 -0.00221126 -0.00025768
v 0.00199314 -0.00246202 -0.00035119
v 0.00178030 -0.00238927 -0.00050466
v 0.00120926 -0.00301297 -0.00173497
v 0.00150116 -0.00308996 -0.00152444
v 0.00138125 -0.00301297 -0.00148920
v 0.00163919 -0.00304617 -0.00125259
v 0.00152134 -0.00297073 -0.00124328
v 0.00192066 -0.00288755 -0.00071432
v 0.00184794 -0.00303916 -0.00096724
v 0.00174392 -0.00313950 -0.00125146
v 0.00160730 -0.00318807 -0.00155044
v 0.00143844 -0.00318694 -0.00184937
v 0.00124160 -0.00314390 -0.00213850
v 0.00102128 -0.00306740 -0.00240980
v 0.00183112 -0.00371782 -0.00154887
v 0.00180461 -0.00372646 -0.00161265
v 0.00159465 -0.00374894 -0.00204781
v 0.00150928 -0.00374278 -0.00219899
v 0.00118359 -0.00367673 -0.00268590
v -0.00871188 -0.00495000 -0.00585808
v -0.00922305 -0.00495000 -0.00586517
v -0.00970691 -0.00495000 -0.00570017
v -0.01010726 -0.00495000 -0.00538227
v -0.01037760 -0.00495000 -0.00494838
v -0.01048652 -0.00495000 -0.00444890
v -0.01042139 -0.00495000 -0.00394185
v -0.01018975 -0.00495000 -0.00348613
v -0.00981853 -0.00495000 -0.00313466
v -0.00935082 -0.00495000 -0.00292826
v -0.00385311 -0.00495000 -0.00155753
v -0.00307304 -0.00495000 -0.00126045
v -0.00238551 -0.00495000 -0.00078711
v -0.00182960 -0.00495000 -0.00016444
v -0.00142011 -0.00495000 0.00056285
v -0.00113039 -0.00495000 0.00148429
v -0.00105000 -0.00495000 0.00231505
v -0.00187981 -0.00495000 -0.00457887
v 0.00220000 -0.00462199 0.00554539
v 0.00220000 -0.00425416 0.00587543
v -0.00105000 -0.00425416 0.00587543
v -0.00105000 -0.00462199 0.00554539
v -0.00105000 -0.00486563 0.00510520
v 0.00220000 -0.00486563 0.00510520
v -0.00105000 -0.00495000 0.00460921
v 0.00220000 -0.00495000 0.00460921
v 0.00049441 -0.00207144 0.00726166
v 0.00220000 -0.00207144 0.00726166
v 0.00141584 -0.00179014 0.00742413
v 0.00220000 -0.00149619 0.00756240
v 0.00220000 0.00149620 0.00756240
v 0.00220000 0.00207144 0.00726166
v 0.00141585 0.00179014 0.00742413
v 0.00049444 0.00207144 0.00726166
v -0.00105000 -0.00134058 0.00512488
v -0.00105000 -0.00164446 0.00459854
v -0.00105000 0.00175000 0.00400001
v -0.00105000 0.00164446 0.00459854
v -0.00105000 0.00134058 0.00512488
v -0.00105000 0.00250023 0.00698934
v -0.00105000 -0.00030388 0.00572342
v -0.00105000 -0.00250023 0.00698934
v -0.00105000 0.00030388 0.00572342
v -0.00105000 0.00087500 0.00551555
v -0.00105000 -0.00087500 0.00551555
v -0.00105000 -0.00175000 0.00400001
v -0.00105000 -0.00164446 0.00340147
v -0.00105000 -0.00134058 0.00287513
v -0.00105000 0.00087500 0.00248446
v -0.00105000 0.00030388 0.00227659
v -0.00105000 -0.00030388 0.00227659
v -0.00105000 -0.00087500 0.00248446
v -0.00105000 0.00164446 0.00340147
v -0.00105000 0.00134058 0.00287513
v 0.00149360 0.00495000 0.00013841
v 0.00134275 0.00495000 0.00066861
v 0.00220000 0.00495000 0.00033572
v 0.00144274 0.00495000 -0.00041049
v 0.00216774 0.00495000 -0.00023136
v 0.00119703 0.00495000 -0.00090395
v 0.00196872 0.00495000 -0.00116736
v 0.00078965 0.00495000 -0.00127532
v 0.00101054 0.00495000 0.00110852
v 0.00054186 0.00495000 0.00139871
v 0.00000000 0.00495000 0.00150000
v -0.00054186 0.00495000 0.00139871
v -0.00119703 0.00495000 -0.00090395
v -0.00144274 0.00495000 -0.00041049
v -0.00149360 0.00495000 0.00013841
v -0.00078965 0.00495000 -0.00127532
v -0.00128867 0.00495000 -0.00443039
v -0.00027562 0.00495000 -0.00147445
v -0.00040837 0.00495000 -0.00405519
v 0.00000000 0.00495000 -0.00150000
v 0.00038432 0.00495000 -0.00351915
v 0.00027562 0.00495000 -0.00147445
v 0.00106038 0.00495000 -0.00284192
v 0.00159504 0.00495000 -0.00204830
v -0.00134274 0.00495000 0.00066861
v -0.00101054 0.00495000 0.00110852
v 0.00159504 -0.00495000 -0.00204830
v 0.00196872 -0.00495000 -0.00116736
v -0.00128867 -0.00495000 -0.00443039
v 0.00220000 -0.00495000 0.00033572
v 0.00216774 -0.00495000 -0.00023136
v 0.00106038 -0.00495000 -0.00284192
v 0.00038432 -0.00495000 -0.00351915
v -0.00040837 -0.00495000 -0.00405519
v 0.00054186 -0.00495000 0.00139871
v 0.00101054 -0.00495000 0.00110852
v 0.00134275 -0.00495000 0.00066861
v 0.00149360 -0.00495000 0.00013841
v 0.00144274 -0.00495000 -0.00041049
v 0.00119703 -0.00495000 -0.00090395
v 0.00078965 -0.00495000 -0.00127532
v 0.00027562 -0.00495000 -0.00147445
v -0.00119703 -0.00495000 -0.00090395
v -0.00078965 -0.00495000 -0.00127532
v -0.00027562 -0.00495000 -0.00147445
v -0.00000000 -0.00495000 -0.00149999
v -0.00000000 -0.00495000 0.00150001
v -0.00054186 -0.00495000 0.00139871
v -0.00101054 -0.00495000 0.00110852
v -0.00134274 -0.00495000 0.00066861
v -0.00149360 -0.00495000 0.00013841
v -0.00144274 -0.00495000 -0.00041049
v 0.00220000 0.00164446 0.00340147
v 0.00220000 0.00134058 0.00287513
v 0.00220000 -0.00164446 0.00459854
v 0.00220000 -0.00175000 0.00400001
v 0.00220000 -0.00164446 0.00340147
v 0.00220000 -0.00134058 0.00287513
v 0.00220000 -0.00087500 0.00248446
v 0.00220000 0.00175000 0.00400001
v 0.00220000 0.00164446 0.00459854
v 0.00220000 0.00134058 0.00512488
v 0.00220000 0.00087500 0.00551555
v 0.00220000 0.00030388 0.00572342
v 0.00220000 -0.00030388 0.00572342
v 0.00220000 -0.00087500 0.00551555
v 0.00220000 -0.00134058 0.00512488
v 0.00220000 0.00087500 0.00248446
v 0.00220000 0.00030388 0.00227659
v 0.00220000 -0.00030388 0.00227659
vn 0.10640194 -0.88750710 0.44834114
vn 0.11129207 -0.89465422 0.43267528
vn -0.02409847 -0.32343650 0.94594296
vn 0.07632960 -0.89420878 0.44109461
vn -0.16788044 -0.70711668 0.68687856
vn 0.03152423 -0.88031529 0.47334049
vn -0.14588294 -0.42961697 0.89114950
vn -0.05506693 -0.36744848 0.92841222
vn -0.16788009 0.70711642 0.68687892
vn -0.15069297 0.42905108 0.89062158
vn 0.01291531 0.90255551 0.43037977
vn -0.05680110 0.36152829 0.93062932
vn 0.07082288 0.89970478 0.43071501
vn 0.10977135 0.88872876 0.44509711
vn -0.02191320 0.32222415 0.94640975
vn 0.11326441 0.89314689 0.43526980
vn -0.09519282 -0.92779358 0.36074560
vn -0.24624327 -0.38563033 0.88918699
vn -0.06497732 -0.92702270 0.36933298
vn -0.16727125 -0.36214817 0.91698911
vn -0.03452064 -0.92564315 0.37681970
vn -0.00332590 -0.92193532 0.38732957
vn -0.10987998 -0.34635965 0.93164445
vn 0.02823146 -0.91784049 0.39594421
vn -0.05673270 -0.31982509 0.94577657
vn 0.06506941 -0.91252521 0.40381149
vn 0.39175395 0.66799245 -0.63270446
vn 0.16844205 0.67729289 -0.71617150
vn 0.00000000 1.00000000 0.00000000
vn -0.00000000 0.68691682 -0.72673605
vn -0.16844207 0.67729287 -0.71617152
vn 0.74099342 0.66799260 0.06866319
vn 0.71575980 0.66799256 -0.20365130
vn 0.59385883 0.66799264 -0.44846128
vn 0.26882443 0.66799256 0.69391596
vn 0.50134269 0.66799259 0.54994674
vn 0.66615180 0.66799259 0.33170420
vn -0.50134265 0.66799265 0.54994670
vn -0.26882453 0.66799253 0.69391596
vn 0.00000001 0.66799260 0.74416791
vn -0.71575979 0.66799255 -0.20365136
vn -0.74099342 0.66799260 0.06866319
vn -0.66615178 0.66799257 0.33170430
vn -0.39175385 0.66799243 -0.63270454
vn -0.59385877 0.66799270 -0.44846128
vn -0.02155090 -0.98088483 -0.19339212
vn -0.00855232 -0.99937332 -0.03434862
vn 0.05542827 -0.99579252 -0.07297230
vn 0.25901191 -0.05033193 -0.96456183
vn 0.13037348 -0.05077113 -0.99016415
vn 0.25680552 -0.15173309 -0.95447787
vn 0.11814937 -0.19750617 -0.97315571
vn 0.00832959 -0.93012988 -0.36713624
vn 0.08737067 -0.97107350 -0.22222203
vn 0.11356555 -0.91809854 -0.37973402
vn 0.04481554 -0.84019387 -0.54043115
vn 0.14200006 -0.83415151 -0.53294205
vn 0.07004952 -0.71830264 -0.69219534
vn 0.16485533 -0.71589664 -0.67846497
vn 0.09049941 -0.56410273 -0.82073014
vn 0.22209788 -0.57129065 -0.79012627
vn 0.10592830 -0.38855039 -0.91531841
vn 0.24665282 -0.38799456 -0.88804426
vn 0.25253976 -0.25347542 -0.93379542
vn 0.11190401 -0.99344629 -0.02327999
vn 0.07203628 -0.68835619 -0.72178704
vn 0.21680391 -0.69390932 -0.68664832
vn 0.28731088 -0.69584826 -0.65821551
vn 0.23616141 -0.97021398 -0.05396877
vn 0.19567999 -0.97971734 -0.04316574
vn 0.14510427 -0.98936406 -0.01017415
vn -0.27505300 -0.92788855 0.25173138
vn -0.24473761 -0.92898351 0.27765652
vn 0.31760124 -0.67932138 -0.66155266
vn 0.38018665 -0.72007429 -0.58047491
vn 0.38456853 -0.74614509 -0.54348372
vn -0.25817140 -0.94399845 -0.20546154
vn -0.51880547 -0.83642277 -0.17674227
vn -0.20988215 -0.92898350 0.30485920
vn -0.17203140 -0.92898354 0.32771142
vn 0.15270592 -0.70030819 -0.69731581
vn -0.13172590 -0.92898349 0.34588721
vn -0.23502888 -0.68835615 0.68624138
vn -0.11625976 -0.67068789 -0.73257179
vn 0.39145319 -0.79327830 -0.46634101
vn 0.41284695 -0.81270529 -0.41117820
vn 0.40330377 -0.86568185 -0.29654848
vn -0.13212673 -0.98341755 -0.12422739
vn -0.15386444 -0.97710499 -0.14694069
vn -0.22400959 -0.95593986 -0.18973319
vn 0.36590825 -0.90983196 -0.19574716
vn 0.29859284 -0.94798831 -0.11027460
vn -0.09781452 -0.99153761 -0.08535509
vn -0.35552506 -0.67068792 -0.65098360
vn -0.41071799 -0.67068788 0.61764755
vn -0.59428760 -0.67068793 0.44384677
vn -0.55349489 -0.67068801 -0.49378234
vn -0.68717518 -0.67068795 -0.27922743
vn -0.74103859 -0.67068801 -0.03223964
vn -0.70882902 -0.67068802 0.21849257
vn 0.12682749 0.04745018 -0.99078921
vn 0.25846693 0.05125227 -0.96465955
vn 0.06514358 0.71906535 -0.69188246
vn 0.16900591 0.83129344 -0.52951696
vn 0.03903547 0.84061092 -0.54023098
vn 0.10526577 0.91845745 -0.38125455
vn 0.01008697 0.92823502 -0.37185749
vn 0.07646653 0.97137403 -0.22491191
vn -0.02427025 0.98181849 -0.18826421
vn 0.03897097 0.99746143 -0.05959834
vn -0.00976822 0.99944462 -0.03185945
vn 0.10271582 0.38890156 -0.91553538
vn 0.22962473 0.55214090 -0.80150665
vn 0.08668839 0.56386457 -0.82130498
vn 0.20971498 0.66071702 -0.72074451
vn 0.19637141 0.73585463 -0.64804030
vn 0.11404148 0.19913920 -0.97331296
vn 0.25544706 0.20131821 -0.94563089
vn 0.24358998 0.39423356 -0.88613984
vn -0.05579038 0.32102465 0.94542615
vn 0.06637228 0.91117818 0.40663134
vn -0.10941681 0.34700951 0.93145712
vn 0.02789031 0.91759309 0.39654136
vn -0.00287119 0.92185188 0.38753175
vn -0.16656511 0.36193676 0.91720109
vn -0.03402194 0.92560036 0.37697012
vn -0.06469813 0.92708299 0.36923066
vn -0.23677711 0.37741562 0.89526200
vn -0.09519314 0.92779348 0.36074578
vn 0.07203628 0.68835617 -0.72178706
vn 0.06445376 0.99787461 -0.00958992
vn 0.14894038 0.98883987 -0.00353250
vn 0.15657994 0.98723477 -0.02915891
vn 0.23915985 0.97007765 -0.04185601
vn 0.26629655 0.95978902 -0.08883235
vn -0.17203136 0.92898356 0.32771140
vn 0.21680448 0.69390903 -0.68664844
vn -0.13172576 0.92898358 0.34588702
vn 0.15270599 0.70030800 -0.69731599
vn -0.51730013 0.83715234 -0.17769788
vn -0.20412175 0.96161430 -0.18339096
vn -0.27489141 0.92788064 0.25193695
vn -0.15382805 0.97689249 -0.14838459
vn -0.11616544 0.98594150 -0.12010392
vn 0.31853895 0.94225985 -0.10334079
vn 0.30550705 0.94368619 -0.12697171
vn 0.36559082 0.90969306 -0.19698197
vn -0.20988194 0.92898358 0.30485911
vn -0.24473752 0.92898356 0.27765642
vn -0.05716200 0.99565329 -0.07353252
vn 0.40482766 0.86362003 -0.30045799
vn 0.41350783 0.81052107 -0.41480943
vn 0.38913142 0.74986394 -0.53505216
vn 0.36770243 0.72138927 -0.58684960
vn 0.28653765 0.69552649 -0.65889231
vn -0.35552503 0.67068787 -0.65098366
vn -0.55349446 0.67068851 -0.49378214
vn -0.68717508 0.67068803 -0.27922747
vn -0.41071820 0.67068796 0.61764733
vn -0.11625976 0.67068786 -0.73257181
vn -0.23502920 0.68835605 0.68624137
vn -0.74103859 0.67068801 -0.03223964
vn -0.70882903 0.67068801 0.21849258
vn -0.59428761 0.67068791 0.44384679
vn -0.39175422 -0.66799250 -0.63270423
vn -0.16844203 -0.67729280 -0.71617159
vn -0.00000005 -1.00000000 0.00000012
vn -0.00000001 -0.68691727 -0.72673563
vn 0.16844176 -0.67729272 -0.71617173
vn -0.74099343 -0.66799260 0.06866317
vn -0.71575979 -0.66799258 -0.20365123
vn -0.59385881 -0.66799260 -0.44846137
vn -0.26882453 -0.66799264 0.69391585
vn -0.50134272 -0.66799257 0.54994673
vn -0.66615181 -0.66799262 0.33170413
vn 0.50134269 -0.66799260 0.54994672
vn 0.26882453 -0.66799260 0.69391589
vn -0.00000000 -0.66799251 0.74416799
vn 0.71575995 -0.66799248 -0.20365101
vn 0.74099343 -0.66799260 0.06866317
vn 0.66615180 -0.66799260 0.33170419
vn 0.39175389 -0.66799270 -0.63270423
vn 0.59385881 -0.66799281 -0.44846106
vn -0.71689681 -0.68771601 0.11447991
vn -0.67515858 -0.73492248 0.06363829
vn -0.77260110 -0.61520930 0.15686000
vn -0.82347333 -0.53276306 0.19507743
vn -0.68392938 -0.39851074 0.61108902
vn -0.87032115 -0.43807444 0.22501528
vn -0.75884314 -0.39219223 0.51994456
vn -0.88704286 -0.40222879 0.22664283
vn -0.89537853 -0.40035265 0.19497446
vn -0.91760037 -0.39683040 0.02313410
vn -0.91182345 -0.37741602 0.16166368
vn -0.91591759 -0.39400843 0.07650045
vn -0.87882642 -0.41153506 0.24146018
vn -0.91115804 -0.39594995 0.11408182
vn -0.86380605 -0.39392205 0.31410910
vn -0.90435775 -0.39653825 0.15777985
vn -0.83779346 -0.38613592 0.38600670
vn -0.79445959 -0.40800364 0.44985218
vn -0.99995347 -0.00553207 0.00790218
vn -0.97843202 -0.20281278 0.03921431
vn -0.91390405 -0.39342832 0.09996772
vn -0.30993045 -0.42069532 0.85261865
vn -0.42839943 -0.38792585 0.81608055
vn -0.52021071 -0.39801993 0.75561959
vn -0.60945567 -0.38792580 0.69143138
vn -0.99877635 -0.02312366 -0.04371612
vn -0.99879333 -0.02814469 -0.04024634
vn -0.97986935 -0.11309292 -0.16451760
vn -0.15840885 -0.96521610 -0.20800125
vn -0.14592798 -0.91436449 -0.37768055
vn -0.98098910 -0.15544665 -0.11617543
vn -0.92094563 -0.31434085 -0.23032363
vn -0.82211482 -0.46017206 -0.33521471
vn -0.68925754 -0.59029553 -0.42008954
vn -0.50654342 -0.71588479 -0.48054420
vn -0.32312710 -0.79194700 -0.51808187
vn -0.32051708 -0.86649431 -0.38269623
vn -0.99891185 -0.02933448 -0.03625755
vn -0.98045120 -0.14118217 -0.13705123
vn -0.99880842 -0.03560578 -0.03337626
vn -0.99875821 -0.01543958 -0.04736728
vn -0.99868884 -0.01988584 -0.04717144
vn -0.97963643 -0.07794781 -0.18503134
vn -0.99877516 -0.00337438 -0.04936391
vn -0.99873508 -0.00967699 -0.04934169
vn -0.97959269 -0.03769317 -0.19742689
vn -0.11435071 -0.83234198 -0.54233821
vn -0.91822936 -0.28397516 -0.27606693
vn -0.81403970 -0.41644787 -0.40485867
vn -0.67086323 -0.53172435 -0.51692528
vn -0.49729494 -0.62209292 -0.60472981
vn -0.30133341 -0.68362106 -0.66472583
vn -0.09141237 -0.71368481 -0.69447662
vn -0.91617765 -0.22585504 -0.33107100
vn -0.80950561 -0.33088217 -0.48499243
vn -0.66305086 -0.42190078 -0.61835531
vn -0.48585186 -0.49264331 -0.72197683
vn -0.28625728 -0.53992929 -0.79153846
vn -0.07306480 -0.56167433 -0.82412589
vn -0.91441574 -0.15708450 -0.37305269
vn -0.80574260 -0.22971383 -0.54590330
vn -0.65673608 -0.29236563 -0.69514032
vn -0.47681536 -0.34074611 -0.81027106
vn -0.27460828 -0.37276414 -0.88636177
vn -0.05918581 -0.38706552 -0.92015071
vn -0.91284901 -0.07730420 -0.40091238
vn -0.80347915 -0.11728502 -0.58366556
vn -0.65293921 -0.14976310 -0.74245633
vn -0.47108401 -0.17445146 -0.86466557
vn -0.26957128 -0.19047039 -0.94395570
vn -0.05025940 -0.19511504 -0.97949176
vn -0.99869330 -0.00054338 -0.05110175
vn -0.98091745 -0.00843917 -0.19424143
vn -0.93964866 -0.01517010 -0.34180443
vn -0.89196556 -0.02144268 -0.45159457
vn -0.79971105 -0.02963307 -0.59965333
vn -0.64850060 -0.03799917 -0.76026511
vn -0.45930148 -0.04680817 -0.88704630
vn -0.22867695 -0.05384215 -0.97201228
vn -0.00891588 -0.05231446 -0.99859086
vn -0.99881780 0.02380845 -0.04238108
vn -0.99880512 0.01855920 -0.04520935
vn -0.97975186 0.07705498 -0.18479401
vn -0.99888295 0.01457955 -0.04494770
vn -0.99878432 0.00846687 -0.04856121
vn -0.97960741 0.03923347 -0.19705342
vn -0.13149499 0.96369686 -0.23237348
vn -0.68403116 0.60281234 -0.41075377
vn -0.73107156 0.67253195 0.11504414
vn -0.81738334 0.47468927 -0.32642697
vn -0.77544446 0.61060678 0.16076461
vn -0.91976174 0.32347455 -0.22226685
vn -0.82515051 0.52820198 0.20032301
vn -0.98267950 0.14961208 -0.10934907
vn -0.86930486 0.44010725 0.22497704
vn -0.99890037 0.03717860 -0.02856228
vn -0.14372664 0.91576439 -0.37512429
vn -0.30699181 0.87166898 -0.38203300
vn -0.51183256 0.71914265 -0.46995880
vn -0.68141104 0.72885876 0.06666252
vn -0.99884954 0.03126723 -0.03635860
vn -0.99877427 0.02835632 -0.04056944
vn -0.98030148 0.11125216 -0.16319304
vn -0.99882667 0.03504505 -0.03342361
vn -0.98079625 0.13980341 -0.13599160
vn -0.05593124 0.20265479 -0.97765164
vn -0.31687360 0.79559481 -0.51635261
vn -0.11494591 0.83191606 -0.54286564
vn -0.01077879 0.04279276 -0.99902582
vn -0.26753354 0.19589874 -0.94342434
vn -0.22474318 0.04242760 -0.97349391
vn -0.46729335 0.17600966 -0.86640494
vn -0.45715679 0.04352165 -0.88832063
vn -0.65262426 0.14929651 -0.74282712
vn -0.64867490 0.03746838 -0.76014275
vn -0.80241604 0.11768519 -0.58504589
vn -0.79973758 0.02959264 -0.59961995
vn -0.91335728 0.07952765 -0.39931671
vn -0.89199548 0.02238015 -0.45148996
vn -0.91801589 0.28411299 -0.27663449
vn -0.81285108 0.41735964 -0.40630537
vn -0.67022241 0.53181618 -0.51766155
vn -0.49577071 0.62224796 -0.60582083
vn -0.30049462 0.68328548 -0.66545018
vn -0.09223632 0.71299404 -0.69507695
vn -0.91599381 0.22576000 -0.33164404
vn -0.80831391 0.33136269 -0.48664914
vn -0.66245397 0.42168787 -0.61913979
vn -0.48432161 0.49248076 -0.72311498
vn -0.28549015 0.53941566 -0.79216546
vn -0.07420594 0.56092014 -0.82453749
vn -0.91427120 0.15680582 -0.37352390
vn -0.80456726 0.22976991 -0.54761055
vn -0.65616890 0.29189185 -0.69587464
vn -0.47522884 0.34029601 -0.81139151
vn -0.27384402 0.37209013 -0.88688127
vn -0.06062042 0.38624426 -0.92040238
vn -0.99875378 0.00236810 -0.04985256
vn -0.98047934 0.00775709 -0.19646907
vn -0.94045002 0.01321430 -0.33967506
vn -0.88471187 0.40568836 0.22956886
vn -0.68420663 0.39824781 0.61095005
vn -0.82842098 0.39285262 0.39923114
vn -0.89866890 0.40110699 0.17750322
vn -0.79999795 0.40417094 0.44345139
vn -0.75332599 0.38605996 0.53240742
vn -0.87698190 0.39635039 0.27167833
vn -0.91304642 0.39560612 0.09920703
vn -0.86378089 0.37755870 0.33366451
vn -0.84959728 0.38099654 0.36472744
vn -0.89311114 0.39402797 0.21701253
vn -0.92277764 0.35406858 0.15204235
vn -0.91006352 0.41416957 0.01574650
vn -0.93434379 0.35409055 0.04026874
vn -0.99989558 0.00836803 0.01178158
vn -0.60945558 0.38792606 0.69143132
vn -0.52021039 0.39801970 0.75561993
vn -0.42839965 0.38792595 0.81608039
vn -0.32649397 0.39801978 0.85731088
vn 0.07203628 0.68835619 -0.72178704
vn -0.11625976 0.67068789 -0.73257179
vn -0.35552506 0.67068792 -0.65098360
vn -0.55349489 0.67068801 -0.49378234
vn -0.68717518 0.67068795 -0.27922743
vn -0.74103859 0.67068801 -0.03223964
vn -0.70882902 0.67068802 0.21849257
vn -0.59428760 0.67068793 0.44384677
vn -0.41071799 0.67068788 0.61764755
vn -0.23502893 0.68835616 0.68624135
vn -0.20755796 0.72080114 0.66133608
vn -0.31554329 0.72641217 0.61053894
vn -0.45533610 0.72512916 0.51658179
vn -0.56350656 0.72729609 0.39179173
vn -0.69813100 0.71533469 0.03015605
vn -0.67516814 0.72557196 0.13301620
vn -0.63192390 0.72516191 0.27351852
vn -0.67153809 0.57963788 0.46158046
vn -0.68896906 0.43780400 0.57762383
vn 0.68896907 0.43780402 0.57762381
vn 0.67153809 0.57963788 0.46158046
vn 0.67123627 0.69954868 0.24509901
vn -0.67123627 0.69954868 0.24509901
vn 0.68864766 0.72252422 0.06101767
vn -0.68864766 0.72252422 0.06101768
vn 0.15270589 0.70030820 -0.69731581
vn 0.99590207 -0.01024366 -0.08985614
vn 0.99572129 -0.00313761 -0.09235403
vn 0.95842355 -0.01345801 -0.28503190
vn 0.47170753 -0.85821543 -0.20238152
vn 0.49484578 -0.82397545 -0.27602919
vn 0.33504278 -0.92043844 -0.20134403
vn 0.88750617 -0.27192333 -0.37200874
vn 0.90624125 -0.23461255 -0.35168701
vn 0.73975247 -0.43677948 -0.51184955
vn 0.32691367 -0.93972446 -0.10022668
vn 0.57424247 -0.77752909 -0.25630860
vn 0.59620603 -0.75846702 -0.26318463
vn 0.61782829 -0.68492171 -0.38622592
vn 0.68171198 -0.62504149 -0.38025242
vn 0.65645864 -0.50641557 -0.55911119
vn 0.71380209 -0.45076155 -0.53600430
vn 0.62762091 -0.23007957 -0.74374416
vn 0.47817802 -0.04488366 -0.87711530
vn 0.51850102 -0.04272309 -0.85400904
vn 0.57436487 -0.05822317 -0.81652621
vn 0.67150644 -0.24284747 -0.70007443
vn 0.48355123 -0.34596345 -0.80404447
vn 0.49679895 -0.17568681 -0.84989702
vn 0.44270724 -0.04718023 -0.89542411
vn 0.17030033 -0.97814240 -0.11931157
vn 0.19284602 -0.94966961 -0.24685633
vn 0.36546685 -0.87792614 -0.30932131
vn 0.22170312 -0.89369519 -0.39007259
vn 0.39121201 -0.81904395 -0.41966673
vn 0.25223943 -0.80726778 -0.53356725
vn 0.41812383 -0.73660106 -0.53159321
vn 0.28746598 -0.69359815 -0.66051867
vn 0.45532636 -0.63611861 -0.62292136
vn 0.47331738 -0.49476821 -0.72881759
vn 0.73493623 -0.36384390 -0.57226423
vn 0.51532003 -0.78080977 -0.35324407
vn 0.53854290 -0.72376751 -0.43143034
vn 0.56296194 -0.64813038 -0.51283609
vn 0.57890162 -0.58468171 -0.56834868
vn 0.88270875 -0.04998023 -0.46725500
vn 0.91837467 -0.04188114 -0.39348942
vn 0.90037799 -0.17250324 -0.39945227
vn 0.86298495 -0.05595117 -0.50212195
vn 0.87562535 -0.17940300 -0.44843596
vn 0.84304776 -0.34878139 -0.40941667
vn 0.87309353 -0.31643635 -0.37091203
vn 0.78052893 -0.49022277 -0.38788686
vn 0.94409157 -0.03981898 -0.32726986
vn 0.95224542 -0.04285652 -0.30231108
vn 0.92653462 -0.17769035 -0.33160177
vn 0.96086703 -0.04606884 -0.27315238
vn 0.96437788 -0.06547666 -0.25629691
vn 0.75307713 -0.25345778 -0.60715236
vn 0.76146036 -0.12843874 -0.63535943
vn 0.93104002 -0.13091625 -0.34062504
vn 0.94018266 -0.06279070 -0.33483413
vn 0.98905130 -0.04549602 -0.14038391
vn 0.91977808 -0.18166306 -0.34786034
vn 0.97216270 -0.06342939 -0.22555799
vn 0.97956978 -0.06422300 -0.19057401
vn 0.98498667 -0.05354396 -0.16411673
vn 0.70068100 -0.60282207 -0.38164341
vn 0.61135629 -0.73207495 -0.30051583
vn 0.71953915 -0.57664008 -0.38697498
vn 0.62819810 -0.69887683 -0.34196246
vn 0.73809244 -0.54680690 -0.39524900
vn 0.64744498 -0.65767934 -0.38506218
vn 0.75809236 -0.51188503 -0.40406643
vn 0.68212308 -0.60124759 -0.41618438
vn 0.71810145 -0.23692429 -0.65436777
vn 0.74254564 -0.43659984 -0.50794345
vn 0.76112021 -0.21346402 -0.61247787
vn 0.77142062 -0.41669765 -0.48090882
vn 0.80825680 -0.20588743 -0.55166231
vn 0.79647945 -0.39628830 -0.45670129
vn 0.83613059 -0.20214201 -0.50992573
vn 0.81987039 -0.37397596 -0.43353722
vn 0.83788540 -0.04765478 -0.54376196
vn 0.80214841 -0.05285840 -0.59478056
vn 0.76464355 -0.05340289 -0.64223701
vn 0.70560196 -0.05085032 -0.70678152
vn 0.65009781 -0.05492759 -0.75786265
vn 0.61992752 -0.05075371 -0.78301592
vn 0.47674163 -0.86787673 -0.13966889
vn 0.99212179 -0.03793326 -0.11939604
vn 0.99322534 -0.02945605 -0.11240894
vn 0.99513998 -0.02121136 -0.09615876
vn 0.88278312 -0.02024073 -0.46934452
vn 0.76057351 -0.02750076 -0.64866913
vn 0.61655166 -0.02177057 -0.78701340
vn 0.72205530 -0.50101808 -0.47709225
vn 0.99576807 0.00432498 -0.09180001
vn 0.95834480 0.01366435 -0.28528674
vn 0.88070343 0.01497186 -0.47343142
vn 0.76793459 0.02771553 -0.63992836
vn 0.60907037 0.03491697 -0.79234720
vn 0.44316998 0.04720604 -0.89519381
vn 0.44854802 0.06628694 -0.89129721
vn 0.65724777 0.50197845 -0.56217703
vn 0.60140363 0.75819066 -0.25191386
vn 0.47830177 0.86315402 -0.16184113
vn 0.21288737 0.94106245 -0.26283158
vn 0.17364509 0.97751540 -0.11962874
vn 0.49589025 0.16755218 -0.85206756
vn 0.47184448 0.49156083 -0.73193630
vn 0.45080089 0.62570639 -0.63660825
vn 0.42856635 0.73769812 -0.52166308
vn 0.24300552 0.88626345 -0.39431639
vn 0.32939722 0.93992771 -0.08962912
vn 0.67471401 0.24267612 -0.69704325
vn 0.61161471 0.22995651 -0.75699898
vn 0.48102163 0.85389489 -0.19870005
vn 0.49434888 0.82520026 -0.27324663
vn 0.62250640 0.05943232 -0.78035478
vn 0.58560159 0.05978789 -0.80839111
vn 0.52495682 0.04307121 -0.85003836
vn 0.47918349 0.03763287 -0.87690761
vn 0.80595025 0.21288686 -0.55237974
vn 0.78950981 0.06082963 -0.61071599
vn 0.75609630 0.20468846 -0.62162772
vn 0.76743420 0.06254310 -0.63806983
vn 0.72022937 0.23390296 -0.65311489
vn 0.70975404 0.05755231 -0.70209467
vn 0.65991460 0.06307158 -0.74868865
vn 0.93000190 0.13153551 -0.34321259
vn 0.99266115 0.03569375 -0.11554129
vn 0.99030658 0.04062429 -0.13282524
vn 0.93875369 0.06076397 -0.33918911
vn 0.99545730 0.01679869 -0.09371537
vn 0.99430551 0.02417218 -0.10378945
vn 0.90004680 0.17991013 -0.39692330
vn 0.92303837 0.16269993 -0.34860995
vn 0.94929385 0.03051577 -0.31290570
vn 0.95869755 0.12357905 -0.25617812
vn 0.97772972 0.03274081 -0.20729844
vn 0.94238367 0.14052272 -0.30358918
vn 0.96983209 0.02678461 -0.24229797
vn 0.95942068 0.02858473 -0.28052605
vn 0.71468609 0.45194696 -0.53382370
vn 0.74129746 0.43882614 -0.50784811
vn 0.77004797 0.41927115 -0.48087194
vn 0.83579059 0.18814255 -0.51580662
vn 0.79646269 0.39871567 -0.45461302
vn 0.87360061 0.18727605 -0.44916552
vn 0.82065128 0.37590556 -0.43037947
vn 0.84342831 0.34987096 -0.40769963
vn 0.86472215 0.31937974 -0.38762378
vn 0.88407965 0.28265447 -0.37216882
vn 0.98835004 0.04897752 -0.14410207
vn 0.98799319 0.03401390 -0.15070674
vn 0.98398488 0.03133536 -0.17547609
vn 0.91953516 0.19976520 -0.33845082
vn 0.90030356 0.23900172 -0.36377422
vn 0.62517045 0.67449673 -0.39270355
vn 0.68210686 0.62503188 -0.37955946
vn 0.69878089 0.60508309 -0.38154910
vn 0.71891109 0.57872542 -0.38502432
vn 0.73849689 0.54850021 -0.39213500
vn 0.75828310 0.51282848 -0.40250925
vn 0.77857705 0.47002498 -0.41580560
vn 0.79890306 0.41747132 -0.43297991
vn 0.82042403 0.35352036 -0.44936374
vn 0.73171596 0.37637352 -0.56827346
vn 0.76798310 0.12006605 -0.62911533
vn 0.75411302 0.24996389 -0.60731508
vn 0.49229366 0.34276635 -0.80009886
vn 0.34813538 0.91699627 -0.19472952
vn 0.51499571 0.78148804 -0.35221564
vn 0.36472789 0.87845946 -0.30867870
vn 0.54733092 0.71984082 -0.42691692
vn 0.38521669 0.81864967 -0.42593523
vn 0.68115133 0.48487669 -0.54856856
vn 0.66606186 0.56849112 -0.48288657
vn 0.66664044 0.61066571 -0.42740838
vn 0.64742813 0.65846885 -0.38373895
vn 0.62820255 0.70031834 -0.33899229
vn 0.61016049 0.73377061 -0.29880574
vn 0.59330012 0.76096376 -0.26254357
vn 0.92868947 0.04154115 -0.36852435
vn 0.90958556 0.03153522 -0.41431827
vn 0.88476235 0.04628463 -0.46373842
vn 0.85427991 0.05137476 -0.51726828
vn 0.81502231 0.04849138 -0.57739693
vn 0.07203629 -0.68835619 -0.72178704
vn -0.11625976 -0.67068789 -0.73257179
vn -0.35552506 -0.67068792 -0.65098360
vn -0.55349489 -0.67068801 -0.49378234
vn -0.68717518 -0.67068795 -0.27922743
vn -0.74103859 -0.67068801 -0.03223964
vn -0.70882902 -0.67068800 0.21849265
vn -0.59428753 -0.67068797 0.44384679
vn -0.41071819 -0.67068800 0.61764729
vn -0.23502919 -0.68835610 0.68624132
vn -0.20022954 -0.71589924 0.66887698
vn -0.32006563 -0.72512920 0.60970946
vn -0.45533591 -0.72512946 0.51658152
vn -0.56346869 -0.72382265 0.39822583
vn -0.63140801 -0.72353564 0.27896255
vn -0.67817315 -0.72249063 0.13449337
vn -0.69881713 -0.71476767 0.02760063
vn 0.15270549 -0.70030846 -0.69731563
vn 0.67153830 -0.57963816 0.46157980
vn 0.68896896 -0.43780492 0.57762325
vn -0.68896896 -0.43780493 0.57762325
vn -0.67153830 -0.57963816 0.46157980
vn -0.67123618 -0.69954883 0.24509880
vn 0.67123618 -0.69954883 0.24509880
vn -0.68864776 -0.72252415 0.06101744
vn 0.68864776 -0.72252415 0.06101744
vn -0.09001035 -0.27999634 0.95577204
vn 0.70009172 -0.36037897 0.61644025
vn -0.08620445 -0.25949321 0.96188984
vn 0.61736920 -0.14364262 0.77344817
vn 0.61736936 0.14364296 0.77344798
vn 0.70009198 0.36037914 0.61643985
vn -0.08620457 0.25949469 0.96188943
vn -0.09001044 0.27999613 0.95577209
vn -0.74836063 0.50811125 -0.42635586
vn -0.74836052 0.62329083 -0.22685916
vn -0.74836058 -0.66329212 -0.00000006
vn -0.74836053 -0.62329075 -0.22685934
vn -0.74836055 -0.50811126 -0.42635598
vn -0.67641560 0.24439776 0.69478894
vn -0.74836041 0.11517925 -0.65321546
vn -0.67641544 -0.24439839 0.69478887
vn -0.74836052 -0.11517939 -0.65321531
vn -0.74836061 -0.33164593 -0.57442787
vn -0.74836057 0.33164591 -0.57442793
vn -0.74836054 0.66329217 0.00000001
vn -0.74836054 0.62329075 0.22685928
vn -0.74836059 0.50811124 0.42635596
vn -0.74836060 -0.33164597 0.57442786
vn -0.74836060 -0.11517956 0.65321519
vn -0.74836055 0.11517943 0.65321527
vn -0.74836057 0.33164600 0.57442788
vn -0.74836056 -0.62329073 0.22685928
vn -0.74836060 -0.50811125 0.42635591
vn 0.65760001 0.75089885 0.06093565
vn 0.59118123 0.75089888 0.29437327
vn 0.71266159 0.70123246 -0.01965934
vn 0.63520613 0.75089891 -0.18073184
vn 0.71519343 0.69252869 -0.09435233
vn 0.52702432 0.75089879 -0.39799042
vn 0.69090869 0.69016864 -0.21520324
vn 0.34766494 0.75089883 -0.56149803
vn 0.44492017 0.75089888 0.48805421
vn 0.23857017 0.75089890 0.61582068
vn 0.00000023 0.75089888 0.66041719
vn -0.23857001 0.75089876 0.61582091
vn -0.52702434 0.75089878 -0.39799041
vn -0.63520612 0.75089891 -0.18073184
vn -0.65760001 0.75089885 0.06093565
vn -0.34766485 0.75089886 -0.56149804
vn 0.22800095 0.69149821 -0.68545298
vn -0.15410327 0.73956588 -0.65520569
vn 0.34850981 0.68879855 -0.63568662
vn 0.00000000 0.72847679 -0.68507049
vn 0.46223288 0.68724365 -0.56038998
vn 0.15410325 0.73956585 -0.65520572
vn 0.55786015 0.68830259 -0.46371499
vn 0.63500371 0.69110789 -0.34516687
vn -0.59118077 0.75089937 0.29437295
vn -0.44491995 0.75089934 0.48805370
vn 0.63924621 -0.68797916 -0.34358252
vn 0.69286893 -0.68750724 -0.21740847
vn 0.22852470 -0.69125258 -0.68552632
vn 0.71342674 -0.70040773 -0.02124349
vn 0.71701299 -0.69067512 -0.09412890
vn 0.55909729 -0.69014785 -0.45946292
vn 0.45970395 -0.68942259 -0.55979351
vn 0.34717503 -0.68887853 -0.63633000
vn 0.23857016 -0.75089888 0.61582072
vn 0.44492021 -0.75089884 0.48805424
vn 0.59118124 -0.75089886 0.29437331
vn 0.65760001 -0.75089885 0.06093563
vn 0.63520624 -0.75089885 -0.18073172
vn 0.52702432 -0.75089888 -0.39799026
vn 0.34766487 -0.75089884 -0.56149806
vn 0.15410268 -0.73956607 -0.65520561
vn -0.52702435 -0.75089882 -0.39799031
vn -0.34766492 -0.75089885 -0.56149801
vn -0.15410272 -0.73956608 -0.65520559
vn -0.00000002 -0.72847637 -0.68507093
vn -0.00000001 -0.75089880 0.66041729
vn -0.23857019 -0.75089884 0.61582075
vn -0.44492019 -0.75089888 0.48805420
vn -0.59118129 -0.75089884 0.29437327
vn -0.65760001 -0.75089885 0.06093563
vn -0.63520621 -0.75089887 -0.18073176
vn 0.74836058 -0.62329070 0.22685932
vn 0.74836053 -0.50811125 0.42635603
vn 0.74836052 0.62329079 -0.22685925
vn 0.74836058 0.66329212 -0.00000004
vn 0.74836058 0.62329070 0.22685931
vn 0.74836054 0.50811124 0.42635603
vn 0.74836056 0.33164606 0.57442785
vn 0.74836056 -0.66329215 -0.00000001
vn 0.74836058 -0.62329070 -0.22685931
vn 0.74836054 -0.50811123 -0.42635604
vn 0.74836063 -0.33164592 -0.57442785
vn 0.74836052 -0.11517933 -0.65321533
vn 0.74836054 0.11517933 -0.65321530
vn 0.74836065 0.33164592 -0.57442782
vn 0.74836059 0.50811132 -0.42635585
vn 0.74836056 -0.33164606 0.57442786
vn 0.74836055 -0.11517946 0.65321526
vn 0.74836055 0.11517946 0.65321526
f 1//1 2//2 3//3
f 1//1 3//3 4//4
f 5//5 6//6 7//7
f 7//7 6//6 4//4
f 7//7 4//4 8//8
f 8//8 4//4 3//3
f 9//9 10//10 11//11
f 11//11 10//10 12//12
f 11//11 12//12 13//13
f 13//13 12//12 14//14
f 14//14 12//12 15//15
f 14//14 15//15 16//16
f 17//17 18//18 19//19
f 19//19 18//18 20//20
f 19//19 20//20 21//21
f 21//21 20//20 22//22
f 22//22 20//20 23//23
f 22//22 23//23 24//24
f 24//24 23//23 25//25
f 24//24 25//25 26//26
f 26//26 25//25 3//3
f 26//26 3//3 2//2
f 27//27 28//28 29//29
f 29//29 28//28 30//30
f 29//29 30//30 31//31
f 32//32 33//33 29//29
f 29//29 33//33 34//34
f 29//29 34//34 27//27
f 35//35 36//36 29//29
f 29//29 36//36 37//37
f 29//29 37//37 32//32
f 38//38 39//39 29//29
f 29//29 39//39 40//40
f 29//29 40//40 35//35
f 41//41 42//42 29//29
f 29//29 42//42 43//43
f 29//29 43//43 38//38
f 31//31 44//44 29//29
f 29//29 44//44 45//45
f 29//29 45//45 41//41
f 46//46 47//47 48//48
f 49//49 50//50 51//51
f 51//51 50//50 52//52
f 46//46 48//48 53//53
f 48//48 54//54 53//53
f 53//53 54//54 55//55
f 53//53 55//55 56//56
f 56//56 55//55 57//57
f 56//56 57//57 58//58
f 58//58 57//57 59//59
f 58//58 59//59 60//60
f 60//60 59//59 61//61
f 60//60 61//61 62//62
f 62//62 61//61 63//63
f 62//62 63//63 52//52
f 52//52 63//63 64//64
f 52//52 64//64 51//51
f 65//65 48//48 47//47
f 24//24 26//26 66//66
f 66//66 26//26 2//2
f 47//47 67//67 68//68
f 69//69 70//70 47//47
f 47//47 70//70 71//71
f 47//47 71//71 65//65
f 72//72 73//73 67//67
f 68//68 74//74 47//47
f 47//47 74//74 75//75
f 47//47 75//75 76//76
f 77//77 78//78 72//72
f 73//73 79//79 67//67
f 67//67 79//79 80//80
f 67//67 80//80 81//81
f 81//81 80//80 82//82
f 81//81 82//82 17//17
f 2//2 1//1 66//66
f 66//66 1//1 4//4
f 66//66 4//4 6//6
f 6//6 5//5 66//66
f 66//66 5//5 83//83
f 66//66 83//83 84//84
f 76//76 85//85 47//47
f 47//47 85//85 86//86
f 47//47 86//86 87//87
f 17//17 19//19 81//81
f 81//81 19//19 21//21
f 81//81 21//21 66//66
f 66//66 21//21 22//22
f 66//66 22//22 24//24
f 88//88 89//89 72//72
f 72//72 89//89 90//90
f 72//72 90//90 77//77
f 87//87 91//91 47//47
f 47//47 91//91 92//92
f 47//47 92//92 69//69
f 67//67 47//47 72//72
f 72//72 47//47 93//93
f 72//72 93//93 88//88
f 84//84 83//83 94//94
f 94//94 83//83 95//95
f 94//94 95//95 96//96
f 97//97 94//94 98//98
f 98//98 94//94 96//96
f 98//98 96//96 99//99
f 99//99 96//96 100//100
f 101//101 50//50 102//102
f 102//102 50//50 49//49
f 103//103 104//104 105//105
f 105//105 104//104 106//106
f 105//105 106//106 107//107
f 107//107 106//106 108//108
f 107//107 108//108 109//109
f 109//109 108//108 110//110
f 109//109 110//110 111//111
f 112//112 113//113 114//114
f 114//114 113//113 115//115
f 114//114 115//115 103//103
f 103//103 115//115 116//116
f 103//103 116//116 104//104
f 101//101 102//102 117//117
f 117//117 102//102 118//118
f 117//117 118//118 112//112
f 112//112 118//118 119//119
f 112//112 119//119 113//113
f 16//16 15//15 120//120
f 16//16 120//120 121//121
f 121//121 120//120 122//122
f 121//121 122//122 123//123
f 123//123 122//122 124//124
f 124//124 122//122 125//125
f 124//124 125//125 126//126
f 126//126 125//125 127//127
f 127//127 125//125 128//128
f 127//127 128//128 129//129
f 16//16 121//121 130//130
f 110//110 131//131 111//111
f 111//111 131//131 132//132
f 11//11 13//13 130//130
f 130//130 13//13 14//14
f 130//130 14//14 16//16
f 132//132 133//133 111//111
f 111//111 133//133 134//134
f 111//111 134//134 135//135
f 136//136 137//137 138//138
f 138//138 137//137 139//139
f 138//138 139//139 129//129
f 129//129 139//139 127//127
f 140//140 141//141 142//142
f 142//142 141//141 143//143
f 142//142 143//143 144//144
f 135//135 145//145 111//111
f 111//111 145//145 146//146
f 111//111 146//146 147//147
f 136//136 148//148 137//137
f 137//137 148//148 149//149
f 137//137 149//149 111//111
f 111//111 149//149 142//142
f 111//111 142//142 150//150
f 150//150 142//142 144//144
f 147//147 151//151 111//111
f 111//111 151//151 152//152
f 111//111 152//152 153//153
f 153//153 154//154 111//111
f 111//111 154//154 155//155
f 111//111 155//155 137//137
f 121//121 123//123 130//130
f 130//130 123//123 124//124
f 130//130 124//124 139//139
f 139//139 124//124 126//126
f 139//139 126//126 127//127
f 156//156 157//157 158//158
f 156//156 159//159 160//160
f 160//160 159//159 161//161
f 160//160 161//161 130//130
f 130//130 161//161 9//9
f 130//130 9//9 11//11
f 158//158 162//162 163//163
f 156//156 158//158 159//159
f 159//159 158//158 163//163
f 159//159 163//163 164//164
f 165//165 166//166 167//167
f 167//167 166//166 168//168
f 167//167 168//168 169//169
f 170//170 171//171 167//167
f 167//167 171//171 172//172
f 167//167 172//172 165//165
f 173//173 174//174 167//167
f 167//167 174//174 175//175
f 167//167 175//175 170//170
f 176//176 177//177 167//167
f 167//167 177//177 178//178
f 167//167 178//178 173//173
f 179//179 180//180 167//167
f 167//167 180//180 181//181
f 167//167 181//181 176//176
f 169//169 182//182 167//167
f 167//167 182//182 183//183
f 167//167 183//183 179//179
f 184//184 72//72 185//185
f 185//185 72//72 78//78
f 186//186 187//187 188//188
f 188//188 187//187 189//189
f 188//188 189//189 190//190
f 190//190 189//189 191//191
f 190//190 191//191 192//192
f 193//193 194//194 195//195
f 195//195 194//194 196//196
f 195//195 196//196 197//197
f 197//197 196//196 198//198
f 197//197 198//198 199//199
f 199//199 198//198 200//200
f 199//199 200//200 192//192
f 192//192 200//200 201//201
f 192//192 201//201 190//190
f 202//202 203//203 193//193
f 193//193 203//203 204//204
f 193//193 204//204 194//194
f 18//18 17//17 205//205
f 205//205 17//17 82//82
f 205//205 82//82 206//206
f 206//206 82//82 80//80
f 206//206 80//80 207//207
f 207//207 80//80 79//79
f 207//207 79//79 208//208
f 208//208 79//79 73//73
f 208//208 73//73 188//188
f 188//188 73//73 72//72
f 188//188 72//72 186//186
f 186//186 72//72 184//184
f 209//209 210//210 211//211
f 93//93 212//212 88//88
f 88//88 212//212 213//213
f 88//88 213//213 89//89
f 189//189 187//187 214//214
f 214//214 187//187 186//186
f 214//214 186//186 215//215
f 215//215 186//186 184//184
f 215//215 184//184 216//216
f 216//216 184//184 185//185
f 216//216 185//185 217//217
f 217//217 185//185 78//78
f 217//217 78//78 218//218
f 218//218 78//78 77//77
f 218//218 77//77 219//219
f 219//219 77//77 90//90
f 219//219 90//90 220//220
f 210//210 221//221 222//222
f 222//222 221//221 223//223
f 222//222 223//223 189//189
f 224//224 225//225 226//226
f 226//226 225//225 209//209
f 227//227 228//228 229//229
f 229//229 228//228 224//224
f 90//90 89//89 220//220
f 220//220 89//89 213//213
f 220//220 213//213 219//219
f 219//219 213//213 230//230
f 56//56 230//230 53//53
f 53//53 230//230 213//213
f 53//53 213//213 46//46
f 46//46 213//213 212//212
f 46//46 212//212 47//47
f 47//47 212//212 93//93
f 189//189 214//214 222//222
f 222//222 214//214 215//215
f 222//222 215//215 231//231
f 231//231 215//215 216//216
f 231//231 216//216 232//232
f 232//232 216//216 217//217
f 232//232 217//217 233//233
f 233//233 217//217 218//218
f 233//233 218//218 234//234
f 234//234 218//218 219//219
f 234//234 219//219 235//235
f 235//235 219//219 230//230
f 235//235 230//230 236//236
f 236//236 230//230 56//56
f 236//236 56//56 58//58
f 210//210 222//222 211//211
f 211//211 222//222 231//231
f 211//211 231//231 237//237
f 237//237 231//231 232//232
f 237//237 232//232 238//238
f 238//238 232//232 233//233
f 238//238 233//233 239//239
f 239//239 233//233 234//234
f 239//239 234//234 240//240
f 240//240 234//234 235//235
f 240//240 235//235 241//241
f 241//241 235//235 236//236
f 241//241 236//236 242//242
f 242//242 236//236 58//58
f 242//242 58//58 60//60
f 209//209 211//211 226//226
f 226//226 211//211 237//237
f 226//226 237//237 243//243
f 243//243 237//237 238//238
f 243//243 238//238 244//244
f 244//244 238//238 239//239
f 244//244 239//239 245//245
f 245//245 239//239 240//240
f 245//245 240//240 246//246
f 246//246 240//240 241//241
f 246//246 241//241 247//247
f 247//247 241//241 242//242
f 247//247 242//242 248//248
f 248//248 242//242 60//60
f 248//248 60//60 62//62
f 224//224 226//226 229//229
f 229//229 226//226 243//243
f 229//229 243//243 249//249
f 249//249 243//243 244//244
f 249//249 244//244 250//250
f 250//250 244//244 245//245
f 250//250 245//245 251//251
f 251//251 245//245 246//246
f 251//251 246//246 252//252
f 252//252 246//246 247//247
f 252//252 247//247 253//253
f 253//253 247//247 248//248
f 253//253 248//248 254//254
f 254//254 248//248 62//62
f 254//254 62//62 52//52
f 255//255 227//227 256//256
f 256//256 227//227 229//229
f 256//256 229//229 257//257
f 257//257 229//229 249//249
f 257//257 249//249 258//258
f 258//258 249//249 250//250
f 258//258 250//250 259//259
f 259//259 250//250 251//251
f 259//259 251//251 260//260
f 260//260 251//251 252//252
f 260//260 252//252 261//261
f 261//261 252//252 253//253
f 261//261 253//253 262//262
f 262//262 253//253 254//254
f 262//262 254//254 263//263
f 263//263 254//254 52//52
f 263//263 52//52 50//50
f 264//264 265//265 266//266
f 267//267 268//268 269//269
f 144//144 270//270 150//150
f 271//271 272//272 273//273
f 273//273 272//272 274//274
f 273//273 274//274 275//275
f 275//275 274//274 276//276
f 275//275 276//276 277//277
f 277//277 276//276 278//278
f 277//277 278//278 279//279
f 270//270 144//144 280//280
f 280//280 144//144 143//143
f 280//280 143//143 281//281
f 281//281 143//143 141//141
f 281//281 141//141 282//282
f 282//282 141//141 140//140
f 282//282 140//140 271//271
f 271//271 140//140 283//283
f 271//271 283//283 272//272
f 267//267 269//269 265//265
f 284//284 285//285 286//286
f 286//286 285//285 264//264
f 279//279 287//287 288//288
f 288//288 287//287 284//284
f 280//280 107//107 270//270
f 270//270 107//107 109//109
f 270//270 109//109 150//150
f 150//150 109//109 111//111
f 101//101 117//117 289//289
f 282//282 290//290 281//281
f 281//281 290//290 291//291
f 281//281 291//291 280//280
f 280//280 291//291 105//105
f 280//280 105//105 107//107
f 101//101 289//289 292//292
f 292//292 289//289 293//293
f 292//292 293//293 294//294
f 294//294 293//293 295//295
f 294//294 295//295 296//296
f 296//296 295//295 297//297
f 296//296 297//297 298//298
f 298//298 297//297 299//299
f 298//298 299//299 300//300
f 300//300 299//299 301//301
f 300//300 301//301 302//302
f 279//279 288//288 277//277
f 277//277 288//288 303//303
f 277//277 303//303 275//275
f 275//275 303//303 304//304
f 275//275 304//304 273//273
f 273//273 304//304 305//305
f 273//273 305//305 271//271
f 271//271 305//305 306//306
f 271//271 306//306 282//282
f 282//282 306//306 307//307
f 282//282 307//307 290//290
f 290//290 307//307 308//308
f 290//290 308//308 291//291
f 291//291 308//308 103//103
f 291//291 103//103 105//105
f 284//284 286//286 288//288
f 288//288 286//286 309//309
f 288//288 309//309 303//303
f 303//303 309//309 310//310
f 303//303 310//310 304//304
f 304//304 310//310 311//311
f 304//304 311//311 305//305
f 305//305 311//311 312//312
f 305//305 312//312 306//306
f 306//306 312//312 313//313
f 306//306 313//313 307//307
f 307//307 313//313 314//314
f 307//307 314//314 308//308
f 308//308 314//314 114//114
f 308//308 114//114 103//103
f 264//264 266//266 286//286
f 286//286 266//266 315//315
f 286//286 315//315 309//309
f 309//309 315//315 316//316
f 309//309 316//316 310//310
f 310//310 316//316 317//317
f 310//310 317//317 311//311
f 311//311 317//317 318//318
f 311//311 318//318 312//312
f 312//312 318//318 319//319
f 312//312 319//319 313//313
f 313//313 319//319 320//320
f 313//313 320//320 314//314
f 314//314 320//320 112//112
f 314//314 112//112 114//114
f 265//265 269//269 266//266
f 266//266 269//269 301//301
f 266//266 301//301 315//315
f 315//315 301//301 299//299
f 315//315 299//299 316//316
f 316//316 299//299 297//297
f 316//316 297//297 317//317
f 317//317 297//297 295//295
f 317//317 295//295 318//318
f 318//318 295//295 293//293
f 318//318 293//293 319//319
f 319//319 293//293 289//289
f 319//319 289//289 320//320
f 320//320 289//289 117//117
f 320//320 117//117 112//112
f 268//268 321//321 269//269
f 269//269 321//321 322//322
f 269//269 322//322 301//301
f 301//301 322//322 323//323
f 301//301 323//323 302//302
f 276//276 274//274 142//142
f 324//324 278//278 325//325
f 274//274 272//272 142//142
f 142//142 272//272 283//283
f 142//142 283//283 140//140
f 326//326 327//327 328//328
f 328//328 327//327 324//324
f 328//328 324//324 329//329
f 329//329 324//324 325//325
f 330//330 331//331 332//332
f 332//332 331//331 327//327
f 332//332 327//327 333//333
f 333//333 327//327 326//326
f 330//330 334//334 331//331
f 331//331 334//334 335//335
f 331//331 335//335 336//336
f 336//336 335//335 337//337
f 336//336 337//337 338//338
f 278//278 276//276 325//325
f 325//325 276//276 142//142
f 325//325 142//142 339//339
f 339//339 142//142 149//149
f 339//339 149//149 340//340
f 340//340 149//149 148//148
f 340//340 148//148 341//341
f 341//341 148//148 136//136
f 341//341 136//136 342//342
f 342//342 136//136 138//138
f 342//342 138//138 128//128
f 128//128 138//138 129//129
f 343//343 66//66 84//84
f 343//343 84//84 344//344
f 344//344 84//84 94//94
f 344//344 94//94 345//345
f 345//345 94//94 97//97
f 345//345 97//97 346//346
f 346//346 97//97 98//98
f 346//346 98//98 347//347
f 347//347 98//98 99//99
f 347//347 99//99 348//348
f 348//348 99//99 100//100
f 348//348 100//100 349//349
f 349//349 100//100 96//96
f 349//349 96//96 350//350
f 350//350 96//96 95//95
f 350//350 95//95 351//351
f 351//351 95//95 83//83
f 351//351 83//83 352//352
f 25//25 23//23 352//352
f 352//352 23//23 353//353
f 353//353 23//23 20//20
f 353//353 20//20 18//18
f 83//83 5//5 352//352
f 352//352 5//5 7//7
f 7//7 8//8 352//352
f 352//352 8//8 3//3
f 352//352 3//3 25//25
f 353//353 18//18 354//354
f 354//354 18//18 205//205
f 205//205 206//206 354//354
f 354//354 206//206 207//207
f 354//354 207//207 355//355
f 190//190 356//356 188//188
f 188//188 356//356 355//355
f 188//188 355//355 208//208
f 208//208 355//355 207//207
f 203//203 202//202 357//357
f 203//203 357//357 204//204
f 204//204 357//357 358//358
f 204//204 358//358 194//194
f 356//356 190//190 359//359
f 359//359 190//190 201//201
f 201//201 200//200 359//359
f 359//359 200//200 198//198
f 359//359 198//198 358//358
f 358//358 198//198 196//196
f 358//358 196//196 194//194
f 360//360 361//361 362//362
f 362//362 363//363 360//360
f 360//360 363//363 364//364
f 360//360 364//364 365//365
f 365//365 364//364 366//366
f 365//365 366//366 367//367
f 66//66 343//343 81//81
f 81//81 343//343 368//368
f 369//369 370//370 371//371
f 372//372 373//373 374//374
f 375//375 376//376 377//377
f 65//65 71//71 378//378
f 378//378 71//71 70//70
f 92//92 379//379 380//380
f 91//91 381//381 382//382
f 87//87 383//383 384//384
f 86//86 85//85 385//385
f 385//385 85//85 76//76
f 74//74 68//68 386//386
f 74//74 386//386 75//75
f 75//75 386//386 387//387
f 75//75 387//387 76//76
f 76//76 387//387 388//388
f 76//76 388//388 385//385
f 385//385 388//388 389//389
f 385//385 389//389 86//86
f 64//64 63//63 390//390
f 390//390 63//63 61//61
f 64//64 391//391 51//51
f 51//51 391//391 392//392
f 51//51 392//392 49//49
f 393//393 374//374 394//394
f 394//394 374//374 395//395
f 394//394 395//395 396//396
f 396//396 395//395 397//397
f 396//396 397//397 398//398
f 398//398 397//397 399//399
f 398//398 399//399 400//400
f 400//400 399//399 401//401
f 400//400 401//401 402//402
f 402//402 401//401 403//403
f 374//374 373//373 395//395
f 395//395 373//373 404//404
f 395//395 404//404 397//397
f 397//397 404//404 405//405
f 397//397 405//405 399//399
f 399//399 405//405 406//406
f 399//399 406//406 401//401
f 401//401 406//406 407//407
f 401//401 407//407 403//403
f 408//408 409//409 410//410
f 411//411 408//408 412//412
f 412//412 408//408 410//410
f 412//412 410//410 413//413
f 413//413 410//410 414//414
f 413//413 414//414 415//415
f 415//415 414//414 375//375
f 416//416 417//417 418//418
f 418//418 417//417 419//419
f 418//418 419//419 420//420
f 64//64 390//390 391//391
f 391//391 390//390 421//421
f 391//391 421//421 422//422
f 422//422 421//421 423//423
f 422//422 423//423 424//424
f 425//425 423//423 426//426
f 426//426 423//423 421//421
f 426//426 421//421 403//403
f 403//403 421//421 390//390
f 403//403 390//390 402//402
f 402//402 390//390 61//61
f 402//402 61//61 400//400
f 409//409 416//416 410//410
f 410//410 416//416 418//418
f 410//410 418//418 414//414
f 414//414 418//418 420//420
f 414//414 420//420 375//375
f 375//375 420//420 427//427
f 375//375 427//427 376//376
f 376//376 427//427 428//428
f 376//376 428//428 429//429
f 92//92 91//91 379//379
f 379//379 91//91 382//382
f 379//379 382//382 380//380
f 380//380 382//382 430//430
f 380//380 430//430 431//431
f 431//431 430//430 432//432
f 431//431 432//432 433//433
f 433//433 432//432 434//434
f 433//433 434//434 435//435
f 435//435 434//434 436//436
f 435//435 436//436 437//437
f 87//87 86//86 383//383
f 383//383 86//86 389//389
f 383//383 389//389 384//384
f 384//384 389//389 438//438
f 384//384 438//438 439//439
f 439//439 438//438 440//440
f 439//439 440//440 441//441
f 441//441 440//440 442//442
f 441//441 442//442 443//443
f 443//443 442//442 444//444
f 443//443 444//444 445//445
f 446//446 444//444 447//447
f 447//447 444//444 442//442
f 447//447 442//442 448//448
f 448//448 442//442 440//440
f 448//448 440//440 449//449
f 449//449 440//440 438//438
f 449//449 438//438 450//450
f 450//450 438//438 389//389
f 450//450 389//389 451//451
f 451//451 389//389 388//388
f 91//91 87//87 381//381
f 381//381 87//87 384//384
f 381//381 384//384 382//382
f 382//382 384//384 439//439
f 382//382 439//439 430//430
f 430//430 439//439 441//441
f 430//430 441//441 432//432
f 432//432 441//441 443//443
f 432//432 443//443 434//434
f 434//434 443//443 445//445
f 434//434 445//445 436//436
f 69//69 452//452 70//70
f 70//70 452//452 372//372
f 70//70 372//372 378//378
f 378//378 372//372 374//374
f 378//378 374//374 65//65
f 65//65 374//374 393//393
f 65//65 393//393 48//48
f 48//48 393//393 394//394
f 48//48 394//394 54//54
f 54//54 394//394 396//396
f 54//54 396//396 55//55
f 55//55 396//396 398//398
f 55//55 398//398 57//57
f 57//57 398//398 400//400
f 57//57 400//400 59//59
f 59//59 400//400 61//61
f 425//425 453//453 423//423
f 423//423 453//453 454//454
f 423//423 454//454 424//424
f 424//424 454//454 455//455
f 424//424 455//455 369//369
f 369//369 371//371 424//424
f 424//424 371//371 456//456
f 424//424 456//456 422//422
f 422//422 456//456 457//457
f 422//422 457//457 391//391
f 391//391 457//457 458//458
f 391//391 458//458 392//392
f 446//446 411//411 444//444
f 444//444 411//411 412//412
f 444//444 412//412 445//445
f 445//445 412//412 413//413
f 445//445 413//413 436//436
f 436//436 413//413 415//415
f 436//436 415//415 437//437
f 437//437 415//415 375//375
f 437//437 375//375 459//459
f 459//459 375//375 377//377
f 69//69 92//92 452//452
f 452//452 92//92 380//380
f 452//452 380//380 372//372
f 372//372 380//380 431//431
f 372//372 431//431 373//373
f 373//373 431//431 433//433
f 373//373 433//433 404//404
f 404//404 433//433 435//435
f 404//404 435//435 405//405
f 405//405 435//435 437//437
f 405//405 437//437 406//406
f 406//406 437//437 459//459
f 406//406 459//459 407//407
f 407//407 459//459 377//377
f 407//407 377//377 403//403
f 403//403 377//377 376//376
f 403//403 376//376 426//426
f 426//426 376//376 429//429
f 426//426 429//429 425//425
f 370//370 460//460 371//371
f 371//371 460//460 461//461
f 371//371 461//461 456//456
f 456//456 461//461 462//462
f 456//456 462//462 457//457
f 457//457 462//462 463//463
f 457//457 463//463 458//458
f 458//458 463//463 464//464
f 458//458 464//464 392//392
f 392//392 464//464 465//465
f 392//392 465//465 49//49
f 49//49 465//465 102//102
f 466//466 155//155 154//154
f 151//151 467//467 152//152
f 147//147 146//146 468//468
f 134//134 469//469 135//135
f 108//108 470//470 471//471
f 472//472 118//118 102//102
f 115//115 113//113 473//473
f 473//473 113//113 119//119
f 115//115 474//474 116//116
f 116//116 474//474 475//475
f 116//116 475//475 104//104
f 104//104 475//475 476//476
f 104//104 476//476 106//106
f 133//133 132//132 477//477
f 477//477 132//132 131//131
f 477//477 131//131 471//471
f 471//471 131//131 110//110
f 471//471 110//110 108//108
f 467//467 478//478 152//152
f 152//152 478//478 479//479
f 152//152 479//479 153//153
f 134//134 133//133 469//469
f 469//469 133//133 477//477
f 469//469 477//477 480//480
f 480//480 477//477 481//481
f 478//478 482//482 479//479
f 479//479 482//482 483//483
f 479//479 483//483 153//153
f 153//153 483//483 484//484
f 153//153 484//484 154//154
f 154//154 484//484 485//485
f 154//154 485//485 466//466
f 486//486 487//487 488//488
f 488//488 487//487 489//489
f 488//488 489//489 490//490
f 490//490 489//489 491//491
f 490//490 491//491 492//492
f 493//493 494//494 495//495
f 461//461 460//460 496//496
f 496//496 460//460 497//497
f 496//496 497//497 498//498
f 499//499 500//500 501//501
f 502//502 503//503 504//504
f 504//504 503//503 505//505
f 504//504 505//505 500//500
f 500//500 505//505 506//506
f 500//500 506//506 501//501
f 490//490 507//507 488//488
f 488//488 507//507 508//508
f 488//488 508//508 486//486
f 486//486 508//508 509//509
f 486//486 509//509 510//510
f 510//510 509//509 511//511
f 510//510 511//511 512//512
f 512//512 511//511 513//513
f 512//512 513//513 499//499
f 499//499 513//513 514//514
f 499//499 514//514 500//500
f 500//500 514//514 515//515
f 500//500 515//515 504//504
f 504//504 515//515 516//516
f 504//504 516//516 502//502
f 517//517 518//518 502//502
f 502//502 518//518 519//519
f 502//502 519//519 503//503
f 495//495 517//517 520//520
f 520//520 517//517 502//502
f 520//520 502//502 521//521
f 521//521 502//502 516//516
f 507//507 522//522 508//508
f 508//508 522//522 523//523
f 508//508 523//523 509//509
f 509//509 523//523 524//524
f 509//509 524//524 511//511
f 511//511 524//524 525//525
f 511//511 525//525 513//513
f 513//513 525//525 526//526
f 513//513 526//526 514//514
f 514//514 526//526 527//527
f 514//514 527//527 515//515
f 515//515 527//527 528//528
f 515//515 528//528 516//516
f 516//516 528//528 529//529
f 516//516 529//529 521//521
f 521//521 529//529 530//530
f 521//521 530//530 520//520
f 520//520 530//530 531//531
f 102//102 465//465 472//472
f 472//472 465//465 464//464
f 472//472 464//464 532//532
f 532//532 464//464 463//463
f 532//532 463//463 496//496
f 496//496 463//463 462//462
f 496//496 462//462 461//461
f 495//495 520//520 493//493
f 493//493 520//520 531//531
f 493//493 531//531 533//533
f 533//533 531//531 473//473
f 533//533 473//473 534//534
f 534//534 473//473 119//119
f 534//534 119//119 118//118
f 118//118 472//472 534//534
f 534//534 472//472 532//532
f 534//534 532//532 533//533
f 533//533 532//532 496//496
f 533//533 496//496 493//493
f 493//493 496//496 498//498
f 493//493 498//498 494//494
f 481//481 535//535 536//536
f 536//536 535//535 537//537
f 536//536 537//537 538//538
f 538//538 537//537 539//539
f 474//474 540//540 475//475
f 475//475 540//540 541//541
f 475//475 541//541 542//542
f 481//481 477//477 535//535
f 535//535 477//477 471//471
f 535//535 471//471 537//537
f 537//537 471//471 470//470
f 537//537 470//470 539//539
f 115//115 473//473 474//474
f 474//474 473//473 531//531
f 474//474 531//531 540//540
f 540//540 531//531 530//530
f 540//540 530//530 541//541
f 541//541 530//530 529//529
f 541//541 529//529 542//542
f 542//542 529//529 528//528
f 542//542 528//528 543//543
f 543//543 528//528 527//527
f 543//543 527//527 544//544
f 544//544 527//527 526//526
f 544//544 526//526 545//545
f 545//545 526//526 525//525
f 545//545 525//525 546//546
f 546//546 525//525 524//524
f 546//546 524//524 468//468
f 468//468 524//524 523//523
f 468//468 523//523 147//147
f 147//147 523//523 522//522
f 147//147 522//522 151//151
f 151//151 522//522 507//507
f 151//151 507//507 467//467
f 467//467 507//507 490//490
f 467//467 490//490 478//478
f 478//478 490//490 492//492
f 478//478 492//492 482//482
f 501//501 547//547 499//499
f 499//499 547//547 548//548
f 499//499 548//548 512//512
f 512//512 548//548 549//549
f 512//512 549//549 510//510
f 510//510 549//549 550//550
f 510//510 550//550 486//486
f 486//486 550//550 551//551
f 486//486 551//551 487//487
f 146//146 145//145 468//468
f 468//468 145//145 135//135
f 468//468 135//135 546//546
f 546//546 135//135 469//469
f 546//546 469//469 545//545
f 545//545 469//469 480//480
f 545//545 480//480 544//544
f 544//544 480//480 481//481
f 544//544 481//481 543//543
f 543//543 481//481 536//536
f 543//543 536//536 542//542
f 542//542 536//536 538//538
f 542//542 538//538 475//475
f 475//475 538//538 539//539
f 475//475 539//539 476//476
f 476//476 539//539 470//470
f 476//476 470//470 106//106
f 106//106 470//470 108//108
f 130//130 552//552 553//553
f 130//130 553//553 160//160
f 160//160 553//553 554//554
f 160//160 554//554 156//156
f 156//156 554//554 555//555
f 156//156 555//555 157//157
f 157//157 555//555 556//556
f 157//157 556//556 158//158
f 158//158 556//556 557//557
f 158//158 557//557 162//162
f 162//162 557//557 558//558
f 162//162 558//558 163//163
f 163//163 558//558 559//559
f 163//163 559//559 164//164
f 164//164 559//559 560//560
f 164//164 560//560 159//159
f 159//159 560//560 561//561
f 159//159 561//561 161//161
f 9//9 161//161 561//561
f 562//562 128//128 125//125
f 562//562 125//125 561//561
f 125//125 122//122 561//561
f 561//561 122//122 120//120
f 561//561 120//120 15//15
f 15//15 12//12 561//561
f 561//561 12//12 10//10
f 561//561 10//10 9//9
f 128//128 562//562 342//342
f 342//342 562//562 563//563
f 342//342 563//563 341//341
f 341//341 563//563 340//340
f 340//340 563//563 564//564
f 340//340 564//564 339//339
f 339//339 564//564 325//325
f 325//325 564//564 565//565
f 325//325 565//565 329//329
f 328//328 329//329 565//565
f 328//328 565//565 326//326
f 326//326 565//565 566//566
f 326//326 566//566 333//333
f 335//335 334//334 567//567
f 567//567 334//334 330//330
f 567//567 330//330 566//566
f 566//566 330//330 332//332
f 566//566 332//332 333//333
f 335//335 567//567 337//337
f 337//337 567//567 568//568
f 337//337 568//568 338//338
f 569//569 552//552 139//139
f 139//139 552//552 130//130
f 570//570 571//571 572//572
f 572//572 573//573 570//570
f 570//570 573//573 574//574
f 570//570 574//574 575//575
f 575//575 574//574 576//576
f 575//575 576//576 577//577
f 578//578 579//579 580//580
f 580//580 579//579 581//581
f 582//582 583//583 584//584
f 584//584 583//583 585//585
f 338//338 586//586 587//587
f 367//367 588//588 365//365
f 365//365 588//588 589//589
f 365//365 589//589 360//360
f 360//360 589//589 361//361
f 361//361 589//589 590//590
f 361//361 590//590 591//591
f 592//592 593//593 594//594
f 594//594 593//593 591//591
f 594//594 591//591 595//595
f 595//595 591//591 590//590
f 592//592 596//596 593//593
f 593//593 596//596 586//586
f 593//593 586//586 572//572
f 572//572 586//586 338//338
f 587//587 597//597 338//338
f 338//338 597//597 598//598
f 338//338 598//598 336//336
f 336//336 598//598 599//599
f 336//336 599//599 331//331
f 331//331 599//599 327//327
f 191//191 189//189 223//223
f 574//574 573//573 576//576
f 576//576 573//573 572//572
f 576//576 572//572 568//568
f 568//568 572//572 338//338
f 600//600 227//227 601//601
f 601//601 227//227 255//255
f 601//601 255//255 602//602
f 602//602 255//255 321//321
f 602//602 321//321 603//603
f 603//603 321//321 268//268
f 603//603 268//268 599//599
f 367//367 357//357 588//588
f 588//588 357//357 202//202
f 588//588 202//202 604//604
f 604//604 202//202 193//193
f 604//604 193//193 605//605
f 605//605 193//193 195//195
f 605//605 195//195 197//197
f 268//268 267//267 599//599
f 599//599 267//267 265//265
f 599//599 265//265 327//327
f 327//327 265//265 264//264
f 327//327 264//264 285//285
f 327//327 279//279 324//324
f 324//324 279//279 278//278
f 285//285 284//284 327//327
f 327//327 284//284 287//287
f 327//327 287//287 279//279
f 210//210 197//197 221//221
f 221//221 197//197 199//199
f 221//221 199//199 223//223
f 223//223 199//199 192//192
f 223//223 192//192 191//191
f 210//210 209//209 197//197
f 197//197 209//209 225//225
f 197//197 225//225 605//605
f 605//605 225//225 224//224
f 605//605 224//224 600//600
f 600//600 224//224 228//228
f 600//600 228//228 227//227
f 583//583 362//362 585//585
f 585//585 362//362 361//361
f 585//585 361//361 591//591
f 606//606 607//607 608//608
f 608//608 607//607 366//366
f 606//606 608//608 609//609
f 609//609 608//608 610//610
f 609//609 610//610 611//611
f 611//611 610//610 612//612
f 611//611 612//612 613//613
f 607//607 614//614 366//366
f 366//366 614//614 615//615
f 366//366 615//615 367//367
f 367//367 615//615 616//616
f 367//367 616//616 357//357
f 357//357 616//616 617//617
f 357//357 617//617 358//358
f 618//618 354//354 619//619
f 619//619 354//354 355//355
f 619//619 355//355 620//620
f 353//353 354//354 343//343
f 343//343 354//354 618//618
f 343//343 618//618 368//368
f 368//368 618//618 621//621
f 368//368 621//621 622//622
f 622//622 621//621 623//623
f 622//622 623//623 624//624
f 624//624 623//623 625//625
f 624//624 625//625 626//626
f 626//626 625//625 627//627
f 626//626 627//627 628//628
f 628//628 627//627 613//613
f 628//628 613//613 629//629
f 629//629 613//613 612//612
f 355//355 356//356 620//620
f 620//620 356//356 359//359
f 620//620 359//359 630//630
f 630//630 359//359 358//358
f 630//630 358//358 631//631
f 631//631 358//358 617//617
f 353//353 343//343 352//352
f 352//352 343//343 344//344
f 352//352 344//344 351//351
f 351//351 344//344 349//349
f 351//351 349//349 350//350
f 347//347 348//348 346//346
f 346//346 348//348 349//349
f 346//346 349//349 345//345
f 345//345 349//349 344//344
f 550//550 549//549 632//632
f 547//547 501//501 633//633
f 139//139 137//137 569//569
f 569//569 137//137 634//634
f 495//495 494//494 635//635
f 635//635 494//494 498//498
f 370//370 608//608 460//460
f 460//460 608//608 635//635
f 460//460 635//635 497//497
f 497//497 635//635 498//498
f 370//370 369//369 608//608
f 608//608 369//369 455//455
f 608//608 455//455 454//454
f 454//454 453//453 608//608
f 608//608 453//453 425//425
f 608//608 425//425 610//610
f 81//81 368//368 67//67
f 67//67 368//368 622//622
f 67//67 622//622 68//68
f 68//68 622//622 624//624
f 388//388 387//387 624//624
f 624//624 387//387 386//386
f 624//624 386//386 68//68
f 626//626 628//628 448//448
f 448//448 449//449 626//626
f 626//626 449//449 450//450
f 626//626 450//450 624//624
f 624//624 450//450 451//451
f 624//624 451//451 388//388
f 408//408 411//411 629//629
f 629//629 411//411 446//446
f 629//629 446//446 628//628
f 628//628 446//446 447//447
f 628//628 447//447 448//448
f 408//408 629//629 409//409
f 409//409 629//629 612//612
f 409//409 612//612 416//416
f 425//425 429//429 610//610
f 610//610 429//429 428//428
f 610//610 428//428 427//427
f 427//427 420//420 610//610
f 610//610 420//420 419//419
f 610//610 419//419 612//612
f 612//612 419//419 417//417
f 612//612 417//417 416//416
f 633//633 501//501 636//636
f 501//501 506//506 636//636
f 636//636 506//506 505//505
f 636//636 505//505 503//503
f 503//503 519//519 636//636
f 636//636 519//519 518//518
f 636//636 518//518 635//635
f 635//635 518//518 517//517
f 635//635 517//517 495//495
f 632//632 549//549 633//633
f 633//633 549//549 548//548
f 633//633 548//548 547//547
f 550//550 632//632 551//551
f 551//551 632//632 637//637
f 551//551 637//637 487//487
f 638//638 491//491 637//637
f 637//637 491//491 489//489
f 637//637 489//489 487//487
f 484//484 483//483 639//639
f 639//639 483//483 482//482
f 639//639 482//482 638//638
f 638//638 482//482 492//492
f 638//638 492//492 491//491
f 137//137 155//155 634//634
f 634//634 155//155 466//466
f 634//634 466//466 639//639
f 639//639 466//466 485//485
f 639//639 485//485 484//484
f 640//640 641//641 577//577
f 577//577 641//641 635//635
f 641//641 642//642 635//635
f 635//635 642//642 643//643
f 635//635 643//643 636//636
f 636//636 643//643 644//644
f 636//636 644//644 633//633
f 633//633 644//644 645//645
f 633//633 645//645 632//632
f 632//632 645//645 646//646
f 632//632 646//646 637//637
f 637//637 646//646 647//647
f 648//648 552//552 649//649
f 649//649 552//552 569//569
f 649//649 569//569 650//650
f 650//650 569//569 634//634
f 650//650 634//634 651//651
f 651//651 634//634 639//639
f 651//651 639//639 647//647
f 647//647 639//639 638//638
f 647//647 638//638 637//637
f 640//640 577//577 652//652
f 652//652 577//577 576//576
f 652//652 576//576 653//653
f 653//653 576//576 568//568
f 653//653 568//568 654//654
f 654//654 568//568 567//567
f 654//654 567//567 655//655
f 655//655 567//567 566//566
f 655//655 566//566 656//656
f 656//656 566//566 565//565
f 656//656 565//565 657//657
f 657//657 565//565 564//564
f 657//657 564//564 648//648
f 648//648 564//564 563//563
f 648//648 563//563 552//552
f 559//559 558//558 553//553
f 563//563 562//562 552//552
f 552//552 562//562 561//561
f 552//552 561//561 553//553
f 553//553 561//561 560//560
f 553//553 560//560 559//559
f 554//554 553//553 555//555
f 555//555 553//553 558//558
f 555//555 558//558 556//556
f 556//556 558//558 557//557
f 593//593 572//572 578//578
f 578//578 572//572 571//571
f 578//578 571//571 579//579
f 585//585 591//591 593//593
f 593//593 578//578 585//585
f 585//585 578//578 580//580
f 585//585 580//580 584//584
f 584//584 580//580 581//581
f 584//584 581//581 582//582
f 658//658 659//659 608//608
f 660//660 575//575 661//661
f 661//661 575//575 577//577
f 661//661 577//577 662//662
f 662//662 577//577 635//635
f 662//662 635//635 663//663
f 663//663 635//635 664//664
f 658//658 608//608 665//665
f 608//608 366//366 665//665
f 665//665 366//366 364//364
f 665//665 364//364 666//666
f 666//666 364//364 363//363
f 666//666 363//363 667//667
f 667//667 363//363 362//362
f 667//667 362//362 668//668
f 668//668 362//362 583//583
f 668//668 583//583 669//669
f 669//669 583//583 582//582
f 669//669 582//582 670//670
f 670//670 582//582 581//581
f 670//670 581//581 671//671
f 671//671 581//581 579//579
f 671//671 579//579 672//672
f 672//672 579//579 571//571
f 672//672 571//571 660//660
f 660//660 571//571 570//570
f 660//660 570//570 575//575
f 659//659 673//673 608//608
f 608//608 673//673 674//674
f 608//608 674//674 635//635
f 635//635 674//674 675//675
f 635//635 675//675 664//664
f 50//50 101//101 263//263
f 263//263 101//101 292//292
f 263//263 292//292 262//262
f 262//262 292//292 294//294
f 262//262 294//294 261//261
f 261//261 294//294 296//296
f 261//261 296//296 260//260
f 260//260 296//296 298//298
f 260//260 298//298 259//259
f 259//259 298//298 300//300
f 259//259 300//300 258//258
f 258//258 300//300 302//302
f 258//258 302//302 257//257
f 257//257 302//302 323//323
f 257//257 323//323 256//256
f 256//256 323//323 322//322
f 256//256 322//322 255//255
f 255//255 322//322 321//321
f 616//616 39//39 617//617
f 617//617 39//39 38//38
f 617//617 38//38 631//631
f 631//631 38//38 43//43
f 631//631 43//43 630//630
f 630//630 43//43 42//42
f 630//630 42//42 620//620
f 620//620 42//42 41//41
f 620//620 41//41 619//619
f 619//619 41//41 45//45
f 619//619 45//45 618//618
f 618//618 45//45 44//44
f 618//618 44//44 621//621
f 621//621 44//44 31//31
f 621//621 31//31 623//623
f 623//623 31//31 30//30
f 623//623 30//30 625//625
f 625//625 30//30 28//28
f 625//625 28//28 627//627
f 627//627 28//28 27//27
f 627//627 27//27 613//613
f 613//613 27//27 34//34
f 613//613 34//34 611//611
f 611//611 34//34 33//33
f 611//611 33//33 609//609
f 609//609 33//33 32//32
f 609//609 32//32 606//606
f 606//606 32//32 37//37
f 606//606 37//37 607//607
f 607//607 37//37 36//36
f 607//607 36//36 614//614
f 614//614 36//36 35//35
f 614//614 35//35 615//615
f 615//615 35//35 40//40
f 615//615 40//40 616//616
f 616//616 40//40 39//39
f 178//178 653//653 173//173
f 173//173 653//653 654//654
f 173//173 654//654 174//174
f 174//174 654//654 655//655
f 174//174 655//655 175//175
f 175//175 655//655 656//656
f 175//175 656//656 170//170
f 170//170 656//656 657//657
f 170//170 657//657 171//171
f 171//171 657//657 648//648
f 171//171 648//648 172//172
f 172//172 648//648 649//649
f 172//172 649//649 165//165
f 165//165 649//649 650//650
f 165//165 650//650 166//166
f 166//166 650//650 651//651
f 166//166 651//651 168//168
f 168//168 651//651 647//647
f 168//168 647//647 169//169
f 169//169 647//647 646//646
f 169//169 646//646 182//182
f 182//182 646//646 645//645
f 182//182 645//645 183//183
f 183//183 645//645 644//644
f 183//183 644//644 179//179
f 179//179 644//644 643//643
f 179//179 643//643 180//180
f 180//180 643//643 642//642
f 180//180 642//642 181//181
f 181//181 642//642 641//641
f 181//181 641//641 176//176
f 176//176 641//641 640//640
f 176//176 640//640 177//177
f 177//177 640//640 652//652
f 177//177 652//652 178//178
f 178//178 652//652 653//653
f 661//661 597//597 660//660
f 660//660 597//597 587//587
f 660//660 587//587 672//672
f 672//672 587//587 586//586
f 672//672 586//586 671//671
f 671//671 586//586 596//596
f 671//671 596//596 670//670
f 670//670 596//596 592//592
f 670//670 592//592 669//669
f 669//669 592//592 594//594
f 669//669 594//594 668//668
f 668//668 594//594 595//595
f 668//668 595//595 667//667
f 667//667 595//595 590//590
f 667//667 590//590 666//666
f 666//666 590//590 589//589
f 666//666 589//589 665//665
f 665//665 589//589 588//588
f 665//665 588//588 658//658
f 658//658 588//588 604//604
f 658//658 604//604 659//659
f 659//659 604//604 605//605
f 659//659 605//605 673//673
f 673//673 605//605 600//600
f 673//673 600//600 674//674
f 674//674 600//600 601//601
f 674//674 601//601 675//675
f 675//675 601//601 602//602
f 675//675 602//602 664//664
f 664//664 602//602 603//603
f 664//664 603//603 663//663
f 663//663 603//603 599//599
f 663//663 599//599 662//662
f 662//662 599//599 598//598
f 662//662 598//598 661//661
f 661//661 598//598 597//597

