# https://github.com/mikedh/trimesh

o left_finger5_link2.STL
v -0.00175000 0.00440000 -0.00000000
v -0.00151554 0.00080000 0.00087500
v -0.00151554 0.00440000 0.00087500
v -0.00087500 0.00080000 0.00151554
v -0.00087500 0.00440000 0.00151554
v 0.00000000 0.00080000 0.00175000
v 0.00000000 0.00440000 0.00175000
v 0.00087500 0.00080000 0.00151554
v 0.00087500 0.00440000 0.00151554
v 0.00151554 0.00080000 0.00087500
v 0.00151554 0.00440000 0.00087500
v 0.00175000 0.00080000 -0.00000000
v 0.00175000 0.00440000 -0.00000000
v 0.00151554 0.00080000 -0.00087500
v 0.00151554 0.00440000 -0.00087500
v 0.00087500 0.00080000 -0.00151554
v 0.00087500 0.00440000 -0.00151554
v -0.00000000 0.00080000 -0.00175000
v -0.00000000 0.00440000 -0.00175000
v -0.00087500 0.00080000 -0.00151554
v -0.00087500 0.00440000 -0.00151554
v -0.00151554 0.00080000 -0.00087500
v -0.00151554 0.00440000 -0.00087500
v -0.00175000 0.00080000 -0.00000000
v 0.00091177 0.01324402 -0.00528023
v -0.00000000 0.01330000 -0.00530796
v 0.00000000 0.01330000 0.02361769
v -0.00721167 0.00374055 0.00373163
v -0.00701740 0.00315381 0.00389505
v -0.00724444 0.00385886 0.02361769
v -0.00675842 0.00254827 0.00395000
v -0.00649519 0.00205000 0.02361769
v -0.00746959 0.00512532 0.00274830
v -0.00742863 0.00477187 0.00311033
v -0.00750000 0.00580000 0.02361769
v -0.00733725 0.00424870 0.00348861
v -0.00724536 0.00386238 0.00368272
v -0.00724444 0.00774114 0.02361769
v -0.00743584 0.00677895 0.00077759
v -0.00750000 0.00580000 0.00194425
v -0.00649519 0.00955000 0.02361769
v -0.00692910 0.00867013 -0.00147623
v -0.00724444 0.00774114 -0.00036911
v -0.00547990 0.01092038 -0.00405443
v -0.00583211 0.01051545 -0.00367995
v -0.00530330 0.01110330 0.02361769
v -0.00613730 0.01011087 -0.00319324
v -0.00649519 0.00955000 -0.00252482
v -0.00375079 0.01229551 -0.00483145
v -0.00445697 0.01183203 -0.00463051
v -0.00375000 0.01229519 0.02361769
v -0.00499078 0.01139824 -0.00440128
v -0.00530726 0.01109872 -0.00419528
v -0.00364973 0.01235291 -0.00485717
v -0.00194114 0.01304444 0.02361769
v -0.00279281 0.01276079 -0.00504568
v -0.00011964 0.01329904 -0.00530749
v -0.00098374 0.01323480 -0.00527567
v -0.00189689 0.01305495 -0.00518754
v 0.00354771 0.01240877 -0.00488239
v 0.00194114 0.01304444 0.02361769
v 0.00375098 0.01229541 -0.00483140
v 0.00375000 0.01229519 0.02361769
v 0.00431673 0.01193324 -0.00467340
v 0.00270281 0.01279606 -0.00506245
v 0.00194136 0.01304316 -0.00518181
v 0.00181508 0.01307585 -0.00519774
v 0.00530330 0.01110330 0.02361769
v 0.00499895 0.01139093 -0.00439670
v 0.00445697 0.01183203 -0.00463052
v 0.00584230 0.01050282 -0.00366682
v 0.00545223 0.01094979 -0.00407858
v 0.00530647 0.01109951 -0.00419587
v 0.00649519 0.00955000 0.02361769
v 0.00724444 0.00774114 0.02361769
v 0.00724444 0.00774114 -0.00036911
v 0.00692910 0.00867013 -0.00147623
v 0.00649519 0.00955000 -0.00252482
v 0.00613730 0.01011087 -0.00319325
v 0.00741564 0.00468290 0.00318600
v 0.00746959 0.00512532 0.00274830
v 0.00750000 0.00580000 0.02361769
v 0.00750000 0.00580000 0.00194425
v 0.00743584 0.00677895 0.00077759
v 0.00675842 0.00254827 0.00395000
v 0.00700473 0.00312041 0.00390099
v 0.00724444 0.00385886 0.02361769
v 0.00649519 0.00205000 0.00395000
v 0.00720180 0.00370632 0.00374440
v 0.00724562 0.00386333 0.00368231
v 0.00733726 0.00424876 0.00348857
v -0.00649519 0.00205000 0.00395000
v -0.00530330 0.00049670 0.00395000
v -0.00530330 0.00049670 0.02361769
v -0.00375000 -0.00069519 0.00395000
v -0.00375000 -0.00069519 0.02361769
v -0.00194114 -0.00144444 0.00395000
v -0.00194114 -0.00144444 0.02361769
v 0.00000000 -0.00170000 0.00395000
v 0.00000000 -0.00170000 0.02361769
v 0.00194114 -0.00144444 0.00395000
v 0.00194114 -0.00144444 0.02361769
v 0.00375000 -0.00069519 0.00395000
v 0.00375000 -0.00069519 0.02361769
v 0.00530330 0.00049670 0.00395000
v 0.00530330 0.00049670 0.02361769
v 0.00649519 0.00205000 0.02361769
v -0.00384785 0.00440000 -0.00267310
v -0.00445697 0.00645000 -0.00463051
v -0.00247751 0.00645000 -0.00510195
v -0.00213892 0.00440000 -0.00308010
v -0.00000000 0.00645000 -0.00530796
v -0.00000000 0.00440000 -0.00325797
v 0.00247751 0.00645000 -0.00510195
v 0.00213892 0.00440000 -0.00308010
v 0.00445697 0.00645000 -0.00463052
v 0.00384785 0.00440000 -0.00267310
v 0.00194114 0.01304444 0.03361769
v 0.00375000 0.01229519 0.03361769
v 0.00530330 0.01110330 0.03361769
v 0.00649519 0.00955000 0.03361769
v 0.00724444 0.00774114 0.03361769
v 0.00750000 0.00580000 0.03361769
v 0.00724444 0.00385886 0.03361769
v 0.00649519 0.00205000 0.03361769
v 0.00530330 0.00049670 0.03361769
v 0.00375000 -0.00069519 0.03361769
v 0.00194114 -0.00144444 0.03361769
v 0.00000000 -0.00170000 0.03361769
v -0.00194114 -0.00144444 0.03361769
v -0.00375000 -0.00069519 0.03361769
v -0.00530330 0.00049670 0.03361769
v -0.00649519 0.00205000 0.03361769
v -0.00724444 0.00385886 0.03361769
v -0.00750000 0.00580000 0.03361769
v -0.00724444 0.00774114 0.03361769
v -0.00649519 0.00955000 0.03361769
v -0.00530330 0.01110330 0.03361769
v -0.00375000 0.01229519 0.03361769
v -0.00194114 0.01304444 0.03361769
v 0.00000000 0.01330000 0.03361769
v -0.00356053 -0.00080096 0.03696802
v -0.00356053 -0.00080096 0.03803121
v -0.00374955 -0.00069553 0.03813942
v -0.00485761 0.00008537 0.03878686
v -0.00530181 0.00049481 0.03904127
v -0.00545113 0.01095098 0.04245057
v -0.00530196 0.01110413 0.04243116
v -0.00194114 0.01304444 0.04134889
v -0.00141938 0.01316446 0.04134889
v -0.00281153 0.01275337 0.04076404
v -0.00275187 0.01277690 0.04045822
v -0.00297956 0.01268271 0.04106458
v -0.00325757 0.01255561 0.04110747
v -0.00275187 0.01277690 0.04134889
v -0.00511890 0.01128098 0.04239349
v -0.00498620 0.01140238 0.04235770
v -0.00443689 0.01184577 0.04214836
v -0.00404526 0.01211519 0.04194418
v -0.00385938 0.01223075 0.04183134
v -0.00374565 0.01229779 0.04175672
v -0.00333497 0.01251756 0.04144288
v -0.00649519 0.00955000 0.04204330
v -0.00643501 0.00965235 0.04211279
v -0.00617542 0.01005538 0.04232389
v -0.00585592 0.01048556 0.04243701
v -0.00749902 0.00577395 0.03975150
v -0.00747465 0.00640536 0.03997720
v -0.00740416 0.00699514 0.04030855
v -0.00724552 0.00773712 0.04081237
v -0.00692910 0.00867013 0.04144588
v -0.00724462 0.00385989 0.03970543
v -0.00730281 0.00409151 0.03967194
v -0.00739192 0.00453406 0.03962341
v -0.00747539 0.00520587 0.03964398
v -0.00680534 0.00265038 0.03972009
v -0.00709419 0.00336831 0.03974359
v -0.00596842 0.00125849 0.03939653
v -0.00643154 0.00194353 0.03960364
v -0.00649383 0.00204955 0.03962719
v -0.00547702 0.00067594 0.03913867
v -0.00194114 -0.00144444 0.03696802
v -0.00419277 -0.00041898 0.03839718
v 0.00000000 -0.00170000 0.03696802
v 0.00356408 -0.00079904 0.03696802
v 0.00194114 -0.00144444 0.03696802
v 0.00356408 -0.00079904 0.03803121
v 0.00374943 -0.00069572 0.03813722
v 0.00439320 -0.00028113 0.03851125
v 0.00513199 0.00032740 0.03894155
v 0.00649339 0.00204826 0.03962618
v 0.00624467 0.00164667 0.03952484
v 0.00576423 0.00100098 0.03929113
v 0.00530306 0.00049364 0.03903900
v 0.00667954 0.00239120 0.03968783
v 0.00700741 0.00312900 0.03974615
v 0.00742644 0.00475774 0.03961769
v 0.00748942 0.00542066 0.03967397
v 0.00730373 0.00409543 0.03967194
v 0.00724662 0.00386733 0.03970499
v 0.00740352 0.00699911 0.04030855
v 0.00745163 0.00664621 0.04009463
v 0.00749411 0.00606914 0.03984076
v 0.00749906 0.00580356 0.03975838
v 0.00692910 0.00867013 0.04144336
v 0.00724444 0.00774114 0.04081246
v 0.00530199 0.01110377 0.04243169
v 0.00549627 0.01090281 0.04245439
v 0.00586488 0.01047425 0.04243483
v 0.00616668 0.01006796 0.04232745
v 0.00643294 0.00965581 0.04211279
v 0.00649576 0.00954901 0.04204026
v 0.00374526 0.01229790 0.04175894
v 0.00394890 0.01217625 0.04188891
v 0.00455511 0.01175803 0.04220213
v 0.00507019 0.01132563 0.04238207
v 0.00325557 0.01255657 0.04110858
v 0.00345201 0.01245759 0.04154491
v 0.00306743 0.01264404 0.04117909
v 0.00284754 0.01273878 0.04085436
v 0.00275231 0.01277681 0.04053744
v 0.00274813 0.01277838 0.04045822
v 0.00274813 0.01277838 0.04134889
v 0.00194114 0.01304444 0.04134889
v 0.00141938 0.01316446 0.04134889
v 0.00000000 0.01330000 0.04134889
v -0.00275012 0.00624926 0.04361769
v 0.00274988 0.00625074 0.04361769
v -0.00275007 0.00604830 0.04436769
v 0.00274993 0.00604978 0.04436769
v -0.00274992 0.00549926 0.04491673
v 0.00275008 0.00550074 0.04491673
v -0.00274972 0.00474926 0.04511769
v 0.00275028 0.00475074 0.04511769
v -0.00274952 0.00399926 0.04491673
v 0.00275048 0.00400074 0.04491673
v -0.00274937 0.00345022 0.04436769
v 0.00275063 0.00345170 0.04436769
v -0.00274931 0.00324926 0.04361769
v 0.00275069 0.00325074 0.04361769
v -0.00274937 0.00345022 0.04286769
v 0.00275063 0.00345170 0.04286769
v -0.00274952 0.00399926 0.04231865
v 0.00275048 0.00400074 0.04231865
v -0.00274972 0.00474926 0.04211769
v 0.00275028 0.00475074 0.04211769
v -0.00274992 0.00549926 0.04231865
v 0.00275008 0.00550074 0.04231865
v -0.00275007 0.00604830 0.04286769
v 0.00274993 0.00604978 0.04286769
v -0.00275106 0.00975285 0.04709837
v -0.00275118 0.01018741 0.04677397
v -0.00274978 0.00499266 0.04827974
v -0.00275005 0.00597158 0.04832439
v -0.00274846 0.00008651 0.04535537
v -0.00274882 0.00142223 0.04678294
v -0.00275147 0.01127906 0.04239415
v -0.00275174 0.01228764 0.04391566
v -0.00275170 0.01211580 0.04194393
v -0.00275184 0.01265397 0.04265290
v -0.00275135 0.01083105 0.04618299
v -0.00275143 0.01112357 0.04585878
v -0.00275031 0.00694709 0.04823146
v -0.00275056 0.00789997 0.04800279
v -0.00275104 0.00966344 0.04715883
v -0.00274826 -0.00068846 0.04391734
v -0.00274823 -0.00080074 0.04361328
v -0.00274823 -0.00080074 0.03803121
v -0.00274847 0.00012035 0.03881020
v -0.00275009 0.00614121 0.03986769
v -0.00275158 0.01167830 0.04510712
v -0.00275171 0.01216572 0.04420469
v -0.00274902 0.00216295 0.04730411
v -0.00274927 0.00310156 0.04778393
v -0.00274952 0.00402966 0.04809840
v -0.00274980 0.00505391 0.03962931
v -0.00274954 0.00409273 0.03967194
v -0.00274922 0.00288824 0.03973824
v -0.00274883 0.00144159 0.03946121
v -0.00275122 0.01032897 0.04240742
v -0.00275103 0.00965334 0.04211279
v -0.00275032 0.00699639 0.04030855
v -0.00275185 0.01269083 0.04244145
v -0.00275186 0.01270809 0.04232640
v -0.00275184 0.01265034 0.04115837
v 0.00275177 -0.00079926 0.03803121
v -0.00197460 -0.00080053 0.04431265
v -0.00103158 -0.00080028 0.04475801
v 0.00000000 -0.00080000 0.04491118
v 0.00275177 -0.00079926 0.04361328
v 0.00197716 -0.00079947 0.04431330
v 0.00103287 -0.00079972 0.04475869
v 0.00275067 0.00329085 0.04785948
v 0.00275095 0.00228081 0.04737363
v 0.00275096 0.00222814 0.04734254
v 0.00275137 0.00070560 0.04611617
v 0.00275145 0.00039139 0.04575643
v 0.00275158 -0.00007803 0.04510755
v 0.00274969 0.00694857 0.04823146
v 0.00274995 0.00597305 0.04832439
v 0.00275046 0.00409421 0.03967194
v 0.00275167 -0.00041695 0.04451555
v 0.00274944 0.00790144 0.04800279
v 0.00274919 0.00881289 0.04764288
v 0.00275153 0.00012182 0.03881020
v 0.00275117 0.00144307 0.03946121
v 0.00275078 0.00288971 0.03973824
v 0.00275022 0.00499414 0.04827974
v 0.00275048 0.00403114 0.04809840
v 0.00275065 0.00336644 0.04788812
v 0.00274820 0.01250449 0.04328463
v 0.00274841 0.01170434 0.04506841
v 0.00274865 0.01083519 0.04618021
v 0.00274875 0.01044074 0.04656020
v 0.00274830 0.01211728 0.04194393
v 0.00274816 0.01265182 0.04115837
v 0.00275020 0.00505539 0.03962931
v 0.00274991 0.00614269 0.03986769
v 0.00274968 0.00699786 0.04030855
v 0.00274897 0.00965482 0.04211279
v 0.00274878 0.01033045 0.04240742
v 0.00274853 0.01128054 0.04239415
v 0.00193861 0.00412018 0.04839657
v 0.00158567 0.00378366 0.04839657
v 0.00231809 0.00285230 0.04784407
v -0.00256224 0.00592205 0.04839657
v -0.00130088 0.00586197 0.04873494
v -0.00126565 0.00610704 0.04873494
v 0.00072269 0.00333876 0.04839657
v 0.00036692 0.00455039 0.04873494
v 0.00012380 0.00450354 0.04873494
v 0.00177016 0.00765648 0.04839657
v 0.00089873 0.00674256 0.04873494
v 0.00106087 0.00655544 0.04873494
v 0.00000000 0.00580000 0.04884888
v -0.00106087 0.00655544 0.04873494
v -0.00118467 0.00634102 0.04873494
v -0.00089873 0.00674256 0.04873494
v -0.00070411 0.00689561 0.04873494
v -0.00128910 0.00561465 0.04873494
v -0.00123073 0.00537404 0.04873494
v 0.00059678 0.00464242 0.04873494
v 0.00080507 0.00477628 0.04873494
v 0.00098426 0.00494714 0.04873494
v 0.00126565 0.00610704 0.04873494
v 0.00118467 0.00634102 0.04873494
v -0.00231809 0.00285230 0.04784407
v 0.00260638 0.00985560 0.04709421
v 0.00139782 0.01305258 0.04265125
v 0.00249186 0.01269814 0.04291616
v 0.00261936 0.01234285 0.04391404
v 0.00241402 0.01182992 0.04509889
v 0.00213532 0.01113378 0.04616979
v 0.00061741 -0.00066578 0.04509889
v 0.00000000 -0.00069519 0.04509889
v -0.00182990 -0.00043209 0.04509889
v -0.00222148 0.00451743 0.04839657
v -0.00249284 0.00640476 0.04839657
v -0.00177015 0.00765648 0.04839657
v -0.00208951 0.00728793 0.04839657
v -0.00233334 0.00686560 0.04839657
v -0.00274512 0.01265698 0.04265125
v -0.00261936 0.01234285 0.04391404
v -0.00241402 0.01182992 0.04509889
v -0.00213532 0.01113378 0.04616979
v -0.00139782 0.01305258 0.04265125
v 0.00233334 0.00686560 0.04839657
v 0.00208951 0.00728793 0.04839657
v 0.00249284 0.00640476 0.04839657
v 0.00130089 0.00586197 0.04873494
v 0.00128910 0.00561465 0.04873494
v 0.00256224 0.00592205 0.04839657
v 0.00253904 0.00543494 0.04839657
v 0.00242407 0.00496102 0.04839657
v 0.00112788 0.00514882 0.04873494
v 0.00222148 0.00451743 0.04839657
v 0.00123073 0.00537404 0.04873494
v 0.00117542 0.00352000 0.04839657
v 0.00171835 0.00246687 0.04784407
v -0.00112788 0.00514882 0.04873494
v -0.00098426 0.00494714 0.04873494
v -0.00193861 0.00412018 0.04839657
v -0.00158567 0.00378366 0.04839657
v -0.00242407 0.00496102 0.04839657
v -0.00253904 0.00543494 0.04839657
v 0.00048404 0.00700907 0.04873494
v 0.00070411 0.00689561 0.04873494
v 0.00095337 0.00818140 0.04839657
v 0.00138682 0.00795794 0.04839657
v 0.00139373 0.00928138 0.04784407
v 0.00202740 0.00895470 0.04784407
v 0.00179175 0.01027557 0.04709421
v 0.00258779 0.00851400 0.04784407
v -0.00260638 0.00985560 0.04709421
v -0.00202740 0.00895470 0.04784407
v -0.00258779 0.00851400 0.04784407
v -0.00138682 0.00795794 0.04839657
v 0.00263266 0.00069335 0.04616979
v 0.00220907 0.00151501 0.04709421
v 0.00135821 0.00117438 0.04709421
v 0.00105650 0.00220190 0.04784407
v 0.00035646 0.00206698 0.04784407
v 0.00024383 0.00324647 0.04839657
v 0.00000000 0.00323485 0.04839657
v 0.00000000 0.00449764 0.04873494
v -0.00012380 0.00450354 0.04873494
v -0.00179175 0.01027557 0.04709421
v -0.00139373 0.00928138 0.04784407
v -0.00095337 0.00818140 0.04839657
v -0.00048404 0.00700907 0.04873494
v 0.00161865 0.00028740 0.04616979
v 0.00045826 0.00100093 0.04709421
v 0.00000000 0.00205000 0.04784407
v -0.00024383 0.00324647 0.04839657
v -0.00036692 0.00455039 0.04873494
v 0.00182991 -0.00043209 0.04509889
v 0.00054613 0.00008069 0.04616979
v 0.00000000 0.00097910 0.04709421
v -0.00035646 0.00206698 0.04784407
v -0.00072269 0.00333876 0.04839657
v -0.00059678 0.00464242 0.04873494
v -0.00135820 0.00117438 0.04709421
v -0.00161865 0.00028740 0.04616979
v -0.00054613 0.00008069 0.04616979
v -0.00061741 -0.00066578 0.04509889
v -0.00263266 0.00069335 0.04616979
v -0.00220907 0.00151501 0.04709421
v -0.00171835 0.00246687 0.04784407
v 0.00000000 0.00005467 0.04616979
v -0.00045826 0.00100093 0.04709421
v -0.00105650 0.00220190 0.04784407
v -0.00117542 0.00352000 0.04839657
v -0.00080506 0.00477628 0.04873494
v 0.00000000 0.00710236 0.04873494
v 0.00024647 0.00707882 0.04873494
v 0.00000000 0.00836515 0.04839657
v 0.00048546 0.00831879 0.04839657
v 0.00000000 0.00955000 0.04784407
v 0.00070969 0.00948223 0.04784407
v 0.00000000 0.01062090 0.04709421
v 0.00091236 0.01053378 0.04709421
v 0.00000000 0.01154533 0.04616979
v 0.00108731 0.01144150 0.04616979
v 0.00000000 0.01229519 0.04509889
v 0.00122922 0.01217781 0.04509889
v 0.00000000 0.01284769 0.04391404
v 0.00133378 0.01272033 0.04391404
v 0.00000000 0.01318606 0.04265125
v -0.00024647 0.00707882 0.04873494
v -0.00048546 0.00831879 0.04839657
v -0.00070969 0.00948223 0.04784407
v -0.00091236 0.01053378 0.04709421
v -0.00108731 0.01144150 0.04616979
v -0.00122922 0.01217781 0.04509889
v -0.00133378 0.01272033 0.04391404
v -0.00642500 0.00645000 -0.00105000
v -0.00642500 0.00645000 -0.00195697
v -0.00437500 0.00440000 -0.00105000
v -0.00437500 0.00440000 -0.00195697
v -0.00642500 0.00440000 0.00247172
v -0.00642500 0.00586189 0.00059265
v -0.00534597 0.00440000 0.00158098
v -0.00642500 0.00630634 -0.00027844
v -0.00462549 0.00440000 0.00035222
v -0.00642500 0.00637685 -0.00050415
v 0.00642500 0.00440000 0.00247172
v 0.00534597 0.00440000 0.00158098
v 0.00642500 0.00549633 0.00112352
v 0.00642500 0.00576216 0.00074568
v 0.00642500 0.00625493 -0.00014538
v 0.00462549 0.00440000 0.00035222
v 0.00642500 0.00631258 -0.00029596
v 0.00437500 0.00440000 -0.00105000
v 0.00642500 0.00645000 -0.00105000
v 0.00642500 0.00645000 -0.00195697
v 0.00437500 0.00440000 -0.00195697
v 0.00422900 0.00440000 -0.00240158
v 0.00434463 0.00440000 -0.00216824
v 0.00404055 0.00440000 -0.00258133
v -0.00404055 0.00440000 -0.00258133
v 0.00642500 0.00440000 0.00279124
v -0.00422900 0.00440000 -0.00240158
v -0.00434463 0.00440000 -0.00216824
v -0.00642500 0.00440000 0.00279124
v 0.00517638 0.00645000 -0.00428790
v 0.00587994 0.00645000 -0.00361686
v 0.00631162 0.00645000 -0.00274569
v -0.00631162 0.00645000 -0.00274569
v -0.00587994 0.00645000 -0.00361686
v -0.00517637 0.00645000 -0.00428790
v -0.00642500 0.00409564 0.00350963
v -0.00642500 0.00376028 0.00372409
v -0.00642500 0.00443756 0.00336938
v -0.00642500 0.00907351 -0.00195697
v -0.00642500 0.00512532 0.00274830
v -0.00642500 0.00432077 0.00318134
v 0.00642500 0.00376028 0.00372409
v 0.00642500 0.00409564 0.00350963
v 0.00642500 0.00432077 0.00318134
v 0.00642500 0.00907351 -0.00195697
v 0.00642500 0.00443756 0.00336938
v 0.00642500 0.00512532 0.00274830
v 0.00631162 0.00973533 -0.00274569
v -0.00631162 0.00973533 -0.00274569
v -0.00000000 0.00080000 -0.00000000
v -0.00151178 0.00829578 0.03901769
v -0.00150066 0.00824997 0.03901769
v -0.00151178 0.00829578 0.03706769
v -0.00150066 0.00824997 0.03706769
v -0.00198855 0.00839737 0.03706769
v -0.00209871 0.00917047 0.03706769
v -0.00168818 0.00886762 0.03706769
v -0.00150054 0.00779960 0.03706769
v -0.00160354 0.00771798 0.03706769
v -0.00168818 0.00886762 0.03901769
v -0.00209871 0.00917047 0.03561769
v -0.00198855 0.00839737 0.03561769
v -0.00150149 0.00868854 0.03561769
v -0.00160354 0.00771798 0.03561769
v -0.00104702 0.00807019 0.03561769
v -0.00150054 0.00779960 0.03901769
v -0.00150149 0.00868854 0.03901769
v -0.00104737 0.00807079 0.03901769
v -0.00104716 0.00807050 0.04058992
v -0.00104702 0.00807019 0.04601910
v -0.00082177 0.00755199 0.04011877
v -0.00103540 0.00804896 0.04604978
v -0.00076243 0.00734457 0.03996430
v -0.00102378 0.00802732 0.04608000
v -0.00100059 0.00798276 0.04613910
v -0.00093116 0.00783662 0.04631606
v -0.00076243 0.00734457 0.04679214
v -0.00063425 0.00740148 0.04674479
v -0.00063430 0.00740146 0.03988079
v -0.00050057 0.00744816 0.04670463
v -0.00050057 0.00744816 0.03979049
v -0.00055397 0.00772816 0.03998955
v -0.00097208 0.00807304 0.04053004
v -0.00061264 0.00784374 0.04010434
v -0.00070336 0.00795251 0.04024172
v -0.00078762 0.00801519 0.04034673
v -0.00090545 0.00806274 0.04046994
v -0.00115880 0.00804201 0.03901769
v -0.00133595 0.00791311 0.03901769
v -0.00119673 0.00799496 0.04605718
v -0.00132266 0.00792145 0.04602588
v -0.00133595 0.00791311 0.04601769
v -0.00100061 0.00807388 0.04601769
v -0.00117082 0.00803676 0.04601792
v -0.00106607 0.00806802 0.04601843
v -0.00087926 0.00805555 0.04604292
v -0.00078586 0.00801400 0.04609860
v -0.00073746 0.00798133 0.04614102
v -0.00061021 0.00783982 0.04631249
v -0.00058207 0.00779067 0.04636785
v -0.00050287 0.00749895 0.04665948
vn -0.63772777 -0.77026183 0.00000004
vn -0.65572183 -0.65322683 0.37858103
vn -0.55228862 -0.77026172 0.31886386
vn -0.37858114 -0.65322666 0.65572193
vn -0.31886375 -0.77026196 0.55228835
vn -0.00000000 -0.65322690 0.75716221
vn -0.00000000 -0.77026162 0.63772802
vn 0.37858114 -0.65322665 0.65572194
vn 0.31886375 -0.77026196 0.55228835
vn 0.65572189 -0.65322681 0.37858096
vn 0.55228863 -0.77026175 0.31886378
vn 0.75716233 -0.65322677 -0.00000005
vn 0.63772781 -0.77026180 -0.00000004
vn 0.65572151 -0.65322655 -0.37858206
vn 0.55228777 -0.77026211 -0.31886440
vn 0.37858121 -0.65322729 -0.65572126
vn 0.31886457 -0.77026109 -0.55228910
vn -0.00000001 -0.65322616 -0.75716285
vn -0.00000001 -0.77026263 -0.63772680
vn -0.37858119 -0.65322730 -0.65572126
vn -0.31886456 -0.77026107 -0.55228912
vn -0.65572150 -0.65322654 -0.37858210
vn -0.55228775 -0.77026212 -0.31886442
vn -0.75716235 -0.65322675 0.00000004
vn 0.12848997 0.70529495 -0.69717240
vn 0.02782149 0.71056739 -0.70307891
vn 0.00035716 0.99999978 0.00056097
vn -0.66503933 -0.41556247 -0.62050827
vn -0.66805179 -0.38152436 -0.63886303
vn -0.96595099 -0.25872247 0.00117167
vn -0.64815973 -0.34706775 -0.67781483
vn -0.86581269 -0.50036781 0.00066102
vn -0.70429843 -0.54631670 -0.45332306
vn -0.70025792 -0.52187094 -0.48712378
vn -0.99999926 -0.00012122 0.00120707
vn -0.69011343 -0.46736288 -0.55255353
vn -0.67003244 -0.44612377 -0.59332126
vn -0.96591461 0.25885754 0.00131767
vn -0.75507717 -0.44569975 -0.48084321
vn -0.72557036 -0.51468185 -0.45678249
vn -0.86599210 0.50005633 0.00116092
vn -0.78654215 -0.29077742 -0.54479348
vn -0.77581628 -0.37059596 -0.51065422
vn -0.80799346 0.38795485 -0.44343839
vn -0.85929622 0.34548704 -0.37715874
vn -0.70704084 0.70717211 0.00092293
vn -0.91368377 0.30446563 -0.26922601
vn -0.78492602 -0.21878970 -0.57967422
vn -0.51483779 0.56856263 -0.64162184
vn -0.57860059 0.52564777 -0.62363113
vn -0.49985693 0.86610783 0.00052422
vn -0.67852726 0.46715458 -0.56689272
vn -0.75841278 0.42337110 -0.49554714
vn -0.46163636 0.60203751 -0.65149268
vn -0.25907669 0.96585651 0.00069154
vn -0.37519181 0.64515753 -0.66558461
vn -0.04310123 0.70984467 -0.70303829
vn -0.13952946 0.70294106 -0.69742770
vn -0.25618738 0.68018112 -0.68681997
vn 0.45408904 0.60756036 -0.65166982
vn 0.25880815 0.96592874 0.00002090
vn 0.50700190 0.57524218 -0.64190771
vn 0.49979143 0.86614570 0.00039162
vn 0.54799001 0.54693958 -0.63290130
vn 0.36768299 0.64738173 -0.66761225
vn 0.28274052 0.66968735 -0.68671439
vn 0.22696796 0.68401525 -0.69325947
vn 0.70727825 0.70693514 0.00041713
vn 0.67945253 0.46666778 -0.56618499
vn 0.59946202 0.51239988 -0.61489157
vn 0.85979526 0.34859454 -0.37314067
vn 0.80478394 0.39103957 -0.44655443
vn 0.75799652 0.42405377 -0.49560032
vn 0.86602472 0.50000118 0.00003336
vn 0.96592537 0.25882075 0.00004053
vn 0.77766923 -0.36772296 -0.50991214
vn 0.78693829 -0.29113156 -0.54403175
vn 0.78639134 -0.21505414 -0.57908581
vn 0.91316948 0.30702200 -0.26806526
vn 0.69919344 -0.51699806 -0.49380314
vn 0.70647802 -0.54174462 -0.45541363
vn 1.00000000 0.00000757 0.00006680
vn 0.72817321 -0.51194245 -0.45571779
vn 0.75533889 -0.44606620 -0.48009177
vn 0.64803077 -0.34827283 -0.67731983
vn 0.66694731 -0.37909022 -0.64146075
vn 0.96592542 -0.25882054 0.00007020
vn 0.61276122 -0.39044575 -0.68707773
vn 0.66530321 -0.41337449 -0.62168575
vn 0.67391347 -0.44302615 -0.59124315
vn 0.68814292 -0.46732000 -0.55504174
vn -0.61035535 -0.39144237 -0.68865028
vn -0.51919632 -0.51919625 -0.67887438
vn -0.70710680 -0.70710676 0.00000002
vn -0.36712726 -0.63588297 -0.67887438
vn -0.50000000 -0.86602540 0.00000001
vn -0.19003903 -0.70923498 -0.67887474
vn -0.25881906 -0.96592582 0.00000000
vn -0.00000002 -0.73425431 -0.67887452
vn -0.00000000 -1.00000000 -0.00000000
vn 0.19003902 -0.70923525 -0.67887446
vn 0.25881906 -0.96592582 -0.00000000
vn 0.36712723 -0.63588292 -0.67887444
vn 0.50000009 -0.86602535 -0.00000000
vn 0.51919624 -0.51919624 -0.67887446
vn 0.70710681 -0.70710675 -0.00000001
vn 0.86602537 -0.50000005 -0.00000002
vn -0.13523897 -0.91460914 -0.38105189
vn -0.30708986 -0.37475227 -0.87478943
vn -0.14701697 -0.37789642 -0.91410082
vn -0.06269259 -0.91731871 -0.39318701
vn 0.00004735 -0.37820368 -0.92572241
vn -0.00000016 -0.91665962 -0.39966880
vn 0.14669265 -0.37807982 -0.91407708
vn 0.06269272 -0.91731877 -0.39318686
vn 0.30734135 -0.37511009 -0.87454772
vn 0.13523878 -0.91460921 -0.38105178
vn 0.25841810 0.96602598 -0.00372624
vn 0.50127498 0.86528541 -0.00213250
vn 0.70690838 0.70730446 -0.00096631
vn 0.86551386 0.50087948 -0.00234528
vn 0.96605520 0.25831540 -0.00324051
vn 0.99999629 0.00027569 -0.00271136
vn 0.96592320 -0.25880746 -0.00332613
vn 0.86631568 -0.49948110 -0.00397079
vn 0.70736876 -0.70682487 -0.00529586
vn 0.49925030 -0.86644495 -0.00471975
vn 0.25776948 -0.96620558 -0.00129519
vn -0.00000000 -1.00000000 -0.00000000
vn -0.25881905 -0.96592582 0.00000000
vn -0.50010955 -0.86596191 -0.00063019
vn -0.70724415 -0.70696875 -0.00094746
vn -0.86534310 -0.50117174 -0.00286505
vn -0.96590063 -0.25887466 -0.00445999
vn -0.99999649 0.00164576 -0.00207797
vn -0.96592717 0.25881369 -0.00042314
vn -0.86600873 0.50002877 -0.00033025
vn -0.70731009 0.70690269 -0.00100860
vn -0.50069749 0.86561968 -0.00214327
vn -0.25875625 0.96593712 -0.00326974
vn -0.00000000 0.99999570 -0.00293367
vn -0.34137177 -0.93806172 0.05920740
vn -0.18046985 -0.93215039 0.31388897
vn -0.29379256 -0.86127269 0.41460256
vn -0.38830404 -0.77899961 0.49232060
vn -0.43546013 -0.72353680 0.53560150
vn -0.50626939 0.48088074 0.71585265
vn -0.45565773 0.56400978 0.68867191
vn -0.26664011 0.96278124 0.04421912
vn -0.15985244 0.98619264 0.04325834
vn 0.03302293 0.99424106 0.10195195
vn -0.36551124 0.93080624 -0.00113195
vn -0.19895147 0.96430438 0.17474374
vn -0.43836212 0.89879685 -0.00169523
vn -0.80418847 0.59400197 0.02103691
vn -0.43698516 0.60290933 0.66749105
vn -0.41167086 0.67992074 0.60682360
vn -0.34706011 0.76452064 0.54319193
vn -0.30420950 0.82293514 0.47982740
vn -0.29554667 0.87175138 0.39077064
vn -0.25970171 0.89426426 0.36448108
vn -0.21481995 0.92494813 0.31356554
vn -0.73324772 -0.04439789 0.67851058
vn -0.70843488 -0.00079405 0.70577574
vn -0.64908949 0.13323080 0.74895419
vn -0.57607289 0.31006545 0.75630645
vn -0.73936800 -0.16527330 0.65270184
vn -0.75089592 -0.22031339 0.62258921
vn -0.74983683 -0.24184446 0.61583762
vn -0.75231843 -0.19745244 0.62851373
vn -0.74776528 -0.11777766 0.65343363
vn -0.68981684 -0.11055614 0.71549288
vn -0.70809867 -0.07356879 0.70227054
vn -0.72501367 -0.09464524 0.68220045
vn -0.72966887 -0.13755507 0.66982232
vn -0.63378404 -0.34170004 0.69394443
vn -0.66894760 -0.21269413 0.71222912
vn -0.52073963 -0.59983170 0.60748019
vn -0.56119833 -0.50860892 0.65297274
vn -0.59067598 -0.44653336 0.67209362
vn -0.46751163 -0.68676269 0.55658772
vn -0.18651767 -0.70969803 0.67936725
vn -0.33112734 -0.83667430 0.43626919
vn 0.00000000 -0.73425441 0.67887441
vn 0.34266705 -0.93749158 0.06073580
vn 0.18465719 -0.70925198 0.68034062
vn 0.17003807 -0.92363877 0.34347995
vn 0.27891122 -0.86140492 0.42448805
vn 0.35229706 -0.81625706 0.45783316
vn 0.39933024 -0.75153578 0.52509936
vn 0.57788300 -0.47178879 0.66593286
vn 0.54325382 -0.54285177 0.64045862
vn 0.49672356 -0.63796542 0.58844356
vn 0.43703281 -0.70986887 0.55234817
vn 0.62115861 -0.38148404 0.68456695
vn 0.65965525 -0.25040255 0.70862791
vn 0.73278149 -0.10289737 0.67263915
vn 0.72818120 -0.15076134 0.66859790
vn 0.71354787 -0.08216075 0.69577226
vn 0.68700787 -0.12225681 0.71629146
vn 0.74532548 -0.25476057 0.61610631
vn 0.74615618 -0.23814173 0.62172299
vn 0.73531281 -0.19744355 0.64832948
vn 0.72266154 -0.17554575 0.66853870
vn 0.74584959 -0.11616710 0.65590669
vn 0.74904169 -0.20396614 0.63034464
vn 0.46659272 0.55589003 0.68795168
vn 0.51205755 0.47018962 0.71883154
vn 0.58271975 0.31867837 0.74758397
vn 0.65399976 0.13159166 0.74496171
vn 0.70312694 0.00253278 0.71105983
vn 0.73021421 -0.05630302 0.68089440
vn 0.27563620 0.88882406 0.36608261
vn 0.31395422 0.84177817 0.43913808
vn 0.36600735 0.74522048 0.55739130
vn 0.42981914 0.64540846 0.63142967
vn 0.43964913 0.89816922 -0.00083110
vn 0.22974342 0.91876349 0.32107883
vn 0.20346634 0.95263429 0.22602955
vn 0.09184583 0.98904860 0.11553017
vn -0.40530546 0.91283321 0.04962886
vn 0.36010436 0.93291138 -0.00109523
vn 0.80086219 0.59794877 0.03281809
vn 0.27039396 0.96150874 0.04886757
vn 0.15985244 0.98619264 0.04325833
vn -0.00000000 0.99905319 0.04350546
vn -0.77009045 -0.63793471 -0.00000039
vn 0.77043320 -0.63752074 -0.00000037
vn -0.77011302 -0.55249609 -0.31886362
vn 0.77040966 -0.55208228 -0.31886378
vn -0.77017664 -0.31907073 -0.55228780
vn 0.77034791 -0.31865707 -0.55228776
vn -0.77026142 -0.00020694 -0.63772823
vn 0.77026140 0.00020702 -0.63772826
vn -0.77034790 0.31865696 -0.55228783
vn 0.77017660 0.31907081 -0.55228781
vn -0.77040972 0.55208227 -0.31886365
vn 0.77011302 0.55249601 -0.31886375
vn -0.77043312 0.63752083 -0.00000040
vn 0.77009054 0.63793460 -0.00000041
vn -0.77041030 0.55208131 0.31886393
vn 0.77011362 0.55249505 0.31886398
vn -0.77034746 0.31865634 0.55228881
vn 0.77017617 0.31907011 0.55228881
vn -0.77026146 -0.00020703 0.63772818
vn 0.77026140 0.00020701 0.63772826
vn -0.77017611 -0.31907004 0.55228893
vn 0.77034748 -0.31865638 0.55228876
vn -0.77011364 -0.55249501 0.31886398
vn 0.77041026 -0.55208132 0.31886399
vn -0.82016351 0.32778727 0.46892144
vn -0.79960895 0.38863863 0.45780515
vn -0.81177023 -0.07476088 0.57917175
vn -0.81488618 0.01088838 0.57951872
vn -0.79244703 -0.50207031 0.34634246
vn -0.80047786 -0.38444583 0.45982236
vn -0.76287382 0.16081815 0.62622764
vn -0.81549744 0.54444081 0.19633677
vn -0.75565097 0.42692760 0.49671364
vn -0.81322067 0.56548361 0.13747888
vn -0.80221246 0.41967189 0.42465358
vn -0.80122100 0.46746780 0.37352211
vn -0.80947513 0.10402783 0.57786522
vn -0.79877870 0.18264790 0.57322974
vn -0.80223169 0.30746677 0.51175043
vn -0.79941484 -0.55167250 0.23789360
vn -0.69966986 -0.71127491 0.06745430
vn -0.14299644 -0.96910141 0.20098375
vn -0.73055728 -0.37431151 0.57111903
vn -0.68034235 -0.25024671 0.68884749
vn -0.80519419 0.49496063 0.32661335
vn -0.78877666 0.55400677 0.26628534
vn -0.79781847 -0.31190974 0.51594380
vn -0.80009173 -0.21892887 0.55850100
vn -0.78218831 -0.17888867 0.59680842
vn -0.68130896 -0.06260329 0.72931401
vn -0.70575383 0.03801102 0.70743671
vn -0.73253662 -0.04478072 0.67925311
vn -0.73417340 -0.21523318 0.64394417
vn -0.75894436 -0.13131712 0.63777682
vn -0.72967295 -0.32826855 0.59984760
vn -0.69369723 -0.36813978 0.61907774
vn -0.79727339 0.59605891 0.09523089
vn -0.79352728 0.60427086 0.07191094
vn -0.73594463 0.62189622 0.26763892
vn 0.14713587 -0.96811036 0.20276429
vn -0.17018872 -0.95389955 0.24720729
vn -0.08776849 -0.95711476 0.27609423
vn 0.00013050 -0.96181679 0.27369407
vn 0.69944831 -0.71056828 0.07658186
vn 0.15758502 -0.95652638 0.24540628
vn 0.15348563 -0.92105539 0.35790940
vn 0.80753230 -0.22137865 0.54670200
vn 0.80072173 -0.29350623 0.52220571
vn 0.79856432 -0.32483802 0.50672999
vn 0.81227594 -0.40925124 0.41559742
vn 0.79581688 -0.47668478 0.37342619
vn 0.79593264 -0.50826034 0.32888092
vn 0.80649703 0.10808705 0.58127423
vn 0.81125035 0.02618255 0.58411244
vn 0.70511854 0.03641018 0.70815404
vn 0.79699420 -0.53678392 0.27688131
vn 0.79849137 0.17865005 0.57488755
vn 0.80485932 0.27184341 0.52754397
vn 0.73198170 -0.37349245 0.56982996
vn 0.73549297 -0.21417559 0.64278994
vn 0.73355786 -0.04477681 0.67815035
vn 0.81281351 -0.07320120 0.57790638
vn 0.80169444 -0.15536433 0.57718970
vn 0.79867363 -0.19618950 0.56888497
vn 0.79650506 0.58038461 0.16950929
vn 0.80378784 0.50154989 0.31995753
vn 0.80214513 0.43785334 0.40601434
vn 0.79793528 0.39763785 0.45297177
vn 0.75088949 0.43564867 0.49636197
vn 0.73651544 0.62155987 0.26684890
vn 0.68041080 -0.06092722 0.73029379
vn 0.68138172 -0.24826386 0.68853758
vn 0.69492195 -0.36844691 0.61751952
vn 0.72715396 -0.33307455 0.60025700
vn 0.75415743 -0.13032840 0.64363117
vn 0.75808417 0.16049264 0.63210007
vn 0.25142607 -0.22703116 0.94087288
vn 0.21429513 -0.27249838 0.93798840
vn 0.30092302 -0.38768503 0.87128965
vn -0.31588573 0.00579138 0.94877957
vn -0.17855947 0.00850584 0.98389236
vn -0.17372292 0.04214473 0.98389236
vn 0.09766731 -0.33262420 0.93798840
vn 0.05036313 -0.17152080 0.98389236
vn 0.02118537 -0.17626732 0.98411433
vn 0.23307635 0.25071693 0.93958312
vn 0.12335992 0.12937612 0.98389235
vn 0.14561521 0.10369208 0.98389235
vn 0.00000000 0.00001197 1.00000000
vn -0.14561519 0.10369210 0.98389236
vn -0.16260757 0.07426040 0.98389236
vn -0.12335988 0.12937613 0.98389235
vn -0.09664598 0.15038419 0.98389235
vn -0.17694242 -0.02544045 0.98389235
vn -0.16893021 -0.05846734 0.98389235
vn 0.08191345 -0.15888994 0.98389236
vn 0.11050336 -0.14051638 0.98389235
vn 0.13509930 -0.11706408 0.98389236
vn 0.17372292 0.04214474 0.98389236
vn 0.16260758 0.07426041 0.98389236
vn -0.29864691 -0.38565138 0.87297367
vn 0.45737581 0.49915414 0.73597046
vn 0.17645397 0.96914377 0.17211724
vn 0.35158398 0.91829141 0.18201538
vn 0.44850070 0.82396146 0.34631580
vn 0.29458595 0.81395884 0.50068965
vn 0.26972968 0.72035934 0.63900573
vn 0.09129119 -0.85820185 0.50512919
vn 0.00001674 -0.85259321 0.52257519
vn -0.24626255 -0.82354729 0.51100354
vn -0.28933130 -0.17421387 0.94124222
vn -0.32093705 0.07662052 0.94399614
vn -0.23309340 0.25072012 0.93957804
vn -0.27001252 0.19502433 0.94289912
vn -0.28929380 0.13524738 0.94763772
vn -0.31795695 0.92529470 0.20671984
vn -0.30495675 0.89315569 0.33056662
vn -0.29070961 0.81437186 0.50228119
vn -0.26297270 0.71785995 0.64461031
vn -0.18075173 0.96725374 0.17818254
vn 0.29215015 0.14210810 0.94575556
vn 0.27495673 0.19373323 0.94173575
vn 0.34096447 0.06986112 0.93747675
vn 0.17855946 0.00850584 0.98389236
vn 0.17694242 -0.02544048 0.98389235
vn 0.31433457 0.01999778 0.94910161
vn 0.33057898 -0.04281183 0.94280681
vn 0.29873718 -0.10895540 0.94809536
vn 0.15481238 -0.08938101 0.98389235
vn 0.28487242 -0.16360122 0.94450111
vn 0.16893019 -0.05846735 0.98389235
vn 0.15885187 -0.30812956 0.93798841
vn 0.22526190 -0.44674500 0.86583831
vn -0.15481234 -0.08938101 0.98389236
vn -0.13509930 -0.11706413 0.98389236
vn -0.26773228 -0.22865901 0.93596714
vn -0.21515746 -0.27264832 0.93774739
vn -0.30107144 -0.11296097 0.94688743
vn -0.34820074 -0.03593317 0.93673104
vn 0.06643913 0.16595685 0.98389236
vn 0.09664599 0.15038417 0.98389235
vn 0.12884309 0.32183416 0.93798840
vn 0.18742208 0.29163450 0.93798842
vn 0.18729499 0.46784065 0.86373938
vn 0.26303873 0.42368140 0.86677835
vn 0.23215281 0.59772995 0.76734867
vn 0.34480038 0.34656071 0.87235794
vn -0.31466284 0.54137182 0.77968189
vn -0.26874614 0.42289957 0.86540827
vn -0.43251271 0.36050760 0.82641819
vn -0.18742211 0.29163446 0.93798843
vn 0.33120491 -0.65972837 0.67458268
vn 0.31132193 -0.57640101 0.75553990
vn 0.18196093 -0.61970205 0.76345242
vn 0.14197597 -0.48352579 0.86373933
vn 0.05981443 -0.49949548 0.86424910
vn 0.04113653 -0.34313817 0.93838371
vn -0.00000001 -0.34434777 0.93884217
vn 0.00000000 -0.17620771 0.98435301
vn -0.02118538 -0.17626732 0.98411433
vn -0.23279143 0.59844833 0.76659491
vn -0.18729502 0.46784067 0.86373936
vn -0.12884303 0.32183412 0.93798842
vn -0.06643915 0.16595685 0.98389235
vn 0.21064914 -0.73606918 0.64329550
vn 0.07665872 -0.64063413 0.76401005
vn -0.00000000 -0.50197473 0.86488229
vn -0.04113652 -0.34313817 0.93838371
vn -0.05036313 -0.17152081 0.98389235
vn 0.23212112 -0.82890106 0.50896249
vn 0.09116839 -0.76232516 0.64074073
vn 0.00000000 -0.64433132 0.76474646
vn -0.05981441 -0.49949546 0.86424911
vn -0.09766732 -0.33262419 0.93798840
vn -0.08191344 -0.15888993 0.98389236
vn -0.18196092 -0.61970203 0.76345243
vn -0.21159404 -0.73581972 0.64327079
vn -0.09116841 -0.76232515 0.64074073
vn -0.08502062 -0.85733843 0.50768328
vn -0.48496499 -0.63527392 0.60102912
vn -0.27744501 -0.57718920 0.76803444
vn -0.22569959 -0.44670673 0.86574407
vn 0.00000002 -0.76713031 0.64149130
vn -0.07665870 -0.64063413 0.76401005
vn -0.14197600 -0.48352577 0.86373934
vn -0.15885183 -0.30812958 0.93798841
vn -0.11050332 -0.14051639 0.98389235
vn -0.00000003 0.17876189 0.98389237
vn 0.03383090 0.17553154 0.98389235
vn -0.00000002 0.34666661 0.93798841
vn 0.06560720 0.34040190 0.93798840
vn -0.00000001 0.50393882 0.86373935
vn 0.09537122 0.49483198 0.86373934
vn 0.00000004 0.64586404 0.76345245
vn 0.12223068 0.63419237 0.76345249
vn 0.00000005 0.76820701 0.64020152
vn 0.14538404 0.75432445 0.64020161
vn -0.00000001 0.86733218 0.49772974
vn 0.16414369 0.85165838 0.49772971
vn 0.00000004 0.94030331 0.34033760
vn 0.17320080 0.92271798 0.34437337
vn 0.00000005 0.98496497 0.17275416
vn -0.03383087 0.17553157 0.98389234
vn -0.06560716 0.34040190 0.93798840
vn -0.09537118 0.49483198 0.86373934
vn -0.12223068 0.63419233 0.76345252
vn -0.14538412 0.75432447 0.64020157
vn -0.16414372 0.85165838 0.49772969
vn -0.17795372 0.92331075 0.34033768
vn -0.92937491 -0.36836492 -0.02386561
vn -0.92426341 -0.37613502 -0.06526562
vn -0.36467604 -0.93064559 -0.03016910
vn -0.39689251 -0.91739602 -0.02934070
vn -0.69551466 -0.70576533 -0.13473920
vn -0.90219412 -0.37544040 -0.21234471
vn -0.26203921 -0.93868224 -0.22407834
vn -0.91810099 -0.37063984 -0.14041612
vn -0.32469720 -0.93810698 -0.12052808
vn -0.92791477 -0.36528948 -0.07441627
vn 0.69542148 -0.70497962 -0.13925766
vn 0.26725330 -0.93689828 -0.22538252
vn 0.86920651 -0.39871782 -0.29241091
vn 0.89290457 -0.38821530 -0.22805769
vn 0.91217776 -0.37580320 -0.16341263
vn 0.32480058 -0.93828144 -0.11888031
vn 0.92656969 -0.36460155 -0.09238141
vn 0.36337369 -0.93112453 -0.03109125
vn 0.93121300 -0.36310676 -0.03155668
vn 0.92426338 -0.37613505 -0.06526590
vn 0.39689248 -0.91739603 -0.02934072
vn 0.33644197 -0.90855427 -0.24766095
vn 0.39586406 -0.90995087 -0.12361656
vn 0.23565681 -0.90995134 -0.34125419
vn -0.23565672 -0.90995129 -0.34125440
vn 0.73032744 -0.67967192 -0.06832212
vn -0.33644179 -0.90855434 -0.24766091
vn -0.39586399 -0.90995093 -0.12361640
vn -0.73032744 -0.67967192 -0.06832212
vn 0.52542511 -0.37262174 -0.76490620
vn 0.74696269 -0.37282214 -0.55050013
vn 0.88703790 -0.37217572 -0.27321968
vn -0.88738120 -0.36968385 -0.27547860
vn -0.74856639 -0.36967688 -0.55044288
vn -0.52646406 -0.37161167 -0.76468318
vn -0.75476939 -0.45633190 -0.47125828
vn -0.01681535 -0.42864539 -0.90331632
vn -0.68547787 -0.41325873 -0.59944751
vn -0.66814879 -0.53447410 -0.51760470
vn -0.69586927 -0.52160780 -0.49365096
vn -0.75476979 -0.60401630 -0.25590403
vn 0.01679934 -0.42653278 -0.90431608
vn 0.75476939 -0.45633190 -0.47125828
vn 0.75476979 -0.60401630 -0.25590403
vn 0.66814871 -0.53447416 -0.51760476
vn 0.68586527 -0.41342012 -0.59889284
vn 0.69516526 -0.52150109 -0.49475435
vn 0.59476639 -0.51291021 -0.61901216
vn -0.58543642 -0.51690703 -0.62455690
vn 0.00000000 -1.00000000 0.00000000
vn 0.67498311 0.18587341 -0.71403703
vn 0.67344276 0.08068295 -0.73482318
vn 0.68822552 0.18952003 -0.70030550
vn 0.72676724 0.08707158 -0.68134274
vn 0.70473336 0.24025375 -0.66755452
vn 0.42919149 -0.71864068 -0.54712908
vn -0.37607948 -0.71860180 -0.58495785
vn -0.22496515 0.83617413 -0.50020346
vn 0.16780066 0.79858176 -0.57802259
vn 0.44149090 -0.71572350 -0.54113368
vn 0.41565654 -0.72359625 0.55103367
vn 0.70473336 0.24025375 0.66755452
vn -0.53128250 -0.50296066 0.68174004
vn 0.19886744 0.79373616 0.57483445
vn -0.80544134 0.15215015 0.57281287
vn 0.38887633 0.73502522 -0.55543958
vn -0.54539259 -0.47840129 -0.68824351
vn -0.62462772 -0.75126209 -0.21317945
vn 0.68676880 -0.69133262 0.22451685
vn 0.79098566 -0.60220705 0.10811264
vn 0.89791787 -0.05944519 0.43613046
vn 0.79880931 -0.30421991 -0.51899320
vn 0.49424493 0.67089432 0.55283158
vn 0.78271203 -0.31118464 -0.53900464
vn 0.77454161 -0.31826826 -0.54661742
vn 0.75430440 -0.34258710 -0.56005264
vn 0.29348022 0.46431999 -0.83562929
vn -0.40508058 0.27123517 -0.87312153
vn 0.28677483 0.58938467 0.75523897
vn -0.68623484 0.19000666 -0.70212479
vn -0.41661172 0.22809444 0.88000432
vn -0.38695174 -0.62950847 0.67378590
vn 0.28049810 -0.86222206 0.42177476
vn -0.25232262 -0.76789506 0.58878729
vn -0.13010865 -0.83640505 0.53244561
vn 0.00657036 -0.87492573 0.48421256
vn 0.15308306 -0.88168778 0.44630957
vn 0.28138530 -0.59639361 -0.75175593
vn -0.33300347 0.62527440 -0.70579077
vn 0.00062833 0.16846246 -0.98570787
vn 0.40608049 0.33325830 -0.85090395
vn 0.74914164 0.50906290 -0.42384168
vn -0.01140812 -0.95876206 -0.28398093
vn 0.39475913 -0.86616696 -0.30646375
vn 0.16068740 -0.76746445 -0.62062701
vn -0.17925034 -0.94125740 -0.28618845
vn -0.29015327 -0.90110323 -0.32221740
vn -0.40701456 -0.84786019 -0.33981207
vn -0.51394959 -0.77015024 -0.37778887
vn -0.61324694 -0.65838811 -0.43640954
vn -0.67671048 -0.54466918 -0.49537705
f 1//1 2//2 3//3
f 3//3 2//2 4//4
f 3//3 4//4 5//5
f 5//5 4//4 6//6
f 5//5 6//6 7//7
f 7//7 6//6 8//8
f 7//7 8//8 9//9
f 9//9 8//8 10//10
f 9//9 10//10 11//11
f 11//11 10//10 12//12
f 11//11 12//12 13//13
f 13//13 12//12 14//14
f 13//13 14//14 15//15
f 15//15 14//14 16//16
f 15//15 16//16 17//17
f 17//17 16//16 18//18
f 17//17 18//18 19//19
f 19//19 18//18 20//20
f 19//19 20//20 21//21
f 21//21 20//20 22//22
f 21//21 22//22 23//23
f 23//23 22//22 24//24
f 23//23 24//24 1//1
f 1//1 24//24 2//2
f 25//25 26//26 27//27
f 28//28 29//29 30//30
f 30//30 29//29 31//31
f 30//30 31//31 32//32
f 33//33 34//34 35//35
f 35//35 34//34 36//36
f 35//35 36//36 30//30
f 30//30 36//36 37//37
f 30//30 37//37 28//28
f 38//38 39//39 35//35
f 35//35 39//39 40//40
f 35//35 40//40 33//33
f 41//41 42//42 38//38
f 38//38 42//42 43//43
f 38//38 43//43 39//39
f 44//44 45//45 46//46
f 46//46 45//45 47//47
f 46//46 47//47 41//41
f 41//41 47//47 48//48
f 41//41 48//48 42//42
f 49//49 50//50 51//51
f 51//51 50//50 52//52
f 51//51 52//52 46//46
f 46//46 52//52 53//53
f 46//46 53//53 44//44
f 49//49 51//51 54//54
f 54//54 51//51 55//55
f 54//54 55//55 56//56
f 26//26 57//57 27//27
f 27//27 57//57 58//58
f 27//27 58//58 55//55
f 55//55 58//58 59//59
f 55//55 59//59 56//56
f 60//60 61//61 62//62
f 62//62 61//61 63//63
f 62//62 63//63 64//64
f 60//60 65//65 61//61
f 61//61 65//65 66//66
f 61//61 66//66 27//27
f 27//27 66//66 67//67
f 27//27 67//67 25//25
f 68//68 69//69 63//63
f 63//63 69//69 70//70
f 63//63 70//70 64//64
f 71//71 72//72 68//68
f 68//68 72//72 73//73
f 68//68 73//73 69//69
f 74//74 75//75 76//76
f 76//76 77//77 74//74
f 74//74 77//77 78//78
f 74//74 78//78 68//68
f 68//68 78//78 79//79
f 68//68 79//79 71//71
f 80//80 81//81 82//82
f 82//82 81//81 83//83
f 82//82 83//83 75//75
f 75//75 83//83 84//84
f 75//75 84//84 76//76
f 85//85 86//86 87//87
f 85//85 87//87 88//88
f 86//86 89//89 87//87
f 87//87 89//89 90//90
f 87//87 90//90 82//82
f 82//82 90//90 91//91
f 82//82 91//91 80//80
f 31//31 92//92 32//32
f 32//32 92//92 93//93
f 32//32 93//93 94//94
f 94//94 93//93 95//95
f 94//94 95//95 96//96
f 96//96 95//95 97//97
f 96//96 97//97 98//98
f 98//98 97//97 99//99
f 98//98 99//99 100//100
f 100//100 99//99 101//101
f 100//100 101//101 102//102
f 102//102 101//101 103//103
f 102//102 103//103 104//104
f 104//104 103//103 105//105
f 104//104 105//105 106//106
f 106//106 105//105 88//88
f 106//106 88//88 107//107
f 107//107 88//88 87//87
f 108//108 109//109 110//110
f 108//108 110//110 111//111
f 111//111 110//110 112//112
f 111//111 112//112 113//113
f 113//113 112//112 114//114
f 113//113 114//114 115//115
f 115//115 114//114 116//116
f 115//115 116//116 117//117
f 27//27 118//118 61//61
f 61//61 118//118 119//119
f 61//61 119//119 63//63
f 63//63 119//119 120//120
f 63//63 120//120 68//68
f 68//68 120//120 121//121
f 68//68 121//121 74//74
f 74//74 121//121 122//122
f 74//74 122//122 75//75
f 75//75 122//122 123//123
f 75//75 123//123 82//82
f 82//82 123//123 124//124
f 82//82 124//124 87//87
f 87//87 124//124 125//125
f 87//87 125//125 107//107
f 107//107 125//125 126//126
f 107//107 126//126 106//106
f 106//106 126//126 127//127
f 106//106 127//127 104//104
f 104//104 127//127 128//128
f 104//104 128//128 102//102
f 102//102 128//128 129//129
f 102//102 129//129 100//100
f 100//100 129//129 130//130
f 100//100 130//130 98//98
f 98//98 130//130 131//131
f 98//98 131//131 96//96
f 96//96 131//131 132//132
f 96//96 132//132 94//94
f 94//94 132//132 133//133
f 94//94 133//133 32//32
f 32//32 133//133 134//134
f 32//32 134//134 30//30
f 30//30 134//134 135//135
f 30//30 135//135 35//35
f 35//35 135//135 136//136
f 35//35 136//136 38//38
f 38//38 136//136 137//137
f 38//38 137//137 41//41
f 41//41 137//137 138//138
f 41//41 138//138 46//46
f 46//46 138//138 139//139
f 46//46 139//139 51//51
f 51//51 139//139 140//140
f 51//51 140//140 55//55
f 55//55 140//140 141//141
f 55//55 141//141 27//27
f 27//27 141//141 118//118
f 142//142 143//143 144//144
f 145//145 146//146 132//132
f 147//147 148//148 138//138
f 140//140 149//149 150//150
f 140//140 150//150 141//141
f 151//151 152//152 153//153
f 153//153 152//152 154//154
f 155//155 149//149 152//152
f 152//152 149//149 140//140
f 152//152 140//140 154//154
f 154//154 140//140 139//139
f 148//148 156//156 138//138
f 138//138 156//156 157//157
f 138//138 157//157 158//158
f 158//158 159//159 138//138
f 138//138 159//159 160//160
f 138//138 160//160 139//139
f 139//139 160//160 161//161
f 139//139 161//161 154//154
f 154//154 161//161 162//162
f 154//154 162//162 153//153
f 137//137 163//163 138//138
f 138//138 163//163 164//164
f 164//164 165//165 138//138
f 138//138 165//165 166//166
f 138//138 166//166 147//147
f 135//135 167//167 136//136
f 136//136 167//167 168//168
f 168//168 169//169 136//136
f 136//136 169//169 170//170
f 136//136 170//170 137//137
f 137//137 170//170 171//171
f 137//137 171//171 163//163
f 172//172 173//173 134//134
f 134//134 173//173 174//174
f 134//134 174//174 135//135
f 135//135 174//174 175//175
f 135//135 175//175 167//167
f 133//133 176//176 134//134
f 134//134 176//176 177//177
f 134//134 177//177 172//172
f 178//178 179//179 133//133
f 133//133 179//179 180//180
f 133//133 180//180 176//176
f 132//132 146//146 133//133
f 133//133 146//146 181//181
f 133//133 181//181 178//178
f 182//182 142//142 131//131
f 131//131 142//142 144//144
f 131//131 144//144 132//132
f 132//132 144//144 183//183
f 132//132 183//183 145//145
f 131//131 130//130 182//182
f 182//182 130//130 129//129
f 182//182 129//129 184//184
f 184//184 129//129 128//128
f 127//127 185//185 128//128
f 128//128 185//185 186//186
f 128//128 186//186 184//184
f 187//187 185//185 188//188
f 188//188 185//185 127//127
f 188//188 127//127 189//189
f 189//189 127//127 126//126
f 189//189 126//126 190//190
f 191//191 192//192 125//125
f 125//125 192//192 193//193
f 125//125 193//193 126//126
f 126//126 193//193 194//194
f 126//126 194//194 190//190
f 191//191 125//125 195//195
f 195//195 125//125 124//124
f 195//195 124//124 196//196
f 197//197 124//124 198//198
f 198//198 124//124 123//123
f 197//197 199//199 124//124
f 124//124 199//199 200//200
f 124//124 200//200 196//196
f 201//201 202//202 122//122
f 122//122 202//202 203//203
f 122//122 203//203 123//123
f 123//123 203//203 204//204
f 123//123 204//204 198//198
f 121//121 205//205 122//122
f 122//122 205//205 206//206
f 122//122 206//206 201//201
f 207//207 208//208 120//120
f 120//120 208//208 209//209
f 209//209 210//210 120//120
f 120//120 210//210 211//211
f 120//120 211//211 121//121
f 121//121 211//211 212//212
f 121//121 212//212 205//205
f 213//213 214//214 120//120
f 214//214 215//215 120//120
f 120//120 215//215 216//216
f 120//120 216//216 207//207
f 120//120 119//119 213//213
f 213//213 119//119 217//217
f 213//213 217//217 218//218
f 218//218 217//217 219//219
f 220//220 219//219 221//221
f 221//221 219//219 217//217
f 221//221 217//217 222//222
f 222//222 217//217 119//119
f 222//222 119//119 118//118
f 223//223 222//222 224//224
f 224//224 222//222 118//118
f 224//224 118//118 225//225
f 225//225 118//118 141//141
f 225//225 141//141 226//226
f 226//226 141//141 150//150
f 227//227 228//228 229//229
f 229//229 228//228 230//230
f 229//229 230//230 231//231
f 231//231 230//230 232//232
f 231//231 232//232 233//233
f 233//233 232//232 234//234
f 233//233 234//234 235//235
f 235//235 234//234 236//236
f 235//235 236//236 237//237
f 237//237 236//236 238//238
f 237//237 238//238 239//239
f 239//239 238//238 240//240
f 239//239 240//240 241//241
f 241//241 240//240 242//242
f 241//241 242//242 243//243
f 243//243 242//242 244//244
f 243//243 244//244 245//245
f 245//245 244//244 246//246
f 245//245 246//246 247//247
f 247//247 246//246 248//248
f 247//247 248//248 249//249
f 249//249 248//248 250//250
f 249//249 250//250 227//227
f 227//227 250//250 228//228
f 251//251 252//252 229//229
f 253//253 254//254 233//233
f 233//233 254//254 231//231
f 237//237 255//255 256//256
f 249//249 227//227 257//257
f 257//257 227//227 258//258
f 257//257 258//258 259//259
f 259//259 258//258 260//260
f 229//229 252//252 227//227
f 227//227 252//252 261//261
f 227//227 261//261 262//262
f 254//254 263//263 231//231
f 231//231 263//263 264//264
f 231//231 264//264 229//229
f 229//229 264//264 265//265
f 229//229 265//265 251//251
f 237//237 256//256 235//235
f 255//255 237//237 266//266
f 266//266 237//237 239//239
f 266//266 239//239 267//267
f 267//267 239//239 268//268
f 268//268 239//239 241//241
f 268//268 241//241 269//269
f 245//245 247//247 270//270
f 262//262 271//271 227//227
f 227//227 271//271 272//272
f 227//227 272//272 258//258
f 256//256 273//273 235//235
f 235//235 273//273 274//274
f 235//235 274//274 233//233
f 233//233 274//274 275//275
f 233//233 275//275 253//253
f 270//270 276//276 245//245
f 245//245 276//276 277//277
f 245//245 277//277 243//243
f 243//243 277//277 278//278
f 243//243 278//278 241//241
f 241//241 278//278 279//279
f 241//241 279//279 269//269
f 257//257 280//280 249//249
f 249//249 280//280 281//281
f 249//249 281//281 247//247
f 247//247 281//281 282//282
f 247//247 282//282 270//270
f 260//260 283//283 259//259
f 259//259 283//283 284//284
f 259//259 284//284 285//285
f 285//285 284//284 155//155
f 285//285 155//155 152//152
f 143//143 142//142 268//268
f 268//268 142//142 185//185
f 268//268 185//185 286//286
f 286//286 185//185 187//187
f 267//267 268//268 287//287
f 287//287 268//268 286//286
f 287//287 286//286 288//288
f 288//288 286//286 289//289
f 290//290 291//291 286//286
f 286//286 291//291 292//292
f 286//286 292//292 289//289
f 293//293 294//294 236//236
f 236//236 294//294 295//295
f 236//236 295//295 238//238
f 238//238 295//295 296//296
f 238//238 296//296 240//240
f 240//240 296//296 297//297
f 240//240 297//297 298//298
f 232//232 299//299 300//300
f 246//246 244//244 301//301
f 286//286 242//242 290//290
f 290//290 242//242 240//240
f 290//290 240//240 302//302
f 302//302 240//240 298//298
f 232//232 300//300 234//234
f 299//299 232//232 303//303
f 303//303 232//232 230//230
f 303//303 230//230 304//304
f 286//286 305//305 242//242
f 242//242 305//305 306//306
f 242//242 306//306 244//244
f 244//244 306//306 307//307
f 244//244 307//307 301//301
f 300//300 308//308 234//234
f 234//234 308//308 309//309
f 234//234 309//309 236//236
f 236//236 309//309 310//310
f 236//236 310//310 293//293
f 311//311 312//312 228//228
f 228//228 312//312 313//313
f 228//228 313//313 230//230
f 230//230 313//313 314//314
f 230//230 314//314 304//304
f 311//311 315//315 223//223
f 223//223 315//315 316//316
f 223//223 316//316 222//222
f 301//301 317//317 246//246
f 246//246 317//317 318//318
f 246//246 318//318 248//248
f 248//248 318//318 319//319
f 248//248 319//319 250//250
f 250//250 319//319 320//320
f 250//250 320//320 228//228
f 228//228 320//320 321//321
f 228//228 321//321 311//311
f 311//311 321//321 322//322
f 311//311 322//322 315//315
f 319//319 201//201 206//206
f 211//211 320//320 212//212
f 212//212 320//320 319//319
f 212//212 319//319 205//205
f 205//205 319//319 206//206
f 219//219 220//220 316//316
f 316//316 220//220 221//221
f 316//316 221//221 222//222
f 219//219 316//316 218//218
f 218//218 316//316 315//315
f 218//218 315//315 213//213
f 322//322 215//215 315//315
f 315//315 215//215 214//214
f 315//315 214//214 213//213
f 209//209 208//208 321//321
f 321//321 208//208 207//207
f 321//321 207//207 322//322
f 322//322 207//207 216//216
f 322//322 216//216 215//215
f 209//209 321//321 210//210
f 210//210 321//321 320//320
f 210//210 320//320 211//211
f 323//323 324//324 325//325
f 326//326 327//327 328//328
f 329//329 330//330 331//331
f 332//332 333//333 334//334
f 335//335 336//336 337//337
f 338//338 336//336 335//335
f 339//339 338//338 335//335
f 328//328 327//327 335//335
f 335//335 340//340 341//341
f 331//331 330//330 335//335
f 342//342 335//335 330//330
f 335//335 343//343 344//344
f 335//335 345//345 346//346
f 334//334 333//333 335//335
f 273//273 347//347 274//274
f 302//302 291//291 290//290
f 314//314 348//348 304//304
f 225//225 349//349 224//224
f 224//224 349//349 350//350
f 224//224 350//350 223//223
f 223//223 350//350 311//311
f 351//351 352//352 312//312
f 312//312 352//352 353//353
f 312//312 353//353 313//313
f 354//354 292//292 291//291
f 355//355 289//289 292//292
f 356//356 287//287 288//288
f 356//356 255//255 287//287
f 287//287 255//255 266//266
f 287//287 266//266 267//267
f 357//357 275//275 274//274
f 358//358 263//263 254//254
f 359//359 264//264 360//360
f 360//360 264//264 263//263
f 360//360 263//263 361//361
f 361//361 263//263 358//358
f 283//283 260//260 362//362
f 362//362 260//260 258//258
f 362//362 258//258 363//363
f 363//363 258//258 272//272
f 363//363 272//272 364//364
f 364//364 272//272 271//271
f 364//364 271//271 365//365
f 365//365 271//271 262//262
f 155//155 284//284 149//149
f 149//149 284//284 366//366
f 149//149 366//366 150//150
f 299//299 303//303 367//367
f 367//367 303//303 368//368
f 367//367 368//368 346//346
f 346//346 345//345 367//367
f 367//367 345//345 369//369
f 367//367 369//369 299//299
f 370//370 371//371 372//372
f 372//372 371//371 373//373
f 372//372 373//373 300//300
f 300//300 373//373 308//308
f 374//374 375//375 376//376
f 376//376 375//375 344//344
f 376//376 344//344 323//323
f 323//323 344//344 343//343
f 323//323 343//343 324//324
f 375//375 335//335 344//344
f 374//374 377//377 375//375
f 375//375 377//377 335//335
f 342//342 330//330 378//378
f 378//378 330//330 329//329
f 378//378 329//329 379//379
f 335//335 380//380 381//381
f 381//381 380//380 382//382
f 381//381 382//382 383//383
f 253//253 275//275 384//384
f 384//384 275//275 357//357
f 384//384 357//357 341//341
f 341//341 340//340 384//384
f 384//384 340//340 385//385
f 384//384 385//385 253//253
f 339//339 359//359 338//338
f 338//338 359//359 360//360
f 338//338 360//360 336//336
f 336//336 360//360 361//361
f 336//336 361//361 337//337
f 337//337 361//361 358//358
f 254//254 326//326 358//358
f 358//358 326//326 328//328
f 358//358 328//328 337//337
f 337//337 328//328 335//335
f 386//386 387//387 388//388
f 388//388 387//387 389//389
f 388//388 389//389 390//390
f 390//390 389//389 391//391
f 390//390 391//391 392//392
f 393//393 391//391 332//332
f 332//332 391//391 389//389
f 332//332 389//389 333//333
f 333//333 389//389 387//387
f 333//333 387//387 335//335
f 386//386 335//335 387//387
f 294//294 293//293 325//325
f 325//325 293//293 310//310
f 325//325 310//310 323//323
f 323//323 310//310 309//309
f 323//323 309//309 376//376
f 376//376 309//309 308//308
f 376//376 308//308 374//374
f 374//374 308//308 373//373
f 374//374 373//373 377//377
f 377//377 373//373 371//371
f 377//377 371//371 335//335
f 370//370 335//335 371//371
f 295//295 294//294 379//379
f 379//379 294//294 325//325
f 379//379 325//325 378//378
f 378//378 325//325 324//324
f 378//378 324//324 342//342
f 342//342 324//324 343//343
f 342//342 343//343 335//335
f 252//252 251//251 394//394
f 394//394 251//251 265//265
f 394//394 265//265 395//395
f 395//395 265//265 396//396
f 395//395 396//396 397//397
f 313//313 353//353 314//314
f 314//314 353//353 392//392
f 314//314 392//392 348//348
f 348//348 392//392 391//391
f 348//348 391//391 304//304
f 304//304 391//391 393//393
f 304//304 393//393 303//303
f 303//303 393//393 332//332
f 303//303 332//332 368//368
f 368//368 332//332 334//334
f 368//368 334//334 346//346
f 346//346 334//334 335//335
f 300//300 299//299 372//372
f 372//372 299//299 369//369
f 372//372 369//369 370//370
f 370//370 369//369 345//345
f 370//370 345//345 335//335
f 398//398 399//399 400//400
f 400//400 399//399 401//401
f 400//400 401//401 402//402
f 402//402 401//401 403//403
f 402//402 403//403 404//404
f 404//404 403//403 405//405
f 404//404 405//405 406//406
f 406//406 405//405 335//335
f 262//262 261//261 365//365
f 365//365 261//261 252//252
f 365//365 252//252 407//407
f 407//407 252//252 394//394
f 407//407 394//394 408//408
f 408//408 394//394 395//395
f 408//408 395//395 409//409
f 409//409 395//395 397//397
f 409//409 397//397 410//410
f 297//297 398//398 411//411
f 411//411 398//398 400//400
f 411//411 400//400 412//412
f 412//412 400//400 402//402
f 412//412 402//402 413//413
f 413//413 402//402 404//404
f 413//413 404//404 414//414
f 414//414 404//404 406//406
f 414//414 406//406 415//415
f 415//415 406//406 335//335
f 298//298 297//297 416//416
f 416//416 297//297 411//411
f 416//416 411//411 417//417
f 417//417 411//411 412//412
f 417//417 412//412 418//418
f 418//418 412//412 413//413
f 418//418 413//413 419//419
f 419//419 413//413 414//414
f 419//419 414//414 420//420
f 420//420 414//414 415//415
f 420//420 415//415 421//421
f 421//421 415//415 335//335
f 422//422 423//423 424//424
f 424//424 423//423 425//425
f 424//424 425//425 355//355
f 426//426 423//423 427//427
f 427//427 423//423 422//422
f 427//427 422//422 428//428
f 302//302 298//298 291//291
f 291//291 298//298 416//416
f 291//291 416//416 354//354
f 354//354 416//416 417//417
f 354//354 417//417 429//429
f 429//429 417//417 418//418
f 429//429 418//418 430//430
f 430//430 418//418 419//419
f 430//430 419//419 431//431
f 431//431 419//419 420//420
f 431//431 420//420 432//432
f 432//432 420//420 421//421
f 432//432 421//421 433//433
f 433//433 421//421 335//335
f 292//292 354//354 355//355
f 355//355 354//354 429//429
f 355//355 429//429 424//424
f 424//424 429//429 430//430
f 424//424 430//430 422//422
f 422//422 430//430 431//431
f 422//422 431//431 428//428
f 428//428 431//431 432//432
f 428//428 432//432 383//383
f 383//383 432//432 433//433
f 383//383 433//433 381//381
f 381//381 433//433 335//335
f 289//289 355//355 288//288
f 288//288 355//355 425//425
f 288//288 425//425 356//356
f 356//356 425//425 423//423
f 356//356 423//423 255//255
f 255//255 423//423 426//426
f 255//255 426//426 256//256
f 256//256 426//426 427//427
f 256//256 427//427 273//273
f 273//273 427//427 428//428
f 273//273 428//428 347//347
f 347//347 428//428 383//383
f 347//347 383//383 274//274
f 274//274 383//383 382//382
f 274//274 382//382 357//357
f 357//357 382//382 380//380
f 357//357 380//380 341//341
f 341//341 380//380 335//335
f 297//297 296//296 398//398
f 398//398 296//296 295//295
f 398//398 295//295 399//399
f 399//399 295//295 379//379
f 399//399 379//379 401//401
f 401//401 379//379 329//329
f 401//401 329//329 403//403
f 403//403 329//329 331//331
f 403//403 331//331 405//405
f 405//405 331//331 335//335
f 254//254 253//253 326//326
f 326//326 253//253 385//385
f 326//326 385//385 327//327
f 327//327 385//385 340//340
f 327//327 340//340 335//335
f 434//434 435//435 436//436
f 436//436 435//435 437//437
f 436//436 437//437 438//438
f 438//438 437//437 439//439
f 438//438 439//439 440//440
f 440//440 439//439 441//441
f 440//440 441//441 442//442
f 442//442 441//441 443//443
f 442//442 443//443 444//444
f 444//444 443//443 445//445
f 444//444 445//445 446//446
f 446//446 445//445 447//447
f 446//446 447//447 448//448
f 351//351 447//447 352//352
f 352//352 447//447 445//445
f 352//352 445//445 353//353
f 353//353 445//445 443//443
f 353//353 443//443 392//392
f 392//392 443//443 441//441
f 392//392 441//441 390//390
f 390//390 441//441 439//439
f 390//390 439//439 388//388
f 388//388 439//439 437//437
f 388//388 437//437 386//386
f 386//386 437//437 435//435
f 386//386 435//435 335//335
f 434//434 335//335 435//435
f 410//410 449//449 409//409
f 409//409 449//449 450//450
f 409//409 450//450 408//408
f 408//408 450//450 451//451
f 408//408 451//451 407//407
f 407//407 451//451 452//452
f 407//407 452//452 365//365
f 365//365 452//452 453//453
f 365//365 453//453 364//364
f 364//364 453//453 454//454
f 364//364 454//454 363//363
f 363//363 454//454 455//455
f 363//363 455//455 362//362
f 362//362 455//455 366//366
f 362//362 366//366 283//283
f 283//283 366//366 284//284
f 312//312 311//311 351//351
f 351//351 311//311 350//350
f 351//351 350//350 447//447
f 447//447 350//350 349//349
f 447//447 349//349 448//448
f 448//448 349//349 225//225
f 448//448 225//225 226//226
f 226//226 150//150 448//448
f 448//448 150//150 366//366
f 448//448 366//366 446//446
f 446//446 366//366 455//455
f 446//446 455//455 444//444
f 444//444 455//455 454//454
f 444//444 454//454 442//442
f 442//442 454//454 453//453
f 442//442 453//453 440//440
f 440//440 453//453 452//452
f 440//440 452//452 438//438
f 438//438 452//452 451//451
f 438//438 451//451 436//436
f 436//436 451//451 450//450
f 436//436 450//450 434//434
f 434//434 450//450 449//449
f 434//434 449//449 335//335
f 410//410 335//335 449//449
f 265//265 264//264 396//396
f 396//396 264//264 359//359
f 396//396 359//359 397//397
f 397//397 359//359 339//339
f 397//397 339//339 410//410
f 410//410 339//339 335//335
f 147//147 166//166 280//280
f 280//280 166//166 281//281
f 281//281 166//166 165//165
f 281//281 165//165 164//164
f 158//158 257//257 159//159
f 159//159 257//257 259//259
f 159//159 259//259 160//160
f 158//158 157//157 257//257
f 257//257 157//157 156//156
f 257//257 156//156 280//280
f 280//280 156//156 148//148
f 280//280 148//148 147//147
f 285//285 152//152 151//151
f 151//151 153//153 285//285
f 285//285 153//153 162//162
f 285//285 162//162 259//259
f 259//259 162//162 161//161
f 259//259 161//161 160//160
f 281//281 164//164 282//282
f 282//282 164//164 163//163
f 163//163 171//171 282//282
f 282//282 171//171 170//170
f 282//282 170//170 169//169
f 270//270 282//282 169//169
f 173//173 277//277 174//174
f 174//174 277//277 276//276
f 169//169 168//168 270//270
f 270//270 168//168 167//167
f 270//270 167//167 276//276
f 276//276 167//167 175//175
f 276//276 175//175 174//174
f 143//143 268//268 144//144
f 144//144 268//268 269//269
f 144//144 269//269 183//183
f 178//178 181//181 279//279
f 279//279 181//181 146//146
f 279//279 146//146 269//269
f 269//269 146//146 145//145
f 269//269 145//145 183//183
f 178//178 279//279 179//179
f 179//179 279//279 278//278
f 179//179 278//278 180//180
f 173//173 172//172 277//277
f 277//277 172//172 177//177
f 277//277 177//177 278//278
f 278//278 177//177 176//176
f 278//278 176//176 180//180
f 184//184 186//186 182//182
f 182//182 186//186 185//185
f 182//182 185//185 142//142
f 286//286 187//187 305//305
f 305//305 187//187 188//188
f 199//199 301//301 200//200
f 200//200 301//301 307//307
f 200//200 307//307 196//196
f 196//196 307//307 195//195
f 188//188 189//189 305//305
f 305//305 189//189 190//190
f 305//305 190//190 306//306
f 306//306 190//190 194//194
f 194//194 193//193 306//306
f 306//306 193//193 192//192
f 306//306 192//192 307//307
f 307//307 192//192 191//191
f 307//307 191//191 195//195
f 317//317 301//301 199//199
f 201//201 319//319 202//202
f 202//202 319//319 318//318
f 202//202 318//318 203//203
f 199//199 197//197 317//317
f 317//317 197//197 198//198
f 317//317 198//198 318//318
f 318//318 198//198 204//204
f 318//318 204//204 203//203
f 456//456 457//457 458//458
f 458//458 457//457 459//459
f 460//460 461//461 462//462
f 462//462 461//461 463//463
f 462//462 463//463 464//464
f 464//464 463//463 465//465
f 464//464 465//465 458//458
f 458//458 465//465 456//456
f 466//466 467//467 468//468
f 468//468 467//467 469//469
f 469//469 467//467 470//470
f 470//470 467//467 471//471
f 470//470 471//471 472//472
f 472//472 471//471 473//473
f 472//472 473//473 474//474
f 475//475 474//474 476//476
f 476//476 474//474 473//473
f 15//15 477//477 478//478
f 479//479 477//477 117//117
f 117//117 477//477 15//15
f 117//117 15//15 115//115
f 115//115 15//15 17//17
f 115//115 17//17 113//113
f 113//113 17//17 19//19
f 113//113 19//19 111//111
f 111//111 19//19 21//21
f 111//111 21//21 108//108
f 108//108 21//21 23//23
f 108//108 23//23 480//480
f 466//466 481//481 467//467
f 467//467 481//481 11//11
f 467//467 11//11 471//471
f 471//471 11//11 13//13
f 471//471 13//13 473//473
f 473//473 13//13 15//15
f 473//473 15//15 476//476
f 476//476 15//15 478//478
f 480//480 23//23 482//482
f 482//482 23//23 459//459
f 482//482 459//459 483//483
f 484//484 460//460 3//3
f 3//3 460//460 462//462
f 3//3 462//462 1//1
f 1//1 462//462 464//464
f 1//1 464//464 23//23
f 23//23 464//464 458//458
f 23//23 458//458 459//459
f 3//3 5//5 484//484
f 484//484 5//5 7//7
f 484//484 7//7 481//481
f 481//481 7//7 9//9
f 481//481 9//9 11//11
f 117//117 116//116 485//485
f 117//117 485//485 479//479
f 479//479 485//485 486//486
f 479//479 486//486 477//477
f 477//477 486//486 487//487
f 477//477 487//487 478//478
f 478//478 487//487 475//475
f 478//478 475//475 476//476
f 459//459 457//457 488//488
f 459//459 488//488 483//483
f 483//483 488//488 489//489
f 483//483 489//489 482//482
f 482//482 489//489 490//490
f 482//482 490//490 480//480
f 480//480 490//490 109//109
f 480//480 109//109 108//108
f 491//491 492//492 493//493
f 461//461 460//460 484//484
f 465//465 494//494 456//456
f 456//456 494//494 457//457
f 465//465 463//463 494//494
f 494//494 463//463 461//461
f 494//494 461//461 495//495
f 495//495 461//461 484//484
f 495//495 484//484 493//493
f 493//493 484//484 496//496
f 493//493 496//496 491//491
f 497//497 492//492 498//498
f 498//498 492//492 491//491
f 498//498 491//491 499//499
f 499//499 491//491 496//496
f 499//499 496//496 481//481
f 481//481 496//496 484//484
f 475//475 500//500 474//474
f 474//474 500//500 472//472
f 497//497 498//498 501//501
f 501//501 498//498 499//499
f 501//501 499//499 502//502
f 502//502 499//499 481//481
f 502//502 481//481 466//466
f 466//466 468//468 502//502
f 502//502 468//468 469//469
f 502//502 469//469 500//500
f 500//500 469//469 470//470
f 500//500 470//470 472//472
f 475//475 487//487 500//500
f 500//500 487//487 503//503
f 503//503 487//487 79//79
f 79//79 487//487 486//486
f 79//79 486//486 71//71
f 71//71 486//486 72//72
f 72//72 486//486 485//485
f 72//72 485//485 73//73
f 73//73 485//485 69//69
f 69//69 485//485 116//116
f 69//69 116//116 70//70
f 70//70 116//116 64//64
f 64//64 116//116 114//114
f 64//64 114//114 62//62
f 62//62 114//114 60//60
f 57//57 26//26 112//112
f 112//112 26//26 25//25
f 25//25 67//67 112//112
f 112//112 67//67 66//66
f 112//112 66//66 114//114
f 114//114 66//66 65//65
f 114//114 65//65 60//60
f 110//110 59//59 112//112
f 112//112 59//59 58//58
f 112//112 58//58 57//57
f 109//109 50//50 110//110
f 110//110 50//50 49//49
f 49//49 54//54 110//110
f 110//110 54//54 56//56
f 110//110 56//56 59//59
f 50//50 109//109 52//52
f 52//52 109//109 490//490
f 52//52 490//490 53//53
f 504//504 47//47 489//489
f 489//489 47//47 45//45
f 489//489 45//45 490//490
f 490//490 45//45 44//44
f 490//490 44//44 53//53
f 489//489 488//488 504//504
f 504//504 488//488 457//457
f 504//504 457//457 494//494
f 47//47 504//504 48//48
f 48//48 504//504 494//494
f 495//495 33//33 40//40
f 40//40 39//39 495//495
f 495//495 39//39 43//43
f 495//495 43//43 494//494
f 494//494 43//43 42//42
f 494//494 42//42 48//48
f 93//93 92//92 88//88
f 88//88 92//92 31//31
f 88//88 31//31 85//85
f 93//93 88//88 95//95
f 95//95 88//88 105//105
f 95//95 105//105 103//103
f 103//103 101//101 95//95
f 95//95 101//101 99//99
f 95//95 99//99 97//97
f 28//28 89//89 86//86
f 28//28 86//86 29//29
f 29//29 86//86 85//85
f 29//29 85//85 31//31
f 492//492 28//28 37//37
f 492//492 37//37 493//493
f 28//28 492//492 89//89
f 89//89 492//492 497//497
f 89//89 497//497 90//90
f 90//90 497//497 501//501
f 90//90 501//501 91//91
f 91//91 501//501 80//80
f 80//80 501//501 502//502
f 80//80 502//502 81//81
f 33//33 495//495 34//34
f 34//34 495//495 493//493
f 34//34 493//493 36//36
f 36//36 493//493 37//37
f 503//503 79//79 78//78
f 83//83 81//81 502//502
f 83//83 502//502 84//84
f 503//503 78//78 500//500
f 500//500 78//78 77//77
f 500//500 77//77 502//502
f 502//502 77//77 76//76
f 502//502 76//76 84//84
f 16//16 14//14 505//505
f 505//505 14//14 12//12
f 505//505 12//12 10//10
f 22//22 20//20 505//505
f 505//505 20//20 18//18
f 505//505 18//18 16//16
f 4//4 2//2 505//505
f 505//505 2//2 24//24
f 505//505 24//24 22//22
f 10//10 8//8 505//505
f 505//505 8//8 6//6
f 505//505 6//6 4//4
f 506//506 507//507 508//508
f 508//508 507//507 509//509
f 510//510 511//511 512//512
f 513//513 514//514 509//509
f 509//509 514//514 510//510
f 509//509 510//510 508//508
f 508//508 510//510 512//512
f 506//506 508//508 515//515
f 515//515 508//508 512//512
f 516//516 517//517 518//518
f 518//518 517//517 519//519
f 518//518 519//519 520//520
f 507//507 521//521 509//509
f 509//509 521//521 513//513
f 516//516 511//511 517//517
f 517//517 511//511 510//510
f 517//517 510//510 519//519
f 519//519 510//510 514//514
f 511//511 516//516 512//512
f 512//512 516//516 518//518
f 515//515 512//512 522//522
f 522//522 512//512 518//518
f 522//522 518//518 523//523
f 523//523 518//518 520//520
f 523//523 520//520 524//524
f 524//524 525//525 526//526
f 526//526 525//525 527//527
f 526//526 527//527 528//528
f 528//528 527//527 529//529
f 529//529 530//530 528//528
f 528//528 530//530 531//531
f 528//528 531//531 532//532
f 528//528 532//532 533//533
f 528//528 533//533 534//534
f 534//534 533//533 535//535
f 534//534 535//535 536//536
f 534//534 536//536 537//537
f 538//538 524//524 526//526
f 539//539 540//540 526//526
f 540//540 541//541 526//526
f 526//526 541//541 542//542
f 526//526 542//542 538//538
f 539//539 526//526 537//537
f 537//537 526//526 528//528
f 537//537 528//528 534//534
f 522//522 523//523 543//543
f 515//515 522//522 506//506
f 506//506 522//522 543//543
f 506//506 543//543 507//507
f 507//507 543//543 544//544
f 507//507 544//544 521//521
f 519//519 514//514 520//520
f 520//520 514//514 513//513
f 513//513 521//521 520//520
f 520//520 521//521 544//544
f 520//520 544//544 524//524
f 545//545 525//525 546//546
f 546//546 525//525 524//524
f 546//546 524//524 547//547
f 547//547 524//524 544//544
f 548//548 530//530 529//529
f 525//525 545//545 549//549
f 549//549 545//545 546//546
f 549//549 546//546 547//547
f 549//549 550//550 525//525
f 525//525 550//550 548//548
f 525//525 548//548 527//527
f 527//527 548//548 529//529
f 533//533 532//532 531//531
f 548//548 551//551 530//530
f 530//530 551//551 552//552
f 530//530 552//552 531//531
f 531//531 552//552 553//553
f 553//553 554//554 531//531
f 531//531 554//554 555//555
f 531//531 555//555 533//533
f 533//533 555//555 556//556
f 533//533 556//556 535//535
f 542//542 541//541 551//551
f 540//540 539//539 553//553
f 535//535 556//556 536//536
f 536//536 556//556 555//555
f 536//536 555//555 537//537
f 537//537 555//555 539//539
f 539//539 555//555 554//554
f 539//539 554//554 553//553
f 540//540 553//553 541//541
f 541//541 553//553 552//552
f 541//541 552//552 551//551
f 543//543 523//523 524//524
f 542//542 551//551 538//538
f 538//538 551//551 548//548
f 538//538 548//548 524//524
f 548//548 550//550 524//524
f 524//524 550//550 549//549
f 524//524 549//549 543//543
f 543//543 549//549 547//547
f 543//543 547//547 544//544

