# https://github.com/mikedh/trimesh

o left_finger1_link4.STL
v 0.00119836 -0.00695506 0.00388302
v 0.00182013 -0.00672910 0.00387736
v 0.00182013 -0.00672910 0.01730000
v -0.00802764 -0.00255000 0.00315947
v -0.00801468 -0.00258266 0.00293216
v -0.00797910 -0.00267013 0.00272148
v -0.00392013 -0.00672910 0.01730000
v -0.00521678 -0.00603602 0.01730000
v -0.00490408 -0.00623398 0.00150490
v -0.00635330 -0.00510330 0.01730000
v -0.00635401 -0.00510259 0.00118627
v -0.00627019 -0.00518513 0.00117423
v -0.00591602 -0.00550717 0.00116258
v -0.00554450 -0.00580412 0.00121870
v -0.00521678 -0.00603602 0.00133122
v -0.00728602 -0.00396678 0.01730000
v -0.00696382 -0.00441266 0.00139211
v -0.00667141 -0.00476486 0.00126591
v -0.00773983 -0.00319060 0.00212582
v -0.00753374 -0.00356976 0.00184354
v -0.00728602 -0.00396678 0.00160496
v -0.00840589 -0.00126318 0.01730000
v -0.00797910 -0.00267013 0.01730000
v -0.00790463 -0.00284369 0.00246888
v -0.00848116 -0.00081387 0.00226880
v -0.00845567 -0.00098579 0.00226880
v -0.00855000 0.00020000 0.00226880
v -0.00852095 -0.00045945 0.00226880
v -0.00855000 0.00020000 0.01730000
v -0.00850328 -0.00063584 0.00226880
v -0.00849135 -0.00073614 0.00226880
v -0.00802764 -0.00255000 0.00226880
v -0.00840589 -0.00126318 0.00226880
v -0.00842863 -0.00114379 0.00226880
v -0.00842863 0.00154379 0.00226880
v -0.00845567 0.00138579 0.00226880
v -0.00840589 0.00166318 0.01730000
v -0.00848116 0.00121387 0.00226880
v -0.00849135 0.00113614 0.00226880
v -0.00850328 0.00103584 0.00226880
v -0.00852095 0.00085945 0.00226880
v -0.00802764 0.00295000 0.00315947
v -0.00797910 0.00307013 0.01730000
v -0.00840589 0.00166318 0.00226880
v -0.00802764 0.00295000 0.00226880
v -0.00728602 0.00436678 0.01730000
v -0.00728602 0.00436678 0.00160496
v -0.00753943 0.00395995 0.00185008
v -0.00801453 0.00298304 0.00293084
v -0.00797910 0.00307013 0.00272148
v -0.00790612 0.00324032 0.00247295
v -0.00774221 0.00358591 0.00212977
v -0.00697530 0.00479792 0.00139823
v -0.00635330 0.00550330 0.01730000
v -0.00667955 0.00515562 0.00126869
v -0.00521678 0.00643602 0.01730000
v -0.00521678 0.00643602 0.00133122
v -0.00556556 0.00618830 0.00121358
v -0.00593541 0.00589058 0.00116159
v -0.00628912 0.00556671 0.00117663
v -0.00635330 0.00550330 0.00118616
v -0.00392013 0.00712910 0.01730000
v -0.00392013 0.00712910 0.00217306
v -0.00490408 0.00663398 0.00150490
v -0.00105000 0.00770000 0.01730000
v -0.00105000 0.00770000 0.00385973
v -0.00251318 0.00755589 0.01730000
v -0.00134425 0.00769423 0.00376736
v -0.00181056 0.00766134 0.00356677
v -0.00224713 0.00760384 0.00330914
v -0.00251318 0.00755589 0.00312848
v -0.00322713 0.00737705 0.00264365
v 0.00041318 0.00755589 0.01730000
v 0.00003073 0.00762173 0.00399988
v -0.00035524 0.00766775 0.00398420
v 0.00172685 0.00716700 0.00387372
v 0.00119906 0.00735484 0.00388297
v 0.00182013 0.00712910 0.01730000
v 0.00065653 0.00750327 0.00394575
v 0.00041318 0.00755589 0.00397860
v 0.00279079 0.00664192 0.00401082
v 0.00231458 0.00690295 0.00392328
v 0.00182042 0.00712898 0.00387737
v 0.00311678 0.00643602 0.00409631
v 0.00311678 0.00643602 0.01730000
v 0.00380788 0.00591410 0.00435184
v 0.00425330 0.00550330 0.01730000
v 0.00425330 0.00550330 0.00457616
v 0.00587910 0.00307013 0.00664967
v 0.00555000 0.00376230 0.00664967
v 0.00518602 0.00436678 0.01730000
v 0.00473943 0.00496786 0.00488380
v 0.00518602 0.00436678 0.00523637
v 0.00555000 0.00376230 0.00558647
v 0.00587910 0.00307013 0.01730000
v 0.00630589 0.00166318 0.01730000
v 0.00630589 0.00166318 0.00664967
v 0.00645000 0.00020000 0.01730000
v 0.00645000 0.00020000 0.00664967
v 0.00630589 -0.00126318 0.01730000
v 0.00630589 -0.00126318 0.00664967
v 0.00587910 -0.00267013 0.01730000
v 0.00518602 -0.00396678 0.01730000
v 0.00555000 -0.00336230 0.00664967
v 0.00587910 -0.00267013 0.00664967
v 0.00555000 -0.00336230 0.00558647
v 0.00518602 -0.00396678 0.00523637
v 0.00473943 -0.00456786 0.00488380
v 0.00425330 -0.00510330 0.01730000
v 0.00311678 -0.00603602 0.01730000
v 0.00380788 -0.00551410 0.00435184
v 0.00425330 -0.00510330 0.00457616
v 0.00231667 -0.00650190 0.00392357
v 0.00279079 -0.00624192 0.00401082
v 0.00311678 -0.00603602 0.00409631
v 0.00041318 -0.00715589 0.01730000
v -0.00105000 -0.00730000 0.01730000
v -0.00035524 -0.00726775 0.00398419
v 0.00002890 -0.00722199 0.00399990
v 0.00041415 -0.00715570 0.00397850
v 0.00065653 -0.00710327 0.00394575
v -0.00224713 -0.00720384 0.00330914
v -0.00180994 -0.00726140 0.00356709
v -0.00251318 -0.00715589 0.01730000
v -0.00134425 -0.00729423 0.00376736
v -0.00105000 -0.00730000 0.00385973
v -0.00392013 -0.00672910 0.00217307
v -0.00322714 -0.00697705 0.00264365
v -0.00251230 -0.00715606 0.00312907
v 0.00086603 0.00650000 0.00000000
v 0.00043301 0.00650000 -0.00075000
v 0.00000000 0.00643438 0.00000000
v -0.00043301 0.00650000 -0.00075000
v -0.00086603 0.00650000 0.00000000
v -0.00043301 0.00650000 0.00075000
v 0.00043301 0.00650000 0.00075000
v 0.00086603 0.00750000 0.00000000
v 0.00043301 0.00750000 -0.00075000
v -0.00043301 0.00750000 -0.00075000
v -0.00086603 0.00750000 0.00000000
v -0.00043301 0.00750000 0.00075000
v 0.00043301 0.00750000 0.00075000
v -0.00023148 0.00750000 -0.00168417
v -0.00067728 0.00750000 -0.00155926
v -0.00107285 0.00750000 -0.00131871
v -0.00138885 0.00750000 -0.00098036
v -0.00160184 0.00750000 -0.00056930
v -0.00169604 0.00750000 -0.00011601
v -0.00166444 0.00750000 0.00034588
v -0.00088329 0.00750000 0.00145251
v -0.00124242 0.00750000 0.00116034
v -0.00150940 0.00750000 0.00078211
v 0.00023148 0.00750000 -0.00168417
v -0.00000000 0.00750000 -0.00170000
v 0.00138885 0.00750000 -0.00098036
v 0.00107285 0.00750000 -0.00131871
v 0.00067728 0.00750000 -0.00155926
v 0.00160184 0.00750000 -0.00056930
v 0.00169604 0.00750000 -0.00011601
v 0.00088329 0.00750000 0.00145251
v 0.00124242 0.00750000 0.00116034
v 0.00150940 0.00750000 0.00078211
v 0.00166444 0.00750000 0.00034588
v -0.00045865 0.00750000 0.00163696
v 0.00000000 0.00750000 0.00170000
v 0.00045865 0.00750000 0.00163696
v -0.00175537 0.00730000 -0.00072710
v -0.00177865 0.00736922 -0.00063213
v -0.00155224 0.00730000 -0.00109569
v -0.00154214 0.00736922 -0.00108856
v -0.00134350 0.00730000 -0.00134350
v -0.00119127 0.00736922 -0.00146426
v -0.00119907 0.00730000 -0.00147385
v -0.00075204 0.00736922 -0.00173136
v -0.00075696 0.00730000 -0.00174270
v -0.00072710 0.00730000 -0.00175537
v -0.00025703 0.00736922 -0.00187006
v -0.00025872 0.00730000 -0.00188230
v -0.00000000 0.00730000 -0.00190000
v 0.00025703 0.00736922 -0.00187006
v 0.00025872 0.00730000 -0.00188230
v 0.00072710 0.00730000 -0.00175537
v 0.00075204 0.00736922 -0.00173136
v 0.00075696 0.00730000 -0.00174270
v 0.00119127 0.00736922 -0.00146426
v 0.00119907 0.00730000 -0.00147385
v 0.00190000 0.00730000 0.00000000
v 0.00189557 0.00730000 -0.00012966
v 0.00188324 0.00736922 -0.00012882
v 0.00179030 0.00730000 -0.00063627
v 0.00177865 0.00736922 -0.00063213
v 0.00175537 0.00730000 -0.00072710
v 0.00154214 0.00736922 -0.00108856
v 0.00155224 0.00730000 -0.00109569
v 0.00134350 0.00730000 -0.00134350
v 0.00186026 0.00730000 0.00038657
v 0.00184816 0.00736922 0.00038405
v 0.00175537 0.00730000 0.00072710
v 0.00167601 0.00736922 0.00086844
v 0.00168698 0.00730000 0.00087412
v 0.00137955 0.00736922 0.00128841
v 0.00138859 0.00730000 0.00129685
v -0.00072710 0.00730000 0.00175537
v -0.00051261 0.00730000 0.00182954
v -0.00050928 0.00736922 0.00181764
v 0.00000000 0.00730000 0.00190000
v 0.00000000 0.00736922 0.00188764
v 0.00051261 0.00730000 0.00182954
v 0.00050928 0.00736922 0.00181764
v 0.00072710 0.00730000 0.00175537
v 0.00098079 0.00736922 0.00161284
v 0.00098721 0.00730000 0.00162340
v 0.00134350 0.00730000 0.00134350
v -0.00098721 0.00730000 0.00162340
v -0.00098079 0.00736922 0.00161284
v -0.00134350 0.00730000 0.00134350
v -0.00137955 0.00736922 0.00128841
v -0.00138859 0.00730000 0.00129685
v -0.00167601 0.00736922 0.00086844
v -0.00168698 0.00730000 0.00087412
v -0.00179030 0.00730000 -0.00063627
v -0.00189557 0.00730000 -0.00012966
v -0.00188324 0.00736922 -0.00012882
v -0.00190000 0.00730000 0.00000000
v -0.00184816 0.00736922 0.00038405
v -0.00186026 0.00730000 0.00038657
v -0.00175537 0.00730000 0.00072710
v 0.00024091 0.00748764 -0.00175274
v 0.00070486 0.00748764 -0.00162275
v 0.00111654 0.00748764 -0.00137241
v 0.00144540 0.00748764 -0.00102028
v 0.00166707 0.00748764 -0.00059248
v 0.00176510 0.00748764 -0.00012074
v 0.00173222 0.00748764 0.00035996
v 0.00157087 0.00748764 0.00081396
v 0.00129301 0.00748764 0.00120759
v 0.00091926 0.00748764 0.00151166
v 0.00047733 0.00748764 0.00170362
v 0.00000000 0.00748764 0.00176922
v -0.00047733 0.00748764 0.00170362
v -0.00091926 0.00748764 0.00151166
v -0.00129301 0.00748764 0.00120759
v -0.00157087 0.00748764 0.00081396
v -0.00173222 0.00748764 0.00035996
v -0.00176510 0.00748764 -0.00012074
v -0.00166707 0.00748764 -0.00059248
v -0.00144540 0.00748764 -0.00102028
v -0.00111654 0.00748764 -0.00137241
v -0.00070486 0.00748764 -0.00162275
v -0.00024091 0.00748764 -0.00175274
v 0.00000000 0.00744142 0.00184142
v 0.00049681 0.00744142 0.00177314
v 0.00095677 0.00744142 0.00157335
v 0.00134578 0.00744142 0.00125687
v 0.00163497 0.00744142 0.00084717
v 0.00180291 0.00744142 0.00037465
v 0.00183713 0.00744142 -0.00012566
v 0.00173510 0.00744142 -0.00061665
v 0.00150439 0.00744142 -0.00106191
v 0.00116210 0.00744142 -0.00142841
v 0.00073362 0.00744142 -0.00168897
v 0.00025074 0.00744142 -0.00182427
v -0.00025074 0.00744142 -0.00182427
v -0.00073362 0.00744142 -0.00168897
v -0.00116210 0.00744142 -0.00142841
v -0.00150439 0.00744142 -0.00106191
v -0.00173510 0.00744142 -0.00061665
v -0.00183713 0.00744142 -0.00012566
v -0.00180291 0.00744142 0.00037465
v -0.00163497 0.00744142 0.00084717
v -0.00134578 0.00744142 0.00125687
v -0.00095677 0.00744142 0.00157335
v -0.00049681 0.00744142 0.00177314
v -0.00190000 0.00550000 0.00000000
v -0.00175537 0.00550000 -0.00072710
v -0.00134350 0.00550000 -0.00134350
v -0.00072710 0.00550000 -0.00175537
v 0.00000000 0.00550000 -0.00190000
v 0.00072710 0.00550000 -0.00175537
v 0.00134350 0.00550000 -0.00134350
v 0.00175537 0.00550000 -0.00072710
v 0.00190000 0.00550000 0.00000000
v 0.00175537 0.00550000 0.00072710
v 0.00134350 0.00550000 0.00134350
v 0.00072710 0.00550000 0.00175537
v -0.00000000 0.00550000 0.00190000
v -0.00072710 0.00550000 0.00175537
v -0.00134350 0.00550000 0.00134350
v -0.00175537 0.00550000 0.00072710
v -0.00083723 0.00550000 -0.00048337
v -0.00048337 0.00550000 -0.00083723
v 0.00000000 0.00550000 -0.00096675
v 0.00048338 0.00550000 -0.00083723
v 0.00083723 0.00550000 -0.00048337
v -0.00048337 0.00550000 0.00083723
v -0.00083723 0.00550000 0.00048338
v -0.00096675 0.00550000 0.00000000
v 0.00048338 0.00550000 0.00083723
v -0.00000000 0.00550000 0.00096675
v 0.00096675 0.00550000 0.00000000
v 0.00083723 0.00550000 0.00048338
v -0.00083723 0.00520000 0.00048337
v -0.00048338 0.00520000 0.00083723
v -0.00000000 0.00520000 0.00096675
v 0.00048338 0.00520000 0.00083723
v 0.00083723 0.00520000 0.00048337
v 0.00096675 0.00520000 0.00000000
v 0.00083723 0.00520000 -0.00048337
v 0.00048338 0.00520000 -0.00083723
v 0.00000000 0.00520000 -0.00096675
v -0.00048337 0.00520000 -0.00083723
v -0.00083723 0.00520000 -0.00048337
v -0.00096675 0.00520000 0.00000000
v 0.00046353 0.00520000 -0.00142658
v -0.00015679 0.00520000 -0.00149178
v -0.00075000 0.00520000 -0.00129904
v -0.00121353 0.00520000 -0.00088168
v 0.00100370 0.00520000 0.00111472
v 0.00137032 0.00520000 0.00061010
v 0.00150000 0.00520000 0.00000000
v 0.00137032 0.00520000 -0.00061010
v 0.00100370 0.00520000 -0.00111472
v -0.00146722 0.00520000 -0.00031187
v -0.00146722 0.00520000 0.00031187
v -0.00121353 0.00520000 0.00088168
v -0.00075000 0.00520000 0.00129904
v -0.00015679 0.00520000 0.00149178
v 0.00046353 0.00520000 0.00142658
v 0.00100370 -0.00690000 -0.00111472
v 0.00137032 -0.00690000 -0.00061010
v 0.00000000 -0.00690000 -0.00000000
v 0.00150000 -0.00690000 -0.00000000
v 0.00137032 -0.00690000 0.00061010
v -0.00075000 -0.00690000 -0.00129904
v -0.00015679 -0.00690000 -0.00149178
v 0.00046353 -0.00690000 -0.00142658
v -0.00146722 -0.00690000 0.00031187
v -0.00146722 -0.00690000 -0.00031187
v -0.00121353 -0.00690000 -0.00088168
v -0.00015679 -0.00690000 0.00149178
v -0.00075000 -0.00690000 0.00129904
v -0.00121353 -0.00690000 0.00088168
v 0.00100370 -0.00690000 0.00111472
v 0.00046353 -0.00690000 0.00142658
v 0.00150000 0.00295000 -0.00000000
v 0.00137032 0.00295000 0.00061010
v 0.00100370 0.00295000 0.00111472
v 0.00046353 0.00295000 0.00142658
v -0.00015679 0.00295000 0.00149178
v -0.00075000 0.00295000 0.00129904
v -0.00121353 0.00295000 0.00088168
v -0.00146722 0.00295000 0.00031187
v -0.00146722 0.00295000 -0.00031187
v -0.00121353 0.00295000 -0.00088168
v -0.00075000 0.00295000 -0.00129904
v -0.00015679 0.00295000 -0.00149178
v 0.00046353 0.00295000 -0.00142658
v 0.00100370 0.00295000 -0.00111472
v 0.00137032 0.00295000 -0.00061010
v 0.00137032 -0.00255000 0.00061010
v 0.00100370 -0.00255000 0.00111472
v 0.00046353 -0.00255000 0.00142658
v -0.00015679 -0.00255000 0.00149178
v -0.00075000 -0.00255000 0.00129904
v -0.00121353 -0.00255000 0.00088168
v -0.00146722 -0.00255000 0.00031187
v -0.00146722 -0.00255000 -0.00031187
v -0.00121353 -0.00255000 -0.00088168
v -0.00075000 -0.00255000 -0.00129904
v -0.00015679 -0.00255000 -0.00149178
v 0.00046353 -0.00255000 -0.00142658
v 0.00100370 -0.00255000 -0.00111472
v 0.00137032 -0.00255000 -0.00061010
v 0.00150000 -0.00255000 -0.00000000
v -0.00674312 0.00295000 -0.00176554
v -0.00709208 0.00295000 -0.00122128
v 0.00555000 0.00295000 0.00558647
v -0.00556556 0.00295000 0.00121358
v -0.00490408 0.00295000 0.00150490
v -0.00224713 0.00295000 0.00330914
v -0.00134425 0.00295000 0.00376736
v -0.00064685 0.00295000 -0.00469718
v -0.00129334 0.00295000 -0.00470459
v -0.00193877 0.00295000 -0.00465200
v -0.00258170 0.00295000 -0.00453864
v -0.00297536 0.00295000 -0.00443794
v -0.00358785 0.00295000 -0.00423094
v 0.00163620 0.00295000 -0.00417105
v 0.00102861 0.00295000 -0.00439203
v 0.00040216 0.00295000 -0.00455605
v -0.00024206 0.00295000 -0.00466190
v 0.00380788 0.00295000 0.00435184
v 0.00473943 0.00295000 0.00488380
v -0.00035524 0.00295000 0.00398419
v 0.00065653 0.00295000 0.00394575
v 0.00172685 0.00295000 0.00387372
v 0.00279079 0.00295000 0.00401082
v -0.00763430 0.00295000 -0.00004084
v -0.00697530 0.00295000 0.00139823
v -0.00738962 0.00295000 -0.00064611
v -0.00628739 0.00295000 0.00117641
v -0.00417949 0.00295000 -0.00396768
v -0.00474866 0.00295000 -0.00364789
v -0.00508680 0.00295000 -0.00342257
v -0.00559625 0.00295000 -0.00302450
v -0.00606739 0.00295000 -0.00258024
v -0.00649863 0.00295000 -0.00209008
v 0.00257937 0.00295000 -0.00369065
v 0.00200650 0.00295000 -0.00400377
v 0.00391046 0.00295000 -0.00263846
v 0.00361641 0.00295000 -0.00291888
v 0.00353705 0.00295000 -0.00298918
v 0.00311622 0.00295000 -0.00332852
v 0.00555000 0.00295000 0.00000441
v 0.00550525 0.00295000 -0.00012205
v 0.00525517 0.00295000 -0.00071989
v -0.00775758 0.00295000 0.00034634
v -0.00790672 0.00295000 0.00097543
v -0.00753943 0.00295000 0.00185008
v -0.00799710 0.00295000 0.00161666
v -0.00790612 0.00295000 0.00247295
v 0.00507051 0.00295000 -0.00108184
v 0.00473411 0.00295000 -0.00163395
v 0.00434739 0.00295000 -0.00215337
v 0.00555000 -0.00255000 0.00558647
v 0.00555000 0.00265483 -0.00031263
v 0.00555000 -0.00255000 0.00000441
v 0.00555000 -0.00225483 -0.00031263
v 0.00555000 -0.00187571 -0.00062626
v 0.00555000 0.00093334 -0.00121719
v 0.00555000 0.00140668 -0.00108289
v 0.00555000 0.00185700 -0.00088465
v 0.00555000 0.00227571 -0.00062626
v 0.00555000 -0.00145700 -0.00088465
v 0.00555000 -0.00100668 -0.00108289
v 0.00555000 -0.00053334 -0.00121719
v 0.00555000 -0.00004601 -0.00128499
v 0.00555000 0.00044601 -0.00128499
v -0.00790463 -0.00255000 0.00246888
v 0.00279079 -0.00255000 0.00401082
v 0.00473943 -0.00255000 0.00488380
v 0.00380788 -0.00255000 0.00435184
v 0.00501590 -0.00255000 -0.00117972
v 0.00530948 -0.00255000 -0.00060252
v 0.00302577 -0.00255000 -0.00339472
v 0.00353248 -0.00255000 -0.00299317
v 0.00400056 -0.00255000 -0.00254568
v 0.00442842 -0.00255000 -0.00205258
v 0.00467067 -0.00255000 -0.00172636
v -0.00181035 -0.00255000 -0.00466728
v -0.00140532 -0.00255000 -0.00469978
v 0.00172684 -0.00255000 0.00387372
v 0.00065653 -0.00255000 0.00394575
v 0.00212223 -0.00255000 -0.00394605
v 0.00268919 -0.00255000 -0.00362236
v -0.00011375 -0.00255000 -0.00464573
v 0.00052840 -0.00255000 -0.00452797
v 0.00092135 -0.00255000 -0.00442456
v 0.00153241 -0.00255000 -0.00421337
v -0.00435621 -0.00255000 -0.00387582
v -0.00406337 -0.00255000 -0.00402461
v -0.00075880 -0.00255000 -0.00470275
v -0.00641691 -0.00255000 -0.00219032
v -0.00597666 -0.00255000 -0.00267240
v -0.00714737 -0.00255000 -0.00112377
v -0.00680718 -0.00255000 -0.00167357
v -0.00627019 -0.00255000 0.00117423
v -0.00568069 -0.00255000 -0.00295079
v -0.00517770 -0.00255000 -0.00335699
v -0.00463837 -0.00255000 -0.00371542
v -0.00554450 -0.00255000 0.00121870
v -0.00369193 -0.00255000 -0.00418934
v -0.00308284 -0.00255000 -0.00440615
v -0.00245528 -0.00255000 -0.00456586
v -0.00035524 -0.00255000 0.00398419
v -0.00134425 -0.00255000 0.00376736
v -0.00224713 -0.00255000 0.00330914
v -0.00490408 -0.00255000 0.00150490
v -0.00753374 -0.00255000 0.00184354
v -0.00798382 -0.00255000 0.00148802
v -0.00696382 -0.00255000 0.00139211
v -0.00792661 -0.00255000 0.00108573
v -0.00802635 -0.00255000 0.00213466
v -0.00778759 -0.00255000 0.00045433
v -0.00759036 -0.00255000 -0.00016247
v -0.00733451 -0.00255000 -0.00076310
v 0.00499145 0.00226722 -0.00166533
v 0.00499145 0.00170541 -0.00191265
v 0.00431587 0.00197498 -0.00266139
v -0.00847735 -0.00069634 0.00173871
v -0.00826082 0.00224786 0.00202316
v -0.00826082 0.00219448 0.00174333
v -0.00680324 0.00243805 -0.00199045
v -0.00607946 0.00278795 -0.00265634
v -0.00029545 0.00272764 -0.00475199
v 0.00499145 0.00278958 -0.00134296
v 0.00499145 -0.00238958 -0.00134296
v 0.00431587 -0.00223738 -0.00236979
v -0.00741558 -0.00211096 -0.00095437
v -0.00741558 -0.00164480 -0.00124205
v -0.00826082 -0.00179448 0.00174333
v -0.00826082 -0.00184786 0.00202316
v -0.00826082 -0.00157531 0.00121889
v -0.00826082 -0.00170305 0.00147352
v -0.00790459 -0.00189750 0.00006313
v -0.00790459 -0.00218141 0.00037318
v -0.00790459 -0.00241990 0.00071940
v -0.00741558 -0.00253304 -0.00060519
v -0.00680324 -0.00203805 -0.00199045
v -0.00607946 -0.00238795 -0.00265634
v -0.00607946 -0.00168463 -0.00296596
v -0.00525823 -0.00190292 -0.00357229
v -0.00435549 -0.00208048 -0.00406548
v -0.00237662 -0.00230047 -0.00467653
v -0.00338871 -0.00221385 -0.00443595
v -0.00133883 -0.00233864 -0.00478256
v -0.00029545 -0.00232764 -0.00475199
v 0.00073332 -0.00226766 -0.00458541
v 0.00172754 -0.00215989 -0.00428605
v 0.00266795 -0.00200639 -0.00385971
v 0.00353633 -0.00181016 -0.00331463
v 0.00431587 0.00263738 -0.00236979
v 0.00353633 0.00221016 -0.00331463
v 0.00266795 0.00240639 -0.00385971
v 0.00172754 0.00255989 -0.00428605
v 0.00073332 0.00266767 -0.00458541
v -0.00133883 0.00273864 -0.00478256
v -0.00237662 0.00270047 -0.00467653
v -0.00338871 0.00261385 -0.00443595
v -0.00435549 0.00248048 -0.00406548
v -0.00525823 0.00230292 -0.00357229
v -0.00607946 0.00208463 -0.00296595
v -0.00741558 0.00293304 -0.00060520
v -0.00790459 0.00281990 0.00071940
v -0.00826082 0.00197531 0.00121889
v -0.00826082 0.00210305 0.00147352
v -0.00847735 0.00109634 0.00173871
v -0.00847735 0.00101475 0.00162026
v -0.00847735 0.00091761 0.00151419
v -0.00847735 0.00080679 0.00142250
v -0.00847735 0.00068439 0.00134697
v -0.00847735 0.00055275 0.00128902
v -0.00847735 0.00041438 0.00124976
v -0.00847735 0.00027192 0.00122994
v -0.00847735 0.00012808 0.00122994
v -0.00847735 -0.00001438 0.00124976
v -0.00847735 -0.00015275 0.00128902
v -0.00847735 -0.00028439 0.00134697
v -0.00847735 -0.00040679 0.00142250
v -0.00847735 -0.00061475 0.00162026
v -0.00847735 -0.00051761 0.00151419
v 0.00499145 -0.00186722 -0.00166533
v 0.00499145 -0.00130541 -0.00191265
v 0.00499145 -0.00071489 -0.00208019
v 0.00499145 -0.00010692 -0.00216477
v 0.00499145 0.00050692 -0.00216477
v 0.00499145 0.00111489 -0.00208019
v 0.00431587 -0.00157498 -0.00266139
v 0.00431587 -0.00087871 -0.00285894
v 0.00353633 -0.00102164 -0.00353835
v 0.00266795 -0.00114090 -0.00410527
v 0.00172754 -0.00123418 -0.00454870
v 0.00073332 -0.00129968 -0.00486005
v -0.00029545 -0.00133613 -0.00503331
v -0.00133883 -0.00134282 -0.00506510
v -0.00237662 -0.00131962 -0.00495482
v -0.00338871 -0.00126698 -0.00470460
v -0.00435549 -0.00118592 -0.00431928
v -0.00525823 -0.00107802 -0.00380634
v -0.00607946 -0.00094535 -0.00317570
v 0.00431587 -0.00016187 -0.00295867
v 0.00353633 -0.00020982 -0.00365129
v 0.00266795 -0.00024983 -0.00422923
v 0.00172754 -0.00028112 -0.00468128
v 0.00073332 -0.00030309 -0.00499870
v -0.00029545 -0.00031532 -0.00517532
v -0.00133883 -0.00031756 -0.00520774
v -0.00237662 -0.00030978 -0.00509531
v -0.00338871 -0.00029212 -0.00484022
v -0.00435549 -0.00026493 -0.00444741
v -0.00525823 -0.00022873 -0.00392449
v -0.00607946 -0.00018423 -0.00328159
v 0.00431587 0.00056187 -0.00295867
v 0.00353633 0.00060982 -0.00365129
v 0.00266795 0.00064983 -0.00422923
v 0.00172754 0.00068112 -0.00468128
v 0.00073332 0.00070309 -0.00499870
v -0.00029545 0.00071532 -0.00517532
v -0.00133883 0.00071756 -0.00520774
v -0.00237662 0.00070978 -0.00509531
v -0.00338871 0.00069212 -0.00484022
v -0.00435549 0.00066493 -0.00444741
v -0.00525823 0.00062873 -0.00392449
v -0.00607946 0.00058423 -0.00328159
v 0.00431587 0.00127871 -0.00285894
v 0.00353633 0.00142164 -0.00353835
v 0.00266795 0.00154090 -0.00410527
v 0.00172754 0.00163418 -0.00454870
v 0.00073332 0.00169968 -0.00486005
v -0.00029545 0.00173613 -0.00503331
v -0.00133883 0.00174282 -0.00506510
v -0.00237662 0.00171962 -0.00495482
v -0.00338871 0.00166698 -0.00470460
v -0.00435549 0.00158592 -0.00431928
v -0.00525823 0.00147802 -0.00380634
v -0.00607946 0.00134535 -0.00317570
v -0.00680324 -0.00142982 -0.00225820
v -0.00680324 -0.00079050 -0.00243960
v -0.00680324 -0.00013228 -0.00253117
v -0.00680324 0.00053228 -0.00253117
v -0.00680324 0.00119050 -0.00243960
v -0.00680324 0.00182982 -0.00225821
v -0.00741558 -0.00114344 -0.00146275
v -0.00741558 -0.00061646 -0.00161228
v -0.00741558 -0.00007389 -0.00168775
v -0.00741558 0.00047389 -0.00168775
v -0.00741558 0.00101646 -0.00161228
v -0.00741558 0.00154344 -0.00146275
v -0.00741558 0.00204480 -0.00124205
v -0.00741558 0.00251096 -0.00095437
v -0.00790459 -0.00157357 -0.00020485
v -0.00790459 -0.00121581 -0.00042563
v -0.00790459 -0.00083104 -0.00059502
v -0.00790459 -0.00042660 -0.00070977
v -0.00790459 -0.00001020 -0.00076769
v -0.00790459 0.00041020 -0.00076769
v -0.00790459 0.00082660 -0.00070977
v -0.00790459 0.00123104 -0.00059502
v -0.00790459 0.00161581 -0.00042563
v -0.00790459 0.00197357 -0.00020485
v -0.00790459 0.00229750 0.00006313
v -0.00790459 0.00258141 0.00037318
v -0.00826082 -0.00141371 0.00098428
v -0.00826082 -0.00122132 0.00077418
v -0.00826082 -0.00100182 0.00059259
v -0.00826082 -0.00075939 0.00044298
v -0.00826082 -0.00049866 0.00032820
v -0.00826082 -0.00022460 0.00025044
v -0.00826082 0.00005756 0.00021119
v -0.00826082 0.00034244 0.00021119
v -0.00826082 0.00062460 0.00025044
v -0.00826082 0.00089866 0.00032820
v -0.00826082 0.00115939 0.00044298
v -0.00826082 0.00140182 0.00059259
v -0.00826082 0.00162132 0.00077418
v -0.00826082 0.00181371 0.00098428
v -0.00105000 0.00020000 0.01730000
vn 0.16417325 -0.67999299 -0.71460246
vn 0.28627195 -0.64965468 -0.70427066
vn 0.27795544 -0.67229939 0.68611537
vn -0.94432118 -0.32900156 -0.00393409
vn -0.98470113 0.14916461 -0.09007555
vn -0.98118104 -0.14317562 -0.12955506
vn -0.27844525 -0.67177602 0.68642932
vn -0.40454584 -0.60473067 0.68603461
vn 0.02336307 -0.71466888 -0.69907265
vn -0.51409359 -0.51479135 0.68607409
vn -0.58689746 -0.46693953 -0.66145208
vn -0.51709425 -0.50154982 -0.69358584
vn -0.39740101 -0.55001933 -0.73454147
vn -0.24852960 -0.60986228 -0.75252975
vn -0.09295649 -0.66477807 -0.74123492
vn -0.60516310 -0.40376949 0.68611065
vn -0.74197840 -0.37371756 -0.55659971
vn -0.65679036 -0.42218506 -0.62480893
vn -0.92358458 -0.23162128 -0.30552103
vn -0.87676539 -0.27865629 -0.39196061
vn -0.81719452 -0.32142665 -0.47841198
vn -0.71331367 -0.14225037 0.68625683
vn -0.67227864 -0.27867221 0.68584491
vn -0.95446272 -0.21000726 -0.21189115
vn -0.98827760 -0.14956156 -0.03063861
vn -0.98551510 -0.15567887 -0.06726124
vn -0.99956490 -0.00000001 -0.02949586
vn -0.99730714 -0.06932579 -0.02392485
vn -0.72710107 0.00000000 0.68653043
vn -0.99395892 -0.10840743 -0.01713172
vn -0.99211966 -0.12412053 -0.01710761
vn -0.59425963 -0.80426135 0.00437871
vn -0.97482729 -0.21676074 -0.05221619
vn -0.98062816 -0.17354645 -0.09082978
vn -0.98295997 0.17667010 -0.05076780
vn -0.98639477 0.15580843 -0.05243182
vn -0.71331367 0.14225039 0.68625683
vn -0.98852223 0.14806686 -0.03000004
vn -0.99211968 0.12412042 -0.01710759
vn -0.99402994 0.10750294 -0.01864384
vn -0.99723008 0.07013245 -0.02477120
vn -0.94432015 0.32900454 -0.00393220
vn -0.67220501 0.27837339 0.68603840
vn -0.97482717 0.21676072 -0.05221852
vn -0.59684092 0.80234733 -0.00443547
vn -0.60489293 0.40389301 0.68627617
vn -0.82003611 0.31661442 -0.47675579
vn -0.87036659 0.26948596 -0.41211566
vn -0.98536463 -0.14482251 -0.08990541
vn -0.98145861 0.13912770 -0.13184260
vn -0.95027972 0.19940787 -0.23917557
vn -0.92602434 0.22552811 -0.30268135
vn -0.73585093 0.36623381 -0.56955790
vn -0.51412418 0.51464162 0.68616349
vn -0.66052854 0.41762895 -0.62392957
vn -0.40422350 0.60517819 0.68582995
vn -0.09634789 0.66098662 -0.74418665
vn -0.24681849 0.60503315 -0.75697789
vn -0.40715127 0.54363854 -0.73395162
vn -0.51244203 0.49570799 -0.70119666
vn -0.58956936 0.46353076 -0.66147351
vn -0.27854217 0.67245210 0.68572766
vn 0.10823210 0.74438942 -0.65891593
vn 0.02357922 0.71501840 -0.69870789
vn -0.00048821 0.72753226 0.68607330
vn 0.16717945 0.72988006 -0.66281681
vn -0.14200022 0.71386048 0.68573986
vn 0.20441252 0.73119578 -0.65082121
vn 0.23547038 0.74140930 -0.62838360
vn 0.26662024 0.74107177 -0.61621935
vn 0.24979663 0.74395108 -0.61978902
vn 0.19089382 0.74825357 -0.63535513
vn 0.14201781 0.71327375 0.68634649
vn 0.10001301 0.71836040 -0.68844443
vn 0.13550170 0.72557609 -0.67466927
vn 0.25394825 0.65952949 -0.70748226
vn 0.15997004 0.68095886 -0.71463601
vn 0.27875487 0.67206368 0.68602196
vn 0.08435799 0.70134030 -0.70781743
vn 0.07849370 0.71440421 -0.69531674
vn 0.47879197 0.58200964 -0.65728459
vn 0.39225832 0.61505331 -0.68399038
vn 0.31750551 0.64117473 -0.69863096
vn 0.55498805 0.54479778 -0.62863634
vn 0.40362656 0.60519451 0.68616704
vn 0.64191042 0.49222709 -0.58793154
vn 0.51400318 0.51407010 0.68668236
vn 0.72048848 0.43644507 -0.53889893
vn 0.67483307 0.26269380 -0.68963200
vn 0.92527671 0.37267879 -0.07052325
vn 0.60514266 0.40354311 0.68626185
vn 0.78253529 0.38381503 -0.49022908
vn 0.83740198 0.32548786 -0.43910770
vn 0.92538802 0.19368947 -0.32579349
vn 0.67248048 0.27855043 0.68569648
vn 0.71390143 0.14200383 0.68569648
vn 0.71390136 0.14200380 -0.68569655
vn 0.72788761 -0.00000000 0.68569645
vn 0.72788709 -0.00000010 -0.68569701
vn 0.71390143 -0.14200384 0.68569648
vn 0.71390163 -0.14200392 -0.68569625
vn 0.67226781 -0.27761544 0.68628395
vn 0.60429414 -0.40390890 0.68679414
vn 0.92477304 -0.37361193 -0.07217311
vn 0.67442116 -0.26093963 -0.69070009
vn 0.92104730 -0.18800758 -0.34106454
vn 0.83845427 -0.32292865 -0.43898921
vn 0.77912203 -0.38043975 -0.49823133
vn 0.51400311 -0.51407006 0.68668245
vn 0.40383450 -0.60463022 0.68654205
vn 0.63983429 -0.49057744 -0.59156222
vn 0.72167985 -0.43440134 -0.53895609
vn 0.39244822 -0.61498320 -0.68394448
vn 0.47718911 -0.58175036 -0.65867828
vn 0.55667656 -0.54115599 -0.63028676
vn 0.14252751 -0.71333526 0.68617689
vn -0.00023037 -0.72715005 0.68647851
vn 0.13499976 -0.72523941 -0.67513174
vn 0.10054778 -0.71792237 -0.68882336
vn 0.07755385 -0.71932877 -0.69032711
vn 0.08870397 -0.70608466 -0.70254969
vn 0.26662089 -0.74107229 -0.61621843
vn 0.23544416 -0.74140421 -0.62839943
vn -0.14169543 -0.71324409 0.68644393
vn 0.20300000 -0.73015422 -0.65243070
vn 0.16965387 -0.72797340 -0.66428329
vn 0.10929331 -0.74397527 -0.65920845
vn 0.19038231 -0.74770987 -0.63614820
vn 0.25188176 -0.74265363 -0.62050073
vn -0.80928791 0.58741218 -0.00000041
vn -0.40464428 0.58741212 0.70086376
vn -0.00000000 1.00000000 -0.00000009
vn 0.40464429 0.58741212 0.70086375
vn 0.80928792 0.58741218 -0.00000044
vn 0.40464393 0.58741212 -0.70086396
vn -0.40464393 0.58741213 -0.70086395
vn -0.54470492 0.83862778 -0.00000029
vn -0.27235253 0.83862798 0.47172790
vn 0.27235248 0.83862800 0.47172789
vn 0.54470491 0.83862778 -0.00000030
vn 0.27235240 0.83862782 -0.47172826
vn -0.27235235 0.83862783 -0.47172827
vn -0.01619632 0.99557169 -0.09259958
vn -0.03818335 0.99539663 -0.08790665
vn -0.06048492 0.99539654 -0.07434582
vn -0.07830048 0.99539651 -0.05527042
vn -0.09030935 0.99539643 -0.03209615
vn -0.09561958 0.99539646 -0.00654059
vn -0.09383832 0.99539647 0.01949987
vn -0.04979910 0.99539633 0.08189137
vn -0.07004600 0.99539639 0.06541848
vn -0.08509733 0.99539649 0.04409388
vn 0.01619643 0.99557169 -0.09259963
vn -0.00000000 0.99337627 -0.11490685
vn 0.07830053 0.99539650 -0.05527049
vn 0.06048491 0.99539655 -0.07434576
vn 0.03818323 0.99539663 -0.08790675
vn 0.09030933 0.99539644 -0.03209608
vn 0.09561960 0.99539646 -0.00654059
vn 0.04979897 0.99539632 0.08189152
vn 0.07004586 0.99539641 0.06541840
vn 0.08509722 0.99539651 0.04409372
vn 0.09383833 0.99539646 0.01949992
vn -0.02585790 0.99539650 0.09228851
vn -0.00000003 0.99539645 0.09584309
vn 0.02585807 0.99539650 0.09228851
vn -0.88729645 0.15702878 -0.43364384
vn -0.87946971 0.37250148 -0.29626959
vn -0.82407264 0.09039522 -0.55922535
vn -0.76685698 0.36615724 -0.52712356
vn -0.71142264 0.17555771 -0.68048315
vn -0.57253717 0.37075437 -0.73126082
vn -0.59498623 0.08617108 -0.79910320
vn -0.37876712 0.36878955 -0.84884023
vn -0.45468728 0.08705340 -0.88638659
vn -0.31902837 0.10425140 -0.94199392
vn -0.13919073 0.36974236 -0.91864929
vn -0.16497254 0.08652341 -0.98249568
vn -0.00000000 0.18205087 -0.98328911
vn 0.13919124 0.36974272 -0.91864907
vn 0.16497253 0.08652340 -0.98249568
vn 0.31902837 0.10425149 -0.94199391
vn 0.37876665 0.36878996 -0.84884026
vn 0.45721182 0.08366913 -0.88541336
vn 0.57398445 0.37056746 -0.73022025
vn 0.59296836 0.08231638 -0.80100720
vn 0.98159441 0.18295755 0.05476275
vn 0.98910708 0.08451414 -0.12051785
vn 0.92472604 0.37223067 -0.07953658
vn 0.95641121 0.08474323 -0.27945694
vn 0.87997339 0.37290868 -0.29425490
vn 0.89331859 0.14096839 -0.42674326
vn 0.75791025 0.36252334 -0.54235495
vn 0.81413522 0.09437455 -0.57295488
vn 0.71542162 0.23195584 -0.65906630
vn 0.97728461 0.09170320 0.19106366
vn 0.91349500 0.36495462 0.17981939
vn 0.92281830 0.16736672 0.34697948
vn 0.81575891 0.37174963 0.44310227
vn 0.86111654 0.08346639 0.50150938
vn 0.68718588 0.37170416 0.62418875
vn 0.76899762 0.08422070 0.63367937
vn -0.39930545 0.25457977 0.88076348
vn -0.23188401 0.08659697 0.96888120
vn -0.23660107 0.36952242 0.89859508
vn -0.00000086 0.08756975 0.99615839
vn -0.00000150 0.35884750 0.93339620
vn 0.23188483 0.08659689 0.96888101
vn 0.23501885 0.36966985 0.89894958
vn 0.38652267 0.18043646 0.90445724
vn 0.49455283 0.36735030 0.78769998
vn 0.53866836 0.08910397 0.83779286
vn 0.65289999 0.13099155 0.74603138
vn -0.52401108 0.09573553 0.84631383
vn -0.48102326 0.36130109 0.79879794
vn -0.65769599 0.12325560 0.74313124
vn -0.68834030 0.37222549 0.62260406
vn -0.76899713 0.08422060 0.63367997
vn -0.81676014 0.37150808 0.44145739
vn -0.86111657 0.08346505 0.50150956
vn -0.95641070 0.08474767 -0.27945735
vn -0.98910722 0.08451295 -0.12051754
vn -0.92442504 0.37254253 -0.08155008
vn -0.98685451 0.15581791 0.04288300
vn -0.91036885 0.36374156 0.19728313
vn -0.97377160 0.09302882 0.20764032
vn -0.92079707 0.20803563 0.32993019
vn 0.05397240 0.92471100 -0.37682429
vn 0.15099051 0.92540002 -0.34761570
vn 0.23917819 0.92539929 -0.29398970
vn 0.30962524 0.92539997 -0.21855687
vn 0.35711070 0.92539934 -0.12691731
vn 0.37810952 0.92539952 -0.02586343
vn 0.37106620 0.92539945 0.07710856
vn 0.33650351 0.92539893 0.17436226
vn 0.27698328 0.92539861 0.25868452
vn 0.19691910 0.92539910 0.32381997
vn 0.10225044 0.92540047 0.36493672
vn 0.00000018 0.92539960 0.37899284
vn -0.10225072 0.92540047 0.36493665
vn -0.19691952 0.92539883 0.32382049
vn -0.27698312 0.92539866 0.25868451
vn -0.33650345 0.92539890 0.17436253
vn -0.37106620 0.92539946 0.07710841
vn -0.37810950 0.92539953 -0.02586348
vn -0.35711098 0.92539925 -0.12691722
vn -0.30962478 0.92540012 -0.21855691
vn -0.23917842 0.92539929 -0.29398953
vn -0.15099049 0.92540002 -0.34761571
vn -0.05397231 0.92471098 -0.37682436
vn -0.00000054 0.69792566 0.71617021
vn 0.19322198 0.69792144 0.68961651
vn 0.37211044 0.69792582 0.61190960
vn 0.52340604 0.69792194 0.48882622
vn 0.63587955 0.69792295 0.32948558
vn 0.70119345 0.69792306 0.14570912
vn 0.71450378 0.69792249 -0.04887266
vn 0.67482087 0.69792419 -0.23983038
vn 0.58509107 0.69792366 -0.41300242
vn 0.45196985 0.69791990 -0.55554574
vn 0.28532484 0.69792031 -0.65688430
vn 0.09751861 0.69792634 -0.70949908
vn -0.09751781 0.69792665 -0.70949888
vn -0.28532517 0.69792059 -0.65688385
vn -0.45197022 0.69791982 -0.55554554
vn -0.58509129 0.69792331 -0.41300272
vn -0.67482294 0.69792172 -0.23983174
vn -0.71450346 0.69792281 -0.04887281
vn -0.70119355 0.69792300 0.14570892
vn -0.63587918 0.69792340 0.32948534
vn -0.52340545 0.69792216 0.48882655
vn -0.37211127 0.69792605 0.61190884
vn -0.19322098 0.69792148 0.68961674
vn -0.74172771 -0.67069640 -0.00251927
vn -0.68636069 -0.67051537 -0.28163477
vn -0.52314833 -0.67169675 -0.52453723
vn -0.28435559 -0.67095031 -0.68481208
vn 0.00000005 -0.67192152 -0.74062235
vn 0.28757129 -0.66916307 -0.68521787
vn 0.52219699 -0.67017032 -0.52742966
vn 0.68636065 -0.67051541 -0.28163478
vn 0.74172772 -0.67069639 -0.00251926
vn 0.68426107 -0.67046955 0.28680546
vn 0.52708345 -0.66989601 0.52289805
vn 0.28299001 -0.67186540 0.68448049
vn -0.00000005 -0.67089538 0.74155201
vn -0.28299007 -0.67186543 0.68448044
vn -0.52708339 -0.66989604 0.52289807
vn -0.68426110 -0.67046952 0.28680545
vn -0.55228885 -0.77026164 -0.31886365
vn -0.31886354 -0.77026219 -0.55228815
vn -0.00000001 -0.77026136 -0.63772835
vn 0.31886357 -0.77026227 -0.55228802
vn 0.55228891 -0.77026158 -0.31886368
vn -0.31886302 -0.77026185 0.55228893
vn -0.55228737 -0.77026266 0.31886376
vn -0.63772768 -0.77026191 0.00000020
vn 0.31886339 -0.77026212 0.55228833
vn -0.00000003 -0.77026134 0.63772836
vn 0.63772773 -0.77026187 0.00000000
vn 0.55228684 -0.77026279 0.31886437
vn -0.55229014 0.77026064 0.31886384
vn -0.31886324 0.77026194 0.55228868
vn -0.00000005 0.77026134 0.63772836
vn 0.31886352 0.77026226 0.55228807
vn 0.55228960 0.77026078 0.31886444
vn 0.63772770 0.77026189 0.00000011
vn 0.55228891 0.77026159 -0.31886369
vn 0.31886366 0.77026216 -0.55228812
vn -0.00000000 0.77026136 -0.63772834
vn -0.31886354 0.77026219 -0.55228815
vn -0.55228885 0.77026164 -0.31886365
vn -0.63772765 0.77026193 0.00000031
vn 0.23128987 0.66316719 -0.71183866
vn -0.07823647 0.66316703 -0.74437124
vn -0.37423521 0.66316715 -0.64819545
vn -0.60552602 0.66316687 -0.43994084
vn 0.50082498 0.66316682 0.55622307
vn 0.68376268 0.66316708 0.30443064
vn 0.74847146 0.66316700 0.00000027
vn 0.68376279 0.66316705 -0.30443047
vn 0.50082499 0.66316684 -0.55622305
vn -0.73211554 0.66316707 -0.15561582
vn -0.73211553 0.66316709 0.15561575
vn -0.60552608 0.66316687 0.43994077
vn -0.37423523 0.66316715 0.64819544
vn -0.07823647 0.66316703 0.74437124
vn 0.23128986 0.66316719 0.71183866
vn 0.50082498 -0.66316685 -0.55622303
vn 0.68376263 -0.66316713 -0.30443066
vn 0.00000000 -1.00000000 0.00000000
vn 0.74847143 -0.66316704 -0.00000023
vn 0.68376278 -0.66316706 0.30443047
vn -0.37423520 -0.66316716 -0.64819545
vn -0.07823646 -0.66316704 -0.74437124
vn 0.23128988 -0.66316720 -0.71183864
vn -0.73211553 -0.66316709 0.15561575
vn -0.73211553 -0.66316707 -0.15561583
vn -0.60552601 -0.66316688 -0.43994084
vn -0.07823645 -0.66316702 0.74437125
vn -0.37423525 -0.66316712 0.64819545
vn -0.60552610 -0.66316686 0.43994075
vn 0.50082498 -0.66316683 0.55622306
vn 0.23128987 -0.66316719 0.71183866
vn 0.65337483 0.75703456 -0.00000021
vn 0.59688775 0.75703447 0.26575145
vn 0.43719251 0.75703482 0.48555225
vn 0.20190359 0.75703432 0.62139679
vn -0.06829615 0.75703455 0.64979560
vn -0.32668711 0.75703443 0.56583955
vn -0.52859100 0.75703479 0.38404411
vn -0.63909715 0.75703449 0.13584411
vn -0.63909711 0.75703450 -0.13584418
vn -0.52859102 0.75703473 -0.38404420
vn -0.32668720 0.75703443 -0.56583950
vn -0.06829634 0.75703450 -0.64979564
vn 0.20190361 0.75703431 -0.62139680
vn 0.43719270 0.75703477 -0.48555216
vn 0.59688781 0.75703442 -0.26575145
vn 0.59688777 -0.75703451 0.26575127
vn 0.43719265 -0.75703480 0.48555216
vn 0.20190357 -0.75703430 0.62139682
vn -0.06829619 -0.75703451 0.64979564
vn -0.32668716 -0.75703437 0.56583961
vn -0.52859108 -0.75703471 0.38404417
vn -0.63909719 -0.75703445 0.13584413
vn -0.63909715 -0.75703447 -0.13584415
vn -0.52859099 -0.75703475 -0.38404421
vn -0.32668710 -0.75703439 -0.56583962
vn -0.06829617 -0.75703452 -0.64979563
vn 0.20190372 -0.75703427 -0.62139681
vn 0.43719270 -0.75703484 -0.48555204
vn 0.59688763 -0.75703451 -0.26575160
vn 0.65337486 -0.75703454 -0.00000030
vn -0.48602896 0.80782874 -0.33344951
vn -0.51203890 0.80381864 -0.30280646
vn 0.97004954 0.14057523 -0.19809718
vn 0.15291304 0.74986086 -0.64368183
vn 0.33219700 0.72789579 -0.59984404
vn 0.36710367 0.69425387 -0.61906903
vn 0.24558374 0.68186763 -0.68901753
vn 0.01555052 0.79166881 -0.61075255
vn -0.01087261 0.81164245 -0.58405335
vn -0.07170245 0.80026756 -0.59534073
vn -0.13388015 0.80920151 -0.57207432
vn -0.16066441 0.80379085 -0.57280644
vn -0.22212194 0.80678207 -0.54750756
vn 0.21504081 0.81001254 -0.54556130
vn 0.19442938 0.79712587 -0.57165335
vn 0.11062034 0.79881315 -0.59132115
vn 0.08166329 0.81196449 -0.57796607
vn 0.27989587 0.72721037 -0.62675624
vn 0.39643096 0.72577889 -0.56221659
vn 0.06485846 0.68156248 -0.72887994
vn -0.03983570 0.70374084 -0.70933909
vn 0.02076703 0.72774174 -0.68553679
vn 0.15361432 0.72764017 -0.66853752
vn -0.55729605 0.80549463 -0.20149322
vn -0.31329277 0.74880876 -0.58406599
vn -0.54941923 0.78827802 -0.27704922
vn -0.08572340 0.74959804 -0.65631873
vn -0.26065561 0.80823051 -0.52803607
vn -0.31266548 0.80481874 -0.50448696
vn -0.34485562 0.80707864 -0.47926889
vn -0.38746087 0.80235202 -0.45398822
vn -0.42020487 0.81470321 -0.39960799
vn -0.45672380 0.80608580 -0.37633637
vn 0.31399526 0.80496968 -0.50341910
vn 0.26623259 0.80586166 -0.52887352
vn 0.42583835 0.79400800 -0.43383521
vn 0.40797123 0.80264591 -0.43510804
vn 0.38265801 0.80739359 -0.44909736
vn 0.35141640 0.79924582 -0.48755783
vn 0.70997719 0.70183033 -0.05802225
vn 0.54150121 0.81567717 -0.20358585
vn 0.53280452 0.80665753 -0.25577915
vn -0.60340388 0.77519774 -0.18700862
vn -0.58536115 0.80471454 -0.09892845
vn -0.49989820 0.74532168 -0.44113193
vn -0.59306861 0.80290722 -0.06008013
vn -0.62302942 0.73673714 -0.26277888
vn 0.52185601 0.80617815 -0.27882448
vn 0.48472489 0.80640555 -0.33875045
vn 0.46203330 0.80763897 -0.36639395
vn 0.96900447 -0.14457147 -0.20032331
vn 0.96255637 0.18397299 -0.19909589
vn 0.70973730 -0.70151233 -0.06444693
vn 0.96274208 -0.18525355 -0.19699950
vn 0.95830041 -0.16248380 -0.23507307
vn 0.95709179 0.05965591 -0.28357798
vn 0.95709185 0.09816036 -0.27265315
vn 0.95709158 0.13479389 -0.25652742
vn 0.95857371 0.16161898 -0.23455436
vn 0.95709158 -0.13479349 -0.25652764
vn 0.95709181 -0.09816069 -0.27265317
vn 0.95709179 -0.05965585 -0.28357799
vn 0.95709175 -0.02001273 -0.28909319
vn 0.95709176 0.02001270 -0.28909315
vn -0.63205621 -0.73098933 -0.25721496
vn 0.15472121 -0.72845755 -0.66739115
vn 0.39509782 -0.72819822 -0.56002238
vn 0.27953760 -0.72923156 -0.62456390
vn 0.51926529 -0.80734033 -0.28029477
vn 0.53432584 -0.80717961 -0.25091230
vn 0.35072324 -0.80372002 -0.48065303
vn 0.39591176 -0.80188363 -0.44747796
vn 0.42420101 -0.80281614 -0.41897464
vn 0.46918233 -0.80519179 -0.36267633
vn 0.48321393 -0.80560971 -0.34277877
vn -0.05664003 -0.77852853 -0.62504819
vn -0.03955774 -0.81098353 -0.58373016
vn 0.02076618 -0.72775813 -0.68551942
vn -0.03872786 -0.70285955 -0.71027361
vn 0.27113198 -0.80493428 -0.52779565
vn 0.31386358 -0.80859893 -0.49765191
vn 0.09157487 -0.80632728 -0.58433754
vn 0.11970232 -0.80793160 -0.57699036
vn 0.17830939 -0.80756763 -0.56217461
vn 0.21191900 -0.80860399 -0.54886239
vn -0.27740497 -0.81269523 -0.51241872
vn -0.24834537 -0.80881553 -0.53304973
vn 0.02187485 -0.79870927 -0.60131938
vn -0.45576258 -0.79822220 -0.39385504
vn -0.41537694 -0.81372649 -0.40658480
vn -0.51280549 -0.80432986 -0.30013999
vn -0.49510498 -0.80403048 -0.32925072
vn -0.07997866 -0.74639518 -0.66067968
vn -0.39057196 -0.80280974 -0.45049980
vn -0.35197564 -0.80533095 -0.47702748
vn -0.31140883 -0.80522199 -0.50462074
vn 0.15913113 -0.74645432 -0.64612942
vn -0.22705272 -0.80565676 -0.54714189
vn -0.16491657 -0.80563382 -0.56899620
vn -0.12360965 -0.81190101 -0.57055885
vn 0.06376990 -0.68086521 -0.72962728
vn 0.24558351 -0.68186790 -0.68901734
vn 0.36710368 -0.69425390 -0.61906899
vn 0.33643140 -0.72603404 -0.59974035
vn -0.50230366 -0.74087616 -0.44586270
vn -0.59033122 -0.80459108 -0.06436032
vn -0.31079998 -0.74482019 -0.59046274
vn -0.58583063 -0.80454210 -0.09754216
vn -0.58894914 -0.80790446 -0.02071957
vn -0.55850473 -0.81455192 -0.15677258
vn -0.55643025 -0.80374486 -0.21066460
vn -0.52142737 -0.81427854 -0.25507636
vn 0.80663230 0.27033176 -0.52560924
vn 0.80406730 0.20139205 -0.55938987
vn 0.71446454 0.23626353 -0.65857420
vn -0.98737060 -0.14338577 -0.06737815
vn -0.96062823 0.27766548 0.00976171
vn -0.96161011 0.26380505 -0.07558372
vn -0.77010448 0.28756864 -0.56942372
vn -0.67871299 0.32218455 -0.65995893
vn 0.10405015 0.30394054 -0.94699193
vn 0.81273606 0.33310361 -0.47801892
vn 0.81350170 -0.33018650 -0.47873987
vn 0.72043824 -0.30782946 -0.62145777
vn -0.85285415 -0.29684135 -0.42956374
vn -0.84761008 -0.24645116 -0.46991380
vn -0.96318259 -0.25952527 -0.07018503
vn -0.96129600 -0.27540790 0.00777764
vn -0.96184665 -0.23650255 -0.13754113
vn -0.96396674 -0.24428511 -0.10532284
vn -0.91497748 -0.27467196 -0.29558675
vn -0.91992211 -0.30400775 -0.24763401
vn -0.91943819 -0.34106057 -0.19573224
vn -0.81944156 -0.45367838 -0.35027341
vn -0.76941886 -0.28951569 -0.56936394
vn -0.69215919 -0.34053081 -0.63636029
vn -0.67140173 -0.24752262 -0.69853580
vn -0.56250467 -0.26909596 -0.78177737
vn -0.44200457 -0.28099574 -0.85186464
vn -0.17628712 -0.30312603 -0.93650278
vn -0.31243431 -0.29556249 -0.90278880
vn -0.04046899 -0.30737369 -0.95072797
vn 0.10057479 -0.30702592 -0.94637191
vn 0.23820687 -0.29733588 -0.92458037
vn 0.37078296 -0.29069988 -0.88205078
vn 0.49660935 -0.27685002 -0.82263796
vn 0.61352284 -0.26145610 -0.74513786
vn 0.71958672 0.30755143 -0.62258097
vn 0.61195846 0.26183089 -0.74629178
vn 0.50047292 0.28169246 -0.81864291
vn 0.36812957 0.29087132 -0.88310503
vn 0.23893419 0.30188045 -0.92291855
vn -0.03571242 0.30777019 -0.95079027
vn -0.17624356 0.30402329 -0.93622009
vn -0.31279196 0.29557058 -0.90266229
vn -0.44134165 0.28397309 -0.85122079
vn -0.56274422 0.26810243 -0.78194631
vn -0.67149858 0.24755634 -0.69843076
vn -0.85174020 0.37662656 -0.36426785
vn -0.91810001 0.34018750 -0.20338349
vn -0.96175132 0.23694975 -0.13743804
vn -0.96245496 0.25003471 -0.10565553
vn -0.98834095 0.13769407 -0.06498089
vn -0.98962048 0.11164744 -0.09047734
vn -0.98988842 0.09774972 -0.10279065
vn -0.98988835 0.08265372 -0.11527971
vn -0.98988840 0.06598046 -0.12556886
vn -0.98988839 0.04804920 -0.13346255
vn -0.98988839 0.02920113 -0.13881020
vn -0.98988839 0.00979601 -0.14150975
vn -0.98988839 -0.00979600 -0.14150974
vn -0.98988839 -0.02920111 -0.13881017
vn -0.98988839 -0.04804923 -0.13346254
vn -0.98988841 -0.06598033 -0.12556884
vn -0.98988835 -0.08265387 -0.11527959
vn -0.98954462 -0.11150554 -0.09147654
vn -0.98988841 -0.09774970 -0.10279074
vn 0.80704048 -0.26979989 -0.52525583
vn 0.80406743 -0.20139205 -0.55938968
vn 0.80406739 -0.12239309 -0.58180371
vn 0.80406720 -0.04105912 -0.59311895
vn 0.80406706 0.04105930 -0.59311913
vn 0.80406731 0.12239289 -0.58180387
vn 0.71448528 -0.23601368 -0.65864128
vn 0.71392222 -0.14414949 -0.68522696
vn 0.61003414 -0.16311902 -0.77540347
vn 0.49441362 -0.17893967 -0.85060906
vn 0.36928946 -0.19130998 -0.90940958
vn 0.23707200 -0.19999376 -0.95068363
vn 0.10030333 -0.20482429 -0.97364586
vn -0.03839289 -0.20571055 -0.97785948
vn -0.17635306 -0.20263475 -0.96324387
vn -0.31092505 -0.19565772 -0.93007724
vn -0.43952538 -0.18491156 -0.87899099
vn -0.55968082 -0.17059963 -0.81095816
vn -0.66907563 -0.15299422 -0.72727613
vn 0.71392171 -0.04835697 -0.69855379
vn 0.61003399 -0.05472035 -0.79048353
vn 0.49441421 -0.06002838 -0.86715119
vn 0.36929020 -0.06417834 -0.92709540
vn 0.23707214 -0.06709162 -0.96917259
vn 0.10030286 -0.06871148 -0.99258152
vn -0.03839341 -0.06900874 -0.99687699
vn -0.17635319 -0.06797704 -0.98197692
vn -0.31092489 -0.06563666 -0.94816536
vn -0.43952580 -0.06203076 -0.89608552
vn -0.55968121 -0.05722944 -0.82672954
vn -0.66907505 -0.05132442 -0.74142052
vn 0.71392170 0.04835730 -0.69855378
vn 0.61003428 0.05472039 -0.79048330
vn 0.49441407 0.06002825 -0.86715128
vn 0.36929041 0.06417806 -0.92709534
vn 0.23707170 0.06709164 -0.96917270
vn 0.10030308 0.06871169 -0.99258148
vn -0.03839399 0.06901017 -0.99687687
vn -0.17635250 0.06797752 -0.98197701
vn -0.31092518 0.06563671 -0.94816526
vn -0.43952569 0.06203104 -0.89608555
vn -0.55968107 0.05722946 -0.82672963
vn -0.66907502 0.05132422 -0.74142056
vn 0.71392220 0.14414904 -0.68522708
vn 0.61003407 0.16311935 -0.77540345
vn 0.49441386 0.17893993 -0.85060886
vn 0.36928964 0.19131004 -0.90940950
vn 0.23707162 0.19999360 -0.95068376
vn 0.10030225 0.20482430 -0.97364597
vn -0.03839336 0.20571064 -0.97785944
vn -0.17635143 0.20263469 -0.96324418
vn -0.31092492 0.19565751 -0.93007732
vn -0.43952532 0.18491076 -0.87899119
vn -0.55968134 0.17059982 -0.81095777
vn -0.66907525 0.15299605 -0.72727609
vn -0.76559538 -0.21791704 -0.60528991
vn -0.76559491 -0.13243603 -0.62954359
vn -0.76559484 -0.04442775 -0.64178713
vn -0.76559501 0.04442762 -0.64178693
vn -0.76559494 0.13243583 -0.62954360
vn -0.76559474 0.21791719 -0.60529066
vn -0.84737025 -0.17987074 -0.49961002
vn -0.84737035 -0.10931314 -0.51962884
vn -0.84737042 -0.03667036 -0.52973451
vn -0.84737026 0.03667041 -0.52973477
vn -0.84737028 0.10931303 -0.51962897
vn -0.84737046 0.17987056 -0.49960973
vn -0.84803663 0.24518780 -0.46980508
vn -0.85378951 0.29958973 -0.42578100
vn -0.91280894 -0.23796231 -0.33189422
vn -0.91280885 -0.18996119 -0.36151729
vn -0.91280888 -0.13833597 -0.38424356
vn -0.91280887 -0.08407169 -0.39963973
vn -0.91280875 -0.02820351 -0.40741226
vn -0.91280884 0.02820334 -0.40741207
vn -0.91280893 0.08407182 -0.39963956
vn -0.91280886 0.13833597 -0.38424360
vn -0.91280886 0.18996107 -0.36151731
vn -0.91280894 0.23796238 -0.33189417
vn -0.91498721 0.27431620 -0.29588686
vn -0.91855702 0.31029939 -0.24488220
vn -0.96062993 -0.21737210 -0.17303037
vn -0.96062991 -0.19145691 -0.20133162
vn -0.96062989 -0.16188960 -0.22579189
vn -0.96062984 -0.12923345 -0.24594517
vn -0.96062991 -0.09411155 -0.26140619
vn -0.96062990 -0.05719511 -0.27188032
vn -0.96062993 -0.01918702 -0.27716781
vn -0.96062992 0.01918706 -0.27716784
vn -0.96062990 0.05719507 -0.27188033
vn -0.96062990 0.09411160 -0.26140621
vn -0.96062987 0.12923331 -0.24594514
vn -0.96062993 0.16188953 -0.22579176
vn -0.96062993 0.19145689 -0.20133158
vn -0.96062995 0.21737211 -0.17303026
vn 0.00000000 0.00000000 1.00000000
f 1//1 2//2 3//3
f 4//4 5//5 6//6
f 7//7 8//8 9//9
f 10//10 11//11 8//8
f 8//8 11//11 12//12
f 8//8 12//12 13//13
f 13//13 14//14 8//8
f 8//8 14//14 15//15
f 8//8 15//15 9//9
f 16//16 17//17 10//10
f 10//10 17//17 18//18
f 10//10 18//18 11//11
f 19//19 20//20 16//16
f 16//16 20//20 21//21
f 16//16 21//21 17//17
f 22//22 4//4 23//23
f 23//23 4//4 6//6
f 23//23 6//6 16//16
f 16//16 6//6 24//24
f 16//16 24//24 19//19
f 25//25 26//26 22//22
f 27//27 28//28 29//29
f 29//29 28//28 30//30
f 29//29 30//30 22//22
f 22//22 30//30 31//31
f 22//22 31//31 25//25
f 32//32 4//4 33//33
f 33//33 4//4 22//22
f 33//33 22//22 34//34
f 34//34 22//22 26//26
f 35//35 36//36 37//37
f 37//37 36//36 38//38
f 38//38 39//39 37//37
f 37//37 39//39 40//40
f 37//37 40//40 29//29
f 29//29 40//40 41//41
f 29//29 41//41 27//27
f 42//42 37//37 43//43
f 35//35 37//37 44//44
f 44//44 37//37 42//42
f 44//44 42//42 45//45
f 46//46 47//47 48//48
f 49//49 42//42 50//50
f 50//50 42//42 43//43
f 50//50 43//43 51//51
f 51//51 43//43 46//46
f 51//51 46//46 52//52
f 52//52 46//46 48//48
f 47//47 46//46 53//53
f 53//53 46//46 54//54
f 53//53 54//54 55//55
f 56//56 57//57 58//58
f 58//58 59//59 56//56
f 56//56 59//59 60//60
f 56//56 60//60 54//54
f 54//54 60//60 61//61
f 54//54 61//61 55//55
f 62//62 63//63 56//56
f 56//56 63//63 64//64
f 56//56 64//64 57//57
f 65//65 66//66 67//67
f 67//67 66//66 68//68
f 67//67 68//68 69//69
f 69//69 70//70 67//67
f 67//67 70//70 71//71
f 67//67 71//71 62//62
f 62//62 71//71 72//72
f 62//62 72//72 63//63
f 73//73 74//74 65//65
f 65//65 74//74 75//75
f 65//65 75//75 66//66
f 76//76 77//77 78//78
f 78//78 77//77 79//79
f 78//78 79//79 73//73
f 73//73 79//79 80//80
f 73//73 80//80 74//74
f 81//81 82//82 78//78
f 78//78 82//82 83//83
f 78//78 83//83 76//76
f 81//81 78//78 84//84
f 84//84 78//78 85//85
f 84//84 85//85 86//86
f 86//86 85//85 87//87
f 86//86 87//87 88//88
f 89//89 90//90 91//91
f 88//88 87//87 92//92
f 92//92 87//87 91//91
f 92//92 91//91 93//93
f 93//93 91//91 90//90
f 93//93 90//90 94//94
f 91//91 95//95 89//89
f 89//89 95//95 96//96
f 89//89 96//96 97//97
f 97//97 96//96 98//98
f 97//97 98//98 99//99
f 99//99 98//98 100//100
f 99//99 100//100 101//101
f 101//101 100//100 102//102
f 103//103 104//104 102//102
f 102//102 104//104 105//105
f 102//102 105//105 101//101
f 106//106 104//104 107//107
f 107//107 104//104 103//103
f 107//107 103//103 108//108
f 108//108 103//103 109//109
f 110//110 111//111 109//109
f 109//109 111//111 112//112
f 109//109 112//112 108//108
f 2//2 113//113 3//3
f 3//3 113//113 114//114
f 3//3 114//114 110//110
f 110//110 114//114 115//115
f 110//110 115//115 111//111
f 116//116 117//117 118//118
f 118//118 119//119 116//116
f 116//116 119//119 120//120
f 116//116 120//120 3//3
f 3//3 120//120 121//121
f 3//3 121//121 1//1
f 122//122 123//123 124//124
f 124//124 123//123 125//125
f 124//124 125//125 117//117
f 117//117 125//125 126//126
f 117//117 126//126 118//118
f 9//9 127//127 7//7
f 7//7 127//127 128//128
f 7//7 128//128 124//124
f 124//124 128//128 129//129
f 124//124 129//129 122//122
f 130//130 131//131 132//132
f 131//131 133//133 132//132
f 133//133 134//134 132//132
f 134//134 135//135 132//132
f 135//135 136//136 132//132
f 136//136 130//130 132//132
f 137//137 138//138 130//130
f 130//130 138//138 131//131
f 138//138 139//139 131//131
f 131//131 139//139 133//133
f 139//139 140//140 133//133
f 133//133 140//140 134//134
f 140//140 141//141 134//134
f 134//134 141//141 135//135
f 141//141 142//142 135//135
f 135//135 142//142 136//136
f 142//142 137//137 136//136
f 136//136 137//137 130//130
f 143//143 144//144 139//139
f 144//144 145//145 139//139
f 139//139 145//145 146//146
f 139//139 146//146 140//140
f 146//146 147//147 140//140
f 140//140 147//147 148//148
f 140//140 148//148 149//149
f 150//150 141//141 151//151
f 151//151 141//141 140//140
f 151//151 140//140 152//152
f 152//152 140//140 149//149
f 138//138 153//153 139//139
f 139//139 153//153 154//154
f 139//139 154//154 143//143
f 155//155 156//156 138//138
f 138//138 156//156 157//157
f 138//138 157//157 153//153
f 155//155 138//138 158//158
f 158//158 138//138 137//137
f 158//158 137//137 159//159
f 160//160 161//161 142//142
f 142//142 161//161 162//162
f 142//142 162//162 137//137
f 137//137 162//162 163//163
f 137//137 163//163 159//159
f 150//150 164//164 141//141
f 141//141 164//164 165//165
f 141//141 165//165 142//142
f 142//142 165//165 166//166
f 142//142 166//166 160//160
f 167//167 168//168 169//169
f 169//169 168//168 170//170
f 169//169 170//170 171//171
f 171//171 170//170 172//172
f 171//171 172//172 173//173
f 173//173 172//172 174//174
f 173//173 174//174 175//175
f 175//175 174//174 176//176
f 176//176 174//174 177//177
f 176//176 177//177 178//178
f 178//178 177//177 179//179
f 179//179 177//177 180//180
f 179//179 180//180 181//181
f 181//181 180//180 182//182
f 182//182 180//180 183//183
f 182//182 183//183 184//184
f 184//184 183//183 185//185
f 184//184 185//185 186//186
f 187//187 188//188 189//189
f 189//189 188//188 190//190
f 189//189 190//190 191//191
f 191//191 190//190 192//192
f 191//191 192//192 193//193
f 193//193 192//192 194//194
f 193//193 194//194 185//185
f 185//185 194//194 195//195
f 185//185 195//195 186//186
f 187//187 189//189 196//196
f 196//196 189//189 197//197
f 196//196 197//197 198//198
f 198//198 197//197 199//199
f 198//198 199//199 200//200
f 200//200 199//199 201//201
f 200//200 201//201 202//202
f 203//203 204//204 205//205
f 205//205 204//204 206//206
f 205//205 206//206 207//207
f 207//207 206//206 208//208
f 207//207 208//208 209//209
f 209//209 208//208 210//210
f 209//209 210//210 211//211
f 211//211 210//210 212//212
f 211//211 212//212 201//201
f 201//201 212//212 213//213
f 201//201 213//213 202//202
f 203//203 205//205 214//214
f 214//214 205//205 215//215
f 214//214 215//215 216//216
f 216//216 215//215 217//217
f 216//216 217//217 218//218
f 218//218 217//217 219//219
f 218//218 219//219 220//220
f 167//167 221//221 168//168
f 168//168 221//221 222//222
f 168//168 222//222 223//223
f 223//223 222//222 224//224
f 223//223 224//224 225//225
f 225//225 224//224 226//226
f 225//225 226//226 219//219
f 219//219 226//226 227//227
f 219//219 227//227 220//220
f 154//154 153//153 228//228
f 228//228 153//153 157//157
f 228//228 157//157 229//229
f 229//229 157//157 156//156
f 229//229 156//156 230//230
f 230//230 156//156 155//155
f 230//230 155//155 231//231
f 231//231 155//155 158//158
f 231//231 158//158 232//232
f 232//232 158//158 159//159
f 232//232 159//159 233//233
f 233//233 159//159 163//163
f 233//233 163//163 234//234
f 234//234 163//163 162//162
f 234//234 162//162 235//235
f 235//235 162//162 161//161
f 235//235 161//161 236//236
f 236//236 161//161 160//160
f 236//236 160//160 237//237
f 237//237 160//160 166//166
f 237//237 166//166 238//238
f 238//238 166//166 165//165
f 238//238 165//165 239//239
f 239//239 165//165 164//164
f 239//239 164//164 240//240
f 240//240 164//164 150//150
f 240//240 150//150 241//241
f 241//241 150//150 151//151
f 241//241 151//151 242//242
f 242//242 151//151 152//152
f 242//242 152//152 243//243
f 243//243 152//152 149//149
f 243//243 149//149 244//244
f 244//244 149//149 148//148
f 244//244 148//148 245//245
f 245//245 148//148 147//147
f 245//245 147//147 246//246
f 246//246 147//147 146//146
f 246//246 146//146 247//247
f 247//247 146//146 145//145
f 247//247 145//145 248//248
f 248//248 145//145 144//144
f 248//248 144//144 249//249
f 249//249 144//144 143//143
f 249//249 143//143 250//250
f 250//250 143//143 154//154
f 250//250 154//154 228//228
f 239//239 251//251 238//238
f 238//238 251//251 252//252
f 238//238 252//252 237//237
f 237//237 252//252 253//253
f 237//237 253//253 236//236
f 236//236 253//253 254//254
f 236//236 254//254 235//235
f 235//235 254//254 255//255
f 235//235 255//255 234//234
f 234//234 255//255 256//256
f 234//234 256//256 233//233
f 233//233 256//256 257//257
f 233//233 257//257 232//232
f 232//232 257//257 258//258
f 232//232 258//258 231//231
f 231//231 258//258 259//259
f 231//231 259//259 230//230
f 230//230 259//259 260//260
f 230//230 260//260 229//229
f 229//229 260//260 261//261
f 229//229 261//261 228//228
f 228//228 261//261 262//262
f 228//228 262//262 250//250
f 250//250 262//262 263//263
f 250//250 263//263 249//249
f 249//249 263//263 264//264
f 249//249 264//264 248//248
f 248//248 264//264 265//265
f 248//248 265//265 247//247
f 247//247 265//265 266//266
f 247//247 266//266 246//246
f 246//246 266//266 267//267
f 246//246 267//267 245//245
f 245//245 267//267 268//268
f 245//245 268//268 244//244
f 244//244 268//268 269//269
f 244//244 269//269 243//243
f 243//243 269//269 270//270
f 243//243 270//270 242//242
f 242//242 270//270 271//271
f 242//242 271//271 241//241
f 241//241 271//271 272//272
f 241//241 272//272 240//240
f 240//240 272//272 273//273
f 240//240 273//273 239//239
f 239//239 273//273 251//251
f 251//251 207//207 252//252
f 252//252 207//207 209//209
f 252//252 209//209 253//253
f 253//253 209//209 211//211
f 253//253 211//211 254//254
f 254//254 211//211 201//201
f 254//254 201//201 255//255
f 255//255 201//201 199//199
f 255//255 199//199 256//256
f 256//256 199//199 197//197
f 256//256 197//197 257//257
f 257//257 197//197 189//189
f 257//257 189//189 258//258
f 258//258 189//189 191//191
f 258//258 191//191 259//259
f 259//259 191//191 193//193
f 259//259 193//193 260//260
f 260//260 193//193 185//185
f 260//260 185//185 261//261
f 261//261 185//185 183//183
f 261//261 183//183 262//262
f 262//262 183//183 180//180
f 262//262 180//180 263//263
f 263//263 180//180 177//177
f 263//263 177//177 264//264
f 264//264 177//177 174//174
f 264//264 174//174 265//265
f 265//265 174//174 172//172
f 265//265 172//172 266//266
f 266//266 172//172 170//170
f 266//266 170//170 267//267
f 267//267 170//170 168//168
f 267//267 168//168 268//268
f 268//268 168//168 223//223
f 268//268 223//223 269//269
f 269//269 223//223 225//225
f 269//269 225//225 270//270
f 270//270 225//225 219//219
f 270//270 219//219 271//271
f 271//271 219//219 217//217
f 271//271 217//217 272//272
f 272//272 217//217 215//215
f 272//272 215//215 273//273
f 273//273 215//215 205//205
f 273//273 205//205 251//251
f 251//251 205//205 207//207
f 222//222 221//221 274//274
f 274//274 221//221 275//275
f 221//221 167//167 275//275
f 275//275 167//167 169//169
f 275//275 169//169 276//276
f 175//175 277//277 173//173
f 173//173 277//277 276//276
f 173//173 276//276 171//171
f 171//171 276//276 169//169
f 175//175 176//176 277//277
f 277//277 176//176 178//178
f 277//277 178//178 278//278
f 178//178 179//179 278//278
f 278//278 179//179 181//181
f 278//278 181//181 279//279
f 186//186 280//280 184//184
f 184//184 280//280 279//279
f 184//184 279//279 182//182
f 182//182 279//279 181//181
f 186//186 195//195 280//280
f 280//280 195//195 194//194
f 280//280 194//194 281//281
f 188//188 282//282 190//190
f 190//190 282//282 281//281
f 190//190 281//281 192//192
f 192//192 281//281 194//194
f 198//198 283//283 196//196
f 196//196 283//283 282//282
f 196//196 282//282 187//187
f 187//187 282//282 188//188
f 198//198 200//200 283//283
f 283//283 200//200 202//202
f 283//283 202//202 284//284
f 202//202 213//213 284//284
f 284//284 213//213 212//212
f 284//284 212//212 285//285
f 212//212 210//210 285//285
f 285//285 210//210 208//208
f 285//285 208//208 286//286
f 208//208 206//206 286//286
f 286//286 206//206 204//204
f 286//286 204//204 287//287
f 204//204 203//203 287//287
f 287//287 203//203 214//214
f 287//287 214//214 288//288
f 220//220 289//289 218//218
f 218//218 289//289 288//288
f 218//218 288//288 216//216
f 216//216 288//288 214//214
f 220//220 227//227 289//289
f 289//289 227//227 226//226
f 289//289 226//226 274//274
f 274//274 226//226 224//224
f 274//274 224//224 222//222
f 290//290 276//276 291//291
f 291//291 276//276 277//277
f 291//291 277//277 292//292
f 292//292 277//277 278//278
f 292//292 278//278 293//293
f 293//293 278//278 279//279
f 293//293 279//279 294//294
f 295//295 288//288 296//296
f 296//296 288//288 289//289
f 296//296 289//289 297//297
f 297//297 289//289 274//274
f 297//297 274//274 290//290
f 290//290 274//274 275//275
f 290//290 275//275 276//276
f 298//298 285//285 299//299
f 299//299 285//285 286//286
f 299//299 286//286 295//295
f 295//295 286//286 287//287
f 295//295 287//287 288//288
f 279//279 280//280 294//294
f 294//294 280//280 281//281
f 294//294 281//281 300//300
f 300//300 281//281 282//282
f 300//300 282//282 301//301
f 301//301 282//282 283//283
f 301//301 283//283 298//298
f 298//298 283//283 284//284
f 298//298 284//284 285//285
f 297//297 302//302 296//296
f 296//296 302//302 303//303
f 296//296 303//303 295//295
f 295//295 303//303 304//304
f 295//295 304//304 299//299
f 299//299 304//304 305//305
f 299//299 305//305 298//298
f 298//298 305//305 306//306
f 298//298 306//306 301//301
f 301//301 306//306 307//307
f 301//301 307//307 300//300
f 300//300 307//307 308//308
f 300//300 308//308 294//294
f 294//294 308//308 309//309
f 294//294 309//309 293//293
f 293//293 309//309 310//310
f 293//293 310//310 292//292
f 292//292 310//310 311//311
f 292//292 311//311 291//291
f 291//291 311//311 312//312
f 291//291 312//312 290//290
f 290//290 312//312 313//313
f 290//290 313//313 297//297
f 297//297 313//313 302//302
f 309//309 314//314 310//310
f 310//310 314//314 315//315
f 310//310 315//315 311//311
f 311//311 315//315 316//316
f 311//311 316//316 312//312
f 312//312 316//316 317//317
f 312//312 317//317 313//313
f 305//305 318//318 306//306
f 306//306 318//318 319//319
f 306//306 319//319 307//307
f 307//307 319//319 320//320
f 307//307 320//320 308//308
f 308//308 320//320 321//321
f 308//308 321//321 309//309
f 309//309 321//321 322//322
f 309//309 322//322 314//314
f 317//317 323//323 313//313
f 313//313 323//323 324//324
f 313//313 324//324 302//302
f 302//302 324//324 325//325
f 302//302 325//325 303//303
f 303//303 325//325 326//326
f 303//303 326//326 304//304
f 304//304 326//326 327//327
f 304//304 327//327 305//305
f 305//305 327//327 328//328
f 305//305 328//328 318//318
f 329//329 330//330 331//331
f 331//331 330//330 332//332
f 331//331 332//332 333//333
f 334//334 335//335 331//331
f 331//331 335//335 336//336
f 331//331 336//336 329//329
f 337//337 338//338 331//331
f 331//331 338//338 339//339
f 331//331 339//339 334//334
f 340//340 341//341 331//331
f 331//331 341//341 342//342
f 331//331 342//342 337//337
f 333//333 343//343 331//331
f 331//331 343//343 344//344
f 331//331 344//344 340//340
f 345//345 319//319 346//346
f 346//346 319//319 318//318
f 346//346 318//318 347//347
f 347//347 318//318 328//328
f 347//347 328//328 348//348
f 348//348 328//328 327//327
f 348//348 327//327 349//349
f 349//349 327//327 326//326
f 349//349 326//326 350//350
f 350//350 326//326 325//325
f 350//350 325//325 351//351
f 351//351 325//325 324//324
f 351//351 324//324 352//352
f 352//352 324//324 323//323
f 352//352 323//323 353//353
f 353//353 323//323 317//317
f 353//353 317//317 354//354
f 354//354 317//317 316//316
f 354//354 316//316 355//355
f 355//355 316//316 315//315
f 355//355 315//315 356//356
f 356//356 315//315 314//314
f 356//356 314//314 357//357
f 357//357 314//314 322//322
f 357//357 322//322 358//358
f 358//358 322//322 321//321
f 358//358 321//321 359//359
f 359//359 321//321 320//320
f 359//359 320//320 345//345
f 345//345 320//320 319//319
f 332//332 360//360 333//333
f 333//333 360//360 361//361
f 333//333 361//361 343//343
f 343//343 361//361 362//362
f 343//343 362//362 344//344
f 344//344 362//362 363//363
f 344//344 363//363 340//340
f 340//340 363//363 364//364
f 340//340 364//364 341//341
f 341//341 364//364 365//365
f 341//341 365//365 342//342
f 342//342 365//365 366//366
f 342//342 366//366 337//337
f 337//337 366//366 367//367
f 337//337 367//367 338//338
f 338//338 367//367 368//368
f 338//338 368//368 339//339
f 339//339 368//368 369//369
f 339//339 369//369 334//334
f 334//334 369//369 370//370
f 334//334 370//370 335//335
f 335//335 370//370 371//371
f 335//335 371//371 336//336
f 336//336 371//371 372//372
f 336//336 372//372 329//329
f 329//329 372//372 373//373
f 329//329 373//373 330//330
f 330//330 373//373 374//374
f 330//330 374//374 332//332
f 332//332 374//374 360//360
f 375//375 376//376 353//353
f 345//345 346//346 377//377
f 352//352 378//378 351//351
f 351//351 378//378 379//379
f 351//351 379//379 350//350
f 379//379 380//380 350//350
f 350//350 380//380 381//381
f 350//350 381//381 349//349
f 356//356 382//382 355//355
f 355//355 382//382 383//383
f 383//383 384//384 355//355
f 355//355 384//384 385//385
f 355//355 385//385 354//354
f 354//354 385//385 386//386
f 354//354 386//386 387//387
f 357//357 388//388 356//356
f 356//356 388//388 389//389
f 389//389 390//390 356//356
f 356//356 390//390 391//391
f 356//356 391//391 382//382
f 347//347 392//392 346//346
f 346//346 392//392 393//393
f 346//346 393//393 377//377
f 381//381 394//394 349//349
f 349//349 394//394 395//395
f 349//349 395//395 348//348
f 348//348 395//395 396//396
f 348//348 396//396 347//347
f 347//347 396//396 397//397
f 347//347 397//397 392//392
f 398//398 399//399 400//400
f 400//400 399//399 401//401
f 400//400 401//401 376//376
f 376//376 401//401 378//378
f 376//376 378//378 353//353
f 353//353 378//378 352//352
f 387//387 402//402 354//354
f 354//354 402//402 403//403
f 354//354 403//403 353//353
f 353//353 403//403 404//404
f 353//353 404//404 405//405
f 405//405 406//406 353//353
f 353//353 406//406 407//407
f 353//353 407//407 375//375
f 358//358 408//408 357//357
f 357//357 408//408 409//409
f 357//357 409//409 388//388
f 410//410 411//411 359//359
f 359//359 411//411 412//412
f 359//359 412//412 358//358
f 358//358 412//412 413//413
f 358//358 413//413 408//408
f 377//377 414//414 345//345
f 345//345 414//414 415//415
f 345//345 415//415 416//416
f 398//398 417//417 399//399
f 399//399 417//417 418//418
f 399//399 418//418 419//419
f 419//419 418//418 420//420
f 419//419 420//420 421//421
f 421//421 420//420 45//45
f 421//421 45//45 42//42
f 416//416 422//422 345//345
f 345//345 422//422 423//423
f 345//345 423//423 359//359
f 359//359 423//423 424//424
f 359//359 424//424 410//410
f 94//94 90//90 377//377
f 377//377 90//90 104//104
f 104//104 106//106 425//425
f 104//104 425//425 377//377
f 377//377 425//425 426//426
f 377//377 426//426 414//414
f 427//427 428//428 425//425
f 425//425 428//428 429//429
f 430//430 431//431 425//425
f 431//431 432//432 425//425
f 425//425 432//432 433//433
f 425//425 433//433 426//426
f 429//429 434//434 425//425
f 425//425 434//434 435//435
f 425//425 435//435 436//436
f 436//436 437//437 425//425
f 425//425 437//437 438//438
f 425//425 438//438 430//430
f 439//439 4//4 32//32
f 362//362 361//361 440//440
f 360//360 441//441 361//361
f 361//361 441//441 442//442
f 361//361 442//442 440//440
f 443//443 444//444 374//374
f 374//374 444//444 427//427
f 374//374 427//427 360//360
f 360//360 427//427 425//425
f 360//360 425//425 441//441
f 372//372 445//445 373//373
f 373//373 445//445 446//446
f 446//446 447//447 373//373
f 373//373 447//447 448//448
f 373//373 448//448 374//374
f 374//374 448//448 449//449
f 374//374 449//449 443//443
f 450//450 451//451 369//369
f 440//440 452//452 362//362
f 362//362 452//452 453//453
f 362//362 453//453 363//363
f 371//371 454//454 372//372
f 372//372 454//454 455//455
f 372//372 455//455 445//445
f 456//456 457//457 370//370
f 370//370 457//457 458//458
f 370//370 458//458 371//371
f 371//371 458//458 459//459
f 371//371 459//459 454//454
f 368//368 460//460 461//461
f 369//369 451//451 370//370
f 370//370 451//451 462//462
f 370//370 462//462 456//456
f 463//463 464//464 367//367
f 465//465 466//466 467//467
f 464//464 468//468 367//367
f 367//367 468//468 469//469
f 367//367 469//469 368//368
f 368//368 469//469 470//470
f 368//368 470//470 460//460
f 467//467 466//466 471//471
f 461//461 472//472 368//368
f 368//368 472//472 473//473
f 368//368 473//473 369//369
f 369//369 473//473 474//474
f 369//369 474//474 450//450
f 453//453 475//475 363//363
f 363//363 475//475 476//476
f 363//363 476//476 364//364
f 364//364 476//476 477//477
f 364//364 477//477 365//365
f 365//365 477//477 478//478
f 365//365 478//478 366//366
f 366//366 478//478 471//471
f 366//366 471//471 367//367
f 367//367 471//471 466//466
f 367//367 466//466 463//463
f 479//479 480//480 481//481
f 481//481 480//480 482//482
f 439//439 32//32 479//479
f 479//479 32//32 483//483
f 479//479 483//483 480//480
f 482//482 484//484 481//481
f 481//481 484//484 485//485
f 481//481 485//485 467//467
f 467//467 485//485 486//486
f 467//467 486//486 465//465
f 122//122 477//477 123//123
f 123//123 477//477 476//476
f 475//475 126//126 476//476
f 476//476 126//126 125//125
f 476//476 125//125 123//123
f 453//453 121//121 475//475
f 475//475 121//121 120//120
f 120//120 119//119 475//475
f 475//475 119//119 118//118
f 475//475 118//118 126//126
f 121//121 453//453 1//1
f 1//1 453//453 452//452
f 1//1 452//452 2//2
f 2//2 452//452 113//113
f 113//113 452//452 440//440
f 113//113 440//440 114//114
f 442//442 111//111 440//440
f 440//440 111//111 115//115
f 440//440 115//115 114//114
f 441//441 425//425 106//106
f 106//106 107//107 441//441
f 441//441 107//107 108//108
f 441//441 108//108 442//442
f 442//442 108//108 112//112
f 442//442 112//112 111//111
f 105//105 104//104 90//90
f 90//90 89//89 105//105
f 105//105 89//89 97//97
f 105//105 97//97 101//101
f 101//101 97//97 99//99
f 94//94 377//377 93//93
f 93//93 377//377 393//393
f 392//392 88//88 393//393
f 393//393 88//88 92//92
f 393//393 92//92 93//93
f 397//397 84//84 392//392
f 392//392 84//84 86//86
f 392//392 86//86 88//88
f 76//76 83//83 396//396
f 396//396 83//83 82//82
f 396//396 82//82 397//397
f 397//397 82//82 81//81
f 397//397 81//81 84//84
f 76//76 396//396 77//77
f 77//77 396//396 395//395
f 77//77 395//395 79//79
f 79//79 395//395 80//80
f 80//80 395//395 394//394
f 80//80 394//394 74//74
f 74//74 394//394 75//75
f 75//75 394//394 66//66
f 66//66 394//394 381//381
f 66//66 381//381 68//68
f 68//68 381//381 69//69
f 69//69 381//381 380//380
f 69//69 380//380 70//70
f 71//71 70//70 380//380
f 71//71 380//380 72//72
f 72//72 380//380 63//63
f 63//63 380//380 379//379
f 63//63 379//379 64//64
f 61//61 60//60 401//401
f 401//401 60//60 378//378
f 60//60 59//59 378//378
f 378//378 59//59 58//58
f 378//378 58//58 379//379
f 379//379 58//58 57//57
f 379//379 57//57 64//64
f 399//399 419//419 48//48
f 48//48 47//47 399//399
f 399//399 47//47 53//53
f 399//399 53//53 401//401
f 401//401 53//53 55//55
f 401//401 55//55 61//61
f 421//421 42//42 49//49
f 49//49 50//50 421//421
f 421//421 50//50 51//51
f 421//421 51//51 419//419
f 419//419 51//51 52//52
f 419//419 52//52 48//48
f 487//487 488//488 489//489
f 25//25 31//31 490//490
f 35//35 491//491 492//492
f 491//491 35//35 44//44
f 376//376 375//375 493//493
f 407//407 406//406 494//494
f 494//494 406//406 405//405
f 382//382 391//391 495//495
f 423//423 496//496 487//487
f 415//415 414//414 426//426
f 444//444 428//428 427//427
f 449//449 497//497 443//443
f 447//447 498//498 448//448
f 466//466 499//499 500//500
f 501//501 483//483 502//502
f 502//502 483//483 32//32
f 502//502 32//32 33//33
f 503//503 482//482 504//504
f 504//504 482//482 480//480
f 505//505 485//485 506//506
f 506//506 485//485 484//484
f 506//506 484//484 507//507
f 466//466 465//465 499//499
f 499//499 465//465 486//486
f 499//499 486//486 508//508
f 464//464 463//463 509//509
f 510//510 511//511 468//468
f 468//468 511//511 512//512
f 468//468 512//512 469//469
f 469//469 512//512 470//470
f 470//470 512//512 513//513
f 470//470 513//513 460//460
f 450//450 474//474 514//514
f 514//514 474//474 473//473
f 514//514 473//473 515//515
f 515//515 473//473 472//472
f 515//515 472//472 513//513
f 513//513 472//472 461//461
f 513//513 461//461 460//460
f 450//450 514//514 451//451
f 451//451 514//514 516//516
f 451//451 516//516 462//462
f 462//462 516//516 517//517
f 462//462 517//517 456//456
f 456//456 517//517 457//457
f 457//457 517//517 518//518
f 457//457 518//518 458//458
f 458//458 518//518 519//519
f 458//458 519//519 459//459
f 459//459 519//519 454//454
f 454//454 519//519 520//520
f 454//454 520//520 455//455
f 455//455 520//520 445//445
f 445//445 520//520 521//521
f 445//445 521//521 446//446
f 443//443 497//497 444//444
f 444//444 497//497 429//429
f 444//444 429//429 428//428
f 415//415 426//426 416//416
f 416//416 426//426 433//433
f 416//416 433//433 422//422
f 424//424 522//522 410//410
f 410//410 522//522 411//411
f 413//413 523//523 408//408
f 408//408 523//523 524//524
f 408//408 524//524 409//409
f 409//409 524//524 525//525
f 409//409 525//525 388//388
f 388//388 525//525 526//526
f 388//388 526//526 389//389
f 495//495 391//391 526//526
f 526//526 391//391 390//390
f 526//526 390//390 389//389
f 382//382 495//495 383//383
f 383//383 495//495 527//527
f 383//383 527//527 384//384
f 384//384 527//527 528//528
f 384//384 528//528 385//385
f 385//385 528//528 386//386
f 386//386 528//528 529//529
f 386//386 529//529 387//387
f 387//387 529//529 530//530
f 387//387 530//530 402//402
f 402//402 530//530 403//403
f 403//403 530//530 531//531
f 403//403 531//531 404//404
f 404//404 531//531 405//405
f 405//405 531//531 532//532
f 405//405 532//532 494//494
f 398//398 400//400 533//533
f 533//533 400//400 376//376
f 418//418 417//417 534//534
f 534//534 417//417 398//398
f 44//44 45//45 491//491
f 491//491 45//45 420//420
f 491//491 420//420 492//492
f 492//492 420//420 418//418
f 535//535 38//38 536//536
f 536//536 38//38 36//36
f 39//39 537//537 40//40
f 40//40 537//537 538//538
f 40//40 538//538 41//41
f 41//41 538//538 27//27
f 27//27 538//538 539//539
f 27//27 539//539 540//540
f 540//540 541//541 27//27
f 27//27 541//541 542//542
f 27//27 542//542 543//543
f 543//543 544//544 27//27
f 27//27 544//544 545//545
f 27//27 545//545 546//546
f 546//546 547//547 27//27
f 27//27 547//547 548//548
f 27//27 548//548 549//549
f 31//31 30//30 490//490
f 490//490 30//30 28//28
f 490//490 28//28 550//550
f 550//550 28//28 27//27
f 550//550 27//27 551//551
f 551//551 27//27 549//549
f 33//33 34//34 502//502
f 502//502 34//34 26//26
f 502//502 26//26 501//501
f 501//501 26//26 25//25
f 448//448 498//498 449//449
f 449//449 498//498 552//552
f 449//449 552//552 497//497
f 497//497 552//552 434//434
f 497//497 434//434 429//429
f 436//436 435//435 553//553
f 437//437 436//436 554//554
f 438//438 437//437 555//555
f 430//430 438//438 556//556
f 431//431 430//430 557//557
f 423//423 422//422 496//496
f 496//496 422//422 433//433
f 496//496 433//433 487//487
f 487//487 433//433 432//432
f 487//487 432//432 488//488
f 488//488 432//432 431//431
f 446//446 521//521 447//447
f 447//447 521//521 558//558
f 447//447 558//558 498//498
f 498//498 558//558 553//553
f 498//498 553//553 552//552
f 552//552 553//553 435//435
f 552//552 435//435 434//434
f 413//413 412//412 523//523
f 523//523 412//412 411//411
f 523//523 411//411 489//489
f 489//489 411//411 522//522
f 489//489 522//522 487//487
f 487//487 522//522 424//424
f 487//487 424//424 423//423
f 436//436 553//553 554//554
f 554//554 553//553 558//558
f 554//554 558//558 559//559
f 559//559 558//558 521//521
f 559//559 521//521 560//560
f 560//560 521//521 520//520
f 560//560 520//520 561//561
f 561//561 520//520 519//519
f 561//561 519//519 562//562
f 562//562 519//519 518//518
f 562//562 518//518 563//563
f 563//563 518//518 517//517
f 563//563 517//517 564//564
f 564//564 517//517 516//516
f 564//564 516//516 565//565
f 565//565 516//516 514//514
f 565//565 514//514 566//566
f 566//566 514//514 515//515
f 566//566 515//515 567//567
f 567//567 515//515 513//513
f 567//567 513//513 568//568
f 568//568 513//513 512//512
f 568//568 512//512 569//569
f 569//569 512//512 511//511
f 569//569 511//511 570//570
f 437//437 554//554 555//555
f 555//555 554//554 559//559
f 555//555 559//559 571//571
f 571//571 559//559 560//560
f 571//571 560//560 572//572
f 572//572 560//560 561//561
f 572//572 561//561 573//573
f 573//573 561//561 562//562
f 573//573 562//562 574//574
f 574//574 562//562 563//563
f 574//574 563//563 575//575
f 575//575 563//563 564//564
f 575//575 564//564 576//576
f 576//576 564//564 565//565
f 576//576 565//565 577//577
f 577//577 565//565 566//566
f 577//577 566//566 578//578
f 578//578 566//566 567//567
f 578//578 567//567 579//579
f 579//579 567//567 568//568
f 579//579 568//568 580//580
f 580//580 568//568 569//569
f 580//580 569//569 581//581
f 581//581 569//569 570//570
f 581//581 570//570 582//582
f 438//438 555//555 556//556
f 556//556 555//555 571//571
f 556//556 571//571 583//583
f 583//583 571//571 572//572
f 583//583 572//572 584//584
f 584//584 572//572 573//573
f 584//584 573//573 585//585
f 585//585 573//573 574//574
f 585//585 574//574 586//586
f 586//586 574//574 575//575
f 586//586 575//575 587//587
f 587//587 575//575 576//576
f 587//587 576//576 588//588
f 588//588 576//576 577//577
f 588//588 577//577 589//589
f 589//589 577//577 578//578
f 589//589 578//578 590//590
f 590//590 578//578 579//579
f 590//590 579//579 591//591
f 591//591 579//579 580//580
f 591//591 580//580 592//592
f 592//592 580//580 581//581
f 592//592 581//581 593//593
f 593//593 581//581 582//582
f 593//593 582//582 594//594
f 430//430 556//556 557//557
f 557//557 556//556 583//583
f 557//557 583//583 595//595
f 595//595 583//583 584//584
f 595//595 584//584 596//596
f 596//596 584//584 585//585
f 596//596 585//585 597//597
f 597//597 585//585 586//586
f 597//597 586//586 598//598
f 598//598 586//586 587//587
f 598//598 587//587 599//599
f 599//599 587//587 588//588
f 599//599 588//588 600//600
f 600//600 588//588 589//589
f 600//600 589//589 601//601
f 601//601 589//589 590//590
f 601//601 590//590 602//602
f 602//602 590//590 591//591
f 602//602 591//591 603//603
f 603//603 591//591 592//592
f 603//603 592//592 604//604
f 604//604 592//592 593//593
f 604//604 593//593 605//605
f 605//605 593//593 594//594
f 605//605 594//594 606//606
f 431//431 557//557 488//488
f 488//488 557//557 595//595
f 488//488 595//595 489//489
f 489//489 595//595 596//596
f 489//489 596//596 523//523
f 523//523 596//596 597//597
f 523//523 597//597 524//524
f 524//524 597//597 598//598
f 524//524 598//598 525//525
f 525//525 598//598 599//599
f 525//525 599//599 526//526
f 526//526 599//599 600//600
f 526//526 600//600 495//495
f 495//495 600//600 601//601
f 495//495 601//601 527//527
f 527//527 601//601 602//602
f 527//527 602//602 528//528
f 528//528 602//602 603//603
f 528//528 603//603 529//529
f 529//529 603//603 604//604
f 529//529 604//604 530//530
f 530//530 604//604 605//605
f 530//530 605//605 531//531
f 531//531 605//605 606//606
f 531//531 606//606 532//532
f 468//468 464//464 510//510
f 510//510 464//464 509//509
f 510//510 509//509 511//511
f 511//511 509//509 607//607
f 511//511 607//607 570//570
f 570//570 607//607 608//608
f 570//570 608//608 582//582
f 582//582 608//608 609//609
f 582//582 609//609 594//594
f 594//594 609//609 610//610
f 594//594 610//610 606//606
f 606//606 610//610 611//611
f 606//606 611//611 532//532
f 532//532 611//611 612//612
f 532//532 612//612 494//494
f 494//494 612//612 493//493
f 494//494 493//493 407//407
f 407//407 493//493 375//375
f 463//463 466//466 509//509
f 509//509 466//466 500//500
f 509//509 500//500 607//607
f 607//607 500//500 613//613
f 607//607 613//613 608//608
f 608//608 613//613 614//614
f 608//608 614//614 609//609
f 609//609 614//614 615//615
f 609//609 615//615 610//610
f 610//610 615//615 616//616
f 610//610 616//616 611//611
f 611//611 616//616 617//617
f 611//611 617//617 612//612
f 612//612 617//617 618//618
f 612//612 618//618 493//493
f 493//493 618//618 619//619
f 493//493 619//619 376//376
f 376//376 619//619 620//620
f 376//376 620//620 533//533
f 486//486 485//485 508//508
f 508//508 485//485 505//505
f 508//508 505//505 499//499
f 499//499 505//505 621//621
f 499//499 621//621 500//500
f 500//500 621//621 622//622
f 500//500 622//622 613//613
f 613//613 622//622 623//623
f 613//613 623//623 614//614
f 614//614 623//623 624//624
f 614//614 624//624 615//615
f 615//615 624//624 625//625
f 615//615 625//625 616//616
f 616//616 625//625 626//626
f 616//616 626//626 617//617
f 617//617 626//626 627//627
f 617//617 627//627 618//618
f 618//618 627//627 628//628
f 618//618 628//628 619//619
f 619//619 628//628 629//629
f 619//619 629//629 620//620
f 620//620 629//629 630//630
f 620//620 630//630 533//533
f 533//533 630//630 631//631
f 533//533 631//631 398//398
f 398//398 631//631 632//632
f 398//398 632//632 534//534
f 484//484 482//482 507//507
f 507//507 482//482 503//503
f 507//507 503//503 506//506
f 506//506 503//503 633//633
f 506//506 633//633 505//505
f 505//505 633//633 634//634
f 505//505 634//634 621//621
f 621//621 634//634 635//635
f 621//621 635//635 622//622
f 622//622 635//635 636//636
f 622//622 636//636 623//623
f 623//623 636//636 637//637
f 623//623 637//637 624//624
f 624//624 637//637 638//638
f 624//624 638//638 625//625
f 625//625 638//638 639//639
f 625//625 639//639 626//626
f 626//626 639//639 640//640
f 626//626 640//640 627//627
f 627//627 640//640 641//641
f 627//627 641//641 628//628
f 628//628 641//641 642//642
f 628//628 642//642 629//629
f 629//629 642//642 643//643
f 629//629 643//643 630//630
f 630//630 643//643 644//644
f 630//630 644//644 631//631
f 631//631 644//644 645//645
f 631//631 645//645 632//632
f 632//632 645//645 646//646
f 632//632 646//646 534//534
f 534//534 646//646 535//535
f 534//534 535//535 418//418
f 418//418 535//535 536//536
f 418//418 536//536 492//492
f 492//492 536//536 36//36
f 492//492 36//36 35//35
f 39//39 38//38 537//537
f 537//537 38//38 535//535
f 537//537 535//535 538//538
f 538//538 535//535 646//646
f 538//538 646//646 539//539
f 539//539 646//646 645//645
f 539//539 645//645 540//540
f 540//540 645//645 644//644
f 540//540 644//644 541//541
f 541//541 644//644 643//643
f 541//541 643//643 542//542
f 542//542 643//643 642//642
f 542//542 642//642 543//543
f 543//543 642//642 641//641
f 543//543 641//641 544//544
f 544//544 641//641 640//640
f 544//544 640//640 545//545
f 545//545 640//640 639//639
f 545//545 639//639 546//546
f 546//546 639//639 638//638
f 546//546 638//638 547//547
f 547//547 638//638 637//637
f 547//547 637//637 548//548
f 548//548 637//637 636//636
f 548//548 636//636 549//549
f 549//549 636//636 635//635
f 549//549 635//635 551//551
f 551//551 635//635 634//634
f 551//551 634//634 550//550
f 550//550 634//634 633//633
f 550//550 633//633 490//490
f 490//490 633//633 503//503
f 490//490 503//503 25//25
f 25//25 503//503 504//504
f 25//25 504//504 501//501
f 501//501 504//504 480//480
f 501//501 480//480 483//483
f 478//478 9//9 15//15
f 478//478 15//15 471//471
f 24//24 6//6 439//439
f 439//439 6//6 5//5
f 439//439 5//5 4//4
f 24//24 439//439 19//19
f 19//19 439//439 479//479
f 19//19 479//479 20//20
f 20//20 479//479 21//21
f 21//21 479//479 481//481
f 21//21 481//481 17//17
f 17//17 481//481 18//18
f 18//18 481//481 467//467
f 18//18 467//467 11//11
f 15//15 14//14 471//471
f 471//471 14//14 13//13
f 471//471 13//13 467//467
f 467//467 13//13 12//12
f 467//467 12//12 11//11
f 477//477 122//122 129//129
f 9//9 478//478 127//127
f 127//127 478//478 477//477
f 127//127 477//477 128//128
f 128//128 477//477 129//129
f 29//29 22//22 647//647
f 29//29 647//647 37//37
f 54//54 46//46 647//647
f 647//647 46//46 43//43
f 647//647 43//43 37//37
f 67//67 62//62 647//647
f 647//647 62//62 56//56
f 647//647 56//56 54//54
f 78//78 73//73 647//647
f 647//647 73//73 65//65
f 647//647 65//65 67//67
f 91//91 87//87 647//647
f 647//647 87//87 85//85
f 647//647 85//85 78//78
f 98//98 96//96 647//647
f 647//647 96//96 95//95
f 647//647 95//95 91//91
f 103//103 102//102 647//647
f 647//647 102//102 100//100
f 647//647 100//100 98//98
f 3//3 110//110 647//647
f 647//647 110//110 109//109
f 647//647 109//109 103//103
f 124//124 117//117 647//647
f 647//647 117//117 116//116
f 647//647 116//116 3//3
f 10//10 8//8 647//647
f 647//647 8//8 7//7
f 647//647 7//7 124//124
f 22//22 23//23 647//647
f 647//647 23//23 16//16
f 647//647 16//16 10//10

