# https://github.com/mikedh/trimesh

o left_finger2_link4.STL
v 0.00043301 0.00650000 -0.00075000
v -0.00000000 0.00643438 -0.00000000
v 0.00086603 0.00650000 -0.00000000
v 0.00043301 0.00650000 0.00075000
v -0.00043301 0.00650000 0.00075000
v -0.00086603 0.00650000 -0.00000000
v -0.00043301 0.00650000 -0.00075000
v 0.00086603 0.00750000 -0.00000000
v 0.00043301 0.00750000 -0.00075000
v 0.00043301 0.00750000 0.00075000
v -0.00043301 0.00750000 0.00075000
v -0.00086603 0.00750000 -0.00000000
v -0.00043301 0.00750000 -0.00075000
v 0.00116373 0.00750000 -0.00123925
v 0.00081898 0.00750000 -0.00148972
v 0.00042277 0.00750000 -0.00164659
v -0.00081898 0.00750000 -0.00148972
v -0.00042277 0.00750000 -0.00164659
v -0.00000000 0.00750000 -0.00170000
v 0.00166989 0.00750000 0.00031855
v 0.00169665 0.00750000 -0.00010674
v 0.00161680 0.00750000 -0.00052533
v 0.00143536 0.00750000 -0.00091091
v -0.00169665 0.00750000 -0.00010674
v -0.00166989 0.00750000 0.00031855
v -0.00099923 0.00750000 0.00137533
v -0.00130987 0.00750000 0.00108362
v -0.00153821 0.00750000 0.00072383
v -0.00116373 0.00750000 -0.00123925
v -0.00143536 0.00750000 -0.00091091
v -0.00161680 0.00750000 -0.00052533
v -0.00062581 0.00750000 0.00158062
v -0.00021307 0.00750000 0.00168660
v -0.00000000 0.00750000 0.00170000
v 0.00021307 0.00750000 0.00168660
v 0.00062581 0.00750000 0.00158062
v 0.00099923 0.00750000 0.00137533
v 0.00130987 0.00750000 0.00108362
v 0.00153821 0.00750000 0.00072383
v 0.00095000 0.00730000 0.00164545
v 0.00111679 0.00730000 0.00153713
v 0.00110953 0.00736922 0.00152713
v 0.00146398 0.00730000 0.00121110
v 0.00145445 0.00736922 0.00120323
v 0.00171917 0.00730000 0.00080898
v 0.00170799 0.00736922 0.00080372
v 0.00178542 0.00730000 0.00064984
v 0.00185420 0.00736922 0.00035371
v 0.00186635 0.00730000 0.00035602
v 0.00188391 0.00736922 -0.00011853
v 0.00190000 0.00730000 -0.00000000
v 0.00069944 0.00730000 0.00176658
v 0.00069489 0.00736922 0.00175508
v 0.00032993 0.00730000 0.00187113
v 0.00023658 0.00736922 0.00187275
v 0.00023813 0.00730000 0.00188502
v -0.00023658 0.00736922 0.00187275
v -0.00023813 0.00730000 0.00188502
v -0.00178542 0.00730000 0.00064984
v -0.00171917 0.00730000 0.00080898
v -0.00170799 0.00736922 0.00080372
v -0.00146398 0.00730000 0.00121110
v -0.00145445 0.00736922 0.00120323
v -0.00111679 0.00730000 0.00153713
v -0.00110953 0.00736922 0.00152713
v -0.00095000 0.00730000 0.00164545
v -0.00069489 0.00736922 0.00175508
v -0.00069944 0.00730000 0.00176658
v -0.00032993 0.00730000 0.00187113
v -0.00186635 0.00730000 0.00035602
v -0.00185420 0.00736922 0.00035371
v -0.00190000 0.00730000 -0.00000000
v -0.00188391 0.00736922 -0.00011853
v -0.00189625 0.00730000 -0.00011930
v -0.00179525 0.00736922 -0.00058331
v -0.00180701 0.00730000 -0.00058713
v -0.00129218 0.00736922 -0.00137603
v -0.00145548 0.00730000 -0.00122130
v -0.00159379 0.00736922 -0.00101145
v -0.00160422 0.00730000 -0.00101807
v -0.00178542 0.00730000 -0.00064984
v -0.00032993 0.00730000 -0.00187114
v -0.00047251 0.00730000 -0.00184031
v -0.00046944 0.00736922 -0.00182834
v -0.00091533 0.00730000 -0.00166498
v -0.00090938 0.00736922 -0.00165415
v -0.00095000 0.00730000 -0.00164545
v -0.00130064 0.00730000 -0.00138504
v -0.00000000 0.00730000 -0.00190000
v -0.00000000 0.00736922 -0.00188764
v 0.00032993 0.00730000 -0.00187114
v 0.00046944 0.00736922 -0.00182834
v 0.00047251 0.00730000 -0.00184031
v 0.00090938 0.00736922 -0.00165415
v 0.00091533 0.00730000 -0.00166498
v 0.00095000 0.00730000 -0.00164545
v 0.00129218 0.00736922 -0.00137603
v 0.00130064 0.00730000 -0.00138504
v 0.00189625 0.00730000 -0.00011930
v 0.00180701 0.00730000 -0.00058713
v 0.00179525 0.00736922 -0.00058331
v 0.00178542 0.00730000 -0.00064984
v 0.00159379 0.00736922 -0.00101145
v 0.00160422 0.00730000 -0.00101807
v 0.00145548 0.00730000 -0.00122130
v -0.00022174 0.00748764 0.00175527
v -0.00065129 0.00748764 0.00164498
v -0.00103992 0.00748764 0.00143133
v -0.00136321 0.00748764 0.00112775
v -0.00160084 0.00748764 0.00075330
v -0.00173789 0.00748764 0.00033152
v -0.00176573 0.00748764 -0.00011109
v -0.00168263 0.00748764 -0.00054672
v -0.00149380 0.00748764 -0.00094800
v -0.00121112 0.00748764 -0.00128971
v -0.00085233 0.00748764 -0.00155038
v -0.00043999 0.00748764 -0.00171364
v -0.00000000 0.00748764 -0.00176922
v 0.00043999 0.00748764 -0.00171364
v 0.00085233 0.00748764 -0.00155038
v 0.00121112 0.00748764 -0.00128971
v 0.00149380 0.00748764 -0.00094800
v 0.00168263 0.00748764 -0.00054672
v 0.00176573 0.00748764 -0.00011109
v 0.00173789 0.00748764 0.00033152
v 0.00160084 0.00748764 0.00075330
v 0.00136321 0.00748764 0.00112775
v 0.00103992 0.00748764 0.00143133
v 0.00065129 0.00748764 0.00164498
v 0.00022174 0.00748764 0.00175527
v -0.00000000 0.00744142 -0.00184142
v -0.00045794 0.00744142 -0.00178357
v -0.00088711 0.00744142 -0.00161365
v -0.00126054 0.00744142 -0.00134234
v -0.00155476 0.00744142 -0.00098668
v -0.00175130 0.00744142 -0.00056903
v -0.00183779 0.00744142 -0.00011562
v -0.00180880 0.00744142 0.00034505
v -0.00166617 0.00744142 0.00078404
v -0.00141884 0.00744142 0.00117377
v -0.00108236 0.00744142 0.00148974
v -0.00067787 0.00744142 0.00171211
v -0.00023079 0.00744142 0.00182690
v 0.00023079 0.00744142 0.00182690
v 0.00067787 0.00744142 0.00171211
v 0.00108236 0.00744142 0.00148974
v 0.00141884 0.00744142 0.00117377
v 0.00166617 0.00744142 0.00078404
v 0.00180880 0.00744142 0.00034505
v 0.00183779 0.00744142 -0.00011562
v 0.00175130 0.00744142 -0.00056903
v 0.00155476 0.00744142 -0.00098668
v 0.00126054 0.00744142 -0.00134234
v 0.00088711 0.00744142 -0.00161365
v 0.00045794 0.00744142 -0.00178357
v -0.00150000 0.00315000 -0.00000000
v -0.00138582 -0.00315000 0.00057402
v -0.00138582 0.00315000 0.00057402
v -0.00106066 -0.00315000 0.00106066
v -0.00106066 0.00315000 0.00106066
v -0.00057403 -0.00315000 0.00138582
v -0.00057403 0.00315000 0.00138582
v 0.00000000 -0.00315000 0.00150000
v 0.00000000 0.00315000 0.00150000
v 0.00057403 -0.00315000 0.00138582
v 0.00057403 0.00315000 0.00138582
v 0.00106066 -0.00315000 0.00106066
v 0.00106066 0.00315000 0.00106066
v 0.00138582 -0.00315000 0.00057402
v 0.00138582 0.00315000 0.00057402
v 0.00150000 -0.00315000 -0.00000000
v 0.00150000 0.00315000 -0.00000000
v 0.00138582 -0.00315000 -0.00057402
v 0.00138582 0.00315000 -0.00057402
v 0.00106066 -0.00315000 -0.00106066
v 0.00106066 0.00315000 -0.00106066
v 0.00057403 -0.00315000 -0.00138582
v 0.00057403 0.00315000 -0.00138582
v 0.00000000 -0.00315000 -0.00150000
v 0.00000000 0.00315000 -0.00150000
v -0.00057403 -0.00315000 -0.00138582
v -0.00057403 0.00315000 -0.00138582
v -0.00106066 -0.00315000 -0.00106066
v -0.00106066 0.00315000 -0.00106066
v -0.00138582 -0.00315000 -0.00057402
v -0.00138582 0.00315000 -0.00057402
v -0.00150000 -0.00315000 -0.00000000
v 0.00178542 0.00550000 -0.00064984
v 0.00190000 0.00550000 -0.00000000
v 0.00145548 0.00550000 -0.00122130
v 0.00095000 0.00550000 -0.00164545
v 0.00032993 0.00550000 -0.00187114
v -0.00032993 0.00550000 -0.00187114
v -0.00095000 0.00550000 -0.00164545
v -0.00145548 0.00550000 -0.00122130
v -0.00178542 0.00550000 -0.00064984
v -0.00190000 0.00550000 -0.00000000
v -0.00178542 0.00550000 0.00064984
v -0.00145548 0.00550000 0.00122130
v -0.00095000 0.00550000 0.00164545
v -0.00032993 0.00550000 0.00187113
v 0.00032993 0.00550000 0.00187113
v 0.00095000 0.00550000 0.00164545
v 0.00145548 0.00550000 0.00122130
v 0.00178542 0.00550000 0.00064984
v 0.00449340 -0.00315000 0.00637927
v -0.00339865 -0.00315000 -0.00158482
v -0.00290097 -0.00315000 -0.00237631
v -0.00222296 -0.00315000 -0.00302009
v -0.00726193 -0.00315000 0.00670000
v -0.00050313 -0.00315000 -0.00371609
v -0.00140677 -0.00315000 -0.00347613
v 0.00367107 -0.00315000 -0.00076533
v 0.00336765 -0.00315000 -0.00164968
v 0.00474602 -0.00315000 0.00670000
v 0.00285488 -0.00315000 -0.00243149
v 0.00216465 -0.00315000 -0.00306215
v 0.00133987 -0.00315000 -0.00350246
v 0.00043179 -0.00315000 -0.00372506
v 0.00336603 -0.00315000 0.00217711
v 0.00358865 -0.00315000 0.00108817
v 0.00374630 -0.00315000 0.00016660
v 0.00392161 -0.00315000 0.00542618
v 0.00353541 -0.00315000 0.00438398
v 0.00334808 -0.00315000 0.00328842
v 0.00334808 0.00315000 0.00328842
v 0.00353541 0.00315000 0.00438398
v 0.00367107 0.00315000 -0.00076533
v 0.00374630 0.00315000 0.00016660
v 0.00358865 0.00315000 0.00108817
v 0.00336603 0.00315000 0.00217711
v 0.00216465 0.00315000 -0.00306215
v 0.00285488 0.00315000 -0.00243149
v 0.00336765 0.00315000 -0.00164968
v -0.00050313 0.00315000 -0.00371609
v 0.00043179 0.00315000 -0.00372506
v 0.00133987 0.00315000 -0.00350246
v -0.00726193 0.00315000 0.00670000
v -0.00339865 0.00315000 -0.00158482
v -0.00290097 0.00315000 -0.00237631
v -0.00222296 0.00315000 -0.00302009
v -0.00140677 0.00315000 -0.00347613
v 0.00392161 0.00315000 0.00542618
v 0.00449340 0.00315000 0.00637927
v 0.00474602 0.00315000 0.00670000
v -0.00153209 0.00550000 0.00128558
v -0.00100000 0.00550000 0.00173205
v -0.00034730 0.00550000 0.00196961
v 0.00034730 0.00550000 0.00196961
v 0.00100000 0.00550000 0.00173205
v 0.00153209 0.00550000 0.00128558
v 0.00187939 0.00550000 0.00068404
v 0.00200000 0.00550000 -0.00000000
v 0.00187939 0.00550000 -0.00068404
v 0.00153209 0.00550000 -0.00128558
v 0.00100000 0.00550000 -0.00173205
v 0.00034730 0.00550000 -0.00196961
v -0.00034730 0.00550000 -0.00196961
v -0.00100000 0.00550000 -0.00173205
v -0.00153209 0.00550000 -0.00128558
v -0.00187939 0.00550000 -0.00068404
v -0.00200000 0.00550000 -0.00000000
v -0.00187939 0.00550000 0.00068404
v 0.00645000 0.00020000 0.01070000
v 0.00632230 0.00157812 0.01070000
v -0.00105000 0.00020000 0.01070000
v 0.00532663 -0.00374824 0.01070000
v 0.00594354 -0.00250931 0.01070000
v 0.00632230 -0.00117812 0.01070000
v 0.00229304 -0.00651372 0.01070000
v 0.00346976 -0.00578513 0.01070000
v 0.00449257 -0.00485272 0.01070000
v -0.00174201 -0.00726801 0.01070000
v -0.00035799 -0.00726801 0.01070000
v 0.00100247 -0.00701369 0.01070000
v -0.00556976 -0.00578513 0.01070000
v -0.00439304 -0.00651372 0.01070000
v -0.00310247 -0.00701369 0.01070000
v -0.00804354 -0.00250931 0.01070000
v -0.00742663 -0.00374824 0.01070000
v -0.00659257 -0.00485272 0.01070000
v -0.00842230 0.00157812 0.01070000
v -0.00855000 0.00020000 0.01070000
v -0.00842230 -0.00117812 0.01070000
v -0.00659257 0.00525272 0.01070000
v -0.00742663 0.00414824 0.01070000
v -0.00804354 0.00290931 0.01070000
v -0.00310247 0.00741369 0.01070000
v -0.00439304 0.00691372 0.01070000
v -0.00556976 0.00618513 0.01070000
v 0.00100247 0.00741369 0.01070000
v -0.00035799 0.00766801 0.01070000
v -0.00174201 0.00766801 0.01070000
v 0.00449257 0.00525272 0.01070000
v 0.00346976 0.00618513 0.01070000
v 0.00229304 0.00691372 0.01070000
v 0.00594354 0.00290931 0.01070000
v 0.00532663 0.00414824 0.01070000
v -0.00339865 -0.00692277 -0.00158482
v -0.00310247 -0.00701369 -0.00210646
v -0.00290097 -0.00706801 -0.00237631
v -0.00258146 -0.00714198 -0.00272003
v -0.00222296 -0.00720771 -0.00302009
v -0.00174201 -0.00726801 -0.00332083
v -0.00140677 -0.00729151 -0.00347613
v -0.00096042 -0.00729947 -0.00362493
v -0.00050290 -0.00728002 -0.00371613
v 0.00003793 -0.00722067 -0.00374981
v -0.00035799 -0.00726801 -0.00373287
v 0.00100247 -0.00701369 -0.00361352
v 0.00043179 -0.00715216 -0.00372506
v 0.00176811 -0.00675041 -0.00330701
v 0.00133987 -0.00690905 -0.00350246
v 0.00285488 -0.00620327 -0.00243149
v 0.00258834 -0.00635839 -0.00271348
v 0.00229304 -0.00651372 -0.00296723
v 0.00216520 -0.00657587 -0.00306176
v 0.00358476 -0.00569653 -0.00110091
v 0.00367107 -0.00562765 -0.00076533
v 0.00373758 -0.00557314 -0.00030501
v 0.00346976 -0.00578513 -0.00142242
v 0.00336765 -0.00586089 -0.00164968
v 0.00313471 -0.00602400 -0.00205818
v 0.00374630 -0.00556589 0.00016660
v 0.00369617 -0.00560723 0.00063314
v 0.00358865 -0.00569347 0.00108817
v 0.00537500 0.00406903 0.00735746
v 0.00532748 -0.00374686 0.00730739
v 0.00532684 0.00414790 0.00730673
v 0.00520219 -0.00394247 0.00718324
v 0.00520219 0.00434247 0.00718324
v 0.00601314 -0.00232230 0.00826821
v 0.00594395 -0.00250827 0.00813851
v 0.00565142 0.00356764 0.00768779
v 0.00578686 -0.00288341 0.00788014
v 0.00551641 -0.00342384 0.00751741
v 0.00623889 -0.00156692 0.00880361
v 0.00619428 -0.00174175 0.00867865
v 0.00632238 0.00157771 0.00908355
v 0.00588742 0.00304994 0.00804039
v 0.00594384 0.00290853 0.00813833
v 0.00612524 -0.00198309 0.00850711
v 0.00608336 0.00251629 0.00841297
v 0.00623889 0.00196693 0.00880360
v 0.00634698 0.00143880 0.00918395
v 0.00642355 0.00082932 0.00962666
v 0.00644999 0.00018601 0.01007569
v 0.00644999 0.00021399 0.01007569
v 0.00645000 0.00020000 0.01008590
v 0.00643062 -0.00033887 0.00969259
v 0.00636030 -0.00095645 0.00924357
v 0.00632242 -0.00117748 0.00908371
v 0.00484854 0.00483220 0.00681826
v 0.00484776 -0.00443319 0.00681738
v 0.00449340 -0.00485180 0.00637927
v 0.00419369 -0.00516225 0.00592979
v 0.00392161 -0.00541544 0.00542618
v 0.00370702 -0.00559834 0.00492131
v 0.00353541 -0.00573498 0.00438398
v 0.00345989 -0.00579257 0.00406867
v 0.00339459 -0.00584116 0.00370398
v 0.00334808 -0.00587511 0.00328842
v 0.00333126 -0.00588725 0.00273272
v 0.00346976 -0.00578513 0.00154396
v 0.00336603 -0.00586207 0.00217711
v 0.00419138 0.00556451 0.00592596
v 0.00449257 0.00525272 0.00637813
v 0.00370679 0.00599853 0.00492068
v 0.00392161 0.00581544 0.00542618
v 0.00334808 0.00627511 0.00328842
v 0.00339494 0.00624091 0.00370636
v 0.00346976 0.00618513 0.00411453
v 0.00353541 0.00613498 0.00438398
v 0.00333128 0.00628723 0.00273116
v 0.00336603 0.00626207 0.00217711
v 0.00346976 0.00618513 0.00154396
v 0.00358865 0.00609347 0.00108817
v 0.00369586 0.00600748 0.00063490
v 0.00374630 0.00596589 0.00016660
v 0.00373762 0.00597310 -0.00030445
v 0.00367107 0.00602765 -0.00076533
v 0.00358453 0.00609670 -0.00110165
v 0.00336765 0.00626089 -0.00164968
v 0.00313346 0.00642484 -0.00206007
v 0.00285488 0.00660327 -0.00243149
v 0.00258731 0.00675896 -0.00271446
v 0.00229717 0.00691166 -0.00296403
v 0.00177008 0.00714962 -0.00330595
v 0.00216465 0.00697613 -0.00306215
v 0.00100247 0.00741369 -0.00361352
v 0.00133987 0.00730905 -0.00350246
v -0.00050313 0.00768004 -0.00371609
v -0.00035846 0.00766805 -0.00373283
v 0.00003696 0.00762082 -0.00374982
v 0.00043179 0.00755216 -0.00372506
v -0.00096130 0.00769948 -0.00362469
v -0.00140677 0.00769151 -0.00347613
v -0.00174201 0.00766801 -0.00332083
v -0.00222296 0.00760771 -0.00302009
v -0.00258197 0.00754187 -0.00271955
v -0.00290097 0.00746801 -0.00237631
v -0.00339865 0.00732277 -0.00158482
v -0.00310247 0.00741369 -0.00210646
v -0.00390319 0.00713609 -0.00050285
v -0.00439304 0.00691372 0.00054764
v -0.00390319 -0.00673609 -0.00050285
v -0.00439304 -0.00651372 0.00054764
v -0.00804354 0.00290931 0.00837618
v -0.00776372 0.00354304 0.00777611
v -0.00817523 -0.00214117 0.00865858
v -0.00817523 0.00254117 0.00865858
v -0.00804354 -0.00250931 0.00837618
v -0.00610272 0.00574257 0.00421406
v -0.00556976 0.00618513 0.00307113
v -0.00499824 0.00657663 0.00184551
v -0.00499824 -0.00617663 0.00184551
v -0.00556976 -0.00578513 0.00307113
v -0.00610272 -0.00534257 0.00421406
v -0.00659257 -0.00485272 0.00526455
v -0.00703513 -0.00431976 0.00621363
v -0.00742663 -0.00374824 0.00705320
v -0.00776372 -0.00314304 0.00777611
v -0.00742663 0.00414824 0.00705320
v -0.00703513 0.00471976 0.00621363
v -0.00659257 0.00525272 0.00526455
v -0.00844843 -0.00103010 0.00945340
v -0.00852380 -0.00042638 0.00989197
v -0.00854999 0.00021399 0.01033884
v -0.00854999 0.00018601 0.01033884
v -0.00855000 0.00020000 0.01034906
v -0.00832461 -0.00162483 0.00902531
v -0.00842239 -0.00117761 0.00934677
v -0.00834509 0.00194115 0.00908523
v -0.00853235 0.00071428 0.00997367
v -0.00846415 0.00133157 0.00952476
v -0.00842242 0.00157746 0.00934688
v 0.00173170 0.00716506 0.00100060
v 0.00100000 0.00741440 0.00173205
v 0.00100261 0.00741365 0.00173054
v 0.00128724 0.00732652 0.00153069
v 0.00153209 0.00724151 0.00128558
v 0.00068624 0.00749626 0.00187858
v 0.00034730 0.00756869 0.00196961
v 0.00000256 0.00762577 0.00200000
v -0.00035799 0.00766801 0.00196770
v -0.00068765 0.00769124 0.00187807
v -0.00100000 0.00769983 0.00173205
v -0.00128493 0.00769632 0.00153263
v -0.00153209 0.00768449 0.00128558
v -0.00187939 0.00765400 0.00068404
v -0.00174201 0.00766801 0.00098254
v -0.00196964 0.00764340 -0.00034718
v -0.00200000 0.00763959 -0.00000000
v -0.00196952 0.00764342 0.00034781
v -0.00174201 0.00766801 -0.00098254
v -0.00187939 0.00765400 -0.00068404
v -0.00128520 0.00769631 -0.00153241
v -0.00153209 0.00768449 -0.00128558
v -0.00034730 0.00766701 -0.00196961
v -0.00035823 0.00766803 -0.00196766
v -0.00068815 0.00769127 -0.00187788
v -0.00100000 0.00769983 -0.00173205
v 0.00000191 0.00762587 -0.00200000
v 0.00034730 0.00756869 -0.00196961
v 0.00068526 0.00749650 -0.00187894
v 0.00100247 0.00741369 -0.00173062
v 0.00187939 0.00710425 -0.00068404
v 0.00173175 0.00716505 -0.00100052
v 0.00153209 0.00724151 -0.00128558
v 0.00128705 0.00732658 -0.00153085
v 0.00187939 0.00710425 0.00068404
v 0.00196951 0.00706531 0.00034787
v 0.00200000 0.00705182 -0.00000000
v 0.00196931 0.00706540 -0.00034902
v 0.00352943 -0.00573960 -0.00016712
v 0.00347892 0.00617820 -0.00028075
v 0.00200000 0.00372058 0.00670000
v 0.00167058 0.00405000 0.00670000
v 0.00245000 0.00450000 0.00670000
v 0.00155000 0.00450000 0.00670000
v 0.00167058 0.00495000 0.00670000
v 0.00322942 0.00405000 0.00670000
v 0.00290000 0.00372058 0.00670000
v 0.00245000 0.00360000 0.00670000
v 0.00290000 0.00527942 0.00670000
v 0.00322942 0.00495000 0.00670000
v 0.00335000 0.00450000 0.00670000
v 0.00200000 0.00527942 0.00670000
v 0.00245000 0.00540000 0.00670000
v 0.00276775 0.00394964 0.00320000
v 0.00300036 0.00418225 0.00320000
v 0.00245000 0.00450000 0.00320000
v 0.00308550 0.00450000 0.00320000
v 0.00300036 0.00481775 0.00320000
v 0.00189964 0.00418225 0.00320000
v 0.00213225 0.00394964 0.00320000
v 0.00245000 0.00386450 0.00320000
v 0.00213225 0.00505036 0.00320000
v 0.00189964 0.00481775 0.00320000
v 0.00181450 0.00450000 0.00320000
v 0.00276775 0.00505036 0.00320000
v 0.00245000 0.00513550 0.00320000
v 0.00189964 0.00418225 0.00643550
v 0.00213225 0.00394964 0.00643550
v 0.00245000 0.00386450 0.00643550
v 0.00276775 0.00394964 0.00643550
v 0.00300036 0.00418225 0.00643550
v 0.00308550 0.00450000 0.00643550
v 0.00300036 0.00481775 0.00643550
v 0.00276775 0.00505036 0.00643550
v 0.00245000 0.00513550 0.00643550
v 0.00213225 0.00505036 0.00643550
v 0.00189964 0.00481775 0.00643550
v 0.00181450 0.00450000 0.00643550
v -0.00500000 0.00372058 0.00670000
v -0.00532942 0.00405000 0.00670000
v -0.00455000 0.00450000 0.00670000
v -0.00545000 0.00450000 0.00670000
v -0.00532942 0.00495000 0.00670000
v -0.00377058 0.00405000 0.00670000
v -0.00410000 0.00372058 0.00670000
v -0.00455000 0.00360000 0.00670000
v -0.00410000 0.00527942 0.00670000
v -0.00377058 0.00495000 0.00670000
v -0.00365000 0.00450000 0.00670000
v -0.00500000 0.00527942 0.00670000
v -0.00455000 0.00540000 0.00670000
v -0.00423225 0.00394964 0.00320000
v -0.00399964 0.00418225 0.00320000
v -0.00455000 0.00450000 0.00320000
v -0.00391450 0.00450000 0.00320000
v -0.00399964 0.00481775 0.00320000
v -0.00510036 0.00418225 0.00320000
v -0.00486775 0.00394964 0.00320000
v -0.00455000 0.00386450 0.00320000
v -0.00486775 0.00505036 0.00320000
v -0.00510036 0.00481775 0.00320000
v -0.00518550 0.00450000 0.00320000
v -0.00423225 0.00505036 0.00320000
v -0.00455000 0.00513550 0.00320000
v -0.00510036 0.00418225 0.00643550
v -0.00486775 0.00394964 0.00643550
v -0.00455000 0.00386450 0.00643550
v -0.00423225 0.00394964 0.00643550
v -0.00399964 0.00418225 0.00643550
v -0.00391450 0.00450000 0.00643550
v -0.00399964 0.00481775 0.00643550
v -0.00423225 0.00505036 0.00643550
v -0.00455000 0.00513550 0.00643550
v -0.00486775 0.00505036 0.00643550
v -0.00510036 0.00481775 0.00643550
v -0.00518550 0.00450000 0.00643550
vn -0.40464389 0.58741214 0.70086396
vn 0.00000000 1.00000000 0.00000000
vn -0.80928797 0.58741210 0.00000001
vn -0.40464392 0.58741213 -0.70086396
vn 0.40464389 0.58741215 -0.70086396
vn 0.80928796 0.58741212 0.00000000
vn 0.40464392 0.58741214 0.70086395
vn -0.54470469 0.83862793 0.00000000
vn -0.27235236 0.83862784 0.47172825
vn -0.27235236 0.83862784 -0.47172825
vn 0.27235236 0.83862784 -0.47172824
vn 0.54470467 0.83862794 0.00000000
vn 0.27235236 0.83862784 0.47172824
vn 0.06519232 0.99545488 -0.06942288
vn 0.04588027 0.99545473 -0.08345584
vn 0.02368454 0.99545467 -0.09224451
vn -0.04588014 0.99545475 -0.08345574
vn -0.02368441 0.99545467 -0.09224455
vn -0.00000009 0.99545474 -0.09523583
vn 0.09354860 0.99545477 0.01784525
vn 0.09504760 0.99545477 -0.00598000
vn 0.09057457 0.99545474 -0.02942954
vn 0.08041057 0.99545470 -0.05103015
vn -0.09504776 0.99545475 -0.00598003
vn -0.09354865 0.99545477 0.01784533
vn -0.05597838 0.99545470 0.07704777
vn -0.07338053 0.99545472 0.06070585
vn -0.08617241 0.99545469 0.04054970
vn -0.06519259 0.99545487 -0.06942278
vn -0.08041054 0.99545469 -0.05103035
vn -0.09057457 0.99545475 -0.02942952
vn -0.03505882 0.99545471 0.08854828
vn -0.01482034 0.99561557 0.09235797
vn -0.00000000 0.99394710 0.10985971
vn 0.01482041 0.99561557 0.09235801
vn 0.03505881 0.99545471 0.08854831
vn 0.05597830 0.99545471 0.07704773
vn 0.07338058 0.99545472 0.06070582
vn 0.08617238 0.99545469 0.04054978
vn 0.45924275 0.22511638 0.85931293
vn 0.61446437 0.08717183 0.78411390
vn 0.55692772 0.36935000 0.74391672
vn 0.76773991 0.08761271 0.63474360
vn 0.71906327 0.35928670 0.59486223
vn 0.88365764 0.08685253 0.46000633
vn 0.83365263 0.37038007 0.40968512
vn 0.93488611 0.16043387 0.31662111
vn 0.91607064 0.36575492 0.16443212
vn 0.98064143 0.09171689 0.17300404
vn 0.92564901 0.37137587 -0.07248357
vn 0.98444253 0.16842128 0.05007170
vn 0.36424897 0.09498872 0.92644473
vn 0.34829622 0.36279322 0.86433259
vn 0.21804983 0.13368252 0.96673846
vn 0.10097699 0.37196070 0.92273988
vn 0.07367078 0.08577383 0.99358717
vn -0.10300044 0.37153371 0.92268825
vn -0.07367089 0.08577389 0.99358716
vn -0.93175969 0.20685831 0.29838485
vn -0.88365756 0.08685206 0.46000655
vn -0.83452152 0.37015494 0.40811659
vn -0.76774070 0.08761233 0.63474270
vn -0.71906441 0.35928688 0.59486076
vn -0.61446381 0.08717079 0.78411446
vn -0.55821002 0.36953232 0.74286435
vn -0.48150714 0.16489221 0.86079117
vn -0.33175181 0.36673156 0.86916552
vn -0.34867890 0.09065628 0.93284750
vn -0.22573189 0.14856819 0.96279417
vn -0.97737867 0.09388290 0.18951764
vn -0.91360835 0.36378295 0.18160878
vn -0.98868809 0.14478409 0.03915897
vn -0.92535441 0.37171943 -0.07445723
vn -0.99019242 0.08615703 -0.10998157
vn -0.88672220 0.37096928 -0.27587231
vn -0.96292225 0.08642676 -0.25556048
vn -0.62750735 0.37012747 -0.68501108
vn -0.75814039 0.16711419 -0.63031421
vn -0.79195947 0.36769012 -0.48744659
vn -0.85386240 0.08959706 -0.51272934
vn -0.90997371 0.12881148 -0.39415155
vn -0.12667103 0.18792046 -0.97398170
vn -0.29150905 0.08428274 -0.95284778
vn -0.24478560 0.37085808 -0.89584837
vn -0.42729230 0.08496403 -0.90011244
vn -0.43901882 0.36943276 -0.81901277
vn -0.54707482 0.10669517 -0.83025615
vn -0.66148529 0.08695220 -0.74490035
vn -0.00841530 0.09279926 -0.99564928
vn -0.00869466 0.36477265 -0.93105602
vn 0.14110840 0.15372947 -0.97798552
vn 0.24659609 0.37113423 -0.89523726
vn 0.28991592 0.08651243 -0.95313397
vn 0.43901782 0.36943267 -0.81901334
vn 0.42864618 0.08701226 -0.89927266
vn 0.54707487 0.10669536 -0.83025609
vn 0.62866425 0.36997838 -0.68403016
vn 0.66148530 0.08695271 -0.74490028
vn 0.99019223 0.08615781 -0.10998259
vn 0.96292258 0.08642535 -0.25555972
vn 0.88709347 0.37148824 -0.27397382
vn 0.91314040 0.12071482 -0.38936170
vn 0.78493962 0.36179516 -0.50296526
vn 0.84455974 0.09609556 -0.52676797
vn 0.75924128 0.24264429 -0.60388445
vn -0.04950119 0.92523959 0.37614005
vn -0.13909432 0.92586858 0.35131204
vn -0.22209052 0.92586994 0.30568066
vn -0.29113520 0.92586838 0.24084860
vn -0.34188447 0.92586894 0.16087795
vn -0.37115281 0.92586865 0.07080133
vn -0.37709965 0.92586877 -0.02372487
vn -0.35935212 0.92586880 -0.11676051
vn -0.31902602 0.92586836 -0.20246033
vn -0.25865401 0.92586821 -0.27543813
vn -0.18202712 0.92586974 -0.33110626
vn -0.09396558 0.92587019 -0.36597113
vn -0.00000056 0.92586871 -0.37784539
vn 0.09396615 0.92587026 -0.36597079
vn 0.18202760 0.92586962 -0.33110633
vn 0.25865368 0.92586806 -0.27543895
vn 0.31902596 0.92586846 -0.20245993
vn 0.35935208 0.92586882 -0.11676044
vn 0.37709951 0.92586883 -0.02372489
vn 0.37115179 0.92586908 0.07080105
vn 0.34188441 0.92586891 0.16087824
vn 0.29113546 0.92586844 0.24084805
vn 0.22208999 0.92586987 0.30568122
vn 0.13909462 0.92586847 0.35131220
vn 0.04950147 0.92523954 0.37614013
vn -0.00000088 0.69864329 -0.71547016
vn -0.17792825 0.69864957 -0.69298652
vn -0.34467975 0.69864576 -0.62696888
vn -0.48977100 0.69864711 -0.52155209
vn -0.60408699 0.69864876 -0.38336511
vn -0.68045046 0.69864547 -0.22109201
vn -0.71405527 0.69864645 -0.04492460
vn -0.70279388 0.69864688 0.13406452
vn -0.64737495 0.69864501 0.30463228
vn -0.55127753 0.69864570 0.45605622
vn -0.42054136 0.69864436 0.57882728
vn -0.26338138 0.69864539 0.66522543
vn -0.08967214 0.69864590 0.70982590
vn 0.08967208 0.69864609 0.70982573
vn 0.26338115 0.69864587 0.66522502
vn 0.42054168 0.69864425 0.57882718
vn 0.55127743 0.69864554 0.45605658
vn 0.64737507 0.69864505 0.30463194
vn 0.70279340 0.69864734 0.13406464
vn 0.71405557 0.69864613 -0.04492471
vn 0.68045016 0.69864565 -0.22109236
vn 0.60408745 0.69864864 -0.38336461
vn 0.48977076 0.69864742 -0.52155190
vn 0.34467896 0.69864623 -0.62696879
vn 0.17792946 0.69864914 -0.69298664
vn -0.65714122 -0.75376748 -0.00000000
vn -0.60711979 0.75376718 0.25147684
vn -0.60711979 -0.75376718 0.25147683
vn -0.46466885 0.75376775 0.46466875
vn -0.46466883 -0.75376775 0.46466875
vn -0.25147643 0.75376734 0.60711975
vn -0.25147643 -0.75376736 0.60711974
vn 0.00000000 0.75376717 0.65714158
vn 0.00000001 -0.75376717 0.65714157
vn 0.25147643 0.75376734 0.60711975
vn 0.25147645 -0.75376736 0.60711973
vn 0.46466884 0.75376779 0.46466868
vn 0.46466884 -0.75376773 0.46466878
vn 0.60711985 0.75376713 0.25147685
vn 0.60711976 -0.75376722 0.25147680
vn 0.65714117 0.75376753 -0.00000001
vn 0.65714128 -0.75376743 -0.00000000
vn 0.60711985 0.75376713 -0.25147684
vn 0.60711976 -0.75376722 -0.25147678
vn 0.46466884 0.75376779 -0.46466869
vn 0.46466884 -0.75376773 -0.46466879
vn 0.25147643 0.75376735 -0.60711975
vn 0.25147645 -0.75376736 -0.60711973
vn 0.00000001 0.75376717 -0.65714157
vn 0.00000001 -0.75376717 -0.65714157
vn -0.25147643 0.75376736 -0.60711974
vn -0.25147643 -0.75376736 -0.60711974
vn -0.46466880 0.75376778 -0.46466874
vn -0.46466885 -0.75376776 -0.46466872
vn -0.60711976 0.75376721 -0.25147680
vn -0.60711982 -0.75376717 -0.25147680
vn -0.65714117 0.75376753 -0.00000001
vn 0.62753178 0.74471848 -0.22715247
vn 0.66764700 0.74447679 -0.00133752
vn 0.51193018 0.74379997 -0.42975470
vn 0.33310312 0.74466948 -0.57836812
vn 0.11701290 0.74420619 -0.65762081
vn -0.11829928 0.74515221 -0.65631811
vn -0.33121103 0.74569300 -0.57813598
vn -0.51193024 0.74379990 -0.42975474
vn -0.62753178 0.74471845 -0.22715256
vn -0.66764694 0.74447685 -0.00133749
vn -0.62762622 0.74400275 0.22922747
vn -0.51141424 0.74469169 0.42882369
vn -0.33454966 0.74386687 0.57856599
vn -0.11426001 0.74481530 0.65741525
vn 0.11426002 0.74481532 0.65741524
vn 0.33454960 0.74386685 0.57856605
vn 0.51141418 0.74469174 0.42882368
vn 0.62762627 0.74400273 0.22922739
vn 0.56090354 0.72551728 -0.39876295
vn -0.63262097 0.69444622 -0.34283399
vn -0.56543061 0.68253737 -0.46306692
vn -0.43317795 0.68246359 -0.58872770
vn -0.75243700 0.19986816 -0.62760758
vn -0.09805239 0.68249239 -0.72428576
vn -0.27425133 0.68245982 -0.67752107
vn 0.71717009 0.68062856 -0.14970579
vn 0.65780499 0.68067404 -0.32245223
vn 0.59734997 0.18043718 -0.78141886
vn 0.55775672 0.68050441 -0.47520647
vn 0.42371296 0.68182715 -0.59630450
vn 0.26087219 0.68268136 -0.68256272
vn 0.08413960 0.68247253 -0.72605218
vn 0.68390295 0.72573262 0.07475902
vn 0.69724410 0.70386132 0.13575681
vn 0.73074283 0.68200412 0.02975404
vn 0.61889205 0.72626967 -0.29917387
vn 0.66376630 0.72700167 -0.17573521
vn 0.68482347 0.72667566 -0.05439942
vn 0.68538084 -0.72625398 -0.05299295
vn 0.66419405 -0.72615622 -0.17760462
vn 0.71467572 -0.68334872 -0.14924186
vn 0.73071870 -0.68178654 0.03488983
vn 0.69906466 -0.70253651 0.13323308
vn 0.68356772 -0.72605129 0.07473086
vn 0.42169911 -0.68267146 -0.59676589
vn 0.55597275 -0.68291710 -0.47383387
vn 0.65587784 -0.68304611 -0.32136003
vn -0.09807613 -0.68229539 -0.72446813
vn 0.08416962 -0.68227351 -0.72623573
vn 0.26097917 -0.68244901 -0.68275415
vn -0.75243690 -0.19986820 -0.62760770
vn -0.63282043 -0.69331661 -0.34474683
vn -0.56715670 -0.68140358 -0.46262560
vn -0.43329852 -0.68226896 -0.58886455
vn -0.27431576 -0.68226564 -0.67769053
vn 0.62046446 -0.72560506 -0.29752505
vn 0.56886444 -0.72066080 -0.39628433
vn 0.59290855 -0.15304097 -0.79059339
vn 0.56865510 0.67287612 -0.47314808
vn 0.36908531 0.67462758 -0.63926024
vn 0.12826542 0.67468459 -0.72687598
vn -0.12793060 0.67488490 -0.72674902
vn -0.36853083 0.67521754 -0.63895720
vn -0.56452217 0.67563407 -0.47416592
vn -0.69236959 0.67600232 -0.25228006
vn -0.73953246 0.67310585 0.00450129
vn -0.69657912 0.67103087 0.25395887
vn -0.56779888 0.67094865 0.47689866
vn -0.37251025 0.67331085 0.63866158
vn -0.12793017 0.67488519 0.72674883
vn 0.12826495 0.67469430 0.72686705
vn 0.36908509 0.67462755 0.63926040
vn 0.56544885 0.67462162 0.47450317
vn 0.69356103 0.67470399 0.25248292
vn 0.74019594 0.67238306 -0.00331422
vn 0.69703262 0.67059202 -0.25387373
vn 0.72638870 0.00047315 0.68728395
vn 0.71089160 0.13669244 0.68989008
vn 0.00000000 0.00000000 1.00000000
vn 0.61543888 -0.38221376 0.68930953
vn 0.67398319 -0.26218551 0.69065579
vn 0.70934419 -0.13342539 0.69211883
vn 0.32397326 -0.65029156 0.68714061
vn 0.43635008 -0.57995228 0.68793456
vn 0.53581033 -0.48827519 0.68883570
vn -0.06704749 -0.72360025 0.68695510
vn 0.06652278 -0.72328845 0.68733437
vn 0.19902720 -0.69840723 0.68747037
vn -0.43784529 -0.57985660 0.68706465
vn -0.32388944 -0.65048659 0.68699550
vn -0.19886073 -0.69894682 0.68696998
vn -0.67571282 -0.26318881 0.68858103
vn -0.61717144 -0.38253176 0.68758190
vn -0.53678298 -0.48947945 0.68722187
vn -0.70759823 0.13635808 0.69333342
vn -0.72178682 -0.00745657 0.69207528
vn -0.70972803 -0.13867724 0.69069150
vn -0.53533007 0.48869281 0.68891295
vn -0.61514479 0.38187640 0.68975887
vn -0.67379936 0.26207340 0.69087767
vn -0.19815135 0.69870211 0.68742374
vn -0.32328467 0.64970705 0.68801728
vn -0.43688423 0.57902964 0.68837260
vn 0.19889614 0.69794694 0.68797558
vn 0.06615706 0.72311057 0.68755679
vn -0.06705994 0.72355301 0.68700364
vn 0.53665352 0.48944253 0.68734926
vn 0.43772653 0.57977993 0.68720500
vn 0.32421122 0.64990401 0.68739498
vn 0.67614369 0.26295068 0.68824898
vn 0.61716094 0.38251519 0.68760054
vn -0.75049536 -0.59226036 -0.29323094
vn -0.70813955 -0.60826141 -0.35854766
vn -0.65406705 -0.62621119 -0.42432986
vn -0.58746387 -0.64282608 -0.49159011
vn -0.49676832 -0.66272345 -0.56037386
vn -0.39052339 -0.68344772 -0.61675822
vn -0.28690299 -0.69626765 -0.65794988
vn -0.17201835 -0.70163658 -0.69145918
vn -0.06667396 -0.70473864 -0.70632714
vn 0.10495480 -0.69347800 -0.71279223
vn 0.01429334 -0.70200698 -0.71202662
vn 0.34536764 -0.65518474 -0.67190338
vn 0.22281028 -0.67820953 -0.70027667
vn 0.54146283 -0.60172225 -0.58715274
vn 0.44992820 -0.63027251 -0.63270939
vn 0.76116130 -0.50741965 -0.40392916
vn 0.71311194 -0.53686484 -0.45082980
vn 0.66833905 -0.55502898 -0.49524312
vn 0.61622874 -0.57745414 -0.53554538
vn 0.88899118 -0.42449726 -0.17174622
vn 0.90105467 -0.41612780 -0.12222171
vn 0.91138565 -0.40925103 -0.04347162
vn 0.86870886 -0.44416410 -0.21923313
vn 0.84603410 -0.45548275 -0.27705914
vn 0.81254932 -0.47743243 -0.33439778
vn 0.91181332 -0.41003538 0.02162077
vn 0.90340138 -0.41694278 0.10012321
vn 0.88743409 -0.44022160 0.13662237
vn 0.88337774 0.28073052 -0.37527875
vn 0.87186906 -0.29427484 -0.39146731
vn 0.86850052 0.30742273 -0.38884201
vn 0.86717414 -0.33227217 -0.37095042
vn 0.86640218 0.33042755 -0.37438603
vn 0.95390705 -0.17363039 -0.24477301
vn 0.94274171 -0.19568150 -0.27008670
vn 0.90788831 0.24844727 -0.33765778
vn 0.92176911 -0.23134335 -0.31116228
vn 0.89533160 -0.26587210 -0.35734207
vn 0.97842289 -0.12641360 -0.16342656
vn 0.97355539 -0.13982884 -0.18065933
vn 0.98452726 0.11370353 -0.13333263
vn 0.93502389 0.21622795 -0.28102634
vn 0.94724908 0.20083559 -0.24976837
vn 0.96466789 -0.15615305 -0.21220763
vn 0.96052837 0.16307404 -0.22537106
vn 0.97657788 0.13293932 -0.16918267
vn 0.99061885 0.07827325 -0.11201605
vn 0.82306022 -0.28172911 -0.49315370
vn 0.99932480 -0.02532928 -0.02661530
vn 0.99945744 0.03160364 0.00927588
vn 0.99957513 0.02627139 0.01262458
vn 0.99762375 -0.04328800 -0.05360046
vn 0.99130818 -0.07620193 -0.10724440
vn 0.98517203 -0.10010255 -0.13933971
vn 0.86397006 0.36605531 -0.34577342
vn 0.86200719 -0.37084320 -0.34557043
vn 0.86485908 -0.40085972 -0.30220897
vn 0.86222991 -0.42880920 -0.26959646
vn 0.86887691 -0.43972474 -0.22736550
vn 0.87269009 -0.45225196 -0.18406568
vn 0.87632066 -0.46145757 -0.13827150
vn 0.86750356 -0.48543894 -0.10856613
vn 0.87050064 -0.48623620 -0.07617736
vn 0.86747054 -0.49611055 -0.03700254
vn 0.86302467 -0.50508831 0.00861516
vn 0.87853765 -0.46476361 0.11030132
vn 0.86617726 -0.49631165 0.05840971
vn 0.86516763 0.42485224 -0.26643114
vn 0.86144688 0.40518283 -0.30616361
vn 0.87277706 0.45208755 -0.18405722
vn 0.86890546 0.43969259 -0.22731856
vn 0.86743047 0.49617942 -0.03701831
vn 0.87022603 0.48659180 -0.07703946
vn 0.87119065 0.47896021 -0.10781449
vn 0.87805670 0.45582105 -0.14575184
vn 0.86314053 0.50488883 0.00870049
vn 0.86626636 0.49615949 0.05838118
vn 0.87704446 0.46769086 0.10981020
vn 0.88729425 0.44052794 0.13654323
vn 0.90516836 0.41381333 0.09710181
vn 0.91072592 0.41194476 0.02966155
vn 0.90770265 0.41693941 -0.04730133
vn 0.89879863 0.42299190 -0.11506034
vn 0.88282527 0.43151746 -0.18550533
vn 0.85133413 0.45373228 -0.26335757
vn 0.80986744 0.48113500 -0.33559477
vn 0.76204580 0.51141902 -0.39716091
vn 0.71016421 0.54059916 -0.45102034
vn 0.66184088 0.56619251 -0.49131730
vn 0.54164023 0.60478191 -0.58383619
vn 0.61862506 0.58309117 -0.52660016
vn 0.34491736 0.65555435 -0.67177415
vn 0.45154285 0.63083179 -0.63099945
vn -0.06733134 0.70521218 -0.70579195
vn 0.01405464 0.70203523 -0.71200351
vn 0.10466627 0.69339244 -0.71291787
vn 0.22335420 0.67818077 -0.70013124
vn -0.17214099 0.70269253 -0.69035548
vn -0.28645191 0.69746146 -0.65688113
vn -0.38936327 0.68402669 -0.61684984
vn -0.49788766 0.66337383 -0.55860813
vn -0.58658235 0.64816359 -0.48559768
vn -0.64830692 0.63686015 -0.41726166
vn -0.75080397 0.59050837 -0.29596159
vn -0.70144181 0.61770647 -0.35555324
vn -0.77329308 0.57945673 -0.25738630
vn -0.79715971 0.54885253 -0.25158954
vn -0.77345995 -0.57948325 -0.25682458
vn -0.79401817 -0.55423166 -0.24972469
vn -0.95476071 0.20673348 -0.21375981
vn -0.94338961 0.25300106 -0.21449126
vn -0.96349432 -0.16666628 -0.20952577
vn -0.96400805 0.16514989 -0.20836026
vn -0.95390750 -0.21527905 -0.20908232
vn -0.87130232 0.43189129 -0.23302830
vn -0.84772662 0.47363668 -0.23880509
vn -0.82202143 0.51409124 -0.24493054
vn -0.82219481 -0.51408654 -0.24435778
vn -0.84527930 -0.47898881 -0.23679659
vn -0.87155115 -0.43183359 -0.23220326
vn -0.89045086 -0.39530189 -0.22546326
vn -0.91217610 -0.34455345 -0.22185059
vn -0.92695109 -0.30698233 -0.21569312
vn -0.94407891 -0.25243321 -0.21211432
vn -0.92858440 0.29941512 -0.21927515
vn -0.91178257 0.34474315 -0.22316968
vn -0.89259483 0.38887712 -0.22814259
vn -0.99071273 -0.07782490 -0.11149691
vn -0.82586938 0.28107951 -0.48880883
vn -0.99938332 0.00884637 -0.03398129
vn -0.99938845 -0.03131128 -0.01556687
vn -0.99999993 0.00000000 -0.00038184
vn -0.97568113 -0.13434388 -0.17319946
vn -0.98368999 -0.11337517 -0.13964269
vn -0.97459316 0.13056636 -0.18199063
vn -0.99754626 0.04454357 -0.05401229
vn -0.99161715 0.07493980 -0.10525900
vn -0.98543240 0.09921299 -0.13812954
vn -0.39045737 0.81576342 -0.42670023
vn -0.13551150 0.73805181 -0.66099634
vn -0.18014718 0.74628975 -0.64077969
vn -0.22560147 0.77211261 -0.59409266
vn -0.31214617 0.79284959 -0.52340644
vn -0.05723104 0.73918269 -0.67106897
vn 0.02651895 0.72997103 -0.68296342
vn 0.10871503 0.72553830 -0.67954045
vn 0.18595466 0.72613154 -0.66193191
vn 0.26658016 0.72862116 -0.63090904
vn 0.34241254 0.73196174 -0.58905489
vn 0.41599834 0.73904270 -0.52986910
vn 0.48611317 0.74773100 -0.45231884
vn 0.58027674 0.77458351 -0.25159349
vn 0.53832904 0.76794539 -0.34707596
vn 0.60070275 0.78941903 0.12638750
vn 0.59840534 0.80119058 -0.00217026
vn 0.59257444 0.79578017 -0.12485772
vn 0.52908522 0.76967951 0.35729858
vn 0.57361899 0.78158323 0.24513039
vn 0.41592161 0.74064979 0.52768087
vn 0.48631892 0.74783849 0.45191979
vn 0.16727591 0.71137376 0.68261712
vn 0.20827691 0.71250717 0.67004050
vn 0.26434193 0.72881969 0.63162109
vn 0.33979252 0.73466587 0.58720278
vn 0.10783752 0.72521709 0.68002297
vn 0.02873160 0.73045995 0.68235090
vn -0.05816974 0.74043068 0.66961085
vn -0.13667139 0.75400082 0.64249801
vn -0.44368294 0.84051631 0.31093052
vn -0.38607296 0.82415993 0.41437673
vn -0.29548385 0.80120741 0.52034217
vn -0.21868644 0.78178966 0.58393592
vn -0.45711871 0.83569489 -0.30439534
vn -0.49993442 0.85143130 -0.15852546
vn -0.50362042 0.86385744 0.01080775
vn -0.49101180 0.85865424 0.14703847
vn 0.61559773 -0.78806052 0.00023918
vn 0.60883575 0.79329619 0.00042734
vn 0.47064230 0.81517657 -0.33761365
vn 0.81517669 0.47064226 -0.33761343
vn 0.00000000 0.00000000 -1.00000000
vn 0.94128475 0.00000032 -0.33761372
vn 0.81517650 -0.47064261 -0.33761339
vn -0.81517660 0.47064238 -0.33761348
vn -0.47064268 0.81517642 -0.33761349
vn 0.00000008 0.94128481 -0.33761356
vn -0.47064242 -0.81517650 -0.33761367
vn -0.81517679 -0.47064209 -0.33761342
vn -0.94128474 -0.00000008 -0.33761373
vn 0.47064260 -0.81517634 -0.33761381
vn -0.00000021 -0.94128487 -0.33761339
vn -0.37858112 0.65572185 0.65322675
vn -0.65572168 0.37858131 0.65322681
vn 0.00000000 0.00000000 1.00000000
vn -0.75716242 0.00000001 0.65322666
vn -0.65572179 -0.37858095 0.65322691
vn 0.65572181 0.37858125 0.65322672
vn 0.37858106 0.65572188 0.65322676
vn 0.00000000 0.75716230 0.65322680
vn 0.37858120 -0.65572194 0.65322662
vn 0.65572194 -0.37858084 0.65322682
vn 0.75716229 -0.00000002 0.65322681
vn -0.37858129 -0.65572191 0.65322660
vn -0.00000000 -0.75716219 0.65322692
vn 0.79106427 0.45672107 0.40696828
vn 0.45672128 0.79106413 0.40696832
vn 0.00000004 0.91344230 0.40696826
vn -0.45672146 0.79106401 0.40696835
vn -0.79106421 0.45672115 0.40696831
vn -0.91344230 0.00000002 0.40696826
vn -0.79106441 -0.45672081 0.40696831
vn -0.45672104 -0.79106428 0.40696829
vn -0.00000018 -0.91344228 0.40696831
vn 0.45672129 -0.79106418 0.40696821
vn 0.79106419 -0.45672119 0.40696831
vn 0.91344230 0.00000031 0.40696826
vn 0.47064245 0.81517646 -0.33761371
vn 0.81517647 0.47064237 -0.33761382
vn 0.00000000 0.00000000 -1.00000000
vn 0.94128487 -0.00000035 -0.33761337
vn 0.81517661 -0.47064205 -0.33761391
vn -0.81517663 0.47064232 -0.33761350
vn -0.47064244 0.81517654 -0.33761356
vn 0.00000013 0.94128481 -0.33761355
vn -0.47064254 -0.81517654 -0.33761340
vn -0.81517646 -0.47064247 -0.33761370
vn -0.94128485 0.00000009 -0.33761342
vn 0.47064234 -0.81517659 -0.33761356
vn 0.00000025 -0.94128474 -0.33761374
vn -0.37858112 0.65572185 0.65322675
vn -0.65572203 0.37858092 0.65322669
vn 0.00000000 0.00000000 1.00000000
vn -0.75716219 0.00000000 0.65322692
vn -0.65572191 -0.37858129 0.65322660
vn 0.65572215 0.37858055 0.65322678
vn 0.37858149 0.65572173 0.65322666
vn 0.00000000 0.75716230 0.65322680
vn 0.37858132 -0.65572167 0.65322682
vn 0.65572203 -0.37858092 0.65322669
vn 0.75716219 -0.00000000 0.65322692
vn -0.37858095 -0.65572179 0.65322691
vn 0.00000000 -0.75716241 0.65322667
vn 0.79106463 0.45672049 0.40696823
vn 0.45672149 0.79106407 0.40696819
vn 0.00000006 0.91344231 0.40696825
vn -0.45672106 0.79106426 0.40696832
vn -0.79106443 0.45672075 0.40696834
vn -0.91344225 0.00000012 0.40696836
vn -0.79106409 -0.45672140 0.40696827
vn -0.45672111 -0.79106425 0.40696828
vn 0.00000015 -0.91344231 0.40696823
vn 0.45672137 -0.79106416 0.40696816
vn 0.79106458 -0.45672080 0.40696799
vn 0.91344229 -0.00000022 0.40696828
f 1//1 2//2 3//3
f 3//3 2//2 4//4
f 4//4 2//2 5//5
f 5//5 2//2 6//6
f 6//6 2//2 7//7
f 7//7 2//2 1//1
f 3//3 8//8 1//1
f 1//1 8//8 9//9
f 4//4 10//10 3//3
f 3//3 10//10 8//8
f 5//5 11//11 4//4
f 4//4 11//11 10//10
f 6//6 12//12 5//5
f 5//5 12//12 11//11
f 7//7 13//13 6//6
f 6//6 13//13 12//12
f 1//1 9//9 7//7
f 7//7 9//9 13//13
f 14//14 15//15 9//9
f 9//9 15//15 16//16
f 17//17 13//13 18//18
f 18//18 13//13 9//9
f 18//18 9//9 19//19
f 19//19 9//9 16//16
f 20//20 21//21 8//8
f 8//8 21//21 22//22
f 8//8 22//22 9//9
f 9//9 22//22 23//23
f 9//9 23//23 14//14
f 12//12 24//24 25//25
f 26//26 11//11 27//27
f 27//27 11//11 12//12
f 27//27 12//12 28//28
f 28//28 12//12 25//25
f 17//17 29//29 13//13
f 13//13 29//29 30//30
f 13//13 30//30 12//12
f 12//12 30//30 31//31
f 12//12 31//31 24//24
f 26//26 32//32 11//11
f 11//11 32//32 33//33
f 11//11 33//33 10//10
f 33//33 34//34 10//10
f 10//10 34//34 35//35
f 10//10 35//35 36//36
f 36//36 37//37 10//10
f 10//10 37//37 38//38
f 10//10 38//38 8//8
f 8//8 38//38 39//39
f 8//8 39//39 20//20
f 40//40 41//41 42//42
f 42//42 41//41 43//43
f 42//42 43//43 44//44
f 44//44 43//43 45//45
f 44//44 45//45 46//46
f 46//46 45//45 47//47
f 46//46 47//47 48//48
f 48//48 47//47 49//49
f 48//48 49//49 50//50
f 50//50 49//49 51//51
f 40//40 42//42 52//52
f 52//52 42//42 53//53
f 52//52 53//53 54//54
f 54//54 53//53 55//55
f 54//54 55//55 56//56
f 56//56 55//55 57//57
f 56//56 57//57 58//58
f 59//59 60//60 61//61
f 61//61 60//60 62//62
f 61//61 62//62 63//63
f 63//63 62//62 64//64
f 63//63 64//64 65//65
f 65//65 64//64 66//66
f 65//65 66//66 67//67
f 67//67 66//66 68//68
f 67//67 68//68 57//57
f 57//57 68//68 69//69
f 57//57 69//69 58//58
f 59//59 61//61 70//70
f 70//70 61//61 71//71
f 70//70 71//71 72//72
f 72//72 71//71 73//73
f 72//72 73//73 74//74
f 74//74 73//73 75//75
f 74//74 75//75 76//76
f 77//77 78//78 79//79
f 79//79 78//78 80//80
f 79//79 80//80 75//75
f 75//75 80//80 81//81
f 75//75 81//81 76//76
f 82//82 83//83 84//84
f 84//84 83//83 85//85
f 84//84 85//85 86//86
f 86//86 85//85 87//87
f 86//86 87//87 77//77
f 77//77 87//87 88//88
f 77//77 88//88 78//78
f 82//82 84//84 89//89
f 89//89 84//84 90//90
f 89//89 90//90 91//91
f 91//91 90//90 92//92
f 91//91 92//92 93//93
f 93//93 92//92 94//94
f 93//93 94//94 95//95
f 95//95 94//94 96//96
f 96//96 94//94 97//97
f 96//96 97//97 98//98
f 51//51 99//99 50//50
f 50//50 99//99 100//100
f 50//50 100//100 101//101
f 101//101 100//100 102//102
f 101//101 102//102 103//103
f 103//103 102//102 104//104
f 103//103 104//104 97//97
f 97//97 104//104 105//105
f 97//97 105//105 98//98
f 34//34 33//33 106//106
f 106//106 33//33 32//32
f 106//106 32//32 107//107
f 107//107 32//32 26//26
f 107//107 26//26 108//108
f 108//108 26//26 27//27
f 108//108 27//27 109//109
f 109//109 27//27 28//28
f 109//109 28//28 110//110
f 110//110 28//28 25//25
f 110//110 25//25 111//111
f 111//111 25//25 24//24
f 111//111 24//24 112//112
f 112//112 24//24 31//31
f 112//112 31//31 113//113
f 113//113 31//31 30//30
f 113//113 30//30 114//114
f 114//114 30//30 29//29
f 114//114 29//29 115//115
f 115//115 29//29 17//17
f 115//115 17//17 116//116
f 116//116 17//17 18//18
f 116//116 18//18 117//117
f 117//117 18//18 19//19
f 117//117 19//19 118//118
f 118//118 19//19 16//16
f 118//118 16//16 119//119
f 119//119 16//16 15//15
f 119//119 15//15 120//120
f 120//120 15//15 14//14
f 120//120 14//14 121//121
f 121//121 14//14 23//23
f 121//121 23//23 122//122
f 122//122 23//23 22//22
f 122//122 22//22 123//123
f 123//123 22//22 21//21
f 123//123 21//21 124//124
f 124//124 21//21 20//20
f 124//124 20//20 125//125
f 125//125 20//20 39//39
f 125//125 39//39 126//126
f 126//126 39//39 38//38
f 126//126 38//38 127//127
f 127//127 38//38 37//37
f 127//127 37//37 128//128
f 128//128 37//37 36//36
f 128//128 36//36 129//129
f 129//129 36//36 35//35
f 129//129 35//35 130//130
f 130//130 35//35 34//34
f 130//130 34//34 106//106
f 118//118 131//131 117//117
f 117//117 131//131 132//132
f 117//117 132//132 116//116
f 116//116 132//132 133//133
f 116//116 133//133 115//115
f 115//115 133//133 134//134
f 115//115 134//134 114//114
f 114//114 134//134 135//135
f 114//114 135//135 113//113
f 113//113 135//135 136//136
f 113//113 136//136 112//112
f 112//112 136//136 137//137
f 112//112 137//137 111//111
f 111//111 137//137 138//138
f 111//111 138//138 110//110
f 110//110 138//138 139//139
f 110//110 139//139 109//109
f 109//109 139//139 140//140
f 109//109 140//140 108//108
f 108//108 140//140 141//141
f 108//108 141//141 107//107
f 107//107 141//141 142//142
f 107//107 142//142 106//106
f 106//106 142//142 143//143
f 106//106 143//143 130//130
f 130//130 143//143 144//144
f 130//130 144//144 129//129
f 129//129 144//144 145//145
f 129//129 145//145 128//128
f 128//128 145//145 146//146
f 128//128 146//146 127//127
f 127//127 146//146 147//147
f 127//127 147//147 126//126
f 126//126 147//147 148//148
f 126//126 148//148 125//125
f 125//125 148//148 149//149
f 125//125 149//149 124//124
f 124//124 149//149 150//150
f 124//124 150//150 123//123
f 123//123 150//150 151//151
f 123//123 151//151 122//122
f 122//122 151//151 152//152
f 122//122 152//152 121//121
f 121//121 152//152 153//153
f 121//121 153//153 120//120
f 120//120 153//153 154//154
f 120//120 154//154 119//119
f 119//119 154//154 155//155
f 119//119 155//155 118//118
f 118//118 155//155 131//131
f 131//131 90//90 132//132
f 132//132 90//90 84//84
f 132//132 84//84 133//133
f 133//133 84//84 86//86
f 133//133 86//86 134//134
f 134//134 86//86 77//77
f 134//134 77//77 135//135
f 135//135 77//77 79//79
f 135//135 79//79 136//136
f 136//136 79//79 75//75
f 136//136 75//75 137//137
f 137//137 75//75 73//73
f 137//137 73//73 138//138
f 138//138 73//73 71//71
f 138//138 71//71 139//139
f 139//139 71//71 61//61
f 139//139 61//61 140//140
f 140//140 61//61 63//63
f 140//140 63//63 141//141
f 141//141 63//63 65//65
f 141//141 65//65 142//142
f 142//142 65//65 67//67
f 142//142 67//67 143//143
f 143//143 67//67 57//57
f 143//143 57//57 144//144
f 144//144 57//57 55//55
f 144//144 55//55 145//145
f 145//145 55//55 53//53
f 145//145 53//53 146//146
f 146//146 53//53 42//42
f 146//146 42//42 147//147
f 147//147 42//42 44//44
f 147//147 44//44 148//148
f 148//148 44//44 46//46
f 148//148 46//46 149//149
f 149//149 46//46 48//48
f 149//149 48//48 150//150
f 150//150 48//48 50//50
f 150//150 50//50 151//151
f 151//151 50//50 101//101
f 151//151 101//101 152//152
f 152//152 101//101 103//103
f 152//152 103//103 153//153
f 153//153 103//103 97//97
f 153//153 97//97 154//154
f 154//154 97//97 94//94
f 154//154 94//94 155//155
f 155//155 94//94 92//92
f 155//155 92//92 131//131
f 131//131 92//92 90//90
f 156//156 157//157 158//158
f 158//158 157//157 159//159
f 158//158 159//159 160//160
f 160//160 159//159 161//161
f 160//160 161//161 162//162
f 162//162 161//161 163//163
f 162//162 163//163 164//164
f 164//164 163//163 165//165
f 164//164 165//165 166//166
f 166//166 165//165 167//167
f 166//166 167//167 168//168
f 168//168 167//167 169//169
f 168//168 169//169 170//170
f 170//170 169//169 171//171
f 170//170 171//171 172//172
f 172//172 171//171 173//173
f 172//172 173//173 174//174
f 174//174 173//173 175//175
f 174//174 175//175 176//176
f 176//176 175//175 177//177
f 176//176 177//177 178//178
f 178//178 177//177 179//179
f 178//178 179//179 180//180
f 180//180 179//179 181//181
f 180//180 181//181 182//182
f 182//182 181//181 183//183
f 182//182 183//183 184//184
f 184//184 183//183 185//185
f 184//184 185//185 186//186
f 186//186 185//185 187//187
f 186//186 187//187 156//156
f 156//156 187//187 157//157
f 100//100 99//99 188//188
f 188//188 99//99 189//189
f 190//190 104//104 188//188
f 188//188 104//104 102//102
f 188//188 102//102 100//100
f 95//95 96//96 191//191
f 191//191 96//96 98//98
f 191//191 98//98 190//190
f 190//190 98//98 105//105
f 190//190 105//105 104//104
f 95//95 191//191 93//93
f 93//93 191//191 192//192
f 93//93 192//192 91//91
f 91//91 192//192 89//89
f 89//89 192//192 193//193
f 89//89 193//193 82//82
f 194//194 85//85 193//193
f 193//193 85//85 83//83
f 193//193 83//83 82//82
f 195//195 88//88 194//194
f 194//194 88//88 87//87
f 194//194 87//87 85//85
f 76//76 81//81 196//196
f 196//196 81//81 80//80
f 196//196 80//80 195//195
f 195//195 80//80 78//78
f 195//195 78//78 88//88
f 76//76 196//196 74//74
f 74//74 196//196 197//197
f 74//74 197//197 72//72
f 72//72 197//197 70//70
f 70//70 197//197 198//198
f 70//70 198//198 59//59
f 59//59 198//198 60//60
f 60//60 198//198 199//199
f 60//60 199//199 62//62
f 62//62 199//199 64//64
f 64//64 199//199 200//200
f 64//64 200//200 66//66
f 66//66 200//200 68//68
f 68//68 200//200 201//201
f 68//68 201//201 69//69
f 202//202 56//56 201//201
f 201//201 56//56 58//58
f 201//201 58//58 69//69
f 203//203 52//52 202//202
f 202//202 52//52 54//54
f 202//202 54//54 56//56
f 204//204 41//41 203//203
f 203//203 41//41 40//40
f 203//203 40//40 52//52
f 205//205 45//45 204//204
f 204//204 45//45 43//43
f 204//204 43//43 41//41
f 99//99 51//51 189//189
f 189//189 51//51 49//49
f 189//189 49//49 205//205
f 205//205 49//49 47//47
f 205//205 47//47 45//45
f 206//206 165//165 163//163
f 207//207 185//185 208//208
f 208//208 185//185 183//183
f 208//208 183//183 209//209
f 209//209 183//183 181//181
f 161//161 159//159 210//210
f 210//210 159//159 157//157
f 210//210 157//157 207//207
f 207//207 157//157 187//187
f 207//207 187//187 185//185
f 179//179 211//211 181//181
f 181//181 211//211 212//212
f 181//181 212//212 209//209
f 171//171 213//213 173//173
f 173//173 213//213 214//214
f 173//173 214//214 175//175
f 161//161 210//210 163//163
f 163//163 210//210 215//215
f 163//163 215//215 206//206
f 214//214 216//216 175//175
f 175//175 216//216 217//217
f 175//175 217//217 177//177
f 177//177 217//217 218//218
f 177//177 218//218 179//179
f 179//179 218//218 219//219
f 179//179 219//219 211//211
f 167//167 220//220 169//169
f 169//169 220//220 221//221
f 169//169 221//221 171//171
f 171//171 221//221 222//222
f 171//171 222//222 213//213
f 206//206 223//223 165//165
f 165//165 223//223 224//224
f 165//165 224//224 167//167
f 167//167 224//224 225//225
f 167//167 225//225 220//220
f 168//168 226//226 166//166
f 166//166 226//226 227//227
f 174//174 228//228 172//172
f 172//172 228//228 229//229
f 172//172 229//229 170//170
f 170//170 229//229 230//230
f 170//170 230//230 168//168
f 168//168 230//230 231//231
f 168//168 231//231 226//226
f 178//178 232//232 176//176
f 176//176 232//232 233//233
f 176//176 233//233 174//174
f 174//174 233//233 234//234
f 174//174 234//234 228//228
f 182//182 235//235 180//180
f 180//180 235//235 236//236
f 180//180 236//236 178//178
f 178//178 236//236 237//237
f 178//178 237//237 232//232
f 158//158 238//238 156//156
f 156//156 238//238 239//239
f 156//156 239//239 186//186
f 186//186 239//239 184//184
f 239//239 240//240 184//184
f 184//184 240//240 241//241
f 184//184 241//241 182//182
f 182//182 241//241 242//242
f 182//182 242//242 235//235
f 227//227 243//243 166//166
f 166//166 243//243 244//244
f 166//166 244//244 164//164
f 164//164 244//244 245//245
f 164//164 245//245 162//162
f 162//162 245//245 238//238
f 162//162 238//238 160//160
f 160//160 238//238 158//158
f 215//215 210//210 245//245
f 245//245 210//210 238//238
f 199//199 246//246 200//200
f 200//200 246//246 247//247
f 200//200 247//247 201//201
f 201//201 247//247 248//248
f 201//201 248//248 202//202
f 202//202 248//248 249//249
f 202//202 249//249 203//203
f 203//203 249//249 250//250
f 203//203 250//250 204//204
f 204//204 250//250 251//251
f 204//204 251//251 205//205
f 205//205 251//251 252//252
f 205//205 252//252 189//189
f 189//189 252//252 253//253
f 189//189 253//253 188//188
f 188//188 253//253 254//254
f 188//188 254//254 190//190
f 190//190 254//254 255//255
f 190//190 255//255 191//191
f 191//191 255//255 256//256
f 191//191 256//256 192//192
f 192//192 256//256 257//257
f 192//192 257//257 193//193
f 193//193 257//257 258//258
f 193//193 258//258 194//194
f 194//194 258//258 259//259
f 194//194 259//259 195//195
f 195//195 259//259 260//260
f 195//195 260//260 196//196
f 196//196 260//260 261//261
f 196//196 261//261 197//197
f 197//197 261//261 262//262
f 197//197 262//262 198//198
f 198//198 262//262 263//263
f 198//198 263//263 199//199
f 199//199 263//263 246//246
f 264//264 265//265 266//266
f 267//267 268//268 266//266
f 266//266 268//268 269//269
f 266//266 269//269 264//264
f 270//270 271//271 266//266
f 266//266 271//271 272//272
f 266//266 272//272 267//267
f 273//273 274//274 266//266
f 266//266 274//274 275//275
f 266//266 275//275 270//270
f 276//276 277//277 266//266
f 266//266 277//277 278//278
f 266//266 278//278 273//273
f 279//279 280//280 266//266
f 266//266 280//280 281//281
f 266//266 281//281 276//276
f 282//282 283//283 266//266
f 266//266 283//283 284//284
f 266//266 284//284 279//279
f 285//285 286//286 266//266
f 266//266 286//286 287//287
f 266//266 287//287 282//282
f 288//288 289//289 266//266
f 266//266 289//289 290//290
f 266//266 290//290 285//285
f 291//291 292//292 266//266
f 266//266 292//292 293//293
f 266//266 293//293 288//288
f 294//294 295//295 266//266
f 266//266 295//295 296//296
f 266//266 296//296 291//291
f 265//265 297//297 266//266
f 266//266 297//297 298//298
f 266//266 298//298 294//294
f 299//299 207//207 300//300
f 300//300 207//207 208//208
f 300//300 208//208 301//301
f 301//301 208//208 302//302
f 302//302 208//208 209//209
f 302//302 209//209 303//303
f 303//303 209//209 304//304
f 304//304 209//209 212//212
f 304//304 212//212 305//305
f 305//305 212//212 306//306
f 306//306 212//212 211//211
f 306//306 211//211 307//307
f 219//219 308//308 211//211
f 211//211 308//308 309//309
f 211//211 309//309 307//307
f 218//218 310//310 219//219
f 219//219 310//310 311//311
f 219//219 311//311 308//308
f 217//217 312//312 218//218
f 218//218 312//312 313//313
f 218//218 313//313 310//310
f 216//216 314//314 217//217
f 217//217 314//314 315//315
f 315//315 316//316 217//217
f 217//217 316//316 317//317
f 217//217 317//317 312//312
f 318//318 214//214 319//319
f 319//319 214//214 213//213
f 319//319 213//213 320//320
f 318//318 321//321 214//214
f 214//214 321//321 322//322
f 214//214 322//322 216//216
f 216//216 322//322 323//323
f 216//216 323//323 314//314
f 320//320 213//213 324//324
f 324//324 213//213 222//222
f 324//324 222//222 325//325
f 325//325 222//222 221//221
f 325//325 221//221 326//326
f 327//327 328//328 329//329
f 329//329 328//328 330//330
f 329//329 330//330 331//331
f 332//332 333//333 334//334
f 334//334 333//333 335//335
f 334//334 335//335 327//327
f 327//327 335//335 336//336
f 327//327 336//336 328//328
f 337//337 338//338 339//339
f 334//334 340//340 332//332
f 332//332 340//340 341//341
f 332//332 341//341 342//342
f 342//342 341//341 343//343
f 342//342 343//343 338//338
f 338//338 343//343 344//344
f 338//338 344//344 339//339
f 345//345 346//346 347//347
f 347//347 346//346 348//348
f 347//347 348//348 349//349
f 347//347 350//350 345//345
f 345//345 350//350 351//351
f 345//345 351//351 339//339
f 339//339 351//351 352//352
f 339//339 352//352 337//337
f 244//244 353//353 245//245
f 245//245 353//353 331//331
f 245//245 331//331 215//215
f 215//215 331//331 330//330
f 215//215 330//330 206//206
f 330//330 354//354 206//206
f 206//206 354//354 355//355
f 206//206 355//355 223//223
f 223//223 355//355 356//356
f 356//356 357//357 223//223
f 223//223 357//357 358//358
f 223//223 358//358 224//224
f 224//224 358//358 359//359
f 224//224 359//359 225//225
f 225//225 359//359 360//360
f 225//225 360//360 361//361
f 361//361 362//362 225//225
f 225//225 362//362 363//363
f 225//225 363//363 220//220
f 326//326 221//221 364//364
f 364//364 221//221 220//220
f 364//364 220//220 365//365
f 365//365 220//220 363//363
f 243//243 366//366 244//244
f 244//244 366//366 367//367
f 244//244 367//367 353//353
f 227//227 368//368 243//243
f 243//243 368//368 369//369
f 243//243 369//369 366//366
f 370//370 371//371 226//226
f 226//226 371//371 372//372
f 226//226 372//372 227//227
f 227//227 372//372 373//373
f 227//227 373//373 368//368
f 370//370 226//226 374//374
f 374//374 226//226 231//231
f 374//374 231//231 375//375
f 375//375 231//231 376//376
f 376//376 231//231 230//230
f 376//376 230//230 377//377
f 378//378 377//377 230//230
f 378//378 230//230 379//379
f 379//379 230//230 229//229
f 379//379 229//229 380//380
f 380//380 229//229 228//228
f 380//380 228//228 381//381
f 381//381 228//228 382//382
f 382//382 228//228 234//234
f 382//382 234//234 383//383
f 383//383 234//234 384//384
f 384//384 234//234 233//233
f 384//384 233//233 385//385
f 385//385 233//233 386//386
f 386//386 233//233 232//232
f 386//386 232//232 387//387
f 237//237 388//388 232//232
f 232//232 388//388 389//389
f 232//232 389//389 387//387
f 236//236 390//390 237//237
f 237//237 390//390 391//391
f 237//237 391//391 388//388
f 392//392 393//393 235//235
f 235//235 393//393 394//394
f 235//235 394//394 236//236
f 236//236 394//394 395//395
f 236//236 395//395 390//390
f 392//392 235//235 396//396
f 396//396 235//235 242//242
f 396//396 242//242 397//397
f 397//397 242//242 398//398
f 398//398 242//242 241//241
f 398//398 241//241 399//399
f 399//399 241//241 400//400
f 400//400 241//241 240//240
f 400//400 240//240 401//401
f 239//239 402//402 240//240
f 240//240 402//402 403//403
f 240//240 403//403 401//401
f 404//404 402//402 239//239
f 404//404 239//239 405//405
f 299//299 406//406 207//207
f 207//207 406//406 407//407
f 210//210 408//408 409//409
f 410//410 411//411 412//412
f 412//412 411//411 408//408
f 210//210 409//409 238//238
f 413//413 414//414 239//239
f 239//239 414//414 415//415
f 239//239 415//415 405//405
f 407//407 416//416 207//207
f 207//207 416//416 417//417
f 207//207 417//417 418//418
f 418//418 419//419 207//207
f 207//207 419//419 420//420
f 207//207 420//420 210//210
f 210//210 420//420 421//421
f 210//210 421//421 408//408
f 408//408 421//421 422//422
f 408//408 422//422 412//412
f 409//409 423//423 238//238
f 238//238 423//423 424//424
f 238//238 424//424 239//239
f 239//239 424//424 425//425
f 239//239 425//425 413//413
f 426//426 427//427 428//428
f 428//428 427//427 429//429
f 428//428 429//429 430//430
f 410//410 431//431 411//411
f 411//411 431//431 432//432
f 411//411 432//432 433//433
f 428//428 434//434 426//426
f 426//426 434//434 435//435
f 426//426 435//435 432//432
f 432//432 435//435 436//436
f 432//432 436//436 433//433
f 252//252 251//251 437//437
f 438//438 439//439 250//250
f 250//250 439//439 440//440
f 250//250 440//440 251//251
f 251//251 440//440 441//441
f 251//251 441//441 437//437
f 438//438 250//250 442//442
f 442//442 250//250 249//249
f 442//442 249//249 443//443
f 443//443 249//249 444//444
f 444//444 249//249 248//248
f 444//444 248//248 445//445
f 445//445 248//248 446//446
f 446//446 248//248 247//247
f 446//446 247//247 447//447
f 447//447 247//247 448//448
f 448//448 247//247 246//246
f 448//448 246//246 449//449
f 263//263 450//450 246//246
f 246//246 450//450 451//451
f 246//246 451//451 449//449
f 261//261 452//452 262//262
f 262//262 452//452 453//453
f 262//262 453//453 263//263
f 263//263 453//453 454//454
f 263//263 454//454 450//450
f 260//260 455//455 261//261
f 261//261 455//455 456//456
f 261//261 456//456 452//452
f 259//259 457//457 260//260
f 260//260 457//457 458//458
f 260//260 458//458 455//455
f 459//459 460//460 258//258
f 258//258 460//460 461//461
f 258//258 461//461 259//259
f 259//259 461//461 462//462
f 259//259 462//462 457//457
f 459//459 258//258 463//463
f 463//463 258//258 257//257
f 463//463 257//257 464//464
f 464//464 257//257 465//465
f 465//465 257//257 256//256
f 465//465 256//256 466//466
f 255//255 254//254 467//467
f 467//467 468//468 255//255
f 255//255 468//468 469//469
f 255//255 469//469 256//256
f 256//256 469//469 470//470
f 256//256 470//470 466//466
f 437//437 471//471 252//252
f 252//252 471//471 472//472
f 252//252 472//472 253//253
f 253//253 472//472 473//473
f 253//253 473//473 254//254
f 254//254 473//473 474//474
f 254//254 474//474 467//467
f 426//426 432//432 284//284
f 410//410 412//412 279//279
f 475//475 326//326 364//364
f 343//343 341//341 297//297
f 353//353 367//367 294//294
f 436//436 282//282 433//433
f 433//433 282//282 287//287
f 433//433 287//287 411//411
f 286//286 409//409 287//287
f 287//287 409//409 408//408
f 287//287 408//408 411//411
f 285//285 424//424 286//286
f 286//286 424//424 423//423
f 286//286 423//423 409//409
f 290//290 413//413 285//285
f 285//285 413//413 425//425
f 285//285 425//425 424//424
f 289//289 415//415 290//290
f 290//290 415//415 414//414
f 290//290 414//414 413//413
f 403//403 402//402 288//288
f 288//288 402//402 404//404
f 288//288 404//404 289//289
f 289//289 404//404 405//405
f 289//289 405//405 415//415
f 288//288 293//293 451//451
f 453//453 403//403 454//454
f 454//454 403//403 288//288
f 454//454 288//288 450//450
f 450//450 288//288 451//451
f 453//453 452//452 403//403
f 403//403 452//452 456//456
f 403//403 456//456 401//401
f 401//401 456//456 455//455
f 401//401 455//455 400//400
f 458//458 398//398 455//455
f 455//455 398//398 399//399
f 455//455 399//399 400//400
f 458//458 457//457 398//398
f 398//398 457//457 462//462
f 398//398 462//462 397//397
f 397//397 462//462 461//461
f 397//397 461//461 396//396
f 396//396 461//461 460//460
f 396//396 460//460 392//392
f 392//392 460//460 393//393
f 393//393 460//460 459//459
f 393//393 459//459 394//394
f 394//394 459//459 463//463
f 394//394 463//463 395//395
f 395//395 463//463 464//464
f 395//395 464//464 390//390
f 390//390 464//464 465//465
f 390//390 465//465 466//466
f 470//470 469//469 387//387
f 387//387 469//469 468//468
f 387//387 468//468 467//467
f 387//387 389//389 470//470
f 470//470 389//389 388//388
f 470//470 388//388 466//466
f 466//466 388//388 391//391
f 466//466 391//391 390//390
f 467//467 474//474 387//387
f 387//387 474//474 473//473
f 387//387 473//473 296//296
f 473//473 472//472 296//296
f 296//296 472//472 471//471
f 296//296 471//471 437//437
f 385//385 386//386 375//375
f 375//375 386//386 387//387
f 375//375 387//387 374//374
f 374//374 387//387 296//296
f 374//374 296//296 370//370
f 385//385 375//375 384//384
f 384//384 375//375 376//376
f 384//384 376//376 383//383
f 383//383 476//476 382//382
f 382//382 476//476 381//381
f 383//383 376//376 476//476
f 476//476 376//376 377//377
f 476//476 377//377 378//378
f 378//378 379//379 476//476
f 476//476 379//379 380//380
f 476//476 380//380 381//381
f 294//294 367//367 295//295
f 367//367 366//366 295//295
f 295//295 366//366 369//369
f 295//295 369//369 368//368
f 368//368 373//373 295//295
f 295//295 373//373 372//372
f 295//295 372//372 296//296
f 296//296 372//372 371//371
f 296//296 371//371 370//370
f 334//334 327//327 298//298
f 298//298 327//327 329//329
f 298//298 329//329 294//294
f 294//294 329//329 331//331
f 294//294 331//331 353//353
f 297//297 341//341 298//298
f 298//298 341//341 340//340
f 298//298 340//340 334//334
f 346//346 345//345 265//265
f 265//265 345//345 339//339
f 265//265 339//339 297//297
f 297//297 339//339 344//344
f 297//297 344//344 343//343
f 351//351 350//350 269//269
f 269//269 350//350 347//347
f 269//269 347//347 264//264
f 264//264 347//347 349//349
f 264//264 349//349 265//265
f 265//265 349//349 348//348
f 265//265 348//348 346//346
f 333//333 332//332 268//268
f 268//268 332//332 342//342
f 342//342 338//338 268//268
f 268//268 338//338 337//337
f 268//268 337//337 269//269
f 269//269 337//337 352//352
f 269//269 352//352 351//351
f 333//333 268//268 335//335
f 335//335 268//268 267//267
f 335//335 267//267 336//336
f 355//355 354//354 272//272
f 272//272 354//354 330//330
f 272//272 330//330 267//267
f 267//267 330//330 328//328
f 267//267 328//328 336//336
f 358//358 357//357 271//271
f 271//271 357//357 356//356
f 271//271 356//356 272//272
f 272//272 356//356 355//355
f 316//316 315//315 365//365
f 365//365 315//315 314//314
f 363//363 362//362 270//270
f 362//362 361//361 270//270
f 270//270 361//361 360//360
f 270//270 360//360 271//271
f 271//271 360//360 359//359
f 271//271 359//359 358//358
f 319//319 320//320 475//475
f 320//320 324//324 475//475
f 475//475 324//324 325//325
f 475//475 325//325 326//326
f 314//314 323//323 365//365
f 365//365 323//323 322//322
f 365//365 322//322 364//364
f 364//364 322//322 321//321
f 364//364 321//321 475//475
f 475//475 321//321 318//318
f 475//475 318//318 319//319
f 275//275 310//310 313//313
f 365//365 363//363 316//316
f 316//316 363//363 270//270
f 316//316 270//270 317//317
f 317//317 270//270 275//275
f 317//317 275//275 312//312
f 312//312 275//275 313//313
f 310//310 275//275 311//311
f 311//311 275//275 274//274
f 311//311 274//274 308//308
f 306//306 307//307 274//274
f 274//274 307//307 309//309
f 274//274 309//309 308//308
f 302//302 303//303 273//273
f 273//273 303//303 304//304
f 273//273 304//304 274//274
f 274//274 304//304 305//305
f 274//274 305//305 306//306
f 277//277 407//407 278//278
f 278//278 407//407 406//406
f 406//406 299//299 278//278
f 278//278 299//299 300//300
f 278//278 300//300 273//273
f 273//273 300//300 301//301
f 273//273 301//301 302//302
f 276//276 281//281 419//419
f 419//419 418//418 276//276
f 276//276 418//418 417//417
f 276//276 417//417 277//277
f 277//277 417//417 416//416
f 277//277 416//416 407//407
f 279//279 412//412 280//280
f 412//412 422//422 280//280
f 280//280 422//422 421//421
f 280//280 421//421 281//281
f 281//281 421//421 420//420
f 281//281 420//420 419//419
f 284//284 432//432 279//279
f 279//279 432//432 431//431
f 279//279 431//431 410//410
f 283//283 430//430 429//429
f 283//283 429//429 284//284
f 284//284 429//429 427//427
f 284//284 427//427 426//426
f 436//436 435//435 282//282
f 282//282 435//435 434//434
f 282//282 434//434 283//283
f 283//283 434//434 428//428
f 283//283 428//428 430//430
f 447//447 448//448 293//293
f 293//293 448//448 449//449
f 293//293 449//449 451//451
f 292//292 445//445 293//293
f 293//293 445//445 446//446
f 293//293 446//446 447//447
f 437//437 441//441 296//296
f 296//296 441//441 440//440
f 296//296 440//440 291//291
f 291//291 440//440 439//439
f 291//291 439//439 438//438
f 438//438 442//442 291//291
f 291//291 442//442 443//443
f 291//291 443//443 292//292
f 292//292 443//443 444//444
f 292//292 444//444 445//445
f 477//477 478//478 479//479
f 479//479 478//478 480//480
f 479//479 480//480 481//481
f 482//482 483//483 479//479
f 479//479 483//483 484//484
f 479//479 484//484 477//477
f 485//485 486//486 479//479
f 479//479 486//486 487//487
f 479//479 487//487 482//482
f 481//481 488//488 479//479
f 479//479 488//488 489//489
f 479//479 489//489 485//485
f 490//490 491//491 492//492
f 492//492 491//491 493//493
f 492//492 493//493 494//494
f 495//495 496//496 492//492
f 492//492 496//496 497//497
f 492//492 497//497 490//490
f 498//498 499//499 492//492
f 492//492 499//499 500//500
f 492//492 500//500 495//495
f 494//494 501//501 492//492
f 492//492 501//501 502//502
f 492//492 502//502 498//498
f 503//503 478//478 504//504
f 504//504 478//478 477//477
f 504//504 477//477 505//505
f 505//505 477//477 484//484
f 505//505 484//484 506//506
f 506//506 484//484 483//483
f 506//506 483//483 507//507
f 507//507 483//483 482//482
f 507//507 482//482 508//508
f 508//508 482//482 487//487
f 508//508 487//487 509//509
f 509//509 487//487 486//486
f 509//509 486//486 510//510
f 510//510 486//486 485//485
f 510//510 485//485 511//511
f 511//511 485//485 489//489
f 511//511 489//489 512//512
f 512//512 489//489 488//488
f 512//512 488//488 513//513
f 513//513 488//488 481//481
f 513//513 481//481 514//514
f 514//514 481//481 480//480
f 514//514 480//480 503//503
f 503//503 480//480 478//478
f 508//508 493//493 507//507
f 507//507 493//493 491//491
f 507//507 491//491 506//506
f 506//506 491//491 490//490
f 506//506 490//490 505//505
f 505//505 490//490 497//497
f 505//505 497//497 504//504
f 504//504 497//497 496//496
f 504//504 496//496 503//503
f 503//503 496//496 495//495
f 503//503 495//495 514//514
f 514//514 495//495 500//500
f 514//514 500//500 513//513
f 513//513 500//500 499//499
f 513//513 499//499 512//512
f 512//512 499//499 498//498
f 512//512 498//498 511//511
f 511//511 498//498 502//502
f 511//511 502//502 510//510
f 510//510 502//502 501//501
f 510//510 501//501 509//509
f 509//509 501//501 494//494
f 509//509 494//494 508//508
f 508//508 494//494 493//493
f 515//515 516//516 517//517
f 517//517 516//516 518//518
f 517//517 518//518 519//519
f 520//520 521//521 517//517
f 517//517 521//521 522//522
f 517//517 522//522 515//515
f 523//523 524//524 517//517
f 517//517 524//524 525//525
f 517//517 525//525 520//520
f 519//519 526//526 517//517
f 517//517 526//526 527//527
f 517//517 527//527 523//523
f 528//528 529//529 530//530
f 530//530 529//529 531//531
f 530//530 531//531 532//532
f 533//533 534//534 530//530
f 530//530 534//534 535//535
f 530//530 535//535 528//528
f 536//536 537//537 530//530
f 530//530 537//537 538//538
f 530//530 538//538 533//533
f 532//532 539//539 530//530
f 530//530 539//539 540//540
f 530//530 540//540 536//536
f 541//541 516//516 542//542
f 542//542 516//516 515//515
f 542//542 515//515 543//543
f 543//543 515//515 522//522
f 543//543 522//522 544//544
f 544//544 522//522 521//521
f 544//544 521//521 545//545
f 545//545 521//521 520//520
f 545//545 520//520 546//546
f 546//546 520//520 525//525
f 546//546 525//525 547//547
f 547//547 525//525 524//524
f 547//547 524//524 548//548
f 548//548 524//524 523//523
f 548//548 523//523 549//549
f 549//549 523//523 527//527
f 549//549 527//527 550//550
f 550//550 527//527 526//526
f 550//550 526//526 551//551
f 551//551 526//526 519//519
f 551//551 519//519 552//552
f 552//552 519//519 518//518
f 552//552 518//518 541//541
f 541//541 518//518 516//516
f 546//546 531//531 545//545
f 545//545 531//531 529//529
f 545//545 529//529 544//544
f 544//544 529//529 528//528
f 544//544 528//528 543//543
f 543//543 528//528 535//535
f 543//543 535//535 542//542
f 542//542 535//535 534//534
f 542//542 534//534 541//541
f 541//541 534//534 533//533
f 541//541 533//533 552//552
f 552//552 533//533 538//538
f 552//552 538//538 551//551
f 551//551 538//538 537//537
f 551//551 537//537 550//550
f 550//550 537//537 536//536
f 550//550 536//536 549//549
f 549//549 536//536 540//540
f 549//549 540//540 548//548
f 548//548 540//540 539//539
f 548//548 539//539 547//547
f 547//547 539//539 532//532
f 547//547 532//532 546//546
f 546//546 532//532 531//531

