# https://github.com/mikedh/trimesh
v 0.00008706 0.00703890 -0.00374616
v 0.00043114 0.00703890 -0.00372459
v 0.00043114 0.00315042 -0.00372459
v -0.00050200 0.00315042 -0.00371579
v -0.00003301 0.00703890 -0.00374484
v 0.00095170 0.00703890 -0.00362295
v 0.00057297 0.00313321 -0.00138586
v -0.00000078 0.00313321 -0.00149938
v 0.00133850 0.00315042 -0.00350194
v -0.00057291 0.00313321 -0.00138586
v -0.00140613 0.00315042 -0.00347554
v -0.00089444 0.00703890 -0.00363747
v -0.00050200 0.00703890 -0.00371579
v -0.00037790 0.00703890 -0.00373031
v 0.00103067 0.00703890 -0.00360315
v 0.00216366 0.00315042 -0.00306192
v 0.00106049 0.00313321 -0.00106068
v 0.00147468 0.00313245 0.00012651
v -0.00147463 0.00313245 0.00012651
v 0.00133850 0.00703890 -0.00350194
v 0.00175753 0.00703890 -0.00331097
v 0.00178009 0.00703890 -0.00329909
v -0.00057452 0.00313321 -0.00138498
v -0.00222163 0.00315042 -0.00301967
v -0.00169462 0.00703890 -0.00334221
v -0.00140613 0.00703890 -0.00347554
v -0.00102498 0.00703890 -0.00360271
v 0.00216366 0.00697543 -0.00306192
v 0.00229582 0.00691080 -0.00296379
v 0.00258672 0.00675823 -0.00271430
v 0.00285425 0.00315042 -0.00243136
v 0.00132561 0.00313321 -0.00066378
v 0.00138604 0.00313245 0.00057182
v 0.00340705 0.00315042 -0.00153283
v 0.00367055 0.00315080 -0.00076542
v 0.00374227 0.00315004 0.00012651
v 0.00374630 0.00315004 0.00016655
v 0.00364638 0.00315004 0.00074871
v -0.00138518 0.00313245 0.00057358
v -0.00448599 0.00315004 0.00074651
v -0.00132475 0.00313321 -0.00066378
v -0.00106044 0.00313321 -0.00106068
v 0.00202103 0.00703890 -0.00314992
v -0.00253993 0.00703890 -0.00275390
v -0.00222163 0.00703890 -0.00301967
v -0.00180743 0.00703890 -0.00327841
v -0.00290013 0.00315042 -0.00237636
v 0.00223941 0.00693872 0.00074871
v 0.00229582 0.00691195 0.00012651
v 0.00229582 0.00691195 -0.00066378
v 0.00202667 0.00703890 0.00012651
v 0.00202667 0.00703890 0.00074871
v 0.00229501 0.00691195 0.00074871
v 0.00285425 0.00660260 -0.00243136
v 0.00313226 0.00642403 -0.00205998
v 0.00326361 0.00459507 -0.00183072
v 0.00324830 0.00315042 -0.00183072
v 0.00336676 0.00315042 -0.00164943
v 0.00138524 0.00313245 0.00057358
v 0.00341349 0.00377906 -0.00153283
v 0.00358352 0.00609556 -0.00110160
v 0.00367055 0.00602673 -0.00076542
v 0.00373663 0.00597166 -0.00030471
v 0.00373743 0.00575523 -0.00026863
v 0.00374549 0.00338903 0.00012651
v 0.00374549 0.00596555 0.00016655
v 0.00369553 0.00600684 0.00063430
v 0.00126839 0.00313245 0.00074871
v 0.00366813 0.00528796 0.00074871
v -0.00138357 0.00313245 0.00057666
v -0.00448599 0.00686186 0.00074651
v -0.00419670 0.00315004 0.00012651
v -0.00126995 0.00313245 0.00074651
v 0.00003065 0.00313245 0.00074871
v -0.00339813 0.00315042 -0.00158475
v -0.00324341 0.00315042 -0.00183072
v -0.00261729 0.00703890 -0.00267997
v -0.00308386 0.00703890 -0.00212994
v -0.00290013 0.00703890 -0.00237636
v 0.00043356 0.00703890 0.00074871
v 0.00320720 0.00636705 0.00074871
v 0.00313226 0.00642364 -0.00183072
v 0.00327489 0.00632422 0.00074871
v 0.00314515 0.00641523 -0.00183072
v 0.00326361 0.00633264 -0.00183072
v 0.00336676 0.00626037 -0.00164943
v 0.00341349 0.00622519 -0.00153283
v 0.00352711 0.00613953 -0.00066378
v 0.00356096 0.00611429 0.00074871
v 0.00373743 0.00597090 -0.00026863
v 0.00366813 0.00602864 0.00074871
v 0.00003065 0.00649974 0.00074871
v -0.00439251 0.00691310 0.00074651
v -0.00439251 0.00691310 0.00054718
v -0.00419670 0.00700181 0.00012651
v -0.00339813 0.00703890 -0.00158475
v -0.00411692 0.00703890 0.00074651
v 0.00316127 0.00640414 -0.00153239
v 0.00328698 0.00631619 0.00074871
v 0.00323138 0.00635520 -0.00026863
v 0.00342397 0.00621830 0.00012651
v 0.00347635 0.00617930 0.00012651
v 0.00347312 0.00618159 0.00074871
v -0.00411692 0.00703890 0.00012651
v -0.00342230 0.00703890 -0.00153283
v 0.00344331 0.00620339 0.00074871
f 1 2 3
f 1 3 4
f 1 4 5
f 1 5 14
f 1 14 13
f 1 13 12
f 1 12 27
f 1 27 26
f 1 26 25
f 1 25 46
f 1 46 45
f 1 45 44
f 1 44 77
f 1 77 79
f 1 79 78
f 1 78 96
f 1 96 105
f 1 105 104
f 1 104 97
f 1 97 80
f 1 80 52
f 1 52 51
f 1 51 43
f 1 43 22
f 1 22 21
f 1 21 20
f 1 20 15
f 1 15 6
f 1 6 2
f 2 6 3
f 3 7 8
f 3 8 4
f 3 6 9
f 3 9 7
f 4 10 11
f 4 11 12
f 4 12 13
f 4 13 14
f 4 14 5
f 4 8 10
f 6 15 9
f 7 9 16
f 7 16 17
f 7 17 18
f 7 18 8
f 8 18 19
f 8 19 10
f 9 15 20
f 9 20 21
f 9 21 22
f 9 22 16
f 10 19 23
f 10 23 11
f 11 24 25
f 11 25 26
f 11 26 27
f 11 27 12
f 11 23 24
f 16 28 29
f 16 29 30
f 16 30 31
f 16 31 17
f 16 22 28
f 17 32 18
f 17 31 32
f 18 33 59
f 18 59 68
f 18 68 74
f 18 74 73
f 18 73 70
f 18 70 39
f 18 39 19
f 18 32 34
f 18 34 35
f 18 35 36
f 18 36 37
f 18 37 38
f 18 38 33
f 19 39 40
f 19 40 41
f 19 41 42
f 19 42 23
f 22 43 28
f 23 42 24
f 24 44 45
f 24 45 46
f 24 46 25
f 24 42 47
f 24 47 44
f 28 48 49
f 28 49 50
f 28 50 29
f 28 43 51
f 28 51 52
f 28 52 48
f 29 50 30
f 30 50 49
f 30 49 53
f 30 53 54
f 30 54 31
f 31 54 55
f 31 55 56
f 31 56 57
f 31 57 32
f 32 57 58
f 32 58 34
f 33 38 59
f 34 58 60
f 34 60 35
f 35 61 62
f 35 62 63
f 35 63 64
f 35 64 65
f 35 65 37
f 35 37 36
f 35 60 61
f 37 66 67
f 37 67 38
f 37 65 66
f 38 68 59
f 38 67 69
f 38 69 91
f 38 91 89
f 38 89 103
f 38 103 106
f 38 106 99
f 38 99 83
f 38 83 81
f 38 81 53
f 38 53 48
f 38 48 52
f 38 52 80
f 38 80 92
f 38 92 74
f 38 74 68
f 39 70 40
f 40 71 95
f 40 95 72
f 40 72 41
f 40 70 73
f 40 73 74
f 40 74 92
f 40 92 71
f 41 72 75
f 41 75 76
f 41 76 47
f 41 47 42
f 44 47 77
f 47 76 78
f 47 78 79
f 47 79 77
f 48 53 49
f 53 81 54
f 54 82 55
f 54 81 83
f 54 83 82
f 55 82 84
f 55 84 85
f 55 85 56
f 56 85 86
f 56 86 58
f 56 58 57
f 58 86 87
f 58 87 60
f 60 87 61
f 61 88 89
f 61 89 62
f 61 87 88
f 62 89 67
f 62 67 66
f 62 66 63
f 63 66 90
f 63 90 64
f 64 90 65
f 65 90 66
f 67 89 91
f 67 91 69
f 71 92 80
f 71 80 93
f 71 93 94
f 71 94 95
f 72 95 96
f 72 96 75
f 75 96 78
f 75 78 76
f 80 97 93
f 82 98 84
f 82 83 98
f 83 99 100
f 83 100 98
f 84 98 85
f 85 98 100
f 85 100 86
f 86 99 101
f 86 101 102
f 86 102 87
f 86 100 99
f 87 102 88
f 88 102 89
f 89 102 103
f 93 97 104
f 93 104 94
f 94 104 95
f 95 104 105
f 95 105 96
f 99 106 101
f 101 106 103
f 101 103 102

