# https://github.com/mikedh/trimesh
v 0.00166989 0.00750000 0.00031855
v 0.00169665 0.00750000 -0.00010674
v 0.00161680 0.00750000 -0.00052533
v 0.00168263 0.00748764 -0.00054672
v 0.00176573 0.00748764 -0.00011109
v 0.00173789 0.00748764 0.00033152
v 0.00183779 0.00744142 -0.00011562
v -0.00339865 -0.00315000 -0.00158482
v -0.00050313 -0.00315000 -0.00371609
v 0.00216465 -0.00315000 -0.00306215
v 0.00133987 -0.00315000 -0.00350246
v 0.00043179 -0.00315000 -0.00372506
v 0.00216465 0.00315000 -0.00306215
v 0.00285488 0.00315000 -0.00243149
v 0.00336765 0.00315000 -0.00164968
v 0.00645000 0.00020000 0.01070000
v 0.00632230 0.00157812 0.01070000
v 0.00532663 -0.00374824 0.01070000
v 0.00594354 -0.00250931 0.01070000
v 0.00632230 -0.00117812 0.01070000
v 0.00229304 -0.00651372 0.01070000
v 0.00346976 -0.00578513 0.01070000
v 0.00449257 -0.00485272 0.01070000
v -0.00174201 -0.00726801 0.01070000
v -0.00035799 -0.00726801 0.01070000
v 0.00100247 -0.00701369 0.01070000
v -0.00556976 -0.00578513 0.01070000
v -0.00439304 -0.00651372 0.01070000
v -0.00310247 -0.00701369 0.01070000
v -0.00804354 -0.00250931 0.01070000
v -0.00742663 -0.00374824 0.01070000
v -0.00659257 -0.00485272 0.01070000
v -0.00842230 0.00157812 0.01070000
v -0.00855000 0.00020000 0.01070000
v -0.00842230 -0.00117812 0.01070000
v -0.00659257 0.00525272 0.01070000
v -0.00742663 0.00414824 0.01070000
v -0.00804354 0.00290931 0.01070000
v -0.00310247 0.00741369 0.01070000
v -0.00439304 0.00691372 0.01070000
v -0.00556976 0.00618513 0.01070000
v 0.00100247 0.00741369 0.01070000
v -0.00035799 0.00766801 0.01070000
v -0.00174201 0.00766801 0.01070000
v 0.00449257 0.00525272 0.01070000
v 0.00346976 0.00618513 0.01070000
v 0.00229304 0.00691372 0.01070000
v 0.00594354 0.00290931 0.01070000
v 0.00532663 0.00414824 0.01070000
v -0.00339865 -0.00692277 -0.00158482
v -0.00310247 -0.00701369 -0.00210646
v -0.00290097 -0.00706801 -0.00237631
v -0.00258146 -0.00714198 -0.00272003
v -0.00222296 -0.00720771 -0.00302009
v -0.00174201 -0.00726801 -0.00332083
v -0.00140677 -0.00729151 -0.00347613
v -0.00096042 -0.00729947 -0.00362493
v -0.00050290 -0.00728002 -0.00371613
v 0.00003793 -0.00722067 -0.00374981
v -0.00035799 -0.00726801 -0.00373287
v 0.00100247 -0.00701369 -0.00361352
v 0.00043179 -0.00715216 -0.00372506
v 0.00176811 -0.00675041 -0.00330701
v 0.00133987 -0.00690905 -0.00350246
v 0.00285488 -0.00620327 -0.00243149
v 0.00258834 -0.00635839 -0.00271348
v 0.00229304 -0.00651372 -0.00296723
v 0.00216520 -0.00657587 -0.00306176
v 0.00358476 -0.00569653 -0.00110091
v 0.00367107 -0.00562765 -0.00076533
v 0.00373758 -0.00557314 -0.00030501
v 0.00346976 -0.00578513 -0.00142242
v 0.00336765 -0.00586089 -0.00164968
v 0.00313471 -0.00602400 -0.00205818
v 0.00374630 -0.00556589 0.00016660
v 0.00369617 -0.00560723 0.00063314
v 0.00358865 -0.00569347 0.00108817
v 0.00537500 0.00406903 0.00735746
v 0.00532748 -0.00374686 0.00730739
v 0.00532684 0.00414790 0.00730673
v 0.00520219 -0.00394247 0.00718324
v 0.00520219 0.00434247 0.00718324
v 0.00601314 -0.00232230 0.00826821
v 0.00594395 -0.00250827 0.00813851
v 0.00565142 0.00356764 0.00768779
v 0.00578686 -0.00288341 0.00788014
v 0.00551641 -0.00342384 0.00751741
v 0.00623889 -0.00156692 0.00880361
v 0.00619428 -0.00174175 0.00867865
v 0.00632238 0.00157771 0.00908355
v 0.00588742 0.00304994 0.00804039
v 0.00594384 0.00290853 0.00813833
v 0.00612524 -0.00198309 0.00850711
v 0.00608336 0.00251629 0.00841297
v 0.00623889 0.00196693 0.00880360
v 0.00634698 0.00143880 0.00918395
v 0.00642355 0.00082932 0.00962666
v 0.00644999 0.00018601 0.01007569
v 0.00644999 0.00021399 0.01007569
v 0.00645000 0.00020000 0.01008590
v 0.00643062 -0.00033887 0.00969259
v 0.00636030 -0.00095645 0.00924357
v 0.00632242 -0.00117748 0.00908371
v 0.00484854 0.00483220 0.00681826
v 0.00484776 -0.00443319 0.00681738
v 0.00449340 -0.00485180 0.00637927
v 0.00419369 -0.00516225 0.00592979
v 0.00392161 -0.00541544 0.00542618
v 0.00370702 -0.00559834 0.00492131
v 0.00353541 -0.00573498 0.00438398
v 0.00345989 -0.00579257 0.00406867
v 0.00339459 -0.00584116 0.00370398
v 0.00334808 -0.00587511 0.00328842
v 0.00333126 -0.00588725 0.00273272
v 0.00336603 -0.00586207 0.00217711
v 0.00419138 0.00556451 0.00592596
v 0.00449257 0.00525272 0.00637813
v 0.00370679 0.00599853 0.00492068
v 0.00392161 0.00581544 0.00542618
v 0.00353541 0.00613498 0.00438398
v 0.00358865 0.00609347 0.00108817
v 0.00369586 0.00600748 0.00063490
v 0.00374630 0.00596589 0.00016660
v 0.00373762 0.00597310 -0.00030445
v 0.00367107 0.00602765 -0.00076533
v 0.00358453 0.00609670 -0.00110165
v 0.00336765 0.00626089 -0.00164968
v 0.00313346 0.00642484 -0.00206007
v 0.00285488 0.00660327 -0.00243149
v 0.00258731 0.00675896 -0.00271446
v 0.00229717 0.00691166 -0.00296403
v 0.00177008 0.00714962 -0.00330595
v 0.00216465 0.00697613 -0.00306215
v 0.00100247 0.00741369 -0.00361352
v 0.00133987 0.00730905 -0.00350246
v -0.00050313 0.00768004 -0.00371609
v -0.00035846 0.00766805 -0.00373283
v 0.00003696 0.00762082 -0.00374982
v 0.00043179 0.00755216 -0.00372506
v -0.00096130 0.00769948 -0.00362469
v -0.00140677 0.00769151 -0.00347613
v -0.00174201 0.00766801 -0.00332083
v -0.00222296 0.00760771 -0.00302009
v -0.00258197 0.00754187 -0.00271955
v -0.00290097 0.00746801 -0.00237631
v -0.00339865 0.00732277 -0.00158482
v -0.00310247 0.00741369 -0.00210646
v -0.00390319 0.00713609 -0.00050285
v -0.00439304 0.00691372 0.00054764
v -0.00390319 -0.00673609 -0.00050285
v -0.00439304 -0.00651372 0.00054764
v -0.00804354 0.00290931 0.00837618
v -0.00776372 0.00354304 0.00777611
v -0.00817523 -0.00214117 0.00865858
v -0.00817523 0.00254117 0.00865858
v -0.00804354 -0.00250931 0.00837618
v -0.00610272 0.00574257 0.00421406
v -0.00556976 0.00618513 0.00307113
v -0.00499824 0.00657663 0.00184551
v -0.00499824 -0.00617663 0.00184551
v -0.00556976 -0.00578513 0.00307113
v -0.00610272 -0.00534257 0.00421406
v -0.00659257 -0.00485272 0.00526455
v -0.00703513 -0.00431976 0.00621363
v -0.00742663 -0.00374824 0.00705320
v -0.00776372 -0.00314304 0.00777611
v -0.00742663 0.00414824 0.00705320
v -0.00703513 0.00471976 0.00621363
v -0.00659257 0.00525272 0.00526455
v -0.00844843 -0.00103010 0.00945340
v -0.00852380 -0.00042638 0.00989197
v -0.00854999 0.00021399 0.01033884
v -0.00854999 0.00018601 0.01033884
v -0.00855000 0.00020000 0.01034906
v -0.00832461 -0.00162483 0.00902531
v -0.00842239 -0.00117761 0.00934677
v -0.00834509 0.00194115 0.00908523
v -0.00853235 0.00071428 0.00997367
v -0.00846415 0.00133157 0.00952476
v -0.00842242 0.00157746 0.00934688
v -0.00068765 0.00769124 0.00187807
v -0.00100000 0.00769983 0.00173205
v -0.00128493 0.00769632 0.00153263
v -0.00153209 0.00768449 0.00128558
v -0.00187939 0.00765400 0.00068404
v -0.00196964 0.00764340 -0.00034718
v -0.00200000 0.00763959 -0.00000000
v -0.00196952 0.00764342 0.00034781
v -0.00187939 0.00765400 -0.00068404
v -0.00128520 0.00769631 -0.00153241
v -0.00153209 0.00768449 -0.00128558
v -0.00068815 0.00769127 -0.00187788
v -0.00100000 0.00769983 -0.00173205
v 0.00352943 -0.00573960 -0.00016712
v 0.00347892 0.00617820 -0.00028075
f 182 44 43
f 147 8 146
f 32 162 27
f 44 144 39
f 147 146 39
f 183 44 182
f 44 183 184
f 184 183 141
f 143 144 44
f 57 25 24
f 25 62 26
f 63 21 26
f 65 22 21
f 36 41 157
f 163 162 32
f 32 164 163
f 163 146 8
f 166 30 156
f 50 163 8
f 162 163 50
f 50 8 147
f 147 51 50
f 50 51 29
f 52 51 147
f 29 51 52
f 147 39 145
f 145 39 144
f 145 52 147
f 144 52 145
f 141 183 190
f 191 141 142
f 191 184 141
f 142 143 186
f 20 101 16
f 58 25 57
f 58 60 25
f 59 62 25
f 25 60 59
f 61 26 62
f 23 22 108
f 159 41 40
f 146 163 149
f 149 163 157
f 157 159 149
f 149 159 40
f 152 38 153
f 38 37 153
f 37 167 153
f 165 163 164
f 165 166 163
f 28 27 160
f 54 143 142
f 193 183 182
f 193 190 183
f 142 186 189
f 187 143 44
f 187 186 143
f 89 20 19
f 23 106 105
f 71 81 105
f 105 106 71
f 84 19 86
f 79 81 71
f 71 87 79
f 9 58 57
f 63 26 64
f 26 61 64
f 64 11 63
f 64 61 11
f 109 108 22
f 107 106 23
f 23 108 107
f 71 106 107
f 107 108 71
f 68 21 63
f 68 67 21
f 66 65 21
f 21 67 66
f 22 65 74
f 36 157 169
f 158 157 41
f 41 159 158
f 158 159 157
f 34 33 178
f 178 172 34
f 178 173 172
f 155 38 152
f 155 166 156
f 152 153 155
f 163 166 155
f 157 163 155
f 155 167 157
f 155 153 167
f 148 149 40
f 146 149 148
f 40 39 148
f 148 39 146
f 31 164 32
f 31 165 164
f 30 166 31
f 166 165 31
f 161 27 162
f 162 160 161
f 161 160 27
f 162 50 150
f 150 160 162
f 150 29 28
f 150 50 29
f 53 52 144
f 144 143 53
f 143 54 53
f 29 52 53
f 53 24 29
f 53 54 24
f 24 54 55
f 55 54 142
f 119 46 45
f 11 61 135
f 63 11 135
f 12 61 62
f 12 139 61
f 62 59 12
f 59 139 12
f 93 89 19
f 101 20 102
f 102 97 101
f 81 79 18
f 18 79 87
f 23 105 18
f 18 105 81
f 18 86 19
f 87 86 18
f 71 108 75
f 75 109 71
f 108 109 75
f 70 87 71
f 70 86 87
f 84 86 70
f 89 93 70
f 77 70 109
f 69 70 77
f 22 74 114
f 114 74 73
f 157 167 168
f 168 169 157
f 168 37 36
f 168 167 37
f 36 169 168
f 30 35 175
f 175 35 176
f 34 172 174
f 174 173 34
f 172 173 174
f 171 35 34
f 34 173 171
f 173 178 171
f 177 33 38
f 38 155 177
f 177 175 176
f 155 175 177
f 28 160 151
f 151 150 28
f 160 150 151
f 57 24 56
f 24 55 56
f 142 141 56
f 56 55 142
f 6 42 47
f 43 42 6
f 182 43 181
f 136 9 57
f 136 181 43
f 192 181 136
f 58 9 136
f 46 119 118
f 99 97 16
f 101 97 99
f 16 97 17
f 128 74 65
f 61 139 134
f 134 135 61
f 188 185 189
f 188 189 186
f 44 185 188
f 188 187 44
f 186 187 188
f 83 19 84
f 83 93 19
f 84 70 83
f 83 70 93
f 103 102 20
f 111 72 22
f 22 72 194
f 194 72 69
f 71 109 76
f 76 70 71
f 109 70 76
f 112 111 22
f 73 72 112
f 72 111 112
f 156 30 154
f 30 175 154
f 154 155 156
f 154 175 155
f 176 35 170
f 35 171 170
f 179 178 33
f 179 171 178
f 179 170 171
f 47 46 5
f 5 6 47
f 141 190 140
f 190 193 140
f 140 136 57
f 192 136 140
f 57 56 140
f 140 56 141
f 140 193 182
f 182 181 140
f 140 181 192
f 46 118 120
f 16 101 98
f 101 99 98
f 65 66 14
f 14 128 65
f 20 89 88
f 88 103 20
f 89 70 88
f 88 70 69
f 69 103 88
f 69 77 110
f 110 194 69
f 22 194 110
f 110 109 22
f 110 77 109
f 113 114 73
f 22 114 113
f 113 112 22
f 33 177 180
f 180 179 33
f 180 177 176
f 176 170 180
f 170 179 180
f 131 66 67
f 43 6 1
f 6 5 1
f 7 5 46
f 46 120 7
f 116 119 45
f 45 117 116
f 104 117 45
f 45 49 104
f 104 49 82
f 85 49 48
f 85 48 91
f 100 99 16
f 16 98 100
f 100 98 99
f 48 17 95
f 95 94 48
f 91 48 92
f 48 94 92
f 121 120 118
f 73 112 115
f 115 113 73
f 112 113 115
f 63 135 132
f 67 68 133
f 133 131 67
f 5 131 133
f 138 139 59
f 138 59 60
f 137 138 60
f 60 58 137
f 58 136 137
f 2 1 5
f 3 138 2
f 138 137 2
f 43 1 2
f 2 136 43
f 2 137 136
f 195 7 120
f 130 131 5
f 5 7 130
f 66 131 130
f 49 85 78
f 96 17 97
f 97 102 96
f 102 103 96
f 125 92 94
f 94 95 125
f 91 92 125
f 125 85 91
f 125 78 85
f 118 122 125
f 125 121 118
f 10 68 63
f 63 132 10
f 5 133 4
f 4 133 132
f 4 132 135
f 135 134 4
f 4 2 5
f 3 2 4
f 4 134 139
f 139 138 4
f 4 138 3
f 129 7 128
f 129 130 7
f 128 14 129
f 129 14 66
f 66 130 129
f 82 49 80
f 49 78 80
f 90 95 17
f 17 96 90
f 90 96 103
f 90 103 69
f 123 118 119
f 132 133 13
f 13 10 132
f 13 133 68
f 68 10 13
f 78 125 124
f 124 80 78
f 82 80 124
f 124 104 82
f 117 104 124
f 124 125 122
f 124 116 117
f 124 122 118
f 118 123 124
f 119 116 124
f 124 123 119
f 126 125 95
f 95 90 126
f 126 90 69
f 69 72 126
f 7 195 126
f 121 125 126
f 120 121 126
f 126 195 120
f 72 15 127
f 127 126 72
f 127 15 74
f 74 128 127
f 128 7 127
f 7 126 127
f 44 184 191
f 191 142 44
f 44 142 185
f 142 189 185
f 32 27 49
f 47 42 49
f 36 37 49
f 49 41 36
f 49 24 25
f 45 46 49
f 49 43 44
f 44 39 49
f 49 33 34
f 49 22 23
f 28 29 49
f 25 26 49
f 49 31 32
f 49 27 28
f 49 39 40
f 29 24 49
f 23 18 49
f 49 26 21
f 21 22 49
f 40 41 49
f 49 20 16
f 34 35 49
f 19 20 49
f 49 37 38
f 38 33 49
f 49 46 47
f 49 35 30
f 30 31 49
f 49 42 43
f 16 17 49
f 49 18 19
f 49 17 48
f 73 74 15
f 15 72 73

