# https://github.com/mikedh/trimesh
v 0.00202742 0.00703893 0.00100094
v 0.00202681 0.00703893 -0.00000784
v 0.00202681 0.00703916 -0.00000784
v 0.00188302 0.00736909 -0.00011922
v 0.00202559 0.00703893 0.00215054
v -0.00005933 0.00651870 -0.00075035
v -0.00005933 0.00651870 -0.00153318
v 0.00202071 0.00703916 -0.00314941
v 0.00183672 0.00744131 -0.00011666
v 0.00202376 0.00703905 0.00278935
v 0.00202376 0.00703893 0.00278935
v -0.00046023 0.00649823 -0.00066394
v -0.00076974 0.00649823 0.00012657
v -0.00342190 0.00651870 -0.00153318
v 0.00007105 0.00703893 -0.00374598
v 0.00008750 0.00703916 -0.00374598
v 0.00043113 0.00703916 -0.00372421
v 0.00095145 0.00703916 -0.00362244
v 0.00103126 0.00703916 -0.00360324
v 0.00133894 0.00703916 -0.00350146
v 0.00175690 0.00703916 -0.00331072
v 0.00178005 0.00703916 -0.00329855
v 0.00176909 0.00714961 -0.00330495
v 0.00168196 0.00748741 -0.00054680
v 0.00176482 0.00748741 -0.00011154
v 0.00177518 0.00747706 -0.00000784
v 0.00183062 0.00744131 -0.00000784
v 0.00180808 0.00744131 0.00034485
v 0.00173740 0.00748753 0.00033140
v 0.00196588 0.00706433 0.00278935
v -0.00411707 0.00703893 0.00278935
v -0.00382706 0.00649823 -0.00066394
v -0.00419689 0.00649823 0.00012657
v -0.00339813 0.00703893 -0.00158503
v -0.00308436 0.00703893 -0.00212975
v -0.00290036 0.00703893 -0.00237554
v -0.00261766 0.00703893 -0.00267959
v -0.00254028 0.00703893 -0.00275320
v -0.00222224 0.00703893 -0.00301883
v -0.00180855 0.00703893 -0.00327807
v -0.00169583 0.00703893 -0.00334144
v -0.00140704 0.00703893 -0.00347522
v -0.00102746 0.00703893 -0.00360196
v -0.00089586 0.00703893 -0.00363716
v -0.00050410 0.00703893 -0.00371525
v -0.00037981 0.00703893 -0.00372934
v -0.00003496 0.00703893 -0.00374470
v 0.00003571 0.00762068 -0.00374982
v 0.00007166 0.00721748 -0.00374726
v 0.00043113 0.00755199 -0.00372421
v 0.00100141 0.00741355 -0.00361284
v 0.00133894 0.00730887 -0.00350146
v 0.00161616 0.00749988 -0.00052568
v 0.00007166 0.00761456 -0.00374726
v 0.00169536 0.00749988 -0.00010770
v 0.00174228 0.00749047 -0.00000784
v 0.00175812 0.00748753 -0.00000784
v 0.00166917 0.00749988 0.00031860
v 0.00153756 0.00749988 0.00072378
v 0.00160032 0.00748753 0.00075322
v 0.00183489 0.00711879 0.00278935
v 0.00168988 0.00749988 -0.00000784
v -0.00404640 0.00707092 0.00278935
v -0.00393490 0.00712150 -0.00000784
v -0.00419689 0.00700282 0.00012657
v -0.00339813 0.00732251 -0.00158503
v -0.00310203 0.00741366 -0.00210542
v -0.00290036 0.00746789 -0.00237554
v -0.00258110 0.00754152 -0.00271863
v -0.00222224 0.00760738 -0.00301883
v -0.00174214 0.00766784 -0.00331968
v -0.00140704 0.00769125 -0.00347522
v -0.00096227 0.00769936 -0.00362372
v -0.00050410 0.00767972 -0.00371525
v -0.00035970 0.00766784 -0.00373189
v -0.00035909 0.00766784 0.00278935
v -0.00006786 0.00763385 0.00278935
v -0.00003070 0.00762950 0.00278935
v 0.00028064 0.00757786 0.00278935
v 0.00040859 0.00755398 0.00278935
v 0.00071810 0.00748753 0.00278935
v 0.00099958 0.00741425 0.00278935
v 0.00124755 0.00733851 0.00278935
v 0.00165272 0.00718913 0.00278935
v -0.00366682 0.00721771 0.00278935
v -0.00390261 0.00713608 -0.00050327
v -0.00349501 0.00728499 -0.00000784
v -0.00335975 0.00733439 -0.00000784
v -0.00310203 0.00741366 -0.00000784
v -0.00310142 0.00741355 0.00278935
v -0.00223626 0.00758904 0.00278935
v -0.00199986 0.00763949 -0.00000016
v -0.00199925 0.00763961 -0.00000784
v -0.00197000 0.00764326 -0.00034837
v -0.00187922 0.00765396 -0.00068442
v -0.00174214 0.00766784 -0.00098270
v -0.00153194 0.00768443 -0.00128611
v -0.00153194 0.00768431 0.00128514
v -0.00128458 0.00769619 0.00153222
v -0.00128519 0.00769619 -0.00153318
v -0.00100127 0.00769983 -0.00173225
v -0.00100066 0.00769983 0.00173128
v -0.00068871 0.00769113 0.00187722
v -0.00068932 0.00769113 -0.00187691
v -0.00079716 0.00768866 0.00278935
v -0.00329212 0.00735509 0.00278935
v -0.00174153 0.00766784 0.00278935
v -0.00196940 0.00764326 0.00034805
v -0.00187861 0.00765384 0.00068409
v -0.00156484 0.00768172 0.00278935
v -0.00134733 0.00769231 0.00278935
v -0.00112738 0.00769548 0.00278935
v -0.00108656 0.00769583 0.00278935
f 1 2 3
f 1 3 4
f 1 4 5
f 1 5 6
f 1 6 7
f 1 7 2
f 2 7 8
f 2 8 3
f 3 8 4
f 4 8 9
f 4 9 10
f 4 10 5
f 5 10 11
f 5 11 6
f 6 12 7
f 6 11 13
f 6 13 12
f 7 12 32
f 7 32 14
f 7 14 15
f 7 15 16
f 7 16 17
f 7 17 18
f 7 18 19
f 7 19 20
f 7 20 21
f 7 21 22
f 7 22 8
f 8 22 23
f 8 23 24
f 8 24 25
f 8 25 9
f 9 25 26
f 9 26 27
f 9 27 10
f 10 27 28
f 10 28 29
f 10 29 30
f 10 30 61
f 10 61 84
f 10 84 83
f 10 83 82
f 10 82 81
f 10 81 80
f 10 80 79
f 10 79 78
f 10 78 77
f 10 77 76
f 10 76 105
f 10 105 113
f 10 113 112
f 10 112 111
f 10 111 110
f 10 110 107
f 10 107 91
f 10 91 90
f 10 90 106
f 10 106 85
f 10 85 63
f 10 63 31
f 10 31 11
f 11 31 33
f 11 33 13
f 12 13 33
f 12 33 32
f 14 34 35
f 14 35 36
f 14 36 37
f 14 37 38
f 14 38 39
f 14 39 40
f 14 40 41
f 14 41 42
f 14 42 43
f 14 43 44
f 14 44 45
f 14 45 46
f 14 46 47
f 14 47 15
f 14 32 33
f 14 33 34
f 15 47 48
f 15 48 49
f 15 49 16
f 16 49 17
f 17 49 48
f 17 48 50
f 17 50 51
f 17 51 18
f 18 51 19
f 19 51 52
f 19 52 20
f 20 52 21
f 21 52 23
f 21 23 22
f 23 52 24
f 24 53 25
f 24 52 51
f 24 51 50
f 24 50 54
f 24 54 53
f 25 53 55
f 25 55 56
f 25 56 57
f 25 57 29
f 25 29 26
f 26 29 27
f 27 29 28
f 29 58 59
f 29 59 60
f 29 60 61
f 29 61 30
f 29 57 56
f 29 56 62
f 29 62 58
f 31 63 64
f 31 64 65
f 31 65 33
f 33 65 66
f 33 66 34
f 34 66 67
f 34 67 35
f 35 67 68
f 35 68 36
f 36 68 37
f 37 68 69
f 37 69 38
f 38 70 39
f 38 69 70
f 39 70 40
f 40 70 71
f 40 71 41
f 41 71 72
f 41 72 42
f 42 72 43
f 43 72 73
f 43 73 44
f 44 73 74
f 44 74 45
f 45 74 75
f 45 75 46
f 46 75 48
f 46 48 47
f 48 54 50
f 48 75 55
f 48 55 53
f 48 53 54
f 55 75 74
f 55 74 76
f 55 76 62
f 55 62 56
f 58 62 76
f 58 76 77
f 58 77 78
f 58 78 59
f 59 78 79
f 59 79 60
f 60 79 80
f 60 80 81
f 60 81 82
f 60 82 83
f 60 83 84
f 60 84 61
f 63 85 86
f 63 86 64
f 64 86 65
f 65 86 66
f 66 86 87
f 66 87 88
f 66 88 67
f 67 88 89
f 67 89 68
f 68 89 90
f 68 90 69
f 69 90 91
f 69 91 92
f 69 92 70
f 70 92 93
f 70 93 94
f 70 94 71
f 71 94 95
f 71 95 96
f 71 96 97
f 71 97 72
f 72 97 98
f 72 98 99
f 72 99 100
f 72 100 73
f 73 100 101
f 73 101 102
f 73 102 103
f 73 103 104
f 73 104 74
f 74 104 103
f 74 103 76
f 76 103 105
f 85 106 87
f 85 87 86
f 87 106 88
f 88 106 89
f 89 106 90
f 91 107 108
f 91 108 92
f 92 108 93
f 93 108 94
f 94 108 95
f 95 108 109
f 95 109 107
f 95 107 96
f 96 107 97
f 97 107 110
f 97 110 98
f 98 110 99
f 99 110 111
f 99 111 102
f 99 102 100
f 100 102 101
f 102 111 112
f 102 112 113
f 102 113 105
f 102 105 103
f 107 109 108

