# https://github.com/mikedh/trimesh
v -0.00113499 0.00769377 0.00335343
v -0.00119746 0.00769288 0.00335343
v -0.00150071 0.00768220 0.00587052
v -0.00128378 0.00768710 0.00513765
v -0.00035812 0.00766753 0.00637726
v -0.00089875 0.00768710 0.00335343
v -0.00137464 0.00768843 0.00335343
v -0.00142120 0.00768710 0.00426005
v -0.00143711 0.00768621 0.00459925
v -0.00152570 0.00768042 0.00637667
v -0.00153819 0.00768087 0.00513765
v -0.00164609 0.00767464 0.00637667
v -0.00138600 0.00768220 0.00637667
v -0.00017867 0.00764618 0.00637726
v -0.00015822 0.00764395 0.00587112
v -0.00035812 0.00766753 0.00513825
v -0.00096462 0.00766753 0.00637726
v -0.00036266 0.00766708 0.00426005
v -0.00036153 0.00766619 0.00335343
v -0.00140644 0.00768710 0.00335343
v -0.00157567 0.00767953 0.00335343
v -0.00161656 0.00767687 0.00513765
v -0.00163473 0.00767553 0.00587052
v -0.00174036 0.00766708 0.00513765
v -0.00174036 0.00766708 0.00637667
v -0.00000830 0.00761816 0.00637726
v 0.00003259 0.00761237 0.00587112
v -0.00012756 0.00763995 0.00513825
v -0.00010143 0.00763550 0.00335343
v -0.00262853 0.00750874 0.00637667
v -0.00310215 0.00741267 0.00637667
v -0.00320551 0.00738109 0.00637667
v -0.00340994 0.00730593 0.00637667
v -0.00420158 0.00699859 0.00637667
v -0.00674003 0.00507318 0.00637726
v -0.00173695 0.00766619 0.00335343
v -0.00173695 0.00766708 0.00426005
v -0.00229461 0.00757501 0.00335343
v -0.00257288 0.00752031 0.00587052
v 0.00013367 0.00759147 0.00637726
v 0.00064023 0.00749851 0.00587112
v 0.00025406 0.00757368 0.00513825
v 0.00009165 0.00760348 0.00513825
v 0.00023021 0.00758257 0.00335343
v -0.00009235 0.00763506 0.00426005
v -0.00005828 0.00762928 0.00335343
v -0.00310215 0.00741267 0.00513765
v -0.00321913 0.00737709 0.00587052
v -0.00344288 0.00729614 0.00513765
v -0.00349854 0.00727524 0.00513765
v -0.00414706 0.00702350 0.00513765
v -0.00439125 0.00691231 0.00637667
v -0.00468655 0.00674819 0.00637667
v -0.00528851 0.00637591 0.00637667
v -0.00556792 0.00618466 0.00637667
v -0.00592228 0.00588978 0.00637667
v -0.00626415 0.00557889 0.00637667
v -0.00659011 0.00525421 0.00637667
v -0.00674117 0.00507452 0.00637667
v -0.00701830 0.00473872 0.00637726
v -0.00309874 0.00741178 0.00335343
v 0.00067771 0.00748917 0.00637726
v 0.00084694 0.00745359 0.00637726
v 0.00082876 0.00745848 0.00587112
v 0.00080378 0.00746516 0.00513825
v 0.00058571 0.00751141 0.00513825
v 0.00044714 0.00754210 0.00335343
v -0.00326570 0.00736108 0.00371927
v -0.00342471 0.00730281 0.00335343
v -0.00362233 0.00722943 0.00335343
v -0.00383359 0.00714937 0.00335343
v -0.00406642 0.00705730 0.00335343
v -0.00438898 0.00691186 0.00335343
v -0.00439125 0.00691231 0.00513765
v -0.00459796 0.00679845 0.00459866
v -0.00477174 0.00670104 0.00513765
v -0.00517494 0.00645375 0.00459925
v -0.00535780 0.00632877 0.00459925
v -0.00551453 0.00622158 0.00459925
v -0.00556792 0.00618466 0.00587052
v -0.00578485 0.00600498 0.00513765
v -0.00606879 0.00576791 0.00459925
v -0.00613012 0.00571276 0.00459925
v -0.00617101 0.00567229 0.00513765
v -0.00628118 0.00556288 0.00459925
v -0.00653219 0.00531247 0.00513765
v -0.00659011 0.00525421 0.00526434
v -0.00674117 0.00507452 0.00587052
v -0.00703420 0.00472004 0.00621298
v -0.00704783 0.00469869 0.00637726
v -0.00327592 0.00735708 0.00335343
v 0.00100140 0.00741312 0.00637726
v 0.00073450 0.00748117 0.00335343
v 0.00061070 0.00750785 0.00335343
v 0.00100027 0.00741312 0.00513825
v -0.00454458 0.00682558 0.00335343
v -0.00489213 0.00663255 0.00335343
v -0.00480808 0.00668058 0.00459925
v -0.00501593 0.00655649 0.00335343
v -0.00509316 0.00650801 0.00335343
v -0.00556678 0.00618333 0.00335343
v -0.00556792 0.00618422 0.00459925
v -0.00569853 0.00607392 0.00335343
v -0.00610059 0.00574078 0.00421417
v -0.00628118 0.00450521 0.00459925
v -0.00711143 0.00419165 0.00637726
v -0.00672527 0.00509231 0.00555204
v -0.00711030 0.00460840 0.00637726
v 0.00113656 0.00737220 0.00637726
v 0.00115246 0.00736731 0.00587112
v 0.00099572 0.00741178 0.00335343
v 0.00117518 0.00736019 0.00513825
v 0.00122515 0.00734284 0.00335343
v -0.00569853 0.00315133 0.00335343
v -0.00711143 0.00418142 0.00637726
v 0.00194296 0.00706353 0.00637726
v 0.00191002 0.00708043 0.00513825
v 0.00169536 0.00716760 0.00335343
v -0.00453890 0.00315045 0.00426005
v -0.00653105 0.00315045 0.00513825
v -0.00711030 0.00315045 0.00637726
v 0.00246428 0.00315133 0.00335343
v 0.00204177 0.00702483 0.00637726
v 0.00199293 0.00704752 0.00513825
v 0.00186232 0.00710178 0.00335343
v 0.00158633 0.00315045 0.00426005
v -0.00096462 0.00315000 0.00587112
v -0.00096462 0.00315000 0.00637726
v 0.00335132 0.00450788 0.00335343
v 0.00341719 0.00315133 0.00371927
v 0.00351033 0.00315089 0.00426005
v 0.00211332 0.00699548 0.00637726
v 0.00198385 0.00705152 0.00335343
v 0.00209288 0.00700482 0.00587112
v 0.00211787 0.00699459 0.00513825
v 0.00189753 0.00315000 0.00587112
v 0.00189753 0.00315000 0.00637726
v 0.00335132 0.00626695 0.00335343
v 0.00449164 0.00315089 0.00637726
v 0.00217352 0.00696879 0.00637726
v 0.00215989 0.00697546 0.00587112
v 0.00208152 0.00700838 0.00335343
v 0.00213945 0.00698480 0.00513825
v 0.00346944 0.00618333 0.00637726
v 0.00346944 0.00618377 0.00587112
v 0.00346944 0.00618377 0.00513825
v 0.00346830 0.00618377 0.00426005
v 0.00350351 0.00615709 0.00426005
v 0.00370454 0.00599653 0.00492010
v 0.00379768 0.00591825 0.00513825
v 0.00392034 0.00581417 0.00542624
v 0.00416113 0.00559045 0.00587112
v 0.00418952 0.00556332 0.00592587
v 0.00449164 0.00525287 0.00637726
v 0.00332860 0.00628207 0.00335343
v 0.00229278 0.00691231 0.00637726
v 0.00229391 0.00691231 0.00587112
v 0.00229391 0.00691231 0.00513825
v 0.00222122 0.00694655 0.00513825
v 0.00228937 0.00691097 0.00335343
v 0.00229278 0.00691142 0.00426005
v 0.00351373 0.00614908 0.00637726
v 0.00320708 0.00635768 0.00426005
v 0.00308441 0.00643329 0.00513825
v 0.00290837 0.00653959 0.00637726
v 0.00353304 0.00613396 0.00438407
v 0.00369659 0.00600409 0.00513825
v 0.00383857 0.00588089 0.00637726
v 0.00412137 0.00562159 0.00637726
v 0.00324683 0.00633366 0.00335343
v 0.00264146 0.00670193 0.00637726
v 0.00247223 0.00680467 0.00587112
v 0.00247223 0.00680467 0.00513825
v 0.00246428 0.00680734 0.00335343
v 0.00364548 0.00604412 0.00637726
v 0.00352623 0.00613930 0.00513825
v 0.00306397 0.00644619 0.00513825
v 0.00292200 0.00653247 0.00587112
v 0.00285612 0.00657206 0.00637726
v 0.00301740 0.00647510 0.00513825
v 0.00264146 0.00670238 0.00587112
f 1 2 3
f 1 3 4
f 1 4 5
f 1 5 6
f 1 6 19
f 1 19 29
f 1 29 46
f 1 46 44
f 1 44 67
f 1 67 94
f 1 94 93
f 1 93 111
f 1 111 113
f 1 113 118
f 1 118 125
f 1 125 133
f 1 133 142
f 1 142 160
f 1 160 174
f 1 174 170
f 1 170 155
f 1 155 138
f 1 138 129
f 1 129 122
f 1 122 114
f 1 114 103
f 1 103 101
f 1 101 100
f 1 100 99
f 1 99 97
f 1 97 96
f 1 96 73
f 1 73 72
f 1 72 71
f 1 71 70
f 1 70 69
f 1 69 91
f 1 91 61
f 1 61 38
f 1 38 36
f 1 36 21
f 1 21 20
f 1 20 7
f 1 7 2
f 2 7 8
f 2 8 9
f 2 9 3
f 3 10 4
f 3 9 11
f 3 11 12
f 3 12 10
f 4 10 13
f 4 13 5
f 5 14 15
f 5 15 16
f 5 16 6
f 5 13 17
f 5 17 35
f 5 35 60
f 5 60 90
f 5 90 108
f 5 108 106
f 5 106 115
f 5 115 121
f 5 121 128
f 5 128 137
f 5 137 139
f 5 139 154
f 5 154 169
f 5 169 168
f 5 168 175
f 5 175 162
f 5 162 144
f 5 144 165
f 5 165 179
f 5 179 171
f 5 171 156
f 5 156 140
f 5 140 132
f 5 132 123
f 5 123 116
f 5 116 109
f 5 109 92
f 5 92 63
f 5 63 62
f 5 62 40
f 5 40 26
f 5 26 14
f 6 16 18
f 6 18 19
f 7 20 8
f 8 21 9
f 8 20 21
f 9 21 11
f 10 12 17
f 10 17 13
f 11 21 22
f 11 22 23
f 11 23 12
f 12 24 25
f 12 25 17
f 12 23 24
f 14 26 15
f 15 26 27
f 15 27 28
f 15 28 16
f 16 19 18
f 16 28 29
f 16 29 19
f 17 25 30
f 17 30 31
f 17 31 32
f 17 32 33
f 17 33 34
f 17 34 35
f 21 36 37
f 21 37 22
f 22 37 24
f 22 24 23
f 24 38 25
f 24 37 38
f 25 38 39
f 25 39 30
f 26 40 41
f 26 41 42
f 26 42 27
f 27 43 28
f 27 42 43
f 28 43 44
f 28 44 45
f 28 45 29
f 29 45 46
f 30 39 31
f 31 47 48
f 31 48 32
f 31 39 47
f 32 48 33
f 33 48 49
f 33 49 50
f 33 50 51
f 33 51 34
f 34 51 52
f 34 52 35
f 35 52 53
f 35 53 54
f 35 54 55
f 35 55 56
f 35 56 57
f 35 57 58
f 35 58 59
f 35 59 60
f 36 38 37
f 38 61 47
f 38 47 39
f 40 62 41
f 41 62 63
f 41 63 64
f 41 64 65
f 41 65 66
f 41 66 42
f 42 66 67
f 42 67 44
f 42 44 43
f 44 46 45
f 47 61 68
f 47 68 48
f 48 68 49
f 49 68 69
f 49 69 70
f 49 70 50
f 50 70 71
f 50 71 51
f 51 71 72
f 51 72 73
f 51 73 74
f 51 74 52
f 52 74 75
f 52 75 53
f 53 75 76
f 53 76 54
f 54 76 77
f 54 77 78
f 54 78 79
f 54 79 55
f 55 80 81
f 55 81 56
f 55 79 80
f 56 81 82
f 56 82 83
f 56 83 84
f 56 84 57
f 57 84 85
f 57 85 58
f 58 86 87
f 58 87 88
f 58 88 59
f 58 85 86
f 59 88 89
f 59 89 60
f 60 89 90
f 61 91 68
f 63 92 64
f 64 92 65
f 65 93 94
f 65 94 66
f 65 92 95
f 65 95 93
f 66 94 67
f 68 91 69
f 73 96 75
f 73 75 74
f 75 96 97
f 75 97 98
f 75 98 76
f 76 98 77
f 77 99 100
f 77 100 78
f 77 98 99
f 78 100 79
f 79 100 101
f 79 101 102
f 79 102 80
f 80 102 81
f 81 103 82
f 81 102 101
f 81 101 103
f 82 104 83
f 82 103 104
f 83 104 85
f 83 85 84
f 85 105 115
f 85 115 106
f 85 106 89
f 85 89 86
f 85 104 103
f 85 103 114
f 85 114 105
f 86 89 107
f 86 107 87
f 87 107 88
f 88 107 89
f 89 106 108
f 89 108 90
f 92 109 110
f 92 110 95
f 93 95 111
f 95 110 112
f 95 112 113
f 95 113 111
f 97 99 98
f 105 114 115
f 109 116 117
f 109 117 118
f 109 118 110
f 110 118 112
f 112 118 113
f 114 119 120
f 114 120 121
f 114 121 115
f 114 122 126
f 114 126 119
f 116 123 117
f 117 123 124
f 117 124 125
f 117 125 118
f 119 126 136
f 119 136 127
f 119 127 120
f 120 127 121
f 121 127 128
f 122 129 130
f 122 130 131
f 122 131 126
f 123 132 124
f 124 133 125
f 124 132 134
f 124 134 135
f 124 135 133
f 126 131 136
f 127 136 137
f 127 137 128
f 129 138 154
f 129 154 139
f 129 139 130
f 130 139 131
f 131 139 136
f 132 140 141
f 132 141 135
f 132 135 134
f 133 135 142
f 135 141 143
f 135 143 142
f 136 139 137
f 138 144 145
f 138 145 146
f 138 146 147
f 138 147 148
f 138 148 149
f 138 149 150
f 138 150 151
f 138 151 152
f 138 152 153
f 138 153 154
f 138 155 144
f 140 156 157
f 140 157 141
f 141 157 158
f 141 158 159
f 141 159 143
f 142 143 161
f 142 161 160
f 143 159 161
f 144 162 145
f 144 155 163
f 144 163 164
f 144 164 165
f 145 162 176
f 145 176 166
f 145 166 148
f 145 148 146
f 146 148 147
f 148 166 149
f 149 167 150
f 149 166 167
f 150 167 151
f 151 168 152
f 151 167 168
f 152 168 169
f 152 169 153
f 153 169 154
f 155 170 163
f 156 171 157
f 157 171 172
f 157 172 173
f 157 173 158
f 158 173 174
f 158 174 161
f 158 161 159
f 160 161 174
f 162 175 167
f 162 167 176
f 163 170 177
f 163 177 164
f 164 177 165
f 165 177 178
f 165 178 179
f 166 176 167
f 167 175 168
f 170 180 177
f 170 174 180
f 171 179 181
f 171 181 172
f 172 181 173
f 173 181 180
f 173 180 174
f 177 180 178
f 178 180 181
f 178 181 179

