# https://github.com/mikedh/trimesh
v -0.00046200 0.00395420 -0.00251921
v 0.00024133 0.00395420 -0.00251921
v -0.00157072 0.00395420 -0.00199896
v -0.00309033 0.00414365 -0.00281990
v -0.00243645 0.00415873 -0.00316355
v -0.00189491 0.00414176 -0.00319219
v -0.00135337 0.00413893 -0.00320173
v -0.00027029 0.00413893 -0.00322082
v 0.00314684 0.00414365 -0.00280558
v 0.00134822 0.00395420 -0.00203238
v 0.00027064 0.00413893 -0.00322082
v 0.00135372 0.00413893 -0.00320173
v 0.00189526 0.00414176 -0.00319219
v 0.00243680 0.00415873 -0.00316355
v -0.00309033 0.00410218 -0.00232829
v -0.00209211 0.00395420 -0.00144531
v -0.00309033 0.00421811 -0.00303945
v -0.00307384 0.00421622 -0.00304423
v -0.00271241 0.00417475 -0.00313968
v -0.00243645 0.00440849 -0.00343560
v -0.00189491 0.00463941 -0.00376016
v -0.00189491 0.00436891 -0.00346424
v -0.00027029 0.00457155 -0.00382698
v -0.00027029 0.00430105 -0.00348810
v 0.00314684 0.00412951 -0.00266717
v 0.00271276 0.00417475 -0.00313968
v 0.00314684 0.00420397 -0.00298695
v 0.00162418 0.00395420 -0.00177941
v 0.00314684 0.00410218 -0.00232829
v 0.00027064 0.00430105 -0.00348810
v 0.00027064 0.00457155 -0.00382698
v 0.00189526 0.00436891 -0.00346424
v 0.00189526 0.00463941 -0.00376016
v 0.00243680 0.00440849 -0.00343560
v -0.00224902 0.00395420 -0.00100143
v -0.00309033 0.00395420 0.00292666
v -0.00309033 0.00422753 -0.00305377
v -0.00309033 0.00448578 -0.00337356
v -0.00273378 0.00471104 -0.00368857
v -0.00243645 0.00467900 -0.00371720
v -0.00243645 0.00521717 -0.00426609
v -0.00243645 0.00575535 -0.00481019
v -0.00189491 0.00572236 -0.00484360
v -0.00027029 0.00484299 -0.00409903
v 0.00243680 0.00467900 -0.00371720
v 0.00273413 0.00471104 -0.00368857
v 0.00314684 0.00472706 -0.00360743
v 0.00314684 0.00449332 -0.00336401
v 0.00314684 0.00422470 -0.00302991
v 0.00188549 0.00395420 -0.00149781
v 0.00229943 0.00395420 -0.00070074
v 0.00211139 0.00395420 -0.00124008
v 0.00314684 0.00395420 0.00292666
v 0.00027064 0.00484299 -0.00409903
v 0.00189526 0.00572236 -0.00484360
v 0.00243680 0.00575535 -0.00481019
v 0.00243680 0.00521717 -0.00426609
v -0.00309033 0.00395420 0.04028881
v -0.00309033 0.00582227 -0.00474337
v -0.00277285 0.00578551 -0.00478156
v -0.00243645 0.00603151 -0.00507748
v -0.00189491 0.00599475 -0.00511089
v -0.00135337 0.00597119 -0.00513475
v -0.00027029 0.00592595 -0.00518248
v 0.00277259 0.00578551 -0.00478156
v 0.00314684 0.00546694 -0.00436632
v 0.00314684 0.00395420 0.04009312
v 0.00027064 0.00592595 -0.00518248
v 0.00135372 0.00597119 -0.00513475
v 0.00189526 0.00599475 -0.00511089
v 0.00243680 0.00603151 -0.00507748
v -0.00304698 0.00395420 0.04153453
v -0.00303843 0.00661210 0.04316209
v -0.00304820 0.00715405 0.04316209
v -0.00309033 0.00932372 0.04289003
v -0.00309033 0.00609560 -0.00500111
v -0.00274110 0.00633123 -0.00531135
v -0.00243645 0.00630201 -0.00533521
v -0.00189491 0.00626619 -0.00536385
v -0.00135337 0.00624169 -0.00538294
v -0.00027029 0.00619645 -0.00542112
v 0.00274084 0.00633123 -0.00531135
v 0.00313402 0.00582698 -0.00473860
v 0.00314684 0.00582887 -0.00473383
v 0.00314684 0.00933503 0.04260366
v 0.00303451 0.00395420 0.04202614
v 0.00027064 0.00619645 -0.00542112
v 0.00135372 0.00624169 -0.00538294
v 0.00189526 0.00626619 -0.00536385
v 0.00243680 0.00630201 -0.00533521
v -0.00302744 0.00395420 0.04207864
v -0.00286932 0.00603999 0.04316209
v -0.00286809 0.00395420 0.04259889
v -0.00304942 0.00931901 0.04316209
v -0.00309033 0.01040290 0.04299026
v -0.00309033 0.00986095 0.04298549
v -0.00309033 0.00661304 -0.00524453
v -0.00278018 0.00661304 -0.00532089
v -0.00243645 0.00661304 -0.00537817
v -0.00189491 0.00661304 -0.00543544
v -0.00027029 0.00661304 -0.00555954
v 0.00189526 0.00661304 -0.00543544
v 0.00243680 0.00661304 -0.00537817
v 0.00278114 0.00661304 -0.00532089
v 0.00305160 0.00661304 -0.00525407
v 0.00314684 0.00661304 -0.00523021
v 0.00314684 0.00651785 -0.00519202
v 0.00314684 0.00610220 -0.00499156
v 0.00314684 0.00600512 -0.00490088
v 0.00314684 0.00934917 0.04260843
v 0.00303817 0.00661304 0.04316209
v 0.00302840 0.00395420 0.04207864
v 0.00027064 0.00661304 -0.00555954
v -0.00251521 0.00395420 0.04282321
v -0.00243645 0.00395420 0.04285662
v -0.00286626 0.00603622 0.04316209
v -0.00304332 0.01202686 0.04316209
v -0.00309033 0.01094485 0.04299026
v -0.00309033 0.00715405 -0.00525885
v -0.00307751 0.00715405 -0.00526362
v -0.00280643 0.00715405 -0.00533044
v -0.00243645 0.00715405 -0.00539249
v -0.00189491 0.00715405 -0.00544976
v -0.00135337 0.00715405 -0.00549749
v -0.00027029 0.00715405 -0.00558340
v 0.00189526 0.00715405 -0.00544976
v 0.00027064 0.00715405 -0.00558340
v 0.00135372 0.00715405 -0.00549749
v 0.00243680 0.00715405 -0.00539249
v 0.00280800 0.00715405 -0.00533044
v 0.00314684 0.00715405 -0.00524930
v 0.00314684 0.00985341 0.04276117
v 0.00304733 0.00715405 0.04316209
v 0.00287027 0.00604565 0.04316209
v 0.00286905 0.00395420 0.04259889
v 0.00288737 0.00395420 0.04256071
v -0.00205792 0.00395420 0.04287572
v -0.00259458 0.00580530 0.04316209
v -0.00309033 0.01203063 0.04288526
v -0.00309033 0.01177992 0.04298072
v -0.00287176 0.01260085 0.04316209
v -0.00309033 0.01239067 0.04244616
v -0.00309033 0.00769599 -0.00526362
v -0.00309033 0.00983456 -0.00527794
v -0.00283268 0.00986095 -0.00533521
v -0.00243645 0.00931995 -0.00540203
v -0.00189491 0.00931995 -0.00546408
v -0.00189491 0.00823794 -0.00545930
v -0.00081183 0.00986095 -0.00555954
v -0.00081183 0.00769599 -0.00554522
v -0.00027029 0.00931995 -0.00559295
v -0.00081183 0.01148585 -0.00556908
v 0.00189526 0.00769599 -0.00545453
v 0.00027064 0.00931995 -0.00559295
v 0.00081218 0.01040290 -0.00556431
v 0.00081218 0.00769599 -0.00554522
v 0.00243680 0.00823794 -0.00539726
v 0.00189526 0.00931995 -0.00546408
v 0.00189526 0.01256880 -0.00547840
v 0.00283792 0.01094485 -0.00533521
v 0.00310899 0.01094485 -0.00527794
v 0.00314684 0.00980440 -0.00526362
v 0.00243680 0.00986095 -0.00540203
v 0.00314684 0.01038782 0.04279458
v 0.00304794 0.00931995 0.04316209
v 0.00314684 0.01092034 0.04280412
v 0.00286661 0.00603811 0.04316209
v 0.00243680 0.00395420 0.04286140
v -0.00189491 0.00395420 0.04288049
v -0.00243645 0.00576949 0.04316209
v -0.00286993 0.01260556 0.04316209
v -0.00309033 0.01280915 0.04175886
v -0.00309033 0.01257729 0.04217410
v -0.00283635 0.01094485 -0.00533521
v -0.00283574 0.01040290 -0.00533521
v -0.00309033 0.01202780 -0.00527794
v -0.00243645 0.01256880 -0.00540203
v -0.00189491 0.01148585 -0.00547362
v -0.00135337 0.01256880 -0.00553090
v -0.00027029 0.01256880 -0.00559772
v -0.00081183 0.01256880 -0.00557386
v 0.00135372 0.01256880 -0.00553090
v 0.00027064 0.01256880 -0.00559295
v 0.00081218 0.01256880 -0.00557386
v 0.00081218 0.01311075 -0.00553090
v 0.00135372 0.01311075 -0.00546408
v 0.00275977 0.01286664 -0.00532567
v 0.00243680 0.01256880 -0.00540203
v 0.00283975 0.01148585 -0.00533521
v 0.00311021 0.01148585 -0.00527794
v 0.00314684 0.01089489 -0.00526839
v 0.00284036 0.01202780 -0.00533521
v 0.00304427 0.01094485 0.04316209
v 0.00314684 0.01094485 0.04280412
v 0.00243680 0.00577137 0.04316209
v 0.00189526 0.00395420 0.04288049
v -0.00189491 0.00574875 0.04316209
v -0.00286565 0.01261405 0.04316209
v -0.00309033 0.01289492 0.04150112
v -0.00274904 0.01286758 0.04298549
v -0.00283696 0.01202780 -0.00533044
v -0.00309033 0.01256975 -0.00517771
v -0.00275759 0.01286475 -0.00532089
v -0.00281009 0.01256880 -0.00533044
v -0.00189491 0.01256880 -0.00547362
v -0.00081183 0.01311075 -0.00553567
v -0.00027029 0.01311075 -0.00556908
v 0.00027064 0.01311075 -0.00556908
v 0.00081218 0.01345948 -0.00539726
v 0.00135372 0.01341801 -0.00534953
v 0.00243680 0.01293262 -0.00535430
v 0.00281349 0.01256880 -0.00533044
v 0.00164799 0.01338785 -0.00531135
v 0.00295575 0.01291565 -0.00500111
v 0.00314684 0.01287607 -0.00487702
v 0.00314684 0.01279218 -0.00498202
v 0.00314684 0.01257069 -0.00514430
v 0.00314684 0.01249152 -0.00518248
v 0.00314684 0.01202780 -0.00526839
v 0.00311143 0.01202780 -0.00527794
v 0.00304061 0.01202780 0.04316209
v 0.00314684 0.01146606 0.04277071
v 0.00209795 0.00575818 0.04316209
v 0.00189526 0.00575064 0.04316209
v 0.00135372 0.00574970 0.04316209
v -0.00116350 0.00574875 0.04316209
v -0.00245293 0.01292131 0.04316209
v -0.00309033 0.01291471 0.04142953
v -0.00244439 0.01292413 0.04316209
v -0.00243645 0.01305326 0.04261798
v -0.00279971 0.01290717 0.04261798
v -0.00309033 0.01288643 -0.00491520
v -0.00164459 0.01338691 -0.00531135
v -0.00243645 0.01293073 -0.00535430
v -0.00295418 0.01291377 -0.00500111
v -0.00135337 0.01311075 -0.00546408
v -0.00135337 0.01341896 -0.00534953
v -0.00081183 0.01346043 -0.00540203
v -0.00027029 0.01348116 -0.00542112
v 0.00027064 0.01348116 -0.00542112
v 0.00027064 0.01358107 -0.00503452
v 0.00081218 0.01353771 -0.00503452
v 0.00135372 0.01345854 -0.00503452
v 0.00167486 0.01339351 -0.00503452
v 0.00243680 0.01319464 -0.00449518
v 0.00314684 0.01291000 -0.00466701
v 0.00286844 0.01261028 0.04316209
v 0.00314623 0.01148585 0.04277071
v 0.00314684 0.01203157 0.04261321
v 0.00314684 0.01204005 0.04260843
v 0.00314684 0.01256504 0.04207864
v 0.00314684 0.01148585 0.04276594
v -0.00243645 0.01313055 0.04207864
v -0.00309033 0.01294204 0.04110497
v -0.00189491 0.01308530 0.04316209
v -0.00189491 0.01320877 0.04261798
v -0.00309033 0.01293827 -0.00449518
v -0.00297860 0.01298634 -0.00449518
v -0.00243645 0.01319087 -0.00449518
v -0.00167146 0.01339256 -0.00503452
v -0.00135337 0.01346043 -0.00503452
v -0.00081183 0.01354054 -0.00503452
v -0.00027029 0.01358107 -0.00503452
v 0.00081218 0.01353865 -0.00449518
v 0.00027064 0.01358107 0.00850616
v 0.00135372 0.01346137 -0.00449518
v 0.00168890 0.01339634 -0.00449518
v 0.00195936 0.01333224 -0.00449518
v 0.00197646 0.01333224 0.03936764
v 0.00243680 0.01319464 -0.00395108
v 0.00297834 0.01299388 0.04099520
v 0.00297834 0.01298917 -0.00449518
v 0.00314684 0.01291565 -0.00449518
v 0.00285501 0.01263384 0.04316209
v 0.00314684 0.01278464 0.04164431
v -0.00184179 0.01330303 0.04202614
v -0.00193643 0.01332188 0.04153453
v -0.00243645 0.01317579 0.04153453
v -0.00297860 0.01299294 0.04099520
v -0.00309033 0.01294581 0.04099520
v -0.00135337 0.01320972 0.04316209
v -0.00133933 0.01333224 0.04260366
v -0.00151028 0.01336523 0.04216933
v -0.00195840 0.01333130 0.00038271
v -0.00195840 0.01333036 -0.00449518
v -0.00243645 0.01319369 0.03991175
v -0.00197611 0.01333224 0.03936764
v -0.00168794 0.01339634 -0.00449518
v -0.00135337 0.01346420 -0.00449518
v -0.00081183 0.01354148 -0.00449518
v -0.00027029 0.01358107 0.00254482
v 0.00027064 0.01357259 0.04099520
v 0.00081218 0.01352075 0.04099520
v 0.00135372 0.01345854 0.04099520
v -0.00027029 0.01358013 0.00958960
v -0.00027029 0.01357259 0.04099520
v 0.00170538 0.01340199 0.04099520
v 0.00170538 0.01340199 0.03936764
v 0.00197646 0.01333224 0.04099520
v 0.00243680 0.01319369 0.04099520
v 0.00243680 0.01317013 0.04153453
v 0.00314684 0.01289492 0.04139135
v 0.00314684 0.01292319 0.04099520
v 0.00270665 0.01284685 0.04316209
v 0.00274573 0.01286758 0.04300458
v -0.00162567 0.01338220 0.04181136
v -0.00166596 0.01339162 0.04153453
v -0.00197611 0.01333224 0.04099520
v -0.00243645 0.01319369 0.04099520
v -0.00081183 0.01328040 0.04316209
v -0.00081183 0.01336712 0.04279458
v -0.00114945 0.01339068 0.04240797
v -0.00133933 0.01340199 0.04202614
v -0.00170565 0.01340199 0.03936764
v -0.00135337 0.01346420 -0.00286763
v -0.00081183 0.01354148 -0.00341174
v 0.00027064 0.01355279 0.04153453
v 0.00081218 0.01350190 0.04153453
v 0.00135372 0.01343875 0.04153453
v 0.00166570 0.01339162 0.04153453
v -0.00081183 0.01352075 0.04099520
v -0.00081183 0.01350190 0.04153453
v -0.00027029 0.01355279 0.04153453
v 0.00193677 0.01331999 0.04153453
v 0.00184153 0.01330114 0.04202614
v 0.00243680 0.01311452 0.04207864
v 0.00278602 0.01289869 0.04261798
v 0.00248442 0.01292602 0.04316209
v 0.00243680 0.01304760 0.04261798
v -0.00135337 0.01343875 0.04153453
v -0.00135337 0.01345854 0.04099520
v -0.00170565 0.01340199 0.04099520
v -0.00080328 0.01328135 0.04316209
v -0.00053282 0.01338031 0.04288526
v -0.00081183 0.01340764 0.04252730
v -0.00027029 0.01350944 0.04207864
v -0.00081183 0.01345854 0.04207864
v 0.00027064 0.01350944 0.04207864
v 0.00081218 0.01345854 0.04207864
v 0.00133907 0.01340199 0.04202614
v 0.00162540 0.01338220 0.04181136
v 0.00189526 0.01321443 0.04261798
v 0.00245878 0.01293450 0.04316209
v -0.00031791 0.01332753 0.04316209
v -0.00017200 0.01339728 0.04294731
v -0.00031974 0.01343309 0.04267048
v 0.00031948 0.01343309 0.04267048
v 0.00081218 0.01340764 0.04252730
v 0.00114919 0.01339068 0.04240797
v 0.00151062 0.01336523 0.04216933
v 0.00189526 0.01309944 0.04316209
v 0.00133907 0.01333413 0.04260366
v 0.00031826 0.01332753 0.04316209
v 0.00017173 0.01339728 0.04294731
v 0.00053317 0.01338031 0.04288526
v 0.00081218 0.01336712 0.04279458
v 0.00135372 0.01321254 0.04316209
v 0.00080363 0.01328135 0.04316209
v 0.00081218 0.01328040 0.04316209
f 1 2 10
f 1 10 28
f 1 28 50
f 1 50 52
f 1 52 51
f 1 51 53
f 1 53 67
f 1 67 86
f 1 86 112
f 1 112 136
f 1 136 135
f 1 135 168
f 1 168 196
f 1 196 169
f 1 169 137
f 1 137 115
f 1 115 114
f 1 114 93
f 1 93 91
f 1 91 72
f 1 72 58
f 1 58 36
f 1 36 35
f 1 35 16
f 1 16 3
f 1 3 4
f 1 4 5
f 1 5 6
f 1 6 7
f 1 7 8
f 1 8 11
f 1 11 2
f 2 9 10
f 2 11 12
f 2 12 13
f 2 13 14
f 2 14 9
f 3 15 4
f 3 16 15
f 4 15 36
f 4 36 58
f 4 58 75
f 4 75 96
f 4 96 95
f 4 95 118
f 4 118 140
f 4 140 139
f 4 139 142
f 4 142 173
f 4 173 172
f 4 172 199
f 4 199 228
f 4 228 254
f 4 254 280
f 4 280 257
f 4 257 232
f 4 232 202
f 4 202 176
f 4 176 144
f 4 144 143
f 4 143 119
f 4 119 97
f 4 97 76
f 4 76 59
f 4 59 38
f 4 38 37
f 4 37 17
f 4 17 18
f 4 18 19
f 4 19 5
f 5 19 20
f 5 20 21
f 5 21 22
f 5 22 6
f 6 22 23
f 6 23 24
f 6 24 7
f 7 24 8
f 8 24 30
f 8 30 11
f 9 25 10
f 9 14 26
f 9 26 27
f 9 27 49
f 9 49 48
f 9 48 47
f 9 47 66
f 9 66 84
f 9 84 109
f 9 109 108
f 9 108 107
f 9 107 106
f 9 106 131
f 9 131 162
f 9 162 191
f 9 191 219
f 9 219 218
f 9 218 217
f 9 217 216
f 9 216 215
f 9 215 246
f 9 246 273
f 9 273 303
f 9 303 302
f 9 302 275
f 9 275 251
f 9 251 250
f 9 250 249
f 9 249 252
f 9 252 222
f 9 222 194
f 9 194 166
f 9 166 164
f 9 164 132
f 9 132 110
f 9 110 85
f 9 85 67
f 9 67 53
f 9 53 29
f 9 29 25
f 10 25 29
f 10 29 28
f 11 30 12
f 12 30 13
f 13 30 31
f 13 31 32
f 13 32 14
f 14 32 33
f 14 33 34
f 14 34 26
f 15 16 35
f 15 35 36
f 17 37 18
f 18 37 19
f 19 37 38
f 19 38 39
f 19 39 40
f 19 40 20
f 20 40 21
f 21 23 22
f 21 40 41
f 21 41 42
f 21 42 43
f 21 43 64
f 21 64 44
f 21 44 23
f 23 31 30
f 23 30 24
f 23 44 54
f 23 54 31
f 26 34 45
f 26 45 46
f 26 46 47
f 26 47 48
f 26 48 49
f 26 49 27
f 28 29 50
f 29 51 52
f 29 52 50
f 29 53 51
f 31 33 32
f 31 54 33
f 33 45 34
f 33 54 68
f 33 68 55
f 33 55 56
f 33 56 57
f 33 57 45
f 38 59 60
f 38 60 39
f 39 60 40
f 40 60 41
f 41 60 42
f 42 60 61
f 42 61 62
f 42 62 43
f 43 62 63
f 43 63 64
f 44 64 68
f 44 68 54
f 45 57 65
f 45 65 46
f 46 65 47
f 47 65 66
f 55 68 69
f 55 69 70
f 55 70 56
f 56 70 71
f 56 71 65
f 56 65 57
f 58 72 73
f 58 73 74
f 58 74 75
f 59 76 77
f 59 77 60
f 60 77 61
f 61 77 78
f 61 78 62
f 62 78 79
f 62 79 63
f 63 79 64
f 64 79 80
f 64 80 81
f 64 81 87
f 64 87 68
f 65 71 82
f 65 82 83
f 65 83 66
f 66 83 84
f 67 85 86
f 68 87 88
f 68 88 89
f 68 89 69
f 69 89 70
f 70 89 90
f 70 90 71
f 71 90 82
f 72 91 73
f 73 92 116
f 73 116 138
f 73 138 170
f 73 170 197
f 73 197 226
f 73 226 225
f 73 225 224
f 73 224 223
f 73 223 195
f 73 195 167
f 73 167 134
f 73 134 111
f 73 111 133
f 73 133 165
f 73 165 193
f 73 193 221
f 73 221 247
f 73 247 274
f 73 274 304
f 73 304 328
f 73 328 343
f 73 343 351
f 73 351 357
f 73 357 359
f 73 359 358
f 73 358 353
f 73 353 344
f 73 344 333
f 73 333 310
f 73 310 281
f 73 281 255
f 73 255 229
f 73 229 227
f 73 227 198
f 73 198 171
f 73 171 141
f 73 141 117
f 73 117 94
f 73 94 74
f 73 91 93
f 73 93 92
f 74 94 95
f 74 95 96
f 74 96 75
f 76 97 77
f 77 98 99
f 77 99 100
f 77 100 78
f 77 97 98
f 78 100 101
f 78 101 79
f 79 101 80
f 80 101 81
f 81 101 113
f 81 113 87
f 82 90 102
f 82 102 103
f 82 103 104
f 82 104 105
f 82 105 106
f 82 106 107
f 82 107 108
f 82 108 83
f 83 108 109
f 83 109 84
f 85 110 111
f 85 111 86
f 86 111 112
f 87 113 88
f 88 113 89
f 89 113 90
f 90 113 102
f 92 114 115
f 92 115 116
f 92 93 114
f 94 117 118
f 94 118 95
f 97 119 120
f 97 120 121
f 97 121 98
f 98 121 122
f 98 122 99
f 99 122 123
f 99 123 100
f 100 123 124
f 100 124 125
f 100 125 101
f 101 125 127
f 101 127 113
f 102 126 129
f 102 129 103
f 102 113 127
f 102 127 128
f 102 128 126
f 103 129 104
f 104 129 130
f 104 130 131
f 104 131 105
f 105 131 106
f 110 132 111
f 111 132 133
f 111 134 135
f 111 135 136
f 111 136 112
f 115 137 138
f 115 138 116
f 117 139 140
f 117 140 118
f 117 141 142
f 117 142 139
f 119 143 120
f 120 143 144
f 120 144 121
f 121 144 145
f 121 145 146
f 121 146 122
f 122 146 178
f 122 178 147
f 122 147 148
f 122 148 123
f 123 148 124
f 124 148 149
f 124 149 150
f 124 150 125
f 125 151 154
f 125 154 127
f 125 150 149
f 125 149 152
f 125 152 181
f 125 181 151
f 126 153 129
f 126 128 153
f 127 154 184
f 127 184 155
f 127 155 156
f 127 156 128
f 128 156 155
f 128 155 153
f 129 157 130
f 129 153 158
f 129 158 159
f 129 159 157
f 130 160 161
f 130 161 162
f 130 162 131
f 130 157 163
f 130 163 160
f 132 164 133
f 133 164 166
f 133 166 165
f 134 167 168
f 134 168 135
f 137 169 170
f 137 170 138
f 141 171 172
f 141 172 173
f 141 173 142
f 144 174 175
f 144 175 145
f 144 176 174
f 145 175 146
f 146 175 174
f 146 174 177
f 146 177 205
f 146 205 178
f 147 178 179
f 147 179 148
f 148 179 149
f 149 179 152
f 151 180 154
f 151 181 180
f 152 179 181
f 153 155 182
f 153 182 158
f 154 180 183
f 154 183 184
f 155 184 182
f 157 159 163
f 158 182 159
f 159 182 185
f 159 185 186
f 159 186 187
f 159 187 188
f 159 188 163
f 160 189 161
f 160 163 189
f 161 189 190
f 161 190 191
f 161 191 162
f 163 188 192
f 163 192 189
f 165 166 194
f 165 194 193
f 167 195 168
f 168 195 196
f 169 196 226
f 169 226 197
f 169 197 170
f 171 198 172
f 172 198 200
f 172 200 199
f 174 201 177
f 174 176 201
f 176 202 203
f 176 203 204
f 176 204 201
f 177 201 204
f 177 204 203
f 177 203 205
f 178 205 179
f 179 205 206
f 179 206 181
f 180 181 207
f 180 207 208
f 180 208 183
f 181 206 207
f 182 184 185
f 183 208 184
f 184 208 185
f 185 208 209
f 185 209 210
f 185 210 186
f 186 210 211
f 186 211 187
f 187 212 188
f 187 211 210
f 187 210 213
f 187 213 214
f 187 214 215
f 187 215 216
f 187 216 217
f 187 217 218
f 187 218 219
f 187 219 212
f 188 212 192
f 189 192 220
f 189 220 190
f 190 220 191
f 191 220 219
f 192 212 220
f 193 194 221
f 194 222 221
f 195 223 196
f 196 223 224
f 196 224 225
f 196 225 226
f 198 227 200
f 199 200 228
f 200 227 229
f 200 229 230
f 200 230 231
f 200 231 228
f 202 232 203
f 203 233 234
f 203 234 205
f 203 232 235
f 203 235 233
f 205 234 206
f 206 234 236
f 206 236 237
f 206 237 238
f 206 238 207
f 207 238 239
f 207 239 240
f 207 240 208
f 208 240 209
f 209 240 241
f 209 241 242
f 209 242 210
f 210 242 213
f 212 219 220
f 213 242 243
f 213 243 244
f 213 244 245
f 213 245 246
f 213 246 215
f 213 215 214
f 221 222 248
f 221 248 249
f 221 249 250
f 221 250 251
f 221 251 247
f 222 252 248
f 228 253 254
f 228 231 253
f 229 255 230
f 230 255 256
f 230 256 253
f 230 253 231
f 232 257 258
f 232 258 233
f 232 233 235
f 233 237 234
f 233 258 259
f 233 259 260
f 233 260 261
f 233 261 262
f 233 262 237
f 234 237 236
f 237 262 238
f 238 262 263
f 238 263 239
f 239 263 241
f 239 241 240
f 241 264 242
f 241 263 291
f 241 291 265
f 241 265 264
f 242 264 266
f 242 266 243
f 243 266 267
f 243 267 244
f 244 267 268
f 244 268 245
f 245 268 269
f 245 269 299
f 245 299 270
f 245 270 271
f 245 271 272
f 245 272 246
f 246 272 273
f 247 251 275
f 247 275 274
f 248 252 249
f 253 276 277
f 253 277 278
f 253 278 254
f 253 256 276
f 254 279 280
f 254 278 279
f 255 281 256
f 256 281 282
f 256 282 283
f 256 283 276
f 257 280 258
f 258 280 279
f 258 279 259
f 259 284 285
f 259 285 260
f 259 279 286
f 259 286 287
f 259 287 284
f 260 285 288
f 260 288 261
f 261 288 289
f 261 289 262
f 262 289 290
f 262 290 263
f 263 290 316
f 263 316 291
f 264 265 292
f 264 292 293
f 264 293 294
f 264 294 266
f 265 291 295
f 265 295 296
f 265 296 292
f 266 294 297
f 266 297 298
f 266 298 267
f 267 298 268
f 268 298 269
f 269 298 297
f 269 297 299
f 270 299 300
f 270 300 271
f 271 300 301
f 271 301 302
f 271 302 303
f 271 303 272
f 272 303 273
f 274 275 302
f 274 302 305
f 274 305 304
f 276 283 306
f 276 306 277
f 277 306 307
f 277 307 332
f 277 332 308
f 277 308 278
f 278 308 309
f 278 309 279
f 279 309 286
f 281 310 311
f 281 311 282
f 282 312 283
f 282 311 312
f 283 313 306
f 283 312 313
f 284 287 314
f 284 314 285
f 285 314 288
f 286 309 308
f 286 308 287
f 287 308 332
f 287 332 314
f 288 314 289
f 289 314 332
f 289 332 315
f 289 315 316
f 289 316 290
f 291 316 295
f 292 296 323
f 292 323 317
f 292 317 318
f 292 318 293
f 293 318 294
f 294 318 319
f 294 319 320
f 294 320 297
f 295 316 296
f 296 316 321
f 296 321 322
f 296 322 323
f 297 320 299
f 299 320 324
f 299 324 301
f 299 301 300
f 301 324 325
f 301 325 326
f 301 326 302
f 302 326 327
f 302 327 305
f 304 305 328
f 305 327 329
f 305 329 328
f 306 330 307
f 306 313 330
f 307 330 331
f 307 331 332
f 310 333 334
f 310 334 311
f 311 334 335
f 311 335 312
f 312 335 336
f 312 336 337
f 312 337 313
f 313 337 322
f 313 322 330
f 315 332 331
f 315 331 316
f 316 331 321
f 317 323 336
f 317 336 338
f 317 338 339
f 317 339 318
f 318 339 340
f 318 340 319
f 319 340 341
f 319 341 320
f 320 341 324
f 321 331 322
f 322 331 330
f 322 337 336
f 322 336 323
f 324 341 325
f 325 341 342
f 325 342 326
f 326 342 329
f 326 329 327
f 328 329 343
f 329 342 343
f 333 344 334
f 334 345 346
f 334 346 335
f 334 344 345
f 335 346 336
f 336 346 347
f 336 347 338
f 338 347 348
f 338 348 349
f 338 349 339
f 339 349 340
f 340 349 350
f 340 350 341
f 341 350 342
f 342 351 343
f 342 350 352
f 342 352 351
f 344 353 354
f 344 354 345
f 345 354 347
f 345 347 346
f 347 354 355
f 347 355 348
f 348 355 356
f 348 356 349
f 349 356 352
f 349 352 350
f 351 352 357
f 352 356 357
f 353 358 355
f 353 355 354
f 355 358 359
f 355 359 356
f 356 359 357

