# https://github.com/mikedh/trimesh
v 0.00151554 0.00080000 -0.00087500
v 0.00087500 0.00080000 -0.00151554
v -0.00000000 0.00080000 -0.00175000
v -0.00087500 0.00080000 -0.00151554
v -0.00151554 0.00080000 -0.00087500
v 0.00091177 0.01324402 -0.00528023
v -0.00000000 0.01330000 -0.00530796
v 0.00000000 0.01330000 0.02661769
v -0.00721167 0.00374055 0.00373163
v -0.00701740 0.00315381 0.00389505
v -0.00724444 0.00385886 0.02661769
v -0.00675842 0.00254827 0.00395000
v -0.00746959 0.00512532 0.00274830
v -0.00742863 0.00477187 0.00311033
v -0.00733725 0.00424870 0.00348861
v -0.00724536 0.00386238 0.00368272
v -0.00743584 0.00677895 0.00077759
v -0.00750000 0.00580000 0.00194425
v -0.00692910 0.00867013 -0.00147623
v -0.00724444 0.00774114 -0.00036911
v -0.00547990 0.01092038 -0.00405443
v -0.00583211 0.01051545 -0.00367995
v -0.00530330 0.01110330 0.02661769
v -0.00613730 0.01011087 -0.00319324
v -0.00649519 0.00955000 -0.00252482
v -0.00375079 0.01229551 -0.00483145
v -0.00445697 0.01183203 -0.00463051
v -0.00499078 0.01139824 -0.00440128
v -0.00530726 0.01109872 -0.00419528
v -0.00364973 0.01235291 -0.00485717
v -0.00194114 0.01304444 0.02661769
v -0.00279281 0.01276079 -0.00504568
v -0.00011964 0.01329904 -0.00530749
v -0.00098374 0.01323480 -0.00527567
v -0.00189689 0.01305495 -0.00518754
v 0.00354771 0.01240877 -0.00488239
v 0.00194114 0.01304444 0.02661769
v 0.00375098 0.01229541 -0.00483140
v 0.00431673 0.01193324 -0.00467340
v 0.00270281 0.01279606 -0.00506245
v 0.00194136 0.01304316 -0.00518181
v 0.00181508 0.01307585 -0.00519774
v 0.00530330 0.01110330 0.02661769
v 0.00499895 0.01139093 -0.00439670
v 0.00445697 0.01183203 -0.00463052
v 0.00584230 0.01050282 -0.00366682
v 0.00545223 0.01094979 -0.00407858
v 0.00530647 0.01109951 -0.00419587
v 0.00649519 0.00955000 0.02661769
v 0.00724444 0.00774114 0.02661769
v 0.00724444 0.00774114 -0.00036911
v 0.00692910 0.00867013 -0.00147623
v 0.00649519 0.00955000 -0.00252482
v 0.00613730 0.01011087 -0.00319325
v 0.00741564 0.00468290 0.00318600
v 0.00746959 0.00512532 0.00274830
v 0.00750000 0.00580000 0.02661769
v 0.00750000 0.00580000 0.00194425
v 0.00743584 0.00677895 0.00077759
v 0.00675842 0.00254827 0.00395000
v 0.00700473 0.00312041 0.00390099
v 0.00724444 0.00385886 0.02661769
v 0.00649519 0.00205000 0.00395000
v 0.00720180 0.00370632 0.00374440
v 0.00724562 0.00386333 0.00368231
v 0.00733726 0.00424876 0.00348857
v -0.00649519 0.00205000 0.00395000
v -0.00530330 0.00049670 0.00395000
v -0.00375000 -0.00069519 0.00395000
v -0.00194114 -0.00144444 0.00395000
v -0.00194114 -0.00144444 0.02661769
v 0.00000000 -0.00170000 0.00395000
v 0.00000000 -0.00170000 0.02661769
v 0.00194114 -0.00144444 0.00395000
v 0.00375000 -0.00069519 0.00395000
v 0.00530330 0.00049670 0.00395000
v 0.00649519 0.00205000 0.02661769
v -0.00445697 0.00645000 -0.00463051
v -0.00247751 0.00645000 -0.00510195
v -0.00000000 0.00645000 -0.00530796
v 0.00247751 0.00645000 -0.00510195
v 0.00445697 0.00645000 -0.00463052
v 0.00194114 0.01304444 0.03361769
v 0.00530330 0.01110330 0.03361769
v 0.00649519 0.00955000 0.03361769
v 0.00750000 0.00580000 0.03361769
v 0.00724444 0.00385886 0.03361769
v 0.00649519 0.00205000 0.03361769
v 0.00194114 -0.00144444 0.03361769
v 0.00000000 -0.00170000 0.03361769
v -0.00649519 0.00205000 0.03361769
v -0.00724444 0.00385886 0.03361769
v -0.00750000 0.00580000 0.03361769
v -0.00724444 0.00774114 0.03361769
v -0.00530330 0.01110330 0.03361769
v 0.00000000 0.01330000 0.03361769
v -0.00356053 -0.00080096 0.03696802
v -0.00356053 -0.00080096 0.03803121
v -0.00374955 -0.00069553 0.03813942
v -0.00485761 0.00008537 0.03878686
v -0.00530181 0.00049481 0.03904127
v -0.00545113 0.01095098 0.04245057
v -0.00530196 0.01110413 0.04243116
v -0.00194114 0.01304444 0.04134889
v -0.00141938 0.01316446 0.04134889
v -0.00281153 0.01275337 0.04076404
v -0.00275187 0.01277690 0.04045822
v -0.00297956 0.01268271 0.04106458
v -0.00325757 0.01255561 0.04110747
v -0.00275187 0.01277690 0.04134889
v -0.00511890 0.01128098 0.04239349
v -0.00498620 0.01140238 0.04235770
v -0.00443689 0.01184577 0.04214836
v -0.00404526 0.01211519 0.04194418
v -0.00385938 0.01223075 0.04183134
v -0.00374565 0.01229779 0.04175672
v -0.00333497 0.01251756 0.04144288
v -0.00649519 0.00955000 0.04204330
v -0.00643501 0.00965235 0.04211279
v -0.00617542 0.01005538 0.04232389
v -0.00585592 0.01048556 0.04243701
v -0.00749902 0.00577395 0.03975150
v -0.00747465 0.00640536 0.03997720
v -0.00740416 0.00699514 0.04030855
v -0.00724552 0.00773712 0.04081237
v -0.00692910 0.00867013 0.04144588
v -0.00724462 0.00385989 0.03970543
v -0.00730281 0.00409151 0.03967194
v -0.00739192 0.00453406 0.03962341
v -0.00747539 0.00520587 0.03964398
v -0.00680534 0.00265038 0.03972009
v -0.00709419 0.00336831 0.03974359
v -0.00596842 0.00125849 0.03939653
v -0.00643154 0.00194353 0.03960364
v -0.00649383 0.00204955 0.03962719
v -0.00547702 0.00067594 0.03913867
v -0.00194114 -0.00144444 0.03696802
v -0.00419277 -0.00041898 0.03839718
v 0.00000000 -0.00170000 0.03696802
v 0.00356408 -0.00079904 0.03696802
v 0.00194114 -0.00144444 0.03696802
v 0.00356408 -0.00079904 0.03803121
v 0.00374943 -0.00069572 0.03813722
v 0.00439320 -0.00028113 0.03851125
v 0.00513199 0.00032740 0.03894155
v 0.00649339 0.00204826 0.03962618
v 0.00624467 0.00164667 0.03952484
v 0.00576423 0.00100098 0.03929113
v 0.00530306 0.00049364 0.03903900
v 0.00667954 0.00239120 0.03968783
v 0.00700741 0.00312900 0.03974615
v 0.00742644 0.00475774 0.03961769
v 0.00748942 0.00542066 0.03967397
v 0.00730373 0.00409543 0.03967194
v 0.00724662 0.00386733 0.03970499
v 0.00740352 0.00699911 0.04030855
v 0.00745163 0.00664621 0.04009463
v 0.00749411 0.00606914 0.03984076
v 0.00749906 0.00580356 0.03975838
v 0.00692910 0.00867013 0.04144336
v 0.00724444 0.00774114 0.04081246
v 0.00530199 0.01110377 0.04243169
v 0.00549627 0.01090281 0.04245439
v 0.00586488 0.01047425 0.04243483
v 0.00616668 0.01006796 0.04232745
v 0.00643294 0.00965581 0.04211279
v 0.00649576 0.00954901 0.04204026
v 0.00374526 0.01229790 0.04175894
v 0.00394890 0.01217625 0.04188891
v 0.00455511 0.01175803 0.04220213
v 0.00507019 0.01132563 0.04238207
v 0.00325557 0.01255657 0.04110858
v 0.00345201 0.01245759 0.04154491
v 0.00306743 0.01264404 0.04117909
v 0.00284754 0.01273878 0.04085436
v 0.00275231 0.01277681 0.04053744
v 0.00274813 0.01277838 0.04134889
v 0.00194114 0.01304444 0.04134889
v 0.00141938 0.01316446 0.04134889
v 0.00000000 0.01330000 0.04134889
v -0.00275106 0.00975285 0.04709837
v -0.00275118 0.01018741 0.04677397
v -0.00274978 0.00499266 0.04827974
v -0.00275005 0.00597158 0.04832439
v -0.00274846 0.00008651 0.04535537
v -0.00274882 0.00142223 0.04678294
v -0.00275174 0.01228764 0.04391566
v -0.00275184 0.01265397 0.04265290
v -0.00275135 0.01083105 0.04618299
v -0.00275143 0.01112357 0.04585878
v -0.00275031 0.00694709 0.04823146
v -0.00275056 0.00789997 0.04800279
v -0.00275104 0.00966344 0.04715883
v -0.00274826 -0.00068846 0.04391734
v -0.00274823 -0.00080074 0.04361328
v -0.00275158 0.01167830 0.04510712
v -0.00275171 0.01216572 0.04420469
v -0.00274902 0.00216295 0.04730411
v -0.00274927 0.00310156 0.04778393
v -0.00274952 0.00402966 0.04809840
v -0.00275185 0.01269083 0.04244145
v -0.00275186 0.01270809 0.04232640
v -0.00197460 -0.00080053 0.04431265
v -0.00103158 -0.00080028 0.04475801
v 0.00000000 -0.00080000 0.04491118
v 0.00275177 -0.00079926 0.04361328
v 0.00197716 -0.00079947 0.04431330
v 0.00103287 -0.00079972 0.04475869
v 0.00275067 0.00329085 0.04785948
v 0.00275095 0.00228081 0.04737363
v 0.00275096 0.00222814 0.04734254
v 0.00275137 0.00070560 0.04611617
v 0.00275145 0.00039139 0.04575643
v 0.00275158 -0.00007803 0.04510755
v 0.00274969 0.00694857 0.04823146
v 0.00274995 0.00597305 0.04832439
v 0.00275167 -0.00041695 0.04451555
v 0.00274944 0.00790144 0.04800279
v 0.00274919 0.00881289 0.04764288
v 0.00275022 0.00499414 0.04827974
v 0.00275048 0.00403114 0.04809840
v 0.00275065 0.00336644 0.04788812
v 0.00274820 0.01250449 0.04328463
v 0.00274841 0.01170434 0.04506841
v 0.00274865 0.01083519 0.04618021
v 0.00274875 0.01044074 0.04656020
v 0.00193861 0.00412018 0.04839657
v 0.00158567 0.00378366 0.04839657
v 0.00231809 0.00285230 0.04784407
v -0.00256224 0.00592205 0.04839657
v -0.00130088 0.00586197 0.04873494
v -0.00126565 0.00610704 0.04873494
v 0.00072269 0.00333876 0.04839657
v 0.00036692 0.00455039 0.04873494
v 0.00012380 0.00450354 0.04873494
v 0.00177016 0.00765648 0.04839657
v 0.00089873 0.00674256 0.04873494
v 0.00106087 0.00655544 0.04873494
v 0.00000000 0.00580000 0.04884888
v -0.00106087 0.00655544 0.04873494
v -0.00118467 0.00634102 0.04873494
v -0.00089873 0.00674256 0.04873494
v -0.00070411 0.00689561 0.04873494
v -0.00128910 0.00561465 0.04873494
v -0.00123073 0.00537404 0.04873494
v 0.00059678 0.00464242 0.04873494
v 0.00080507 0.00477628 0.04873494
v 0.00098426 0.00494713 0.04873494
v 0.00126565 0.00610704 0.04873494
v 0.00118467 0.00634102 0.04873494
v -0.00231809 0.00285230 0.04784407
v 0.00260638 0.00985560 0.04709421
v 0.00139782 0.01305258 0.04265125
v 0.00249186 0.01269814 0.04291616
v 0.00261936 0.01234285 0.04391404
v 0.00241402 0.01182992 0.04509889
v 0.00213532 0.01113378 0.04616979
v 0.00061741 -0.00066578 0.04509889
v 0.00000000 -0.00069519 0.04509889
v -0.00182990 -0.00043209 0.04509889
v -0.00222148 0.00451743 0.04839657
v -0.00249284 0.00640476 0.04839657
v -0.00177015 0.00765648 0.04839657
v -0.00208951 0.00728793 0.04839657
v -0.00233334 0.00686560 0.04839657
v -0.00274512 0.01265698 0.04265125
v -0.00261936 0.01234285 0.04391404
v -0.00241402 0.01182992 0.04509889
v -0.00213532 0.01113378 0.04616979
v -0.00139782 0.01305258 0.04265125
v 0.00233334 0.00686560 0.04839657
v 0.00208951 0.00728793 0.04839657
v 0.00249284 0.00640476 0.04839657
v 0.00130089 0.00586197 0.04873494
v 0.00128910 0.00561465 0.04873494
v 0.00256224 0.00592205 0.04839657
v 0.00253904 0.00543494 0.04839657
v 0.00242407 0.00496102 0.04839657
v 0.00112788 0.00514882 0.04873494
v 0.00222148 0.00451743 0.04839657
v 0.00123073 0.00537404 0.04873494
v 0.00117542 0.00352000 0.04839657
v 0.00171835 0.00246687 0.04784407
v -0.00112788 0.00514882 0.04873494
v -0.00098426 0.00494713 0.04873494
v -0.00193861 0.00412018 0.04839657
v -0.00158567 0.00378366 0.04839657
v -0.00242407 0.00496102 0.04839657
v -0.00253904 0.00543494 0.04839657
v 0.00048404 0.00700907 0.04873494
v 0.00070411 0.00689561 0.04873494
v 0.00095337 0.00818140 0.04839657
v 0.00138682 0.00795794 0.04839657
v 0.00139373 0.00928138 0.04784407
v 0.00202740 0.00895470 0.04784407
v 0.00179175 0.01027557 0.04709421
v 0.00258779 0.00851400 0.04784407
v -0.00260638 0.00985560 0.04709421
v -0.00202740 0.00895470 0.04784407
v -0.00258779 0.00851400 0.04784407
v -0.00138682 0.00795794 0.04839657
v 0.00263266 0.00069335 0.04616979
v 0.00220907 0.00151501 0.04709421
v 0.00135821 0.00117438 0.04709421
v 0.00105650 0.00220190 0.04784407
v 0.00035646 0.00206698 0.04784407
v 0.00024383 0.00324647 0.04839657
v 0.00000000 0.00323485 0.04839657
v 0.00000000 0.00449764 0.04873494
v -0.00012380 0.00450354 0.04873494
v -0.00179175 0.01027557 0.04709421
v -0.00139373 0.00928138 0.04784407
v -0.00095337 0.00818140 0.04839657
v -0.00048404 0.00700907 0.04873494
v 0.00161865 0.00028740 0.04616979
v 0.00045826 0.00100093 0.04709421
v 0.00000000 0.00205000 0.04784407
v -0.00024383 0.00324647 0.04839657
v -0.00036692 0.00455039 0.04873494
v 0.00182991 -0.00043209 0.04509889
v 0.00054613 0.00008069 0.04616979
v 0.00000000 0.00097910 0.04709421
v -0.00035646 0.00206698 0.04784407
v -0.00072269 0.00333876 0.04839657
v -0.00059678 0.00464242 0.04873494
v -0.00135820 0.00117438 0.04709421
v -0.00161865 0.00028740 0.04616979
v -0.00054613 0.00008069 0.04616979
v -0.00061741 -0.00066578 0.04509889
v -0.00263266 0.00069335 0.04616979
v -0.00220907 0.00151501 0.04709421
v -0.00171835 0.00246687 0.04784407
v 0.00000000 0.00005467 0.04616979
v -0.00045826 0.00100093 0.04709421
v -0.00105650 0.00220190 0.04784407
v -0.00117542 0.00352000 0.04839657
v -0.00080506 0.00477628 0.04873494
v 0.00000000 0.00710236 0.04873494
v 0.00024647 0.00707882 0.04873494
v 0.00000000 0.00836515 0.04839657
v 0.00048546 0.00831879 0.04839657
v 0.00000000 0.00955000 0.04784407
v 0.00070969 0.00948223 0.04784407
v 0.00000000 0.01062090 0.04709421
v 0.00091236 0.01053378 0.04709421
v 0.00000000 0.01154533 0.04616979
v 0.00108731 0.01144150 0.04616979
v 0.00000000 0.01229519 0.04509889
v 0.00122922 0.01217781 0.04509889
v 0.00000000 0.01284769 0.04391404
v 0.00133378 0.01272033 0.04391404
v 0.00000000 0.01318606 0.04265125
v -0.00024647 0.00707882 0.04873494
v -0.00048546 0.00831879 0.04839657
v -0.00070969 0.00948223 0.04784407
v -0.00091236 0.01053378 0.04709421
v -0.00108731 0.01144150 0.04616979
v -0.00122922 0.01217781 0.04509889
v -0.00133378 0.01272033 0.04391404
v 0.00517638 0.00645000 -0.00428790
v 0.00587994 0.00645000 -0.00361686
v 0.00631162 0.00645000 -0.00274569
v -0.00631162 0.00645000 -0.00274569
v -0.00587994 0.00645000 -0.00361686
v -0.00517637 0.00645000 -0.00428790
f 4 3 72
f 78 3 4
f 68 69 100
f 79 3 78
f 79 80 3
f 74 90 72
f 75 74 2
f 72 3 2
f 2 74 72
f 361 53 362
f 82 2 3
f 161 50 160
f 14 13 15
f 70 4 72
f 70 69 4
f 72 71 70
f 5 69 68
f 4 69 5
f 68 364 5
f 364 4 5
f 136 68 101
f 68 100 101
f 195 101 100
f 136 101 195
f 19 363 20
f 126 19 20
f 20 94 126
f 18 363 9
f 9 13 18
f 67 364 68
f 67 363 364
f 161 160 220
f 140 74 75
f 75 143 140
f 1 76 75
f 75 2 1
f 361 76 1
f 1 2 361
f 63 76 361
f 361 362 63
f 63 362 60
f 58 362 59
f 59 362 51
f 360 82 44
f 361 2 360
f 2 82 360
f 3 80 81
f 81 82 3
f 81 80 6
f 6 42 81
f 125 183 126
f 126 94 125
f 94 20 125
f 156 157 59
f 156 50 161
f 59 51 156
f 156 51 50
f 54 53 361
f 361 46 54
f 84 163 47
f 47 163 46
f 47 46 361
f 361 360 47
f 164 226 165
f 46 163 164
f 165 54 164
f 164 54 46
f 6 180 179
f 179 42 6
f 45 170 44
f 44 82 45
f 40 174 36
f 36 81 40
f 36 168 38
f 36 38 82
f 82 81 36
f 27 114 26
f 27 26 78
f 364 21 365
f 78 4 365
f 365 4 364
f 137 71 72
f 72 73 137
f 98 137 195
f 71 137 98
f 98 70 71
f 17 363 18
f 17 20 363
f 15 13 16
f 13 9 16
f 363 67 12
f 60 362 61
f 55 66 56
f 59 157 158
f 158 58 59
f 57 58 158
f 157 156 158
f 156 159 158
f 52 362 53
f 52 51 362
f 53 167 52
f 52 167 160
f 52 160 50
f 50 51 52
f 193 120 192
f 18 93 123
f 123 17 18
f 183 125 200
f 31 35 32
f 32 35 79
f 44 170 171
f 31 32 107
f 105 270 180
f 118 19 126
f 126 191 118
f 22 21 364
f 44 171 48
f 48 360 44
f 48 47 360
f 166 54 165
f 53 54 166
f 165 218 166
f 82 38 39
f 39 45 82
f 170 45 39
f 172 36 174
f 28 27 78
f 78 365 28
f 138 195 100
f 138 100 69
f 69 70 97
f 70 98 97
f 11 9 92
f 92 16 11
f 11 16 9
f 10 9 363
f 363 12 10
f 132 9 10
f 91 12 67
f 67 134 91
f 91 134 135
f 362 58 64
f 64 61 362
f 62 87 64
f 135 134 185
f 330 186 185
f 330 185 327
f 327 185 260
f 260 185 203
f 74 140 89
f 139 137 73
f 139 89 141
f 90 74 139
f 74 89 139
f 195 137 139
f 139 203 195
f 139 141 206
f 142 140 143
f 142 143 206
f 206 141 142
f 57 158 86
f 86 158 159
f 165 226 219
f 219 218 165
f 160 167 215
f 167 166 215
f 215 166 218
f 126 183 184
f 184 191 126
f 298 182 181
f 181 193 298
f 120 193 181
f 242 240 239
f 192 191 264
f 240 242 264
f 300 193 192
f 131 186 132
f 135 185 131
f 131 185 186
f 132 10 131
f 131 10 12
f 131 91 135
f 12 91 131
f 15 16 128
f 128 16 92
f 198 199 132
f 132 186 198
f 7 180 6
f 6 80 7
f 80 79 34
f 79 35 34
f 35 105 34
f 34 105 180
f 169 223 170
f 170 39 169
f 169 168 254
f 254 223 169
f 38 168 169
f 169 39 38
f 162 224 163
f 171 224 162
f 162 163 84
f 84 171 162
f 256 224 255
f 255 351 256
f 170 223 255
f 254 351 255
f 255 223 254
f 255 171 170
f 255 224 171
f 163 224 225
f 226 164 225
f 225 164 163
f 226 225 257
f 257 224 256
f 257 225 224
f 256 351 349
f 349 257 256
f 347 257 349
f 349 350 348
f 351 350 349
f 26 114 115
f 202 270 104
f 270 105 104
f 104 105 35
f 104 35 31
f 180 270 352
f 270 350 352
f 266 267 270
f 359 350 270
f 270 267 359
f 196 190 268
f 114 27 113
f 121 181 182
f 120 181 121
f 344 347 346
f 346 357 344
f 346 349 348
f 347 349 346
f 268 190 269
f 192 120 119
f 119 191 192
f 119 118 191
f 24 119 120
f 120 121 24
f 24 121 22
f 24 22 364
f 61 64 151
f 60 61 151
f 84 47 43
f 47 48 43
f 43 171 84
f 43 48 171
f 85 166 167
f 174 177 173
f 173 172 174
f 254 168 173
f 173 177 254
f 168 36 173
f 36 172 173
f 175 174 40
f 175 177 174
f 40 81 41
f 41 81 42
f 29 365 21
f 29 28 365
f 99 98 195
f 195 138 99
f 99 138 69
f 69 97 99
f 99 97 98
f 136 195 133
f 133 134 67
f 133 68 136
f 133 67 68
f 58 56 65
f 65 64 58
f 65 56 66
f 62 64 65
f 65 87 62
f 217 214 320
f 146 214 217
f 320 315 321
f 320 214 213
f 213 315 320
f 328 327 260
f 327 328 326
f 195 203 194
f 194 203 185
f 194 185 134
f 194 133 195
f 134 133 194
f 206 217 207
f 207 217 320
f 207 139 206
f 216 220 160
f 160 215 216
f 272 215 218
f 239 314 243
f 243 242 239
f 192 264 263
f 263 300 192
f 263 264 242
f 263 243 301
f 242 243 263
f 232 231 239
f 265 264 191
f 240 264 265
f 129 14 15
f 15 128 129
f 124 200 125
f 124 128 200
f 124 129 128
f 17 123 124
f 124 125 20
f 20 17 124
f 199 200 127
f 200 128 127
f 132 199 127
f 127 128 92
f 92 9 127
f 127 9 132
f 251 200 199
f 251 286 200
f 199 198 251
f 245 284 239
f 284 245 261
f 261 245 288
f 200 286 261
f 183 200 261
f 261 288 183
f 288 245 289
f 289 184 183
f 183 288 289
f 33 7 80
f 80 34 33
f 33 34 180
f 30 109 32
f 30 32 79
f 78 26 30
f 30 79 78
f 32 109 108
f 253 350 351
f 253 352 350
f 253 351 254
f 253 179 180
f 180 352 253
f 201 270 202
f 201 266 270
f 202 115 201
f 348 350 358
f 350 359 358
f 358 346 348
f 357 346 358
f 268 269 358
f 358 269 357
f 197 196 268
f 197 359 267
f 268 358 197
f 197 358 359
f 187 197 267
f 102 121 190
f 102 196 103
f 190 196 102
f 103 95 102
f 21 22 102
f 22 121 102
f 102 95 23
f 23 29 102
f 102 29 21
f 189 121 182
f 190 121 189
f 182 269 189
f 189 269 190
f 311 182 298
f 311 269 182
f 119 24 25
f 118 119 25
f 19 118 25
f 25 363 19
f 364 363 25
f 25 24 364
f 206 143 144
f 144 143 75
f 75 76 144
f 206 149 148
f 76 63 148
f 148 149 76
f 49 167 53
f 49 85 167
f 53 166 49
f 166 85 49
f 40 177 176
f 176 175 40
f 177 175 176
f 179 253 178
f 42 179 178
f 178 177 40
f 254 177 178
f 178 253 254
f 333 321 322
f 322 328 333
f 151 212 150
f 60 151 150
f 212 213 150
f 150 214 146
f 150 213 214
f 150 63 60
f 77 63 150
f 315 213 302
f 302 213 212
f 302 212 303
f 331 198 186
f 331 186 330
f 330 327 331
f 327 326 331
f 260 203 204
f 203 139 204
f 139 205 204
f 320 321 258
f 226 257 296
f 218 219 297
f 219 295 297
f 249 250 239
f 273 216 215
f 250 249 273
f 231 232 262
f 191 184 262
f 262 265 191
f 240 265 241
f 239 240 241
f 241 232 239
f 241 262 232
f 265 262 241
f 313 243 314
f 301 243 313
f 353 314 239
f 239 338 353
f 353 313 314
f 354 313 353
f 340 354 353
f 353 338 340
f 122 123 93
f 122 124 123
f 122 93 18
f 211 212 151
f 303 212 211
f 211 283 303
f 155 64 87
f 155 151 64
f 87 65 155
f 233 283 282
f 286 251 287
f 332 287 251
f 332 251 198
f 198 331 332
f 244 289 245
f 239 231 244
f 244 245 239
f 7 33 8
f 116 115 202
f 26 115 116
f 116 30 26
f 32 108 106
f 112 187 113
f 197 187 112
f 27 28 112
f 112 113 27
f 113 187 188
f 114 113 188
f 267 266 188
f 188 187 267
f 188 115 114
f 188 201 115
f 266 201 188
f 344 357 356
f 357 269 356
f 269 311 356
f 145 149 206
f 206 144 145
f 76 149 145
f 145 144 76
f 147 217 206
f 206 148 147
f 146 217 147
f 147 63 77
f 147 148 63
f 37 41 42
f 40 41 37
f 334 326 328
f 328 322 334
f 334 322 323
f 303 283 305
f 283 233 305
f 304 321 315
f 304 302 303
f 315 302 304
f 303 305 304
f 329 328 260
f 260 204 329
f 329 204 205
f 208 207 320
f 320 258 208
f 208 258 205
f 139 207 208
f 208 205 139
f 252 295 219
f 252 296 295
f 252 219 226
f 226 296 252
f 342 354 340
f 342 343 344
f 344 343 345
f 345 343 296
f 345 347 344
f 345 257 347
f 345 296 257
f 215 272 271
f 271 273 215
f 250 273 271
f 236 297 295
f 236 272 218
f 218 297 236
f 341 342 340
f 343 342 341
f 294 292 295
f 295 296 294
f 296 343 294
f 343 341 294
f 294 341 292
f 231 262 230
f 230 244 231
f 289 244 230
f 184 289 230
f 230 262 184
f 129 124 130
f 124 122 130
f 13 14 130
f 14 129 130
f 18 13 130
f 130 122 18
f 161 220 221
f 221 156 161
f 248 227 279
f 248 279 239
f 55 56 152
f 152 66 55
f 210 155 209
f 209 229 210
f 210 211 151
f 151 155 210
f 283 211 210
f 210 229 283
f 227 248 228
f 282 283 228
f 283 229 228
f 274 273 249
f 274 249 239
f 239 275 274
f 323 324 335
f 324 332 335
f 335 334 323
f 326 334 335
f 335 331 326
f 335 332 331
f 336 332 324
f 287 332 336
f 96 33 180
f 96 8 33
f 109 30 117
f 30 116 117
f 117 108 109
f 117 116 202
f 110 107 32
f 32 106 110
f 31 107 110
f 110 104 31
f 110 106 108
f 202 104 110
f 110 117 202
f 108 117 110
f 103 196 111
f 111 95 103
f 196 197 111
f 197 112 111
f 111 112 28
f 23 95 111
f 111 29 23
f 28 29 111
f 88 147 77
f 146 147 88
f 77 150 88
f 88 150 146
f 42 178 83
f 83 37 42
f 83 178 40
f 40 37 83
f 306 305 233
f 316 322 321
f 321 304 316
f 316 306 322
f 316 304 305
f 305 306 316
f 259 329 205
f 205 258 259
f 333 328 259
f 328 329 259
f 259 321 333
f 259 258 321
f 354 342 355
f 355 356 311
f 344 356 355
f 355 342 344
f 295 292 293
f 293 236 295
f 292 291 293
f 293 291 236
f 237 291 239
f 272 236 237
f 236 291 237
f 292 341 339
f 340 338 339
f 339 341 340
f 339 338 239
f 279 227 280
f 280 278 279
f 227 221 280
f 280 221 220
f 220 278 280
f 279 278 281
f 239 279 281
f 281 275 239
f 220 216 277
f 277 278 220
f 275 281 277
f 277 281 278
f 153 159 156
f 156 152 153
f 153 152 56
f 153 86 159
f 57 86 153
f 153 58 57
f 153 56 58
f 154 152 156
f 156 221 154
f 66 152 154
f 154 65 66
f 154 155 65
f 318 324 323
f 323 308 318
f 222 229 209
f 222 228 229
f 227 228 222
f 222 221 227
f 209 155 222
f 155 154 222
f 222 154 221
f 323 322 317
f 322 306 317
f 317 308 323
f 317 306 308
f 307 306 233
f 308 306 307
f 233 235 307
f 307 235 308
f 312 313 354
f 354 355 312
f 312 355 311
f 239 250 238
f 238 237 239
f 272 237 238
f 250 271 238
f 238 271 272
f 290 291 292
f 292 339 290
f 239 291 290
f 290 339 239
f 273 274 276
f 216 273 276
f 276 277 216
f 276 274 275
f 275 277 276
f 234 233 282
f 234 235 233
f 239 235 234
f 310 318 308
f 324 318 310
f 301 313 299
f 313 312 299
f 299 263 301
f 300 263 299
f 193 300 299
f 298 193 299
f 299 311 298
f 299 312 311
f 282 228 247
f 247 228 248
f 247 248 239
f 308 235 309
f 309 310 308
f 309 235 239
f 239 310 309
f 319 336 324
f 324 310 319
f 319 310 239
f 246 234 282
f 282 247 246
f 239 234 246
f 246 247 239
f 287 336 337
f 336 319 325
f 325 337 336
f 325 319 239
f 239 337 325
f 286 287 285
f 287 337 285
f 284 261 285
f 285 261 286
f 239 284 285
f 285 337 239
f 141 89 142
f 142 89 140

