# https://github.com/mikedh/trimesh
v -0.00304982 0.00931959 0.04316267
v -0.00304863 0.00877819 0.04695336
v -0.00304922 0.01094473 0.04532920
v -0.00304922 0.01148613 0.04424564
v -0.00304325 0.01202754 0.04316267
v -0.00304803 0.00715397 0.04316267
v -0.00304684 0.00395326 0.04537750
v -0.00304743 0.00444695 0.04587039
v -0.00304743 0.00444695 0.04749456
v -0.00304803 0.00661257 0.04749456
v -0.00304505 0.00931959 0.04695336
v -0.00304863 0.00986100 0.04641158
v -0.00304803 0.00769629 0.04749456
v -0.00299192 0.01094473 0.04587039
v -0.00304146 0.01148613 0.04478742
v -0.00303967 0.01202754 0.04370445
v -0.00287015 0.01260565 0.04316267
v -0.00303848 0.00661257 0.04316267
v -0.00304624 0.00395326 0.04532920
v -0.00304684 0.00395326 0.04749456
v -0.00304146 0.00552976 0.04803633
v -0.00304206 0.00823770 0.04749456
v -0.00298834 0.00877819 0.04749456
v -0.00296267 0.00986100 0.04695336
v -0.00298893 0.01040332 0.04641158
v -0.00304146 0.00607116 0.04803633
v -0.00281881 0.01090894 0.04637841
v -0.00282120 0.01136317 0.04587039
v -0.00290596 0.01153201 0.04537284
v -0.00298296 0.01202754 0.04424564
v -0.00287194 0.01249094 0.04370445
v -0.00286537 0.01261390 0.04316267
v -0.00286955 0.00603996 0.04316267
v -0.00290357 0.00395326 0.04476531
v -0.00291193 0.00395326 0.04478684
v -0.00304325 0.00395326 0.04754344
v -0.00303072 0.00498835 0.04803633
v -0.00287134 0.00552976 0.04847569
v -0.00303251 0.00661257 0.04803633
v -0.00300207 0.00715397 0.04803633
v -0.00281821 0.00877819 0.04787863
v -0.00286597 0.00930307 0.04751201
v -0.00293402 0.00769629 0.04803633
v -0.00284388 0.00819182 0.04805204
v -0.00279195 0.00986100 0.04731532
v -0.00279852 0.01035101 0.04691612
v -0.00287134 0.00607116 0.04847569
v -0.00274539 0.01124571 0.04617590
v -0.00274121 0.01070522 0.04671128
v -0.00281105 0.01186695 0.04522154
v -0.00285821 0.01203946 0.04476123
v -0.00281224 0.01239459 0.04424564
v -0.00262959 0.01281120 0.04335122
v -0.00245290 0.01292131 0.04316267
v -0.00286656 0.00603629 0.04316267
v -0.00243678 0.00395326 0.04438123
v -0.00290417 0.00395326 0.04807939
v -0.00300207 0.00444695 0.04803633
v -0.00286060 0.00498835 0.04845358
v -0.00243678 0.00552976 0.04872243
v -0.00243678 0.00607116 0.04872301
v -0.00286239 0.00661257 0.04845532
v -0.00283194 0.00715397 0.04841168
v -0.00274957 0.00911221 0.04779891
v -0.00276389 0.00769629 0.04834883
v -0.00271554 0.00798168 0.04831217
v -0.00271136 0.01013537 0.04722687
v -0.00243678 0.01131545 0.04625621
v -0.00267436 0.01174307 0.04558234
v -0.00243678 0.01105484 0.04652681
v -0.00243678 0.01078322 0.04678286
v -0.00274121 0.01232210 0.04456338
v -0.00244394 0.01276531 0.04371492
v -0.00226845 0.01286992 0.04354209
v -0.00244394 0.01292407 0.04316267
v -0.00259496 0.00580505 0.04316267
v -0.00189537 0.00395326 0.04437017
v -0.00243678 0.00576926 0.04316267
v -0.00189537 0.00574907 0.04316267
v -0.00287612 0.00395326 0.04814108
v -0.00283194 0.00444695 0.04841168
v -0.00243678 0.00498835 0.04868286
v -0.00207504 0.00552976 0.04882427
v -0.00207564 0.00607116 0.04882485
v -0.00199506 0.00498835 0.04880739
v -0.00243678 0.00661257 0.04868577
v -0.00243678 0.00715397 0.04860779
v -0.00243678 0.00923150 0.04787048
v -0.00243678 0.00950220 0.04771976
v -0.00243678 0.00877819 0.04809103
v -0.00243678 0.00810648 0.04835756
v -0.00243678 0.00837718 0.04825688
v -0.00243678 0.00769629 0.04848209
v -0.00189537 0.00769629 0.04864387
v -0.00243678 0.01020328 0.04727691
v -0.00243678 0.01047398 0.04705345
v -0.00243678 0.00986100 0.04750154
v -0.00189537 0.01115945 0.04662981
v -0.00189537 0.01140905 0.04635863
v -0.00189537 0.01167975 0.04603566
v -0.00247080 0.01161185 0.04586050
v -0.00231322 0.01181006 0.04567312
v -0.00247080 0.01195596 0.04537284
v -0.00243678 0.01223676 0.04494047
v -0.00189537 0.01088875 0.04688528
v -0.00189537 0.01059419 0.04715587
v -0.00243678 0.01237257 0.04466987
v -0.00243678 0.01257169 0.04424564
v -0.00209773 0.01281945 0.04390289
v -0.00190850 0.01292774 0.04371492
v -0.00189537 0.01308557 0.04316267
v -0.00155990 0.00395326 0.04436959
v -0.00007952 0.00574907 0.04316267
v 0.00169036 0.00395326 0.04436843
v -0.00027054 0.00395326 0.04436901
v -0.00281463 0.00395326 0.04826561
v -0.00277703 0.00400556 0.04835989
v -0.00243678 0.00444695 0.04860604
v -0.00180404 0.00552976 0.04889642
v -0.00180464 0.00607116 0.04889584
v -0.00199685 0.00661257 0.04880797
v -0.00185657 0.00447998 0.04877247
v -0.00165063 0.00468186 0.04885452
v -0.00172405 0.00498835 0.04887431
v -0.00185717 0.00712277 0.04877364
v -0.00194193 0.00879012 0.04824292
v -0.00194909 0.00937373 0.04795486
v -0.00216578 0.00959029 0.04776515
v -0.00215384 0.00849923 0.04830344
v -0.00194193 0.00828633 0.04844077
v -0.00148170 0.00728152 0.04882427
v -0.00132232 0.00765867 0.04877247
v -0.00135336 0.00823770 0.04859964
v -0.00189537 0.01032349 0.04736537
v -0.00194909 0.00986100 0.04766215
v -0.00159512 0.01120625 0.04667404
v -0.00157184 0.01065659 0.04720883
v -0.00138321 0.01149531 0.04642206
v -0.00117190 0.01177977 0.04617067
v -0.00153304 0.01173206 0.04610724
v -0.00189537 0.01187704 0.04576448
v -0.00192641 0.01217069 0.04531639
v -0.00212757 0.01228723 0.04503474
v -0.00192641 0.01244598 0.04482757
v -0.00190850 0.01273411 0.04423575
v -0.00173659 0.01287268 0.04404837
v -0.00135336 0.01306079 0.04370445
v -0.00135336 0.01320945 0.04316267
v 0.00189510 0.00574999 0.04316267
v 0.00189510 0.00395326 0.04436843
v -0.00267555 0.00395326 0.04838898
v -0.00247737 0.00395326 0.04846987
v -0.00189179 0.00395326 0.04865201
v -0.00135336 0.00552976 0.04899535
v -0.00135336 0.00607116 0.04899535
v -0.00172584 0.00661257 0.04887373
v -0.00165182 0.00692089 0.04885511
v -0.00147872 0.00432123 0.04882368
v -0.00135336 0.00498835 0.04895520
v -0.00132053 0.00447998 0.04888188
v -0.00146379 0.00897915 0.04827783
v -0.00179270 0.00861852 0.04835290
v -0.00180464 0.00968022 0.04782335
v -0.00131158 0.00927004 0.04816552
v -0.00112056 0.00745312 0.04885511
v -0.00132232 0.00712277 0.04888246
v -0.00081195 0.00779632 0.04880739
v -0.00081195 0.00823770 0.04868111
v -0.00081195 0.00877819 0.04847336
v -0.00131158 0.00879012 0.04838782
v -0.00137604 0.01044645 0.04741018
v -0.00135336 0.01003810 0.04770347
v -0.00140291 0.01095849 0.04696675
v -0.00123398 0.01125856 0.04672525
v -0.00121070 0.01071165 0.04725596
v -0.00081195 0.01156505 0.04647211
v -0.00081195 0.01180455 0.04620151
v -0.00081195 0.01204222 0.04587039
v -0.00081195 0.01226520 0.04554975
v -0.00135336 0.01221932 0.04548108
v -0.00135276 0.01192384 0.04590414
v -0.00176643 0.01234045 0.04512727
v -0.00135336 0.01261023 0.04478742
v -0.00135336 0.01291305 0.04413973
v -0.00135336 0.01278917 0.04441091
v -0.00081195 0.01313420 0.04370445
v -0.00081195 0.01328103 0.04316267
v 0.00243651 0.00577109 0.04316267
v 0.00243651 0.00395326 0.04437949
v 0.00222222 0.00395326 0.04437483
v -0.00184642 0.00395326 0.04866191
v -0.00081195 0.00552976 0.04906868
v -0.00081195 0.00498835 0.04903551
v -0.00081195 0.00607116 0.04906868
v -0.00081195 0.00661257 0.04903609
v -0.00135336 0.00661257 0.04895520
v -0.00132471 0.00395326 0.04877480
v -0.00131038 0.00395326 0.04877771
v -0.00111758 0.00414963 0.04885452
v -0.00081195 0.00444695 0.04895520
v -0.00110265 0.00905715 0.04831042
v -0.00135336 0.00976648 0.04788154
v -0.00081195 0.00936639 0.04819753
v -0.00081195 0.00715397 0.04895520
v -0.00081195 0.00752561 0.04887431
v -0.00027054 0.00787707 0.04882485
v -0.00027054 0.00823770 0.04872301
v -0.00027054 0.00760637 0.04889642
v -0.00027054 0.00877819 0.04851875
v -0.00081195 0.00909569 0.04832846
v -0.00081195 0.00983439 0.04792693
v -0.00081195 0.01010509 0.04774770
v -0.00081195 0.01040332 0.04754053
v -0.00081195 0.01101905 0.04703192
v -0.00081195 0.01129434 0.04676132
v -0.00081195 0.01074835 0.04728797
v -0.00027054 0.01159258 0.04650353
v -0.00027054 0.01183024 0.04623293
v -0.00023652 0.01213215 0.04581918
v -0.00003356 0.01230191 0.04560445
v -0.00023652 0.01242762 0.04537110
v -0.00081195 0.01243221 0.04527915
v -0.00135336 0.01239000 0.04521048
v -0.00076778 0.01272127 0.04473505
v -0.00091820 0.01282404 0.04448307
v -0.00076778 0.01292865 0.04427998
v -0.00027054 0.01299014 0.04424564
v -0.00027054 0.01318467 0.04370445
v -0.00031829 0.01332782 0.04316267
v -0.00080359 0.01328194 0.04316267
v 0.00286630 0.00603813 0.04316267
v 0.00258515 0.00395326 0.04443884
v -0.00027054 0.00552976 0.04910650
v -0.00027054 0.00498835 0.04906868
v -0.00027054 0.00444695 0.04899593
v -0.00027054 0.00607116 0.04910650
v -0.00027054 0.00661257 0.04906868
v -0.00027054 0.00715397 0.04899535
v -0.00081195 0.00395326 0.04884405
v -0.00081195 0.00407530 0.04887373
v -0.00027054 0.00941319 0.04822139
v 0.00027027 0.00787707 0.04882485
v 0.00027027 0.00823770 0.04872301
v 0.00027027 0.00760637 0.04889642
v 0.00027027 0.00877819 0.04851875
v -0.00027054 0.00914249 0.04835057
v -0.00031949 0.00991514 0.04791995
v -0.00053319 0.01013170 0.04776515
v -0.00031949 0.01035836 0.04761967
v -0.00027054 0.01104934 0.04705927
v -0.00027054 0.01132187 0.04678868
v -0.00027054 0.01077863 0.04731299
v 0.00027027 0.01159258 0.04650353
v 0.00027027 0.01183024 0.04623293
v 0.00003389 0.01230191 0.04560445
v -0.00027054 0.01272861 0.04481943
v -0.00027054 0.01285524 0.04454883
v -0.00055766 0.01284148 0.04451973
v 0.00027027 0.01299014 0.04424564
v 0.00027027 0.01318467 0.04370445
v 0.00031803 0.01332782 0.04316267
v 0.00287048 0.00604547 0.04316267
v 0.00290450 0.00395326 0.04476531
v 0.00027027 0.00552976 0.04910650
v 0.00027027 0.00498835 0.04906868
v -0.00027054 0.00399455 0.04889642
v 0.00027027 0.00444695 0.04899593
v 0.00027027 0.00607116 0.04910650
v 0.00027027 0.00661257 0.04906868
v 0.00027027 0.00715397 0.04899535
v -0.00038634 0.00395326 0.04887722
v 0.00027027 0.00941319 0.04822139
v 0.00081228 0.00779632 0.04880739
v 0.00081228 0.00823770 0.04868111
v 0.00081228 0.00752561 0.04887431
v 0.00081228 0.00877819 0.04847336
v 0.00081228 0.00909569 0.04832846
v 0.00027027 0.00914249 0.04835057
v 0.00031982 0.00991514 0.04791995
v -0.00017205 0.01014822 0.04777679
v 0.00027027 0.01104934 0.04705927
v 0.00027027 0.01132187 0.04678868
v 0.00027027 0.01077863 0.04731299
v 0.00081228 0.01156505 0.04647211
v 0.00081228 0.01180455 0.04620151
v 0.00081228 0.01129434 0.04676132
v 0.00023685 0.01213215 0.04581918
v 0.00081228 0.01226520 0.04554975
v 0.00023685 0.01242762 0.04537110
v 0.00027027 0.01272861 0.04481943
v 0.00081228 0.01204222 0.04587039
v 0.00027027 0.01285524 0.04454883
v 0.00081228 0.01313420 0.04370445
v 0.00076751 0.01292865 0.04427998
v 0.00080333 0.01328194 0.04316267
v 0.00303821 0.00661257 0.04316267
v 0.00304717 0.00395326 0.04532920
v 0.00081228 0.00552976 0.04906868
v 0.00081228 0.00498835 0.04903551
v -0.00027054 0.00395326 0.04888595
v 0.00027027 0.00399455 0.04889642
v 0.00081228 0.00407530 0.04887373
v 0.00081228 0.00444695 0.04895520
v 0.00081228 0.00607116 0.04906868
v 0.00081228 0.00661257 0.04903609
v 0.00081228 0.00715397 0.04895520
v 0.00081228 0.00983439 0.04792693
v 0.00081228 0.00936639 0.04819753
v 0.00112089 0.00745312 0.04885511
v 0.00132205 0.00765867 0.04877247
v 0.00135369 0.00823770 0.04859964
v 0.00131131 0.00879012 0.04838782
v 0.00110298 0.00905715 0.04831042
v 0.00053292 0.01013170 0.04776515
v 0.00017178 0.01014822 0.04777679
v 0.00081228 0.01074835 0.04728797
v 0.00081228 0.01101905 0.04703192
v 0.00031982 0.01035836 0.04761967
v 0.00117163 0.01177977 0.04617067
v 0.00123371 0.01125856 0.04672525
v 0.00135369 0.01239000 0.04521048
v 0.00081228 0.01243221 0.04527915
v 0.00135369 0.01221932 0.04548108
v 0.00076751 0.01272127 0.04473505
v 0.00055739 0.01284148 0.04451973
v 0.00135369 0.01291305 0.04413973
v 0.00135369 0.01306263 0.04370445
v 0.00135369 0.01321312 0.04316267
v 0.00081228 0.01328103 0.04316267
v 0.00091853 0.01282404 0.04448307
v 0.00304717 0.00715397 0.04316267
v 0.00304836 0.00395326 0.04587039
v 0.00135369 0.00552976 0.04899535
v 0.00135369 0.00498835 0.04895520
v 0.00027027 0.00395326 0.04888595
v 0.00081228 0.00395326 0.04884405
v 0.00111791 0.00414963 0.04885452
v 0.00132026 0.00447998 0.04888188
v 0.00135369 0.00607116 0.04899535
v 0.00135369 0.00661257 0.04895520
v 0.00132205 0.00712277 0.04888246
v 0.00135369 0.00976648 0.04788154
v 0.00135369 0.01003810 0.04770347
v 0.00081228 0.01010509 0.04774770
v 0.00131131 0.00927004 0.04816552
v 0.00148203 0.00728152 0.04882427
v 0.00189510 0.00769629 0.04864387
v 0.00194226 0.00828633 0.04844077
v 0.00179303 0.00861852 0.04835290
v 0.00146412 0.00897915 0.04827783
v 0.00081228 0.01040332 0.04754053
v 0.00121103 0.01071165 0.04725596
v 0.00138354 0.01149531 0.04642206
v 0.00189510 0.01140905 0.04635863
v 0.00153277 0.01173206 0.04610724
v 0.00135309 0.01192384 0.04590414
v 0.00140264 0.01095849 0.04696675
v 0.00159485 0.01120625 0.04667404
v 0.00176617 0.01234045 0.04512727
v 0.00135369 0.01261023 0.04478742
v 0.00189510 0.01187704 0.04576448
v 0.00192614 0.01217069 0.04531639
v 0.00135369 0.01278917 0.04441091
v 0.00173751 0.01287268 0.04404837
v 0.00189510 0.01310025 0.04316267
v 0.00190883 0.01293324 0.04372132
v 0.00304776 0.00931959 0.04316267
v 0.00304836 0.00395326 0.04641158
v 0.00180377 0.00552976 0.04889642
v 0.00172438 0.00498835 0.04887431
v 0.00165036 0.00468186 0.04885452
v 0.00094420 0.00395326 0.04882776
v 0.00147905 0.00432123 0.04882368
v 0.00131012 0.00395326 0.04877771
v 0.00180497 0.00607116 0.04889584
v 0.00172617 0.00661257 0.04887373
v 0.00165156 0.00692089 0.04885511
v 0.00180497 0.00968022 0.04782335
v 0.00189510 0.01032349 0.04736537
v 0.00137637 0.01044645 0.04741018
v 0.00194942 0.00937373 0.04795486
v 0.00185750 0.00712277 0.04877364
v 0.00243651 0.00715397 0.04860662
v 0.00243651 0.00769629 0.04848151
v 0.00271587 0.00798168 0.04831217
v 0.00243651 0.00810648 0.04835756
v 0.00215357 0.00849923 0.04830344
v 0.00194226 0.00879012 0.04824292
v 0.00157157 0.01065659 0.04720883
v 0.00189510 0.01115945 0.04662981
v 0.00243651 0.01131086 0.04625097
v 0.00189510 0.01167975 0.04603566
v 0.00212731 0.01228723 0.04503474
v 0.00192614 0.01244598 0.04482757
v 0.00230877 0.01181006 0.04567312
v 0.00246815 0.01195504 0.04537110
v 0.00209865 0.01281945 0.04391278
v 0.00190883 0.01273411 0.04423575
v 0.00243651 0.01256527 0.04424564
v 0.00229444 0.01287727 0.04355198
v 0.00245979 0.01293141 0.04317722
v 0.00245920 0.01293508 0.04316267
v 0.00304418 0.01094473 0.04316267
v 0.00304597 0.01148613 0.04424564
v 0.00304657 0.01040332 0.04587039
v 0.00304717 0.00823770 0.04695336
v 0.00304776 0.00607116 0.04749456
v 0.00304776 0.00395326 0.04749456
v 0.00207478 0.00552976 0.04882427
v 0.00207537 0.00607116 0.04882485
v 0.00199479 0.00498835 0.04880739
v 0.00185690 0.00447998 0.04877306
v 0.00133101 0.00395326 0.04877364
v 0.00189212 0.00395326 0.04865318
v 0.00199658 0.00661257 0.04880797
v 0.00216611 0.00959029 0.04776515
v 0.00194942 0.00986100 0.04766215
v 0.00243651 0.01020328 0.04727633
v 0.00189510 0.01059419 0.04715704
v 0.00243651 0.00923609 0.04787456
v 0.00243651 0.00661257 0.04868518
v 0.00283108 0.00715397 0.04841110
v 0.00276303 0.00769629 0.04834767
v 0.00282750 0.00877819 0.04788561
v 0.00275766 0.00911771 0.04780472
v 0.00243651 0.00877819 0.04809802
v 0.00243651 0.00837718 0.04825979
v 0.00189510 0.01088875 0.04688586
v 0.00243651 0.01078781 0.04678635
v 0.00243651 0.01105851 0.04652215
v 0.00273736 0.01123929 0.04616950
v 0.00266991 0.01174032 0.04558001
v 0.00246815 0.01160634 0.04586050
v 0.00243651 0.01236981 0.04466347
v 0.00243651 0.01223584 0.04493407
v 0.00245979 0.01276807 0.04372132
v 0.00273318 0.01231751 0.04455523
v 0.00265558 0.01281945 0.04336751
v 0.00270692 0.01284698 0.04316267
v 0.00304060 0.01202754 0.04316267
v 0.00303881 0.01148613 0.04478742
v 0.00304597 0.01094473 0.04532920
v 0.00299046 0.01040332 0.04641158
v 0.00304657 0.00986100 0.04641158
v 0.00304717 0.00769629 0.04749456
v 0.00304239 0.00552976 0.04803633
v 0.00303165 0.00498835 0.04803633
v 0.00300299 0.00444695 0.04803633
v 0.00293912 0.00395326 0.04803633
v 0.00243651 0.00552976 0.04872243
v 0.00243651 0.00498835 0.04868344
v 0.00243651 0.00607116 0.04872243
v 0.00243651 0.00444695 0.04860720
v 0.00194405 0.00395326 0.04863921
v 0.00243651 0.00950679 0.04771453
v 0.00270990 0.01013445 0.04722570
v 0.00243651 0.01047398 0.04705753
v 0.00286212 0.00661257 0.04845474
v 0.00300120 0.00715397 0.04803633
v 0.00293315 0.00769629 0.04803633
v 0.00284600 0.00819182 0.04805437
v 0.00299702 0.00877819 0.04749456
v 0.00286570 0.00930674 0.04750794
v 0.00278452 0.00986100 0.04730950
v 0.00274632 0.01070981 0.04671535
v 0.00281437 0.01135674 0.04587039
v 0.00281078 0.01186511 0.04521921
v 0.00281616 0.01091169 0.04637434
v 0.00280064 0.01238817 0.04424564
v 0.00285555 0.01263409 0.04316267
v 0.00286570 0.01249461 0.04370445
v 0.00303224 0.01202754 0.04370445
v 0.00286869 0.01261023 0.04316267
v 0.00298389 0.01094473 0.04587039
v 0.00296957 0.01202754 0.04424564
v 0.00290450 0.01153018 0.04537110
v 0.00280004 0.01035010 0.04691903
v 0.00295405 0.00986100 0.04695336
v 0.00303702 0.00931959 0.04695336
v 0.00304418 0.00823770 0.04749456
v 0.00304120 0.00607116 0.04803633
v 0.00287227 0.00552976 0.04847569
v 0.00286152 0.00498835 0.04845416
v 0.00283227 0.00444695 0.04841226
v 0.00276900 0.00395326 0.04835465
v 0.00287107 0.00607116 0.04847511
v 0.00243651 0.00395326 0.04849198
v 0.00303165 0.00661257 0.04803633
v 0.00285257 0.01203855 0.04475658
v 0.00286391 0.01261941 0.04316267
f 1 2 3
f 1 3 4
f 1 4 5
f 1 5 17
f 1 17 32
f 1 32 54
f 1 54 75
f 1 75 111
f 1 111 148
f 1 148 187
f 1 187 230
f 1 230 229
f 1 229 261
f 1 261 295
f 1 295 329
f 1 329 328
f 1 328 365
f 1 365 402
f 1 402 439
f 1 439 470
f 1 470 490
f 1 490 473
f 1 473 440
f 1 440 403
f 1 403 367
f 1 367 331
f 1 331 296
f 1 296 262
f 1 262 231
f 1 231 188
f 1 188 149
f 1 149 113
f 1 113 79
f 1 79 78
f 1 78 76
f 1 76 55
f 1 55 33
f 1 33 18
f 1 18 6
f 1 6 7
f 1 7 8
f 1 8 9
f 1 9 10
f 1 10 2
f 2 11 12
f 2 12 3
f 2 10 13
f 2 13 11
f 3 14 15
f 3 15 4
f 3 12 14
f 4 15 16
f 4 16 5
f 5 16 17
f 6 18 19
f 6 19 7
f 7 19 35
f 7 35 34
f 7 34 56
f 7 56 77
f 7 77 112
f 7 112 115
f 7 115 114
f 7 114 150
f 7 150 190
f 7 190 189
f 7 189 232
f 7 232 263
f 7 263 297
f 7 297 332
f 7 332 368
f 7 368 408
f 7 408 449
f 7 449 485
f 7 485 487
f 7 487 454
f 7 454 414
f 7 414 413
f 7 413 374
f 7 374 372
f 7 372 336
f 7 336 335
f 7 335 300
f 7 300 271
f 7 271 239
f 7 239 198
f 7 198 197
f 7 197 191
f 7 191 153
f 7 153 152
f 7 152 151
f 7 151 116
f 7 116 80
f 7 80 57
f 7 57 36
f 7 36 20
f 7 20 9
f 7 9 8
f 9 20 21
f 9 21 10
f 10 21 26
f 10 26 13
f 11 13 22
f 11 22 23
f 11 23 24
f 11 24 25
f 11 25 12
f 12 25 14
f 13 26 22
f 14 25 27
f 14 27 28
f 14 28 29
f 14 29 30
f 14 30 15
f 15 30 16
f 16 30 31
f 16 31 17
f 17 31 32
f 18 33 34
f 18 34 35
f 18 35 19
f 20 36 37
f 20 37 21
f 21 37 38
f 21 38 47
f 21 47 26
f 22 26 39
f 22 39 40
f 22 40 23
f 23 41 42
f 23 42 24
f 23 40 43
f 23 43 44
f 23 44 41
f 24 45 46
f 24 46 27
f 24 27 25
f 24 42 45
f 26 47 39
f 27 48 28
f 27 46 49
f 27 49 48
f 28 48 50
f 28 50 29
f 29 50 51
f 29 51 30
f 30 51 52
f 30 52 31
f 31 52 53
f 31 53 32
f 32 53 54
f 33 55 34
f 34 55 56
f 36 57 58
f 36 58 37
f 37 59 38
f 37 58 59
f 38 60 61
f 38 61 47
f 38 59 60
f 39 47 62
f 39 62 40
f 40 62 63
f 40 63 43
f 41 64 42
f 41 44 65
f 41 65 66
f 41 66 64
f 42 64 45
f 43 63 44
f 44 63 65
f 45 67 46
f 45 64 67
f 46 67 49
f 47 61 62
f 48 68 69
f 48 69 50
f 48 49 70
f 48 70 68
f 49 67 71
f 49 71 70
f 50 69 72
f 50 72 52
f 50 52 51
f 52 72 53
f 53 72 73
f 53 73 54
f 54 74 75
f 54 73 74
f 55 76 56
f 56 76 78
f 56 78 79
f 56 79 77
f 57 80 81
f 57 81 58
f 58 81 59
f 59 82 60
f 59 81 82
f 60 83 84
f 60 84 61
f 60 82 85
f 60 85 83
f 61 84 86
f 61 86 62
f 62 86 63
f 63 87 65
f 63 86 87
f 64 88 89
f 64 89 67
f 64 66 90
f 64 90 88
f 65 87 66
f 66 91 92
f 66 92 90
f 66 87 93
f 66 93 94
f 66 94 91
f 67 95 96
f 67 96 71
f 67 89 97
f 67 97 95
f 68 70 98
f 68 98 99
f 68 99 100
f 68 100 101
f 68 101 69
f 69 101 102
f 69 102 103
f 69 103 104
f 69 104 72
f 70 105 98
f 70 71 105
f 71 96 106
f 71 106 105
f 72 104 107
f 72 107 108
f 72 108 73
f 73 109 74
f 73 108 109
f 74 110 75
f 74 109 110
f 75 110 111
f 77 79 112
f 79 113 150
f 79 150 114
f 79 114 115
f 79 115 112
f 80 116 81
f 81 116 117
f 81 117 118
f 81 118 82
f 82 118 85
f 83 119 84
f 83 85 119
f 84 120 121
f 84 121 86
f 84 119 120
f 85 118 122
f 85 122 123
f 85 123 124
f 85 124 119
f 86 121 125
f 86 125 87
f 87 94 93
f 87 125 94
f 88 90 126
f 88 126 127
f 88 127 128
f 88 128 89
f 89 128 97
f 90 92 129
f 90 129 126
f 91 130 129
f 91 129 92
f 91 94 130
f 94 125 131
f 94 131 132
f 94 132 133
f 94 133 130
f 95 134 106
f 95 106 96
f 95 97 135
f 95 135 134
f 97 128 135
f 98 136 99
f 98 105 137
f 98 137 136
f 99 136 138
f 99 138 139
f 99 139 140
f 99 140 100
f 100 140 141
f 100 141 102
f 100 102 101
f 102 141 142
f 102 142 103
f 103 142 143
f 103 143 104
f 104 143 107
f 105 106 137
f 106 134 137
f 107 143 144
f 107 144 145
f 107 145 108
f 108 145 146
f 108 146 109
f 109 146 110
f 110 146 147
f 110 147 111
f 111 147 148
f 113 149 150
f 116 151 117
f 117 151 118
f 118 151 152
f 118 152 153
f 118 153 122
f 119 154 155
f 119 155 120
f 119 124 154
f 120 155 156
f 120 156 121
f 121 156 157
f 121 157 125
f 122 153 158
f 122 158 123
f 123 159 124
f 123 158 160
f 123 160 159
f 124 159 154
f 125 157 131
f 126 161 127
f 126 129 162
f 126 162 161
f 127 163 128
f 127 161 164
f 127 164 163
f 128 163 135
f 129 130 162
f 130 133 162
f 131 165 132
f 131 157 166
f 131 166 165
f 132 165 167
f 132 167 168
f 132 168 133
f 133 168 169
f 133 169 170
f 133 170 162
f 134 171 137
f 134 135 163
f 134 163 172
f 134 172 171
f 136 137 173
f 136 173 174
f 136 174 138
f 137 171 175
f 137 175 173
f 138 174 139
f 139 174 176
f 139 176 177
f 139 177 178
f 139 178 179
f 139 179 180
f 139 180 181
f 139 181 140
f 140 181 141
f 141 181 180
f 141 180 142
f 142 180 182
f 142 182 143
f 143 182 144
f 144 182 183
f 144 183 146
f 144 146 145
f 146 184 147
f 146 183 185
f 146 185 184
f 147 186 148
f 147 184 186
f 148 186 187
f 149 188 189
f 149 189 190
f 149 190 150
f 153 191 158
f 154 192 194
f 154 194 155
f 154 159 193
f 154 193 192
f 155 194 195
f 155 195 196
f 155 196 156
f 156 196 157
f 157 196 166
f 158 191 197
f 158 197 198
f 158 198 199
f 158 199 160
f 159 160 200
f 159 200 193
f 160 199 200
f 161 162 170
f 161 170 201
f 161 201 164
f 163 164 202
f 163 202 172
f 164 201 203
f 164 203 202
f 165 166 204
f 165 204 205
f 165 205 167
f 166 196 204
f 167 206 207
f 167 207 168
f 167 205 208
f 167 208 206
f 168 207 209
f 168 209 169
f 169 209 210
f 169 210 201
f 169 201 170
f 171 172 175
f 172 202 211
f 172 211 212
f 172 212 213
f 172 213 175
f 173 175 174
f 174 175 214
f 174 214 215
f 174 215 176
f 175 213 216
f 175 216 214
f 176 217 177
f 176 215 217
f 177 217 218
f 177 218 219
f 177 219 178
f 178 219 220
f 178 220 179
f 179 220 221
f 179 221 222
f 179 222 223
f 179 223 180
f 180 223 182
f 182 223 183
f 183 223 222
f 183 222 224
f 183 224 225
f 183 225 185
f 184 185 225
f 184 225 226
f 184 226 186
f 186 226 227
f 186 227 228
f 186 228 229
f 186 229 230
f 186 230 187
f 188 231 232
f 188 232 189
f 192 233 236
f 192 236 194
f 192 193 233
f 193 234 233
f 193 200 235
f 193 235 234
f 194 236 195
f 195 236 237
f 195 237 238
f 195 238 204
f 195 204 196
f 198 239 199
f 199 240 200
f 199 239 240
f 200 240 235
f 201 210 203
f 202 203 211
f 203 241 211
f 203 210 241
f 204 238 205
f 205 238 208
f 206 208 244
f 206 244 242
f 206 242 243
f 206 243 207
f 207 243 245
f 207 245 209
f 208 238 270
f 208 270 244
f 209 245 278
f 209 278 246
f 209 246 210
f 210 246 241
f 211 241 247
f 211 247 248
f 211 248 212
f 212 248 213
f 213 248 249
f 213 249 216
f 214 250 215
f 214 216 250
f 215 250 251
f 215 251 217
f 216 249 252
f 216 252 250
f 217 253 254
f 217 254 218
f 217 251 282
f 217 282 253
f 218 254 255
f 218 255 220
f 218 220 219
f 220 255 290
f 220 290 256
f 220 256 221
f 221 256 222
f 222 256 224
f 224 256 257
f 224 257 258
f 224 258 225
f 225 258 226
f 226 258 257
f 226 257 227
f 227 259 260
f 227 260 228
f 227 257 292
f 227 292 259
f 228 260 261
f 228 261 229
f 231 262 263
f 231 263 232
f 233 264 268
f 233 268 236
f 233 234 265
f 233 265 264
f 234 235 267
f 234 267 265
f 235 240 266
f 235 266 301
f 235 301 267
f 236 268 269
f 236 269 237
f 237 269 270
f 237 270 238
f 239 271 266
f 239 266 240
f 241 272 279
f 241 279 247
f 241 246 278
f 241 278 272
f 242 244 273
f 242 273 243
f 243 273 274
f 243 274 245
f 244 270 275
f 244 275 273
f 245 274 276
f 245 276 277
f 245 277 278
f 247 279 315
f 247 315 280
f 247 280 248
f 248 280 249
f 249 280 252
f 250 252 283
f 250 283 281
f 250 281 282
f 250 282 251
f 252 280 315
f 252 315 283
f 253 284 285
f 253 285 254
f 253 282 286
f 253 286 284
f 254 285 287
f 254 287 255
f 255 288 289
f 255 289 290
f 255 287 291
f 255 291 288
f 256 290 292
f 256 292 257
f 259 293 260
f 259 292 294
f 259 294 293
f 260 293 261
f 261 293 295
f 262 296 263
f 263 296 297
f 264 298 304
f 264 304 268
f 264 265 299
f 264 299 298
f 265 267 299
f 266 271 300
f 266 300 335
f 266 335 301
f 267 301 302
f 267 302 303
f 267 303 299
f 268 304 305
f 268 305 269
f 269 305 270
f 270 305 306
f 270 306 275
f 272 307 279
f 272 278 277
f 272 277 308
f 272 308 307
f 273 275 309
f 273 309 310
f 273 310 274
f 274 310 311
f 274 311 276
f 275 306 309
f 276 312 313
f 276 313 277
f 276 311 312
f 277 313 308
f 279 307 314
f 279 314 315
f 281 283 316
f 281 316 317
f 281 317 286
f 281 286 282
f 283 315 318
f 283 318 316
f 284 319 285
f 284 286 320
f 284 320 319
f 285 319 291
f 285 291 287
f 286 317 320
f 288 321 322
f 288 322 289
f 288 291 319
f 288 319 323
f 288 323 321
f 289 322 290
f 290 322 324
f 290 324 292
f 292 325 294
f 292 324 325
f 293 294 326
f 293 326 327
f 293 327 328
f 293 328 329
f 293 329 295
f 294 325 330
f 294 330 326
f 296 331 297
f 297 331 332
f 298 333 339
f 298 339 304
f 298 299 333
f 299 334 333
f 299 303 334
f 301 335 336
f 301 336 302
f 302 336 337
f 302 337 303
f 303 338 334
f 303 337 338
f 304 339 305
f 305 339 340
f 305 340 306
f 306 340 341
f 306 341 309
f 307 308 342
f 307 342 343
f 307 343 344
f 307 344 314
f 308 313 345
f 308 345 342
f 309 341 346
f 309 346 310
f 310 346 347
f 310 347 311
f 311 348 349
f 311 349 312
f 311 347 348
f 312 350 313
f 312 349 350
f 313 350 345
f 314 344 351
f 314 351 318
f 314 318 315
f 316 318 351
f 316 351 352
f 316 352 317
f 317 352 320
f 319 320 353
f 319 353 354
f 319 354 355
f 319 355 356
f 319 356 323
f 320 352 357
f 320 357 358
f 320 358 353
f 321 323 359
f 321 359 360
f 321 360 322
f 322 360 324
f 323 356 361
f 323 361 362
f 323 362 359
f 324 360 330
f 324 330 325
f 326 330 363
f 326 363 364
f 326 364 327
f 327 365 328
f 327 364 366
f 327 366 365
f 330 360 363
f 331 367 332
f 332 367 368
f 333 369 339
f 333 334 370
f 333 370 369
f 334 338 371
f 334 371 370
f 336 372 337
f 337 373 338
f 337 372 374
f 337 374 373
f 338 373 371
f 339 375 376
f 339 376 340
f 339 369 375
f 340 376 377
f 340 377 341
f 341 377 346
f 342 378 343
f 342 345 378
f 343 379 380
f 343 380 352
f 343 352 351
f 343 351 344
f 343 378 379
f 345 350 381
f 345 381 378
f 346 377 382
f 346 382 347
f 347 382 383
f 347 383 384
f 347 384 385
f 347 385 386
f 347 386 348
f 348 387 349
f 348 386 387
f 349 387 388
f 349 388 350
f 350 388 381
f 352 380 389
f 352 389 357
f 353 358 354
f 354 358 390
f 354 390 391
f 354 391 392
f 354 392 355
f 355 392 361
f 355 361 356
f 357 389 358
f 358 389 390
f 359 393 394
f 359 394 360
f 359 362 393
f 360 394 364
f 360 364 363
f 361 392 395
f 361 395 362
f 362 395 396
f 362 396 393
f 364 397 366
f 364 394 398
f 364 398 399
f 364 399 397
f 365 366 400
f 365 400 401
f 365 401 402
f 366 397 400
f 367 403 404
f 367 404 405
f 367 405 406
f 367 406 407
f 367 407 368
f 368 407 408
f 369 409 410
f 369 410 375
f 369 370 411
f 369 411 409
f 370 371 411
f 371 373 412
f 371 412 411
f 373 374 413
f 373 413 414
f 373 414 412
f 375 410 415
f 375 415 376
f 376 415 377
f 377 415 382
f 378 381 416
f 378 416 417
f 378 417 379
f 379 417 418
f 379 418 419
f 379 419 389
f 379 389 380
f 381 388 420
f 381 420 416
f 382 415 421
f 382 421 383
f 383 422 423
f 383 423 385
f 383 385 384
f 383 421 422
f 385 424 425
f 385 425 426
f 385 426 427
f 385 427 386
f 385 423 424
f 386 427 387
f 387 427 426
f 387 426 388
f 388 426 420
f 389 419 428
f 389 428 390
f 390 428 429
f 390 429 430
f 390 430 391
f 391 430 431
f 391 431 432
f 391 432 433
f 391 433 392
f 392 433 395
f 393 434 398
f 393 398 394
f 393 396 435
f 393 435 434
f 395 433 432
f 395 432 396
f 396 432 435
f 397 399 436
f 397 436 400
f 398 434 399
f 399 434 437
f 399 437 436
f 400 436 438
f 400 438 401
f 401 438 402
f 402 438 439
f 403 440 404
f 404 440 441
f 404 441 442
f 404 442 405
f 405 443 444
f 405 444 445
f 405 445 406
f 405 442 443
f 406 445 407
f 407 446 408
f 407 445 446
f 408 446 447
f 408 447 448
f 408 448 449
f 409 450 410
f 409 411 451
f 409 451 450
f 410 452 421
f 410 421 415
f 410 450 452
f 411 412 453
f 411 453 451
f 412 414 454
f 412 454 453
f 416 420 455
f 416 455 456
f 416 456 418
f 416 418 417
f 418 456 457
f 418 457 419
f 419 457 429
f 419 429 428
f 420 426 425
f 420 425 456
f 420 456 455
f 421 458 422
f 421 452 458
f 422 458 459
f 422 459 460
f 422 460 461
f 422 461 423
f 423 461 424
f 424 462 463
f 424 463 425
f 424 461 460
f 424 460 462
f 425 463 464
f 425 464 456
f 429 457 465
f 429 465 430
f 430 465 431
f 431 466 467
f 431 467 432
f 431 465 468
f 431 468 466
f 432 467 437
f 432 437 435
f 434 435 437
f 436 437 438
f 437 469 438
f 437 467 469
f 438 469 439
f 439 469 471
f 439 471 470
f 440 472 441
f 440 473 472
f 441 474 442
f 441 472 475
f 441 475 476
f 441 476 474
f 442 474 443
f 443 477 478
f 443 478 479
f 443 479 444
f 443 474 468
f 443 468 477
f 444 479 480
f 444 480 445
f 445 480 481
f 445 481 446
f 446 481 482
f 446 482 447
f 447 482 483
f 447 483 448
f 448 483 484
f 448 484 449
f 449 484 485
f 450 482 452
f 450 451 483
f 450 483 482
f 451 453 484
f 451 484 483
f 452 486 458
f 452 482 486
f 453 454 487
f 453 487 485
f 453 485 484
f 456 477 465
f 456 465 457
f 456 464 477
f 458 486 488
f 458 488 459
f 459 488 480
f 459 480 462
f 459 462 460
f 462 480 479
f 462 479 478
f 462 478 463
f 463 478 464
f 464 478 477
f 465 477 468
f 466 468 474
f 466 474 476
f 466 476 467
f 467 476 489
f 467 489 469
f 469 489 475
f 469 475 471
f 470 471 490
f 471 473 490
f 471 475 472
f 471 472 473
f 475 489 476
f 480 488 481
f 481 488 486
f 481 486 482

