# https://github.com/mikedh/trimesh
v 0.00314963 0.00336285 0.04012788
v 0.00314963 0.00331538 0.04012788
v 0.00313667 0.00395326 0.04012788
v 0.00304786 0.00395326 0.04749464
v 0.00314654 0.00282089 0.04012788
v 0.00304786 0.00390430 0.04749464
v 0.00304539 0.00336285 0.04749464
v -0.00313740 0.00395326 0.04012788
v 0.00293930 0.00395326 0.04803645
v 0.00313297 0.00165144 0.04012788
v 0.00304847 0.00173798 0.04641101
v 0.00299728 0.00282089 0.04749464
v 0.00304107 0.00227944 0.04695282
v -0.00314973 0.00340933 0.04012788
v -0.00304735 0.00395326 0.04749464
v 0.00276906 0.00395326 0.04835451
v 0.00293313 0.00390430 0.04803645
v 0.00312187 0.00104274 0.04012788
v 0.00304909 0.00119701 0.04587006
v 0.00304909 0.00065556 0.04532825
v 0.00299111 0.00065556 0.04587006
v 0.00286775 0.00229081 0.04751092
v 0.00290661 0.00169545 0.04699740
v 0.00297939 0.00119701 0.04641101
v 0.00282704 0.00282089 0.04788385
v -0.00315035 0.00336285 0.04012788
v -0.00304735 0.00390430 0.04749464
v -0.00304303 0.00395326 0.04754350
v 0.00276290 0.00390430 0.04834850
v 0.00284370 0.00341229 0.04805445
v 0.00243661 0.00395326 0.04849167
v 0.00304909 -0.00042785 0.04316271
v 0.00309473 0.00043996 0.04012788
v 0.00304909 0.00011360 0.04424634
v 0.00304107 0.00011360 0.04478643
v 0.00281101 0.00069660 0.04637758
v 0.00282087 0.00023574 0.04587006
v 0.00290599 0.00006762 0.04537283
v 0.00298309 -0.00042785 0.04424634
v 0.00281162 0.00184825 0.04734118
v 0.00275673 0.00247921 0.04780326
v 0.00280854 0.00119701 0.04681909
v 0.00271170 0.00362591 0.04830907
v -0.00314788 0.00282089 0.04012788
v -0.00304550 0.00336285 0.04749464
v -0.00290425 0.00395326 0.04807931
v 0.00194379 0.00395326 0.04863913
v 0.00243661 0.00390430 0.04848053
v 0.00304107 -0.00042785 0.04370452
v 0.00287824 -0.00088921 0.04316271
v 0.00304909 -0.00042785 0.04012788
v 0.00274439 0.00035392 0.04617526
v 0.00272897 0.00090478 0.04669992
v 0.00281039 -0.00026468 0.04522194
v 0.00285973 -0.00043824 0.04476157
v 0.00281224 -0.00079476 0.04424634
v 0.00287022 -0.00087091 0.04370452
v 0.00267839 0.00148678 0.04720744
v 0.00238726 0.00229081 0.04785299
v 0.00253530 0.00211823 0.04770296
v 0.00243661 0.00282089 0.04809732
v 0.00243661 0.00349537 0.04835365
v 0.00243661 0.00322489 0.04826106
v -0.00313123 0.00173798 0.04012788
v -0.00304611 0.00065556 0.04532825
v -0.00304673 0.00173798 0.04641101
v -0.00304179 0.00227944 0.04695282
v -0.00299677 0.00282089 0.04749464
v -0.00287588 0.00336285 0.04798673
v -0.00287649 0.00395326 0.04814104
v 0.00189198 0.00395326 0.04865285
v 0.00189506 0.00390430 0.04864170
v 0.00243661 -0.00107019 0.04370452
v 0.00243661 -0.00108848 0.04316271
v 0.00287824 -0.00088921 0.04012788
v 0.00243661 0.00055913 0.04651989
v 0.00243661 0.00028667 0.04624898
v 0.00247238 -0.00001101 0.04586063
v 0.00267654 -0.00014402 0.04558286
v 0.00247362 0.00119603 0.04706856
v 0.00243661 0.00082961 0.04677108
v 0.00274439 -0.00072454 0.04456439
v 0.00243661 -0.00096338 0.04424634
v 0.00231757 0.00137602 0.04729489
v 0.00242612 0.00174539 0.04749892
v 0.00217385 0.00200450 0.04776811
v 0.00189506 0.00227944 0.04800301
v 0.00216090 0.00309583 0.04830564
v 0.00194625 0.00280754 0.04824391
v 0.00194625 0.00331093 0.04843938
v -0.00312074 0.00119701 0.04012788
v -0.00303439 0.00011360 0.04478643
v -0.00298505 0.00065556 0.04587006
v -0.00298628 0.00119701 0.04641101
v -0.00304611 0.00011360 0.04424634
v -0.00303933 -0.00042785 0.04370452
v -0.00290672 0.00168457 0.04700683
v -0.00286847 0.00229130 0.04751264
v -0.00282715 0.00282089 0.04788299
v -0.00281481 0.00395326 0.04826535
v 0.00132452 0.00395326 0.04877458
v 0.00132020 0.00394287 0.04877287
v 0.00135351 0.00336285 0.04859798
v 0.00189506 -0.00106326 0.04424634
v 0.00135351 -0.00109392 0.04424634
v 0.00189506 -0.00109689 0.04370452
v 0.00211032 -0.00109392 0.04012788
v 0.00243661 -0.00108848 0.04012788
v 0.00189506 0.00043996 0.04662877
v 0.00189506 0.00071094 0.04688253
v 0.00189506 0.00018827 0.04635786
v 0.00189506 -0.00008271 0.04604152
v 0.00162058 0.00038557 0.04668106
v 0.00231572 -0.00021275 0.04567374
v 0.00247238 -0.00036011 0.04537283
v 0.00243661 -0.00063999 0.04495189
v 0.00189506 0.00100466 0.04715343
v 0.00243661 -0.00078685 0.04468099
v 0.00193824 -0.00085707 0.04483530
v 0.00135351 -0.00099107 0.04478643
v 0.00189506 0.00167023 0.04763695
v 0.00189506 0.00127514 0.04736604
v 0.00189506 0.00194121 0.04780926
v 0.00146824 0.00261816 0.04827992
v 0.00131404 0.00232790 0.04816676
v 0.00135351 0.00183391 0.04788213
v 0.00180007 0.00297913 0.04835193
v -0.00304611 -0.00042785 0.04012788
v -0.00304611 -0.00042785 0.04316271
v -0.00290116 0.00006514 0.04537454
v -0.00297025 -0.00042785 0.04424634
v -0.00281605 0.00023525 0.04587006
v -0.00281358 0.00069017 0.04637672
v -0.00281666 0.00119701 0.04683880
v -0.00287032 -0.00087239 0.04370452
v -0.00287649 -0.00088921 0.04316271
v -0.00281358 0.00182946 0.04734375
v -0.00269824 0.00364371 0.04830221
v -0.00275622 0.00247970 0.04780326
v -0.00267603 0.00395326 0.04838880
v 0.00131033 0.00395326 0.04877715
v 0.00081196 0.00380392 0.04880802
v 0.00081196 0.00336285 0.04867942
v 0.00081196 0.00282089 0.04847024
v 0.00131404 0.00280754 0.04838623
v 0.00081196 -0.00104200 0.04478643
v 0.00027041 -0.00106722 0.04478643
v 0.00081196 -0.00109738 0.04424634
v 0.00135351 -0.00109738 0.04370452
v 0.00156877 -0.00109738 0.04012788
v 0.00189506 -0.00109689 0.04012788
v 0.00152806 -0.00013809 0.04611439
v 0.00189506 -0.00028099 0.04577061
v 0.00081196 0.00003399 0.04647274
v 0.00139360 0.00010520 0.04642130
v 0.00157371 0.00094186 0.04721087
v 0.00121226 0.00089241 0.04725288
v 0.00081196 0.00057941 0.04703170
v 0.00125914 0.00034848 0.04671792
v 0.00193824 -0.00057818 0.04531796
v 0.00214795 -0.00069339 0.04504791
v 0.00178712 -0.00074235 0.04513021
v 0.00135351 -0.00079525 0.04520737
v 0.00081196 -0.00084273 0.04528195
v 0.00135351 0.00156293 0.04770210
v 0.00110741 0.00254052 0.04831078
v 0.00081196 0.00223345 0.04819933
v 0.00091188 0.00150013 0.04774239
v 0.00076385 0.00170386 0.04789671
v -0.00287649 -0.00088921 0.04012788
v -0.00280494 -0.00025528 0.04522537
v -0.00280124 -0.00078784 0.04424634
v -0.00284627 -0.00043230 0.04474871
v -0.00273895 0.00035639 0.04617268
v -0.00274018 0.00089390 0.04671192
v -0.00270564 0.00146799 0.04722287
v -0.00243672 -0.00107216 0.04370452
v -0.00243672 -0.00095596 0.04424634
v -0.00243672 -0.00108898 0.04316271
v -0.00270194 -0.00096882 0.04012788
v -0.00233741 0.00345680 0.04836651
v -0.00248544 0.00385634 0.04844281
v -0.00243672 0.00282089 0.04809560
v -0.00248544 0.00331093 0.04826706
v -0.00253540 0.00211873 0.04770467
v -0.00238737 0.00229130 0.04785213
v -0.00247742 0.00395326 0.04846938
v 0.00094396 0.00395326 0.04882773
v 0.00081196 0.00395326 0.04884402
v 0.00027041 0.00395326 0.04888603
v 0.00027041 0.00372283 0.04882516
v 0.00027041 0.00336285 0.04872143
v 0.00027041 0.00282089 0.04851653
v 0.00081196 0.00250393 0.04832793
v 0.00025684 -0.00083580 0.04537797
v -0.00027052 -0.00106722 0.04478643
v -0.00027052 -0.00109788 0.04424634
v -0.00005587 -0.00109788 0.04012788
v 0.00116724 -0.00017320 0.04616154
v 0.00134981 -0.00031907 0.04590864
v 0.00135351 -0.00061823 0.04547827
v 0.00081196 0.00030497 0.04676165
v 0.00027041 0.00000185 0.04651132
v 0.00081196 -0.00020583 0.04620183
v 0.00137695 0.00115202 0.04740719
v 0.00076385 0.00124992 0.04758722
v 0.00081196 0.00085038 0.04728888
v 0.00027041 0.00054677 0.04706513
v 0.00081196 -0.00066768 0.04555286
v 0.00042770 -0.00069339 0.04559144
v 0.00027041 0.00218746 0.04822077
v 0.00055044 0.00146552 0.04776640
v 0.00027041 0.00173798 0.04796015
v -0.00272846 -0.00071367 0.04454382
v -0.00268467 -0.00014748 0.04558629
v -0.00243672 0.00028865 0.04624727
v -0.00243672 0.00055073 0.04651817
v -0.00247742 -0.00001150 0.04586148
v -0.00243672 0.00082121 0.04677965
v -0.00248976 0.00119603 0.04708399
v -0.00234481 0.00137602 0.04729489
v -0.00243980 0.00173600 0.04749978
v -0.00189517 -0.00109837 0.04370452
v -0.00135362 -0.00109541 0.04424634
v -0.00189517 -0.00106376 0.04424634
v -0.00135362 -0.00099750 0.04478643
v -0.00193588 -0.00086003 0.04483273
v -0.00243672 -0.00077745 0.04466127
v -0.00243672 -0.00108898 0.04012788
v -0.00222207 -0.00109293 0.04012788
v -0.00216039 0.00309583 0.04830564
v -0.00194636 0.00331093 0.04843938
v -0.00189517 0.00390430 0.04864084
v -0.00189517 0.00227944 0.04800301
v -0.00194636 0.00280754 0.04824391
v -0.00217396 0.00200401 0.04776811
v -0.00189208 0.00395326 0.04865199
v -0.00027052 0.00395326 0.04888603
v -0.00027052 0.00372283 0.04882516
v -0.00027052 0.00336285 0.04872143
v -0.00027052 0.00282089 0.04851653
v 0.00027041 0.00245844 0.04834936
v 0.00006687 -0.00070180 0.04560344
v -0.00025633 -0.00083580 0.04537797
v -0.00081207 -0.00104349 0.04478643
v -0.00081207 -0.00109788 0.04424634
v -0.00189517 -0.00109837 0.04012788
v 0.00081196 -0.00044566 0.04587006
v 0.00027041 0.00027233 0.04679422
v -0.00027052 0.00000185 0.04651132
v 0.00027041 -0.00023649 0.04624041
v 0.00027041 0.00118317 0.04758637
v 0.00027041 0.00081725 0.04731546
v -0.00027052 0.00054677 0.04706513
v 0.00025684 -0.00054257 0.04581862
v -0.00027052 0.00218746 0.04822077
v 0.00027041 0.00145365 0.04777497
v -0.00027052 0.00173798 0.04796015
v -0.00243672 -0.00063109 0.04493217
v -0.00232384 -0.00021325 0.04567459
v -0.00214312 -0.00069092 0.04504362
v -0.00189517 -0.00008221 0.04604237
v -0.00189517 0.00018827 0.04635786
v -0.00189517 0.00043996 0.04662877
v -0.00189517 0.00071094 0.04688253
v -0.00189517 0.00100466 0.04715343
v -0.00189517 0.00127514 0.04736604
v -0.00189517 0.00167023 0.04763695
v -0.00081207 -0.00084371 0.04528367
v -0.00135362 -0.00080020 0.04521165
v -0.00178229 -0.00074729 0.04513450
v -0.00179956 0.00297913 0.04835193
v -0.00135362 0.00336285 0.04859798
v -0.00132031 0.00394287 0.04877287
v -0.00132463 0.00395326 0.04877458
v -0.00184644 0.00395326 0.04866227
v -0.00131414 0.00232790 0.04816676
v -0.00146834 0.00261816 0.04827992
v -0.00189517 0.00194121 0.04780926
v -0.00135362 0.00183391 0.04788213
v -0.00038648 0.00395326 0.04887746
v -0.00081207 0.00380392 0.04880802
v -0.00081207 0.00336285 0.04867942
v -0.00081207 0.00282089 0.04847024
v -0.00081207 0.00250393 0.04832793
v -0.00027052 0.00245844 0.04834936
v -0.00006698 -0.00070180 0.04560344
v -0.00042780 -0.00069339 0.04559144
v -0.00027052 0.00027233 0.04679422
v -0.00081207 0.00003399 0.04647274
v -0.00081207 -0.00020583 0.04620183
v -0.00027052 -0.00023649 0.04624041
v -0.00081207 0.00030497 0.04676165
v -0.00027052 0.00118317 0.04758637
v -0.00027052 0.00081725 0.04731546
v -0.00081207 0.00085038 0.04728888
v -0.00081207 0.00057941 0.04703170
v -0.00081207 0.00223345 0.04819933
v -0.00076334 0.00170386 0.04789671
v -0.00027052 0.00145365 0.04777497
v -0.00055055 0.00146552 0.04776640
v -0.00189517 -0.00028149 0.04577147
v -0.00193588 -0.00057719 0.04532053
v -0.00152817 -0.00013809 0.04611439
v -0.00162007 0.00038557 0.04668106
v -0.00157381 0.00094186 0.04721087
v -0.00135362 0.00156293 0.04770210
v -0.00081207 -0.00066768 0.04555457
v -0.00135362 -0.00061823 0.04548256
v -0.00131414 0.00280754 0.04838623
v -0.00128084 0.00395326 0.04878144
v -0.00131044 0.00395326 0.04877715
v -0.00132031 0.00395326 0.04877544
v -0.00110690 0.00254052 0.04831078
v -0.00091199 0.00150013 0.04774239
v -0.00081207 0.00395326 0.04884402
v -0.00025633 -0.00054257 0.04581862
v -0.00081207 -0.00044566 0.04587006
v -0.00125925 0.00034848 0.04671792
v -0.00139371 0.00010520 0.04642130
v -0.00116734 -0.00017320 0.04616154
v -0.00076334 0.00124992 0.04758722
v -0.00121237 0.00089241 0.04725288
v -0.00134992 -0.00031907 0.04590864
v -0.00137706 0.00115202 0.04740719
f 1 2 5
f 1 5 10
f 1 10 18
f 1 18 33
f 1 33 51
f 1 51 75
f 1 75 108
f 1 108 107
f 1 107 151
f 1 151 150
f 1 150 198
f 1 198 247
f 1 247 230
f 1 230 229
f 1 229 180
f 1 180 170
f 1 170 128
f 1 128 91
f 1 91 64
f 1 64 44
f 1 44 26
f 1 26 14
f 1 14 8
f 1 8 3
f 1 3 4
f 1 4 6
f 1 6 2
f 2 6 7
f 2 7 5
f 3 8 15
f 3 15 28
f 3 28 46
f 3 46 70
f 3 70 100
f 3 100 140
f 3 140 187
f 3 187 237
f 3 237 276
f 3 276 275
f 3 275 313
f 3 313 312
f 3 312 311
f 3 311 316
f 3 316 281
f 3 281 238
f 3 238 190
f 3 190 189
f 3 189 188
f 3 188 141
f 3 141 101
f 3 101 71
f 3 71 47
f 3 47 31
f 3 31 16
f 3 16 9
f 3 9 4
f 4 9 6
f 5 7 11
f 5 11 10
f 6 9 7
f 7 9 12
f 7 12 13
f 7 13 11
f 8 14 15
f 9 16 17
f 9 17 12
f 10 11 19
f 10 19 20
f 10 20 18
f 11 13 21
f 11 21 19
f 12 22 23
f 12 23 24
f 12 24 13
f 12 17 25
f 12 25 22
f 13 24 21
f 14 26 15
f 15 27 28
f 15 26 27
f 16 29 30
f 16 30 17
f 16 31 29
f 17 30 25
f 18 32 33
f 18 20 34
f 18 34 32
f 19 21 20
f 20 35 34
f 20 21 35
f 21 24 36
f 21 36 37
f 21 37 38
f 21 38 39
f 21 39 35
f 22 40 23
f 22 25 41
f 22 41 40
f 23 40 42
f 23 42 24
f 24 42 36
f 25 30 29
f 25 29 43
f 25 43 41
f 26 44 45
f 26 45 27
f 27 45 28
f 28 45 46
f 29 31 43
f 31 47 48
f 31 48 43
f 32 49 50
f 32 50 75
f 32 75 51
f 32 51 33
f 32 34 49
f 34 35 49
f 35 39 49
f 36 52 37
f 36 42 53
f 36 53 52
f 37 52 54
f 37 54 38
f 38 54 55
f 38 55 39
f 39 55 56
f 39 56 57
f 39 57 49
f 40 41 58
f 40 58 53
f 40 53 42
f 41 59 60
f 41 60 58
f 41 43 61
f 41 61 59
f 43 48 62
f 43 62 63
f 43 63 61
f 44 64 65
f 44 65 66
f 44 66 45
f 45 67 68
f 45 68 46
f 45 66 67
f 46 69 70
f 46 68 69
f 47 71 72
f 47 72 48
f 48 72 62
f 49 57 50
f 50 57 73
f 50 73 74
f 50 74 108
f 50 108 75
f 52 53 76
f 52 76 77
f 52 77 78
f 52 78 79
f 52 79 54
f 53 58 80
f 53 80 81
f 53 81 76
f 54 82 56
f 54 56 55
f 54 79 82
f 56 82 83
f 56 83 73
f 56 73 57
f 58 84 80
f 58 60 85
f 58 85 84
f 59 86 60
f 59 61 87
f 59 87 86
f 60 86 85
f 61 63 88
f 61 88 89
f 61 89 87
f 62 88 63
f 62 72 90
f 62 90 88
f 64 91 65
f 65 92 93
f 65 93 94
f 65 94 66
f 65 91 95
f 65 95 96
f 65 96 92
f 66 94 67
f 67 94 68
f 68 94 97
f 68 97 98
f 68 98 99
f 68 99 69
f 69 99 100
f 69 100 70
f 71 101 72
f 72 101 102
f 72 102 103
f 72 103 90
f 73 83 104
f 73 104 105
f 73 105 106
f 73 106 74
f 74 106 107
f 74 107 108
f 76 109 77
f 76 81 110
f 76 110 109
f 77 111 112
f 77 112 78
f 77 109 113
f 77 113 111
f 78 114 79
f 78 112 114
f 79 114 115
f 79 115 116
f 79 116 82
f 80 84 81
f 81 84 117
f 81 117 110
f 82 118 83
f 82 116 118
f 83 118 119
f 83 119 120
f 83 120 104
f 84 85 86
f 84 86 121
f 84 121 122
f 84 122 117
f 86 87 123
f 86 123 121
f 87 89 124
f 87 124 125
f 87 125 126
f 87 126 123
f 88 90 127
f 88 127 89
f 89 127 124
f 90 103 127
f 91 128 129
f 91 129 95
f 92 130 93
f 92 96 131
f 92 131 130
f 93 130 132
f 93 132 133
f 93 133 94
f 94 133 134
f 94 134 97
f 95 129 96
f 96 135 131
f 96 129 136
f 96 136 135
f 97 134 137
f 97 137 98
f 98 137 99
f 99 138 100
f 99 137 139
f 99 139 138
f 100 138 140
f 101 141 102
f 102 141 142
f 102 142 143
f 102 143 103
f 103 144 145
f 103 145 124
f 103 124 127
f 103 143 144
f 104 120 146
f 104 146 105
f 105 146 147
f 105 147 148
f 105 148 106
f 106 148 149
f 106 149 150
f 106 150 151
f 106 151 107
f 109 110 113
f 110 117 113
f 111 152 112
f 111 113 152
f 112 152 153
f 112 153 114
f 113 154 155
f 113 155 152
f 113 117 156
f 113 156 157
f 113 157 158
f 113 158 159
f 113 159 154
f 114 153 160
f 114 160 161
f 114 161 115
f 115 161 116
f 116 161 118
f 117 122 156
f 118 161 119
f 119 161 162
f 119 162 163
f 119 163 120
f 120 163 164
f 120 164 146
f 121 123 126
f 121 126 165
f 121 165 122
f 122 165 156
f 124 145 166
f 124 166 125
f 125 166 167
f 125 167 126
f 126 168 165
f 126 167 169
f 126 169 168
f 128 170 136
f 128 136 129
f 130 171 132
f 130 131 171
f 131 135 172
f 131 172 173
f 131 173 171
f 132 174 133
f 132 171 174
f 133 174 175
f 133 175 134
f 134 175 176
f 134 176 137
f 135 177 178
f 135 178 172
f 135 136 177
f 136 179 177
f 136 170 180
f 136 180 179
f 137 176 139
f 138 181 182
f 138 182 140
f 138 139 183
f 138 183 184
f 138 184 181
f 139 176 185
f 139 185 186
f 139 186 183
f 140 182 187
f 141 188 142
f 142 188 189
f 142 189 190
f 142 190 191
f 142 191 192
f 142 192 143
f 143 192 193
f 143 193 144
f 144 193 194
f 144 194 166
f 144 166 145
f 146 164 195
f 146 195 147
f 147 195 244
f 147 244 196
f 147 196 246
f 147 246 197
f 147 197 148
f 148 197 149
f 149 197 150
f 150 197 198
f 152 199 200
f 152 200 201
f 152 201 153
f 152 155 199
f 153 201 160
f 154 159 202
f 154 202 203
f 154 203 204
f 154 204 199
f 154 199 155
f 156 165 205
f 156 205 157
f 157 205 168
f 157 168 206
f 157 206 207
f 157 207 158
f 158 207 208
f 158 208 202
f 158 202 159
f 160 162 161
f 160 201 162
f 162 201 163
f 163 201 209
f 163 209 164
f 164 209 210
f 164 210 195
f 165 168 205
f 166 194 167
f 167 211 169
f 167 194 211
f 168 212 206
f 168 169 212
f 169 211 213
f 169 213 212
f 171 173 172
f 171 172 214
f 171 214 215
f 171 215 174
f 172 178 214
f 174 216 217
f 174 217 175
f 174 215 218
f 174 218 216
f 175 219 220
f 175 220 176
f 175 217 219
f 176 220 221
f 176 221 222
f 176 222 185
f 177 223 224
f 177 224 225
f 177 225 178
f 177 179 223
f 178 225 226
f 178 226 227
f 178 227 228
f 178 228 214
f 179 180 229
f 179 229 230
f 179 230 223
f 181 184 231
f 181 231 232
f 181 232 233
f 181 233 182
f 182 233 187
f 183 234 235
f 183 235 231
f 183 231 184
f 183 186 234
f 185 222 236
f 185 236 186
f 186 236 234
f 187 233 237
f 190 238 239
f 190 239 191
f 191 239 240
f 191 240 192
f 192 240 241
f 192 241 193
f 193 241 286
f 193 286 242
f 193 242 194
f 194 242 211
f 195 210 243
f 195 243 287
f 195 287 244
f 196 244 245
f 196 245 224
f 196 224 246
f 197 246 223
f 197 223 198
f 198 223 247
f 199 204 248
f 199 248 200
f 200 248 209
f 200 209 201
f 202 249 203
f 202 208 249
f 203 250 292
f 203 292 251
f 203 251 204
f 203 249 289
f 203 289 250
f 204 251 210
f 204 210 248
f 206 212 252
f 206 252 207
f 207 252 253
f 207 253 208
f 208 253 295
f 208 295 254
f 208 254 289
f 208 289 249
f 209 248 210
f 210 255 243
f 210 251 255
f 211 256 258
f 211 258 213
f 211 242 286
f 211 286 256
f 212 257 252
f 212 213 257
f 213 258 300
f 213 300 257
f 214 228 259
f 214 259 215
f 215 260 218
f 215 259 261
f 215 261 260
f 216 218 262
f 216 262 263
f 216 263 264
f 216 264 217
f 217 264 219
f 218 260 262
f 219 265 266
f 219 266 220
f 219 264 265
f 220 266 221
f 221 266 267
f 221 267 268
f 221 268 236
f 221 236 222
f 223 246 224
f 223 230 247
f 224 245 225
f 225 245 226
f 226 245 269
f 226 269 270
f 226 270 227
f 227 270 271
f 227 271 261
f 227 261 228
f 228 261 259
f 231 235 272
f 231 272 232
f 232 273 233
f 232 272 273
f 233 273 274
f 233 274 275
f 233 275 276
f 233 276 237
f 234 277 278
f 234 278 235
f 234 236 279
f 234 279 280
f 234 280 277
f 235 278 272
f 236 268 279
f 238 281 282
f 238 282 239
f 239 282 240
f 240 282 283
f 240 283 241
f 241 283 284
f 241 284 285
f 241 285 286
f 243 255 251
f 243 251 292
f 243 292 287
f 244 287 288
f 244 288 269
f 244 269 245
f 250 290 291
f 250 291 292
f 250 289 293
f 250 293 290
f 252 294 295
f 252 295 253
f 252 257 300
f 252 300 294
f 254 295 296
f 254 296 297
f 254 297 293
f 254 293 289
f 256 298 299
f 256 299 258
f 256 286 285
f 256 285 298
f 258 299 301
f 258 301 300
f 260 302 262
f 260 261 303
f 260 303 302
f 261 271 303
f 262 304 263
f 262 302 304
f 263 304 305
f 263 305 264
f 264 305 265
f 265 306 266
f 265 305 306
f 266 306 267
f 267 307 268
f 267 306 307
f 268 307 280
f 268 280 279
f 269 288 308
f 269 308 270
f 270 308 309
f 270 309 271
f 271 309 302
f 271 302 303
f 272 278 273
f 273 278 310
f 273 310 284
f 273 284 283
f 273 283 274
f 274 282 311
f 274 311 312
f 274 312 313
f 274 313 275
f 274 283 282
f 277 298 314
f 277 314 278
f 277 280 298
f 278 314 310
f 280 307 315
f 280 315 299
f 280 299 298
f 281 316 282
f 282 316 311
f 284 310 314
f 284 314 285
f 285 314 298
f 287 292 317
f 287 317 288
f 288 317 292
f 288 292 291
f 288 291 318
f 288 318 308
f 290 293 319
f 290 319 305
f 290 305 320
f 290 320 321
f 290 321 291
f 291 321 318
f 293 297 319
f 294 300 301
f 294 301 322
f 294 322 296
f 294 296 295
f 296 323 297
f 296 322 323
f 297 323 305
f 297 305 319
f 299 315 301
f 301 315 322
f 302 309 304
f 304 321 320
f 304 320 305
f 304 309 324
f 304 324 321
f 305 323 306
f 306 323 325
f 306 325 307
f 307 325 315
f 308 318 324
f 308 324 309
f 315 325 323
f 315 323 322
f 318 321 324

