# https://github.com/mikedh/trimesh
v -0.00150000 0.00108367 0.00000000
v -0.00149971 -0.00314290 -0.00000059
v -0.00129884 -0.00314290 0.00074912
v -0.00129884 0.00108367 0.00075000
v -0.00150000 0.00275260 0.00000000
v -0.00135200 0.00275260 -0.00055208
v -0.00129884 0.00108367 -0.00074941
v -0.00129826 -0.00314290 -0.00075029
v -0.00075029 -0.00314290 0.00129826
v -0.00075000 0.00108367 0.00129884
v -0.00075000 0.00275260 0.00129884
v -0.00129884 0.00275260 0.00074941
v -0.00129884 0.00275260 -0.00074941
v -0.00075000 0.00275260 -0.00129884
v -0.00075000 0.00108367 -0.00129884
v -0.00074912 -0.00314290 -0.00129884
v -0.00000029 -0.00314290 0.00149971
v -0.00048835 0.00108367 0.00136903
v -0.00055208 0.00275260 0.00135200
v 0.00000000 0.00275260 -0.00150000
v 0.00000000 0.00108367 -0.00150000
v 0.00000000 -0.00314290 -0.00149912
v 0.00074883 -0.00314290 0.00129884
v 0.00000000 0.00108367 0.00150000
v 0.00000000 0.00275260 0.00150000
v 0.00055208 0.00275260 -0.00135200
v 0.00074941 0.00108367 -0.00129884
v 0.00075059 -0.00314290 -0.00129796
v 0.00129826 -0.00314290 0.00075059
v 0.00074971 0.00108367 0.00129884
v 0.00074941 0.00275260 0.00129884
v 0.00074941 0.00275260 -0.00129884
v 0.00129885 -0.00314290 -0.00074883
v 0.00129885 0.00275260 -0.00074941
v 0.00129885 0.00108367 -0.00074941
v 0.00149883 -0.00314290 0.00000294
v 0.00149912 -0.00312270 0.00000294
v 0.00129885 0.00108367 0.00075000
v 0.00129885 0.00275260 0.00074941
v 0.00149941 -0.00314290 0.00000059
v 0.00150000 0.00108367 0.00000000
v 0.00150000 0.00275260 0.00000000
v 0.00135200 0.00275260 0.00055208
f 1 2 3
f 1 3 4
f 1 4 5
f 1 5 6
f 1 6 2
f 2 7 8
f 2 8 16
f 2 16 22
f 2 22 28
f 2 28 33
f 2 33 40
f 2 40 36
f 2 36 29
f 2 29 23
f 2 23 17
f 2 17 9
f 2 9 3
f 2 6 7
f 3 9 4
f 4 10 11
f 4 11 12
f 4 12 5
f 4 9 10
f 5 12 11
f 5 11 19
f 5 19 25
f 5 25 31
f 5 31 39
f 5 39 43
f 5 43 42
f 5 42 34
f 5 34 32
f 5 32 26
f 5 26 20
f 5 20 14
f 5 14 13
f 5 13 6
f 6 13 7
f 7 13 8
f 8 13 14
f 8 14 15
f 8 15 16
f 9 17 10
f 10 18 19
f 10 19 11
f 10 17 18
f 14 20 21
f 14 21 15
f 15 21 16
f 16 21 22
f 17 23 24
f 17 24 18
f 18 24 19
f 19 24 25
f 20 26 21
f 21 26 27
f 21 27 28
f 21 28 22
f 23 29 30
f 23 30 24
f 24 30 25
f 25 30 31
f 26 32 27
f 27 32 28
f 28 32 34
f 28 34 35
f 28 35 33
f 29 36 37
f 29 37 38
f 29 38 30
f 30 38 31
f 31 38 39
f 33 35 41
f 33 41 40
f 34 42 41
f 34 41 35
f 36 40 37
f 37 40 41
f 37 41 43
f 37 43 38
f 38 43 39
f 41 42 43

