# https://github.com/mikedh/trimesh
v 0.00592623 0.00275260 0.00810913
v 0.00592416 0.00275260 0.00810516
v 0.00592416 0.00275771 0.00810516
v 0.00588558 0.00275260 0.02384917
v 0.00562859 0.00275260 0.00766016
v 0.00560723 0.00345291 0.00763234
v 0.00554936 0.00356258 0.02391274
v 0.00544532 0.00374985 0.02402002
v 0.00527032 0.00403704 0.02418491
v 0.00482938 0.00465649 0.02454846
v 0.00440566 0.00514582 0.02483255
v 0.00462889 0.00275260 0.02469150
v 0.00406118 0.00275260 0.00570134
v 0.00391718 0.00335021 0.00539342
v 0.00544601 0.00374753 0.00743765
v 0.00554936 0.00356258 0.02384917
v 0.00391443 0.00561935 0.00539342
v 0.00520212 0.00414252 0.00718337
v 0.00499198 0.00444272 0.00697477
v 0.00464612 0.00487861 0.00657943
v 0.00431816 0.00523690 0.02488420
v 0.00440084 0.00515139 0.00625164
v 0.00432230 0.00523318 0.00613443
v 0.00374701 0.00576480 0.02517425
v 0.00330744 0.00275260 0.02534311
v -0.00111231 0.00275260 0.00570134
v -0.00111231 0.00335021 0.00539342
v 0.00375252 0.00575969 0.00539342
v 0.00402604 0.00552176 0.00563380
v 0.00331020 0.00610218 0.02534113
v 0.00352240 0.00594325 0.00539342
v 0.00318136 0.00619186 0.02538284
v 0.00307181 0.00626529 0.02541463
v 0.00256060 0.00657292 0.02553383
v 0.00186267 0.00275260 0.02561925
v -0.00111231 0.00275260 0.02568878
v -0.00111231 0.00749814 0.00539342
v 0.00337978 0.00605059 0.00539342
v 0.00330951 0.00610171 0.00539342
v 0.00307526 0.00626343 0.00539342
v 0.00276315 0.00645628 0.00539342
v 0.00192812 0.00688334 0.02561329
v 0.00246207 0.00662589 0.00539342
v 0.00227950 0.00671605 0.00539342
v 0.00151543 0.00704738 0.02562720
v -0.00111231 0.00749814 0.02565899
v -0.00107649 0.00749954 0.00539342
v 0.00181099 0.00692935 0.00539342
v 0.00151680 0.00704691 0.00539342
v 0.00128944 0.00712591 0.02562124
v 0.00065697 0.00730297 0.02555369
v 0.00008099 0.00741403 0.02550006
v -0.00050120 0.00747955 0.02552986
v -0.00104962 0.00749954 0.02563912
v -0.00104962 0.00749954 0.00539342
v 0.00144791 0.00707061 0.00539342
v 0.00125568 0.00712499 0.00539342
v 0.00064112 0.00729646 0.00539342
v 0.00024358 0.00738661 0.00539342
v 0.00011750 0.00740845 0.00539342
v -0.00009746 0.00743819 0.00539342
v -0.00014431 0.00744331 0.00539342
v -0.00070995 0.00749071 0.00539342
f 1 2 3
f 1 3 4
f 1 4 12
f 1 12 25
f 1 25 35
f 1 35 36
f 1 36 26
f 1 26 13
f 1 13 5
f 1 5 2
f 2 5 3
f 3 5 6
f 3 6 7
f 3 7 4
f 4 7 8
f 4 8 9
f 4 9 10
f 4 10 11
f 4 11 12
f 5 13 14
f 5 14 6
f 6 15 16
f 6 16 7
f 6 14 17
f 6 17 15
f 7 16 8
f 8 16 15
f 8 15 9
f 9 15 18
f 9 18 19
f 9 19 10
f 10 19 20
f 10 20 11
f 11 21 12
f 11 20 22
f 11 22 23
f 11 23 21
f 12 21 24
f 12 24 25
f 13 26 27
f 13 27 14
f 14 27 37
f 14 37 47
f 14 47 55
f 14 55 63
f 14 63 62
f 14 62 61
f 14 61 60
f 14 60 59
f 14 59 58
f 14 58 57
f 14 57 56
f 14 56 49
f 14 49 48
f 14 48 44
f 14 44 43
f 14 43 41
f 14 41 40
f 14 40 39
f 14 39 38
f 14 38 31
f 14 31 28
f 14 28 17
f 15 17 18
f 17 28 24
f 17 24 29
f 17 29 23
f 17 23 22
f 17 22 20
f 17 20 19
f 17 19 18
f 21 23 29
f 21 29 24
f 24 30 25
f 24 28 31
f 24 31 30
f 25 30 32
f 25 32 33
f 25 33 34
f 25 34 35
f 26 36 46
f 26 46 37
f 26 37 27
f 30 31 38
f 30 38 39
f 30 39 32
f 32 39 40
f 32 40 33
f 33 40 41
f 33 41 34
f 34 42 35
f 34 41 43
f 34 43 44
f 34 44 42
f 35 42 45
f 35 45 36
f 36 45 46
f 37 46 47
f 42 44 48
f 42 48 49
f 42 49 45
f 45 50 46
f 45 49 50
f 46 50 51
f 46 51 52
f 46 52 53
f 46 53 54
f 46 54 47
f 47 54 55
f 49 56 50
f 50 56 57
f 50 57 51
f 51 57 58
f 51 58 59
f 51 59 52
f 52 59 60
f 52 60 61
f 52 61 53
f 53 61 62
f 53 62 63
f 53 63 54
f 54 63 55

