# https://github.com/mikedh/trimesh
v 0.00013228 -0.00740523 -0.00374714
v -0.00014873 -0.00744489 -0.00374646
v 0.00013228 -0.00315049 -0.00374714
v 0.00040319 -0.00735661 -0.00372739
v 0.00165486 -0.00729904 -0.00037724
v -0.00033790 -0.00746536 -0.00323158
v -0.00064830 -0.00748796 -0.00369266
v 0.00169802 -0.00729904 0.00000007
v -0.00000088 -0.00314366 -0.00149963
v 0.00133896 -0.00315049 -0.00350196
v 0.00068052 -0.00729563 -0.00368721
v -0.00108725 -0.00315049 -0.00358777
v 0.00173567 -0.00727473 -0.00042832
v 0.00175220 -0.00727260 -0.00039972
v 0.00179812 -0.00727260 0.00000007
v -0.00049494 -0.00747815 0.00321060
v -0.00056381 -0.00748327 -0.00320025
v -0.00056565 -0.00748370 0.00320038
v -0.00056565 -0.00748370 0.00321060
v -0.00085767 -0.00749692 0.00321060
v -0.00084665 -0.00749649 -0.00313759
v -0.00105144 -0.00749905 -0.00359867
v 0.00165486 -0.00729904 0.00037806
v -0.00074931 -0.00314366 -0.00129940
v -0.00039117 -0.00314324 0.00059804
v 0.00133804 -0.00314324 0.00059804
v 0.00075031 -0.00314366 -0.00129804
v 0.00149783 -0.00705255 -0.00343658
v 0.00133988 -0.00710799 -0.00350128
v 0.00098908 -0.00721588 -0.00361638
v 0.00240146 -0.00315049 -0.00287879
v 0.00200382 -0.00684700 -0.00316824
v 0.00174394 -0.00727260 -0.00042832
v -0.00108725 -0.00749905 -0.00358777
v -0.00121031 -0.00749734 -0.00354827
v -0.00169151 -0.00747133 -0.00334531
v -0.00219200 -0.00315049 -0.00304156
v 0.00231789 -0.00669902 -0.00294621
v 0.00240146 -0.00665680 -0.00287879
v 0.00243176 -0.00664102 -0.00285291
v 0.00283674 -0.00641372 -0.00245040
v 0.00315999 -0.00620732 -0.00201724
v 0.00320407 -0.00617704 -0.00194573
v 0.00324723 -0.00614633 -0.00186468
v 0.00342998 -0.00601371 -0.00151325
v 0.00362007 -0.00586871 -0.00097521
v 0.00348324 -0.00597362 0.00151816
v 0.00334733 -0.00607426 0.00321060
v 0.00175220 -0.00727260 0.00040053
v 0.00047849 -0.00733998 0.00321060
v -0.00105144 -0.00749948 0.00321060
v -0.00105236 -0.00749990 -0.00307425
v 0.00072460 -0.00728540 0.00321060
v 0.00067960 -0.00729648 0.00321060
v 0.00056297 -0.00732292 0.00321060
v -0.00129755 -0.00314366 -0.00075046
v -0.00138479 -0.00314366 -0.00042832
v -0.00149866 -0.00314366 -0.00000129
v -0.00039117 -0.00314324 0.00139489
v 0.00149783 -0.00314366 0.00000143
v 0.00138395 -0.00314366 -0.00042832
v 0.00129855 -0.00314366 -0.00074910
v 0.00129671 -0.00314324 0.00075060
v 0.00337855 -0.00315006 0.00321060
v 0.00350069 -0.00315006 0.00151816
v 0.00320407 -0.00315049 -0.00194573
v -0.00105419 -0.00749948 0.00321060
v -0.00134439 -0.00749393 0.00295792
v -0.00135449 -0.00749308 -0.00295302
v -0.00162447 -0.00747645 -0.00281408
v -0.00162631 -0.00747687 0.00321060
v -0.00177416 -0.00746408 0.00272228
v -0.00177324 -0.00746365 -0.00272214
v -0.00219200 -0.00741077 -0.00304156
v -0.00221496 -0.00740736 -0.00302453
v -0.00264657 -0.00732676 -0.00265608
v -0.00305890 -0.00315049 -0.00216708
v 0.00324723 -0.00368825 -0.00186468
v 0.00366232 -0.00315091 -0.00080222
v 0.00366232 -0.00583502 -0.00080291
v 0.00369905 -0.00580389 0.00059804
v 0.00232065 -0.00669902 0.00321060
v 0.00370456 -0.00579749 0.00056535
v 0.00210668 -0.00680180 0.00321060
v 0.00169527 -0.00697622 0.00321060
v 0.00163558 -0.00699924 0.00321060
v 0.00122049 -0.00714637 0.00321060
v -0.00323521 -0.00315049 -0.00186468
v -0.00484504 -0.00315006 0.00151816
v -0.00563479 -0.00315006 0.00321060
v -0.00129847 -0.00314366 0.00074856
v -0.00000271 -0.00314324 0.00149909
v 0.00368160 -0.00315091 -0.00042832
v 0.00323713 -0.00315049 -0.00186468
v 0.00074756 -0.00314324 0.00129886
v 0.00372201 -0.00315177 0.00042846
v 0.00368895 -0.00315091 0.00059804
v -0.00134071 -0.00749393 0.00321060
v -0.00134898 -0.00749351 0.00321060
v -0.00177324 -0.00746408 0.00321060
v -0.00216720 -0.00741546 0.00321060
v -0.00220026 -0.00741035 -0.00238978
v -0.00236464 -0.00738263 -0.00222769
v -0.00248770 -0.00735917 -0.00208875
v -0.00250055 -0.00735747 0.00207459
v -0.00267595 -0.00732037 -0.00184289
v -0.00278615 -0.00729520 -0.00186468
v -0.00278432 -0.00729520 -0.00250965
v -0.00300196 -0.00723977 -0.00224472
v -0.00324164 -0.00717025 -0.00186468
v -0.00332888 -0.00714467 -0.00172506
v 0.00370089 -0.00430319 -0.00042832
v 0.00372293 -0.00578555 -0.00042832
v 0.00372017 -0.00578769 -0.00046714
v 0.00374680 -0.00576210 0.00004502
v -0.00339776 -0.00315091 -0.00158477
v -0.00393773 -0.00315091 -0.00042832
v -0.00563479 -0.00592074 0.00321060
v -0.00218281 -0.00741333 0.00240695
v -0.00218373 -0.00741291 0.00321060
v -0.00248954 -0.00735960 0.00208889
v -0.00250147 -0.00735704 0.00321060
v -0.00278340 -0.00729606 0.00321060
v -0.00278432 -0.00729606 0.00167480
v -0.00283207 -0.00728454 0.00159239
v -0.00292390 -0.00726109 -0.00141790
v -0.00285962 -0.00727687 -0.00186468
v -0.00305339 -0.00722655 -0.00111143
v -0.00311675 -0.00720906 -0.00092073
v -0.00321868 -0.00717878 -0.00042832
v -0.00324899 -0.00716897 0.00000007
v -0.00339776 -0.00712206 -0.00158477
v -0.00393773 -0.00689903 -0.00042832
v -0.00484504 -0.00645338 0.00151816
v -0.00517012 -0.00626574 0.00221625
v -0.00514074 -0.00628280 0.00321060
v -0.00282840 -0.00728540 0.00321060
v -0.00305155 -0.00722655 0.00111156
v -0.00306716 -0.00722228 0.00107002
v -0.00319113 -0.00718688 0.00060553
v -0.00316083 -0.00718561 0.00321060
v -0.00441526 -0.00670158 0.00321060
v -0.00441526 -0.00670158 0.00151816
v -0.00441434 -0.00670115 0.00059668
v -0.00467147 -0.00655403 0.00151816
v -0.00288166 -0.00726962 0.00321060
v -0.00307359 -0.00721887 0.00151816
f 1 2 3
f 1 3 4
f 1 4 5
f 1 5 2
f 2 6 7
f 2 7 3
f 2 5 8
f 2 8 6
f 3 9 10
f 3 10 11
f 3 11 4
f 3 7 12
f 3 12 9
f 4 11 5
f 5 11 13
f 5 13 14
f 5 14 15
f 5 15 8
f 6 8 16
f 6 16 17
f 6 17 7
f 7 17 18
f 7 18 19
f 7 19 20
f 7 20 21
f 7 21 22
f 7 22 12
f 8 23 16
f 8 15 23
f 9 12 24
f 9 24 25
f 9 25 26
f 9 26 27
f 9 27 10
f 10 28 29
f 10 29 30
f 10 30 11
f 10 27 31
f 10 31 32
f 10 32 28
f 11 30 33
f 11 33 13
f 12 22 34
f 12 34 35
f 12 35 36
f 12 36 37
f 12 37 24
f 13 33 14
f 14 33 29
f 14 29 28
f 14 28 32
f 14 32 38
f 14 38 39
f 14 39 40
f 14 40 41
f 14 41 15
f 15 41 42
f 15 42 43
f 15 43 44
f 15 44 45
f 15 45 46
f 15 46 47
f 15 47 48
f 15 48 49
f 15 49 23
f 16 50 55
f 16 55 54
f 16 54 53
f 16 53 87
f 16 87 86
f 16 86 85
f 16 85 84
f 16 84 82
f 16 82 48
f 16 48 64
f 16 64 90
f 16 90 118
f 16 118 136
f 16 136 142
f 16 142 141
f 16 141 146
f 16 146 137
f 16 137 123
f 16 123 122
f 16 122 120
f 16 120 101
f 16 101 100
f 16 100 71
f 16 71 99
f 16 99 98
f 16 98 67
f 16 67 51
f 16 51 20
f 16 20 19
f 16 19 18
f 16 18 17
f 16 23 50
f 20 51 52
f 20 52 21
f 21 52 22
f 22 52 34
f 23 53 54
f 23 54 55
f 23 55 50
f 23 49 53
f 24 37 56
f 24 56 25
f 25 56 57
f 25 57 58
f 25 58 59
f 25 59 92
f 25 92 95
f 25 95 63
f 25 63 26
f 26 60 61
f 26 61 62
f 26 62 27
f 26 63 64
f 26 64 65
f 26 65 60
f 27 62 31
f 29 33 30
f 31 66 41
f 31 41 40
f 31 40 39
f 31 39 38
f 31 38 32
f 31 62 66
f 34 52 35
f 35 52 67
f 35 67 68
f 35 68 69
f 35 69 36
f 36 69 70
f 36 70 71
f 36 71 72
f 36 72 73
f 36 73 74
f 36 74 37
f 37 74 75
f 37 75 76
f 37 76 77
f 37 77 56
f 41 66 42
f 42 66 43
f 43 66 78
f 43 78 44
f 44 78 45
f 45 78 79
f 45 79 46
f 46 79 80
f 46 80 47
f 47 80 81
f 47 81 48
f 48 82 49
f 48 81 83
f 48 83 64
f 49 82 84
f 49 84 85
f 49 85 86
f 49 86 87
f 49 87 53
f 51 67 52
f 56 77 88
f 56 88 89
f 56 89 90
f 56 90 57
f 57 90 58
f 58 91 59
f 58 90 91
f 59 91 90
f 59 90 92
f 60 65 93
f 60 93 79
f 60 79 61
f 61 79 62
f 62 79 94
f 62 94 66
f 63 95 64
f 64 83 96
f 64 96 97
f 64 97 65
f 64 95 92
f 64 92 90
f 65 97 93
f 66 94 78
f 67 98 68
f 68 98 99
f 68 99 71
f 68 71 69
f 69 71 70
f 71 100 72
f 72 100 101
f 72 101 73
f 73 101 102
f 73 102 74
f 74 102 75
f 75 103 76
f 75 102 103
f 76 103 104
f 76 104 105
f 76 105 106
f 76 106 107
f 76 107 108
f 76 108 77
f 77 108 109
f 77 109 110
f 77 110 111
f 77 111 88
f 78 94 79
f 79 93 112
f 79 112 113
f 79 113 114
f 79 114 80
f 80 114 113
f 80 113 81
f 81 113 115
f 81 115 83
f 83 115 96
f 88 111 116
f 88 116 89
f 89 116 117
f 89 117 90
f 90 117 133
f 90 133 118
f 93 97 96
f 93 96 112
f 96 115 112
f 101 119 102
f 101 120 119
f 102 119 103
f 103 119 121
f 103 121 104
f 104 121 105
f 105 121 122
f 105 122 106
f 106 122 123
f 106 123 124
f 106 124 107
f 107 125 126
f 107 126 127
f 107 127 108
f 107 124 125
f 108 127 126
f 108 126 109
f 109 126 128
f 109 128 129
f 109 129 110
f 110 129 111
f 111 129 130
f 111 130 131
f 111 131 132
f 111 132 116
f 112 115 113
f 116 132 133
f 116 133 117
f 118 133 134
f 118 134 135
f 118 135 136
f 119 120 121
f 120 122 121
f 123 137 124
f 124 137 125
f 125 137 126
f 126 138 128
f 126 137 138
f 128 139 129
f 128 138 139
f 129 139 140
f 129 140 130
f 130 140 131
f 131 140 141
f 131 141 132
f 132 141 142
f 132 142 133
f 133 142 143
f 133 143 144
f 133 144 134
f 134 144 145
f 134 145 135
f 135 145 136
f 136 145 142
f 137 146 147
f 137 147 139
f 137 139 138
f 139 147 140
f 140 147 141
f 141 147 146
f 142 145 143
f 143 145 144

